<?xml version="1.0" encoding="UTF-8" standalone="no"?>
<!DOCTYPE svg PUBLIC "-//W3C//DTD SVG 1.1//EN"
 "http://www.w3.org/Graphics/SVG/1.1/DTD/svg11.dtd">
<!-- Generated by graphviz version 2.40.1 (20161225.0304)
 -->
<!-- Title: drake/systems/framework/abstract_values.h Pages: 1 -->
<svg width="1601pt" height="363pt"
 viewBox="0.00 0.00 1600.99 363.00" xmlns="http://www.w3.org/2000/svg" xmlns:xlink="http://www.w3.org/1999/xlink">
<g id="graph0" class="graph" transform="scale(1 1) rotate(0) translate(4 359)">
<title>drake/systems/framework/abstract_values.h</title>
<polygon fill="#ffffff" stroke="transparent" points="-4,4 -4,-359 1596.9896,-359 1596.9896,4 -4,4"/>
<!-- Node0 -->
<g id="node1" class="node">
<title>Node0</title>
<g id="a_node1"><a xlink:title=" ">
<polygon fill="#bfbfbf" stroke="#000000" points="1084.9896,-324.5 1084.9896,-354.5 1229.9896,-354.5 1229.9896,-324.5 1084.9896,-324.5"/>
<text text-anchor="start" x="1092.9896" y="-342.5" font-family="Helvetica,sans-Serif" font-size="10.00" fill="#000000">drake/systems/framework</text>
<text text-anchor="middle" x="1157.4896" y="-331.5" font-family="Helvetica,sans-Serif" font-size="10.00" fill="#000000">/abstract_values.h</text>
</a>
</g>
</g>
<!-- Node1 -->
<g id="node2" class="node">
<title>Node1</title>
<g id="a_node2"><a xlink:title=" ">
<polygon fill="#ffffff" stroke="#bfbfbf" points="989.4896,-129 989.4896,-148 1047.4896,-148 1047.4896,-129 989.4896,-129"/>
<text text-anchor="middle" x="1018.4896" y="-136" font-family="Helvetica,sans-Serif" font-size="10.00" fill="#000000">memory</text>
</a>
</g>
</g>
<!-- Node0&#45;&gt;Node1 -->
<g id="edge1" class="edge">
<title>Node0&#45;&gt;Node1</title>
<path fill="none" stroke="#191970" d="M1167.5709,-324.2536C1185.4054,-295.1794 1217.8987,-231.0564 1187.4896,-190 1179.581,-179.3222 1104.9454,-159.5033 1057.5408,-147.8108"/>
<polygon fill="#191970" stroke="#191970" points="1058.128,-144.3513 1047.5827,-145.3751 1056.4648,-151.1509 1058.128,-144.3513"/>
</g>
<!-- Node2 -->
<g id="node3" class="node">
<title>Node2</title>
<g id="a_node3"><a xlink:title=" ">
<polygon fill="#ffffff" stroke="#bfbfbf" points="15.9896,-129 15.9896,-148 62.9896,-148 62.9896,-129 15.9896,-129"/>
<text text-anchor="middle" x="39.4896" y="-136" font-family="Helvetica,sans-Serif" font-size="10.00" fill="#000000">vector</text>
</a>
</g>
</g>
<!-- Node0&#45;&gt;Node2 -->
<g id="edge2" class="edge">
<title>Node0&#45;&gt;Node2</title>
<path fill="none" stroke="#191970" d="M1084.7865,-330.9555C943.3199,-313.8507 621.4048,-272.5807 353.4896,-221 227.4151,-196.7273 193.6751,-196.4032 72.4896,-154 70.8467,-153.4251 69.1758,-152.7949 67.5022,-152.1278"/>
<polygon fill="#191970" stroke="#191970" points="68.6256,-148.8001 58.0585,-148.0336 65.8412,-155.2226 68.6256,-148.8001"/>
</g>
<!-- Node3 -->
<g id="node4" class="node">
<title>Node3</title>
<g id="a_node4"><a xlink:href="drake__assert_8h.html" target="_top" xlink:title="Provides Drake&#39;s assertion implementation.">
<polygon fill="#ffffff" stroke="#000000" points="409.9896,-56.5 409.9896,-86.5 530.9896,-86.5 530.9896,-56.5 409.9896,-56.5"/>
<text text-anchor="start" x="417.9896" y="-74.5" font-family="Helvetica,sans-Serif" font-size="10.00" fill="#000000">drake/common/drake</text>
<text text-anchor="middle" x="470.4896" y="-63.5" font-family="Helvetica,sans-Serif" font-size="10.00" fill="#000000">_assert.h</text>
</a>
</g>
</g>
<!-- Node0&#45;&gt;Node3 -->
<g id="edge3" class="edge">
<title>Node0&#45;&gt;Node3</title>
<path fill="none" stroke="#191970" d="M1084.9043,-337.5185C922.1174,-331.5857 516.6007,-308.4829 190.4896,-221 106.4311,-198.4504 56.4033,-225.2948 6.4896,-154 -1.4122,-142.7133 -2.6997,-133.2657 6.4896,-123 32.2208,-94.2549 276.3386,-79.7804 399.7641,-74.2496"/>
<polygon fill="#191970" stroke="#191970" points="400.0435,-77.7408 409.8798,-73.8042 399.7355,-70.7475 400.0435,-77.7408"/>
</g>
<!-- Node5 -->
<g id="node6" class="node">
<title>Node5</title>
<g id="a_node6"><a xlink:href="drake__copyable_8h.html" target="_top" xlink:title="Provides careful macros to selectively enable or disable the special member functions for copy&#45;constr...">
<polygon fill="#ffffff" stroke="#000000" points="1388.9896,-56.5 1388.9896,-86.5 1509.9896,-86.5 1509.9896,-56.5 1388.9896,-56.5"/>
<text text-anchor="start" x="1396.9896" y="-74.5" font-family="Helvetica,sans-Serif" font-size="10.00" fill="#000000">drake/common/drake</text>
<text text-anchor="middle" x="1449.4896" y="-63.5" font-family="Helvetica,sans-Serif" font-size="10.00" fill="#000000">_copyable.h</text>
</a>
</g>
</g>
<!-- Node0&#45;&gt;Node5 -->
<g id="edge5" class="edge">
<title>Node0&#45;&gt;Node5</title>
<path fill="none" stroke="#191970" d="M1217.0039,-324.4836C1272.1535,-307.7412 1353.055,-275.5706 1403.4896,-221 1435.6149,-186.2402 1445.3188,-129.5115 1448.2406,-96.8418"/>
<polygon fill="#191970" stroke="#191970" points="1451.7397,-96.9842 1448.9941,-86.7513 1444.7591,-96.4629 1451.7397,-96.9842"/>
</g>
<!-- Node6 -->
<g id="node7" class="node">
<title>Node6</title>
<g id="a_node7"><a xlink:href="drake__deprecated_8h.html" target="_top" xlink:title="Provides a portable macro for use in generating compile&#45;time warnings for use of code that is permitt...">
<polygon fill="#ffffff" stroke="#000000" points="1471.9896,-257.5 1471.9896,-287.5 1592.9896,-287.5 1592.9896,-257.5 1471.9896,-257.5"/>
<text text-anchor="start" x="1479.9896" y="-275.5" font-family="Helvetica,sans-Serif" font-size="10.00" fill="#000000">drake/common/drake</text>
<text text-anchor="middle" x="1532.4896" y="-264.5" font-family="Helvetica,sans-Serif" font-size="10.00" fill="#000000">_deprecated.h</text>
</a>
</g>
</g>
<!-- Node0&#45;&gt;Node6 -->
<g id="edge6" class="edge">
<title>Node0&#45;&gt;Node6</title>
<path fill="none" stroke="#191970" d="M1230.0527,-327.7485C1290.8882,-317.7274 1379.9918,-302.6557 1457.4896,-288 1458.9594,-287.7221 1460.4448,-287.4386 1461.9417,-287.1507"/>
<polygon fill="#191970" stroke="#191970" points="1462.7993,-290.5493 1471.9423,-285.1961 1461.4566,-283.6793 1462.7993,-290.5493"/>
</g>
<!-- Node7 -->
<g id="node8" class="node">
<title>Node7</title>
<g id="a_node8"><a xlink:href="value_8h.html" target="_top" xlink:title=" ">
<polygon fill="#ffffff" stroke="#000000" points="994.9896,-263 994.9896,-282 1123.9896,-282 1123.9896,-263 994.9896,-263"/>
<text text-anchor="middle" x="1059.4896" y="-270" font-family="Helvetica,sans-Serif" font-size="10.00" fill="#000000">drake/common/value.h</text>
</a>
</g>
</g>
<!-- Node0&#45;&gt;Node7 -->
<g id="edge7" class="edge">
<title>Node0&#45;&gt;Node7</title>
<path fill="none" stroke="#191970" d="M1135.2519,-324.2967C1119.2419,-313.351 1097.7333,-298.6462 1081.724,-287.701"/>
<polygon fill="#191970" stroke="#191970" points="1083.6961,-284.8095 1073.4656,-282.055 1079.7454,-290.5881 1083.6961,-284.8095"/>
</g>
<!-- Node4 -->
<g id="node5" class="node">
<title>Node4</title>
<g id="a_node5"><a xlink:title=" ">
<polygon fill="#ffffff" stroke="#bfbfbf" points="744.9896,-.5 744.9896,-19.5 813.9896,-19.5 813.9896,-.5 744.9896,-.5"/>
<text text-anchor="middle" x="779.4896" y="-7.5" font-family="Helvetica,sans-Serif" font-size="10.00" fill="#000000">type_traits</text>
</a>
</g>
</g>
<!-- Node3&#45;&gt;Node4 -->
<g id="edge4" class="edge">
<title>Node3&#45;&gt;Node4</title>
<path fill="none" stroke="#191970" d="M531.0615,-58.9293C535.9419,-57.9325 540.7975,-56.946 545.4896,-56 611.4705,-42.697 688.0176,-27.7391 735.1021,-18.5929"/>
<polygon fill="#191970" stroke="#191970" points="735.8251,-22.018 744.9749,-16.6765 734.4911,-15.1463 735.8251,-22.018"/>
</g>
<!-- Node7&#45;&gt;Node1 -->
<g id="edge8" class="edge">
<title>Node7&#45;&gt;Node1</title>
<path fill="none" stroke="#191970" d="M1052.2608,-262.8127C1045.2321,-252.864 1034.8546,-236.6624 1029.4896,-221 1022.4893,-200.5634 1019.9138,-175.8605 1018.9823,-158.8439"/>
<polygon fill="#191970" stroke="#191970" points="1022.4631,-158.29 1018.566,-148.438 1015.4687,-158.5699 1022.4631,-158.29"/>
</g>
<!-- Node7&#45;&gt;Node4 -->
<g id="edge11" class="edge">
<title>Node7&#45;&gt;Node4</title>
<path fill="none" stroke="#191970" d="M1097.0494,-262.9993C1168.9034,-243.9435 1321.1455,-199.0142 1348.4896,-154 1373.0917,-113.4998 1346.914,-80.7266 1306.4896,-56 1286.0303,-43.4855 948.0061,-20.7623 824.3453,-12.8263"/>
<polygon fill="#191970" stroke="#191970" points="824.2952,-9.316 814.0922,-12.1707 823.8485,-16.3018 824.2952,-9.316"/>
</g>
<!-- Node7&#45;&gt;Node5 -->
<g id="edge20" class="edge">
<title>Node7&#45;&gt;Node5</title>
<path fill="none" stroke="#191970" d="M1124.3188,-269.2914C1206.476,-264.031 1342.1483,-250.9855 1381.4896,-221 1392.1255,-212.8935 1423.6906,-136.3832 1439.7986,-96.0777"/>
<polygon fill="#191970" stroke="#191970" points="1443.0951,-97.2598 1443.5387,-86.6742 1436.5906,-94.6727 1443.0951,-97.2598"/>
</g>
<!-- Node8 -->
<g id="node9" class="node">
<title>Node8</title>
<g id="a_node9"><a xlink:title=" ">
<polygon fill="#ffffff" stroke="#bfbfbf" points="362.9896,-196 362.9896,-215 427.9896,-215 427.9896,-196 362.9896,-196"/>
<text text-anchor="middle" x="395.4896" y="-203" font-family="Helvetica,sans-Serif" font-size="10.00" fill="#000000">stdexcept</text>
</a>
</g>
</g>
<!-- Node7&#45;&gt;Node8 -->
<g id="edge9" class="edge">
<title>Node7&#45;&gt;Node8</title>
<path fill="none" stroke="#191970" d="M994.9622,-269.4486C857.858,-262.5929 541.4957,-244.6975 436.4896,-221 433.2977,-220.2797 430.0213,-219.364 426.7789,-218.339"/>
<polygon fill="#191970" stroke="#191970" points="427.8668,-215.0117 417.272,-215.0216 425.5606,-221.6209 427.8668,-215.0117"/>
</g>
<!-- Node9 -->
<g id="node10" class="node">
<title>Node9</title>
<g id="a_node10"><a xlink:title=" ">
<polygon fill="#ffffff" stroke="#bfbfbf" points="889.4896,-129 889.4896,-148 933.4896,-148 933.4896,-129 889.4896,-129"/>
<text text-anchor="middle" x="911.4896" y="-136" font-family="Helvetica,sans-Serif" font-size="10.00" fill="#000000">string</text>
</a>
</g>
</g>
<!-- Node7&#45;&gt;Node9 -->
<g id="edge10" class="edge">
<title>Node7&#45;&gt;Node9</title>
<path fill="none" stroke="#191970" d="M994.7281,-268.2404C928.5898,-262.3811 832.4462,-249.1676 809.4896,-221 800.7854,-210.3199 802.2692,-201.7342 809.4896,-190 813.6227,-183.2832 851.9798,-165.0388 880.4472,-152.1801"/>
<polygon fill="#191970" stroke="#191970" points="881.9656,-155.3352 889.6585,-148.0503 879.1018,-148.9477 881.9656,-155.3352"/>
</g>
<!-- Node10 -->
<g id="node11" class="node">
<title>Node10</title>
<g id="a_node11"><a xlink:title=" ">
<polygon fill="#ffffff" stroke="#bfbfbf" points="1103.9896,-129 1103.9896,-148 1160.9896,-148 1160.9896,-129 1103.9896,-129"/>
<text text-anchor="middle" x="1132.4896" y="-136" font-family="Helvetica,sans-Serif" font-size="10.00" fill="#000000">typeinfo</text>
</a>
</g>
</g>
<!-- Node7&#45;&gt;Node10 -->
<g id="edge12" class="edge">
<title>Node7&#45;&gt;Node10</title>
<path fill="none" stroke="#191970" d="M1121.5056,-262.9521C1146.3296,-255.7537 1172.5386,-243.1312 1187.4896,-221 1203.1426,-197.8298 1176.7873,-170.8476 1155.4319,-154.2198"/>
<polygon fill="#191970" stroke="#191970" points="1157.416,-151.3336 1147.3018,-148.1786 1153.2409,-156.9522 1157.416,-151.3336"/>
</g>
<!-- Node11 -->
<g id="node12" class="node">
<title>Node11</title>
<g id="a_node12"><a xlink:title=" ">
<polygon fill="#ffffff" stroke="#bfbfbf" points="1052.9896,-62 1052.9896,-81 1097.9896,-81 1097.9896,-62 1052.9896,-62"/>
<text text-anchor="middle" x="1075.4896" y="-69" font-family="Helvetica,sans-Serif" font-size="10.00" fill="#000000">utility</text>
</a>
</g>
</g>
<!-- Node7&#45;&gt;Node11 -->
<g id="edge13" class="edge">
<title>Node7&#45;&gt;Node11</title>
<path fill="none" stroke="#191970" d="M1102.0546,-262.9961C1140.0461,-253.5488 1191.4872,-238.0395 1203.4896,-221 1225.4208,-189.8651 1173.239,-125.8484 1170.4896,-123 1147.0132,-98.6777 1133.1666,-103.1862 1103.4896,-87 1102.8311,-86.6408 1102.1642,-86.2765 1101.4916,-85.9084"/>
<polygon fill="#191970" stroke="#191970" points="1103.0966,-82.7967 1092.6479,-81.0427 1099.7222,-88.9297 1103.0966,-82.7967"/>
</g>
<!-- Node12 -->
<g id="node13" class="node">
<title>Node12</title>
<g id="a_node13"><a xlink:href="copyable__unique__ptr_8h.html" target="_top" xlink:title=" ">
<polygon fill="#ffffff" stroke="#000000" points="624.9896,-190.5 624.9896,-220.5 761.9896,-220.5 761.9896,-190.5 624.9896,-190.5"/>
<text text-anchor="start" x="632.9896" y="-208.5" font-family="Helvetica,sans-Serif" font-size="10.00" fill="#000000">drake/common/copyable</text>
<text text-anchor="middle" x="693.4896" y="-197.5" font-family="Helvetica,sans-Serif" font-size="10.00" fill="#000000">_unique_ptr.h</text>
</a>
</g>
</g>
<!-- Node7&#45;&gt;Node12 -->
<g id="edge14" class="edge">
<title>Node7&#45;&gt;Node12</title>
<path fill="none" stroke="#191970" d="M1006.7967,-262.986C949.9528,-252.7049 856.7864,-235.8037 776.4896,-221 775.1922,-220.7608 773.8834,-220.5193 772.5657,-220.2759"/>
<polygon fill="#191970" stroke="#191970" points="772.7976,-216.7594 762.3276,-218.3805 771.5234,-223.6424 772.7976,-216.7594"/>
</g>
<!-- Node15 -->
<g id="node16" class="node">
<title>Node15</title>
<g id="a_node16"><a xlink:href="hash_8h.html" target="_top" xlink:title=" ">
<polygon fill="#ffffff" stroke="#000000" points="445.9896,-196 445.9896,-215 570.9896,-215 570.9896,-196 445.9896,-196"/>
<text text-anchor="middle" x="508.4896" y="-203" font-family="Helvetica,sans-Serif" font-size="10.00" fill="#000000">drake/common/hash.h</text>
</a>
</g>
</g>
<!-- Node7&#45;&gt;Node15 -->
<g id="edge21" class="edge">
<title>Node7&#45;&gt;Node15</title>
<path fill="none" stroke="#191970" d="M994.7115,-265.569C908.1857,-256.1779 750.1498,-238.5595 615.4896,-221 604.4049,-219.5546 592.6868,-217.9428 581.2299,-216.3203"/>
<polygon fill="#191970" stroke="#191970" points="581.6458,-212.8443 571.2515,-214.8957 580.6564,-219.774 581.6458,-212.8443"/>
</g>
<!-- Node22 -->
<g id="node23" class="node">
<title>Node22</title>
<g id="a_node23"><a xlink:href="is__cloneable_8h.html" target="_top" xlink:title=" ">
<polygon fill="#ffffff" stroke="#000000" points="818.9896,-196 818.9896,-215 981.9896,-215 981.9896,-196 818.9896,-196"/>
<text text-anchor="middle" x="900.4896" y="-203" font-family="Helvetica,sans-Serif" font-size="10.00" fill="#000000">drake/common/is_cloneable.h</text>
</a>
</g>
</g>
<!-- Node7&#45;&gt;Node22 -->
<g id="edge37" class="edge">
<title>Node7&#45;&gt;Node22</title>
<path fill="none" stroke="#191970" d="M1036.7088,-262.9005C1009.4347,-251.4077 963.5765,-232.0838 932.6883,-219.068"/>
<polygon fill="#191970" stroke="#191970" points="933.8026,-215.7395 923.2282,-215.0817 931.0843,-222.1902 933.8026,-215.7395"/>
</g>
<!-- Node23 -->
<g id="node24" class="node">
<title>Node23</title>
<g id="a_node24"><a xlink:href="nice__type__name_8h.html" target="_top" xlink:title=" ">
<polygon fill="#ffffff" stroke="#000000" points="1038.4896,-190.5 1038.4896,-220.5 1178.4896,-220.5 1178.4896,-190.5 1038.4896,-190.5"/>
<text text-anchor="start" x="1046.4896" y="-208.5" font-family="Helvetica,sans-Serif" font-size="10.00" fill="#000000">drake/common/nice_type</text>
<text text-anchor="middle" x="1108.4896" y="-197.5" font-family="Helvetica,sans-Serif" font-size="10.00" fill="#000000">_name.h</text>
</a>
</g>
</g>
<!-- Node7&#45;&gt;Node23 -->
<g id="edge40" class="edge">
<title>Node7&#45;&gt;Node23</title>
<path fill="none" stroke="#191970" d="M1066.5101,-262.9005C1073.0262,-253.9908 1082.9842,-240.3748 1091.5664,-228.6399"/>
<polygon fill="#191970" stroke="#191970" points="1094.4254,-230.6596 1097.5036,-220.5218 1088.7752,-226.5274 1094.4254,-230.6596"/>
</g>
<!-- Node12&#45;&gt;Node1 -->
<g id="edge17" class="edge">
<title>Node12&#45;&gt;Node1</title>
<path fill="none" stroke="#191970" d="M762.0167,-191.3729C828.1505,-177.7392 925.9234,-157.5829 979.6329,-146.5105"/>
<polygon fill="#191970" stroke="#191970" points="980.3608,-149.9341 989.4482,-144.487 978.9474,-143.0782 980.3608,-149.9341"/>
</g>
<!-- Node12&#45;&gt;Node3 -->
<g id="edge19" class="edge">
<title>Node12&#45;&gt;Node3</title>
<path fill="none" stroke="#191970" d="M742.2077,-190.3692C781.8725,-175.567 827.6486,-151.1825 803.4896,-123 786.6545,-103.3611 634.1283,-86.2762 541.4442,-77.5906"/>
<polygon fill="#191970" stroke="#191970" points="541.5635,-74.0867 531.2833,-76.6495 540.9179,-81.0569 541.5635,-74.0867"/>
</g>
<!-- Node12&#45;&gt;Node11 -->
<g id="edge18" class="edge">
<title>Node12&#45;&gt;Node11</title>
<path fill="none" stroke="#191970" d="M734.003,-190.4084C759.4056,-180.6495 792.6824,-167.3217 821.4896,-154 848.3755,-141.5669 852.8834,-133.739 880.4896,-123 935.908,-101.4419 1003.6131,-85.8226 1042.9157,-77.7498"/>
<polygon fill="#191970" stroke="#191970" points="1043.6322,-81.1758 1052.7427,-75.7675 1042.248,-74.314 1043.6322,-81.1758"/>
</g>
<!-- Node13 -->
<g id="node14" class="node">
<title>Node13</title>
<g id="a_node14"><a xlink:title=" ">
<polygon fill="#ffffff" stroke="#bfbfbf" points="741.9896,-129 741.9896,-148 794.9896,-148 794.9896,-129 741.9896,-129"/>
<text text-anchor="middle" x="768.4896" y="-136" font-family="Helvetica,sans-Serif" font-size="10.00" fill="#000000">cstddef</text>
</a>
</g>
</g>
<!-- Node12&#45;&gt;Node13 -->
<g id="edge15" class="edge">
<title>Node12&#45;&gt;Node13</title>
<path fill="none" stroke="#191970" d="M710.5083,-190.2967C722.3071,-179.7564 738.008,-165.7303 750.0953,-154.9323"/>
<polygon fill="#191970" stroke="#191970" points="752.6679,-157.3273 757.7938,-148.055 748.0044,-152.107 752.6679,-157.3273"/>
</g>
<!-- Node14 -->
<g id="node15" class="node">
<title>Node14</title>
<g id="a_node15"><a xlink:title=" ">
<polygon fill="#ffffff" stroke="#bfbfbf" points="663.4896,-129 663.4896,-148 723.4896,-148 723.4896,-129 663.4896,-129"/>
<text text-anchor="middle" x="693.4896" y="-136" font-family="Helvetica,sans-Serif" font-size="10.00" fill="#000000">iostream</text>
</a>
</g>
</g>
<!-- Node12&#45;&gt;Node14 -->
<g id="edge16" class="edge">
<title>Node12&#45;&gt;Node14</title>
<path fill="none" stroke="#191970" d="M693.4896,-190.2967C693.4896,-180.7699 693.4896,-168.3954 693.4896,-158.1306"/>
<polygon fill="#191970" stroke="#191970" points="696.9897,-158.0549 693.4896,-148.055 689.9897,-158.055 696.9897,-158.0549"/>
</g>
<!-- Node15&#45;&gt;Node2 -->
<g id="edge32" class="edge">
<title>Node15&#45;&gt;Node2</title>
<path fill="none" stroke="#191970" d="M468.2751,-195.9999C457.9581,-193.795 446.8483,-191.6219 436.4896,-190 275.8793,-164.8529 229.2169,-197.181 72.4896,-154 70.5216,-153.4578 68.5258,-152.8062 66.5403,-152.0814"/>
<polygon fill="#191970" stroke="#191970" points="67.4513,-148.6675 56.8765,-148.0147 64.7361,-155.1195 67.4513,-148.6675"/>
</g>
<!-- Node15&#45;&gt;Node3 -->
<g id="edge33" class="edge">
<title>Node15&#45;&gt;Node3</title>
<path fill="none" stroke="#191970" d="M466.7198,-195.9199C456.8376,-193.8167 446.3153,-191.7099 436.4896,-190 376.8549,-179.6222 206.3629,-199.5426 166.4896,-154 157.4139,-143.6338 157.598,-133.5246 166.4896,-123 181.4073,-105.3427 314.5898,-88.0676 399.6545,-78.6974"/>
<polygon fill="#191970" stroke="#191970" points="400.2165,-82.157 409.7786,-77.5944 399.4583,-75.1982 400.2165,-82.157"/>
</g>
<!-- Node15&#45;&gt;Node4 -->
<g id="edge30" class="edge">
<title>Node15&#45;&gt;Node4</title>
<path fill="none" stroke="#191970" d="M522.2768,-195.8179C536.4254,-185.7422 558.9322,-169.3233 577.4896,-154 593.2581,-140.9797 595.4065,-135.6296 611.4896,-123 660.2602,-84.7019 721.5938,-45.5258 755.0153,-24.8689"/>
<polygon fill="#191970" stroke="#191970" points="756.9819,-27.7685 763.6681,-19.5498 753.316,-21.8051 756.9819,-27.7685"/>
</g>
<!-- Node15&#45;&gt;Node9 -->
<g id="edge29" class="edge">
<title>Node15&#45;&gt;Node9</title>
<path fill="none" stroke="#191970" d="M565.8017,-195.9717C651.6108,-181.7057 810.6802,-155.2599 878.9671,-143.907"/>
<polygon fill="#191970" stroke="#191970" points="879.8315,-147.3114 889.1221,-142.2187 878.6835,-140.4062 879.8315,-147.3114"/>
</g>
<!-- Node15&#45;&gt;Node11 -->
<g id="edge31" class="edge">
<title>Node15&#45;&gt;Node11</title>
<path fill="none" stroke="#191970" d="M530.334,-195.8262C551.563,-186.1375 584.4635,-170.3528 611.4896,-154 631.6467,-141.8035 632.5514,-131.5894 654.4896,-123 690.4354,-108.9263 949.9727,-83.3538 1042.6818,-74.5636"/>
<polygon fill="#191970" stroke="#191970" points="1043.2584,-78.0249 1052.8851,-73.6002 1042.6003,-71.0559 1043.2584,-78.0249"/>
</g>
<!-- Node15&#45;&gt;Node13 -->
<g id="edge23" class="edge">
<title>Node15&#45;&gt;Node13</title>
<path fill="none" stroke="#191970" d="M562.1822,-195.9865C608.0287,-187.1946 675.4136,-172.6787 732.4896,-154 734.5915,-153.3122 736.7399,-152.5491 738.8891,-151.7411"/>
<polygon fill="#191970" stroke="#191970" points="740.2051,-154.9844 748.1755,-148.0042 737.5918,-148.4905 740.2051,-154.9844"/>
</g>
<!-- Node15&#45;&gt;Node14 -->
<g id="edge25" class="edge">
<title>Node15&#45;&gt;Node14</title>
<path fill="none" stroke="#191970" d="M534.9956,-195.9005C567.1418,-184.2584 621.4763,-164.5805 657.4171,-151.5641"/>
<polygon fill="#191970" stroke="#191970" points="658.8223,-154.7777 667.0328,-148.0817 656.4386,-148.1961 658.8223,-154.7777"/>
</g>
<!-- Node16 -->
<g id="node17" class="node">
<title>Node16</title>
<g id="a_node17"><a xlink:title=" ">
<polygon fill="#ffffff" stroke="#bfbfbf" points="299.9896,-129 299.9896,-148 346.9896,-148 346.9896,-129 299.9896,-129"/>
<text text-anchor="middle" x="323.4896" y="-136" font-family="Helvetica,sans-Serif" font-size="10.00" fill="#000000">cmath</text>
</a>
</g>
</g>
<!-- Node15&#45;&gt;Node16 -->
<g id="edge22" class="edge">
<title>Node15&#45;&gt;Node16</title>
<path fill="none" stroke="#191970" d="M476.1164,-195.9094C444.8477,-186.3414 396.3528,-170.6958 355.4896,-154 354.1325,-153.4455 352.7517,-152.8605 351.3634,-152.2553"/>
<polygon fill="#191970" stroke="#191970" points="352.8107,-149.0686 342.262,-148.0811 349.8925,-155.4314 352.8107,-149.0686"/>
</g>
<!-- Node17 -->
<g id="node18" class="node">
<title>Node17</title>
<g id="a_node18"><a xlink:title=" ">
<polygon fill="#ffffff" stroke="#bfbfbf" points="364.9896,-129 364.9896,-148 429.9896,-148 429.9896,-129 364.9896,-129"/>
<text text-anchor="middle" x="397.4896" y="-136" font-family="Helvetica,sans-Serif" font-size="10.00" fill="#000000">functional</text>
</a>
</g>
</g>
<!-- Node15&#45;&gt;Node17 -->
<g id="edge24" class="edge">
<title>Node15&#45;&gt;Node17</title>
<path fill="none" stroke="#191970" d="M492.586,-195.9005C474.1226,-184.7559 443.4597,-166.2477 421.9564,-153.2682"/>
<polygon fill="#191970" stroke="#191970" points="423.7337,-150.2529 413.3637,-148.0817 420.1163,-156.2458 423.7337,-150.2529"/>
</g>
<!-- Node18 -->
<g id="node19" class="node">
<title>Node18</title>
<g id="a_node19"><a xlink:title=" ">
<polygon fill="#ffffff" stroke="#bfbfbf" points="81.4896,-129 81.4896,-148 119.4896,-148 119.4896,-129 81.4896,-129"/>
<text text-anchor="middle" x="100.4896" y="-136" font-family="Helvetica,sans-Serif" font-size="10.00" fill="#000000">map</text>
</a>
</g>
</g>
<!-- Node15&#45;&gt;Node18 -->
<g id="edge26" class="edge">
<title>Node15&#45;&gt;Node18</title>
<path fill="none" stroke="#191970" d="M467.496,-195.9795C457.3945,-193.826 446.5796,-191.6817 436.4896,-190 302.721,-167.7051 263.8712,-191.3062 133.4896,-154 131.5727,-153.4515 129.6279,-152.8033 127.6911,-152.0883"/>
<polygon fill="#191970" stroke="#191970" points="128.8143,-148.7636 118.2397,-148.1079 126.0973,-155.2149 128.8143,-148.7636"/>
</g>
<!-- Node19 -->
<g id="node20" class="node">
<title>Node19</title>
<g id="a_node20"><a xlink:title=" ">
<polygon fill="#ffffff" stroke="#bfbfbf" points="175.4896,-129 175.4896,-148 231.4896,-148 231.4896,-129 175.4896,-129"/>
<text text-anchor="middle" x="203.4896" y="-136" font-family="Helvetica,sans-Serif" font-size="10.00" fill="#000000">optional</text>
</a>
</g>
</g>
<!-- Node15&#45;&gt;Node19 -->
<g id="edge27" class="edge">
<title>Node15&#45;&gt;Node19</title>
<path fill="none" stroke="#191970" d="M465.1299,-195.9426C455.6996,-193.9264 445.7688,-191.8505 436.4896,-190 349.6317,-172.6781 325.3804,-179.2566 240.4896,-154 238.3202,-153.3545 236.1052,-152.6232 233.8913,-151.8381"/>
<polygon fill="#191970" stroke="#191970" points="234.9254,-148.4856 224.3358,-148.1521 232.4061,-155.0166 234.9254,-148.4856"/>
</g>
<!-- Node20 -->
<g id="node21" class="node">
<title>Node20</title>
<g id="a_node21"><a xlink:title=" ">
<polygon fill="#ffffff" stroke="#bfbfbf" points="249.4896,-129 249.4896,-148 281.4896,-148 281.4896,-129 249.4896,-129"/>
<text text-anchor="middle" x="265.4896" y="-136" font-family="Helvetica,sans-Serif" font-size="10.00" fill="#000000">set</text>
</a>
</g>
</g>
<!-- Node15&#45;&gt;Node20 -->
<g id="edge28" class="edge">
<title>Node15&#45;&gt;Node20</title>
<path fill="none" stroke="#191970" d="M464.5597,-195.9184C405.6235,-182.9415 306.4727,-160.6352 290.4896,-154 289.6436,-153.6488 288.7934,-153.2707 287.9438,-152.8712"/>
<polygon fill="#191970" stroke="#191970" points="289.5308,-149.75 279.0777,-148.0227 286.1721,-155.8916 289.5308,-149.75"/>
</g>
<!-- Node21 -->
<g id="node22" class="node">
<title>Node21</title>
<g id="a_node22"><a xlink:href="drake__throw_8h.html" target="_top" xlink:title="Provides a convenient wrapper to throw an exception when a condition is unmet.">
<polygon fill="#ffffff" stroke="#000000" points="447.9896,-123.5 447.9896,-153.5 568.9896,-153.5 568.9896,-123.5 447.9896,-123.5"/>
<text text-anchor="start" x="455.9896" y="-141.5" font-family="Helvetica,sans-Serif" font-size="10.00" fill="#000000">drake/common/drake</text>
<text text-anchor="middle" x="508.4896" y="-130.5" font-family="Helvetica,sans-Serif" font-size="10.00" fill="#000000">_throw.h</text>
</a>
</g>
</g>
<!-- Node15&#45;&gt;Node21 -->
<g id="edge34" class="edge">
<title>Node15&#45;&gt;Node21</title>
<path fill="none" stroke="#191970" d="M508.4896,-195.9005C508.4896,-187.5099 508.4896,-174.9451 508.4896,-163.7085"/>
<polygon fill="#191970" stroke="#191970" points="511.9897,-163.5217 508.4896,-153.5218 504.9897,-163.5218 511.9897,-163.5217"/>
</g>
<!-- Node21&#45;&gt;Node3 -->
<g id="edge36" class="edge">
<title>Node21&#45;&gt;Node3</title>
<path fill="none" stroke="#191970" d="M499.8668,-123.2967C495.2026,-115.0729 489.3349,-104.7272 484.0723,-95.4483"/>
<polygon fill="#191970" stroke="#191970" points="487.0562,-93.6148 479.0783,-86.6432 480.9673,-97.0683 487.0562,-93.6148"/>
</g>
<!-- Node21&#45;&gt;Node4 -->
<g id="edge35" class="edge">
<title>Node21&#45;&gt;Node4</title>
<path fill="none" stroke="#191970" d="M517.9268,-123.4613C530.5225,-104.6863 554.6262,-72.9796 583.4896,-56 630.5641,-28.3074 693.1947,-17.2829 734.8528,-12.896"/>
<polygon fill="#191970" stroke="#191970" points="735.3531,-16.364 744.9697,-11.9176 734.6792,-9.3965 735.3531,-16.364"/>
</g>
<!-- Node22&#45;&gt;Node1 -->
<g id="edge38" class="edge">
<title>Node22&#45;&gt;Node1</title>
<path fill="none" stroke="#191970" d="M917.3962,-195.9005C937.1116,-184.7062 969.9118,-166.0823 992.7855,-153.0947"/>
<polygon fill="#191970" stroke="#191970" points="994.6466,-156.0629 1001.6145,-148.0817 991.1903,-149.9757 994.6466,-156.0629"/>
</g>
<!-- Node22&#45;&gt;Node4 -->
<g id="edge39" class="edge">
<title>Node22&#45;&gt;Node4</title>
<path fill="none" stroke="#191970" d="M911.8427,-195.8104C928.5079,-180.3568 956.2062,-149.1993 942.4896,-123 916.0611,-72.5201 855.6937,-40.0858 816.3056,-23.4597"/>
<polygon fill="#191970" stroke="#191970" points="817.3584,-20.1092 806.7771,-19.572 814.7139,-26.5905 817.3584,-20.1092"/>
</g>
<!-- Node23&#45;&gt;Node1 -->
<g id="edge41" class="edge">
<title>Node23&#45;&gt;Node1</title>
<path fill="none" stroke="#191970" d="M1088.0672,-190.2967C1073.6364,-179.5537 1054.3412,-165.1895 1039.7309,-154.3129"/>
<polygon fill="#191970" stroke="#191970" points="1041.436,-151.219 1031.3247,-148.055 1037.256,-156.8339 1041.436,-151.219"/>
</g>
<!-- Node23&#45;&gt;Node2 -->
<g id="edge45" class="edge">
<title>Node23&#45;&gt;Node2</title>
<path fill="none" stroke="#191970" d="M1038.384,-195.1383C1022.9648,-193.1597 1006.699,-191.3025 991.4896,-190 787.8562,-172.5607 271.0526,-202.4092 72.4896,-154 70.2912,-153.464 68.0632,-152.7755 65.8568,-151.9874"/>
<polygon fill="#191970" stroke="#191970" points="67.0563,-148.6952 56.4805,-148.06 64.3518,-155.1517 67.0563,-148.6952"/>
</g>
<!-- Node23&#45;&gt;Node9 -->
<g id="edge42" class="edge">
<title>Node23&#45;&gt;Node9</title>
<path fill="none" stroke="#191970" d="M1064.279,-190.4639C1027.4742,-177.9465 975.9633,-160.4276 943.1622,-149.2719"/>
<polygon fill="#191970" stroke="#191970" points="944.2146,-145.933 933.6202,-146.0266 941.9606,-152.5602 944.2146,-145.933"/>
</g>
<!-- Node23&#45;&gt;Node10 -->
<g id="edge43" class="edge">
<title>Node23&#45;&gt;Node10</title>
<path fill="none" stroke="#191970" d="M1113.9356,-190.2967C1117.4208,-180.5672 1121.9699,-167.8675 1125.6914,-157.4784"/>
<polygon fill="#191970" stroke="#191970" points="1128.9896,-158.6495 1129.067,-148.055 1122.3996,-156.2889 1128.9896,-158.6495"/>
</g>
<!-- Node23&#45;&gt;Node11 -->
<g id="edge44" class="edge">
<title>Node23&#45;&gt;Node11</title>
<path fill="none" stroke="#191970" d="M1104.5837,-190.1858C1101.9824,-179.9478 1098.5017,-166.1741 1095.4896,-154 1090.1978,-132.6119 1084.2659,-108.0689 1080.2462,-91.3498"/>
<polygon fill="#191970" stroke="#191970" points="1083.5378,-90.0669 1077.8003,-81.1601 1076.7311,-91.7008 1083.5378,-90.0669"/>
</g>
<!-- Node24 -->
<g id="node25" class="node">
<title>Node24</title>
<g id="a_node25"><a xlink:href="never__destroyed_8h.html" target="_top" xlink:title=" ">
<polygon fill="#ffffff" stroke="#000000" points="1217.9896,-123.5 1217.9896,-153.5 1338.9896,-153.5 1338.9896,-123.5 1217.9896,-123.5"/>
<text text-anchor="start" x="1225.9896" y="-141.5" font-family="Helvetica,sans-Serif" font-size="10.00" fill="#000000">drake/common/never</text>
<text text-anchor="middle" x="1278.4896" y="-130.5" font-family="Helvetica,sans-Serif" font-size="10.00" fill="#000000">_destroyed.h</text>
</a>
</g>
</g>
<!-- Node23&#45;&gt;Node24 -->
<g id="edge46" class="edge">
<title>Node23&#45;&gt;Node24</title>
<path fill="none" stroke="#191970" d="M1146.641,-190.4639C1171.4892,-180.6708 1204.1052,-167.8162 1230.6801,-157.3426"/>
<polygon fill="#191970" stroke="#191970" points="1232.1518,-160.5247 1240.1719,-153.6017 1229.585,-154.0122 1232.1518,-160.5247"/>
</g>
<!-- Node24&#45;&gt;Node4 -->
<g id="edge48" class="edge">
<title>Node24&#45;&gt;Node4</title>
<path fill="none" stroke="#191970" d="M1253.7097,-123.4889C1221.308,-104.5906 1162.2178,-72.5957 1107.4896,-56 1009.233,-26.2049 888.4708,-15.5947 824.4004,-11.9019"/>
<polygon fill="#191970" stroke="#191970" points="824.4167,-8.3977 814.2407,-11.3474 824.0351,-15.3873 824.4167,-8.3977"/>
</g>
<!-- Node24&#45;&gt;Node5 -->
<g id="edge50" class="edge">
<title>Node24&#45;&gt;Node5</title>
<path fill="none" stroke="#191970" d="M1316.8654,-123.4639C1341.8598,-113.6708 1374.6677,-100.8162 1401.3989,-90.3426"/>
<polygon fill="#191970" stroke="#191970" points="1402.9126,-93.5086 1410.9465,-86.6017 1400.3588,-86.9911 1402.9126,-93.5086"/>
</g>
<!-- Node24&#45;&gt;Node11 -->
<g id="edge49" class="edge">
<title>Node24&#45;&gt;Node11</title>
<path fill="none" stroke="#191970" d="M1232.9325,-123.4639C1194.9008,-110.9116 1141.6303,-93.3297 1107.844,-82.1785"/>
<polygon fill="#191970" stroke="#191970" points="1108.6158,-78.7476 1098.0226,-78.937 1106.4218,-85.3949 1108.6158,-78.7476"/>
</g>
<!-- Node25 -->
<g id="node26" class="node">
<title>Node25</title>
<g id="a_node26"><a xlink:title=" ">
<polygon fill="#ffffff" stroke="#bfbfbf" points="1259.9896,-62 1259.9896,-81 1296.9896,-81 1296.9896,-62 1259.9896,-62"/>
<text text-anchor="middle" x="1278.4896" y="-69" font-family="Helvetica,sans-Serif" font-size="10.00" fill="#000000">new</text>
</a>
</g>
</g>
<!-- Node24&#45;&gt;Node25 -->
<g id="edge47" class="edge">
<title>Node24&#45;&gt;Node25</title>
<path fill="none" stroke="#191970" d="M1278.4896,-123.2967C1278.4896,-113.7699 1278.4896,-101.3954 1278.4896,-91.1306"/>
<polygon fill="#191970" stroke="#191970" points="1281.9897,-91.0549 1278.4896,-81.055 1274.9897,-91.055 1281.9897,-91.0549"/>
</g>
</g>
</svg>
