<?xml version="1.0" encoding="UTF-8" standalone="no"?>
<!DOCTYPE svg PUBLIC "-//W3C//DTD SVG 1.1//EN"
 "http://www.w3.org/Graphics/SVG/1.1/DTD/svg11.dtd">
<!-- Generated by graphviz version 2.40.1 (20161225.0304)
 -->
<!-- Title: drake/systems/primitives/affine_system.h Pages: 1 -->
<!--zoomable 262 -->
<svg id="main" version="1.1" xmlns="http://www.w3.org/2000/svg" xmlns:xlink="http://www.w3.org/1999/xlink" xml:space="preserve" onload="init(evt)">
<style type="text/css"><![CDATA[
.edge:hover path { stroke: red; }
.edge:hover polygon { stroke: red; fill: red; }
]]></style>
<script type="text/javascript"><![CDATA[
var edges = document.getElementsByTagName('g');
if (edges && edges.length) {
  for (var i=0;i<edges.length;i++) {
    if (edges[i].id.substr(0,4)=='edge') {
      edges[i].setAttribute('class','edge');
    }
  }
}
]]></script>
        <defs>
                <circle id="rim" cx="0" cy="0" r="7"/>
                <circle id="rim2" cx="0" cy="0" r="3.5"/>
                <g id="zoomPlus">
                        <use xlink:href="#rim" fill="#404040">
                                <set attributeName="fill" to="#808080" begin="zoomplus.mouseover" end="zoomplus.mouseout"/>
                        </use>
                        <path d="M-4,0h8M0,-4v8" fill="none" stroke="white" stroke-width="1.5" pointer-events="none"/>
                </g>
                <g id="zoomMin">
                        <use xlink:href="#rim" fill="#404040">
                                <set attributeName="fill" to="#808080" begin="zoomminus.mouseover" end="zoomminus.mouseout"/>
                        </use>
                        <path d="M-4,0h8" fill="none" stroke="white" stroke-width="1.5" pointer-events="none"/>
                </g>
                <g id="dirArrow">
                        <path fill="none" stroke="white" stroke-width="1.5" d="M0,-3.0v7 M-2.5,-0.5L0,-3.0L2.5,-0.5"/>
                </g>
               <g id="resetDef">
                       <use xlink:href="#rim2" fill="#404040">
                               <set attributeName="fill" to="#808080" begin="reset.mouseover" end="reset.mouseout"/>
                       </use>
               </g>
        </defs>

<script type="text/javascript">
var viewWidth = 1121;
var viewHeight = 262;
var sectionId = 'dynsection-1';
</script>
<script xlink:href="svgpan.js"/>
<svg id="graph" class="graph">
<g id="viewport">
<title>drake/systems/primitives/affine_system.h</title>
<polygon fill="#ffffff" stroke="transparent" points="-4,4 -4,-258 1116.5,-258 1116.5,4 -4,4"/>
<!-- Node113 -->
<g id="node1" class="node">
<title>Node113</title>
<g id="a_node1"><a xlink:title=" ">
<polygon fill="#bfbfbf" stroke="#000000" points="314,-223.5 314,-253.5 455,-253.5 455,-223.5 314,-223.5"/>
<text text-anchor="start" x="322" y="-241.5" font-family="Helvetica,sans-Serif" font-size="10.00" fill="#000000">drake/systems/primitives</text>
<text text-anchor="middle" x="384.5" y="-230.5" font-family="Helvetica,sans-Serif" font-size="10.00" fill="#000000">/affine_system.h</text>
</a>
</g>
</g>
<!-- Node114 -->
<g id="node2" class="node">
<title>Node114</title>
<g id="a_node2"><a xlink:href="acrobot__plant_8h.html" target="_top" xlink:title=" ">
<polygon fill="#ffffff" stroke="#000000" points="39,-156.5 39,-186.5 174,-186.5 174,-156.5 39,-156.5"/>
<text text-anchor="start" x="47" y="-174.5" font-family="Helvetica,sans-Serif" font-size="10.00" fill="#000000">drake/examples/acrobot</text>
<text text-anchor="middle" x="106.5" y="-163.5" font-family="Helvetica,sans-Serif" font-size="10.00" fill="#000000">/acrobot_plant.h</text>
</a>
</g>
</g>
<!-- Node113&#45;&gt;Node114 -->
<g id="edge1" class="edge">
<title>Node113&#45;&gt;Node114</title>
<path fill="none" stroke="#191970" d="M312.2611,-221.0899C267.898,-210.3981 211.6361,-196.8386 169.1607,-186.6017"/>
<polygon fill="#191970" stroke="#191970" points="311.5697,-224.5234 322.1114,-223.4639 313.2098,-217.7183 311.5697,-224.5234"/>
</g>
<!-- Node116 -->
<g id="node4" class="node">
<title>Node116</title>
<g id="a_node4"><a xlink:href="quadrotor__plant_8h.html" target="_top" xlink:title=" ">
<polygon fill="#ffffff" stroke="#000000" points="230.5,-156.5 230.5,-186.5 376.5,-186.5 376.5,-156.5 230.5,-156.5"/>
<text text-anchor="start" x="238.5" y="-174.5" font-family="Helvetica,sans-Serif" font-size="10.00" fill="#000000">drake/examples/quadrotor</text>
<text text-anchor="middle" x="303.5" y="-163.5" font-family="Helvetica,sans-Serif" font-size="10.00" fill="#000000">/quadrotor_plant.h</text>
</a>
</g>
</g>
<!-- Node113&#45;&gt;Node116 -->
<g id="edge3" class="edge">
<title>Node113&#45;&gt;Node116</title>
<path fill="none" stroke="#191970" d="M358.2425,-216.7808C346.3433,-206.9383 332.5644,-195.541 321.8074,-186.6432"/>
<polygon fill="#191970" stroke="#191970" points="356.1835,-219.6198 366.1198,-223.2967 360.6451,-214.2259 356.1835,-219.6198"/>
</g>
<!-- Node117 -->
<g id="node5" class="node">
<title>Node117</title>
<g id="a_node5"><a xlink:href="linear__system_8h.html" target="_top" xlink:title=" ">
<polygon fill="#ffffff" stroke="#000000" points="395,-156.5 395,-186.5 536,-186.5 536,-156.5 395,-156.5"/>
<text text-anchor="start" x="403" y="-174.5" font-family="Helvetica,sans-Serif" font-size="10.00" fill="#000000">drake/systems/primitives</text>
<text text-anchor="middle" x="465.5" y="-163.5" font-family="Helvetica,sans-Serif" font-size="10.00" fill="#000000">/linear_system.h</text>
</a>
</g>
</g>
<!-- Node113&#45;&gt;Node117 -->
<g id="edge4" class="edge">
<title>Node113&#45;&gt;Node117</title>
<path fill="none" stroke="#191970" d="M410.7575,-216.7808C422.6567,-206.9383 436.4356,-195.541 447.1926,-186.6432"/>
<polygon fill="#191970" stroke="#191970" points="408.3549,-214.2259 402.8802,-223.2967 412.8165,-219.6198 408.3549,-214.2259"/>
</g>
<!-- Node125 -->
<g id="node13" class="node">
<title>Node125</title>
<g id="a_node13"><a xlink:href="trajectory__affine__system_8h.html" target="_top" xlink:title=" ">
<polygon fill="#ffffff" stroke="#000000" points="554,-156.5 554,-186.5 705,-186.5 705,-156.5 554,-156.5"/>
<text text-anchor="start" x="562" y="-174.5" font-family="Helvetica,sans-Serif" font-size="10.00" fill="#000000">drake/systems/primitives</text>
<text text-anchor="middle" x="629.5" y="-163.5" font-family="Helvetica,sans-Serif" font-size="10.00" fill="#000000">/trajectory_affine_system.h</text>
</a>
</g>
</g>
<!-- Node113&#45;&gt;Node125 -->
<g id="edge14" class="edge">
<title>Node113&#45;&gt;Node125</title>
<path fill="none" stroke="#191970" d="M449.1516,-220.8198C488.0932,-210.1704 537.1586,-196.7525 574.2774,-186.6017"/>
<polygon fill="#191970" stroke="#191970" points="448.2053,-217.4499 439.4828,-223.4639 450.0519,-224.202 448.2053,-217.4499"/>
</g>
<!-- Node115 -->
<g id="node3" class="node">
<title>Node115</title>
<g id="a_node3"><a xlink:href="spong__controller_8h.html" target="_top" xlink:title=" ">
<polygon fill="#ffffff" stroke="#000000" points="0,-6 0,-36 135,-36 135,-6 0,-6"/>
<text text-anchor="start" x="8" y="-24" font-family="Helvetica,sans-Serif" font-size="10.00" fill="#000000">drake/examples/acrobot</text>
<text text-anchor="middle" x="67.5" y="-13" font-family="Helvetica,sans-Serif" font-size="10.00" fill="#000000">/spong_controller.h</text>
</a>
</g>
</g>
<!-- Node114&#45;&gt;Node115 -->
<g id="edge2" class="edge">
<title>Node114&#45;&gt;Node115</title>
<path fill="none" stroke="#191970" d="M76.0786,-149.7631C67.0695,-141.5661 58.3289,-131.4254 53.5,-120 41.674,-92.0191 52.5585,-56.0306 60.6304,-36.0579"/>
<polygon fill="#191970" stroke="#191970" points="74.0802,-152.6572 83.9732,-156.4495 78.6044,-147.3156 74.0802,-152.6572"/>
</g>
<!-- Node117&#45;&gt;Node115 -->
<g id="edge5" class="edge">
<title>Node117&#45;&gt;Node115</title>
<path fill="none" stroke="#191970" d="M384.565,-156.1673C303.8262,-147.2272 133.3417,-163.6816 86.5,-120 63.4611,-98.5153 63.4273,-58.2994 65.4378,-36.3147"/>
<polygon fill="#191970" stroke="#191970" points="384.505,-159.6898 394.8779,-157.5327 385.4239,-152.7503 384.505,-159.6898"/>
</g>
<!-- Node118 -->
<g id="node6" class="node">
<title>Node118</title>
<g id="a_node6"><a xlink:href="linear__model__predictive__controller_8h.html" target="_top" xlink:title=" ">
<polygon fill="#ffffff" stroke="#000000" points="96,-78.5 96,-119.5 239,-119.5 239,-78.5 96,-78.5"/>
<text text-anchor="start" x="104" y="-107.5" font-family="Helvetica,sans-Serif" font-size="10.00" fill="#000000">drake/systems/controllers</text>
<text text-anchor="start" x="104" y="-96.5" font-family="Helvetica,sans-Serif" font-size="10.00" fill="#000000">/linear_model_predictive</text>
<text text-anchor="middle" x="167.5" y="-85.5" font-family="Helvetica,sans-Serif" font-size="10.00" fill="#000000">_controller.h</text>
</a>
</g>
</g>
<!-- Node117&#45;&gt;Node118 -->
<g id="edge6" class="edge">
<title>Node117&#45;&gt;Node118</title>
<path fill="none" stroke="#191970" d="M390.168,-154.1871C348.1246,-144.4034 294.8346,-131.8019 247.5,-120 244.7134,-119.3052 241.874,-118.5908 239.0069,-117.8641"/>
<polygon fill="#191970" stroke="#191970" points="389.5213,-157.63 400.054,-156.484 391.1055,-150.8117 389.5213,-157.63"/>
</g>
<!-- Node119 -->
<g id="node7" class="node">
<title>Node119</title>
<g id="a_node7"><a xlink:href="linear__quadratic__regulator_8h.html" target="_top" xlink:title=" ">
<polygon fill="#ffffff" stroke="#000000" points="257,-84 257,-114 414,-114 414,-84 257,-84"/>
<text text-anchor="start" x="265" y="-102" font-family="Helvetica,sans-Serif" font-size="10.00" fill="#000000">drake/systems/controllers</text>
<text text-anchor="middle" x="335.5" y="-91" font-family="Helvetica,sans-Serif" font-size="10.00" fill="#000000">/linear_quadratic_regulator.h</text>
</a>
</g>
</g>
<!-- Node117&#45;&gt;Node119 -->
<g id="edge7" class="edge">
<title>Node117&#45;&gt;Node119</title>
<path fill="none" stroke="#191970" d="M429.8003,-151.5905C408.5098,-139.717 381.9155,-124.8856 362.4016,-114.0028"/>
<polygon fill="#191970" stroke="#191970" points="428.1255,-154.664 438.5639,-156.478 431.535,-148.5504 428.1255,-154.664"/>
</g>
<!-- Node120 -->
<g id="node8" class="node">
<title>Node120</title>
<g id="a_node8"><a xlink:href="kalman__filter_8h.html" target="_top" xlink:title=" ">
<polygon fill="#ffffff" stroke="#000000" points="432.5,-84 432.5,-114 576.5,-114 576.5,-84 432.5,-84"/>
<text text-anchor="start" x="440.5" y="-102" font-family="Helvetica,sans-Serif" font-size="10.00" fill="#000000">drake/systems/estimators</text>
<text text-anchor="middle" x="504.5" y="-91" font-family="Helvetica,sans-Serif" font-size="10.00" fill="#000000">/kalman_filter.h</text>
</a>
</g>
</g>
<!-- Node117&#45;&gt;Node120 -->
<g id="edge9" class="edge">
<title>Node117&#45;&gt;Node120</title>
<path fill="none" stroke="#191970" d="M478.4925,-147.3473C484.4205,-136.3272 491.2548,-123.6224 496.4295,-114.0028"/>
<polygon fill="#191970" stroke="#191970" points="475.2359,-146.0132 473.5808,-156.478 481.4006,-149.3294 475.2359,-146.0132"/>
</g>
<!-- Node121 -->
<g id="node9" class="node">
<title>Node121</title>
<g id="a_node9"><a xlink:href="matrix__gain_8h.html" target="_top" xlink:title=" ">
<polygon fill="#ffffff" stroke="#000000" points="595,-84 595,-114 736,-114 736,-84 595,-84"/>
<text text-anchor="start" x="603" y="-102" font-family="Helvetica,sans-Serif" font-size="10.00" fill="#000000">drake/systems/primitives</text>
<text text-anchor="middle" x="665.5" y="-91" font-family="Helvetica,sans-Serif" font-size="10.00" fill="#000000">/matrix_gain.h</text>
</a>
</g>
</g>
<!-- Node117&#45;&gt;Node121 -->
<g id="edge10" class="edge">
<title>Node117&#45;&gt;Node121</title>
<path fill="none" stroke="#191970" d="M516.5153,-153.0069C549.8718,-140.9152 592.8852,-125.3228 624.113,-114.0028"/>
<polygon fill="#191970" stroke="#191970" points="515.1487,-149.7794 506.9401,-156.478 517.5343,-156.3604 515.1487,-149.7794"/>
</g>
<!-- Node123 -->
<g id="node11" class="node">
<title>Node123</title>
<g id="a_node11"><a xlink:href="trajectory__linear__system_8h.html" target="_top" xlink:title=" ">
<polygon fill="#ffffff" stroke="#000000" points="754.5,-84 754.5,-114 904.5,-114 904.5,-84 754.5,-84"/>
<text text-anchor="start" x="762.5" y="-102" font-family="Helvetica,sans-Serif" font-size="10.00" fill="#000000">drake/systems/primitives</text>
<text text-anchor="middle" x="829.5" y="-91" font-family="Helvetica,sans-Serif" font-size="10.00" fill="#000000">/trajectory_linear_system.h</text>
</a>
</g>
</g>
<!-- Node117&#45;&gt;Node123 -->
<g id="edge12" class="edge">
<title>Node117&#45;&gt;Node123</title>
<path fill="none" stroke="#191970" d="M546.2364,-155.8865C635.9727,-139.3556 660.3002,-138.2965 745.5,-120 753.8773,-118.201 762.6885,-116.162 771.325,-114.0791"/>
<polygon fill="#191970" stroke="#191970" points="545.3538,-152.4905 536.1606,-157.7567 546.6314,-159.3729 545.3538,-152.4905"/>
</g>
<!-- Node124 -->
<g id="node12" class="node">
<title>Node124</title>
<g id="a_node12"><a xlink:href="direct__transcription_8h.html" target="_top" xlink:title=" ">
<polygon fill="#ffffff" stroke="#000000" points="922.5,-84 922.5,-114 1112.5,-114 1112.5,-84 922.5,-84"/>
<text text-anchor="start" x="930.5" y="-102" font-family="Helvetica,sans-Serif" font-size="10.00" fill="#000000">drake/systems/trajectory</text>
<text text-anchor="middle" x="1017.5" y="-91" font-family="Helvetica,sans-Serif" font-size="10.00" fill="#000000">_optimization/direct_transcription.h</text>
</a>
</g>
</g>
<!-- Node117&#45;&gt;Node124 -->
<g id="edge13" class="edge">
<title>Node117&#45;&gt;Node124</title>
<path fill="none" stroke="#191970" d="M546.0421,-156.0177C709.8441,-132.7975 754.1439,-143.8203 913.5,-120 924.7038,-118.3253 936.5266,-116.2432 948.0245,-114.0462"/>
<polygon fill="#191970" stroke="#191970" points="545.5088,-152.5583 536.1091,-157.4467 546.5056,-159.487 545.5088,-152.5583"/>
</g>
<!-- Node119&#45;&gt;Node115 -->
<g id="edge8" class="edge">
<title>Node119&#45;&gt;Node115</title>
<path fill="none" stroke="#191970" d="M274.1203,-81.1358C227.3696,-67.5292 163.7216,-49.0048 119.471,-36.1259"/>
<polygon fill="#191970" stroke="#191970" points="273.2472,-84.5268 283.8269,-83.9608 275.2034,-77.8057 273.2472,-84.5268"/>
</g>
<!-- Node122 -->
<g id="node10" class="node">
<title>Node122</title>
<g id="a_node10"><a xlink:href="schunk__wsg__constants_8h.html" target="_top" xlink:title="Constants defined in this file are for the Schunk WSG gripper modeled in models/schunk_wsg_50....">
<polygon fill="#ffffff" stroke="#000000" points="595,-.5 595,-41.5 736,-41.5 736,-.5 595,-.5"/>
<text text-anchor="start" x="603" y="-29.5" font-family="Helvetica,sans-Serif" font-size="10.00" fill="#000000">drake/manipulation</text>
<text text-anchor="start" x="603" y="-18.5" font-family="Helvetica,sans-Serif" font-size="10.00" fill="#000000">/schunk_wsg/schunk_wsg</text>
<text text-anchor="middle" x="665.5" y="-7.5" font-family="Helvetica,sans-Serif" font-size="10.00" fill="#000000">_constants.h</text>
</a>
</g>
</g>
<!-- Node121&#45;&gt;Node122 -->
<g id="edge11" class="edge">
<title>Node121&#45;&gt;Node122</title>
<path fill="none" stroke="#191970" d="M665.5,-73.8044C665.5,-63.3919 665.5,-51.4721 665.5,-41.5956"/>
<polygon fill="#191970" stroke="#191970" points="662.0001,-73.9608 665.5,-83.9608 669.0001,-73.9608 662.0001,-73.9608"/>
</g>
</g>
</svg>
        <g id="navigator" transform="translate(0 0)" fill="#404254">
                <rect fill="#f2f5e9" fill-opacity="0.5" stroke="#606060" stroke-width=".5" x="0" y="0" width="60" height="60"/>
                <use id="zoomplus" xlink:href="#zoomPlus" x="17" y="9" onmousedown="handleZoom(evt,'in')"/>
                <use id="zoomminus" xlink:href="#zoomMin" x="42" y="9" onmousedown="handleZoom(evt,'out')"/>
                <use id="reset" xlink:href="#resetDef" x="30" y="36" onmousedown="handleReset()"/>
                <g id="arrowUp" xlink:href="#dirArrow" transform="translate(30 24)" onmousedown="handlePan(0,-1)">
                  <use xlink:href="#rim" fill="#404040">
                        <set attributeName="fill" to="#808080" begin="arrowUp.mouseover" end="arrowUp.mouseout"/>
                  </use>
                  <path fill="none" stroke="white" stroke-width="1.5" d="M0,-3.0v7 M-2.5,-0.5L0,-3.0L2.5,-0.5"/>
                </g>
                <g id="arrowRight" xlink:href="#dirArrow" transform="rotate(90) translate(36 -43)" onmousedown="handlePan(1,0)">
                  <use xlink:href="#rim" fill="#404040">
                        <set attributeName="fill" to="#808080" begin="arrowRight.mouseover" end="arrowRight.mouseout"/>
                  </use>
                  <path fill="none" stroke="white" stroke-width="1.5" d="M0,-3.0v7 M-2.5,-0.5L0,-3.0L2.5,-0.5"/>
                </g>
                <g id="arrowDown" xlink:href="#dirArrow" transform="rotate(180) translate(-30 -48)" onmousedown="handlePan(0,1)">
                  <use xlink:href="#rim" fill="#404040">
                        <set attributeName="fill" to="#808080" begin="arrowDown.mouseover" end="arrowDown.mouseout"/>
                  </use>
                  <path fill="none" stroke="white" stroke-width="1.5" d="M0,-3.0v7 M-2.5,-0.5L0,-3.0L2.5,-0.5"/>
                </g>
                <g id="arrowLeft" xlink:href="#dirArrow" transform="rotate(270) translate(-36 17)" onmousedown="handlePan(-1,0)">
                  <use xlink:href="#rim" fill="#404040">
                        <set attributeName="fill" to="#808080" begin="arrowLeft.mouseover" end="arrowLeft.mouseout"/>
                  </use>
                  <path fill="none" stroke="white" stroke-width="1.5" d="M0,-3.0v7 M-2.5,-0.5L0,-3.0L2.5,-0.5"/>
                </g>
        </g>
        <svg viewBox="0 0 15 15" width="100%" height="30px" preserveAspectRatio="xMaxYMin meet">
         <g id="arrow_out" transform="scale(0.3 0.3)">
          <a xlink:href="affine__system_8h__dep__incl_org.svg" target="_base">
           <rect id="button" ry="5" rx="5" y="6" x="6" height="38" width="38"
                fill="#f2f5e9" fill-opacity="0.5" stroke="#606060" stroke-width="1.0"/>
           <path id="arrow"
             d="M 11.500037,31.436501 C 11.940474,20.09759 22.043105,11.32322 32.158766,21.979434 L 37.068811,17.246167 C 37.068811,17.246167 37.088388,32 37.088388,32 L 22.160133,31.978069 C 22.160133,31.978069 26.997745,27.140456 26.997745,27.140456 C 18.528582,18.264221 13.291696,25.230495 11.500037,31.436501 z"
             style="fill:#404040;"/>
          </a>
         </g>
        </svg>
</svg>
