<?xml version="1.0" encoding="UTF-8" standalone="no"?>
<!DOCTYPE svg PUBLIC "-//W3C//DTD SVG 1.1//EN"
 "http://www.w3.org/Graphics/SVG/1.1/DTD/svg11.dtd">
<!-- Generated by graphviz version 2.40.1 (20161225.0304)
 -->
<!-- Title: drake/math/autodiff_gradient.h Pages: 1 -->
<svg width="451pt" height="117pt"
 viewBox="0.00 0.00 450.50 117.00" xmlns="http://www.w3.org/2000/svg" xmlns:xlink="http://www.w3.org/1999/xlink">
<g id="graph0" class="graph" transform="scale(1 1) rotate(0) translate(4 113)">
<title>drake/math/autodiff_gradient.h</title>
<polygon fill="#ffffff" stroke="transparent" points="-4,4 -4,-113 446.5,-113 446.5,4 -4,4"/>
<!-- Node26 -->
<g id="node1" class="node">
<title>Node26</title>
<g id="a_node1"><a xlink:title="Utilities that relate simultaneously to both autodiff matrices and gradient matrices.">
<polygon fill="#bfbfbf" stroke="#000000" points="168.5,-78.5 168.5,-108.5 282.5,-108.5 282.5,-78.5 168.5,-78.5"/>
<text text-anchor="start" x="176.5" y="-96.5" font-family="Helvetica,sans-Serif" font-size="10.00" fill="#000000">drake/math/autodiff</text>
<text text-anchor="middle" x="225.5" y="-85.5" font-family="Helvetica,sans-Serif" font-size="10.00" fill="#000000">_gradient.h</text>
</a>
</g>
</g>
<!-- Node27 -->
<g id="node2" class="node">
<title>Node27</title>
<g id="a_node2"><a xlink:href="distance__to__point__with__gradient_8h.html" target="_top" xlink:title=" ">
<polygon fill="#ffffff" stroke="#000000" points="0,-.5 0,-41.5 145,-41.5 145,-.5 0,-.5"/>
<text text-anchor="start" x="8" y="-29.5" font-family="Helvetica,sans-Serif" font-size="10.00" fill="#000000">drake/geometry/proximity</text>
<text text-anchor="start" x="8" y="-18.5" font-family="Helvetica,sans-Serif" font-size="10.00" fill="#000000">/distance_to_point_with</text>
<text text-anchor="middle" x="72.5" y="-7.5" font-family="Helvetica,sans-Serif" font-size="10.00" fill="#000000">_gradient.h</text>
</a>
</g>
</g>
<!-- Node26&#45;&gt;Node27 -->
<g id="edge1" class="edge">
<title>Node26&#45;&gt;Node27</title>
<path fill="none" stroke="#191970" d="M184.694,-74.1638C163.417,-64.0816 137.3918,-51.7494 115.7653,-41.5015"/>
<polygon fill="#191970" stroke="#191970" points="183.2627,-77.3586 193.7983,-78.478 186.2603,-71.0329 183.2627,-77.3586"/>
</g>
<!-- Node28 -->
<g id="node3" class="node">
<title>Node28</title>
<g id="a_node3"><a xlink:href="expmap_8h.html" target="_top" xlink:title="Utilities for arithmetic on exponential maps.">
<polygon fill="#ffffff" stroke="#000000" points="163,-11.5 163,-30.5 288,-30.5 288,-11.5 163,-11.5"/>
<text text-anchor="middle" x="225.5" y="-18.5" font-family="Helvetica,sans-Serif" font-size="10.00" fill="#000000">drake/math/expmap.h</text>
</a>
</g>
</g>
<!-- Node26&#45;&gt;Node28 -->
<g id="edge2" class="edge">
<title>Node26&#45;&gt;Node28</title>
<path fill="none" stroke="#191970" d="M225.5,-68.305C225.5,-55.424 225.5,-40.4836 225.5,-30.8957"/>
<polygon fill="#191970" stroke="#191970" points="222.0001,-68.4779 225.5,-78.478 229.0001,-68.478 222.0001,-68.4779"/>
</g>
<!-- Node29 -->
<g id="node4" class="node">
<title>Node29</title>
<g id="a_node4"><a xlink:href="kinematic__constraint__utilities_8h.html" target="_top" xlink:title=" ">
<polygon fill="#ffffff" stroke="#000000" points="306.5,-.5 306.5,-41.5 442.5,-41.5 442.5,-.5 306.5,-.5"/>
<text text-anchor="start" x="314.5" y="-29.5" font-family="Helvetica,sans-Serif" font-size="10.00" fill="#000000">drake/multibody/inverse</text>
<text text-anchor="start" x="314.5" y="-18.5" font-family="Helvetica,sans-Serif" font-size="10.00" fill="#000000">_kinematics/kinematic</text>
<text text-anchor="middle" x="374.5" y="-7.5" font-family="Helvetica,sans-Serif" font-size="10.00" fill="#000000">_constraint_utilities.h</text>
</a>
</g>
</g>
<!-- Node26&#45;&gt;Node29 -->
<g id="edge3" class="edge">
<title>Node26&#45;&gt;Node29</title>
<path fill="none" stroke="#191970" d="M265.5182,-74.0281C286.1871,-63.971 311.3992,-51.7034 332.3659,-41.5015"/>
<polygon fill="#191970" stroke="#191970" points="263.8336,-70.9554 256.3729,-78.478 266.8963,-77.2498 263.8336,-70.9554"/>
</g>
</g>
</svg>
