<?xml version="1.0" encoding="UTF-8" standalone="no"?>
<!DOCTYPE svg PUBLIC "-//W3C//DTD SVG 1.1//EN"
 "http://www.w3.org/Graphics/SVG/1.1/DTD/svg11.dtd">
<!-- Generated by graphviz version 2.40.1 (20161225.0304)
 -->
<!-- Title: drake/bindings/pydrake/autodiff_types_pybind.h Pages: 1 -->
<svg width="1105pt" height="374pt"
 viewBox="0.00 0.00 1105.01 374.00" xmlns="http://www.w3.org/2000/svg" xmlns:xlink="http://www.w3.org/1999/xlink">
<g id="graph0" class="graph" transform="scale(1 1) rotate(0) translate(4 370)">
<title>drake/bindings/pydrake/autodiff_types_pybind.h</title>
<polygon fill="#ffffff" stroke="transparent" points="-4,4 -4,-370 1101.009,-370 1101.009,4 -4,4"/>
<!-- Node0 -->
<g id="node1" class="node">
<title>Node0</title>
<g id="a_node1"><a xlink:title=" ">
<polygon fill="#bfbfbf" stroke="#000000" points="190.5,-335.5 190.5,-365.5 327.5,-365.5 327.5,-335.5 190.5,-335.5"/>
<text text-anchor="start" x="198.5" y="-353.5" font-family="Helvetica,sans-Serif" font-size="10.00" fill="#000000">drake/bindings/pydrake</text>
<text text-anchor="middle" x="259" y="-342.5" font-family="Helvetica,sans-Serif" font-size="10.00" fill="#000000">/autodiff_types_pybind.h</text>
</a>
</g>
</g>
<!-- Node1 -->
<g id="node2" class="node">
<title>Node1</title>
<g id="a_node2"><a xlink:title=" ">
<polygon fill="#ffffff" stroke="#bfbfbf" points="0,-274 0,-293 64,-293 64,-274 0,-274"/>
<text text-anchor="middle" x="32" y="-281" font-family="Helvetica,sans-Serif" font-size="10.00" fill="#000000">algorithm</text>
</a>
</g>
</g>
<!-- Node0&#45;&gt;Node1 -->
<g id="edge1" class="edge">
<title>Node0&#45;&gt;Node1</title>
<path fill="none" stroke="#191970" d="M199.1118,-335.4051C162.4507,-325.7975 114.7233,-312.6314 73,-299 70.5949,-298.2142 68.1229,-297.3711 65.6419,-296.4987"/>
<polygon fill="#191970" stroke="#191970" points="66.7455,-293.1759 56.1514,-293.049 64.3541,-299.7547 66.7455,-293.1759"/>
</g>
<!-- Node2 -->
<g id="node3" class="node">
<title>Node2</title>
<g id="a_node3"><a xlink:title=" ">
<polygon fill="#ffffff" stroke="#bfbfbf" points="82.5,-274 82.5,-293 183.5,-293 183.5,-274 82.5,-274"/>
<text text-anchor="middle" x="133" y="-281" font-family="Helvetica,sans-Serif" font-size="10.00" fill="#000000">pybind11/eigen.h</text>
</a>
</g>
</g>
<!-- Node0&#45;&gt;Node2 -->
<g id="edge2" class="edge">
<title>Node0&#45;&gt;Node2</title>
<path fill="none" stroke="#191970" d="M230.7231,-335.4639C209.582,-324.2222 180.8542,-308.9463 160.0216,-297.8686"/>
<polygon fill="#191970" stroke="#191970" points="161.5337,-294.7087 151.0611,-293.1039 158.2472,-300.8892 161.5337,-294.7087"/>
</g>
<!-- Node3 -->
<g id="node4" class="node">
<title>Node3</title>
<g id="a_node4"><a xlink:title=" ">
<polygon fill="#ffffff" stroke="#bfbfbf" points="111.5,-207 111.5,-226 230.5,-226 230.5,-207 111.5,-207"/>
<text text-anchor="middle" x="171" y="-214" font-family="Helvetica,sans-Serif" font-size="10.00" fill="#000000">pybind11/pybind11.h</text>
</a>
</g>
</g>
<!-- Node0&#45;&gt;Node3 -->
<g id="edge3" class="edge">
<title>Node0&#45;&gt;Node3</title>
<path fill="none" stroke="#191970" d="M249.0763,-335.389C232.7515,-310.5307 200.3016,-261.1184 182.8168,-234.4937"/>
<polygon fill="#191970" stroke="#191970" points="185.7221,-232.5416 177.3072,-226.1042 179.871,-236.3841 185.7221,-232.5416"/>
</g>
<!-- Node4 -->
<g id="node5" class="node">
<title>Node4</title>
<g id="a_node5"><a xlink:title=" ">
<polygon fill="#ffffff" stroke="#bfbfbf" points="810.5,-207 810.5,-226 879.5,-226 879.5,-207 810.5,-207"/>
<text text-anchor="middle" x="845" y="-214" font-family="Helvetica,sans-Serif" font-size="10.00" fill="#000000">Eigen/Core</text>
</a>
</g>
</g>
<!-- Node0&#45;&gt;Node4 -->
<g id="edge4" class="edge">
<title>Node0&#45;&gt;Node4</title>
<path fill="none" stroke="#191970" d="M327.7542,-344.6572C428.1913,-335.6613 609.9313,-317.5117 673,-299 728.5318,-282.7005 788.3959,-250.2114 820.8017,-231.2303"/>
<polygon fill="#191970" stroke="#191970" points="822.7495,-234.1445 829.565,-226.0328 819.1786,-228.1238 822.7495,-234.1445"/>
</g>
<!-- Node5 -->
<g id="node6" class="node">
<title>Node5</title>
<g id="a_node6"><a xlink:href="pydrake__pybind_8h.html" target="_top" xlink:title=" ">
<polygon fill="#ffffff" stroke="#000000" points="240.5,-268.5 240.5,-298.5 371.5,-298.5 371.5,-268.5 240.5,-268.5"/>
<text text-anchor="start" x="248.5" y="-286.5" font-family="Helvetica,sans-Serif" font-size="10.00" fill="#000000">drake/bindings/pydrake</text>
<text text-anchor="middle" x="306" y="-275.5" font-family="Helvetica,sans-Serif" font-size="10.00" fill="#000000">/pydrake_pybind.h</text>
</a>
</g>
</g>
<!-- Node0&#45;&gt;Node5 -->
<g id="edge5" class="edge">
<title>Node0&#45;&gt;Node5</title>
<path fill="none" stroke="#191970" d="M269.665,-335.2967C275.5541,-326.9016 282.9944,-316.2952 289.6062,-306.8698"/>
<polygon fill="#191970" stroke="#191970" points="292.4996,-308.8398 295.3772,-298.6432 286.769,-304.8198 292.4996,-308.8398"/>
</g>
<!-- Node8 -->
<g id="node9" class="node">
<title>Node8</title>
<g id="a_node9"><a xlink:href="common_2autodiff_8h.html" target="_top" xlink:title=" ">
<polygon fill="#ffffff" stroke="#000000" points="524,-274 524,-293 664,-293 664,-274 524,-274"/>
<text text-anchor="middle" x="594" y="-281" font-family="Helvetica,sans-Serif" font-size="10.00" fill="#000000">drake/common/autodiff.h</text>
</a>
</g>
</g>
<!-- Node0&#45;&gt;Node8 -->
<g id="edge9" class="edge">
<title>Node0&#45;&gt;Node8</title>
<path fill="none" stroke="#191970" d="M327.6006,-336.7799C389.0884,-324.4823 478.2781,-306.6444 536.2098,-295.058"/>
<polygon fill="#191970" stroke="#191970" points="537.1745,-298.4345 546.2939,-293.0412 535.8016,-291.5704 537.1745,-298.4345"/>
</g>
<!-- Node5&#45;&gt;Node3 -->
<g id="edge7" class="edge">
<title>Node5&#45;&gt;Node3</title>
<path fill="none" stroke="#191970" d="M275.7034,-268.4639C252.848,-257.1209 221.7171,-241.6707 199.3506,-230.5703"/>
<polygon fill="#191970" stroke="#191970" points="200.8647,-227.4144 190.3512,-226.1039 197.7527,-233.6847 200.8647,-227.4144"/>
</g>
<!-- Node6 -->
<g id="node7" class="node">
<title>Node6</title>
<g id="a_node7"><a xlink:title=" ">
<polygon fill="#ffffff" stroke="#bfbfbf" points="24.5,-73 24.5,-92 69.5,-92 69.5,-73 24.5,-73"/>
<text text-anchor="middle" x="47" y="-80" font-family="Helvetica,sans-Serif" font-size="10.00" fill="#000000">utility</text>
</a>
</g>
</g>
<!-- Node5&#45;&gt;Node6 -->
<g id="edge6" class="edge">
<title>Node5&#45;&gt;Node6</title>
<path fill="none" stroke="#191970" d="M295.9472,-268.2091C283.8646,-250.5954 262.2875,-221.4591 239,-201 210.9876,-176.3898 118.4507,-122.8454 72.8541,-97.0139"/>
<polygon fill="#191970" stroke="#191970" points="74.5633,-93.9596 64.135,-92.0881 71.1201,-100.0543 74.5633,-93.9596"/>
</g>
<!-- Node7 -->
<g id="node8" class="node">
<title>Node7</title>
<g id="a_node8"><a xlink:href="drake__deprecated_8h.html" target="_top" xlink:title="Provides a portable macro for use in generating compile&#45;time warnings for use of code that is permitt...">
<polygon fill="#ffffff" stroke="#000000" points="287.5,-201.5 287.5,-231.5 408.5,-231.5 408.5,-201.5 287.5,-201.5"/>
<text text-anchor="start" x="295.5" y="-219.5" font-family="Helvetica,sans-Serif" font-size="10.00" fill="#000000">drake/common/drake</text>
<text text-anchor="middle" x="348" y="-208.5" font-family="Helvetica,sans-Serif" font-size="10.00" fill="#000000">_deprecated.h</text>
</a>
</g>
</g>
<!-- Node5&#45;&gt;Node7 -->
<g id="edge8" class="edge">
<title>Node5&#45;&gt;Node7</title>
<path fill="none" stroke="#191970" d="M315.5305,-268.2967C320.7393,-259.9873 327.3063,-249.5115 333.1692,-240.1587"/>
<polygon fill="#191970" stroke="#191970" points="336.1614,-241.975 338.5073,-231.6432 330.2304,-238.2571 336.1614,-241.975"/>
</g>
<!-- Node8&#45;&gt;Node4 -->
<g id="edge10" class="edge">
<title>Node8&#45;&gt;Node4</title>
<path fill="none" stroke="#191970" d="M637.5393,-273.9334C679.6538,-264.3829 745.1297,-248.7497 801,-232 803.7637,-231.1714 806.6104,-230.2733 809.4633,-229.341"/>
<polygon fill="#191970" stroke="#191970" points="810.7236,-232.6096 819.0759,-226.0912 808.4817,-225.9783 810.7236,-232.6096"/>
</g>
<!-- Node9 -->
<g id="node10" class="node">
<title>Node9</title>
<g id="a_node10"><a xlink:title=" ">
<polygon fill="#ffffff" stroke="#bfbfbf" points="641.5,-207 641.5,-226 792.5,-226 792.5,-207 641.5,-207"/>
<text text-anchor="middle" x="717" y="-214" font-family="Helvetica,sans-Serif" font-size="10.00" fill="#000000">unsupported/Eigen/AutoDiff</text>
</a>
</g>
</g>
<!-- Node8&#45;&gt;Node9 -->
<g id="edge11" class="edge">
<title>Node8&#45;&gt;Node9</title>
<path fill="none" stroke="#191970" d="M611.6229,-273.9005C632.2651,-262.6564 666.668,-243.9166 690.524,-230.9219"/>
<polygon fill="#191970" stroke="#191970" points="692.3023,-233.9388 699.4098,-226.0817 688.9538,-227.7916 692.3023,-233.9388"/>
</g>
<!-- Node10 -->
<g id="node11" class="node">
<title>Node10</title>
<g id="a_node11"><a xlink:href="eigen__autodiff__types_8h.html" target="_top" xlink:title="This file contains abbreviated definitions for certain uses of AutoDiffScalar that are commonly used ...">
<polygon fill="#ffffff" stroke="#000000" points="427,-201.5 427,-231.5 547,-231.5 547,-201.5 427,-201.5"/>
<text text-anchor="start" x="435" y="-219.5" font-family="Helvetica,sans-Serif" font-size="10.00" fill="#000000">drake/common/eigen</text>
<text text-anchor="middle" x="487" y="-208.5" font-family="Helvetica,sans-Serif" font-size="10.00" fill="#000000">_autodiff_types.h</text>
</a>
</g>
</g>
<!-- Node8&#45;&gt;Node10 -->
<g id="edge12" class="edge">
<title>Node8&#45;&gt;Node10</title>
<path fill="none" stroke="#191970" d="M578.6695,-273.9005C563.3354,-264.2988 539.2723,-249.2313 519.6473,-236.9427"/>
<polygon fill="#191970" stroke="#191970" points="521.323,-233.8625 510.99,-231.5218 517.608,-239.7954 521.323,-233.8625"/>
</g>
<!-- Node17 -->
<g id="node18" class="node">
<title>Node17</title>
<g id="a_node18"><a xlink:href="autodiffxd_8h.html" target="_top" xlink:title=" ">
<polygon fill="#ffffff" stroke="#000000" points="573,-140 573,-159 725,-159 725,-140 573,-140"/>
<text text-anchor="middle" x="649" y="-147" font-family="Helvetica,sans-Serif" font-size="10.00" fill="#000000">drake/common/autodiffxd.h</text>
</a>
</g>
</g>
<!-- Node8&#45;&gt;Node17 -->
<g id="edge22" class="edge">
<title>Node8&#45;&gt;Node17</title>
<path fill="none" stroke="#191970" d="M592.5002,-273.8452C590.4679,-257.9047 588.225,-225.4178 599,-201 605.1134,-187.146 616.6887,-174.8406 627.1633,-165.7352"/>
<polygon fill="#191970" stroke="#191970" points="629.6841,-168.1946 635.2023,-159.1503 625.2484,-162.7794 629.6841,-168.1946"/>
</g>
<!-- Node20 -->
<g id="node21" class="node">
<title>Node20</title>
<g id="a_node21"><a xlink:href="autodiff__overloads_8h.html" target="_top" xlink:title="Overloads for STL mathematical operations on AutoDiffScalar.">
<polygon fill="#ffffff" stroke="#000000" points="744.5,-134.5 744.5,-164.5 875.5,-164.5 875.5,-134.5 744.5,-134.5"/>
<text text-anchor="start" x="752.5" y="-152.5" font-family="Helvetica,sans-Serif" font-size="10.00" fill="#000000">drake/common/autodiff</text>
<text text-anchor="middle" x="810" y="-141.5" font-family="Helvetica,sans-Serif" font-size="10.00" fill="#000000">_overloads.h</text>
</a>
</g>
</g>
<!-- Node8&#45;&gt;Node20 -->
<g id="edge26" class="edge">
<title>Node8&#45;&gt;Node20</title>
<path fill="none" stroke="#191970" d="M595.7457,-273.7729C599.3561,-256.5193 609.286,-220.539 632,-201 640.5488,-193.6461 693.1294,-178.8988 738.9446,-167.0629"/>
<polygon fill="#191970" stroke="#191970" points="740.0839,-170.3841 748.9003,-164.5086 738.3442,-163.6037 740.0839,-170.3841"/>
</g>
<!-- Node11 -->
<g id="node12" class="node">
<title>Node11</title>
<g id="a_node12"><a xlink:title=" ">
<polygon fill="#ffffff" stroke="#bfbfbf" points="553.5,-6 553.5,-25 622.5,-25 622.5,-6 553.5,-6"/>
<text text-anchor="middle" x="588" y="-13" font-family="Helvetica,sans-Serif" font-size="10.00" fill="#000000">type_traits</text>
</a>
</g>
</g>
<!-- Node10&#45;&gt;Node11 -->
<g id="edge13" class="edge">
<title>Node10&#45;&gt;Node11</title>
<path fill="none" stroke="#191970" d="M486.6904,-201.172C486.8203,-172.5108 490.5157,-109.834 518,-67 528.0536,-51.3316 544.6779,-38.8029 559.2033,-30.0274"/>
<polygon fill="#191970" stroke="#191970" points="560.956,-33.0571 567.8986,-25.0539 557.4804,-26.9808 560.956,-33.0571"/>
</g>
<!-- Node12 -->
<g id="node13" class="node">
<title>Node12</title>
<g id="a_node13"><a xlink:title=" ">
<polygon fill="#ffffff" stroke="#bfbfbf" points="393.5,-73 393.5,-92 470.5,-92 470.5,-73 393.5,-73"/>
<text text-anchor="middle" x="432" y="-80" font-family="Helvetica,sans-Serif" font-size="10.00" fill="#000000">Eigen/Dense</text>
</a>
</g>
</g>
<!-- Node10&#45;&gt;Node12 -->
<g id="edge14" class="edge">
<title>Node10&#45;&gt;Node12</title>
<path fill="none" stroke="#191970" d="M480.7977,-201.389C470.7284,-176.8564 450.8432,-128.4088 439.8197,-101.5517"/>
<polygon fill="#191970" stroke="#191970" points="442.977,-100.0262 435.942,-92.1042 436.5013,-102.6842 442.977,-100.0262"/>
</g>
<!-- Node13 -->
<g id="node14" class="node">
<title>Node13</title>
<g id="a_node14"><a xlink:href="eigen__types_8h.html" target="_top" xlink:title="This file contains abbreviated definitions for certain specializations of Eigen::Matrix that are comm...">
<polygon fill="#ffffff" stroke="#000000" points="294,-134.5 294,-164.5 414,-164.5 414,-134.5 294,-134.5"/>
<text text-anchor="start" x="302" y="-152.5" font-family="Helvetica,sans-Serif" font-size="10.00" fill="#000000">drake/common/eigen</text>
<text text-anchor="middle" x="354" y="-141.5" font-family="Helvetica,sans-Serif" font-size="10.00" fill="#000000">_types.h</text>
</a>
</g>
</g>
<!-- Node10&#45;&gt;Node13 -->
<g id="edge15" class="edge">
<title>Node10&#45;&gt;Node13</title>
<path fill="none" stroke="#191970" d="M457.1522,-201.4639C438.2901,-191.9619 413.7069,-179.5779 393.2707,-169.283"/>
<polygon fill="#191970" stroke="#191970" points="394.7138,-166.091 384.2083,-164.7177 391.5645,-172.3425 394.7138,-166.091"/>
</g>
<!-- Node13&#45;&gt;Node6 -->
<g id="edge16" class="edge">
<title>Node13&#45;&gt;Node6</title>
<path fill="none" stroke="#191970" d="M293.8515,-137.945C286.8232,-136.6082 279.7542,-135.2697 273,-134 186.3859,-117.7179 161.5708,-125.9826 78,-98 76.3917,-97.4615 74.7617,-96.8536 73.1343,-96.1982"/>
<polygon fill="#191970" stroke="#191970" points="74.5655,-93.0042 64.0113,-92.0766 71.6834,-99.3834 74.5655,-93.0042"/>
</g>
<!-- Node13&#45;&gt;Node12 -->
<g id="edge17" class="edge">
<title>Node13&#45;&gt;Node12</title>
<path fill="none" stroke="#191970" d="M371.6994,-134.2967C384.0881,-123.6551 400.6135,-109.4602 413.2315,-98.6217"/>
<polygon fill="#191970" stroke="#191970" points="415.5712,-101.2259 420.8763,-92.055 411.01,-95.9159 415.5712,-101.2259"/>
</g>
<!-- Node14 -->
<g id="node15" class="node">
<title>Node14</title>
<g id="a_node15"><a xlink:href="constants_8h.html" target="_top" xlink:title=" ">
<polygon fill="#ffffff" stroke="#000000" points="226.5,-73 226.5,-92 375.5,-92 375.5,-73 226.5,-73"/>
<text text-anchor="middle" x="301" y="-80" font-family="Helvetica,sans-Serif" font-size="10.00" fill="#000000">drake/common/constants.h</text>
</a>
</g>
</g>
<!-- Node13&#45;&gt;Node14 -->
<g id="edge18" class="edge">
<title>Node13&#45;&gt;Node14</title>
<path fill="none" stroke="#191970" d="M341.9735,-134.2967C333.9563,-124.1618 323.3898,-110.804 314.9953,-100.1921"/>
<polygon fill="#191970" stroke="#191970" points="317.5075,-97.7264 308.5584,-92.055 312.0175,-102.0692 317.5075,-97.7264"/>
</g>
<!-- Node15 -->
<g id="node16" class="node">
<title>Node15</title>
<g id="a_node16"><a xlink:href="drake__assert_8h.html" target="_top" xlink:title="Provides Drake&#39;s assertion implementation.">
<polygon fill="#ffffff" stroke="#000000" points="527.5,-67.5 527.5,-97.5 648.5,-97.5 648.5,-67.5 527.5,-67.5"/>
<text text-anchor="start" x="535.5" y="-85.5" font-family="Helvetica,sans-Serif" font-size="10.00" fill="#000000">drake/common/drake</text>
<text text-anchor="middle" x="588" y="-74.5" font-family="Helvetica,sans-Serif" font-size="10.00" fill="#000000">_assert.h</text>
</a>
</g>
</g>
<!-- Node13&#45;&gt;Node15 -->
<g id="edge19" class="edge">
<title>Node13&#45;&gt;Node15</title>
<path fill="none" stroke="#191970" d="M406.5142,-134.4639C441.7671,-124.3701 488.3788,-111.024 525.5367,-100.3848"/>
<polygon fill="#191970" stroke="#191970" points="526.6065,-103.7192 535.2568,-97.6017 524.6797,-96.9896 526.6065,-103.7192"/>
</g>
<!-- Node16 -->
<g id="node17" class="node">
<title>Node16</title>
<g id="a_node17"><a xlink:href="drake__copyable_8h.html" target="_top" xlink:title="Provides careful macros to selectively enable or disable the special member functions for copy&#45;constr...">
<polygon fill="#ffffff" stroke="#000000" points="87.5,-67.5 87.5,-97.5 208.5,-97.5 208.5,-67.5 87.5,-67.5"/>
<text text-anchor="start" x="95.5" y="-85.5" font-family="Helvetica,sans-Serif" font-size="10.00" fill="#000000">drake/common/drake</text>
<text text-anchor="middle" x="148" y="-74.5" font-family="Helvetica,sans-Serif" font-size="10.00" fill="#000000">_copyable.h</text>
</a>
</g>
</g>
<!-- Node13&#45;&gt;Node16 -->
<g id="edge21" class="edge">
<title>Node13&#45;&gt;Node16</title>
<path fill="none" stroke="#191970" d="M307.7696,-134.4639C277.1311,-124.499 236.7467,-111.3642 204.2459,-100.7936"/>
<polygon fill="#191970" stroke="#191970" points="205.0243,-97.3663 194.4321,-97.6017 202.8592,-104.0231 205.0243,-97.3663"/>
</g>
<!-- Node15&#45;&gt;Node11 -->
<g id="edge20" class="edge">
<title>Node15&#45;&gt;Node11</title>
<path fill="none" stroke="#191970" d="M588,-67.2967C588,-57.7699 588,-45.3954 588,-35.1306"/>
<polygon fill="#191970" stroke="#191970" points="591.5001,-35.0549 588,-25.055 584.5001,-35.055 591.5001,-35.0549"/>
</g>
<!-- Node17&#45;&gt;Node12 -->
<g id="edge25" class="edge">
<title>Node17&#45;&gt;Node12</title>
<path fill="none" stroke="#191970" d="M617.9092,-139.9005C579.7192,-128.1091 514.8313,-108.0746 472.7014,-95.0668"/>
<polygon fill="#191970" stroke="#191970" points="473.6206,-91.6876 463.0331,-92.0817 471.5555,-98.3761 473.6206,-91.6876"/>
</g>
<!-- Node18 -->
<g id="node19" class="node">
<title>Node18</title>
<g id="a_node19"><a xlink:title=" ">
<polygon fill="#ffffff" stroke="#bfbfbf" points="741.5,-73 741.5,-92 788.5,-92 788.5,-73 741.5,-73"/>
<text text-anchor="middle" x="765" y="-80" font-family="Helvetica,sans-Serif" font-size="10.00" fill="#000000">cmath</text>
</a>
</g>
</g>
<!-- Node17&#45;&gt;Node18 -->
<g id="edge23" class="edge">
<title>Node17&#45;&gt;Node18</title>
<path fill="none" stroke="#191970" d="M665.62,-139.9005C685.0012,-128.7062 717.2455,-110.0823 739.7315,-97.0947"/>
<polygon fill="#191970" stroke="#191970" points="741.502,-100.114 748.4109,-92.0817 738.0009,-94.0525 741.502,-100.114"/>
</g>
<!-- Node19 -->
<g id="node20" class="node">
<title>Node19</title>
<g id="a_node20"><a xlink:title=" ">
<polygon fill="#ffffff" stroke="#bfbfbf" points="666.5,-73 666.5,-92 723.5,-92 723.5,-73 666.5,-73"/>
<text text-anchor="middle" x="695" y="-80" font-family="Helvetica,sans-Serif" font-size="10.00" fill="#000000">ostream</text>
</a>
</g>
</g>
<!-- Node17&#45;&gt;Node19 -->
<g id="edge24" class="edge">
<title>Node17&#45;&gt;Node19</title>
<path fill="none" stroke="#191970" d="M655.5907,-139.9005C662.6273,-129.6515 673.9398,-113.1747 682.6434,-100.4976"/>
<polygon fill="#191970" stroke="#191970" points="685.6468,-102.3067 688.4215,-92.0817 679.876,-98.3446 685.6468,-102.3067"/>
</g>
<!-- Node20&#45;&gt;Node15 -->
<g id="edge33" class="edge">
<title>Node20&#45;&gt;Node15</title>
<path fill="none" stroke="#191970" d="M760.1789,-134.4639C726.8761,-124.4131 682.8885,-111.1375 647.7106,-100.5208"/>
<polygon fill="#191970" stroke="#191970" points="648.6232,-97.1403 638.0384,-97.6017 646.6007,-103.8418 648.6232,-97.1403"/>
</g>
<!-- Node20&#45;&gt;Node18 -->
<g id="edge27" class="edge">
<title>Node20&#45;&gt;Node18</title>
<path fill="none" stroke="#191970" d="M799.7888,-134.2967C793.0499,-124.2631 784.1894,-111.0709 777.0971,-100.5113"/>
<polygon fill="#191970" stroke="#191970" points="779.8986,-98.4049 771.4175,-92.055 774.0876,-102.3078 779.8986,-98.4049"/>
</g>
<!-- Node21 -->
<g id="node22" class="node">
<title>Node21</title>
<g id="a_node22"><a xlink:title=" ">
<polygon fill="#ffffff" stroke="#bfbfbf" points="1040,-6 1040,-25 1084,-25 1084,-6 1040,-6"/>
<text text-anchor="middle" x="1062" y="-13" font-family="Helvetica,sans-Serif" font-size="10.00" fill="#000000">limits</text>
</a>
</g>
</g>
<!-- Node20&#45;&gt;Node21 -->
<g id="edge28" class="edge">
<title>Node20&#45;&gt;Node21</title>
<path fill="none" stroke="#191970" d="M875.774,-146.8185C949.8073,-142.2571 1063.2717,-130.0928 1090,-98 1105.6387,-79.2225 1090.386,-51.2871 1077.0044,-33.2318"/>
<polygon fill="#191970" stroke="#191970" points="1079.6596,-30.946 1070.7292,-25.2454 1074.1555,-35.2709 1079.6596,-30.946"/>
</g>
<!-- Node22 -->
<g id="node23" class="node">
<title>Node22</title>
<g id="a_node23"><a xlink:href="cond_8h.html" target="_top" xlink:title=" ">
<polygon fill="#ffffff" stroke="#000000" points="806.5,-73 806.5,-92 931.5,-92 931.5,-73 806.5,-73"/>
<text text-anchor="middle" x="869" y="-80" font-family="Helvetica,sans-Serif" font-size="10.00" fill="#000000">drake/common/cond.h</text>
</a>
</g>
</g>
<!-- Node20&#45;&gt;Node22 -->
<g id="edge29" class="edge">
<title>Node20&#45;&gt;Node22</title>
<path fill="none" stroke="#191970" d="M823.388,-134.2967C832.402,-124.0605 844.3111,-110.5366 853.7,-99.8746"/>
<polygon fill="#191970" stroke="#191970" points="856.6038,-101.873 860.5859,-92.055 851.3504,-97.2468 856.6038,-101.873"/>
</g>
<!-- Node25 -->
<g id="node26" class="node">
<title>Node25</title>
<g id="a_node26"><a xlink:href="dummy__value_8h.html" target="_top" xlink:title=" ">
<polygon fill="#ffffff" stroke="#000000" points="949.5,-67.5 949.5,-97.5 1080.5,-97.5 1080.5,-67.5 949.5,-67.5"/>
<text text-anchor="start" x="957.5" y="-85.5" font-family="Helvetica,sans-Serif" font-size="10.00" fill="#000000">drake/common/dummy</text>
<text text-anchor="middle" x="1015" y="-74.5" font-family="Helvetica,sans-Serif" font-size="10.00" fill="#000000">_value.h</text>
</a>
</g>
</g>
<!-- Node20&#45;&gt;Node25 -->
<g id="edge34" class="edge">
<title>Node20&#45;&gt;Node25</title>
<path fill="none" stroke="#191970" d="M856.006,-134.4639C886.4957,-124.499 926.6841,-111.3642 959.0271,-100.7936"/>
<polygon fill="#191970" stroke="#191970" points="960.3754,-104.0352 968.7933,-97.6017 958.2008,-97.3815 960.3754,-104.0352"/>
</g>
<!-- Node22&#45;&gt;Node11 -->
<g id="edge31" class="edge">
<title>Node22&#45;&gt;Node11</title>
<path fill="none" stroke="#191970" d="M829.038,-72.9717C777.0811,-60.5834 686.6042,-39.0106 632.5076,-26.1121"/>
<polygon fill="#191970" stroke="#191970" points="633.0607,-22.646 622.5215,-23.7311 631.4371,-29.4551 633.0607,-22.646"/>
</g>
<!-- Node23 -->
<g id="node24" class="node">
<title>Node23</title>
<g id="a_node24"><a xlink:title=" ">
<polygon fill="#ffffff" stroke="#bfbfbf" points="893.5,-6 893.5,-25 958.5,-25 958.5,-6 893.5,-6"/>
<text text-anchor="middle" x="926" y="-13" font-family="Helvetica,sans-Serif" font-size="10.00" fill="#000000">functional</text>
</a>
</g>
</g>
<!-- Node22&#45;&gt;Node23 -->
<g id="edge30" class="edge">
<title>Node22&#45;&gt;Node23</title>
<path fill="none" stroke="#191970" d="M877.1667,-72.9005C886.0554,-62.4525 900.45,-45.5325 911.3131,-32.7635"/>
<polygon fill="#191970" stroke="#191970" points="914.0344,-34.9662 917.8484,-25.0817 908.7028,-30.4303 914.0344,-34.9662"/>
</g>
<!-- Node24 -->
<g id="node25" class="node">
<title>Node24</title>
<g id="a_node25"><a xlink:href="double__overloads_8h.html" target="_top" xlink:title="Provides necessary operations on double to have it as a ScalarType in drake.">
<polygon fill="#ffffff" stroke="#000000" points="749,-.5 749,-30.5 875,-30.5 875,-.5 749,-.5"/>
<text text-anchor="start" x="757" y="-18.5" font-family="Helvetica,sans-Serif" font-size="10.00" fill="#000000">drake/common/double</text>
<text text-anchor="middle" x="812" y="-7.5" font-family="Helvetica,sans-Serif" font-size="10.00" fill="#000000">_overloads.h</text>
</a>
</g>
</g>
<!-- Node22&#45;&gt;Node24 -->
<g id="edge32" class="edge">
<title>Node22&#45;&gt;Node24</title>
<path fill="none" stroke="#191970" d="M860.8333,-72.9005C853.1798,-63.9043 841.4443,-50.1099 831.3959,-38.2986"/>
<polygon fill="#191970" stroke="#191970" points="833.9253,-35.8704 824.7797,-30.5218 828.5937,-40.4063 833.9253,-35.8704"/>
</g>
<!-- Node25&#45;&gt;Node21 -->
<g id="edge35" class="edge">
<title>Node25&#45;&gt;Node21</title>
<path fill="none" stroke="#191970" d="M1025.665,-67.2967C1032.7035,-57.2631 1041.9577,-44.0709 1049.3652,-33.5113"/>
<polygon fill="#191970" stroke="#191970" points="1052.4197,-35.2516 1055.2973,-25.055 1046.6891,-31.2316 1052.4197,-35.2516"/>
</g>
</g>
</svg>
