<?xml version="1.0" encoding="UTF-8" standalone="no"?>
<!DOCTYPE svg PUBLIC "-//W3C//DTD SVG 1.1//EN"
 "http://www.w3.org/Graphics/SVG/1.1/DTD/svg11.dtd">
<!-- Generated by graphviz version 2.40.1 (20161225.0304)
 -->
<!-- Title: drake/bindings/pydrake/autodiff_types_pybind.h Pages: 1 -->
<!--zoomable 374 -->
<svg id="main" version="1.1" xmlns="http://www.w3.org/2000/svg" xmlns:xlink="http://www.w3.org/1999/xlink" xml:space="preserve" onload="init(evt)">
<style type="text/css"><![CDATA[
.edge:hover path { stroke: red; }
.edge:hover polygon { stroke: red; fill: red; }
]]></style>
<script type="text/javascript"><![CDATA[
var edges = document.getElementsByTagName('g');
if (edges && edges.length) {
  for (var i=0;i<edges.length;i++) {
    if (edges[i].id.substr(0,4)=='edge') {
      edges[i].setAttribute('class','edge');
    }
  }
}
]]></script>
        <defs>
                <circle id="rim" cx="0" cy="0" r="7"/>
                <circle id="rim2" cx="0" cy="0" r="3.5"/>
                <g id="zoomPlus">
                        <use xlink:href="#rim" fill="#404040">
                                <set attributeName="fill" to="#808080" begin="zoomplus.mouseover" end="zoomplus.mouseout"/>
                        </use>
                        <path d="M-4,0h8M0,-4v8" fill="none" stroke="white" stroke-width="1.5" pointer-events="none"/>
                </g>
                <g id="zoomMin">
                        <use xlink:href="#rim" fill="#404040">
                                <set attributeName="fill" to="#808080" begin="zoomminus.mouseover" end="zoomminus.mouseout"/>
                        </use>
                        <path d="M-4,0h8" fill="none" stroke="white" stroke-width="1.5" pointer-events="none"/>
                </g>
                <g id="dirArrow">
                        <path fill="none" stroke="white" stroke-width="1.5" d="M0,-3.0v7 M-2.5,-0.5L0,-3.0L2.5,-0.5"/>
                </g>
               <g id="resetDef">
                       <use xlink:href="#rim2" fill="#404040">
                               <set attributeName="fill" to="#808080" begin="reset.mouseover" end="reset.mouseout"/>
                       </use>
               </g>
        </defs>

<script type="text/javascript">
var viewWidth = 1181;
var viewHeight = 374;
var sectionId = 'dynsection-0';
</script>
<script xlink:href="svgpan.js"/>
<svg id="graph" class="graph">
<g id="viewport">
<title>drake/bindings/pydrake/autodiff_types_pybind.h</title>
<polygon fill="#ffffff" stroke="transparent" points="-4,4 -4,-370 1177.009,-370 1177.009,4 -4,4"/>
<!-- Node0 -->
<g id="node1" class="node">
<title>Node0</title>
<g id="a_node1"><a xlink:title=" ">
<polygon fill="#bfbfbf" stroke="#000000" points="190.5,-335.5 190.5,-365.5 327.5,-365.5 327.5,-335.5 190.5,-335.5"/>
<text text-anchor="start" x="198.5" y="-353.5" font-family="Helvetica,sans-Serif" font-size="10.00" fill="#000000">drake/bindings/pydrake</text>
<text text-anchor="middle" x="259" y="-342.5" font-family="Helvetica,sans-Serif" font-size="10.00" fill="#000000">/autodiff_types_pybind.h</text>
</a>
</g>
</g>
<!-- Node1 -->
<g id="node2" class="node">
<title>Node1</title>
<g id="a_node2"><a xlink:title=" ">
<polygon fill="#ffffff" stroke="#bfbfbf" points="0,-274 0,-293 64,-293 64,-274 0,-274"/>
<text text-anchor="middle" x="32" y="-281" font-family="Helvetica,sans-Serif" font-size="10.00" fill="#000000">algorithm</text>
</a>
</g>
</g>
<!-- Node0&#45;&gt;Node1 -->
<g id="edge1" class="edge">
<title>Node0&#45;&gt;Node1</title>
<path fill="none" stroke="#191970" d="M199.1118,-335.4051C162.4507,-325.7975 114.7233,-312.6314 73,-299 70.5949,-298.2142 68.1229,-297.3711 65.6419,-296.4987"/>
<polygon fill="#191970" stroke="#191970" points="66.7455,-293.1759 56.1514,-293.049 64.3541,-299.7547 66.7455,-293.1759"/>
</g>
<!-- Node2 -->
<g id="node3" class="node">
<title>Node2</title>
<g id="a_node3"><a xlink:title=" ">
<polygon fill="#ffffff" stroke="#bfbfbf" points="82.5,-274 82.5,-293 183.5,-293 183.5,-274 82.5,-274"/>
<text text-anchor="middle" x="133" y="-281" font-family="Helvetica,sans-Serif" font-size="10.00" fill="#000000">pybind11/eigen.h</text>
</a>
</g>
</g>
<!-- Node0&#45;&gt;Node2 -->
<g id="edge2" class="edge">
<title>Node0&#45;&gt;Node2</title>
<path fill="none" stroke="#191970" d="M230.7231,-335.4639C209.582,-324.2222 180.8542,-308.9463 160.0216,-297.8686"/>
<polygon fill="#191970" stroke="#191970" points="161.5337,-294.7087 151.0611,-293.1039 158.2472,-300.8892 161.5337,-294.7087"/>
</g>
<!-- Node3 -->
<g id="node4" class="node">
<title>Node3</title>
<g id="a_node4"><a xlink:title=" ">
<polygon fill="#ffffff" stroke="#bfbfbf" points="152.5,-207 152.5,-226 271.5,-226 271.5,-207 152.5,-207"/>
<text text-anchor="middle" x="212" y="-214" font-family="Helvetica,sans-Serif" font-size="10.00" fill="#000000">pybind11/pybind11.h</text>
</a>
</g>
</g>
<!-- Node0&#45;&gt;Node3 -->
<g id="edge3" class="edge">
<title>Node0&#45;&gt;Node3</title>
<path fill="none" stroke="#191970" d="M249.2757,-335.248C243.2769,-325.2651 235.8317,-311.7525 231,-299 223.1399,-278.2545 217.9435,-253.2928 215.0021,-236.2984"/>
<polygon fill="#191970" stroke="#191970" points="218.4529,-235.7121 213.3896,-226.4055 211.5441,-236.8383 218.4529,-235.7121"/>
</g>
<!-- Node4 -->
<g id="node5" class="node">
<title>Node4</title>
<g id="a_node5"><a xlink:title=" ">
<polygon fill="#ffffff" stroke="#bfbfbf" points="712.5,-207 712.5,-226 781.5,-226 781.5,-207 712.5,-207"/>
<text text-anchor="middle" x="747" y="-214" font-family="Helvetica,sans-Serif" font-size="10.00" fill="#000000">Eigen/Core</text>
</a>
</g>
</g>
<!-- Node0&#45;&gt;Node4 -->
<g id="edge4" class="edge">
<title>Node0&#45;&gt;Node4</title>
<path fill="none" stroke="#191970" d="M327.7211,-346.8192C426.4084,-340.6687 602.6972,-326.2079 660,-299 691.3078,-284.1348 718.6927,-253.7078 734.0141,-234.2496"/>
<polygon fill="#191970" stroke="#191970" points="736.8908,-236.2493 740.1755,-226.1765 731.3262,-232.0024 736.8908,-236.2493"/>
</g>
<!-- Node5 -->
<g id="node6" class="node">
<title>Node5</title>
<g id="a_node6"><a xlink:href="pydrake__pybind_8h.html" target="_top" xlink:title=" ">
<polygon fill="#ffffff" stroke="#000000" points="240.5,-268.5 240.5,-298.5 371.5,-298.5 371.5,-268.5 240.5,-268.5"/>
<text text-anchor="start" x="248.5" y="-286.5" font-family="Helvetica,sans-Serif" font-size="10.00" fill="#000000">drake/bindings/pydrake</text>
<text text-anchor="middle" x="306" y="-275.5" font-family="Helvetica,sans-Serif" font-size="10.00" fill="#000000">/pydrake_pybind.h</text>
</a>
</g>
</g>
<!-- Node0&#45;&gt;Node5 -->
<g id="edge5" class="edge">
<title>Node0&#45;&gt;Node5</title>
<path fill="none" stroke="#191970" d="M269.665,-335.2967C275.5541,-326.9016 282.9944,-316.2952 289.6062,-306.8698"/>
<polygon fill="#191970" stroke="#191970" points="292.4996,-308.8398 295.3772,-298.6432 286.769,-304.8198 292.4996,-308.8398"/>
</g>
<!-- Node7 -->
<g id="node8" class="node">
<title>Node7</title>
<g id="a_node8"><a xlink:href="common_2autodiff_8h.html" target="_top" xlink:title=" ">
<polygon fill="#ffffff" stroke="#000000" points="511,-274 511,-293 651,-293 651,-274 511,-274"/>
<text text-anchor="middle" x="581" y="-281" font-family="Helvetica,sans-Serif" font-size="10.00" fill="#000000">drake/common/autodiff.h</text>
</a>
</g>
</g>
<!-- Node0&#45;&gt;Node7 -->
<g id="edge8" class="edge">
<title>Node0&#45;&gt;Node7</title>
<path fill="none" stroke="#191970" d="M327.6821,-336.209C386.6276,-323.9439 470.5091,-306.4903 525.3392,-295.0816"/>
<polygon fill="#191970" stroke="#191970" points="526.1493,-298.4881 535.2266,-293.0243 524.7232,-291.6349 526.1493,-298.4881"/>
</g>
<!-- Node5&#45;&gt;Node3 -->
<g id="edge7" class="edge">
<title>Node5&#45;&gt;Node3</title>
<path fill="none" stroke="#191970" d="M284.6699,-268.2967C269.4555,-257.4524 249.0643,-242.9182 233.7547,-232.006"/>
<polygon fill="#191970" stroke="#191970" points="235.5802,-229.0091 225.4055,-226.055 231.5172,-234.7093 235.5802,-229.0091"/>
</g>
<!-- Node6 -->
<g id="node7" class="node">
<title>Node6</title>
<g id="a_node7"><a xlink:title=" ">
<polygon fill="#ffffff" stroke="#bfbfbf" points="100.5,-73 100.5,-92 145.5,-92 145.5,-73 100.5,-73"/>
<text text-anchor="middle" x="123" y="-80" font-family="Helvetica,sans-Serif" font-size="10.00" fill="#000000">utility</text>
</a>
</g>
</g>
<!-- Node5&#45;&gt;Node6 -->
<g id="edge6" class="edge">
<title>Node5&#45;&gt;Node6</title>
<path fill="none" stroke="#191970" d="M304.0538,-268.2625C301.2014,-250.699 294.5515,-221.6098 280,-201 246.1529,-153.061 187.0029,-116.0858 151.7713,-96.9564"/>
<polygon fill="#191970" stroke="#191970" points="152.9831,-93.6371 142.5093,-92.0399 149.701,-99.82 152.9831,-93.6371"/>
</g>
<!-- Node7&#45;&gt;Node4 -->
<g id="edge9" class="edge">
<title>Node7&#45;&gt;Node4</title>
<path fill="none" stroke="#191970" d="M604.7838,-273.9005C633.3819,-262.3579 681.5506,-242.9163 713.8017,-229.8993"/>
<polygon fill="#191970" stroke="#191970" points="715.2972,-233.0701 723.2604,-226.0817 712.6772,-226.5789 715.2972,-233.0701"/>
</g>
<!-- Node8 -->
<g id="node9" class="node">
<title>Node8</title>
<g id="a_node9"><a xlink:title=" ">
<polygon fill="#ffffff" stroke="#bfbfbf" points="328.5,-207 328.5,-226 479.5,-226 479.5,-207 328.5,-207"/>
<text text-anchor="middle" x="404" y="-214" font-family="Helvetica,sans-Serif" font-size="10.00" fill="#000000">unsupported/Eigen/AutoDiff</text>
</a>
</g>
</g>
<!-- Node7&#45;&gt;Node8 -->
<g id="edge10" class="edge">
<title>Node7&#45;&gt;Node8</title>
<path fill="none" stroke="#191970" d="M555.6402,-273.9005C525.0156,-262.3082 473.3432,-242.7486 438.9544,-229.7313"/>
<polygon fill="#191970" stroke="#191970" points="439.9042,-226.3486 429.3127,-226.0817 437.4261,-232.8952 439.9042,-226.3486"/>
</g>
<!-- Node9 -->
<g id="node10" class="node">
<title>Node9</title>
<g id="a_node10"><a xlink:href="eigen__autodiff__types_8h.html" target="_top" xlink:title="This file contains abbreviated definitions for certain uses of AutoDiffScalar that are commonly used ...">
<polygon fill="#ffffff" stroke="#000000" points="498,-201.5 498,-231.5 618,-231.5 618,-201.5 498,-201.5"/>
<text text-anchor="start" x="506" y="-219.5" font-family="Helvetica,sans-Serif" font-size="10.00" fill="#000000">drake/common/eigen</text>
<text text-anchor="middle" x="558" y="-208.5" font-family="Helvetica,sans-Serif" font-size="10.00" fill="#000000">_autodiff_types.h</text>
</a>
</g>
</g>
<!-- Node7&#45;&gt;Node9 -->
<g id="edge11" class="edge">
<title>Node7&#45;&gt;Node9</title>
<path fill="none" stroke="#191970" d="M577.7047,-273.9005C574.7649,-265.3368 570.3325,-252.4252 566.4157,-241.0152"/>
<polygon fill="#191970" stroke="#191970" points="569.714,-239.8436 563.1567,-231.5218 563.0933,-242.1164 569.714,-239.8436"/>
</g>
<!-- Node16 -->
<g id="node17" class="node">
<title>Node16</title>
<g id="a_node17"><a xlink:href="autodiffxd_8h.html" target="_top" xlink:title=" ">
<polygon fill="#ffffff" stroke="#000000" points="649,-140 649,-159 801,-159 801,-140 649,-140"/>
<text text-anchor="middle" x="725" y="-147" font-family="Helvetica,sans-Serif" font-size="10.00" fill="#000000">drake/common/autodiffxd.h</text>
</a>
</g>
</g>
<!-- Node7&#45;&gt;Node16 -->
<g id="edge21" class="edge">
<title>Node7&#45;&gt;Node16</title>
<path fill="none" stroke="#191970" d="M591.3561,-273.8631C615.7457,-251.1672 677.0253,-194.1431 707.3872,-165.8897"/>
<polygon fill="#191970" stroke="#191970" points="709.8013,-168.4242 714.7377,-159.0496 705.0327,-163.2997 709.8013,-168.4242"/>
</g>
<!-- Node19 -->
<g id="node20" class="node">
<title>Node19</title>
<g id="a_node20"><a xlink:href="autodiff__overloads_8h.html" target="_top" xlink:title="Overloads for STL mathematical operations on AutoDiffScalar.">
<polygon fill="#ffffff" stroke="#000000" points="820.5,-134.5 820.5,-164.5 951.5,-164.5 951.5,-134.5 820.5,-134.5"/>
<text text-anchor="start" x="828.5" y="-152.5" font-family="Helvetica,sans-Serif" font-size="10.00" fill="#000000">drake/common/autodiff</text>
<text text-anchor="middle" x="886" y="-141.5" font-family="Helvetica,sans-Serif" font-size="10.00" fill="#000000">_overloads.h</text>
</a>
</g>
</g>
<!-- Node7&#45;&gt;Node19 -->
<g id="edge25" class="edge">
<title>Node7&#45;&gt;Node19</title>
<path fill="none" stroke="#191970" d="M599.0209,-273.8971C616.8225,-264.1395 644.5639,-248.1954 667,-232 684.1203,-219.6418 684.396,-210.9858 703,-201 722.0475,-190.7762 769.5196,-177.5304 811.3384,-167.0326"/>
<polygon fill="#191970" stroke="#191970" points="812.4093,-170.373 821.2695,-164.5637 810.7205,-163.5797 812.4093,-170.373"/>
</g>
<!-- Node10 -->
<g id="node11" class="node">
<title>Node10</title>
<g id="a_node11"><a xlink:title=" ">
<polygon fill="#ffffff" stroke="#bfbfbf" points="629.5,-6 629.5,-25 698.5,-25 698.5,-6 629.5,-6"/>
<text text-anchor="middle" x="664" y="-13" font-family="Helvetica,sans-Serif" font-size="10.00" fill="#000000">type_traits</text>
</a>
</g>
</g>
<!-- Node9&#45;&gt;Node10 -->
<g id="edge12" class="edge">
<title>Node9&#45;&gt;Node10</title>
<path fill="none" stroke="#191970" d="M558.3067,-201.1458C559.5678,-172.441 565.6356,-109.6945 594,-67 604.2046,-51.6399 620.6218,-39.2074 634.993,-30.4083"/>
<polygon fill="#191970" stroke="#191970" points="637.1584,-33.1987 644.0557,-25.1565 633.6486,-27.1422 637.1584,-33.1987"/>
</g>
<!-- Node11 -->
<g id="node12" class="node">
<title>Node11</title>
<g id="a_node12"><a xlink:title=" ">
<polygon fill="#ffffff" stroke="#bfbfbf" points="469.5,-73 469.5,-92 546.5,-92 546.5,-73 469.5,-73"/>
<text text-anchor="middle" x="508" y="-80" font-family="Helvetica,sans-Serif" font-size="10.00" fill="#000000">Eigen/Dense</text>
</a>
</g>
</g>
<!-- Node9&#45;&gt;Node11 -->
<g id="edge13" class="edge">
<title>Node9&#45;&gt;Node11</title>
<path fill="none" stroke="#191970" d="M552.3616,-201.389C543.2076,-176.8564 525.1302,-128.4088 515.1088,-101.5517"/>
<polygon fill="#191970" stroke="#191970" points="518.3588,-100.2496 511.5836,-92.1042 511.8005,-102.6968 518.3588,-100.2496"/>
</g>
<!-- Node12 -->
<g id="node13" class="node">
<title>Node12</title>
<g id="a_node13"><a xlink:href="eigen__types_8h.html" target="_top" xlink:title="This file contains abbreviated definitions for certain specializations of Eigen::Matrix that are comm...">
<polygon fill="#ffffff" stroke="#000000" points="335,-134.5 335,-164.5 455,-164.5 455,-134.5 335,-134.5"/>
<text text-anchor="start" x="343" y="-152.5" font-family="Helvetica,sans-Serif" font-size="10.00" fill="#000000">drake/common/eigen</text>
<text text-anchor="middle" x="395" y="-141.5" font-family="Helvetica,sans-Serif" font-size="10.00" fill="#000000">_types.h</text>
</a>
</g>
</g>
<!-- Node9&#45;&gt;Node12 -->
<g id="edge14" class="edge">
<title>Node9&#45;&gt;Node12</title>
<path fill="none" stroke="#191970" d="M521.4196,-201.4639C497.6991,-191.7137 466.5957,-178.9289 441.1765,-168.4805"/>
<polygon fill="#191970" stroke="#191970" points="442.3197,-165.1663 431.7399,-164.6017 439.6584,-171.6407 442.3197,-165.1663"/>
</g>
<!-- Node12&#45;&gt;Node6 -->
<g id="edge15" class="edge">
<title>Node12&#45;&gt;Node6</title>
<path fill="none" stroke="#191970" d="M334.8637,-137.475C269.156,-124.2048 170.9331,-103.9344 154,-98 152.5804,-97.5025 151.1424,-96.9543 149.7031,-96.3701"/>
<polygon fill="#191970" stroke="#191970" points="150.9222,-93.0801 140.3684,-92.1475 148.0371,-99.458 150.9222,-93.0801"/>
</g>
<!-- Node12&#45;&gt;Node11 -->
<g id="edge16" class="edge">
<title>Node12&#45;&gt;Node11</title>
<path fill="none" stroke="#191970" d="M420.3594,-134.4639C439.0631,-123.3741 464.3881,-108.3584 483.005,-97.32"/>
<polygon fill="#191970" stroke="#191970" points="484.9857,-100.2147 491.8023,-92.1039 481.4156,-94.1935 484.9857,-100.2147"/>
</g>
<!-- Node13 -->
<g id="node14" class="node">
<title>Node13</title>
<g id="a_node14"><a xlink:href="constants_8h.html" target="_top" xlink:title=" ">
<polygon fill="#ffffff" stroke="#000000" points="302.5,-73 302.5,-92 451.5,-92 451.5,-73 302.5,-73"/>
<text text-anchor="middle" x="377" y="-80" font-family="Helvetica,sans-Serif" font-size="10.00" fill="#000000">drake/common/constants.h</text>
</a>
</g>
</g>
<!-- Node12&#45;&gt;Node13 -->
<g id="edge17" class="edge">
<title>Node12&#45;&gt;Node13</title>
<path fill="none" stroke="#191970" d="M390.9155,-134.2967C388.3289,-124.6685 384.9608,-112.1318 382.1861,-101.8038"/>
<polygon fill="#191970" stroke="#191970" points="385.5418,-100.8044 379.567,-92.055 378.7815,-102.6206 385.5418,-100.8044"/>
</g>
<!-- Node14 -->
<g id="node15" class="node">
<title>Node14</title>
<g id="a_node15"><a xlink:href="drake__assert_8h.html" target="_top" xlink:title="Provides Drake&#39;s assertion implementation.">
<polygon fill="#ffffff" stroke="#000000" points="603.5,-67.5 603.5,-97.5 724.5,-97.5 724.5,-67.5 603.5,-67.5"/>
<text text-anchor="start" x="611.5" y="-85.5" font-family="Helvetica,sans-Serif" font-size="10.00" fill="#000000">drake/common/drake</text>
<text text-anchor="middle" x="664" y="-74.5" font-family="Helvetica,sans-Serif" font-size="10.00" fill="#000000">_assert.h</text>
</a>
</g>
</g>
<!-- Node12&#45;&gt;Node14 -->
<g id="edge18" class="edge">
<title>Node12&#45;&gt;Node14</title>
<path fill="none" stroke="#191970" d="M455.034,-134.5473C496.1193,-124.3142 550.7412,-110.7094 593.8359,-99.9758"/>
<polygon fill="#191970" stroke="#191970" points="594.8272,-103.3359 603.6848,-97.5227 593.1353,-96.5434 594.8272,-103.3359"/>
</g>
<!-- Node15 -->
<g id="node16" class="node">
<title>Node15</title>
<g id="a_node16"><a xlink:href="drake__copyable_8h.html" target="_top" xlink:title="Provides careful macros to selectively enable or disable the special member functions for copy&#45;constr...">
<polygon fill="#ffffff" stroke="#000000" points="163.5,-67.5 163.5,-97.5 284.5,-97.5 284.5,-67.5 163.5,-67.5"/>
<text text-anchor="start" x="171.5" y="-85.5" font-family="Helvetica,sans-Serif" font-size="10.00" fill="#000000">drake/common/drake</text>
<text text-anchor="middle" x="224" y="-74.5" font-family="Helvetica,sans-Serif" font-size="10.00" fill="#000000">_copyable.h</text>
</a>
</g>
</g>
<!-- Node12&#45;&gt;Node15 -->
<g id="edge20" class="edge">
<title>Node12&#45;&gt;Node15</title>
<path fill="none" stroke="#191970" d="M356.6243,-134.4639C331.6299,-124.6708 298.822,-111.8162 272.0908,-101.3426"/>
<polygon fill="#191970" stroke="#191970" points="273.1308,-97.9911 262.5431,-97.6017 270.5771,-104.5086 273.1308,-97.9911"/>
</g>
<!-- Node14&#45;&gt;Node10 -->
<g id="edge19" class="edge">
<title>Node14&#45;&gt;Node10</title>
<path fill="none" stroke="#191970" d="M664,-67.2967C664,-57.7699 664,-45.3954 664,-35.1306"/>
<polygon fill="#191970" stroke="#191970" points="667.5001,-35.0549 664,-25.055 660.5001,-35.055 667.5001,-35.0549"/>
</g>
<!-- Node16&#45;&gt;Node11 -->
<g id="edge24" class="edge">
<title>Node16&#45;&gt;Node11</title>
<path fill="none" stroke="#191970" d="M693.9092,-139.9005C655.7192,-128.1091 590.8313,-108.0746 548.7014,-95.0668"/>
<polygon fill="#191970" stroke="#191970" points="549.6206,-91.6876 539.0331,-92.0817 547.5555,-98.3761 549.6206,-91.6876"/>
</g>
<!-- Node17 -->
<g id="node18" class="node">
<title>Node17</title>
<g id="a_node18"><a xlink:title=" ">
<polygon fill="#ffffff" stroke="#bfbfbf" points="817.5,-73 817.5,-92 864.5,-92 864.5,-73 817.5,-73"/>
<text text-anchor="middle" x="841" y="-80" font-family="Helvetica,sans-Serif" font-size="10.00" fill="#000000">cmath</text>
</a>
</g>
</g>
<!-- Node16&#45;&gt;Node17 -->
<g id="edge22" class="edge">
<title>Node16&#45;&gt;Node17</title>
<path fill="none" stroke="#191970" d="M741.62,-139.9005C761.0012,-128.7062 793.2455,-110.0823 815.7315,-97.0947"/>
<polygon fill="#191970" stroke="#191970" points="817.502,-100.114 824.4109,-92.0817 814.0009,-94.0525 817.502,-100.114"/>
</g>
<!-- Node18 -->
<g id="node19" class="node">
<title>Node18</title>
<g id="a_node19"><a xlink:title=" ">
<polygon fill="#ffffff" stroke="#bfbfbf" points="742.5,-73 742.5,-92 799.5,-92 799.5,-73 742.5,-73"/>
<text text-anchor="middle" x="771" y="-80" font-family="Helvetica,sans-Serif" font-size="10.00" fill="#000000">ostream</text>
</a>
</g>
</g>
<!-- Node16&#45;&gt;Node18 -->
<g id="edge23" class="edge">
<title>Node16&#45;&gt;Node18</title>
<path fill="none" stroke="#191970" d="M731.5907,-139.9005C738.6273,-129.6515 749.9398,-113.1747 758.6434,-100.4976"/>
<polygon fill="#191970" stroke="#191970" points="761.6468,-102.3067 764.4215,-92.0817 755.876,-98.3446 761.6468,-102.3067"/>
</g>
<!-- Node19&#45;&gt;Node14 -->
<g id="edge32" class="edge">
<title>Node19&#45;&gt;Node14</title>
<path fill="none" stroke="#191970" d="M836.1789,-134.4639C802.8761,-124.4131 758.8885,-111.1375 723.7106,-100.5208"/>
<polygon fill="#191970" stroke="#191970" points="724.6232,-97.1403 714.0384,-97.6017 722.6007,-103.8418 724.6232,-97.1403"/>
</g>
<!-- Node19&#45;&gt;Node17 -->
<g id="edge26" class="edge">
<title>Node19&#45;&gt;Node17</title>
<path fill="none" stroke="#191970" d="M875.7888,-134.2967C869.0499,-124.2631 860.1894,-111.0709 853.0971,-100.5113"/>
<polygon fill="#191970" stroke="#191970" points="855.8986,-98.4049 847.4175,-92.055 850.0876,-102.3078 855.8986,-98.4049"/>
</g>
<!-- Node20 -->
<g id="node21" class="node">
<title>Node20</title>
<g id="a_node21"><a xlink:title=" ">
<polygon fill="#ffffff" stroke="#bfbfbf" points="1116,-6 1116,-25 1160,-25 1160,-6 1116,-6"/>
<text text-anchor="middle" x="1138" y="-13" font-family="Helvetica,sans-Serif" font-size="10.00" fill="#000000">limits</text>
</a>
</g>
</g>
<!-- Node19&#45;&gt;Node20 -->
<g id="edge27" class="edge">
<title>Node19&#45;&gt;Node20</title>
<path fill="none" stroke="#191970" d="M951.774,-146.8185C1025.8073,-142.2571 1139.2717,-130.0928 1166,-98 1181.6387,-79.2225 1166.386,-51.2871 1153.0044,-33.2318"/>
<polygon fill="#191970" stroke="#191970" points="1155.6596,-30.946 1146.7292,-25.2454 1150.1555,-35.2709 1155.6596,-30.946"/>
</g>
<!-- Node21 -->
<g id="node22" class="node">
<title>Node21</title>
<g id="a_node22"><a xlink:href="cond_8h.html" target="_top" xlink:title=" ">
<polygon fill="#ffffff" stroke="#000000" points="882.5,-73 882.5,-92 1007.5,-92 1007.5,-73 882.5,-73"/>
<text text-anchor="middle" x="945" y="-80" font-family="Helvetica,sans-Serif" font-size="10.00" fill="#000000">drake/common/cond.h</text>
</a>
</g>
</g>
<!-- Node19&#45;&gt;Node21 -->
<g id="edge28" class="edge">
<title>Node19&#45;&gt;Node21</title>
<path fill="none" stroke="#191970" d="M899.388,-134.2967C908.402,-124.0605 920.3111,-110.5366 929.7,-99.8746"/>
<polygon fill="#191970" stroke="#191970" points="932.6038,-101.873 936.5859,-92.055 927.3504,-97.2468 932.6038,-101.873"/>
</g>
<!-- Node24 -->
<g id="node25" class="node">
<title>Node24</title>
<g id="a_node25"><a xlink:href="dummy__value_8h.html" target="_top" xlink:title=" ">
<polygon fill="#ffffff" stroke="#000000" points="1025.5,-67.5 1025.5,-97.5 1156.5,-97.5 1156.5,-67.5 1025.5,-67.5"/>
<text text-anchor="start" x="1033.5" y="-85.5" font-family="Helvetica,sans-Serif" font-size="10.00" fill="#000000">drake/common/dummy</text>
<text text-anchor="middle" x="1091" y="-74.5" font-family="Helvetica,sans-Serif" font-size="10.00" fill="#000000">_value.h</text>
</a>
</g>
</g>
<!-- Node19&#45;&gt;Node24 -->
<g id="edge33" class="edge">
<title>Node19&#45;&gt;Node24</title>
<path fill="none" stroke="#191970" d="M932.006,-134.4639C962.4957,-124.499 1002.6841,-111.3642 1035.0271,-100.7936"/>
<polygon fill="#191970" stroke="#191970" points="1036.3754,-104.0352 1044.7933,-97.6017 1034.2008,-97.3815 1036.3754,-104.0352"/>
</g>
<!-- Node21&#45;&gt;Node10 -->
<g id="edge30" class="edge">
<title>Node21&#45;&gt;Node10</title>
<path fill="none" stroke="#191970" d="M905.038,-72.9717C853.0811,-60.5834 762.6042,-39.0106 708.5076,-26.1121"/>
<polygon fill="#191970" stroke="#191970" points="709.0607,-22.646 698.5215,-23.7311 707.4371,-29.4551 709.0607,-22.646"/>
</g>
<!-- Node22 -->
<g id="node23" class="node">
<title>Node22</title>
<g id="a_node23"><a xlink:title=" ">
<polygon fill="#ffffff" stroke="#bfbfbf" points="969.5,-6 969.5,-25 1034.5,-25 1034.5,-6 969.5,-6"/>
<text text-anchor="middle" x="1002" y="-13" font-family="Helvetica,sans-Serif" font-size="10.00" fill="#000000">functional</text>
</a>
</g>
</g>
<!-- Node21&#45;&gt;Node22 -->
<g id="edge29" class="edge">
<title>Node21&#45;&gt;Node22</title>
<path fill="none" stroke="#191970" d="M953.1667,-72.9005C962.0554,-62.4525 976.45,-45.5325 987.3131,-32.7635"/>
<polygon fill="#191970" stroke="#191970" points="990.0344,-34.9662 993.8484,-25.0817 984.7028,-30.4303 990.0344,-34.9662"/>
</g>
<!-- Node23 -->
<g id="node24" class="node">
<title>Node23</title>
<g id="a_node24"><a xlink:href="double__overloads_8h.html" target="_top" xlink:title="Provides necessary operations on double to have it as a ScalarType in drake.">
<polygon fill="#ffffff" stroke="#000000" points="825,-.5 825,-30.5 951,-30.5 951,-.5 825,-.5"/>
<text text-anchor="start" x="833" y="-18.5" font-family="Helvetica,sans-Serif" font-size="10.00" fill="#000000">drake/common/double</text>
<text text-anchor="middle" x="888" y="-7.5" font-family="Helvetica,sans-Serif" font-size="10.00" fill="#000000">_overloads.h</text>
</a>
</g>
</g>
<!-- Node21&#45;&gt;Node23 -->
<g id="edge31" class="edge">
<title>Node21&#45;&gt;Node23</title>
<path fill="none" stroke="#191970" d="M936.8333,-72.9005C929.1798,-63.9043 917.4443,-50.1099 907.3959,-38.2986"/>
<polygon fill="#191970" stroke="#191970" points="909.9253,-35.8704 900.7797,-30.5218 904.5937,-40.4063 909.9253,-35.8704"/>
</g>
<!-- Node24&#45;&gt;Node20 -->
<g id="edge34" class="edge">
<title>Node24&#45;&gt;Node20</title>
<path fill="none" stroke="#191970" d="M1101.665,-67.2967C1108.7035,-57.2631 1117.9577,-44.0709 1125.3652,-33.5113"/>
<polygon fill="#191970" stroke="#191970" points="1128.4197,-35.2516 1131.2973,-25.055 1122.6891,-31.2316 1128.4197,-35.2516"/>
</g>
</g>
</svg>
        <g id="navigator" transform="translate(0 0)" fill="#404254">
                <rect fill="#f2f5e9" fill-opacity="0.5" stroke="#606060" stroke-width=".5" x="0" y="0" width="60" height="60"/>
                <use id="zoomplus" xlink:href="#zoomPlus" x="17" y="9" onmousedown="handleZoom(evt,'in')"/>
                <use id="zoomminus" xlink:href="#zoomMin" x="42" y="9" onmousedown="handleZoom(evt,'out')"/>
                <use id="reset" xlink:href="#resetDef" x="30" y="36" onmousedown="handleReset()"/>
                <g id="arrowUp" xlink:href="#dirArrow" transform="translate(30 24)" onmousedown="handlePan(0,-1)">
                  <use xlink:href="#rim" fill="#404040">
                        <set attributeName="fill" to="#808080" begin="arrowUp.mouseover" end="arrowUp.mouseout"/>
                  </use>
                  <path fill="none" stroke="white" stroke-width="1.5" d="M0,-3.0v7 M-2.5,-0.5L0,-3.0L2.5,-0.5"/>
                </g>
                <g id="arrowRight" xlink:href="#dirArrow" transform="rotate(90) translate(36 -43)" onmousedown="handlePan(1,0)">
                  <use xlink:href="#rim" fill="#404040">
                        <set attributeName="fill" to="#808080" begin="arrowRight.mouseover" end="arrowRight.mouseout"/>
                  </use>
                  <path fill="none" stroke="white" stroke-width="1.5" d="M0,-3.0v7 M-2.5,-0.5L0,-3.0L2.5,-0.5"/>
                </g>
                <g id="arrowDown" xlink:href="#dirArrow" transform="rotate(180) translate(-30 -48)" onmousedown="handlePan(0,1)">
                  <use xlink:href="#rim" fill="#404040">
                        <set attributeName="fill" to="#808080" begin="arrowDown.mouseover" end="arrowDown.mouseout"/>
                  </use>
                  <path fill="none" stroke="white" stroke-width="1.5" d="M0,-3.0v7 M-2.5,-0.5L0,-3.0L2.5,-0.5"/>
                </g>
                <g id="arrowLeft" xlink:href="#dirArrow" transform="rotate(270) translate(-36 17)" onmousedown="handlePan(-1,0)">
                  <use xlink:href="#rim" fill="#404040">
                        <set attributeName="fill" to="#808080" begin="arrowLeft.mouseover" end="arrowLeft.mouseout"/>
                  </use>
                  <path fill="none" stroke="white" stroke-width="1.5" d="M0,-3.0v7 M-2.5,-0.5L0,-3.0L2.5,-0.5"/>
                </g>
        </g>
        <svg viewBox="0 0 15 15" width="100%" height="30px" preserveAspectRatio="xMaxYMin meet">
         <g id="arrow_out" transform="scale(0.3 0.3)">
          <a xlink:href="autodiff__types__pybind_8h__incl_org.svg" target="_base">
           <rect id="button" ry="5" rx="5" y="6" x="6" height="38" width="38"
                fill="#f2f5e9" fill-opacity="0.5" stroke="#606060" stroke-width="1.0"/>
           <path id="arrow"
             d="M 11.500037,31.436501 C 11.940474,20.09759 22.043105,11.32322 32.158766,21.979434 L 37.068811,17.246167 C 37.068811,17.246167 37.088388,32 37.088388,32 L 22.160133,31.978069 C 22.160133,31.978069 26.997745,27.140456 26.997745,27.140456 C 18.528582,18.264221 13.291696,25.230495 11.500037,31.436501 z"
             style="fill:#404040;"/>
          </a>
         </g>
        </svg>
</svg>
