<?xml version="1.0" encoding="UTF-8" standalone="no"?>
<!DOCTYPE svg PUBLIC "-//W3C//DTD SVG 1.1//EN"
 "http://www.w3.org/Graphics/SVG/1.1/DTD/svg11.dtd">
<!-- Generated by graphviz version 2.40.1 (20161225.0304)
 -->
<!-- Title: drake/geometry/render/gl_renderer/buffer_dim.h Pages: 1 -->
<!--zoomable 296 -->
<svg id="main" version="1.1" xmlns="http://www.w3.org/2000/svg" xmlns:xlink="http://www.w3.org/1999/xlink" xml:space="preserve" onload="init(evt)">
<style type="text/css"><![CDATA[
.edge:hover path { stroke: red; }
.edge:hover polygon { stroke: red; fill: red; }
]]></style>
<script type="text/javascript"><![CDATA[
var edges = document.getElementsByTagName('g');
if (edges && edges.length) {
  for (var i=0;i<edges.length;i++) {
    if (edges[i].id.substr(0,4)=='edge') {
      edges[i].setAttribute('class','edge');
    }
  }
}
]]></script>
        <defs>
                <circle id="rim" cx="0" cy="0" r="7"/>
                <circle id="rim2" cx="0" cy="0" r="3.5"/>
                <g id="zoomPlus">
                        <use xlink:href="#rim" fill="#404040">
                                <set attributeName="fill" to="#808080" begin="zoomplus.mouseover" end="zoomplus.mouseout"/>
                        </use>
                        <path d="M-4,0h8M0,-4v8" fill="none" stroke="white" stroke-width="1.5" pointer-events="none"/>
                </g>
                <g id="zoomMin">
                        <use xlink:href="#rim" fill="#404040">
                                <set attributeName="fill" to="#808080" begin="zoomminus.mouseover" end="zoomminus.mouseout"/>
                        </use>
                        <path d="M-4,0h8" fill="none" stroke="white" stroke-width="1.5" pointer-events="none"/>
                </g>
                <g id="dirArrow">
                        <path fill="none" stroke="white" stroke-width="1.5" d="M0,-3.0v7 M-2.5,-0.5L0,-3.0L2.5,-0.5"/>
                </g>
               <g id="resetDef">
                       <use xlink:href="#rim2" fill="#404040">
                               <set attributeName="fill" to="#808080" begin="reset.mouseover" end="reset.mouseout"/>
                       </use>
               </g>
        </defs>

<script type="text/javascript">
var viewWidth = 1027;
var viewHeight = 296;
var sectionId = 'dynsection-0';
</script>
<script xlink:href="svgpan.js"/>
<svg id="graph" class="graph">
<g id="viewport">
<title>drake/geometry/render/gl_renderer/buffer_dim.h</title>
<polygon fill="#ffffff" stroke="transparent" points="-4,4 -4,-292 1022.5,-292 1022.5,4 -4,4"/>
<!-- Node0 -->
<g id="node1" class="node">
<title>Node0</title>
<g id="a_node1"><a xlink:title=" ">
<polygon fill="#bfbfbf" stroke="#000000" points="401.5,-257.5 401.5,-287.5 541.5,-287.5 541.5,-257.5 401.5,-257.5"/>
<text text-anchor="start" x="409.5" y="-275.5" font-family="Helvetica,sans-Serif" font-size="10.00" fill="#000000">drake/geometry/render</text>
<text text-anchor="middle" x="471.5" y="-264.5" font-family="Helvetica,sans-Serif" font-size="10.00" fill="#000000">/gl_renderer/buffer_dim.h</text>
</a>
</g>
</g>
<!-- Node1 -->
<g id="node2" class="node">
<title>Node1</title>
<g id="a_node2"><a xlink:href="drake__copyable_8h.html" target="_top" xlink:title="Provides careful macros to selectively enable or disable the special member functions for copy&#45;constr...">
<polygon fill="#ffffff" stroke="#000000" points="270,-190.5 270,-220.5 391,-220.5 391,-190.5 270,-190.5"/>
<text text-anchor="start" x="278" y="-208.5" font-family="Helvetica,sans-Serif" font-size="10.00" fill="#000000">drake/common/drake</text>
<text text-anchor="middle" x="330.5" y="-197.5" font-family="Helvetica,sans-Serif" font-size="10.00" fill="#000000">_copyable.h</text>
</a>
</g>
</g>
<!-- Node0&#45;&gt;Node1 -->
<g id="edge1" class="edge">
<title>Node0&#45;&gt;Node1</title>
<path fill="none" stroke="#191970" d="M439.8568,-257.4639C419.7701,-247.9191 393.5633,-235.4663 371.8403,-225.144"/>
<polygon fill="#191970" stroke="#191970" points="373.0597,-221.8484 362.5254,-220.7177 370.0554,-228.1709 373.0597,-221.8484"/>
</g>
<!-- Node2 -->
<g id="node3" class="node">
<title>Node2</title>
<g id="a_node3"><a xlink:href="hash_8h.html" target="_top" xlink:title=" ">
<polygon fill="#ffffff" stroke="#000000" points="409,-196 409,-215 534,-215 534,-196 409,-196"/>
<text text-anchor="middle" x="471.5" y="-203" font-family="Helvetica,sans-Serif" font-size="10.00" fill="#000000">drake/common/hash.h</text>
</a>
</g>
</g>
<!-- Node0&#45;&gt;Node2 -->
<g id="edge2" class="edge">
<title>Node0&#45;&gt;Node2</title>
<path fill="none" stroke="#191970" d="M471.5,-257.2967C471.5,-247.7699 471.5,-235.3954 471.5,-225.1306"/>
<polygon fill="#191970" stroke="#191970" points="475.0001,-225.0549 471.5,-215.055 468.0001,-225.055 475.0001,-225.0549"/>
</g>
<!-- Node16 -->
<g id="node17" class="node">
<title>Node16</title>
<g id="a_node17"><a xlink:href="opengl__includes_8h.html" target="_top" xlink:title="Provides a one&#45;stop shop for pulling in the OpenGl symbols with the required extensions.">
<polygon fill="#ffffff" stroke="#000000" points="826.5,-190.5 826.5,-220.5 992.5,-220.5 992.5,-190.5 826.5,-190.5"/>
<text text-anchor="start" x="834.5" y="-208.5" font-family="Helvetica,sans-Serif" font-size="10.00" fill="#000000">drake/geometry/render</text>
<text text-anchor="middle" x="909.5" y="-197.5" font-family="Helvetica,sans-Serif" font-size="10.00" fill="#000000">/gl_renderer/opengl_includes.h</text>
</a>
</g>
</g>
<!-- Node0&#45;&gt;Node16 -->
<g id="edge19" class="edge">
<title>Node0&#45;&gt;Node16</title>
<path fill="none" stroke="#191970" d="M541.8723,-261.7353C616.2728,-250.3544 734.0059,-232.345 816.1276,-219.783"/>
<polygon fill="#191970" stroke="#191970" points="816.8559,-223.2124 826.2117,-218.2405 815.7974,-216.2929 816.8559,-223.2124"/>
</g>
<!-- Node3 -->
<g id="node4" class="node">
<title>Node3</title>
<g id="a_node4"><a xlink:title=" ">
<polygon fill="#ffffff" stroke="#bfbfbf" points="0,-129 0,-148 47,-148 47,-129 0,-129"/>
<text text-anchor="middle" x="23.5" y="-136" font-family="Helvetica,sans-Serif" font-size="10.00" fill="#000000">cmath</text>
</a>
</g>
</g>
<!-- Node2&#45;&gt;Node3 -->
<g id="edge3" class="edge">
<title>Node2&#45;&gt;Node3</title>
<path fill="none" stroke="#191970" d="M430.9012,-195.9601C420.6913,-193.7819 409.7277,-191.6312 399.5,-190 247.6948,-165.7888 203.3357,-196.1382 55.5,-154 53.5855,-153.4543 51.6455,-152.8001 49.7168,-152.0734"/>
<polygon fill="#191970" stroke="#191970" points="50.905,-148.7737 40.3382,-148.0024 48.1177,-155.1948 50.905,-148.7737"/>
</g>
<!-- Node4 -->
<g id="node5" class="node">
<title>Node4</title>
<g id="a_node5"><a xlink:title=" ">
<polygon fill="#ffffff" stroke="#bfbfbf" points="65,-129 65,-148 118,-148 118,-129 65,-129"/>
<text text-anchor="middle" x="91.5" y="-136" font-family="Helvetica,sans-Serif" font-size="10.00" fill="#000000">cstddef</text>
</a>
</g>
</g>
<!-- Node2&#45;&gt;Node4 -->
<g id="edge4" class="edge">
<title>Node2&#45;&gt;Node4</title>
<path fill="none" stroke="#191970" d="M430.1117,-195.9906C420.1196,-193.8609 409.4529,-191.7246 399.5,-190 278.9133,-169.1047 244.3182,-187.1157 126.5,-154 124.3168,-153.3864 122.0937,-152.6609 119.8802,-151.8643"/>
<polygon fill="#191970" stroke="#191970" points="120.9738,-148.5316 110.3902,-148.0431 118.3591,-155.025 120.9738,-148.5316"/>
</g>
<!-- Node5 -->
<g id="node6" class="node">
<title>Node5</title>
<g id="a_node6"><a xlink:title=" ">
<polygon fill="#ffffff" stroke="#bfbfbf" points="136,-129 136,-148 201,-148 201,-129 136,-129"/>
<text text-anchor="middle" x="168.5" y="-136" font-family="Helvetica,sans-Serif" font-size="10.00" fill="#000000">functional</text>
</a>
</g>
</g>
<!-- Node2&#45;&gt;Node5 -->
<g id="edge5" class="edge">
<title>Node2&#45;&gt;Node5</title>
<path fill="none" stroke="#191970" d="M428.131,-195.9888C418.7012,-193.9697 408.7731,-191.881 399.5,-190 315.6965,-173.0007 292.8921,-176.8809 210.5,-154 207.6916,-153.2201 204.8048,-152.3361 201.9228,-151.3952"/>
<polygon fill="#191970" stroke="#191970" points="202.8583,-148.0152 192.2635,-148.0458 200.5649,-154.6289 202.8583,-148.0152"/>
</g>
<!-- Node6 -->
<g id="node7" class="node">
<title>Node6</title>
<g id="a_node7"><a xlink:title=" ">
<polygon fill="#ffffff" stroke="#bfbfbf" points="219.5,-129 219.5,-148 279.5,-148 279.5,-129 219.5,-129"/>
<text text-anchor="middle" x="249.5" y="-136" font-family="Helvetica,sans-Serif" font-size="10.00" fill="#000000">iostream</text>
</a>
</g>
</g>
<!-- Node2&#45;&gt;Node6 -->
<g id="edge6" class="edge">
<title>Node2&#45;&gt;Node6</title>
<path fill="none" stroke="#191970" d="M433.2953,-195.9859C396.0273,-186.4156 337.8961,-170.716 288.5,-154 286.3692,-153.2789 284.185,-152.5063 281.9914,-151.7051"/>
<polygon fill="#191970" stroke="#191970" points="283.0409,-148.3598 272.4497,-148.0803 280.5549,-154.9035 283.0409,-148.3598"/>
</g>
<!-- Node7 -->
<g id="node8" class="node">
<title>Node7</title>
<g id="a_node8"><a xlink:title=" ">
<polygon fill="#ffffff" stroke="#bfbfbf" points="297.5,-129 297.5,-148 335.5,-148 335.5,-129 297.5,-129"/>
<text text-anchor="middle" x="316.5" y="-136" font-family="Helvetica,sans-Serif" font-size="10.00" fill="#000000">map</text>
</a>
</g>
</g>
<!-- Node2&#45;&gt;Node7 -->
<g id="edge7" class="edge">
<title>Node2&#45;&gt;Node7</title>
<path fill="none" stroke="#191970" d="M445.3214,-195.9415C419.3622,-186.2176 378.639,-170.2984 344.5,-154 343.6664,-153.602 342.823,-153.1904 341.9745,-152.7685"/>
<polygon fill="#191970" stroke="#191970" points="343.3916,-149.5596 332.91,-148.0146 340.1404,-155.7588 343.3916,-149.5596"/>
</g>
<!-- Node8 -->
<g id="node9" class="node">
<title>Node8</title>
<g id="a_node9"><a xlink:title=" ">
<polygon fill="#ffffff" stroke="#bfbfbf" points="353.5,-129 353.5,-148 409.5,-148 409.5,-129 353.5,-129"/>
<text text-anchor="middle" x="381.5" y="-136" font-family="Helvetica,sans-Serif" font-size="10.00" fill="#000000">optional</text>
</a>
</g>
</g>
<!-- Node2&#45;&gt;Node8 -->
<g id="edge8" class="edge">
<title>Node2&#45;&gt;Node8</title>
<path fill="none" stroke="#191970" d="M458.6052,-195.9005C444.0358,-185.0544 420.0978,-167.2339 402.7546,-154.3229"/>
<polygon fill="#191970" stroke="#191970" points="404.4823,-151.2457 394.3709,-148.0817 400.3022,-156.8606 404.4823,-151.2457"/>
</g>
<!-- Node9 -->
<g id="node10" class="node">
<title>Node9</title>
<g id="a_node10"><a xlink:title=" ">
<polygon fill="#ffffff" stroke="#bfbfbf" points="427.5,-129 427.5,-148 459.5,-148 459.5,-129 427.5,-129"/>
<text text-anchor="middle" x="443.5" y="-136" font-family="Helvetica,sans-Serif" font-size="10.00" fill="#000000">set</text>
</a>
</g>
</g>
<!-- Node2&#45;&gt;Node9 -->
<g id="edge9" class="edge">
<title>Node2&#45;&gt;Node9</title>
<path fill="none" stroke="#191970" d="M467.4883,-195.9005C463.3298,-185.95 456.7182,-170.1292 451.4883,-157.6147"/>
<polygon fill="#191970" stroke="#191970" points="454.5896,-155.9588 447.5043,-148.0817 448.1309,-158.658 454.5896,-155.9588"/>
</g>
<!-- Node10 -->
<g id="node11" class="node">
<title>Node10</title>
<g id="a_node11"><a xlink:title=" ">
<polygon fill="#ffffff" stroke="#bfbfbf" points="477.5,-129 477.5,-148 521.5,-148 521.5,-129 477.5,-129"/>
<text text-anchor="middle" x="499.5" y="-136" font-family="Helvetica,sans-Serif" font-size="10.00" fill="#000000">string</text>
</a>
</g>
</g>
<!-- Node2&#45;&gt;Node10 -->
<g id="edge10" class="edge">
<title>Node2&#45;&gt;Node10</title>
<path fill="none" stroke="#191970" d="M475.5117,-195.9005C479.6702,-185.95 486.2818,-170.1292 491.5117,-157.6147"/>
<polygon fill="#191970" stroke="#191970" points="494.8691,-158.658 495.4957,-148.0817 488.4104,-155.9588 494.8691,-158.658"/>
</g>
<!-- Node11 -->
<g id="node12" class="node">
<title>Node11</title>
<g id="a_node12"><a xlink:title=" ">
<polygon fill="#ffffff" stroke="#bfbfbf" points="682,-.5 682,-19.5 751,-19.5 751,-.5 682,-.5"/>
<text text-anchor="middle" x="716.5" y="-7.5" font-family="Helvetica,sans-Serif" font-size="10.00" fill="#000000">type_traits</text>
</a>
</g>
</g>
<!-- Node2&#45;&gt;Node11 -->
<g id="edge11" class="edge">
<title>Node2&#45;&gt;Node11</title>
<path fill="none" stroke="#191970" d="M482.7053,-195.785C518.6026,-164.6819 629.4063,-68.8384 646.5,-56 661.1436,-45.0018 678.3201,-33.6922 691.9936,-25.0393"/>
<polygon fill="#191970" stroke="#191970" points="694.2073,-27.7827 700.826,-19.5097 690.4928,-21.8495 694.2073,-27.7827"/>
</g>
<!-- Node12 -->
<g id="node13" class="node">
<title>Node12</title>
<g id="a_node13"><a xlink:title=" ">
<polygon fill="#ffffff" stroke="#bfbfbf" points="578,-129 578,-148 623,-148 623,-129 578,-129"/>
<text text-anchor="middle" x="600.5" y="-136" font-family="Helvetica,sans-Serif" font-size="10.00" fill="#000000">utility</text>
</a>
</g>
</g>
<!-- Node2&#45;&gt;Node12 -->
<g id="edge12" class="edge">
<title>Node2&#45;&gt;Node12</title>
<path fill="none" stroke="#191970" d="M489.9826,-195.9005C511.7275,-184.6067 548.0323,-165.7506 573.064,-152.7497"/>
<polygon fill="#191970" stroke="#191970" points="574.7905,-155.797 582.0517,-148.0817 571.5641,-149.5849 574.7905,-155.797"/>
</g>
<!-- Node13 -->
<g id="node14" class="node">
<title>Node13</title>
<g id="a_node14"><a xlink:title=" ">
<polygon fill="#ffffff" stroke="#bfbfbf" points="641,-129 641,-148 688,-148 688,-129 641,-129"/>
<text text-anchor="middle" x="664.5" y="-136" font-family="Helvetica,sans-Serif" font-size="10.00" fill="#000000">vector</text>
</a>
</g>
</g>
<!-- Node2&#45;&gt;Node13 -->
<g id="edge13" class="edge">
<title>Node2&#45;&gt;Node13</title>
<path fill="none" stroke="#191970" d="M505.3413,-195.9757C538.031,-186.4563 588.7378,-170.8451 631.5,-154 632.8987,-153.449 634.3219,-152.8669 635.753,-152.2641"/>
<polygon fill="#191970" stroke="#191970" points="637.4173,-155.3547 645.1367,-148.0979 634.5768,-148.9569 637.4173,-155.3547"/>
</g>
<!-- Node14 -->
<g id="node15" class="node">
<title>Node14</title>
<g id="a_node15"><a xlink:href="drake__assert_8h.html" target="_top" xlink:title="Provides Drake&#39;s assertion implementation.">
<polygon fill="#ffffff" stroke="#000000" points="656,-56.5 656,-86.5 777,-86.5 777,-56.5 656,-56.5"/>
<text text-anchor="start" x="664" y="-74.5" font-family="Helvetica,sans-Serif" font-size="10.00" fill="#000000">drake/common/drake</text>
<text text-anchor="middle" x="716.5" y="-63.5" font-family="Helvetica,sans-Serif" font-size="10.00" fill="#000000">_assert.h</text>
</a>
</g>
</g>
<!-- Node2&#45;&gt;Node14 -->
<g id="edge14" class="edge">
<title>Node2&#45;&gt;Node14</title>
<path fill="none" stroke="#191970" d="M534.1654,-198.5617C592.5243,-190.8278 673.8292,-176.382 696.5,-154 711.5795,-139.1127 716.0292,-114.9239 717.0328,-96.578"/>
<polygon fill="#191970" stroke="#191970" points="720.532,-96.6492 717.2797,-86.5659 713.5341,-96.4765 720.532,-96.6492"/>
</g>
<!-- Node15 -->
<g id="node16" class="node">
<title>Node15</title>
<g id="a_node16"><a xlink:href="drake__throw_8h.html" target="_top" xlink:title="Provides a convenient wrapper to throw an exception when a condition is unmet.">
<polygon fill="#ffffff" stroke="#000000" points="745,-123.5 745,-153.5 866,-153.5 866,-123.5 745,-123.5"/>
<text text-anchor="start" x="753" y="-141.5" font-family="Helvetica,sans-Serif" font-size="10.00" fill="#000000">drake/common/drake</text>
<text text-anchor="middle" x="805.5" y="-130.5" font-family="Helvetica,sans-Serif" font-size="10.00" fill="#000000">_throw.h</text>
</a>
</g>
</g>
<!-- Node2&#45;&gt;Node15 -->
<g id="edge16" class="edge">
<title>Node2&#45;&gt;Node15</title>
<path fill="none" stroke="#191970" d="M520.2121,-195.9274C572.2865,-185.6675 657.2619,-168.8491 730.5,-154 731.966,-153.7028 733.4479,-153.4017 734.9417,-153.0978"/>
<polygon fill="#191970" stroke="#191970" points="735.8281,-156.4891 744.9258,-151.0594 734.4278,-149.6306 735.8281,-156.4891"/>
</g>
<!-- Node14&#45;&gt;Node11 -->
<g id="edge15" class="edge">
<title>Node14&#45;&gt;Node11</title>
<path fill="none" stroke="#191970" d="M716.5,-56.2977C716.5,-48.3834 716.5,-38.6043 716.5,-30.0759"/>
<polygon fill="#191970" stroke="#191970" points="720.0001,-29.8469 716.5,-19.8469 713.0001,-29.847 720.0001,-29.8469"/>
</g>
<!-- Node15&#45;&gt;Node11 -->
<g id="edge17" class="edge">
<title>Node15&#45;&gt;Node11</title>
<path fill="none" stroke="#191970" d="M805.0863,-123.4633C803.9185,-105.8267 799.7748,-76.4104 785.5,-56 776.1141,-42.5798 761.4462,-32.0037 748.0433,-24.394"/>
<polygon fill="#191970" stroke="#191970" points="749.5184,-21.2141 739.047,-19.601 746.227,-27.392 749.5184,-21.2141"/>
</g>
<!-- Node15&#45;&gt;Node14 -->
<g id="edge18" class="edge">
<title>Node15&#45;&gt;Node14</title>
<path fill="none" stroke="#191970" d="M785.3045,-123.2967C773.3564,-114.302 758.0361,-102.7687 744.8862,-92.8694"/>
<polygon fill="#191970" stroke="#191970" points="746.7098,-89.8613 736.6156,-86.6432 742.4998,-95.4538 746.7098,-89.8613"/>
</g>
<!-- Node17 -->
<g id="node18" class="node">
<title>Node17</title>
<g id="a_node18"><a xlink:title=" ">
<polygon fill="#ffffff" stroke="#bfbfbf" points="884.5,-129 884.5,-148 934.5,-148 934.5,-129 884.5,-129"/>
<text text-anchor="middle" x="909.5" y="-136" font-family="Helvetica,sans-Serif" font-size="10.00" fill="#000000">GL/gl.h</text>
</a>
</g>
</g>
<!-- Node16&#45;&gt;Node17 -->
<g id="edge20" class="edge">
<title>Node16&#45;&gt;Node17</title>
<path fill="none" stroke="#191970" d="M909.5,-190.2967C909.5,-180.7699 909.5,-168.3954 909.5,-158.1306"/>
<polygon fill="#191970" stroke="#191970" points="913.0001,-158.0549 909.5,-148.055 906.0001,-158.055 913.0001,-158.0549"/>
</g>
<!-- Node18 -->
<g id="node19" class="node">
<title>Node18</title>
<g id="a_node19"><a xlink:title=" ">
<polygon fill="#ffffff" stroke="#bfbfbf" points="952.5,-129 952.5,-148 1018.5,-148 1018.5,-129 952.5,-129"/>
<text text-anchor="middle" x="985.5" y="-136" font-family="Helvetica,sans-Serif" font-size="10.00" fill="#000000">GL/glext.h</text>
</a>
</g>
</g>
<!-- Node16&#45;&gt;Node18 -->
<g id="edge21" class="edge">
<title>Node16&#45;&gt;Node18</title>
<path fill="none" stroke="#191970" d="M926.7456,-190.2967C938.7017,-179.7564 954.6119,-165.7303 966.8604,-154.9323"/>
<polygon fill="#191970" stroke="#191970" points="969.4748,-157.2934 974.6615,-148.055 964.8457,-152.0425 969.4748,-157.2934"/>
</g>
</g>
</svg>
        <g id="navigator" transform="translate(0 0)" fill="#404254">
                <rect fill="#f2f5e9" fill-opacity="0.5" stroke="#606060" stroke-width=".5" x="0" y="0" width="60" height="60"/>
                <use id="zoomplus" xlink:href="#zoomPlus" x="17" y="9" onmousedown="handleZoom(evt,'in')"/>
                <use id="zoomminus" xlink:href="#zoomMin" x="42" y="9" onmousedown="handleZoom(evt,'out')"/>
                <use id="reset" xlink:href="#resetDef" x="30" y="36" onmousedown="handleReset()"/>
                <g id="arrowUp" xlink:href="#dirArrow" transform="translate(30 24)" onmousedown="handlePan(0,-1)">
                  <use xlink:href="#rim" fill="#404040">
                        <set attributeName="fill" to="#808080" begin="arrowUp.mouseover" end="arrowUp.mouseout"/>
                  </use>
                  <path fill="none" stroke="white" stroke-width="1.5" d="M0,-3.0v7 M-2.5,-0.5L0,-3.0L2.5,-0.5"/>
                </g>
                <g id="arrowRight" xlink:href="#dirArrow" transform="rotate(90) translate(36 -43)" onmousedown="handlePan(1,0)">
                  <use xlink:href="#rim" fill="#404040">
                        <set attributeName="fill" to="#808080" begin="arrowRight.mouseover" end="arrowRight.mouseout"/>
                  </use>
                  <path fill="none" stroke="white" stroke-width="1.5" d="M0,-3.0v7 M-2.5,-0.5L0,-3.0L2.5,-0.5"/>
                </g>
                <g id="arrowDown" xlink:href="#dirArrow" transform="rotate(180) translate(-30 -48)" onmousedown="handlePan(0,1)">
                  <use xlink:href="#rim" fill="#404040">
                        <set attributeName="fill" to="#808080" begin="arrowDown.mouseover" end="arrowDown.mouseout"/>
                  </use>
                  <path fill="none" stroke="white" stroke-width="1.5" d="M0,-3.0v7 M-2.5,-0.5L0,-3.0L2.5,-0.5"/>
                </g>
                <g id="arrowLeft" xlink:href="#dirArrow" transform="rotate(270) translate(-36 17)" onmousedown="handlePan(-1,0)">
                  <use xlink:href="#rim" fill="#404040">
                        <set attributeName="fill" to="#808080" begin="arrowLeft.mouseover" end="arrowLeft.mouseout"/>
                  </use>
                  <path fill="none" stroke="white" stroke-width="1.5" d="M0,-3.0v7 M-2.5,-0.5L0,-3.0L2.5,-0.5"/>
                </g>
        </g>
        <svg viewBox="0 0 15 15" width="100%" height="30px" preserveAspectRatio="xMaxYMin meet">
         <g id="arrow_out" transform="scale(0.3 0.3)">
          <a xlink:href="buffer__dim_8h__incl_org.svg" target="_base">
           <rect id="button" ry="5" rx="5" y="6" x="6" height="38" width="38"
                fill="#f2f5e9" fill-opacity="0.5" stroke="#606060" stroke-width="1.0"/>
           <path id="arrow"
             d="M 11.500037,31.436501 C 11.940474,20.09759 22.043105,11.32322 32.158766,21.979434 L 37.068811,17.246167 C 37.068811,17.246167 37.088388,32 37.088388,32 L 22.160133,31.978069 C 22.160133,31.978069 26.997745,27.140456 26.997745,27.140456 C 18.528582,18.264221 13.291696,25.230495 11.500037,31.436501 z"
             style="fill:#404040;"/>
          </a>
         </g>
        </svg>
</svg>
