<?xml version="1.0" encoding="UTF-8" standalone="no"?>
<!DOCTYPE svg PUBLIC "-//W3C//DTD SVG 1.1//EN"
 "http://www.w3.org/Graphics/SVG/1.1/DTD/svg11.dtd">
<!-- Generated by graphviz version 2.40.1 (20161225.0304)
 -->
<!-- Title: drake/systems/sensors/camera_info.h Pages: 1 -->
<svg width="332pt" height="173pt"
 viewBox="0.00 0.00 331.50 173.00" xmlns="http://www.w3.org/2000/svg" xmlns:xlink="http://www.w3.org/1999/xlink">
<g id="graph0" class="graph" transform="scale(1 1) rotate(0) translate(4 169)">
<title>drake/systems/sensors/camera_info.h</title>
<polygon fill="#ffffff" stroke="transparent" points="-4,4 -4,-169 327.5,-169 327.5,4 -4,4"/>
<!-- Node3 -->
<g id="node1" class="node">
<title>Node3</title>
<g id="a_node1"><a xlink:title=" ">
<polygon fill="#bfbfbf" stroke="#000000" points="93,-134.5 93,-164.5 222,-164.5 222,-134.5 93,-134.5"/>
<text text-anchor="start" x="101" y="-152.5" font-family="Helvetica,sans-Serif" font-size="10.00" fill="#000000">drake/systems/sensors</text>
<text text-anchor="middle" x="157.5" y="-141.5" font-family="Helvetica,sans-Serif" font-size="10.00" fill="#000000">/camera_info.h</text>
</a>
</g>
</g>
<!-- Node4 -->
<g id="node2" class="node">
<title>Node4</title>
<g id="a_node2"><a xlink:href="render__camera_8h.html" target="_top" xlink:title=" ">
<polygon fill="#ffffff" stroke="#000000" points="0,-67.5 0,-97.5 129,-97.5 129,-67.5 0,-67.5"/>
<text text-anchor="start" x="8" y="-85.5" font-family="Helvetica,sans-Serif" font-size="10.00" fill="#000000">drake/geometry/render</text>
<text text-anchor="middle" x="64.5" y="-74.5" font-family="Helvetica,sans-Serif" font-size="10.00" fill="#000000">/render_camera.h</text>
</a>
</g>
</g>
<!-- Node3&#45;&gt;Node4 -->
<g id="edge1" class="edge">
<title>Node3&#45;&gt;Node4</title>
<path fill="none" stroke="#191970" d="M128.1382,-128.3469C114.3002,-118.3776 98.1078,-106.7121 85.5196,-97.6432"/>
<polygon fill="#191970" stroke="#191970" points="126.2373,-131.2911 136.3969,-134.2967 130.329,-125.6115 126.2373,-131.2911"/>
</g>
<!-- Node5 -->
<g id="node3" class="node">
<title>Node5</title>
<g id="a_node3"><a xlink:href="rgbd__sensor_8h.html" target="_top" xlink:title=" ">
<polygon fill="#ffffff" stroke="#000000" points="46,-.5 46,-30.5 175,-30.5 175,-.5 46,-.5"/>
<text text-anchor="start" x="54" y="-18.5" font-family="Helvetica,sans-Serif" font-size="10.00" fill="#000000">drake/systems/sensors</text>
<text text-anchor="middle" x="110.5" y="-7.5" font-family="Helvetica,sans-Serif" font-size="10.00" fill="#000000">/rgbd_sensor.h</text>
</a>
</g>
</g>
<!-- Node3&#45;&gt;Node5 -->
<g id="edge4" class="edge">
<title>Node3&#45;&gt;Node5</title>
<path fill="none" stroke="#191970" d="M153.5141,-124.1956C150.4549,-107.597 145.5485,-85.6033 138.5,-67 133.6683,-54.2475 126.2231,-40.7349 120.2243,-30.752"/>
<polygon fill="#191970" stroke="#191970" points="150.0984,-124.9827 155.2616,-134.2343 156.9947,-123.7822 150.0984,-124.9827"/>
</g>
<!-- Node6 -->
<g id="node4" class="node">
<title>Node6</title>
<g id="a_node4"><a xlink:href="depth__image__to__point__cloud_8h.html" target="_top" xlink:title=" ">
<polygon fill="#ffffff" stroke="#000000" points="185.5,-67.5 185.5,-97.5 323.5,-97.5 323.5,-67.5 185.5,-67.5"/>
<text text-anchor="start" x="193.5" y="-85.5" font-family="Helvetica,sans-Serif" font-size="10.00" fill="#000000">drake/perception/depth</text>
<text text-anchor="middle" x="254.5" y="-74.5" font-family="Helvetica,sans-Serif" font-size="10.00" fill="#000000">_image_to_point_cloud.h</text>
</a>
</g>
</g>
<!-- Node3&#45;&gt;Node6 -->
<g id="edge3" class="edge">
<title>Node3&#45;&gt;Node6</title>
<path fill="none" stroke="#191970" d="M188.1246,-128.3469C202.5578,-118.3776 219.4467,-106.7121 232.5763,-97.6432"/>
<polygon fill="#191970" stroke="#191970" points="185.7497,-125.7335 179.5108,-134.2967 189.728,-131.4932 185.7497,-125.7335"/>
</g>
<!-- Node4&#45;&gt;Node5 -->
<g id="edge2" class="edge">
<title>Node4&#45;&gt;Node5</title>
<path fill="none" stroke="#191970" d="M80.7898,-58.7735C87.2148,-49.4154 94.4054,-38.9421 100.1032,-30.6432"/>
<polygon fill="#191970" stroke="#191970" points="77.7128,-57.0716 74.9381,-67.2967 83.4836,-61.0337 77.7128,-57.0716"/>
</g>
</g>
</svg>
