<?xml version="1.0" encoding="UTF-8" standalone="no"?>
<!DOCTYPE svg PUBLIC "-//W3C//DTD SVG 1.1//EN"
 "http://www.w3.org/Graphics/SVG/1.1/DTD/svg11.dtd">
<!-- Generated by graphviz version 2.40.1 (20161225.0304)
 -->
<!-- Title: drake/systems/sensors/color_palette.h Pages: 1 -->
<!--zoomable 296 -->
<svg id="main" version="1.1" xmlns="http://www.w3.org/2000/svg" xmlns:xlink="http://www.w3.org/1999/xlink" xml:space="preserve" onload="init(evt)">
<style type="text/css"><![CDATA[
.edge:hover path { stroke: red; }
.edge:hover polygon { stroke: red; fill: red; }
]]></style>
<script type="text/javascript"><![CDATA[
var edges = document.getElementsByTagName('g');
if (edges && edges.length) {
  for (var i=0;i<edges.length;i++) {
    if (edges[i].id.substr(0,4)=='edge') {
      edges[i].setAttribute('class','edge');
    }
  }
}
]]></script>
        <defs>
                <circle id="rim" cx="0" cy="0" r="7"/>
                <circle id="rim2" cx="0" cy="0" r="3.5"/>
                <g id="zoomPlus">
                        <use xlink:href="#rim" fill="#404040">
                                <set attributeName="fill" to="#808080" begin="zoomplus.mouseover" end="zoomplus.mouseout"/>
                        </use>
                        <path d="M-4,0h8M0,-4v8" fill="none" stroke="white" stroke-width="1.5" pointer-events="none"/>
                </g>
                <g id="zoomMin">
                        <use xlink:href="#rim" fill="#404040">
                                <set attributeName="fill" to="#808080" begin="zoomminus.mouseover" end="zoomminus.mouseout"/>
                        </use>
                        <path d="M-4,0h8" fill="none" stroke="white" stroke-width="1.5" pointer-events="none"/>
                </g>
                <g id="dirArrow">
                        <path fill="none" stroke="white" stroke-width="1.5" d="M0,-3.0v7 M-2.5,-0.5L0,-3.0L2.5,-0.5"/>
                </g>
               <g id="resetDef">
                       <use xlink:href="#rim2" fill="#404040">
                               <set attributeName="fill" to="#808080" begin="reset.mouseover" end="reset.mouseout"/>
                       </use>
               </g>
        </defs>

<script type="text/javascript">
var viewWidth = 986;
var viewHeight = 296;
var sectionId = 'dynsection-0';
</script>
<script xlink:href="svgpan.js"/>
<svg id="graph" class="graph">
<g id="viewport">
<title>drake/systems/sensors/color_palette.h</title>
<polygon fill="#ffffff" stroke="transparent" points="-4,4 -4,-292 981.7099,-292 981.7099,4 -4,4"/>
<!-- Node0 -->
<g id="node1" class="node">
<title>Node0</title>
<g id="a_node1"><a xlink:title=" ">
<polygon fill="#bfbfbf" stroke="#000000" points="147.2099,-257.5 147.2099,-287.5 276.2099,-287.5 276.2099,-257.5 147.2099,-257.5"/>
<text text-anchor="start" x="155.2099" y="-275.5" font-family="Helvetica,sans-Serif" font-size="10.00" fill="#000000">drake/systems/sensors</text>
<text text-anchor="middle" x="211.7099" y="-264.5" font-family="Helvetica,sans-Serif" font-size="10.00" fill="#000000">/color_palette.h</text>
</a>
</g>
</g>
<!-- Node1 -->
<g id="node2" class="node">
<title>Node1</title>
<g id="a_node2"><a xlink:title=" ">
<polygon fill="#ffffff" stroke="#bfbfbf" points="111.2099,-129 111.2099,-148 176.2099,-148 176.2099,-129 111.2099,-129"/>
<text text-anchor="middle" x="143.7099" y="-136" font-family="Helvetica,sans-Serif" font-size="10.00" fill="#000000">functional</text>
</a>
</g>
</g>
<!-- Node0&#45;&gt;Node1 -->
<g id="edge1" class="edge">
<title>Node0&#45;&gt;Node1</title>
<path fill="none" stroke="#191970" d="M210.6329,-257.3575C208.8792,-240.1389 204.336,-211.6173 192.7099,-190 185.5143,-176.6208 173.9096,-164.201 163.7995,-154.9114"/>
<polygon fill="#191970" stroke="#191970" points="165.9487,-152.1408 156.1246,-148.1738 161.3306,-157.4014 165.9487,-152.1408"/>
</g>
<!-- Node2 -->
<g id="node3" class="node">
<title>Node2</title>
<g id="a_node3"><a xlink:title=" ">
<polygon fill="#ffffff" stroke="#bfbfbf" points="15.2099,-196 15.2099,-215 72.2099,-215 72.2099,-196 15.2099,-196"/>
<text text-anchor="middle" x="43.7099" y="-203" font-family="Helvetica,sans-Serif" font-size="10.00" fill="#000000">ostream</text>
</a>
</g>
</g>
<!-- Node0&#45;&gt;Node2 -->
<g id="edge2" class="edge">
<title>Node0&#45;&gt;Node2</title>
<path fill="none" stroke="#191970" d="M173.273,-257.3909C147.3731,-247.1809 112.4551,-233.36 81.7099,-221 80.0737,-220.3422 78.3987,-219.6668 76.7077,-218.9832"/>
<polygon fill="#191970" stroke="#191970" points="77.5886,-215.5635 67.0064,-215.0459 74.9562,-222.0497 77.5886,-215.5635"/>
</g>
<!-- Node3 -->
<g id="node4" class="node">
<title>Node3</title>
<g id="a_node4"><a xlink:title=" ">
<polygon fill="#ffffff" stroke="#bfbfbf" points="90.2099,-196 90.2099,-215 183.2099,-215 183.2099,-196 90.2099,-196"/>
<text text-anchor="middle" x="136.7099" y="-203" font-family="Helvetica,sans-Serif" font-size="10.00" fill="#000000">unordered_map</text>
</a>
</g>
</g>
<!-- Node0&#45;&gt;Node3 -->
<g id="edge3" class="edge">
<title>Node0&#45;&gt;Node3</title>
<path fill="none" stroke="#191970" d="M194.6912,-257.2967C182.8924,-246.7564 167.1915,-232.7303 155.1042,-221.9323"/>
<polygon fill="#191970" stroke="#191970" points="157.1951,-219.107 147.4057,-215.055 152.5316,-224.3273 157.1951,-219.107"/>
</g>
<!-- Node4 -->
<g id="node5" class="node">
<title>Node4</title>
<g id="a_node5"><a xlink:title=" ">
<polygon fill="#ffffff" stroke="#bfbfbf" points="194.2099,-129 194.2099,-148 241.2099,-148 241.2099,-129 194.2099,-129"/>
<text text-anchor="middle" x="217.7099" y="-136" font-family="Helvetica,sans-Serif" font-size="10.00" fill="#000000">vector</text>
</a>
</g>
</g>
<!-- Node0&#45;&gt;Node4 -->
<g id="edge4" class="edge">
<title>Node0&#45;&gt;Node4</title>
<path fill="none" stroke="#191970" d="M216.9553,-257.3942C220.1955,-247.2442 224.0424,-233.4902 225.7099,-221 228.5566,-199.676 225.3501,-175.1221 222.1896,-158.3831"/>
<polygon fill="#191970" stroke="#191970" points="225.5327,-157.265 220.0838,-148.1788 218.6771,-158.6798 225.5327,-157.265"/>
</g>
<!-- Node5 -->
<g id="node6" class="node">
<title>Node5</title>
<g id="a_node6"><a xlink:href="drake__assert_8h.html" target="_top" xlink:title="Provides Drake&#39;s assertion implementation.">
<polygon fill="#ffffff" stroke="#000000" points="272.2099,-56.5 272.2099,-86.5 393.2099,-86.5 393.2099,-56.5 272.2099,-56.5"/>
<text text-anchor="start" x="280.2099" y="-74.5" font-family="Helvetica,sans-Serif" font-size="10.00" fill="#000000">drake/common/drake</text>
<text text-anchor="middle" x="332.7099" y="-63.5" font-family="Helvetica,sans-Serif" font-size="10.00" fill="#000000">_assert.h</text>
</a>
</g>
</g>
<!-- Node0&#45;&gt;Node5 -->
<g id="edge5" class="edge">
<title>Node0&#45;&gt;Node5</title>
<path fill="none" stroke="#191970" d="M147.1934,-265.0308C93.4869,-257.3283 23.0937,-243.2648 5.7099,-221 -2.7692,-210.1403 -.6911,-202.2006 5.7099,-190 30.0518,-143.6022 54.7066,-143.9994 102.7099,-123 153.7023,-100.6929 215.4383,-87.5516 262.1056,-80.1336"/>
<polygon fill="#191970" stroke="#191970" points="262.7734,-83.5721 272.1246,-78.5918 261.7086,-76.6536 262.7734,-83.5721"/>
</g>
<!-- Node7 -->
<g id="node8" class="node">
<title>Node7</title>
<g id="a_node8"><a xlink:href="drake__copyable_8h.html" target="_top" xlink:title="Provides careful macros to selectively enable or disable the special member functions for copy&#45;constr...">
<polygon fill="#ffffff" stroke="#000000" points="278.2099,-190.5 278.2099,-220.5 399.2099,-220.5 399.2099,-190.5 278.2099,-190.5"/>
<text text-anchor="start" x="286.2099" y="-208.5" font-family="Helvetica,sans-Serif" font-size="10.00" fill="#000000">drake/common/drake</text>
<text text-anchor="middle" x="338.7099" y="-197.5" font-family="Helvetica,sans-Serif" font-size="10.00" fill="#000000">_copyable.h</text>
</a>
</g>
</g>
<!-- Node0&#45;&gt;Node7 -->
<g id="edge7" class="edge">
<title>Node0&#45;&gt;Node7</title>
<path fill="none" stroke="#191970" d="M240.2111,-257.4639C258.1412,-248.0047 281.4852,-235.6894 300.9468,-225.4222"/>
<polygon fill="#191970" stroke="#191970" points="302.6528,-228.4795 309.8643,-220.7177 299.3865,-222.2882 302.6528,-228.4795"/>
</g>
<!-- Node8 -->
<g id="node9" class="node">
<title>Node8</title>
<g id="a_node9"><a xlink:href="hash_8h.html" target="_top" xlink:title=" ">
<polygon fill="#ffffff" stroke="#000000" points="474.2099,-196 474.2099,-215 599.2099,-215 599.2099,-196 474.2099,-196"/>
<text text-anchor="middle" x="536.7099" y="-203" font-family="Helvetica,sans-Serif" font-size="10.00" fill="#000000">drake/common/hash.h</text>
</a>
</g>
</g>
<!-- Node0&#45;&gt;Node8 -->
<g id="edge8" class="edge">
<title>Node0&#45;&gt;Node8</title>
<path fill="none" stroke="#191970" d="M276.308,-259.1828C336.032,-246.8705 423.8854,-228.7592 480.7029,-217.046"/>
<polygon fill="#191970" stroke="#191970" points="481.5013,-220.4551 490.5887,-215.0081 480.0879,-213.5993 481.5013,-220.4551"/>
</g>
<!-- Node6 -->
<g id="node7" class="node">
<title>Node6</title>
<g id="a_node7"><a xlink:title=" ">
<polygon fill="#ffffff" stroke="#bfbfbf" points="387.2099,-.5 387.2099,-19.5 456.2099,-19.5 456.2099,-.5 387.2099,-.5"/>
<text text-anchor="middle" x="421.7099" y="-7.5" font-family="Helvetica,sans-Serif" font-size="10.00" fill="#000000">type_traits</text>
</a>
</g>
</g>
<!-- Node5&#45;&gt;Node6 -->
<g id="edge6" class="edge">
<title>Node5&#45;&gt;Node6</title>
<path fill="none" stroke="#191970" d="M354.7099,-56.2977C368.3066,-46.9022 385.7065,-34.8787 399.3666,-25.4395"/>
<polygon fill="#191970" stroke="#191970" points="401.4884,-28.2276 407.7256,-19.6633 397.5089,-22.4688 401.4884,-28.2276"/>
</g>
<!-- Node8&#45;&gt;Node1 -->
<g id="edge11" class="edge">
<title>Node8&#45;&gt;Node1</title>
<path fill="none" stroke="#191970" d="M473.9659,-197.8867C388.1904,-187.2047 238.9007,-167.5599 185.7099,-154 182.7184,-153.2374 179.6442,-152.3383 176.585,-151.3635"/>
<polygon fill="#191970" stroke="#191970" points="177.5783,-148.004 166.9836,-148.0659 175.3044,-154.6244 177.5783,-148.004"/>
</g>
<!-- Node8&#45;&gt;Node4 -->
<g id="edge19" class="edge">
<title>Node8&#45;&gt;Node4</title>
<path fill="none" stroke="#191970" d="M474.2088,-199.0083C415.4947,-191.8014 325.6951,-177.9072 250.7099,-154 248.8554,-153.4088 246.9704,-152.7359 245.0888,-152.0096"/>
<polygon fill="#191970" stroke="#191970" points="246.4385,-148.7802 235.868,-148.0628 243.684,-155.2155 246.4385,-148.7802"/>
</g>
<!-- Node8&#45;&gt;Node5 -->
<g id="edge20" class="edge">
<title>Node8&#45;&gt;Node5</title>
<path fill="none" stroke="#191970" d="M479.4166,-195.9756C432.2107,-186.9888 370.2788,-172.1962 352.7099,-154 338.1451,-138.9153 333.5921,-115.1152 332.4211,-96.9466"/>
<polygon fill="#191970" stroke="#191970" points="335.9121,-96.6235 332.0708,-86.7496 328.9163,-96.8639 335.9121,-96.6235"/>
</g>
<!-- Node8&#45;&gt;Node6 -->
<g id="edge17" class="edge">
<title>Node8&#45;&gt;Node6</title>
<path fill="none" stroke="#191970" d="M531.6161,-195.7505C523.4494,-180.2148 506.8075,-148.9469 491.7099,-123 471.9953,-89.1185 447.6242,-50.4492 433.4558,-28.2627"/>
<polygon fill="#191970" stroke="#191970" points="436.2254,-26.0976 427.8842,-19.5649 430.331,-29.8734 436.2254,-26.0976"/>
</g>
<!-- Node9 -->
<g id="node10" class="node">
<title>Node9</title>
<g id="a_node10"><a xlink:title=" ">
<polygon fill="#ffffff" stroke="#bfbfbf" points="539.2099,-129 539.2099,-148 586.2099,-148 586.2099,-129 539.2099,-129"/>
<text text-anchor="middle" x="562.7099" y="-136" font-family="Helvetica,sans-Serif" font-size="10.00" fill="#000000">cmath</text>
</a>
</g>
</g>
<!-- Node8&#45;&gt;Node9 -->
<g id="edge9" class="edge">
<title>Node8&#45;&gt;Node9</title>
<path fill="none" stroke="#191970" d="M540.435,-195.9005C544.2964,-185.95 550.4358,-170.1292 555.2922,-157.6147"/>
<polygon fill="#191970" stroke="#191970" points="558.6367,-158.6706 558.9916,-148.0817 552.1109,-156.1381 558.6367,-158.6706"/>
</g>
<!-- Node10 -->
<g id="node11" class="node">
<title>Node10</title>
<g id="a_node11"><a xlink:title=" ">
<polygon fill="#ffffff" stroke="#bfbfbf" points="604.2099,-129 604.2099,-148 657.2099,-148 657.2099,-129 604.2099,-129"/>
<text text-anchor="middle" x="630.7099" y="-136" font-family="Helvetica,sans-Serif" font-size="10.00" fill="#000000">cstddef</text>
</a>
</g>
</g>
<!-- Node8&#45;&gt;Node10 -->
<g id="edge10" class="edge">
<title>Node8&#45;&gt;Node10</title>
<path fill="none" stroke="#191970" d="M550.1778,-195.9005C565.5343,-184.9549 590.8561,-166.9064 609.0074,-153.9688"/>
<polygon fill="#191970" stroke="#191970" points="611.1552,-156.736 617.2669,-148.0817 607.0922,-151.0358 611.1552,-156.736"/>
</g>
<!-- Node11 -->
<g id="node12" class="node">
<title>Node11</title>
<g id="a_node12"><a xlink:title=" ">
<polygon fill="#ffffff" stroke="#bfbfbf" points="675.7099,-129 675.7099,-148 735.7099,-148 735.7099,-129 675.7099,-129"/>
<text text-anchor="middle" x="705.7099" y="-136" font-family="Helvetica,sans-Serif" font-size="10.00" fill="#000000">iostream</text>
</a>
</g>
</g>
<!-- Node8&#45;&gt;Node11 -->
<g id="edge12" class="edge">
<title>Node8&#45;&gt;Node11</title>
<path fill="none" stroke="#191970" d="M561.1522,-195.8264C587.2834,-185.4822 629.9297,-168.5942 666.7099,-154 668.5384,-153.2745 670.415,-152.5295 672.3093,-151.7774"/>
<polygon fill="#191970" stroke="#191970" points="673.7848,-154.9574 681.7864,-148.0129 671.2007,-148.4518 673.7848,-154.9574"/>
</g>
<!-- Node12 -->
<g id="node13" class="node">
<title>Node12</title>
<g id="a_node13"><a xlink:title=" ">
<polygon fill="#ffffff" stroke="#bfbfbf" points="753.7099,-129 753.7099,-148 791.7099,-148 791.7099,-129 753.7099,-129"/>
<text text-anchor="middle" x="772.7099" y="-136" font-family="Helvetica,sans-Serif" font-size="10.00" fill="#000000">map</text>
</a>
</g>
</g>
<!-- Node8&#45;&gt;Node12 -->
<g id="edge13" class="edge">
<title>Node8&#45;&gt;Node12</title>
<path fill="none" stroke="#191970" d="M591.7937,-195.9691C634.4382,-187.6184 694.4994,-173.7148 744.7099,-154 745.7442,-153.5939 746.7879,-153.1566 747.833,-152.6955"/>
<polygon fill="#191970" stroke="#191970" points="749.6754,-155.6882 757.0708,-148.1015 746.5584,-149.4205 749.6754,-155.6882"/>
</g>
<!-- Node13 -->
<g id="node14" class="node">
<title>Node13</title>
<g id="a_node14"><a xlink:title=" ">
<polygon fill="#ffffff" stroke="#bfbfbf" points="809.7099,-129 809.7099,-148 865.7099,-148 865.7099,-129 809.7099,-129"/>
<text text-anchor="middle" x="837.7099" y="-136" font-family="Helvetica,sans-Serif" font-size="10.00" fill="#000000">optional</text>
</a>
</g>
</g>
<!-- Node8&#45;&gt;Node13 -->
<g id="edge14" class="edge">
<title>Node8&#45;&gt;Node13</title>
<path fill="none" stroke="#191970" d="M599.4619,-196.9514C653.5109,-188.7172 733.2365,-174.4795 800.7099,-154 802.8757,-153.3426 805.088,-152.6023 807.3,-151.8108"/>
<polygon fill="#191970" stroke="#191970" points="808.7909,-154.9867 816.8512,-148.1105 806.2621,-148.4595 808.7909,-154.9867"/>
</g>
<!-- Node14 -->
<g id="node15" class="node">
<title>Node14</title>
<g id="a_node15"><a xlink:title=" ">
<polygon fill="#ffffff" stroke="#bfbfbf" points="883.7099,-129 883.7099,-148 915.7099,-148 915.7099,-129 883.7099,-129"/>
<text text-anchor="middle" x="899.7099" y="-136" font-family="Helvetica,sans-Serif" font-size="10.00" fill="#000000">set</text>
</a>
</g>
</g>
<!-- Node8&#45;&gt;Node14 -->
<g id="edge15" class="edge">
<title>Node8&#45;&gt;Node14</title>
<path fill="none" stroke="#191970" d="M599.3254,-199.0037C682.7098,-189.8309 825.4191,-172.1659 874.7099,-154 875.5903,-153.6755 876.4732,-153.3177 877.3536,-152.9331"/>
<polygon fill="#191970" stroke="#191970" points="879.2873,-155.8688 886.4693,-148.0798 875.9976,-149.69 879.2873,-155.8688"/>
</g>
<!-- Node15 -->
<g id="node16" class="node">
<title>Node15</title>
<g id="a_node16"><a xlink:title=" ">
<polygon fill="#ffffff" stroke="#bfbfbf" points="933.7099,-129 933.7099,-148 977.7099,-148 977.7099,-129 933.7099,-129"/>
<text text-anchor="middle" x="955.7099" y="-136" font-family="Helvetica,sans-Serif" font-size="10.00" fill="#000000">string</text>
</a>
</g>
</g>
<!-- Node8&#45;&gt;Node15 -->
<g id="edge16" class="edge">
<title>Node8&#45;&gt;Node15</title>
<path fill="none" stroke="#191970" d="M599.5491,-203.5309C677.4279,-199.6532 813.4644,-188.1448 924.7099,-154 926.3708,-153.4902 928.0515,-152.8982 929.7263,-152.249"/>
<polygon fill="#191970" stroke="#191970" points="931.3682,-155.3492 939.0761,-148.0802 928.5175,-148.9559 931.3682,-155.3492"/>
</g>
<!-- Node16 -->
<g id="node17" class="node">
<title>Node16</title>
<g id="a_node17"><a xlink:title=" ">
<polygon fill="#ffffff" stroke="#bfbfbf" points="259.2099,-129 259.2099,-148 304.2099,-148 304.2099,-129 259.2099,-129"/>
<text text-anchor="middle" x="281.7099" y="-136" font-family="Helvetica,sans-Serif" font-size="10.00" fill="#000000">utility</text>
</a>
</g>
</g>
<!-- Node8&#45;&gt;Node16 -->
<g id="edge18" class="edge">
<title>Node8&#45;&gt;Node16</title>
<path fill="none" stroke="#191970" d="M485.8397,-195.9565C441.2378,-187.0058 374.9246,-172.2769 318.7099,-154 316.6111,-153.3176 314.4651,-152.5667 312.3155,-151.7747"/>
<polygon fill="#191970" stroke="#191970" points="313.5931,-148.5162 303.0055,-148.1239 311.0376,-155.0331 313.5931,-148.5162"/>
</g>
<!-- Node17 -->
<g id="node18" class="node">
<title>Node17</title>
<g id="a_node18"><a xlink:href="drake__throw_8h.html" target="_top" xlink:title="Provides a convenient wrapper to throw an exception when a condition is unmet.">
<polygon fill="#ffffff" stroke="#000000" points="361.2099,-123.5 361.2099,-153.5 482.2099,-153.5 482.2099,-123.5 361.2099,-123.5"/>
<text text-anchor="start" x="369.2099" y="-141.5" font-family="Helvetica,sans-Serif" font-size="10.00" fill="#000000">drake/common/drake</text>
<text text-anchor="middle" x="421.7099" y="-130.5" font-family="Helvetica,sans-Serif" font-size="10.00" fill="#000000">_throw.h</text>
</a>
</g>
</g>
<!-- Node8&#45;&gt;Node17 -->
<g id="edge21" class="edge">
<title>Node8&#45;&gt;Node17</title>
<path fill="none" stroke="#191970" d="M520.2332,-195.9005C503.6041,-186.2123 477.4236,-170.9593 456.2292,-158.6113"/>
<polygon fill="#191970" stroke="#191970" points="457.8959,-155.5317 447.4935,-153.5218 454.3721,-161.58 457.8959,-155.5317"/>
</g>
<!-- Node17&#45;&gt;Node5 -->
<g id="edge23" class="edge">
<title>Node17&#45;&gt;Node5</title>
<path fill="none" stroke="#191970" d="M401.5144,-123.2967C389.5662,-114.302 374.2459,-102.7687 361.0961,-92.8694"/>
<polygon fill="#191970" stroke="#191970" points="362.9197,-89.8613 352.8254,-86.6432 358.7096,-95.4538 362.9197,-89.8613"/>
</g>
<!-- Node17&#45;&gt;Node6 -->
<g id="edge22" class="edge">
<title>Node17&#45;&gt;Node6</title>
<path fill="none" stroke="#191970" d="M421.7099,-123.2548C421.7099,-99.9744 421.7099,-55.5607 421.7099,-29.8117"/>
<polygon fill="#191970" stroke="#191970" points="425.21,-29.7358 421.7099,-19.7358 418.21,-29.7358 425.21,-29.7358"/>
</g>
</g>
</svg>
        <g id="navigator" transform="translate(0 0)" fill="#404254">
                <rect fill="#f2f5e9" fill-opacity="0.5" stroke="#606060" stroke-width=".5" x="0" y="0" width="60" height="60"/>
                <use id="zoomplus" xlink:href="#zoomPlus" x="17" y="9" onmousedown="handleZoom(evt,'in')"/>
                <use id="zoomminus" xlink:href="#zoomMin" x="42" y="9" onmousedown="handleZoom(evt,'out')"/>
                <use id="reset" xlink:href="#resetDef" x="30" y="36" onmousedown="handleReset()"/>
                <g id="arrowUp" xlink:href="#dirArrow" transform="translate(30 24)" onmousedown="handlePan(0,-1)">
                  <use xlink:href="#rim" fill="#404040">
                        <set attributeName="fill" to="#808080" begin="arrowUp.mouseover" end="arrowUp.mouseout"/>
                  </use>
                  <path fill="none" stroke="white" stroke-width="1.5" d="M0,-3.0v7 M-2.5,-0.5L0,-3.0L2.5,-0.5"/>
                </g>
                <g id="arrowRight" xlink:href="#dirArrow" transform="rotate(90) translate(36 -43)" onmousedown="handlePan(1,0)">
                  <use xlink:href="#rim" fill="#404040">
                        <set attributeName="fill" to="#808080" begin="arrowRight.mouseover" end="arrowRight.mouseout"/>
                  </use>
                  <path fill="none" stroke="white" stroke-width="1.5" d="M0,-3.0v7 M-2.5,-0.5L0,-3.0L2.5,-0.5"/>
                </g>
                <g id="arrowDown" xlink:href="#dirArrow" transform="rotate(180) translate(-30 -48)" onmousedown="handlePan(0,1)">
                  <use xlink:href="#rim" fill="#404040">
                        <set attributeName="fill" to="#808080" begin="arrowDown.mouseover" end="arrowDown.mouseout"/>
                  </use>
                  <path fill="none" stroke="white" stroke-width="1.5" d="M0,-3.0v7 M-2.5,-0.5L0,-3.0L2.5,-0.5"/>
                </g>
                <g id="arrowLeft" xlink:href="#dirArrow" transform="rotate(270) translate(-36 17)" onmousedown="handlePan(-1,0)">
                  <use xlink:href="#rim" fill="#404040">
                        <set attributeName="fill" to="#808080" begin="arrowLeft.mouseover" end="arrowLeft.mouseout"/>
                  </use>
                  <path fill="none" stroke="white" stroke-width="1.5" d="M0,-3.0v7 M-2.5,-0.5L0,-3.0L2.5,-0.5"/>
                </g>
        </g>
        <svg viewBox="0 0 15 15" width="100%" height="30px" preserveAspectRatio="xMaxYMin meet">
         <g id="arrow_out" transform="scale(0.3 0.3)">
          <a xlink:href="color__palette_8h__incl_org.svg" target="_base">
           <rect id="button" ry="5" rx="5" y="6" x="6" height="38" width="38"
                fill="#f2f5e9" fill-opacity="0.5" stroke="#606060" stroke-width="1.0"/>
           <path id="arrow"
             d="M 11.500037,31.436501 C 11.940474,20.09759 22.043105,11.32322 32.158766,21.979434 L 37.068811,17.246167 C 37.068811,17.246167 37.088388,32 37.088388,32 L 22.160133,31.978069 C 22.160133,31.978069 26.997745,27.140456 26.997745,27.140456 C 18.528582,18.264221 13.291696,25.230495 11.500037,31.436501 z"
             style="fill:#404040;"/>
          </a>
         </g>
        </svg>
</svg>
