<?xml version="1.0" encoding="UTF-8" standalone="no"?>
<!DOCTYPE svg PUBLIC "-//W3C//DTD SVG 1.1//EN"
 "http://www.w3.org/Graphics/SVG/1.1/DTD/svg11.dtd">
<!-- Generated by graphviz version 2.40.1 (20161225.0304)
 -->
<!-- Title: drake/common/autodiff.h Pages: 1 -->
<svg width="1080pt" height="296pt"
 viewBox="0.00 0.00 1080.15 296.00" xmlns="http://www.w3.org/2000/svg" xmlns:xlink="http://www.w3.org/1999/xlink">
<g id="graph0" class="graph" transform="scale(1 1) rotate(0) translate(4 292)">
<title>drake/common/autodiff.h</title>
<polygon fill="#ffffff" stroke="transparent" points="-4,4 -4,-292 1076.1478,-292 1076.1478,4 -4,4"/>
<!-- Node0 -->
<g id="node1" class="node">
<title>Node0</title>
<g id="a_node1"><a xlink:title=" ">
<polygon fill="#bfbfbf" stroke="#000000" points="353.6478,-268.5 353.6478,-287.5 493.6478,-287.5 493.6478,-268.5 353.6478,-268.5"/>
<text text-anchor="middle" x="423.6478" y="-275.5" font-family="Helvetica,sans-Serif" font-size="10.00" fill="#000000">drake/common/autodiff.h</text>
</a>
</g>
</g>
<!-- Node1 -->
<g id="node2" class="node">
<title>Node1</title>
<g id="a_node2"><a xlink:title=" ">
<polygon fill="#ffffff" stroke="#bfbfbf" points="107.1478,-207 107.1478,-226 176.1478,-226 176.1478,-207 107.1478,-207"/>
<text text-anchor="middle" x="141.6478" y="-214" font-family="Helvetica,sans-Serif" font-size="10.00" fill="#000000">Eigen/Core</text>
</a>
</g>
</g>
<!-- Node0&#45;&gt;Node1 -->
<g id="edge1" class="edge">
<title>Node0&#45;&gt;Node1</title>
<path fill="none" stroke="#191970" d="M359.6227,-268.4616C311.1342,-260.5687 243.1177,-248.0597 184.6478,-232 181.6826,-231.1856 178.6299,-230.2626 175.584,-229.2825"/>
<polygon fill="#191970" stroke="#191970" points="176.5887,-225.9274 165.9943,-226.0208 174.3347,-232.5545 176.5887,-225.9274"/>
</g>
<!-- Node2 -->
<g id="node3" class="node">
<title>Node2</title>
<g id="a_node3"><a xlink:title=" ">
<polygon fill="#ffffff" stroke="#bfbfbf" points="194.1478,-207 194.1478,-226 345.1478,-226 345.1478,-207 194.1478,-207"/>
<text text-anchor="middle" x="269.6478" y="-214" font-family="Helvetica,sans-Serif" font-size="10.00" fill="#000000">unsupported/Eigen/AutoDiff</text>
</a>
</g>
</g>
<!-- Node0&#45;&gt;Node2 -->
<g id="edge2" class="edge">
<title>Node0&#45;&gt;Node2</title>
<path fill="none" stroke="#191970" d="M399.5853,-268.3906C373.5922,-258.0103 332,-241.4004 302.8931,-229.7766"/>
<polygon fill="#191970" stroke="#191970" points="304.1262,-226.5003 293.5413,-226.0419 301.5301,-233.0011 304.1262,-226.5003"/>
</g>
<!-- Node3 -->
<g id="node4" class="node">
<title>Node3</title>
<g id="a_node4"><a xlink:href="eigen__autodiff__types_8h.html" target="_top" xlink:title="This file contains abbreviated definitions for certain uses of AutoDiffScalar that are commonly used ...">
<polygon fill="#ffffff" stroke="#000000" points="363.6478,-201.5 363.6478,-231.5 483.6478,-231.5 483.6478,-201.5 363.6478,-201.5"/>
<text text-anchor="start" x="371.6478" y="-219.5" font-family="Helvetica,sans-Serif" font-size="10.00" fill="#000000">drake/common/eigen</text>
<text text-anchor="middle" x="423.6478" y="-208.5" font-family="Helvetica,sans-Serif" font-size="10.00" fill="#000000">_autodiff_types.h</text>
</a>
</g>
</g>
<!-- Node0&#45;&gt;Node3 -->
<g id="edge3" class="edge">
<title>Node0&#45;&gt;Node3</title>
<path fill="none" stroke="#191970" d="M423.6478,-268.3906C423.6478,-261.2234 423.6478,-251.0862 423.6478,-241.671"/>
<polygon fill="#191970" stroke="#191970" points="427.1479,-241.5446 423.6478,-231.5446 420.1479,-241.5446 427.1479,-241.5446"/>
</g>
<!-- Node11 -->
<g id="node12" class="node">
<title>Node11</title>
<g id="a_node12"><a xlink:href="autodiffxd_8h.html" target="_top" xlink:title=" ">
<polygon fill="#ffffff" stroke="#000000" points="466.6478,-140 466.6478,-159 618.6478,-159 618.6478,-140 466.6478,-140"/>
<text text-anchor="middle" x="542.6478" y="-147" font-family="Helvetica,sans-Serif" font-size="10.00" fill="#000000">drake/common/autodiffxd.h</text>
</a>
</g>
</g>
<!-- Node0&#45;&gt;Node11 -->
<g id="edge13" class="edge">
<title>Node0&#45;&gt;Node11</title>
<path fill="none" stroke="#191970" d="M442.5609,-268.3962C457.4307,-260.183 478.0089,-247.2844 492.6478,-232 510.9386,-212.9026 525.687,-185.9798 534.3049,-168.1489"/>
<polygon fill="#191970" stroke="#191970" points="537.4905,-169.5991 538.5484,-159.0572 531.1473,-166.6385 537.4905,-169.5991"/>
</g>
<!-- Node14 -->
<g id="node15" class="node">
<title>Node14</title>
<g id="a_node15"><a xlink:href="autodiff__overloads_8h.html" target="_top" xlink:title="Overloads for STL mathematical operations on AutoDiffScalar.">
<polygon fill="#ffffff" stroke="#000000" points="704.1478,-134.5 704.1478,-164.5 835.1478,-164.5 835.1478,-134.5 704.1478,-134.5"/>
<text text-anchor="start" x="712.1478" y="-152.5" font-family="Helvetica,sans-Serif" font-size="10.00" fill="#000000">drake/common/autodiff</text>
<text text-anchor="middle" x="769.6478" y="-141.5" font-family="Helvetica,sans-Serif" font-size="10.00" fill="#000000">_overloads.h</text>
</a>
</g>
</g>
<!-- Node0&#45;&gt;Node14 -->
<g id="edge17" class="edge">
<title>Node0&#45;&gt;Node14</title>
<path fill="none" stroke="#191970" d="M449.3713,-268.4466C506.4773,-247.2382 644.6833,-195.9102 719.513,-168.1194"/>
<polygon fill="#191970" stroke="#191970" points="721.0399,-171.286 729.1957,-164.5234 718.6028,-164.7239 721.0399,-171.286"/>
</g>
<!-- Node4 -->
<g id="node5" class="node">
<title>Node4</title>
<g id="a_node5"><a xlink:title=" ">
<polygon fill="#ffffff" stroke="#bfbfbf" points="506.1478,-6 506.1478,-25 575.1478,-25 575.1478,-6 506.1478,-6"/>
<text text-anchor="middle" x="540.6478" y="-13" font-family="Helvetica,sans-Serif" font-size="10.00" fill="#000000">type_traits</text>
</a>
</g>
</g>
<!-- Node3&#45;&gt;Node4 -->
<g id="edge4" class="edge">
<title>Node3&#45;&gt;Node4</title>
<path fill="none" stroke="#191970" d="M363.6179,-201.4672C250.8489,-172.9501 17.6347,-112.5441 6.6478,-98 -1.657,-87.0064 -2.6152,-77.1993 6.6478,-67 39.3137,-31.0321 373.5191,-19.483 495.9847,-16.4419"/>
<polygon fill="#191970" stroke="#191970" points="496.2277,-19.9371 506.1405,-16.1972 496.059,-12.9392 496.2277,-19.9371"/>
</g>
<!-- Node5 -->
<g id="node6" class="node">
<title>Node5</title>
<g id="a_node6"><a xlink:title=" ">
<polygon fill="#ffffff" stroke="#bfbfbf" points="385.1478,-73 385.1478,-92 462.1478,-92 462.1478,-73 385.1478,-73"/>
<text text-anchor="middle" x="423.6478" y="-80" font-family="Helvetica,sans-Serif" font-size="10.00" fill="#000000">Eigen/Dense</text>
</a>
</g>
</g>
<!-- Node3&#45;&gt;Node5 -->
<g id="edge5" class="edge">
<title>Node3&#45;&gt;Node5</title>
<path fill="none" stroke="#191970" d="M423.6478,-201.389C423.6478,-177.0735 423.6478,-129.2644 423.6478,-102.2698"/>
<polygon fill="#191970" stroke="#191970" points="427.1479,-102.1041 423.6478,-92.1042 420.1479,-102.1042 427.1479,-102.1041"/>
</g>
<!-- Node6 -->
<g id="node7" class="node">
<title>Node6</title>
<g id="a_node7"><a xlink:href="eigen__types_8h.html" target="_top" xlink:title="This file contains abbreviated definitions for certain specializations of Eigen::Matrix that are comm...">
<polygon fill="#ffffff" stroke="#000000" points="260.6478,-134.5 260.6478,-164.5 380.6478,-164.5 380.6478,-134.5 260.6478,-134.5"/>
<text text-anchor="start" x="268.6478" y="-152.5" font-family="Helvetica,sans-Serif" font-size="10.00" fill="#000000">drake/common/eigen</text>
<text text-anchor="middle" x="320.6478" y="-141.5" font-family="Helvetica,sans-Serif" font-size="10.00" fill="#000000">_types.h</text>
</a>
</g>
</g>
<!-- Node3&#45;&gt;Node6 -->
<g id="edge6" class="edge">
<title>Node3&#45;&gt;Node6</title>
<path fill="none" stroke="#191970" d="M400.5326,-201.4639C386.4515,-192.3044 368.2533,-180.4667 352.7835,-170.4038"/>
<polygon fill="#191970" stroke="#191970" points="354.3333,-167.2366 344.0422,-164.7177 350.5163,-173.1044 354.3333,-167.2366"/>
</g>
<!-- Node6&#45;&gt;Node5 -->
<g id="edge8" class="edge">
<title>Node6&#45;&gt;Node5</title>
<path fill="none" stroke="#191970" d="M343.763,-134.4639C360.578,-123.526 383.264,-108.769 400.164,-97.7759"/>
<polygon fill="#191970" stroke="#191970" points="402.4094,-100.4906 408.8835,-92.1039 398.5925,-94.6228 402.4094,-100.4906"/>
</g>
<!-- Node7 -->
<g id="node8" class="node">
<title>Node7</title>
<g id="a_node8"><a xlink:title=" ">
<polygon fill="#ffffff" stroke="#bfbfbf" points="16.1478,-73 16.1478,-92 61.1478,-92 61.1478,-73 16.1478,-73"/>
<text text-anchor="middle" x="38.6478" y="-80" font-family="Helvetica,sans-Serif" font-size="10.00" fill="#000000">utility</text>
</a>
</g>
</g>
<!-- Node6&#45;&gt;Node7 -->
<g id="edge7" class="edge">
<title>Node6&#45;&gt;Node7</title>
<path fill="none" stroke="#191970" d="M260.6477,-141.6973C209.0488,-133.9296 133.1287,-119.9575 69.6478,-98 68.0449,-97.4456 66.4191,-96.8253 64.7949,-96.1604"/>
<polygon fill="#191970" stroke="#191970" points="66.2325,-92.9693 55.6809,-92.0125 63.3328,-99.3405 66.2325,-92.9693"/>
</g>
<!-- Node8 -->
<g id="node9" class="node">
<title>Node8</title>
<g id="a_node9"><a xlink:href="constants_8h.html" target="_top" xlink:title=" ">
<polygon fill="#ffffff" stroke="#000000" points="79.1478,-73 79.1478,-92 228.1478,-92 228.1478,-73 79.1478,-73"/>
<text text-anchor="middle" x="153.6478" y="-80" font-family="Helvetica,sans-Serif" font-size="10.00" fill="#000000">drake/common/constants.h</text>
</a>
</g>
</g>
<!-- Node6&#45;&gt;Node8 -->
<g id="edge9" class="edge">
<title>Node6&#45;&gt;Node8</title>
<path fill="none" stroke="#191970" d="M283.1697,-134.4639C254.2657,-122.8677 214.6624,-106.9789 186.8821,-95.8335"/>
<polygon fill="#191970" stroke="#191970" points="188.1701,-92.5791 177.5859,-92.1039 185.5636,-99.0758 188.1701,-92.5791"/>
</g>
<!-- Node9 -->
<g id="node10" class="node">
<title>Node9</title>
<g id="a_node10"><a xlink:href="drake__assert_8h.html" target="_top" xlink:title="Provides Drake&#39;s assertion implementation.">
<polygon fill="#ffffff" stroke="#000000" points="480.1478,-67.5 480.1478,-97.5 601.1478,-97.5 601.1478,-67.5 480.1478,-67.5"/>
<text text-anchor="start" x="488.1478" y="-85.5" font-family="Helvetica,sans-Serif" font-size="10.00" fill="#000000">drake/common/drake</text>
<text text-anchor="middle" x="540.6478" y="-74.5" font-family="Helvetica,sans-Serif" font-size="10.00" fill="#000000">_assert.h</text>
</a>
</g>
</g>
<!-- Node6&#45;&gt;Node9 -->
<g id="edge10" class="edge">
<title>Node6&#45;&gt;Node9</title>
<path fill="none" stroke="#191970" d="M370.0201,-134.4639C403.0228,-124.4131 446.6141,-111.1375 481.4751,-100.5208"/>
<polygon fill="#191970" stroke="#191970" points="482.5136,-103.8633 491.0601,-97.6017 480.4742,-97.1669 482.5136,-103.8633"/>
</g>
<!-- Node10 -->
<g id="node11" class="node">
<title>Node10</title>
<g id="a_node11"><a xlink:href="drake__copyable_8h.html" target="_top" xlink:title="Provides careful macros to selectively enable or disable the special member functions for copy&#45;constr...">
<polygon fill="#ffffff" stroke="#000000" points="246.1478,-67.5 246.1478,-97.5 367.1478,-97.5 367.1478,-67.5 246.1478,-67.5"/>
<text text-anchor="start" x="254.1478" y="-85.5" font-family="Helvetica,sans-Serif" font-size="10.00" fill="#000000">drake/common/drake</text>
<text text-anchor="middle" x="306.6478" y="-74.5" font-family="Helvetica,sans-Serif" font-size="10.00" fill="#000000">_copyable.h</text>
</a>
</g>
</g>
<!-- Node6&#45;&gt;Node10 -->
<g id="edge12" class="edge">
<title>Node6&#45;&gt;Node10</title>
<path fill="none" stroke="#191970" d="M317.471,-134.2967C315.8242,-126.4156 313.7702,-116.5857 311.8954,-107.6135"/>
<polygon fill="#191970" stroke="#191970" points="315.2835,-106.7159 309.812,-97.6432 308.4315,-108.1477 315.2835,-106.7159"/>
</g>
<!-- Node9&#45;&gt;Node4 -->
<g id="edge11" class="edge">
<title>Node9&#45;&gt;Node4</title>
<path fill="none" stroke="#191970" d="M540.6478,-67.2967C540.6478,-57.7699 540.6478,-45.3954 540.6478,-35.1306"/>
<polygon fill="#191970" stroke="#191970" points="544.1479,-35.0549 540.6478,-25.055 537.1479,-35.055 544.1479,-35.0549"/>
</g>
<!-- Node11&#45;&gt;Node5 -->
<g id="edge16" class="edge">
<title>Node11&#45;&gt;Node5</title>
<path fill="none" stroke="#191970" d="M525.598,-139.9005C505.7155,-128.7062 472.6373,-110.0823 449.5697,-97.0947"/>
<polygon fill="#191970" stroke="#191970" points="451.0969,-93.938 440.6659,-92.0817 447.6626,-100.0376 451.0969,-93.938"/>
</g>
<!-- Node12 -->
<g id="node13" class="node">
<title>Node12</title>
<g id="a_node13"><a xlink:title=" ">
<polygon fill="#ffffff" stroke="#bfbfbf" points="694.1478,-73 694.1478,-92 741.1478,-92 741.1478,-73 694.1478,-73"/>
<text text-anchor="middle" x="717.6478" y="-80" font-family="Helvetica,sans-Serif" font-size="10.00" fill="#000000">cmath</text>
</a>
</g>
</g>
<!-- Node11&#45;&gt;Node12 -->
<g id="edge14" class="edge">
<title>Node11&#45;&gt;Node12</title>
<path fill="none" stroke="#191970" d="M572.0253,-139.9316C601.1796,-130.2003 646.9774,-114.2755 685.6478,-98 686.9991,-97.4313 688.375,-96.8347 689.7595,-96.2203"/>
<polygon fill="#191970" stroke="#191970" points="691.2427,-99.3905 698.8474,-92.0136 688.3022,-93.0381 691.2427,-99.3905"/>
</g>
<!-- Node13 -->
<g id="node14" class="node">
<title>Node13</title>
<g id="a_node14"><a xlink:title=" ">
<polygon fill="#ffffff" stroke="#bfbfbf" points="619.1478,-73 619.1478,-92 676.1478,-92 676.1478,-73 619.1478,-73"/>
<text text-anchor="middle" x="647.6478" y="-80" font-family="Helvetica,sans-Serif" font-size="10.00" fill="#000000">ostream</text>
</a>
</g>
</g>
<!-- Node11&#45;&gt;Node13 -->
<g id="edge15" class="edge">
<title>Node11&#45;&gt;Node13</title>
<path fill="none" stroke="#191970" d="M557.6917,-139.9005C575.0012,-128.8554 603.6455,-110.5776 623.9566,-97.6172"/>
<polygon fill="#191970" stroke="#191970" points="626.0844,-100.4113 632.6317,-92.0817 622.319,-94.5103 626.0844,-100.4113"/>
</g>
<!-- Node14&#45;&gt;Node9 -->
<g id="edge24" class="edge">
<title>Node14&#45;&gt;Node9</title>
<path fill="none" stroke="#191970" d="M718.2557,-134.4639C683.9029,-124.4131 638.5283,-111.1375 602.2411,-100.5208"/>
<polygon fill="#191970" stroke="#191970" points="602.8445,-97.0506 592.264,-97.6017 600.8788,-103.769 602.8445,-97.0506"/>
</g>
<!-- Node14&#45;&gt;Node12 -->
<g id="edge18" class="edge">
<title>Node14&#45;&gt;Node12</title>
<path fill="none" stroke="#191970" d="M757.8482,-134.2967C749.9823,-124.1618 739.6151,-110.804 731.379,-100.1921"/>
<polygon fill="#191970" stroke="#191970" points="733.9598,-97.8089 725.0636,-92.055 728.4299,-102.1008 733.9598,-97.8089"/>
</g>
<!-- Node15 -->
<g id="node16" class="node">
<title>Node15</title>
<g id="a_node16"><a xlink:title=" ">
<polygon fill="#ffffff" stroke="#bfbfbf" points="963.6478,-6 963.6478,-25 1007.6478,-25 1007.6478,-6 963.6478,-6"/>
<text text-anchor="middle" x="985.6478" y="-13" font-family="Helvetica,sans-Serif" font-size="10.00" fill="#000000">limits</text>
</a>
</g>
</g>
<!-- Node14&#45;&gt;Node15 -->
<g id="edge19" class="edge">
<title>Node14&#45;&gt;Node15</title>
<path fill="none" stroke="#191970" d="M816.2277,-134.4037C840.2983,-125.5694 869.5879,-113.1624 893.6478,-98 909.4894,-88.0166 946.5037,-53.2885 968.4501,-32.2037"/>
<polygon fill="#191970" stroke="#191970" points="971.0212,-34.5866 975.7868,-25.124 966.1604,-29.5494 971.0212,-34.5866"/>
</g>
<!-- Node16 -->
<g id="node17" class="node">
<title>Node16</title>
<g id="a_node17"><a xlink:href="cond_8h.html" target="_top" xlink:title=" ">
<polygon fill="#ffffff" stroke="#000000" points="759.1478,-73 759.1478,-92 884.1478,-92 884.1478,-73 759.1478,-73"/>
<text text-anchor="middle" x="821.6478" y="-80" font-family="Helvetica,sans-Serif" font-size="10.00" fill="#000000">drake/common/cond.h</text>
</a>
</g>
</g>
<!-- Node14&#45;&gt;Node16 -->
<g id="edge20" class="edge">
<title>Node14&#45;&gt;Node16</title>
<path fill="none" stroke="#191970" d="M781.4474,-134.2967C789.3132,-124.1618 799.6805,-110.804 807.9166,-100.1921"/>
<polygon fill="#191970" stroke="#191970" points="810.8657,-102.1008 814.232,-92.055 805.3357,-97.8089 810.8657,-102.1008"/>
</g>
<!-- Node19 -->
<g id="node20" class="node">
<title>Node19</title>
<g id="a_node20"><a xlink:href="dummy__value_8h.html" target="_top" xlink:title=" ">
<polygon fill="#ffffff" stroke="#000000" points="941.1478,-67.5 941.1478,-97.5 1072.1478,-97.5 1072.1478,-67.5 941.1478,-67.5"/>
<text text-anchor="start" x="949.1478" y="-85.5" font-family="Helvetica,sans-Serif" font-size="10.00" fill="#000000">drake/common/dummy</text>
<text text-anchor="middle" x="1006.6478" y="-74.5" font-family="Helvetica,sans-Serif" font-size="10.00" fill="#000000">_value.h</text>
</a>
</g>
</g>
<!-- Node14&#45;&gt;Node19 -->
<g id="edge25" class="edge">
<title>Node14&#45;&gt;Node19</title>
<path fill="none" stroke="#191970" d="M822.8352,-134.4639C858.5401,-124.3701 905.7494,-111.024 943.3836,-100.3848"/>
<polygon fill="#191970" stroke="#191970" points="944.5577,-103.6901 953.2284,-97.6017 942.6533,-96.9541 944.5577,-103.6901"/>
</g>
<!-- Node16&#45;&gt;Node4 -->
<g id="edge22" class="edge">
<title>Node16&#45;&gt;Node4</title>
<path fill="none" stroke="#191970" d="M781.6857,-72.9717C729.7289,-60.5834 639.252,-39.0106 585.1554,-26.1121"/>
<polygon fill="#191970" stroke="#191970" points="585.7084,-22.646 575.1693,-23.7311 584.0848,-29.4551 585.7084,-22.646"/>
</g>
<!-- Node17 -->
<g id="node18" class="node">
<title>Node17</title>
<g id="a_node18"><a xlink:title=" ">
<polygon fill="#ffffff" stroke="#bfbfbf" points="695.1478,-6 695.1478,-25 760.1478,-25 760.1478,-6 695.1478,-6"/>
<text text-anchor="middle" x="727.6478" y="-13" font-family="Helvetica,sans-Serif" font-size="10.00" fill="#000000">functional</text>
</a>
</g>
</g>
<!-- Node16&#45;&gt;Node17 -->
<g id="edge21" class="edge">
<title>Node16&#45;&gt;Node17</title>
<path fill="none" stroke="#191970" d="M808.1799,-72.9005C792.8234,-61.9549 767.5015,-43.9064 749.3502,-30.9688"/>
<polygon fill="#191970" stroke="#191970" points="751.2654,-28.0358 741.0907,-25.0817 747.2024,-33.736 751.2654,-28.0358"/>
</g>
<!-- Node18 -->
<g id="node19" class="node">
<title>Node18</title>
<g id="a_node19"><a xlink:href="double__overloads_8h.html" target="_top" xlink:title="Provides necessary operations on double to have it as a ScalarType in drake.">
<polygon fill="#ffffff" stroke="#000000" points="778.6478,-.5 778.6478,-30.5 904.6478,-30.5 904.6478,-.5 778.6478,-.5"/>
<text text-anchor="start" x="786.6478" y="-18.5" font-family="Helvetica,sans-Serif" font-size="10.00" fill="#000000">drake/common/double</text>
<text text-anchor="middle" x="841.6478" y="-7.5" font-family="Helvetica,sans-Serif" font-size="10.00" fill="#000000">_overloads.h</text>
</a>
</g>
</g>
<!-- Node16&#45;&gt;Node18 -->
<g id="edge23" class="edge">
<title>Node16&#45;&gt;Node18</title>
<path fill="none" stroke="#191970" d="M824.5133,-72.9005C827.0438,-64.4234 830.8461,-51.6856 834.2265,-40.3614"/>
<polygon fill="#191970" stroke="#191970" points="837.657,-41.1051 837.1637,-30.5218 830.9495,-39.1028 837.657,-41.1051"/>
</g>
<!-- Node19&#45;&gt;Node15 -->
<g id="edge26" class="edge">
<title>Node19&#45;&gt;Node15</title>
<path fill="none" stroke="#191970" d="M1001.8826,-67.2967C998.8648,-57.6685 994.9353,-45.1318 991.6982,-34.8038"/>
<polygon fill="#191970" stroke="#191970" points="994.9733,-33.5504 988.6426,-25.055 988.2938,-35.6441 994.9733,-33.5504"/>
</g>
</g>
</svg>
