<?xml version="1.0" encoding="UTF-8" standalone="no"?>
<!DOCTYPE svg PUBLIC "-//W3C//DTD SVG 1.1//EN"
 "http://www.w3.org/Graphics/SVG/1.1/DTD/svg11.dtd">
<!-- Generated by graphviz version 2.40.1 (20161225.0304)
 -->
<!-- Title: drake/solvers/common_solver_option.h Pages: 1 -->
<svg width="2840pt" height="597pt"
 viewBox="0.00 0.00 2839.56 597.00" xmlns="http://www.w3.org/2000/svg" xmlns:xlink="http://www.w3.org/1999/xlink">
<g id="graph0" class="graph" transform="scale(1 1) rotate(0) translate(4 593)">
<title>drake/solvers/common_solver_option.h</title>
<polygon fill="#ffffff" stroke="transparent" points="-4,4 -4,-593 2835.5598,-593 2835.5598,4 -4,4"/>
<!-- Node2 -->
<g id="node1" class="node">
<title>Node2</title>
<g id="a_node1"><a xlink:title=" ">
<polygon fill="#bfbfbf" stroke="#000000" points="601,-558.5 601,-588.5 729,-588.5 729,-558.5 601,-558.5"/>
<text text-anchor="start" x="609" y="-576.5" font-family="Helvetica,sans-Serif" font-size="10.00" fill="#000000">drake/solvers/common</text>
<text text-anchor="middle" x="665" y="-565.5" font-family="Helvetica,sans-Serif" font-size="10.00" fill="#000000">_solver_option.h</text>
</a>
</g>
</g>
<!-- Node3 -->
<g id="node2" class="node">
<title>Node3</title>
<g id="a_node2"><a xlink:href="solver__options_8h.html" target="_top" xlink:title=" ">
<polygon fill="#ffffff" stroke="#000000" points="607,-491.5 607,-521.5 723,-521.5 723,-491.5 607,-491.5"/>
<text text-anchor="start" x="615" y="-509.5" font-family="Helvetica,sans-Serif" font-size="10.00" fill="#000000">drake/solvers/solver</text>
<text text-anchor="middle" x="665" y="-498.5" font-family="Helvetica,sans-Serif" font-size="10.00" fill="#000000">_options.h</text>
</a>
</g>
</g>
<!-- Node2&#45;&gt;Node3 -->
<g id="edge1" class="edge">
<title>Node2&#45;&gt;Node3</title>
<path fill="none" stroke="#191970" d="M665,-548.0249C665,-539.128 665,-529.4287 665,-521.6432"/>
<polygon fill="#191970" stroke="#191970" points="661.5001,-548.2966 665,-558.2967 668.5001,-548.2967 661.5001,-548.2966"/>
</g>
<!-- Node4 -->
<g id="node3" class="node">
<title>Node4</title>
<g id="a_node3"><a xlink:href="mathematical__program_8h.html" target="_top" xlink:title=" ">
<polygon fill="#ffffff" stroke="#000000" points="1530,-424.5 1530,-454.5 1684,-454.5 1684,-424.5 1530,-424.5"/>
<text text-anchor="start" x="1538" y="-442.5" font-family="Helvetica,sans-Serif" font-size="10.00" fill="#000000">drake/solvers/mathematical</text>
<text text-anchor="middle" x="1607" y="-431.5" font-family="Helvetica,sans-Serif" font-size="10.00" fill="#000000">_program.h</text>
</a>
</g>
</g>
<!-- Node3&#45;&gt;Node4 -->
<g id="edge2" class="edge">
<title>Node3&#45;&gt;Node4</title>
<path fill="none" stroke="#191970" d="M733.3495,-501.6386C904.3922,-489.4732 1350.0478,-457.7758 1529.984,-444.9778"/>
<polygon fill="#191970" stroke="#191970" points="732.9419,-498.1587 723.2154,-502.3594 733.4386,-505.141 732.9419,-498.1587"/>
</g>
<!-- Node18 -->
<g id="node17" class="node">
<title>Node18</title>
<g id="a_node17"><a xlink:href="solver__interface_8h.html" target="_top" xlink:title=" ">
<polygon fill="#ffffff" stroke="#000000" points="731,-274 731,-304 847,-304 847,-274 731,-274"/>
<text text-anchor="start" x="739" y="-292" font-family="Helvetica,sans-Serif" font-size="10.00" fill="#000000">drake/solvers/solver</text>
<text text-anchor="middle" x="789" y="-281" font-family="Helvetica,sans-Serif" font-size="10.00" fill="#000000">_interface.h</text>
</a>
</g>
</g>
<!-- Node3&#45;&gt;Node18 -->
<g id="edge58" class="edge">
<title>Node3&#45;&gt;Node18</title>
<path fill="none" stroke="#191970" d="M675.9993,-481.9863C690.7295,-449.9158 718.3463,-392.3518 747,-346 756.1781,-331.153 768.0967,-315.2393 776.8917,-304.0103"/>
<polygon fill="#191970" stroke="#191970" points="672.6457,-480.9052 671.6846,-491.4564 679.0157,-483.8075 672.6457,-480.9052"/>
</g>
<!-- Node19 -->
<g id="node18" class="node">
<title>Node19</title>
<g id="a_node18"><a xlink:href="solver__base_8h.html" target="_top" xlink:title=" ">
<polygon fill="#ffffff" stroke="#000000" points="703,-201.5 703,-231.5 819,-231.5 819,-201.5 703,-201.5"/>
<text text-anchor="start" x="711" y="-219.5" font-family="Helvetica,sans-Serif" font-size="10.00" fill="#000000">drake/solvers/solver</text>
<text text-anchor="middle" x="761" y="-208.5" font-family="Helvetica,sans-Serif" font-size="10.00" fill="#000000">_base.h</text>
</a>
</g>
</g>
<!-- Node3&#45;&gt;Node19 -->
<g id="edge57" class="edge">
<title>Node3&#45;&gt;Node19</title>
<path fill="none" stroke="#191970" d="M664.6127,-481.0781C664.9579,-435.6062 670.4744,-338.5122 708,-268 715.6549,-253.6161 728.7585,-240.8291 740.0207,-231.5946"/>
<polygon fill="#191970" stroke="#191970" points="661.1127,-481.231 664.6177,-491.2292 668.1127,-481.2275 661.1127,-481.231"/>
</g>
<!-- Node5 -->
<g id="node4" class="node">
<title>Node5</title>
<g id="a_node4"><a xlink:href="brick__static__equilibrium__constraint_8h.html" target="_top" xlink:title=" ">
<polygon fill="#ffffff" stroke="#000000" points="1401,-346.5 1401,-387.5 1541,-387.5 1541,-346.5 1401,-346.5"/>
<text text-anchor="start" x="1409" y="-375.5" font-family="Helvetica,sans-Serif" font-size="10.00" fill="#000000">drake/examples/planar</text>
<text text-anchor="start" x="1409" y="-364.5" font-family="Helvetica,sans-Serif" font-size="10.00" fill="#000000">_gripper/brick_static</text>
<text text-anchor="middle" x="1471" y="-353.5" font-family="Helvetica,sans-Serif" font-size="10.00" fill="#000000">_equilibrium_constraint.h</text>
</a>
</g>
</g>
<!-- Node4&#45;&gt;Node5 -->
<g id="edge3" class="edge">
<title>Node4&#45;&gt;Node5</title>
<path fill="none" stroke="#191970" d="M1569.9625,-419.7557C1551.1934,-409.7502 1528.423,-397.6115 1509.458,-387.5015"/>
<polygon fill="#191970" stroke="#191970" points="1568.3498,-422.8623 1578.8207,-424.478 1571.6428,-416.6851 1568.3498,-422.8623"/>
</g>
<!-- Node6 -->
<g id="node5" class="node">
<title>Node6</title>
<g id="a_node5"><a xlink:href="gripper__brick__planning__constraint__helper_8h.html" target="_top" xlink:title=" ">
<polygon fill="#ffffff" stroke="#000000" points="2313.5,-346.5 2313.5,-387.5 2476.5,-387.5 2476.5,-346.5 2313.5,-346.5"/>
<text text-anchor="start" x="2321.5" y="-375.5" font-family="Helvetica,sans-Serif" font-size="10.00" fill="#000000">drake/examples/planar</text>
<text text-anchor="start" x="2321.5" y="-364.5" font-family="Helvetica,sans-Serif" font-size="10.00" fill="#000000">_gripper/gripper_brick</text>
<text text-anchor="middle" x="2395" y="-353.5" font-family="Helvetica,sans-Serif" font-size="10.00" fill="#000000">_planning_constraint_helper.h</text>
</a>
</g>
</g>
<!-- Node4&#45;&gt;Node6 -->
<g id="edge4" class="edge">
<title>Node4&#45;&gt;Node6</title>
<path fill="none" stroke="#191970" d="M1694.0953,-437.3408C1826.5046,-433.0958 2086.0844,-420.9964 2304,-388 2307.0459,-387.5388 2310.141,-387.0304 2313.2611,-386.4843"/>
<polygon fill="#191970" stroke="#191970" points="1693.8941,-433.8453 1684.0086,-437.6568 1694.1134,-440.8418 1693.8941,-433.8453"/>
</g>
<!-- Node7 -->
<g id="node6" class="node">
<title>Node7</title>
<g id="a_node6"><a xlink:href="differential__inverse__kinematics_8h.html" target="_top" xlink:title=" ">
<polygon fill="#ffffff" stroke="#000000" points="769,-346.5 769,-387.5 895,-387.5 895,-346.5 769,-346.5"/>
<text text-anchor="start" x="777" y="-375.5" font-family="Helvetica,sans-Serif" font-size="10.00" fill="#000000">drake/manipulation</text>
<text text-anchor="start" x="777" y="-364.5" font-family="Helvetica,sans-Serif" font-size="10.00" fill="#000000">/planner/differential</text>
<text text-anchor="middle" x="832" y="-353.5" font-family="Helvetica,sans-Serif" font-size="10.00" fill="#000000">_inverse_kinematics.h</text>
</a>
</g>
</g>
<!-- Node4&#45;&gt;Node7 -->
<g id="edge5" class="edge">
<title>Node4&#45;&gt;Node7</title>
<path fill="none" stroke="#191970" d="M1519.5356,-435.3979C1358.2242,-427.4498 1019.7824,-408.8848 904,-388 901.0528,-387.4684 898.0539,-386.8628 895.0366,-386.2008"/>
<polygon fill="#191970" stroke="#191970" points="1519.7411,-438.9121 1529.9005,-435.906 1520.0839,-431.9205 1519.7411,-438.9121"/>
</g>
<!-- Node8 -->
<g id="node7" class="node">
<title>Node8</title>
<g id="a_node7"><a xlink:href="inverse__kinematics_8h.html" target="_top" xlink:title=" ">
<polygon fill="#ffffff" stroke="#000000" points="913.5,-352 913.5,-382 1096.5,-382 1096.5,-352 913.5,-352"/>
<text text-anchor="start" x="921.5" y="-370" font-family="Helvetica,sans-Serif" font-size="10.00" fill="#000000">drake/multibody/inverse</text>
<text text-anchor="middle" x="1005" y="-359" font-family="Helvetica,sans-Serif" font-size="10.00" fill="#000000">_kinematics/inverse_kinematics.h</text>
</a>
</g>
</g>
<!-- Node4&#45;&gt;Node8 -->
<g id="edge6" class="edge">
<title>Node4&#45;&gt;Node8</title>
<path fill="none" stroke="#191970" d="M1519.8371,-432.8954C1420.5385,-424.8045 1253.5638,-409.4765 1111,-388 1099.6838,-386.2953 1087.742,-384.2106 1076.1153,-382.0239"/>
<polygon fill="#191970" stroke="#191970" points="1519.575,-436.3855 1529.8247,-433.7033 1520.1395,-429.4083 1519.575,-436.3855"/>
</g>
<!-- Node9 -->
<g id="node8" class="node">
<title>Node9</title>
<g id="a_node8"><a xlink:href="sliding__friction__complementarity__constraint_8h.html" target="_top" xlink:title=" ">
<polygon fill="#ffffff" stroke="#000000" points="2634.5,-268.5 2634.5,-309.5 2815.5,-309.5 2815.5,-268.5 2634.5,-268.5"/>
<text text-anchor="start" x="2642.5" y="-297.5" font-family="Helvetica,sans-Serif" font-size="10.00" fill="#000000">drake/multibody/optimization</text>
<text text-anchor="start" x="2642.5" y="-286.5" font-family="Helvetica,sans-Serif" font-size="10.00" fill="#000000">/sliding_friction_complementarity</text>
<text text-anchor="middle" x="2725" y="-275.5" font-family="Helvetica,sans-Serif" font-size="10.00" fill="#000000">_constraint.h</text>
</a>
</g>
</g>
<!-- Node4&#45;&gt;Node9 -->
<g id="edge7" class="edge">
<title>Node4&#45;&gt;Node9</title>
<path fill="none" stroke="#191970" d="M1694.5864,-439.0701C1967.0843,-437.3069 2784.0453,-428.6395 2823,-388 2835.917,-374.5243 2832.3074,-362.1807 2823,-346 2813.8731,-330.133 2798.444,-318.2719 2782.4963,-309.6002"/>
<polygon fill="#191970" stroke="#191970" points="1694.3252,-435.5715 1684.3475,-439.1347 1694.3694,-442.5714 1694.3252,-435.5715"/>
</g>
<!-- Node10 -->
<g id="node9" class="node">
<title>Node10</title>
<g id="a_node9"><a xlink:href="static__equilibrium__problem_8h.html" target="_top" xlink:title=" ">
<polygon fill="#ffffff" stroke="#000000" points="1455,-274 1455,-304 1617,-304 1617,-274 1455,-274"/>
<text text-anchor="start" x="1463" y="-292" font-family="Helvetica,sans-Serif" font-size="10.00" fill="#000000">drake/multibody/optimization</text>
<text text-anchor="middle" x="1536" y="-281" font-family="Helvetica,sans-Serif" font-size="10.00" fill="#000000">/static_equilibrium_problem.h</text>
</a>
</g>
</g>
<!-- Node4&#45;&gt;Node10 -->
<g id="edge8" class="edge">
<title>Node4&#45;&gt;Node10</title>
<path fill="none" stroke="#191970" d="M1519.9319,-429.6256C1467.6137,-421.6979 1408.134,-408.4551 1392,-388 1380.4398,-373.3437 1381.5071,-361.4384 1392,-346 1402.5419,-330.4894 1444.3541,-314.9574 1480.2266,-304.033"/>
<polygon fill="#191970" stroke="#191970" points="1519.5429,-433.1059 1529.9447,-431.0927 1520.5578,-426.1799 1519.5429,-433.1059"/>
</g>
<!-- Node11 -->
<g id="node10" class="node">
<title>Node11</title>
<g id="a_node10"><a xlink:href="static__friction__cone__complementarity__constraint_8h.html" target="_top" xlink:title=" ">
<polygon fill="#ffffff" stroke="#000000" points="1749,-346.5 1749,-387.5 1953,-387.5 1953,-346.5 1749,-346.5"/>
<text text-anchor="start" x="1757" y="-375.5" font-family="Helvetica,sans-Serif" font-size="10.00" fill="#000000">drake/multibody/optimization</text>
<text text-anchor="start" x="1757" y="-364.5" font-family="Helvetica,sans-Serif" font-size="10.00" fill="#000000">/static_friction_cone_complementarity</text>
<text text-anchor="middle" x="1851" y="-353.5" font-family="Helvetica,sans-Serif" font-size="10.00" fill="#000000">_constraint.h</text>
</a>
</g>
</g>
<!-- Node4&#45;&gt;Node11 -->
<g id="edge9" class="edge">
<title>Node4&#45;&gt;Node11</title>
<path fill="none" stroke="#191970" d="M1667.5583,-421.5062C1702.2716,-411.1918 1745.9659,-398.2089 1782.0018,-387.5015"/>
<polygon fill="#191970" stroke="#191970" points="1666.1459,-418.2746 1657.557,-424.478 1668.1397,-424.9847 1666.1459,-418.2746"/>
</g>
<!-- Node12 -->
<g id="node11" class="node">
<title>Node12</title>
<g id="a_node11"><a xlink:href="static__friction__cone__constraint_8h.html" target="_top" xlink:title=" ">
<polygon fill="#ffffff" stroke="#000000" points="2636,-352 2636,-382 2814,-382 2814,-352 2636,-352"/>
<text text-anchor="start" x="2644" y="-370" font-family="Helvetica,sans-Serif" font-size="10.00" fill="#000000">drake/multibody/optimization</text>
<text text-anchor="middle" x="2725" y="-359" font-family="Helvetica,sans-Serif" font-size="10.00" fill="#000000">/static_friction_cone_constraint.h</text>
</a>
</g>
</g>
<!-- Node4&#45;&gt;Node12 -->
<g id="edge12" class="edge">
<title>Node4&#45;&gt;Node12</title>
<path fill="none" stroke="#191970" d="M1694.2427,-436.899C1906.9197,-430.2672 2447.7678,-411.5728 2627,-388 2638.4723,-386.4912 2650.5972,-384.3492 2662.2616,-382.0048"/>
<polygon fill="#191970" stroke="#191970" points="1693.9472,-433.4064 1684.0606,-437.2151 1694.1644,-440.403 1693.9472,-433.4064"/>
</g>
<!-- Node13 -->
<g id="node12" class="node">
<title>Node13</title>
<g id="a_node12"><a xlink:href="branch__and__bound_8h.html" target="_top" xlink:title=" ">
<polygon fill="#ffffff" stroke="#000000" points="982.5,-274 982.5,-304 1101.5,-304 1101.5,-274 982.5,-274"/>
<text text-anchor="start" x="990.5" y="-292" font-family="Helvetica,sans-Serif" font-size="10.00" fill="#000000">drake/solvers/branch</text>
<text text-anchor="middle" x="1042" y="-281" font-family="Helvetica,sans-Serif" font-size="10.00" fill="#000000">_and_bound.h</text>
</a>
</g>
</g>
<!-- Node4&#45;&gt;Node13 -->
<g id="edge14" class="edge">
<title>Node4&#45;&gt;Node13</title>
<path fill="none" stroke="#191970" d="M1519.6326,-435.5021C1413.0368,-429.4926 1239.8635,-415.7454 1182,-388 1157.9113,-376.4495 1160.2275,-362.2196 1139,-346 1117.8921,-329.8718 1091.8353,-314.7929 1072.0451,-304.2002"/>
<polygon fill="#191970" stroke="#191970" points="1519.5567,-439.0032 1529.7344,-436.0598 1519.9425,-432.0138 1519.5567,-439.0032"/>
</g>
<!-- Node14 -->
<g id="node13" class="node">
<title>Node14</title>
<g id="a_node13"><a xlink:href="choose__best__solver_8h.html" target="_top" xlink:title=" ">
<polygon fill="#ffffff" stroke="#000000" points="866,-201.5 866,-231.5 986,-231.5 986,-201.5 866,-201.5"/>
<text text-anchor="start" x="874" y="-219.5" font-family="Helvetica,sans-Serif" font-size="10.00" fill="#000000">drake/solvers/choose</text>
<text text-anchor="middle" x="926" y="-208.5" font-family="Helvetica,sans-Serif" font-size="10.00" fill="#000000">_best_solver.h</text>
</a>
</g>
</g>
<!-- Node4&#45;&gt;Node14 -->
<g id="edge15" class="edge">
<title>Node4&#45;&gt;Node14</title>
<path fill="none" stroke="#191970" d="M1519.5979,-437.7417C1402.6547,-434.0644 1202.6056,-422.7428 1139,-388 1117.9229,-376.4872 1125.1117,-359.1267 1105,-346 1054.0775,-312.7634 1020.0676,-348.5022 973,-310 947.9688,-289.524 935.024,-252.319 929.4596,-231.5481"/>
<polygon fill="#191970" stroke="#191970" points="1519.5047,-441.2404 1529.6058,-438.0441 1519.7162,-434.2436 1519.5047,-441.2404"/>
</g>
<!-- Node15 -->
<g id="node14" class="node">
<title>Node15</title>
<g id="a_node14"><a xlink:href="mathematical__program__result_8h.html" target="_top" xlink:title=" ">
<polygon fill="#ffffff" stroke="#000000" points="1191,-352 1191,-382 1345,-382 1345,-352 1191,-352"/>
<text text-anchor="start" x="1199" y="-370" font-family="Helvetica,sans-Serif" font-size="10.00" fill="#000000">drake/solvers/mathematical</text>
<text text-anchor="middle" x="1268" y="-359" font-family="Helvetica,sans-Serif" font-size="10.00" fill="#000000">_program_result.h</text>
</a>
</g>
</g>
<!-- Node4&#45;&gt;Node15 -->
<g id="edge16" class="edge">
<title>Node4&#45;&gt;Node15</title>
<path fill="none" stroke="#191970" d="M1522.5363,-422.441C1474.5313,-412.625 1413.3381,-399.9102 1359,-388 1350.4476,-386.1254 1341.4542,-384.1073 1332.5864,-382.0896"/>
<polygon fill="#191970" stroke="#191970" points="1522.0746,-425.9188 1532.5727,-424.4902 1523.4751,-419.0603 1522.0746,-425.9188"/>
</g>
<!-- Node17 -->
<g id="node16" class="node">
<title>Node17</title>
<g id="a_node16"><a xlink:href="solve_8h.html" target="_top" xlink:title=" ">
<polygon fill="#ffffff" stroke="#000000" points="1158.5,-279.5 1158.5,-298.5 1279.5,-298.5 1279.5,-279.5 1158.5,-279.5"/>
<text text-anchor="middle" x="1219" y="-286.5" font-family="Helvetica,sans-Serif" font-size="10.00" fill="#000000">drake/solvers/solve.h</text>
</a>
</g>
</g>
<!-- Node4&#45;&gt;Node17 -->
<g id="edge52" class="edge">
<title>Node4&#45;&gt;Node17</title>
<path fill="none" stroke="#191970" d="M1595.1032,-414.9541C1582.6021,-390.2147 1562.9863,-354.5071 1550,-346 1451.6795,-281.592 1402.8074,-335.1908 1288,-310 1274.3016,-306.9943 1259.3823,-302.5991 1246.9323,-298.6054"/>
<polygon fill="#191970" stroke="#191970" points="1592.0843,-416.7438 1599.6732,-424.137 1598.3512,-413.625 1592.0843,-416.7438"/>
</g>
<!-- Node4&#45;&gt;Node18 -->
<g id="edge54" class="edge">
<title>Node4&#45;&gt;Node18</title>
<path fill="none" stroke="#191970" d="M1519.6469,-437.3777C1308.4838,-431.8225 785.7492,-415.3623 760,-388 738.0299,-364.6535 760.9619,-325.5538 776.7446,-304.1451"/>
<polygon fill="#191970" stroke="#191970" points="1519.6795,-440.8796 1529.7674,-437.6418 1519.8622,-433.882 1519.6795,-440.8796"/>
</g>
<!-- Node4&#45;&gt;Node19 -->
<g id="edge53" class="edge">
<title>Node4&#45;&gt;Node19</title>
<path fill="none" stroke="#191970" d="M1519.569,-436.9114C1306.7954,-430.2574 777.1673,-411.4236 747,-388 703.9698,-354.5889 704.6524,-319.6427 722,-268 726.6427,-254.1789 736.6272,-241.1144 745.3311,-231.6021"/>
<polygon fill="#191970" stroke="#191970" points="1519.6603,-440.4158 1529.7643,-437.2285 1519.878,-433.4192 1519.6603,-440.4158"/>
</g>
<!-- Node27 -->
<g id="node26" class="node">
<title>Node27</title>
<g id="a_node26"><a xlink:href="moby__lcp__solver_8h.html" target="_top" xlink:title=" ">
<polygon fill="#ffffff" stroke="#000000" points="1685.5,-134.5 1685.5,-164.5 1798.5,-164.5 1798.5,-134.5 1685.5,-134.5"/>
<text text-anchor="start" x="1693.5" y="-152.5" font-family="Helvetica,sans-Serif" font-size="10.00" fill="#000000">drake/solvers/moby</text>
<text text-anchor="middle" x="1742" y="-141.5" font-family="Helvetica,sans-Serif" font-size="10.00" fill="#000000">_lcp_solver.h</text>
</a>
</g>
</g>
<!-- Node4&#45;&gt;Node27 -->
<g id="edge47" class="edge">
<title>Node4&#45;&gt;Node27</title>
<path fill="none" stroke="#191970" d="M1645.8099,-418.817C1657.9694,-410.6564 1670.4347,-400.27 1679,-388 1729.6209,-315.484 1739.5682,-204.7721 1741.5224,-164.669"/>
<polygon fill="#191970" stroke="#191970" points="1643.6396,-416.0489 1637.07,-424.361 1647.3892,-421.96 1643.6396,-416.0489"/>
</g>
<!-- Node34 -->
<g id="node33" class="node">
<title>Node34</title>
<g id="a_node33"><a xlink:href="unrevised__lemke__solver_8h.html" target="_top" xlink:title=" ">
<polygon fill="#ffffff" stroke="#000000" points="1495,-134.5 1495,-164.5 1629,-164.5 1629,-134.5 1495,-134.5"/>
<text text-anchor="start" x="1503" y="-152.5" font-family="Helvetica,sans-Serif" font-size="10.00" fill="#000000">drake/solvers/unrevised</text>
<text text-anchor="middle" x="1562" y="-141.5" font-family="Helvetica,sans-Serif" font-size="10.00" fill="#000000">_lemke_solver.h</text>
</a>
</g>
</g>
<!-- Node4&#45;&gt;Node34 -->
<g id="edge55" class="edge">
<title>Node4&#45;&gt;Node34</title>
<path fill="none" stroke="#191970" d="M1616.6391,-414.6223C1628.3573,-380.4637 1644.4235,-317.6294 1626,-268 1618.6518,-248.2053 1605.959,-250.0479 1595,-232 1581.7091,-210.1117 1571.7793,-181.9209 1566.4401,-164.8046"/>
<polygon fill="#191970" stroke="#191970" points="1613.2654,-413.6618 1613.185,-424.2563 1619.8547,-416.0243 1613.2654,-413.6618"/>
</g>
<!-- Node35 -->
<g id="node34" class="node">
<title>Node35</title>
<g id="a_node34"><a xlink:href="multiple__shooting_8h.html" target="_top" xlink:title=" ">
<polygon fill="#ffffff" stroke="#000000" points="1297.5,-268.5 1297.5,-309.5 1436.5,-309.5 1436.5,-268.5 1297.5,-268.5"/>
<text text-anchor="start" x="1305.5" y="-297.5" font-family="Helvetica,sans-Serif" font-size="10.00" fill="#000000">drake/systems/trajectory</text>
<text text-anchor="start" x="1305.5" y="-286.5" font-family="Helvetica,sans-Serif" font-size="10.00" fill="#000000">_optimization/multiple</text>
<text text-anchor="middle" x="1367" y="-275.5" font-family="Helvetica,sans-Serif" font-size="10.00" fill="#000000">_shooting.h</text>
</a>
</g>
</g>
<!-- Node4&#45;&gt;Node35 -->
<g id="edge56" class="edge">
<title>Node4&#45;&gt;Node35</title>
<path fill="none" stroke="#191970" d="M1607.1979,-414.1572C1605.968,-393.1445 1600.8105,-363.9124 1583,-346 1538.6105,-301.3566 1506.866,-326.0867 1446,-310 1442.9815,-309.2022 1439.8984,-308.3865 1436.784,-307.5617"/>
<polygon fill="#191970" stroke="#191970" points="1603.7043,-414.4126 1607.5293,-424.2928 1610.7006,-414.1838 1603.7043,-414.4126"/>
</g>
<!-- Node38 -->
<g id="node37" class="node">
<title>Node38</title>
<g id="a_node37"><a xlink:href="mixed__integer__optimization__util_8h.html" target="_top" xlink:title=" ">
<polygon fill="#ffffff" stroke="#000000" points="2494.5,-346.5 2494.5,-387.5 2617.5,-387.5 2617.5,-346.5 2494.5,-346.5"/>
<text text-anchor="start" x="2502.5" y="-375.5" font-family="Helvetica,sans-Serif" font-size="10.00" fill="#000000">drake/solvers/mixed</text>
<text text-anchor="start" x="2502.5" y="-364.5" font-family="Helvetica,sans-Serif" font-size="10.00" fill="#000000">_integer_optimization</text>
<text text-anchor="middle" x="2556" y="-353.5" font-family="Helvetica,sans-Serif" font-size="10.00" fill="#000000">_util.h</text>
</a>
</g>
</g>
<!-- Node4&#45;&gt;Node38 -->
<g id="edge44" class="edge">
<title>Node4&#45;&gt;Node38</title>
<path fill="none" stroke="#191970" d="M1694.0973,-436.9768C1885.101,-431.0234 2335.7116,-414.5707 2486,-388 2488.7487,-387.514 2491.5419,-386.9565 2494.3518,-386.3433"/>
<polygon fill="#191970" stroke="#191970" points="1693.9841,-433.4785 1684.0972,-437.2863 1694.2007,-440.4752 1693.9841,-433.4785"/>
</g>
<!-- Node39 -->
<g id="node38" class="node">
<title>Node39</title>
<g id="a_node38"><a xlink:href="mixed__integer__rotation__constraint_8h.html" target="_top" xlink:title=" ">
<polygon fill="#ffffff" stroke="#000000" points="2176.5,-274 2176.5,-304 2339.5,-304 2339.5,-274 2176.5,-274"/>
<text text-anchor="start" x="2184.5" y="-292" font-family="Helvetica,sans-Serif" font-size="10.00" fill="#000000">drake/solvers/mixed</text>
<text text-anchor="middle" x="2258" y="-281" font-family="Helvetica,sans-Serif" font-size="10.00" fill="#000000">_integer_rotation_constraint.h</text>
</a>
</g>
</g>
<!-- Node4&#45;&gt;Node39 -->
<g id="edge46" class="edge">
<title>Node4&#45;&gt;Node39</title>
<path fill="none" stroke="#191970" d="M1694.2426,-433.6246C1784.0273,-426.3885 1916.9534,-412.0106 1962,-388 1984.2144,-376.1594 1978.2349,-358.6474 2000,-346 2029.5976,-328.8012 2112.3777,-312.2823 2176.2684,-301.4963"/>
<polygon fill="#191970" stroke="#191970" points="1693.7545,-430.1522 1684.0615,-434.4296 1694.3063,-437.1304 1693.7545,-430.1522"/>
</g>
<!-- Node40 -->
<g id="node39" class="node">
<title>Node40</title>
<g id="a_node39"><a xlink:href="non__convex__optimization__util_8h.html" target="_top" xlink:title=" ">
<polygon fill="#ffffff" stroke="#000000" points="2009,-352 2009,-382 2153,-382 2153,-352 2009,-352"/>
<text text-anchor="start" x="2017" y="-370" font-family="Helvetica,sans-Serif" font-size="10.00" fill="#000000">drake/solvers/non_convex</text>
<text text-anchor="middle" x="2081" y="-359" font-family="Helvetica,sans-Serif" font-size="10.00" fill="#000000">_optimization_util.h</text>
</a>
</g>
</g>
<!-- Node4&#45;&gt;Node40 -->
<g id="edge48" class="edge">
<title>Node4&#45;&gt;Node40</title>
<path fill="none" stroke="#191970" d="M1694.7017,-430.5837C1773.6225,-421.9142 1892.5784,-407.2446 1995,-388 2004.063,-386.2971 2013.6018,-384.2389 2022.8955,-382.0854"/>
<polygon fill="#191970" stroke="#191970" points="1693.8808,-427.1523 1684.3188,-431.715 1694.6391,-434.1111 1693.8808,-427.1523"/>
</g>
<!-- Node41 -->
<g id="node40" class="node">
<title>Node41</title>
<g id="a_node40"><a xlink:href="rotation__constraint_8h.html" target="_top" xlink:title=" ">
<polygon fill="#ffffff" stroke="#000000" points="2171,-352 2171,-382 2295,-382 2295,-352 2171,-352"/>
<text text-anchor="start" x="2179" y="-370" font-family="Helvetica,sans-Serif" font-size="10.00" fill="#000000">drake/solvers/rotation</text>
<text text-anchor="middle" x="2233" y="-359" font-family="Helvetica,sans-Serif" font-size="10.00" fill="#000000">_constraint.h</text>
</a>
</g>
</g>
<!-- Node4&#45;&gt;Node41 -->
<g id="edge49" class="edge">
<title>Node4&#45;&gt;Node41</title>
<path fill="none" stroke="#191970" d="M1694.4803,-436.6505C1804.4659,-431.8652 1998.6659,-419.4212 2162,-388 2170.0786,-386.4459 2178.5554,-384.3563 2186.7264,-382.0962"/>
<polygon fill="#191970" stroke="#191970" points="1694.272,-433.1561 1684.4292,-437.0766 1694.5685,-440.1498 1694.272,-433.1561"/>
</g>
<!-- Node42 -->
<g id="node41" class="node">
<title>Node42</title>
<g id="a_node41"><a xlink:href="sdpa__free__format_8h.html" target="_top" xlink:title=" ">
<polygon fill="#ffffff" stroke="#000000" points="1604.5,-201.5 1604.5,-231.5 1713.5,-231.5 1713.5,-201.5 1604.5,-201.5"/>
<text text-anchor="start" x="1612.5" y="-219.5" font-family="Helvetica,sans-Serif" font-size="10.00" fill="#000000">drake/solvers/sdpa</text>
<text text-anchor="middle" x="1659" y="-208.5" font-family="Helvetica,sans-Serif" font-size="10.00" fill="#000000">_free_format.h</text>
</a>
</g>
</g>
<!-- Node4&#45;&gt;Node42 -->
<g id="edge50" class="edge">
<title>Node4&#45;&gt;Node42</title>
<path fill="none" stroke="#191970" d="M1636.8584,-417.6611C1645.6983,-409.4569 1654.2717,-399.3376 1659,-388 1681.3481,-334.4135 1669.6502,-262.9557 1662.8066,-231.9442"/>
<polygon fill="#191970" stroke="#191970" points="1634.3861,-415.1719 1629.1114,-424.3604 1638.9649,-420.4667 1634.3861,-415.1719"/>
</g>
<!-- Node11&#45;&gt;Node9 -->
<g id="edge10" class="edge">
<title>Node11&#45;&gt;Node9</title>
<path fill="none" stroke="#191970" d="M1963.0523,-350.452C1975.5046,-348.838 1988.0131,-347.3147 2000,-346 2227.7896,-321.0172 2497.0083,-302.8077 2634.4105,-294.325"/>
<polygon fill="#191970" stroke="#191970" points="1962.5466,-346.9883 1953.0889,-351.7636 1963.4602,-353.9284 1962.5466,-346.9883"/>
</g>
<!-- Node11&#45;&gt;Node10 -->
<g id="edge11" class="edge">
<title>Node11&#45;&gt;Node10</title>
<path fill="none" stroke="#191970" d="M1757.9012,-343.947C1705.8004,-331.0458 1642.3412,-315.3321 1596.6528,-304.0188"/>
<polygon fill="#191970" stroke="#191970" points="1757.2773,-347.3981 1767.8254,-346.4044 1758.9599,-340.6033 1757.2773,-347.3981"/>
</g>
<!-- Node12&#45;&gt;Node9 -->
<g id="edge13" class="edge">
<title>Node12&#45;&gt;Node9</title>
<path fill="none" stroke="#191970" d="M2725,-341.8044C2725,-331.3919 2725,-319.4721 2725,-309.5956"/>
<polygon fill="#191970" stroke="#191970" points="2721.5001,-341.9608 2725,-351.9608 2728.5001,-341.9608 2721.5001,-341.9608"/>
</g>
<!-- Node15&#45;&gt;Node10 -->
<g id="edge17" class="edge">
<title>Node15&#45;&gt;Node10</title>
<path fill="none" stroke="#191970" d="M1329.3797,-349.1358C1376.1304,-335.5292 1439.7784,-317.0048 1484.029,-304.1259"/>
<polygon fill="#191970" stroke="#191970" points="1328.2966,-345.8057 1319.6731,-351.9608 1330.2528,-352.5268 1328.2966,-345.8057"/>
</g>
<!-- Node15&#45;&gt;Node13 -->
<g id="edge18" class="edge">
<title>Node15&#45;&gt;Node13</title>
<path fill="none" stroke="#191970" d="M1214.7483,-348.6211C1175.4706,-335.0651 1122.6737,-316.8431 1085.8263,-304.1259"/>
<polygon fill="#191970" stroke="#191970" points="1213.8302,-352.0068 1224.4249,-351.9608 1216.114,-345.3898 1213.8302,-352.0068"/>
</g>
<!-- Node16 -->
<g id="node15" class="node">
<title>Node16</title>
<g id="a_node15"><a xlink:href="mosek__solver_8h.html" target="_top" xlink:title=" ">
<polygon fill="#ffffff" stroke="#000000" points="1357.5,-134.5 1357.5,-164.5 1476.5,-164.5 1476.5,-134.5 1357.5,-134.5"/>
<text text-anchor="start" x="1365.5" y="-152.5" font-family="Helvetica,sans-Serif" font-size="10.00" fill="#000000">drake/solvers/mosek</text>
<text text-anchor="middle" x="1417" y="-141.5" font-family="Helvetica,sans-Serif" font-size="10.00" fill="#000000">_solver.h</text>
</a>
</g>
</g>
<!-- Node15&#45;&gt;Node16 -->
<g id="edge19" class="edge">
<title>Node15&#45;&gt;Node16</title>
<path fill="none" stroke="#191970" d="M1195.9996,-347.8927C1177.5459,-339.3883 1159.8612,-327.2453 1149,-310 1123.183,-269.008 1117.9429,-238.1796 1149,-201 1177.8105,-166.51 1303.9555,-173.9268 1348,-165 1351.0083,-164.3903 1354.087,-163.7518 1357.1938,-163.0961"/>
<polygon fill="#191970" stroke="#191970" points="1194.818,-351.1938 1205.3894,-351.8986 1197.5649,-344.7553 1194.818,-351.1938"/>
</g>
<!-- Node15&#45;&gt;Node17 -->
<g id="edge20" class="edge">
<title>Node15&#45;&gt;Node17</title>
<path fill="none" stroke="#191970" d="M1253.035,-343.1782C1243.6113,-328.1772 1231.9576,-309.6263 1225.0206,-298.5839"/>
<polygon fill="#191970" stroke="#191970" points="1250.269,-345.3549 1258.5523,-351.9608 1256.1965,-341.6312 1250.269,-345.3549"/>
</g>
<!-- Node15&#45;&gt;Node18 -->
<g id="edge21" class="edge">
<title>Node15&#45;&gt;Node18</title>
<path fill="none" stroke="#191970" d="M1180.7142,-352.7864C1083.8983,-337.021 930.4126,-312.0275 847.2253,-298.4814"/>
<polygon fill="#191970" stroke="#191970" points="1180.3418,-356.2718 1190.7744,-354.4246 1181.4669,-349.3628 1180.3418,-356.2718"/>
</g>
<!-- Node15&#45;&gt;Node35 -->
<g id="edge41" class="edge">
<title>Node15&#45;&gt;Node35</title>
<path fill="none" stroke="#191970" d="M1295.0716,-345.6709C1309.3315,-334.4358 1326.7404,-320.7197 1340.8594,-309.5956"/>
<polygon fill="#191970" stroke="#191970" points="1292.7771,-343.0228 1287.0882,-351.9608 1297.1092,-348.5213 1292.7771,-343.0228"/>
</g>
<!-- Node18&#45;&gt;Node14 -->
<g id="edge22" class="edge">
<title>Node18&#45;&gt;Node14</title>
<path fill="none" stroke="#191970" d="M826.3219,-269.2494C848.8085,-257.3495 876.9933,-242.4342 897.6499,-231.5028"/>
<polygon fill="#191970" stroke="#191970" points="824.5881,-266.207 817.3865,-273.978 827.8623,-272.394 824.5881,-266.207"/>
</g>
<!-- Node18&#45;&gt;Node19 -->
<g id="edge23" class="edge">
<title>Node18&#45;&gt;Node19</title>
<path fill="none" stroke="#191970" d="M779.5429,-264.5128C775.317,-253.5709 770.4718,-241.0252 766.7942,-231.5028"/>
<polygon fill="#191970" stroke="#191970" points="776.3306,-265.9104 783.1984,-273.978 782.8606,-263.3885 776.3306,-265.9104"/>
</g>
<!-- Node19&#45;&gt;Node16 -->
<g id="edge35" class="edge">
<title>Node19&#45;&gt;Node16</title>
<path fill="none" stroke="#191970" d="M829.087,-204.7578C838.4474,-203.3627 847.9493,-202.0604 857,-201 1074.3214,-175.5376 1131.5544,-197.0662 1348,-165 1351.0363,-164.5502 1354.1376,-164.0404 1357.2622,-163.4866"/>
<polygon fill="#191970" stroke="#191970" points="828.3682,-201.327 819.0135,-206.3009 829.4282,-208.2463 828.3682,-201.327"/>
</g>
<!-- Node20 -->
<g id="node19" class="node">
<title>Node20</title>
<g id="a_node19"><a xlink:href="csdp__solver_8h.html" target="_top" xlink:title=" ">
<polygon fill="#ffffff" stroke="#000000" points="552,-134.5 552,-164.5 660,-164.5 660,-134.5 552,-134.5"/>
<text text-anchor="start" x="560" y="-152.5" font-family="Helvetica,sans-Serif" font-size="10.00" fill="#000000">drake/solvers/csdp</text>
<text text-anchor="middle" x="606" y="-141.5" font-family="Helvetica,sans-Serif" font-size="10.00" fill="#000000">_solver.h</text>
</a>
</g>
</g>
<!-- Node19&#45;&gt;Node20 -->
<g id="edge24" class="edge">
<title>Node19&#45;&gt;Node20</title>
<path fill="none" stroke="#191970" d="M716.9328,-197.4516C692.8444,-187.0392 663.425,-174.3224 640.9367,-164.6017"/>
<polygon fill="#191970" stroke="#191970" points="715.6471,-200.7088 726.215,-201.4639 718.4246,-194.2834 715.6471,-200.7088"/>
</g>
<!-- Node22 -->
<g id="node21" class="node">
<title>Node22</title>
<g id="a_node21"><a xlink:href="dreal__solver_8h.html" target="_top" xlink:title=" ">
<polygon fill="#ffffff" stroke="#000000" points="678,-134.5 678,-164.5 788,-164.5 788,-134.5 678,-134.5"/>
<text text-anchor="start" x="686" y="-152.5" font-family="Helvetica,sans-Serif" font-size="10.00" fill="#000000">drake/solvers/dreal</text>
<text text-anchor="middle" x="733" y="-141.5" font-family="Helvetica,sans-Serif" font-size="10.00" fill="#000000">_solver.h</text>
</a>
</g>
</g>
<!-- Node19&#45;&gt;Node22 -->
<g id="edge26" class="edge">
<title>Node19&#45;&gt;Node22</title>
<path fill="none" stroke="#191970" d="M750.7203,-191.9021C746.9037,-182.7696 742.6894,-172.6854 739.3285,-164.6432"/>
<polygon fill="#191970" stroke="#191970" points="747.561,-193.4196 754.6464,-201.2967 754.0197,-190.7204 747.561,-193.4196"/>
</g>
<!-- Node23 -->
<g id="node22" class="node">
<title>Node23</title>
<g id="a_node22"><a xlink:href="equality__constrained__qp__solver_8h.html" target="_top" xlink:title=" ">
<polygon fill="#ffffff" stroke="#000000" points="806,-134.5 806,-164.5 946,-164.5 946,-134.5 806,-134.5"/>
<text text-anchor="start" x="814" y="-152.5" font-family="Helvetica,sans-Serif" font-size="10.00" fill="#000000">drake/solvers/equality</text>
<text text-anchor="middle" x="876" y="-141.5" font-family="Helvetica,sans-Serif" font-size="10.00" fill="#000000">_constrained_qp_solver.h</text>
</a>
</g>
</g>
<!-- Node19&#45;&gt;Node23 -->
<g id="edge27" class="edge">
<title>Node19&#45;&gt;Node23</title>
<path fill="none" stroke="#191970" d="M795.5753,-196.3561C813.0083,-186.1995 833.8031,-174.0843 849.88,-164.7177"/>
<polygon fill="#191970" stroke="#191970" points="793.6868,-193.4056 786.8082,-201.4639 797.2107,-199.454 793.6868,-193.4056"/>
</g>
<!-- Node24 -->
<g id="node23" class="node">
<title>Node24</title>
<g id="a_node23"><a xlink:href="gurobi__solver_8h.html" target="_top" xlink:title=" ">
<polygon fill="#ffffff" stroke="#000000" points="964,-134.5 964,-164.5 1080,-164.5 1080,-134.5 964,-134.5"/>
<text text-anchor="start" x="972" y="-152.5" font-family="Helvetica,sans-Serif" font-size="10.00" fill="#000000">drake/solvers/gurobi</text>
<text text-anchor="middle" x="1022" y="-141.5" font-family="Helvetica,sans-Serif" font-size="10.00" fill="#000000">_solver.h</text>
</a>
</g>
</g>
<!-- Node19&#45;&gt;Node24 -->
<g id="edge28" class="edge">
<title>Node19&#45;&gt;Node24</title>
<path fill="none" stroke="#191970" d="M829.0907,-199.0208C870.964,-188.2717 924.0501,-174.6442 963.9294,-164.407"/>
<polygon fill="#191970" stroke="#191970" points="828.0643,-195.6707 819.2486,-201.5473 829.8049,-202.4509 828.0643,-195.6707"/>
</g>
<!-- Node25 -->
<g id="node24" class="node">
<title>Node25</title>
<g id="a_node24"><a xlink:href="ipopt__solver_8h.html" target="_top" xlink:title=" ">
<polygon fill="#ffffff" stroke="#000000" points="1098,-134.5 1098,-164.5 1208,-164.5 1208,-134.5 1098,-134.5"/>
<text text-anchor="start" x="1106" y="-152.5" font-family="Helvetica,sans-Serif" font-size="10.00" fill="#000000">drake/solvers/ipopt</text>
<text text-anchor="middle" x="1153" y="-141.5" font-family="Helvetica,sans-Serif" font-size="10.00" fill="#000000">_solver.h</text>
</a>
</g>
</g>
<!-- Node19&#45;&gt;Node25 -->
<g id="edge29" class="edge">
<title>Node19&#45;&gt;Node25</title>
<path fill="none" stroke="#191970" d="M829.1808,-205.4388C838.5267,-203.938 847.9995,-202.4249 857,-201 960.0616,-184.6839 986.6482,-185.2983 1089,-165 1091.9156,-164.4218 1094.8992,-163.8011 1097.9068,-163.1526"/>
<polygon fill="#191970" stroke="#191970" points="828.4348,-202.0137 819.1177,-207.0577 829.5467,-208.9248 828.4348,-202.0137"/>
</g>
<!-- Node26 -->
<g id="node25" class="node">
<title>Node26</title>
<g id="a_node25"><a xlink:href="linear__system__solver_8h.html" target="_top" xlink:title=" ">
<polygon fill="#ffffff" stroke="#000000" points="1226.5,-134.5 1226.5,-164.5 1339.5,-164.5 1339.5,-134.5 1226.5,-134.5"/>
<text text-anchor="start" x="1234.5" y="-152.5" font-family="Helvetica,sans-Serif" font-size="10.00" fill="#000000">drake/solvers/linear</text>
<text text-anchor="middle" x="1283" y="-141.5" font-family="Helvetica,sans-Serif" font-size="10.00" fill="#000000">_system_solver.h</text>
</a>
</g>
</g>
<!-- Node19&#45;&gt;Node26 -->
<g id="edge30" class="edge">
<title>Node19&#45;&gt;Node26</title>
<path fill="none" stroke="#191970" d="M829.1147,-204.9815C838.4709,-203.5517 847.9641,-202.1802 857,-201 1016.4438,-180.1754 1058.3903,-191.4382 1217,-165 1220.0186,-164.4968 1223.1048,-163.936 1226.2138,-163.3344"/>
<polygon fill="#191970" stroke="#191970" points="828.3867,-201.5526 819.0443,-206.5495 829.4638,-208.4693 828.3867,-201.5526"/>
</g>
<!-- Node19&#45;&gt;Node27 -->
<g id="edge31" class="edge">
<title>Node19&#45;&gt;Node27</title>
<path fill="none" stroke="#191970" d="M829.2528,-204.5006C838.5554,-203.1521 847.9974,-201.9312 857,-201 1202.6356,-165.2488 1292.154,-198.6547 1638,-165 1653.4438,-163.4971 1670.0974,-161.2835 1685.4548,-158.9967"/>
<polygon fill="#191970" stroke="#191970" points="828.609,-201.0579 819.2406,-206.0062 829.65,-207.9801 828.609,-201.0579"/>
</g>
<!-- Node30 -->
<g id="node29" class="node">
<title>Node30</title>
<g id="a_node29"><a xlink:href="nlopt__solver_8h.html" target="_top" xlink:title=" ">
<polygon fill="#ffffff" stroke="#000000" points="0,-134.5 0,-164.5 110,-164.5 110,-134.5 0,-134.5"/>
<text text-anchor="start" x="8" y="-152.5" font-family="Helvetica,sans-Serif" font-size="10.00" fill="#000000">drake/solvers/nlopt</text>
<text text-anchor="middle" x="55" y="-141.5" font-family="Helvetica,sans-Serif" font-size="10.00" fill="#000000">_solver.h</text>
</a>
</g>
</g>
<!-- Node19&#45;&gt;Node30 -->
<g id="edge36" class="edge">
<title>Node19&#45;&gt;Node30</title>
<path fill="none" stroke="#191970" d="M692.3339,-214.5398C574.4159,-210.3839 326.1144,-198.1753 119,-165 116.065,-164.5299 113.066,-163.9954 110.0463,-163.4144"/>
<polygon fill="#191970" stroke="#191970" points="692.5351,-218.0487 702.6495,-214.8944 692.7757,-211.0528 692.5351,-218.0487"/>
</g>
<!-- Node31 -->
<g id="node30" class="node">
<title>Node31</title>
<g id="a_node30"><a xlink:href="osqp__solver_8h.html" target="_top" xlink:title=" ">
<polygon fill="#ffffff" stroke="#000000" points="128.5,-134.5 128.5,-164.5 237.5,-164.5 237.5,-134.5 128.5,-134.5"/>
<text text-anchor="start" x="136.5" y="-152.5" font-family="Helvetica,sans-Serif" font-size="10.00" fill="#000000">drake/solvers/osqp</text>
<text text-anchor="middle" x="183" y="-141.5" font-family="Helvetica,sans-Serif" font-size="10.00" fill="#000000">_solver.h</text>
</a>
</g>
</g>
<!-- Node19&#45;&gt;Node31 -->
<g id="edge37" class="edge">
<title>Node19&#45;&gt;Node31</title>
<path fill="none" stroke="#191970" d="M692.6852,-212.659C593.8327,-206.4222 405.3936,-191.9834 247,-165 243.9571,-164.4816 240.8442,-163.9002 237.7098,-163.2747"/>
<polygon fill="#191970" stroke="#191970" points="692.6402,-216.1628 702.8382,-213.2905 693.0748,-209.1763 692.6402,-216.1628"/>
</g>
<!-- Node32 -->
<g id="node31" class="node">
<title>Node32</title>
<g id="a_node31"><a xlink:href="scs__solver_8h.html" target="_top" xlink:title=" ">
<polygon fill="#ffffff" stroke="#000000" points="256,-140 256,-159 402,-159 402,-140 256,-140"/>
<text text-anchor="middle" x="329" y="-147" font-family="Helvetica,sans-Serif" font-size="10.00" fill="#000000">drake/solvers/scs_solver.h</text>
</a>
</g>
</g>
<!-- Node19&#45;&gt;Node32 -->
<g id="edge38" class="edge">
<title>Node19&#45;&gt;Node32</title>
<path fill="none" stroke="#191970" d="M692.8796,-207.3134C622.2539,-197.5928 508.7081,-181.4161 411,-165 400.1412,-163.1756 388.5027,-161.0683 377.5046,-159.007"/>
<polygon fill="#191970" stroke="#191970" points="692.5983,-210.8075 702.9813,-208.7 693.5502,-203.8725 692.5983,-210.8075"/>
</g>
<!-- Node33 -->
<g id="node32" class="node">
<title>Node33</title>
<g id="a_node32"><a xlink:href="snopt__solver_8h.html" target="_top" xlink:title=" ">
<polygon fill="#ffffff" stroke="#000000" points="420.5,-134.5 420.5,-164.5 533.5,-164.5 533.5,-134.5 420.5,-134.5"/>
<text text-anchor="start" x="428.5" y="-152.5" font-family="Helvetica,sans-Serif" font-size="10.00" fill="#000000">drake/solvers/snopt</text>
<text text-anchor="middle" x="477" y="-141.5" font-family="Helvetica,sans-Serif" font-size="10.00" fill="#000000">_solver.h</text>
</a>
</g>
</g>
<!-- Node19&#45;&gt;Node33 -->
<g id="edge39" class="edge">
<title>Node19&#45;&gt;Node33</title>
<path fill="none" stroke="#191970" d="M693.0202,-200.4625C644.3274,-188.9751 579.5164,-173.6852 533.6255,-162.8588"/>
<polygon fill="#191970" stroke="#191970" points="692.3066,-203.8902 702.843,-202.7799 693.9139,-197.0772 692.3066,-203.8902"/>
</g>
<!-- Node19&#45;&gt;Node34 -->
<g id="edge40" class="edge">
<title>Node19&#45;&gt;Node34</title>
<path fill="none" stroke="#191970" d="M829.2629,-204.5951C838.5639,-203.2318 848.0028,-201.9816 857,-201 1134.9202,-170.6791 1207.7161,-200.6742 1485,-165 1488.2459,-164.5824 1491.56,-164.1069 1494.9009,-163.5879"/>
<polygon fill="#191970" stroke="#191970" points="828.6149,-201.1532 819.2518,-206.1114 829.6632,-208.0743 828.6149,-201.1532"/>
</g>
<!-- Node21 -->
<g id="node20" class="node">
<title>Node21</title>
<g id="a_node20"><a xlink:href="csdp__solver__internal_8h.html" target="_top" xlink:title=" ">
<polygon fill="#ffffff" stroke="#000000" points="1079,-67.5 1079,-97.5 1187,-97.5 1187,-67.5 1079,-67.5"/>
<text text-anchor="start" x="1087" y="-85.5" font-family="Helvetica,sans-Serif" font-size="10.00" fill="#000000">drake/solvers/csdp</text>
<text text-anchor="middle" x="1133" y="-74.5" font-family="Helvetica,sans-Serif" font-size="10.00" fill="#000000">_solver_internal.h</text>
</a>
</g>
</g>
<!-- Node20&#45;&gt;Node21 -->
<g id="edge25" class="edge">
<title>Node20&#45;&gt;Node21</title>
<path fill="none" stroke="#191970" d="M670.2705,-133.9125C823.5414,-107.2199 993.641,-92.536 1078.7344,-86.2107"/>
<polygon fill="#191970" stroke="#191970" points="669.4405,-130.5048 660.2002,-135.6881 670.6561,-137.3984 669.4405,-130.5048"/>
</g>
<!-- Node28 -->
<g id="node27" class="node">
<title>Node28</title>
<g id="a_node27"><a xlink:href="rod2d_8h.html" target="_top" xlink:title=" ">
<polygon fill="#ffffff" stroke="#000000" points="1679,-.5 1679,-30.5 1805,-30.5 1805,-.5 1679,-.5"/>
<text text-anchor="start" x="1687" y="-18.5" font-family="Helvetica,sans-Serif" font-size="10.00" fill="#000000">drake/examples/rod2d</text>
<text text-anchor="middle" x="1742" y="-7.5" font-family="Helvetica,sans-Serif" font-size="10.00" fill="#000000">/rod2d.h</text>
</a>
</g>
</g>
<!-- Node27&#45;&gt;Node28 -->
<g id="edge32" class="edge">
<title>Node27&#45;&gt;Node28</title>
<path fill="none" stroke="#191970" d="M1723.1428,-126.2678C1717.4433,-117.8686 1711.9243,-107.9839 1709,-98 1705.1272,-84.7777 1705.1272,-80.2223 1709,-67 1712.9401,-53.548 1721.5907,-40.2761 1729.0465,-30.5751"/>
<polygon fill="#191970" stroke="#191970" points="1720.3481,-128.376 1729.0465,-134.4249 1726.0188,-124.2719 1720.3481,-128.376"/>
</g>
<!-- Node29 -->
<g id="node28" class="node">
<title>Node29</title>
<g id="a_node28"><a xlink:href="constraint__solver_8h.html" target="_top" xlink:title=" ">
<polygon fill="#ffffff" stroke="#000000" points="1718.5,-67.5 1718.5,-97.5 1867.5,-97.5 1867.5,-67.5 1718.5,-67.5"/>
<text text-anchor="start" x="1726.5" y="-85.5" font-family="Helvetica,sans-Serif" font-size="10.00" fill="#000000">drake/multibody/constraint</text>
<text text-anchor="middle" x="1793" y="-74.5" font-family="Helvetica,sans-Serif" font-size="10.00" fill="#000000">/constraint_solver.h</text>
</a>
</g>
</g>
<!-- Node27&#45;&gt;Node29 -->
<g id="edge33" class="edge">
<title>Node27&#45;&gt;Node29</title>
<path fill="none" stroke="#191970" d="M1759.8404,-126.0626C1767.0193,-116.6315 1775.0909,-106.0276 1781.4731,-97.6432"/>
<polygon fill="#191970" stroke="#191970" points="1756.8446,-124.2197 1753.5727,-134.2967 1762.4146,-128.4595 1756.8446,-124.2197"/>
</g>
<!-- Node29&#45;&gt;Node28 -->
<g id="edge34" class="edge">
<title>Node29&#45;&gt;Node28</title>
<path fill="none" stroke="#191970" d="M1775.1596,-59.0626C1767.9807,-49.6315 1759.9091,-39.0276 1753.5269,-30.6432"/>
<polygon fill="#191970" stroke="#191970" points="1772.5854,-61.4595 1781.4273,-67.2967 1778.1554,-57.2197 1772.5854,-61.4595"/>
</g>
<!-- Node36 -->
<g id="node35" class="node">
<title>Node36</title>
<g id="a_node35"><a xlink:href="direct__collocation_8h.html" target="_top" xlink:title=" ">
<polygon fill="#ffffff" stroke="#000000" points="1158,-201.5 1158,-231.5 1340,-231.5 1340,-201.5 1158,-201.5"/>
<text text-anchor="start" x="1166" y="-219.5" font-family="Helvetica,sans-Serif" font-size="10.00" fill="#000000">drake/systems/trajectory</text>
<text text-anchor="middle" x="1249" y="-208.5" font-family="Helvetica,sans-Serif" font-size="10.00" fill="#000000">_optimization/direct_collocation.h</text>
</a>
</g>
</g>
<!-- Node35&#45;&gt;Node36 -->
<g id="edge42" class="edge">
<title>Node35&#45;&gt;Node36</title>
<path fill="none" stroke="#191970" d="M1324.749,-263.0407C1307.5865,-252.4959 1288.3622,-240.6844 1273.5751,-231.5991"/>
<polygon fill="#191970" stroke="#191970" points="1323.149,-266.1655 1333.5016,-268.4183 1326.8135,-260.2013 1323.149,-266.1655"/>
</g>
<!-- Node37 -->
<g id="node36" class="node">
<title>Node37</title>
<g id="a_node36"><a xlink:href="direct__transcription_8h.html" target="_top" xlink:title=" ">
<polygon fill="#ffffff" stroke="#000000" points="1358,-201.5 1358,-231.5 1548,-231.5 1548,-201.5 1358,-201.5"/>
<text text-anchor="start" x="1366" y="-219.5" font-family="Helvetica,sans-Serif" font-size="10.00" fill="#000000">drake/systems/trajectory</text>
<text text-anchor="middle" x="1453" y="-208.5" font-family="Helvetica,sans-Serif" font-size="10.00" fill="#000000">_optimization/direct_transcription.h</text>
</a>
</g>
</g>
<!-- Node35&#45;&gt;Node37 -->
<g id="edge43" class="edge">
<title>Node35&#45;&gt;Node37</title>
<path fill="none" stroke="#191970" d="M1399.176,-261.8749C1411.3254,-251.6327 1424.7078,-240.351 1435.0893,-231.5991"/>
<polygon fill="#191970" stroke="#191970" points="1396.8039,-259.2969 1391.4141,-268.4183 1401.3157,-264.6488 1396.8039,-259.2969"/>
</g>
<!-- Node38&#45;&gt;Node39 -->
<g id="edge45" class="edge">
<title>Node38&#45;&gt;Node39</title>
<path fill="none" stroke="#191970" d="M2484.5408,-345.6434C2424.3418,-329.2267 2365.117,-314.5606 2321.5983,-304.0611"/>
<polygon fill="#191970" stroke="#191970" points="2483.639,-349.0252 2494.2084,-348.2928 2485.4891,-342.2741 2483.639,-349.0252"/>
</g>
<!-- Node42&#45;&gt;Node21 -->
<g id="edge51" class="edge">
<title>Node42&#45;&gt;Node21</title>
<path fill="none" stroke="#191970" d="M1659.7259,-191.1644C1658.7872,-172.4736 1654.187,-147.9579 1638,-134 1604.3787,-105.0087 1310.8164,-89.7497 1187.3469,-84.5666"/>
<polygon fill="#191970" stroke="#191970" points="1656.2303,-191.439 1659.9155,-201.3723 1663.2291,-191.309 1656.2303,-191.439"/>
</g>
</g>
</svg>
