<?xml version="1.0" encoding="UTF-8" standalone="no"?>
<!DOCTYPE svg PUBLIC "-//W3C//DTD SVG 1.1//EN"
 "http://www.w3.org/Graphics/SVG/1.1/DTD/svg11.dtd">
<!-- Generated by graphviz version 2.40.1 (20161225.0304)
 -->
<!-- Title: drake/multibody/optimization/contact_wrench_evaluator.h Pages: 1 -->
<!--zoomable 195 -->
<svg id="main" version="1.1" xmlns="http://www.w3.org/2000/svg" xmlns:xlink="http://www.w3.org/1999/xlink" xml:space="preserve" onload="init(evt)">
<style type="text/css"><![CDATA[
.edge:hover path { stroke: red; }
.edge:hover polygon { stroke: red; fill: red; }
]]></style>
<script type="text/javascript"><![CDATA[
var edges = document.getElementsByTagName('g');
if (edges && edges.length) {
  for (var i=0;i<edges.length;i++) {
    if (edges[i].id.substr(0,4)=='edge') {
      edges[i].setAttribute('class','edge');
    }
  }
}
]]></script>
        <defs>
                <circle id="rim" cx="0" cy="0" r="7"/>
                <circle id="rim2" cx="0" cy="0" r="3.5"/>
                <g id="zoomPlus">
                        <use xlink:href="#rim" fill="#404040">
                                <set attributeName="fill" to="#808080" begin="zoomplus.mouseover" end="zoomplus.mouseout"/>
                        </use>
                        <path d="M-4,0h8M0,-4v8" fill="none" stroke="white" stroke-width="1.5" pointer-events="none"/>
                </g>
                <g id="zoomMin">
                        <use xlink:href="#rim" fill="#404040">
                                <set attributeName="fill" to="#808080" begin="zoomminus.mouseover" end="zoomminus.mouseout"/>
                        </use>
                        <path d="M-4,0h8" fill="none" stroke="white" stroke-width="1.5" pointer-events="none"/>
                </g>
                <g id="dirArrow">
                        <path fill="none" stroke="white" stroke-width="1.5" d="M0,-3.0v7 M-2.5,-0.5L0,-3.0L2.5,-0.5"/>
                </g>
               <g id="resetDef">
                       <use xlink:href="#rim2" fill="#404040">
                               <set attributeName="fill" to="#808080" begin="reset.mouseover" end="reset.mouseout"/>
                       </use>
               </g>
        </defs>

<script type="text/javascript">
var viewWidth = 886;
var viewHeight = 195;
var sectionId = 'dynsection-1';
</script>
<script xlink:href="svgpan.js"/>
<svg id="graph" class="graph">
<g id="viewport">
<title>drake/multibody/optimization/contact_wrench_evaluator.h</title>
<polygon fill="#ffffff" stroke="transparent" points="-4,4 -4,-191 882,-191 882,4 -4,4"/>
<!-- Node240 -->
<g id="node1" class="node">
<title>Node240</title>
<g id="a_node1"><a xlink:title=" ">
<polygon fill="#bfbfbf" stroke="#000000" points="346.5,-156.5 346.5,-186.5 507.5,-186.5 507.5,-156.5 346.5,-156.5"/>
<text text-anchor="start" x="354.5" y="-174.5" font-family="Helvetica,sans-Serif" font-size="10.00" fill="#000000">drake/multibody/optimization</text>
<text text-anchor="middle" x="427" y="-163.5" font-family="Helvetica,sans-Serif" font-size="10.00" fill="#000000">/contact_wrench_evaluator.h</text>
</a>
</g>
</g>
<!-- Node241 -->
<g id="node2" class="node">
<title>Node241</title>
<g id="a_node2"><a xlink:href="manipulator__equation__constraint_8h.html" target="_top" xlink:title=" ">
<polygon fill="#ffffff" stroke="#000000" points="0,-84 0,-114 190,-114 190,-84 0,-84"/>
<text text-anchor="start" x="8" y="-102" font-family="Helvetica,sans-Serif" font-size="10.00" fill="#000000">drake/multibody/optimization</text>
<text text-anchor="middle" x="95" y="-91" font-family="Helvetica,sans-Serif" font-size="10.00" fill="#000000">/manipulator_equation_constraint.h</text>
</a>
</g>
</g>
<!-- Node240&#45;&gt;Node241 -->
<g id="edge1" class="edge">
<title>Node240&#45;&gt;Node241</title>
<path fill="none" stroke="#191970" d="M348.3088,-154.3159C292.1784,-142.0585 217.4316,-125.7358 163.7025,-114.0028"/>
<polygon fill="#191970" stroke="#191970" points="347.6929,-157.7638 358.2094,-156.478 349.1864,-150.925 347.6929,-157.7638"/>
</g>
<!-- Node242 -->
<g id="node3" class="node">
<title>Node242</title>
<g id="a_node3"><a xlink:href="sliding__friction__complementarity__constraint_8h.html" target="_top" xlink:title=" ">
<polygon fill="#ffffff" stroke="#000000" points="432.5,-.5 432.5,-41.5 613.5,-41.5 613.5,-.5 432.5,-.5"/>
<text text-anchor="start" x="440.5" y="-29.5" font-family="Helvetica,sans-Serif" font-size="10.00" fill="#000000">drake/multibody/optimization</text>
<text text-anchor="start" x="440.5" y="-18.5" font-family="Helvetica,sans-Serif" font-size="10.00" fill="#000000">/sliding_friction_complementarity</text>
<text text-anchor="middle" x="523" y="-7.5" font-family="Helvetica,sans-Serif" font-size="10.00" fill="#000000">_constraint.h</text>
</a>
</g>
</g>
<!-- Node240&#45;&gt;Node242 -->
<g id="edge2" class="edge">
<title>Node240&#45;&gt;Node242</title>
<path fill="none" stroke="#191970" d="M336.4582,-157.6955C293.9102,-149.1718 249.7392,-136.6519 237,-120 225.6579,-105.1743 225.1607,-92.4317 237,-78 261.4449,-48.2024 357.9719,-33.6868 432.1965,-26.8153"/>
<polygon fill="#191970" stroke="#191970" points="335.8724,-161.147 346.3558,-159.6146 337.2049,-154.275 335.8724,-161.147"/>
</g>
<!-- Node243 -->
<g id="node4" class="node">
<title>Node243</title>
<g id="a_node4"><a xlink:href="static__equilibrium__constraint_8h.html" target="_top" xlink:title=" ">
<polygon fill="#ffffff" stroke="#000000" points="246,-84 246,-114 416,-114 416,-84 246,-84"/>
<text text-anchor="start" x="254" y="-102" font-family="Helvetica,sans-Serif" font-size="10.00" fill="#000000">drake/multibody/optimization</text>
<text text-anchor="middle" x="331" y="-91" font-family="Helvetica,sans-Serif" font-size="10.00" fill="#000000">/static_equilibrium_constraint.h</text>
</a>
</g>
</g>
<!-- Node240&#45;&gt;Node243 -->
<g id="edge3" class="edge">
<title>Node240&#45;&gt;Node243</title>
<path fill="none" stroke="#191970" d="M398.938,-150.3074C383.5189,-138.6627 364.7614,-124.4969 350.8658,-114.0028"/>
<polygon fill="#191970" stroke="#191970" points="397.0194,-153.2444 407.1087,-156.478 401.238,-147.6583 397.0194,-153.2444"/>
</g>
<!-- Node244 -->
<g id="node5" class="node">
<title>Node244</title>
<g id="a_node5"><a xlink:href="static__equilibrium__problem_8h.html" target="_top" xlink:title=" ">
<polygon fill="#ffffff" stroke="#000000" points="716,-6 716,-36 878,-36 878,-6 716,-6"/>
<text text-anchor="start" x="724" y="-24" font-family="Helvetica,sans-Serif" font-size="10.00" fill="#000000">drake/multibody/optimization</text>
<text text-anchor="middle" x="797" y="-13" font-family="Helvetica,sans-Serif" font-size="10.00" fill="#000000">/static_equilibrium_problem.h</text>
</a>
</g>
</g>
<!-- Node240&#45;&gt;Node244 -->
<g id="edge4" class="edge">
<title>Node240&#45;&gt;Node244</title>
<path fill="none" stroke="#191970" d="M517.8703,-166.547C633.7702,-159.2842 821.8311,-143.9512 843,-120 865.2154,-94.8648 834.7211,-57.1607 813.7848,-36.2838"/>
<polygon fill="#191970" stroke="#191970" points="517.3453,-163.0726 507.5801,-167.1825 517.7769,-170.0593 517.3453,-163.0726"/>
</g>
<!-- Node245 -->
<g id="node6" class="node">
<title>Node245</title>
<g id="a_node6"><a xlink:href="static__friction__cone__complementarity__constraint_8h.html" target="_top" xlink:title=" ">
<polygon fill="#ffffff" stroke="#000000" points="630,-78.5 630,-119.5 834,-119.5 834,-78.5 630,-78.5"/>
<text text-anchor="start" x="638" y="-107.5" font-family="Helvetica,sans-Serif" font-size="10.00" fill="#000000">drake/multibody/optimization</text>
<text text-anchor="start" x="638" y="-96.5" font-family="Helvetica,sans-Serif" font-size="10.00" fill="#000000">/static_friction_cone_complementarity</text>
<text text-anchor="middle" x="732" y="-85.5" font-family="Helvetica,sans-Serif" font-size="10.00" fill="#000000">_constraint.h</text>
</a>
</g>
</g>
<!-- Node240&#45;&gt;Node245 -->
<g id="edge5" class="edge">
<title>Node240&#45;&gt;Node245</title>
<path fill="none" stroke="#191970" d="M500.1965,-154.1008C543.9763,-143.6942 599.8374,-130.4157 645.7523,-119.5015"/>
<polygon fill="#191970" stroke="#191970" points="499.1157,-150.7601 490.1962,-156.478 500.7346,-157.5704 499.1157,-150.7601"/>
</g>
<!-- Node246 -->
<g id="node7" class="node">
<title>Node246</title>
<g id="a_node7"><a xlink:href="static__friction__cone__constraint_8h.html" target="_top" xlink:title=" ">
<polygon fill="#ffffff" stroke="#000000" points="434,-84 434,-114 612,-114 612,-84 434,-84"/>
<text text-anchor="start" x="442" y="-102" font-family="Helvetica,sans-Serif" font-size="10.00" fill="#000000">drake/multibody/optimization</text>
<text text-anchor="middle" x="523" y="-91" font-family="Helvetica,sans-Serif" font-size="10.00" fill="#000000">/static_friction_cone_constraint.h</text>
</a>
</g>
</g>
<!-- Node240&#45;&gt;Node246 -->
<g id="edge8" class="edge">
<title>Node240&#45;&gt;Node246</title>
<path fill="none" stroke="#191970" d="M455.062,-150.3074C470.4811,-138.6627 489.2386,-124.4969 503.1342,-114.0028"/>
<polygon fill="#191970" stroke="#191970" points="452.762,-147.6583 446.8913,-156.478 456.9806,-153.2444 452.762,-147.6583"/>
</g>
<!-- Node245&#45;&gt;Node242 -->
<g id="edge6" class="edge">
<title>Node245&#45;&gt;Node242</title>
<path fill="none" stroke="#191970" d="M667.319,-74.8607C638.7473,-64.1976 605.5059,-51.7917 578.1322,-41.5757"/>
<polygon fill="#191970" stroke="#191970" points="666.2217,-78.1869 676.8143,-78.4044 668.6693,-71.6287 666.2217,-78.1869"/>
</g>
<!-- Node245&#45;&gt;Node244 -->
<g id="edge7" class="edge">
<title>Node245&#45;&gt;Node244</title>
<path fill="none" stroke="#191970" d="M755.861,-70.3668C765.4838,-58.8194 776.1962,-45.9646 784.2768,-36.2679"/>
<polygon fill="#191970" stroke="#191970" points="753.1319,-68.1745 749.4188,-78.0974 758.5095,-72.6559 753.1319,-68.1745"/>
</g>
<!-- Node246&#45;&gt;Node242 -->
<g id="edge9" class="edge">
<title>Node246&#45;&gt;Node242</title>
<path fill="none" stroke="#191970" d="M523,-73.8044C523,-63.3919 523,-51.4721 523,-41.5956"/>
<polygon fill="#191970" stroke="#191970" points="519.5001,-73.9608 523,-83.9608 526.5001,-73.9608 519.5001,-73.9608"/>
</g>
</g>
</svg>
        <g id="navigator" transform="translate(0 0)" fill="#404254">
                <rect fill="#f2f5e9" fill-opacity="0.5" stroke="#606060" stroke-width=".5" x="0" y="0" width="60" height="60"/>
                <use id="zoomplus" xlink:href="#zoomPlus" x="17" y="9" onmousedown="handleZoom(evt,'in')"/>
                <use id="zoomminus" xlink:href="#zoomMin" x="42" y="9" onmousedown="handleZoom(evt,'out')"/>
                <use id="reset" xlink:href="#resetDef" x="30" y="36" onmousedown="handleReset()"/>
                <g id="arrowUp" xlink:href="#dirArrow" transform="translate(30 24)" onmousedown="handlePan(0,-1)">
                  <use xlink:href="#rim" fill="#404040">
                        <set attributeName="fill" to="#808080" begin="arrowUp.mouseover" end="arrowUp.mouseout"/>
                  </use>
                  <path fill="none" stroke="white" stroke-width="1.5" d="M0,-3.0v7 M-2.5,-0.5L0,-3.0L2.5,-0.5"/>
                </g>
                <g id="arrowRight" xlink:href="#dirArrow" transform="rotate(90) translate(36 -43)" onmousedown="handlePan(1,0)">
                  <use xlink:href="#rim" fill="#404040">
                        <set attributeName="fill" to="#808080" begin="arrowRight.mouseover" end="arrowRight.mouseout"/>
                  </use>
                  <path fill="none" stroke="white" stroke-width="1.5" d="M0,-3.0v7 M-2.5,-0.5L0,-3.0L2.5,-0.5"/>
                </g>
                <g id="arrowDown" xlink:href="#dirArrow" transform="rotate(180) translate(-30 -48)" onmousedown="handlePan(0,1)">
                  <use xlink:href="#rim" fill="#404040">
                        <set attributeName="fill" to="#808080" begin="arrowDown.mouseover" end="arrowDown.mouseout"/>
                  </use>
                  <path fill="none" stroke="white" stroke-width="1.5" d="M0,-3.0v7 M-2.5,-0.5L0,-3.0L2.5,-0.5"/>
                </g>
                <g id="arrowLeft" xlink:href="#dirArrow" transform="rotate(270) translate(-36 17)" onmousedown="handlePan(-1,0)">
                  <use xlink:href="#rim" fill="#404040">
                        <set attributeName="fill" to="#808080" begin="arrowLeft.mouseover" end="arrowLeft.mouseout"/>
                  </use>
                  <path fill="none" stroke="white" stroke-width="1.5" d="M0,-3.0v7 M-2.5,-0.5L0,-3.0L2.5,-0.5"/>
                </g>
        </g>
        <svg viewBox="0 0 15 15" width="100%" height="30px" preserveAspectRatio="xMaxYMin meet">
         <g id="arrow_out" transform="scale(0.3 0.3)">
          <a xlink:href="contact__wrench__evaluator_8h__dep__incl_org.svg" target="_base">
           <rect id="button" ry="5" rx="5" y="6" x="6" height="38" width="38"
                fill="#f2f5e9" fill-opacity="0.5" stroke="#606060" stroke-width="1.0"/>
           <path id="arrow"
             d="M 11.500037,31.436501 C 11.940474,20.09759 22.043105,11.32322 32.158766,21.979434 L 37.068811,17.246167 C 37.068811,17.246167 37.088388,32 37.088388,32 L 22.160133,31.978069 C 22.160133,31.978069 26.997745,27.140456 26.997745,27.140456 C 18.528582,18.264221 13.291696,25.230495 11.500037,31.436501 z"
             style="fill:#404040;"/>
          </a>
         </g>
        </svg>
</svg>
