<?xml version="1.0" encoding="UTF-8" standalone="no"?>
<!DOCTYPE svg PUBLIC "-//W3C//DTD SVG 1.1//EN"
 "http://www.w3.org/Graphics/SVG/1.1/DTD/svg11.dtd">
<!-- Generated by graphviz version 2.40.1 (20161225.0304)
 -->
<!-- Title: drake/bindings/pydrake/common/cpp_param_pybind.h Pages: 1 -->
<svg width="456pt" height="184pt"
 viewBox="0.00 0.00 456.00 184.00" xmlns="http://www.w3.org/2000/svg" xmlns:xlink="http://www.w3.org/1999/xlink">
<g id="graph0" class="graph" transform="scale(1 1) rotate(0) translate(4 180)">
<title>drake/bindings/pydrake/common/cpp_param_pybind.h</title>
<polygon fill="#ffffff" stroke="transparent" points="-4,4 -4,-180 452,-180 452,4 -4,4"/>
<!-- Node20 -->
<g id="node1" class="node">
<title>Node20</title>
<g id="a_node1"><a xlink:title="Provides a mechanism to map C++ types to canonical Python types.">
<polygon fill="#bfbfbf" stroke="#000000" points="217.5,-145.5 217.5,-175.5 384.5,-175.5 384.5,-145.5 217.5,-145.5"/>
<text text-anchor="start" x="225.5" y="-163.5" font-family="Helvetica,sans-Serif" font-size="10.00" fill="#000000">drake/bindings/pydrake</text>
<text text-anchor="middle" x="301" y="-152.5" font-family="Helvetica,sans-Serif" font-size="10.00" fill="#000000">/common/cpp_param_pybind.h</text>
</a>
</g>
</g>
<!-- Node21 -->
<g id="node2" class="node">
<title>Node21</title>
<g id="a_node2"><a xlink:href="cpp__template__pybind_8h.html" target="_top" xlink:title=" ">
<polygon fill="#ffffff" stroke="#000000" points="152.5,-78.5 152.5,-108.5 331.5,-108.5 331.5,-78.5 152.5,-78.5"/>
<text text-anchor="start" x="160.5" y="-96.5" font-family="Helvetica,sans-Serif" font-size="10.00" fill="#000000">drake/bindings/pydrake</text>
<text text-anchor="middle" x="242" y="-85.5" font-family="Helvetica,sans-Serif" font-size="10.00" fill="#000000">/common/cpp_template_pybind.h</text>
</a>
</g>
</g>
<!-- Node20&#45;&gt;Node21 -->
<g id="edge1" class="edge">
<title>Node20&#45;&gt;Node21</title>
<path fill="none" stroke="#191970" d="M280.8682,-137.6385C272.4381,-128.0653 262.869,-117.1987 255.335,-108.6432"/>
<polygon fill="#191970" stroke="#191970" points="278.3764,-140.1048 287.612,-145.2967 283.6299,-135.4786 278.3764,-140.1048"/>
</g>
<!-- Node23 -->
<g id="node4" class="node">
<title>Node23</title>
<g id="a_node4"><a xlink:href="value__pybind_8h.html" target="_top" xlink:title="Helpers for defining instantiations of drake::Value&lt;&gt;.">
<polygon fill="#ffffff" stroke="#000000" points="308,-6 308,-36 448,-36 448,-6 308,-6"/>
<text text-anchor="start" x="316" y="-24" font-family="Helvetica,sans-Serif" font-size="10.00" fill="#000000">drake/bindings/pydrake</text>
<text text-anchor="middle" x="378" y="-13" font-family="Helvetica,sans-Serif" font-size="10.00" fill="#000000">/common/value_pybind.h</text>
</a>
</g>
</g>
<!-- Node20&#45;&gt;Node23 -->
<g id="edge5" class="edge">
<title>Node20&#45;&gt;Node23</title>
<path fill="none" stroke="#191970" d="M320.7739,-137.7182C327.7031,-129.0778 335.1963,-118.9237 341,-109 355.1399,-84.8224 366.7355,-54.2158 372.9839,-36.2053"/>
<polygon fill="#191970" stroke="#191970" points="318.035,-135.5382 314.3768,-145.4814 323.4373,-139.9897 318.035,-135.5382"/>
</g>
<!-- Node22 -->
<g id="node3" class="node">
<title>Node22</title>
<g id="a_node3"><a xlink:href="default__scalars__pybind_8h.html" target="_top" xlink:title="Helpers for defining scalars and values.">
<polygon fill="#ffffff" stroke="#000000" points="0,-.5 0,-41.5 140,-41.5 140,-.5 0,-.5"/>
<text text-anchor="start" x="8" y="-29.5" font-family="Helvetica,sans-Serif" font-size="10.00" fill="#000000">drake/bindings/pydrake</text>
<text text-anchor="start" x="8" y="-18.5" font-family="Helvetica,sans-Serif" font-size="10.00" fill="#000000">/common/default_scalars</text>
<text text-anchor="middle" x="70" y="-7.5" font-family="Helvetica,sans-Serif" font-size="10.00" fill="#000000">_pybind.h</text>
</a>
</g>
</g>
<!-- Node21&#45;&gt;Node22 -->
<g id="edge2" class="edge">
<title>Node21&#45;&gt;Node22</title>
<path fill="none" stroke="#191970" d="M197.0891,-74.5695C172.9955,-64.4138 143.2773,-51.8872 118.6381,-41.5015"/>
<polygon fill="#191970" stroke="#191970" points="195.7872,-77.8189 206.3615,-78.478 198.5061,-71.3685 195.7872,-77.8189"/>
</g>
<!-- Node21&#45;&gt;Node23 -->
<g id="edge3" class="edge">
<title>Node21&#45;&gt;Node23</title>
<path fill="none" stroke="#191970" d="M279.0494,-73.7494C301.3719,-61.8495 329.3511,-46.9342 349.8568,-36.0028"/>
<polygon fill="#191970" stroke="#191970" points="277.3572,-70.6851 270.1793,-78.478 280.6502,-76.8623 277.3572,-70.6851"/>
</g>
<!-- Node24 -->
<g id="node5" class="node">
<title>Node24</title>
<g id="a_node5"><a xlink:href="lcm__pybind_8h.html" target="_top" xlink:title="Helpers for defining C++ LCM type serializers.">
<polygon fill="#ffffff" stroke="#000000" points="158.5,-6 158.5,-36 289.5,-36 289.5,-6 158.5,-6"/>
<text text-anchor="start" x="166.5" y="-24" font-family="Helvetica,sans-Serif" font-size="10.00" fill="#000000">drake/bindings/pydrake</text>
<text text-anchor="middle" x="224" y="-13" font-family="Helvetica,sans-Serif" font-size="10.00" fill="#000000">/systems/lcm_pybind.h</text>
</a>
</g>
</g>
<!-- Node21&#45;&gt;Node24 -->
<g id="edge4" class="edge">
<title>Node21&#45;&gt;Node24</title>
<path fill="none" stroke="#191970" d="M235.8371,-68.6774C233.1403,-57.8151 230.0649,-45.4281 227.7248,-36.0028"/>
<polygon fill="#191970" stroke="#191970" points="232.4638,-69.616 238.2704,-78.478 239.2576,-67.9292 232.4638,-69.616"/>
</g>
</g>
</svg>
