<?xml version="1.0" encoding="UTF-8" standalone="no"?>
<!DOCTYPE svg PUBLIC "-//W3C//DTD SVG 1.1//EN"
 "http://www.w3.org/Graphics/SVG/1.1/DTD/svg11.dtd">
<!-- Generated by graphviz version 2.40.1 (20161225.0304)
 -->
<!-- Title: drake/bindings/pydrake/common/cpp_param_pybind.h Pages: 1 -->
<svg width="1098pt" height="296pt"
 viewBox="0.00 0.00 1098.00 296.00" xmlns="http://www.w3.org/2000/svg" xmlns:xlink="http://www.w3.org/1999/xlink">
<g id="graph0" class="graph" transform="scale(1 1) rotate(0) translate(4 292)">
<title>drake/bindings/pydrake/common/cpp_param_pybind.h</title>
<polygon fill="#ffffff" stroke="transparent" points="-4,4 -4,-292 1094,-292 1094,4 -4,4"/>
<!-- Node0 -->
<g id="node1" class="node">
<title>Node0</title>
<g id="a_node1"><a xlink:title="Provides a mechanism to map C++ types to canonical Python types.">
<polygon fill="#bfbfbf" stroke="#000000" points="226,-257.5 226,-287.5 393,-287.5 393,-257.5 226,-257.5"/>
<text text-anchor="start" x="234" y="-275.5" font-family="Helvetica,sans-Serif" font-size="10.00" fill="#000000">drake/bindings/pydrake</text>
<text text-anchor="middle" x="309.5" y="-264.5" font-family="Helvetica,sans-Serif" font-size="10.00" fill="#000000">/common/cpp_param_pybind.h</text>
</a>
</g>
</g>
<!-- Node1 -->
<g id="node2" class="node">
<title>Node1</title>
<g id="a_node2"><a xlink:title=" ">
<polygon fill="#ffffff" stroke="#bfbfbf" points="198.5,-129 198.5,-148 242.5,-148 242.5,-129 198.5,-129"/>
<text text-anchor="middle" x="220.5" y="-136" font-family="Helvetica,sans-Serif" font-size="10.00" fill="#000000">string</text>
</a>
</g>
</g>
<!-- Node0&#45;&gt;Node1 -->
<g id="edge1" class="edge">
<title>Node0&#45;&gt;Node1</title>
<path fill="none" stroke="#191970" d="M299.4636,-257.389C282.9533,-232.5307 250.1346,-183.1184 232.451,-156.4937"/>
<polygon fill="#191970" stroke="#191970" points="235.3271,-154.4978 226.8789,-148.1042 229.4961,-158.3707 235.3271,-154.4978"/>
</g>
<!-- Node2 -->
<g id="node3" class="node">
<title>Node2</title>
<g id="a_node3"><a xlink:title=" ">
<polygon fill="#ffffff" stroke="#bfbfbf" points="0,-62 0,-81 57,-81 57,-62 0,-62"/>
<text text-anchor="middle" x="28.5" y="-69" font-family="Helvetica,sans-Serif" font-size="10.00" fill="#000000">typeinfo</text>
</a>
</g>
</g>
<!-- Node0&#45;&gt;Node2 -->
<g id="edge2" class="edge">
<title>Node0&#45;&gt;Node2</title>
<path fill="none" stroke="#191970" d="M225.9394,-260.2724C163.0177,-246.2257 80.7836,-216.4555 39.5,-154 27.1534,-135.3216 25.7232,-109.0291 26.5177,-91.1832"/>
<polygon fill="#191970" stroke="#191970" points="30.0183,-91.299 27.2453,-81.0735 23.0364,-90.7965 30.0183,-91.299"/>
</g>
<!-- Node3 -->
<g id="node4" class="node">
<title>Node3</title>
<g id="a_node4"><a xlink:title=" ">
<polygon fill="#ffffff" stroke="#bfbfbf" points="199,-196 199,-215 246,-215 246,-196 199,-196"/>
<text text-anchor="middle" x="222.5" y="-203" font-family="Helvetica,sans-Serif" font-size="10.00" fill="#000000">vector</text>
</a>
</g>
</g>
<!-- Node0&#45;&gt;Node3 -->
<g id="edge3" class="edge">
<title>Node0&#45;&gt;Node3</title>
<path fill="none" stroke="#191970" d="M289.7584,-257.2967C275.8085,-246.5537 257.1565,-232.1895 243.0332,-221.3129"/>
<polygon fill="#191970" stroke="#191970" points="244.9656,-218.3835 234.9072,-215.055 240.6945,-223.9295 244.9656,-218.3835"/>
</g>
<!-- Node4 -->
<g id="node5" class="node">
<title>Node4</title>
<g id="a_node5"><a xlink:title=" ">
<polygon fill="#ffffff" stroke="#bfbfbf" points="971,-62 971,-81 1090,-81 1090,-62 971,-62"/>
<text text-anchor="middle" x="1030.5" y="-69" font-family="Helvetica,sans-Serif" font-size="10.00" fill="#000000">pybind11/pybind11.h</text>
</a>
</g>
</g>
<!-- Node0&#45;&gt;Node4 -->
<g id="edge4" class="edge">
<title>Node0&#45;&gt;Node4</title>
<path fill="none" stroke="#191970" d="M393.0573,-269.1925C557.2296,-260.9839 913.5727,-234.1753 1001.5,-154 1019.2348,-137.8288 1026.125,-110.1696 1028.8013,-91.3773"/>
<polygon fill="#191970" stroke="#191970" points="1032.3008,-91.581 1029.9615,-81.2477 1025.3462,-90.7844 1032.3008,-91.581"/>
</g>
<!-- Node5 -->
<g id="node6" class="node">
<title>Node5</title>
<g id="a_node6"><a xlink:title=" ">
<polygon fill="#ffffff" stroke="#bfbfbf" points="302.5,-196 302.5,-215 388.5,-215 388.5,-196 302.5,-196"/>
<text text-anchor="middle" x="345.5" y="-203" font-family="Helvetica,sans-Serif" font-size="10.00" fill="#000000">pybind11/stl.h</text>
</a>
</g>
</g>
<!-- Node0&#45;&gt;Node5 -->
<g id="edge5" class="edge">
<title>Node0&#45;&gt;Node5</title>
<path fill="none" stroke="#191970" d="M317.669,-257.2967C322.9512,-247.4658 329.8628,-234.6026 335.4767,-224.1545"/>
<polygon fill="#191970" stroke="#191970" points="338.7159,-225.5205 340.366,-215.055 332.5496,-222.2073 338.7159,-225.5205"/>
</g>
<!-- Node6 -->
<g id="node7" class="node">
<title>Node6</title>
<g id="a_node7"><a xlink:href="type__pack_8h.html" target="_top" xlink:title="Basic meta&#45;programming utilities for types, focused on template parameter packs.">
<polygon fill="#ffffff" stroke="#000000" points="49,-123.5 49,-153.5 180,-153.5 180,-123.5 49,-123.5"/>
<text text-anchor="start" x="57" y="-141.5" font-family="Helvetica,sans-Serif" font-size="10.00" fill="#000000">drake/bindings/pydrake</text>
<text text-anchor="middle" x="114.5" y="-130.5" font-family="Helvetica,sans-Serif" font-size="10.00" fill="#000000">/common/type_pack.h</text>
</a>
</g>
</g>
<!-- Node0&#45;&gt;Node6 -->
<g id="edge6" class="edge">
<title>Node0&#45;&gt;Node6</title>
<path fill="none" stroke="#191970" d="M262.0583,-257.4912C238.9441,-248.8866 211.4698,-236.6575 189.5,-221 166.4709,-204.5875 145.3006,-180.0394 131.3676,-161.9865"/>
<polygon fill="#191970" stroke="#191970" points="133.9453,-159.5913 125.1327,-153.71 128.3542,-163.8032 133.9453,-159.5913"/>
</g>
<!-- Node11 -->
<g id="node12" class="node">
<title>Node11</title>
<g id="a_node12"><a xlink:href="wrap__pybind_8h.html" target="_top" xlink:title="Defines convenience utilities to wrap pybind11 methods and classes.">
<polygon fill="#ffffff" stroke="#000000" points="529,-190.5 529,-220.5 666,-220.5 666,-190.5 529,-190.5"/>
<text text-anchor="start" x="537" y="-208.5" font-family="Helvetica,sans-Serif" font-size="10.00" fill="#000000">drake/bindings/pydrake</text>
<text text-anchor="middle" x="597.5" y="-197.5" font-family="Helvetica,sans-Serif" font-size="10.00" fill="#000000">/common/wrap_pybind.h</text>
</a>
</g>
</g>
<!-- Node0&#45;&gt;Node11 -->
<g id="edge12" class="edge">
<title>Node0&#45;&gt;Node11</title>
<path fill="none" stroke="#191970" d="M374.1328,-257.4639C418.1672,-247.2198 476.6013,-233.6257 522.6576,-222.9113"/>
<polygon fill="#191970" stroke="#191970" points="523.6385,-226.2766 532.5853,-220.6017 522.0523,-219.4587 523.6385,-226.2766"/>
</g>
<!-- Node15 -->
<g id="node16" class="node">
<title>Node15</title>
<g id="a_node16"><a xlink:href="pydrake__pybind_8h.html" target="_top" xlink:title=" ">
<polygon fill="#ffffff" stroke="#000000" points="832,-123.5 832,-153.5 963,-153.5 963,-123.5 832,-123.5"/>
<text text-anchor="start" x="840" y="-141.5" font-family="Helvetica,sans-Serif" font-size="10.00" fill="#000000">drake/bindings/pydrake</text>
<text text-anchor="middle" x="897.5" y="-130.5" font-family="Helvetica,sans-Serif" font-size="10.00" fill="#000000">/pydrake_pybind.h</text>
</a>
</g>
</g>
<!-- Node0&#45;&gt;Node15 -->
<g id="edge34" class="edge">
<title>Node0&#45;&gt;Node15</title>
<path fill="none" stroke="#191970" d="M393.1084,-265.8358C467.731,-258.6787 579.5643,-244.9637 674.5,-221 738.8223,-204.7637 810.268,-176.4002 854.5446,-157.5341"/>
<polygon fill="#191970" stroke="#191970" points="856.031,-160.7049 863.8387,-153.5431 853.269,-154.2729 856.031,-160.7049"/>
</g>
<!-- Node6&#45;&gt;Node2 -->
<g id="edge10" class="edge">
<title>Node6&#45;&gt;Node2</title>
<path fill="none" stroke="#191970" d="M94.9853,-123.2967C81.1958,-112.5537 62.7582,-98.1895 48.7972,-87.3129"/>
<polygon fill="#191970" stroke="#191970" points="50.8042,-84.4398 40.7646,-81.055 46.5022,-89.9618 50.8042,-84.4398"/>
</g>
<!-- Node7 -->
<g id="node8" class="node">
<title>Node7</title>
<g id="a_node8"><a xlink:title=" ">
<polygon fill="#ffffff" stroke="#bfbfbf" points="252,-62 252,-81 305,-81 305,-62 252,-62"/>
<text text-anchor="middle" x="278.5" y="-69" font-family="Helvetica,sans-Serif" font-size="10.00" fill="#000000">cstddef</text>
</a>
</g>
</g>
<!-- Node6&#45;&gt;Node7 -->
<g id="edge7" class="edge">
<title>Node6&#45;&gt;Node7</title>
<path fill="none" stroke="#191970" d="M151.3048,-123.4639C179.5656,-111.9183 218.242,-96.1176 245.5046,-84.9798"/>
<polygon fill="#191970" stroke="#191970" points="247.0583,-88.126 254.9919,-81.1039 244.4109,-81.6459 247.0583,-88.126"/>
</g>
<!-- Node8 -->
<g id="node9" class="node">
<title>Node8</title>
<g id="a_node9"><a xlink:title=" ">
<polygon fill="#ffffff" stroke="#bfbfbf" points="342,-.5 342,-19.5 411,-19.5 411,-.5 342,-.5"/>
<text text-anchor="middle" x="376.5" y="-7.5" font-family="Helvetica,sans-Serif" font-size="10.00" fill="#000000">type_traits</text>
</a>
</g>
</g>
<!-- Node6&#45;&gt;Node8 -->
<g id="edge8" class="edge">
<title>Node6&#45;&gt;Node8</title>
<path fill="none" stroke="#191970" d="M132.7927,-123.2308C155.2783,-105.0949 195.1816,-74.9234 233.5,-56 265.0848,-40.402 303.15,-28.4578 332.0639,-20.6541"/>
<polygon fill="#191970" stroke="#191970" points="333.1053,-23.9992 341.8838,-18.0673 331.3221,-17.2301 333.1053,-23.9992"/>
</g>
<!-- Node9 -->
<g id="node10" class="node">
<title>Node9</title>
<g id="a_node10"><a xlink:title=" ">
<polygon fill="#ffffff" stroke="#bfbfbf" points="82,-62 82,-81 147,-81 147,-62 82,-62"/>
<text text-anchor="middle" x="114.5" y="-69" font-family="Helvetica,sans-Serif" font-size="10.00" fill="#000000">typeindex</text>
</a>
</g>
</g>
<!-- Node6&#45;&gt;Node9 -->
<g id="edge9" class="edge">
<title>Node6&#45;&gt;Node9</title>
<path fill="none" stroke="#191970" d="M114.5,-123.2967C114.5,-113.7699 114.5,-101.3954 114.5,-91.1306"/>
<polygon fill="#191970" stroke="#191970" points="118.0001,-91.0549 114.5,-81.055 111.0001,-91.055 118.0001,-91.0549"/>
</g>
<!-- Node10 -->
<g id="node11" class="node">
<title>Node10</title>
<g id="a_node11"><a xlink:title=" ">
<polygon fill="#ffffff" stroke="#bfbfbf" points="406,-62 406,-81 451,-81 451,-62 406,-62"/>
<text text-anchor="middle" x="428.5" y="-69" font-family="Helvetica,sans-Serif" font-size="10.00" fill="#000000">utility</text>
</a>
</g>
</g>
<!-- Node6&#45;&gt;Node10 -->
<g id="edge11" class="edge">
<title>Node6&#45;&gt;Node10</title>
<path fill="none" stroke="#191970" d="M180.3267,-124.7732C183.426,-124.1655 186.4958,-123.5715 189.5,-123 281.2357,-105.5481 307.6168,-115.6316 396.5,-87 398.1562,-86.4665 399.8356,-85.8626 401.5131,-85.2102"/>
<polygon fill="#191970" stroke="#191970" points="403.1625,-88.309 410.9237,-81.0969 400.359,-81.8949 403.1625,-88.309"/>
</g>
<!-- Node11&#45;&gt;Node1 -->
<g id="edge14" class="edge">
<title>Node11&#45;&gt;Node1</title>
<path fill="none" stroke="#191970" d="M528.772,-201.67C457.9058,-196.2498 344.8886,-183.4731 251.5,-154 249.8431,-153.4771 248.1656,-152.8749 246.4932,-152.2181"/>
<polygon fill="#191970" stroke="#191970" points="247.7065,-148.9264 237.1498,-148.0286 244.8425,-155.3137 247.7065,-148.9264"/>
</g>
<!-- Node11&#45;&gt;Node4 -->
<g id="edge17" class="edge">
<title>Node11&#45;&gt;Node4</title>
<path fill="none" stroke="#191970" d="M666.0247,-202.5891C759.8578,-197.5165 922.4149,-184.5189 972.5,-154 996.8332,-139.1728 1013.6688,-109.8543 1022.7053,-90.4626"/>
<polygon fill="#191970" stroke="#191970" points="1025.9962,-91.6736 1026.82,-81.1109 1019.589,-88.8545 1025.9962,-91.6736"/>
</g>
<!-- Node11&#45;&gt;Node8 -->
<g id="edge15" class="edge">
<title>Node11&#45;&gt;Node8</title>
<path fill="none" stroke="#191970" d="M656.6161,-190.4428C701.0509,-178.5681 755.4414,-162.6193 762.5,-154 790.1665,-120.2164 798.5267,-88.6224 769.5,-56 746.6722,-30.3443 519.7249,-16.7024 421.4651,-11.9594"/>
<polygon fill="#191970" stroke="#191970" points="421.4071,-8.4529 411.2529,-11.4763 421.0762,-15.445 421.4071,-8.4529"/>
</g>
<!-- Node11&#45;&gt;Node10 -->
<g id="edge16" class="edge">
<title>Node11&#45;&gt;Node10</title>
<path fill="none" stroke="#191970" d="M528.9055,-195.4278C501.4873,-188.1425 471.6917,-175.5969 451.5,-154 435.5221,-136.9102 430.4965,-109.6626 428.9959,-91.1995"/>
<polygon fill="#191970" stroke="#191970" points="432.48,-90.8069 428.4507,-81.0082 425.49,-91.1809 432.48,-90.8069"/>
</g>
<!-- Node12 -->
<g id="node13" class="node">
<title>Node12</title>
<g id="a_node13"><a xlink:title=" ">
<polygon fill="#ffffff" stroke="#bfbfbf" points="702.5,-62 702.5,-81 760.5,-81 760.5,-62 702.5,-62"/>
<text text-anchor="middle" x="731.5" y="-69" font-family="Helvetica,sans-Serif" font-size="10.00" fill="#000000">memory</text>
</a>
</g>
</g>
<!-- Node11&#45;&gt;Node12 -->
<g id="edge13" class="edge">
<title>Node11&#45;&gt;Node12</title>
<path fill="none" stroke="#191970" d="M663.9341,-190.3936C698.4121,-181.0665 735.4121,-168.1915 745.5,-154 758.8515,-135.2173 750.2819,-108.0362 741.8309,-90.0759"/>
<polygon fill="#191970" stroke="#191970" points="744.946,-88.4801 737.2881,-81.1584 738.7087,-91.6576 744.946,-88.4801"/>
</g>
<!-- Node13 -->
<g id="node14" class="node">
<title>Node13</title>
<g id="a_node14"><a xlink:href="wrap__function_8h.html" target="_top" xlink:title=" ">
<polygon fill="#ffffff" stroke="#000000" points="261,-123.5 261,-153.5 404,-153.5 404,-123.5 261,-123.5"/>
<text text-anchor="start" x="269" y="-141.5" font-family="Helvetica,sans-Serif" font-size="10.00" fill="#000000">drake/bindings/pydrake</text>
<text text-anchor="middle" x="332.5" y="-130.5" font-family="Helvetica,sans-Serif" font-size="10.00" fill="#000000">/common/wrap_function.h</text>
</a>
</g>
</g>
<!-- Node11&#45;&gt;Node13 -->
<g id="edge18" class="edge">
<title>Node11&#45;&gt;Node13</title>
<path fill="none" stroke="#191970" d="M538.0288,-190.4639C497.7659,-180.2842 444.4194,-166.7966 402.1663,-156.1138"/>
<polygon fill="#191970" stroke="#191970" points="402.7834,-152.6597 392.2306,-153.6017 401.0676,-159.4462 402.7834,-152.6597"/>
</g>
<!-- Node11&#45;&gt;Node15 -->
<g id="edge22" class="edge">
<title>Node11&#45;&gt;Node15</title>
<path fill="none" stroke="#191970" d="M664.8259,-190.4639C711.5338,-180.0324 773.795,-166.1274 822.158,-155.3264"/>
<polygon fill="#191970" stroke="#191970" points="822.9495,-158.7359 831.9462,-153.1404 821.4237,-151.9042 822.9495,-158.7359"/>
</g>
<!-- Node17 -->
<g id="node18" class="node">
<title>Node17</title>
<g id="a_node18"><a xlink:href="copyable__unique__ptr_8h.html" target="_top" xlink:title=" ">
<polygon fill="#ffffff" stroke="#000000" points="461,-123.5 461,-153.5 598,-153.5 598,-123.5 461,-123.5"/>
<text text-anchor="start" x="469" y="-141.5" font-family="Helvetica,sans-Serif" font-size="10.00" fill="#000000">drake/common/copyable</text>
<text text-anchor="middle" x="529.5" y="-130.5" font-family="Helvetica,sans-Serif" font-size="10.00" fill="#000000">_unique_ptr.h</text>
</a>
</g>
</g>
<!-- Node11&#45;&gt;Node17 -->
<g id="edge26" class="edge">
<title>Node11&#45;&gt;Node17</title>
<path fill="none" stroke="#191970" d="M582.0697,-190.2967C573.2016,-181.559 561.9022,-170.4257 552.0535,-160.7218"/>
<polygon fill="#191970" stroke="#191970" points="554.449,-158.1685 544.8692,-153.6432 549.536,-163.1548 554.449,-158.1685"/>
</g>
<!-- Node20 -->
<g id="node21" class="node">
<title>Node20</title>
<g id="a_node21"><a xlink:href="drake__copyable_8h.html" target="_top" xlink:title="Provides careful macros to selectively enable or disable the special member functions for copy&#45;constr...">
<polygon fill="#ffffff" stroke="#000000" points="616,-123.5 616,-153.5 737,-153.5 737,-123.5 616,-123.5"/>
<text text-anchor="start" x="624" y="-141.5" font-family="Helvetica,sans-Serif" font-size="10.00" fill="#000000">drake/common/drake</text>
<text text-anchor="middle" x="676.5" y="-130.5" font-family="Helvetica,sans-Serif" font-size="10.00" fill="#000000">_copyable.h</text>
</a>
</g>
</g>
<!-- Node11&#45;&gt;Node20 -->
<g id="edge33" class="edge">
<title>Node11&#45;&gt;Node20</title>
<path fill="none" stroke="#191970" d="M615.4263,-190.2967C625.931,-181.3876 639.3721,-169.9882 650.9692,-160.1527"/>
<polygon fill="#191970" stroke="#191970" points="653.2819,-162.7806 658.6446,-153.6432 648.7542,-157.442 653.2819,-162.7806"/>
</g>
<!-- Node13&#45;&gt;Node8 -->
<g id="edge20" class="edge">
<title>Node13&#45;&gt;Node8</title>
<path fill="none" stroke="#191970" d="M286.3458,-123.4044C269.4715,-115.3939 252.1633,-103.6632 242.5,-87 235.5881,-75.0814 234.494,-67.213 242.5,-56 253.1995,-41.0147 297.2179,-27.8235 331.9227,-19.4535"/>
<polygon fill="#191970" stroke="#191970" points="332.949,-22.8079 341.8868,-17.1187 331.352,-15.9925 332.949,-22.8079"/>
</g>
<!-- Node13&#45;&gt;Node10 -->
<g id="edge21" class="edge">
<title>Node13&#45;&gt;Node10</title>
<path fill="none" stroke="#191970" d="M354.2839,-123.2967C369.822,-112.4524 390.6471,-97.9182 406.2824,-87.006"/>
<polygon fill="#191970" stroke="#191970" points="408.6121,-89.6483 414.8093,-81.055 404.6058,-83.908 408.6121,-89.6483"/>
</g>
<!-- Node14 -->
<g id="node15" class="node">
<title>Node14</title>
<g id="a_node15"><a xlink:title=" ">
<polygon fill="#ffffff" stroke="#bfbfbf" points="323,-62 323,-81 388,-81 388,-62 323,-62"/>
<text text-anchor="middle" x="355.5" y="-69" font-family="Helvetica,sans-Serif" font-size="10.00" fill="#000000">functional</text>
</a>
</g>
</g>
<!-- Node13&#45;&gt;Node14 -->
<g id="edge19" class="edge">
<title>Node13&#45;&gt;Node14</title>
<path fill="none" stroke="#191970" d="M337.7191,-123.2967C341.0242,-113.6685 345.3279,-101.1318 348.8733,-90.8038"/>
<polygon fill="#191970" stroke="#191970" points="352.2834,-91.6496 352.2199,-81.055 345.6626,-89.3768 352.2834,-91.6496"/>
</g>
<!-- Node15&#45;&gt;Node4 -->
<g id="edge24" class="edge">
<title>Node15&#45;&gt;Node4</title>
<path fill="none" stroke="#191970" d="M927.3478,-123.4639C949.764,-112.1715 980.2606,-96.8086 1002.2738,-85.7192"/>
<polygon fill="#191970" stroke="#191970" points="1004.0793,-88.7287 1011.4355,-81.1039 1000.93,-82.4772 1004.0793,-88.7287"/>
</g>
<!-- Node15&#45;&gt;Node10 -->
<g id="edge23" class="edge">
<title>Node15&#45;&gt;Node10</title>
<path fill="none" stroke="#191970" d="M831.9034,-131.3893C714.06,-118.5305 477.0837,-92.2538 459.5,-87 457.8353,-86.5026 456.1517,-85.9202 454.4747,-85.2783"/>
<polygon fill="#191970" stroke="#191970" points="455.6792,-81.9838 445.1189,-81.1291 452.8413,-88.3828 455.6792,-81.9838"/>
</g>
<!-- Node16 -->
<g id="node17" class="node">
<title>Node16</title>
<g id="a_node17"><a xlink:href="drake__deprecated_8h.html" target="_top" xlink:title="Provides a portable macro for use in generating compile&#45;time warnings for use of code that is permitt...">
<polygon fill="#ffffff" stroke="#000000" points="832,-56.5 832,-86.5 953,-86.5 953,-56.5 832,-56.5"/>
<text text-anchor="start" x="840" y="-74.5" font-family="Helvetica,sans-Serif" font-size="10.00" fill="#000000">drake/common/drake</text>
<text text-anchor="middle" x="892.5" y="-63.5" font-family="Helvetica,sans-Serif" font-size="10.00" fill="#000000">_deprecated.h</text>
</a>
</g>
</g>
<!-- Node15&#45;&gt;Node16 -->
<g id="edge25" class="edge">
<title>Node15&#45;&gt;Node16</title>
<path fill="none" stroke="#191970" d="M896.3654,-123.2967C895.7837,-115.5013 895.0596,-105.7991 894.396,-96.9064"/>
<polygon fill="#191970" stroke="#191970" points="897.8647,-96.3549 893.6301,-86.6432 890.8841,-96.8759 897.8647,-96.3549"/>
</g>
<!-- Node17&#45;&gt;Node7 -->
<g id="edge27" class="edge">
<title>Node17&#45;&gt;Node7</title>
<path fill="none" stroke="#191970" d="M460.9844,-125.5113C418.0606,-116.5554 361.8985,-103.3335 313.5,-87 311.6582,-86.3784 309.7804,-85.6966 307.8988,-84.9763"/>
<polygon fill="#191970" stroke="#191970" points="309.1887,-81.7224 298.609,-81.156 306.5263,-88.1963 309.1887,-81.7224"/>
</g>
<!-- Node17&#45;&gt;Node10 -->
<g id="edge30" class="edge">
<title>Node17&#45;&gt;Node10</title>
<path fill="none" stroke="#191970" d="M506.8336,-123.4639C490.3451,-112.526 468.0996,-97.769 451.5278,-86.7759"/>
<polygon fill="#191970" stroke="#191970" points="453.2455,-83.7153 442.9776,-81.1039 449.3759,-89.5485 453.2455,-83.7153"/>
</g>
<!-- Node17&#45;&gt;Node12 -->
<g id="edge29" class="edge">
<title>Node17&#45;&gt;Node12</title>
<path fill="none" stroke="#191970" d="M574.8327,-123.4639C610.511,-111.63 659.667,-95.3258 693.3482,-84.1543"/>
<polygon fill="#191970" stroke="#191970" points="694.4526,-87.4756 702.8423,-81.0053 692.2489,-80.8315 694.4526,-87.4756"/>
</g>
<!-- Node18 -->
<g id="node19" class="node">
<title>Node18</title>
<g id="a_node19"><a xlink:title=" ">
<polygon fill="#ffffff" stroke="#bfbfbf" points="608.5,-62 608.5,-81 668.5,-81 668.5,-62 608.5,-62"/>
<text text-anchor="middle" x="638.5" y="-69" font-family="Helvetica,sans-Serif" font-size="10.00" fill="#000000">iostream</text>
</a>
</g>
</g>
<!-- Node17&#45;&gt;Node18 -->
<g id="edge28" class="edge">
<title>Node17&#45;&gt;Node18</title>
<path fill="none" stroke="#191970" d="M553.9617,-123.4639C571.921,-112.4247 596.2089,-97.4954 614.1434,-86.4715"/>
<polygon fill="#191970" stroke="#191970" points="616.1893,-89.3223 622.8757,-81.1039 612.5236,-83.3588 616.1893,-89.3223"/>
</g>
<!-- Node19 -->
<g id="node20" class="node">
<title>Node19</title>
<g id="a_node20"><a xlink:href="drake__assert_8h.html" target="_top" xlink:title="Provides Drake&#39;s assertion implementation.">
<polygon fill="#ffffff" stroke="#000000" points="469,-56.5 469,-86.5 590,-86.5 590,-56.5 469,-56.5"/>
<text text-anchor="start" x="477" y="-74.5" font-family="Helvetica,sans-Serif" font-size="10.00" fill="#000000">drake/common/drake</text>
<text text-anchor="middle" x="529.5" y="-63.5" font-family="Helvetica,sans-Serif" font-size="10.00" fill="#000000">_assert.h</text>
</a>
</g>
</g>
<!-- Node17&#45;&gt;Node19 -->
<g id="edge31" class="edge">
<title>Node17&#45;&gt;Node19</title>
<path fill="none" stroke="#191970" d="M529.5,-123.2967C529.5,-115.5013 529.5,-105.7991 529.5,-96.9064"/>
<polygon fill="#191970" stroke="#191970" points="533.0001,-96.6431 529.5,-86.6432 526.0001,-96.6432 533.0001,-96.6431"/>
</g>
<!-- Node19&#45;&gt;Node8 -->
<g id="edge32" class="edge">
<title>Node19&#45;&gt;Node8</title>
<path fill="none" stroke="#191970" d="M492.072,-56.4554C466.8794,-46.329 433.9593,-33.0964 409.7004,-23.3453"/>
<polygon fill="#191970" stroke="#191970" points="410.7934,-20.0125 400.2096,-19.5303 408.1827,-26.5074 410.7934,-20.0125"/>
</g>
</g>
</svg>
