<?xml version="1.0" encoding="UTF-8" standalone="no"?>
<!DOCTYPE svg PUBLIC "-//W3C//DTD SVG 1.1//EN"
 "http://www.w3.org/Graphics/SVG/1.1/DTD/svg11.dtd">
<!-- Generated by graphviz version 2.40.1 (20161225.0304)
 -->
<!-- Title: drake/bindings/pydrake/common/cpp_param_pybind.h Pages: 1 -->
<!--zoomable 296 -->
<svg id="main" version="1.1" xmlns="http://www.w3.org/2000/svg" xmlns:xlink="http://www.w3.org/1999/xlink" xml:space="preserve" onload="init(evt)">
<style type="text/css"><![CDATA[
.edge:hover path { stroke: red; }
.edge:hover polygon { stroke: red; fill: red; }
]]></style>
<script type="text/javascript"><![CDATA[
var edges = document.getElementsByTagName('g');
if (edges && edges.length) {
  for (var i=0;i<edges.length;i++) {
    if (edges[i].id.substr(0,4)=='edge') {
      edges[i].setAttribute('class','edge');
    }
  }
}
]]></script>
        <defs>
                <circle id="rim" cx="0" cy="0" r="7"/>
                <circle id="rim2" cx="0" cy="0" r="3.5"/>
                <g id="zoomPlus">
                        <use xlink:href="#rim" fill="#404040">
                                <set attributeName="fill" to="#808080" begin="zoomplus.mouseover" end="zoomplus.mouseout"/>
                        </use>
                        <path d="M-4,0h8M0,-4v8" fill="none" stroke="white" stroke-width="1.5" pointer-events="none"/>
                </g>
                <g id="zoomMin">
                        <use xlink:href="#rim" fill="#404040">
                                <set attributeName="fill" to="#808080" begin="zoomminus.mouseover" end="zoomminus.mouseout"/>
                        </use>
                        <path d="M-4,0h8" fill="none" stroke="white" stroke-width="1.5" pointer-events="none"/>
                </g>
                <g id="dirArrow">
                        <path fill="none" stroke="white" stroke-width="1.5" d="M0,-3.0v7 M-2.5,-0.5L0,-3.0L2.5,-0.5"/>
                </g>
               <g id="resetDef">
                       <use xlink:href="#rim2" fill="#404040">
                               <set attributeName="fill" to="#808080" begin="reset.mouseover" end="reset.mouseout"/>
                       </use>
               </g>
        </defs>

<script type="text/javascript">
var viewWidth = 1067;
var viewHeight = 296;
var sectionId = 'dynsection-0';
</script>
<script xlink:href="svgpan.js"/>
<svg id="graph" class="graph">
<g id="viewport">
<title>drake/bindings/pydrake/common/cpp_param_pybind.h</title>
<polygon fill="#ffffff" stroke="transparent" points="-4,4 -4,-292 1063,-292 1063,4 -4,4"/>
<!-- Node0 -->
<g id="node1" class="node">
<title>Node0</title>
<g id="a_node1"><a xlink:title="Provides a mechanism to map C++ types to canonical Python types.">
<polygon fill="#bfbfbf" stroke="#000000" points="204,-257.5 204,-287.5 371,-287.5 371,-257.5 204,-257.5"/>
<text text-anchor="start" x="212" y="-275.5" font-family="Helvetica,sans-Serif" font-size="10.00" fill="#000000">drake/bindings/pydrake</text>
<text text-anchor="middle" x="287.5" y="-264.5" font-family="Helvetica,sans-Serif" font-size="10.00" fill="#000000">/common/cpp_param_pybind.h</text>
</a>
</g>
</g>
<!-- Node1 -->
<g id="node2" class="node">
<title>Node1</title>
<g id="a_node2"><a xlink:title=" ">
<polygon fill="#ffffff" stroke="#bfbfbf" points="206.5,-129 206.5,-148 250.5,-148 250.5,-129 206.5,-129"/>
<text text-anchor="middle" x="228.5" y="-136" font-family="Helvetica,sans-Serif" font-size="10.00" fill="#000000">string</text>
</a>
</g>
</g>
<!-- Node0&#45;&gt;Node1 -->
<g id="edge1" class="edge">
<title>Node0&#45;&gt;Node1</title>
<path fill="none" stroke="#191970" d="M280.8466,-257.389C270.045,-232.8564 248.7136,-184.4088 236.8884,-157.5517"/>
<polygon fill="#191970" stroke="#191970" points="239.9617,-155.8459 232.7287,-148.1042 233.5552,-158.6667 239.9617,-155.8459"/>
</g>
<!-- Node2 -->
<g id="node3" class="node">
<title>Node2</title>
<g id="a_node3"><a xlink:title=" ">
<polygon fill="#ffffff" stroke="#bfbfbf" points="0,-62 0,-81 57,-81 57,-62 0,-62"/>
<text text-anchor="middle" x="28.5" y="-69" font-family="Helvetica,sans-Serif" font-size="10.00" fill="#000000">typeinfo</text>
</a>
</g>
</g>
<!-- Node0&#45;&gt;Node2 -->
<g id="edge2" class="edge">
<title>Node0&#45;&gt;Node2</title>
<path fill="none" stroke="#191970" d="M215.1498,-257.4501C159.3253,-241.7316 85.4299,-211.09 47.5,-154 34.9638,-135.1312 30.6357,-109.078 29.1762,-91.3311"/>
<polygon fill="#191970" stroke="#191970" points="32.665,-91.0365 28.582,-81.26 25.6771,-91.4488 32.665,-91.0365"/>
</g>
<!-- Node3 -->
<g id="node4" class="node">
<title>Node3</title>
<g id="a_node4"><a xlink:title=" ">
<polygon fill="#ffffff" stroke="#bfbfbf" points="177,-196 177,-215 224,-215 224,-196 177,-196"/>
<text text-anchor="middle" x="200.5" y="-203" font-family="Helvetica,sans-Serif" font-size="10.00" fill="#000000">vector</text>
</a>
</g>
</g>
<!-- Node0&#45;&gt;Node3 -->
<g id="edge3" class="edge">
<title>Node0&#45;&gt;Node3</title>
<path fill="none" stroke="#191970" d="M267.7584,-257.2967C253.8085,-246.5537 235.1565,-232.1895 221.0332,-221.3129"/>
<polygon fill="#191970" stroke="#191970" points="222.9656,-218.3835 212.9072,-215.055 218.6945,-223.9295 222.9656,-218.3835"/>
</g>
<!-- Node4 -->
<g id="node5" class="node">
<title>Node4</title>
<g id="a_node5"><a xlink:title=" ">
<polygon fill="#ffffff" stroke="#bfbfbf" points="940,-62 940,-81 1059,-81 1059,-62 940,-62"/>
<text text-anchor="middle" x="999.5" y="-69" font-family="Helvetica,sans-Serif" font-size="10.00" fill="#000000">pybind11/pybind11.h</text>
</a>
</g>
</g>
<!-- Node0&#45;&gt;Node4 -->
<g id="edge4" class="edge">
<title>Node0&#45;&gt;Node4</title>
<path fill="none" stroke="#191970" d="M371.1617,-264.8131C551.3155,-247.3993 962.927,-202.6547 1002.5,-154 1016.7881,-136.4329 1012.2975,-109.1263 1006.765,-90.7928"/>
<polygon fill="#191970" stroke="#191970" points="1010.034,-89.5333 1003.5212,-81.1767 1003.4012,-91.7708 1010.034,-89.5333"/>
</g>
<!-- Node5 -->
<g id="node6" class="node">
<title>Node5</title>
<g id="a_node6"><a xlink:title=" ">
<polygon fill="#ffffff" stroke="#bfbfbf" points="280.5,-196 280.5,-215 366.5,-215 366.5,-196 280.5,-196"/>
<text text-anchor="middle" x="323.5" y="-203" font-family="Helvetica,sans-Serif" font-size="10.00" fill="#000000">pybind11/stl.h</text>
</a>
</g>
</g>
<!-- Node0&#45;&gt;Node5 -->
<g id="edge5" class="edge">
<title>Node0&#45;&gt;Node5</title>
<path fill="none" stroke="#191970" d="M295.669,-257.2967C300.9512,-247.4658 307.8628,-234.6026 313.4767,-224.1545"/>
<polygon fill="#191970" stroke="#191970" points="316.7159,-225.5205 318.366,-215.055 310.5496,-222.2073 316.7159,-225.5205"/>
</g>
<!-- Node6 -->
<g id="node7" class="node">
<title>Node6</title>
<g id="a_node7"><a xlink:href="type__pack_8h.html" target="_top" xlink:title="Basic meta&#45;programming utilities for types, focused on template parameter packs.">
<polygon fill="#ffffff" stroke="#000000" points="57,-123.5 57,-153.5 188,-153.5 188,-123.5 57,-123.5"/>
<text text-anchor="start" x="65" y="-141.5" font-family="Helvetica,sans-Serif" font-size="10.00" fill="#000000">drake/bindings/pydrake</text>
<text text-anchor="middle" x="122.5" y="-130.5" font-family="Helvetica,sans-Serif" font-size="10.00" fill="#000000">/common/type_pack.h</text>
</a>
</g>
</g>
<!-- Node0&#45;&gt;Node6 -->
<g id="edge6" class="edge">
<title>Node0&#45;&gt;Node6</title>
<path fill="none" stroke="#191970" d="M232.0119,-257.4011C210.0178,-249.3308 185.6909,-237.5574 167.5,-221 150.1723,-205.2284 138.124,-181.1887 130.8849,-163.121"/>
<polygon fill="#191970" stroke="#191970" points="134.0721,-161.6535 127.2649,-153.5349 127.5235,-164.1265 134.0721,-161.6535"/>
</g>
<!-- Node11 -->
<g id="node12" class="node">
<title>Node11</title>
<g id="a_node12"><a xlink:href="wrap__pybind_8h.html" target="_top" xlink:title="Defines convenience utilities to wrap pybind11 methods and classes.">
<polygon fill="#ffffff" stroke="#000000" points="458,-190.5 458,-220.5 595,-220.5 595,-190.5 458,-190.5"/>
<text text-anchor="start" x="466" y="-208.5" font-family="Helvetica,sans-Serif" font-size="10.00" fill="#000000">drake/bindings/pydrake</text>
<text text-anchor="middle" x="526.5" y="-197.5" font-family="Helvetica,sans-Serif" font-size="10.00" fill="#000000">/common/wrap_pybind.h</text>
</a>
</g>
</g>
<!-- Node0&#45;&gt;Node11 -->
<g id="edge12" class="edge">
<title>Node0&#45;&gt;Node11</title>
<path fill="none" stroke="#191970" d="M341.1363,-257.4639C377.1425,-247.3701 424.7502,-234.024 462.702,-223.3848"/>
<polygon fill="#191970" stroke="#191970" points="463.9458,-226.6711 472.6298,-220.6017 462.0562,-219.931 463.9458,-226.6711"/>
</g>
<!-- Node15 -->
<g id="node16" class="node">
<title>Node15</title>
<g id="a_node16"><a xlink:href="pydrake__pybind_8h.html" target="_top" xlink:title=" ">
<polygon fill="#ffffff" stroke="#000000" points="840,-123.5 840,-153.5 971,-153.5 971,-123.5 840,-123.5"/>
<text text-anchor="start" x="848" y="-141.5" font-family="Helvetica,sans-Serif" font-size="10.00" fill="#000000">drake/bindings/pydrake</text>
<text text-anchor="middle" x="905.5" y="-130.5" font-family="Helvetica,sans-Serif" font-size="10.00" fill="#000000">/pydrake_pybind.h</text>
</a>
</g>
</g>
<!-- Node0&#45;&gt;Node15 -->
<g id="edge33" class="edge">
<title>Node0&#45;&gt;Node15</title>
<path fill="none" stroke="#191970" d="M371.1171,-261.319C435.0779,-252.1765 525.2855,-238.0075 603.5,-221 689.0267,-202.4025 786.4535,-174.5574 846.9665,-156.4579"/>
<polygon fill="#191970" stroke="#191970" points="848.1501,-159.757 856.7212,-153.529 846.137,-153.0526 848.1501,-159.757"/>
</g>
<!-- Node6&#45;&gt;Node2 -->
<g id="edge10" class="edge">
<title>Node6&#45;&gt;Node2</title>
<path fill="none" stroke="#191970" d="M101.1699,-123.2967C85.9555,-112.4524 65.5643,-97.9182 50.2547,-87.006"/>
<polygon fill="#191970" stroke="#191970" points="52.0802,-84.0091 41.9055,-81.055 48.0172,-89.7093 52.0802,-84.0091"/>
</g>
<!-- Node7 -->
<g id="node8" class="node">
<title>Node7</title>
<g id="a_node8"><a xlink:title=" ">
<polygon fill="#ffffff" stroke="#bfbfbf" points="197,-62 197,-81 250,-81 250,-62 197,-62"/>
<text text-anchor="middle" x="223.5" y="-69" font-family="Helvetica,sans-Serif" font-size="10.00" fill="#000000">cstddef</text>
</a>
</g>
</g>
<!-- Node6&#45;&gt;Node7 -->
<g id="edge7" class="edge">
<title>Node6&#45;&gt;Node7</title>
<path fill="none" stroke="#191970" d="M145.1664,-123.4639C161.6549,-112.526 183.9004,-97.769 200.4722,-86.7759"/>
<polygon fill="#191970" stroke="#191970" points="202.6241,-89.5485 209.0224,-81.1039 198.7545,-83.7153 202.6241,-89.5485"/>
</g>
<!-- Node8 -->
<g id="node9" class="node">
<title>Node8</title>
<g id="a_node9"><a xlink:title=" ">
<polygon fill="#ffffff" stroke="#bfbfbf" points="263,-.5 263,-19.5 332,-19.5 332,-.5 263,-.5"/>
<text text-anchor="middle" x="297.5" y="-7.5" font-family="Helvetica,sans-Serif" font-size="10.00" fill="#000000">type_traits</text>
</a>
</g>
</g>
<!-- Node6&#45;&gt;Node8 -->
<g id="edge8" class="edge">
<title>Node6&#45;&gt;Node8</title>
<path fill="none" stroke="#191970" d="M131.0281,-123.4934C142.0118,-105.3375 162.6735,-74.8648 187.5,-56 206.9925,-41.1883 231.9522,-30.2443 253.1671,-22.7557"/>
<polygon fill="#191970" stroke="#191970" points="254.5756,-25.9741 262.9282,-19.4561 252.334,-19.3428 254.5756,-25.9741"/>
</g>
<!-- Node9 -->
<g id="node10" class="node">
<title>Node9</title>
<g id="a_node10"><a xlink:title=" ">
<polygon fill="#ffffff" stroke="#bfbfbf" points="75,-62 75,-81 140,-81 140,-62 75,-62"/>
<text text-anchor="middle" x="107.5" y="-69" font-family="Helvetica,sans-Serif" font-size="10.00" fill="#000000">typeindex</text>
</a>
</g>
</g>
<!-- Node6&#45;&gt;Node9 -->
<g id="edge9" class="edge">
<title>Node6&#45;&gt;Node9</title>
<path fill="none" stroke="#191970" d="M119.0963,-123.2967C116.9634,-113.7699 114.193,-101.3954 111.8949,-91.1306"/>
<polygon fill="#191970" stroke="#191970" points="115.2394,-90.0487 109.6392,-81.055 108.4085,-91.5781 115.2394,-90.0487"/>
</g>
<!-- Node10 -->
<g id="node11" class="node">
<title>Node10</title>
<g id="a_node11"><a xlink:title=" ">
<polygon fill="#ffffff" stroke="#bfbfbf" points="443,-62 443,-81 488,-81 488,-62 443,-62"/>
<text text-anchor="middle" x="465.5" y="-69" font-family="Helvetica,sans-Serif" font-size="10.00" fill="#000000">utility</text>
</a>
</g>
</g>
<!-- Node6&#45;&gt;Node10 -->
<g id="edge11" class="edge">
<title>Node6&#45;&gt;Node10</title>
<path fill="none" stroke="#191970" d="M188.3187,-124.7305C191.4202,-124.1342 194.4926,-123.5543 197.5,-123 295.7996,-104.8808 322.4783,-111.0397 419.5,-87 423.9453,-85.8986 428.5762,-84.5663 433.1135,-83.1508"/>
<polygon fill="#191970" stroke="#191970" points="434.3783,-86.4195 442.7889,-79.9765 432.1961,-79.7683 434.3783,-86.4195"/>
</g>
<!-- Node11&#45;&gt;Node1 -->
<g id="edge14" class="edge">
<title>Node11&#45;&gt;Node1</title>
<path fill="none" stroke="#191970" d="M457.9345,-196.108C404.4949,-187.814 328.819,-173.9194 264.5,-154 262.3875,-153.3458 260.2311,-152.6078 258.0761,-151.818"/>
<polygon fill="#191970" stroke="#191970" points="259.3625,-148.563 248.7768,-148.1215 256.7767,-155.0679 259.3625,-148.563"/>
</g>
<!-- Node11&#45;&gt;Node4 -->
<g id="edge17" class="edge">
<title>Node11&#45;&gt;Node4</title>
<path fill="none" stroke="#191970" d="M595.3903,-202.0253C715.3005,-195.3484 952.3526,-179.1236 980.5,-154 997.9257,-138.4463 1001.0384,-110.4111 1000.8932,-91.3845"/>
<polygon fill="#191970" stroke="#191970" points="1004.381,-90.9972 1000.4979,-81.1396 997.3862,-91.2671 1004.381,-90.9972"/>
</g>
<!-- Node11&#45;&gt;Node8 -->
<g id="edge15" class="edge">
<title>Node11&#45;&gt;Node8</title>
<path fill="none" stroke="#191970" d="M457.7723,-199.3923C397.7913,-192.4697 317.3254,-178.7791 297.5,-154 268.8451,-118.1852 281.2627,-59.7439 290.5993,-29.503"/>
<polygon fill="#191970" stroke="#191970" points="294.0136,-30.3247 293.818,-19.7317 287.365,-28.1347 294.0136,-30.3247"/>
</g>
<!-- Node11&#45;&gt;Node10 -->
<g id="edge16" class="edge">
<title>Node11&#45;&gt;Node10</title>
<path fill="none" stroke="#191970" d="M517.2877,-190.478C511.274,-180.3634 503.4621,-166.6173 497.5,-154 487.5933,-133.0348 478.2445,-108.1125 472.2395,-91.1873"/>
<polygon fill="#191970" stroke="#191970" points="475.4033,-89.6305 468.8041,-81.3419 468.7941,-91.9367 475.4033,-89.6305"/>
</g>
<!-- Node12 -->
<g id="node13" class="node">
<title>Node12</title>
<g id="a_node13"><a xlink:title=" ">
<polygon fill="#ffffff" stroke="#bfbfbf" points="753.5,-62 753.5,-81 811.5,-81 811.5,-62 753.5,-62"/>
<text text-anchor="middle" x="782.5" y="-69" font-family="Helvetica,sans-Serif" font-size="10.00" fill="#000000">memory</text>
</a>
</g>
</g>
<!-- Node11&#45;&gt;Node12 -->
<g id="edge13" class="edge">
<title>Node11&#45;&gt;Node12</title>
<path fill="none" stroke="#191970" d="M595.0385,-201.8792C665.3795,-196.5598 767.9172,-183.7988 792.5,-154 807.1413,-136.2521 799.6614,-108.6025 791.9386,-90.274"/>
<polygon fill="#191970" stroke="#191970" points="795.114,-88.8016 787.7622,-81.1726 788.7518,-91.7211 795.114,-88.8016"/>
</g>
<!-- Node13 -->
<g id="node14" class="node">
<title>Node13</title>
<g id="a_node14"><a xlink:href="wrap__function_8h.html" target="_top" xlink:title=" ">
<polygon fill="#ffffff" stroke="#000000" points="307,-123.5 307,-153.5 450,-153.5 450,-123.5 307,-123.5"/>
<text text-anchor="start" x="315" y="-141.5" font-family="Helvetica,sans-Serif" font-size="10.00" fill="#000000">drake/bindings/pydrake</text>
<text text-anchor="middle" x="378.5" y="-130.5" font-family="Helvetica,sans-Serif" font-size="10.00" fill="#000000">/common/wrap_function.h</text>
</a>
</g>
</g>
<!-- Node11&#45;&gt;Node13 -->
<g id="edge18" class="edge">
<title>Node11&#45;&gt;Node13</title>
<path fill="none" stroke="#191970" d="M493.2859,-190.4639C471.938,-180.7996 444.0043,-168.154 421.0384,-157.7572"/>
<polygon fill="#191970" stroke="#191970" points="422.4124,-154.5374 411.859,-153.6017 419.5255,-160.9144 422.4124,-154.5374"/>
</g>
<!-- Node11&#45;&gt;Node15 -->
<g id="edge22" class="edge">
<title>Node11&#45;&gt;Node15</title>
<path fill="none" stroke="#191970" d="M595.1529,-194.0924C655.8025,-183.9152 746.6134,-168.4343 825.5,-154 826.7916,-153.7637 828.0947,-153.5241 829.4067,-153.2818"/>
<polygon fill="#191970" stroke="#191970" points="830.4106,-156.6551 839.5993,-151.3809 829.1271,-149.7737 830.4106,-156.6551"/>
</g>
<!-- Node16 -->
<g id="node17" class="node">
<title>Node16</title>
<g id="a_node17"><a xlink:href="copyable__unique__ptr_8h.html" target="_top" xlink:title=" ">
<polygon fill="#ffffff" stroke="#000000" points="507,-123.5 507,-153.5 644,-153.5 644,-123.5 507,-123.5"/>
<text text-anchor="start" x="515" y="-141.5" font-family="Helvetica,sans-Serif" font-size="10.00" fill="#000000">drake/common/copyable</text>
<text text-anchor="middle" x="575.5" y="-130.5" font-family="Helvetica,sans-Serif" font-size="10.00" fill="#000000">_unique_ptr.h</text>
</a>
</g>
</g>
<!-- Node11&#45;&gt;Node16 -->
<g id="edge25" class="edge">
<title>Node11&#45;&gt;Node16</title>
<path fill="none" stroke="#191970" d="M537.6189,-190.2967C543.7585,-181.9016 551.5154,-171.2952 558.4086,-161.8698"/>
<polygon fill="#191970" stroke="#191970" points="561.347,-163.781 564.4251,-153.6432 555.6968,-159.6488 561.347,-163.781"/>
</g>
<!-- Node19 -->
<g id="node20" class="node">
<title>Node19</title>
<g id="a_node20"><a xlink:href="drake__copyable_8h.html" target="_top" xlink:title="Provides careful macros to selectively enable or disable the special member functions for copy&#45;constr...">
<polygon fill="#ffffff" stroke="#000000" points="662,-123.5 662,-153.5 783,-153.5 783,-123.5 662,-123.5"/>
<text text-anchor="start" x="670" y="-141.5" font-family="Helvetica,sans-Serif" font-size="10.00" fill="#000000">drake/common/drake</text>
<text text-anchor="middle" x="722.5" y="-130.5" font-family="Helvetica,sans-Serif" font-size="10.00" fill="#000000">_copyable.h</text>
</a>
</g>
</g>
<!-- Node11&#45;&gt;Node19 -->
<g id="edge32" class="edge">
<title>Node11&#45;&gt;Node19</title>
<path fill="none" stroke="#191970" d="M570.4862,-190.4639C599.5117,-180.5419 637.7303,-167.4774 668.5842,-156.9304"/>
<polygon fill="#191970" stroke="#191970" points="669.9916,-160.1482 678.3219,-153.6017 667.7274,-153.5245 669.9916,-160.1482"/>
</g>
<!-- Node13&#45;&gt;Node8 -->
<g id="edge20" class="edge">
<title>Node13&#45;&gt;Node8</title>
<path fill="none" stroke="#191970" d="M364.7171,-123.3903C356.0394,-113.4642 344.9269,-99.9614 336.5,-87 324.2384,-68.1406 312.9466,-44.9221 305.7034,-28.9419"/>
<polygon fill="#191970" stroke="#191970" points="308.8149,-27.3245 301.5588,-19.6044 302.4168,-30.1644 308.8149,-27.3245"/>
</g>
<!-- Node13&#45;&gt;Node10 -->
<g id="edge21" class="edge">
<title>Node13&#45;&gt;Node10</title>
<path fill="none" stroke="#191970" d="M398.2416,-123.2967C412.1915,-112.5537 430.8435,-98.1895 444.9668,-87.3129"/>
<polygon fill="#191970" stroke="#191970" points="447.3055,-89.9295 453.0928,-81.055 443.0344,-84.3835 447.3055,-89.9295"/>
</g>
<!-- Node14 -->
<g id="node15" class="node">
<title>Node14</title>
<g id="a_node15"><a xlink:title=" ">
<polygon fill="#ffffff" stroke="#bfbfbf" points="346,-62 346,-81 411,-81 411,-62 346,-62"/>
<text text-anchor="middle" x="378.5" y="-69" font-family="Helvetica,sans-Serif" font-size="10.00" fill="#000000">functional</text>
</a>
</g>
</g>
<!-- Node13&#45;&gt;Node14 -->
<g id="edge19" class="edge">
<title>Node13&#45;&gt;Node14</title>
<path fill="none" stroke="#191970" d="M378.5,-123.2967C378.5,-113.7699 378.5,-101.3954 378.5,-91.1306"/>
<polygon fill="#191970" stroke="#191970" points="382.0001,-91.0549 378.5,-81.055 375.0001,-91.055 382.0001,-91.0549"/>
</g>
<!-- Node15&#45;&gt;Node4 -->
<g id="edge24" class="edge">
<title>Node15&#45;&gt;Node4</title>
<path fill="none" stroke="#191970" d="M926.8301,-123.2967C942.0445,-112.4524 962.4357,-97.9182 977.7453,-87.006"/>
<polygon fill="#191970" stroke="#191970" points="979.9828,-89.7093 986.0945,-81.055 975.9198,-84.0091 979.9828,-89.7093"/>
</g>
<!-- Node15&#45;&gt;Node10 -->
<g id="edge23" class="edge">
<title>Node15&#45;&gt;Node10</title>
<path fill="none" stroke="#191970" d="M839.7942,-129.319C824.2909,-127.1994 807.8173,-124.985 792.5,-123 661.5116,-106.0247 624.2092,-124.295 497.5,-87 495.6346,-86.451 493.7438,-85.8024 491.8621,-85.087"/>
<polygon fill="#191970" stroke="#191970" points="493.2554,-81.8763 482.6886,-81.1059 490.4686,-88.2977 493.2554,-81.8763"/>
</g>
<!-- Node16&#45;&gt;Node7 -->
<g id="edge26" class="edge">
<title>Node16&#45;&gt;Node7</title>
<path fill="none" stroke="#191970" d="M506.7952,-125.4227C432.9969,-111.3758 318.4993,-89.5822 260.2447,-78.494"/>
<polygon fill="#191970" stroke="#191970" points="260.859,-75.0482 250.3809,-76.6165 259.55,-81.9247 260.859,-75.0482"/>
</g>
<!-- Node16&#45;&gt;Node10 -->
<g id="edge29" class="edge">
<title>Node16&#45;&gt;Node10</title>
<path fill="none" stroke="#191970" d="M550.8139,-123.4639C532.6898,-112.4247 508.1791,-97.4954 490.08,-86.4715"/>
<polygon fill="#191970" stroke="#191970" points="491.6288,-83.3167 481.2676,-81.1039 487.9874,-89.2951 491.6288,-83.3167"/>
</g>
<!-- Node16&#45;&gt;Node12 -->
<g id="edge28" class="edge">
<title>Node16&#45;&gt;Node12</title>
<path fill="none" stroke="#191970" d="M621.9548,-123.4639C658.6247,-111.5949 709.188,-95.229 743.7107,-84.055"/>
<polygon fill="#191970" stroke="#191970" points="745.0002,-87.3165 753.4365,-80.907 742.8446,-80.6566 745.0002,-87.3165"/>
</g>
<!-- Node17 -->
<g id="node18" class="node">
<title>Node17</title>
<g id="a_node18"><a xlink:title=" ">
<polygon fill="#ffffff" stroke="#bfbfbf" points="506.5,-62 506.5,-81 566.5,-81 566.5,-62 506.5,-62"/>
<text text-anchor="middle" x="536.5" y="-69" font-family="Helvetica,sans-Serif" font-size="10.00" fill="#000000">iostream</text>
</a>
</g>
</g>
<!-- Node16&#45;&gt;Node17 -->
<g id="edge27" class="edge">
<title>Node16&#45;&gt;Node17</title>
<path fill="none" stroke="#191970" d="M566.6503,-123.2967C560.8689,-113.3645 553.2858,-100.3371 547.1709,-89.8321"/>
<polygon fill="#191970" stroke="#191970" points="550.1175,-87.9367 542.0618,-81.055 544.0677,-91.4582 550.1175,-87.9367"/>
</g>
<!-- Node18 -->
<g id="node19" class="node">
<title>Node18</title>
<g id="a_node19"><a xlink:href="drake__assert_8h.html" target="_top" xlink:title="Provides Drake&#39;s assertion implementation.">
<polygon fill="#ffffff" stroke="#000000" points="585,-56.5 585,-86.5 706,-86.5 706,-56.5 585,-56.5"/>
<text text-anchor="start" x="593" y="-74.5" font-family="Helvetica,sans-Serif" font-size="10.00" fill="#000000">drake/common/drake</text>
<text text-anchor="middle" x="645.5" y="-63.5" font-family="Helvetica,sans-Serif" font-size="10.00" fill="#000000">_assert.h</text>
</a>
</g>
</g>
<!-- Node16&#45;&gt;Node18 -->
<g id="edge30" class="edge">
<title>Node16&#45;&gt;Node18</title>
<path fill="none" stroke="#191970" d="M591.3841,-123.2967C600.513,-114.559 612.1448,-103.4257 622.2832,-93.7218"/>
<polygon fill="#191970" stroke="#191970" points="624.8747,-96.0862 629.6788,-86.6432 620.0345,-91.0293 624.8747,-96.0862"/>
</g>
<!-- Node18&#45;&gt;Node8 -->
<g id="edge31" class="edge">
<title>Node18&#45;&gt;Node8</title>
<path fill="none" stroke="#191970" d="M584.8353,-57.8572C581.6813,-57.2136 578.5552,-56.5906 575.5,-56 493.602,-40.1689 397.4716,-25.0196 342.4007,-16.667"/>
<polygon fill="#191970" stroke="#191970" points="342.6899,-13.171 332.2794,-15.1384 341.6445,-20.0925 342.6899,-13.171"/>
</g>
</g>
</svg>
        <g id="navigator" transform="translate(0 0)" fill="#404254">
                <rect fill="#f2f5e9" fill-opacity="0.5" stroke="#606060" stroke-width=".5" x="0" y="0" width="60" height="60"/>
                <use id="zoomplus" xlink:href="#zoomPlus" x="17" y="9" onmousedown="handleZoom(evt,'in')"/>
                <use id="zoomminus" xlink:href="#zoomMin" x="42" y="9" onmousedown="handleZoom(evt,'out')"/>
                <use id="reset" xlink:href="#resetDef" x="30" y="36" onmousedown="handleReset()"/>
                <g id="arrowUp" xlink:href="#dirArrow" transform="translate(30 24)" onmousedown="handlePan(0,-1)">
                  <use xlink:href="#rim" fill="#404040">
                        <set attributeName="fill" to="#808080" begin="arrowUp.mouseover" end="arrowUp.mouseout"/>
                  </use>
                  <path fill="none" stroke="white" stroke-width="1.5" d="M0,-3.0v7 M-2.5,-0.5L0,-3.0L2.5,-0.5"/>
                </g>
                <g id="arrowRight" xlink:href="#dirArrow" transform="rotate(90) translate(36 -43)" onmousedown="handlePan(1,0)">
                  <use xlink:href="#rim" fill="#404040">
                        <set attributeName="fill" to="#808080" begin="arrowRight.mouseover" end="arrowRight.mouseout"/>
                  </use>
                  <path fill="none" stroke="white" stroke-width="1.5" d="M0,-3.0v7 M-2.5,-0.5L0,-3.0L2.5,-0.5"/>
                </g>
                <g id="arrowDown" xlink:href="#dirArrow" transform="rotate(180) translate(-30 -48)" onmousedown="handlePan(0,1)">
                  <use xlink:href="#rim" fill="#404040">
                        <set attributeName="fill" to="#808080" begin="arrowDown.mouseover" end="arrowDown.mouseout"/>
                  </use>
                  <path fill="none" stroke="white" stroke-width="1.5" d="M0,-3.0v7 M-2.5,-0.5L0,-3.0L2.5,-0.5"/>
                </g>
                <g id="arrowLeft" xlink:href="#dirArrow" transform="rotate(270) translate(-36 17)" onmousedown="handlePan(-1,0)">
                  <use xlink:href="#rim" fill="#404040">
                        <set attributeName="fill" to="#808080" begin="arrowLeft.mouseover" end="arrowLeft.mouseout"/>
                  </use>
                  <path fill="none" stroke="white" stroke-width="1.5" d="M0,-3.0v7 M-2.5,-0.5L0,-3.0L2.5,-0.5"/>
                </g>
        </g>
        <svg viewBox="0 0 15 15" width="100%" height="30px" preserveAspectRatio="xMaxYMin meet">
         <g id="arrow_out" transform="scale(0.3 0.3)">
          <a xlink:href="cpp__param__pybind_8h__incl_org.svg" target="_base">
           <rect id="button" ry="5" rx="5" y="6" x="6" height="38" width="38"
                fill="#f2f5e9" fill-opacity="0.5" stroke="#606060" stroke-width="1.0"/>
           <path id="arrow"
             d="M 11.500037,31.436501 C 11.940474,20.09759 22.043105,11.32322 32.158766,21.979434 L 37.068811,17.246167 C 37.068811,17.246167 37.088388,32 37.088388,32 L 22.160133,31.978069 C 22.160133,31.978069 26.997745,27.140456 26.997745,27.140456 C 18.528582,18.264221 13.291696,25.230495 11.500037,31.436501 z"
             style="fill:#404040;"/>
          </a>
         </g>
        </svg>
</svg>
