<?xml version="1.0" encoding="UTF-8" standalone="no"?>
<!DOCTYPE svg PUBLIC "-//W3C//DTD SVG 1.1//EN"
 "http://www.w3.org/Graphics/SVG/1.1/DTD/svg11.dtd">
<!-- Generated by graphviz version 2.40.1 (20161225.0304)
 -->
<!-- Title: drake/bindings/pydrake/common/cpp_template_pybind.h Pages: 1 -->
<svg width="456pt" height="117pt"
 viewBox="0.00 0.00 455.50 117.00" xmlns="http://www.w3.org/2000/svg" xmlns:xlink="http://www.w3.org/1999/xlink">
<g id="graph0" class="graph" transform="scale(1 1) rotate(0) translate(4 113)">
<title>drake/bindings/pydrake/common/cpp_template_pybind.h</title>
<polygon fill="#ffffff" stroke="transparent" points="-4,4 -4,-113 451.5,-113 451.5,4 -4,4"/>
<!-- Node22 -->
<g id="node1" class="node">
<title>Node22</title>
<g id="a_node1"><a xlink:title=" ">
<polygon fill="#bfbfbf" stroke="#000000" points="138.5,-78.5 138.5,-108.5 317.5,-108.5 317.5,-78.5 138.5,-78.5"/>
<text text-anchor="start" x="146.5" y="-96.5" font-family="Helvetica,sans-Serif" font-size="10.00" fill="#000000">drake/bindings/pydrake</text>
<text text-anchor="middle" x="228" y="-85.5" font-family="Helvetica,sans-Serif" font-size="10.00" fill="#000000">/common/cpp_template_pybind.h</text>
</a>
</g>
</g>
<!-- Node23 -->
<g id="node2" class="node">
<title>Node23</title>
<g id="a_node2"><a xlink:href="default__scalars__pybind_8h.html" target="_top" xlink:title="Helpers for defining scalars and values.">
<polygon fill="#ffffff" stroke="#000000" points="0,-.5 0,-41.5 140,-41.5 140,-.5 0,-.5"/>
<text text-anchor="start" x="8" y="-29.5" font-family="Helvetica,sans-Serif" font-size="10.00" fill="#000000">drake/bindings/pydrake</text>
<text text-anchor="start" x="8" y="-18.5" font-family="Helvetica,sans-Serif" font-size="10.00" fill="#000000">/common/default_scalars</text>
<text text-anchor="middle" x="70" y="-7.5" font-family="Helvetica,sans-Serif" font-size="10.00" fill="#000000">_pybind.h</text>
</a>
</g>
</g>
<!-- Node22&#45;&gt;Node23 -->
<g id="edge1" class="edge">
<title>Node22&#45;&gt;Node23</title>
<path fill="none" stroke="#191970" d="M186.1558,-74.2993C164.1293,-64.1923 137.1126,-51.7953 114.6791,-41.5015"/>
<polygon fill="#191970" stroke="#191970" points="184.7138,-77.4885 195.2623,-78.478 187.6332,-71.1263 184.7138,-77.4885"/>
</g>
<!-- Node24 -->
<g id="node3" class="node">
<title>Node24</title>
<g id="a_node3"><a xlink:href="value__pybind_8h.html" target="_top" xlink:title="Helpers for defining instantiations of drake::Value&lt;&gt;.">
<polygon fill="#ffffff" stroke="#000000" points="158,-6 158,-36 298,-36 298,-6 158,-6"/>
<text text-anchor="start" x="166" y="-24" font-family="Helvetica,sans-Serif" font-size="10.00" fill="#000000">drake/bindings/pydrake</text>
<text text-anchor="middle" x="228" y="-13" font-family="Helvetica,sans-Serif" font-size="10.00" fill="#000000">/common/value_pybind.h</text>
</a>
</g>
</g>
<!-- Node22&#45;&gt;Node24 -->
<g id="edge2" class="edge">
<title>Node22&#45;&gt;Node24</title>
<path fill="none" stroke="#191970" d="M228,-68.3409C228,-57.5601 228,-45.3309 228,-36.0028"/>
<polygon fill="#191970" stroke="#191970" points="224.5001,-68.4779 228,-78.478 231.5001,-68.478 224.5001,-68.4779"/>
</g>
<!-- Node25 -->
<g id="node4" class="node">
<title>Node25</title>
<g id="a_node4"><a xlink:href="lcm__pybind_8h.html" target="_top" xlink:title="Helpers for defining C++ LCM type serializers.">
<polygon fill="#ffffff" stroke="#000000" points="316.5,-6 316.5,-36 447.5,-36 447.5,-6 316.5,-6"/>
<text text-anchor="start" x="324.5" y="-24" font-family="Helvetica,sans-Serif" font-size="10.00" fill="#000000">drake/bindings/pydrake</text>
<text text-anchor="middle" x="382" y="-13" font-family="Helvetica,sans-Serif" font-size="10.00" fill="#000000">/systems/lcm_pybind.h</text>
</a>
</g>
</g>
<!-- Node22&#45;&gt;Node25 -->
<g id="edge3" class="edge">
<title>Node22&#45;&gt;Node25</title>
<path fill="none" stroke="#191970" d="M269.2805,-74.066C294.6661,-62.115 326.7058,-47.0313 350.132,-36.0028"/>
<polygon fill="#191970" stroke="#191970" points="267.4656,-71.0519 259.9089,-78.478 270.4472,-77.3851 267.4656,-71.0519"/>
</g>
</g>
</svg>
