<?xml version="1.0" encoding="UTF-8" standalone="no"?>
<!DOCTYPE svg PUBLIC "-//W3C//DTD SVG 1.1//EN"
 "http://www.w3.org/Graphics/SVG/1.1/DTD/svg11.dtd">
<!-- Generated by graphviz version 2.40.1 (20161225.0304)
 -->
<!-- Title: drake/bindings/pydrake/common/cpp_template_pybind.h Pages: 1 -->
<!--zoomable 363 -->
<svg id="main" version="1.1" xmlns="http://www.w3.org/2000/svg" xmlns:xlink="http://www.w3.org/1999/xlink" xml:space="preserve" onload="init(evt)">
<style type="text/css"><![CDATA[
.edge:hover path { stroke: red; }
.edge:hover polygon { stroke: red; fill: red; }
]]></style>
<script type="text/javascript"><![CDATA[
var edges = document.getElementsByTagName('g');
if (edges && edges.length) {
  for (var i=0;i<edges.length;i++) {
    if (edges[i].id.substr(0,4)=='edge') {
      edges[i].setAttribute('class','edge');
    }
  }
}
]]></script>
        <defs>
                <circle id="rim" cx="0" cy="0" r="7"/>
                <circle id="rim2" cx="0" cy="0" r="3.5"/>
                <g id="zoomPlus">
                        <use xlink:href="#rim" fill="#404040">
                                <set attributeName="fill" to="#808080" begin="zoomplus.mouseover" end="zoomplus.mouseout"/>
                        </use>
                        <path d="M-4,0h8M0,-4v8" fill="none" stroke="white" stroke-width="1.5" pointer-events="none"/>
                </g>
                <g id="zoomMin">
                        <use xlink:href="#rim" fill="#404040">
                                <set attributeName="fill" to="#808080" begin="zoomminus.mouseover" end="zoomminus.mouseout"/>
                        </use>
                        <path d="M-4,0h8" fill="none" stroke="white" stroke-width="1.5" pointer-events="none"/>
                </g>
                <g id="dirArrow">
                        <path fill="none" stroke="white" stroke-width="1.5" d="M0,-3.0v7 M-2.5,-0.5L0,-3.0L2.5,-0.5"/>
                </g>
               <g id="resetDef">
                       <use xlink:href="#rim2" fill="#404040">
                               <set attributeName="fill" to="#808080" begin="reset.mouseover" end="reset.mouseout"/>
                       </use>
               </g>
        </defs>

<script type="text/javascript">
var viewWidth = 1131;
var viewHeight = 363;
var sectionId = 'dynsection-0';
</script>
<script xlink:href="svgpan.js"/>
<svg id="graph" class="graph">
<g id="viewport">
<title>drake/bindings/pydrake/common/cpp_template_pybind.h</title>
<polygon fill="#ffffff" stroke="transparent" points="-4,4 -4,-359 1127,-359 1127,4 -4,4"/>
<!-- Node0 -->
<g id="node1" class="node">
<title>Node0</title>
<g id="a_node1"><a xlink:title=" ">
<polygon fill="#bfbfbf" stroke="#000000" points="558,-324.5 558,-354.5 737,-354.5 737,-324.5 558,-324.5"/>
<text text-anchor="start" x="566" y="-342.5" font-family="Helvetica,sans-Serif" font-size="10.00" fill="#000000">drake/bindings/pydrake</text>
<text text-anchor="middle" x="647.5" y="-331.5" font-family="Helvetica,sans-Serif" font-size="10.00" fill="#000000">/common/cpp_template_pybind.h</text>
</a>
</g>
</g>
<!-- Node1 -->
<g id="node2" class="node">
<title>Node1</title>
<g id="a_node2"><a xlink:title=" ">
<polygon fill="#ffffff" stroke="#bfbfbf" points="37.5,-129 37.5,-148 81.5,-148 81.5,-129 37.5,-129"/>
<text text-anchor="middle" x="59.5" y="-136" font-family="Helvetica,sans-Serif" font-size="10.00" fill="#000000">string</text>
</a>
</g>
</g>
<!-- Node0&#45;&gt;Node1 -->
<g id="edge1" class="edge">
<title>Node0&#45;&gt;Node1</title>
<path fill="none" stroke="#191970" d="M567.0747,-324.4597C476.7388,-306.097 326.7685,-271.1635 204.5,-221 159,-202.3325 110.0651,-172.1321 82.2706,-153.9114"/>
<polygon fill="#191970" stroke="#191970" points="83.9597,-150.832 73.6905,-148.2254 80.0928,-156.667 83.9597,-150.832"/>
</g>
<!-- Node2 -->
<g id="node3" class="node">
<title>Node2</title>
<g id="a_node3"><a xlink:title=" ">
<polygon fill="#ffffff" stroke="#bfbfbf" points="671,-62 671,-81 716,-81 716,-62 671,-62"/>
<text text-anchor="middle" x="693.5" y="-69" font-family="Helvetica,sans-Serif" font-size="10.00" fill="#000000">utility</text>
</a>
</g>
</g>
<!-- Node0&#45;&gt;Node2 -->
<g id="edge2" class="edge">
<title>Node0&#45;&gt;Node2</title>
<path fill="none" stroke="#191970" d="M707.4637,-324.3894C757.0696,-308.1841 823.5893,-276.8871 850.5,-221 869.3963,-181.757 876.729,-157.7725 850.5,-123 815.4276,-76.5035 778.779,-108.1137 724.5,-87 723.1331,-86.4683 721.7454,-85.8973 720.3534,-85.2994"/>
<polygon fill="#191970" stroke="#191970" points="721.8206,-82.1218 711.2759,-81.0923 718.8771,-88.4729 721.8206,-82.1218"/>
</g>
<!-- Node3 -->
<g id="node4" class="node">
<title>Node3</title>
<g id="a_node4"><a xlink:title=" ">
<polygon fill="#ffffff" stroke="#bfbfbf" points="897.5,-263 897.5,-282 1019.5,-282 1019.5,-263 897.5,-263"/>
<text text-anchor="middle" x="958.5" y="-270" font-family="Helvetica,sans-Serif" font-size="10.00" fill="#000000">pybind11/functional.h</text>
</a>
</g>
</g>
<!-- Node0&#45;&gt;Node3 -->
<g id="edge3" class="edge">
<title>Node0&#45;&gt;Node3</title>
<path fill="none" stroke="#191970" d="M717.2945,-324.4639C773.8751,-312.2745 852.4716,-295.3421 904.3693,-284.1616"/>
<polygon fill="#191970" stroke="#191970" points="905.3399,-287.5329 914.3784,-282.0053 903.8656,-280.6899 905.3399,-287.5329"/>
</g>
<!-- Node4 -->
<g id="node5" class="node">
<title>Node4</title>
<g id="a_node5"><a xlink:title=" ">
<polygon fill="#ffffff" stroke="#bfbfbf" points="0,-62 0,-81 119,-81 119,-62 0,-62"/>
<text text-anchor="middle" x="59.5" y="-69" font-family="Helvetica,sans-Serif" font-size="10.00" fill="#000000">pybind11/pybind11.h</text>
</a>
</g>
</g>
<!-- Node0&#45;&gt;Node4 -->
<g id="edge4" class="edge">
<title>Node0&#45;&gt;Node4</title>
<path fill="none" stroke="#191970" d="M557.9962,-332.1283C487.6192,-324.9048 387.5892,-311.4654 302.5,-288 168.3429,-251.003 89.9473,-274.0171 19.5,-154 6.6895,-132.1754 25.2177,-105.6397 41.1007,-88.6617"/>
<polygon fill="#191970" stroke="#191970" points="43.9841,-90.7243 48.5364,-81.1573 39.0117,-85.7973 43.9841,-90.7243"/>
</g>
<!-- Node5 -->
<g id="node6" class="node">
<title>Node5</title>
<g id="a_node6"><a xlink:title=" ">
<polygon fill="#ffffff" stroke="#bfbfbf" points="755.5,-196 755.5,-215 841.5,-215 841.5,-196 755.5,-196"/>
<text text-anchor="middle" x="798.5" y="-203" font-family="Helvetica,sans-Serif" font-size="10.00" fill="#000000">pybind11/stl.h</text>
</a>
</g>
</g>
<!-- Node0&#45;&gt;Node5 -->
<g id="edge5" class="edge">
<title>Node0&#45;&gt;Node5</title>
<path fill="none" stroke="#191970" d="M682.6106,-324.4016C700.8315,-315.4921 722.725,-303.0167 739.5,-288 760.3113,-269.37 777.9845,-242.1524 788.4182,-224.1421"/>
<polygon fill="#191970" stroke="#191970" points="791.5972,-225.6294 793.4439,-215.1967 785.4943,-222.2007 791.5972,-225.6294"/>
</g>
<!-- Node6 -->
<g id="node7" class="node">
<title>Node6</title>
<g id="a_node7"><a xlink:href="cpp__param__pybind_8h.html" target="_top" xlink:title="Provides a mechanism to map C++ types to canonical Python types.">
<polygon fill="#ffffff" stroke="#000000" points="564,-257.5 564,-287.5 731,-287.5 731,-257.5 564,-257.5"/>
<text text-anchor="start" x="572" y="-275.5" font-family="Helvetica,sans-Serif" font-size="10.00" fill="#000000">drake/bindings/pydrake</text>
<text text-anchor="middle" x="647.5" y="-264.5" font-family="Helvetica,sans-Serif" font-size="10.00" fill="#000000">/common/cpp_param_pybind.h</text>
</a>
</g>
</g>
<!-- Node0&#45;&gt;Node6 -->
<g id="edge6" class="edge">
<title>Node0&#45;&gt;Node6</title>
<path fill="none" stroke="#191970" d="M647.5,-324.2967C647.5,-316.5013 647.5,-306.7991 647.5,-297.9064"/>
<polygon fill="#191970" stroke="#191970" points="651.0001,-297.6431 647.5,-287.6432 644.0001,-297.6432 651.0001,-297.6431"/>
</g>
<!-- Node17 -->
<g id="node18" class="node">
<title>Node17</title>
<g id="a_node18"><a xlink:href="pydrake__pybind_8h.html" target="_top" xlink:title=" ">
<polygon fill="#ffffff" stroke="#000000" points="710,-123.5 710,-153.5 841,-153.5 841,-123.5 710,-123.5"/>
<text text-anchor="start" x="718" y="-141.5" font-family="Helvetica,sans-Serif" font-size="10.00" fill="#000000">drake/bindings/pydrake</text>
<text text-anchor="middle" x="775.5" y="-130.5" font-family="Helvetica,sans-Serif" font-size="10.00" fill="#000000">/pydrake_pybind.h</text>
</a>
</g>
</g>
<!-- Node0&#45;&gt;Node17 -->
<g id="edge41" class="edge">
<title>Node0&#45;&gt;Node17</title>
<path fill="none" stroke="#191970" d="M598.8712,-324.31C581.7522,-316.3591 564.339,-304.6954 554.5,-288 547.5048,-276.1301 550.7643,-270.2617 554.5,-257 563.9657,-223.3969 567.7113,-211.1319 595.5,-190 612.3267,-177.2042 658.5231,-164.1161 699.9001,-154.3361"/>
<polygon fill="#191970" stroke="#191970" points="700.7926,-157.722 709.741,-152.0496 699.2083,-150.9037 700.7926,-157.722"/>
</g>
<!-- Node6&#45;&gt;Node1 -->
<g id="edge7" class="edge">
<title>Node6&#45;&gt;Node1</title>
<path fill="none" stroke="#191970" d="M563.8128,-263.1853C452.5504,-248.9194 251.1541,-216.4898 89.5,-154 88.2697,-153.5244 87.0239,-153.0127 85.7748,-152.4748"/>
<polygon fill="#191970" stroke="#191970" points="86.875,-149.1233 76.3391,-148.0072 83.8794,-155.45 86.875,-149.1233"/>
</g>
<!-- Node6&#45;&gt;Node4 -->
<g id="edge10" class="edge">
<title>Node6&#45;&gt;Node4</title>
<path fill="none" stroke="#191970" d="M563.9504,-268.9613C474.0682,-263.7297 327.4737,-251.0596 204.5,-221 123.1953,-201.126 76.003,-222.9122 28.5,-154 14.5447,-133.7552 30.3262,-106.4172 44.0095,-88.8692"/>
<polygon fill="#191970" stroke="#191970" points="46.7454,-91.0529 50.4187,-81.1152 41.3499,-86.5931 46.7454,-91.0529"/>
</g>
<!-- Node6&#45;&gt;Node5 -->
<g id="edge11" class="edge">
<title>Node6&#45;&gt;Node5</title>
<path fill="none" stroke="#191970" d="M681.3873,-257.4639C707.1797,-246.0196 742.3945,-230.3945 767.4571,-219.274"/>
<polygon fill="#191970" stroke="#191970" points="769.1343,-222.359 776.8553,-215.1039 766.2952,-215.9605 769.1343,-222.359"/>
</g>
<!-- Node7 -->
<g id="node8" class="node">
<title>Node7</title>
<g id="a_node8"><a xlink:title=" ">
<polygon fill="#ffffff" stroke="#bfbfbf" points="1066,-62 1066,-81 1123,-81 1123,-62 1066,-62"/>
<text text-anchor="middle" x="1094.5" y="-69" font-family="Helvetica,sans-Serif" font-size="10.00" fill="#000000">typeinfo</text>
</a>
</g>
</g>
<!-- Node6&#45;&gt;Node7 -->
<g id="edge8" class="edge">
<title>Node6&#45;&gt;Node7</title>
<path fill="none" stroke="#191970" d="M666.7352,-257.4095C679.5442,-247.266 696.6805,-233.5135 711.5,-221 727.3768,-207.5937 727.5582,-198.5446 746.5,-190 865.6941,-136.2317 926.9252,-222.186 1038.5,-154 1062.5398,-139.3087 1078.6468,-109.9533 1087.1913,-90.5167"/>
<polygon fill="#191970" stroke="#191970" points="1090.4813,-91.7195 1091.0676,-81.1409 1084.0123,-89.045 1090.4813,-91.7195"/>
</g>
<!-- Node8 -->
<g id="node9" class="node">
<title>Node8</title>
<g id="a_node9"><a xlink:title=" ">
<polygon fill="#ffffff" stroke="#bfbfbf" points="614,-196 614,-215 661,-215 661,-196 614,-196"/>
<text text-anchor="middle" x="637.5" y="-203" font-family="Helvetica,sans-Serif" font-size="10.00" fill="#000000">vector</text>
</a>
</g>
</g>
<!-- Node6&#45;&gt;Node8 -->
<g id="edge9" class="edge">
<title>Node6&#45;&gt;Node8</title>
<path fill="none" stroke="#191970" d="M645.2308,-257.2967C643.8089,-247.7699 641.962,-235.3954 640.4299,-225.1306"/>
<polygon fill="#191970" stroke="#191970" points="643.864,-224.4287 638.9261,-215.055 636.9407,-225.4621 643.864,-224.4287"/>
</g>
<!-- Node9 -->
<g id="node10" class="node">
<title>Node9</title>
<g id="a_node10"><a xlink:href="type__pack_8h.html" target="_top" xlink:title="Basic meta&#45;programming utilities for types, focused on template parameter packs.">
<polygon fill="#ffffff" stroke="#000000" points="898,-123.5 898,-153.5 1029,-153.5 1029,-123.5 898,-123.5"/>
<text text-anchor="start" x="906" y="-141.5" font-family="Helvetica,sans-Serif" font-size="10.00" fill="#000000">drake/bindings/pydrake</text>
<text text-anchor="middle" x="963.5" y="-130.5" font-family="Helvetica,sans-Serif" font-size="10.00" fill="#000000">/common/type_pack.h</text>
</a>
</g>
</g>
<!-- Node6&#45;&gt;Node9 -->
<g id="edge12" class="edge">
<title>Node6&#45;&gt;Node9</title>
<path fill="none" stroke="#191970" d="M655.2815,-257.3338C665.8131,-238.4242 686.441,-206.5753 713.5,-190 742.2257,-172.4037 825.0082,-157.5435 887.508,-148.376"/>
<polygon fill="#191970" stroke="#191970" points="888.3474,-151.7912 897.7447,-146.8983 887.3473,-144.863 888.3474,-151.7912"/>
</g>
<!-- Node13 -->
<g id="node14" class="node">
<title>Node13</title>
<g id="a_node14"><a xlink:href="wrap__pybind_8h.html" target="_top" xlink:title="Defines convenience utilities to wrap pybind11 methods and classes.">
<polygon fill="#ffffff" stroke="#000000" points="350,-190.5 350,-220.5 487,-220.5 487,-190.5 350,-190.5"/>
<text text-anchor="start" x="358" y="-208.5" font-family="Helvetica,sans-Serif" font-size="10.00" fill="#000000">drake/bindings/pydrake</text>
<text text-anchor="middle" x="418.5" y="-197.5" font-family="Helvetica,sans-Serif" font-size="10.00" fill="#000000">/common/wrap_pybind.h</text>
</a>
</g>
</g>
<!-- Node6&#45;&gt;Node13 -->
<g id="edge18" class="edge">
<title>Node6&#45;&gt;Node13</title>
<path fill="none" stroke="#191970" d="M596.1079,-257.4639C561.7551,-247.4131 516.3805,-234.1375 480.0934,-223.5208"/>
<polygon fill="#191970" stroke="#191970" points="480.6967,-220.0506 470.1162,-220.6017 478.731,-226.769 480.6967,-220.0506"/>
</g>
<!-- Node6&#45;&gt;Node17 -->
<g id="edge40" class="edge">
<title>Node6&#45;&gt;Node17</title>
<path fill="none" stroke="#191970" d="M629.6881,-257.369C611.6115,-240.161 588.4104,-211.6491 604.5,-190 610.8188,-181.4979 659.1242,-167.3964 702.787,-156.097"/>
<polygon fill="#191970" stroke="#191970" points="703.775,-159.457 712.5938,-153.585 702.038,-152.6759 703.775,-159.457"/>
</g>
<!-- Node9&#45;&gt;Node2 -->
<g id="edge17" class="edge">
<title>Node9&#45;&gt;Node2</title>
<path fill="none" stroke="#191970" d="M897.9535,-125.2576C832.966,-111.986 740.7932,-92.7258 724.5,-87 723.0808,-86.5013 721.6431,-85.9521 720.2041,-85.3671"/>
<polygon fill="#191970" stroke="#191970" points="721.4238,-82.0774 710.8704,-81.142 718.5371,-88.4545 721.4238,-82.0774"/>
</g>
<!-- Node9&#45;&gt;Node7 -->
<g id="edge16" class="edge">
<title>Node9&#45;&gt;Node7</title>
<path fill="none" stroke="#191970" d="M992.899,-123.4639C1014.9781,-112.1715 1045.0161,-96.8086 1066.6983,-85.7192"/>
<polygon fill="#191970" stroke="#191970" points="1068.4128,-88.7736 1075.7222,-81.1039 1065.2253,-82.5414 1068.4128,-88.7736"/>
</g>
<!-- Node10 -->
<g id="node11" class="node">
<title>Node10</title>
<g id="a_node11"><a xlink:title=" ">
<polygon fill="#ffffff" stroke="#bfbfbf" points="734,-62 734,-81 787,-81 787,-62 734,-62"/>
<text text-anchor="middle" x="760.5" y="-69" font-family="Helvetica,sans-Serif" font-size="10.00" fill="#000000">cstddef</text>
</a>
</g>
</g>
<!-- Node9&#45;&gt;Node10 -->
<g id="edge13" class="edge">
<title>Node9&#45;&gt;Node10</title>
<path fill="none" stroke="#191970" d="M909.6121,-123.4792C876.653,-113.8987 833.7972,-100.7351 796.5,-87 794.6801,-86.3298 792.8193,-85.6168 790.9492,-84.8787"/>
<polygon fill="#191970" stroke="#191970" points="792.2474,-81.6282 781.6676,-81.0622 789.5853,-88.1022 792.2474,-81.6282"/>
</g>
<!-- Node11 -->
<g id="node12" class="node">
<title>Node11</title>
<g id="a_node12"><a xlink:title=" ">
<polygon fill="#ffffff" stroke="#bfbfbf" points="436,-.5 436,-19.5 505,-19.5 505,-.5 436,-.5"/>
<text text-anchor="middle" x="470.5" y="-7.5" font-family="Helvetica,sans-Serif" font-size="10.00" fill="#000000">type_traits</text>
</a>
</g>
</g>
<!-- Node9&#45;&gt;Node11 -->
<g id="edge14" class="edge">
<title>Node9&#45;&gt;Node11</title>
<path fill="none" stroke="#191970" d="M963.0409,-123.2381C961.575,-104.2274 955.9922,-72.2719 935.5,-56 902.9964,-30.1905 625.3004,-16.2492 515.201,-11.6947"/>
<polygon fill="#191970" stroke="#191970" points="515.2173,-8.1925 505.0833,-11.2831 514.9328,-15.1868 515.2173,-8.1925"/>
</g>
<!-- Node12 -->
<g id="node13" class="node">
<title>Node12</title>
<g id="a_node13"><a xlink:title=" ">
<polygon fill="#ffffff" stroke="#bfbfbf" points="983,-62 983,-81 1048,-81 1048,-62 983,-62"/>
<text text-anchor="middle" x="1015.5" y="-69" font-family="Helvetica,sans-Serif" font-size="10.00" fill="#000000">typeindex</text>
</a>
</g>
</g>
<!-- Node9&#45;&gt;Node12 -->
<g id="edge15" class="edge">
<title>Node9&#45;&gt;Node12</title>
<path fill="none" stroke="#191970" d="M975.2996,-123.2967C983.1655,-113.1618 993.5327,-99.804 1001.7688,-89.1921"/>
<polygon fill="#191970" stroke="#191970" points="1004.7179,-91.1008 1008.0842,-81.055 999.188,-86.8089 1004.7179,-91.1008"/>
</g>
<!-- Node13&#45;&gt;Node1 -->
<g id="edge20" class="edge">
<title>Node13&#45;&gt;Node1</title>
<path fill="none" stroke="#191970" d="M349.9913,-199.5608C283.8585,-192.6679 181.3948,-178.9171 95.5,-154 93.3229,-153.3685 91.1029,-152.6388 88.8879,-151.8473"/>
<polygon fill="#191970" stroke="#191970" points="89.9453,-148.5021 79.3583,-148.0934 87.3797,-155.015 89.9453,-148.5021"/>
</g>
<!-- Node13&#45;&gt;Node2 -->
<g id="edge22" class="edge">
<title>Node13&#45;&gt;Node2</title>
<path fill="none" stroke="#191970" d="M487.0369,-194.3982C554.1305,-182.9876 648.1755,-165.3332 661.5,-154 680.1842,-138.1081 688.0098,-109.948 691.2536,-91.0045"/>
<polygon fill="#191970" stroke="#191970" points="694.7219,-91.4748 692.6815,-81.0783 687.7932,-90.478 694.7219,-91.4748"/>
</g>
<!-- Node13&#45;&gt;Node4 -->
<g id="edge23" class="edge">
<title>Node13&#45;&gt;Node4</title>
<path fill="none" stroke="#191970" d="M349.7909,-198.7677C276.2595,-190.6118 165.2258,-175.273 128.5,-154 101.9617,-138.628 81.0734,-109.0201 69.5096,-89.7717"/>
<polygon fill="#191970" stroke="#191970" points="72.4916,-87.9365 64.4646,-81.0214 66.4273,-91.4329 72.4916,-87.9365"/>
</g>
<!-- Node13&#45;&gt;Node11 -->
<g id="edge21" class="edge">
<title>Node13&#45;&gt;Node11</title>
<path fill="none" stroke="#191970" d="M438.2928,-190.4779C458.0518,-173.6147 483.3648,-145.6501 467.5,-123 440.6402,-84.6522 395.3598,-125.3478 368.5,-87 360.5957,-75.7151 361.0238,-67.573 368.5,-56 381.2398,-36.2792 404.6848,-24.9263 425.8874,-18.4358"/>
<polygon fill="#191970" stroke="#191970" points="427.0395,-21.7484 435.7409,-15.7039 425.1693,-15.0029 427.0395,-21.7484"/>
</g>
<!-- Node14 -->
<g id="node15" class="node">
<title>Node14</title>
<g id="a_node15"><a xlink:title=" ">
<polygon fill="#ffffff" stroke="#bfbfbf" points="377.5,-62 377.5,-81 435.5,-81 435.5,-62 377.5,-62"/>
<text text-anchor="middle" x="406.5" y="-69" font-family="Helvetica,sans-Serif" font-size="10.00" fill="#000000">memory</text>
</a>
</g>
</g>
<!-- Node13&#45;&gt;Node14 -->
<g id="edge19" class="edge">
<title>Node13&#45;&gt;Node14</title>
<path fill="none" stroke="#191970" d="M372.3458,-190.4044C355.4715,-182.3939 338.1633,-170.6632 328.5,-154 321.5881,-142.0814 321.9718,-135.133 328.5,-123 337.5624,-106.1569 354.8147,-93.9063 370.7942,-85.5897"/>
<polygon fill="#191970" stroke="#191970" points="372.5072,-88.6491 379.9841,-81.1427 369.458,-82.3481 372.5072,-88.6491"/>
</g>
<!-- Node15 -->
<g id="node16" class="node">
<title>Node15</title>
<g id="a_node16"><a xlink:href="wrap__function_8h.html" target="_top" xlink:title=" ">
<polygon fill="#ffffff" stroke="#000000" points="138,-123.5 138,-153.5 281,-153.5 281,-123.5 138,-123.5"/>
<text text-anchor="start" x="146" y="-141.5" font-family="Helvetica,sans-Serif" font-size="10.00" fill="#000000">drake/bindings/pydrake</text>
<text text-anchor="middle" x="209.5" y="-130.5" font-family="Helvetica,sans-Serif" font-size="10.00" fill="#000000">/common/wrap_function.h</text>
</a>
</g>
</g>
<!-- Node13&#45;&gt;Node15 -->
<g id="edge24" class="edge">
<title>Node13&#45;&gt;Node15</title>
<path fill="none" stroke="#191970" d="M371.5963,-190.4639C340.3777,-180.456 299.1858,-167.2509 266.1391,-156.657"/>
<polygon fill="#191970" stroke="#191970" points="267.1994,-153.3215 256.6083,-153.6017 265.0624,-159.9874 267.1994,-153.3215"/>
</g>
<!-- Node13&#45;&gt;Node17 -->
<g id="edge28" class="edge">
<title>Node13&#45;&gt;Node17</title>
<path fill="none" stroke="#191970" d="M487.1125,-192.8925C543.1838,-182.5536 624.497,-167.4787 695.5,-154 696.79,-153.7551 698.0916,-153.5076 699.4023,-153.258"/>
<polygon fill="#191970" stroke="#191970" points="700.4213,-156.6267 709.5864,-151.3117 699.1072,-149.7511 700.4213,-156.6267"/>
</g>
<!-- Node19 -->
<g id="node20" class="node">
<title>Node19</title>
<g id="a_node20"><a xlink:href="copyable__unique__ptr_8h.html" target="_top" xlink:title=" ">
<polygon fill="#ffffff" stroke="#000000" points="516,-123.5 516,-153.5 653,-153.5 653,-123.5 516,-123.5"/>
<text text-anchor="start" x="524" y="-141.5" font-family="Helvetica,sans-Serif" font-size="10.00" fill="#000000">drake/common/copyable</text>
<text text-anchor="middle" x="584.5" y="-130.5" font-family="Helvetica,sans-Serif" font-size="10.00" fill="#000000">_unique_ptr.h</text>
</a>
</g>
</g>
<!-- Node13&#45;&gt;Node19 -->
<g id="edge32" class="edge">
<title>Node13&#45;&gt;Node19</title>
<path fill="none" stroke="#191970" d="M455.7536,-190.4639C479.9108,-180.7137 511.5866,-167.9289 537.4736,-157.4805"/>
<polygon fill="#191970" stroke="#191970" points="539.1207,-160.5901 547.0839,-153.6017 536.5007,-154.0989 539.1207,-160.5901"/>
</g>
<!-- Node22 -->
<g id="node23" class="node">
<title>Node22</title>
<g id="a_node23"><a xlink:href="drake__copyable_8h.html" target="_top" xlink:title="Provides careful macros to selectively enable or disable the special member functions for copy&#45;constr...">
<polygon fill="#ffffff" stroke="#000000" points="338,-123.5 338,-153.5 459,-153.5 459,-123.5 338,-123.5"/>
<text text-anchor="start" x="346" y="-141.5" font-family="Helvetica,sans-Serif" font-size="10.00" fill="#000000">drake/common/drake</text>
<text text-anchor="middle" x="398.5" y="-130.5" font-family="Helvetica,sans-Serif" font-size="10.00" fill="#000000">_copyable.h</text>
</a>
</g>
</g>
<!-- Node13&#45;&gt;Node22 -->
<g id="edge39" class="edge">
<title>Node13&#45;&gt;Node22</title>
<path fill="none" stroke="#191970" d="M413.9617,-190.2967C411.5836,-182.3299 408.611,-172.3718 405.9093,-163.3213"/>
<polygon fill="#191970" stroke="#191970" points="409.2345,-162.2242 403.0203,-153.6432 402.527,-164.2265 409.2345,-162.2242"/>
</g>
<!-- Node15&#45;&gt;Node2 -->
<g id="edge27" class="edge">
<title>Node15&#45;&gt;Node2</title>
<path fill="none" stroke="#191970" d="M281.2056,-128.9029C296.7892,-126.8891 313.191,-124.8243 328.5,-123 476.3165,-105.3853 518.4095,-128.0502 661.5,-87 663.2133,-86.5085 664.9473,-85.9306 666.6754,-85.2922"/>
<polygon fill="#191970" stroke="#191970" points="668.5149,-88.3116 676.3249,-81.1523 665.7549,-81.8786 668.5149,-88.3116"/>
</g>
<!-- Node15&#45;&gt;Node11 -->
<g id="edge26" class="edge">
<title>Node15&#45;&gt;Node11</title>
<path fill="none" stroke="#191970" d="M208.4105,-123.3434C207.9683,-104.7448 210.2832,-73.5283 228.5,-56 256.1022,-29.4409 363.5713,-17.5273 425.6175,-12.7675"/>
<polygon fill="#191970" stroke="#191970" points="426.1888,-16.2351 435.9055,-12.0118 425.676,-9.2539 426.1888,-16.2351"/>
</g>
<!-- Node16 -->
<g id="node17" class="node">
<title>Node16</title>
<g id="a_node17"><a xlink:title=" ">
<polygon fill="#ffffff" stroke="#bfbfbf" points="238,-62 238,-81 303,-81 303,-62 238,-62"/>
<text text-anchor="middle" x="270.5" y="-69" font-family="Helvetica,sans-Serif" font-size="10.00" fill="#000000">functional</text>
</a>
</g>
</g>
<!-- Node15&#45;&gt;Node16 -->
<g id="edge25" class="edge">
<title>Node15&#45;&gt;Node16</title>
<path fill="none" stroke="#191970" d="M223.3418,-123.2967C232.7537,-112.9591 245.2183,-99.2684 254.9689,-88.5588"/>
<polygon fill="#191970" stroke="#191970" points="257.6565,-90.8057 261.8007,-81.055 252.4804,-86.0931 257.6565,-90.8057"/>
</g>
<!-- Node17&#45;&gt;Node2 -->
<g id="edge29" class="edge">
<title>Node17&#45;&gt;Node2</title>
<path fill="none" stroke="#191970" d="M756.8929,-123.2967C743.8689,-112.6551 726.4961,-98.4602 713.231,-87.6217"/>
<polygon fill="#191970" stroke="#191970" points="715.1525,-84.6719 705.1941,-81.055 710.7234,-90.0926 715.1525,-84.6719"/>
</g>
<!-- Node17&#45;&gt;Node4 -->
<g id="edge30" class="edge">
<title>Node17&#45;&gt;Node4</title>
<path fill="none" stroke="#191970" d="M709.8635,-128.9799C694.0464,-126.8507 677.1856,-124.7172 661.5,-123 469.5385,-101.9845 420.8746,-103.8187 228.5,-87 195.9325,-84.1527 159.8482,-80.8618 129.4137,-78.0467"/>
<polygon fill="#191970" stroke="#191970" points="129.6026,-74.5493 119.3223,-77.1116 128.9566,-81.5195 129.6026,-74.5493"/>
</g>
<!-- Node18 -->
<g id="node19" class="node">
<title>Node18</title>
<g id="a_node19"><a xlink:href="drake__deprecated_8h.html" target="_top" xlink:title="Provides a portable macro for use in generating compile&#45;time warnings for use of code that is permitt...">
<polygon fill="#ffffff" stroke="#000000" points="805,-56.5 805,-86.5 926,-86.5 926,-56.5 805,-56.5"/>
<text text-anchor="start" x="813" y="-74.5" font-family="Helvetica,sans-Serif" font-size="10.00" fill="#000000">drake/common/drake</text>
<text text-anchor="middle" x="865.5" y="-63.5" font-family="Helvetica,sans-Serif" font-size="10.00" fill="#000000">_deprecated.h</text>
</a>
</g>
</g>
<!-- Node17&#45;&gt;Node18 -->
<g id="edge31" class="edge">
<title>Node17&#45;&gt;Node18</title>
<path fill="none" stroke="#191970" d="M795.9224,-123.2967C808.0048,-114.302 823.4972,-102.7687 836.7948,-92.8694"/>
<polygon fill="#191970" stroke="#191970" points="839.2271,-95.4221 845.1584,-86.6432 835.0471,-89.8072 839.2271,-95.4221"/>
</g>
<!-- Node19&#45;&gt;Node2 -->
<g id="edge36" class="edge">
<title>Node19&#45;&gt;Node2</title>
<path fill="none" stroke="#191970" d="M608.9617,-123.4639C626.921,-112.4247 651.2089,-97.4954 669.1434,-86.4715"/>
<polygon fill="#191970" stroke="#191970" points="671.1893,-89.3223 677.8757,-81.1039 667.5236,-83.3588 671.1893,-89.3223"/>
</g>
<!-- Node19&#45;&gt;Node10 -->
<g id="edge33" class="edge">
<title>Node19&#45;&gt;Node10</title>
<path fill="none" stroke="#191970" d="M627.309,-123.4304C655.1441,-113.4654 692.1461,-99.905 724.5,-87 726.1078,-86.3587 727.7515,-85.6918 729.4081,-85.0108"/>
<polygon fill="#191970" stroke="#191970" points="731.0121,-88.1334 738.8771,-81.0346 728.3019,-81.6793 731.0121,-88.1334"/>
</g>
<!-- Node19&#45;&gt;Node14 -->
<g id="edge35" class="edge">
<title>Node19&#45;&gt;Node14</title>
<path fill="none" stroke="#191970" d="M542.3926,-123.4429C514.5229,-113.3709 477.2183,-99.6862 444.5,-87 442.8558,-86.3625 441.1744,-85.7034 439.4783,-85.0328"/>
<polygon fill="#191970" stroke="#191970" points="440.3448,-81.6095 429.7605,-81.1372 437.7402,-88.1068 440.3448,-81.6095"/>
</g>
<!-- Node20 -->
<g id="node21" class="node">
<title>Node20</title>
<g id="a_node21"><a xlink:title=" ">
<polygon fill="#ffffff" stroke="#bfbfbf" points="453.5,-62 453.5,-81 513.5,-81 513.5,-62 453.5,-62"/>
<text text-anchor="middle" x="483.5" y="-69" font-family="Helvetica,sans-Serif" font-size="10.00" fill="#000000">iostream</text>
</a>
</g>
</g>
<!-- Node19&#45;&gt;Node20 -->
<g id="edge34" class="edge">
<title>Node19&#45;&gt;Node20</title>
<path fill="none" stroke="#191970" d="M561.8336,-123.4639C545.3451,-112.526 523.0996,-97.769 506.5278,-86.7759"/>
<polygon fill="#191970" stroke="#191970" points="508.2455,-83.7153 497.9776,-81.1039 504.3759,-89.5485 508.2455,-83.7153"/>
</g>
<!-- Node21 -->
<g id="node22" class="node">
<title>Node21</title>
<g id="a_node22"><a xlink:href="drake__assert_8h.html" target="_top" xlink:title="Provides Drake&#39;s assertion implementation.">
<polygon fill="#ffffff" stroke="#000000" points="532,-56.5 532,-86.5 653,-86.5 653,-56.5 532,-56.5"/>
<text text-anchor="start" x="540" y="-74.5" font-family="Helvetica,sans-Serif" font-size="10.00" fill="#000000">drake/common/drake</text>
<text text-anchor="middle" x="592.5" y="-63.5" font-family="Helvetica,sans-Serif" font-size="10.00" fill="#000000">_assert.h</text>
</a>
</g>
</g>
<!-- Node19&#45;&gt;Node21 -->
<g id="edge37" class="edge">
<title>Node19&#45;&gt;Node21</title>
<path fill="none" stroke="#191970" d="M586.3153,-123.2967C587.2563,-115.4156 588.4301,-105.5857 589.5014,-96.6135"/>
<polygon fill="#191970" stroke="#191970" points="592.9815,-96.9876 590.6919,-86.6432 586.0309,-96.1576 592.9815,-96.9876"/>
</g>
<!-- Node21&#45;&gt;Node11 -->
<g id="edge38" class="edge">
<title>Node21&#45;&gt;Node11</title>
<path fill="none" stroke="#191970" d="M562.6554,-56.4554C543.103,-46.599 517.7128,-33.7999 498.5355,-24.1327"/>
<polygon fill="#191970" stroke="#191970" points="499.9108,-20.9064 489.4057,-19.5303 496.7598,-27.1571 499.9108,-20.9064"/>
</g>
</g>
</svg>
        <g id="navigator" transform="translate(0 0)" fill="#404254">
                <rect fill="#f2f5e9" fill-opacity="0.5" stroke="#606060" stroke-width=".5" x="0" y="0" width="60" height="60"/>
                <use id="zoomplus" xlink:href="#zoomPlus" x="17" y="9" onmousedown="handleZoom(evt,'in')"/>
                <use id="zoomminus" xlink:href="#zoomMin" x="42" y="9" onmousedown="handleZoom(evt,'out')"/>
                <use id="reset" xlink:href="#resetDef" x="30" y="36" onmousedown="handleReset()"/>
                <g id="arrowUp" xlink:href="#dirArrow" transform="translate(30 24)" onmousedown="handlePan(0,-1)">
                  <use xlink:href="#rim" fill="#404040">
                        <set attributeName="fill" to="#808080" begin="arrowUp.mouseover" end="arrowUp.mouseout"/>
                  </use>
                  <path fill="none" stroke="white" stroke-width="1.5" d="M0,-3.0v7 M-2.5,-0.5L0,-3.0L2.5,-0.5"/>
                </g>
                <g id="arrowRight" xlink:href="#dirArrow" transform="rotate(90) translate(36 -43)" onmousedown="handlePan(1,0)">
                  <use xlink:href="#rim" fill="#404040">
                        <set attributeName="fill" to="#808080" begin="arrowRight.mouseover" end="arrowRight.mouseout"/>
                  </use>
                  <path fill="none" stroke="white" stroke-width="1.5" d="M0,-3.0v7 M-2.5,-0.5L0,-3.0L2.5,-0.5"/>
                </g>
                <g id="arrowDown" xlink:href="#dirArrow" transform="rotate(180) translate(-30 -48)" onmousedown="handlePan(0,1)">
                  <use xlink:href="#rim" fill="#404040">
                        <set attributeName="fill" to="#808080" begin="arrowDown.mouseover" end="arrowDown.mouseout"/>
                  </use>
                  <path fill="none" stroke="white" stroke-width="1.5" d="M0,-3.0v7 M-2.5,-0.5L0,-3.0L2.5,-0.5"/>
                </g>
                <g id="arrowLeft" xlink:href="#dirArrow" transform="rotate(270) translate(-36 17)" onmousedown="handlePan(-1,0)">
                  <use xlink:href="#rim" fill="#404040">
                        <set attributeName="fill" to="#808080" begin="arrowLeft.mouseover" end="arrowLeft.mouseout"/>
                  </use>
                  <path fill="none" stroke="white" stroke-width="1.5" d="M0,-3.0v7 M-2.5,-0.5L0,-3.0L2.5,-0.5"/>
                </g>
        </g>
        <svg viewBox="0 0 15 15" width="100%" height="30px" preserveAspectRatio="xMaxYMin meet">
         <g id="arrow_out" transform="scale(0.3 0.3)">
          <a xlink:href="cpp__template__pybind_8h__incl_org.svg" target="_base">
           <rect id="button" ry="5" rx="5" y="6" x="6" height="38" width="38"
                fill="#f2f5e9" fill-opacity="0.5" stroke="#606060" stroke-width="1.0"/>
           <path id="arrow"
             d="M 11.500037,31.436501 C 11.940474,20.09759 22.043105,11.32322 32.158766,21.979434 L 37.068811,17.246167 C 37.068811,17.246167 37.088388,32 37.088388,32 L 22.160133,31.978069 C 22.160133,31.978069 26.997745,27.140456 26.997745,27.140456 C 18.528582,18.264221 13.291696,25.230495 11.500037,31.436501 z"
             style="fill:#404040;"/>
          </a>
         </g>
        </svg>
</svg>
