<?xml version="1.0" encoding="UTF-8" standalone="no"?>
<!DOCTYPE svg PUBLIC "-//W3C//DTD SVG 1.1//EN"
 "http://www.w3.org/Graphics/SVG/1.1/DTD/svg11.dtd">
<!-- Generated by graphviz version 2.40.1 (20161225.0304)
 -->
<!-- Title: drake/solvers/create_constraint.h Pages: 1 -->
<svg width="2452pt" height="530pt"
 viewBox="0.00 0.00 2451.50 530.00" xmlns="http://www.w3.org/2000/svg" xmlns:xlink="http://www.w3.org/1999/xlink">
<g id="graph0" class="graph" transform="scale(1 1) rotate(0) translate(4 526)">
<title>drake/solvers/create_constraint.h</title>
<polygon fill="#ffffff" stroke="transparent" points="-4,4 -4,-526 2447.5,-526 2447.5,4 -4,4"/>
<!-- Node76 -->
<g id="node1" class="node">
<title>Node76</title>
<g id="a_node1"><a xlink:title=" ">
<polygon fill="#bfbfbf" stroke="#000000" points="1327,-491.5 1327,-521.5 1443,-521.5 1443,-491.5 1327,-491.5"/>
<text text-anchor="start" x="1335" y="-509.5" font-family="Helvetica,sans-Serif" font-size="10.00" fill="#000000">drake/solvers/create</text>
<text text-anchor="middle" x="1385" y="-498.5" font-family="Helvetica,sans-Serif" font-size="10.00" fill="#000000">_constraint.h</text>
</a>
</g>
</g>
<!-- Node77 -->
<g id="node2" class="node">
<title>Node77</title>
<g id="a_node2"><a xlink:href="mathematical__program_8h.html" target="_top" xlink:title=" ">
<polygon fill="#ffffff" stroke="#000000" points="1308,-424.5 1308,-454.5 1462,-454.5 1462,-424.5 1308,-424.5"/>
<text text-anchor="start" x="1316" y="-442.5" font-family="Helvetica,sans-Serif" font-size="10.00" fill="#000000">drake/solvers/mathematical</text>
<text text-anchor="middle" x="1385" y="-431.5" font-family="Helvetica,sans-Serif" font-size="10.00" fill="#000000">_program.h</text>
</a>
</g>
</g>
<!-- Node76&#45;&gt;Node77 -->
<g id="edge1" class="edge">
<title>Node76&#45;&gt;Node77</title>
<path fill="none" stroke="#191970" d="M1385,-481.0249C1385,-472.128 1385,-462.4287 1385,-454.6432"/>
<polygon fill="#191970" stroke="#191970" points="1381.5001,-481.2966 1385,-491.2967 1388.5001,-481.2967 1381.5001,-481.2966"/>
</g>
<!-- Node78 -->
<g id="node3" class="node">
<title>Node78</title>
<g id="a_node3"><a xlink:href="brick__static__equilibrium__constraint_8h.html" target="_top" xlink:title=" ">
<polygon fill="#ffffff" stroke="#000000" points="0,-346.5 0,-387.5 140,-387.5 140,-346.5 0,-346.5"/>
<text text-anchor="start" x="8" y="-375.5" font-family="Helvetica,sans-Serif" font-size="10.00" fill="#000000">drake/examples/planar</text>
<text text-anchor="start" x="8" y="-364.5" font-family="Helvetica,sans-Serif" font-size="10.00" fill="#000000">_gripper/brick_static</text>
<text text-anchor="middle" x="70" y="-353.5" font-family="Helvetica,sans-Serif" font-size="10.00" fill="#000000">_equilibrium_constraint.h</text>
</a>
</g>
</g>
<!-- Node77&#45;&gt;Node78 -->
<g id="edge2" class="edge">
<title>Node77&#45;&gt;Node78</title>
<path fill="none" stroke="#191970" d="M1297.7439,-438.3374C1054.28,-434.7 370.8874,-421.7004 149,-388 146.0536,-387.5525 143.0589,-387.0371 140.0438,-386.468"/>
<polygon fill="#191970" stroke="#191970" points="1297.9093,-441.8402 1307.9599,-438.4884 1298.0128,-434.8409 1297.9093,-441.8402"/>
</g>
<!-- Node79 -->
<g id="node4" class="node">
<title>Node79</title>
<g id="a_node4"><a xlink:href="gripper__brick__planning__constraint__helper_8h.html" target="_top" xlink:title=" ">
<polygon fill="#ffffff" stroke="#000000" points="158.5,-346.5 158.5,-387.5 321.5,-387.5 321.5,-346.5 158.5,-346.5"/>
<text text-anchor="start" x="166.5" y="-375.5" font-family="Helvetica,sans-Serif" font-size="10.00" fill="#000000">drake/examples/planar</text>
<text text-anchor="start" x="166.5" y="-364.5" font-family="Helvetica,sans-Serif" font-size="10.00" fill="#000000">_gripper/gripper_brick</text>
<text text-anchor="middle" x="240" y="-353.5" font-family="Helvetica,sans-Serif" font-size="10.00" fill="#000000">_planning_constraint_helper.h</text>
</a>
</g>
</g>
<!-- Node77&#45;&gt;Node79 -->
<g id="edge3" class="edge">
<title>Node77&#45;&gt;Node79</title>
<path fill="none" stroke="#191970" d="M1297.5231,-437.2322C1079.6142,-431.2601 516.7773,-413.7654 331,-388 327.9486,-387.5768 324.8488,-387.1007 321.7248,-386.582"/>
<polygon fill="#191970" stroke="#191970" points="1297.5445,-440.734 1307.6362,-437.5079 1297.7353,-433.7366 1297.5445,-440.734"/>
</g>
<!-- Node80 -->
<g id="node5" class="node">
<title>Node80</title>
<g id="a_node5"><a xlink:href="differential__inverse__kinematics_8h.html" target="_top" xlink:title=" ">
<polygon fill="#ffffff" stroke="#000000" points="340,-346.5 340,-387.5 466,-387.5 466,-346.5 340,-346.5"/>
<text text-anchor="start" x="348" y="-375.5" font-family="Helvetica,sans-Serif" font-size="10.00" fill="#000000">drake/manipulation</text>
<text text-anchor="start" x="348" y="-364.5" font-family="Helvetica,sans-Serif" font-size="10.00" fill="#000000">/planner/differential</text>
<text text-anchor="middle" x="403" y="-353.5" font-family="Helvetica,sans-Serif" font-size="10.00" fill="#000000">_inverse_kinematics.h</text>
</a>
</g>
</g>
<!-- Node77&#45;&gt;Node80 -->
<g id="edge4" class="edge">
<title>Node77&#45;&gt;Node80</title>
<path fill="none" stroke="#191970" d="M1297.5636,-435.6849C1085.3448,-426.263 554.5493,-401.6686 475,-388 472.0485,-387.4929 469.0461,-386.9073 466.0259,-386.2616"/>
<polygon fill="#191970" stroke="#191970" points="1297.5853,-439.1892 1307.7305,-436.1354 1297.8953,-432.196 1297.5853,-439.1892"/>
</g>
<!-- Node81 -->
<g id="node6" class="node">
<title>Node81</title>
<g id="a_node6"><a xlink:href="inverse__kinematics_8h.html" target="_top" xlink:title=" ">
<polygon fill="#ffffff" stroke="#000000" points="484.5,-352 484.5,-382 667.5,-382 667.5,-352 484.5,-352"/>
<text text-anchor="start" x="492.5" y="-370" font-family="Helvetica,sans-Serif" font-size="10.00" fill="#000000">drake/multibody/inverse</text>
<text text-anchor="middle" x="576" y="-359" font-family="Helvetica,sans-Serif" font-size="10.00" fill="#000000">_kinematics/inverse_kinematics.h</text>
</a>
</g>
</g>
<!-- Node77&#45;&gt;Node81 -->
<g id="edge5" class="edge">
<title>Node77&#45;&gt;Node81</title>
<path fill="none" stroke="#191970" d="M1297.8155,-436.5468C1164.5935,-431.2607 902.5789,-417.8152 682,-388 670.1015,-386.3917 657.5273,-384.2751 645.3588,-382.0048"/>
<polygon fill="#191970" stroke="#191970" points="1297.8333,-440.0501 1307.9624,-436.9435 1298.1068,-433.0554 1297.8333,-440.0501"/>
</g>
<!-- Node82 -->
<g id="node7" class="node">
<title>Node82</title>
<g id="a_node7"><a xlink:href="sliding__friction__complementarity__constraint_8h.html" target="_top" xlink:title=" ">
<polygon fill="#ffffff" stroke="#000000" points="684.5,-268.5 684.5,-309.5 865.5,-309.5 865.5,-268.5 684.5,-268.5"/>
<text text-anchor="start" x="692.5" y="-297.5" font-family="Helvetica,sans-Serif" font-size="10.00" fill="#000000">drake/multibody/optimization</text>
<text text-anchor="start" x="692.5" y="-286.5" font-family="Helvetica,sans-Serif" font-size="10.00" fill="#000000">/sliding_friction_complementarity</text>
<text text-anchor="middle" x="775" y="-275.5" font-family="Helvetica,sans-Serif" font-size="10.00" fill="#000000">_constraint.h</text>
</a>
</g>
</g>
<!-- Node77&#45;&gt;Node82 -->
<g id="edge6" class="edge">
<title>Node77&#45;&gt;Node82</title>
<path fill="none" stroke="#191970" d="M1297.8853,-435.919C1120.952,-428.2225 734.5249,-409.0833 715,-388 692.8776,-364.1119 722.781,-330.8125 747.7239,-309.5789"/>
<polygon fill="#191970" stroke="#191970" points="1297.8065,-439.4188 1307.9485,-436.3543 1298.1091,-432.4253 1297.8065,-439.4188"/>
</g>
<!-- Node83 -->
<g id="node8" class="node">
<title>Node83</title>
<g id="a_node8"><a xlink:href="static__equilibrium__problem_8h.html" target="_top" xlink:title=" ">
<polygon fill="#ffffff" stroke="#000000" points="884,-274 884,-304 1046,-304 1046,-274 884,-274"/>
<text text-anchor="start" x="892" y="-292" font-family="Helvetica,sans-Serif" font-size="10.00" fill="#000000">drake/multibody/optimization</text>
<text text-anchor="middle" x="965" y="-281" font-family="Helvetica,sans-Serif" font-size="10.00" fill="#000000">/static_equilibrium_problem.h</text>
</a>
</g>
</g>
<!-- Node77&#45;&gt;Node83 -->
<g id="edge7" class="edge">
<title>Node77&#45;&gt;Node83</title>
<path fill="none" stroke="#191970" d="M1297.6118,-428.6231C1258.6102,-421.1486 1213.1739,-408.6774 1176,-388 1152.6538,-375.0141 1155.7699,-359.9718 1133,-346 1101.7606,-326.8312 1063.2627,-313.1669 1031.0046,-304.0315"/>
<polygon fill="#191970" stroke="#191970" points="1297.4357,-432.1491 1307.9029,-430.5096 1298.6979,-425.2638 1297.4357,-432.1491"/>
</g>
<!-- Node84 -->
<g id="node9" class="node">
<title>Node84</title>
<g id="a_node9"><a xlink:href="static__friction__cone__complementarity__constraint_8h.html" target="_top" xlink:title=" ">
<polygon fill="#ffffff" stroke="#000000" points="920,-346.5 920,-387.5 1124,-387.5 1124,-346.5 920,-346.5"/>
<text text-anchor="start" x="928" y="-375.5" font-family="Helvetica,sans-Serif" font-size="10.00" fill="#000000">drake/multibody/optimization</text>
<text text-anchor="start" x="928" y="-364.5" font-family="Helvetica,sans-Serif" font-size="10.00" fill="#000000">/static_friction_cone_complementarity</text>
<text text-anchor="middle" x="1022" y="-353.5" font-family="Helvetica,sans-Serif" font-size="10.00" fill="#000000">_constraint.h</text>
</a>
</g>
</g>
<!-- Node77&#45;&gt;Node84 -->
<g id="edge8" class="edge">
<title>Node77&#45;&gt;Node84</title>
<path fill="none" stroke="#191970" d="M1299.8321,-422.4899C1247.3356,-412.005 1179.7001,-398.4966 1124.3066,-387.4331"/>
<polygon fill="#191970" stroke="#191970" points="1299.2943,-425.9515 1309.7862,-424.478 1300.6654,-419.0871 1299.2943,-425.9515"/>
</g>
<!-- Node85 -->
<g id="node10" class="node">
<title>Node85</title>
<g id="a_node10"><a xlink:href="static__friction__cone__constraint_8h.html" target="_top" xlink:title=" ">
<polygon fill="#ffffff" stroke="#000000" points="724,-352 724,-382 902,-382 902,-352 724,-352"/>
<text text-anchor="start" x="732" y="-370" font-family="Helvetica,sans-Serif" font-size="10.00" fill="#000000">drake/multibody/optimization</text>
<text text-anchor="middle" x="813" y="-359" font-family="Helvetica,sans-Serif" font-size="10.00" fill="#000000">/static_friction_cone_constraint.h</text>
</a>
</g>
</g>
<!-- Node77&#45;&gt;Node85 -->
<g id="edge11" class="edge">
<title>Node77&#45;&gt;Node85</title>
<path fill="none" stroke="#191970" d="M1297.738,-432.7278C1202.3672,-424.6964 1045.2423,-409.617 911,-388 900.435,-386.2987 889.2904,-384.2029 878.4543,-382.0003"/>
<polygon fill="#191970" stroke="#191970" points="1297.6565,-436.2331 1307.9131,-433.5776 1298.2392,-429.2573 1297.6565,-436.2331"/>
</g>
<!-- Node86 -->
<g id="node11" class="node">
<title>Node86</title>
<g id="a_node11"><a xlink:href="branch__and__bound_8h.html" target="_top" xlink:title=" ">
<polygon fill="#ffffff" stroke="#000000" points="1102.5,-274 1102.5,-304 1221.5,-304 1221.5,-274 1102.5,-274"/>
<text text-anchor="start" x="1110.5" y="-292" font-family="Helvetica,sans-Serif" font-size="10.00" fill="#000000">drake/solvers/branch</text>
<text text-anchor="middle" x="1162" y="-281" font-family="Helvetica,sans-Serif" font-size="10.00" fill="#000000">_and_bound.h</text>
</a>
</g>
</g>
<!-- Node77&#45;&gt;Node86 -->
<g id="edge13" class="edge">
<title>Node77&#45;&gt;Node86</title>
<path fill="none" stroke="#191970" d="M1315.3628,-421.1444C1292.3683,-413.1522 1267.4599,-402.2773 1247,-388 1229.6301,-375.879 1192.2818,-328.6411 1173.4107,-304.0575"/>
<polygon fill="#191970" stroke="#191970" points="1314.4881,-424.5424 1325.0819,-424.3947 1316.7082,-417.9037 1314.4881,-424.5424"/>
</g>
<!-- Node87 -->
<g id="node12" class="node">
<title>Node87</title>
<g id="a_node12"><a xlink:href="choose__best__solver_8h.html" target="_top" xlink:title=" ">
<polygon fill="#ffffff" stroke="#000000" points="1278,-201.5 1278,-231.5 1398,-231.5 1398,-201.5 1278,-201.5"/>
<text text-anchor="start" x="1286" y="-219.5" font-family="Helvetica,sans-Serif" font-size="10.00" fill="#000000">drake/solvers/choose</text>
<text text-anchor="middle" x="1338" y="-208.5" font-family="Helvetica,sans-Serif" font-size="10.00" fill="#000000">_best_solver.h</text>
</a>
</g>
</g>
<!-- Node77&#45;&gt;Node87 -->
<g id="edge14" class="edge">
<title>Node77&#45;&gt;Node87</title>
<path fill="none" stroke="#191970" d="M1298.0075,-424.9505C1267.3204,-417.1853 1233.6126,-405.4804 1206,-388 1184.9809,-374.6936 1188.8719,-360.9657 1169,-346 1139.1441,-323.5152 1112.9866,-341.5828 1093,-310 1083.018,-294.2265 1081.2364,-282.4935 1093,-268 1115.8372,-239.8632 1212.872,-226.5308 1277.7553,-220.6545"/>
<polygon fill="#191970" stroke="#191970" points="1297.3102,-428.3827 1307.8532,-427.3355 1298.9583,-421.5795 1297.3102,-428.3827"/>
</g>
<!-- Node88 -->
<g id="node13" class="node">
<title>Node88</title>
<g id="a_node13"><a xlink:href="mathematical__program__result_8h.html" target="_top" xlink:title=" ">
<polygon fill="#ffffff" stroke="#000000" points="1256,-352 1256,-382 1410,-382 1410,-352 1256,-352"/>
<text text-anchor="start" x="1264" y="-370" font-family="Helvetica,sans-Serif" font-size="10.00" fill="#000000">drake/solvers/mathematical</text>
<text text-anchor="middle" x="1333" y="-359" font-family="Helvetica,sans-Serif" font-size="10.00" fill="#000000">_program_result.h</text>
</a>
</g>
</g>
<!-- Node77&#45;&gt;Node88 -->
<g id="edge15" class="edge">
<title>Node77&#45;&gt;Node88</title>
<path fill="none" stroke="#191970" d="M1368.3918,-416.3443C1360.3269,-405.1 1350.8693,-391.9139 1343.7606,-382.0028"/>
<polygon fill="#191970" stroke="#191970" points="1365.5532,-418.3919 1374.2256,-424.478 1371.2413,-414.3121 1365.5532,-418.3919"/>
</g>
<!-- Node90 -->
<g id="node15" class="node">
<title>Node90</title>
<g id="a_node15"><a xlink:href="solve_8h.html" target="_top" xlink:title=" ">
<polygon fill="#ffffff" stroke="#000000" points="1278.5,-279.5 1278.5,-298.5 1399.5,-298.5 1399.5,-279.5 1278.5,-279.5"/>
<text text-anchor="middle" x="1339" y="-286.5" font-family="Helvetica,sans-Serif" font-size="10.00" fill="#000000">drake/solvers/solve.h</text>
</a>
</g>
</g>
<!-- Node77&#45;&gt;Node90 -->
<g id="edge51" class="edge">
<title>Node77&#45;&gt;Node90</title>
<path fill="none" stroke="#191970" d="M1403.9911,-416.202C1417.3095,-396.8562 1430.8023,-368.9007 1419,-346 1407.2814,-323.2615 1381.8297,-307.6003 1362.7616,-298.5293"/>
<polygon fill="#191970" stroke="#191970" points="1401.0488,-414.2964 1397.9756,-424.4358 1406.701,-418.4259 1401.0488,-414.2964"/>
</g>
<!-- Node91 -->
<g id="node16" class="node">
<title>Node91</title>
<g id="a_node16"><a xlink:href="solver__interface_8h.html" target="_top" xlink:title=" ">
<polygon fill="#ffffff" stroke="#000000" points="1418,-274 1418,-304 1534,-304 1534,-274 1418,-274"/>
<text text-anchor="start" x="1426" y="-292" font-family="Helvetica,sans-Serif" font-size="10.00" fill="#000000">drake/solvers/solver</text>
<text text-anchor="middle" x="1476" y="-281" font-family="Helvetica,sans-Serif" font-size="10.00" fill="#000000">_interface.h</text>
</a>
</g>
</g>
<!-- Node77&#45;&gt;Node91 -->
<g id="edge53" class="edge">
<title>Node77&#45;&gt;Node91</title>
<path fill="none" stroke="#191970" d="M1410.8815,-417.2826C1419.683,-408.7782 1429.0426,-398.5673 1436,-388 1453.8392,-360.9049 1465.9809,-324.5911 1471.8784,-304.3239"/>
<polygon fill="#191970" stroke="#191970" points="1408.2976,-414.9062 1403.365,-424.2828 1413.0683,-420.0288 1408.2976,-414.9062"/>
</g>
<!-- Node92 -->
<g id="node17" class="node">
<title>Node92</title>
<g id="a_node17"><a xlink:href="solver__base_8h.html" target="_top" xlink:title=" ">
<polygon fill="#ffffff" stroke="#000000" points="1416,-201.5 1416,-231.5 1532,-231.5 1532,-201.5 1416,-201.5"/>
<text text-anchor="start" x="1424" y="-219.5" font-family="Helvetica,sans-Serif" font-size="10.00" fill="#000000">drake/solvers/solver</text>
<text text-anchor="middle" x="1474" y="-208.5" font-family="Helvetica,sans-Serif" font-size="10.00" fill="#000000">_base.h</text>
</a>
</g>
</g>
<!-- Node77&#45;&gt;Node92 -->
<g id="edge52" class="edge">
<title>Node77&#45;&gt;Node92</title>
<path fill="none" stroke="#191970" d="M1427.1375,-419.6767C1466.0093,-398.6862 1520.9315,-361.4498 1543,-310 1550.3584,-292.8449 1551.3674,-284.6863 1543,-268 1535.0935,-252.2327 1519.8158,-240.0591 1505.6421,-231.5161"/>
<polygon fill="#191970" stroke="#191970" points="1425.3492,-416.6624 1418.1232,-424.4107 1428.6039,-422.8598 1425.3492,-416.6624"/>
</g>
<!-- Node100 -->
<g id="node25" class="node">
<title>Node100</title>
<g id="a_node25"><a xlink:href="moby__lcp__solver_8h.html" target="_top" xlink:title=" ">
<polygon fill="#ffffff" stroke="#000000" points="2261.5,-134.5 2261.5,-164.5 2374.5,-164.5 2374.5,-134.5 2261.5,-134.5"/>
<text text-anchor="start" x="2269.5" y="-152.5" font-family="Helvetica,sans-Serif" font-size="10.00" fill="#000000">drake/solvers/moby</text>
<text text-anchor="middle" x="2318" y="-141.5" font-family="Helvetica,sans-Serif" font-size="10.00" fill="#000000">_lcp_solver.h</text>
</a>
</g>
</g>
<!-- Node77&#45;&gt;Node100 -->
<g id="edge46" class="edge">
<title>Node77&#45;&gt;Node100</title>
<path fill="none" stroke="#191970" d="M1472.3611,-437.6529C1695.2698,-432.5323 2269.716,-416.6121 2299,-388 2361.0945,-327.3303 2334.4642,-206.758 2322.5929,-164.5304"/>
<polygon fill="#191970" stroke="#191970" points="1472.2532,-434.1544 1462.3355,-437.8814 1472.4127,-441.1526 1472.2532,-434.1544"/>
</g>
<!-- Node107 -->
<g id="node32" class="node">
<title>Node107</title>
<g id="a_node32"><a xlink:href="unrevised__lemke__solver_8h.html" target="_top" xlink:title=" ">
<polygon fill="#ffffff" stroke="#000000" points="2071,-134.5 2071,-164.5 2205,-164.5 2205,-134.5 2071,-134.5"/>
<text text-anchor="start" x="2079" y="-152.5" font-family="Helvetica,sans-Serif" font-size="10.00" fill="#000000">drake/solvers/unrevised</text>
<text text-anchor="middle" x="2138" y="-141.5" font-family="Helvetica,sans-Serif" font-size="10.00" fill="#000000">_lemke_solver.h</text>
</a>
</g>
</g>
<!-- Node77&#45;&gt;Node107 -->
<g id="edge54" class="edge">
<title>Node77&#45;&gt;Node107</title>
<path fill="none" stroke="#191970" d="M1472.1428,-426.9035C1515.5362,-418.8723 1568.1683,-406.4291 1613,-388 1673.5667,-363.1027 1683.5232,-346.3383 1738,-310 1764.7772,-292.1385 1767.6837,-281.2893 1797,-268 1860.2312,-239.3369 1883.1451,-253.9748 1949,-232 2006.7345,-212.7348 2071.1354,-182.6755 2107.8892,-164.6535"/>
<polygon fill="#191970" stroke="#191970" points="1471.3986,-423.4812 1462.1786,-428.7007 1472.6411,-430.37 1471.3986,-423.4812"/>
</g>
<!-- Node108 -->
<g id="node33" class="node">
<title>Node108</title>
<g id="a_node33"><a xlink:href="multiple__shooting_8h.html" target="_top" xlink:title=" ">
<polygon fill="#ffffff" stroke="#000000" points="1590.5,-268.5 1590.5,-309.5 1729.5,-309.5 1729.5,-268.5 1590.5,-268.5"/>
<text text-anchor="start" x="1598.5" y="-297.5" font-family="Helvetica,sans-Serif" font-size="10.00" fill="#000000">drake/systems/trajectory</text>
<text text-anchor="start" x="1598.5" y="-286.5" font-family="Helvetica,sans-Serif" font-size="10.00" fill="#000000">_optimization/multiple</text>
<text text-anchor="middle" x="1660" y="-275.5" font-family="Helvetica,sans-Serif" font-size="10.00" fill="#000000">_shooting.h</text>
</a>
</g>
</g>
<!-- Node77&#45;&gt;Node108 -->
<g id="edge55" class="edge">
<title>Node77&#45;&gt;Node108</title>
<path fill="none" stroke="#191970" d="M1472.3087,-427.4625C1506.5508,-419.8975 1544.9849,-407.6736 1576,-388 1607.5969,-367.9573 1633.5362,-332.2808 1647.8694,-309.673"/>
<polygon fill="#191970" stroke="#191970" points="1471.3665,-424.084 1462.3021,-429.5692 1472.8087,-430.9339 1471.3665,-424.084"/>
</g>
<!-- Node111 -->
<g id="node36" class="node">
<title>Node111</title>
<g id="a_node36"><a xlink:href="mixed__integer__optimization__util_8h.html" target="_top" xlink:title=" ">
<polygon fill="#ffffff" stroke="#000000" points="1862.5,-346.5 1862.5,-387.5 1985.5,-387.5 1985.5,-346.5 1862.5,-346.5"/>
<text text-anchor="start" x="1870.5" y="-375.5" font-family="Helvetica,sans-Serif" font-size="10.00" fill="#000000">drake/solvers/mixed</text>
<text text-anchor="start" x="1870.5" y="-364.5" font-family="Helvetica,sans-Serif" font-size="10.00" fill="#000000">_integer_optimization</text>
<text text-anchor="middle" x="1924" y="-353.5" font-family="Helvetica,sans-Serif" font-size="10.00" fill="#000000">_util.h</text>
</a>
</g>
</g>
<!-- Node77&#45;&gt;Node111 -->
<g id="edge43" class="edge">
<title>Node77&#45;&gt;Node111</title>
<path fill="none" stroke="#191970" d="M1472.1462,-433.9532C1565.6783,-427.037 1718.3082,-412.9668 1848,-388 1852.7047,-387.0943 1857.5436,-386.0437 1862.392,-384.9048"/>
<polygon fill="#191970" stroke="#191970" points="1471.8806,-430.4632 1462.1615,-434.6809 1472.3894,-437.4447 1471.8806,-430.4632"/>
</g>
<!-- Node112 -->
<g id="node37" class="node">
<title>Node112</title>
<g id="a_node37"><a xlink:href="mixed__integer__rotation__constraint_8h.html" target="_top" xlink:title=" ">
<polygon fill="#ffffff" stroke="#000000" points="1833.5,-274 1833.5,-304 1996.5,-304 1996.5,-274 1833.5,-274"/>
<text text-anchor="start" x="1841.5" y="-292" font-family="Helvetica,sans-Serif" font-size="10.00" fill="#000000">drake/solvers/mixed</text>
<text text-anchor="middle" x="1915" y="-281" font-family="Helvetica,sans-Serif" font-size="10.00" fill="#000000">_integer_rotation_constraint.h</text>
</a>
</g>
</g>
<!-- Node77&#45;&gt;Node112 -->
<g id="edge45" class="edge">
<title>Node77&#45;&gt;Node112</title>
<path fill="none" stroke="#191970" d="M1472.3171,-435.3964C1578.8601,-429.276 1751.978,-415.4126 1810,-388 1834.4437,-376.4515 1834.3455,-364.5624 1854,-346 1869.0686,-331.7686 1886.3364,-315.6508 1898.6447,-304.1947"/>
<polygon fill="#191970" stroke="#191970" points="1472.0078,-431.9081 1462.2204,-435.9647 1472.4013,-438.8971 1472.0078,-431.9081"/>
</g>
<!-- Node113 -->
<g id="node38" class="node">
<title>Node113</title>
<g id="a_node38"><a xlink:href="non__convex__optimization__util_8h.html" target="_top" xlink:title=" ">
<polygon fill="#ffffff" stroke="#000000" points="2004,-352 2004,-382 2148,-382 2148,-352 2004,-352"/>
<text text-anchor="start" x="2012" y="-370" font-family="Helvetica,sans-Serif" font-size="10.00" fill="#000000">drake/solvers/non_convex</text>
<text text-anchor="middle" x="2076" y="-359" font-family="Helvetica,sans-Serif" font-size="10.00" fill="#000000">_optimization_util.h</text>
</a>
</g>
</g>
<!-- Node77&#45;&gt;Node113 -->
<g id="edge47" class="edge">
<title>Node77&#45;&gt;Node113</title>
<path fill="none" stroke="#191970" d="M1472.2223,-436.7795C1591.1455,-432.0162 1810.4888,-419.4733 1995,-388 2004.1652,-386.4366 2013.8103,-384.3425 2023.1225,-382.0806"/>
<polygon fill="#191970" stroke="#191970" points="1471.9387,-433.2878 1462.0833,-437.1764 1472.2126,-440.2824 1471.9387,-433.2878"/>
</g>
<!-- Node114 -->
<g id="node39" class="node">
<title>Node114</title>
<g id="a_node39"><a xlink:href="rotation__constraint_8h.html" target="_top" xlink:title=" ">
<polygon fill="#ffffff" stroke="#000000" points="2166,-352 2166,-382 2290,-382 2290,-352 2166,-352"/>
<text text-anchor="start" x="2174" y="-370" font-family="Helvetica,sans-Serif" font-size="10.00" fill="#000000">drake/solvers/rotation</text>
<text text-anchor="middle" x="2228" y="-359" font-family="Helvetica,sans-Serif" font-size="10.00" fill="#000000">_constraint.h</text>
</a>
</g>
</g>
<!-- Node77&#45;&gt;Node114 -->
<g id="edge48" class="edge">
<title>Node77&#45;&gt;Node114</title>
<path fill="none" stroke="#191970" d="M1472.3659,-436.1042C1645.7574,-428.9644 2027.7628,-411.1294 2157,-388 2165.3511,-386.5054 2174.1154,-384.3857 2182.5247,-382.0624"/>
<polygon fill="#191970" stroke="#191970" points="1472.1042,-432.6119 1462.2558,-436.5181 1472.3907,-439.606 1472.1042,-432.6119"/>
</g>
<!-- Node115 -->
<g id="node40" class="node">
<title>Node115</title>
<g id="a_node40"><a xlink:href="sdpa__free__format_8h.html" target="_top" xlink:title=" ">
<polygon fill="#ffffff" stroke="#000000" points="2087.5,-201.5 2087.5,-231.5 2196.5,-231.5 2196.5,-201.5 2087.5,-201.5"/>
<text text-anchor="start" x="2095.5" y="-219.5" font-family="Helvetica,sans-Serif" font-size="10.00" fill="#000000">drake/solvers/sdpa</text>
<text text-anchor="middle" x="2142" y="-208.5" font-family="Helvetica,sans-Serif" font-size="10.00" fill="#000000">_free_format.h</text>
</a>
</g>
</g>
<!-- Node77&#45;&gt;Node115 -->
<g id="edge49" class="edge">
<title>Node77&#45;&gt;Node115</title>
<path fill="none" stroke="#191970" d="M1472.5359,-432.4087C1579.3065,-423.0601 1748.5566,-405.7145 1772,-388 1818.3748,-352.9579 1778.1249,-303.6938 1824,-268 1844.4426,-252.0944 2001.8182,-232.2407 2087.2438,-222.4818"/>
<polygon fill="#191970" stroke="#191970" points="1472.065,-428.9363 1462.4053,-433.2882 1472.6705,-435.9101 1472.065,-428.9363"/>
</g>
<!-- Node84&#45;&gt;Node82 -->
<g id="edge9" class="edge">
<title>Node84&#45;&gt;Node82</title>
<path fill="none" stroke="#191970" d="M946.8773,-343.277C912.8183,-332.5216 872.9289,-319.9249 840.1563,-309.5757"/>
<polygon fill="#191970" stroke="#191970" points="946.1908,-346.7305 956.7806,-346.4044 948.2987,-340.0555 946.1908,-346.7305"/>
</g>
<!-- Node84&#45;&gt;Node83 -->
<g id="edge10" class="edge">
<title>Node84&#45;&gt;Node83</title>
<path fill="none" stroke="#191970" d="M1000.5879,-337.6992C992.2768,-326.3262 983.1071,-313.7781 976.1573,-304.2679"/>
<polygon fill="#191970" stroke="#191970" points="997.999,-340.0886 1006.725,-346.0974 1003.6507,-335.9584 997.999,-340.0886"/>
</g>
<!-- Node85&#45;&gt;Node82 -->
<g id="edge12" class="edge">
<title>Node85&#45;&gt;Node82</title>
<path fill="none" stroke="#191970" d="M801.2035,-342.7862C796.0202,-332.1468 789.9973,-319.784 785.0338,-309.5956"/>
<polygon fill="#191970" stroke="#191970" points="798.147,-344.5038 805.6732,-351.9608 804.4399,-341.438 798.147,-344.5038"/>
</g>
<!-- Node88&#45;&gt;Node83 -->
<g id="edge16" class="edge">
<title>Node88&#45;&gt;Node83</title>
<path fill="none" stroke="#191970" d="M1251.9043,-349.8112C1187.3308,-336.1245 1097.8342,-317.1551 1036.0495,-304.0594"/>
<polygon fill="#191970" stroke="#191970" points="1251.5375,-353.3112 1262.0459,-351.9608 1252.989,-346.4633 1251.5375,-353.3112"/>
</g>
<!-- Node88&#45;&gt;Node86 -->
<g id="edge17" class="edge">
<title>Node88&#45;&gt;Node86</title>
<path fill="none" stroke="#191970" d="M1290.8053,-347.7533C1261.3015,-334.2954 1222.45,-316.5737 1195.1606,-304.1259"/>
<polygon fill="#191970" stroke="#191970" points="1289.4787,-350.9951 1300.0295,-351.9608 1292.3838,-344.6263 1289.4787,-350.9951"/>
</g>
<!-- Node89 -->
<g id="node14" class="node">
<title>Node89</title>
<g id="a_node14"><a xlink:href="mosek__solver_8h.html" target="_top" xlink:title=" ">
<polygon fill="#ffffff" stroke="#000000" points="575.5,-134.5 575.5,-164.5 694.5,-164.5 694.5,-134.5 575.5,-134.5"/>
<text text-anchor="start" x="583.5" y="-152.5" font-family="Helvetica,sans-Serif" font-size="10.00" fill="#000000">drake/solvers/mosek</text>
<text text-anchor="middle" x="635" y="-141.5" font-family="Helvetica,sans-Serif" font-size="10.00" fill="#000000">_solver.h</text>
</a>
</g>
</g>
<!-- Node88&#45;&gt;Node89 -->
<g id="edge18" class="edge">
<title>Node88&#45;&gt;Node89</title>
<path fill="none" stroke="#191970" d="M1307.3829,-345.1709C1295.4731,-334.7743 1281.264,-322.012 1269,-310 1250.8016,-292.1757 1252.2578,-280.3886 1230,-268 1021.8525,-152.1456 937.1238,-213.9993 704,-165 700.9962,-164.3686 697.9211,-163.7128 694.8171,-163.0432"/>
<polygon fill="#191970" stroke="#191970" points="1305.3593,-348.0486 1315.2087,-351.9522 1309.9434,-342.7584 1305.3593,-348.0486"/>
</g>
<!-- Node88&#45;&gt;Node90 -->
<g id="edge19" class="edge">
<title>Node88&#45;&gt;Node90</title>
<path fill="none" stroke="#191970" d="M1334.9311,-341.8962C1336.0667,-327.1331 1337.4374,-309.3138 1338.2628,-298.5839"/>
<polygon fill="#191970" stroke="#191970" points="1331.4342,-341.7218 1334.1569,-351.9608 1338.4136,-342.2587 1331.4342,-341.7218"/>
</g>
<!-- Node88&#45;&gt;Node91 -->
<g id="edge20" class="edge">
<title>Node88&#45;&gt;Node91</title>
<path fill="none" stroke="#191970" d="M1369.5441,-347.0669C1393.9658,-333.746 1425.6039,-316.4888 1448.0249,-304.2592"/>
<polygon fill="#191970" stroke="#191970" points="1367.6748,-344.0996 1360.5718,-351.9608 1371.0268,-350.2449 1367.6748,-344.0996"/>
</g>
<!-- Node88&#45;&gt;Node108 -->
<g id="edge40" class="edge">
<title>Node88&#45;&gt;Node108</title>
<path fill="none" stroke="#191970" d="M1406.0874,-349.5663C1461.1436,-336.4336 1536.1505,-318.5421 1590.3515,-305.6134"/>
<polygon fill="#191970" stroke="#191970" points="1404.9639,-346.236 1396.0489,-351.9608 1406.5881,-353.045 1404.9639,-346.236"/>
</g>
<!-- Node91&#45;&gt;Node87 -->
<g id="edge21" class="edge">
<title>Node91&#45;&gt;Node87</title>
<path fill="none" stroke="#191970" d="M1438.4057,-269.2494C1415.755,-257.3495 1387.3644,-242.4342 1366.5571,-231.5028"/>
<polygon fill="#191970" stroke="#191970" points="1436.9258,-272.4255 1447.4063,-273.978 1440.1815,-266.2286 1436.9258,-272.4255"/>
</g>
<!-- Node91&#45;&gt;Node92 -->
<g id="edge22" class="edge">
<title>Node91&#45;&gt;Node92</title>
<path fill="none" stroke="#191970" d="M1475.306,-263.8409C1475.0086,-253.0601 1474.6712,-240.8309 1474.4139,-231.5028"/>
<polygon fill="#191970" stroke="#191970" points="1471.8111,-264.0783 1475.5856,-273.978 1478.8084,-263.8852 1471.8111,-264.0783"/>
</g>
<!-- Node92&#45;&gt;Node89 -->
<g id="edge34" class="edge">
<title>Node92&#45;&gt;Node89</title>
<path fill="none" stroke="#191970" d="M1405.4654,-200.9523C1095.3607,-158.6351 1010.6325,-206.982 704,-165 700.9589,-164.5836 697.8538,-164.1008 694.7261,-163.5684"/>
<polygon fill="#191970" stroke="#191970" points="1405.262,-204.4574 1415.6478,-202.3631 1406.2228,-197.5237 1405.262,-204.4574"/>
</g>
<!-- Node93 -->
<g id="node18" class="node">
<title>Node93</title>
<g id="a_node18"><a xlink:href="csdp__solver_8h.html" target="_top" xlink:title=" ">
<polygon fill="#ffffff" stroke="#000000" points="847,-134.5 847,-164.5 955,-164.5 955,-134.5 847,-134.5"/>
<text text-anchor="start" x="855" y="-152.5" font-family="Helvetica,sans-Serif" font-size="10.00" fill="#000000">drake/solvers/csdp</text>
<text text-anchor="middle" x="901" y="-141.5" font-family="Helvetica,sans-Serif" font-size="10.00" fill="#000000">_solver.h</text>
</a>
</g>
</g>
<!-- Node92&#45;&gt;Node93 -->
<g id="edge23" class="edge">
<title>Node92&#45;&gt;Node93</title>
<path fill="none" stroke="#191970" d="M1405.9506,-200.9942C1210.0131,-171.506 1155.7412,-196.172 964,-165 961.1094,-164.5301 958.1561,-163.9957 955.1827,-163.4149"/>
<polygon fill="#191970" stroke="#191970" points="1405.5815,-204.4784 1415.9964,-202.5345 1406.6424,-197.5593 1405.5815,-204.4784"/>
</g>
<!-- Node95 -->
<g id="node20" class="node">
<title>Node95</title>
<g id="a_node20"><a xlink:href="dreal__solver_8h.html" target="_top" xlink:title=" ">
<polygon fill="#ffffff" stroke="#000000" points="1785,-134.5 1785,-164.5 1895,-164.5 1895,-134.5 1785,-134.5"/>
<text text-anchor="start" x="1793" y="-152.5" font-family="Helvetica,sans-Serif" font-size="10.00" fill="#000000">drake/solvers/dreal</text>
<text text-anchor="middle" x="1840" y="-141.5" font-family="Helvetica,sans-Serif" font-size="10.00" fill="#000000">_solver.h</text>
</a>
</g>
</g>
<!-- Node92&#45;&gt;Node95 -->
<g id="edge25" class="edge">
<title>Node92&#45;&gt;Node95</title>
<path fill="none" stroke="#191970" d="M1542.0168,-200.8934C1646.059,-181.3535 1674.8637,-184.6083 1775,-165 1778.1878,-164.3758 1781.4558,-163.7027 1784.7484,-162.9989"/>
<polygon fill="#191970" stroke="#191970" points="1541.2171,-197.4828 1532.0482,-202.7915 1542.5264,-204.3592 1541.2171,-197.4828"/>
</g>
<!-- Node96 -->
<g id="node21" class="node">
<title>Node96</title>
<g id="a_node21"><a xlink:href="equality__constrained__qp__solver_8h.html" target="_top" xlink:title=" ">
<polygon fill="#ffffff" stroke="#000000" points="1913,-134.5 1913,-164.5 2053,-164.5 2053,-134.5 1913,-134.5"/>
<text text-anchor="start" x="1921" y="-152.5" font-family="Helvetica,sans-Serif" font-size="10.00" fill="#000000">drake/solvers/equality</text>
<text text-anchor="middle" x="1983" y="-141.5" font-family="Helvetica,sans-Serif" font-size="10.00" fill="#000000">_constrained_qp_solver.h</text>
</a>
</g>
</g>
<!-- Node92&#45;&gt;Node96 -->
<g id="edge26" class="edge">
<title>Node92&#45;&gt;Node96</title>
<path fill="none" stroke="#191970" d="M1542.2515,-200.9327C1702.7714,-175.2317 1746.8964,-188.149 1904,-165 1906.9038,-164.5721 1909.8627,-164.1102 1912.8483,-163.6226"/>
<polygon fill="#191970" stroke="#191970" points="1541.3219,-197.5378 1532.0138,-202.5984 1542.4461,-204.4469 1541.3219,-197.5378"/>
</g>
<!-- Node97 -->
<g id="node22" class="node">
<title>Node97</title>
<g id="a_node22"><a xlink:href="gurobi__solver_8h.html" target="_top" xlink:title=" ">
<polygon fill="#ffffff" stroke="#000000" points="713,-134.5 713,-164.5 829,-164.5 829,-134.5 713,-134.5"/>
<text text-anchor="start" x="721" y="-152.5" font-family="Helvetica,sans-Serif" font-size="10.00" fill="#000000">drake/solvers/gurobi</text>
<text text-anchor="middle" x="771" y="-141.5" font-family="Helvetica,sans-Serif" font-size="10.00" fill="#000000">_solver.h</text>
</a>
</g>
</g>
<!-- Node92&#45;&gt;Node97 -->
<g id="edge27" class="edge">
<title>Node92&#45;&gt;Node97</title>
<path fill="none" stroke="#191970" d="M1405.4828,-200.9378C1154.4614,-165.2924 1085.4202,-201.1963 838,-165 835.1648,-164.5852 832.2723,-164.112 829.3582,-163.5949"/>
<polygon fill="#191970" stroke="#191970" points="1405.2441,-204.4396 1415.6418,-202.4051 1406.2448,-197.5115 1405.2441,-204.4396"/>
</g>
<!-- Node98 -->
<g id="node23" class="node">
<title>Node98</title>
<g id="a_node23"><a xlink:href="ipopt__solver_8h.html" target="_top" xlink:title=" ">
<polygon fill="#ffffff" stroke="#000000" points="973,-134.5 973,-164.5 1083,-164.5 1083,-134.5 973,-134.5"/>
<text text-anchor="start" x="981" y="-152.5" font-family="Helvetica,sans-Serif" font-size="10.00" fill="#000000">drake/solvers/ipopt</text>
<text text-anchor="middle" x="1028" y="-141.5" font-family="Helvetica,sans-Serif" font-size="10.00" fill="#000000">_solver.h</text>
</a>
</g>
</g>
<!-- Node92&#45;&gt;Node98 -->
<g id="edge28" class="edge">
<title>Node92&#45;&gt;Node98</title>
<path fill="none" stroke="#191970" d="M1405.7612,-200.9161C1266.3251,-177.6493 1227.4901,-189.0539 1092,-165 1089.0734,-164.4804 1086.081,-163.9065 1083.0666,-163.2946"/>
<polygon fill="#191970" stroke="#191970" points="1405.5321,-204.4272 1415.9772,-202.6522 1406.7049,-197.5262 1405.5321,-204.4272"/>
</g>
<!-- Node99 -->
<g id="node24" class="node">
<title>Node99</title>
<g id="a_node24"><a xlink:href="linear__system__solver_8h.html" target="_top" xlink:title=" ">
<polygon fill="#ffffff" stroke="#000000" points="1101.5,-134.5 1101.5,-164.5 1214.5,-164.5 1214.5,-134.5 1101.5,-134.5"/>
<text text-anchor="start" x="1109.5" y="-152.5" font-family="Helvetica,sans-Serif" font-size="10.00" fill="#000000">drake/solvers/linear</text>
<text text-anchor="middle" x="1158" y="-141.5" font-family="Helvetica,sans-Serif" font-size="10.00" fill="#000000">_system_solver.h</text>
</a>
</g>
</g>
<!-- Node92&#45;&gt;Node99 -->
<g id="edge29" class="edge">
<title>Node92&#45;&gt;Node99</title>
<path fill="none" stroke="#191970" d="M1405.6856,-200.7611C1324.217,-183.5392 1301.8633,-181.7959 1224,-165 1221.0086,-164.3547 1217.944,-163.6806 1214.852,-162.9902"/>
<polygon fill="#191970" stroke="#191970" points="1405.412,-204.2812 1415.9216,-202.9401 1406.8695,-197.4346 1405.412,-204.2812"/>
</g>
<!-- Node92&#45;&gt;Node100 -->
<g id="edge30" class="edge">
<title>Node92&#45;&gt;Node100</title>
<path fill="none" stroke="#191970" d="M1542.552,-200.9425C1839.38,-159.8859 1919.3255,-194.773 2214,-165 2229.4381,-163.4402 2246.0898,-161.2074 2261.4473,-158.9205"/>
<polygon fill="#191970" stroke="#191970" points="1541.7711,-197.5176 1532.3533,-202.3711 1542.7422,-204.45 1541.7711,-197.5176"/>
</g>
<!-- Node103 -->
<g id="node28" class="node">
<title>Node103</title>
<g id="a_node28"><a xlink:href="nlopt__solver_8h.html" target="_top" xlink:title=" ">
<polygon fill="#ffffff" stroke="#000000" points="1233,-134.5 1233,-164.5 1343,-164.5 1343,-134.5 1233,-134.5"/>
<text text-anchor="start" x="1241" y="-152.5" font-family="Helvetica,sans-Serif" font-size="10.00" fill="#000000">drake/solvers/nlopt</text>
<text text-anchor="middle" x="1288" y="-141.5" font-family="Helvetica,sans-Serif" font-size="10.00" fill="#000000">_solver.h</text>
</a>
</g>
</g>
<!-- Node92&#45;&gt;Node103 -->
<g id="edge35" class="edge">
<title>Node92&#45;&gt;Node103</title>
<path fill="none" stroke="#191970" d="M1422.648,-198.0023C1393.4655,-187.4903 1357.3876,-174.4945 1329.9241,-164.6017"/>
<polygon fill="#191970" stroke="#191970" points="1421.6636,-201.3677 1432.258,-201.4639 1424.0359,-194.782 1421.6636,-201.3677"/>
</g>
<!-- Node104 -->
<g id="node29" class="node">
<title>Node104</title>
<g id="a_node29"><a xlink:href="osqp__solver_8h.html" target="_top" xlink:title=" ">
<polygon fill="#ffffff" stroke="#000000" points="1361.5,-134.5 1361.5,-164.5 1470.5,-164.5 1470.5,-134.5 1361.5,-134.5"/>
<text text-anchor="start" x="1369.5" y="-152.5" font-family="Helvetica,sans-Serif" font-size="10.00" fill="#000000">drake/solvers/osqp</text>
<text text-anchor="middle" x="1416" y="-141.5" font-family="Helvetica,sans-Serif" font-size="10.00" fill="#000000">_solver.h</text>
</a>
</g>
</g>
<!-- Node92&#45;&gt;Node104 -->
<g id="edge36" class="edge">
<title>Node92&#45;&gt;Node104</title>
<path fill="none" stroke="#191970" d="M1454.2094,-193.6385C1445.9222,-184.0653 1436.5153,-173.1987 1429.109,-164.6432"/>
<polygon fill="#191970" stroke="#191970" points="1451.6476,-196.0268 1460.8389,-201.2967 1456.9401,-191.4453 1451.6476,-196.0268"/>
</g>
<!-- Node105 -->
<g id="node30" class="node">
<title>Node105</title>
<g id="a_node30"><a xlink:href="scs__solver_8h.html" target="_top" xlink:title=" ">
<polygon fill="#ffffff" stroke="#000000" points="1489,-140 1489,-159 1635,-159 1635,-140 1489,-140"/>
<text text-anchor="middle" x="1562" y="-147" font-family="Helvetica,sans-Serif" font-size="10.00" fill="#000000">drake/solvers/scs_solver.h</text>
</a>
</g>
</g>
<!-- Node92&#45;&gt;Node105 -->
<g id="edge37" class="edge">
<title>Node92&#45;&gt;Node105</title>
<path fill="none" stroke="#191970" d="M1501.9608,-195.2117C1517.9151,-183.0646 1537.1291,-168.4358 1549.4502,-159.055"/>
<polygon fill="#191970" stroke="#191970" points="1499.8048,-192.4542 1493.9686,-201.2967 1504.0452,-198.0237 1499.8048,-192.4542"/>
</g>
<!-- Node106 -->
<g id="node31" class="node">
<title>Node106</title>
<g id="a_node31"><a xlink:href="snopt__solver_8h.html" target="_top" xlink:title=" ">
<polygon fill="#ffffff" stroke="#000000" points="1653.5,-134.5 1653.5,-164.5 1766.5,-164.5 1766.5,-134.5 1653.5,-134.5"/>
<text text-anchor="start" x="1661.5" y="-152.5" font-family="Helvetica,sans-Serif" font-size="10.00" fill="#000000">drake/solvers/snopt</text>
<text text-anchor="middle" x="1710" y="-141.5" font-family="Helvetica,sans-Serif" font-size="10.00" fill="#000000">_solver.h</text>
</a>
</g>
</g>
<!-- Node92&#45;&gt;Node106 -->
<g id="edge38" class="edge">
<title>Node92&#45;&gt;Node106</title>
<path fill="none" stroke="#191970" d="M1536.754,-198.6842C1574.1881,-188.0568 1621.2023,-174.7095 1656.806,-164.6017"/>
<polygon fill="#191970" stroke="#191970" points="1535.627,-195.3658 1526.963,-201.4639 1537.5387,-202.0997 1535.627,-195.3658"/>
</g>
<!-- Node92&#45;&gt;Node107 -->
<g id="edge39" class="edge">
<title>Node92&#45;&gt;Node107</title>
<path fill="none" stroke="#191970" d="M1542.3748,-200.9481C1772.3385,-167.5592 1835.2637,-195.8171 2062,-165 2064.9355,-164.601 2067.9278,-164.1561 2070.9454,-163.6762"/>
<polygon fill="#191970" stroke="#191970" points="1541.7433,-197.5033 1532.3612,-202.4254 1542.765,-204.4284 1541.7433,-197.5033"/>
</g>
<!-- Node94 -->
<g id="node19" class="node">
<title>Node94</title>
<g id="a_node19"><a xlink:href="csdp__solver__internal_8h.html" target="_top" xlink:title=" ">
<polygon fill="#ffffff" stroke="#000000" points="1515,-67.5 1515,-97.5 1623,-97.5 1623,-67.5 1515,-67.5"/>
<text text-anchor="start" x="1523" y="-85.5" font-family="Helvetica,sans-Serif" font-size="10.00" fill="#000000">drake/solvers/csdp</text>
<text text-anchor="middle" x="1569" y="-74.5" font-family="Helvetica,sans-Serif" font-size="10.00" fill="#000000">_solver_internal.h</text>
</a>
</g>
</g>
<!-- Node93&#45;&gt;Node94 -->
<g id="edge24" class="edge">
<title>Node93&#45;&gt;Node94</title>
<path fill="none" stroke="#191970" d="M965.0681,-133.9855C1173.092,-100.4524 1410.215,-88.31 1514.8275,-84.2723"/>
<polygon fill="#191970" stroke="#191970" points="964.4905,-130.5334 955.1849,-135.5986 965.6181,-137.442 964.4905,-130.5334"/>
</g>
<!-- Node101 -->
<g id="node26" class="node">
<title>Node101</title>
<g id="a_node26"><a xlink:href="rod2d_8h.html" target="_top" xlink:title=" ">
<polygon fill="#ffffff" stroke="#000000" points="2255,-.5 2255,-30.5 2381,-30.5 2381,-.5 2255,-.5"/>
<text text-anchor="start" x="2263" y="-18.5" font-family="Helvetica,sans-Serif" font-size="10.00" fill="#000000">drake/examples/rod2d</text>
<text text-anchor="middle" x="2318" y="-7.5" font-family="Helvetica,sans-Serif" font-size="10.00" fill="#000000">/rod2d.h</text>
</a>
</g>
</g>
<!-- Node100&#45;&gt;Node101 -->
<g id="edge31" class="edge">
<title>Node100&#45;&gt;Node101</title>
<path fill="none" stroke="#191970" d="M2299.5333,-125.9251C2294.0681,-117.5778 2288.8002,-107.8123 2286,-98 2282.2191,-84.7512 2282.2191,-80.2488 2286,-67 2289.8131,-53.6386 2298.2017,-40.3639 2305.4336,-30.6388"/>
<polygon fill="#191970" stroke="#191970" points="2296.834,-128.1726 2305.4336,-134.3612 2302.5703,-124.1606 2296.834,-128.1726"/>
</g>
<!-- Node102 -->
<g id="node27" class="node">
<title>Node102</title>
<g id="a_node27"><a xlink:href="constraint__solver_8h.html" target="_top" xlink:title=" ">
<polygon fill="#ffffff" stroke="#000000" points="2294.5,-67.5 2294.5,-97.5 2443.5,-97.5 2443.5,-67.5 2294.5,-67.5"/>
<text text-anchor="start" x="2302.5" y="-85.5" font-family="Helvetica,sans-Serif" font-size="10.00" fill="#000000">drake/multibody/constraint</text>
<text text-anchor="middle" x="2369" y="-74.5" font-family="Helvetica,sans-Serif" font-size="10.00" fill="#000000">/constraint_solver.h</text>
</a>
</g>
</g>
<!-- Node100&#45;&gt;Node102 -->
<g id="edge32" class="edge">
<title>Node100&#45;&gt;Node102</title>
<path fill="none" stroke="#191970" d="M2335.8404,-126.0626C2343.0193,-116.6315 2351.0909,-106.0276 2357.4731,-97.6432"/>
<polygon fill="#191970" stroke="#191970" points="2332.8446,-124.2197 2329.5727,-134.2967 2338.4146,-128.4595 2332.8446,-124.2197"/>
</g>
<!-- Node102&#45;&gt;Node101 -->
<g id="edge33" class="edge">
<title>Node102&#45;&gt;Node101</title>
<path fill="none" stroke="#191970" d="M2351.1596,-59.0626C2343.9807,-49.6315 2335.9091,-39.0276 2329.5269,-30.6432"/>
<polygon fill="#191970" stroke="#191970" points="2348.5854,-61.4595 2357.4273,-67.2967 2354.1554,-57.2197 2348.5854,-61.4595"/>
</g>
<!-- Node109 -->
<g id="node34" class="node">
<title>Node109</title>
<g id="a_node34"><a xlink:href="direct__collocation_8h.html" target="_top" xlink:title=" ">
<polygon fill="#ffffff" stroke="#000000" points="1758,-201.5 1758,-231.5 1940,-231.5 1940,-201.5 1758,-201.5"/>
<text text-anchor="start" x="1766" y="-219.5" font-family="Helvetica,sans-Serif" font-size="10.00" fill="#000000">drake/systems/trajectory</text>
<text text-anchor="middle" x="1849" y="-208.5" font-family="Helvetica,sans-Serif" font-size="10.00" fill="#000000">_optimization/direct_collocation.h</text>
</a>
</g>
</g>
<!-- Node108&#45;&gt;Node109 -->
<g id="edge41" class="edge">
<title>Node108&#45;&gt;Node109</title>
<path fill="none" stroke="#191970" d="M1723.1655,-264.7699C1751.751,-253.8045 1784.65,-241.1845 1809.6382,-231.5991"/>
<polygon fill="#191970" stroke="#191970" points="1721.7374,-261.5689 1713.6543,-268.4183 1724.2445,-268.1046 1721.7374,-261.5689"/>
</g>
<!-- Node110 -->
<g id="node35" class="node">
<title>Node110</title>
<g id="a_node35"><a xlink:href="direct__transcription_8h.html" target="_top" xlink:title=" ">
<polygon fill="#ffffff" stroke="#000000" points="1550,-201.5 1550,-231.5 1740,-231.5 1740,-201.5 1550,-201.5"/>
<text text-anchor="start" x="1558" y="-219.5" font-family="Helvetica,sans-Serif" font-size="10.00" fill="#000000">drake/systems/trajectory</text>
<text text-anchor="middle" x="1645" y="-208.5" font-family="Helvetica,sans-Serif" font-size="10.00" fill="#000000">_optimization/direct_transcription.h</text>
</a>
</g>
</g>
<!-- Node108&#45;&gt;Node110 -->
<g id="edge42" class="edge">
<title>Node108&#45;&gt;Node110</title>
<path fill="none" stroke="#191970" d="M1653.654,-258.3279C1651.7422,-249.0871 1649.7278,-239.3508 1648.124,-231.5991"/>
<polygon fill="#191970" stroke="#191970" points="1650.2882,-259.3349 1655.7417,-268.4183 1657.143,-257.9166 1650.2882,-259.3349"/>
</g>
<!-- Node111&#45;&gt;Node112 -->
<g id="edge44" class="edge">
<title>Node111&#45;&gt;Node112</title>
<path fill="none" stroke="#191970" d="M1920.4252,-336.0187C1919.1658,-325.1033 1917.8052,-313.3119 1916.7617,-304.2679"/>
<polygon fill="#191970" stroke="#191970" points="1916.9649,-336.5646 1921.5882,-346.0974 1923.9188,-335.7621 1916.9649,-336.5646"/>
</g>
<!-- Node115&#45;&gt;Node94 -->
<g id="edge50" class="edge">
<title>Node115&#45;&gt;Node94</title>
<path fill="none" stroke="#191970" d="M2179.6935,-195.9592C2205.9512,-179.095 2233.1178,-154.7051 2214,-134 2194.0434,-112.3865 1774.7859,-91.658 1623.1359,-84.8409"/>
<polygon fill="#191970" stroke="#191970" points="2177.5753,-193.1529 2170.8917,-201.3736 2181.243,-199.1151 2177.5753,-193.1529"/>
</g>
</g>
</svg>
