<?xml version="1.0" encoding="UTF-8" standalone="no"?>
<!DOCTYPE svg PUBLIC "-//W3C//DTD SVG 1.1//EN"
 "http://www.w3.org/Graphics/SVG/1.1/DTD/svg11.dtd">
<!-- Generated by graphviz version 2.40.1 (20161225.0304)
 -->
<!-- Title: drake/math/cross_product.h Pages: 1 -->
<svg width="593pt" height="218pt"
 viewBox="0.00 0.00 593.00 218.00" xmlns="http://www.w3.org/2000/svg" xmlns:xlink="http://www.w3.org/1999/xlink">
<g id="graph0" class="graph" transform="scale(1 1) rotate(0) translate(4 214)">
<title>drake/math/cross_product.h</title>
<polygon fill="#ffffff" stroke="transparent" points="-4,4 -4,-214 589,-214 589,4 -4,4"/>
<!-- Node0 -->
<g id="node1" class="node">
<title>Node0</title>
<g id="a_node1"><a xlink:title=" ">
<polygon fill="#bfbfbf" stroke="#000000" points="93.5,-190.5 93.5,-209.5 245.5,-209.5 245.5,-190.5 93.5,-190.5"/>
<text text-anchor="middle" x="169.5" y="-197.5" font-family="Helvetica,sans-Serif" font-size="10.00" fill="#000000">drake/math/cross_product.h</text>
</a>
</g>
</g>
<!-- Node1 -->
<g id="node2" class="node">
<title>Node1</title>
<g id="a_node2"><a xlink:title=" ">
<polygon fill="#ffffff" stroke="#bfbfbf" points="0,-62 0,-81 77,-81 77,-62 0,-62"/>
<text text-anchor="middle" x="38.5" y="-69" font-family="Helvetica,sans-Serif" font-size="10.00" fill="#000000">Eigen/Dense</text>
</a>
</g>
</g>
<!-- Node0&#45;&gt;Node1 -->
<g id="edge1" class="edge">
<title>Node0&#45;&gt;Node1</title>
<path fill="none" stroke="#191970" d="M159.6537,-190.3416C137.5576,-168.6672 83.7825,-115.9184 55.904,-88.5719"/>
<polygon fill="#191970" stroke="#191970" points="58.0504,-85.7745 48.4605,-81.2705 53.1485,-90.7717 58.0504,-85.7745"/>
</g>
<!-- Node2 -->
<g id="node3" class="node">
<title>Node2</title>
<g id="a_node3"><a xlink:href="constants_8h.html" target="_top" xlink:title=" ">
<polygon fill="#ffffff" stroke="#000000" points="95,-62 95,-81 244,-81 244,-62 95,-62"/>
<text text-anchor="middle" x="169.5" y="-69" font-family="Helvetica,sans-Serif" font-size="10.00" fill="#000000">drake/common/constants.h</text>
</a>
</g>
</g>
<!-- Node0&#45;&gt;Node2 -->
<g id="edge2" class="edge">
<title>Node0&#45;&gt;Node2</title>
<path fill="none" stroke="#191970" d="M169.5,-190.3416C169.5,-169.4114 169.5,-119.504 169.5,-91.4762"/>
<polygon fill="#191970" stroke="#191970" points="173.0001,-91.2704 169.5,-81.2705 166.0001,-91.2705 173.0001,-91.2704"/>
</g>
<!-- Node3 -->
<g id="node4" class="node">
<title>Node3</title>
<g id="a_node4"><a xlink:href="eigen__types_8h.html" target="_top" xlink:title="This file contains abbreviated definitions for certain specializations of Eigen::Matrix that are comm...">
<polygon fill="#ffffff" stroke="#000000" points="210.5,-123.5 210.5,-153.5 330.5,-153.5 330.5,-123.5 210.5,-123.5"/>
<text text-anchor="start" x="218.5" y="-141.5" font-family="Helvetica,sans-Serif" font-size="10.00" fill="#000000">drake/common/eigen</text>
<text text-anchor="middle" x="270.5" y="-130.5" font-family="Helvetica,sans-Serif" font-size="10.00" fill="#000000">_types.h</text>
</a>
</g>
</g>
<!-- Node0&#45;&gt;Node3 -->
<g id="edge3" class="edge">
<title>Node0&#45;&gt;Node3</title>
<path fill="none" stroke="#191970" d="M185.2813,-190.3906C199.0769,-181.9903 219.5726,-169.5103 237.0066,-158.8945"/>
<polygon fill="#191970" stroke="#191970" points="239.0717,-161.7349 245.7926,-153.5446 235.4311,-155.756 239.0717,-161.7349"/>
</g>
<!-- Node3&#45;&gt;Node1 -->
<g id="edge5" class="edge">
<title>Node3&#45;&gt;Node1</title>
<path fill="none" stroke="#191970" d="M214.3702,-123.4071C177.8409,-113.4327 129.2198,-99.8705 86.5,-87 83.3976,-86.0653 80.1894,-85.0771 76.9706,-84.0702"/>
<polygon fill="#191970" stroke="#191970" points="77.9685,-80.7149 67.3783,-81.0289 75.8528,-87.3876 77.9685,-80.7149"/>
</g>
<!-- Node3&#45;&gt;Node2 -->
<g id="edge6" class="edge">
<title>Node3&#45;&gt;Node2</title>
<path fill="none" stroke="#191970" d="M247.8336,-123.4639C231.3451,-112.526 209.0996,-97.769 192.5278,-86.7759"/>
<polygon fill="#191970" stroke="#191970" points="194.2455,-83.7153 183.9776,-81.1039 190.3759,-89.5485 194.2455,-83.7153"/>
</g>
<!-- Node4 -->
<g id="node5" class="node">
<title>Node4</title>
<g id="a_node5"><a xlink:title=" ">
<polygon fill="#ffffff" stroke="#bfbfbf" points="262,-62 262,-81 307,-81 307,-62 262,-62"/>
<text text-anchor="middle" x="284.5" y="-69" font-family="Helvetica,sans-Serif" font-size="10.00" fill="#000000">utility</text>
</a>
</g>
</g>
<!-- Node3&#45;&gt;Node4 -->
<g id="edge4" class="edge">
<title>Node3&#45;&gt;Node4</title>
<path fill="none" stroke="#191970" d="M273.6768,-123.2967C275.6675,-113.7699 278.2532,-101.3954 280.3981,-91.1306"/>
<polygon fill="#191970" stroke="#191970" points="283.884,-91.5595 282.5034,-81.055 277.032,-90.1277 283.884,-91.5595"/>
</g>
<!-- Node5 -->
<g id="node6" class="node">
<title>Node5</title>
<g id="a_node6"><a xlink:href="drake__assert_8h.html" target="_top" xlink:title="Provides Drake&#39;s assertion implementation.">
<polygon fill="#ffffff" stroke="#000000" points="325,-56.5 325,-86.5 446,-86.5 446,-56.5 325,-56.5"/>
<text text-anchor="start" x="333" y="-74.5" font-family="Helvetica,sans-Serif" font-size="10.00" fill="#000000">drake/common/drake</text>
<text text-anchor="middle" x="385.5" y="-63.5" font-family="Helvetica,sans-Serif" font-size="10.00" fill="#000000">_assert.h</text>
</a>
</g>
</g>
<!-- Node3&#45;&gt;Node5 -->
<g id="edge7" class="edge">
<title>Node3&#45;&gt;Node5</title>
<path fill="none" stroke="#191970" d="M296.3082,-123.4639C312.3237,-114.1332 333.1094,-102.0232 350.5856,-91.8415"/>
<polygon fill="#191970" stroke="#191970" points="352.5014,-94.776 359.38,-86.7177 348.9775,-88.7276 352.5014,-94.776"/>
</g>
<!-- Node7 -->
<g id="node8" class="node">
<title>Node7</title>
<g id="a_node8"><a xlink:href="drake__copyable_8h.html" target="_top" xlink:title="Provides careful macros to selectively enable or disable the special member functions for copy&#45;constr...">
<polygon fill="#ffffff" stroke="#000000" points="464,-56.5 464,-86.5 585,-86.5 585,-56.5 464,-56.5"/>
<text text-anchor="start" x="472" y="-74.5" font-family="Helvetica,sans-Serif" font-size="10.00" fill="#000000">drake/common/drake</text>
<text text-anchor="middle" x="524.5" y="-63.5" font-family="Helvetica,sans-Serif" font-size="10.00" fill="#000000">_copyable.h</text>
</a>
</g>
</g>
<!-- Node3&#45;&gt;Node7 -->
<g id="edge9" class="edge">
<title>Node3&#45;&gt;Node7</title>
<path fill="none" stroke="#191970" d="M327.5026,-123.4639C366.0128,-113.3057 417.0106,-99.8535 457.469,-89.1814"/>
<polygon fill="#191970" stroke="#191970" points="458.4723,-92.5366 467.2488,-86.6017 456.6868,-85.7681 458.4723,-92.5366"/>
</g>
<!-- Node6 -->
<g id="node7" class="node">
<title>Node6</title>
<g id="a_node7"><a xlink:title=" ">
<polygon fill="#ffffff" stroke="#bfbfbf" points="351,-.5 351,-19.5 420,-19.5 420,-.5 351,-.5"/>
<text text-anchor="middle" x="385.5" y="-7.5" font-family="Helvetica,sans-Serif" font-size="10.00" fill="#000000">type_traits</text>
</a>
</g>
</g>
<!-- Node5&#45;&gt;Node6 -->
<g id="edge8" class="edge">
<title>Node5&#45;&gt;Node6</title>
<path fill="none" stroke="#191970" d="M385.5,-56.2977C385.5,-48.3834 385.5,-38.6043 385.5,-30.0759"/>
<polygon fill="#191970" stroke="#191970" points="389.0001,-29.8469 385.5,-19.8469 382.0001,-29.847 389.0001,-29.8469"/>
</g>
</g>
</svg>
