<?xml version="1.0" encoding="UTF-8" standalone="no"?>
<!DOCTYPE svg PUBLIC "-//W3C//DTD SVG 1.1//EN"
 "http://www.w3.org/Graphics/SVG/1.1/DTD/svg11.dtd">
<!-- Generated by graphviz version 2.40.1 (20161225.0304)
 -->
<!-- Title: drake/solvers/fbstab/components/dense_residual.h Pages: 1 -->
<svg width="213pt" height="184pt"
 viewBox="0.00 0.00 213.00 184.00" xmlns="http://www.w3.org/2000/svg" xmlns:xlink="http://www.w3.org/1999/xlink">
<g id="graph0" class="graph" transform="scale(1 1) rotate(0) translate(4 180)">
<title>drake/solvers/fbstab/components/dense_residual.h</title>
<polygon fill="#ffffff" stroke="transparent" points="-4,4 -4,-180 209,-180 209,4 -4,4"/>
<!-- Node7 -->
<g id="node1" class="node">
<title>Node7</title>
<g id="a_node1"><a xlink:title=" ">
<polygon fill="#bfbfbf" stroke="#000000" points="40,-145.5 40,-175.5 205,-175.5 205,-145.5 40,-145.5"/>
<text text-anchor="start" x="48" y="-163.5" font-family="Helvetica,sans-Serif" font-size="10.00" fill="#000000">drake/solvers/fbstab</text>
<text text-anchor="middle" x="122.5" y="-152.5" font-family="Helvetica,sans-Serif" font-size="10.00" fill="#000000">/components/dense_residual.h</text>
</a>
</g>
</g>
<!-- Node8 -->
<g id="node2" class="node">
<title>Node8</title>
<g id="a_node2"><a xlink:href="dense__linear__solver_8h.html" target="_top" xlink:title=" ">
<polygon fill="#ffffff" stroke="#000000" points="0,-67.5 0,-108.5 145,-108.5 145,-67.5 0,-67.5"/>
<text text-anchor="start" x="8" y="-96.5" font-family="Helvetica,sans-Serif" font-size="10.00" fill="#000000">drake/solvers/fbstab</text>
<text text-anchor="start" x="8" y="-85.5" font-family="Helvetica,sans-Serif" font-size="10.00" fill="#000000">/components/dense_linear</text>
<text text-anchor="middle" x="72.5" y="-74.5" font-family="Helvetica,sans-Serif" font-size="10.00" fill="#000000">_solver.h</text>
</a>
</g>
</g>
<!-- Node7&#45;&gt;Node8 -->
<g id="edge1" class="edge">
<title>Node7&#45;&gt;Node8</title>
<path fill="none" stroke="#191970" d="M106.3799,-137.1258C100.0237,-127.9094 92.7874,-117.4167 86.639,-108.5015"/>
<polygon fill="#191970" stroke="#191970" points="103.5813,-139.2329 112.14,-145.478 109.3438,-135.2587 103.5813,-139.2329"/>
</g>
<!-- Node9 -->
<g id="node3" class="node">
<title>Node9</title>
<g id="a_node3"><a xlink:href="fbstab__dense_8h.html" target="_top" xlink:title=" ">
<polygon fill="#ffffff" stroke="#000000" points="64.5,-.5 64.5,-30.5 180.5,-30.5 180.5,-.5 64.5,-.5"/>
<text text-anchor="start" x="72.5" y="-18.5" font-family="Helvetica,sans-Serif" font-size="10.00" fill="#000000">drake/solvers/fbstab</text>
<text text-anchor="middle" x="122.5" y="-7.5" font-family="Helvetica,sans-Serif" font-size="10.00" fill="#000000">/fbstab_dense.h</text>
</a>
</g>
</g>
<!-- Node7&#45;&gt;Node9 -->
<g id="edge3" class="edge">
<title>Node7&#45;&gt;Node9</title>
<path fill="none" stroke="#191970" d="M140.9667,-136.9251C146.4319,-128.5778 151.6998,-118.8123 154.5,-109 159.6225,-91.05 159.6225,-84.95 154.5,-67 150.6869,-53.6386 142.2983,-40.3639 135.0664,-30.6388"/>
<polygon fill="#191970" stroke="#191970" points="137.9297,-135.1606 135.0664,-145.3612 143.666,-139.1726 137.9297,-135.1606"/>
</g>
<!-- Node8&#45;&gt;Node9 -->
<g id="edge2" class="edge">
<title>Node8&#45;&gt;Node9</title>
<path fill="none" stroke="#191970" d="M92.4244,-59.1096C99.1541,-49.3516 106.3959,-38.8509 112.0868,-30.5991"/>
<polygon fill="#191970" stroke="#191970" points="89.4904,-57.1991 86.6943,-67.4183 95.2529,-61.1733 89.4904,-57.1991"/>
</g>
</g>
</svg>
