<?xml version="1.0" encoding="UTF-8" standalone="no"?>
<!DOCTYPE svg PUBLIC "-//W3C//DTD SVG 1.1//EN"
 "http://www.w3.org/Graphics/SVG/1.1/DTD/svg11.dtd">
<!-- Generated by graphviz version 2.40.1 (20161225.0304)
 -->
<!-- Title: drake/solvers/fbstab/components/dense_residual.h Pages: 1 -->
<svg width="448pt" height="240pt"
 viewBox="0.00 0.00 448.21 240.00" xmlns="http://www.w3.org/2000/svg" xmlns:xlink="http://www.w3.org/1999/xlink">
<g id="graph0" class="graph" transform="scale(1 1) rotate(0) translate(4 236)">
<title>drake/solvers/fbstab/components/dense_residual.h</title>
<polygon fill="#ffffff" stroke="transparent" points="-4,4 -4,-236 444.2128,-236 444.2128,4 -4,4"/>
<!-- Node0 -->
<g id="node1" class="node">
<title>Node0</title>
<g id="a_node1"><a xlink:title=" ">
<polygon fill="#bfbfbf" stroke="#000000" points="108,-201.5 108,-231.5 273,-231.5 273,-201.5 108,-201.5"/>
<text text-anchor="start" x="116" y="-219.5" font-family="Helvetica,sans-Serif" font-size="10.00" fill="#000000">drake/solvers/fbstab</text>
<text text-anchor="middle" x="190.5" y="-208.5" font-family="Helvetica,sans-Serif" font-size="10.00" fill="#000000">/components/dense_residual.h</text>
</a>
</g>
</g>
<!-- Node1 -->
<g id="node2" class="node">
<title>Node1</title>
<g id="a_node2"><a xlink:title=" ">
<polygon fill="#ffffff" stroke="#bfbfbf" points="0,-140 0,-159 65,-159 65,-140 0,-140"/>
<text text-anchor="middle" x="32.5" y="-147" font-family="Helvetica,sans-Serif" font-size="10.00" fill="#000000">stdexcept</text>
</a>
</g>
</g>
<!-- Node0&#45;&gt;Node1 -->
<g id="edge1" class="edge">
<title>Node0&#45;&gt;Node1</title>
<path fill="none" stroke="#191970" d="M155.0417,-201.4639C127.9343,-189.969 90.8801,-174.2561 64.6345,-163.1266"/>
<polygon fill="#191970" stroke="#191970" points="65.7209,-159.7857 55.1481,-159.1039 62.9881,-166.2302 65.7209,-159.7857"/>
</g>
<!-- Node2 -->
<g id="node3" class="node">
<title>Node2</title>
<g id="a_node3"><a xlink:title=" ">
<polygon fill="#ffffff" stroke="#bfbfbf" points="157,-6 157,-25 234,-25 234,-6 157,-6"/>
<text text-anchor="middle" x="195.5" y="-13" font-family="Helvetica,sans-Serif" font-size="10.00" fill="#000000">Eigen/Dense</text>
</a>
</g>
</g>
<!-- Node0&#45;&gt;Node2 -->
<g id="edge2" class="edge">
<title>Node0&#45;&gt;Node2</title>
<path fill="none" stroke="#191970" d="M171.7405,-201.0748C140.9337,-173.7947 85.599,-115.3502 112.5,-67 122.1698,-49.6201 140.3998,-37.3558 157.3172,-29.1675"/>
<polygon fill="#191970" stroke="#191970" points="158.8323,-32.3238 166.5179,-25.0312 155.9621,-25.9393 158.8323,-32.3238"/>
</g>
<!-- Node3 -->
<g id="node4" class="node">
<title>Node3</title>
<g id="a_node4"><a xlink:href="drake__copyable_8h.html" target="_top" xlink:title="Provides careful macros to selectively enable or disable the special member functions for copy&#45;constr...">
<polygon fill="#ffffff" stroke="#000000" points="275,-.5 275,-30.5 396,-30.5 396,-.5 275,-.5"/>
<text text-anchor="start" x="283" y="-18.5" font-family="Helvetica,sans-Serif" font-size="10.00" fill="#000000">drake/common/drake</text>
<text text-anchor="middle" x="335.5" y="-7.5" font-family="Helvetica,sans-Serif" font-size="10.00" fill="#000000">_copyable.h</text>
</a>
</g>
</g>
<!-- Node0&#45;&gt;Node3 -->
<g id="edge3" class="edge">
<title>Node0&#45;&gt;Node3</title>
<path fill="none" stroke="#191970" d="M273.0679,-202.4366C320.5179,-193.0471 374.3954,-179.746 393.5,-165 430.3549,-136.5532 454.3172,-107.0031 430.5,-67 422.3121,-53.2477 409.0311,-42.942 394.9609,-35.3129"/>
<polygon fill="#191970" stroke="#191970" points="396.1583,-31.9994 385.6463,-30.6767 393.0391,-38.266 396.1583,-31.9994"/>
</g>
<!-- Node4 -->
<g id="node5" class="node">
<title>Node4</title>
<g id="a_node5"><a xlink:href="dense__data_8h.html" target="_top" xlink:title=" ">
<polygon fill="#ffffff" stroke="#000000" points="121.5,-67.5 121.5,-97.5 269.5,-97.5 269.5,-67.5 121.5,-67.5"/>
<text text-anchor="start" x="129.5" y="-85.5" font-family="Helvetica,sans-Serif" font-size="10.00" fill="#000000">drake/solvers/fbstab</text>
<text text-anchor="middle" x="195.5" y="-74.5" font-family="Helvetica,sans-Serif" font-size="10.00" fill="#000000">/components/dense_data.h</text>
</a>
</g>
</g>
<!-- Node0&#45;&gt;Node4 -->
<g id="edge4" class="edge">
<title>Node0&#45;&gt;Node4</title>
<path fill="none" stroke="#191970" d="M191.0638,-201.389C191.9116,-178.6691 193.5247,-135.438 194.5545,-107.8405"/>
<polygon fill="#191970" stroke="#191970" points="198.0551,-107.885 194.9305,-97.7614 191.06,-107.6239 198.0551,-107.885"/>
</g>
<!-- Node5 -->
<g id="node6" class="node">
<title>Node5</title>
<g id="a_node6"><a xlink:href="dense__variable_8h.html" target="_top" xlink:title=" ">
<polygon fill="#ffffff" stroke="#000000" points="218.5,-134.5 218.5,-164.5 384.5,-164.5 384.5,-134.5 218.5,-134.5"/>
<text text-anchor="start" x="226.5" y="-152.5" font-family="Helvetica,sans-Serif" font-size="10.00" fill="#000000">drake/solvers/fbstab</text>
<text text-anchor="middle" x="301.5" y="-141.5" font-family="Helvetica,sans-Serif" font-size="10.00" fill="#000000">/components/dense_variable.h</text>
</a>
</g>
</g>
<!-- Node0&#45;&gt;Node5 -->
<g id="edge7" class="edge">
<title>Node0&#45;&gt;Node5</title>
<path fill="none" stroke="#191970" d="M215.4106,-201.4639C230.7271,-192.2188 250.5639,-180.2452 267.3349,-170.1222"/>
<polygon fill="#191970" stroke="#191970" points="269.5359,-172.8819 276.2885,-164.7177 265.9185,-166.889 269.5359,-172.8819"/>
</g>
<!-- Node4&#45;&gt;Node2 -->
<g id="edge5" class="edge">
<title>Node4&#45;&gt;Node2</title>
<path fill="none" stroke="#191970" d="M195.5,-67.2967C195.5,-57.7699 195.5,-45.3954 195.5,-35.1306"/>
<polygon fill="#191970" stroke="#191970" points="199.0001,-35.0549 195.5,-25.055 192.0001,-35.055 199.0001,-35.0549"/>
</g>
<!-- Node4&#45;&gt;Node3 -->
<g id="edge6" class="edge">
<title>Node4&#45;&gt;Node3</title>
<path fill="none" stroke="#191970" d="M226.9187,-67.4639C246.863,-57.9191 272.8839,-45.4663 294.4529,-35.144"/>
<polygon fill="#191970" stroke="#191970" points="296.1924,-38.1917 303.7017,-30.7177 293.1706,-31.8775 296.1924,-38.1917"/>
</g>
<!-- Node5&#45;&gt;Node2 -->
<g id="edge9" class="edge">
<title>Node5&#45;&gt;Node2</title>
<path fill="none" stroke="#191970" d="M300.5616,-134.356C298.7737,-116.6161 293.5806,-87.1005 278.5,-67 266.0488,-50.4042 246.542,-37.9086 229.5671,-29.3845"/>
<polygon fill="#191970" stroke="#191970" points="230.9924,-26.1868 220.458,-25.0567 227.9884,-32.5095 230.9924,-26.1868"/>
</g>
<!-- Node5&#45;&gt;Node3 -->
<g id="edge10" class="edge">
<title>Node5&#45;&gt;Node3</title>
<path fill="none" stroke="#191970" d="M305.3341,-134.389C311.1244,-111.5686 322.1651,-68.055 329.163,-40.4751"/>
<polygon fill="#191970" stroke="#191970" points="332.5607,-41.3151 331.6277,-30.7614 325.7757,-39.5934 332.5607,-41.3151"/>
</g>
<!-- Node5&#45;&gt;Node4 -->
<g id="edge11" class="edge">
<title>Node5&#45;&gt;Node4</title>
<path fill="none" stroke="#191970" d="M277.7115,-134.4639C263.0849,-125.2188 244.1417,-113.2452 228.1261,-103.1222"/>
<polygon fill="#191970" stroke="#191970" points="229.8989,-100.1022 219.5758,-97.7177 226.1588,-106.0193 229.8989,-100.1022"/>
</g>
<!-- Node6 -->
<g id="node7" class="node">
<title>Node6</title>
<g id="a_node7"><a xlink:title=" ">
<polygon fill="#ffffff" stroke="#bfbfbf" points="363.5,-73 363.5,-92 421.5,-92 421.5,-73 363.5,-73"/>
<text text-anchor="middle" x="392.5" y="-80" font-family="Helvetica,sans-Serif" font-size="10.00" fill="#000000">memory</text>
</a>
</g>
</g>
<!-- Node5&#45;&gt;Node6 -->
<g id="edge8" class="edge">
<title>Node5&#45;&gt;Node6</title>
<path fill="none" stroke="#191970" d="M322.1493,-134.2967C336.8781,-123.4524 356.6186,-108.9182 371.4396,-98.006"/>
<polygon fill="#191970" stroke="#191970" points="373.5447,-100.8025 379.5224,-92.055 369.3944,-95.1655 373.5447,-100.8025"/>
</g>
</g>
</svg>
