<?xml version="1.0" encoding="UTF-8" standalone="no"?>
<!DOCTYPE svg PUBLIC "-//W3C//DTD SVG 1.1//EN"
 "http://www.w3.org/Graphics/SVG/1.1/DTD/svg11.dtd">
<!-- Generated by graphviz version 2.40.1 (20161225.0304)
 -->
<!-- Title: drake/solvers/fbstab/components/dense_variable.h Pages: 1 -->
<svg width="443pt" height="251pt"
 viewBox="0.00 0.00 443.00 251.00" xmlns="http://www.w3.org/2000/svg" xmlns:xlink="http://www.w3.org/1999/xlink">
<g id="graph0" class="graph" transform="scale(1 1) rotate(0) translate(4 247)">
<title>drake/solvers/fbstab/components/dense_variable.h</title>
<polygon fill="#ffffff" stroke="transparent" points="-4,4 -4,-247 439,-247 439,4 -4,4"/>
<!-- Node5 -->
<g id="node1" class="node">
<title>Node5</title>
<g id="a_node1"><a xlink:title=" ">
<polygon fill="#bfbfbf" stroke="#000000" points="139.5,-212.5 139.5,-242.5 305.5,-242.5 305.5,-212.5 139.5,-212.5"/>
<text text-anchor="start" x="147.5" y="-230.5" font-family="Helvetica,sans-Serif" font-size="10.00" fill="#000000">drake/solvers/fbstab</text>
<text text-anchor="middle" x="222.5" y="-219.5" font-family="Helvetica,sans-Serif" font-size="10.00" fill="#000000">/components/dense_variable.h</text>
</a>
</g>
</g>
<!-- Node6 -->
<g id="node2" class="node">
<title>Node6</title>
<g id="a_node2"><a xlink:href="dense__feasibility_8h.html" target="_top" xlink:title=" ">
<polygon fill="#ffffff" stroke="#000000" points="0,-73 0,-103 175,-103 175,-73 0,-73"/>
<text text-anchor="start" x="8" y="-91" font-family="Helvetica,sans-Serif" font-size="10.00" fill="#000000">drake/solvers/fbstab</text>
<text text-anchor="middle" x="87.5" y="-80" font-family="Helvetica,sans-Serif" font-size="10.00" fill="#000000">/components/dense_feasibility.h</text>
</a>
</g>
</g>
<!-- Node5&#45;&gt;Node6 -->
<g id="edge1" class="edge">
<title>Node5&#45;&gt;Node6</title>
<path fill="none" stroke="#191970" d="M200.5218,-204.7891C172.8048,-176.1483 125.9112,-127.6916 102.1862,-103.1758"/>
<polygon fill="#191970" stroke="#191970" points="198.3263,-207.5534 207.7956,-212.3055 203.3565,-202.6855 198.3263,-207.5534"/>
</g>
<!-- Node7 -->
<g id="node3" class="node">
<title>Node7</title>
<g id="a_node3"><a xlink:href="fbstab__dense_8h.html" target="_top" xlink:title=" ">
<polygon fill="#ffffff" stroke="#000000" points="195.5,-.5 195.5,-30.5 311.5,-30.5 311.5,-.5 195.5,-.5"/>
<text text-anchor="start" x="203.5" y="-18.5" font-family="Helvetica,sans-Serif" font-size="10.00" fill="#000000">drake/solvers/fbstab</text>
<text text-anchor="middle" x="253.5" y="-7.5" font-family="Helvetica,sans-Serif" font-size="10.00" fill="#000000">/fbstab_dense.h</text>
</a>
</g>
</g>
<!-- Node5&#45;&gt;Node7 -->
<g id="edge8" class="edge">
<title>Node5&#45;&gt;Node7</title>
<path fill="none" stroke="#191970" d="M218.3385,-201.7744C214.07,-169.5927 209.6924,-113.1118 222.5,-67 226.1866,-53.7272 234.3133,-40.4497 241.3211,-30.7012"/>
<polygon fill="#191970" stroke="#191970" points="214.933,-202.6844 219.8154,-212.0872 221.8623,-201.692 214.933,-202.6844"/>
</g>
<!-- Node8 -->
<g id="node4" class="node">
<title>Node8</title>
<g id="a_node4"><a xlink:href="dense__linear__solver_8h.html" target="_top" xlink:title=" ">
<polygon fill="#ffffff" stroke="#000000" points="232,-67.5 232,-108.5 377,-108.5 377,-67.5 232,-67.5"/>
<text text-anchor="start" x="240" y="-96.5" font-family="Helvetica,sans-Serif" font-size="10.00" fill="#000000">drake/solvers/fbstab</text>
<text text-anchor="start" x="240" y="-85.5" font-family="Helvetica,sans-Serif" font-size="10.00" fill="#000000">/components/dense_linear</text>
<text text-anchor="middle" x="304.5" y="-74.5" font-family="Helvetica,sans-Serif" font-size="10.00" fill="#000000">_solver.h</text>
</a>
</g>
</g>
<!-- Node5&#45;&gt;Node8 -->
<g id="edge3" class="edge">
<title>Node5&#45;&gt;Node8</title>
<path fill="none" stroke="#191970" d="M232.1736,-202.7444C239.144,-185.9604 249.2709,-163.5427 260.5,-145 268.206,-132.275 278.2554,-119.0637 286.8044,-108.5679"/>
<polygon fill="#191970" stroke="#191970" points="228.7797,-201.7998 228.2598,-212.3819 235.2653,-204.4337 228.7797,-201.7998"/>
</g>
<!-- Node9 -->
<g id="node5" class="node">
<title>Node9</title>
<g id="a_node5"><a xlink:href="dense__residual_8h.html" target="_top" xlink:title=" ">
<polygon fill="#ffffff" stroke="#000000" points="270,-145.5 270,-175.5 435,-175.5 435,-145.5 270,-145.5"/>
<text text-anchor="start" x="278" y="-163.5" font-family="Helvetica,sans-Serif" font-size="10.00" fill="#000000">drake/solvers/fbstab</text>
<text text-anchor="middle" x="352.5" y="-152.5" font-family="Helvetica,sans-Serif" font-size="10.00" fill="#000000">/components/dense_residual.h</text>
</a>
</g>
</g>
<!-- Node5&#45;&gt;Node9 -->
<g id="edge5" class="edge">
<title>Node5&#45;&gt;Node9</title>
<path fill="none" stroke="#191970" d="M260.7738,-207.7743C280.644,-197.5335 304.5491,-185.2132 322.973,-175.7177"/>
<polygon fill="#191970" stroke="#191970" points="258.96,-204.7715 251.6745,-212.4639 262.1669,-210.9938 258.96,-204.7715"/>
</g>
<!-- Node6&#45;&gt;Node7 -->
<g id="edge2" class="edge">
<title>Node6&#45;&gt;Node7</title>
<path fill="none" stroke="#191970" d="M131.2756,-68.8811C158.7515,-56.8811 193.6747,-41.6285 219.1488,-30.5028"/>
<polygon fill="#191970" stroke="#191970" points="129.6586,-65.7681 121.8953,-72.978 132.4603,-72.1829 129.6586,-65.7681"/>
</g>
<!-- Node8&#45;&gt;Node7 -->
<g id="edge4" class="edge">
<title>Node8&#45;&gt;Node7</title>
<path fill="none" stroke="#191970" d="M284.1771,-59.1096C277.3129,-49.3516 269.9262,-38.8509 264.1214,-30.5991"/>
<polygon fill="#191970" stroke="#191970" points="281.4056,-61.253 290.0219,-67.4183 287.131,-57.2255 281.4056,-61.253"/>
</g>
<!-- Node9&#45;&gt;Node7 -->
<g id="edge7" class="edge">
<title>Node9&#45;&gt;Node7</title>
<path fill="none" stroke="#191970" d="M371.8422,-137.2716C385.9408,-117.3522 400.2194,-88.5429 385.5,-67 376.3408,-53.5949 341.5323,-40.3215 309.9605,-30.6081"/>
<polygon fill="#191970" stroke="#191970" points="368.8876,-135.3778 365.6895,-145.4784 374.4884,-139.5768 368.8876,-135.3778"/>
</g>
<!-- Node9&#45;&gt;Node8 -->
<g id="edge6" class="edge">
<title>Node9&#45;&gt;Node8</title>
<path fill="none" stroke="#191970" d="M337.0247,-137.1258C330.9228,-127.9094 323.9759,-117.4167 318.0734,-108.5015"/>
<polygon fill="#191970" stroke="#191970" points="334.1155,-139.0719 342.5544,-145.478 339.9523,-135.2076 334.1155,-139.0719"/>
</g>
</g>
</svg>
