<?xml version="1.0" encoding="UTF-8" standalone="no"?>
<!DOCTYPE svg PUBLIC "-//W3C//DTD SVG 1.1//EN"
 "http://www.w3.org/Graphics/SVG/1.1/DTD/svg11.dtd">
<!-- Generated by graphviz version 2.40.1 (20161225.0304)
 -->
<!-- Title: drake/solvers/fbstab/components/dense_feasibility.h Pages: 1 -->
<svg width="183pt" height="106pt"
 viewBox="0.00 0.00 183.00 106.00" xmlns="http://www.w3.org/2000/svg" xmlns:xlink="http://www.w3.org/1999/xlink">
<g id="graph0" class="graph" transform="scale(1 1) rotate(0) translate(4 102)">
<title>drake/solvers/fbstab/components/dense_feasibility.h</title>
<polygon fill="#ffffff" stroke="transparent" points="-4,4 -4,-102 179,-102 179,4 -4,4"/>
<!-- Node6 -->
<g id="node1" class="node">
<title>Node6</title>
<g id="a_node1"><a xlink:title=" ">
<polygon fill="#bfbfbf" stroke="#000000" points="0,-67.5 0,-97.5 175,-97.5 175,-67.5 0,-67.5"/>
<text text-anchor="start" x="8" y="-85.5" font-family="Helvetica,sans-Serif" font-size="10.00" fill="#000000">drake/solvers/fbstab</text>
<text text-anchor="middle" x="87.5" y="-74.5" font-family="Helvetica,sans-Serif" font-size="10.00" fill="#000000">/components/dense_feasibility.h</text>
</a>
</g>
</g>
<!-- Node7 -->
<g id="node2" class="node">
<title>Node7</title>
<g id="a_node2"><a xlink:href="fbstab__dense_8h.html" target="_top" xlink:title=" ">
<polygon fill="#ffffff" stroke="#000000" points="29.5,-.5 29.5,-30.5 145.5,-30.5 145.5,-.5 29.5,-.5"/>
<text text-anchor="start" x="37.5" y="-18.5" font-family="Helvetica,sans-Serif" font-size="10.00" fill="#000000">drake/solvers/fbstab</text>
<text text-anchor="middle" x="87.5" y="-7.5" font-family="Helvetica,sans-Serif" font-size="10.00" fill="#000000">/fbstab_dense.h</text>
</a>
</g>
</g>
<!-- Node6&#45;&gt;Node7 -->
<g id="edge1" class="edge">
<title>Node6&#45;&gt;Node7</title>
<path fill="none" stroke="#191970" d="M87.5,-57.0249C87.5,-48.128 87.5,-38.4287 87.5,-30.6432"/>
<polygon fill="#191970" stroke="#191970" points="84.0001,-57.2966 87.5,-67.2967 91.0001,-57.2967 84.0001,-57.2966"/>
</g>
</g>
</svg>
