<?xml version="1.0" encoding="UTF-8" standalone="no"?>
<!DOCTYPE svg PUBLIC "-//W3C//DTD SVG 1.1//EN"
 "http://www.w3.org/Graphics/SVG/1.1/DTD/svg11.dtd">
<!-- Generated by graphviz version 2.40.1 (20161225.0304)
 -->
<!-- Title: drake/solvers/fbstab/components/dense_data.h Pages: 1 -->
<svg width="446pt" height="318pt"
 viewBox="0.00 0.00 445.75 318.00" xmlns="http://www.w3.org/2000/svg" xmlns:xlink="http://www.w3.org/1999/xlink">
<g id="graph0" class="graph" transform="scale(1 1) rotate(0) translate(4 314)">
<title>drake/solvers/fbstab/components/dense_data.h</title>
<polygon fill="#ffffff" stroke="transparent" points="-4,4 -4,-314 441.7513,-314 441.7513,4 -4,4"/>
<!-- Node3 -->
<g id="node1" class="node">
<title>Node3</title>
<g id="a_node1"><a xlink:title=" ">
<polygon fill="#bfbfbf" stroke="#000000" points="146.7561,-279.5 146.7561,-309.5 294.7561,-309.5 294.7561,-279.5 146.7561,-279.5"/>
<text text-anchor="start" x="154.7561" y="-297.5" font-family="Helvetica,sans-Serif" font-size="10.00" fill="#000000">drake/solvers/fbstab</text>
<text text-anchor="middle" x="220.7561" y="-286.5" font-family="Helvetica,sans-Serif" font-size="10.00" fill="#000000">/components/dense_data.h</text>
</a>
</g>
</g>
<!-- Node4 -->
<g id="node2" class="node">
<title>Node4</title>
<g id="a_node2"><a xlink:href="dense__feasibility_8h.html" target="_top" xlink:title=" ">
<polygon fill="#ffffff" stroke="#000000" points="18.2561,-145.5 18.2561,-175.5 193.2561,-175.5 193.2561,-145.5 18.2561,-145.5"/>
<text text-anchor="start" x="26.2561" y="-163.5" font-family="Helvetica,sans-Serif" font-size="10.00" fill="#000000">drake/solvers/fbstab</text>
<text text-anchor="middle" x="105.7561" y="-152.5" font-family="Helvetica,sans-Serif" font-size="10.00" fill="#000000">/components/dense_feasibility.h</text>
</a>
</g>
</g>
<!-- Node3&#45;&gt;Node4 -->
<g id="edge1" class="edge">
<title>Node3&#45;&gt;Node4</title>
<path fill="none" stroke="#191970" d="M201.0174,-271.5001C177.5225,-244.1235 138.949,-199.177 118.8535,-175.7614"/>
<polygon fill="#191970" stroke="#191970" points="198.619,-274.0798 207.7876,-279.389 203.931,-269.521 198.619,-274.0798"/>
</g>
<!-- Node5 -->
<g id="node3" class="node">
<title>Node5</title>
<g id="a_node3"><a xlink:href="fbstab__dense_8h.html" target="_top" xlink:title=" ">
<polygon fill="#ffffff" stroke="#000000" points="182.7561,-.5 182.7561,-30.5 298.7561,-30.5 298.7561,-.5 182.7561,-.5"/>
<text text-anchor="start" x="190.7561" y="-18.5" font-family="Helvetica,sans-Serif" font-size="10.00" fill="#000000">drake/solvers/fbstab</text>
<text text-anchor="middle" x="240.7561" y="-7.5" font-family="Helvetica,sans-Serif" font-size="10.00" fill="#000000">/fbstab_dense.h</text>
</a>
</g>
</g>
<!-- Node3&#45;&gt;Node5 -->
<g id="edge13" class="edge">
<title>Node3&#45;&gt;Node5</title>
<path fill="none" stroke="#191970" d="M148.546,-276.5691C73.0851,-253.9707 -29.43,-210.0473 8.7561,-145 46.0036,-81.5515 126.8967,-46.8955 182.5898,-29.7838"/>
<polygon fill="#191970" stroke="#191970" points="147.9512,-280.0415 158.5313,-279.484 149.9128,-273.3219 147.9512,-280.0415"/>
</g>
<!-- Node6 -->
<g id="node4" class="node">
<title>Node6</title>
<g id="a_node4"><a xlink:href="dense__linear__solver_8h.html" target="_top" xlink:title=" ">
<polygon fill="#ffffff" stroke="#000000" points="269.2561,-67.5 269.2561,-108.5 414.2561,-108.5 414.2561,-67.5 269.2561,-67.5"/>
<text text-anchor="start" x="277.2561" y="-96.5" font-family="Helvetica,sans-Serif" font-size="10.00" fill="#000000">drake/solvers/fbstab</text>
<text text-anchor="start" x="277.2561" y="-85.5" font-family="Helvetica,sans-Serif" font-size="10.00" fill="#000000">/components/dense_linear</text>
<text text-anchor="middle" x="341.7561" y="-74.5" font-family="Helvetica,sans-Serif" font-size="10.00" fill="#000000">_solver.h</text>
</a>
</g>
</g>
<!-- Node3&#45;&gt;Node6 -->
<g id="edge3" class="edge">
<title>Node3&#45;&gt;Node6</title>
<path fill="none" stroke="#191970" d="M304.914,-283.6627C353.8653,-275.4398 408.7955,-262.2298 423.7561,-243 457.6848,-199.3889 402.2856,-139.7049 367.1681,-108.6603"/>
<polygon fill="#191970" stroke="#191970" points="304.2055,-280.2318 294.8969,-285.2915 305.329,-287.1411 304.2055,-280.2318"/>
</g>
<!-- Node7 -->
<g id="node5" class="node">
<title>Node7</title>
<g id="a_node5"><a xlink:href="dense__residual_8h.html" target="_top" xlink:title=" ">
<polygon fill="#ffffff" stroke="#000000" points="211.2561,-145.5 211.2561,-175.5 376.2561,-175.5 376.2561,-145.5 211.2561,-145.5"/>
<text text-anchor="start" x="219.2561" y="-163.5" font-family="Helvetica,sans-Serif" font-size="10.00" fill="#000000">drake/solvers/fbstab</text>
<text text-anchor="middle" x="293.7561" y="-152.5" font-family="Helvetica,sans-Serif" font-size="10.00" fill="#000000">/components/dense_residual.h</text>
</a>
</g>
</g>
<!-- Node3&#45;&gt;Node7 -->
<g id="edge5" class="edge">
<title>Node3&#45;&gt;Node7</title>
<path fill="none" stroke="#191970" d="M222.7962,-268.9329C225.0504,-251.8917 229.7912,-229.4962 239.7561,-212 247.8986,-197.7033 261.2521,-184.917 272.6424,-175.6611"/>
<polygon fill="#191970" stroke="#191970" points="219.2753,-268.9262 221.644,-279.2528 226.232,-269.703 219.2753,-268.9262"/>
</g>
<!-- Node8 -->
<g id="node6" class="node">
<title>Node8</title>
<g id="a_node6"><a xlink:href="dense__variable_8h.html" target="_top" xlink:title=" ">
<polygon fill="#ffffff" stroke="#000000" points="248.7561,-212.5 248.7561,-242.5 414.7561,-242.5 414.7561,-212.5 248.7561,-212.5"/>
<text text-anchor="start" x="256.7561" y="-230.5" font-family="Helvetica,sans-Serif" font-size="10.00" fill="#000000">drake/solvers/fbstab</text>
<text text-anchor="middle" x="331.7561" y="-219.5" font-family="Helvetica,sans-Serif" font-size="10.00" fill="#000000">/components/dense_variable.h</text>
</a>
</g>
</g>
<!-- Node3&#45;&gt;Node8 -->
<g id="edge8" class="edge">
<title>Node3&#45;&gt;Node8</title>
<path fill="none" stroke="#191970" d="M254.5927,-274.0761C271.3233,-263.9774 291.1692,-251.9983 306.5446,-242.7177"/>
<polygon fill="#191970" stroke="#191970" points="252.4192,-271.2998 245.6666,-279.4639 256.0366,-277.2927 252.4192,-271.2998"/>
</g>
<!-- Node4&#45;&gt;Node5 -->
<g id="edge2" class="edge">
<title>Node4&#45;&gt;Node5</title>
<path fill="none" stroke="#191970" d="M126.8982,-137.7918C154.7643,-107.8615 203.0212,-56.03 226.754,-30.5392"/>
<polygon fill="#191970" stroke="#191970" points="124.2008,-135.5526 119.9483,-145.2565 129.3241,-140.3225 124.2008,-135.5526"/>
</g>
<!-- Node6&#45;&gt;Node5 -->
<g id="edge4" class="edge">
<title>Node6&#45;&gt;Node5</title>
<path fill="none" stroke="#191970" d="M304.7817,-61.459C290.2995,-51.0634 274.2152,-39.5177 261.7907,-30.5991"/>
<polygon fill="#191970" stroke="#191970" points="302.9189,-64.4302 313.0837,-67.4183 307.0009,-58.7436 302.9189,-64.4302"/>
</g>
<!-- Node7&#45;&gt;Node5 -->
<g id="edge7" class="edge">
<title>Node7&#45;&gt;Node5</title>
<path fill="none" stroke="#191970" d="M276.0807,-136.853C270.4757,-128.4205 264.7141,-118.621 260.7561,-109 249.8932,-82.5955 244.599,-49.4646 242.2942,-30.5654"/>
<polygon fill="#191970" stroke="#191970" points="273.21,-138.8553 281.7829,-145.0808 278.9634,-134.868 273.21,-138.8553"/>
</g>
<!-- Node7&#45;&gt;Node6 -->
<g id="edge6" class="edge">
<title>Node7&#45;&gt;Node6</title>
<path fill="none" stroke="#191970" d="M309.2314,-137.1258C315.3333,-127.9094 322.2802,-117.4167 328.1826,-108.5015"/>
<polygon fill="#191970" stroke="#191970" points="306.3038,-135.2076 303.7017,-145.478 312.1405,-139.0719 306.3038,-135.2076"/>
</g>
<!-- Node8&#45;&gt;Node4 -->
<g id="edge9" class="edge">
<title>Node8&#45;&gt;Node4</title>
<path fill="none" stroke="#191970" d="M271.203,-209.5484C235.4303,-198.9432 190.6461,-185.6665 156.6961,-175.6017"/>
<polygon fill="#191970" stroke="#191970" points="270.4548,-212.9771 281.0372,-212.4639 272.4445,-206.2658 270.4548,-212.9771"/>
</g>
<!-- Node8&#45;&gt;Node5 -->
<g id="edge12" class="edge">
<title>Node8&#45;&gt;Node5</title>
<path fill="none" stroke="#191970" d="M367.6614,-206.835C379.5468,-198.5312 391.967,-188.0506 400.7561,-176 429.9313,-135.9979 453.65,-106.4679 423.7561,-67 408.5611,-46.9387 346.5298,-32.5031 298.8553,-24.1098"/>
<polygon fill="#191970" stroke="#191970" points="365.5497,-204.036 359.161,-212.488 369.426,-209.8648 365.5497,-204.036"/>
</g>
<!-- Node8&#45;&gt;Node6 -->
<g id="edge10" class="edge">
<title>Node8&#45;&gt;Node6</title>
<path fill="none" stroke="#191970" d="M362.6845,-205.9155C371.8823,-197.7173 380.8163,-187.5371 385.7561,-176 395.8407,-152.4465 379.0012,-126.2824 363.327,-108.6534"/>
<polygon fill="#191970" stroke="#191970" points="360.4304,-203.2378 354.9781,-212.322 364.9054,-208.6207 360.4304,-203.2378"/>
</g>
<!-- Node8&#45;&gt;Node7 -->
<g id="edge11" class="edge">
<title>Node8&#45;&gt;Node7</title>
<path fill="none" stroke="#191970" d="M318.1349,-203.4837C312.8693,-194.1996 307.003,-183.8565 302.3447,-175.6432"/>
<polygon fill="#191970" stroke="#191970" points="315.1554,-205.325 323.1333,-212.2967 321.2442,-201.8716 315.1554,-205.325"/>
</g>
</g>
</svg>
