<?xml version="1.0" encoding="UTF-8" standalone="no"?>
<!DOCTYPE svg PUBLIC "-//W3C//DTD SVG 1.1//EN"
 "http://www.w3.org/Graphics/SVG/1.1/DTD/svg11.dtd">
<!-- Generated by graphviz version 2.40.1 (20161225.0304)
 -->
<!-- Title: drake/solvers/fbstab/components/dense_linear_solver.h Pages: 1 -->
<svg width="427pt" height="318pt"
 viewBox="0.00 0.00 427.00 318.00" xmlns="http://www.w3.org/2000/svg" xmlns:xlink="http://www.w3.org/1999/xlink">
<g id="graph0" class="graph" transform="scale(1 1) rotate(0) translate(4 314)">
<title>drake/solvers/fbstab/components/dense_linear_solver.h</title>
<polygon fill="#ffffff" stroke="transparent" points="-4,4 -4,-314 422.9967,-314 422.9967,4 -4,4"/>
<!-- Node0 -->
<g id="node1" class="node">
<title>Node0</title>
<g id="a_node1"><a xlink:title=" ">
<polygon fill="#bfbfbf" stroke="#000000" points="189.7,-268.5 189.7,-309.5 334.7,-309.5 334.7,-268.5 189.7,-268.5"/>
<text text-anchor="start" x="197.7" y="-297.5" font-family="Helvetica,sans-Serif" font-size="10.00" fill="#000000">drake/solvers/fbstab</text>
<text text-anchor="start" x="197.7" y="-286.5" font-family="Helvetica,sans-Serif" font-size="10.00" fill="#000000">/components/dense_linear</text>
<text text-anchor="middle" x="262.2" y="-275.5" font-family="Helvetica,sans-Serif" font-size="10.00" fill="#000000">_solver.h</text>
</a>
</g>
</g>
<!-- Node1 -->
<g id="node2" class="node">
<title>Node1</title>
<g id="a_node2"><a xlink:title=" ">
<polygon fill="#ffffff" stroke="#bfbfbf" points="151.7,-6 151.7,-25 228.7,-25 228.7,-6 151.7,-6"/>
<text text-anchor="middle" x="190.2" y="-13" font-family="Helvetica,sans-Serif" font-size="10.00" fill="#000000">Eigen/Dense</text>
</a>
</g>
</g>
<!-- Node0&#45;&gt;Node1 -->
<g id="edge1" class="edge">
<title>Node0&#45;&gt;Node1</title>
<path fill="none" stroke="#191970" d="M189.6306,-275.4736C129.6847,-260.0216 48.451,-228.1963 10.2,-165 -13.5253,-125.8022 8.0584,-97.5566 42.2,-67 69.8216,-42.2788 109.9661,-29.2839 141.4784,-22.5359"/>
<polygon fill="#191970" stroke="#191970" points="142.2592,-25.9492 151.3795,-20.5576 140.8876,-19.0849 142.2592,-25.9492"/>
</g>
<!-- Node2 -->
<g id="node3" class="node">
<title>Node2</title>
<g id="a_node3"><a xlink:href="drake__copyable_8h.html" target="_top" xlink:title="Provides careful macros to selectively enable or disable the special member functions for copy&#45;constr...">
<polygon fill="#ffffff" stroke="#000000" points="276.7,-.5 276.7,-30.5 397.7,-30.5 397.7,-.5 276.7,-.5"/>
<text text-anchor="start" x="284.7" y="-18.5" font-family="Helvetica,sans-Serif" font-size="10.00" fill="#000000">drake/common/drake</text>
<text text-anchor="middle" x="337.2" y="-7.5" font-family="Helvetica,sans-Serif" font-size="10.00" fill="#000000">_copyable.h</text>
</a>
</g>
</g>
<!-- Node0&#45;&gt;Node2 -->
<g id="edge2" class="edge">
<title>Node0&#45;&gt;Node2</title>
<path fill="none" stroke="#191970" d="M322.063,-268.3797C340.2675,-259.6052 358.9419,-247.6892 372.2,-232 412.5708,-184.2266 405.5281,-159.7944 415.2,-98 417.3305,-84.3879 421.7282,-79.133 415.2,-67 408.1408,-53.8801 396.1124,-43.5467 383.587,-35.6887"/>
<polygon fill="#191970" stroke="#191970" points="385.2967,-32.6342 374.8912,-30.6402 381.7821,-38.688 385.2967,-32.6342"/>
</g>
<!-- Node3 -->
<g id="node4" class="node">
<title>Node3</title>
<g id="a_node4"><a xlink:href="dense__data_8h.html" target="_top" xlink:title=" ">
<polygon fill="#ffffff" stroke="#000000" points="241.2,-67.5 241.2,-97.5 389.2,-97.5 389.2,-67.5 241.2,-67.5"/>
<text text-anchor="start" x="249.2" y="-85.5" font-family="Helvetica,sans-Serif" font-size="10.00" fill="#000000">drake/solvers/fbstab</text>
<text text-anchor="middle" x="315.2" y="-74.5" font-family="Helvetica,sans-Serif" font-size="10.00" fill="#000000">/components/dense_data.h</text>
</a>
</g>
</g>
<!-- Node0&#45;&gt;Node3 -->
<g id="edge3" class="edge">
<title>Node0&#45;&gt;Node3</title>
<path fill="none" stroke="#191970" d="M314.2494,-268.3834C329.5683,-259.5871 344.5322,-247.6571 353.2,-232 375.6514,-191.445 350.3692,-137.3846 331.6391,-106.6228"/>
<polygon fill="#191970" stroke="#191970" points="334.4018,-104.4433 326.0968,-97.8648 328.4868,-108.1866 334.4018,-104.4433"/>
</g>
<!-- Node4 -->
<g id="node5" class="node">
<title>Node4</title>
<g id="a_node5"><a xlink:href="dense__residual_8h.html" target="_top" xlink:title=" ">
<polygon fill="#ffffff" stroke="#000000" points="179.7,-201.5 179.7,-231.5 344.7,-231.5 344.7,-201.5 179.7,-201.5"/>
<text text-anchor="start" x="187.7" y="-219.5" font-family="Helvetica,sans-Serif" font-size="10.00" fill="#000000">drake/solvers/fbstab</text>
<text text-anchor="middle" x="262.2" y="-208.5" font-family="Helvetica,sans-Serif" font-size="10.00" fill="#000000">/components/dense_residual.h</text>
</a>
</g>
</g>
<!-- Node0&#45;&gt;Node4 -->
<g id="edge6" class="edge">
<title>Node0&#45;&gt;Node4</title>
<path fill="none" stroke="#191970" d="M262.2,-268.4183C262.2,-260.0849 262.2,-250.3834 262.2,-241.6373"/>
<polygon fill="#191970" stroke="#191970" points="265.7001,-241.5991 262.2,-231.5991 258.7001,-241.5991 265.7001,-241.5991"/>
</g>
<!-- Node6 -->
<g id="node7" class="node">
<title>Node6</title>
<g id="a_node7"><a xlink:href="dense__variable_8h.html" target="_top" xlink:title=" ">
<polygon fill="#ffffff" stroke="#000000" points="19.2,-134.5 19.2,-164.5 185.2,-164.5 185.2,-134.5 19.2,-134.5"/>
<text text-anchor="start" x="27.2" y="-152.5" font-family="Helvetica,sans-Serif" font-size="10.00" fill="#000000">drake/solvers/fbstab</text>
<text text-anchor="middle" x="102.2" y="-141.5" font-family="Helvetica,sans-Serif" font-size="10.00" fill="#000000">/components/dense_variable.h</text>
</a>
</g>
</g>
<!-- Node0&#45;&gt;Node6 -->
<g id="edge16" class="edge">
<title>Node0&#45;&gt;Node6</title>
<path fill="none" stroke="#191970" d="M222.663,-268.3265C205.6383,-258.4863 186.0479,-245.8455 170.2,-232 150.2027,-214.5293 131.3195,-190.8205 118.5504,-173.3018"/>
<polygon fill="#191970" stroke="#191970" points="121.1172,-170.8737 112.4567,-164.7707 115.4211,-174.9424 121.1172,-170.8737"/>
</g>
<!-- Node3&#45;&gt;Node1 -->
<g id="edge4" class="edge">
<title>Node3&#45;&gt;Node1</title>
<path fill="none" stroke="#191970" d="M287.1476,-67.4639C266.1742,-56.2222 237.6744,-40.9463 217.0072,-29.8686"/>
<polygon fill="#191970" stroke="#191970" points="218.585,-26.7433 208.1178,-25.1039 215.2781,-32.913 218.585,-26.7433"/>
</g>
<!-- Node3&#45;&gt;Node2 -->
<g id="edge5" class="edge">
<title>Node3&#45;&gt;Node2</title>
<path fill="none" stroke="#191970" d="M320.1922,-67.2967C322.8081,-59.3299 326.0779,-49.3718 329.0498,-40.3213"/>
<polygon fill="#191970" stroke="#191970" points="332.4332,-41.236 332.2276,-30.6432 325.7825,-39.0522 332.4332,-41.236"/>
</g>
<!-- Node4&#45;&gt;Node1 -->
<g id="edge8" class="edge">
<title>Node4&#45;&gt;Node1</title>
<path fill="none" stroke="#191970" d="M251.9386,-201.258C245.5742,-191.2791 237.6081,-177.7673 232.2,-165 213.2626,-120.2928 200.184,-64.5003 194.0931,-35.3449"/>
<polygon fill="#191970" stroke="#191970" points="197.4594,-34.3343 192.0395,-25.2307 190.5994,-35.7272 197.4594,-34.3343"/>
</g>
<!-- Node4&#45;&gt;Node2 -->
<g id="edge9" class="edge">
<title>Node4&#45;&gt;Node2</title>
<path fill="none" stroke="#191970" d="M292.3561,-201.4037C326.0413,-182.5549 378.4351,-146.7582 398.2,-98 403.376,-85.2314 404.0039,-79.4957 398.2,-67 392.6257,-54.9985 382.7245,-44.7856 372.4992,-36.6966"/>
<polygon fill="#191970" stroke="#191970" points="374.4354,-33.7759 364.3057,-30.671 370.2883,-39.4152 374.4354,-33.7759"/>
</g>
<!-- Node4&#45;&gt;Node3 -->
<g id="edge10" class="edge">
<title>Node4&#45;&gt;Node3</title>
<path fill="none" stroke="#191970" d="M284.7269,-201.4495C296.1741,-192.397 308.9566,-179.7722 315.2,-165 322.7929,-147.0349 322.3082,-124.8392 320.1908,-107.9968"/>
<polygon fill="#191970" stroke="#191970" points="323.6031,-107.1564 318.6321,-97.8001 316.6834,-108.2142 323.6031,-107.1564"/>
</g>
<!-- Node5 -->
<g id="node6" class="node">
<title>Node5</title>
<g id="a_node6"><a xlink:title=" ">
<polygon fill="#ffffff" stroke="#bfbfbf" points="241.7,-140 241.7,-159 306.7,-159 306.7,-140 241.7,-140"/>
<text text-anchor="middle" x="274.2" y="-147" font-family="Helvetica,sans-Serif" font-size="10.00" fill="#000000">stdexcept</text>
</a>
</g>
</g>
<!-- Node4&#45;&gt;Node5 -->
<g id="edge7" class="edge">
<title>Node4&#45;&gt;Node5</title>
<path fill="none" stroke="#191970" d="M264.923,-201.2967C266.6293,-191.7699 268.8456,-179.3954 270.6841,-169.1306"/>
<polygon fill="#191970" stroke="#191970" points="274.1708,-169.5154 272.4887,-159.055 267.2804,-168.2813 274.1708,-169.5154"/>
</g>
<!-- Node4&#45;&gt;Node6 -->
<g id="edge11" class="edge">
<title>Node4&#45;&gt;Node6</title>
<path fill="none" stroke="#191970" d="M226.2929,-201.4639C203.0089,-191.7137 172.478,-178.9289 147.5267,-168.4805"/>
<polygon fill="#191970" stroke="#191970" points="148.8396,-165.2359 138.2638,-164.6017 146.1358,-171.6926 148.8396,-165.2359"/>
</g>
<!-- Node6&#45;&gt;Node1 -->
<g id="edge13" class="edge">
<title>Node6&#45;&gt;Node1</title>
<path fill="none" stroke="#191970" d="M112.1237,-134.389C128.4485,-109.5307 160.8984,-60.1184 178.3833,-33.4937"/>
<polygon fill="#191970" stroke="#191970" points="181.329,-35.3841 183.8928,-25.1042 175.4779,-31.5416 181.329,-35.3841"/>
</g>
<!-- Node6&#45;&gt;Node2 -->
<g id="edge14" class="edge">
<title>Node6&#45;&gt;Node2</title>
<path fill="none" stroke="#191970" d="M124.2917,-134.4314C149.8005,-117.2806 193.2568,-88.8212 232.2,-67 252.445,-55.6561 275.5428,-44.1757 294.9104,-34.9421"/>
<polygon fill="#191970" stroke="#191970" points="296.5465,-38.0401 304.0896,-30.6002 293.5533,-31.7123 296.5465,-38.0401"/>
</g>
<!-- Node6&#45;&gt;Node3 -->
<g id="edge15" class="edge">
<title>Node6&#45;&gt;Node3</title>
<path fill="none" stroke="#191970" d="M150.0014,-134.4639C181.8175,-124.456 223.7978,-111.2509 257.4769,-100.657"/>
<polygon fill="#191970" stroke="#191970" points="258.7012,-103.9411 267.1902,-97.6017 256.6007,-97.2636 258.7012,-103.9411"/>
</g>
<!-- Node7 -->
<g id="node8" class="node">
<title>Node7</title>
<g id="a_node8"><a xlink:title=" ">
<polygon fill="#ffffff" stroke="#bfbfbf" points="51.2,-73 51.2,-92 109.2,-92 109.2,-73 51.2,-73"/>
<text text-anchor="middle" x="80.2" y="-80" font-family="Helvetica,sans-Serif" font-size="10.00" fill="#000000">memory</text>
</a>
</g>
</g>
<!-- Node6&#45;&gt;Node7 -->
<g id="edge12" class="edge">
<title>Node6&#45;&gt;Node7</title>
<path fill="none" stroke="#191970" d="M97.2079,-134.2967C94.0464,-124.6685 89.9299,-112.1318 86.5386,-101.8038"/>
<polygon fill="#191970" stroke="#191970" points="89.7826,-100.464 83.3375,-92.055 83.1319,-102.6478 89.7826,-100.464"/>
</g>
</g>
</svg>
