<?xml version="1.0" encoding="UTF-8" standalone="no"?>
<!DOCTYPE svg PUBLIC "-//W3C//DTD SVG 1.1//EN"
 "http://www.w3.org/Graphics/SVG/1.1/DTD/svg11.dtd">
<!-- Generated by graphviz version 2.40.1 (20161225.0304)
 -->
<!-- Title: drake/systems/analysis/dense_output.h Pages: 1 -->
<!--zoomable 318 -->
<svg id="main" version="1.1" xmlns="http://www.w3.org/2000/svg" xmlns:xlink="http://www.w3.org/1999/xlink" xml:space="preserve" onload="init(evt)">
<style type="text/css"><![CDATA[
.edge:hover path { stroke: red; }
.edge:hover polygon { stroke: red; fill: red; }
]]></style>
<script type="text/javascript"><![CDATA[
var edges = document.getElementsByTagName('g');
if (edges && edges.length) {
  for (var i=0;i<edges.length;i++) {
    if (edges[i].id.substr(0,4)=='edge') {
      edges[i].setAttribute('class','edge');
    }
  }
}
]]></script>
        <defs>
                <circle id="rim" cx="0" cy="0" r="7"/>
                <circle id="rim2" cx="0" cy="0" r="3.5"/>
                <g id="zoomPlus">
                        <use xlink:href="#rim" fill="#404040">
                                <set attributeName="fill" to="#808080" begin="zoomplus.mouseover" end="zoomplus.mouseout"/>
                        </use>
                        <path d="M-4,0h8M0,-4v8" fill="none" stroke="white" stroke-width="1.5" pointer-events="none"/>
                </g>
                <g id="zoomMin">
                        <use xlink:href="#rim" fill="#404040">
                                <set attributeName="fill" to="#808080" begin="zoomminus.mouseover" end="zoomminus.mouseout"/>
                        </use>
                        <path d="M-4,0h8" fill="none" stroke="white" stroke-width="1.5" pointer-events="none"/>
                </g>
                <g id="dirArrow">
                        <path fill="none" stroke="white" stroke-width="1.5" d="M0,-3.0v7 M-2.5,-0.5L0,-3.0L2.5,-0.5"/>
                </g>
               <g id="resetDef">
                       <use xlink:href="#rim2" fill="#404040">
                               <set attributeName="fill" to="#808080" begin="reset.mouseover" end="reset.mouseout"/>
                       </use>
               </g>
        </defs>

<script type="text/javascript">
var viewWidth = 530;
var viewHeight = 318;
var sectionId = 'dynsection-1';
</script>
<script xlink:href="svgpan.js"/>
<svg id="graph" class="graph">
<g id="viewport">
<title>drake/systems/analysis/dense_output.h</title>
<polygon fill="#ffffff" stroke="transparent" points="-4,4 -4,-314 525.5,-314 525.5,4 -4,4"/>
<!-- Node66 -->
<g id="node1" class="node">
<title>Node66</title>
<g id="a_node1"><a xlink:title=" ">
<polygon fill="#bfbfbf" stroke="#000000" points="188,-279.5 188,-309.5 320,-309.5 320,-279.5 188,-279.5"/>
<text text-anchor="start" x="196" y="-297.5" font-family="Helvetica,sans-Serif" font-size="10.00" fill="#000000">drake/systems/analysis</text>
<text text-anchor="middle" x="254" y="-286.5" font-family="Helvetica,sans-Serif" font-size="10.00" fill="#000000">/dense_output.h</text>
</a>
</g>
</g>
<!-- Node67 -->
<g id="node2" class="node">
<title>Node67</title>
<g id="a_node2"><a xlink:href="initial__value__problem_8h.html" target="_top" xlink:title=" ">
<polygon fill="#ffffff" stroke="#000000" points="222,-145.5 222,-175.5 356,-175.5 356,-145.5 222,-145.5"/>
<text text-anchor="start" x="230" y="-163.5" font-family="Helvetica,sans-Serif" font-size="10.00" fill="#000000">drake/systems/analysis</text>
<text text-anchor="middle" x="289" y="-152.5" font-family="Helvetica,sans-Serif" font-size="10.00" fill="#000000">/initial_value_problem.h</text>
</a>
</g>
</g>
<!-- Node66&#45;&gt;Node67 -->
<g id="edge1" class="edge">
<title>Node66&#45;&gt;Node67</title>
<path fill="none" stroke="#191970" d="M260.476,-269.706C267.6614,-242.1962 279.0296,-198.6723 285.0138,-175.7614"/>
<polygon fill="#191970" stroke="#191970" points="257.0877,-268.829 257.9469,-279.389 263.8605,-270.5981 257.0877,-268.829"/>
</g>
<!-- Node70 -->
<g id="node5" class="node">
<title>Node70</title>
<g id="a_node5"><a xlink:href="scalar__dense__output_8h.html" target="_top" xlink:title=" ">
<polygon fill="#ffffff" stroke="#000000" points="59,-212.5 59,-242.5 191,-242.5 191,-212.5 59,-212.5"/>
<text text-anchor="start" x="67" y="-230.5" font-family="Helvetica,sans-Serif" font-size="10.00" fill="#000000">drake/systems/analysis</text>
<text text-anchor="middle" x="125" y="-219.5" font-family="Helvetica,sans-Serif" font-size="10.00" fill="#000000">/scalar_dense_output.h</text>
</a>
</g>
</g>
<!-- Node66&#45;&gt;Node70 -->
<g id="edge4" class="edge">
<title>Node66&#45;&gt;Node70</title>
<path fill="none" stroke="#191970" d="M216.0207,-274.7743C196.3033,-264.5335 172.5821,-252.2132 154.2998,-242.7177"/>
<polygon fill="#191970" stroke="#191970" points="214.5622,-277.9607 225.0499,-279.4639 217.7887,-271.7486 214.5622,-277.9607"/>
</g>
<!-- Node71 -->
<g id="node6" class="node">
<title>Node71</title>
<g id="a_node6"><a xlink:href="scalar__view__dense__output_8h.html" target="_top" xlink:title=" ">
<polygon fill="#ffffff" stroke="#000000" points="46,-145.5 46,-175.5 204,-175.5 204,-145.5 46,-145.5"/>
<text text-anchor="start" x="54" y="-163.5" font-family="Helvetica,sans-Serif" font-size="10.00" fill="#000000">drake/systems/analysis</text>
<text text-anchor="middle" x="125" y="-152.5" font-family="Helvetica,sans-Serif" font-size="10.00" fill="#000000">/scalar_view_dense_output.h</text>
</a>
</g>
</g>
<!-- Node66&#45;&gt;Node71 -->
<g id="edge8" class="edge">
<title>Node66&#45;&gt;Node71</title>
<path fill="none" stroke="#191970" d="M241.472,-270.2364C231.7005,-252.7778 216.967,-229.3471 200,-212 185.9737,-197.6594 167.4059,-184.8727 152.2547,-175.6276"/>
<polygon fill="#191970" stroke="#191970" points="238.5193,-272.1331 246.3727,-279.2447 244.6683,-268.7879 238.5193,-272.1331"/>
</g>
<!-- Node72 -->
<g id="node7" class="node">
<title>Node72</title>
<g id="a_node7"><a xlink:href="stepwise__dense__output_8h.html" target="_top" xlink:title=" ">
<polygon fill="#ffffff" stroke="#000000" points="342.5,-212.5 342.5,-242.5 485.5,-242.5 485.5,-212.5 342.5,-212.5"/>
<text text-anchor="start" x="350.5" y="-230.5" font-family="Helvetica,sans-Serif" font-size="10.00" fill="#000000">drake/systems/analysis</text>
<text text-anchor="middle" x="414" y="-219.5" font-family="Helvetica,sans-Serif" font-size="10.00" fill="#000000">/stepwise_dense_output.h</text>
</a>
</g>
</g>
<!-- Node66&#45;&gt;Node72 -->
<g id="edge9" class="edge">
<title>Node66&#45;&gt;Node72</title>
<path fill="none" stroke="#191970" d="M299.159,-275.5897C324.0853,-265.1518 354.6199,-252.3654 377.9363,-242.6017"/>
<polygon fill="#191970" stroke="#191970" points="297.7792,-272.3729 289.9071,-279.4639 300.483,-278.8297 297.7792,-272.3729"/>
</g>
<!-- Node68 -->
<g id="node3" class="node">
<title>Node68</title>
<g id="a_node3"><a xlink:href="scalar__initial__value__problem_8h.html" target="_top" xlink:title=" ">
<polygon fill="#ffffff" stroke="#000000" points="59,-67.5 59,-108.5 191,-108.5 191,-67.5 59,-67.5"/>
<text text-anchor="start" x="67" y="-96.5" font-family="Helvetica,sans-Serif" font-size="10.00" fill="#000000">drake/systems/analysis</text>
<text text-anchor="start" x="67" y="-85.5" font-family="Helvetica,sans-Serif" font-size="10.00" fill="#000000">/scalar_initial_value</text>
<text text-anchor="middle" x="125" y="-74.5" font-family="Helvetica,sans-Serif" font-size="10.00" fill="#000000">_problem.h</text>
</a>
</g>
</g>
<!-- Node67&#45;&gt;Node68 -->
<g id="edge2" class="edge">
<title>Node67&#45;&gt;Node68</title>
<path fill="none" stroke="#191970" d="M245.8727,-141.4346C222.9543,-131.303 194.7651,-118.8413 171.3758,-108.5015"/>
<polygon fill="#191970" stroke="#191970" points="244.4578,-144.6358 255.0191,-145.478 247.2881,-138.2335 244.4578,-144.6358"/>
</g>
<!-- Node69 -->
<g id="node4" class="node">
<title>Node69</title>
<g id="a_node4"><a xlink:href="antiderivative__function_8h.html" target="_top" xlink:title=" ">
<polygon fill="#ffffff" stroke="#000000" points="0,-.5 0,-30.5 142,-30.5 142,-.5 0,-.5"/>
<text text-anchor="start" x="8" y="-18.5" font-family="Helvetica,sans-Serif" font-size="10.00" fill="#000000">drake/systems/analysis</text>
<text text-anchor="middle" x="71" y="-7.5" font-family="Helvetica,sans-Serif" font-size="10.00" fill="#000000">/antiderivative_function.h</text>
</a>
</g>
</g>
<!-- Node68&#45;&gt;Node69 -->
<g id="edge3" class="edge">
<title>Node68&#45;&gt;Node69</title>
<path fill="none" stroke="#191970" d="M103.4816,-59.1096C96.2136,-49.3516 88.3924,-38.8509 82.2462,-30.5991"/>
<polygon fill="#191970" stroke="#191970" points="100.8898,-61.4892 109.6702,-67.4183 106.5037,-57.3077 100.8898,-61.4892"/>
</g>
<!-- Node70&#45;&gt;Node69 -->
<g id="edge5" class="edge">
<title>Node70&#45;&gt;Node69</title>
<path fill="none" stroke="#191970" d="M71.3312,-207.6875C57.7423,-199.9608 44.8013,-189.6046 37,-176 9.5125,-128.065 43.2113,-60.6096 61.1464,-30.7475"/>
<polygon fill="#191970" stroke="#191970" points="69.8253,-210.8498 80.3071,-212.3931 73.0755,-204.6501 69.8253,-210.8498"/>
</g>
<!-- Node70&#45;&gt;Node71 -->
<g id="edge6" class="edge">
<title>Node70&#45;&gt;Node71</title>
<path fill="none" stroke="#191970" d="M125,-202.0249C125,-193.128 125,-183.4287 125,-175.6432"/>
<polygon fill="#191970" stroke="#191970" points="121.5001,-202.2966 125,-212.2967 128.5001,-202.2967 121.5001,-202.2966"/>
</g>
<!-- Node71&#45;&gt;Node68 -->
<g id="edge7" class="edge">
<title>Node71&#45;&gt;Node68</title>
<path fill="none" stroke="#191970" d="M125,-135.4016C125,-126.6173 125,-116.8652 125,-108.5015"/>
<polygon fill="#191970" stroke="#191970" points="121.5001,-135.4779 125,-145.478 128.5001,-135.478 121.5001,-135.4779"/>
</g>
<!-- Node73 -->
<g id="node8" class="node">
<title>Node73</title>
<g id="a_node8"><a xlink:href="hermitian__dense__output_8h.html" target="_top" xlink:title=" ">
<polygon fill="#ffffff" stroke="#000000" points="374.5,-145.5 374.5,-175.5 521.5,-175.5 521.5,-145.5 374.5,-145.5"/>
<text text-anchor="start" x="382.5" y="-163.5" font-family="Helvetica,sans-Serif" font-size="10.00" fill="#000000">drake/systems/analysis</text>
<text text-anchor="middle" x="448" y="-152.5" font-family="Helvetica,sans-Serif" font-size="10.00" fill="#000000">/hermitian_dense_output.h</text>
</a>
</g>
</g>
<!-- Node72&#45;&gt;Node73 -->
<g id="edge10" class="edge">
<title>Node72&#45;&gt;Node73</title>
<path fill="none" stroke="#191970" d="M426.3348,-203.1932C431.0079,-193.9844 436.1909,-183.771 440.3154,-175.6432"/>
<polygon fill="#191970" stroke="#191970" points="423.1193,-201.7953 421.7151,-212.2967 429.3616,-204.963 423.1193,-201.7953"/>
</g>
</g>
</svg>
        <g id="navigator" transform="translate(0 0)" fill="#404254">
                <rect fill="#f2f5e9" fill-opacity="0.5" stroke="#606060" stroke-width=".5" x="0" y="0" width="60" height="60"/>
                <use id="zoomplus" xlink:href="#zoomPlus" x="17" y="9" onmousedown="handleZoom(evt,'in')"/>
                <use id="zoomminus" xlink:href="#zoomMin" x="42" y="9" onmousedown="handleZoom(evt,'out')"/>
                <use id="reset" xlink:href="#resetDef" x="30" y="36" onmousedown="handleReset()"/>
                <g id="arrowUp" xlink:href="#dirArrow" transform="translate(30 24)" onmousedown="handlePan(0,-1)">
                  <use xlink:href="#rim" fill="#404040">
                        <set attributeName="fill" to="#808080" begin="arrowUp.mouseover" end="arrowUp.mouseout"/>
                  </use>
                  <path fill="none" stroke="white" stroke-width="1.5" d="M0,-3.0v7 M-2.5,-0.5L0,-3.0L2.5,-0.5"/>
                </g>
                <g id="arrowRight" xlink:href="#dirArrow" transform="rotate(90) translate(36 -43)" onmousedown="handlePan(1,0)">
                  <use xlink:href="#rim" fill="#404040">
                        <set attributeName="fill" to="#808080" begin="arrowRight.mouseover" end="arrowRight.mouseout"/>
                  </use>
                  <path fill="none" stroke="white" stroke-width="1.5" d="M0,-3.0v7 M-2.5,-0.5L0,-3.0L2.5,-0.5"/>
                </g>
                <g id="arrowDown" xlink:href="#dirArrow" transform="rotate(180) translate(-30 -48)" onmousedown="handlePan(0,1)">
                  <use xlink:href="#rim" fill="#404040">
                        <set attributeName="fill" to="#808080" begin="arrowDown.mouseover" end="arrowDown.mouseout"/>
                  </use>
                  <path fill="none" stroke="white" stroke-width="1.5" d="M0,-3.0v7 M-2.5,-0.5L0,-3.0L2.5,-0.5"/>
                </g>
                <g id="arrowLeft" xlink:href="#dirArrow" transform="rotate(270) translate(-36 17)" onmousedown="handlePan(-1,0)">
                  <use xlink:href="#rim" fill="#404040">
                        <set attributeName="fill" to="#808080" begin="arrowLeft.mouseover" end="arrowLeft.mouseout"/>
                  </use>
                  <path fill="none" stroke="white" stroke-width="1.5" d="M0,-3.0v7 M-2.5,-0.5L0,-3.0L2.5,-0.5"/>
                </g>
        </g>
        <svg viewBox="0 0 15 15" width="100%" height="30px" preserveAspectRatio="xMaxYMin meet">
         <g id="arrow_out" transform="scale(0.3 0.3)">
          <a xlink:href="dense__output_8h__dep__incl_org.svg" target="_base">
           <rect id="button" ry="5" rx="5" y="6" x="6" height="38" width="38"
                fill="#f2f5e9" fill-opacity="0.5" stroke="#606060" stroke-width="1.0"/>
           <path id="arrow"
             d="M 11.500037,31.436501 C 11.940474,20.09759 22.043105,11.32322 32.158766,21.979434 L 37.068811,17.246167 C 37.068811,17.246167 37.088388,32 37.088388,32 L 22.160133,31.978069 C 22.160133,31.978069 26.997745,27.140456 26.997745,27.140456 C 18.528582,18.264221 13.291696,25.230495 11.500037,31.436501 z"
             style="fill:#404040;"/>
          </a>
         </g>
        </svg>
</svg>
