<?xml version="1.0" encoding="UTF-8" standalone="no"?>
<!DOCTYPE svg PUBLIC "-//W3C//DTD SVG 1.1//EN"
 "http://www.w3.org/Graphics/SVG/1.1/DTD/svg11.dtd">
<!-- Generated by graphviz version 2.40.1 (20161225.0304)
 -->
<!-- Title: drake/bindings/pydrake/common/deprecation_pybind.h Pages: 1 -->
<svg width="543pt" height="173pt"
 viewBox="0.00 0.00 542.50 173.00" xmlns="http://www.w3.org/2000/svg" xmlns:xlink="http://www.w3.org/1999/xlink">
<g id="graph0" class="graph" transform="scale(1 1) rotate(0) translate(4 169)">
<title>drake/bindings/pydrake/common/deprecation_pybind.h</title>
<polygon fill="#ffffff" stroke="transparent" points="-4,4 -4,-169 538.5,-169 538.5,4 -4,4"/>
<!-- Node0 -->
<g id="node1" class="node">
<title>Node0</title>
<g id="a_node1"><a xlink:title="Provides access to Python deprecation utilities from C++.">
<polygon fill="#bfbfbf" stroke="#000000" points="163,-134.5 163,-164.5 333,-164.5 333,-134.5 163,-134.5"/>
<text text-anchor="start" x="171" y="-152.5" font-family="Helvetica,sans-Serif" font-size="10.00" fill="#000000">drake/bindings/pydrake</text>
<text text-anchor="middle" x="248" y="-141.5" font-family="Helvetica,sans-Serif" font-size="10.00" fill="#000000">/common/deprecation_pybind.h</text>
</a>
</g>
</g>
<!-- Node1 -->
<g id="node2" class="node">
<title>Node1</title>
<g id="a_node2"><a xlink:title=" ">
<polygon fill="#ffffff" stroke="#bfbfbf" points="0,-73 0,-92 58,-92 58,-73 0,-73"/>
<text text-anchor="middle" x="29" y="-80" font-family="Helvetica,sans-Serif" font-size="10.00" fill="#000000">memory</text>
</a>
</g>
</g>
<!-- Node0&#45;&gt;Node1 -->
<g id="edge1" class="edge">
<title>Node0&#45;&gt;Node1</title>
<path fill="none" stroke="#191970" d="M188.7993,-134.4212C153.1971,-124.9172 107.1494,-111.8531 67,-98 65.0804,-97.3377 63.1173,-96.6307 61.1441,-95.8973"/>
<polygon fill="#191970" stroke="#191970" points="61.938,-92.451 51.3492,-92.0933 59.4038,-98.9762 61.938,-92.451"/>
</g>
<!-- Node2 -->
<g id="node3" class="node">
<title>Node2</title>
<g id="a_node3"><a xlink:title=" ">
<polygon fill="#ffffff" stroke="#bfbfbf" points="213.5,-6 213.5,-25 258.5,-25 258.5,-6 213.5,-6"/>
<text text-anchor="middle" x="236" y="-13" font-family="Helvetica,sans-Serif" font-size="10.00" fill="#000000">utility</text>
</a>
</g>
</g>
<!-- Node0&#45;&gt;Node2 -->
<g id="edge2" class="edge">
<title>Node0&#45;&gt;Node2</title>
<path fill="none" stroke="#191970" d="M246.6468,-134.389C244.4693,-110.0735 240.1879,-62.2644 237.7704,-35.2698"/>
<polygon fill="#191970" stroke="#191970" points="241.2382,-34.7521 236.8601,-25.1042 234.2661,-35.3765 241.2382,-34.7521"/>
</g>
<!-- Node3 -->
<g id="node4" class="node">
<title>Node3</title>
<g id="a_node4"><a xlink:title=" ">
<polygon fill="#ffffff" stroke="#bfbfbf" points="415.5,-6 415.5,-25 534.5,-25 534.5,-6 415.5,-6"/>
<text text-anchor="middle" x="475" y="-13" font-family="Helvetica,sans-Serif" font-size="10.00" fill="#000000">pybind11/pybind11.h</text>
</a>
</g>
</g>
<!-- Node0&#45;&gt;Node3 -->
<g id="edge3" class="edge">
<title>Node0&#45;&gt;Node3</title>
<path fill="none" stroke="#191970" d="M333.4113,-135.1321C361.8745,-127.4332 392.5329,-115.724 417,-98 439.8358,-81.4577 456.8946,-53.0767 466.407,-34.3003"/>
<polygon fill="#191970" stroke="#191970" points="469.5899,-35.758 470.7943,-25.2318 463.2886,-32.7094 469.5899,-35.758"/>
</g>
<!-- Node4 -->
<g id="node5" class="node">
<title>Node4</title>
<g id="a_node5"><a xlink:href="wrap__function_8h.html" target="_top" xlink:title=" ">
<polygon fill="#ffffff" stroke="#000000" points="76.5,-67.5 76.5,-97.5 219.5,-97.5 219.5,-67.5 76.5,-67.5"/>
<text text-anchor="start" x="84.5" y="-85.5" font-family="Helvetica,sans-Serif" font-size="10.00" fill="#000000">drake/bindings/pydrake</text>
<text text-anchor="middle" x="148" y="-74.5" font-family="Helvetica,sans-Serif" font-size="10.00" fill="#000000">/common/wrap_function.h</text>
</a>
</g>
</g>
<!-- Node0&#45;&gt;Node4 -->
<g id="edge4" class="edge">
<title>Node0&#45;&gt;Node4</title>
<path fill="none" stroke="#191970" d="M225.3085,-134.2967C211.6278,-125.1306 194.0126,-113.3285 179.053,-103.3055"/>
<polygon fill="#191970" stroke="#191970" points="180.8576,-100.3017 170.6017,-97.6432 176.9613,-106.1171 180.8576,-100.3017"/>
</g>
<!-- Node7 -->
<g id="node8" class="node">
<title>Node7</title>
<g id="a_node8"><a xlink:href="pydrake__pybind_8h.html" target="_top" xlink:title=" ">
<polygon fill="#ffffff" stroke="#000000" points="276.5,-67.5 276.5,-97.5 407.5,-97.5 407.5,-67.5 276.5,-67.5"/>
<text text-anchor="start" x="284.5" y="-85.5" font-family="Helvetica,sans-Serif" font-size="10.00" fill="#000000">drake/bindings/pydrake</text>
<text text-anchor="middle" x="342" y="-74.5" font-family="Helvetica,sans-Serif" font-size="10.00" fill="#000000">/pydrake_pybind.h</text>
</a>
</g>
</g>
<!-- Node0&#45;&gt;Node7 -->
<g id="edge8" class="edge">
<title>Node0&#45;&gt;Node7</title>
<path fill="none" stroke="#191970" d="M269.3301,-134.2967C282.0697,-125.2163 298.4389,-113.5488 312.4152,-103.587"/>
<polygon fill="#191970" stroke="#191970" points="314.6426,-106.2975 320.7544,-97.6432 310.5797,-100.5973 314.6426,-106.2975"/>
</g>
<!-- Node4&#45;&gt;Node2 -->
<g id="edge7" class="edge">
<title>Node4&#45;&gt;Node2</title>
<path fill="none" stroke="#191970" d="M167.9686,-67.2967C182.0787,-56.5537 200.9451,-42.1895 215.2308,-31.3129"/>
<polygon fill="#191970" stroke="#191970" points="217.614,-33.8975 223.4502,-25.055 213.3736,-28.328 217.614,-33.8975"/>
</g>
<!-- Node5 -->
<g id="node6" class="node">
<title>Node5</title>
<g id="a_node6"><a xlink:title=" ">
<polygon fill="#ffffff" stroke="#bfbfbf" points="120.5,-6 120.5,-25 185.5,-25 185.5,-6 120.5,-6"/>
<text text-anchor="middle" x="153" y="-13" font-family="Helvetica,sans-Serif" font-size="10.00" fill="#000000">functional</text>
</a>
</g>
</g>
<!-- Node4&#45;&gt;Node5 -->
<g id="edge5" class="edge">
<title>Node4&#45;&gt;Node5</title>
<path fill="none" stroke="#191970" d="M149.1346,-67.2967C149.8455,-57.7699 150.769,-45.3954 151.535,-35.1306"/>
<polygon fill="#191970" stroke="#191970" points="155.0329,-35.2877 152.2869,-25.055 148.0524,-34.7667 155.0329,-35.2877"/>
</g>
<!-- Node6 -->
<g id="node7" class="node">
<title>Node6</title>
<g id="a_node7"><a xlink:title=" ">
<polygon fill="#ffffff" stroke="#bfbfbf" points="33.5,-6 33.5,-25 102.5,-25 102.5,-6 33.5,-6"/>
<text text-anchor="middle" x="68" y="-13" font-family="Helvetica,sans-Serif" font-size="10.00" fill="#000000">type_traits</text>
</a>
</g>
</g>
<!-- Node4&#45;&gt;Node6 -->
<g id="edge6" class="edge">
<title>Node4&#45;&gt;Node6</title>
<path fill="none" stroke="#191970" d="M129.8468,-67.2967C117.1404,-56.6551 100.1913,-42.4602 87.2498,-31.6217"/>
<polygon fill="#191970" stroke="#191970" points="89.3227,-28.7924 79.4089,-25.055 84.8282,-34.159 89.3227,-28.7924"/>
</g>
<!-- Node7&#45;&gt;Node2 -->
<g id="edge9" class="edge">
<title>Node7&#45;&gt;Node2</title>
<path fill="none" stroke="#191970" d="M318.2115,-67.4639C300.7465,-56.4247 277.1271,-41.4954 259.6862,-30.4715"/>
<polygon fill="#191970" stroke="#191970" points="261.5173,-27.4883 251.1943,-25.1039 257.7772,-33.4054 261.5173,-27.4883"/>
</g>
<!-- Node7&#45;&gt;Node3 -->
<g id="edge10" class="edge">
<title>Node7&#45;&gt;Node3</title>
<path fill="none" stroke="#191970" d="M371.8478,-67.4639C394.264,-56.1715 424.7606,-40.8086 446.7738,-29.7192"/>
<polygon fill="#191970" stroke="#191970" points="448.5793,-32.7287 455.9355,-25.1039 445.43,-26.4772 448.5793,-32.7287"/>
</g>
<!-- Node8 -->
<g id="node9" class="node">
<title>Node8</title>
<g id="a_node9"><a xlink:href="drake__deprecated_8h.html" target="_top" xlink:title="Provides a portable macro for use in generating compile&#45;time warnings for use of code that is permitt...">
<polygon fill="#ffffff" stroke="#000000" points="276.5,-.5 276.5,-30.5 397.5,-30.5 397.5,-.5 276.5,-.5"/>
<text text-anchor="start" x="284.5" y="-18.5" font-family="Helvetica,sans-Serif" font-size="10.00" fill="#000000">drake/common/drake</text>
<text text-anchor="middle" x="337" y="-7.5" font-family="Helvetica,sans-Serif" font-size="10.00" fill="#000000">_deprecated.h</text>
</a>
</g>
</g>
<!-- Node7&#45;&gt;Node8 -->
<g id="edge11" class="edge">
<title>Node7&#45;&gt;Node8</title>
<path fill="none" stroke="#191970" d="M340.8654,-67.2967C340.2837,-59.5013 339.5596,-49.7991 338.896,-40.9064"/>
<polygon fill="#191970" stroke="#191970" points="342.3647,-40.3549 338.1301,-30.6432 335.3841,-40.8759 342.3647,-40.3549"/>
</g>
</g>
</svg>
