<?xml version="1.0" encoding="UTF-8" standalone="no"?>
<!DOCTYPE svg PUBLIC "-//W3C//DTD SVG 1.1//EN"
 "http://www.w3.org/Graphics/SVG/1.1/DTD/svg11.dtd">
<!-- Generated by graphviz version 2.40.1 (20161225.0304)
 -->
<!-- Title: drake/multibody/parsing/detail_common.h Pages: 1 -->
<svg width="298pt" height="106pt"
 viewBox="0.00 0.00 298.00 106.00" xmlns="http://www.w3.org/2000/svg" xmlns:xlink="http://www.w3.org/1999/xlink">
<g id="graph0" class="graph" transform="scale(1 1) rotate(0) translate(4 102)">
<title>drake/multibody/parsing/detail_common.h</title>
<polygon fill="#ffffff" stroke="transparent" points="-4,4 -4,-102 294,-102 294,4 -4,4"/>
<!-- Node231 -->
<g id="node1" class="node">
<title>Node231</title>
<g id="a_node1"><a xlink:title=" ">
<polygon fill="#bfbfbf" stroke="#000000" points="77,-67.5 77,-97.5 213,-97.5 213,-67.5 77,-67.5"/>
<text text-anchor="start" x="85" y="-85.5" font-family="Helvetica,sans-Serif" font-size="10.00" fill="#000000">drake/multibody/parsing</text>
<text text-anchor="middle" x="145" y="-74.5" font-family="Helvetica,sans-Serif" font-size="10.00" fill="#000000">/detail_common.h</text>
</a>
</g>
</g>
<!-- Node232 -->
<g id="node2" class="node">
<title>Node232</title>
<g id="a_node2"><a xlink:href="detail__sdf__parser_8h.html" target="_top" xlink:title=" ">
<polygon fill="#ffffff" stroke="#000000" points="0,-.5 0,-30.5 136,-30.5 136,-.5 0,-.5"/>
<text text-anchor="start" x="8" y="-18.5" font-family="Helvetica,sans-Serif" font-size="10.00" fill="#000000">drake/multibody/parsing</text>
<text text-anchor="middle" x="68" y="-7.5" font-family="Helvetica,sans-Serif" font-size="10.00" fill="#000000">/detail_sdf_parser.h</text>
</a>
</g>
</g>
<!-- Node231&#45;&gt;Node232 -->
<g id="edge1" class="edge">
<title>Node231&#45;&gt;Node232</title>
<path fill="none" stroke="#191970" d="M119.7124,-60.4965C108.476,-50.7193 95.5308,-39.4554 85.4033,-30.6432"/>
<polygon fill="#191970" stroke="#191970" points="117.6861,-63.3728 127.5275,-67.2967 122.281,-58.092 117.6861,-63.3728"/>
</g>
<!-- Node233 -->
<g id="node3" class="node">
<title>Node233</title>
<g id="a_node3"><a xlink:href="detail__urdf__parser_8h.html" target="_top" xlink:title=" ">
<polygon fill="#ffffff" stroke="#000000" points="154,-.5 154,-30.5 290,-30.5 290,-.5 154,-.5"/>
<text text-anchor="start" x="162" y="-18.5" font-family="Helvetica,sans-Serif" font-size="10.00" fill="#000000">drake/multibody/parsing</text>
<text text-anchor="middle" x="222" y="-7.5" font-family="Helvetica,sans-Serif" font-size="10.00" fill="#000000">/detail_urdf_parser.h</text>
</a>
</g>
</g>
<!-- Node231&#45;&gt;Node233 -->
<g id="edge2" class="edge">
<title>Node231&#45;&gt;Node233</title>
<path fill="none" stroke="#191970" d="M170.2876,-60.4965C181.524,-50.7193 194.4692,-39.4554 204.5967,-30.6432"/>
<polygon fill="#191970" stroke="#191970" points="167.719,-58.092 162.4725,-67.2967 172.3139,-63.3728 167.719,-58.092"/>
</g>
</g>
</svg>
