<?xml version="1.0" encoding="UTF-8" standalone="no"?>
<!DOCTYPE svg PUBLIC "-//W3C//DTD SVG 1.1//EN"
 "http://www.w3.org/Graphics/SVG/1.1/DTD/svg11.dtd">
<!-- Generated by graphviz version 2.40.1 (20161225.0304)
 -->
<!-- Title: drake Pages: 1 -->
<!--zoomable 580 -->
<svg id="main" version="1.1" xmlns="http://www.w3.org/2000/svg" xmlns:xlink="http://www.w3.org/1999/xlink" xml:space="preserve" onload="init(evt)">
<style type="text/css"><![CDATA[
.edge:hover path { stroke: red; }
.edge:hover polygon { stroke: red; fill: red; }
]]></style>
<script type="text/javascript"><![CDATA[
var edges = document.getElementsByTagName('g');
if (edges && edges.length) {
  for (var i=0;i<edges.length;i++) {
    if (edges[i].id.substr(0,4)=='edge') {
      edges[i].setAttribute('class','edge');
    }
  }
}
]]></script>
        <defs>
                <circle id="rim" cx="0" cy="0" r="7"/>
                <circle id="rim2" cx="0" cy="0" r="3.5"/>
                <g id="zoomPlus">
                        <use xlink:href="#rim" fill="#404040">
                                <set attributeName="fill" to="#808080" begin="zoomplus.mouseover" end="zoomplus.mouseout"/>
                        </use>
                        <path d="M-4,0h8M0,-4v8" fill="none" stroke="white" stroke-width="1.5" pointer-events="none"/>
                </g>
                <g id="zoomMin">
                        <use xlink:href="#rim" fill="#404040">
                                <set attributeName="fill" to="#808080" begin="zoomminus.mouseover" end="zoomminus.mouseout"/>
                        </use>
                        <path d="M-4,0h8" fill="none" stroke="white" stroke-width="1.5" pointer-events="none"/>
                </g>
                <g id="dirArrow">
                        <path fill="none" stroke="white" stroke-width="1.5" d="M0,-3.0v7 M-2.5,-0.5L0,-3.0L2.5,-0.5"/>
                </g>
               <g id="resetDef">
                       <use xlink:href="#rim2" fill="#404040">
                               <set attributeName="fill" to="#808080" begin="reset.mouseover" end="reset.mouseout"/>
                       </use>
               </g>
        </defs>

<script type="text/javascript">
var viewWidth = 458;
var viewHeight = 580;
var sectionId = 'dynsection-0';
</script>
<script xlink:href="svgpan.js"/>
<svg id="graph" class="graph">
<g id="viewport">
<title>drake</title>
<polygon fill="#ffffff" stroke="transparent" points="-4,4 -4,-576 454,-576 454,4 -4,4"/>
<g id="clust1" class="cluster">
<title>clusterdir_f1666844dc41ec91c14125b680b7be1b</title>
<g id="a_clust1"><a xlink:href="dir_f1666844dc41ec91c14125b680b7be1b.html" target="_top">
<polygon fill="#eeeeff" stroke="#000000" points="8,-8 8,-564 442,-564 442,-8 8,-8"/>
</a>
</g>
</g>
<!-- dir_f1666844dc41ec91c14125b680b7be1b -->
<g id="node1" class="node">
<title>dir_f1666844dc41ec91c14125b680b7be1b</title>
<text text-anchor="middle" x="398" y="-535.5" font-family="Helvetica,sans-Serif" font-size="10.00" fill="#000000">drake</text>
</g>
<!-- dir_a8013f4957f3230075674e48512c1ba8 -->
<g id="node2" class="node">
<title>dir_a8013f4957f3230075674e48512c1ba8</title>
<g id="a_node2"><a xlink:href="dir_a8013f4957f3230075674e48512c1ba8.html" target="_top" xlink:title="bindings">
<polygon fill="#ffffff" stroke="#ff0000" points="281,-484 223,-484 223,-448 281,-448 281,-484"/>
<text text-anchor="middle" x="252" y="-463.5" font-family="Helvetica,sans-Serif" font-size="10.00" fill="#000000">bindings</text>
</a>
</g>
</g>
<!-- dir_a36da230f0956f48b11c85f7d599788f -->
<g id="node3" class="node">
<title>dir_a36da230f0956f48b11c85f7d599788f</title>
<g id="a_node3"><a xlink:href="dir_a36da230f0956f48b11c85f7d599788f.html" target="_top" xlink:title="common">
<polygon fill="#ffffff" stroke="#ff0000" points="264.5,-124 205.5,-124 205.5,-88 264.5,-88 264.5,-124"/>
<text text-anchor="middle" x="235" y="-103.5" font-family="Helvetica,sans-Serif" font-size="10.00" fill="#000000">common</text>
</a>
</g>
</g>
<!-- dir_a8013f4957f3230075674e48512c1ba8&#45;&gt;dir_a36da230f0956f48b11c85f7d599788f -->
<g id="edge1" class="edge">
<title>dir_a8013f4957f3230075674e48512c1ba8&#45;&gt;dir_a36da230f0956f48b11c85f7d599788f</title>
<path fill="none" stroke="#000000" d="M265.167,-447.7562C291.9591,-408.3132 348.2286,-312.1834 323,-232 310.697,-192.8976 281.4672,-155.3487 260.0581,-131.5716"/>
<polygon fill="#000000" stroke="#000000" points="262.4826,-129.0377 253.1332,-124.0537 257.3339,-133.7802 262.4826,-129.0377"/>
<g id="a_edge1&#45;headlabel"><a xlink:href="dir_000001_000006.html" target="_top" xlink:title="12">
<text text-anchor="middle" x="267.0062" y="-127.2579" font-family="Helvetica,sans-Serif" font-size="10.00" fill="#000000">12</text>
</a>
</g>
</g>
<!-- dir_b7a0e33b407baa23d8a077e33033c988 -->
<g id="node13" class="node">
<title>dir_b7a0e33b407baa23d8a077e33033c988</title>
<g id="a_node13"><a xlink:href="dir_b7a0e33b407baa23d8a077e33033c988.html" target="_top" xlink:title="systems">
<polygon fill="#ffffff" stroke="#ff0000" points="256,-412 198,-412 198,-376 256,-376 256,-412"/>
<text text-anchor="middle" x="227" y="-391.5" font-family="Helvetica,sans-Serif" font-size="10.00" fill="#000000">systems</text>
</a>
</g>
</g>
<!-- dir_a8013f4957f3230075674e48512c1ba8&#45;&gt;dir_b7a0e33b407baa23d8a077e33033c988 -->
<g id="edge2" class="edge">
<title>dir_a8013f4957f3230075674e48512c1ba8&#45;&gt;dir_b7a0e33b407baa23d8a077e33033c988</title>
<path fill="none" stroke="#000000" d="M245.6914,-447.8314C242.9883,-440.0463 239.7684,-430.7729 236.769,-422.1347"/>
<polygon fill="#000000" stroke="#000000" points="239.98,-420.7119 233.3935,-412.4133 233.3673,-423.0081 239.98,-420.7119"/>
<g id="a_edge2&#45;headlabel"><a xlink:href="dir_000001_000072.html" target="_top" xlink:title="1">
<text text-anchor="middle" x="243.8412" y="-420.6764" font-family="Helvetica,sans-Serif" font-size="10.00" fill="#000000">1</text>
</a>
</g>
</g>
<!-- dir_fc0178d6978c9fa2cad6ef3e048a60a7 -->
<g id="node9" class="node">
<title>dir_fc0178d6978c9fa2cad6ef3e048a60a7</title>
<g id="a_node9"><a xlink:href="dir_fc0178d6978c9fa2cad6ef3e048a60a7.html" target="_top" xlink:title="math">
<polygon fill="#ffffff" stroke="#000000" points="262,-52 208,-52 208,-16 262,-16 262,-52"/>
<text text-anchor="middle" x="235" y="-31.5" font-family="Helvetica,sans-Serif" font-size="10.00" fill="#000000">math</text>
</a>
</g>
</g>
<!-- dir_a36da230f0956f48b11c85f7d599788f&#45;&gt;dir_fc0178d6978c9fa2cad6ef3e048a60a7 -->
<g id="edge17" class="edge">
<title>dir_a36da230f0956f48b11c85f7d599788f&#45;&gt;dir_fc0178d6978c9fa2cad6ef3e048a60a7</title>
<path fill="none" stroke="#000000" d="M229.0476,-87.8314C228.2972,-80.131 228.0763,-70.9743 228.3849,-62.4166"/>
<polygon fill="#000000" stroke="#000000" points="231.8792,-62.6161 229.024,-52.4133 224.8935,-62.1697 231.8792,-62.6161"/>
<g id="a_edge17&#45;headlabel"><a xlink:href="dir_000006_000007.html" target="_top" xlink:title="1">
<text text-anchor="middle" x="234.4836" y="-63.8844" font-family="Helvetica,sans-Serif" font-size="10.00" fill="#000000">1</text>
</a>
</g>
</g>
<!-- dir_d0d5bed5913df116d7ad8f512e215287 -->
<g id="node4" class="node">
<title>dir_d0d5bed5913df116d7ad8f512e215287</title>
<g id="a_node4"><a xlink:href="dir_d0d5bed5913df116d7ad8f512e215287.html" target="_top" xlink:title="doc">
<polygon fill="#ffffff" stroke="#000000" points="333,-556 279,-556 279,-520 333,-520 333,-556"/>
<text text-anchor="middle" x="306" y="-535.5" font-family="Helvetica,sans-Serif" font-size="10.00" fill="#000000">doc</text>
</a>
</g>
</g>
<!-- dir_bf85a0c13984f214f436b2edc519c6dd -->
<g id="node5" class="node">
<title>dir_bf85a0c13984f214f436b2edc519c6dd</title>
<g id="a_node5"><a xlink:href="dir_bf85a0c13984f214f436b2edc519c6dd.html" target="_top" xlink:title="examples">
<polygon fill="#ffffff" stroke="#ff0000" points="220.5,-556 155.5,-556 155.5,-520 220.5,-520 220.5,-556"/>
<text text-anchor="middle" x="188" y="-535.5" font-family="Helvetica,sans-Serif" font-size="10.00" fill="#000000">examples</text>
</a>
</g>
</g>
<!-- dir_bf85a0c13984f214f436b2edc519c6dd&#45;&gt;dir_a36da230f0956f48b11c85f7d599788f -->
<g id="edge31" class="edge">
<title>dir_bf85a0c13984f214f436b2edc519c6dd&#45;&gt;dir_a36da230f0956f48b11c85f7d599788f</title>
<path fill="none" stroke="#000000" d="M220.5202,-531.0222C246.5087,-523.7258 281.816,-509.6392 302,-484 342.18,-432.9606 320.725,-404.6536 327,-340 334.8146,-259.4833 348.4443,-224.7854 300,-160 291.7387,-148.952 280.7767,-138.7346 270.2126,-130.2281"/>
<polygon fill="#000000" stroke="#000000" points="272.3124,-127.4274 262.2631,-124.0713 268.0261,-132.9617 272.3124,-127.4274"/>
<g id="a_edge31&#45;headlabel"><a xlink:href="dir_000013_000006.html" target="_top" xlink:title="15">
<text text-anchor="middle" x="276.8928" y="-124.8837" font-family="Helvetica,sans-Serif" font-size="10.00" fill="#000000">15</text>
</a>
</g>
</g>
<!-- dir_d739e095b49d8b72164589d00310017d -->
<g id="node6" class="node">
<title>dir_d739e095b49d8b72164589d00310017d</title>
<g id="a_node6"><a xlink:href="dir_d739e095b49d8b72164589d00310017d.html" target="_top" xlink:title="geometry">
<polygon fill="#ffffff" stroke="#ff0000" points="242,-340 178,-340 178,-304 242,-304 242,-340"/>
<text text-anchor="middle" x="210" y="-319.5" font-family="Helvetica,sans-Serif" font-size="10.00" fill="#000000">geometry</text>
</a>
</g>
</g>
<!-- dir_bf85a0c13984f214f436b2edc519c6dd&#45;&gt;dir_d739e095b49d8b72164589d00310017d -->
<g id="edge32" class="edge">
<title>dir_bf85a0c13984f214f436b2edc519c6dd&#45;&gt;dir_d739e095b49d8b72164589d00310017d</title>
<path fill="none" stroke="#000000" d="M185.9842,-519.8129C183.1103,-489.6207 179.1956,-427.3865 189,-376 190.7073,-367.0518 193.8347,-357.6767 197.1638,-349.2966"/>
<polygon fill="#000000" stroke="#000000" points="200.4232,-350.5751 201.0916,-340.0014 193.9752,-347.8505 200.4232,-350.5751"/>
<g id="a_edge32&#45;headlabel"><a xlink:href="dir_000013_000033.html" target="_top" xlink:title="15">
<text text-anchor="middle" x="201.6395" y="-352.4914" font-family="Helvetica,sans-Serif" font-size="10.00" fill="#000000">15</text>
</a>
</g>
</g>
<!-- dir_3c3c25df5132fca4f15a988b4c2efab5 -->
<g id="node7" class="node">
<title>dir_3c3c25df5132fca4f15a988b4c2efab5</title>
<g id="a_node7"><a xlink:href="dir_3c3c25df5132fca4f15a988b4c2efab5.html" target="_top" xlink:title="lcm">
<polygon fill="#ffffff" stroke="#000000" points="314,-268 260,-268 260,-232 314,-232 314,-268"/>
<text text-anchor="middle" x="287" y="-247.5" font-family="Helvetica,sans-Serif" font-size="10.00" fill="#000000">lcm</text>
</a>
</g>
</g>
<!-- dir_bf85a0c13984f214f436b2edc519c6dd&#45;&gt;dir_3c3c25df5132fca4f15a988b4c2efab5 -->
<g id="edge28" class="edge">
<title>dir_bf85a0c13984f214f436b2edc519c6dd&#45;&gt;dir_3c3c25df5132fca4f15a988b4c2efab5</title>
<path fill="none" stroke="#000000" d="M220.9414,-530.23C244.7043,-522.7147 275.1174,-508.7186 290,-484 329.1605,-418.9581 309.5521,-324.1893 296.1058,-277.7481"/>
<polygon fill="#000000" stroke="#000000" points="299.4267,-276.6378 293.1887,-268.074 292.7248,-278.6587 299.4267,-276.6378"/>
<g id="a_edge28&#45;headlabel"><a xlink:href="dir_000013_000040.html" target="_top" xlink:title="2">
<text text-anchor="middle" x="303.1828" y="-276.7597" font-family="Helvetica,sans-Serif" font-size="10.00" fill="#000000">2</text>
</a>
</g>
</g>
<!-- dir_758aa030403a70af025108ac41d12d0d -->
<g id="node8" class="node">
<title>dir_758aa030403a70af025108ac41d12d0d</title>
<g id="a_node8"><a xlink:href="dir_758aa030403a70af025108ac41d12d0d.html" target="_top" xlink:title="manipulation">
<polygon fill="#ffffff" stroke="#ff0000" points="137.5,-484 56.5,-484 56.5,-448 137.5,-448 137.5,-484"/>
<text text-anchor="middle" x="97" y="-463.5" font-family="Helvetica,sans-Serif" font-size="10.00" fill="#000000">manipulation</text>
</a>
</g>
</g>
<!-- dir_bf85a0c13984f214f436b2edc519c6dd&#45;&gt;dir_758aa030403a70af025108ac41d12d0d -->
<g id="edge30" class="edge">
<title>dir_bf85a0c13984f214f436b2edc519c6dd&#45;&gt;dir_758aa030403a70af025108ac41d12d0d</title>
<path fill="none" stroke="#000000" d="M165.0369,-519.8314C153.8285,-510.9632 140.1791,-500.1637 128.0561,-490.5718"/>
<polygon fill="#000000" stroke="#000000" points="129.9697,-487.6229 119.9558,-484.1628 125.6263,-493.1125 129.9697,-487.6229"/>
<g id="a_edge30&#45;headlabel"><a xlink:href="dir_000013_000041.html" target="_top" xlink:title="7">
<text text-anchor="middle" x="134.5504" y="-485.1267" font-family="Helvetica,sans-Serif" font-size="10.00" fill="#000000">7</text>
</a>
</g>
</g>
<!-- dir_bf85a0c13984f214f436b2edc519c6dd&#45;&gt;dir_fc0178d6978c9fa2cad6ef3e048a60a7 -->
<g id="edge27" class="edge">
<title>dir_bf85a0c13984f214f436b2edc519c6dd&#45;&gt;dir_fc0178d6978c9fa2cad6ef3e048a60a7</title>
<path fill="none" stroke="#000000" d="M220.8863,-530.6976C285.1451,-516.3951 421.2987,-485.9095 423,-484 449.7727,-453.9505 433,-434.2462 433,-394 433,-394 433,-394 433,-178 433,-132.0242 417.056,-117.7465 382,-88 350.3864,-61.1746 304.2744,-47.1467 272.1549,-40.1886"/>
<polygon fill="#000000" stroke="#000000" points="272.7519,-36.7384 262.2543,-38.1706 271.3538,-43.5974 272.7519,-36.7384"/>
<g id="a_edge27&#45;headlabel"><a xlink:href="dir_000013_000007.html" target="_top" xlink:title="3">
<text text-anchor="middle" x="276.8411" y="-32.1741" font-family="Helvetica,sans-Serif" font-size="10.00" fill="#000000">3</text>
</a>
</g>
</g>
<!-- dir_39b8b3c6654246a9c12332c930bc7d3f -->
<g id="node10" class="node">
<title>dir_39b8b3c6654246a9c12332c930bc7d3f</title>
<g id="a_node10"><a xlink:href="dir_39b8b3c6654246a9c12332c930bc7d3f.html" target="_top" xlink:title="multibody">
<polygon fill="#ffffff" stroke="#ff0000" points="182,-268 116,-268 116,-232 182,-232 182,-268"/>
<text text-anchor="middle" x="149" y="-247.5" font-family="Helvetica,sans-Serif" font-size="10.00" fill="#000000">multibody</text>
</a>
</g>
</g>
<!-- dir_bf85a0c13984f214f436b2edc519c6dd&#45;&gt;dir_39b8b3c6654246a9c12332c930bc7d3f -->
<g id="edge26" class="edge">
<title>dir_bf85a0c13984f214f436b2edc519c6dd&#45;&gt;dir_39b8b3c6654246a9c12332c930bc7d3f</title>
<path fill="none" stroke="#000000" d="M183.5833,-519.8555C175.3706,-485.1729 157.9535,-406.9572 151,-340 148.8643,-319.4347 148.4018,-296.0899 148.4536,-278.3303"/>
<polygon fill="#000000" stroke="#000000" points="151.9534,-278.3554 148.5383,-268.3261 144.9536,-278.2961 151.9534,-278.3554"/>
<g id="a_edge26&#45;headlabel"><a xlink:href="dir_000013_000048.html" target="_top" xlink:title="11">
<text text-anchor="middle" x="154.7622" y="-279.4739" font-family="Helvetica,sans-Serif" font-size="10.00" fill="#000000">11</text>
</a>
</g>
</g>
<!-- dir_c86b501450b8b8b59405c286cb030cc3 -->
<g id="node12" class="node">
<title>dir_c86b501450b8b8b59405c286cb030cc3</title>
<g id="a_node12"><a xlink:href="dir_c86b501450b8b8b59405c286cb030cc3.html" target="_top" xlink:title="solvers">
<polygon fill="#ffffff" stroke="#ff0000" points="122,-196 68,-196 68,-160 122,-160 122,-196"/>
<text text-anchor="middle" x="95" y="-175.5" font-family="Helvetica,sans-Serif" font-size="10.00" fill="#000000">solvers</text>
</a>
</g>
</g>
<!-- dir_bf85a0c13984f214f436b2edc519c6dd&#45;&gt;dir_c86b501450b8b8b59405c286cb030cc3 -->
<g id="edge29" class="edge">
<title>dir_bf85a0c13984f214f436b2edc519c6dd&#45;&gt;dir_c86b501450b8b8b59405c286cb030cc3</title>
<path fill="none" stroke="#000000" d="M155.4311,-535.0965C122.531,-530.3015 72.9639,-517.6029 47,-484 22.3927,-452.1529 37,-434.2462 37,-394 37,-394 37,-394 37,-322 37,-280.6022 44.4506,-269.9459 61,-232 65.0759,-222.6545 70.6153,-213.0494 76.0393,-204.5793"/>
<polygon fill="#000000" stroke="#000000" points="78.972,-206.4898 81.5836,-196.2218 73.1389,-202.62 78.972,-206.4898"/>
<g id="a_edge29&#45;headlabel"><a xlink:href="dir_000013_000068.html" target="_top" xlink:title="4">
<text text-anchor="middle" x="79.3509" y="-208.5547" font-family="Helvetica,sans-Serif" font-size="10.00" fill="#000000">4</text>
</a>
</g>
</g>
<!-- dir_bf85a0c13984f214f436b2edc519c6dd&#45;&gt;dir_b7a0e33b407baa23d8a077e33033c988 -->
<g id="edge33" class="edge">
<title>dir_bf85a0c13984f214f436b2edc519c6dd&#45;&gt;dir_b7a0e33b407baa23d8a077e33033c988</title>
<path fill="none" stroke="#000000" d="M192.9394,-519.7623C199.6207,-495.0928 211.6005,-450.8598 219.424,-421.9731"/>
<polygon fill="#000000" stroke="#000000" points="222.8648,-422.6569 222.1007,-412.0896 216.1082,-420.8269 222.8648,-422.6569"/>
<g id="a_edge33&#45;headlabel"><a xlink:href="dir_000013_000072.html" target="_top" xlink:title="59">
<text text-anchor="middle" x="224.6657" y="-424.3687" font-family="Helvetica,sans-Serif" font-size="10.00" fill="#000000">59</text>
</a>
</g>
</g>
<!-- dir_d739e095b49d8b72164589d00310017d&#45;&gt;dir_a36da230f0956f48b11c85f7d599788f -->
<g id="edge21" class="edge">
<title>dir_d739e095b49d8b72164589d00310017d&#45;&gt;dir_a36da230f0956f48b11c85f7d599788f</title>
<path fill="none" stroke="#000000" d="M212.0885,-303.9555C216.4451,-266.3144 226.5293,-179.1867 231.7448,-134.1246"/>
<polygon fill="#000000" stroke="#000000" points="235.2268,-134.4812 232.8999,-124.1451 228.2733,-133.6763 235.2268,-134.4812"/>
<g id="a_edge21&#45;headlabel"><a xlink:href="dir_000033_000006.html" target="_top" xlink:title="110">
<text text-anchor="middle" x="237.6341" y="-135.8784" font-family="Helvetica,sans-Serif" font-size="10.00" fill="#000000">110</text>
</a>
</g>
</g>
<!-- dir_d739e095b49d8b72164589d00310017d&#45;&gt;dir_3c3c25df5132fca4f15a988b4c2efab5 -->
<g id="edge20" class="edge">
<title>dir_d739e095b49d8b72164589d00310017d&#45;&gt;dir_3c3c25df5132fca4f15a988b4c2efab5</title>
<path fill="none" stroke="#000000" d="M229.4304,-303.8314C238.732,-295.1337 250.0204,-284.5783 260.1286,-275.1265"/>
<polygon fill="#000000" stroke="#000000" points="262.6621,-277.5493 267.5759,-268.1628 257.8811,-272.4363 262.6621,-277.5493"/>
<g id="a_edge20&#45;headlabel"><a xlink:href="dir_000033_000040.html" target="_top" xlink:title="1">
<text text-anchor="middle" x="261.9757" y="-279.5782" font-family="Helvetica,sans-Serif" font-size="10.00" fill="#000000">1</text>
</a>
</g>
</g>
<!-- dir_d739e095b49d8b72164589d00310017d&#45;&gt;dir_fc0178d6978c9fa2cad6ef3e048a60a7 -->
<g id="edge19" class="edge">
<title>dir_d739e095b49d8b72164589d00310017d&#45;&gt;dir_fc0178d6978c9fa2cad6ef3e048a60a7</title>
<path fill="none" stroke="#000000" d="M207.3565,-303.9757C200.6341,-256.3639 184.2897,-128.1478 197,-88 200.0815,-78.2664 205.6183,-68.7695 211.5289,-60.5228"/>
<polygon fill="#000000" stroke="#000000" points="214.431,-62.49 217.7365,-52.4239 208.8752,-58.2316 214.431,-62.49"/>
<g id="a_edge19&#45;headlabel"><a xlink:href="dir_000033_000007.html" target="_top" xlink:title="23">
<text text-anchor="middle" x="214.4977" y="-64.5701" font-family="Helvetica,sans-Serif" font-size="10.00" fill="#000000">23</text>
</a>
</g>
</g>
<!-- dir_d739e095b49d8b72164589d00310017d&#45;&gt;dir_39b8b3c6654246a9c12332c930bc7d3f -->
<g id="edge18" class="edge">
<title>dir_d739e095b49d8b72164589d00310017d&#45;&gt;dir_39b8b3c6654246a9c12332c930bc7d3f</title>
<path fill="none" stroke="#000000" d="M188.6547,-303.8314C180.8208,-295.5386 172.1701,-285.557 164.8774,-276.4533"/>
<polygon fill="#000000" stroke="#000000" points="167.5263,-274.1581 158.6241,-268.4133 162.0007,-278.4556 167.5263,-274.1581"/>
<g id="a_edge18&#45;headlabel"><a xlink:href="dir_000033_000048.html" target="_top" xlink:title="1">
<text text-anchor="middle" x="171.9743" y="-272.7524" font-family="Helvetica,sans-Serif" font-size="10.00" fill="#000000">1</text>
</a>
</g>
</g>
<!-- dir_d739e095b49d8b72164589d00310017d&#45;&gt;dir_b7a0e33b407baa23d8a077e33033c988 -->
<g id="edge22" class="edge">
<title>dir_d739e095b49d8b72164589d00310017d&#45;&gt;dir_b7a0e33b407baa23d8a077e33033c988</title>
<path fill="none" stroke="#000000" d="M220.3236,-340.4133C222.8882,-348.1442 225.262,-357.3097 226.9597,-365.8545"/>
<polygon fill="#000000" stroke="#000000" points="223.5299,-366.5628 228.6626,-375.8314 230.4301,-365.385 223.5299,-366.5628"/>
<g id="a_edge22&#45;headlabel"><a xlink:href="dir_000033_000072.html" target="_top" xlink:title="13">
<text text-anchor="middle" x="220.1263" y="-360.9972" font-family="Helvetica,sans-Serif" font-size="10.00" fill="#000000">13</text>
</a>
</g>
</g>
<!-- dir_3c3c25df5132fca4f15a988b4c2efab5&#45;&gt;dir_a36da230f0956f48b11c85f7d599788f -->
<g id="edge9" class="edge">
<title>dir_3c3c25df5132fca4f15a988b4c2efab5&#45;&gt;dir_a36da230f0956f48b11c85f7d599788f</title>
<path fill="none" stroke="#000000" d="M280.4142,-231.7623C271.4667,-206.9846 255.3924,-162.4714 244.9645,-133.5939"/>
<polygon fill="#000000" stroke="#000000" points="248.2208,-132.3064 241.5324,-124.0896 241.6369,-134.6839 248.2208,-132.3064"/>
<g id="a_edge9&#45;headlabel"><a xlink:href="dir_000040_000006.html" target="_top" xlink:title="7">
<text text-anchor="middle" x="252.1121" y="-132.223" font-family="Helvetica,sans-Serif" font-size="10.00" fill="#000000">7</text>
</a>
</g>
</g>
<!-- dir_758aa030403a70af025108ac41d12d0d&#45;&gt;dir_a36da230f0956f48b11c85f7d599788f -->
<g id="edge15" class="edge">
<title>dir_758aa030403a70af025108ac41d12d0d&#45;&gt;dir_a36da230f0956f48b11c85f7d599788f</title>
<path fill="none" stroke="#000000" d="M93.5536,-447.7226C86.7521,-406.9911 74.8869,-306.4939 107,-232 117.5137,-207.611 170.7095,-159.8908 205.1305,-130.6875"/>
<polygon fill="#000000" stroke="#000000" points="207.6241,-133.1631 213.0153,-124.0425 203.1131,-127.8105 207.6241,-133.1631"/>
<g id="a_edge15&#45;headlabel"><a xlink:href="dir_000041_000006.html" target="_top" xlink:title="35">
<text text-anchor="middle" x="206.7052" y="-135.1506" font-family="Helvetica,sans-Serif" font-size="10.00" fill="#000000">35</text>
</a>
</g>
</g>
<!-- dir_758aa030403a70af025108ac41d12d0d&#45;&gt;dir_fc0178d6978c9fa2cad6ef3e048a60a7 -->
<g id="edge13" class="edge">
<title>dir_758aa030403a70af025108ac41d12d0d&#45;&gt;dir_fc0178d6978c9fa2cad6ef3e048a60a7</title>
<path fill="none" stroke="#000000" d="M78.8468,-447.7859C55.2434,-422.0803 17,-372.6202 17,-322 17,-322 17,-322 17,-178 17,-92.2813 135.7971,-54.6464 197.999,-40.8159"/>
<polygon fill="#000000" stroke="#000000" points="198.7787,-44.2284 207.8309,-38.7232 197.3214,-37.3818 198.7787,-44.2284"/>
<g id="a_edge13&#45;headlabel"><a xlink:href="dir_000041_000007.html" target="_top" xlink:title="3">
<text text-anchor="middle" x="195.8539" y="-45.2538" font-family="Helvetica,sans-Serif" font-size="10.00" fill="#000000">3</text>
</a>
</g>
</g>
<!-- dir_758aa030403a70af025108ac41d12d0d&#45;&gt;dir_39b8b3c6654246a9c12332c930bc7d3f -->
<g id="edge12" class="edge">
<title>dir_758aa030403a70af025108ac41d12d0d&#45;&gt;dir_39b8b3c6654246a9c12332c930bc7d3f</title>
<path fill="none" stroke="#000000" d="M100.8349,-447.9553C107.272,-417.9678 120.8417,-356.0212 134,-304 136.1373,-295.5502 138.6155,-286.402 140.9342,-278.0789"/>
<polygon fill="#000000" stroke="#000000" points="144.3074,-279.0124 143.65,-268.4379 137.5697,-277.1143 144.3074,-279.0124"/>
<g id="a_edge12&#45;headlabel"><a xlink:href="dir_000041_000048.html" target="_top" xlink:title="6">
<text text-anchor="middle" x="146.0658" y="-280.7421" font-family="Helvetica,sans-Serif" font-size="10.00" fill="#000000">6</text>
</a>
</g>
</g>
<!-- dir_758aa030403a70af025108ac41d12d0d&#45;&gt;dir_c86b501450b8b8b59405c286cb030cc3 -->
<g id="edge14" class="edge">
<title>dir_758aa030403a70af025108ac41d12d0d&#45;&gt;dir_c86b501450b8b8b59405c286cb030cc3</title>
<path fill="none" stroke="#000000" d="M86.112,-447.7133C80.7071,-437.5709 74.7555,-424.5105 72,-412 54.7923,-333.8726 56.0024,-310.3842 72,-232 73.8161,-223.1016 77.1554,-213.8541 80.7371,-205.5789"/>
<polygon fill="#000000" stroke="#000000" points="83.9651,-206.937 84.9765,-196.3906 77.6089,-204.0044 83.9651,-206.937"/>
<g id="a_edge14&#45;headlabel"><a xlink:href="dir_000041_000068.html" target="_top" xlink:title="1">
<text text-anchor="middle" x="85.0373" y="-208.8904" font-family="Helvetica,sans-Serif" font-size="10.00" fill="#000000">1</text>
</a>
</g>
</g>
<!-- dir_758aa030403a70af025108ac41d12d0d&#45;&gt;dir_b7a0e33b407baa23d8a077e33033c988 -->
<g id="edge16" class="edge">
<title>dir_758aa030403a70af025108ac41d12d0d&#45;&gt;dir_b7a0e33b407baa23d8a077e33033c988</title>
<path fill="none" stroke="#000000" d="M129.8045,-447.8314C147.7745,-437.8788 170.1366,-425.4936 188.8794,-415.1129"/>
<polygon fill="#000000" stroke="#000000" points="190.7024,-418.1043 197.7546,-410.1975 187.3109,-411.9807 190.7024,-418.1043"/>
<g id="a_edge16&#45;headlabel"><a xlink:href="dir_000041_000072.html" target="_top" xlink:title="23">
<text text-anchor="middle" x="188.9335" y="-419.8296" font-family="Helvetica,sans-Serif" font-size="10.00" fill="#000000">23</text>
</a>
</g>
</g>
<!-- dir_fc0178d6978c9fa2cad6ef3e048a60a7&#45;&gt;dir_a36da230f0956f48b11c85f7d599788f -->
<g id="edge8" class="edge">
<title>dir_fc0178d6978c9fa2cad6ef3e048a60a7&#45;&gt;dir_a36da230f0956f48b11c85f7d599788f</title>
<path fill="none" stroke="#000000" d="M240.976,-52.4133C241.7071,-60.0593 241.9203,-69.1084 241.6155,-77.5726"/>
<polygon fill="#000000" stroke="#000000" points="238.1048,-77.6264 240.9524,-87.8314 245.0902,-78.078 238.1048,-77.6264"/>
<g id="a_edge8&#45;headlabel"><a xlink:href="dir_000007_000006.html" target="_top" xlink:title="57">
<text text-anchor="middle" x="235.5032" y="-71.3562" font-family="Helvetica,sans-Serif" font-size="10.00" fill="#000000">57</text>
</a>
</g>
</g>
<!-- dir_39b8b3c6654246a9c12332c930bc7d3f&#45;&gt;dir_a36da230f0956f48b11c85f7d599788f -->
<g id="edge5" class="edge">
<title>dir_39b8b3c6654246a9c12332c930bc7d3f&#45;&gt;dir_a36da230f0956f48b11c85f7d599788f</title>
<path fill="none" stroke="#000000" d="M159.892,-231.7623C174.819,-206.7682 201.7393,-161.6924 218.97,-132.8409"/>
<polygon fill="#000000" stroke="#000000" points="222.0739,-134.4697 224.1965,-124.0896 216.0641,-130.8805 222.0739,-134.4697"/>
<g id="a_edge5&#45;headlabel"><a xlink:href="dir_000048_000006.html" target="_top" xlink:title="217">
<text text-anchor="middle" x="222.6685" y="-136.5116" font-family="Helvetica,sans-Serif" font-size="10.00" fill="#000000">217</text>
</a>
</g>
</g>
<!-- dir_39b8b3c6654246a9c12332c930bc7d3f&#45;&gt;dir_d739e095b49d8b72164589d00310017d -->
<g id="edge6" class="edge">
<title>dir_39b8b3c6654246a9c12332c930bc7d3f&#45;&gt;dir_d739e095b49d8b72164589d00310017d</title>
<path fill="none" stroke="#000000" d="M170.5761,-268.4133C178.4259,-276.7389 187.071,-286.7282 194.3369,-295.8144"/>
<polygon fill="#000000" stroke="#000000" points="191.6631,-298.0778 200.5595,-303.8314 197.1928,-293.7857 191.6631,-298.0778"/>
<g id="a_edge6&#45;headlabel"><a xlink:href="dir_000048_000033.html" target="_top" xlink:title="27">
<text text-anchor="middle" x="187.2161" y="-294.4791" font-family="Helvetica,sans-Serif" font-size="10.00" fill="#000000">27</text>
</a>
</g>
</g>
<!-- dir_39b8b3c6654246a9c12332c930bc7d3f&#45;&gt;dir_fc0178d6978c9fa2cad6ef3e048a60a7 -->
<g id="edge3" class="edge">
<title>dir_39b8b3c6654246a9c12332c930bc7d3f&#45;&gt;dir_fc0178d6978c9fa2cad6ef3e048a60a7</title>
<path fill="none" stroke="#000000" d="M148.2894,-231.7534C147.8514,-200.3945 150.4239,-135.1093 176,-88 182.0041,-76.9409 191.1511,-66.9445 200.4633,-58.6443"/>
<polygon fill="#000000" stroke="#000000" points="202.8606,-61.2014 208.259,-52.085 198.3539,-55.8451 202.8606,-61.2014"/>
<g id="a_edge3&#45;headlabel"><a xlink:href="dir_000048_000007.html" target="_top" xlink:title="32">
<text text-anchor="middle" x="201.938" y="-63.1882" font-family="Helvetica,sans-Serif" font-size="10.00" fill="#000000">32</text>
</a>
</g>
</g>
<!-- dir_39b8b3c6654246a9c12332c930bc7d3f&#45;&gt;dir_c86b501450b8b8b59405c286cb030cc3 -->
<g id="edge4" class="edge">
<title>dir_39b8b3c6654246a9c12332c930bc7d3f&#45;&gt;dir_c86b501450b8b8b59405c286cb030cc3</title>
<path fill="none" stroke="#000000" d="M135.3735,-231.8314C129.154,-223.5386 121.6678,-213.557 114.84,-204.4533"/>
<polygon fill="#000000" stroke="#000000" points="117.61,-202.3133 108.81,-196.4133 112.01,-206.5133 117.61,-202.3133"/>
<g id="a_edge4&#45;headlabel"><a xlink:href="dir_000048_000068.html" target="_top" xlink:title="25">
<text text-anchor="middle" x="122.0381" y="-200.9854" font-family="Helvetica,sans-Serif" font-size="10.00" fill="#000000">25</text>
</a>
</g>
</g>
<!-- dir_39b8b3c6654246a9c12332c930bc7d3f&#45;&gt;dir_b7a0e33b407baa23d8a077e33033c988 -->
<g id="edge7" class="edge">
<title>dir_39b8b3c6654246a9c12332c930bc7d3f&#45;&gt;dir_b7a0e33b407baa23d8a077e33033c988</title>
<path fill="none" stroke="#000000" d="M156.546,-268.0382C160.4748,-287.0615 165.039,-317.3571 178,-340 184.1849,-350.805 193.2444,-360.7186 201.976,-369.0209"/>
<polygon fill="#000000" stroke="#000000" points="199.7418,-371.7205 209.4843,-375.8839 204.4646,-366.5537 199.7418,-371.7205"/>
<g id="a_edge7&#45;headlabel"><a xlink:href="dir_000048_000072.html" target="_top" xlink:title="32">
<text text-anchor="middle" x="195.173" y="-368.891" font-family="Helvetica,sans-Serif" font-size="10.00" fill="#000000">32</text>
</a>
</g>
</g>
<!-- dir_0897ed8fd6dd400fbb3f13ca4cf30fd4 -->
<g id="node11" class="node">
<title>dir_0897ed8fd6dd400fbb3f13ca4cf30fd4</title>
<g id="a_node11"><a xlink:href="dir_0897ed8fd6dd400fbb3f13ca4cf30fd4.html" target="_top" xlink:title="perception">
<polygon fill="#ffffff" stroke="#000000" points="414,-484 346,-484 346,-448 414,-448 414,-484"/>
<text text-anchor="middle" x="380" y="-463.5" font-family="Helvetica,sans-Serif" font-size="10.00" fill="#000000">perception</text>
</a>
</g>
</g>
<!-- dir_0897ed8fd6dd400fbb3f13ca4cf30fd4&#45;&gt;dir_a36da230f0956f48b11c85f7d599788f -->
<g id="edge24" class="edge">
<title>dir_0897ed8fd6dd400fbb3f13ca4cf30fd4&#45;&gt;dir_a36da230f0956f48b11c85f7d599788f</title>
<path fill="none" stroke="#000000" d="M382.6936,-447.862C386.5014,-420.6061 393,-367.434 393,-322 393,-322 393,-322 393,-250 393,-207.0818 387.6915,-190.9902 358,-160 335.5389,-136.5564 301.1324,-122.6412 274.4149,-114.824"/>
<polygon fill="#000000" stroke="#000000" points="275.1629,-111.3998 264.5925,-112.1194 273.3046,-118.1486 275.1629,-111.3998"/>
<g id="a_edge24&#45;headlabel"><a xlink:href="dir_000067_000006.html" target="_top" xlink:title="4">
<text text-anchor="middle" x="279.3823" y="-107.1166" font-family="Helvetica,sans-Serif" font-size="10.00" fill="#000000">4</text>
</a>
</g>
</g>
<!-- dir_0897ed8fd6dd400fbb3f13ca4cf30fd4&#45;&gt;dir_fc0178d6978c9fa2cad6ef3e048a60a7 -->
<g id="edge23" class="edge">
<title>dir_0897ed8fd6dd400fbb3f13ca4cf30fd4&#45;&gt;dir_fc0178d6978c9fa2cad6ef3e048a60a7</title>
<path fill="none" stroke="#000000" d="M386.9985,-447.6679C396.6853,-420.6028 413,-368.1665 413,-322 413,-322 413,-322 413,-178 413,-105.9293 323.7096,-63.7132 271.6103,-45.215"/>
<polygon fill="#000000" stroke="#000000" points="272.629,-41.8643 262.0344,-41.9323 270.359,-48.4861 272.629,-41.8643"/>
<g id="a_edge23&#45;headlabel"><a xlink:href="dir_000067_000007.html" target="_top" xlink:title="1">
<text text-anchor="middle" x="276.95" y="-37.8441" font-family="Helvetica,sans-Serif" font-size="10.00" fill="#000000">1</text>
</a>
</g>
</g>
<!-- dir_0897ed8fd6dd400fbb3f13ca4cf30fd4&#45;&gt;dir_b7a0e33b407baa23d8a077e33033c988 -->
<g id="edge25" class="edge">
<title>dir_0897ed8fd6dd400fbb3f13ca4cf30fd4&#45;&gt;dir_b7a0e33b407baa23d8a077e33033c988</title>
<path fill="none" stroke="#000000" d="M345.6638,-449.8418C321.7579,-438.592 289.8633,-423.5827 265.1612,-411.9582"/>
<polygon fill="#000000" stroke="#000000" points="266.6162,-408.7748 256.0777,-407.6836 263.6355,-415.1085 266.6162,-408.7748"/>
<g id="a_edge25&#45;headlabel"><a xlink:href="dir_000067_000072.html" target="_top" xlink:title="5">
<text text-anchor="middle" x="271.0776" y="-405.2363" font-family="Helvetica,sans-Serif" font-size="10.00" fill="#000000">5</text>
</a>
</g>
</g>
<!-- dir_c86b501450b8b8b59405c286cb030cc3&#45;&gt;dir_a36da230f0956f48b11c85f7d599788f -->
<g id="edge11" class="edge">
<title>dir_c86b501450b8b8b59405c286cb030cc3&#45;&gt;dir_a36da230f0956f48b11c85f7d599788f</title>
<path fill="none" stroke="#000000" d="M122.3258,-163.9468C143.4008,-153.1082 172.8211,-137.9777 196.3141,-125.8956"/>
<polygon fill="#000000" stroke="#000000" points="198.0308,-128.9485 205.323,-121.2625 194.8294,-122.7235 198.0308,-128.9485"/>
<g id="a_edge11&#45;headlabel"><a xlink:href="dir_000068_000006.html" target="_top" xlink:title="80">
<text text-anchor="middle" x="196.1327" y="-130.6174" font-family="Helvetica,sans-Serif" font-size="10.00" fill="#000000">80</text>
</a>
</g>
</g>
<!-- dir_c86b501450b8b8b59405c286cb030cc3&#45;&gt;dir_fc0178d6978c9fa2cad6ef3e048a60a7 -->
<g id="edge10" class="edge">
<title>dir_c86b501450b8b8b59405c286cb030cc3&#45;&gt;dir_fc0178d6978c9fa2cad6ef3e048a60a7</title>
<path fill="none" stroke="#000000" d="M99.5428,-159.8301C105.2468,-140.1324 116.7001,-108.7395 136,-88 153.1557,-69.5645 178.0653,-56.0221 198.6055,-47.1099"/>
<polygon fill="#000000" stroke="#000000" points="200.0886,-50.284 207.9875,-43.223 197.4093,-43.8171 200.0886,-50.284"/>
<g id="a_edge10&#45;headlabel"><a xlink:href="dir_000068_000007.html" target="_top" xlink:title="2">
<text text-anchor="middle" x="197.8544" y="-51.7829" font-family="Helvetica,sans-Serif" font-size="10.00" fill="#000000">2</text>
</a>
</g>
</g>
<!-- dir_b7a0e33b407baa23d8a077e33033c988&#45;&gt;dir_a36da230f0956f48b11c85f7d599788f -->
<g id="edge38" class="edge">
<title>dir_b7a0e33b407baa23d8a077e33033c988&#45;&gt;dir_a36da230f0956f48b11c85f7d599788f</title>
<path fill="none" stroke="#000000" d="M237.4559,-375.6605C242.6458,-365.5026 248.3591,-352.4443 251,-340 255.1592,-320.4007 243.466,-192.6275 237.837,-134.5953"/>
<polygon fill="#000000" stroke="#000000" points="241.2862,-133.9038 236.8301,-124.2917 234.3194,-134.5847 241.2862,-133.9038"/>
<g id="a_edge38&#45;headlabel"><a xlink:href="dir_000072_000006.html" target="_top" xlink:title="370">
<text text-anchor="middle" x="244.4616" y="-134.7053" font-family="Helvetica,sans-Serif" font-size="10.00" fill="#000000">370</text>
</a>
</g>
</g>
<!-- dir_b7a0e33b407baa23d8a077e33033c988&#45;&gt;dir_d739e095b49d8b72164589d00310017d -->
<g id="edge39" class="edge">
<title>dir_b7a0e33b407baa23d8a077e33033c988&#45;&gt;dir_d739e095b49d8b72164589d00310017d</title>
<path fill="none" stroke="#000000" d="M216.7578,-375.8314C214.1892,-368.131 211.8063,-358.9743 210.0944,-350.4166"/>
<polygon fill="#000000" stroke="#000000" points="213.5181,-349.6741 208.3716,-340.4133 206.6197,-350.8623 213.5181,-349.6741"/>
<g id="a_edge39&#45;headlabel"><a xlink:href="dir_000072_000033.html" target="_top" xlink:title="6">
<text text-anchor="middle" x="216.9262" y="-350.2347" font-family="Helvetica,sans-Serif" font-size="10.00" fill="#000000">6</text>
</a>
</g>
</g>
<!-- dir_b7a0e33b407baa23d8a077e33033c988&#45;&gt;dir_3c3c25df5132fca4f15a988b4c2efab5 -->
<g id="edge36" class="edge">
<title>dir_b7a0e33b407baa23d8a077e33033c988&#45;&gt;dir_3c3c25df5132fca4f15a988b4c2efab5</title>
<path fill="none" stroke="#000000" d="M243.0636,-375.6567C251.021,-365.7056 260.1525,-352.8397 266,-340 274.95,-320.3482 280.2936,-296.4844 283.3492,-278.2688"/>
<polygon fill="#000000" stroke="#000000" points="286.8258,-278.6882 284.8938,-268.271 279.9079,-277.6193 286.8258,-278.6882"/>
<g id="a_edge36&#45;headlabel"><a xlink:href="dir_000072_000040.html" target="_top" xlink:title="4">
<text text-anchor="middle" x="289.0831" y="-280.1741" font-family="Helvetica,sans-Serif" font-size="10.00" fill="#000000">4</text>
</a>
</g>
</g>
<!-- dir_b7a0e33b407baa23d8a077e33033c988&#45;&gt;dir_fc0178d6978c9fa2cad6ef3e048a60a7 -->
<g id="edge35" class="edge">
<title>dir_b7a0e33b407baa23d8a077e33033c988&#45;&gt;dir_fc0178d6978c9fa2cad6ef3e048a60a7</title>
<path fill="none" stroke="#000000" d="M245.4464,-375.735C255.2811,-365.599 267.3147,-352.5378 277,-340 319.4908,-284.995 330.8745,-265.1393 338,-196 339.6403,-180.0843 343.3757,-175.0699 338,-160 323.4612,-119.243 289.4525,-82.1548 264.474,-58.9334"/>
<polygon fill="#000000" stroke="#000000" points="266.7988,-56.3168 257.0436,-52.1833 262.0919,-61.4981 266.7988,-56.3168"/>
<g id="a_edge35&#45;headlabel"><a xlink:href="dir_000072_000007.html" target="_top" xlink:title="11">
<text text-anchor="middle" x="271.3686" y="-54.1323" font-family="Helvetica,sans-Serif" font-size="10.00" fill="#000000">11</text>
</a>
</g>
</g>
<!-- dir_b7a0e33b407baa23d8a077e33033c988&#45;&gt;dir_39b8b3c6654246a9c12332c930bc7d3f -->
<g id="edge34" class="edge">
<title>dir_b7a0e33b407baa23d8a077e33033c988&#45;&gt;dir_39b8b3c6654246a9c12332c930bc7d3f</title>
<path fill="none" stroke="#000000" d="M197.9428,-379.3589C184.1603,-369.6256 169.0218,-355.7612 160,-340 149.1654,-321.0719 144.1985,-296.7963 143.2794,-278.2279"/>
<polygon fill="#000000" stroke="#000000" points="146.7778,-278.0079 143.1923,-268.0382 139.778,-278.0678 146.7778,-278.0079"/>
<g id="a_edge34&#45;headlabel"><a xlink:href="dir_000072_000048.html" target="_top" xlink:title="10">
<text text-anchor="middle" x="149.6476" y="-279.0781" font-family="Helvetica,sans-Serif" font-size="10.00" fill="#000000">10</text>
</a>
</g>
</g>
<!-- dir_b7a0e33b407baa23d8a077e33033c988&#45;&gt;dir_c86b501450b8b8b59405c286cb030cc3 -->
<g id="edge37" class="edge">
<title>dir_b7a0e33b407baa23d8a077e33033c988&#45;&gt;dir_c86b501450b8b8b59405c286cb030cc3</title>
<path fill="none" stroke="#000000" d="M197.7725,-377.2055C182.6573,-367.5907 164.5821,-354.5562 151,-340 125.4152,-312.5803 119.526,-303.3485 107,-268 99.9471,-248.0967 96.9896,-224.3799 95.7727,-206.2905"/>
<polygon fill="#000000" stroke="#000000" points="99.2569,-205.8999 95.2291,-196.1005 92.2669,-206.2728 99.2569,-205.8999"/>
<g id="a_edge37&#45;headlabel"><a xlink:href="dir_000072_000068.html" target="_top" xlink:title="6">
<text text-anchor="middle" x="102.2836" y="-206.8382" font-family="Helvetica,sans-Serif" font-size="10.00" fill="#000000">6</text>
</a>
</g>
</g>
</g>
</svg>
        <g id="navigator" transform="translate(0 0)" fill="#404254">
                <rect fill="#f2f5e9" fill-opacity="0.5" stroke="#606060" stroke-width=".5" x="0" y="0" width="60" height="60"/>
                <use id="zoomplus" xlink:href="#zoomPlus" x="17" y="9" onmousedown="handleZoom(evt,'in')"/>
                <use id="zoomminus" xlink:href="#zoomMin" x="42" y="9" onmousedown="handleZoom(evt,'out')"/>
                <use id="reset" xlink:href="#resetDef" x="30" y="36" onmousedown="handleReset()"/>
                <g id="arrowUp" xlink:href="#dirArrow" transform="translate(30 24)" onmousedown="handlePan(0,-1)">
                  <use xlink:href="#rim" fill="#404040">
                        <set attributeName="fill" to="#808080" begin="arrowUp.mouseover" end="arrowUp.mouseout"/>
                  </use>
                  <path fill="none" stroke="white" stroke-width="1.5" d="M0,-3.0v7 M-2.5,-0.5L0,-3.0L2.5,-0.5"/>
                </g>
                <g id="arrowRight" xlink:href="#dirArrow" transform="rotate(90) translate(36 -43)" onmousedown="handlePan(1,0)">
                  <use xlink:href="#rim" fill="#404040">
                        <set attributeName="fill" to="#808080" begin="arrowRight.mouseover" end="arrowRight.mouseout"/>
                  </use>
                  <path fill="none" stroke="white" stroke-width="1.5" d="M0,-3.0v7 M-2.5,-0.5L0,-3.0L2.5,-0.5"/>
                </g>
                <g id="arrowDown" xlink:href="#dirArrow" transform="rotate(180) translate(-30 -48)" onmousedown="handlePan(0,1)">
                  <use xlink:href="#rim" fill="#404040">
                        <set attributeName="fill" to="#808080" begin="arrowDown.mouseover" end="arrowDown.mouseout"/>
                  </use>
                  <path fill="none" stroke="white" stroke-width="1.5" d="M0,-3.0v7 M-2.5,-0.5L0,-3.0L2.5,-0.5"/>
                </g>
                <g id="arrowLeft" xlink:href="#dirArrow" transform="rotate(270) translate(-36 17)" onmousedown="handlePan(-1,0)">
                  <use xlink:href="#rim" fill="#404040">
                        <set attributeName="fill" to="#808080" begin="arrowLeft.mouseover" end="arrowLeft.mouseout"/>
                  </use>
                  <path fill="none" stroke="white" stroke-width="1.5" d="M0,-3.0v7 M-2.5,-0.5L0,-3.0L2.5,-0.5"/>
                </g>
        </g>
        <svg viewBox="0 0 15 15" width="100%" height="30px" preserveAspectRatio="xMaxYMin meet">
         <g id="arrow_out" transform="scale(0.3 0.3)">
          <a xlink:href="dir_f1666844dc41ec91c14125b680b7be1b_dep_org.svg" target="_base">
           <rect id="button" ry="5" rx="5" y="6" x="6" height="38" width="38"
                fill="#f2f5e9" fill-opacity="0.5" stroke="#606060" stroke-width="1.0"/>
           <path id="arrow"
             d="M 11.500037,31.436501 C 11.940474,20.09759 22.043105,11.32322 32.158766,21.979434 L 37.068811,17.246167 C 37.068811,17.246167 37.088388,32 37.088388,32 L 22.160133,31.978069 C 22.160133,31.978069 26.997745,27.140456 26.997745,27.140456 C 18.528582,18.264221 13.291696,25.230495 11.500037,31.436501 z"
             style="fill:#404040;"/>
          </a>
         </g>
        </svg>
</svg>
