<?xml version="1.0" encoding="UTF-8" standalone="no"?>
<!DOCTYPE svg PUBLIC "-//W3C//DTD SVG 1.1//EN"
 "http://www.w3.org/Graphics/SVG/1.1/DTD/svg11.dtd">
<!-- Generated by graphviz version 2.40.1 (20161225.0304)
 -->
<!-- Title: drake/examples/mass_spring_cloth Pages: 1 -->
<svg width="146pt" height="295pt"
 viewBox="0.00 0.00 146.00 295.00" xmlns="http://www.w3.org/2000/svg" xmlns:xlink="http://www.w3.org/1999/xlink">
<g id="graph0" class="graph" transform="scale(1 1) rotate(0) translate(4 291)">
<title>drake/examples/mass_spring_cloth</title>
<polygon fill="#ffffff" stroke="transparent" points="-4,4 -4,-291 142,-291 142,4 -4,4"/>
<g id="clust1" class="cluster">
<title>clusterdir_bf85a0c13984f214f436b2edc519c6dd</title>
<g id="a_clust1"><a xlink:href="dir_bf85a0c13984f214f436b2edc519c6dd.html" target="_top" xlink:title="examples">
<polygon fill="#ddddee" stroke="#000000" points="8,-208 8,-279 130,-279 130,-208 8,-208"/>
<text text-anchor="middle" x="69" y="-267" font-family="Helvetica,sans-Serif" font-size="10.00" fill="#000000">examples</text>
</a>
</g>
</g>
<!-- dir_1cfb1308721b0b1c7dbbf4fcf7c61022 -->
<g id="node1" class="node">
<title>dir_1cfb1308721b0b1c7dbbf4fcf7c61022</title>
<g id="a_node1"><a xlink:href="dir_1cfb1308721b0b1c7dbbf4fcf7c61022.html" target="_top" xlink:title="mass_spring_cloth">
<polygon fill="#eeeeff" stroke="#000000" points="122.5,-252 15.5,-252 15.5,-216 122.5,-216 122.5,-252"/>
<text text-anchor="middle" x="69" y="-231.5" font-family="Helvetica,sans-Serif" font-size="10.00" fill="#000000">mass_spring_cloth</text>
</a>
</g>
</g>
<!-- dir_a36da230f0956f48b11c85f7d599788f -->
<g id="node2" class="node">
<title>dir_a36da230f0956f48b11c85f7d599788f</title>
<g id="a_node2"><a xlink:href="dir_a36da230f0956f48b11c85f7d599788f.html" target="_top" xlink:title="common">
<polygon fill="#ffffff" stroke="#ff0000" points="76.5,-36 17.5,-36 17.5,0 76.5,0 76.5,-36"/>
<text text-anchor="middle" x="47" y="-15.5" font-family="Helvetica,sans-Serif" font-size="10.00" fill="#000000">common</text>
</a>
</g>
</g>
<!-- dir_1cfb1308721b0b1c7dbbf4fcf7c61022&#45;&gt;dir_a36da230f0956f48b11c85f7d599788f -->
<g id="edge3" class="edge">
<title>dir_1cfb1308721b0b1c7dbbf4fcf7c61022&#45;&gt;dir_a36da230f0956f48b11c85f7d599788f</title>
<path fill="none" stroke="#000000" d="M50.396,-215.8067C41.7967,-206.0891 32.5063,-193.3872 28,-180 12.7561,-134.7139 25.8624,-78.7449 36.5686,-45.8508"/>
<polygon fill="#000000" stroke="#000000" points="40.0046,-46.619 39.9213,-36.0245 33.3796,-44.3585 40.0046,-46.619"/>
<g id="a_edge3&#45;headlabel"><a xlink:href="dir_000022_000006.html" target="_top" xlink:title="2">
<text text-anchor="middle" x="41.531" y="-48.4379" font-family="Helvetica,sans-Serif" font-size="10.00" fill="#000000">2</text>
</a>
</g>
</g>
<!-- dir_d739e095b49d8b72164589d00310017d -->
<g id="node3" class="node">
<title>dir_d739e095b49d8b72164589d00310017d</title>
<g id="a_node3"><a xlink:href="dir_d739e095b49d8b72164589d00310017d.html" target="_top" xlink:title="geometry">
<polygon fill="#ffffff" stroke="#ff0000" points="101,-180 37,-180 37,-144 101,-144 101,-180"/>
<text text-anchor="middle" x="69" y="-159.5" font-family="Helvetica,sans-Serif" font-size="10.00" fill="#000000">geometry</text>
</a>
</g>
</g>
<!-- dir_1cfb1308721b0b1c7dbbf4fcf7c61022&#45;&gt;dir_d739e095b49d8b72164589d00310017d -->
<g id="edge4" class="edge">
<title>dir_1cfb1308721b0b1c7dbbf4fcf7c61022&#45;&gt;dir_d739e095b49d8b72164589d00310017d</title>
<path fill="none" stroke="#000000" d="M69,-215.8314C69,-208.131 69,-198.9743 69,-190.4166"/>
<polygon fill="#000000" stroke="#000000" points="72.5001,-190.4132 69,-180.4133 65.5001,-190.4133 72.5001,-190.4132"/>
<g id="a_edge4&#45;headlabel"><a xlink:href="dir_000022_000034.html" target="_top" xlink:title="1">
<text text-anchor="middle" x="75.3393" y="-191.5079" font-family="Helvetica,sans-Serif" font-size="10.00" fill="#000000">1</text>
</a>
</g>
</g>
<!-- dir_b7a0e33b407baa23d8a077e33033c988 -->
<g id="node4" class="node">
<title>dir_b7a0e33b407baa23d8a077e33033c988</title>
<g id="a_node4"><a xlink:href="dir_b7a0e33b407baa23d8a077e33033c988.html" target="_top" xlink:title="systems">
<polygon fill="#ffffff" stroke="#ff0000" points="133,-108 75,-108 75,-72 133,-72 133,-108"/>
<text text-anchor="middle" x="104" y="-87.5" font-family="Helvetica,sans-Serif" font-size="10.00" fill="#000000">systems</text>
</a>
</g>
</g>
<!-- dir_1cfb1308721b0b1c7dbbf4fcf7c61022&#45;&gt;dir_b7a0e33b407baa23d8a077e33033c988 -->
<g id="edge5" class="edge">
<title>dir_1cfb1308721b0b1c7dbbf4fcf7c61022&#45;&gt;dir_b7a0e33b407baa23d8a077e33033c988</title>
<path fill="none" stroke="#000000" d="M87.604,-215.8067C96.2033,-206.0891 105.4937,-193.3872 110,-180 116.7237,-160.0256 114.7194,-136.1784 111.3059,-118.0511"/>
<polygon fill="#000000" stroke="#000000" points="114.6952,-117.1629 109.1885,-108.1116 107.8489,-118.6214 114.6952,-117.1629"/>
<g id="a_edge5&#45;headlabel"><a xlink:href="dir_000022_000073.html" target="_top" xlink:title="3">
<text text-anchor="middle" x="118.2211" y="-117.5871" font-family="Helvetica,sans-Serif" font-size="10.00" fill="#000000">3</text>
</a>
</g>
</g>
<!-- dir_d739e095b49d8b72164589d00310017d&#45;&gt;dir_a36da230f0956f48b11c85f7d599788f -->
<g id="edge1" class="edge">
<title>dir_d739e095b49d8b72164589d00310017d&#45;&gt;dir_a36da230f0956f48b11c85f7d599788f</title>
<path fill="none" stroke="#000000" d="M66.2137,-143.7623C62.4613,-119.201 55.7461,-75.2474 51.3319,-46.3541"/>
<polygon fill="#000000" stroke="#000000" points="54.7339,-45.4463 49.7637,-36.0896 47.8142,-46.5035 54.7339,-45.4463"/>
<g id="a_edge1&#45;headlabel"><a xlink:href="dir_000034_000006.html" target="_top" xlink:title="110">
<text text-anchor="middle" x="58.0834" y="-46.0709" font-family="Helvetica,sans-Serif" font-size="10.00" fill="#000000">110</text>
</a>
</g>
</g>
<!-- dir_d739e095b49d8b72164589d00310017d&#45;&gt;dir_b7a0e33b407baa23d8a077e33033c988 -->
<g id="edge2" class="edge">
<title>dir_d739e095b49d8b72164589d00310017d&#45;&gt;dir_b7a0e33b407baa23d8a077e33033c988</title>
<path fill="none" stroke="#000000" d="M71.8796,-143.8314C75.004,-135.7925 79.4769,-126.1666 84.1618,-117.2918"/>
<polygon fill="#000000" stroke="#000000" points="87.2953,-118.8579 89.0731,-108.4133 81.17,-115.4696 87.2953,-118.8579"/>
<g id="a_edge2&#45;headlabel"><a xlink:href="dir_000034_000073.html" target="_top" xlink:title="13">
<text text-anchor="middle" x="88.0399" y="-120.8776" font-family="Helvetica,sans-Serif" font-size="10.00" fill="#000000">13</text>
</a>
</g>
</g>
<!-- dir_b7a0e33b407baa23d8a077e33033c988&#45;&gt;dir_a36da230f0956f48b11c85f7d599788f -->
<g id="edge6" class="edge">
<title>dir_b7a0e33b407baa23d8a077e33033c988&#45;&gt;dir_a36da230f0956f48b11c85f7d599788f</title>
<path fill="none" stroke="#000000" d="M89.6165,-71.8314C83.0514,-63.5386 75.1493,-53.557 67.9422,-44.4533"/>
<polygon fill="#000000" stroke="#000000" points="70.5284,-42.0813 61.5772,-36.4133 65.0401,-46.4262 70.5284,-42.0813"/>
<g id="a_edge6&#45;headlabel"><a xlink:href="dir_000073_000006.html" target="_top" xlink:title="365">
<text text-anchor="middle" x="74.9857" y="-40.6373" font-family="Helvetica,sans-Serif" font-size="10.00" fill="#000000">365</text>
</a>
</g>
</g>
<!-- dir_b7a0e33b407baa23d8a077e33033c988&#45;&gt;dir_d739e095b49d8b72164589d00310017d -->
<g id="edge7" class="edge">
<title>dir_b7a0e33b407baa23d8a077e33033c988&#45;&gt;dir_d739e095b49d8b72164589d00310017d</title>
<path fill="none" stroke="#000000" d="M101.0251,-108.4133C97.8735,-116.484 93.3849,-126.1182 88.6958,-134.9775"/>
<polygon fill="#000000" stroke="#000000" points="85.5747,-133.3889 83.7844,-143.8314 91.6959,-136.7845 85.5747,-133.3889"/>
<g id="a_edge7&#45;headlabel"><a xlink:href="dir_000073_000034.html" target="_top" xlink:title="6">
<text text-anchor="middle" x="84.8355" y="-126.3682" font-family="Helvetica,sans-Serif" font-size="10.00" fill="#000000">6</text>
</a>
</g>
</g>
</g>
</svg>
