<?xml version="1.0" encoding="UTF-8" standalone="no"?>
<!DOCTYPE svg PUBLIC "-//W3C//DTD SVG 1.1//EN"
 "http://www.w3.org/Graphics/SVG/1.1/DTD/svg11.dtd">
<!-- Generated by graphviz version 2.40.1 (20161225.0304)
 -->
<!-- Title: drake/examples/multibody/cylinder_with_multicontact Pages: 1 -->
<svg width="188pt" height="223pt"
 viewBox="0.00 0.00 188.00 223.00" xmlns="http://www.w3.org/2000/svg" xmlns:xlink="http://www.w3.org/1999/xlink">
<g id="graph0" class="graph" transform="scale(1 1) rotate(0) translate(4 219)">
<title>drake/examples/multibody/cylinder_with_multicontact</title>
<polygon fill="#ffffff" stroke="transparent" points="-4,4 -4,-219 184,-219 184,4 -4,4"/>
<g id="clust1" class="cluster">
<title>clusterdir_9acdd6771460017440c69ee654743722</title>
<g id="a_clust1"><a xlink:href="dir_9acdd6771460017440c69ee654743722.html" target="_top" xlink:title="multibody">
<polygon fill="#ddddee" stroke="#000000" points="8,-136 8,-207 172,-207 172,-136 8,-136"/>
<text text-anchor="middle" x="90" y="-195" font-family="Helvetica,sans-Serif" font-size="10.00" fill="#000000">multibody</text>
</a>
</g>
</g>
<!-- dir_bf625d68bd1475a25d499b8c243d6bcc -->
<g id="node1" class="node">
<title>dir_bf625d68bd1475a25d499b8c243d6bcc</title>
<g id="a_node1"><a xlink:href="dir_bf625d68bd1475a25d499b8c243d6bcc.html" target="_top" xlink:title="cylinder_with_multicontact">
<polygon fill="#eeeeff" stroke="#000000" points="164.5,-180 15.5,-180 15.5,-144 164.5,-144 164.5,-180"/>
<text text-anchor="middle" x="90" y="-159.5" font-family="Helvetica,sans-Serif" font-size="10.00" fill="#000000">cylinder_with_multicontact</text>
</a>
</g>
</g>
<!-- dir_39b8b3c6654246a9c12332c930bc7d3f -->
<g id="node2" class="node">
<title>dir_39b8b3c6654246a9c12332c930bc7d3f</title>
<g id="a_node2"><a xlink:href="dir_39b8b3c6654246a9c12332c930bc7d3f.html" target="_top" xlink:title="multibody">
<polygon fill="#ffffff" stroke="#ff0000" points="92,-108 26,-108 26,-72 92,-72 92,-108"/>
<text text-anchor="middle" x="59" y="-87.5" font-family="Helvetica,sans-Serif" font-size="10.00" fill="#000000">multibody</text>
</a>
</g>
</g>
<!-- dir_bf625d68bd1475a25d499b8c243d6bcc&#45;&gt;dir_39b8b3c6654246a9c12332c930bc7d3f -->
<g id="edge3" class="edge">
<title>dir_bf625d68bd1475a25d499b8c243d6bcc&#45;&gt;dir_39b8b3c6654246a9c12332c930bc7d3f</title>
<path fill="none" stroke="#000000" d="M82.1774,-143.8314C78.7891,-135.9617 74.7459,-126.5712 70.9924,-117.8533"/>
<polygon fill="#000000" stroke="#000000" points="74.0973,-116.214 66.9279,-108.4133 67.6679,-118.9822 74.0973,-116.214"/>
<g id="a_edge3&#45;headlabel"><a xlink:href="dir_000024_000049.html" target="_top" xlink:title="1">
<text text-anchor="middle" x="78.1266" y="-115.8928" font-family="Helvetica,sans-Serif" font-size="10.00" fill="#000000">1</text>
</a>
</g>
</g>
<!-- dir_d739e095b49d8b72164589d00310017d -->
<g id="node3" class="node">
<title>dir_d739e095b49d8b72164589d00310017d</title>
<g id="a_node3"><a xlink:href="dir_d739e095b49d8b72164589d00310017d.html" target="_top" xlink:title="geometry">
<polygon fill="#ffffff" stroke="#ff0000" points="91,-36 27,-36 27,0 91,0 91,-36"/>
<text text-anchor="middle" x="59" y="-15.5" font-family="Helvetica,sans-Serif" font-size="10.00" fill="#000000">geometry</text>
</a>
</g>
</g>
<!-- dir_bf625d68bd1475a25d499b8c243d6bcc&#45;&gt;dir_d739e095b49d8b72164589d00310017d -->
<g id="edge4" class="edge">
<title>dir_bf625d68bd1475a25d499b8c243d6bcc&#45;&gt;dir_d739e095b49d8b72164589d00310017d</title>
<path fill="none" stroke="#000000" d="M96.8181,-143.9202C102.7536,-125.3886 109.2249,-95.9717 101,-72 97.531,-61.8894 91.3101,-52.2137 84.701,-43.9166"/>
<polygon fill="#000000" stroke="#000000" points="87.2008,-41.4539 78.05,-36.1141 81.8735,-45.9949 87.2008,-41.4539"/>
<g id="a_edge4&#45;headlabel"><a xlink:href="dir_000024_000034.html" target="_top" xlink:title="1">
<text text-anchor="middle" x="91.6934" y="-39.8476" font-family="Helvetica,sans-Serif" font-size="10.00" fill="#000000">1</text>
</a>
</g>
</g>
<!-- dir_39b8b3c6654246a9c12332c930bc7d3f&#45;&gt;dir_d739e095b49d8b72164589d00310017d -->
<g id="edge1" class="edge">
<title>dir_39b8b3c6654246a9c12332c930bc7d3f&#45;&gt;dir_d739e095b49d8b72164589d00310017d</title>
<path fill="none" stroke="#000000" d="M53.0476,-71.8314C52.2972,-64.131 52.0763,-54.9743 52.3849,-46.4166"/>
<polygon fill="#000000" stroke="#000000" points="55.8792,-46.6161 53.024,-36.4133 48.8935,-46.1697 55.8792,-46.6161"/>
<g id="a_edge1&#45;headlabel"><a xlink:href="dir_000049_000034.html" target="_top" xlink:title="28">
<text text-anchor="middle" x="58.4836" y="-47.8844" font-family="Helvetica,sans-Serif" font-size="10.00" fill="#000000">28</text>
</a>
</g>
</g>
<!-- dir_d739e095b49d8b72164589d00310017d&#45;&gt;dir_39b8b3c6654246a9c12332c930bc7d3f -->
<g id="edge2" class="edge">
<title>dir_d739e095b49d8b72164589d00310017d&#45;&gt;dir_39b8b3c6654246a9c12332c930bc7d3f</title>
<path fill="none" stroke="#000000" d="M64.976,-36.4133C65.7071,-44.0593 65.9203,-53.1084 65.6155,-61.5726"/>
<polygon fill="#000000" stroke="#000000" points="62.1048,-61.6264 64.9524,-71.8314 69.0902,-62.078 62.1048,-61.6264"/>
<g id="a_edge2&#45;headlabel"><a xlink:href="dir_000034_000049.html" target="_top" xlink:title="1">
<text text-anchor="middle" x="59.5032" y="-55.3562" font-family="Helvetica,sans-Serif" font-size="10.00" fill="#000000">1</text>
</a>
</g>
</g>
</g>
</svg>
