<?xml version="1.0" encoding="UTF-8" standalone="no"?>
<!DOCTYPE svg PUBLIC "-//W3C//DTD SVG 1.1//EN"
 "http://www.w3.org/Graphics/SVG/1.1/DTD/svg11.dtd">
<!-- Generated by graphviz version 2.40.1 (20161225.0304)
 -->
<!-- Title: drake/geometry/proximity Pages: 1 -->
<svg width="190pt" height="223pt"
 viewBox="0.00 0.00 189.50 223.00" xmlns="http://www.w3.org/2000/svg" xmlns:xlink="http://www.w3.org/1999/xlink">
<g id="graph0" class="graph" transform="scale(1 1) rotate(0) translate(4 219)">
<title>drake/geometry/proximity</title>
<polygon fill="#ffffff" stroke="transparent" points="-4,4 -4,-219 185.5,-219 185.5,4 -4,4"/>
<g id="clust1" class="cluster">
<title>clusterdir_d739e095b49d8b72164589d00310017d</title>
<g id="a_clust1"><a xlink:href="dir_d739e095b49d8b72164589d00310017d.html" target="_top" xlink:title="geometry">
<polygon fill="#ddddee" stroke="#000000" points="8,-136 8,-207 88,-207 88,-136 8,-136"/>
<text text-anchor="middle" x="48" y="-195" font-family="Helvetica,sans-Serif" font-size="10.00" fill="#000000">geometry</text>
</a>
</g>
</g>
<!-- dir_ffd084df0f71d68f8337a7d6f3dcd2dc -->
<g id="node1" class="node">
<title>dir_ffd084df0f71d68f8337a7d6f3dcd2dc</title>
<g id="a_node1"><a xlink:href="dir_ffd084df0f71d68f8337a7d6f3dcd2dc.html" target="_top" xlink:title="proximity">
<polygon fill="#eeeeff" stroke="#000000" points="80,-180 16,-180 16,-144 80,-144 80,-180"/>
<text text-anchor="middle" x="48" y="-159.5" font-family="Helvetica,sans-Serif" font-size="10.00" fill="#000000">proximity</text>
</a>
</g>
</g>
<!-- dir_3ff34c62de56b2df4097a6c50ce2d7ff -->
<g id="node2" class="node">
<title>dir_3ff34c62de56b2df4097a6c50ce2d7ff</title>
<g id="a_node2"><a xlink:href="dir_3ff34c62de56b2df4097a6c50ce2d7ff.html" target="_top" xlink:title="query_results">
<polygon fill="none" stroke="#000000" points="181.5,-180 98.5,-180 98.5,-144 181.5,-144 181.5,-180"/>
<text text-anchor="middle" x="140" y="-159.5" font-family="Helvetica,sans-Serif" font-size="10.00" fill="#000000">query_results</text>
</a>
</g>
</g>
<!-- dir_ffd084df0f71d68f8337a7d6f3dcd2dc&#45;&gt;dir_3ff34c62de56b2df4097a6c50ce2d7ff -->
<g id="edge6" class="edge">
<title>dir_ffd084df0f71d68f8337a7d6f3dcd2dc&#45;&gt;dir_3ff34c62de56b2df4097a6c50ce2d7ff</title>
<path fill="none" stroke="#000000" d="M80.3438,-162C82.8343,-162 85.3248,-162 87.8153,-162"/>
<polygon fill="#000000" stroke="#000000" points="88.0542,-165.5001 98.0542,-162 88.0542,-158.5001 88.0542,-165.5001"/>
<g id="a_edge6&#45;headlabel"><a xlink:href="dir_000036_000037.html" target="_top" xlink:title="8">
<text text-anchor="middle" x="84.4596" y="-165.8393" font-family="Helvetica,sans-Serif" font-size="10.00" fill="#000000">8</text>
</a>
</g>
</g>
<!-- dir_fc0178d6978c9fa2cad6ef3e048a60a7 -->
<g id="node3" class="node">
<title>dir_fc0178d6978c9fa2cad6ef3e048a60a7</title>
<g id="a_node3"><a xlink:href="dir_fc0178d6978c9fa2cad6ef3e048a60a7.html" target="_top" xlink:title="math">
<polygon fill="none" stroke="#000000" points="121,-108 67,-108 67,-72 121,-72 121,-108"/>
<text text-anchor="middle" x="94" y="-87.5" font-family="Helvetica,sans-Serif" font-size="10.00" fill="#000000">math</text>
</a>
</g>
</g>
<!-- dir_ffd084df0f71d68f8337a7d6f3dcd2dc&#45;&gt;dir_fc0178d6978c9fa2cad6ef3e048a60a7 -->
<g id="edge7" class="edge">
<title>dir_ffd084df0f71d68f8337a7d6f3dcd2dc&#45;&gt;dir_fc0178d6978c9fa2cad6ef3e048a60a7</title>
<path fill="none" stroke="#000000" d="M59.6077,-143.8314C64.7978,-135.7079 71.0232,-125.9637 76.7425,-117.0118"/>
<polygon fill="#000000" stroke="#000000" points="79.8015,-118.7246 82.236,-108.4133 73.9026,-114.9559 79.8015,-118.7246"/>
<g id="a_edge7&#45;headlabel"><a xlink:href="dir_000036_000007.html" target="_top" xlink:title="11">
<text text-anchor="middle" x="80.2589" y="-120.7824" font-family="Helvetica,sans-Serif" font-size="10.00" fill="#000000">11</text>
</a>
</g>
</g>
<!-- dir_a36da230f0956f48b11c85f7d599788f -->
<g id="node4" class="node">
<title>dir_a36da230f0956f48b11c85f7d599788f</title>
<g id="a_node4"><a xlink:href="dir_a36da230f0956f48b11c85f7d599788f.html" target="_top" xlink:title="common">
<polygon fill="#ffffff" stroke="#ff0000" points="123.5,-36 64.5,-36 64.5,0 123.5,0 123.5,-36"/>
<text text-anchor="middle" x="94" y="-15.5" font-family="Helvetica,sans-Serif" font-size="10.00" fill="#000000">common</text>
</a>
</g>
</g>
<!-- dir_ffd084df0f71d68f8337a7d6f3dcd2dc&#45;&gt;dir_a36da230f0956f48b11c85f7d599788f -->
<g id="edge8" class="edge">
<title>dir_ffd084df0f71d68f8337a7d6f3dcd2dc&#45;&gt;dir_a36da230f0956f48b11c85f7d599788f</title>
<path fill="none" stroke="#000000" d="M47.5302,-143.842C47.6151,-125.248 49.3368,-95.7823 58,-72 61.4919,-62.414 67.0173,-52.8535 72.701,-44.4998"/>
<polygon fill="#000000" stroke="#000000" points="75.613,-46.445 78.6025,-36.2807 69.927,-42.3622 75.613,-46.445"/>
<g id="a_edge8&#45;headlabel"><a xlink:href="dir_000036_000006.html" target="_top" xlink:title="53">
<text text-anchor="middle" x="75.8228" y="-48.5209" font-family="Helvetica,sans-Serif" font-size="10.00" fill="#000000">53</text>
</a>
</g>
</g>
<!-- dir_3ff34c62de56b2df4097a6c50ce2d7ff&#45;&gt;dir_ffd084df0f71d68f8337a7d6f3dcd2dc -->
<g id="edge3" class="edge">
<title>dir_3ff34c62de56b2df4097a6c50ce2d7ff&#45;&gt;dir_ffd084df0f71d68f8337a7d6f3dcd2dc</title>
<path fill="none" stroke="#000000" d="M98.0542,-162C95.5637,-162 93.0731,-162 90.5826,-162"/>
<polygon fill="#000000" stroke="#000000" points="90.3438,-158.5001 80.3438,-162 90.3437,-165.5001 90.3438,-158.5001"/>
<g id="a_edge3&#45;headlabel"><a xlink:href="dir_000037_000036.html" target="_top" xlink:title="2">
<text text-anchor="middle" x="93.9384" y="-153.1607" font-family="Helvetica,sans-Serif" font-size="10.00" fill="#000000">2</text>
</a>
</g>
</g>
<!-- dir_3ff34c62de56b2df4097a6c50ce2d7ff&#45;&gt;dir_fc0178d6978c9fa2cad6ef3e048a60a7 -->
<g id="edge1" class="edge">
<title>dir_3ff34c62de56b2df4097a6c50ce2d7ff&#45;&gt;dir_fc0178d6978c9fa2cad6ef3e048a60a7</title>
<path fill="none" stroke="#000000" d="M128.3923,-143.8314C123.2022,-135.7079 116.9768,-125.9637 111.2575,-117.0118"/>
<polygon fill="#000000" stroke="#000000" points="114.0974,-114.9559 105.764,-108.4133 108.1985,-118.7246 114.0974,-114.9559"/>
<g id="a_edge1&#45;headlabel"><a xlink:href="dir_000037_000007.html" target="_top" xlink:title="1">
<text text-anchor="middle" x="118.4253" y="-113.9564" font-family="Helvetica,sans-Serif" font-size="10.00" fill="#000000">1</text>
</a>
</g>
</g>
<!-- dir_3ff34c62de56b2df4097a6c50ce2d7ff&#45;&gt;dir_a36da230f0956f48b11c85f7d599788f -->
<g id="edge2" class="edge">
<title>dir_3ff34c62de56b2df4097a6c50ce2d7ff&#45;&gt;dir_a36da230f0956f48b11c85f7d599788f</title>
<path fill="none" stroke="#000000" d="M140.4698,-143.842C140.3849,-125.248 138.6632,-95.7823 130,-72 126.5081,-62.414 120.9827,-52.8535 115.299,-44.4998"/>
<polygon fill="#000000" stroke="#000000" points="118.073,-42.3622 109.3975,-36.2807 112.387,-46.445 118.073,-42.3622"/>
<g id="a_edge2&#45;headlabel"><a xlink:href="dir_000037_000006.html" target="_top" xlink:title="10">
<text text-anchor="middle" x="122.4759" y="-41.1261" font-family="Helvetica,sans-Serif" font-size="10.00" fill="#000000">10</text>
</a>
</g>
</g>
<!-- dir_fc0178d6978c9fa2cad6ef3e048a60a7&#45;&gt;dir_a36da230f0956f48b11c85f7d599788f -->
<g id="edge4" class="edge">
<title>dir_fc0178d6978c9fa2cad6ef3e048a60a7&#45;&gt;dir_a36da230f0956f48b11c85f7d599788f</title>
<path fill="none" stroke="#000000" d="M88.0476,-71.8314C87.2972,-64.131 87.0763,-54.9743 87.3849,-46.4166"/>
<polygon fill="#000000" stroke="#000000" points="90.8792,-46.6161 88.024,-36.4133 83.8935,-46.1697 90.8792,-46.6161"/>
<g id="a_edge4&#45;headlabel"><a xlink:href="dir_000007_000006.html" target="_top" xlink:title="60">
<text text-anchor="middle" x="93.4836" y="-47.8844" font-family="Helvetica,sans-Serif" font-size="10.00" fill="#000000">60</text>
</a>
</g>
</g>
<!-- dir_a36da230f0956f48b11c85f7d599788f&#45;&gt;dir_fc0178d6978c9fa2cad6ef3e048a60a7 -->
<g id="edge5" class="edge">
<title>dir_a36da230f0956f48b11c85f7d599788f&#45;&gt;dir_fc0178d6978c9fa2cad6ef3e048a60a7</title>
<path fill="none" stroke="#000000" d="M99.976,-36.4133C100.7071,-44.0593 100.9203,-53.1084 100.6155,-61.5726"/>
<polygon fill="#000000" stroke="#000000" points="97.1048,-61.6264 99.9524,-71.8314 104.0902,-62.078 97.1048,-61.6264"/>
<g id="a_edge5&#45;headlabel"><a xlink:href="dir_000006_000007.html" target="_top" xlink:title="4">
<text text-anchor="middle" x="94.5032" y="-55.3562" font-family="Helvetica,sans-Serif" font-size="10.00" fill="#000000">4</text>
</a>
</g>
</g>
</g>
</svg>
