<?xml version="1.0" encoding="UTF-8" standalone="no"?>
<!DOCTYPE svg PUBLIC "-//W3C//DTD SVG 1.1//EN"
 "http://www.w3.org/Graphics/SVG/1.1/DTD/svg11.dtd">
<!-- Generated by graphviz version 2.40.1 (20161225.0304)
 -->
<!-- Title: drake/examples/quadrotor Pages: 1 -->
<svg width="118pt" height="223pt"
 viewBox="0.00 0.00 118.00 223.00" xmlns="http://www.w3.org/2000/svg" xmlns:xlink="http://www.w3.org/1999/xlink">
<g id="graph0" class="graph" transform="scale(1 1) rotate(0) translate(4 219)">
<title>drake/examples/quadrotor</title>
<polygon fill="#ffffff" stroke="transparent" points="-4,4 -4,-219 114,-219 114,4 -4,4"/>
<g id="clust1" class="cluster">
<title>clusterdir_bf85a0c13984f214f436b2edc519c6dd</title>
<g id="a_clust1"><a xlink:href="dir_bf85a0c13984f214f436b2edc519c6dd.html" target="_top" xlink:title="examples">
<polygon fill="#ddddee" stroke="#000000" points="22,-136 22,-207 102,-207 102,-136 22,-136"/>
<text text-anchor="middle" x="62" y="-195" font-family="Helvetica,sans-Serif" font-size="10.00" fill="#000000">examples</text>
</a>
</g>
</g>
<!-- dir_64eb7e16d7e9848cfd92d3316c4eb5e4 -->
<g id="node1" class="node">
<title>dir_64eb7e16d7e9848cfd92d3316c4eb5e4</title>
<g id="a_node1"><a xlink:href="dir_64eb7e16d7e9848cfd92d3316c4eb5e4.html" target="_top" xlink:title="quadrotor">
<polygon fill="#eeeeff" stroke="#000000" points="94,-180 30,-180 30,-144 94,-144 94,-180"/>
<text text-anchor="middle" x="62" y="-159.5" font-family="Helvetica,sans-Serif" font-size="10.00" fill="#000000">quadrotor</text>
</a>
</g>
</g>
<!-- dir_d739e095b49d8b72164589d00310017d -->
<g id="node2" class="node">
<title>dir_d739e095b49d8b72164589d00310017d</title>
<g id="a_node2"><a xlink:href="dir_d739e095b49d8b72164589d00310017d.html" target="_top" xlink:title="geometry">
<polygon fill="#ffffff" stroke="#ff0000" points="64,-108 0,-108 0,-72 64,-72 64,-108"/>
<text text-anchor="middle" x="32" y="-87.5" font-family="Helvetica,sans-Serif" font-size="10.00" fill="#000000">geometry</text>
</a>
</g>
</g>
<!-- dir_64eb7e16d7e9848cfd92d3316c4eb5e4&#45;&gt;dir_d739e095b49d8b72164589d00310017d -->
<g id="edge3" class="edge">
<title>dir_64eb7e16d7e9848cfd92d3316c4eb5e4&#45;&gt;dir_d739e095b49d8b72164589d00310017d</title>
<path fill="none" stroke="#000000" d="M54.4297,-143.8314C51.1507,-135.9617 47.238,-126.5712 43.6055,-117.8533"/>
<polygon fill="#000000" stroke="#000000" points="46.7492,-116.2979 39.6722,-108.4133 40.2876,-118.9902 46.7492,-116.2979"/>
<g id="a_edge3&#45;headlabel"><a xlink:href="dir_000028_000033.html" target="_top" xlink:title="1">
<text text-anchor="middle" x="50.7525" y="-116.024" font-family="Helvetica,sans-Serif" font-size="10.00" fill="#000000">1</text>
</a>
</g>
</g>
<!-- dir_b7a0e33b407baa23d8a077e33033c988 -->
<g id="node3" class="node">
<title>dir_b7a0e33b407baa23d8a077e33033c988</title>
<g id="a_node3"><a xlink:href="dir_b7a0e33b407baa23d8a077e33033c988.html" target="_top" xlink:title="systems">
<polygon fill="#ffffff" stroke="#ff0000" points="61,-36 3,-36 3,0 61,0 61,-36"/>
<text text-anchor="middle" x="32" y="-15.5" font-family="Helvetica,sans-Serif" font-size="10.00" fill="#000000">systems</text>
</a>
</g>
</g>
<!-- dir_64eb7e16d7e9848cfd92d3316c4eb5e4&#45;&gt;dir_b7a0e33b407baa23d8a077e33033c988 -->
<g id="edge4" class="edge">
<title>dir_64eb7e16d7e9848cfd92d3316c4eb5e4&#45;&gt;dir_b7a0e33b407baa23d8a077e33033c988</title>
<path fill="none" stroke="#000000" d="M68.7604,-143.9399C74.65,-125.4238 81.0852,-96.0192 73,-72 69.6203,-61.9596 63.5495,-52.3047 57.0975,-44.0052"/>
<polygon fill="#000000" stroke="#000000" points="59.6879,-41.6461 50.604,-36.1933 54.3048,-46.1208 59.6879,-41.6461"/>
<g id="a_edge4&#45;headlabel"><a xlink:href="dir_000028_000072.html" target="_top" xlink:title="5">
<text text-anchor="middle" x="64.1691" y="-40.0955" font-family="Helvetica,sans-Serif" font-size="10.00" fill="#000000">5</text>
</a>
</g>
</g>
<!-- dir_d739e095b49d8b72164589d00310017d&#45;&gt;dir_b7a0e33b407baa23d8a077e33033c988 -->
<g id="edge1" class="edge">
<title>dir_d739e095b49d8b72164589d00310017d&#45;&gt;dir_b7a0e33b407baa23d8a077e33033c988</title>
<path fill="none" stroke="#000000" d="M26.0476,-71.8314C25.2972,-64.131 25.0763,-54.9743 25.3849,-46.4166"/>
<polygon fill="#000000" stroke="#000000" points="28.8792,-46.6161 26.024,-36.4133 21.8935,-46.1697 28.8792,-46.6161"/>
<g id="a_edge1&#45;headlabel"><a xlink:href="dir_000033_000072.html" target="_top" xlink:title="12">
<text text-anchor="middle" x="31.4836" y="-47.8844" font-family="Helvetica,sans-Serif" font-size="10.00" fill="#000000">12</text>
</a>
</g>
</g>
<!-- dir_b7a0e33b407baa23d8a077e33033c988&#45;&gt;dir_d739e095b49d8b72164589d00310017d -->
<g id="edge2" class="edge">
<title>dir_b7a0e33b407baa23d8a077e33033c988&#45;&gt;dir_d739e095b49d8b72164589d00310017d</title>
<path fill="none" stroke="#000000" d="M37.976,-36.4133C38.7071,-44.0593 38.9203,-53.1084 38.6155,-61.5726"/>
<polygon fill="#000000" stroke="#000000" points="35.1048,-61.6264 37.9524,-71.8314 42.0902,-62.078 35.1048,-61.6264"/>
<g id="a_edge2&#45;headlabel"><a xlink:href="dir_000072_000033.html" target="_top" xlink:title="6">
<text text-anchor="middle" x="32.5032" y="-55.3562" font-family="Helvetica,sans-Serif" font-size="10.00" fill="#000000">6</text>
</a>
</g>
</g>
</g>
</svg>
