<?xml version="1.0" encoding="UTF-8" standalone="no"?>
<!DOCTYPE svg PUBLIC "-//W3C//DTD SVG 1.1//EN"
 "http://www.w3.org/Graphics/SVG/1.1/DTD/svg11.dtd">
<!-- Generated by graphviz version 2.40.1 (20161225.0304)
 -->
<!-- Title: drake/manipulation/kuka_iiwa Pages: 1 -->
<svg width="114pt" height="223pt"
 viewBox="0.00 0.00 114.00 223.00" xmlns="http://www.w3.org/2000/svg" xmlns:xlink="http://www.w3.org/1999/xlink">
<g id="graph0" class="graph" transform="scale(1 1) rotate(0) translate(4 219)">
<title>drake/manipulation/kuka_iiwa</title>
<polygon fill="#ffffff" stroke="transparent" points="-4,4 -4,-219 110,-219 110,4 -4,4"/>
<g id="clust1" class="cluster">
<title>clusterdir_758aa030403a70af025108ac41d12d0d</title>
<g id="a_clust1"><a xlink:href="dir_758aa030403a70af025108ac41d12d0d.html" target="_top" xlink:title="manipulation">
<polygon fill="#ddddee" stroke="#000000" points="8,-136 8,-207 90,-207 90,-136 8,-136"/>
<text text-anchor="middle" x="49" y="-195" font-family="Helvetica,sans-Serif" font-size="10.00" fill="#000000">manipulation</text>
</a>
</g>
</g>
<!-- dir_3d70560bdc0f87a6aef8c45d30963b2c -->
<g id="node1" class="node">
<title>dir_3d70560bdc0f87a6aef8c45d30963b2c</title>
<g id="a_node1"><a xlink:href="dir_3d70560bdc0f87a6aef8c45d30963b2c.html" target="_top" xlink:title="kuka_iiwa">
<polygon fill="#eeeeff" stroke="#000000" points="82,-180 16,-180 16,-144 82,-144 82,-180"/>
<text text-anchor="middle" x="49" y="-159.5" font-family="Helvetica,sans-Serif" font-size="10.00" fill="#000000">kuka_iiwa</text>
</a>
</g>
</g>
<!-- dir_a36da230f0956f48b11c85f7d599788f -->
<g id="node2" class="node">
<title>dir_a36da230f0956f48b11c85f7d599788f</title>
<g id="a_node2"><a xlink:href="dir_a36da230f0956f48b11c85f7d599788f.html" target="_top" xlink:title="common">
<polygon fill="#ffffff" stroke="#ff0000" points="77.5,-36 18.5,-36 18.5,0 77.5,0 77.5,-36"/>
<text text-anchor="middle" x="48" y="-15.5" font-family="Helvetica,sans-Serif" font-size="10.00" fill="#000000">common</text>
</a>
</g>
</g>
<!-- dir_3d70560bdc0f87a6aef8c45d30963b2c&#45;&gt;dir_a36da230f0956f48b11c85f7d599788f -->
<g id="edge1" class="edge">
<title>dir_3d70560bdc0f87a6aef8c45d30963b2c&#45;&gt;dir_a36da230f0956f48b11c85f7d599788f</title>
<path fill="none" stroke="#000000" d="M44.7325,-143.6221C42.538,-133.2314 40.0984,-119.963 39,-108 37.5372,-92.067 37.6803,-87.9455 39,-72 39.6945,-63.6085 40.9862,-54.5578 42.3786,-46.3092"/>
<polygon fill="#000000" stroke="#000000" points="45.8353,-46.8612 44.1587,-36.3999 38.9456,-45.6235 45.8353,-46.8612"/>
<g id="a_edge1&#45;headlabel"><a xlink:href="dir_000044_000006.html" target="_top" xlink:title="10">
<text text-anchor="middle" x="47.9944" y="-48.4012" font-family="Helvetica,sans-Serif" font-size="10.00" fill="#000000">10</text>
</a>
</g>
</g>
<!-- dir_b7a0e33b407baa23d8a077e33033c988 -->
<g id="node3" class="node">
<title>dir_b7a0e33b407baa23d8a077e33033c988</title>
<g id="a_node3"><a xlink:href="dir_b7a0e33b407baa23d8a077e33033c988.html" target="_top" xlink:title="systems">
<polygon fill="#ffffff" stroke="#ff0000" points="106,-108 48,-108 48,-72 106,-72 106,-108"/>
<text text-anchor="middle" x="77" y="-87.5" font-family="Helvetica,sans-Serif" font-size="10.00" fill="#000000">systems</text>
</a>
</g>
</g>
<!-- dir_3d70560bdc0f87a6aef8c45d30963b2c&#45;&gt;dir_b7a0e33b407baa23d8a077e33033c988 -->
<g id="edge2" class="edge">
<title>dir_3d70560bdc0f87a6aef8c45d30963b2c&#45;&gt;dir_b7a0e33b407baa23d8a077e33033c988</title>
<path fill="none" stroke="#000000" d="M56.0656,-143.8314C59.126,-135.9617 62.7779,-126.5712 66.1682,-117.8533"/>
<polygon fill="#000000" stroke="#000000" points="69.4768,-119.0019 69.8393,-108.4133 62.9527,-116.4647 69.4768,-119.0019"/>
<g id="a_edge2&#45;headlabel"><a xlink:href="dir_000044_000073.html" target="_top" xlink:title="5">
<text text-anchor="middle" x="70.8202" y="-120.8812" font-family="Helvetica,sans-Serif" font-size="10.00" fill="#000000">5</text>
</a>
</g>
</g>
<!-- dir_b7a0e33b407baa23d8a077e33033c988&#45;&gt;dir_a36da230f0956f48b11c85f7d599788f -->
<g id="edge3" class="edge">
<title>dir_b7a0e33b407baa23d8a077e33033c988&#45;&gt;dir_a36da230f0956f48b11c85f7d599788f</title>
<path fill="none" stroke="#000000" d="M69.6821,-71.8314C66.5124,-63.9617 62.73,-54.5712 59.2187,-45.8533"/>
<polygon fill="#000000" stroke="#000000" points="62.3992,-44.3815 55.4165,-36.4133 55.9061,-46.9968 62.3992,-44.3815"/>
<g id="a_edge3&#45;headlabel"><a xlink:href="dir_000073_000006.html" target="_top" xlink:title="365">
<text text-anchor="middle" x="66.3758" y="-44.155" font-family="Helvetica,sans-Serif" font-size="10.00" fill="#000000">365</text>
</a>
</g>
</g>
</g>
</svg>
