<?xml version="1.0" encoding="UTF-8" standalone="no"?>
<!DOCTYPE svg PUBLIC "-//W3C//DTD SVG 1.1//EN"
 "http://www.w3.org/Graphics/SVG/1.1/DTD/svg11.dtd">
<!-- Generated by graphviz version 2.40.1 (20161225.0304)
 -->
<!-- Title: drake/multibody/topology Pages: 1 -->
<svg width="108pt" height="223pt"
 viewBox="0.00 0.00 108.00 223.00" xmlns="http://www.w3.org/2000/svg" xmlns:xlink="http://www.w3.org/1999/xlink">
<g id="graph0" class="graph" transform="scale(1 1) rotate(0) translate(4 219)">
<title>drake/multibody/topology</title>
<polygon fill="#ffffff" stroke="transparent" points="-4,4 -4,-219 104,-219 104,4 -4,4"/>
<g id="clust1" class="cluster">
<title>clusterdir_39b8b3c6654246a9c12332c930bc7d3f</title>
<g id="a_clust1"><a xlink:href="dir_39b8b3c6654246a9c12332c930bc7d3f.html" target="_top" xlink:title="multibody">
<polygon fill="#ddddee" stroke="#000000" points="8,-136 8,-207 84,-207 84,-136 8,-136"/>
<text text-anchor="middle" x="46" y="-195" font-family="Helvetica,sans-Serif" font-size="10.00" fill="#000000">multibody</text>
</a>
</g>
</g>
<!-- dir_be8afc369e68dd813958953d8f43add5 -->
<g id="node1" class="node">
<title>dir_be8afc369e68dd813958953d8f43add5</title>
<g id="a_node1"><a xlink:href="dir_be8afc369e68dd813958953d8f43add5.html" target="_top" xlink:title="topology">
<polygon fill="#eeeeff" stroke="#000000" points="75.5,-180 16.5,-180 16.5,-144 75.5,-144 75.5,-180"/>
<text text-anchor="middle" x="46" y="-159.5" font-family="Helvetica,sans-Serif" font-size="10.00" fill="#000000">topology</text>
</a>
</g>
</g>
<!-- dir_a36da230f0956f48b11c85f7d599788f -->
<g id="node2" class="node">
<title>dir_a36da230f0956f48b11c85f7d599788f</title>
<g id="a_node2"><a xlink:href="dir_a36da230f0956f48b11c85f7d599788f.html" target="_top" xlink:title="common">
<polygon fill="#ffffff" stroke="#ff0000" points="74.5,-36 15.5,-36 15.5,0 74.5,0 74.5,-36"/>
<text text-anchor="middle" x="45" y="-15.5" font-family="Helvetica,sans-Serif" font-size="10.00" fill="#000000">common</text>
</a>
</g>
</g>
<!-- dir_be8afc369e68dd813958953d8f43add5&#45;&gt;dir_a36da230f0956f48b11c85f7d599788f -->
<g id="edge2" class="edge">
<title>dir_be8afc369e68dd813958953d8f43add5&#45;&gt;dir_a36da230f0956f48b11c85f7d599788f</title>
<path fill="none" stroke="#000000" d="M42.1587,-143.6001C40.1834,-133.2025 37.9877,-119.9346 37,-108 35.6803,-92.0545 35.8244,-87.9568 37,-72 37.6169,-63.6264 38.7649,-54.5812 40.0026,-46.3322"/>
<polygon fill="#000000" stroke="#000000" points="43.4648,-46.8463 41.585,-36.4196 36.5523,-45.7428 43.4648,-46.8463"/>
<g id="a_edge2&#45;headlabel"><a xlink:href="dir_000066_000006.html" target="_top" xlink:title="1">
<text text-anchor="middle" x="45.702" y="-48.3436" font-family="Helvetica,sans-Serif" font-size="10.00" fill="#000000">1</text>
</a>
</g>
</g>
<!-- dir_3f9cb8dbb3b4911cb2ecb548acd672c3 -->
<g id="node3" class="node">
<title>dir_3f9cb8dbb3b4911cb2ecb548acd672c3</title>
<g id="a_node3"><a xlink:href="dir_3f9cb8dbb3b4911cb2ecb548acd672c3.html" target="_top" xlink:title="tree">
<polygon fill="none" stroke="#000000" points="100,-108 46,-108 46,-72 100,-72 100,-108"/>
<text text-anchor="middle" x="73" y="-87.5" font-family="Helvetica,sans-Serif" font-size="10.00" fill="#000000">tree</text>
</a>
</g>
</g>
<!-- dir_be8afc369e68dd813958953d8f43add5&#45;&gt;dir_3f9cb8dbb3b4911cb2ecb548acd672c3 -->
<g id="edge3" class="edge">
<title>dir_be8afc369e68dd813958953d8f43add5&#45;&gt;dir_3f9cb8dbb3b4911cb2ecb548acd672c3</title>
<path fill="none" stroke="#000000" d="M52.8132,-143.8314C55.7644,-135.9617 59.2858,-126.5712 62.555,-117.8533"/>
<polygon fill="#000000" stroke="#000000" points="65.8609,-119.0055 66.095,-108.4133 59.3066,-116.5476 65.8609,-119.0055"/>
<g id="a_edge3&#45;headlabel"><a xlink:href="dir_000066_000067.html" target="_top" xlink:title="1">
<text text-anchor="middle" x="67.2573" y="-120.8682" font-family="Helvetica,sans-Serif" font-size="10.00" fill="#000000">1</text>
</a>
</g>
</g>
<!-- dir_3f9cb8dbb3b4911cb2ecb548acd672c3&#45;&gt;dir_a36da230f0956f48b11c85f7d599788f -->
<g id="edge1" class="edge">
<title>dir_3f9cb8dbb3b4911cb2ecb548acd672c3&#45;&gt;dir_a36da230f0956f48b11c85f7d599788f</title>
<path fill="none" stroke="#000000" d="M65.9344,-71.8314C62.874,-63.9617 59.2221,-54.5712 55.8318,-45.8533"/>
<polygon fill="#000000" stroke="#000000" points="59.0473,-44.4647 52.1607,-36.4133 52.5232,-47.0019 59.0473,-44.4647"/>
<g id="a_edge1&#45;headlabel"><a xlink:href="dir_000067_000006.html" target="_top" xlink:title="146">
<text text-anchor="middle" x="62.9963" y="-44.2859" font-family="Helvetica,sans-Serif" font-size="10.00" fill="#000000">146</text>
</a>
</g>
</g>
</g>
</svg>
