<?xml version="1.0" encoding="UTF-8" standalone="no"?>
<!DOCTYPE svg PUBLIC "-//W3C//DTD SVG 1.1//EN"
 "http://www.w3.org/Graphics/SVG/1.1/DTD/svg11.dtd">
<!-- Generated by graphviz version 2.40.1 (20161225.0304)
 -->
<!-- Title: drake/solvers/fbstab Pages: 1 -->
<svg width="134pt" height="231pt"
 viewBox="0.00 0.00 134.00 231.00" xmlns="http://www.w3.org/2000/svg" xmlns:xlink="http://www.w3.org/1999/xlink">
<g id="graph0" class="graph" transform="scale(1 1) rotate(0) translate(4 227)">
<title>drake/solvers/fbstab</title>
<polygon fill="#ffffff" stroke="transparent" points="-4,4 -4,-227 130,-227 130,4 -4,4"/>
<g id="clust1" class="cluster">
<title>clusterdir_c86b501450b8b8b59405c286cb030cc3</title>
<g id="a_clust1"><a xlink:href="dir_c86b501450b8b8b59405c286cb030cc3.html" target="_top" xlink:title="solvers">
<polygon fill="#ddddee" stroke="#000000" points="8,-56 8,-215 118,-215 118,-56 8,-56"/>
<text text-anchor="middle" x="63" y="-203" font-family="Helvetica,sans-Serif" font-size="10.00" fill="#000000">solvers</text>
</a>
</g>
</g>
<g id="clust2" class="cluster">
<title>clusterdir_fb9a140248c02c8b3a74e805be9cb92d</title>
<g id="a_clust2"><a xlink:href="dir_fb9a140248c02c8b3a74e805be9cb92d.html" target="_top">
<polygon fill="#eeeeff" stroke="#000000" points="16,-64 16,-188 110,-188 110,-64 16,-64"/>
</a>
</g>
</g>
<!-- dir_fb9a140248c02c8b3a74e805be9cb92d -->
<g id="node1" class="node">
<title>dir_fb9a140248c02c8b3a74e805be9cb92d</title>
<text text-anchor="middle" x="63" y="-159.5" font-family="Helvetica,sans-Serif" font-size="10.00" fill="#000000">fbstab</text>
</g>
<!-- dir_e40d16ce0a19d8334ee3d7fe9c80dfbb -->
<g id="node2" class="node">
<title>dir_e40d16ce0a19d8334ee3d7fe9c80dfbb</title>
<g id="a_node2"><a xlink:href="dir_e40d16ce0a19d8334ee3d7fe9c80dfbb.html" target="_top" xlink:title="components">
<polygon fill="#ffffff" stroke="#000000" points="101.5,-108 24.5,-108 24.5,-72 101.5,-72 101.5,-108"/>
<text text-anchor="middle" x="63" y="-87.5" font-family="Helvetica,sans-Serif" font-size="10.00" fill="#000000">components</text>
</a>
</g>
</g>
<!-- dir_fb9a140248c02c8b3a74e805be9cb92d&#45;&gt;dir_e40d16ce0a19d8334ee3d7fe9c80dfbb -->
<g id="edge1" class="edge">
<title>dir_fb9a140248c02c8b3a74e805be9cb92d&#45;&gt;dir_e40d16ce0a19d8334ee3d7fe9c80dfbb</title>
<path fill="none" stroke="#000000" d="M63,-143.8314C63,-136.131 63,-126.9743 63,-118.4166"/>
<polygon fill="#000000" stroke="#000000" points="66.5001,-118.4132 63,-108.4133 59.5001,-118.4133 66.5001,-118.4132"/>
<g id="a_edge1&#45;headlabel"><a xlink:href="dir_000071_000072.html" target="_top" xlink:title="10">
<text text-anchor="middle" x="69.3393" y="-119.5079" font-family="Helvetica,sans-Serif" font-size="10.00" fill="#000000">10</text>
</a>
</g>
</g>
<!-- dir_a36da230f0956f48b11c85f7d599788f -->
<g id="node3" class="node">
<title>dir_a36da230f0956f48b11c85f7d599788f</title>
<g id="a_node3"><a xlink:href="dir_a36da230f0956f48b11c85f7d599788f.html" target="_top" xlink:title="common">
<polygon fill="#ffffff" stroke="#ff0000" points="92.5,-36 33.5,-36 33.5,0 92.5,0 92.5,-36"/>
<text text-anchor="middle" x="63" y="-15.5" font-family="Helvetica,sans-Serif" font-size="10.00" fill="#000000">common</text>
</a>
</g>
</g>
<!-- dir_e40d16ce0a19d8334ee3d7fe9c80dfbb&#45;&gt;dir_a36da230f0956f48b11c85f7d599788f -->
<g id="edge2" class="edge">
<title>dir_e40d16ce0a19d8334ee3d7fe9c80dfbb&#45;&gt;dir_a36da230f0956f48b11c85f7d599788f</title>
<path fill="none" stroke="#000000" d="M63,-71.8314C63,-64.131 63,-54.9743 63,-46.4166"/>
<polygon fill="#000000" stroke="#000000" points="66.5001,-46.4132 63,-36.4133 59.5001,-46.4133 66.5001,-46.4132"/>
<g id="a_edge2&#45;headlabel"><a xlink:href="dir_000072_000006.html" target="_top" xlink:title="10">
<text text-anchor="middle" x="69.3393" y="-47.5079" font-family="Helvetica,sans-Serif" font-size="10.00" fill="#000000">10</text>
</a>
</g>
</g>
</g>
</svg>
