<?xml version="1.0" encoding="UTF-8" standalone="no"?>
<!DOCTYPE svg PUBLIC "-//W3C//DTD SVG 1.1//EN"
 "http://www.w3.org/Graphics/SVG/1.1/DTD/svg11.dtd">
<!-- Generated by graphviz version 2.40.1 (20161225.0304)
 -->
<!-- Title: drake/systems/analysis Pages: 1 -->
<svg width="356pt" height="325pt"
 viewBox="0.00 0.00 355.69 324.55" xmlns="http://www.w3.org/2000/svg" xmlns:xlink="http://www.w3.org/1999/xlink">
<g id="graph0" class="graph" transform="scale(1 1) rotate(0) translate(4 320.5494)">
<title>drake/systems/analysis</title>
<polygon fill="#ffffff" stroke="transparent" points="-4,4 -4,-320.5494 351.6942,-320.5494 351.6942,4 -4,4"/>
<g id="clust1" class="cluster">
<title>clusterdir_b7a0e33b407baa23d8a077e33033c988</title>
<g id="a_clust1"><a xlink:href="dir_b7a0e33b407baa23d8a077e33033c988.html" target="_top" xlink:title="systems">
<polygon fill="#ddddee" stroke="#000000" points="8,-200 8,-287 193,-287 193,-200 8,-200"/>
<text text-anchor="middle" x="100.5" y="-275" font-family="Helvetica,sans-Serif" font-size="10.00" fill="#000000">systems</text>
</a>
</g>
</g>
<g id="clust2" class="cluster">
<title>clusterdir_9f920ef99dcb5f2ba14ba6c3f54b363c</title>
<g id="a_clust2"><a xlink:href="dir_9f920ef99dcb5f2ba14ba6c3f54b363c.html" target="_top">
<polygon fill="#eeeeff" stroke="#000000" points="16,-208 16,-260 185,-260 185,-208 16,-208"/>
</a>
</g>
</g>
<!-- dir_9f920ef99dcb5f2ba14ba6c3f54b363c -->
<g id="node1" class="node">
<title>dir_9f920ef99dcb5f2ba14ba6c3f54b363c</title>
<text text-anchor="middle" x="53" y="-231.5" font-family="Helvetica,sans-Serif" font-size="10.00" fill="#000000">analysis</text>
</g>
<!-- dir_2186f45272e5c29e3ac18ec762ab7501 -->
<g id="node4" class="node">
<title>dir_2186f45272e5c29e3ac18ec762ab7501</title>
<g id="a_node4"><a xlink:href="dir_2186f45272e5c29e3ac18ec762ab7501.html" target="_top" xlink:title="framework">
<polygon fill="#ffffff" stroke="#ff0000" points="177,-108 107,-108 107,-72 177,-72 177,-108"/>
<text text-anchor="middle" x="142" y="-87.5" font-family="Helvetica,sans-Serif" font-size="10.00" fill="#000000">framework</text>
</a>
</g>
</g>
<!-- dir_9f920ef99dcb5f2ba14ba6c3f54b363c&#45;&gt;dir_2186f45272e5c29e3ac18ec762ab7501 -->
<g id="edge1" class="edge">
<title>dir_9f920ef99dcb5f2ba14ba6c3f54b363c&#45;&gt;dir_2186f45272e5c29e3ac18ec762ab7501</title>
<path fill="none" stroke="#000000" d="M46.1174,-215.732C40.1057,-196.5168 34.1631,-166.0625 47,-144 57.9369,-125.2029 78.1276,-112.4123 97.0917,-104.018"/>
<polygon fill="#000000" stroke="#000000" points="98.6289,-107.1704 106.5481,-100.132 95.9682,-100.6957 98.6289,-107.1704"/>
<g id="a_edge1&#45;headlabel"><a xlink:href="dir_000074_000079.html" target="_top" xlink:title="38">
<text text-anchor="middle" x="96.3833" y="-108.6628" font-family="Helvetica,sans-Serif" font-size="10.00" fill="#000000">38</text>
</a>
</g>
</g>
<!-- dir_a36da230f0956f48b11c85f7d599788f -->
<g id="node6" class="node">
<title>dir_a36da230f0956f48b11c85f7d599788f</title>
<g id="a_node6"><a xlink:href="dir_a36da230f0956f48b11c85f7d599788f.html" target="_top" xlink:title="common">
<polygon fill="#ffffff" stroke="#ff0000" points="171.5,-36 112.5,-36 112.5,0 171.5,0 171.5,-36"/>
<text text-anchor="middle" x="142" y="-15.5" font-family="Helvetica,sans-Serif" font-size="10.00" fill="#000000">common</text>
</a>
</g>
</g>
<!-- dir_9f920ef99dcb5f2ba14ba6c3f54b363c&#45;&gt;dir_a36da230f0956f48b11c85f7d599788f -->
<g id="edge2" class="edge">
<title>dir_9f920ef99dcb5f2ba14ba6c3f54b363c&#45;&gt;dir_a36da230f0956f48b11c85f7d599788f</title>
<path fill="none" stroke="#000000" d="M45.7561,-215.8366C42.0288,-205.513 37.8812,-192.2403 36,-180 28.5845,-131.7504 26.8266,-111.1398 56,-72 68.09,-55.7798 86.6207,-43.251 103.389,-34.3633"/>
<polygon fill="#000000" stroke="#000000" points="105.1071,-37.4171 112.4713,-29.8 101.9644,-31.1622 105.1071,-37.4171"/>
<g id="a_edge2&#45;headlabel"><a xlink:href="dir_000074_000006.html" target="_top" xlink:title="72">
<text text-anchor="middle" x="103.1699" y="-39.0679" font-family="Helvetica,sans-Serif" font-size="10.00" fill="#000000">72</text>
</a>
</g>
</g>
<!-- dir_d8973131f51b66669fc427ecaef4c4db -->
<g id="node2" class="node">
<title>dir_d8973131f51b66669fc427ecaef4c4db</title>
<g id="a_node2"><a xlink:href="dir_d8973131f51b66669fc427ecaef4c4db.html" target="_top" xlink:title="test_utilities">
<polygon fill="#ffffff" stroke="#000000" points="176.5,-252 99.5,-252 99.5,-216 176.5,-216 176.5,-252"/>
<text text-anchor="middle" x="138" y="-231.5" font-family="Helvetica,sans-Serif" font-size="10.00" fill="#000000">test_utilities</text>
</a>
</g>
</g>
<!-- dir_39b8b3c6654246a9c12332c930bc7d3f -->
<g id="node3" class="node">
<title>dir_39b8b3c6654246a9c12332c930bc7d3f</title>
<g id="a_node3"><a xlink:href="dir_39b8b3c6654246a9c12332c930bc7d3f.html" target="_top" xlink:title="multibody">
<polygon fill="#ffffff" stroke="#ff0000" points="232,-180 166,-180 166,-144 232,-144 232,-180"/>
<text text-anchor="middle" x="199" y="-159.5" font-family="Helvetica,sans-Serif" font-size="10.00" fill="#000000">multibody</text>
</a>
</g>
</g>
<!-- dir_d8973131f51b66669fc427ecaef4c4db&#45;&gt;dir_39b8b3c6654246a9c12332c930bc7d3f -->
<g id="edge3" class="edge">
<title>dir_d8973131f51b66669fc427ecaef4c4db&#45;&gt;dir_39b8b3c6654246a9c12332c930bc7d3f</title>
<path fill="none" stroke="#000000" d="M153.3929,-215.8314C160.4904,-207.454 169.048,-197.3531 176.824,-188.1749"/>
<polygon fill="#000000" stroke="#000000" points="179.6061,-190.3056 183.3999,-180.4133 174.2652,-185.7807 179.6061,-190.3056"/>
<g id="a_edge3&#45;headlabel"><a xlink:href="dir_000075_000049.html" target="_top" xlink:title="1">
<text text-anchor="middle" x="179.4488" y="-192.3836" font-family="Helvetica,sans-Serif" font-size="10.00" fill="#000000">1</text>
</a>
</g>
</g>
<!-- dir_d8973131f51b66669fc427ecaef4c4db&#45;&gt;dir_2186f45272e5c29e3ac18ec762ab7501 -->
<g id="edge4" class="edge">
<title>dir_d8973131f51b66669fc427ecaef4c4db&#45;&gt;dir_2186f45272e5c29e3ac18ec762ab7501</title>
<path fill="none" stroke="#000000" d="M138.5066,-215.7623C139.1889,-191.201 140.4098,-147.2474 141.2124,-118.3541"/>
<polygon fill="#000000" stroke="#000000" points="144.7184,-118.183 141.4975,-108.0896 137.7211,-117.9885 144.7184,-118.183"/>
<g id="a_edge4&#45;headlabel"><a xlink:href="dir_000075_000079.html" target="_top" xlink:title="25">
<text text-anchor="middle" x="147.4569" y="-119.355" font-family="Helvetica,sans-Serif" font-size="10.00" fill="#000000">25</text>
</a>
</g>
</g>
<!-- dir_55f8630d5466d97e74952e939680a0a0 -->
<g id="node5" class="node">
<title>dir_55f8630d5466d97e74952e939680a0a0</title>
<g id="a_node5"><a xlink:href="dir_55f8630d5466d97e74952e939680a0a0.html" target="_top" xlink:title="primitives">
<polygon fill="none" stroke="#000000" points="316,-180 250,-180 250,-144 316,-144 316,-180"/>
<text text-anchor="middle" x="283" y="-159.5" font-family="Helvetica,sans-Serif" font-size="10.00" fill="#000000">primitives</text>
</a>
</g>
</g>
<!-- dir_d8973131f51b66669fc427ecaef4c4db&#45;&gt;dir_55f8630d5466d97e74952e939680a0a0 -->
<g id="edge5" class="edge">
<title>dir_d8973131f51b66669fc427ecaef4c4db&#45;&gt;dir_55f8630d5466d97e74952e939680a0a0</title>
<path fill="none" stroke="#000000" d="M174.5896,-215.8314C194.7602,-205.8156 219.8921,-193.3363 240.8783,-182.9156"/>
<polygon fill="#000000" stroke="#000000" points="242.4931,-186.0216 249.8931,-178.4393 239.3799,-179.7519 242.4931,-186.0216"/>
<g id="a_edge5&#45;headlabel"><a xlink:href="dir_000075_000085.html" target="_top" xlink:title="1">
<text text-anchor="middle" x="240.5363" y="-187.6632" font-family="Helvetica,sans-Serif" font-size="10.00" fill="#000000">1</text>
</a>
</g>
</g>
<!-- dir_d8973131f51b66669fc427ecaef4c4db&#45;&gt;dir_a36da230f0956f48b11c85f7d599788f -->
<g id="edge6" class="edge">
<title>dir_d8973131f51b66669fc427ecaef4c4db&#45;&gt;dir_a36da230f0956f48b11c85f7d599788f</title>
<path fill="none" stroke="#000000" d="M114.1467,-215.8232C106.6106,-210.4331 98.126,-204.7157 90,-200 71.7701,-189.4208 58.3335,-197.7708 47,-180 38.3966,-166.5099 43.238,-159.5514 47,-144 55.4594,-109.0306 62.2869,-100.6873 84,-72 91.8491,-61.6299 101.81,-51.5552 111.2528,-42.9718"/>
<polygon fill="#000000" stroke="#000000" points="113.8177,-45.3766 119.0053,-36.1387 109.1891,-40.1253 113.8177,-45.3766"/>
<g id="a_edge6&#45;headlabel"><a xlink:href="dir_000075_000006.html" target="_top" xlink:title="7">
<text text-anchor="middle" x="112.9984" y="-47.3834" font-family="Helvetica,sans-Serif" font-size="10.00" fill="#000000">7</text>
</a>
</g>
</g>
<!-- dir_e52f9ce215e3da93ed1785d349e42bd9 -->
<g id="node7" class="node">
<title>dir_e52f9ce215e3da93ed1785d349e42bd9</title>
<g id="a_node7"><a xlink:href="dir_e52f9ce215e3da93ed1785d349e42bd9.html" target="_top" xlink:title="plants">
<polygon fill="#ffffff" stroke="#ff0000" points="110,-180 56,-180 56,-144 110,-144 110,-180"/>
<text text-anchor="middle" x="83" y="-159.5" font-family="Helvetica,sans-Serif" font-size="10.00" fill="#000000">plants</text>
</a>
</g>
</g>
<!-- dir_d8973131f51b66669fc427ecaef4c4db&#45;&gt;dir_e52f9ce215e3da93ed1785d349e42bd9 -->
<g id="edge7" class="edge">
<title>dir_d8973131f51b66669fc427ecaef4c4db&#45;&gt;dir_e52f9ce215e3da93ed1785d349e42bd9</title>
<path fill="none" stroke="#000000" d="M124.1212,-215.8314C117.7864,-207.5386 110.1616,-197.557 103.2074,-188.4533"/>
<polygon fill="#000000" stroke="#000000" points="105.9175,-186.2353 97.0657,-180.4133 100.3548,-190.4847 105.9175,-186.2353"/>
<g id="a_edge7&#45;headlabel"><a xlink:href="dir_000075_000083.html" target="_top" xlink:title="4">
<text text-anchor="middle" x="110.3558" y="-184.8683" font-family="Helvetica,sans-Serif" font-size="10.00" fill="#000000">4</text>
</a>
</g>
</g>
<!-- dir_2f3b38a11a8c8b47ab034de75b118c79 -->
<g id="node8" class="node">
<title>dir_2f3b38a11a8c8b47ab034de75b118c79</title>
<g id="a_node8"><a xlink:href="dir_2f3b38a11a8c8b47ab034de75b118c79.html" target="_top" xlink:title="controllers">
<polygon fill="#ffffff" stroke="#ff0000" points="293,-252 225,-252 225,-216 293,-216 293,-252"/>
<text text-anchor="middle" x="259" y="-231.5" font-family="Helvetica,sans-Serif" font-size="10.00" fill="#000000">controllers</text>
</a>
</g>
</g>
<!-- dir_d8973131f51b66669fc427ecaef4c4db&#45;&gt;dir_2f3b38a11a8c8b47ab034de75b118c79 -->
<g id="edge8" class="edge">
<title>dir_d8973131f51b66669fc427ecaef4c4db&#45;&gt;dir_2f3b38a11a8c8b47ab034de75b118c79</title>
<path fill="none" stroke="#000000" d="M176.7578,-234C189.4325,-234 202.1071,-234 214.7818,-234"/>
<polygon fill="#000000" stroke="#000000" points="214.9466,-237.5001 224.9466,-234 214.9466,-230.5001 214.9466,-237.5001"/>
<g id="a_edge8&#45;headlabel"><a xlink:href="dir_000075_000076.html" target="_top" xlink:title="1">
<text text-anchor="middle" x="211.352" y="-237.8393" font-family="Helvetica,sans-Serif" font-size="10.00" fill="#000000">1</text>
</a>
</g>
</g>
<!-- dir_39b8b3c6654246a9c12332c930bc7d3f&#45;&gt;dir_2186f45272e5c29e3ac18ec762ab7501 -->
<g id="edge9" class="edge">
<title>dir_39b8b3c6654246a9c12332c930bc7d3f&#45;&gt;dir_2186f45272e5c29e3ac18ec762ab7501</title>
<path fill="none" stroke="#000000" d="M184.6165,-143.8314C178.0514,-135.5386 170.1493,-125.557 162.9422,-116.4533"/>
<polygon fill="#000000" stroke="#000000" points="165.5284,-114.0813 156.5772,-108.4133 160.0401,-118.4262 165.5284,-114.0813"/>
<g id="a_edge9&#45;headlabel"><a xlink:href="dir_000049_000079.html" target="_top" xlink:title="32">
<text text-anchor="middle" x="169.9857" y="-112.6373" font-family="Helvetica,sans-Serif" font-size="10.00" fill="#000000">32</text>
</a>
</g>
</g>
<!-- dir_39b8b3c6654246a9c12332c930bc7d3f&#45;&gt;dir_a36da230f0956f48b11c85f7d599788f -->
<g id="edge10" class="edge">
<title>dir_39b8b3c6654246a9c12332c930bc7d3f&#45;&gt;dir_a36da230f0956f48b11c85f7d599788f</title>
<path fill="none" stroke="#000000" d="M199.1864,-143.9805C198.7541,-125.2389 196.2784,-95.4189 186,-72 181.5803,-61.93 174.7485,-52.2003 167.7759,-43.8398"/>
<polygon fill="#000000" stroke="#000000" points="170.3553,-41.4728 161.1219,-36.2771 165.0999,-46.0968 170.3553,-41.4728"/>
<g id="a_edge10&#45;headlabel"><a xlink:href="dir_000049_000006.html" target="_top" xlink:title="225">
<text text-anchor="middle" x="174.8613" y="-39.796" font-family="Helvetica,sans-Serif" font-size="10.00" fill="#000000">225</text>
</a>
</g>
</g>
<!-- dir_2186f45272e5c29e3ac18ec762ab7501&#45;&gt;dir_a36da230f0956f48b11c85f7d599788f -->
<g id="edge11" class="edge">
<title>dir_2186f45272e5c29e3ac18ec762ab7501&#45;&gt;dir_a36da230f0956f48b11c85f7d599788f</title>
<path fill="none" stroke="#000000" d="M142,-71.8314C142,-64.131 142,-54.9743 142,-46.4166"/>
<polygon fill="#000000" stroke="#000000" points="145.5001,-46.4132 142,-36.4133 138.5001,-46.4133 145.5001,-46.4132"/>
<g id="a_edge11&#45;headlabel"><a xlink:href="dir_000079_000006.html" target="_top" xlink:title="171">
<text text-anchor="middle" x="148.3393" y="-47.5079" font-family="Helvetica,sans-Serif" font-size="10.00" fill="#000000">171</text>
</a>
</g>
</g>
<!-- dir_55f8630d5466d97e74952e939680a0a0&#45;&gt;dir_2186f45272e5c29e3ac18ec762ab7501 -->
<g id="edge12" class="edge">
<title>dir_55f8630d5466d97e74952e939680a0a0&#45;&gt;dir_2186f45272e5c29e3ac18ec762ab7501</title>
<path fill="none" stroke="#000000" d="M249.9418,-145.1192C231.0246,-135.4593 207.0405,-123.2122 186.4873,-112.7169"/>
<polygon fill="#000000" stroke="#000000" points="187.8137,-109.4643 177.3159,-108.0336 184.6302,-115.6986 187.8137,-109.4643"/>
<g id="a_edge12&#45;headlabel"><a xlink:href="dir_000085_000079.html" target="_top" xlink:title="37">
<text text-anchor="middle" x="192.3063" y="-106.0704" font-family="Helvetica,sans-Serif" font-size="10.00" fill="#000000">37</text>
</a>
</g>
</g>
<!-- dir_55f8630d5466d97e74952e939680a0a0&#45;&gt;dir_a36da230f0956f48b11c85f7d599788f -->
<g id="edge13" class="edge">
<title>dir_55f8630d5466d97e74952e939680a0a0&#45;&gt;dir_a36da230f0956f48b11c85f7d599788f</title>
<path fill="none" stroke="#000000" d="M268.4991,-143.7149C253.3688,-125.0196 228.6032,-95.4746 205,-72 194.9072,-61.9622 183.2197,-51.6281 172.6723,-42.722"/>
<polygon fill="#000000" stroke="#000000" points="174.7955,-39.9352 164.8741,-36.2182 170.312,-45.311 174.7955,-39.9352"/>
<g id="a_edge13&#45;headlabel"><a xlink:href="dir_000085_000006.html" target="_top" xlink:title="54">
<text text-anchor="middle" x="179.3745" y="-37.5571" font-family="Helvetica,sans-Serif" font-size="10.00" fill="#000000">54</text>
</a>
</g>
</g>
<!-- dir_e52f9ce215e3da93ed1785d349e42bd9&#45;&gt;dir_2186f45272e5c29e3ac18ec762ab7501 -->
<g id="edge14" class="edge">
<title>dir_e52f9ce215e3da93ed1785d349e42bd9&#45;&gt;dir_2186f45272e5c29e3ac18ec762ab7501</title>
<path fill="none" stroke="#000000" d="M97.8882,-143.8314C104.753,-135.454 113.0301,-125.3531 120.5511,-116.1749"/>
<polygon fill="#000000" stroke="#000000" points="123.2803,-118.3665 126.9114,-108.4133 117.8659,-113.9297 123.2803,-118.3665"/>
<g id="a_edge14&#45;headlabel"><a xlink:href="dir_000083_000079.html" target="_top" xlink:title="2">
<text text-anchor="middle" x="123.1981" y="-120.4464" font-family="Helvetica,sans-Serif" font-size="10.00" fill="#000000">2</text>
</a>
</g>
</g>
<!-- dir_e52f9ce215e3da93ed1785d349e42bd9&#45;&gt;dir_a36da230f0956f48b11c85f7d599788f -->
<g id="edge15" class="edge">
<title>dir_e52f9ce215e3da93ed1785d349e42bd9&#45;&gt;dir_a36da230f0956f48b11c85f7d599788f</title>
<path fill="none" stroke="#000000" d="M83.3077,-143.9667C84.2327,-125.2139 87.4325,-95.3848 98,-72 102.5286,-61.9786 109.392,-52.2629 116.36,-43.9003"/>
<polygon fill="#000000" stroke="#000000" points="119.0363,-46.1569 122.9999,-36.3313 113.7741,-41.5406 119.0363,-46.1569"/>
<g id="a_edge15&#45;headlabel"><a xlink:href="dir_000083_000006.html" target="_top" xlink:title="1">
<text text-anchor="middle" x="118.8002" y="-48.2314" font-family="Helvetica,sans-Serif" font-size="10.00" fill="#000000">1</text>
</a>
</g>
</g>
<!-- dir_2f3b38a11a8c8b47ab034de75b118c79&#45;&gt;dir_9f920ef99dcb5f2ba14ba6c3f54b363c -->
<g id="edge16" class="edge">
<title>dir_2f3b38a11a8c8b47ab034de75b118c79&#45;&gt;dir_9f920ef99dcb5f2ba14ba6c3f54b363c</title>
<path fill="none" stroke="#000000" d="M245.6265,-252.0095C231.5218,-269.345 207.5498,-294.4392 180,-305 146.3852,-317.8857 130.6282,-322.1946 99,-305 82.0094,-295.7631 70.3276,-277.2451 62.9883,-261.4369"/>
<polygon fill="#000000" stroke="#000000" points="66.1237,-259.8675 58.971,-252.0515 59.6884,-262.6221 66.1237,-259.8675"/>
<g id="a_edge16&#45;headlabel"><a xlink:href="dir_000076_000074.html" target="_top" xlink:title="1">
<text text-anchor="middle" x="70.1483" y="-259.5549" font-family="Helvetica,sans-Serif" font-size="10.00" fill="#000000">1</text>
</a>
</g>
</g>
<!-- dir_2f3b38a11a8c8b47ab034de75b118c79&#45;&gt;dir_39b8b3c6654246a9c12332c930bc7d3f -->
<g id="edge17" class="edge">
<title>dir_2f3b38a11a8c8b47ab034de75b118c79&#45;&gt;dir_39b8b3c6654246a9c12332c930bc7d3f</title>
<path fill="none" stroke="#000000" d="M243.8595,-215.8314C236.8783,-207.454 228.4609,-197.3531 220.8124,-188.1749"/>
<polygon fill="#000000" stroke="#000000" points="223.4351,-185.8548 214.3444,-180.4133 218.0575,-190.3362 223.4351,-185.8548"/>
<g id="a_edge17&#45;headlabel"><a xlink:href="dir_000076_000049.html" target="_top" xlink:title="3">
<text text-anchor="middle" x="227.9174" y="-184.2986" font-family="Helvetica,sans-Serif" font-size="10.00" fill="#000000">3</text>
</a>
</g>
</g>
<!-- dir_2f3b38a11a8c8b47ab034de75b118c79&#45;&gt;dir_2186f45272e5c29e3ac18ec762ab7501 -->
<g id="edge18" class="edge">
<title>dir_2f3b38a11a8c8b47ab034de75b118c79&#45;&gt;dir_2186f45272e5c29e3ac18ec762ab7501</title>
<path fill="none" stroke="#000000" d="M291.7625,-215.9454C304.6198,-206.9749 317.9627,-194.8504 325,-180 331.8517,-165.5413 334.5799,-156.8151 325,-144 308.4742,-121.8932 235.917,-105.6852 187.28,-97.064"/>
<polygon fill="#000000" stroke="#000000" points="187.7429,-93.5922 177.2933,-95.3401 186.5521,-100.4902 187.7429,-93.5922"/>
<g id="a_edge18&#45;headlabel"><a xlink:href="dir_000076_000079.html" target="_top" xlink:title="10">
<text text-anchor="middle" x="191.7681" y="-88.9057" font-family="Helvetica,sans-Serif" font-size="10.00" fill="#000000">10</text>
</a>
</g>
</g>
<!-- dir_2f3b38a11a8c8b47ab034de75b118c79&#45;&gt;dir_55f8630d5466d97e74952e939680a0a0 -->
<g id="edge19" class="edge">
<title>dir_2f3b38a11a8c8b47ab034de75b118c79&#45;&gt;dir_55f8630d5466d97e74952e939680a0a0</title>
<path fill="none" stroke="#000000" d="M265.0562,-215.8314C267.6512,-208.0463 270.7424,-198.7729 273.6218,-190.1347"/>
<polygon fill="#000000" stroke="#000000" points="277.0203,-191.0069 276.8622,-180.4133 270.3795,-188.7933 277.0203,-191.0069"/>
<g id="a_edge19&#45;headlabel"><a xlink:href="dir_000076_000085.html" target="_top" xlink:title="5">
<text text-anchor="middle" x="278.5772" y="-192.8149" font-family="Helvetica,sans-Serif" font-size="10.00" fill="#000000">5</text>
</a>
</g>
</g>
<!-- dir_2f3b38a11a8c8b47ab034de75b118c79&#45;&gt;dir_a36da230f0956f48b11c85f7d599788f -->
<g id="edge20" class="edge">
<title>dir_2f3b38a11a8c8b47ab034de75b118c79&#45;&gt;dir_a36da230f0956f48b11c85f7d599788f</title>
<path fill="none" stroke="#000000" d="M293.0567,-221.3028C311.0821,-212.631 331.5905,-199.1912 342,-180 349.6286,-165.9357 349.5194,-158.123 342,-144 308.7795,-81.6048 229.7196,-46.1315 181.5454,-29.5991"/>
<polygon fill="#000000" stroke="#000000" points="182.3554,-26.1803 171.762,-26.3559 180.1527,-32.8247 182.3554,-26.1803"/>
<g id="a_edge20&#45;headlabel"><a xlink:href="dir_000076_000006.html" target="_top" xlink:title="18">
<text text-anchor="middle" x="186.6608" y="-22.1163" font-family="Helvetica,sans-Serif" font-size="10.00" fill="#000000">18</text>
</a>
</g>
</g>
</g>
</svg>
