<?xml version="1.0" encoding="UTF-8" standalone="no"?>
<!DOCTYPE svg PUBLIC "-//W3C//DTD SVG 1.1//EN"
 "http://www.w3.org/Graphics/SVG/1.1/DTD/svg11.dtd">
<!-- Generated by graphviz version 2.40.1 (20161225.0304)
 -->
<!-- Title: drake/examples/bead_on_a_wire Pages: 1 -->
<svg width="136pt" height="223pt"
 viewBox="0.00 0.00 136.00 223.00" xmlns="http://www.w3.org/2000/svg" xmlns:xlink="http://www.w3.org/1999/xlink">
<g id="graph0" class="graph" transform="scale(1 1) rotate(0) translate(4 219)">
<title>drake/examples/bead_on_a_wire</title>
<polygon fill="#ffffff" stroke="transparent" points="-4,4 -4,-219 132,-219 132,4 -4,4"/>
<g id="clust1" class="cluster">
<title>clusterdir_bf85a0c13984f214f436b2edc519c6dd</title>
<g id="a_clust1"><a xlink:href="dir_bf85a0c13984f214f436b2edc519c6dd.html" target="_top" xlink:title="examples">
<polygon fill="#ddddee" stroke="#000000" points="8,-136 8,-207 120,-207 120,-136 8,-136"/>
<text text-anchor="middle" x="64" y="-195" font-family="Helvetica,sans-Serif" font-size="10.00" fill="#000000">examples</text>
</a>
</g>
</g>
<!-- dir_7cd7164585a14f05c8fd6da0912114d6 -->
<g id="node1" class="node">
<title>dir_7cd7164585a14f05c8fd6da0912114d6</title>
<g id="a_node1"><a xlink:href="dir_7cd7164585a14f05c8fd6da0912114d6.html" target="_top" xlink:title="bead_on_a_wire">
<polygon fill="#eeeeff" stroke="#000000" points="111.5,-180 16.5,-180 16.5,-144 111.5,-144 111.5,-180"/>
<text text-anchor="middle" x="64" y="-159.5" font-family="Helvetica,sans-Serif" font-size="10.00" fill="#000000">bead_on_a_wire</text>
</a>
</g>
</g>
<!-- dir_a36da230f0956f48b11c85f7d599788f -->
<g id="node2" class="node">
<title>dir_a36da230f0956f48b11c85f7d599788f</title>
<g id="a_node2"><a xlink:href="dir_a36da230f0956f48b11c85f7d599788f.html" target="_top" xlink:title="common">
<polygon fill="#ffffff" stroke="#ff0000" points="92.5,-36 33.5,-36 33.5,0 92.5,0 92.5,-36"/>
<text text-anchor="middle" x="63" y="-15.5" font-family="Helvetica,sans-Serif" font-size="10.00" fill="#000000">common</text>
</a>
</g>
</g>
<!-- dir_7cd7164585a14f05c8fd6da0912114d6&#45;&gt;dir_a36da230f0956f48b11c85f7d599788f -->
<g id="edge1" class="edge">
<title>dir_7cd7164585a14f05c8fd6da0912114d6&#45;&gt;dir_a36da230f0956f48b11c85f7d599788f</title>
<path fill="none" stroke="#000000" d="M59.7325,-143.6221C57.538,-133.2314 55.0984,-119.963 54,-108 52.5372,-92.067 52.6803,-87.9455 54,-72 54.6945,-63.6085 55.9862,-54.5578 57.3786,-46.3092"/>
<polygon fill="#000000" stroke="#000000" points="60.8353,-46.8612 59.1587,-36.3999 53.9456,-45.6235 60.8353,-46.8612"/>
<g id="a_edge1&#45;headlabel"><a xlink:href="dir_000016_000006.html" target="_top" xlink:title="1">
<text text-anchor="middle" x="62.9944" y="-48.4012" font-family="Helvetica,sans-Serif" font-size="10.00" fill="#000000">1</text>
</a>
</g>
</g>
<!-- dir_b7a0e33b407baa23d8a077e33033c988 -->
<g id="node3" class="node">
<title>dir_b7a0e33b407baa23d8a077e33033c988</title>
<g id="a_node3"><a xlink:href="dir_b7a0e33b407baa23d8a077e33033c988.html" target="_top" xlink:title="systems">
<polygon fill="#ffffff" stroke="#ff0000" points="121,-108 63,-108 63,-72 121,-72 121,-108"/>
<text text-anchor="middle" x="92" y="-87.5" font-family="Helvetica,sans-Serif" font-size="10.00" fill="#000000">systems</text>
</a>
</g>
</g>
<!-- dir_7cd7164585a14f05c8fd6da0912114d6&#45;&gt;dir_b7a0e33b407baa23d8a077e33033c988 -->
<g id="edge2" class="edge">
<title>dir_7cd7164585a14f05c8fd6da0912114d6&#45;&gt;dir_b7a0e33b407baa23d8a077e33033c988</title>
<path fill="none" stroke="#000000" d="M71.0656,-143.8314C74.126,-135.9617 77.7779,-126.5712 81.1682,-117.8533"/>
<polygon fill="#000000" stroke="#000000" points="84.4768,-119.0019 84.8393,-108.4133 77.9527,-116.4647 84.4768,-119.0019"/>
<g id="a_edge2&#45;headlabel"><a xlink:href="dir_000016_000072.html" target="_top" xlink:title="1">
<text text-anchor="middle" x="85.8202" y="-120.8812" font-family="Helvetica,sans-Serif" font-size="10.00" fill="#000000">1</text>
</a>
</g>
</g>
<!-- dir_b7a0e33b407baa23d8a077e33033c988&#45;&gt;dir_a36da230f0956f48b11c85f7d599788f -->
<g id="edge3" class="edge">
<title>dir_b7a0e33b407baa23d8a077e33033c988&#45;&gt;dir_a36da230f0956f48b11c85f7d599788f</title>
<path fill="none" stroke="#000000" d="M84.6821,-71.8314C81.5124,-63.9617 77.73,-54.5712 74.2187,-45.8533"/>
<polygon fill="#000000" stroke="#000000" points="77.3992,-44.3815 70.4165,-36.4133 70.9061,-46.9968 77.3992,-44.3815"/>
<g id="a_edge3&#45;headlabel"><a xlink:href="dir_000072_000006.html" target="_top" xlink:title="370">
<text text-anchor="middle" x="81.3758" y="-44.155" font-family="Helvetica,sans-Serif" font-size="10.00" fill="#000000">370</text>
</a>
</g>
</g>
</g>
</svg>
