<?xml version="1.0" encoding="UTF-8" standalone="no"?>
<!DOCTYPE svg PUBLIC "-//W3C//DTD SVG 1.1//EN"
 "http://www.w3.org/Graphics/SVG/1.1/DTD/svg11.dtd">
<!-- Generated by graphviz version 2.40.1 (20161225.0304)
 -->
<!-- Title: drake/multibody/hydroelastics Pages: 1 -->
<svg width="157pt" height="295pt"
 viewBox="0.00 0.00 157.00 295.00" xmlns="http://www.w3.org/2000/svg" xmlns:xlink="http://www.w3.org/1999/xlink">
<g id="graph0" class="graph" transform="scale(1 1) rotate(0) translate(4 291)">
<title>drake/multibody/hydroelastics</title>
<polygon fill="#ffffff" stroke="transparent" points="-4,4 -4,-291 153,-291 153,4 -4,4"/>
<g id="clust1" class="cluster">
<title>clusterdir_39b8b3c6654246a9c12332c930bc7d3f</title>
<g id="a_clust1"><a xlink:href="dir_39b8b3c6654246a9c12332c930bc7d3f.html" target="_top" xlink:title="multibody">
<polygon fill="#ddddee" stroke="#000000" points="8,-208 8,-279 106,-279 106,-208 8,-208"/>
<text text-anchor="middle" x="57" y="-267" font-family="Helvetica,sans-Serif" font-size="10.00" fill="#000000">multibody</text>
</a>
</g>
</g>
<!-- dir_7ab4c64e4cc60ae42d6a2af801e650d6 -->
<g id="node1" class="node">
<title>dir_7ab4c64e4cc60ae42d6a2af801e650d6</title>
<g id="a_node1"><a xlink:href="dir_7ab4c64e4cc60ae42d6a2af801e650d6.html" target="_top" xlink:title="hydroelastics">
<polygon fill="#eeeeff" stroke="#000000" points="98,-252 16,-252 16,-216 98,-216 98,-252"/>
<text text-anchor="middle" x="57" y="-231.5" font-family="Helvetica,sans-Serif" font-size="10.00" fill="#000000">hydroelastics</text>
</a>
</g>
</g>
<!-- dir_fc0178d6978c9fa2cad6ef3e048a60a7 -->
<g id="node2" class="node">
<title>dir_fc0178d6978c9fa2cad6ef3e048a60a7</title>
<g id="a_node2"><a xlink:href="dir_fc0178d6978c9fa2cad6ef3e048a60a7.html" target="_top" xlink:title="math">
<polygon fill="none" stroke="#000000" points="95,-108 41,-108 41,-72 95,-72 95,-108"/>
<text text-anchor="middle" x="68" y="-87.5" font-family="Helvetica,sans-Serif" font-size="10.00" fill="#000000">math</text>
</a>
</g>
</g>
<!-- dir_7ab4c64e4cc60ae42d6a2af801e650d6&#45;&gt;dir_fc0178d6978c9fa2cad6ef3e048a60a7 -->
<g id="edge1" class="edge">
<title>dir_7ab4c64e4cc60ae42d6a2af801e650d6&#45;&gt;dir_fc0178d6978c9fa2cad6ef3e048a60a7</title>
<path fill="none" stroke="#000000" d="M58.3932,-215.7623C60.2694,-191.201 63.6269,-147.2474 65.8341,-118.3541"/>
<polygon fill="#000000" stroke="#000000" points="69.3462,-118.3272 66.6182,-108.0896 62.3666,-117.794 69.3462,-118.3272"/>
<g id="a_edge1&#45;headlabel"><a xlink:href="dir_000057_000007.html" target="_top" xlink:title="1">
<text text-anchor="middle" x="71.9036" y="-119.6276" font-family="Helvetica,sans-Serif" font-size="10.00" fill="#000000">1</text>
</a>
</g>
</g>
<!-- dir_a36da230f0956f48b11c85f7d599788f -->
<g id="node3" class="node">
<title>dir_a36da230f0956f48b11c85f7d599788f</title>
<g id="a_node3"><a xlink:href="dir_a36da230f0956f48b11c85f7d599788f.html" target="_top" xlink:title="common">
<polygon fill="#ffffff" stroke="#ff0000" points="97.5,-36 38.5,-36 38.5,0 97.5,0 97.5,-36"/>
<text text-anchor="middle" x="68" y="-15.5" font-family="Helvetica,sans-Serif" font-size="10.00" fill="#000000">common</text>
</a>
</g>
</g>
<!-- dir_7ab4c64e4cc60ae42d6a2af801e650d6&#45;&gt;dir_a36da230f0956f48b11c85f7d599788f -->
<g id="edge2" class="edge">
<title>dir_7ab4c64e4cc60ae42d6a2af801e650d6&#45;&gt;dir_a36da230f0956f48b11c85f7d599788f</title>
<path fill="none" stroke="#000000" d="M48.9741,-215.6501C36.8089,-185.2237 16.6612,-122.6606 32,-72 34.9564,-62.2355 40.3252,-52.6229 46.03,-44.2762"/>
<polygon fill="#000000" stroke="#000000" points="48.9414,-46.2239 52.0095,-36.0831 43.2871,-42.0973 48.9414,-46.2239"/>
<g id="a_edge2&#45;headlabel"><a xlink:href="dir_000057_000006.html" target="_top" xlink:title="6">
<text text-anchor="middle" x="49.1158" y="-48.3013" font-family="Helvetica,sans-Serif" font-size="10.00" fill="#000000">6</text>
</a>
</g>
</g>
<!-- dir_d739e095b49d8b72164589d00310017d -->
<g id="node4" class="node">
<title>dir_d739e095b49d8b72164589d00310017d</title>
<g id="a_node4"><a xlink:href="dir_d739e095b49d8b72164589d00310017d.html" target="_top" xlink:title="geometry">
<polygon fill="#ffffff" stroke="#ff0000" points="149,-180 85,-180 85,-144 149,-144 149,-180"/>
<text text-anchor="middle" x="117" y="-159.5" font-family="Helvetica,sans-Serif" font-size="10.00" fill="#000000">geometry</text>
</a>
</g>
</g>
<!-- dir_7ab4c64e4cc60ae42d6a2af801e650d6&#45;&gt;dir_d739e095b49d8b72164589d00310017d -->
<g id="edge3" class="edge">
<title>dir_7ab4c64e4cc60ae42d6a2af801e650d6&#45;&gt;dir_d739e095b49d8b72164589d00310017d</title>
<path fill="none" stroke="#000000" d="M72.1405,-215.8314C79.1217,-207.454 87.5391,-197.3531 95.1876,-188.1749"/>
<polygon fill="#000000" stroke="#000000" points="97.9425,-190.3362 101.6556,-180.4133 92.5649,-185.8548 97.9425,-190.3362"/>
<g id="a_edge3&#45;headlabel"><a xlink:href="dir_000057_000033.html" target="_top" xlink:title="9">
<text text-anchor="middle" x="97.8225" y="-192.4152" font-family="Helvetica,sans-Serif" font-size="10.00" fill="#000000">9</text>
</a>
</g>
</g>
<!-- dir_fc0178d6978c9fa2cad6ef3e048a60a7&#45;&gt;dir_a36da230f0956f48b11c85f7d599788f -->
<g id="edge4" class="edge">
<title>dir_fc0178d6978c9fa2cad6ef3e048a60a7&#45;&gt;dir_a36da230f0956f48b11c85f7d599788f</title>
<path fill="none" stroke="#000000" d="M62.0476,-71.8314C61.2972,-64.131 61.0763,-54.9743 61.3849,-46.4166"/>
<polygon fill="#000000" stroke="#000000" points="64.8792,-46.6161 62.024,-36.4133 57.8935,-46.1697 64.8792,-46.6161"/>
<g id="a_edge4&#45;headlabel"><a xlink:href="dir_000007_000006.html" target="_top" xlink:title="60">
<text text-anchor="middle" x="67.4836" y="-47.8844" font-family="Helvetica,sans-Serif" font-size="10.00" fill="#000000">60</text>
</a>
</g>
</g>
<!-- dir_a36da230f0956f48b11c85f7d599788f&#45;&gt;dir_fc0178d6978c9fa2cad6ef3e048a60a7 -->
<g id="edge5" class="edge">
<title>dir_a36da230f0956f48b11c85f7d599788f&#45;&gt;dir_fc0178d6978c9fa2cad6ef3e048a60a7</title>
<path fill="none" stroke="#000000" d="M73.976,-36.4133C74.7071,-44.0593 74.9203,-53.1084 74.6155,-61.5726"/>
<polygon fill="#000000" stroke="#000000" points="71.1048,-61.6264 73.9524,-71.8314 78.0902,-62.078 71.1048,-61.6264"/>
<g id="a_edge5&#45;headlabel"><a xlink:href="dir_000006_000007.html" target="_top" xlink:title="1">
<text text-anchor="middle" x="68.5032" y="-55.3562" font-family="Helvetica,sans-Serif" font-size="10.00" fill="#000000">1</text>
</a>
</g>
</g>
<!-- dir_d739e095b49d8b72164589d00310017d&#45;&gt;dir_fc0178d6978c9fa2cad6ef3e048a60a7 -->
<g id="edge6" class="edge">
<title>dir_d739e095b49d8b72164589d00310017d&#45;&gt;dir_fc0178d6978c9fa2cad6ef3e048a60a7</title>
<path fill="none" stroke="#000000" d="M104.6352,-143.8314C99.0491,-135.6232 92.337,-125.7606 86.1928,-116.7323"/>
<polygon fill="#000000" stroke="#000000" points="89.051,-114.7112 80.5313,-108.4133 83.264,-118.6496 89.051,-114.7112"/>
<g id="a_edge6&#45;headlabel"><a xlink:href="dir_000033_000007.html" target="_top" xlink:title="23">
<text text-anchor="middle" x="93.4207" y="-113.5855" font-family="Helvetica,sans-Serif" font-size="10.00" fill="#000000">23</text>
</a>
</g>
</g>
<!-- dir_d739e095b49d8b72164589d00310017d&#45;&gt;dir_a36da230f0956f48b11c85f7d599788f -->
<g id="edge7" class="edge">
<title>dir_d739e095b49d8b72164589d00310017d&#45;&gt;dir_a36da230f0956f48b11c85f7d599788f</title>
<path fill="none" stroke="#000000" d="M116.7133,-143.823C115.8883,-125.2139 113.09,-95.7363 104,-72 100.3514,-62.4725 94.7801,-52.9292 89.1027,-44.5732"/>
<polygon fill="#000000" stroke="#000000" points="91.8853,-42.4472 83.2239,-36.3455 86.1898,-46.5168 91.8853,-42.4472"/>
<g id="a_edge7&#45;headlabel"><a xlink:href="dir_000033_000006.html" target="_top" xlink:title="110">
<text text-anchor="middle" x="96.2852" y="-41.2213" font-family="Helvetica,sans-Serif" font-size="10.00" fill="#000000">110</text>
</a>
</g>
</g>
</g>
</svg>
