<?xml version="1.0" encoding="UTF-8" standalone="no"?>
<!DOCTYPE svg PUBLIC "-//W3C//DTD SVG 1.1//EN"
 "http://www.w3.org/Graphics/SVG/1.1/DTD/svg11.dtd">
<!-- Generated by graphviz version 2.40.1 (20161225.0304)
 -->
<!-- Title: drake/solvers Pages: 1 -->
<svg width="278pt" height="231pt"
 viewBox="0.00 0.00 278.00 231.00" xmlns="http://www.w3.org/2000/svg" xmlns:xlink="http://www.w3.org/1999/xlink">
<g id="graph0" class="graph" transform="scale(1 1) rotate(0) translate(4 227)">
<title>drake/solvers</title>
<polygon fill="#ffffff" stroke="transparent" points="-4,4 -4,-227 274,-227 274,4 -4,4"/>
<g id="clust1" class="cluster">
<title>clusterdir_f1666844dc41ec91c14125b680b7be1b</title>
<g id="a_clust1"><a xlink:href="dir_f1666844dc41ec91c14125b680b7be1b.html" target="_top" xlink:title="drake">
<polygon fill="#ddddee" stroke="#000000" points="8,-128 8,-215 262,-215 262,-128 8,-128"/>
<text text-anchor="middle" x="135" y="-203" font-family="Helvetica,sans-Serif" font-size="10.00" fill="#000000">drake</text>
</a>
</g>
</g>
<g id="clust2" class="cluster">
<title>clusterdir_c86b501450b8b8b59405c286cb030cc3</title>
<g id="a_clust2"><a xlink:href="dir_c86b501450b8b8b59405c286cb030cc3.html" target="_top">
<polygon fill="#eeeeff" stroke="#000000" points="16,-136 16,-188 254,-188 254,-136 16,-136"/>
</a>
</g>
</g>
<!-- dir_c86b501450b8b8b59405c286cb030cc3 -->
<g id="node1" class="node">
<title>dir_c86b501450b8b8b59405c286cb030cc3</title>
<text text-anchor="middle" x="51" y="-159.5" font-family="Helvetica,sans-Serif" font-size="10.00" fill="#000000">solvers</text>
</g>
<!-- dir_fc0178d6978c9fa2cad6ef3e048a60a7 -->
<g id="node4" class="node">
<title>dir_fc0178d6978c9fa2cad6ef3e048a60a7</title>
<g id="a_node4"><a xlink:href="dir_fc0178d6978c9fa2cad6ef3e048a60a7.html" target="_top" xlink:title="math">
<polygon fill="none" stroke="#000000" points="95,-108 41,-108 41,-72 95,-72 95,-108"/>
<text text-anchor="middle" x="68" y="-87.5" font-family="Helvetica,sans-Serif" font-size="10.00" fill="#000000">math</text>
</a>
</g>
</g>
<!-- dir_c86b501450b8b8b59405c286cb030cc3&#45;&gt;dir_fc0178d6978c9fa2cad6ef3e048a60a7 -->
<g id="edge3" class="edge">
<title>dir_c86b501450b8b8b59405c286cb030cc3&#45;&gt;dir_fc0178d6978c9fa2cad6ef3e048a60a7</title>
<path fill="none" stroke="#000000" d="M55.2898,-143.8314C57.108,-136.131 59.2699,-126.9743 61.2905,-118.4166"/>
<polygon fill="#000000" stroke="#000000" points="64.7608,-118.95 63.6524,-108.4133 57.9481,-117.3414 64.7608,-118.95"/>
<g id="a_edge3&#45;headlabel"><a xlink:href="dir_000070_000007.html" target="_top" xlink:title="2">
<text text-anchor="middle" x="66.6981" y="-120.6008" font-family="Helvetica,sans-Serif" font-size="10.00" fill="#000000">2</text>
</a>
</g>
</g>
<!-- dir_fb9a140248c02c8b3a74e805be9cb92d -->
<g id="node2" class="node">
<title>dir_fb9a140248c02c8b3a74e805be9cb92d</title>
<g id="a_node2"><a xlink:href="dir_fb9a140248c02c8b3a74e805be9cb92d.html" target="_top" xlink:title="fbstab">
<polygon fill="#ffffff" stroke="#ff0000" points="150,-180 96,-180 96,-144 150,-144 150,-180"/>
<text text-anchor="middle" x="123" y="-159.5" font-family="Helvetica,sans-Serif" font-size="10.00" fill="#000000">fbstab</text>
</a>
</g>
</g>
<!-- dir_a36da230f0956f48b11c85f7d599788f -->
<g id="node5" class="node">
<title>dir_a36da230f0956f48b11c85f7d599788f</title>
<g id="a_node5"><a xlink:href="dir_a36da230f0956f48b11c85f7d599788f.html" target="_top" xlink:title="common">
<polygon fill="#ffffff" stroke="#ff0000" points="124.5,-36 65.5,-36 65.5,0 124.5,0 124.5,-36"/>
<text text-anchor="middle" x="95" y="-15.5" font-family="Helvetica,sans-Serif" font-size="10.00" fill="#000000">common</text>
</a>
</g>
</g>
<!-- dir_fb9a140248c02c8b3a74e805be9cb92d&#45;&gt;dir_a36da230f0956f48b11c85f7d599788f -->
<g id="edge1" class="edge">
<title>dir_fb9a140248c02c8b3a74e805be9cb92d&#45;&gt;dir_a36da230f0956f48b11c85f7d599788f</title>
<path fill="none" stroke="#000000" d="M119.4538,-143.7623C114.6569,-119.0928 106.0561,-74.8598 100.4392,-45.9731"/>
<polygon fill="#000000" stroke="#000000" points="103.8619,-45.2377 98.5174,-36.0896 96.9905,-46.5738 103.8619,-45.2377"/>
<g id="a_edge1&#45;headlabel"><a xlink:href="dir_000071_000006.html" target="_top" xlink:title="13">
<text text-anchor="middle" x="107.335" y="-45.7243" font-family="Helvetica,sans-Serif" font-size="10.00" fill="#000000">13</text>
</a>
</g>
</g>
<!-- dir_3e1bf9ce46085c0e3ff6de174f1555d7 -->
<g id="node3" class="node">
<title>dir_3e1bf9ce46085c0e3ff6de174f1555d7</title>
<g id="a_node3"><a xlink:href="dir_3e1bf9ce46085c0e3ff6de174f1555d7.html" target="_top" xlink:title="test_utilities">
<polygon fill="#ffffff" stroke="#000000" points="245.5,-180 168.5,-180 168.5,-144 245.5,-144 245.5,-180"/>
<text text-anchor="middle" x="207" y="-159.5" font-family="Helvetica,sans-Serif" font-size="10.00" fill="#000000">test_utilities</text>
</a>
</g>
</g>
<!-- dir_3e1bf9ce46085c0e3ff6de174f1555d7&#45;&gt;dir_a36da230f0956f48b11c85f7d599788f -->
<g id="edge5" class="edge">
<title>dir_3e1bf9ce46085c0e3ff6de174f1555d7&#45;&gt;dir_a36da230f0956f48b11c85f7d599788f</title>
<path fill="none" stroke="#000000" d="M192.8151,-143.7623C173.207,-118.5518 137.708,-72.9103 115.2962,-44.0952"/>
<polygon fill="#000000" stroke="#000000" points="117.9719,-41.8344 109.0697,-36.0896 112.4464,-46.132 117.9719,-41.8344"/>
<g id="a_edge5&#45;headlabel"><a xlink:href="dir_000073_000006.html" target="_top" xlink:title="1">
<text text-anchor="middle" x="122.4199" y="-40.4286" font-family="Helvetica,sans-Serif" font-size="10.00" fill="#000000">1</text>
</a>
</g>
</g>
<!-- dir_fc0178d6978c9fa2cad6ef3e048a60a7&#45;&gt;dir_a36da230f0956f48b11c85f7d599788f -->
<g id="edge2" class="edge">
<title>dir_fc0178d6978c9fa2cad6ef3e048a60a7&#45;&gt;dir_a36da230f0956f48b11c85f7d599788f</title>
<path fill="none" stroke="#000000" d="M68.8608,-71.8314C71.0685,-63.8771 74.4239,-54.369 78.0776,-45.5723"/>
<polygon fill="#000000" stroke="#000000" points="81.2841,-46.9752 82.119,-36.4133 74.8798,-44.1492 81.2841,-46.9752"/>
<g id="a_edge2&#45;headlabel"><a xlink:href="dir_000007_000006.html" target="_top" xlink:title="60">
<text text-anchor="middle" x="82.4306" y="-48.91" font-family="Helvetica,sans-Serif" font-size="10.00" fill="#000000">60</text>
</a>
</g>
</g>
<!-- dir_a36da230f0956f48b11c85f7d599788f&#45;&gt;dir_fc0178d6978c9fa2cad6ef3e048a60a7 -->
<g id="edge4" class="edge">
<title>dir_a36da230f0956f48b11c85f7d599788f&#45;&gt;dir_fc0178d6978c9fa2cad6ef3e048a60a7</title>
<path fill="none" stroke="#000000" d="M94.071,-36.4133C91.8637,-44.3141 88.5414,-53.7132 84.9269,-62.417"/>
<polygon fill="#000000" stroke="#000000" points="81.6073,-61.27 80.7656,-71.8314 88.0097,-64.1 81.6073,-61.27"/>
<g id="a_edge4&#45;headlabel"><a xlink:href="dir_000006_000007.html" target="_top" xlink:title="1">
<text text-anchor="middle" x="80.4635" y="-54.3344" font-family="Helvetica,sans-Serif" font-size="10.00" fill="#000000">1</text>
</a>
</g>
</g>
</g>
</svg>
