<?xml version="1.0" encoding="UTF-8" standalone="no"?>
<!DOCTYPE svg PUBLIC "-//W3C//DTD SVG 1.1//EN"
 "http://www.w3.org/Graphics/SVG/1.1/DTD/svg11.dtd">
<!-- Generated by graphviz version 2.40.1 (20161225.0304)
 -->
<!-- Title: drake/common Pages: 1 -->
<!--zoomable 159 -->
<svg id="main" version="1.1" xmlns="http://www.w3.org/2000/svg" xmlns:xlink="http://www.w3.org/1999/xlink" xml:space="preserve" onload="init(evt)">
<style type="text/css"><![CDATA[
.edge:hover path { stroke: red; }
.edge:hover polygon { stroke: red; fill: red; }
]]></style>
<script type="text/javascript"><![CDATA[
var edges = document.getElementsByTagName('g');
if (edges && edges.length) {
  for (var i=0;i<edges.length;i++) {
    if (edges[i].id.substr(0,4)=='edge') {
      edges[i].setAttribute('class','edge');
    }
  }
}
]]></script>
        <defs>
                <circle id="rim" cx="0" cy="0" r="7"/>
                <circle id="rim2" cx="0" cy="0" r="3.5"/>
                <g id="zoomPlus">
                        <use xlink:href="#rim" fill="#404040">
                                <set attributeName="fill" to="#808080" begin="zoomplus.mouseover" end="zoomplus.mouseout"/>
                        </use>
                        <path d="M-4,0h8M0,-4v8" fill="none" stroke="white" stroke-width="1.5" pointer-events="none"/>
                </g>
                <g id="zoomMin">
                        <use xlink:href="#rim" fill="#404040">
                                <set attributeName="fill" to="#808080" begin="zoomminus.mouseover" end="zoomminus.mouseout"/>
                        </use>
                        <path d="M-4,0h8" fill="none" stroke="white" stroke-width="1.5" pointer-events="none"/>
                </g>
                <g id="dirArrow">
                        <path fill="none" stroke="white" stroke-width="1.5" d="M0,-3.0v7 M-2.5,-0.5L0,-3.0L2.5,-0.5"/>
                </g>
               <g id="resetDef">
                       <use xlink:href="#rim2" fill="#404040">
                               <set attributeName="fill" to="#808080" begin="reset.mouseover" end="reset.mouseout"/>
                       </use>
               </g>
        </defs>

<script type="text/javascript">
var viewWidth = 519;
var viewHeight = 159;
var sectionId = 'dynsection-0';
</script>
<script xlink:href="svgpan.js"/>
<svg id="graph" class="graph">
<g id="viewport">
<title>drake/common</title>
<polygon fill="#ffffff" stroke="transparent" points="-4,4 -4,-155 515,-155 515,4 -4,4"/>
<g id="clust1" class="cluster">
<title>clusterdir_f1666844dc41ec91c14125b680b7be1b</title>
<g id="a_clust1"><a xlink:href="dir_f1666844dc41ec91c14125b680b7be1b.html" target="_top" xlink:title="drake">
<polygon fill="#ddddee" stroke="#000000" points="8,-56 8,-143 503,-143 503,-56 8,-56"/>
<text text-anchor="middle" x="255.5" y="-131" font-family="Helvetica,sans-Serif" font-size="10.00" fill="#000000">drake</text>
</a>
</g>
</g>
<g id="clust2" class="cluster">
<title>clusterdir_a36da230f0956f48b11c85f7d599788f</title>
<g id="a_clust2"><a xlink:href="dir_a36da230f0956f48b11c85f7d599788f.html" target="_top">
<polygon fill="#eeeeff" stroke="#000000" points="16,-64 16,-116 495,-116 495,-64 16,-64"/>
</a>
</g>
</g>
<!-- dir_a36da230f0956f48b11c85f7d599788f -->
<g id="node1" class="node">
<title>dir_a36da230f0956f48b11c85f7d599788f</title>
<text text-anchor="middle" x="457" y="-87.5" font-family="Helvetica,sans-Serif" font-size="10.00" fill="#000000">common</text>
</g>
<!-- dir_48e4d4a473e039105b12a2118c672ffe -->
<g id="node2" class="node">
<title>dir_48e4d4a473e039105b12a2118c672ffe</title>
<g id="a_node2"><a xlink:href="dir_48e4d4a473e039105b12a2118c672ffe.html" target="_top" xlink:title="proto">
<polygon fill="#ffffff" stroke="#000000" points="409,-108 355,-108 355,-72 409,-72 409,-108"/>
<text text-anchor="middle" x="382" y="-87.5" font-family="Helvetica,sans-Serif" font-size="10.00" fill="#000000">proto</text>
</a>
</g>
</g>
<!-- dir_a361a47504c6f179d0e8aaa8b79dec3e -->
<g id="node3" class="node">
<title>dir_a361a47504c6f179d0e8aaa8b79dec3e</title>
<g id="a_node3"><a xlink:href="dir_a361a47504c6f179d0e8aaa8b79dec3e.html" target="_top" xlink:title="schema">
<polygon fill="#ffffff" stroke="#000000" points="336.5,-108 281.5,-108 281.5,-72 336.5,-72 336.5,-108"/>
<text text-anchor="middle" x="309" y="-87.5" font-family="Helvetica,sans-Serif" font-size="10.00" fill="#000000">schema</text>
</a>
</g>
</g>
<!-- dir_fc0178d6978c9fa2cad6ef3e048a60a7 -->
<g id="node7" class="node">
<title>dir_fc0178d6978c9fa2cad6ef3e048a60a7</title>
<g id="a_node7"><a xlink:href="dir_fc0178d6978c9fa2cad6ef3e048a60a7.html" target="_top" xlink:title="math">
<polygon fill="none" stroke="#000000" points="336,-36 282,-36 282,0 336,0 336,-36"/>
<text text-anchor="middle" x="309" y="-15.5" font-family="Helvetica,sans-Serif" font-size="10.00" fill="#000000">math</text>
</a>
</g>
</g>
<!-- dir_a361a47504c6f179d0e8aaa8b79dec3e&#45;&gt;dir_fc0178d6978c9fa2cad6ef3e048a60a7 -->
<g id="edge2" class="edge">
<title>dir_a361a47504c6f179d0e8aaa8b79dec3e&#45;&gt;dir_fc0178d6978c9fa2cad6ef3e048a60a7</title>
<path fill="none" stroke="#000000" d="M309,-71.8314C309,-64.131 309,-54.9743 309,-46.4166"/>
<polygon fill="#000000" stroke="#000000" points="312.5001,-46.4132 309,-36.4133 305.5001,-46.4133 312.5001,-46.4132"/>
<g id="a_edge2&#45;headlabel"><a xlink:href="dir_000009_000007.html" target="_top" xlink:title="3">
<text text-anchor="middle" x="315.3393" y="-47.5079" font-family="Helvetica,sans-Serif" font-size="10.00" fill="#000000">3</text>
</a>
</g>
</g>
<!-- dir_0d10be3e24b4d05732d552ad443cc60a -->
<g id="node4" class="node">
<title>dir_0d10be3e24b4d05732d552ad443cc60a</title>
<g id="a_node4"><a xlink:href="dir_0d10be3e24b4d05732d552ad443cc60a.html" target="_top" xlink:title="test_utilities">
<polygon fill="#ffffff" stroke="#000000" points="263.5,-108 186.5,-108 186.5,-72 263.5,-72 263.5,-108"/>
<text text-anchor="middle" x="225" y="-87.5" font-family="Helvetica,sans-Serif" font-size="10.00" fill="#000000">test_utilities</text>
</a>
</g>
</g>
<!-- dir_5f7a2023092b91a1e02609fa2c012f50 -->
<g id="node5" class="node">
<title>dir_5f7a2023092b91a1e02609fa2c012f50</title>
<g id="a_node5"><a xlink:href="dir_5f7a2023092b91a1e02609fa2c012f50.html" target="_top" xlink:title="trajectories">
<polygon fill="#ffffff" stroke="#000000" points="168,-108 96,-108 96,-72 168,-72 168,-108"/>
<text text-anchor="middle" x="132" y="-87.5" font-family="Helvetica,sans-Serif" font-size="10.00" fill="#000000">trajectories</text>
</a>
</g>
</g>
<!-- dir_5f7a2023092b91a1e02609fa2c012f50&#45;&gt;dir_fc0178d6978c9fa2cad6ef3e048a60a7 -->
<g id="edge3" class="edge">
<title>dir_5f7a2023092b91a1e02609fa2c012f50&#45;&gt;dir_fc0178d6978c9fa2cad6ef3e048a60a7</title>
<path fill="none" stroke="#000000" d="M153.4316,-71.7118C160.85,-66.0655 169.455,-60.2274 178,-56 208.1132,-41.1023 245.0839,-31.046 272.0624,-25.0405"/>
<polygon fill="#000000" stroke="#000000" points="272.834,-28.4547 281.8778,-22.9355 271.3661,-21.6103 272.834,-28.4547"/>
<g id="a_edge3&#45;headlabel"><a xlink:href="dir_000011_000007.html" target="_top" xlink:title="1">
<text text-anchor="middle" x="269.9146" y="-29.4845" font-family="Helvetica,sans-Serif" font-size="10.00" fill="#000000">1</text>
</a>
</g>
</g>
<!-- dir_a475b9d7562d90f72dfa4821e049558f -->
<g id="node6" class="node">
<title>dir_a475b9d7562d90f72dfa4821e049558f</title>
<g id="a_node6"><a xlink:href="dir_a475b9d7562d90f72dfa4821e049558f.html" target="_top" xlink:title="yaml">
<polygon fill="#ffffff" stroke="#000000" points="78,-108 24,-108 24,-72 78,-72 78,-108"/>
<text text-anchor="middle" x="51" y="-87.5" font-family="Helvetica,sans-Serif" font-size="10.00" fill="#000000">yaml</text>
</a>
</g>
</g>
<!-- dir_fc0178d6978c9fa2cad6ef3e048a60a7&#45;&gt;dir_a36da230f0956f48b11c85f7d599788f -->
<g id="edge1" class="edge">
<title>dir_fc0178d6978c9fa2cad6ef3e048a60a7&#45;&gt;dir_a36da230f0956f48b11c85f7d599788f</title>
<path fill="none" stroke="#000000" d="M336.2178,-24.3838C359.0516,-30.4499 392.0061,-40.9011 418,-56 422.5439,-58.6394 427.0476,-61.8479 431.2923,-65.2277"/>
<polygon fill="#000000" stroke="#000000" points="429.1884,-68.0327 439.0781,-71.8335 433.7172,-62.6951 429.1884,-68.0327"/>
<g id="a_edge1&#45;headlabel"><a xlink:href="dir_000007_000006.html" target="_top" xlink:title="60">
<text text-anchor="middle" x="424.6106" y="-65.3722" font-family="Helvetica,sans-Serif" font-size="10.00" fill="#000000">60</text>
</a>
</g>
</g>
</g>
</svg>
        <g id="navigator" transform="translate(0 0)" fill="#404254">
                <rect fill="#f2f5e9" fill-opacity="0.5" stroke="#606060" stroke-width=".5" x="0" y="0" width="60" height="60"/>
                <use id="zoomplus" xlink:href="#zoomPlus" x="17" y="9" onmousedown="handleZoom(evt,'in')"/>
                <use id="zoomminus" xlink:href="#zoomMin" x="42" y="9" onmousedown="handleZoom(evt,'out')"/>
                <use id="reset" xlink:href="#resetDef" x="30" y="36" onmousedown="handleReset()"/>
                <g id="arrowUp" xlink:href="#dirArrow" transform="translate(30 24)" onmousedown="handlePan(0,-1)">
                  <use xlink:href="#rim" fill="#404040">
                        <set attributeName="fill" to="#808080" begin="arrowUp.mouseover" end="arrowUp.mouseout"/>
                  </use>
                  <path fill="none" stroke="white" stroke-width="1.5" d="M0,-3.0v7 M-2.5,-0.5L0,-3.0L2.5,-0.5"/>
                </g>
                <g id="arrowRight" xlink:href="#dirArrow" transform="rotate(90) translate(36 -43)" onmousedown="handlePan(1,0)">
                  <use xlink:href="#rim" fill="#404040">
                        <set attributeName="fill" to="#808080" begin="arrowRight.mouseover" end="arrowRight.mouseout"/>
                  </use>
                  <path fill="none" stroke="white" stroke-width="1.5" d="M0,-3.0v7 M-2.5,-0.5L0,-3.0L2.5,-0.5"/>
                </g>
                <g id="arrowDown" xlink:href="#dirArrow" transform="rotate(180) translate(-30 -48)" onmousedown="handlePan(0,1)">
                  <use xlink:href="#rim" fill="#404040">
                        <set attributeName="fill" to="#808080" begin="arrowDown.mouseover" end="arrowDown.mouseout"/>
                  </use>
                  <path fill="none" stroke="white" stroke-width="1.5" d="M0,-3.0v7 M-2.5,-0.5L0,-3.0L2.5,-0.5"/>
                </g>
                <g id="arrowLeft" xlink:href="#dirArrow" transform="rotate(270) translate(-36 17)" onmousedown="handlePan(-1,0)">
                  <use xlink:href="#rim" fill="#404040">
                        <set attributeName="fill" to="#808080" begin="arrowLeft.mouseover" end="arrowLeft.mouseout"/>
                  </use>
                  <path fill="none" stroke="white" stroke-width="1.5" d="M0,-3.0v7 M-2.5,-0.5L0,-3.0L2.5,-0.5"/>
                </g>
        </g>
        <svg viewBox="0 0 15 15" width="100%" height="30px" preserveAspectRatio="xMaxYMin meet">
         <g id="arrow_out" transform="scale(0.3 0.3)">
          <a xlink:href="dir_a36da230f0956f48b11c85f7d599788f_dep_org.svg" target="_base">
           <rect id="button" ry="5" rx="5" y="6" x="6" height="38" width="38"
                fill="#f2f5e9" fill-opacity="0.5" stroke="#606060" stroke-width="1.0"/>
           <path id="arrow"
             d="M 11.500037,31.436501 C 11.940474,20.09759 22.043105,11.32322 32.158766,21.979434 L 37.068811,17.246167 C 37.068811,17.246167 37.088388,32 37.088388,32 L 22.160133,31.978069 C 22.160133,31.978069 26.997745,27.140456 26.997745,27.140456 C 18.528582,18.264221 13.291696,25.230495 11.500037,31.436501 z"
             style="fill:#404040;"/>
          </a>
         </g>
        </svg>
</svg>
