<?xml version="1.0" encoding="UTF-8" standalone="no"?>
<!DOCTYPE svg PUBLIC "-//W3C//DTD SVG 1.1//EN"
 "http://www.w3.org/Graphics/SVG/1.1/DTD/svg11.dtd">
<!-- Generated by graphviz version 2.40.1 (20161225.0304)
 -->
<!-- Title: drake/multibody/triangle_quadrature Pages: 1 -->
<svg width="154pt" height="151pt"
 viewBox="0.00 0.00 154.00 151.00" xmlns="http://www.w3.org/2000/svg" xmlns:xlink="http://www.w3.org/1999/xlink">
<g id="graph0" class="graph" transform="scale(1 1) rotate(0) translate(4 147)">
<title>drake/multibody/triangle_quadrature</title>
<polygon fill="#ffffff" stroke="transparent" points="-4,4 -4,-147 150,-147 150,4 -4,4"/>
<g id="clust1" class="cluster">
<title>clusterdir_39b8b3c6654246a9c12332c930bc7d3f</title>
<g id="a_clust1"><a xlink:href="dir_39b8b3c6654246a9c12332c930bc7d3f.html" target="_top" xlink:title="multibody">
<polygon fill="#ddddee" stroke="#000000" points="8,-64 8,-135 138,-135 138,-64 8,-64"/>
<text text-anchor="middle" x="73" y="-123" font-family="Helvetica,sans-Serif" font-size="10.00" fill="#000000">multibody</text>
</a>
</g>
</g>
<!-- dir_358247dff0bca675d227b56e1e6e52cc -->
<g id="node1" class="node">
<title>dir_358247dff0bca675d227b56e1e6e52cc</title>
<g id="a_node1"><a xlink:href="dir_358247dff0bca675d227b56e1e6e52cc.html" target="_top" xlink:title="triangle_quadrature">
<polygon fill="#eeeeff" stroke="#000000" points="129.5,-108 16.5,-108 16.5,-72 129.5,-72 129.5,-108"/>
<text text-anchor="middle" x="73" y="-87.5" font-family="Helvetica,sans-Serif" font-size="10.00" fill="#000000">triangle_quadrature</text>
</a>
</g>
</g>
<!-- dir_a36da230f0956f48b11c85f7d599788f -->
<g id="node2" class="node">
<title>dir_a36da230f0956f48b11c85f7d599788f</title>
<g id="a_node2"><a xlink:href="dir_a36da230f0956f48b11c85f7d599788f.html" target="_top" xlink:title="common">
<polygon fill="#ffffff" stroke="#ff0000" points="102.5,-36 43.5,-36 43.5,0 102.5,0 102.5,-36"/>
<text text-anchor="middle" x="73" y="-15.5" font-family="Helvetica,sans-Serif" font-size="10.00" fill="#000000">common</text>
</a>
</g>
</g>
<!-- dir_358247dff0bca675d227b56e1e6e52cc&#45;&gt;dir_a36da230f0956f48b11c85f7d599788f -->
<g id="edge1" class="edge">
<title>dir_358247dff0bca675d227b56e1e6e52cc&#45;&gt;dir_a36da230f0956f48b11c85f7d599788f</title>
<path fill="none" stroke="#000000" d="M73,-71.8314C73,-64.131 73,-54.9743 73,-46.4166"/>
<polygon fill="#000000" stroke="#000000" points="76.5001,-46.4132 73,-36.4133 69.5001,-46.4133 76.5001,-46.4132"/>
<g id="a_edge1&#45;headlabel"><a xlink:href="dir_000067_000006.html" target="_top" xlink:title="2">
<text text-anchor="middle" x="79.3393" y="-47.5079" font-family="Helvetica,sans-Serif" font-size="10.00" fill="#000000">2</text>
</a>
</g>
</g>
</g>
</svg>
