<?xml version="1.0" encoding="UTF-8" standalone="no"?>
<!DOCTYPE svg PUBLIC "-//W3C//DTD SVG 1.1//EN"
 "http://www.w3.org/Graphics/SVG/1.1/DTD/svg11.dtd">
<!-- Generated by graphviz version 2.40.1 (20161225.0304)
 -->
<!-- Title: drake/manipulation/schunk_wsg Pages: 1 -->
<svg width="119pt" height="223pt"
 viewBox="0.00 0.00 119.00 223.00" xmlns="http://www.w3.org/2000/svg" xmlns:xlink="http://www.w3.org/1999/xlink">
<g id="graph0" class="graph" transform="scale(1 1) rotate(0) translate(4 219)">
<title>drake/manipulation/schunk_wsg</title>
<polygon fill="#ffffff" stroke="transparent" points="-4,4 -4,-219 115,-219 115,4 -4,4"/>
<g id="clust1" class="cluster">
<title>clusterdir_758aa030403a70af025108ac41d12d0d</title>
<g id="a_clust1"><a xlink:href="dir_758aa030403a70af025108ac41d12d0d.html" target="_top" xlink:title="manipulation">
<polygon fill="#ddddee" stroke="#000000" points="8,-136 8,-207 100,-207 100,-136 8,-136"/>
<text text-anchor="middle" x="54" y="-195" font-family="Helvetica,sans-Serif" font-size="10.00" fill="#000000">manipulation</text>
</a>
</g>
</g>
<!-- dir_6c83ef925edcdfdf0a2f376978e93167 -->
<g id="node1" class="node">
<title>dir_6c83ef925edcdfdf0a2f376978e93167</title>
<g id="a_node1"><a xlink:href="dir_6c83ef925edcdfdf0a2f376978e93167.html" target="_top" xlink:title="schunk_wsg">
<polygon fill="#eeeeff" stroke="#000000" points="92,-180 16,-180 16,-144 92,-144 92,-180"/>
<text text-anchor="middle" x="54" y="-159.5" font-family="Helvetica,sans-Serif" font-size="10.00" fill="#000000">schunk_wsg</text>
</a>
</g>
</g>
<!-- dir_a36da230f0956f48b11c85f7d599788f -->
<g id="node2" class="node">
<title>dir_a36da230f0956f48b11c85f7d599788f</title>
<g id="a_node2"><a xlink:href="dir_a36da230f0956f48b11c85f7d599788f.html" target="_top" xlink:title="common">
<polygon fill="#ffffff" stroke="#ff0000" points="82.5,-36 23.5,-36 23.5,0 82.5,0 82.5,-36"/>
<text text-anchor="middle" x="53" y="-15.5" font-family="Helvetica,sans-Serif" font-size="10.00" fill="#000000">common</text>
</a>
</g>
</g>
<!-- dir_6c83ef925edcdfdf0a2f376978e93167&#45;&gt;dir_a36da230f0956f48b11c85f7d599788f -->
<g id="edge2" class="edge">
<title>dir_6c83ef925edcdfdf0a2f376978e93167&#45;&gt;dir_a36da230f0956f48b11c85f7d599788f</title>
<path fill="none" stroke="#000000" d="M49.7325,-143.6221C47.538,-133.2314 45.0984,-119.963 44,-108 42.5372,-92.067 42.6803,-87.9455 44,-72 44.6945,-63.6085 45.9862,-54.5578 47.3786,-46.3092"/>
<polygon fill="#000000" stroke="#000000" points="50.8353,-46.8612 49.1587,-36.3999 43.9456,-45.6235 50.8353,-46.8612"/>
<g id="a_edge2&#45;headlabel"><a xlink:href="dir_000046_000006.html" target="_top" xlink:title="4">
<text text-anchor="middle" x="52.9944" y="-48.4012" font-family="Helvetica,sans-Serif" font-size="10.00" fill="#000000">4</text>
</a>
</g>
</g>
<!-- dir_b7a0e33b407baa23d8a077e33033c988 -->
<g id="node3" class="node">
<title>dir_b7a0e33b407baa23d8a077e33033c988</title>
<g id="a_node3"><a xlink:href="dir_b7a0e33b407baa23d8a077e33033c988.html" target="_top" xlink:title="systems">
<polygon fill="#ffffff" stroke="#ff0000" points="111,-108 53,-108 53,-72 111,-72 111,-108"/>
<text text-anchor="middle" x="82" y="-87.5" font-family="Helvetica,sans-Serif" font-size="10.00" fill="#000000">systems</text>
</a>
</g>
</g>
<!-- dir_6c83ef925edcdfdf0a2f376978e93167&#45;&gt;dir_b7a0e33b407baa23d8a077e33033c988 -->
<g id="edge3" class="edge">
<title>dir_6c83ef925edcdfdf0a2f376978e93167&#45;&gt;dir_b7a0e33b407baa23d8a077e33033c988</title>
<path fill="none" stroke="#000000" d="M61.0656,-143.8314C64.126,-135.9617 67.7779,-126.5712 71.1682,-117.8533"/>
<polygon fill="#000000" stroke="#000000" points="74.4768,-119.0019 74.8393,-108.4133 67.9527,-116.4647 74.4768,-119.0019"/>
<g id="a_edge3&#45;headlabel"><a xlink:href="dir_000046_000072.html" target="_top" xlink:title="9">
<text text-anchor="middle" x="75.8202" y="-120.8812" font-family="Helvetica,sans-Serif" font-size="10.00" fill="#000000">9</text>
</a>
</g>
</g>
<!-- dir_b7a0e33b407baa23d8a077e33033c988&#45;&gt;dir_a36da230f0956f48b11c85f7d599788f -->
<g id="edge1" class="edge">
<title>dir_b7a0e33b407baa23d8a077e33033c988&#45;&gt;dir_a36da230f0956f48b11c85f7d599788f</title>
<path fill="none" stroke="#000000" d="M74.6821,-71.8314C71.5124,-63.9617 67.73,-54.5712 64.2187,-45.8533"/>
<polygon fill="#000000" stroke="#000000" points="67.3992,-44.3815 60.4165,-36.4133 60.9061,-46.9968 67.3992,-44.3815"/>
<g id="a_edge1&#45;headlabel"><a xlink:href="dir_000072_000006.html" target="_top" xlink:title="370">
<text text-anchor="middle" x="71.3758" y="-44.155" font-family="Helvetica,sans-Serif" font-size="10.00" fill="#000000">370</text>
</a>
</g>
</g>
</g>
</svg>
