<?xml version="1.0" encoding="UTF-8" standalone="no"?>
<!DOCTYPE svg PUBLIC "-//W3C//DTD SVG 1.1//EN"
 "http://www.w3.org/Graphics/SVG/1.1/DTD/svg11.dtd">
<!-- Generated by graphviz version 2.40.1 (20161225.0304)
 -->
<!-- Title: drake/systems/estimators Pages: 1 -->
<svg width="144pt" height="295pt"
 viewBox="0.00 0.00 144.00 295.00" xmlns="http://www.w3.org/2000/svg" xmlns:xlink="http://www.w3.org/1999/xlink">
<g id="graph0" class="graph" transform="scale(1 1) rotate(0) translate(4 291)">
<title>drake/systems/estimators</title>
<polygon fill="#ffffff" stroke="transparent" points="-4,4 -4,-291 140,-291 140,4 -4,4"/>
<g id="clust1" class="cluster">
<title>clusterdir_b7a0e33b407baa23d8a077e33033c988</title>
<g id="a_clust1"><a xlink:href="dir_b7a0e33b407baa23d8a077e33033c988.html" target="_top" xlink:title="systems">
<polygon fill="#ddddee" stroke="#000000" points="42,-208 42,-279 128,-279 128,-208 42,-208"/>
<text text-anchor="middle" x="85" y="-267" font-family="Helvetica,sans-Serif" font-size="10.00" fill="#000000">systems</text>
</a>
</g>
</g>
<!-- dir_cf88c7d0113e9d5800c784430b052e12 -->
<g id="node1" class="node">
<title>dir_cf88c7d0113e9d5800c784430b052e12</title>
<g id="a_node1"><a xlink:href="dir_cf88c7d0113e9d5800c784430b052e12.html" target="_top" xlink:title="estimators">
<polygon fill="#eeeeff" stroke="#000000" points="119.5,-252 50.5,-252 50.5,-216 119.5,-216 119.5,-252"/>
<text text-anchor="middle" x="85" y="-231.5" font-family="Helvetica,sans-Serif" font-size="10.00" fill="#000000">estimators</text>
</a>
</g>
</g>
<!-- dir_2186f45272e5c29e3ac18ec762ab7501 -->
<g id="node2" class="node">
<title>dir_2186f45272e5c29e3ac18ec762ab7501</title>
<g id="a_node2"><a xlink:href="dir_2186f45272e5c29e3ac18ec762ab7501.html" target="_top" xlink:title="framework">
<polygon fill="#ffffff" stroke="#ff0000" points="70,-108 0,-108 0,-72 70,-72 70,-108"/>
<text text-anchor="middle" x="35" y="-87.5" font-family="Helvetica,sans-Serif" font-size="10.00" fill="#000000">framework</text>
</a>
</g>
</g>
<!-- dir_cf88c7d0113e9d5800c784430b052e12&#45;&gt;dir_2186f45272e5c29e3ac18ec762ab7501 -->
<g id="edge4" class="edge">
<title>dir_cf88c7d0113e9d5800c784430b052e12&#45;&gt;dir_2186f45272e5c29e3ac18ec762ab7501</title>
<path fill="none" stroke="#000000" d="M66.4519,-215.7012C57.7728,-205.9567 48.2182,-193.2626 43,-180 35.2702,-160.354 33.4568,-136.4899 33.4755,-118.2728"/>
<polygon fill="#000000" stroke="#000000" points="36.9747,-118.3392 33.6672,-108.2739 29.976,-118.2049 36.9747,-118.3392"/>
<g id="a_edge4&#45;headlabel"><a xlink:href="dir_000078_000079.html" target="_top" xlink:title="1">
<text text-anchor="middle" x="39.7446" y="-119.4876" font-family="Helvetica,sans-Serif" font-size="10.00" fill="#000000">1</text>
</a>
</g>
</g>
<!-- dir_55f8630d5466d97e74952e939680a0a0 -->
<g id="node3" class="node">
<title>dir_55f8630d5466d97e74952e939680a0a0</title>
<g id="a_node3"><a xlink:href="dir_55f8630d5466d97e74952e939680a0a0.html" target="_top" xlink:title="primitives">
<polygon fill="none" stroke="#000000" points="118,-180 52,-180 52,-144 118,-144 118,-180"/>
<text text-anchor="middle" x="85" y="-159.5" font-family="Helvetica,sans-Serif" font-size="10.00" fill="#000000">primitives</text>
</a>
</g>
</g>
<!-- dir_cf88c7d0113e9d5800c784430b052e12&#45;&gt;dir_55f8630d5466d97e74952e939680a0a0 -->
<g id="edge5" class="edge">
<title>dir_cf88c7d0113e9d5800c784430b052e12&#45;&gt;dir_55f8630d5466d97e74952e939680a0a0</title>
<path fill="none" stroke="#000000" d="M85,-215.8314C85,-208.131 85,-198.9743 85,-190.4166"/>
<polygon fill="#000000" stroke="#000000" points="88.5001,-190.4132 85,-180.4133 81.5001,-190.4133 88.5001,-190.4132"/>
<g id="a_edge5&#45;headlabel"><a xlink:href="dir_000078_000085.html" target="_top" xlink:title="1">
<text text-anchor="middle" x="91.3393" y="-191.5079" font-family="Helvetica,sans-Serif" font-size="10.00" fill="#000000">1</text>
</a>
</g>
</g>
<!-- dir_a36da230f0956f48b11c85f7d599788f -->
<g id="node4" class="node">
<title>dir_a36da230f0956f48b11c85f7d599788f</title>
<g id="a_node4"><a xlink:href="dir_a36da230f0956f48b11c85f7d599788f.html" target="_top" xlink:title="common">
<polygon fill="#ffffff" stroke="#ff0000" points="127.5,-36 68.5,-36 68.5,0 127.5,0 127.5,-36"/>
<text text-anchor="middle" x="98" y="-15.5" font-family="Helvetica,sans-Serif" font-size="10.00" fill="#000000">common</text>
</a>
</g>
</g>
<!-- dir_cf88c7d0113e9d5800c784430b052e12&#45;&gt;dir_a36da230f0956f48b11c85f7d599788f -->
<g id="edge6" class="edge">
<title>dir_cf88c7d0113e9d5800c784430b052e12&#45;&gt;dir_a36da230f0956f48b11c85f7d599788f</title>
<path fill="none" stroke="#000000" d="M104.05,-215.8859C112.857,-206.1885 122.3746,-193.4808 127,-180 142.6303,-134.445 125.1041,-78.6456 111.3085,-45.8431"/>
<polygon fill="#000000" stroke="#000000" points="114.4067,-44.1928 107.1877,-36.4381 107.9951,-47.0021 114.4067,-44.1928"/>
<g id="a_edge6&#45;headlabel"><a xlink:href="dir_000078_000006.html" target="_top" xlink:title="3">
<text text-anchor="middle" x="118.4498" y="-43.8458" font-family="Helvetica,sans-Serif" font-size="10.00" fill="#000000">3</text>
</a>
</g>
</g>
<!-- dir_2186f45272e5c29e3ac18ec762ab7501&#45;&gt;dir_a36da230f0956f48b11c85f7d599788f -->
<g id="edge1" class="edge">
<title>dir_2186f45272e5c29e3ac18ec762ab7501&#45;&gt;dir_a36da230f0956f48b11c85f7d599788f</title>
<path fill="none" stroke="#000000" d="M50.8976,-71.8314C58.2278,-63.454 67.066,-53.3531 75.0969,-44.1749"/>
<polygon fill="#000000" stroke="#000000" points="77.9373,-46.2438 81.8884,-36.4133 72.6693,-41.6343 77.9373,-46.2438"/>
<g id="a_edge1&#45;headlabel"><a xlink:href="dir_000079_000006.html" target="_top" xlink:title="172">
<text text-anchor="middle" x="77.7071" y="-48.3187" font-family="Helvetica,sans-Serif" font-size="10.00" fill="#000000">172</text>
</a>
</g>
</g>
<!-- dir_55f8630d5466d97e74952e939680a0a0&#45;&gt;dir_2186f45272e5c29e3ac18ec762ab7501 -->
<g id="edge2" class="edge">
<title>dir_55f8630d5466d97e74952e939680a0a0&#45;&gt;dir_2186f45272e5c29e3ac18ec762ab7501</title>
<path fill="none" stroke="#000000" d="M72.3829,-143.8314C66.6828,-135.6232 59.8337,-125.7606 53.5641,-116.7323"/>
<polygon fill="#000000" stroke="#000000" points="56.3658,-114.6306 47.787,-108.4133 50.6162,-118.6234 56.3658,-114.6306"/>
<g id="a_edge2&#45;headlabel"><a xlink:href="dir_000085_000079.html" target="_top" xlink:title="37">
<text text-anchor="middle" x="60.7482" y="-113.4636" font-family="Helvetica,sans-Serif" font-size="10.00" fill="#000000">37</text>
</a>
</g>
</g>
<!-- dir_55f8630d5466d97e74952e939680a0a0&#45;&gt;dir_a36da230f0956f48b11c85f7d599788f -->
<g id="edge3" class="edge">
<title>dir_55f8630d5466d97e74952e939680a0a0&#45;&gt;dir_a36da230f0956f48b11c85f7d599788f</title>
<path fill="none" stroke="#000000" d="M86.6465,-143.7623C88.8638,-119.201 92.8318,-75.2474 95.4403,-46.3541"/>
<polygon fill="#000000" stroke="#000000" points="98.9535,-46.3638 96.3669,-36.0896 91.9819,-45.7344 98.9535,-46.3638"/>
<g id="a_edge3&#45;headlabel"><a xlink:href="dir_000085_000006.html" target="_top" xlink:title="54">
<text text-anchor="middle" x="101.4582" y="-47.6991" font-family="Helvetica,sans-Serif" font-size="10.00" fill="#000000">54</text>
</a>
</g>
</g>
</g>
</svg>
