<?xml version="1.0" encoding="UTF-8" standalone="no"?>
<!DOCTYPE svg PUBLIC "-//W3C//DTD SVG 1.1//EN"
 "http://www.w3.org/Graphics/SVG/1.1/DTD/svg11.dtd">
<!-- Generated by graphviz version 2.40.1 (20161225.0304)
 -->
<!-- Title: drake/common Pages: 1 -->
<svg width="446pt" height="159pt"
 viewBox="0.00 0.00 446.00 159.00" xmlns="http://www.w3.org/2000/svg" xmlns:xlink="http://www.w3.org/1999/xlink">
<g id="graph0" class="graph" transform="scale(1 1) rotate(0) translate(4 155)">
<title>drake/common</title>
<polygon fill="#ffffff" stroke="transparent" points="-4,4 -4,-155 442,-155 442,4 -4,4"/>
<g id="clust1" class="cluster">
<title>clusterdir_f1666844dc41ec91c14125b680b7be1b</title>
<g id="a_clust1"><a xlink:href="dir_f1666844dc41ec91c14125b680b7be1b.html" target="_top" xlink:title="drake">
<polygon fill="#ddddee" stroke="#000000" points="8,-56 8,-143 430,-143 430,-56 8,-56"/>
<text text-anchor="middle" x="219" y="-131" font-family="Helvetica,sans-Serif" font-size="10.00" fill="#000000">drake</text>
</a>
</g>
</g>
<g id="clust2" class="cluster">
<title>clusterdir_a36da230f0956f48b11c85f7d599788f</title>
<g id="a_clust2"><a xlink:href="dir_a36da230f0956f48b11c85f7d599788f.html" target="_top">
<polygon fill="#eeeeff" stroke="#000000" points="16,-64 16,-116 422,-116 422,-64 16,-64"/>
</a>
</g>
</g>
<!-- dir_a36da230f0956f48b11c85f7d599788f -->
<g id="node1" class="node">
<title>dir_a36da230f0956f48b11c85f7d599788f</title>
<text text-anchor="middle" x="384" y="-87.5" font-family="Helvetica,sans-Serif" font-size="10.00" fill="#000000">common</text>
</g>
<!-- dir_48e4d4a473e039105b12a2118c672ffe -->
<g id="node2" class="node">
<title>dir_48e4d4a473e039105b12a2118c672ffe</title>
<g id="a_node2"><a xlink:href="dir_48e4d4a473e039105b12a2118c672ffe.html" target="_top" xlink:title="proto">
<polygon fill="#ffffff" stroke="#000000" points="336,-108 282,-108 282,-72 336,-72 336,-108"/>
<text text-anchor="middle" x="309" y="-87.5" font-family="Helvetica,sans-Serif" font-size="10.00" fill="#000000">proto</text>
</a>
</g>
</g>
<!-- dir_0d10be3e24b4d05732d552ad443cc60a -->
<g id="node3" class="node">
<title>dir_0d10be3e24b4d05732d552ad443cc60a</title>
<g id="a_node3"><a xlink:href="dir_0d10be3e24b4d05732d552ad443cc60a.html" target="_top" xlink:title="test_utilities">
<polygon fill="#ffffff" stroke="#000000" points="263.5,-108 186.5,-108 186.5,-72 263.5,-72 263.5,-108"/>
<text text-anchor="middle" x="225" y="-87.5" font-family="Helvetica,sans-Serif" font-size="10.00" fill="#000000">test_utilities</text>
</a>
</g>
</g>
<!-- dir_5f7a2023092b91a1e02609fa2c012f50 -->
<g id="node4" class="node">
<title>dir_5f7a2023092b91a1e02609fa2c012f50</title>
<g id="a_node4"><a xlink:href="dir_5f7a2023092b91a1e02609fa2c012f50.html" target="_top" xlink:title="trajectories">
<polygon fill="#ffffff" stroke="#000000" points="168,-108 96,-108 96,-72 168,-72 168,-108"/>
<text text-anchor="middle" x="132" y="-87.5" font-family="Helvetica,sans-Serif" font-size="10.00" fill="#000000">trajectories</text>
</a>
</g>
</g>
<!-- dir_fc0178d6978c9fa2cad6ef3e048a60a7 -->
<g id="node6" class="node">
<title>dir_fc0178d6978c9fa2cad6ef3e048a60a7</title>
<g id="a_node6"><a xlink:href="dir_fc0178d6978c9fa2cad6ef3e048a60a7.html" target="_top" xlink:title="math">
<polygon fill="none" stroke="#000000" points="285,-36 231,-36 231,0 285,0 285,-36"/>
<text text-anchor="middle" x="258" y="-15.5" font-family="Helvetica,sans-Serif" font-size="10.00" fill="#000000">math</text>
</a>
</g>
</g>
<!-- dir_5f7a2023092b91a1e02609fa2c012f50&#45;&gt;dir_fc0178d6978c9fa2cad6ef3e048a60a7 -->
<g id="edge2" class="edge">
<title>dir_5f7a2023092b91a1e02609fa2c012f50&#45;&gt;dir_fc0178d6978c9fa2cad6ef3e048a60a7</title>
<path fill="none" stroke="#000000" d="M154.7991,-71.8004C162.0187,-66.4093 170.1636,-60.6971 178,-56 191.7159,-47.7787 207.4908,-39.9657 221.388,-33.5861"/>
<polygon fill="#000000" stroke="#000000" points="222.9794,-36.7081 230.6609,-29.4111 220.1055,-30.3252 222.9794,-36.7081"/>
<g id="a_edge2&#45;headlabel"><a xlink:href="dir_000010_000007.html" target="_top" xlink:title="1">
<text text-anchor="middle" x="220.8673" y="-38.2727" font-family="Helvetica,sans-Serif" font-size="10.00" fill="#000000">1</text>
</a>
</g>
</g>
<!-- dir_a475b9d7562d90f72dfa4821e049558f -->
<g id="node5" class="node">
<title>dir_a475b9d7562d90f72dfa4821e049558f</title>
<g id="a_node5"><a xlink:href="dir_a475b9d7562d90f72dfa4821e049558f.html" target="_top" xlink:title="yaml">
<polygon fill="#ffffff" stroke="#000000" points="78,-108 24,-108 24,-72 78,-72 78,-108"/>
<text text-anchor="middle" x="51" y="-87.5" font-family="Helvetica,sans-Serif" font-size="10.00" fill="#000000">yaml</text>
</a>
</g>
</g>
<!-- dir_fc0178d6978c9fa2cad6ef3e048a60a7&#45;&gt;dir_a36da230f0956f48b11c85f7d599788f -->
<g id="edge1" class="edge">
<title>dir_fc0178d6978c9fa2cad6ef3e048a60a7&#45;&gt;dir_a36da230f0956f48b11c85f7d599788f</title>
<path fill="none" stroke="#000000" d="M285.3353,-27.4659C303.0343,-34.1811 326.2002,-44.0977 345,-56 349.3473,-58.7523 353.7018,-61.9752 357.8425,-65.3203"/>
<polygon fill="#000000" stroke="#000000" points="355.5966,-68.0048 365.4837,-71.812 360.1287,-62.67 355.5966,-68.0048"/>
<g id="a_edge1&#45;headlabel"><a xlink:href="dir_000007_000006.html" target="_top" xlink:title="59">
<text text-anchor="middle" x="351.0188" y="-65.3413" font-family="Helvetica,sans-Serif" font-size="10.00" fill="#000000">59</text>
</a>
</g>
</g>
</g>
</svg>
