<?xml version="1.0" encoding="UTF-8" standalone="no"?>
<!DOCTYPE svg PUBLIC "-//W3C//DTD SVG 1.1//EN"
 "http://www.w3.org/Graphics/SVG/1.1/DTD/svg11.dtd">
<!-- Generated by graphviz version 2.40.1 (20161225.0304)
 -->
<!-- Title: drake/multibody/benchmarks/kuka_iiwa_robot Pages: 1 -->
<svg width="388pt" height="511pt"
 viewBox="0.00 0.00 388.00 511.00" xmlns="http://www.w3.org/2000/svg" xmlns:xlink="http://www.w3.org/1999/xlink">
<g id="graph0" class="graph" transform="scale(1 1) rotate(0) translate(4 507)">
<title>drake/multibody/benchmarks/kuka_iiwa_robot</title>
<polygon fill="#ffffff" stroke="transparent" points="-4,4 -4,-507 384,-507 384,4 -4,4"/>
<g id="clust1" class="cluster">
<title>clusterdir_5d8dbe7a82c2c188fa06f6391bb290bd</title>
<g id="a_clust1"><a xlink:href="dir_5d8dbe7a82c2c188fa06f6391bb290bd.html" target="_top" xlink:title="benchmarks">
<polygon fill="#ddddee" stroke="#000000" points="81,-424 81,-495 193,-495 193,-424 81,-424"/>
<text text-anchor="middle" x="137" y="-483" font-family="Helvetica,sans-Serif" font-size="10.00" fill="#000000">benchmarks</text>
</a>
</g>
</g>
<!-- dir_fa973aef359a666fa59c209acc8a7d72 -->
<g id="node1" class="node">
<title>dir_fa973aef359a666fa59c209acc8a7d72</title>
<g id="a_node1"><a xlink:href="dir_fa973aef359a666fa59c209acc8a7d72.html" target="_top" xlink:title="kuka_iiwa_robot">
<polygon fill="#eeeeff" stroke="#000000" points="185.5,-468 88.5,-468 88.5,-432 185.5,-432 185.5,-468"/>
<text text-anchor="middle" x="137" y="-447.5" font-family="Helvetica,sans-Serif" font-size="10.00" fill="#000000">kuka_iiwa_robot</text>
</a>
</g>
</g>
<!-- dir_4d6afa0018d27b03aafc768625d5f8d5 -->
<g id="node2" class="node">
<title>dir_4d6afa0018d27b03aafc768625d5f8d5</title>
<g id="a_node2"><a xlink:href="dir_4d6afa0018d27b03aafc768625d5f8d5.html" target="_top" xlink:title="test_utilities">
<polygon fill="none" stroke="#000000" points="271.5,-396 194.5,-396 194.5,-360 271.5,-360 271.5,-396"/>
<text text-anchor="middle" x="233" y="-375.5" font-family="Helvetica,sans-Serif" font-size="10.00" fill="#000000">test_utilities</text>
</a>
</g>
</g>
<!-- dir_fa973aef359a666fa59c209acc8a7d72&#45;&gt;dir_4d6afa0018d27b03aafc768625d5f8d5 -->
<g id="edge19" class="edge">
<title>dir_fa973aef359a666fa59c209acc8a7d72&#45;&gt;dir_4d6afa0018d27b03aafc768625d5f8d5</title>
<path fill="none" stroke="#000000" d="M161.2249,-431.8314C173.1628,-422.8779 187.7256,-411.9558 200.606,-402.2955"/>
<polygon fill="#000000" stroke="#000000" points="202.8829,-404.9629 208.7829,-396.1628 198.6829,-399.3629 202.8829,-404.9629"/>
<g id="a_edge19&#45;headlabel"><a xlink:href="dir_000053_000063.html" target="_top" xlink:title="1">
<text text-anchor="middle" x="201.7108" y="-406.891" font-family="Helvetica,sans-Serif" font-size="10.00" fill="#000000">1</text>
</a>
</g>
</g>
<!-- dir_fc0178d6978c9fa2cad6ef3e048a60a7 -->
<g id="node3" class="node">
<title>dir_fc0178d6978c9fa2cad6ef3e048a60a7</title>
<g id="a_node3"><a xlink:href="dir_fc0178d6978c9fa2cad6ef3e048a60a7.html" target="_top" xlink:title="math">
<polygon fill="none" stroke="#000000" points="251,-108 197,-108 197,-72 251,-72 251,-108"/>
<text text-anchor="middle" x="224" y="-87.5" font-family="Helvetica,sans-Serif" font-size="10.00" fill="#000000">math</text>
</a>
</g>
</g>
<!-- dir_fa973aef359a666fa59c209acc8a7d72&#45;&gt;dir_fc0178d6978c9fa2cad6ef3e048a60a7 -->
<g id="edge20" class="edge">
<title>dir_fa973aef359a666fa59c209acc8a7d72&#45;&gt;dir_fc0178d6978c9fa2cad6ef3e048a60a7</title>
<path fill="none" stroke="#000000" d="M185.5906,-443.3374C256.5042,-430.5727 380,-395.4955 380,-306 380,-306 380,-306 380,-234 380,-169.3086 306.6709,-125.6347 260.5628,-104.5675"/>
<polygon fill="#000000" stroke="#000000" points="261.7344,-101.2587 251.1731,-100.4157 258.9035,-107.6608 261.7344,-101.2587"/>
<g id="a_edge20&#45;headlabel"><a xlink:href="dir_000053_000007.html" target="_top" xlink:title="1">
<text text-anchor="middle" x="266.1701" y="-97.6155" font-family="Helvetica,sans-Serif" font-size="10.00" fill="#000000">1</text>
</a>
</g>
</g>
<!-- dir_a36da230f0956f48b11c85f7d599788f -->
<g id="node4" class="node">
<title>dir_a36da230f0956f48b11c85f7d599788f</title>
<g id="a_node4"><a xlink:href="dir_a36da230f0956f48b11c85f7d599788f.html" target="_top" xlink:title="common">
<polygon fill="#ffffff" stroke="#ff0000" points="198.5,-36 139.5,-36 139.5,0 198.5,0 198.5,-36"/>
<text text-anchor="middle" x="169" y="-15.5" font-family="Helvetica,sans-Serif" font-size="10.00" fill="#000000">common</text>
</a>
</g>
</g>
<!-- dir_fa973aef359a666fa59c209acc8a7d72&#45;&gt;dir_a36da230f0956f48b11c85f7d599788f -->
<g id="edge21" class="edge">
<title>dir_fa973aef359a666fa59c209acc8a7d72&#45;&gt;dir_a36da230f0956f48b11c85f7d599788f</title>
<path fill="none" stroke="#000000" d="M100.6462,-431.8217C60.0593,-408.6537 0,-364.4889 0,-306 0,-306 0,-306 0,-162 0,-94.242 79.6805,-51.6421 129.6169,-31.5975"/>
<polygon fill="#000000" stroke="#000000" points="131.1186,-34.7691 139.1752,-27.8886 128.5863,-28.2432 131.1186,-34.7691"/>
<g id="a_edge21&#45;headlabel"><a xlink:href="dir_000053_000006.html" target="_top" xlink:title="2">
<text text-anchor="middle" x="128.7946" y="-36.2164" font-family="Helvetica,sans-Serif" font-size="10.00" fill="#000000">2</text>
</a>
</g>
</g>
<!-- dir_3f9cb8dbb3b4911cb2ecb548acd672c3 -->
<g id="node5" class="node">
<title>dir_3f9cb8dbb3b4911cb2ecb548acd672c3</title>
<g id="a_node5"><a xlink:href="dir_3f9cb8dbb3b4911cb2ecb548acd672c3.html" target="_top" xlink:title="tree">
<polygon fill="none" stroke="#000000" points="198,-324 144,-324 144,-288 198,-288 198,-324"/>
<text text-anchor="middle" x="171" y="-303.5" font-family="Helvetica,sans-Serif" font-size="10.00" fill="#000000">tree</text>
</a>
</g>
</g>
<!-- dir_fa973aef359a666fa59c209acc8a7d72&#45;&gt;dir_3f9cb8dbb3b4911cb2ecb548acd672c3 -->
<g id="edge22" class="edge">
<title>dir_fa973aef359a666fa59c209acc8a7d72&#45;&gt;dir_3f9cb8dbb3b4911cb2ecb548acd672c3</title>
<path fill="none" stroke="#000000" d="M141.3061,-431.7623C147.1309,-407.0928 157.5748,-362.8598 164.3952,-333.9731"/>
<polygon fill="#000000" stroke="#000000" points="167.8372,-334.6263 166.7288,-324.0896 161.0245,-333.0177 167.8372,-334.6263"/>
<g id="a_edge22&#45;headlabel"><a xlink:href="dir_000053_000065.html" target="_top" xlink:title="8">
<text text-anchor="middle" x="169.7745" y="-336.2772" font-family="Helvetica,sans-Serif" font-size="10.00" fill="#000000">8</text>
</a>
</g>
</g>
<!-- dir_656f7d340c0f5b4ecaf881820f2aea38 -->
<g id="node6" class="node">
<title>dir_656f7d340c0f5b4ecaf881820f2aea38</title>
<g id="a_node6"><a xlink:href="dir_656f7d340c0f5b4ecaf881820f2aea38.html" target="_top" xlink:title="plant">
<polygon fill="none" stroke="#000000" points="196,-180 142,-180 142,-144 196,-144 196,-180"/>
<text text-anchor="middle" x="169" y="-159.5" font-family="Helvetica,sans-Serif" font-size="10.00" fill="#000000">plant</text>
</a>
</g>
</g>
<!-- dir_fa973aef359a666fa59c209acc8a7d72&#45;&gt;dir_656f7d340c0f5b4ecaf881820f2aea38 -->
<g id="edge23" class="edge">
<title>dir_fa973aef359a666fa59c209acc8a7d72&#45;&gt;dir_656f7d340c0f5b4ecaf881820f2aea38</title>
<path fill="none" stroke="#000000" d="M131.6008,-431.988C120.5124,-391.7927 98.4337,-292.3099 126,-216 129.7027,-205.7501 136.2007,-195.9683 143.0409,-187.6154"/>
<polygon fill="#000000" stroke="#000000" points="145.6831,-189.9108 149.6239,-180.0761 140.4103,-185.3068 145.6831,-189.9108"/>
<g id="a_edge23&#45;headlabel"><a xlink:href="dir_000053_000062.html" target="_top" xlink:title="1">
<text text-anchor="middle" x="145.4577" y="-191.9859" font-family="Helvetica,sans-Serif" font-size="10.00" fill="#000000">1</text>
</a>
</g>
</g>
<!-- dir_b7a0e33b407baa23d8a077e33033c988 -->
<g id="node7" class="node">
<title>dir_b7a0e33b407baa23d8a077e33033c988</title>
<g id="a_node7"><a xlink:href="dir_b7a0e33b407baa23d8a077e33033c988.html" target="_top" xlink:title="systems">
<polygon fill="#ffffff" stroke="#ff0000" points="200,-252 142,-252 142,-216 200,-216 200,-252"/>
<text text-anchor="middle" x="171" y="-231.5" font-family="Helvetica,sans-Serif" font-size="10.00" fill="#000000">systems</text>
</a>
</g>
</g>
<!-- dir_fa973aef359a666fa59c209acc8a7d72&#45;&gt;dir_b7a0e33b407baa23d8a077e33033c988 -->
<g id="edge24" class="edge">
<title>dir_fa973aef359a666fa59c209acc8a7d72&#45;&gt;dir_b7a0e33b407baa23d8a077e33033c988</title>
<path fill="none" stroke="#000000" d="M133.2326,-431.518C127.7649,-400.9016 119.8395,-338.0717 135,-288 137.9564,-278.2355 143.3252,-268.6229 149.03,-260.2762"/>
<polygon fill="#000000" stroke="#000000" points="151.9414,-262.2239 155.0095,-252.0831 146.2871,-258.0973 151.9414,-262.2239"/>
<g id="a_edge24&#45;headlabel"><a xlink:href="dir_000053_000072.html" target="_top" xlink:title="1">
<text text-anchor="middle" x="152.1158" y="-264.3013" font-family="Helvetica,sans-Serif" font-size="10.00" fill="#000000">1</text>
</a>
</g>
</g>
<!-- dir_4d6afa0018d27b03aafc768625d5f8d5&#45;&gt;dir_fc0178d6978c9fa2cad6ef3e048a60a7 -->
<g id="edge1" class="edge">
<title>dir_4d6afa0018d27b03aafc768625d5f8d5&#45;&gt;dir_fc0178d6978c9fa2cad6ef3e048a60a7</title>
<path fill="none" stroke="#000000" d="M238.5446,-359.7012C241.3965,-349.3353 244.5681,-336.0653 246,-324 250.9514,-282.2775 253.5957,-217.4434 241,-144 239.5118,-135.3224 236.9836,-126.1059 234.3254,-117.7901"/>
<polygon fill="#000000" stroke="#000000" points="237.5983,-116.5423 231.0798,-108.1901 230.967,-118.7843 237.5983,-116.5423"/>
<g id="a_edge1&#45;headlabel"><a xlink:href="dir_000063_000007.html" target="_top" xlink:title="4">
<text text-anchor="middle" x="241.4392" y="-116.5382" font-family="Helvetica,sans-Serif" font-size="10.00" fill="#000000">4</text>
</a>
</g>
</g>
<!-- dir_4d6afa0018d27b03aafc768625d5f8d5&#45;&gt;dir_a36da230f0956f48b11c85f7d599788f -->
<g id="edge2" class="edge">
<title>dir_4d6afa0018d27b03aafc768625d5f8d5&#45;&gt;dir_a36da230f0956f48b11c85f7d599788f</title>
<path fill="none" stroke="#000000" d="M259.3859,-359.9342C291.6447,-335.4749 342,-288.5568 342,-234 342,-234 342,-234 342,-162 342,-92.7981 259.2174,-50.4307 208.1812,-30.8864"/>
<polygon fill="#000000" stroke="#000000" points="209.3329,-27.5807 198.7398,-27.3909 206.9025,-34.1452 209.3329,-27.5807"/>
<g id="a_edge2&#45;headlabel"><a xlink:href="dir_000063_000006.html" target="_top" xlink:title="2">
<text text-anchor="middle" x="213.6897" y="-23.666" font-family="Helvetica,sans-Serif" font-size="10.00" fill="#000000">2</text>
</a>
</g>
</g>
<!-- dir_4d6afa0018d27b03aafc768625d5f8d5&#45;&gt;dir_3f9cb8dbb3b4911cb2ecb548acd672c3 -->
<g id="edge3" class="edge">
<title>dir_4d6afa0018d27b03aafc768625d5f8d5&#45;&gt;dir_3f9cb8dbb3b4911cb2ecb548acd672c3</title>
<path fill="none" stroke="#000000" d="M217.3548,-359.8314C210.1409,-351.454 201.443,-341.3531 193.5395,-332.1749"/>
<polygon fill="#000000" stroke="#000000" points="196.0333,-329.7071 186.8559,-324.4133 190.7289,-334.2748 196.0333,-329.7071"/>
<g id="a_edge3&#45;headlabel"><a xlink:href="dir_000063_000065.html" target="_top" xlink:title="2">
<text text-anchor="middle" x="200.5304" y="-328.0783" font-family="Helvetica,sans-Serif" font-size="10.00" fill="#000000">2</text>
</a>
</g>
</g>
<!-- dir_4d6afa0018d27b03aafc768625d5f8d5&#45;&gt;dir_656f7d340c0f5b4ecaf881820f2aea38 -->
<g id="edge4" class="edge">
<title>dir_4d6afa0018d27b03aafc768625d5f8d5&#45;&gt;dir_656f7d340c0f5b4ecaf881820f2aea38</title>
<path fill="none" stroke="#000000" d="M233.7182,-359.9805C234.238,-328.9645 232.1428,-264.1823 209,-216 204.378,-206.3773 197.95,-196.7348 191.5975,-188.3159"/>
<polygon fill="#000000" stroke="#000000" points="194.27,-186.0521 185.3398,-180.351 188.7656,-190.3767 194.27,-186.0521"/>
<g id="a_edge4&#45;headlabel"><a xlink:href="dir_000063_000062.html" target="_top" xlink:title="2">
<text text-anchor="middle" x="198.7233" y="-184.6246" font-family="Helvetica,sans-Serif" font-size="10.00" fill="#000000">2</text>
</a>
</g>
</g>
<!-- dir_4d6afa0018d27b03aafc768625d5f8d5&#45;&gt;dir_b7a0e33b407baa23d8a077e33033c988 -->
<g id="edge5" class="edge">
<title>dir_4d6afa0018d27b03aafc768625d5f8d5&#45;&gt;dir_b7a0e33b407baa23d8a077e33033c988</title>
<path fill="none" stroke="#000000" d="M229.471,-359.8289C225.4666,-341.2244 218.0255,-311.7506 207,-288 202.6338,-278.5946 196.7543,-268.9727 191.0138,-260.5056"/>
<polygon fill="#000000" stroke="#000000" points="193.7626,-258.3296 185.1512,-252.1575 188.034,-262.3526 193.7626,-258.3296"/>
<g id="a_edge5&#45;headlabel"><a xlink:href="dir_000063_000072.html" target="_top" xlink:title="2">
<text text-anchor="middle" x="198.1519" y="-257.1396" font-family="Helvetica,sans-Serif" font-size="10.00" fill="#000000">2</text>
</a>
</g>
</g>
<!-- dir_fc0178d6978c9fa2cad6ef3e048a60a7&#45;&gt;dir_a36da230f0956f48b11c85f7d599788f -->
<g id="edge6" class="edge">
<title>dir_fc0178d6978c9fa2cad6ef3e048a60a7&#45;&gt;dir_a36da230f0956f48b11c85f7d599788f</title>
<path fill="none" stroke="#000000" d="M204.1688,-71.8314C197.0988,-63.6232 189.3665,-53.7606 182.8734,-44.7323"/>
<polygon fill="#000000" stroke="#000000" points="185.6718,-42.626 177.0897,-36.4133 179.9243,-46.6219 185.6718,-42.626"/>
<g id="a_edge6&#45;headlabel"><a xlink:href="dir_000007_000006.html" target="_top" xlink:title="57">
<text text-anchor="middle" x="190.0549" y="-41.4567" font-family="Helvetica,sans-Serif" font-size="10.00" fill="#000000">57</text>
</a>
</g>
</g>
<!-- dir_a36da230f0956f48b11c85f7d599788f&#45;&gt;dir_fc0178d6978c9fa2cad6ef3e048a60a7 -->
<g id="edge7" class="edge">
<title>dir_a36da230f0956f48b11c85f7d599788f&#45;&gt;dir_fc0178d6978c9fa2cad6ef3e048a60a7</title>
<path fill="none" stroke="#000000" d="M189.0417,-36.4133C196.1246,-44.654 203.851,-54.5245 210.3194,-63.536"/>
<polygon fill="#000000" stroke="#000000" points="207.4981,-65.6095 216.0736,-71.8314 213.2498,-61.6197 207.4981,-65.6095"/>
<g id="a_edge7&#45;headlabel"><a xlink:href="dir_000006_000007.html" target="_top" xlink:title="1">
<text text-anchor="middle" x="203.1164" y="-61.7742" font-family="Helvetica,sans-Serif" font-size="10.00" fill="#000000">1</text>
</a>
</g>
</g>
<!-- dir_3f9cb8dbb3b4911cb2ecb548acd672c3&#45;&gt;dir_fc0178d6978c9fa2cad6ef3e048a60a7 -->
<g id="edge8" class="edge">
<title>dir_3f9cb8dbb3b4911cb2ecb548acd672c3&#45;&gt;dir_fc0178d6978c9fa2cad6ef3e048a60a7</title>
<path fill="none" stroke="#000000" d="M186.6902,-287.6184C194.454,-277.6569 203.3491,-264.7931 209,-252 228.3087,-208.2864 228.6471,-151.5941 226.6562,-118.1717"/>
<polygon fill="#000000" stroke="#000000" points="230.1467,-117.9117 225.9491,-108.1839 223.1641,-118.4061 230.1467,-117.9117"/>
<g id="a_edge8&#45;headlabel"><a xlink:href="dir_000065_000007.html" target="_top" xlink:title="12">
<text text-anchor="middle" x="233.2326" y="-118.7968" font-family="Helvetica,sans-Serif" font-size="10.00" fill="#000000">12</text>
</a>
</g>
</g>
<!-- dir_3f9cb8dbb3b4911cb2ecb548acd672c3&#45;&gt;dir_a36da230f0956f48b11c85f7d599788f -->
<g id="edge9" class="edge">
<title>dir_3f9cb8dbb3b4911cb2ecb548acd672c3&#45;&gt;dir_a36da230f0956f48b11c85f7d599788f</title>
<path fill="none" stroke="#000000" d="M150.3057,-287.5856C141.0482,-277.9961 131.0897,-265.4707 126,-252 97.7202,-177.1533 101.3059,-147.0654 129,-72 132.6344,-62.1489 138.6572,-52.5501 144.9399,-44.2438"/>
<polygon fill="#000000" stroke="#000000" points="147.7002,-46.3964 151.2303,-36.4069 142.2412,-42.0146 147.7002,-46.3964"/>
<g id="a_edge9&#45;headlabel"><a xlink:href="dir_000065_000006.html" target="_top" xlink:title="140">
<text text-anchor="middle" x="147.6643" y="-48.4769" font-family="Helvetica,sans-Serif" font-size="10.00" fill="#000000">140</text>
</a>
</g>
</g>
<!-- dir_3f9cb8dbb3b4911cb2ecb548acd672c3&#45;&gt;dir_b7a0e33b407baa23d8a077e33033c988 -->
<g id="edge10" class="edge">
<title>dir_3f9cb8dbb3b4911cb2ecb548acd672c3&#45;&gt;dir_b7a0e33b407baa23d8a077e33033c988</title>
<path fill="none" stroke="#000000" d="M165.0476,-287.8314C164.2972,-280.131 164.0763,-270.9743 164.3849,-262.4166"/>
<polygon fill="#000000" stroke="#000000" points="167.8792,-262.6161 165.024,-252.4133 160.8935,-262.1697 167.8792,-262.6161"/>
<g id="a_edge10&#45;headlabel"><a xlink:href="dir_000065_000072.html" target="_top" xlink:title="15">
<text text-anchor="middle" x="170.4836" y="-263.8844" font-family="Helvetica,sans-Serif" font-size="10.00" fill="#000000">15</text>
</a>
</g>
</g>
<!-- dir_656f7d340c0f5b4ecaf881820f2aea38&#45;&gt;dir_fc0178d6978c9fa2cad6ef3e048a60a7 -->
<g id="edge11" class="edge">
<title>dir_656f7d340c0f5b4ecaf881820f2aea38&#45;&gt;dir_fc0178d6978c9fa2cad6ef3e048a60a7</title>
<path fill="none" stroke="#000000" d="M182.8788,-143.8314C189.2136,-135.5386 196.8384,-125.557 203.7926,-116.4533"/>
<polygon fill="#000000" stroke="#000000" points="206.6452,-118.4847 209.9343,-108.4133 201.0825,-114.2353 206.6452,-118.4847"/>
<g id="a_edge11&#45;headlabel"><a xlink:href="dir_000062_000007.html" target="_top" xlink:title="3">
<text text-anchor="middle" x="206.7195" y="-120.5647" font-family="Helvetica,sans-Serif" font-size="10.00" fill="#000000">3</text>
</a>
</g>
</g>
<!-- dir_656f7d340c0f5b4ecaf881820f2aea38&#45;&gt;dir_a36da230f0956f48b11c85f7d599788f -->
<g id="edge12" class="edge">
<title>dir_656f7d340c0f5b4ecaf881820f2aea38&#45;&gt;dir_a36da230f0956f48b11c85f7d599788f</title>
<path fill="none" stroke="#000000" d="M169,-143.7623C169,-119.201 169,-75.2474 169,-46.3541"/>
<polygon fill="#000000" stroke="#000000" points="172.5001,-46.0896 169,-36.0896 165.5001,-46.0897 172.5001,-46.0896"/>
<g id="a_edge12&#45;headlabel"><a xlink:href="dir_000062_000006.html" target="_top" xlink:title="33">
<text text-anchor="middle" x="175.3393" y="-47.1842" font-family="Helvetica,sans-Serif" font-size="10.00" fill="#000000">33</text>
</a>
</g>
</g>
<!-- dir_656f7d340c0f5b4ecaf881820f2aea38&#45;&gt;dir_3f9cb8dbb3b4911cb2ecb548acd672c3 -->
<g id="edge13" class="edge">
<title>dir_656f7d340c0f5b4ecaf881820f2aea38&#45;&gt;dir_3f9cb8dbb3b4911cb2ecb548acd672c3</title>
<path fill="none" stroke="#000000" d="M153.0095,-180.0831C145.3462,-189.9629 136.9834,-202.8437 133,-216 128.3635,-231.3135 128.1708,-236.7462 133,-252 136.0815,-261.7336 141.6183,-271.2305 147.5289,-279.4772"/>
<polygon fill="#000000" stroke="#000000" points="144.8752,-281.7684 153.7365,-287.5761 150.431,-277.51 144.8752,-281.7684"/>
<g id="a_edge13&#45;headlabel"><a xlink:href="dir_000062_000065.html" target="_top" xlink:title="8">
<text text-anchor="middle" x="140.435" y="-278.1427" font-family="Helvetica,sans-Serif" font-size="10.00" fill="#000000">8</text>
</a>
</g>
</g>
<!-- dir_656f7d340c0f5b4ecaf881820f2aea38&#45;&gt;dir_b7a0e33b407baa23d8a077e33033c988 -->
<g id="edge14" class="edge">
<title>dir_656f7d340c0f5b4ecaf881820f2aea38&#45;&gt;dir_b7a0e33b407baa23d8a077e33033c988</title>
<path fill="none" stroke="#000000" d="M175.4875,-180.4133C176.431,-188.0593 176.8955,-197.1084 176.8258,-205.5726"/>
<polygon fill="#000000" stroke="#000000" points="173.3185,-205.7092 176.4477,-215.8314 180.3138,-205.9671 173.3185,-205.7092"/>
<g id="a_edge14&#45;headlabel"><a xlink:href="dir_000062_000072.html" target="_top" xlink:title="8">
<text text-anchor="middle" x="170.6135" y="-199.5125" font-family="Helvetica,sans-Serif" font-size="10.00" fill="#000000">8</text>
</a>
</g>
</g>
<!-- dir_b7a0e33b407baa23d8a077e33033c988&#45;&gt;dir_fc0178d6978c9fa2cad6ef3e048a60a7 -->
<g id="edge15" class="edge">
<title>dir_b7a0e33b407baa23d8a077e33033c988&#45;&gt;dir_fc0178d6978c9fa2cad6ef3e048a60a7</title>
<path fill="none" stroke="#000000" d="M184.6817,-215.8898C191.7027,-205.7991 199.841,-192.7318 205,-180 213.0715,-160.0806 217.9076,-136.2306 220.6793,-118.0883"/>
<polygon fill="#000000" stroke="#000000" points="224.1516,-118.5294 222.0815,-108.1388 217.2201,-117.5525 224.1516,-118.5294"/>
<g id="a_edge15&#45;headlabel"><a xlink:href="dir_000072_000007.html" target="_top" xlink:title="10">
<text text-anchor="middle" x="226.4615" y="-119.9851" font-family="Helvetica,sans-Serif" font-size="10.00" fill="#000000">10</text>
</a>
</g>
</g>
<!-- dir_b7a0e33b407baa23d8a077e33033c988&#45;&gt;dir_a36da230f0956f48b11c85f7d599788f -->
<g id="edge16" class="edge">
<title>dir_b7a0e33b407baa23d8a077e33033c988&#45;&gt;dir_a36da230f0956f48b11c85f7d599788f</title>
<path fill="none" stroke="#000000" d="M153.7365,-215.5761C145.7611,-205.7997 137.152,-193.1148 133,-180 118.3421,-133.7002 138.595,-78.1368 154.1398,-45.5824"/>
<polygon fill="#000000" stroke="#000000" points="157.4591,-46.7673 158.7691,-36.2537 151.1887,-43.6556 157.4591,-46.7673"/>
<g id="a_edge16&#45;headlabel"><a xlink:href="dir_000072_000006.html" target="_top" xlink:title="369">
<text text-anchor="middle" x="158.4046" y="-48.7493" font-family="Helvetica,sans-Serif" font-size="10.00" fill="#000000">369</text>
</a>
</g>
</g>
<!-- dir_b7a0e33b407baa23d8a077e33033c988&#45;&gt;dir_3f9cb8dbb3b4911cb2ecb548acd672c3 -->
<g id="edge17" class="edge">
<title>dir_b7a0e33b407baa23d8a077e33033c988&#45;&gt;dir_3f9cb8dbb3b4911cb2ecb548acd672c3</title>
<path fill="none" stroke="#000000" d="M176.976,-252.4133C177.7071,-260.0593 177.9203,-269.1084 177.6155,-277.5726"/>
<polygon fill="#000000" stroke="#000000" points="174.1048,-277.6264 176.9524,-287.8314 181.0902,-278.078 174.1048,-277.6264"/>
<g id="a_edge17&#45;headlabel"><a xlink:href="dir_000072_000065.html" target="_top" xlink:title="1">
<text text-anchor="middle" x="171.5032" y="-271.3562" font-family="Helvetica,sans-Serif" font-size="10.00" fill="#000000">1</text>
</a>
</g>
</g>
<!-- dir_b7a0e33b407baa23d8a077e33033c988&#45;&gt;dir_656f7d340c0f5b4ecaf881820f2aea38 -->
<g id="edge18" class="edge">
<title>dir_b7a0e33b407baa23d8a077e33033c988&#45;&gt;dir_656f7d340c0f5b4ecaf881820f2aea38</title>
<path fill="none" stroke="#000000" d="M164.5429,-215.8314C163.5786,-208.131 163.1033,-198.9743 163.1743,-190.4166"/>
<polygon fill="#000000" stroke="#000000" points="166.6722,-190.5331 163.5355,-180.4133 159.6768,-190.2804 166.6722,-190.5331"/>
<g id="a_edge18&#45;headlabel"><a xlink:href="dir_000072_000062.html" target="_top" xlink:title="6">
<text text-anchor="middle" x="169.3801" y="-191.7278" font-family="Helvetica,sans-Serif" font-size="10.00" fill="#000000">6</text>
</a>
</g>
</g>
</g>
</svg>
