<?xml version="1.0" encoding="UTF-8" standalone="no"?>
<!DOCTYPE svg PUBLIC "-//W3C//DTD SVG 1.1//EN"
 "http://www.w3.org/Graphics/SVG/1.1/DTD/svg11.dtd">
<!-- Generated by graphviz version 2.40.1 (20161225.0304)
 -->
<!-- Title: drake/multibody/test_utilities Pages: 1 -->
<svg width="502pt" height="583pt"
 viewBox="0.00 0.00 502.00 583.00" xmlns="http://www.w3.org/2000/svg" xmlns:xlink="http://www.w3.org/1999/xlink">
<g id="graph0" class="graph" transform="scale(1 1) rotate(0) translate(4 579)">
<title>drake/multibody/test_utilities</title>
<polygon fill="#ffffff" stroke="transparent" points="-4,4 -4,-579 498,-579 498,4 -4,4"/>
<g id="clust1" class="cluster">
<title>clusterdir_39b8b3c6654246a9c12332c930bc7d3f</title>
<g id="a_clust1"><a xlink:href="dir_39b8b3c6654246a9c12332c930bc7d3f.html" target="_top" xlink:title="multibody">
<polygon fill="#ddddee" stroke="#000000" points="143,-496 143,-567 237,-567 237,-496 143,-496"/>
<text text-anchor="middle" x="190" y="-555" font-family="Helvetica,sans-Serif" font-size="10.00" fill="#000000">multibody</text>
</a>
</g>
</g>
<!-- dir_4d6afa0018d27b03aafc768625d5f8d5 -->
<g id="node1" class="node">
<title>dir_4d6afa0018d27b03aafc768625d5f8d5</title>
<g id="a_node1"><a xlink:href="dir_4d6afa0018d27b03aafc768625d5f8d5.html" target="_top" xlink:title="test_utilities">
<polygon fill="#eeeeff" stroke="#000000" points="228.5,-540 151.5,-540 151.5,-504 228.5,-504 228.5,-540"/>
<text text-anchor="middle" x="190" y="-519.5" font-family="Helvetica,sans-Serif" font-size="10.00" fill="#000000">test_utilities</text>
</a>
</g>
</g>
<!-- dir_e56f4370c0abfd94d0eb867c3946e12e -->
<g id="node2" class="node">
<title>dir_e56f4370c0abfd94d0eb867c3946e12e</title>
<g id="a_node2"><a xlink:href="dir_e56f4370c0abfd94d0eb867c3946e12e.html" target="_top" xlink:title="parsing">
<polygon fill="none" stroke="#000000" points="162,-468 108,-468 108,-432 162,-432 162,-468"/>
<text text-anchor="middle" x="135" y="-447.5" font-family="Helvetica,sans-Serif" font-size="10.00" fill="#000000">parsing</text>
</a>
</g>
</g>
<!-- dir_4d6afa0018d27b03aafc768625d5f8d5&#45;&gt;dir_e56f4370c0abfd94d0eb867c3946e12e -->
<g id="edge1" class="edge">
<title>dir_4d6afa0018d27b03aafc768625d5f8d5&#45;&gt;dir_e56f4370c0abfd94d0eb867c3946e12e</title>
<path fill="none" stroke="#000000" d="M176.1212,-503.8314C169.7864,-495.5386 162.1616,-485.557 155.2074,-476.4533"/>
<polygon fill="#000000" stroke="#000000" points="157.9175,-474.2353 149.0657,-468.4133 152.3548,-478.4847 157.9175,-474.2353"/>
<g id="a_edge1&#45;headlabel"><a xlink:href="dir_000065_000062.html" target="_top" xlink:title="1">
<text text-anchor="middle" x="162.3558" y="-472.8683" font-family="Helvetica,sans-Serif" font-size="10.00" fill="#000000">1</text>
</a>
</g>
</g>
<!-- dir_fc0178d6978c9fa2cad6ef3e048a60a7 -->
<g id="node3" class="node">
<title>dir_fc0178d6978c9fa2cad6ef3e048a60a7</title>
<g id="a_node3"><a xlink:href="dir_fc0178d6978c9fa2cad6ef3e048a60a7.html" target="_top" xlink:title="math">
<polygon fill="none" stroke="#000000" points="283,-108 229,-108 229,-72 283,-72 283,-108"/>
<text text-anchor="middle" x="256" y="-87.5" font-family="Helvetica,sans-Serif" font-size="10.00" fill="#000000">math</text>
</a>
</g>
</g>
<!-- dir_4d6afa0018d27b03aafc768625d5f8d5&#45;&gt;dir_fc0178d6978c9fa2cad6ef3e048a60a7 -->
<g id="edge2" class="edge">
<title>dir_4d6afa0018d27b03aafc768625d5f8d5&#45;&gt;dir_fc0178d6978c9fa2cad6ef3e048a60a7</title>
<path fill="none" stroke="#000000" d="M151.2507,-505.6667C106.2169,-483.7816 38,-440.3415 38,-378 38,-378 38,-378 38,-306 38,-205.1058 157.2875,-135.286 219.3831,-105.7761"/>
<polygon fill="#000000" stroke="#000000" points="221.2361,-108.7746 228.8309,-101.3874 218.2871,-102.426 221.2361,-108.7746"/>
<g id="a_edge2&#45;headlabel"><a xlink:href="dir_000065_000007.html" target="_top" xlink:title="4">
<text text-anchor="middle" x="219.1722" y="-110.3639" font-family="Helvetica,sans-Serif" font-size="10.00" fill="#000000">4</text>
</a>
</g>
</g>
<!-- dir_a36da230f0956f48b11c85f7d599788f -->
<g id="node4" class="node">
<title>dir_a36da230f0956f48b11c85f7d599788f</title>
<g id="a_node4"><a xlink:href="dir_a36da230f0956f48b11c85f7d599788f.html" target="_top" xlink:title="common">
<polygon fill="#ffffff" stroke="#ff0000" points="252.5,-36 193.5,-36 193.5,0 252.5,0 252.5,-36"/>
<text text-anchor="middle" x="223" y="-15.5" font-family="Helvetica,sans-Serif" font-size="10.00" fill="#000000">common</text>
</a>
</g>
</g>
<!-- dir_4d6afa0018d27b03aafc768625d5f8d5&#45;&gt;dir_a36da230f0956f48b11c85f7d599788f -->
<g id="edge3" class="edge">
<title>dir_4d6afa0018d27b03aafc768625d5f8d5&#45;&gt;dir_a36da230f0956f48b11c85f7d599788f</title>
<path fill="none" stroke="#000000" d="M151.2681,-514.0082C121.6704,-506.3031 81.2816,-492.1629 53,-468 17.7066,-437.8464 0,-424.4205 0,-378 0,-378 0,-378 0,-162 0,-75.781 119.0975,-38.6738 183.2195,-24.9434"/>
<polygon fill="#000000" stroke="#000000" points="184.2918,-28.2966 193.3873,-22.8632 182.8887,-21.4387 184.2918,-28.2966"/>
<g id="a_edge3&#45;headlabel"><a xlink:href="dir_000065_000006.html" target="_top" xlink:title="2">
<text text-anchor="middle" x="181.3392" y="-29.2987" font-family="Helvetica,sans-Serif" font-size="10.00" fill="#000000">2</text>
</a>
</g>
</g>
<!-- dir_3f9cb8dbb3b4911cb2ecb548acd672c3 -->
<g id="node5" class="node">
<title>dir_3f9cb8dbb3b4911cb2ecb548acd672c3</title>
<g id="a_node5"><a xlink:href="dir_3f9cb8dbb3b4911cb2ecb548acd672c3.html" target="_top" xlink:title="tree">
<polygon fill="none" stroke="#000000" points="312,-396 258,-396 258,-360 312,-360 312,-396"/>
<text text-anchor="middle" x="285" y="-375.5" font-family="Helvetica,sans-Serif" font-size="10.00" fill="#000000">tree</text>
</a>
</g>
</g>
<!-- dir_4d6afa0018d27b03aafc768625d5f8d5&#45;&gt;dir_3f9cb8dbb3b4911cb2ecb548acd672c3 -->
<g id="edge4" class="edge">
<title>dir_4d6afa0018d27b03aafc768625d5f8d5&#45;&gt;dir_3f9cb8dbb3b4911cb2ecb548acd672c3</title>
<path fill="none" stroke="#000000" d="M202.0318,-503.7623C218.5923,-478.66 248.5162,-433.3017 267.5391,-404.4671"/>
<polygon fill="#000000" stroke="#000000" points="270.4805,-406.3642 273.0659,-396.0896 264.6375,-402.5094 270.4805,-406.3642"/>
<g id="a_edge4&#45;headlabel"><a xlink:href="dir_000065_000067.html" target="_top" xlink:title="2">
<text text-anchor="middle" x="270.8711" y="-408.4282" font-family="Helvetica,sans-Serif" font-size="10.00" fill="#000000">2</text>
</a>
</g>
</g>
<!-- dir_656f7d340c0f5b4ecaf881820f2aea38 -->
<g id="node6" class="node">
<title>dir_656f7d340c0f5b4ecaf881820f2aea38</title>
<g id="a_node6"><a xlink:href="dir_656f7d340c0f5b4ecaf881820f2aea38.html" target="_top" xlink:title="plant">
<polygon fill="none" stroke="#000000" points="276,-252 222,-252 222,-216 276,-216 276,-252"/>
<text text-anchor="middle" x="249" y="-231.5" font-family="Helvetica,sans-Serif" font-size="10.00" fill="#000000">plant</text>
</a>
</g>
</g>
<!-- dir_4d6afa0018d27b03aafc768625d5f8d5&#45;&gt;dir_656f7d340c0f5b4ecaf881820f2aea38 -->
<g id="edge5" class="edge">
<title>dir_4d6afa0018d27b03aafc768625d5f8d5&#45;&gt;dir_656f7d340c0f5b4ecaf881820f2aea38</title>
<path fill="none" stroke="#000000" d="M193.6907,-503.9843C203.6655,-455.2939 231.2188,-320.7961 243.2521,-262.0573"/>
<polygon fill="#000000" stroke="#000000" points="246.7325,-262.5079 245.3107,-252.0089 239.8749,-261.103 246.7325,-262.5079"/>
<g id="a_edge5&#45;headlabel"><a xlink:href="dir_000065_000063.html" target="_top" xlink:title="2">
<text text-anchor="middle" x="248.7926" y="-264.0992" font-family="Helvetica,sans-Serif" font-size="10.00" fill="#000000">2</text>
</a>
</g>
</g>
<!-- dir_b7a0e33b407baa23d8a077e33033c988 -->
<g id="node7" class="node">
<title>dir_b7a0e33b407baa23d8a077e33033c988</title>
<g id="a_node7"><a xlink:href="dir_b7a0e33b407baa23d8a077e33033c988.html" target="_top" xlink:title="systems">
<polygon fill="#ffffff" stroke="#ff0000" points="390,-324 332,-324 332,-288 390,-288 390,-324"/>
<text text-anchor="middle" x="361" y="-303.5" font-family="Helvetica,sans-Serif" font-size="10.00" fill="#000000">systems</text>
</a>
</g>
</g>
<!-- dir_4d6afa0018d27b03aafc768625d5f8d5&#45;&gt;dir_b7a0e33b407baa23d8a077e33033c988 -->
<g id="edge6" class="edge">
<title>dir_4d6afa0018d27b03aafc768625d5f8d5&#45;&gt;dir_b7a0e33b407baa23d8a077e33033c988</title>
<path fill="none" stroke="#000000" d="M214.2422,-503.9382C243.0365,-481.4166 290.9419,-440.4327 321,-396 334.0956,-376.6417 344.6103,-352.2977 351.5668,-333.8109"/>
<polygon fill="#000000" stroke="#000000" points="354.9291,-334.806 355.0592,-324.2119 348.351,-332.4126 354.9291,-334.806"/>
<g id="a_edge6&#45;headlabel"><a xlink:href="dir_000065_000074.html" target="_top" xlink:title="2">
<text text-anchor="middle" x="356.3683" y="-336.6547" font-family="Helvetica,sans-Serif" font-size="10.00" fill="#000000">2</text>
</a>
</g>
</g>
<!-- dir_7d55c3d5b8b0444a3d9934d2594c5211 -->
<g id="node8" class="node">
<title>dir_7d55c3d5b8b0444a3d9934d2594c5211</title>
<g id="a_node8"><a xlink:href="dir_7d55c3d5b8b0444a3d9934d2594c5211.html" target="_top" xlink:title="math">
<polygon fill="none" stroke="#000000" points="424,-180 370,-180 370,-144 424,-144 424,-180"/>
<text text-anchor="middle" x="397" y="-159.5" font-family="Helvetica,sans-Serif" font-size="10.00" fill="#000000">math</text>
</a>
</g>
</g>
<!-- dir_4d6afa0018d27b03aafc768625d5f8d5&#45;&gt;dir_7d55c3d5b8b0444a3d9934d2594c5211 -->
<g id="edge7" class="edge">
<title>dir_4d6afa0018d27b03aafc768625d5f8d5&#45;&gt;dir_7d55c3d5b8b0444a3d9934d2594c5211</title>
<path fill="none" stroke="#000000" d="M228.5018,-512.4045C310.304,-490.8899 494,-436.1074 494,-378 494,-378 494,-378 494,-306 494,-257.7831 456.1279,-213.6001 427.7122,-187.2353"/>
<polygon fill="#000000" stroke="#000000" points="429.762,-184.3713 419.9876,-180.2831 425.0791,-189.5744 429.762,-184.3713"/>
<g id="a_edge7&#45;headlabel"><a xlink:href="dir_000065_000060.html" target="_top" xlink:title="2">
<text text-anchor="middle" x="434.3332" y="-182.1656" font-family="Helvetica,sans-Serif" font-size="10.00" fill="#000000">2</text>
</a>
</g>
</g>
<!-- dir_e56f4370c0abfd94d0eb867c3946e12e&#45;&gt;dir_fc0178d6978c9fa2cad6ef3e048a60a7 -->
<g id="edge8" class="edge">
<title>dir_e56f4370c0abfd94d0eb867c3946e12e&#45;&gt;dir_fc0178d6978c9fa2cad6ef3e048a60a7</title>
<path fill="none" stroke="#000000" d="M133.9014,-431.9756C133.0938,-413.7379 132.646,-384.7755 136,-360 148.9352,-264.4509 207.5702,-163.6518 237.8209,-116.8255"/>
<polygon fill="#000000" stroke="#000000" points="240.9206,-118.4808 243.4707,-108.1975 235.0644,-114.6461 240.9206,-118.4808"/>
<g id="a_edge8&#45;headlabel"><a xlink:href="dir_000062_000007.html" target="_top" xlink:title="3">
<text text-anchor="middle" x="241.3268" y="-120.5435" font-family="Helvetica,sans-Serif" font-size="10.00" fill="#000000">3</text>
</a>
</g>
</g>
<!-- dir_e56f4370c0abfd94d0eb867c3946e12e&#45;&gt;dir_a36da230f0956f48b11c85f7d599788f -->
<g id="edge9" class="edge">
<title>dir_e56f4370c0abfd94d0eb867c3946e12e&#45;&gt;dir_a36da230f0956f48b11c85f7d599788f</title>
<path fill="none" stroke="#000000" d="M122.1979,-431.8796C104.8455,-405.4944 76,-354.3605 76,-306 76,-306 76,-306 76,-162 76,-101.4243 140.4877,-57.9202 184.0378,-35.4474"/>
<polygon fill="#000000" stroke="#000000" points="185.8722,-38.4434 193.2524,-30.8418 182.7426,-32.1819 185.8722,-38.4434"/>
<g id="a_edge9&#45;headlabel"><a xlink:href="dir_000062_000006.html" target="_top" xlink:title="2">
<text text-anchor="middle" x="183.9262" y="-40.0901" font-family="Helvetica,sans-Serif" font-size="10.00" fill="#000000">2</text>
</a>
</g>
</g>
<!-- dir_e56f4370c0abfd94d0eb867c3946e12e&#45;&gt;dir_3f9cb8dbb3b4911cb2ecb548acd672c3 -->
<g id="edge10" class="edge">
<title>dir_e56f4370c0abfd94d0eb867c3946e12e&#45;&gt;dir_3f9cb8dbb3b4911cb2ecb548acd672c3</title>
<path fill="none" stroke="#000000" d="M162.1639,-436.9613C186.4062,-425.325 222.0925,-408.1956 248.7616,-395.3944"/>
<polygon fill="#000000" stroke="#000000" points="250.2845,-398.5458 257.7852,-391.0631 247.2554,-392.2351 250.2845,-398.5458"/>
<g id="a_edge10&#45;headlabel"><a xlink:href="dir_000062_000067.html" target="_top" xlink:title="4">
<text text-anchor="middle" x="248.2725" y="-400.1609" font-family="Helvetica,sans-Serif" font-size="10.00" fill="#000000">4</text>
</a>
</g>
</g>
<!-- dir_e56f4370c0abfd94d0eb867c3946e12e&#45;&gt;dir_656f7d340c0f5b4ecaf881820f2aea38 -->
<g id="edge11" class="edge">
<title>dir_e56f4370c0abfd94d0eb867c3946e12e&#45;&gt;dir_656f7d340c0f5b4ecaf881820f2aea38</title>
<path fill="none" stroke="#000000" d="M135.678,-431.8759C137.663,-400.1344 145.4528,-333.5351 176,-288 185.3655,-274.0393 199.5957,-262.3393 213.0126,-253.439"/>
<polygon fill="#000000" stroke="#000000" points="215.0552,-256.289 221.6526,-247.999 211.3254,-250.3654 215.0552,-256.289"/>
<g id="a_edge11&#45;headlabel"><a xlink:href="dir_000062_000063.html" target="_top" xlink:title="7">
<text text-anchor="middle" x="213.5261" y="-258.1069" font-family="Helvetica,sans-Serif" font-size="10.00" fill="#000000">7</text>
</a>
</g>
</g>
<!-- dir_fc0178d6978c9fa2cad6ef3e048a60a7&#45;&gt;dir_a36da230f0956f48b11c85f7d599788f -->
<g id="edge12" class="edge">
<title>dir_fc0178d6978c9fa2cad6ef3e048a60a7&#45;&gt;dir_a36da230f0956f48b11c85f7d599788f</title>
<path fill="none" stroke="#000000" d="M241.7203,-71.8314C237.3465,-63.9617 232.8286,-54.5712 229.1721,-45.8533"/>
<polygon fill="#000000" stroke="#000000" points="232.3777,-44.4409 225.4634,-36.4133 225.8625,-47.0006 232.3777,-44.4409"/>
<g id="a_edge12&#45;headlabel"><a xlink:href="dir_000007_000006.html" target="_top" xlink:title="60">
<text text-anchor="middle" x="236.3347" y="-44.2484" font-family="Helvetica,sans-Serif" font-size="10.00" fill="#000000">60</text>
</a>
</g>
</g>
<!-- dir_a36da230f0956f48b11c85f7d599788f&#45;&gt;dir_fc0178d6978c9fa2cad6ef3e048a60a7 -->
<g id="edge13" class="edge">
<title>dir_a36da230f0956f48b11c85f7d599788f&#45;&gt;dir_fc0178d6978c9fa2cad6ef3e048a60a7</title>
<path fill="none" stroke="#000000" d="M237.4154,-36.4133C241.7921,-44.3141 246.3025,-53.7132 249.941,-62.417"/>
<polygon fill="#000000" stroke="#000000" points="246.7216,-63.7944 253.6251,-71.8314 253.2402,-61.2435 246.7216,-63.7944"/>
<g id="a_edge13&#45;headlabel"><a xlink:href="dir_000006_000007.html" target="_top" xlink:title="1">
<text text-anchor="middle" x="242.7677" y="-58.9817" font-family="Helvetica,sans-Serif" font-size="10.00" fill="#000000">1</text>
</a>
</g>
</g>
<!-- dir_3f9cb8dbb3b4911cb2ecb548acd672c3&#45;&gt;dir_fc0178d6978c9fa2cad6ef3e048a60a7 -->
<g id="edge14" class="edge">
<title>dir_3f9cb8dbb3b4911cb2ecb548acd672c3&#45;&gt;dir_fc0178d6978c9fa2cad6ef3e048a60a7</title>
<path fill="none" stroke="#000000" d="M286.3244,-359.9456C288.229,-329.9443 290.9044,-267.9782 285,-216 281.1032,-181.6953 271.4205,-143.1289 264.3111,-117.805"/>
<polygon fill="#000000" stroke="#000000" points="267.6603,-116.7867 261.541,-108.1377 260.9311,-118.715 267.6603,-116.7867"/>
<g id="a_edge14&#45;headlabel"><a xlink:href="dir_000067_000007.html" target="_top" xlink:title="12">
<text text-anchor="middle" x="271.3798" y="-116.9601" font-family="Helvetica,sans-Serif" font-size="10.00" fill="#000000">12</text>
</a>
</g>
</g>
<!-- dir_3f9cb8dbb3b4911cb2ecb548acd672c3&#45;&gt;dir_a36da230f0956f48b11c85f7d599788f -->
<g id="edge15" class="edge">
<title>dir_3f9cb8dbb3b4911cb2ecb548acd672c3&#45;&gt;dir_a36da230f0956f48b11c85f7d599788f</title>
<path fill="none" stroke="#000000" d="M270.4239,-359.733C252.8012,-336.3641 224.1226,-293.8829 213,-252 193.7725,-179.5976 207.3981,-90.2163 216.5492,-45.7907"/>
<polygon fill="#000000" stroke="#000000" points="219.9732,-46.516 218.6446,-36.0048 213.1283,-45.0503 219.9732,-46.516"/>
<g id="a_edge15&#45;headlabel"><a xlink:href="dir_000067_000006.html" target="_top" xlink:title="146">
<text text-anchor="middle" x="221.997" y="-48.1254" font-family="Helvetica,sans-Serif" font-size="10.00" fill="#000000">146</text>
</a>
</g>
</g>
<!-- dir_3f9cb8dbb3b4911cb2ecb548acd672c3&#45;&gt;dir_b7a0e33b407baa23d8a077e33033c988 -->
<g id="edge16" class="edge">
<title>dir_3f9cb8dbb3b4911cb2ecb548acd672c3&#45;&gt;dir_b7a0e33b407baa23d8a077e33033c988</title>
<path fill="none" stroke="#000000" d="M298.2256,-359.8314C306.6405,-351.0485 317.7439,-340.3712 328.3171,-330.8489"/>
<polygon fill="#000000" stroke="#000000" points="330.7047,-333.4097 335.8763,-324.1628 326.067,-328.1664 330.7047,-333.4097"/>
<g id="a_edge16&#45;headlabel"><a xlink:href="dir_000067_000074.html" target="_top" xlink:title="16">
<text text-anchor="middle" x="329.8933" y="-335.4179" font-family="Helvetica,sans-Serif" font-size="10.00" fill="#000000">16</text>
</a>
</g>
</g>
<!-- dir_3f9cb8dbb3b4911cb2ecb548acd672c3&#45;&gt;dir_7d55c3d5b8b0444a3d9934d2594c5211 -->
<g id="edge17" class="edge">
<title>dir_3f9cb8dbb3b4911cb2ecb548acd672c3&#45;&gt;dir_7d55c3d5b8b0444a3d9934d2594c5211</title>
<path fill="none" stroke="#000000" d="M312.1495,-373.6307C339.4162,-367.6402 380.0283,-353.979 399,-324 424.7624,-283.2903 415.1559,-224.5362 405.9763,-190.1073"/>
<polygon fill="#000000" stroke="#000000" points="409.2766,-188.9159 403.1808,-180.2503 402.5422,-190.8258 409.2766,-188.9159"/>
<g id="a_edge17&#45;headlabel"><a xlink:href="dir_000067_000060.html" target="_top" xlink:title="14">
<text text-anchor="middle" x="412.9888" y="-189.0994" font-family="Helvetica,sans-Serif" font-size="10.00" fill="#000000">14</text>
</a>
</g>
</g>
<!-- dir_656f7d340c0f5b4ecaf881820f2aea38&#45;&gt;dir_fc0178d6978c9fa2cad6ef3e048a60a7 -->
<g id="edge18" class="edge">
<title>dir_656f7d340c0f5b4ecaf881820f2aea38&#45;&gt;dir_fc0178d6978c9fa2cad6ef3e048a60a7</title>
<path fill="none" stroke="#000000" d="M249.8866,-215.7623C251.0805,-191.201 253.2171,-147.2474 254.6217,-118.3541"/>
<polygon fill="#000000" stroke="#000000" points="258.1309,-118.2478 255.1206,-108.0896 251.1391,-117.9079 258.1309,-118.2478"/>
<g id="a_edge18&#45;headlabel"><a xlink:href="dir_000063_000007.html" target="_top" xlink:title="3">
<text text-anchor="middle" x="260.7924" y="-119.476" font-family="Helvetica,sans-Serif" font-size="10.00" fill="#000000">3</text>
</a>
</g>
</g>
<!-- dir_656f7d340c0f5b4ecaf881820f2aea38&#45;&gt;dir_a36da230f0956f48b11c85f7d599788f -->
<g id="edge19" class="edge">
<title>dir_656f7d340c0f5b4ecaf881820f2aea38&#45;&gt;dir_a36da230f0956f48b11c85f7d599788f</title>
<path fill="none" stroke="#000000" d="M243.459,-215.8623C236.3574,-191.5792 224.4337,-147.0311 220,-108 218.1941,-92.1022 219.5561,-87.9938 220,-72 220.2282,-63.7771 220.6516,-54.858 221.1098,-46.6823"/>
<polygon fill="#000000" stroke="#000000" points="224.6164,-46.6747 221.7188,-36.4838 217.6289,-46.2574 224.6164,-46.6747"/>
<g id="a_edge19&#45;headlabel"><a xlink:href="dir_000063_000006.html" target="_top" xlink:title="35">
<text text-anchor="middle" x="227.2365" y="-47.9321" font-family="Helvetica,sans-Serif" font-size="10.00" fill="#000000">35</text>
</a>
</g>
</g>
<!-- dir_656f7d340c0f5b4ecaf881820f2aea38&#45;&gt;dir_3f9cb8dbb3b4911cb2ecb548acd672c3 -->
<g id="edge20" class="edge">
<title>dir_656f7d340c0f5b4ecaf881820f2aea38&#45;&gt;dir_3f9cb8dbb3b4911cb2ecb548acd672c3</title>
<path fill="none" stroke="#000000" d="M253.5224,-252.0896C259.6701,-276.6805 270.7263,-320.905 277.9633,-349.8531"/>
<polygon fill="#000000" stroke="#000000" points="274.6196,-350.9098 280.4406,-359.7623 281.4106,-349.212 274.6196,-350.9098"/>
<g id="a_edge20&#45;headlabel"><a xlink:href="dir_000063_000067.html" target="_top" xlink:title="8">
<text text-anchor="middle" x="270.9934" y="-345.6111" font-family="Helvetica,sans-Serif" font-size="10.00" fill="#000000">8</text>
</a>
</g>
</g>
<!-- dir_656f7d340c0f5b4ecaf881820f2aea38&#45;&gt;dir_b7a0e33b407baa23d8a077e33033c988 -->
<g id="edge21" class="edge">
<title>dir_656f7d340c0f5b4ecaf881820f2aea38&#45;&gt;dir_b7a0e33b407baa23d8a077e33033c988</title>
<path fill="none" stroke="#000000" d="M276.3778,-248.0747C292.7156,-257.7487 313.3761,-270.8346 330.2526,-282.121"/>
<polygon fill="#000000" stroke="#000000" points="328.4467,-285.125 338.6901,-287.8314 332.3702,-279.3278 328.4467,-285.125"/>
<g id="a_edge21&#45;headlabel"><a xlink:href="dir_000063_000074.html" target="_top" xlink:title="8">
<text text-anchor="middle" x="323.8784" y="-282.9616" font-family="Helvetica,sans-Serif" font-size="10.00" fill="#000000">8</text>
</a>
</g>
</g>
<!-- dir_656f7d340c0f5b4ecaf881820f2aea38&#45;&gt;dir_7d55c3d5b8b0444a3d9934d2594c5211 -->
<g id="edge22" class="edge">
<title>dir_656f7d340c0f5b4ecaf881820f2aea38&#45;&gt;dir_7d55c3d5b8b0444a3d9934d2594c5211</title>
<path fill="none" stroke="#000000" d="M276.1455,-220.7941C299.8544,-209.26 334.464,-192.4229 360.5764,-179.7196"/>
<polygon fill="#000000" stroke="#000000" points="362.3152,-182.7659 369.7764,-175.2439 359.2529,-176.4713 362.3152,-182.7659"/>
<g id="a_edge22&#45;headlabel"><a xlink:href="dir_000063_000060.html" target="_top" xlink:title="4">
<text text-anchor="middle" x="360.3249" y="-184.3916" font-family="Helvetica,sans-Serif" font-size="10.00" fill="#000000">4</text>
</a>
</g>
</g>
<!-- dir_b7a0e33b407baa23d8a077e33033c988&#45;&gt;dir_fc0178d6978c9fa2cad6ef3e048a60a7 -->
<g id="edge23" class="edge">
<title>dir_b7a0e33b407baa23d8a077e33033c988&#45;&gt;dir_fc0178d6978c9fa2cad6ef3e048a60a7</title>
<path fill="none" stroke="#000000" d="M359.63,-287.6119C356.5502,-256.0395 346.913,-190.4411 318,-144 311.0352,-132.8129 301.0306,-122.6718 291.0845,-114.2771"/>
<polygon fill="#000000" stroke="#000000" points="293.1691,-111.4624 283.1796,-107.9325 288.7876,-116.9215 293.1691,-111.4624"/>
<g id="a_edge23&#45;headlabel"><a xlink:href="dir_000074_000007.html" target="_top" xlink:title="11">
<text text-anchor="middle" x="297.7497" y="-108.9981" font-family="Helvetica,sans-Serif" font-size="10.00" fill="#000000">11</text>
</a>
</g>
</g>
<!-- dir_b7a0e33b407baa23d8a077e33033c988&#45;&gt;dir_a36da230f0956f48b11c85f7d599788f -->
<g id="edge24" class="edge">
<title>dir_b7a0e33b407baa23d8a077e33033c988&#45;&gt;dir_a36da230f0956f48b11c85f7d599788f</title>
<path fill="none" stroke="#000000" d="M380.2405,-287.621C409.7046,-257.1527 459.9036,-194.5307 433,-144 398.0636,-78.382 312.8912,-43.6212 262.4002,-28.1764"/>
<polygon fill="#000000" stroke="#000000" points="263.3713,-24.8138 252.7896,-25.3415 261.3908,-31.5278 263.3713,-24.8138"/>
<g id="a_edge24&#45;headlabel"><a xlink:href="dir_000074_000006.html" target="_top" xlink:title="365">
<text text-anchor="middle" x="267.6223" y="-20.6074" font-family="Helvetica,sans-Serif" font-size="10.00" fill="#000000">365</text>
</a>
</g>
</g>
<!-- dir_b7a0e33b407baa23d8a077e33033c988&#45;&gt;dir_3f9cb8dbb3b4911cb2ecb548acd672c3 -->
<g id="edge25" class="edge">
<title>dir_b7a0e33b407baa23d8a077e33033c988&#45;&gt;dir_3f9cb8dbb3b4911cb2ecb548acd672c3</title>
<path fill="none" stroke="#000000" d="M347.5398,-324.4133C339.1399,-333.1637 328.1219,-343.7519 317.6311,-353.1978"/>
<polygon fill="#000000" stroke="#000000" points="315.3025,-350.5847 310.1304,-359.8314 319.9399,-355.8283 315.3025,-350.5847"/>
<g id="a_edge25&#45;headlabel"><a xlink:href="dir_000074_000067.html" target="_top" xlink:title="2">
<text text-anchor="middle" x="316.1142" y="-343.5766" font-family="Helvetica,sans-Serif" font-size="10.00" fill="#000000">2</text>
</a>
</g>
</g>
<!-- dir_b7a0e33b407baa23d8a077e33033c988&#45;&gt;dir_656f7d340c0f5b4ecaf881820f2aea38 -->
<g id="edge26" class="edge">
<title>dir_b7a0e33b407baa23d8a077e33033c988&#45;&gt;dir_656f7d340c0f5b4ecaf881820f2aea38</title>
<path fill="none" stroke="#000000" d="M331.9067,-290.9064C315.902,-281.3732 296.1534,-268.8468 279.8893,-257.9739"/>
<polygon fill="#000000" stroke="#000000" points="281.5015,-254.8389 271.258,-252.133 277.5784,-260.6362 281.5015,-254.8389"/>
<g id="a_edge26&#45;headlabel"><a xlink:href="dir_000074_000063.html" target="_top" xlink:title="7">
<text text-anchor="middle" x="286.0698" y="-252.002" font-family="Helvetica,sans-Serif" font-size="10.00" fill="#000000">7</text>
</a>
</g>
</g>
<!-- dir_b7a0e33b407baa23d8a077e33033c988&#45;&gt;dir_7d55c3d5b8b0444a3d9934d2594c5211 -->
<g id="edge27" class="edge">
<title>dir_b7a0e33b407baa23d8a077e33033c988&#45;&gt;dir_7d55c3d5b8b0444a3d9934d2594c5211</title>
<path fill="none" stroke="#000000" d="M365.5594,-287.7623C371.7268,-263.0928 382.7851,-218.8598 390.0067,-189.9731"/>
<polygon fill="#000000" stroke="#000000" points="393.4477,-190.6399 392.4776,-180.0896 386.6567,-188.9421 393.4477,-190.6399"/>
<g id="a_edge27&#45;headlabel"><a xlink:href="dir_000074_000060.html" target="_top" xlink:title="1">
<text text-anchor="middle" x="395.3304" y="-192.3158" font-family="Helvetica,sans-Serif" font-size="10.00" fill="#000000">1</text>
</a>
</g>
</g>
<!-- dir_7d55c3d5b8b0444a3d9934d2594c5211&#45;&gt;dir_fc0178d6978c9fa2cad6ef3e048a60a7 -->
<g id="edge28" class="edge">
<title>dir_7d55c3d5b8b0444a3d9934d2594c5211&#45;&gt;dir_fc0178d6978c9fa2cad6ef3e048a60a7</title>
<path fill="none" stroke="#000000" d="M369.8138,-148.1177C347.7718,-136.8622 316.5071,-120.8972 292.3217,-108.5473"/>
<polygon fill="#000000" stroke="#000000" points="293.6006,-105.2704 283.1028,-103.8397 290.4171,-111.5047 293.6006,-105.2704"/>
<g id="a_edge28&#45;headlabel"><a xlink:href="dir_000060_000007.html" target="_top" xlink:title="2">
<text text-anchor="middle" x="298.0932" y="-101.8764" font-family="Helvetica,sans-Serif" font-size="10.00" fill="#000000">2</text>
</a>
</g>
</g>
<!-- dir_7d55c3d5b8b0444a3d9934d2594c5211&#45;&gt;dir_a36da230f0956f48b11c85f7d599788f -->
<g id="edge29" class="edge">
<title>dir_7d55c3d5b8b0444a3d9934d2594c5211&#45;&gt;dir_a36da230f0956f48b11c85f7d599788f</title>
<path fill="none" stroke="#000000" d="M376.314,-143.7934C355.3031,-125.414 321.7166,-96.3437 292,-72 280.0691,-62.2263 266.7654,-51.724 255.0479,-42.6033"/>
<polygon fill="#000000" stroke="#000000" points="256.8853,-39.5991 246.8383,-36.2364 252.5954,-45.1306 256.8853,-39.5991"/>
<g id="a_edge29&#45;headlabel"><a xlink:href="dir_000060_000006.html" target="_top" xlink:title="16">
<text text-anchor="middle" x="261.4658" y="-37.0584" font-family="Helvetica,sans-Serif" font-size="10.00" fill="#000000">16</text>
</a>
</g>
</g>
</g>
</svg>
