<?xml version="1.0" encoding="UTF-8" standalone="no"?>
<!DOCTYPE svg PUBLIC "-//W3C//DTD SVG 1.1//EN"
 "http://www.w3.org/Graphics/SVG/1.1/DTD/svg11.dtd">
<!-- Generated by graphviz version 2.40.1 (20161225.0304)
 -->
<!-- Title: drake/bindings/pydrake Pages: 1 -->
<svg width="318pt" height="231pt"
 viewBox="0.00 0.00 318.00 231.00" xmlns="http://www.w3.org/2000/svg" xmlns:xlink="http://www.w3.org/1999/xlink">
<g id="graph0" class="graph" transform="scale(1 1) rotate(0) translate(4 227)">
<title>drake/bindings/pydrake</title>
<polygon fill="#ffffff" stroke="transparent" points="-4,4 -4,-227 314,-227 314,4 -4,4"/>
<g id="clust1" class="cluster">
<title>clusterdir_a8013f4957f3230075674e48512c1ba8</title>
<g id="a_clust1"><a xlink:href="dir_a8013f4957f3230075674e48512c1ba8.html" target="_top" xlink:title="bindings">
<polygon fill="#ddddee" stroke="#000000" points="8,-56 8,-215 244,-215 244,-56 8,-56"/>
<text text-anchor="middle" x="126" y="-203" font-family="Helvetica,sans-Serif" font-size="10.00" fill="#000000">bindings</text>
</a>
</g>
</g>
<g id="clust2" class="cluster">
<title>clusterdir_8816e59dc2bf9c067e8fdc1ddb07dc45</title>
<g id="a_clust2"><a xlink:href="dir_8816e59dc2bf9c067e8fdc1ddb07dc45.html" target="_top">
<polygon fill="#eeeeff" stroke="#000000" points="16,-64 16,-188 236,-188 236,-64 16,-64"/>
</a>
</g>
</g>
<!-- dir_8816e59dc2bf9c067e8fdc1ddb07dc45 -->
<g id="node1" class="node">
<title>dir_8816e59dc2bf9c067e8fdc1ddb07dc45</title>
<text text-anchor="middle" x="200" y="-159.5" font-family="Helvetica,sans-Serif" font-size="10.00" fill="#000000">pydrake</text>
</g>
<!-- dir_747259117fa90714ed7dadfdb71f4370 -->
<g id="node2" class="node">
<title>dir_747259117fa90714ed7dadfdb71f4370</title>
<g id="a_node2"><a xlink:href="dir_747259117fa90714ed7dadfdb71f4370.html" target="_top" xlink:title="common">
<polygon fill="#ffffff" stroke="#000000" points="155.5,-108 96.5,-108 96.5,-72 155.5,-72 155.5,-108"/>
<text text-anchor="middle" x="126" y="-87.5" font-family="Helvetica,sans-Serif" font-size="10.00" fill="#000000">common</text>
</a>
</g>
</g>
<!-- dir_a36da230f0956f48b11c85f7d599788f -->
<g id="node5" class="node">
<title>dir_a36da230f0956f48b11c85f7d599788f</title>
<g id="a_node5"><a xlink:href="dir_a36da230f0956f48b11c85f7d599788f.html" target="_top" xlink:title="common">
<polygon fill="#ffffff" stroke="#ff0000" points="232.5,-36 173.5,-36 173.5,0 232.5,0 232.5,-36"/>
<text text-anchor="middle" x="203" y="-15.5" font-family="Helvetica,sans-Serif" font-size="10.00" fill="#000000">common</text>
</a>
</g>
</g>
<!-- dir_747259117fa90714ed7dadfdb71f4370&#45;&gt;dir_a36da230f0956f48b11c85f7d599788f -->
<g id="edge1" class="edge">
<title>dir_747259117fa90714ed7dadfdb71f4370&#45;&gt;dir_a36da230f0956f48b11c85f7d599788f</title>
<path fill="none" stroke="#000000" d="M145.4304,-71.8314C154.732,-63.1337 166.0204,-52.5783 176.1286,-43.1265"/>
<polygon fill="#000000" stroke="#000000" points="178.6621,-45.5493 183.5759,-36.1628 173.8811,-40.4363 178.6621,-45.5493"/>
<g id="a_edge1&#45;headlabel"><a xlink:href="dir_000003_000006.html" target="_top" xlink:title="8">
<text text-anchor="middle" x="177.9757" y="-47.5782" font-family="Helvetica,sans-Serif" font-size="10.00" fill="#000000">8</text>
</a>
</g>
</g>
<!-- dir_fd5a8b80375bde94b1137be9b3ceb9fd -->
<g id="node3" class="node">
<title>dir_fd5a8b80375bde94b1137be9b3ceb9fd</title>
<g id="a_node3"><a xlink:href="dir_fd5a8b80375bde94b1137be9b3ceb9fd.html" target="_top" xlink:title="solvers">
<polygon fill="#ffffff" stroke="#000000" points="154,-180 100,-180 100,-144 154,-144 154,-180"/>
<text text-anchor="middle" x="127" y="-159.5" font-family="Helvetica,sans-Serif" font-size="10.00" fill="#000000">solvers</text>
</a>
</g>
</g>
<!-- dir_2801189a4b16f72066eac0bdd511a19c -->
<g id="node4" class="node">
<title>dir_2801189a4b16f72066eac0bdd511a19c</title>
<g id="a_node4"><a xlink:href="dir_2801189a4b16f72066eac0bdd511a19c.html" target="_top" xlink:title="systems">
<polygon fill="#ffffff" stroke="#000000" points="82,-180 24,-180 24,-144 82,-144 82,-180"/>
<text text-anchor="middle" x="53" y="-159.5" font-family="Helvetica,sans-Serif" font-size="10.00" fill="#000000">systems</text>
</a>
</g>
</g>
<!-- dir_2801189a4b16f72066eac0bdd511a19c&#45;&gt;dir_747259117fa90714ed7dadfdb71f4370 -->
<g id="edge2" class="edge">
<title>dir_2801189a4b16f72066eac0bdd511a19c&#45;&gt;dir_747259117fa90714ed7dadfdb71f4370</title>
<path fill="none" stroke="#000000" d="M71.421,-143.8314C80.1529,-135.219 90.7317,-124.7851 100.2423,-115.4048"/>
<polygon fill="#000000" stroke="#000000" points="102.923,-117.6769 107.5849,-108.1628 98.0075,-112.6931 102.923,-117.6769"/>
<g id="a_edge2&#45;headlabel"><a xlink:href="dir_000005_000003.html" target="_top" xlink:title="1">
<text text-anchor="middle" x="102.3575" y="-119.7225" font-family="Helvetica,sans-Serif" font-size="10.00" fill="#000000">1</text>
</a>
</g>
</g>
<!-- dir_b7a0e33b407baa23d8a077e33033c988 -->
<g id="node6" class="node">
<title>dir_b7a0e33b407baa23d8a077e33033c988</title>
<g id="a_node6"><a xlink:href="dir_b7a0e33b407baa23d8a077e33033c988.html" target="_top" xlink:title="systems">
<polygon fill="#ffffff" stroke="#ff0000" points="310,-108 252,-108 252,-72 310,-72 310,-108"/>
<text text-anchor="middle" x="281" y="-87.5" font-family="Helvetica,sans-Serif" font-size="10.00" fill="#000000">systems</text>
</a>
</g>
</g>
<!-- dir_2801189a4b16f72066eac0bdd511a19c&#45;&gt;dir_b7a0e33b407baa23d8a077e33033c988 -->
<g id="edge3" class="edge">
<title>dir_2801189a4b16f72066eac0bdd511a19c&#45;&gt;dir_b7a0e33b407baa23d8a077e33033c988</title>
<path fill="none" stroke="#000000" d="M82.2071,-147.4363C85.1442,-146.1926 88.1093,-145.0217 91,-144 155.234,-121.2982 175.447,-129.7782 240,-108 240.7182,-107.7577 241.4411,-107.5078 242.1674,-107.2511"/>
<polygon fill="#000000" stroke="#000000" points="243.5942,-110.4528 251.6845,-103.612 241.094,-103.9145 243.5942,-110.4528"/>
<g id="a_edge3&#45;headlabel"><a xlink:href="dir_000005_000075.html" target="_top" xlink:title="1">
<text text-anchor="middle" x="241.2507" y="-111.8886" font-family="Helvetica,sans-Serif" font-size="10.00" fill="#000000">1</text>
</a>
</g>
</g>
<!-- dir_b7a0e33b407baa23d8a077e33033c988&#45;&gt;dir_a36da230f0956f48b11c85f7d599788f -->
<g id="edge4" class="edge">
<title>dir_b7a0e33b407baa23d8a077e33033c988&#45;&gt;dir_a36da230f0956f48b11c85f7d599788f</title>
<path fill="none" stroke="#000000" d="M261.3173,-71.8314C251.8949,-63.1337 240.4599,-52.5783 230.2204,-43.1265"/>
<polygon fill="#000000" stroke="#000000" points="232.3984,-40.3738 222.6764,-36.1628 227.6505,-45.5175 232.3984,-40.3738"/>
<g id="a_edge4&#45;headlabel"><a xlink:href="dir_000075_000006.html" target="_top" xlink:title="363">
<text text-anchor="middle" x="236.9656" y="-38.2257" font-family="Helvetica,sans-Serif" font-size="10.00" fill="#000000">363</text>
</a>
</g>
</g>
</g>
</svg>
