<?xml version="1.0" encoding="UTF-8" standalone="no"?>
<!DOCTYPE svg PUBLIC "-//W3C//DTD SVG 1.1//EN"
 "http://www.w3.org/Graphics/SVG/1.1/DTD/svg11.dtd">
<!-- Generated by graphviz version 2.40.1 (20161225.0304)
 -->
<!-- Title: drake/systems/lcm Pages: 1 -->
<svg width="163pt" height="223pt"
 viewBox="0.00 0.00 163.02 223.00" xmlns="http://www.w3.org/2000/svg" xmlns:xlink="http://www.w3.org/1999/xlink">
<g id="graph0" class="graph" transform="scale(1 1) rotate(0) translate(4 219)">
<title>drake/systems/lcm</title>
<polygon fill="#ffffff" stroke="transparent" points="-4,4 -4,-219 159.0228,-219 159.0228,4 -4,4"/>
<g id="clust1" class="cluster">
<title>clusterdir_b7a0e33b407baa23d8a077e33033c988</title>
<g id="a_clust1"><a xlink:href="dir_b7a0e33b407baa23d8a077e33033c988.html" target="_top" xlink:title="systems">
<polygon fill="#ddddee" stroke="#000000" points="72,-136 72,-207 142,-207 142,-136 72,-136"/>
<text text-anchor="middle" x="107" y="-195" font-family="Helvetica,sans-Serif" font-size="10.00" fill="#000000">systems</text>
</a>
</g>
</g>
<!-- dir_b001a274ea8b6b5c370fedfcc7a1b81c -->
<g id="node1" class="node">
<title>dir_b001a274ea8b6b5c370fedfcc7a1b81c</title>
<g id="a_node1"><a xlink:href="dir_b001a274ea8b6b5c370fedfcc7a1b81c.html" target="_top" xlink:title="lcm">
<polygon fill="#eeeeff" stroke="#000000" points="134,-180 80,-180 80,-144 134,-144 134,-180"/>
<text text-anchor="middle" x="107" y="-159.5" font-family="Helvetica,sans-Serif" font-size="10.00" fill="#000000">lcm</text>
</a>
</g>
</g>
<!-- dir_3c3c25df5132fca4f15a988b4c2efab5 -->
<g id="node2" class="node">
<title>dir_3c3c25df5132fca4f15a988b4c2efab5</title>
<g id="a_node2"><a xlink:href="dir_3c3c25df5132fca4f15a988b4c2efab5.html" target="_top" xlink:title="lcm">
<polygon fill="none" stroke="#000000" points="54,-108 0,-108 0,-72 54,-72 54,-108"/>
<text text-anchor="middle" x="27" y="-87.5" font-family="Helvetica,sans-Serif" font-size="10.00" fill="#000000">lcm</text>
</a>
</g>
</g>
<!-- dir_b001a274ea8b6b5c370fedfcc7a1b81c&#45;&gt;dir_3c3c25df5132fca4f15a988b4c2efab5 -->
<g id="edge3" class="edge">
<title>dir_b001a274ea8b6b5c370fedfcc7a1b81c&#45;&gt;dir_3c3c25df5132fca4f15a988b4c2efab5</title>
<path fill="none" stroke="#000000" d="M86.8126,-143.8314C77.1486,-135.1337 65.4204,-124.5783 54.9184,-115.1265"/>
<polygon fill="#000000" stroke="#000000" points="56.9553,-112.251 47.1809,-108.1628 52.2725,-117.454 56.9553,-112.251"/>
<g id="a_edge3&#45;headlabel"><a xlink:href="dir_000081_000041.html" target="_top" xlink:title="4">
<text text-anchor="middle" x="61.5265" y="-110.0452" font-family="Helvetica,sans-Serif" font-size="10.00" fill="#000000">4</text>
</a>
</g>
</g>
<!-- dir_2186f45272e5c29e3ac18ec762ab7501 -->
<g id="node3" class="node">
<title>dir_2186f45272e5c29e3ac18ec762ab7501</title>
<g id="a_node3"><a xlink:href="dir_2186f45272e5c29e3ac18ec762ab7501.html" target="_top" xlink:title="framework">
<polygon fill="#ffffff" stroke="#ff0000" points="142,-108 72,-108 72,-72 142,-72 142,-108"/>
<text text-anchor="middle" x="107" y="-87.5" font-family="Helvetica,sans-Serif" font-size="10.00" fill="#000000">framework</text>
</a>
</g>
</g>
<!-- dir_b001a274ea8b6b5c370fedfcc7a1b81c&#45;&gt;dir_2186f45272e5c29e3ac18ec762ab7501 -->
<g id="edge4" class="edge">
<title>dir_b001a274ea8b6b5c370fedfcc7a1b81c&#45;&gt;dir_2186f45272e5c29e3ac18ec762ab7501</title>
<path fill="none" stroke="#000000" d="M107,-143.8314C107,-136.131 107,-126.9743 107,-118.4166"/>
<polygon fill="#000000" stroke="#000000" points="110.5001,-118.4132 107,-108.4133 103.5001,-118.4133 110.5001,-118.4132"/>
<g id="a_edge4&#45;headlabel"><a xlink:href="dir_000081_000079.html" target="_top" xlink:title="7">
<text text-anchor="middle" x="113.3393" y="-119.5079" font-family="Helvetica,sans-Serif" font-size="10.00" fill="#000000">7</text>
</a>
</g>
</g>
<!-- dir_a36da230f0956f48b11c85f7d599788f -->
<g id="node4" class="node">
<title>dir_a36da230f0956f48b11c85f7d599788f</title>
<g id="a_node4"><a xlink:href="dir_a36da230f0956f48b11c85f7d599788f.html" target="_top" xlink:title="common">
<polygon fill="#ffffff" stroke="#ff0000" points="136.5,-36 77.5,-36 77.5,0 136.5,0 136.5,-36"/>
<text text-anchor="middle" x="107" y="-15.5" font-family="Helvetica,sans-Serif" font-size="10.00" fill="#000000">common</text>
</a>
</g>
</g>
<!-- dir_b001a274ea8b6b5c370fedfcc7a1b81c&#45;&gt;dir_a36da230f0956f48b11c85f7d599788f -->
<g id="edge5" class="edge">
<title>dir_b001a274ea8b6b5c370fedfcc7a1b81c&#45;&gt;dir_a36da230f0956f48b11c85f7d599788f</title>
<path fill="none" stroke="#000000" d="M127.4026,-143.5625C136.4941,-133.9675 146.2162,-121.4441 151,-108 156.3638,-92.9258 156.3638,-87.0742 151,-72 147.4122,-61.9169 141.0465,-52.3517 134.2524,-44.1515"/>
<polygon fill="#000000" stroke="#000000" points="136.6596,-41.591 127.4026,-36.4375 131.4253,-46.2389 136.6596,-41.591"/>
<g id="a_edge5&#45;headlabel"><a xlink:href="dir_000081_000006.html" target="_top" xlink:title="13">
<text text-anchor="middle" x="141.1694" y="-39.8936" font-family="Helvetica,sans-Serif" font-size="10.00" fill="#000000">13</text>
</a>
</g>
</g>
<!-- dir_3c3c25df5132fca4f15a988b4c2efab5&#45;&gt;dir_a36da230f0956f48b11c85f7d599788f -->
<g id="edge1" class="edge">
<title>dir_3c3c25df5132fca4f15a988b4c2efab5&#45;&gt;dir_a36da230f0956f48b11c85f7d599788f</title>
<path fill="none" stroke="#000000" d="M47.1874,-71.8314C56.8514,-63.1337 68.5796,-52.5783 79.0816,-43.1265"/>
<polygon fill="#000000" stroke="#000000" points="81.7275,-45.454 86.8191,-36.1628 77.0447,-40.251 81.7275,-45.454"/>
<g id="a_edge1&#45;headlabel"><a xlink:href="dir_000041_000006.html" target="_top" xlink:title="7">
<text text-anchor="middle" x="80.955" y="-47.4691" font-family="Helvetica,sans-Serif" font-size="10.00" fill="#000000">7</text>
</a>
</g>
</g>
<!-- dir_2186f45272e5c29e3ac18ec762ab7501&#45;&gt;dir_a36da230f0956f48b11c85f7d599788f -->
<g id="edge2" class="edge">
<title>dir_2186f45272e5c29e3ac18ec762ab7501&#45;&gt;dir_a36da230f0956f48b11c85f7d599788f</title>
<path fill="none" stroke="#000000" d="M107,-71.8314C107,-64.131 107,-54.9743 107,-46.4166"/>
<polygon fill="#000000" stroke="#000000" points="110.5001,-46.4132 107,-36.4133 103.5001,-46.4133 110.5001,-46.4132"/>
<g id="a_edge2&#45;headlabel"><a xlink:href="dir_000079_000006.html" target="_top" xlink:title="172">
<text text-anchor="middle" x="113.3393" y="-47.5079" font-family="Helvetica,sans-Serif" font-size="10.00" fill="#000000">172</text>
</a>
</g>
</g>
</g>
</svg>
