<?xml version="1.0" encoding="UTF-8" standalone="no"?>
<!DOCTYPE svg PUBLIC "-//W3C//DTD SVG 1.1//EN"
 "http://www.w3.org/Graphics/SVG/1.1/DTD/svg11.dtd">
<!-- Generated by graphviz version 2.40.1 (20161225.0304)
 -->
<!-- Title: drake/geometry/render/gl_renderer Pages: 1 -->
<svg width="146pt" height="295pt"
 viewBox="0.00 0.00 146.00 295.00" xmlns="http://www.w3.org/2000/svg" xmlns:xlink="http://www.w3.org/1999/xlink">
<g id="graph0" class="graph" transform="scale(1 1) rotate(0) translate(4 291)">
<title>drake/geometry/render/gl_renderer</title>
<polygon fill="#ffffff" stroke="transparent" points="-4,4 -4,-291 142,-291 142,4 -4,4"/>
<g id="clust1" class="cluster">
<title>clusterdir_05142ce2278c744298ef3f06d9e628a4</title>
<g id="a_clust1"><a xlink:href="dir_05142ce2278c744298ef3f06d9e628a4.html" target="_top" xlink:title="render">
<polygon fill="#ddddee" stroke="#000000" points="8,-208 8,-279 96,-279 96,-208 8,-208"/>
<text text-anchor="middle" x="52" y="-267" font-family="Helvetica,sans-Serif" font-size="10.00" fill="#000000">render</text>
</a>
</g>
</g>
<!-- dir_44483f0323bd602a0990582f52e44742 -->
<g id="node1" class="node">
<title>dir_44483f0323bd602a0990582f52e44742</title>
<g id="a_node1"><a xlink:href="dir_44483f0323bd602a0990582f52e44742.html" target="_top" xlink:title="gl_renderer">
<polygon fill="#eeeeff" stroke="#000000" points="88,-252 16,-252 16,-216 88,-216 88,-252"/>
<text text-anchor="middle" x="52" y="-231.5" font-family="Helvetica,sans-Serif" font-size="10.00" fill="#000000">gl_renderer</text>
</a>
</g>
</g>
<!-- dir_fc0178d6978c9fa2cad6ef3e048a60a7 -->
<g id="node2" class="node">
<title>dir_fc0178d6978c9fa2cad6ef3e048a60a7</title>
<g id="a_node2"><a xlink:href="dir_fc0178d6978c9fa2cad6ef3e048a60a7.html" target="_top" xlink:title="math">
<polygon fill="none" stroke="#000000" points="89,-108 35,-108 35,-72 89,-72 89,-108"/>
<text text-anchor="middle" x="62" y="-87.5" font-family="Helvetica,sans-Serif" font-size="10.00" fill="#000000">math</text>
</a>
</g>
</g>
<!-- dir_44483f0323bd602a0990582f52e44742&#45;&gt;dir_fc0178d6978c9fa2cad6ef3e048a60a7 -->
<g id="edge3" class="edge">
<title>dir_44483f0323bd602a0990582f52e44742&#45;&gt;dir_fc0178d6978c9fa2cad6ef3e048a60a7</title>
<path fill="none" stroke="#000000" d="M53.2665,-215.7623C54.9721,-191.201 58.0245,-147.2474 60.031,-118.3541"/>
<polygon fill="#000000" stroke="#000000" points="63.5425,-118.3081 60.7438,-108.0896 56.5593,-117.8231 63.5425,-118.3081"/>
<g id="a_edge3&#45;headlabel"><a xlink:href="dir_000038_000007.html" target="_top" xlink:title="2">
<text text-anchor="middle" x="66.126" y="-119.5907" font-family="Helvetica,sans-Serif" font-size="10.00" fill="#000000">2</text>
</a>
</g>
</g>
<!-- dir_a36da230f0956f48b11c85f7d599788f -->
<g id="node3" class="node">
<title>dir_a36da230f0956f48b11c85f7d599788f</title>
<g id="a_node3"><a xlink:href="dir_a36da230f0956f48b11c85f7d599788f.html" target="_top" xlink:title="common">
<polygon fill="#ffffff" stroke="#ff0000" points="91.5,-36 32.5,-36 32.5,0 91.5,0 91.5,-36"/>
<text text-anchor="middle" x="62" y="-15.5" font-family="Helvetica,sans-Serif" font-size="10.00" fill="#000000">common</text>
</a>
</g>
</g>
<!-- dir_44483f0323bd602a0990582f52e44742&#45;&gt;dir_a36da230f0956f48b11c85f7d599788f -->
<g id="edge4" class="edge">
<title>dir_44483f0323bd602a0990582f52e44742&#45;&gt;dir_a36da230f0956f48b11c85f7d599788f</title>
<path fill="none" stroke="#000000" d="M43.7874,-215.6609C31.3289,-185.2499 10.6467,-122.7086 26,-72 28.9564,-62.2355 34.3252,-52.6229 40.03,-44.2762"/>
<polygon fill="#000000" stroke="#000000" points="42.9414,-46.2239 46.0095,-36.0831 37.2871,-42.0973 42.9414,-46.2239"/>
<g id="a_edge4&#45;headlabel"><a xlink:href="dir_000038_000006.html" target="_top" xlink:title="5">
<text text-anchor="middle" x="43.1158" y="-48.3013" font-family="Helvetica,sans-Serif" font-size="10.00" fill="#000000">5</text>
</a>
</g>
</g>
<!-- dir_b7a0e33b407baa23d8a077e33033c988 -->
<g id="node4" class="node">
<title>dir_b7a0e33b407baa23d8a077e33033c988</title>
<g id="a_node4"><a xlink:href="dir_b7a0e33b407baa23d8a077e33033c988.html" target="_top" xlink:title="systems">
<polygon fill="#ffffff" stroke="#ff0000" points="138,-180 80,-180 80,-144 138,-144 138,-180"/>
<text text-anchor="middle" x="109" y="-159.5" font-family="Helvetica,sans-Serif" font-size="10.00" fill="#000000">systems</text>
</a>
</g>
</g>
<!-- dir_44483f0323bd602a0990582f52e44742&#45;&gt;dir_b7a0e33b407baa23d8a077e33033c988 -->
<g id="edge5" class="edge">
<title>dir_44483f0323bd602a0990582f52e44742&#45;&gt;dir_b7a0e33b407baa23d8a077e33033c988</title>
<path fill="none" stroke="#000000" d="M66.3835,-215.8314C72.9486,-207.5386 80.8507,-197.557 88.0578,-188.4533"/>
<polygon fill="#000000" stroke="#000000" points="90.9599,-190.4262 94.4228,-180.4133 85.4716,-186.0813 90.9599,-190.4262"/>
<g id="a_edge5&#45;headlabel"><a xlink:href="dir_000038_000074.html" target="_top" xlink:title="1">
<text text-anchor="middle" x="90.9549" y="-192.5069" font-family="Helvetica,sans-Serif" font-size="10.00" fill="#000000">1</text>
</a>
</g>
</g>
<!-- dir_fc0178d6978c9fa2cad6ef3e048a60a7&#45;&gt;dir_a36da230f0956f48b11c85f7d599788f -->
<g id="edge1" class="edge">
<title>dir_fc0178d6978c9fa2cad6ef3e048a60a7&#45;&gt;dir_a36da230f0956f48b11c85f7d599788f</title>
<path fill="none" stroke="#000000" d="M56.0476,-71.8314C55.2972,-64.131 55.0763,-54.9743 55.3849,-46.4166"/>
<polygon fill="#000000" stroke="#000000" points="58.8792,-46.6161 56.024,-36.4133 51.8935,-46.1697 58.8792,-46.6161"/>
<g id="a_edge1&#45;headlabel"><a xlink:href="dir_000007_000006.html" target="_top" xlink:title="60">
<text text-anchor="middle" x="61.4836" y="-47.8844" font-family="Helvetica,sans-Serif" font-size="10.00" fill="#000000">60</text>
</a>
</g>
</g>
<!-- dir_a36da230f0956f48b11c85f7d599788f&#45;&gt;dir_fc0178d6978c9fa2cad6ef3e048a60a7 -->
<g id="edge2" class="edge">
<title>dir_a36da230f0956f48b11c85f7d599788f&#45;&gt;dir_fc0178d6978c9fa2cad6ef3e048a60a7</title>
<path fill="none" stroke="#000000" d="M67.976,-36.4133C68.7071,-44.0593 68.9203,-53.1084 68.6155,-61.5726"/>
<polygon fill="#000000" stroke="#000000" points="65.1048,-61.6264 67.9524,-71.8314 72.0902,-62.078 65.1048,-61.6264"/>
<g id="a_edge2&#45;headlabel"><a xlink:href="dir_000006_000007.html" target="_top" xlink:title="1">
<text text-anchor="middle" x="62.5032" y="-55.3562" font-family="Helvetica,sans-Serif" font-size="10.00" fill="#000000">1</text>
</a>
</g>
</g>
<!-- dir_b7a0e33b407baa23d8a077e33033c988&#45;&gt;dir_fc0178d6978c9fa2cad6ef3e048a60a7 -->
<g id="edge6" class="edge">
<title>dir_b7a0e33b407baa23d8a077e33033c988&#45;&gt;dir_fc0178d6978c9fa2cad6ef3e048a60a7</title>
<path fill="none" stroke="#000000" d="M97.1399,-143.8314C91.8371,-135.7079 85.4763,-125.9637 79.6327,-117.0118"/>
<polygon fill="#000000" stroke="#000000" points="82.4169,-114.8739 74.0198,-108.4133 76.5552,-118.7003 82.4169,-114.8739"/>
<g id="a_edge6&#45;headlabel"><a xlink:href="dir_000074_000007.html" target="_top" xlink:title="11">
<text text-anchor="middle" x="86.7593" y="-113.8319" font-family="Helvetica,sans-Serif" font-size="10.00" fill="#000000">11</text>
</a>
</g>
</g>
<!-- dir_b7a0e33b407baa23d8a077e33033c988&#45;&gt;dir_a36da230f0956f48b11c85f7d599788f -->
<g id="edge7" class="edge">
<title>dir_b7a0e33b407baa23d8a077e33033c988&#45;&gt;dir_a36da230f0956f48b11c85f7d599788f</title>
<path fill="none" stroke="#000000" d="M109.2173,-143.8348C108.8854,-125.2351 106.8046,-95.7649 98,-72 94.4556,-62.4332 88.9148,-52.8784 83.2333,-44.524"/>
<polygon fill="#000000" stroke="#000000" points="86.0102,-42.3903 77.3393,-36.302 80.321,-46.4687 86.0102,-42.3903"/>
<g id="a_edge7&#45;headlabel"><a xlink:href="dir_000074_000006.html" target="_top" xlink:title="365">
<text text-anchor="middle" x="90.4121" y="-41.1576" font-family="Helvetica,sans-Serif" font-size="10.00" fill="#000000">365</text>
</a>
</g>
</g>
</g>
</svg>
