<?xml version="1.0" encoding="UTF-8" standalone="no"?>
<!DOCTYPE svg PUBLIC "-//W3C//DTD SVG 1.1//EN"
 "http://www.w3.org/Graphics/SVG/1.1/DTD/svg11.dtd">
<!-- Generated by graphviz version 2.40.1 (20161225.0304)
 -->
<!-- Title: drake/multibody/benchmarks/free_body Pages: 1 -->
<svg width="115pt" height="223pt"
 viewBox="0.00 0.00 114.50 223.00" xmlns="http://www.w3.org/2000/svg" xmlns:xlink="http://www.w3.org/1999/xlink">
<g id="graph0" class="graph" transform="scale(1 1) rotate(0) translate(4 219)">
<title>drake/multibody/benchmarks/free_body</title>
<polygon fill="#ffffff" stroke="transparent" points="-4,4 -4,-219 110.5,-219 110.5,4 -4,4"/>
<g id="clust1" class="cluster">
<title>clusterdir_5d8dbe7a82c2c188fa06f6391bb290bd</title>
<g id="a_clust1"><a xlink:href="dir_5d8dbe7a82c2c188fa06f6391bb290bd.html" target="_top" xlink:title="benchmarks">
<polygon fill="#ddddee" stroke="#000000" points="16.5,-136 16.5,-207 98.5,-207 98.5,-136 16.5,-136"/>
<text text-anchor="middle" x="57.5" y="-195" font-family="Helvetica,sans-Serif" font-size="10.00" fill="#000000">benchmarks</text>
</a>
</g>
</g>
<!-- dir_0767593f2fce2cf954de79364fec17e6 -->
<g id="node1" class="node">
<title>dir_0767593f2fce2cf954de79364fec17e6</title>
<g id="a_node1"><a xlink:href="dir_0767593f2fce2cf954de79364fec17e6.html" target="_top" xlink:title="free_body">
<polygon fill="#eeeeff" stroke="#000000" points="90,-180 25,-180 25,-144 90,-144 90,-180"/>
<text text-anchor="middle" x="57.5" y="-159.5" font-family="Helvetica,sans-Serif" font-size="10.00" fill="#000000">free_body</text>
</a>
</g>
</g>
<!-- dir_fc0178d6978c9fa2cad6ef3e048a60a7 -->
<g id="node2" class="node">
<title>dir_fc0178d6978c9fa2cad6ef3e048a60a7</title>
<g id="a_node2"><a xlink:href="dir_fc0178d6978c9fa2cad6ef3e048a60a7.html" target="_top" xlink:title="math">
<polygon fill="none" stroke="#000000" points="56.5,-108 2.5,-108 2.5,-72 56.5,-72 56.5,-108"/>
<text text-anchor="middle" x="29.5" y="-87.5" font-family="Helvetica,sans-Serif" font-size="10.00" fill="#000000">math</text>
</a>
</g>
</g>
<!-- dir_0767593f2fce2cf954de79364fec17e6&#45;&gt;dir_fc0178d6978c9fa2cad6ef3e048a60a7 -->
<g id="edge3" class="edge">
<title>dir_0767593f2fce2cf954de79364fec17e6&#45;&gt;dir_fc0178d6978c9fa2cad6ef3e048a60a7</title>
<path fill="none" stroke="#000000" d="M50.4344,-143.8314C47.374,-135.9617 43.7221,-126.5712 40.3318,-117.8533"/>
<polygon fill="#000000" stroke="#000000" points="43.5473,-116.4647 36.6607,-108.4133 37.0232,-119.0019 43.5473,-116.4647"/>
<g id="a_edge3&#45;headlabel"><a xlink:href="dir_000052_000007.html" target="_top" xlink:title="2">
<text text-anchor="middle" x="47.4963" y="-116.2859" font-family="Helvetica,sans-Serif" font-size="10.00" fill="#000000">2</text>
</a>
</g>
</g>
<!-- dir_a36da230f0956f48b11c85f7d599788f -->
<g id="node3" class="node">
<title>dir_a36da230f0956f48b11c85f7d599788f</title>
<g id="a_node3"><a xlink:href="dir_a36da230f0956f48b11c85f7d599788f.html" target="_top" xlink:title="common">
<polygon fill="#ffffff" stroke="#ff0000" points="59,-36 0,-36 0,0 59,0 59,-36"/>
<text text-anchor="middle" x="29.5" y="-15.5" font-family="Helvetica,sans-Serif" font-size="10.00" fill="#000000">common</text>
</a>
</g>
</g>
<!-- dir_0767593f2fce2cf954de79364fec17e6&#45;&gt;dir_a36da230f0956f48b11c85f7d599788f -->
<g id="edge4" class="edge">
<title>dir_0767593f2fce2cf954de79364fec17e6&#45;&gt;dir_a36da230f0956f48b11c85f7d599788f</title>
<path fill="none" stroke="#000000" d="M63.0996,-143.6576C67.8299,-125.1725 72.7732,-96.0216 65.5,-72 62.5436,-62.2355 57.1748,-52.6229 51.47,-44.2762"/>
<polygon fill="#000000" stroke="#000000" points="54.2129,-42.0973 45.4905,-36.0831 48.5586,-46.2239 54.2129,-42.0973"/>
<g id="a_edge4&#45;headlabel"><a xlink:href="dir_000052_000006.html" target="_top" xlink:title="2">
<text text-anchor="middle" x="58.6253" y="-40.827" font-family="Helvetica,sans-Serif" font-size="10.00" fill="#000000">2</text>
</a>
</g>
</g>
<!-- dir_fc0178d6978c9fa2cad6ef3e048a60a7&#45;&gt;dir_a36da230f0956f48b11c85f7d599788f -->
<g id="edge1" class="edge">
<title>dir_fc0178d6978c9fa2cad6ef3e048a60a7&#45;&gt;dir_a36da230f0956f48b11c85f7d599788f</title>
<path fill="none" stroke="#000000" d="M23.5476,-71.8314C22.7972,-64.131 22.5763,-54.9743 22.8849,-46.4166"/>
<polygon fill="#000000" stroke="#000000" points="26.3792,-46.6161 23.524,-36.4133 19.3935,-46.1697 26.3792,-46.6161"/>
<g id="a_edge1&#45;headlabel"><a xlink:href="dir_000007_000006.html" target="_top" xlink:title="60">
<text text-anchor="middle" x="28.9836" y="-47.8844" font-family="Helvetica,sans-Serif" font-size="10.00" fill="#000000">60</text>
</a>
</g>
</g>
<!-- dir_a36da230f0956f48b11c85f7d599788f&#45;&gt;dir_fc0178d6978c9fa2cad6ef3e048a60a7 -->
<g id="edge2" class="edge">
<title>dir_a36da230f0956f48b11c85f7d599788f&#45;&gt;dir_fc0178d6978c9fa2cad6ef3e048a60a7</title>
<path fill="none" stroke="#000000" d="M35.476,-36.4133C36.2071,-44.0593 36.4203,-53.1084 36.1155,-61.5726"/>
<polygon fill="#000000" stroke="#000000" points="32.6048,-61.6264 35.4524,-71.8314 39.5902,-62.078 32.6048,-61.6264"/>
<g id="a_edge2&#45;headlabel"><a xlink:href="dir_000006_000007.html" target="_top" xlink:title="1">
<text text-anchor="middle" x="30.0032" y="-55.3562" font-family="Helvetica,sans-Serif" font-size="10.00" fill="#000000">1</text>
</a>
</g>
</g>
</g>
</svg>
