<?xml version="1.0" encoding="UTF-8" standalone="no"?>
<!DOCTYPE svg PUBLIC "-//W3C//DTD SVG 1.1//EN"
 "http://www.w3.org/Graphics/SVG/1.1/DTD/svg11.dtd">
<!-- Generated by graphviz version 2.40.1 (20161225.0304)
 -->
<!-- Title: drake/manipulation/perception Pages: 1 -->
<svg width="161pt" height="223pt"
 viewBox="0.00 0.00 161.00 223.00" xmlns="http://www.w3.org/2000/svg" xmlns:xlink="http://www.w3.org/1999/xlink">
<g id="graph0" class="graph" transform="scale(1 1) rotate(0) translate(4 219)">
<title>drake/manipulation/perception</title>
<polygon fill="#ffffff" stroke="transparent" points="-4,4 -4,-219 157,-219 157,4 -4,4"/>
<g id="clust1" class="cluster">
<title>clusterdir_758aa030403a70af025108ac41d12d0d</title>
<g id="a_clust1"><a xlink:href="dir_758aa030403a70af025108ac41d12d0d.html" target="_top" xlink:title="manipulation">
<polygon fill="#ddddee" stroke="#000000" points="8,-136 8,-207 92,-207 92,-136 8,-136"/>
<text text-anchor="middle" x="50" y="-195" font-family="Helvetica,sans-Serif" font-size="10.00" fill="#000000">manipulation</text>
</a>
</g>
</g>
<!-- dir_87d00f1bc7afad72962b21d21ea7c9ff -->
<g id="node1" class="node">
<title>dir_87d00f1bc7afad72962b21d21ea7c9ff</title>
<g id="a_node1"><a xlink:href="dir_87d00f1bc7afad72962b21d21ea7c9ff.html" target="_top" xlink:title="perception">
<polygon fill="#eeeeff" stroke="#000000" points="84,-180 16,-180 16,-144 84,-144 84,-180"/>
<text text-anchor="middle" x="50" y="-159.5" font-family="Helvetica,sans-Serif" font-size="10.00" fill="#000000">perception</text>
</a>
</g>
</g>
<!-- dir_a36da230f0956f48b11c85f7d599788f -->
<g id="node2" class="node">
<title>dir_a36da230f0956f48b11c85f7d599788f</title>
<g id="a_node2"><a xlink:href="dir_a36da230f0956f48b11c85f7d599788f.html" target="_top" xlink:title="common">
<polygon fill="#ffffff" stroke="#ff0000" points="79.5,-36 20.5,-36 20.5,0 79.5,0 79.5,-36"/>
<text text-anchor="middle" x="50" y="-15.5" font-family="Helvetica,sans-Serif" font-size="10.00" fill="#000000">common</text>
</a>
</g>
</g>
<!-- dir_87d00f1bc7afad72962b21d21ea7c9ff&#45;&gt;dir_a36da230f0956f48b11c85f7d599788f -->
<g id="edge1" class="edge">
<title>dir_87d00f1bc7afad72962b21d21ea7c9ff&#45;&gt;dir_a36da230f0956f48b11c85f7d599788f</title>
<path fill="none" stroke="#000000" d="M34.0095,-143.9169C26.3462,-134.0371 17.9834,-121.1563 14,-108 9.3635,-92.6865 9.3635,-87.3135 14,-72 16.9564,-62.2355 22.3252,-52.6229 28.03,-44.2762"/>
<polygon fill="#000000" stroke="#000000" points="30.9414,-46.2239 34.0095,-36.0831 25.2871,-42.0973 30.9414,-46.2239"/>
<g id="a_edge1&#45;headlabel"><a xlink:href="dir_000045_000006.html" target="_top" xlink:title="1">
<text text-anchor="middle" x="31.1158" y="-48.3013" font-family="Helvetica,sans-Serif" font-size="10.00" fill="#000000">1</text>
</a>
</g>
</g>
<!-- dir_f46c9d8bac432799f621aa951345f12b -->
<g id="node3" class="node">
<title>dir_f46c9d8bac432799f621aa951345f12b</title>
<g id="a_node3"><a xlink:href="dir_f46c9d8bac432799f621aa951345f12b.html" target="_top" xlink:title="util">
<polygon fill="none" stroke="#000000" points="77,-108 23,-108 23,-72 77,-72 77,-108"/>
<text text-anchor="middle" x="50" y="-87.5" font-family="Helvetica,sans-Serif" font-size="10.00" fill="#000000">util</text>
</a>
</g>
</g>
<!-- dir_87d00f1bc7afad72962b21d21ea7c9ff&#45;&gt;dir_f46c9d8bac432799f621aa951345f12b -->
<g id="edge2" class="edge">
<title>dir_87d00f1bc7afad72962b21d21ea7c9ff&#45;&gt;dir_f46c9d8bac432799f621aa951345f12b</title>
<path fill="none" stroke="#000000" d="M50,-143.8314C50,-136.131 50,-126.9743 50,-118.4166"/>
<polygon fill="#000000" stroke="#000000" points="53.5001,-118.4132 50,-108.4133 46.5001,-118.4133 53.5001,-118.4132"/>
<g id="a_edge2&#45;headlabel"><a xlink:href="dir_000045_000048.html" target="_top" xlink:title="1">
<text text-anchor="middle" x="56.3393" y="-119.5079" font-family="Helvetica,sans-Serif" font-size="10.00" fill="#000000">1</text>
</a>
</g>
</g>
<!-- dir_b7a0e33b407baa23d8a077e33033c988 -->
<g id="node4" class="node">
<title>dir_b7a0e33b407baa23d8a077e33033c988</title>
<g id="a_node4"><a xlink:href="dir_b7a0e33b407baa23d8a077e33033c988.html" target="_top" xlink:title="systems">
<polygon fill="#ffffff" stroke="#ff0000" points="153,-108 95,-108 95,-72 153,-72 153,-108"/>
<text text-anchor="middle" x="124" y="-87.5" font-family="Helvetica,sans-Serif" font-size="10.00" fill="#000000">systems</text>
</a>
</g>
</g>
<!-- dir_87d00f1bc7afad72962b21d21ea7c9ff&#45;&gt;dir_b7a0e33b407baa23d8a077e33033c988 -->
<g id="edge3" class="edge">
<title>dir_87d00f1bc7afad72962b21d21ea7c9ff&#45;&gt;dir_b7a0e33b407baa23d8a077e33033c988</title>
<path fill="none" stroke="#000000" d="M68.6733,-143.8314C77.5249,-135.219 88.2486,-124.7851 97.8895,-115.4048"/>
<polygon fill="#000000" stroke="#000000" points="100.6061,-117.645 105.3326,-108.1628 95.7246,-112.6279 100.6061,-117.645"/>
<g id="a_edge3&#45;headlabel"><a xlink:href="dir_000045_000073.html" target="_top" xlink:title="3">
<text text-anchor="middle" x="100.0098" y="-119.6866" font-family="Helvetica,sans-Serif" font-size="10.00" fill="#000000">3</text>
</a>
</g>
</g>
<!-- dir_f46c9d8bac432799f621aa951345f12b&#45;&gt;dir_a36da230f0956f48b11c85f7d599788f -->
<g id="edge4" class="edge">
<title>dir_f46c9d8bac432799f621aa951345f12b&#45;&gt;dir_a36da230f0956f48b11c85f7d599788f</title>
<path fill="none" stroke="#000000" d="M50,-71.8314C50,-64.131 50,-54.9743 50,-46.4166"/>
<polygon fill="#000000" stroke="#000000" points="53.5001,-46.4132 50,-36.4133 46.5001,-46.4133 53.5001,-46.4132"/>
<g id="a_edge4&#45;headlabel"><a xlink:href="dir_000048_000006.html" target="_top" xlink:title="9">
<text text-anchor="middle" x="56.3393" y="-47.5079" font-family="Helvetica,sans-Serif" font-size="10.00" fill="#000000">9</text>
</a>
</g>
</g>
<!-- dir_b7a0e33b407baa23d8a077e33033c988&#45;&gt;dir_a36da230f0956f48b11c85f7d599788f -->
<g id="edge5" class="edge">
<title>dir_b7a0e33b407baa23d8a077e33033c988&#45;&gt;dir_a36da230f0956f48b11c85f7d599788f</title>
<path fill="none" stroke="#000000" d="M105.3267,-71.8314C96.4751,-63.219 85.7514,-52.7851 76.1105,-43.4048"/>
<polygon fill="#000000" stroke="#000000" points="78.2754,-40.6279 68.6674,-36.1628 73.3939,-45.645 78.2754,-40.6279"/>
<g id="a_edge5&#45;headlabel"><a xlink:href="dir_000073_000006.html" target="_top" xlink:title="371">
<text text-anchor="middle" x="82.8317" y="-38.5996" font-family="Helvetica,sans-Serif" font-size="10.00" fill="#000000">371</text>
</a>
</g>
</g>
</g>
</svg>
