<?xml version="1.0" encoding="UTF-8" standalone="no"?>
<!DOCTYPE svg PUBLIC "-//W3C//DTD SVG 1.1//EN"
 "http://www.w3.org/Graphics/SVG/1.1/DTD/svg11.dtd">
<!-- Generated by graphviz version 2.40.1 (20161225.0304)
 -->
<!-- Title: drake/systems/optimization Pages: 1 -->
<svg width="150pt" height="151pt"
 viewBox="0.00 0.00 150.00 151.00" xmlns="http://www.w3.org/2000/svg" xmlns:xlink="http://www.w3.org/1999/xlink">
<g id="graph0" class="graph" transform="scale(1 1) rotate(0) translate(4 147)">
<title>drake/systems/optimization</title>
<polygon fill="#ffffff" stroke="transparent" points="-4,4 -4,-147 146,-147 146,4 -4,4"/>
<g id="clust1" class="cluster">
<title>clusterdir_b7a0e33b407baa23d8a077e33033c988</title>
<g id="a_clust1"><a xlink:href="dir_b7a0e33b407baa23d8a077e33033c988.html" target="_top" xlink:title="systems">
<polygon fill="#ddddee" stroke="#000000" points="20,-64 20,-135 114,-135 114,-64 20,-64"/>
<text text-anchor="middle" x="67" y="-123" font-family="Helvetica,sans-Serif" font-size="10.00" fill="#000000">systems</text>
</a>
</g>
</g>
<!-- dir_85033a3c4e8ad0c5c196b171cb294369 -->
<g id="node1" class="node">
<title>dir_85033a3c4e8ad0c5c196b171cb294369</title>
<g id="a_node1"><a xlink:href="dir_85033a3c4e8ad0c5c196b171cb294369.html" target="_top" xlink:title="optimization">
<polygon fill="#eeeeff" stroke="#000000" points="106,-108 28,-108 28,-72 106,-72 106,-108"/>
<text text-anchor="middle" x="67" y="-87.5" font-family="Helvetica,sans-Serif" font-size="10.00" fill="#000000">optimization</text>
</a>
</g>
</g>
<!-- dir_c86b501450b8b8b59405c286cb030cc3 -->
<g id="node2" class="node">
<title>dir_c86b501450b8b8b59405c286cb030cc3</title>
<g id="a_node2"><a xlink:href="dir_c86b501450b8b8b59405c286cb030cc3.html" target="_top" xlink:title="solvers">
<polygon fill="#ffffff" stroke="#ff0000" points="54,-36 0,-36 0,0 54,0 54,-36"/>
<text text-anchor="middle" x="27" y="-15.5" font-family="Helvetica,sans-Serif" font-size="10.00" fill="#000000">solvers</text>
</a>
</g>
</g>
<!-- dir_85033a3c4e8ad0c5c196b171cb294369&#45;&gt;dir_c86b501450b8b8b59405c286cb030cc3 -->
<g id="edge1" class="edge">
<title>dir_85033a3c4e8ad0c5c196b171cb294369&#45;&gt;dir_c86b501450b8b8b59405c286cb030cc3</title>
<path fill="none" stroke="#000000" d="M56.9063,-71.8314C52.4403,-63.7925 47.0925,-54.1666 42.1621,-45.2918"/>
<polygon fill="#000000" stroke="#000000" points="45.1456,-43.4551 37.2296,-36.4133 39.0265,-46.8546 45.1456,-43.4551"/>
<g id="a_edge1&#45;headlabel"><a xlink:href="dir_000083_000070.html" target="_top" xlink:title="2">
<text text-anchor="middle" x="49.3732" y="-42.7185" font-family="Helvetica,sans-Serif" font-size="10.00" fill="#000000">2</text>
</a>
</g>
</g>
<!-- dir_2186f45272e5c29e3ac18ec762ab7501 -->
<g id="node3" class="node">
<title>dir_2186f45272e5c29e3ac18ec762ab7501</title>
<g id="a_node3"><a xlink:href="dir_2186f45272e5c29e3ac18ec762ab7501.html" target="_top" xlink:title="framework">
<polygon fill="#ffffff" stroke="#ff0000" points="142,-36 72,-36 72,0 142,0 142,-36"/>
<text text-anchor="middle" x="107" y="-15.5" font-family="Helvetica,sans-Serif" font-size="10.00" fill="#000000">framework</text>
</a>
</g>
</g>
<!-- dir_85033a3c4e8ad0c5c196b171cb294369&#45;&gt;dir_2186f45272e5c29e3ac18ec762ab7501 -->
<g id="edge2" class="edge">
<title>dir_85033a3c4e8ad0c5c196b171cb294369&#45;&gt;dir_2186f45272e5c29e3ac18ec762ab7501</title>
<path fill="none" stroke="#000000" d="M77.0937,-71.8314C81.5597,-63.7925 86.9075,-54.1666 91.8379,-45.2918"/>
<polygon fill="#000000" stroke="#000000" points="94.9735,-46.8546 96.7704,-36.4133 88.8544,-43.4551 94.9735,-46.8546"/>
<g id="a_edge2&#45;headlabel"><a xlink:href="dir_000083_000080.html" target="_top" xlink:title="2">
<text text-anchor="middle" x="95.7098" y="-48.8757" font-family="Helvetica,sans-Serif" font-size="10.00" fill="#000000">2</text>
</a>
</g>
</g>
</g>
</svg>
