<?xml version="1.0" encoding="UTF-8" standalone="no"?>
<!DOCTYPE svg PUBLIC "-//W3C//DTD SVG 1.1//EN"
 "http://www.w3.org/Graphics/SVG/1.1/DTD/svg11.dtd">
<!-- Generated by graphviz version 2.40.1 (20161225.0304)
 -->
<!-- Title: drake/systems/rendering Pages: 1 -->
<svg width="227pt" height="295pt"
 viewBox="0.00 0.00 227.35 295.00" xmlns="http://www.w3.org/2000/svg" xmlns:xlink="http://www.w3.org/1999/xlink">
<g id="graph0" class="graph" transform="scale(1 1) rotate(0) translate(4 291)">
<title>drake/systems/rendering</title>
<polygon fill="#ffffff" stroke="transparent" points="-4,4 -4,-291 223.3452,-291 223.3452,4 -4,4"/>
<g id="clust1" class="cluster">
<title>clusterdir_b7a0e33b407baa23d8a077e33033c988</title>
<g id="a_clust1"><a xlink:href="dir_b7a0e33b407baa23d8a077e33033c988.html" target="_top" xlink:title="systems">
<polygon fill="#ddddee" stroke="#000000" points="8,-208 8,-279 88,-279 88,-208 8,-208"/>
<text text-anchor="middle" x="48" y="-267" font-family="Helvetica,sans-Serif" font-size="10.00" fill="#000000">systems</text>
</a>
</g>
</g>
<!-- dir_69fa97bb6e53092a4b06d6253fe335a2 -->
<g id="node1" class="node">
<title>dir_69fa97bb6e53092a4b06d6253fe335a2</title>
<g id="a_node1"><a xlink:href="dir_69fa97bb6e53092a4b06d6253fe335a2.html" target="_top" xlink:title="rendering">
<polygon fill="#eeeeff" stroke="#000000" points="79.5,-252 16.5,-252 16.5,-216 79.5,-216 79.5,-252"/>
<text text-anchor="middle" x="48" y="-231.5" font-family="Helvetica,sans-Serif" font-size="10.00" fill="#000000">rendering</text>
</a>
</g>
</g>
<!-- dir_39b8b3c6654246a9c12332c930bc7d3f -->
<g id="node2" class="node">
<title>dir_39b8b3c6654246a9c12332c930bc7d3f</title>
<g id="a_node2"><a xlink:href="dir_39b8b3c6654246a9c12332c930bc7d3f.html" target="_top" xlink:title="multibody">
<polygon fill="#ffffff" stroke="#ff0000" points="179,-252 113,-252 113,-216 179,-216 179,-252"/>
<text text-anchor="middle" x="146" y="-231.5" font-family="Helvetica,sans-Serif" font-size="10.00" fill="#000000">multibody</text>
</a>
</g>
</g>
<!-- dir_69fa97bb6e53092a4b06d6253fe335a2&#45;&gt;dir_39b8b3c6654246a9c12332c930bc7d3f -->
<g id="edge1" class="edge">
<title>dir_69fa97bb6e53092a4b06d6253fe335a2&#45;&gt;dir_39b8b3c6654246a9c12332c930bc7d3f</title>
<path fill="none" stroke="#000000" d="M79.7734,-234C87.4481,-234 95.1228,-234 102.7975,-234"/>
<polygon fill="#000000" stroke="#000000" points="102.8868,-237.5001 112.8867,-234 102.8867,-230.5001 102.8868,-237.5001"/>
<g id="a_edge1&#45;headlabel"><a xlink:href="dir_000088_000050.html" target="_top" xlink:title="2">
<text text-anchor="middle" x="99.2921" y="-237.8393" font-family="Helvetica,sans-Serif" font-size="10.00" fill="#000000">2</text>
</a>
</g>
</g>
<!-- dir_fc0178d6978c9fa2cad6ef3e048a60a7 -->
<g id="node3" class="node">
<title>dir_fc0178d6978c9fa2cad6ef3e048a60a7</title>
<g id="a_node3"><a xlink:href="dir_fc0178d6978c9fa2cad6ef3e048a60a7.html" target="_top" xlink:title="math">
<polygon fill="none" stroke="#000000" points="90,-108 36,-108 36,-72 90,-72 90,-108"/>
<text text-anchor="middle" x="63" y="-87.5" font-family="Helvetica,sans-Serif" font-size="10.00" fill="#000000">math</text>
</a>
</g>
</g>
<!-- dir_69fa97bb6e53092a4b06d6253fe335a2&#45;&gt;dir_fc0178d6978c9fa2cad6ef3e048a60a7 -->
<g id="edge2" class="edge">
<title>dir_69fa97bb6e53092a4b06d6253fe335a2&#45;&gt;dir_fc0178d6978c9fa2cad6ef3e048a60a7</title>
<path fill="none" stroke="#000000" d="M40.9667,-215.8747C34.84,-197.5585 27.8284,-168.5364 34,-144 36.3386,-134.7024 40.623,-125.2609 45.1938,-116.9283"/>
<polygon fill="#000000" stroke="#000000" points="48.3549,-118.4564 50.3878,-108.0585 42.3143,-114.9192 48.3549,-118.4564"/>
<g id="a_edge2&#45;headlabel"><a xlink:href="dir_000088_000007.html" target="_top" xlink:title="2">
<text text-anchor="middle" x="48.9886" y="-120.4931" font-family="Helvetica,sans-Serif" font-size="10.00" fill="#000000">2</text>
</a>
</g>
</g>
<!-- dir_2186f45272e5c29e3ac18ec762ab7501 -->
<g id="node4" class="node">
<title>dir_2186f45272e5c29e3ac18ec762ab7501</title>
<g id="a_node4"><a xlink:href="dir_2186f45272e5c29e3ac18ec762ab7501.html" target="_top" xlink:title="framework">
<polygon fill="#ffffff" stroke="#ff0000" points="178,-108 108,-108 108,-72 178,-72 178,-108"/>
<text text-anchor="middle" x="143" y="-87.5" font-family="Helvetica,sans-Serif" font-size="10.00" fill="#000000">framework</text>
</a>
</g>
</g>
<!-- dir_69fa97bb6e53092a4b06d6253fe335a2&#45;&gt;dir_2186f45272e5c29e3ac18ec762ab7501 -->
<g id="edge3" class="edge">
<title>dir_69fa97bb6e53092a4b06d6253fe335a2&#45;&gt;dir_2186f45272e5c29e3ac18ec762ab7501</title>
<path fill="none" stroke="#000000" d="M59.101,-215.9048C70.407,-197.6119 88.5634,-168.6076 105,-144 111.0171,-134.9916 117.77,-125.2757 123.8954,-116.6021"/>
<polygon fill="#000000" stroke="#000000" points="126.8257,-118.5207 129.7613,-108.3407 121.1181,-114.4681 126.8257,-118.5207"/>
<g id="a_edge3&#45;headlabel"><a xlink:href="dir_000088_000081.html" target="_top" xlink:title="6">
<text text-anchor="middle" x="127.0597" y="-120.5954" font-family="Helvetica,sans-Serif" font-size="10.00" fill="#000000">6</text>
</a>
</g>
</g>
<!-- dir_a36da230f0956f48b11c85f7d599788f -->
<g id="node5" class="node">
<title>dir_a36da230f0956f48b11c85f7d599788f</title>
<g id="a_node5"><a xlink:href="dir_a36da230f0956f48b11c85f7d599788f.html" target="_top" xlink:title="common">
<polygon fill="#ffffff" stroke="#ff0000" points="132.5,-36 73.5,-36 73.5,0 132.5,0 132.5,-36"/>
<text text-anchor="middle" x="103" y="-15.5" font-family="Helvetica,sans-Serif" font-size="10.00" fill="#000000">common</text>
</a>
</g>
</g>
<!-- dir_69fa97bb6e53092a4b06d6253fe335a2&#45;&gt;dir_a36da230f0956f48b11c85f7d599788f -->
<g id="edge4" class="edge">
<title>dir_69fa97bb6e53092a4b06d6253fe335a2&#45;&gt;dir_a36da230f0956f48b11c85f7d599788f</title>
<path fill="none" stroke="#000000" d="M39.1654,-215.8102C25.3331,-184.5371 2.5438,-119.3777 27,-72 35.0542,-56.397 49.9302,-44.3208 64.3999,-35.5843"/>
<polygon fill="#000000" stroke="#000000" points="66.2977,-38.5324 73.2922,-30.5745 62.8617,-32.4337 66.2977,-38.5324"/>
<g id="a_edge4&#45;headlabel"><a xlink:href="dir_000088_000006.html" target="_top" xlink:title="7">
<text text-anchor="middle" x="64.5595" y="-40.2705" font-family="Helvetica,sans-Serif" font-size="10.00" fill="#000000">7</text>
</a>
</g>
</g>
<!-- dir_d739e095b49d8b72164589d00310017d -->
<g id="node6" class="node">
<title>dir_d739e095b49d8b72164589d00310017d</title>
<g id="a_node6"><a xlink:href="dir_d739e095b49d8b72164589d00310017d.html" target="_top" xlink:title="geometry">
<polygon fill="#ffffff" stroke="#ff0000" points="178,-180 114,-180 114,-144 178,-144 178,-180"/>
<text text-anchor="middle" x="146" y="-159.5" font-family="Helvetica,sans-Serif" font-size="10.00" fill="#000000">geometry</text>
</a>
</g>
</g>
<!-- dir_69fa97bb6e53092a4b06d6253fe335a2&#45;&gt;dir_d739e095b49d8b72164589d00310017d -->
<g id="edge5" class="edge">
<title>dir_69fa97bb6e53092a4b06d6253fe335a2&#45;&gt;dir_d739e095b49d8b72164589d00310017d</title>
<path fill="none" stroke="#000000" d="M66.7771,-215.8314C78.199,-206.7927 93.0812,-195.7476 106.9002,-186.0198"/>
<polygon fill="#000000" stroke="#000000" points="109.1129,-188.7443 115.3265,-180.1628 105.1176,-182.9964 109.1129,-188.7443"/>
<g id="a_edge5&#45;headlabel"><a xlink:href="dir_000088_000035.html" target="_top" xlink:title="1">
<text text-anchor="middle" x="107.7818" y="-190.6273" font-family="Helvetica,sans-Serif" font-size="10.00" fill="#000000">1</text>
</a>
</g>
</g>
<!-- dir_39b8b3c6654246a9c12332c930bc7d3f&#45;&gt;dir_fc0178d6978c9fa2cad6ef3e048a60a7 -->
<g id="edge6" class="edge">
<title>dir_39b8b3c6654246a9c12332c930bc7d3f&#45;&gt;dir_fc0178d6978c9fa2cad6ef3e048a60a7</title>
<path fill="none" stroke="#000000" d="M130.555,-215.7021C122.3971,-205.5565 112.5421,-192.4965 105,-180 92.8969,-159.9462 81.8122,-135.833 74.0732,-117.6153"/>
<polygon fill="#000000" stroke="#000000" points="77.2114,-116.0471 70.1327,-108.1641 70.7505,-118.7409 77.2114,-116.0471"/>
<g id="a_edge6&#45;headlabel"><a xlink:href="dir_000050_000007.html" target="_top" xlink:title="32">
<text text-anchor="middle" x="81.2153" y="-115.7723" font-family="Helvetica,sans-Serif" font-size="10.00" fill="#000000">32</text>
</a>
</g>
</g>
<!-- dir_39b8b3c6654246a9c12332c930bc7d3f&#45;&gt;dir_2186f45272e5c29e3ac18ec762ab7501 -->
<g id="edge7" class="edge">
<title>dir_39b8b3c6654246a9c12332c930bc7d3f&#45;&gt;dir_2186f45272e5c29e3ac18ec762ab7501</title>
<path fill="none" stroke="#000000" d="M164.604,-215.8067C173.2033,-206.0891 182.4937,-193.3872 187,-180 192.1044,-164.8361 192.3638,-159.0742 187,-144 183.4122,-133.9169 177.0465,-124.3517 170.2524,-116.1515"/>
<polygon fill="#000000" stroke="#000000" points="172.6596,-113.591 163.4026,-108.4375 167.4253,-118.2389 172.6596,-113.591"/>
<g id="a_edge7&#45;headlabel"><a xlink:href="dir_000050_000081.html" target="_top" xlink:title="32">
<text text-anchor="middle" x="177.1694" y="-111.8936" font-family="Helvetica,sans-Serif" font-size="10.00" fill="#000000">32</text>
</a>
</g>
</g>
<!-- dir_39b8b3c6654246a9c12332c930bc7d3f&#45;&gt;dir_a36da230f0956f48b11c85f7d599788f -->
<g id="edge8" class="edge">
<title>dir_39b8b3c6654246a9c12332c930bc7d3f&#45;&gt;dir_a36da230f0956f48b11c85f7d599788f</title>
<path fill="none" stroke="#000000" d="M172.6329,-215.8717C183.8993,-206.597 195.8269,-194.2525 202,-180 221.0783,-135.9521 227.5902,-113.2252 203,-72 189.8812,-50.0064 164.3596,-36.4337 142.3841,-28.3964"/>
<polygon fill="#000000" stroke="#000000" points="143.5071,-25.0816 132.9128,-25.1827 141.2578,-31.7103 143.5071,-25.0816"/>
<g id="a_edge8&#45;headlabel"><a xlink:href="dir_000050_000006.html" target="_top" xlink:title="232">
<text text-anchor="middle" x="147.8234" y="-21.0478" font-family="Helvetica,sans-Serif" font-size="10.00" fill="#000000">232</text>
</a>
</g>
</g>
<!-- dir_39b8b3c6654246a9c12332c930bc7d3f&#45;&gt;dir_d739e095b49d8b72164589d00310017d -->
<g id="edge9" class="edge">
<title>dir_39b8b3c6654246a9c12332c930bc7d3f&#45;&gt;dir_d739e095b49d8b72164589d00310017d</title>
<path fill="none" stroke="#000000" d="M140.0476,-215.8314C139.2972,-208.131 139.0763,-198.9743 139.3849,-190.4166"/>
<polygon fill="#000000" stroke="#000000" points="142.8792,-190.6161 140.024,-180.4133 135.8935,-190.1697 142.8792,-190.6161"/>
<g id="a_edge9&#45;headlabel"><a xlink:href="dir_000050_000035.html" target="_top" xlink:title="28">
<text text-anchor="middle" x="145.4836" y="-191.8844" font-family="Helvetica,sans-Serif" font-size="10.00" fill="#000000">28</text>
</a>
</g>
</g>
<!-- dir_fc0178d6978c9fa2cad6ef3e048a60a7&#45;&gt;dir_a36da230f0956f48b11c85f7d599788f -->
<g id="edge10" class="edge">
<title>dir_fc0178d6978c9fa2cad6ef3e048a60a7&#45;&gt;dir_a36da230f0956f48b11c85f7d599788f</title>
<path fill="none" stroke="#000000" d="M67.1413,-71.8314C70.8627,-63.7079 76.0738,-53.9637 81.434,-45.0118"/>
<polygon fill="#000000" stroke="#000000" points="84.4742,-46.7509 86.7944,-36.4133 78.534,-43.0477 84.4742,-46.7509"/>
<g id="a_edge10&#45;headlabel"><a xlink:href="dir_000007_000006.html" target="_top" xlink:title="60">
<text text-anchor="middle" x="84.982" y="-48.8034" font-family="Helvetica,sans-Serif" font-size="10.00" fill="#000000">60</text>
</a>
</g>
</g>
<!-- dir_2186f45272e5c29e3ac18ec762ab7501&#45;&gt;dir_a36da230f0956f48b11c85f7d599788f -->
<g id="edge11" class="edge">
<title>dir_2186f45272e5c29e3ac18ec762ab7501&#45;&gt;dir_a36da230f0956f48b11c85f7d599788f</title>
<path fill="none" stroke="#000000" d="M132.9063,-71.8314C128.4403,-63.7925 123.0925,-54.1666 118.1621,-45.2918"/>
<polygon fill="#000000" stroke="#000000" points="121.1456,-43.4551 113.2296,-36.4133 115.0265,-46.8546 121.1456,-43.4551"/>
<g id="a_edge11&#45;headlabel"><a xlink:href="dir_000081_000006.html" target="_top" xlink:title="167">
<text text-anchor="middle" x="125.3732" y="-42.7185" font-family="Helvetica,sans-Serif" font-size="10.00" fill="#000000">167</text>
</a>
</g>
</g>
<!-- dir_a36da230f0956f48b11c85f7d599788f&#45;&gt;dir_fc0178d6978c9fa2cad6ef3e048a60a7 -->
<g id="edge12" class="edge">
<title>dir_a36da230f0956f48b11c85f7d599788f&#45;&gt;dir_fc0178d6978c9fa2cad6ef3e048a60a7</title>
<path fill="none" stroke="#000000" d="M98.7464,-36.4133C94.9953,-44.569 89.768,-54.3212 84.4048,-63.257"/>
<polygon fill="#000000" stroke="#000000" points="81.3779,-61.4963 79.0461,-71.8314 87.314,-65.2062 81.3779,-61.4963"/>
<g id="a_edge12&#45;headlabel"><a xlink:href="dir_000006_000007.html" target="_top" xlink:title="1">
<text text-anchor="middle" x="80.8752" y="-54.4433" font-family="Helvetica,sans-Serif" font-size="10.00" fill="#000000">1</text>
</a>
</g>
</g>
<!-- dir_d739e095b49d8b72164589d00310017d&#45;&gt;dir_69fa97bb6e53092a4b06d6253fe335a2 -->
<g id="edge13" class="edge">
<title>dir_d739e095b49d8b72164589d00310017d&#45;&gt;dir_69fa97bb6e53092a4b06d6253fe335a2</title>
<path fill="none" stroke="#000000" d="M127.2302,-180.1628C115.8099,-189.2007 100.9281,-200.2456 87.1087,-209.9739"/>
<polygon fill="#000000" stroke="#000000" points="84.8955,-207.2498 78.6819,-215.8314 88.8908,-212.9977 84.8955,-207.2498"/>
<g id="a_edge13&#45;headlabel"><a xlink:href="dir_000035_000088.html" target="_top" xlink:title="1">
<text text-anchor="middle" x="86.2265" y="-200.3668" font-family="Helvetica,sans-Serif" font-size="10.00" fill="#000000">1</text>
</a>
</g>
</g>
<!-- dir_d739e095b49d8b72164589d00310017d&#45;&gt;dir_39b8b3c6654246a9c12332c930bc7d3f -->
<g id="edge14" class="edge">
<title>dir_d739e095b49d8b72164589d00310017d&#45;&gt;dir_39b8b3c6654246a9c12332c930bc7d3f</title>
<path fill="none" stroke="#000000" d="M151.976,-180.4133C152.7071,-188.0593 152.9203,-197.1084 152.6155,-205.5726"/>
<polygon fill="#000000" stroke="#000000" points="149.1048,-205.6264 151.9524,-215.8314 156.0902,-206.078 149.1048,-205.6264"/>
<g id="a_edge14&#45;headlabel"><a xlink:href="dir_000035_000050.html" target="_top" xlink:title="1">
<text text-anchor="middle" x="146.5032" y="-199.3562" font-family="Helvetica,sans-Serif" font-size="10.00" fill="#000000">1</text>
</a>
</g>
</g>
<!-- dir_d739e095b49d8b72164589d00310017d&#45;&gt;dir_fc0178d6978c9fa2cad6ef3e048a60a7 -->
<g id="edge15" class="edge">
<title>dir_d739e095b49d8b72164589d00310017d&#45;&gt;dir_fc0178d6978c9fa2cad6ef3e048a60a7</title>
<path fill="none" stroke="#000000" d="M125.0556,-143.8314C114.9309,-135.0485 102.6223,-124.3712 91.6452,-114.8489"/>
<polygon fill="#000000" stroke="#000000" points="93.7851,-112.0718 83.9377,-108.1628 89.1981,-117.3595 93.7851,-112.0718"/>
<g id="a_edge15&#45;headlabel"><a xlink:href="dir_000035_000007.html" target="_top" xlink:title="23">
<text text-anchor="middle" x="98.3609" y="-109.7825" font-family="Helvetica,sans-Serif" font-size="10.00" fill="#000000">23</text>
</a>
</g>
</g>
<!-- dir_d739e095b49d8b72164589d00310017d&#45;&gt;dir_2186f45272e5c29e3ac18ec762ab7501 -->
<g id="edge16" class="edge">
<title>dir_d739e095b49d8b72164589d00310017d&#45;&gt;dir_2186f45272e5c29e3ac18ec762ab7501</title>
<path fill="none" stroke="#000000" d="M145.243,-143.8314C144.9221,-136.131 144.5406,-126.9743 144.184,-118.4166"/>
<polygon fill="#000000" stroke="#000000" points="147.6806,-118.2589 143.7672,-108.4133 140.6867,-118.5503 147.6806,-118.2589"/>
<g id="a_edge16&#45;headlabel"><a xlink:href="dir_000035_000081.html" target="_top" xlink:title="4">
<text text-anchor="middle" x="150.6669" y="-119.2322" font-family="Helvetica,sans-Serif" font-size="10.00" fill="#000000">4</text>
</a>
</g>
</g>
<!-- dir_d739e095b49d8b72164589d00310017d&#45;&gt;dir_a36da230f0956f48b11c85f7d599788f -->
<g id="edge17" class="edge">
<title>dir_d739e095b49d8b72164589d00310017d&#45;&gt;dir_a36da230f0956f48b11c85f7d599788f</title>
<path fill="none" stroke="#000000" d="M164.5263,-143.6959C180.8575,-125.2406 200.1642,-96.1124 187,-72 177.3269,-54.282 159.0757,-41.5103 142.0507,-32.8508"/>
<polygon fill="#000000" stroke="#000000" points="143.3163,-29.5775 132.7808,-28.4578 140.3185,-35.9032 143.3163,-29.5775"/>
<g id="a_edge17&#45;headlabel"><a xlink:href="dir_000035_000006.html" target="_top" xlink:title="110">
<text text-anchor="middle" x="147.7805" y="-26.0511" font-family="Helvetica,sans-Serif" font-size="10.00" fill="#000000">110</text>
</a>
</g>
</g>
</g>
</svg>
