<?xml version="1.0" encoding="UTF-8" standalone="no"?>
<!DOCTYPE svg PUBLIC "-//W3C//DTD SVG 1.1//EN"
 "http://www.w3.org/Graphics/SVG/1.1/DTD/svg11.dtd">
<!-- Generated by graphviz version 2.40.1 (20161225.0304)
 -->
<!-- Title: drake/examples/planar_gripper Pages: 1 -->
<svg width="284pt" height="439pt"
 viewBox="0.00 0.00 284.12 439.00" xmlns="http://www.w3.org/2000/svg" xmlns:xlink="http://www.w3.org/1999/xlink">
<g id="graph0" class="graph" transform="scale(1 1) rotate(0) translate(4 435)">
<title>drake/examples/planar_gripper</title>
<polygon fill="#ffffff" stroke="transparent" points="-4,4 -4,-435 280.1208,-435 280.1208,4 -4,4"/>
<g id="clust1" class="cluster">
<title>clusterdir_bf85a0c13984f214f436b2edc519c6dd</title>
<g id="a_clust1"><a xlink:href="dir_bf85a0c13984f214f436b2edc519c6dd.html" target="_top" xlink:title="examples">
<polygon fill="#ddddee" stroke="#000000" points="109.1091,-352 109.1091,-423 213.1091,-423 213.1091,-352 109.1091,-352"/>
<text text-anchor="middle" x="161.1091" y="-411" font-family="Helvetica,sans-Serif" font-size="10.00" fill="#000000">examples</text>
</a>
</g>
</g>
<!-- dir_822d9f570b71bc4a1ad9b6c92e4a528b -->
<g id="node1" class="node">
<title>dir_822d9f570b71bc4a1ad9b6c92e4a528b</title>
<g id="a_node1"><a xlink:href="dir_822d9f570b71bc4a1ad9b6c92e4a528b.html" target="_top" xlink:title="planar_gripper">
<polygon fill="#eeeeff" stroke="#000000" points="204.6091,-396 117.6091,-396 117.6091,-360 204.6091,-360 204.6091,-396"/>
<text text-anchor="middle" x="161.1091" y="-375.5" font-family="Helvetica,sans-Serif" font-size="10.00" fill="#000000">planar_gripper</text>
</a>
</g>
</g>
<!-- dir_39b8b3c6654246a9c12332c930bc7d3f -->
<g id="node2" class="node">
<title>dir_39b8b3c6654246a9c12332c930bc7d3f</title>
<g id="a_node2"><a xlink:href="dir_39b8b3c6654246a9c12332c930bc7d3f.html" target="_top" xlink:title="multibody">
<polygon fill="#ffffff" stroke="#ff0000" points="194.1091,-324 128.1091,-324 128.1091,-288 194.1091,-288 194.1091,-324"/>
<text text-anchor="middle" x="161.1091" y="-303.5" font-family="Helvetica,sans-Serif" font-size="10.00" fill="#000000">multibody</text>
</a>
</g>
</g>
<!-- dir_822d9f570b71bc4a1ad9b6c92e4a528b&#45;&gt;dir_39b8b3c6654246a9c12332c930bc7d3f -->
<g id="edge6" class="edge">
<title>dir_822d9f570b71bc4a1ad9b6c92e4a528b&#45;&gt;dir_39b8b3c6654246a9c12332c930bc7d3f</title>
<path fill="none" stroke="#000000" d="M161.1091,-359.8314C161.1091,-352.131 161.1091,-342.9743 161.1091,-334.4166"/>
<polygon fill="#000000" stroke="#000000" points="164.6092,-334.4132 161.1091,-324.4133 157.6092,-334.4133 164.6092,-334.4132"/>
<g id="a_edge6&#45;headlabel"><a xlink:href="dir_000027_000048.html" target="_top" xlink:title="3">
<text text-anchor="middle" x="167.4484" y="-335.5079" font-family="Helvetica,sans-Serif" font-size="10.00" fill="#000000">3</text>
</a>
</g>
</g>
<!-- dir_c86b501450b8b8b59405c286cb030cc3 -->
<g id="node3" class="node">
<title>dir_c86b501450b8b8b59405c286cb030cc3</title>
<g id="a_node3"><a xlink:href="dir_c86b501450b8b8b59405c286cb030cc3.html" target="_top" xlink:title="solvers">
<polygon fill="#ffffff" stroke="#ff0000" points="86.1091,-108 32.1091,-108 32.1091,-72 86.1091,-72 86.1091,-108"/>
<text text-anchor="middle" x="59.1091" y="-87.5" font-family="Helvetica,sans-Serif" font-size="10.00" fill="#000000">solvers</text>
</a>
</g>
</g>
<!-- dir_822d9f570b71bc4a1ad9b6c92e4a528b&#45;&gt;dir_c86b501450b8b8b59405c286cb030cc3 -->
<g id="edge7" class="edge">
<title>dir_822d9f570b71bc4a1ad9b6c92e4a528b&#45;&gt;dir_c86b501450b8b8b59405c286cb030cc3</title>
<path fill="none" stroke="#000000" d="M145.55,-359.5685C137.2701,-349.3837 127.1644,-336.329 119.1091,-324 81.3706,-266.2393 70.7448,-248.3202 61.1091,-180 58.2034,-159.398 57.7789,-135.885 58.0408,-118.0598"/>
<polygon fill="#000000" stroke="#000000" points="61.5406,-118.1074 58.2686,-108.0305 54.5424,-117.9484 61.5406,-118.1074"/>
<g id="a_edge7&#45;headlabel"><a xlink:href="dir_000027_000068.html" target="_top" xlink:title="3">
<text text-anchor="middle" x="64.2976" y="-119.2655" font-family="Helvetica,sans-Serif" font-size="10.00" fill="#000000">3</text>
</a>
</g>
</g>
<!-- dir_a36da230f0956f48b11c85f7d599788f -->
<g id="node4" class="node">
<title>dir_a36da230f0956f48b11c85f7d599788f</title>
<g id="a_node4"><a xlink:href="dir_a36da230f0956f48b11c85f7d599788f.html" target="_top" xlink:title="common">
<polygon fill="#ffffff" stroke="#ff0000" points="143.6091,-36 84.6091,-36 84.6091,0 143.6091,0 143.6091,-36"/>
<text text-anchor="middle" x="114.1091" y="-15.5" font-family="Helvetica,sans-Serif" font-size="10.00" fill="#000000">common</text>
</a>
</g>
</g>
<!-- dir_822d9f570b71bc4a1ad9b6c92e4a528b&#45;&gt;dir_a36da230f0956f48b11c85f7d599788f -->
<g id="edge8" class="edge">
<title>dir_822d9f570b71bc4a1ad9b6c92e4a528b&#45;&gt;dir_a36da230f0956f48b11c85f7d599788f</title>
<path fill="none" stroke="#000000" d="M117.5402,-361.1774C69.8593,-339.5804 .1091,-297.1882 .1091,-234 .1091,-234 .1091,-234 .1091,-162 .1091,-120.7145 -1.6364,-105.0478 23.1091,-72 36.2363,-54.4686 56.8725,-41.5546 75.1768,-32.7596"/>
<polygon fill="#000000" stroke="#000000" points="76.8261,-35.8546 84.4842,-28.5331 73.9318,-29.481 76.8261,-35.8546"/>
<g id="a_edge8&#45;headlabel"><a xlink:href="dir_000027_000006.html" target="_top" xlink:title="4">
<text text-anchor="middle" x="74.7271" y="-37.4261" font-family="Helvetica,sans-Serif" font-size="10.00" fill="#000000">4</text>
</a>
</g>
</g>
<!-- dir_d739e095b49d8b72164589d00310017d -->
<g id="node5" class="node">
<title>dir_d739e095b49d8b72164589d00310017d</title>
<g id="a_node5"><a xlink:href="dir_d739e095b49d8b72164589d00310017d.html" target="_top" xlink:title="geometry">
<polygon fill="#ffffff" stroke="#ff0000" points="262.1091,-252 198.1091,-252 198.1091,-216 262.1091,-216 262.1091,-252"/>
<text text-anchor="middle" x="230.1091" y="-231.5" font-family="Helvetica,sans-Serif" font-size="10.00" fill="#000000">geometry</text>
</a>
</g>
</g>
<!-- dir_822d9f570b71bc4a1ad9b6c92e4a528b&#45;&gt;dir_d739e095b49d8b72164589d00310017d -->
<g id="edge9" class="edge">
<title>dir_822d9f570b71bc4a1ad9b6c92e4a528b&#45;&gt;dir_d739e095b49d8b72164589d00310017d</title>
<path fill="none" stroke="#000000" d="M178.1244,-359.6876C186.6162,-349.745 196.4663,-336.8773 203.1091,-324 213.2214,-304.397 220.1838,-280.394 224.5026,-262.1078"/>
<polygon fill="#000000" stroke="#000000" points="227.9201,-262.8632 226.6885,-252.3402 221.089,-261.3344 227.9201,-262.8632"/>
<g id="a_edge9&#45;headlabel"><a xlink:href="dir_000027_000033.html" target="_top" xlink:title="1">
<text text-anchor="middle" x="229.9059" y="-264.4911" font-family="Helvetica,sans-Serif" font-size="10.00" fill="#000000">1</text>
</a>
</g>
</g>
<!-- dir_b7a0e33b407baa23d8a077e33033c988 -->
<g id="node6" class="node">
<title>dir_b7a0e33b407baa23d8a077e33033c988</title>
<g id="a_node6"><a xlink:href="dir_b7a0e33b407baa23d8a077e33033c988.html" target="_top" xlink:title="systems">
<polygon fill="#ffffff" stroke="#ff0000" points="200.1091,-180 142.1091,-180 142.1091,-144 200.1091,-144 200.1091,-180"/>
<text text-anchor="middle" x="171.1091" y="-159.5" font-family="Helvetica,sans-Serif" font-size="10.00" fill="#000000">systems</text>
</a>
</g>
</g>
<!-- dir_822d9f570b71bc4a1ad9b6c92e4a528b&#45;&gt;dir_b7a0e33b407baa23d8a077e33033c988 -->
<g id="edge10" class="edge">
<title>dir_822d9f570b71bc4a1ad9b6c92e4a528b&#45;&gt;dir_b7a0e33b407baa23d8a077e33033c988</title>
<path fill="none" stroke="#000000" d="M186.4856,-359.9511C214.4282,-338.1743 257.2397,-298.6197 271.1091,-252 275.6715,-236.6643 279.3055,-229.7411 271.1091,-216 257.9022,-193.8588 232.1256,-180.2519 210.0512,-172.2354"/>
<polygon fill="#000000" stroke="#000000" points="211.1414,-168.9094 200.5473,-169.0342 208.9069,-175.5432 211.1414,-168.9094"/>
<g id="a_edge10&#45;headlabel"><a xlink:href="dir_000027_000072.html" target="_top" xlink:title="5">
<text text-anchor="middle" x="215.4543" y="-164.866" font-family="Helvetica,sans-Serif" font-size="10.00" fill="#000000">5</text>
</a>
</g>
</g>
<!-- dir_39b8b3c6654246a9c12332c930bc7d3f&#45;&gt;dir_c86b501450b8b8b59405c286cb030cc3 -->
<g id="edge1" class="edge">
<title>dir_39b8b3c6654246a9c12332c930bc7d3f&#45;&gt;dir_c86b501450b8b8b59405c286cb030cc3</title>
<path fill="none" stroke="#000000" d="M133.9895,-287.7865C121.9679,-278.4135 108.6432,-266.0125 100.1091,-252 74.5091,-209.9663 64.8334,-152.5037 61.2187,-118.5181"/>
<polygon fill="#000000" stroke="#000000" points="64.6832,-117.9788 60.2456,-108.3581 57.715,-118.6463 64.6832,-117.9788"/>
<g id="a_edge1&#45;headlabel"><a xlink:href="dir_000048_000068.html" target="_top" xlink:title="25">
<text text-anchor="middle" x="67.8521" y="-118.7863" font-family="Helvetica,sans-Serif" font-size="10.00" fill="#000000">25</text>
</a>
</g>
</g>
<!-- dir_39b8b3c6654246a9c12332c930bc7d3f&#45;&gt;dir_a36da230f0956f48b11c85f7d599788f -->
<g id="edge2" class="edge">
<title>dir_39b8b3c6654246a9c12332c930bc7d3f&#45;&gt;dir_a36da230f0956f48b11c85f7d599788f</title>
<path fill="none" stroke="#000000" d="M156.4395,-287.7523C150.3359,-263.3475 139.6551,-218.6649 133.1091,-180 125.2099,-133.3423 119.5274,-78.5684 116.5335,-46.1556"/>
<polygon fill="#000000" stroke="#000000" points="120.0075,-45.7092 115.6219,-36.0647 113.0359,-46.3391 120.0075,-45.7092"/>
<g id="a_edge2&#45;headlabel"><a xlink:href="dir_000048_000006.html" target="_top" xlink:title="217">
<text text-anchor="middle" x="123.1586" y="-46.5339" font-family="Helvetica,sans-Serif" font-size="10.00" fill="#000000">217</text>
</a>
</g>
</g>
<!-- dir_39b8b3c6654246a9c12332c930bc7d3f&#45;&gt;dir_d739e095b49d8b72164589d00310017d -->
<g id="edge3" class="edge">
<title>dir_39b8b3c6654246a9c12332c930bc7d3f&#45;&gt;dir_d739e095b49d8b72164589d00310017d</title>
<path fill="none" stroke="#000000" d="M172.5683,-287.8314C180.0559,-279.1337 189.9995,-268.5783 199.561,-259.1265"/>
<polygon fill="#000000" stroke="#000000" points="202.0028,-261.634 206.7512,-252.1628 197.1329,-256.6057 202.0028,-261.634"/>
<g id="a_edge3&#45;headlabel"><a xlink:href="dir_000048_000033.html" target="_top" xlink:title="27">
<text text-anchor="middle" x="201.396" y="-263.6743" font-family="Helvetica,sans-Serif" font-size="10.00" fill="#000000">27</text>
</a>
</g>
</g>
<!-- dir_39b8b3c6654246a9c12332c930bc7d3f&#45;&gt;dir_b7a0e33b407baa23d8a077e33033c988 -->
<g id="edge4" class="edge">
<title>dir_39b8b3c6654246a9c12332c930bc7d3f&#45;&gt;dir_b7a0e33b407baa23d8a077e33033c988</title>
<path fill="none" stroke="#000000" d="M157.7024,-287.7623C156.9483,-263.201 159.7259,-219.2474 163.6426,-190.3541"/>
<polygon fill="#000000" stroke="#000000" points="167.1602,-190.5005 165.1946,-180.0896 160.2389,-189.454 167.1602,-190.5005"/>
<g id="a_edge4&#45;headlabel"><a xlink:href="dir_000048_000072.html" target="_top" xlink:title="32">
<text text-anchor="middle" x="169.4303" y="-191.9792" font-family="Helvetica,sans-Serif" font-size="10.00" fill="#000000">32</text>
</a>
</g>
</g>
<!-- dir_c86b501450b8b8b59405c286cb030cc3&#45;&gt;dir_a36da230f0956f48b11c85f7d599788f -->
<g id="edge5" class="edge">
<title>dir_c86b501450b8b8b59405c286cb030cc3&#45;&gt;dir_a36da230f0956f48b11c85f7d599788f</title>
<path fill="none" stroke="#000000" d="M72.9879,-71.8314C79.3227,-63.5386 86.9475,-53.557 93.9017,-44.4533"/>
<polygon fill="#000000" stroke="#000000" points="96.7543,-46.4847 100.0434,-36.4133 91.1916,-42.2353 96.7543,-46.4847"/>
<g id="a_edge5&#45;headlabel"><a xlink:href="dir_000068_000006.html" target="_top" xlink:title="80">
<text text-anchor="middle" x="96.8286" y="-48.5647" font-family="Helvetica,sans-Serif" font-size="10.00" fill="#000000">80</text>
</a>
</g>
</g>
<!-- dir_d739e095b49d8b72164589d00310017d&#45;&gt;dir_39b8b3c6654246a9c12332c930bc7d3f -->
<g id="edge11" class="edge">
<title>dir_d739e095b49d8b72164589d00310017d&#45;&gt;dir_39b8b3c6654246a9c12332c930bc7d3f</title>
<path fill="none" stroke="#000000" d="M218.4391,-252.4133C211.0365,-260.9938 201.2883,-271.3414 191.8869,-280.6463"/>
<polygon fill="#000000" stroke="#000000" points="189.2183,-278.3586 184.4731,-287.8314 194.0899,-283.3853 189.2183,-278.3586"/>
<g id="a_edge11&#45;headlabel"><a xlink:href="dir_000033_000048.html" target="_top" xlink:title="1">
<text text-anchor="middle" x="189.8236" y="-271.3181" font-family="Helvetica,sans-Serif" font-size="10.00" fill="#000000">1</text>
</a>
</g>
</g>
<!-- dir_d739e095b49d8b72164589d00310017d&#45;&gt;dir_a36da230f0956f48b11c85f7d599788f -->
<g id="edge12" class="edge">
<title>dir_d739e095b49d8b72164589d00310017d&#45;&gt;dir_a36da230f0956f48b11c85f7d599788f</title>
<path fill="none" stroke="#000000" d="M228.0029,-215.729C225.3613,-197.045 219.8156,-167.5088 209.1091,-144 191.6645,-105.6962 160.9433,-67.9874 139.1635,-43.9547"/>
<polygon fill="#000000" stroke="#000000" points="141.5031,-41.3288 132.1522,-36.3477 136.3559,-46.0729 141.5031,-41.3288"/>
<g id="a_edge12&#45;headlabel"><a xlink:href="dir_000033_000006.html" target="_top" xlink:title="110">
<text text-anchor="middle" x="146.027" y="-39.5477" font-family="Helvetica,sans-Serif" font-size="10.00" fill="#000000">110</text>
</a>
</g>
</g>
<!-- dir_d739e095b49d8b72164589d00310017d&#45;&gt;dir_b7a0e33b407baa23d8a077e33033c988 -->
<g id="edge13" class="edge">
<title>dir_d739e095b49d8b72164589d00310017d&#45;&gt;dir_b7a0e33b407baa23d8a077e33033c988</title>
<path fill="none" stroke="#000000" d="M209.2685,-215.8314C201.6649,-207.5386 193.2915,-197.557 186.2517,-188.4533"/>
<polygon fill="#000000" stroke="#000000" points="189.0217,-186.3134 180.2217,-180.4133 183.4217,-190.5133 189.0217,-186.3134"/>
<g id="a_edge13&#45;headlabel"><a xlink:href="dir_000033_000072.html" target="_top" xlink:title="13">
<text text-anchor="middle" x="193.4499" y="-184.9855" font-family="Helvetica,sans-Serif" font-size="10.00" fill="#000000">13</text>
</a>
</g>
</g>
<!-- dir_b7a0e33b407baa23d8a077e33033c988&#45;&gt;dir_39b8b3c6654246a9c12332c930bc7d3f -->
<g id="edge14" class="edge">
<title>dir_b7a0e33b407baa23d8a077e33033c988&#45;&gt;dir_39b8b3c6654246a9c12332c930bc7d3f</title>
<path fill="none" stroke="#000000" d="M174.5112,-180.0896C175.2829,-204.6805 172.4869,-248.905 168.5474,-277.8531"/>
<polygon fill="#000000" stroke="#000000" points="165.0836,-277.3513 167.0488,-287.7623 172.0049,-278.3981 165.0836,-277.3513"/>
<g id="a_edge14&#45;headlabel"><a xlink:href="dir_000072_000048.html" target="_top" xlink:title="10">
<text text-anchor="middle" x="162.8137" y="-270.8726" font-family="Helvetica,sans-Serif" font-size="10.00" fill="#000000">10</text>
</a>
</g>
</g>
<!-- dir_b7a0e33b407baa23d8a077e33033c988&#45;&gt;dir_c86b501450b8b8b59405c286cb030cc3 -->
<g id="edge15" class="edge">
<title>dir_b7a0e33b407baa23d8a077e33033c988&#45;&gt;dir_c86b501450b8b8b59405c286cb030cc3</title>
<path fill="none" stroke="#000000" d="M142.8468,-143.8314C128.3289,-134.4984 110.4835,-123.0264 95.0023,-113.0742"/>
<polygon fill="#000000" stroke="#000000" points="96.5078,-109.8812 86.2033,-107.4177 92.7224,-115.7695 96.5078,-109.8812"/>
<g id="a_edge15&#45;headlabel"><a xlink:href="dir_000072_000068.html" target="_top" xlink:title="6">
<text text-anchor="middle" x="101.0668" y="-106.9366" font-family="Helvetica,sans-Serif" font-size="10.00" fill="#000000">6</text>
</a>
</g>
</g>
<!-- dir_b7a0e33b407baa23d8a077e33033c988&#45;&gt;dir_a36da230f0956f48b11c85f7d599788f -->
<g id="edge16" class="edge">
<title>dir_b7a0e33b407baa23d8a077e33033c988&#45;&gt;dir_a36da230f0956f48b11c85f7d599788f</title>
<path fill="none" stroke="#000000" d="M163.89,-143.7623C154.0822,-118.9846 136.4623,-74.4714 125.0317,-45.5939"/>
<polygon fill="#000000" stroke="#000000" points="128.2044,-44.0995 121.2696,-36.0896 121.6958,-46.6759 128.2044,-44.0995"/>
<g id="a_edge16&#45;headlabel"><a xlink:href="dir_000072_000006.html" target="_top" xlink:title="370">
<text text-anchor="middle" x="132.1673" y="-43.8968" font-family="Helvetica,sans-Serif" font-size="10.00" fill="#000000">370</text>
</a>
</g>
</g>
<!-- dir_b7a0e33b407baa23d8a077e33033c988&#45;&gt;dir_d739e095b49d8b72164589d00310017d -->
<g id="edge17" class="edge">
<title>dir_b7a0e33b407baa23d8a077e33033c988&#45;&gt;dir_d739e095b49d8b72164589d00310017d</title>
<path fill="none" stroke="#000000" d="M192.1738,-180.4133C199.7923,-188.7389 208.1599,-198.7282 215.1734,-207.8144"/>
<polygon fill="#000000" stroke="#000000" points="212.3793,-209.9224 221.1733,-215.8314 217.9836,-205.7281 212.3793,-209.9224"/>
<g id="a_edge17&#45;headlabel"><a xlink:href="dir_000072_000033.html" target="_top" xlink:title="6">
<text text-anchor="middle" x="207.9523" y="-206.2457" font-family="Helvetica,sans-Serif" font-size="10.00" fill="#000000">6</text>
</a>
</g>
</g>
</g>
</svg>
