<?xml version="1.0" encoding="UTF-8" standalone="no"?>
<!DOCTYPE svg PUBLIC "-//W3C//DTD SVG 1.1//EN"
 "http://www.w3.org/Graphics/SVG/1.1/DTD/svg11.dtd">
<!-- Generated by graphviz version 2.40.1 (20161225.0304)
 -->
<!-- Title: drake/examples/rod2d Pages: 1 -->
<svg width="179pt" height="367pt"
 viewBox="0.00 0.00 179.00 367.00" xmlns="http://www.w3.org/2000/svg" xmlns:xlink="http://www.w3.org/1999/xlink">
<g id="graph0" class="graph" transform="scale(1 1) rotate(0) translate(4 363)">
<title>drake/examples/rod2d</title>
<polygon fill="#ffffff" stroke="transparent" points="-4,4 -4,-363 175,-363 175,4 -4,4"/>
<g id="clust1" class="cluster">
<title>clusterdir_bf85a0c13984f214f436b2edc519c6dd</title>
<g id="a_clust1"><a xlink:href="dir_bf85a0c13984f214f436b2edc519c6dd.html" target="_top" xlink:title="examples">
<polygon fill="#ddddee" stroke="#000000" points="93,-280 93,-351 163,-351 163,-280 93,-280"/>
<text text-anchor="middle" x="128" y="-339" font-family="Helvetica,sans-Serif" font-size="10.00" fill="#000000">examples</text>
</a>
</g>
</g>
<!-- dir_5fa915364d7caf39d2fac1314fb2fd74 -->
<g id="node1" class="node">
<title>dir_5fa915364d7caf39d2fac1314fb2fd74</title>
<g id="a_node1"><a xlink:href="dir_5fa915364d7caf39d2fac1314fb2fd74.html" target="_top" xlink:title="rod2d">
<polygon fill="#eeeeff" stroke="#000000" points="155,-324 101,-324 101,-288 155,-288 155,-324"/>
<text text-anchor="middle" x="128" y="-303.5" font-family="Helvetica,sans-Serif" font-size="10.00" fill="#000000">rod2d</text>
</a>
</g>
</g>
<!-- dir_39b8b3c6654246a9c12332c930bc7d3f -->
<g id="node2" class="node">
<title>dir_39b8b3c6654246a9c12332c930bc7d3f</title>
<g id="a_node2"><a xlink:href="dir_39b8b3c6654246a9c12332c930bc7d3f.html" target="_top" xlink:title="multibody">
<polygon fill="#ffffff" stroke="#ff0000" points="66,-252 0,-252 0,-216 66,-216 66,-252"/>
<text text-anchor="middle" x="33" y="-231.5" font-family="Helvetica,sans-Serif" font-size="10.00" fill="#000000">multibody</text>
</a>
</g>
</g>
<!-- dir_5fa915364d7caf39d2fac1314fb2fd74&#45;&gt;dir_39b8b3c6654246a9c12332c930bc7d3f -->
<g id="edge6" class="edge">
<title>dir_5fa915364d7caf39d2fac1314fb2fd74&#45;&gt;dir_39b8b3c6654246a9c12332c930bc7d3f</title>
<path fill="none" stroke="#000000" d="M104.0275,-287.8314C92.2139,-278.8779 77.8028,-267.9558 65.0565,-258.2955"/>
<polygon fill="#000000" stroke="#000000" points="67.0486,-255.4137 56.9648,-252.1628 62.8205,-260.9925 67.0486,-255.4137"/>
<g id="a_edge6&#45;headlabel"><a xlink:href="dir_000031_000049.html" target="_top" xlink:title="2">
<text text-anchor="middle" x="71.6284" y="-252.822" font-family="Helvetica,sans-Serif" font-size="10.00" fill="#000000">2</text>
</a>
</g>
</g>
<!-- dir_c86b501450b8b8b59405c286cb030cc3 -->
<g id="node3" class="node">
<title>dir_c86b501450b8b8b59405c286cb030cc3</title>
<g id="a_node3"><a xlink:href="dir_c86b501450b8b8b59405c286cb030cc3.html" target="_top" xlink:title="solvers">
<polygon fill="#ffffff" stroke="#ff0000" points="114,-36 60,-36 60,0 114,0 114,-36"/>
<text text-anchor="middle" x="87" y="-15.5" font-family="Helvetica,sans-Serif" font-size="10.00" fill="#000000">solvers</text>
</a>
</g>
</g>
<!-- dir_5fa915364d7caf39d2fac1314fb2fd74&#45;&gt;dir_c86b501450b8b8b59405c286cb030cc3 -->
<g id="edge7" class="edge">
<title>dir_5fa915364d7caf39d2fac1314fb2fd74&#45;&gt;dir_c86b501450b8b8b59405c286cb030cc3</title>
<path fill="none" stroke="#000000" d="M138.4559,-287.6605C143.6458,-277.5026 149.3591,-264.4443 152,-252 155.3215,-236.3486 152.6649,-231.9862 152,-216 149.2939,-150.941 153.235,-130.6753 125,-72 120.3772,-62.3933 114.0981,-52.6399 107.9763,-44.1142"/>
<polygon fill="#000000" stroke="#000000" points="110.752,-41.9815 101.9741,-36.0487 105.1364,-46.1606 110.752,-41.9815"/>
<g id="a_edge7&#45;headlabel"><a xlink:href="dir_000031_000069.html" target="_top" xlink:title="1">
<text text-anchor="middle" x="115.1758" y="-40.6701" font-family="Helvetica,sans-Serif" font-size="10.00" fill="#000000">1</text>
</a>
</g>
</g>
<!-- dir_d739e095b49d8b72164589d00310017d -->
<g id="node4" class="node">
<title>dir_d739e095b49d8b72164589d00310017d</title>
<g id="a_node4"><a xlink:href="dir_d739e095b49d8b72164589d00310017d.html" target="_top" xlink:title="geometry">
<polygon fill="#ffffff" stroke="#ff0000" points="119,-180 55,-180 55,-144 119,-144 119,-180"/>
<text text-anchor="middle" x="87" y="-159.5" font-family="Helvetica,sans-Serif" font-size="10.00" fill="#000000">geometry</text>
</a>
</g>
</g>
<!-- dir_5fa915364d7caf39d2fac1314fb2fd74&#45;&gt;dir_d739e095b49d8b72164589d00310017d -->
<g id="edge8" class="edge">
<title>dir_5fa915364d7caf39d2fac1314fb2fd74&#45;&gt;dir_d739e095b49d8b72164589d00310017d</title>
<path fill="none" stroke="#000000" d="M122.8073,-287.7623C115.7834,-263.0928 103.1892,-218.8598 94.9646,-189.9731"/>
<polygon fill="#000000" stroke="#000000" points="98.2552,-188.7489 92.1505,-180.0896 91.5228,-190.6658 98.2552,-188.7489"/>
<g id="a_edge8&#45;headlabel"><a xlink:href="dir_000031_000034.html" target="_top" xlink:title="1">
<text text-anchor="middle" x="101.9702" y="-188.9286" font-family="Helvetica,sans-Serif" font-size="10.00" fill="#000000">1</text>
</a>
</g>
</g>
<!-- dir_b7a0e33b407baa23d8a077e33033c988 -->
<g id="node5" class="node">
<title>dir_b7a0e33b407baa23d8a077e33033c988</title>
<g id="a_node5"><a xlink:href="dir_b7a0e33b407baa23d8a077e33033c988.html" target="_top" xlink:title="systems">
<polygon fill="#ffffff" stroke="#ff0000" points="116,-108 58,-108 58,-72 116,-72 116,-108"/>
<text text-anchor="middle" x="87" y="-87.5" font-family="Helvetica,sans-Serif" font-size="10.00" fill="#000000">systems</text>
</a>
</g>
</g>
<!-- dir_5fa915364d7caf39d2fac1314fb2fd74&#45;&gt;dir_b7a0e33b407baa23d8a077e33033c988 -->
<g id="edge9" class="edge">
<title>dir_5fa915364d7caf39d2fac1314fb2fd74&#45;&gt;dir_b7a0e33b407baa23d8a077e33033c988</title>
<path fill="none" stroke="#000000" d="M131.6568,-287.901C137.0448,-257.3106 144.7787,-193.8455 128,-144 124.6203,-133.9596 118.5495,-124.3047 112.0975,-116.0052"/>
<polygon fill="#000000" stroke="#000000" points="114.6879,-113.6461 105.604,-108.1933 109.3048,-118.1208 114.6879,-113.6461"/>
<g id="a_edge9&#45;headlabel"><a xlink:href="dir_000031_000073.html" target="_top" xlink:title="3">
<text text-anchor="middle" x="119.1691" y="-112.0955" font-family="Helvetica,sans-Serif" font-size="10.00" fill="#000000">3</text>
</a>
</g>
</g>
<!-- dir_39b8b3c6654246a9c12332c930bc7d3f&#45;&gt;dir_c86b501450b8b8b59405c286cb030cc3 -->
<g id="edge1" class="edge">
<title>dir_39b8b3c6654246a9c12332c930bc7d3f&#45;&gt;dir_c86b501450b8b8b59405c286cb030cc3</title>
<path fill="none" stroke="#000000" d="M31.2247,-215.8222C28.9588,-184.8441 27.5891,-120.4728 49,-72 53.194,-62.5051 59.1751,-52.9713 65.1544,-44.614"/>
<polygon fill="#000000" stroke="#000000" points="68.1246,-46.4863 71.3098,-36.3816 62.5184,-42.2945 68.1246,-46.4863"/>
<g id="a_edge1&#45;headlabel"><a xlink:href="dir_000049_000069.html" target="_top" xlink:title="25">
<text text-anchor="middle" x="68.246" y="-48.5654" font-family="Helvetica,sans-Serif" font-size="10.00" fill="#000000">25</text>
</a>
</g>
</g>
<!-- dir_39b8b3c6654246a9c12332c930bc7d3f&#45;&gt;dir_d739e095b49d8b72164589d00310017d -->
<g id="edge2" class="edge">
<title>dir_39b8b3c6654246a9c12332c930bc7d3f&#45;&gt;dir_d739e095b49d8b72164589d00310017d</title>
<path fill="none" stroke="#000000" d="M40.6741,-215.8314C46.1407,-207.454 53.5267,-197.3531 60.8474,-188.1749"/>
<polygon fill="#000000" stroke="#000000" points="63.5781,-190.3647 67.214,-180.4133 58.1659,-185.9252 63.5781,-190.3647"/>
<g id="a_edge2&#45;headlabel"><a xlink:href="dir_000049_000034.html" target="_top" xlink:title="28">
<text text-anchor="middle" x="63.4936" y="-192.4446" font-family="Helvetica,sans-Serif" font-size="10.00" fill="#000000">28</text>
</a>
</g>
</g>
<!-- dir_39b8b3c6654246a9c12332c930bc7d3f&#45;&gt;dir_b7a0e33b407baa23d8a077e33033c988 -->
<g id="edge3" class="edge">
<title>dir_39b8b3c6654246a9c12332c930bc7d3f&#45;&gt;dir_b7a0e33b407baa23d8a077e33033c988</title>
<path fill="none" stroke="#000000" d="M26.2262,-215.7031C24.5742,-196.9985 27.1857,-167.4461 37,-144 41.2021,-133.9613 47.7165,-124.1305 54.7489,-115.6667"/>
<polygon fill="#000000" stroke="#000000" points="57.5385,-117.7976 61.5915,-108.0086 52.3187,-113.1335 57.5385,-117.7976"/>
<g id="a_edge3&#45;headlabel"><a xlink:href="dir_000049_000073.html" target="_top" xlink:title="33">
<text text-anchor="middle" x="57.2607" y="-119.8698" font-family="Helvetica,sans-Serif" font-size="10.00" fill="#000000">33</text>
</a>
</g>
</g>
<!-- dir_d739e095b49d8b72164589d00310017d&#45;&gt;dir_39b8b3c6654246a9c12332c930bc7d3f -->
<g id="edge4" class="edge">
<title>dir_d739e095b49d8b72164589d00310017d&#45;&gt;dir_39b8b3c6654246a9c12332c930bc7d3f</title>
<path fill="none" stroke="#000000" d="M79.1661,-180.4133C73.6623,-188.8239 66.2585,-198.9323 58.9393,-208.0923"/>
<polygon fill="#000000" stroke="#000000" points="56.2243,-205.8834 52.5789,-215.8314 61.6323,-210.328 56.2243,-205.8834"/>
<g id="a_edge4&#45;headlabel"><a xlink:href="dir_000034_000049.html" target="_top" xlink:title="1">
<text text-anchor="middle" x="56.3131" y="-198.8036" font-family="Helvetica,sans-Serif" font-size="10.00" fill="#000000">1</text>
</a>
</g>
</g>
<!-- dir_d739e095b49d8b72164589d00310017d&#45;&gt;dir_b7a0e33b407baa23d8a077e33033c988 -->
<g id="edge5" class="edge">
<title>dir_d739e095b49d8b72164589d00310017d&#45;&gt;dir_b7a0e33b407baa23d8a077e33033c988</title>
<path fill="none" stroke="#000000" d="M81.0476,-143.8314C80.2972,-136.131 80.0763,-126.9743 80.3849,-118.4166"/>
<polygon fill="#000000" stroke="#000000" points="83.8792,-118.6161 81.024,-108.4133 76.8935,-118.1697 83.8792,-118.6161"/>
<g id="a_edge5&#45;headlabel"><a xlink:href="dir_000034_000073.html" target="_top" xlink:title="13">
<text text-anchor="middle" x="86.4836" y="-119.8844" font-family="Helvetica,sans-Serif" font-size="10.00" fill="#000000">13</text>
</a>
</g>
</g>
<!-- dir_b7a0e33b407baa23d8a077e33033c988&#45;&gt;dir_39b8b3c6654246a9c12332c930bc7d3f -->
<g id="edge10" class="edge">
<title>dir_b7a0e33b407baa23d8a077e33033c988&#45;&gt;dir_39b8b3c6654246a9c12332c930bc7d3f</title>
<path fill="none" stroke="#000000" d="M77.6433,-108.0086C70.1165,-117.8681 60.545,-130.7531 55,-144 46.7959,-163.5995 43.625,-187.466 41.1549,-205.6959"/>
<polygon fill="#000000" stroke="#000000" points="37.6743,-205.3134 39.7487,-215.7031 44.6062,-206.2874 37.6743,-205.3134"/>
<g id="a_edge10&#45;headlabel"><a xlink:href="dir_000073_000049.html" target="_top" xlink:title="10">
<text text-anchor="middle" x="35.3627" y="-198.8587" font-family="Helvetica,sans-Serif" font-size="10.00" fill="#000000">10</text>
</a>
</g>
</g>
<!-- dir_b7a0e33b407baa23d8a077e33033c988&#45;&gt;dir_c86b501450b8b8b59405c286cb030cc3 -->
<g id="edge11" class="edge">
<title>dir_b7a0e33b407baa23d8a077e33033c988&#45;&gt;dir_c86b501450b8b8b59405c286cb030cc3</title>
<path fill="none" stroke="#000000" d="M87,-71.8314C87,-64.131 87,-54.9743 87,-46.4166"/>
<polygon fill="#000000" stroke="#000000" points="90.5001,-46.4132 87,-36.4133 83.5001,-46.4133 90.5001,-46.4132"/>
<g id="a_edge11&#45;headlabel"><a xlink:href="dir_000073_000069.html" target="_top" xlink:title="6">
<text text-anchor="middle" x="93.3393" y="-47.5079" font-family="Helvetica,sans-Serif" font-size="10.00" fill="#000000">6</text>
</a>
</g>
</g>
<!-- dir_b7a0e33b407baa23d8a077e33033c988&#45;&gt;dir_d739e095b49d8b72164589d00310017d -->
<g id="edge12" class="edge">
<title>dir_b7a0e33b407baa23d8a077e33033c988&#45;&gt;dir_d739e095b49d8b72164589d00310017d</title>
<path fill="none" stroke="#000000" d="M92.976,-108.4133C93.7071,-116.0593 93.9203,-125.1084 93.6155,-133.5726"/>
<polygon fill="#000000" stroke="#000000" points="90.1048,-133.6264 92.9524,-143.8314 97.0902,-134.078 90.1048,-133.6264"/>
<g id="a_edge12&#45;headlabel"><a xlink:href="dir_000073_000034.html" target="_top" xlink:title="6">
<text text-anchor="middle" x="87.5032" y="-127.3562" font-family="Helvetica,sans-Serif" font-size="10.00" fill="#000000">6</text>
</a>
</g>
</g>
</g>
</svg>
