<?xml version="1.0" encoding="UTF-8" standalone="no"?>
<!DOCTYPE svg PUBLIC "-//W3C//DTD SVG 1.1//EN"
 "http://www.w3.org/Graphics/SVG/1.1/DTD/svg11.dtd">
<!-- Generated by graphviz version 2.40.1 (20161225.0304)
 -->
<!-- Title: drake/multibody/optimization Pages: 1 -->
<svg width="330pt" height="439pt"
 viewBox="0.00 0.00 330.00 439.00" xmlns="http://www.w3.org/2000/svg" xmlns:xlink="http://www.w3.org/1999/xlink">
<g id="graph0" class="graph" transform="scale(1 1) rotate(0) translate(4 435)">
<title>drake/multibody/optimization</title>
<polygon fill="#ffffff" stroke="transparent" points="-4,4 -4,-435 326,-435 326,4 -4,4"/>
<g id="clust1" class="cluster">
<title>clusterdir_39b8b3c6654246a9c12332c930bc7d3f</title>
<g id="a_clust1"><a xlink:href="dir_39b8b3c6654246a9c12332c930bc7d3f.html" target="_top" xlink:title="multibody">
<polygon fill="#ddddee" stroke="#000000" points="125,-352 125,-423 219,-423 219,-352 125,-352"/>
<text text-anchor="middle" x="172" y="-411" font-family="Helvetica,sans-Serif" font-size="10.00" fill="#000000">multibody</text>
</a>
</g>
</g>
<!-- dir_bd08a370beeb74038c8d9ad70b7a29c4 -->
<g id="node1" class="node">
<title>dir_bd08a370beeb74038c8d9ad70b7a29c4</title>
<g id="a_node1"><a xlink:href="dir_bd08a370beeb74038c8d9ad70b7a29c4.html" target="_top" xlink:title="optimization">
<polygon fill="#eeeeff" stroke="#000000" points="211,-396 133,-396 133,-360 211,-360 211,-396"/>
<text text-anchor="middle" x="172" y="-375.5" font-family="Helvetica,sans-Serif" font-size="10.00" fill="#000000">optimization</text>
</a>
</g>
</g>
<!-- dir_c86b501450b8b8b59405c286cb030cc3 -->
<g id="node2" class="node">
<title>dir_c86b501450b8b8b59405c286cb030cc3</title>
<g id="a_node2"><a xlink:href="dir_c86b501450b8b8b59405c286cb030cc3.html" target="_top" xlink:title="solvers">
<polygon fill="#ffffff" stroke="#ff0000" points="54,-324 0,-324 0,-288 54,-288 54,-324"/>
<text text-anchor="middle" x="27" y="-303.5" font-family="Helvetica,sans-Serif" font-size="10.00" fill="#000000">solvers</text>
</a>
</g>
</g>
<!-- dir_bd08a370beeb74038c8d9ad70b7a29c4&#45;&gt;dir_c86b501450b8b8b59405c286cb030cc3 -->
<g id="edge10" class="edge">
<title>dir_bd08a370beeb74038c8d9ad70b7a29c4&#45;&gt;dir_c86b501450b8b8b59405c286cb030cc3</title>
<path fill="none" stroke="#000000" d="M135.4104,-359.8314C113.3875,-348.8959 85.4503,-335.0236 63.4521,-324.1004"/>
<polygon fill="#000000" stroke="#000000" points="64.9357,-320.9294 54.4225,-319.6167 61.8225,-327.199 64.9357,-320.9294"/>
<g id="a_edge10&#45;headlabel"><a xlink:href="dir_000062_000071.html" target="_top" xlink:title="15">
<text text-anchor="middle" x="69.418" y="-317.485" font-family="Helvetica,sans-Serif" font-size="10.00" fill="#000000">15</text>
</a>
</g>
</g>
<!-- dir_a36da230f0956f48b11c85f7d599788f -->
<g id="node3" class="node">
<title>dir_a36da230f0956f48b11c85f7d599788f</title>
<g id="a_node3"><a xlink:href="dir_a36da230f0956f48b11c85f7d599788f.html" target="_top" xlink:title="common">
<polygon fill="#ffffff" stroke="#ff0000" points="174.5,-36 115.5,-36 115.5,0 174.5,0 174.5,-36"/>
<text text-anchor="middle" x="145" y="-15.5" font-family="Helvetica,sans-Serif" font-size="10.00" fill="#000000">common</text>
</a>
</g>
</g>
<!-- dir_bd08a370beeb74038c8d9ad70b7a29c4&#45;&gt;dir_a36da230f0956f48b11c85f7d599788f -->
<g id="edge11" class="edge">
<title>dir_bd08a370beeb74038c8d9ad70b7a29c4&#45;&gt;dir_a36da230f0956f48b11c85f7d599788f</title>
<path fill="none" stroke="#000000" d="M138.684,-359.8753C125.026,-350.8235 110.2766,-338.6556 101,-324 79.1351,-289.4568 82,-274.8816 82,-234 82,-234 82,-234 82,-162 82,-118.171 106.7996,-72.6548 125.2797,-44.8215"/>
<polygon fill="#000000" stroke="#000000" points="128.2621,-46.6608 131.0183,-36.4307 122.4841,-42.7091 128.2621,-46.6608"/>
<g id="a_edge11&#45;headlabel"><a xlink:href="dir_000062_000006.html" target="_top" xlink:title="2">
<text text-anchor="middle" x="128.5765" y="-48.7306" font-family="Helvetica,sans-Serif" font-size="10.00" fill="#000000">2</text>
</a>
</g>
</g>
<!-- dir_d739e095b49d8b72164589d00310017d -->
<g id="node4" class="node">
<title>dir_d739e095b49d8b72164589d00310017d</title>
<g id="a_node4"><a xlink:href="dir_d739e095b49d8b72164589d00310017d.html" target="_top" xlink:title="geometry">
<polygon fill="#ffffff" stroke="#ff0000" points="174,-324 110,-324 110,-288 174,-288 174,-324"/>
<text text-anchor="middle" x="142" y="-303.5" font-family="Helvetica,sans-Serif" font-size="10.00" fill="#000000">geometry</text>
</a>
</g>
</g>
<!-- dir_bd08a370beeb74038c8d9ad70b7a29c4&#45;&gt;dir_d739e095b49d8b72164589d00310017d -->
<g id="edge12" class="edge">
<title>dir_bd08a370beeb74038c8d9ad70b7a29c4&#45;&gt;dir_d739e095b49d8b72164589d00310017d</title>
<path fill="none" stroke="#000000" d="M164.4297,-359.8314C161.1507,-351.9617 157.238,-342.5712 153.6055,-333.8533"/>
<polygon fill="#000000" stroke="#000000" points="156.7492,-332.2979 149.6722,-324.4133 150.2876,-334.9902 156.7492,-332.2979"/>
<g id="a_edge12&#45;headlabel"><a xlink:href="dir_000062_000035.html" target="_top" xlink:title="2">
<text text-anchor="middle" x="160.7525" y="-332.024" font-family="Helvetica,sans-Serif" font-size="10.00" fill="#000000">2</text>
</a>
</g>
</g>
<!-- dir_3f9cb8dbb3b4911cb2ecb548acd672c3 -->
<g id="node5" class="node">
<title>dir_3f9cb8dbb3b4911cb2ecb548acd672c3</title>
<g id="a_node5"><a xlink:href="dir_3f9cb8dbb3b4911cb2ecb548acd672c3.html" target="_top" xlink:title="tree">
<polygon fill="none" stroke="#000000" points="322,-180 268,-180 268,-144 322,-144 322,-180"/>
<text text-anchor="middle" x="295" y="-159.5" font-family="Helvetica,sans-Serif" font-size="10.00" fill="#000000">tree</text>
</a>
</g>
</g>
<!-- dir_bd08a370beeb74038c8d9ad70b7a29c4&#45;&gt;dir_3f9cb8dbb3b4911cb2ecb548acd672c3 -->
<g id="edge13" class="edge">
<title>dir_bd08a370beeb74038c8d9ad70b7a29c4&#45;&gt;dir_3f9cb8dbb3b4911cb2ecb548acd672c3</title>
<path fill="none" stroke="#000000" d="M211.4106,-360.0102C226.7682,-351.1788 243.2323,-339.1416 254,-324 282.75,-283.5719 291.3853,-224.8748 293.9501,-190.3512"/>
<polygon fill="#000000" stroke="#000000" points="297.4635,-190.2424 294.5874,-180.0454 290.4768,-189.8103 297.4635,-190.2424"/>
<g id="a_edge13&#45;headlabel"><a xlink:href="dir_000062_000068.html" target="_top" xlink:title="1">
<text text-anchor="middle" x="300.0756" y="-191.5053" font-family="Helvetica,sans-Serif" font-size="10.00" fill="#000000">1</text>
</a>
</g>
</g>
<!-- dir_656f7d340c0f5b4ecaf881820f2aea38 -->
<g id="node6" class="node">
<title>dir_656f7d340c0f5b4ecaf881820f2aea38</title>
<g id="a_node6"><a xlink:href="dir_656f7d340c0f5b4ecaf881820f2aea38.html" target="_top" xlink:title="plant">
<polygon fill="none" stroke="#000000" points="210,-252 156,-252 156,-216 210,-216 210,-252"/>
<text text-anchor="middle" x="183" y="-231.5" font-family="Helvetica,sans-Serif" font-size="10.00" fill="#000000">plant</text>
</a>
</g>
</g>
<!-- dir_bd08a370beeb74038c8d9ad70b7a29c4&#45;&gt;dir_656f7d340c0f5b4ecaf881820f2aea38 -->
<g id="edge14" class="edge">
<title>dir_bd08a370beeb74038c8d9ad70b7a29c4&#45;&gt;dir_656f7d340c0f5b4ecaf881820f2aea38</title>
<path fill="none" stroke="#000000" d="M176.6934,-359.6463C179.1071,-349.2631 181.7908,-335.9943 183,-324 185.0734,-303.4335 185.0039,-280.0887 184.4525,-262.3294"/>
<polygon fill="#000000" stroke="#000000" points="187.9497,-262.1857 184.0733,-252.3255 180.9547,-262.4509 187.9497,-262.1857"/>
<g id="a_edge14&#45;headlabel"><a xlink:href="dir_000062_000064.html" target="_top" xlink:title="4">
<text text-anchor="middle" x="190.923" y="-263.1702" font-family="Helvetica,sans-Serif" font-size="10.00" fill="#000000">4</text>
</a>
</g>
</g>
<!-- dir_7d55c3d5b8b0444a3d9934d2594c5211 -->
<g id="node7" class="node">
<title>dir_7d55c3d5b8b0444a3d9934d2594c5211</title>
<g id="a_node7"><a xlink:href="dir_7d55c3d5b8b0444a3d9934d2594c5211.html" target="_top" xlink:title="math">
<polygon fill="none" stroke="#000000" points="256,-108 202,-108 202,-72 256,-72 256,-108"/>
<text text-anchor="middle" x="229" y="-87.5" font-family="Helvetica,sans-Serif" font-size="10.00" fill="#000000">math</text>
</a>
</g>
</g>
<!-- dir_bd08a370beeb74038c8d9ad70b7a29c4&#45;&gt;dir_7d55c3d5b8b0444a3d9934d2594c5211 -->
<g id="edge15" class="edge">
<title>dir_bd08a370beeb74038c8d9ad70b7a29c4&#45;&gt;dir_7d55c3d5b8b0444a3d9934d2594c5211</title>
<path fill="none" stroke="#000000" d="M181.6724,-359.837C186.933,-349.5135 193.3048,-336.2408 198,-324 209.9375,-292.8775 213.2712,-284.8374 219,-252 227.0929,-205.6117 228.8813,-150.7554 229.1475,-118.253"/>
<polygon fill="#000000" stroke="#000000" points="232.6478,-118.1454 229.1863,-108.132 225.6479,-118.1184 232.6478,-118.1454"/>
<g id="a_edge15&#45;headlabel"><a xlink:href="dir_000062_000061.html" target="_top" xlink:title="1">
<text text-anchor="middle" x="235.4734" y="-119.2508" font-family="Helvetica,sans-Serif" font-size="10.00" fill="#000000">1</text>
</a>
</g>
</g>
<!-- dir_c86b501450b8b8b59405c286cb030cc3&#45;&gt;dir_a36da230f0956f48b11c85f7d599788f -->
<g id="edge1" class="edge">
<title>dir_c86b501450b8b8b59405c286cb030cc3&#45;&gt;dir_a36da230f0956f48b11c85f7d599788f</title>
<path fill="none" stroke="#000000" d="M25.7051,-287.9255C23.6127,-246.314 23.5211,-141.9576 68,-72 77.3586,-57.2805 92.3151,-45.4425 106.5679,-36.6442"/>
<polygon fill="#000000" stroke="#000000" points="108.416,-39.6182 115.295,-31.5603 104.8924,-33.5697 108.416,-39.6182"/>
<g id="a_edge1&#45;headlabel"><a xlink:href="dir_000071_000006.html" target="_top" xlink:title="79">
<text text-anchor="middle" x="106.7392" y="-41.3809" font-family="Helvetica,sans-Serif" font-size="10.00" fill="#000000">79</text>
</a>
</g>
</g>
<!-- dir_d739e095b49d8b72164589d00310017d&#45;&gt;dir_a36da230f0956f48b11c85f7d599788f -->
<g id="edge2" class="edge">
<title>dir_d739e095b49d8b72164589d00310017d&#45;&gt;dir_a36da230f0956f48b11c85f7d599788f</title>
<path fill="none" stroke="#000000" d="M142.1877,-287.9843C142.6949,-239.2939 144.0959,-104.7961 144.7077,-46.0573"/>
<polygon fill="#000000" stroke="#000000" points="148.208,-46.0448 144.8124,-36.0089 141.2083,-45.9718 148.208,-46.0448"/>
<g id="a_edge2&#45;headlabel"><a xlink:href="dir_000035_000006.html" target="_top" xlink:title="110">
<text text-anchor="middle" x="151.0097" y="-47.1688" font-family="Helvetica,sans-Serif" font-size="10.00" fill="#000000">110</text>
</a>
</g>
</g>
<!-- dir_d739e095b49d8b72164589d00310017d&#45;&gt;dir_656f7d340c0f5b4ecaf881820f2aea38 -->
<g id="edge3" class="edge">
<title>dir_d739e095b49d8b72164589d00310017d&#45;&gt;dir_656f7d340c0f5b4ecaf881820f2aea38</title>
<path fill="none" stroke="#000000" d="M146.3936,-287.8314C150.2279,-279.7079 155.5743,-269.9637 161.0589,-261.0118"/>
<polygon fill="#000000" stroke="#000000" points="164.1158,-262.7274 166.5387,-252.4133 158.2127,-258.9653 164.1158,-262.7274"/>
<g id="a_edge3&#45;headlabel"><a xlink:href="dir_000035_000064.html" target="_top" xlink:title="1">
<text text-anchor="middle" x="164.5784" y="-264.7846" font-family="Helvetica,sans-Serif" font-size="10.00" fill="#000000">1</text>
</a>
</g>
</g>
<!-- dir_3f9cb8dbb3b4911cb2ecb548acd672c3&#45;&gt;dir_a36da230f0956f48b11c85f7d599788f -->
<g id="edge4" class="edge">
<title>dir_3f9cb8dbb3b4911cb2ecb548acd672c3&#45;&gt;dir_a36da230f0956f48b11c85f7d599788f</title>
<path fill="none" stroke="#000000" d="M293.2804,-143.9717C290.5032,-124.1052 283.3311,-92.2849 265,-72 243.8118,-48.5536 210.4849,-34.6789 184.3237,-26.8777"/>
<polygon fill="#000000" stroke="#000000" points="185.2618,-23.5058 174.6883,-24.1778 183.373,-30.2462 185.2618,-23.5058"/>
<g id="a_edge4&#45;headlabel"><a xlink:href="dir_000068_000006.html" target="_top" xlink:title="146">
<text text-anchor="middle" x="189.4891" y="-19.2416" font-family="Helvetica,sans-Serif" font-size="10.00" fill="#000000">146</text>
</a>
</g>
</g>
<!-- dir_3f9cb8dbb3b4911cb2ecb548acd672c3&#45;&gt;dir_7d55c3d5b8b0444a3d9934d2594c5211 -->
<g id="edge5" class="edge">
<title>dir_3f9cb8dbb3b4911cb2ecb548acd672c3&#45;&gt;dir_7d55c3d5b8b0444a3d9934d2594c5211</title>
<path fill="none" stroke="#000000" d="M278.3454,-143.8314C270.5886,-135.3694 261.2198,-125.1489 252.739,-115.8971"/>
<polygon fill="#000000" stroke="#000000" points="255.2162,-113.4198 245.8788,-108.4133 250.0561,-118.1499 255.2162,-113.4198"/>
<g id="a_edge5&#45;headlabel"><a xlink:href="dir_000068_000061.html" target="_top" xlink:title="14">
<text text-anchor="middle" x="259.7381" y="-111.651" font-family="Helvetica,sans-Serif" font-size="10.00" fill="#000000">14</text>
</a>
</g>
</g>
<!-- dir_656f7d340c0f5b4ecaf881820f2aea38&#45;&gt;dir_a36da230f0956f48b11c85f7d599788f -->
<g id="edge6" class="edge">
<title>dir_656f7d340c0f5b4ecaf881820f2aea38&#45;&gt;dir_a36da230f0956f48b11c85f7d599788f</title>
<path fill="none" stroke="#000000" d="M179.8255,-215.9555C173.2035,-178.3144 157.8754,-91.1867 149.9478,-46.1246"/>
<polygon fill="#000000" stroke="#000000" points="153.372,-45.3874 148.1922,-36.1451 146.4779,-46.6003 153.372,-45.3874"/>
<g id="a_edge6&#45;headlabel"><a xlink:href="dir_000064_000006.html" target="_top" xlink:title="34">
<text text-anchor="middle" x="156.7911" y="-45.9357" font-family="Helvetica,sans-Serif" font-size="10.00" fill="#000000">34</text>
</a>
</g>
</g>
<!-- dir_656f7d340c0f5b4ecaf881820f2aea38&#45;&gt;dir_d739e095b49d8b72164589d00310017d -->
<g id="edge7" class="edge">
<title>dir_656f7d340c0f5b4ecaf881820f2aea38&#45;&gt;dir_d739e095b49d8b72164589d00310017d</title>
<path fill="none" stroke="#000000" d="M178.4907,-252.4133C174.6263,-260.569 169.2635,-270.3212 163.7763,-279.257"/>
<polygon fill="#000000" stroke="#000000" points="160.7327,-277.52 158.2984,-287.8314 166.6317,-281.2886 160.7327,-277.52"/>
<g id="a_edge7&#45;headlabel"><a xlink:href="dir_000064_000035.html" target="_top" xlink:title="8">
<text text-anchor="middle" x="160.2753" y="-270.4622" font-family="Helvetica,sans-Serif" font-size="10.00" fill="#000000">8</text>
</a>
</g>
</g>
<!-- dir_656f7d340c0f5b4ecaf881820f2aea38&#45;&gt;dir_3f9cb8dbb3b4911cb2ecb548acd672c3 -->
<g id="edge8" class="edge">
<title>dir_656f7d340c0f5b4ecaf881820f2aea38&#45;&gt;dir_3f9cb8dbb3b4911cb2ecb548acd672c3</title>
<path fill="none" stroke="#000000" d="M210.1121,-216.5708C224.8606,-207.0896 243.2904,-195.2419 259.2056,-185.0107"/>
<polygon fill="#000000" stroke="#000000" points="261.2303,-187.87 267.7494,-179.5182 257.4449,-181.9817 261.2303,-187.87"/>
<g id="a_edge8&#45;headlabel"><a xlink:href="dir_000064_000068.html" target="_top" xlink:title="8">
<text text-anchor="middle" x="259.7419" y="-189.7021" font-family="Helvetica,sans-Serif" font-size="10.00" fill="#000000">8</text>
</a>
</g>
</g>
<!-- dir_656f7d340c0f5b4ecaf881820f2aea38&#45;&gt;dir_7d55c3d5b8b0444a3d9934d2594c5211 -->
<g id="edge9" class="edge">
<title>dir_656f7d340c0f5b4ecaf881820f2aea38&#45;&gt;dir_7d55c3d5b8b0444a3d9934d2594c5211</title>
<path fill="none" stroke="#000000" d="M188.8259,-215.7623C196.7065,-191.0928 210.8365,-146.8598 220.0642,-117.9731"/>
<polygon fill="#000000" stroke="#000000" points="223.5124,-118.6805 223.2214,-108.0896 216.8443,-116.5503 223.5124,-118.6805"/>
<g id="a_edge9&#45;headlabel"><a xlink:href="dir_000064_000061.html" target="_top" xlink:title="4">
<text text-anchor="middle" x="225.1232" y="-120.4686" font-family="Helvetica,sans-Serif" font-size="10.00" fill="#000000">4</text>
</a>
</g>
</g>
<!-- dir_7d55c3d5b8b0444a3d9934d2594c5211&#45;&gt;dir_a36da230f0956f48b11c85f7d599788f -->
<g id="edge16" class="edge">
<title>dir_7d55c3d5b8b0444a3d9934d2594c5211&#45;&gt;dir_a36da230f0956f48b11c85f7d599788f</title>
<path fill="none" stroke="#000000" d="M207.8033,-71.8314C197.5566,-63.0485 185.0997,-52.3712 173.9903,-42.8489"/>
<polygon fill="#000000" stroke="#000000" points="176.0603,-40.0134 166.19,-36.1628 171.5048,-45.3282 176.0603,-40.0134"/>
<g id="a_edge16&#45;headlabel"><a xlink:href="dir_000061_000006.html" target="_top" xlink:title="16">
<text text-anchor="middle" x="180.6373" y="-37.697" font-family="Helvetica,sans-Serif" font-size="10.00" fill="#000000">16</text>
</a>
</g>
</g>
</g>
</svg>
