<?xml version="1.0" encoding="UTF-8" standalone="no"?>
<!DOCTYPE svg PUBLIC "-//W3C//DTD SVG 1.1//EN"
 "http://www.w3.org/Graphics/SVG/1.1/DTD/svg11.dtd">
<!-- Generated by graphviz version 2.40.1 (20161225.0304)
 -->
<!-- Title: drake/multibody/benchmarks Pages: 1 -->
<!--zoomable 538 -->
<svg id="main" version="1.1" xmlns="http://www.w3.org/2000/svg" xmlns:xlink="http://www.w3.org/1999/xlink" xml:space="preserve" onload="init(evt)">
<style type="text/css"><![CDATA[
.edge:hover path { stroke: red; }
.edge:hover polygon { stroke: red; fill: red; }
]]></style>
<script type="text/javascript"><![CDATA[
var edges = document.getElementsByTagName('g');
if (edges && edges.length) {
  for (var i=0;i<edges.length;i++) {
    if (edges[i].id.substr(0,4)=='edge') {
      edges[i].setAttribute('class','edge');
    }
  }
}
]]></script>
        <defs>
                <circle id="rim" cx="0" cy="0" r="7"/>
                <circle id="rim2" cx="0" cy="0" r="3.5"/>
                <g id="zoomPlus">
                        <use xlink:href="#rim" fill="#404040">
                                <set attributeName="fill" to="#808080" begin="zoomplus.mouseover" end="zoomplus.mouseout"/>
                        </use>
                        <path d="M-4,0h8M0,-4v8" fill="none" stroke="white" stroke-width="1.5" pointer-events="none"/>
                </g>
                <g id="zoomMin">
                        <use xlink:href="#rim" fill="#404040">
                                <set attributeName="fill" to="#808080" begin="zoomminus.mouseover" end="zoomminus.mouseout"/>
                        </use>
                        <path d="M-4,0h8" fill="none" stroke="white" stroke-width="1.5" pointer-events="none"/>
                </g>
                <g id="dirArrow">
                        <path fill="none" stroke="white" stroke-width="1.5" d="M0,-3.0v7 M-2.5,-0.5L0,-3.0L2.5,-0.5"/>
                </g>
               <g id="resetDef">
                       <use xlink:href="#rim2" fill="#404040">
                               <set attributeName="fill" to="#808080" begin="reset.mouseover" end="reset.mouseout"/>
                       </use>
               </g>
        </defs>

<script type="text/javascript">
var viewWidth = 960;
var viewHeight = 538;
var sectionId = 'dynsection-0';
</script>
<script xlink:href="svgpan.js"/>
<svg id="graph" class="graph">
<g id="viewport">
<title>drake/multibody/benchmarks</title>
<polygon fill="#ffffff" stroke="transparent" points="-4,4 -4,-533.9886 956,-533.9886 956,4 -4,4"/>
<g id="clust1" class="cluster">
<title>clusterdir_39b8b3c6654246a9c12332c930bc7d3f</title>
<g id="a_clust1"><a xlink:href="dir_39b8b3c6654246a9c12332c930bc7d3f.html" target="_top" xlink:title="multibody">
<polygon fill="#ddddee" stroke="#000000" points="8,-416 8,-503 716,-503 716,-416 8,-416"/>
<text text-anchor="middle" x="362" y="-491" font-family="Helvetica,sans-Serif" font-size="10.00" fill="#000000">multibody</text>
</a>
</g>
</g>
<g id="clust2" class="cluster">
<title>clusterdir_5d8dbe7a82c2c188fa06f6391bb290bd</title>
<g id="a_clust2"><a xlink:href="dir_5d8dbe7a82c2c188fa06f6391bb290bd.html" target="_top">
<polygon fill="#eeeeff" stroke="#000000" points="16,-424 16,-476 708,-476 708,-424 16,-424"/>
</a>
</g>
</g>
<!-- dir_5d8dbe7a82c2c188fa06f6391bb290bd -->
<g id="node1" class="node">
<title>dir_5d8dbe7a82c2c188fa06f6391bb290bd</title>
<text text-anchor="middle" x="661" y="-447.5" font-family="Helvetica,sans-Serif" font-size="10.00" fill="#000000">benchmarks</text>
</g>
<!-- dir_1b53483452bb55d26e3cb66e1b6a096d -->
<g id="node2" class="node">
<title>dir_1b53483452bb55d26e3cb66e1b6a096d</title>
<g id="a_node2"><a xlink:href="dir_1b53483452bb55d26e3cb66e1b6a096d.html" target="_top" xlink:title="acrobot">
<polygon fill="#ffffff" stroke="#000000" points="489,-468 435,-468 435,-432 489,-432 489,-468"/>
<text text-anchor="middle" x="462" y="-447.5" font-family="Helvetica,sans-Serif" font-size="10.00" fill="#000000">acrobot</text>
</a>
</g>
</g>
<!-- dir_fc0178d6978c9fa2cad6ef3e048a60a7 -->
<g id="node9" class="node">
<title>dir_fc0178d6978c9fa2cad6ef3e048a60a7</title>
<g id="a_node9"><a xlink:href="dir_fc0178d6978c9fa2cad6ef3e048a60a7.html" target="_top" xlink:title="math">
<polygon fill="none" stroke="#000000" points="559,-108 505,-108 505,-72 559,-72 559,-108"/>
<text text-anchor="middle" x="532" y="-87.5" font-family="Helvetica,sans-Serif" font-size="10.00" fill="#000000">math</text>
</a>
</g>
</g>
<!-- dir_1b53483452bb55d26e3cb66e1b6a096d&#45;&gt;dir_fc0178d6978c9fa2cad6ef3e048a60a7 -->
<g id="edge28" class="edge">
<title>dir_1b53483452bb55d26e3cb66e1b6a096d&#45;&gt;dir_fc0178d6978c9fa2cad6ef3e048a60a7</title>
<path fill="none" stroke="#000000" d="M446.1569,-431.7088C413.9268,-392.1738 346.2786,-295.8757 377,-216 397.6004,-162.439 456.3315,-125.4751 495.2913,-106.0309"/>
<polygon fill="#000000" stroke="#000000" points="497.2552,-108.969 504.735,-101.4655 494.2085,-102.6668 497.2552,-108.969"/>
<g id="a_edge28&#45;headlabel"><a xlink:href="dir_000050_000007.html" target="_top" xlink:title="1">
<text text-anchor="middle" x="495.2547" y="-110.5897" font-family="Helvetica,sans-Serif" font-size="10.00" fill="#000000">1</text>
</a>
</g>
</g>
<!-- dir_a36da230f0956f48b11c85f7d599788f -->
<g id="node10" class="node">
<title>dir_a36da230f0956f48b11c85f7d599788f</title>
<g id="a_node10"><a xlink:href="dir_a36da230f0956f48b11c85f7d599788f.html" target="_top" xlink:title="common">
<polygon fill="#ffffff" stroke="#ff0000" points="533.5,-36 474.5,-36 474.5,0 533.5,0 533.5,-36"/>
<text text-anchor="middle" x="504" y="-15.5" font-family="Helvetica,sans-Serif" font-size="10.00" fill="#000000">common</text>
</a>
</g>
</g>
<!-- dir_1b53483452bb55d26e3cb66e1b6a096d&#45;&gt;dir_a36da230f0956f48b11c85f7d599788f -->
<g id="edge29" class="edge">
<title>dir_1b53483452bb55d26e3cb66e1b6a096d&#45;&gt;dir_a36da230f0956f48b11c85f7d599788f</title>
<path fill="none" stroke="#000000" d="M443.2937,-431.768C437.5821,-426.4901 431.1756,-420.8484 425,-416 412.3957,-406.1044 404.884,-408.6134 395,-396 345.02,-332.2182 343.8562,-293.9473 366,-216 386.0662,-145.3662 443.3285,-78.6519 477.458,-43.5911"/>
<polygon fill="#000000" stroke="#000000" points="480.2339,-45.7618 484.7787,-36.1912 475.2575,-40.8387 480.2339,-45.7618"/>
<g id="a_edge29&#45;headlabel"><a xlink:href="dir_000050_000006.html" target="_top" xlink:title="2">
<text text-anchor="middle" x="479.7243" y="-47.814" font-family="Helvetica,sans-Serif" font-size="10.00" fill="#000000">2</text>
</a>
</g>
</g>
<!-- dir_d739e095b49d8b72164589d00310017d -->
<g id="node11" class="node">
<title>dir_d739e095b49d8b72164589d00310017d</title>
<g id="a_node11"><a xlink:href="dir_d739e095b49d8b72164589d00310017d.html" target="_top" xlink:title="geometry">
<polygon fill="#ffffff" stroke="#ff0000" points="450,-252 386,-252 386,-216 450,-216 450,-252"/>
<text text-anchor="middle" x="418" y="-231.5" font-family="Helvetica,sans-Serif" font-size="10.00" fill="#000000">geometry</text>
</a>
</g>
</g>
<!-- dir_1b53483452bb55d26e3cb66e1b6a096d&#45;&gt;dir_d739e095b49d8b72164589d00310017d -->
<g id="edge30" class="edge">
<title>dir_1b53483452bb55d26e3cb66e1b6a096d&#45;&gt;dir_d739e095b49d8b72164589d00310017d</title>
<path fill="none" stroke="#000000" d="M458.3243,-431.9555C450.6566,-394.3144 432.9084,-307.1867 423.7291,-262.1246"/>
<polygon fill="#000000" stroke="#000000" points="427.1219,-261.2452 421.6962,-252.1451 420.2628,-262.6425 427.1219,-261.2452"/>
<g id="a_edge30&#45;headlabel"><a xlink:href="dir_000050_000033.html" target="_top" xlink:title="1">
<text text-anchor="middle" x="430.6215" y="-261.7008" font-family="Helvetica,sans-Serif" font-size="10.00" fill="#000000">1</text>
</a>
</g>
</g>
<!-- dir_3f9cb8dbb3b4911cb2ecb548acd672c3 -->
<g id="node12" class="node">
<title>dir_3f9cb8dbb3b4911cb2ecb548acd672c3</title>
<g id="a_node12"><a xlink:href="dir_3f9cb8dbb3b4911cb2ecb548acd672c3.html" target="_top" xlink:title="tree">
<polygon fill="none" stroke="#000000" points="638,-396 584,-396 584,-360 638,-360 638,-396"/>
<text text-anchor="middle" x="611" y="-375.5" font-family="Helvetica,sans-Serif" font-size="10.00" fill="#000000">tree</text>
</a>
</g>
</g>
<!-- dir_1b53483452bb55d26e3cb66e1b6a096d&#45;&gt;dir_3f9cb8dbb3b4911cb2ecb548acd672c3 -->
<g id="edge31" class="edge">
<title>dir_1b53483452bb55d26e3cb66e1b6a096d&#45;&gt;dir_3f9cb8dbb3b4911cb2ecb548acd672c3</title>
<path fill="none" stroke="#000000" d="M478.3172,-431.7354C484.0925,-426.0906 490.924,-420.2475 498,-416 521.4967,-401.8956 550.9163,-392.2158 573.8464,-386.1568"/>
<polygon fill="#000000" stroke="#000000" points="574.722,-389.5456 583.5596,-383.7021 573.0068,-382.759 574.722,-389.5456"/>
<g id="a_edge31&#45;headlabel"><a xlink:href="dir_000050_000065.html" target="_top" xlink:title="1">
<text text-anchor="middle" x="571.9325" y="-390.679" font-family="Helvetica,sans-Serif" font-size="10.00" fill="#000000">1</text>
</a>
</g>
</g>
<!-- dir_656f7d340c0f5b4ecaf881820f2aea38 -->
<g id="node13" class="node">
<title>dir_656f7d340c0f5b4ecaf881820f2aea38</title>
<g id="a_node13"><a xlink:href="dir_656f7d340c0f5b4ecaf881820f2aea38.html" target="_top" xlink:title="plant">
<polygon fill="none" stroke="#000000" points="532,-180 478,-180 478,-144 532,-144 532,-180"/>
<text text-anchor="middle" x="505" y="-159.5" font-family="Helvetica,sans-Serif" font-size="10.00" fill="#000000">plant</text>
</a>
</g>
</g>
<!-- dir_1b53483452bb55d26e3cb66e1b6a096d&#45;&gt;dir_656f7d340c0f5b4ecaf881820f2aea38 -->
<g id="edge32" class="edge">
<title>dir_1b53483452bb55d26e3cb66e1b6a096d&#45;&gt;dir_656f7d340c0f5b4ecaf881820f2aea38</title>
<path fill="none" stroke="#000000" d="M464.6898,-431.9843C471.9596,-383.2939 492.0409,-248.7961 500.8109,-190.0573"/>
<polygon fill="#000000" stroke="#000000" points="504.296,-190.4161 502.3112,-180.0089 497.3728,-189.3824 504.296,-190.4161"/>
<g id="a_edge32&#45;headlabel"><a xlink:href="dir_000050_000062.html" target="_top" xlink:title="1">
<text text-anchor="middle" x="506.5735" y="-191.8906" font-family="Helvetica,sans-Serif" font-size="10.00" fill="#000000">1</text>
</a>
</g>
</g>
<!-- dir_0767593f2fce2cf954de79364fec17e6 -->
<g id="node3" class="node">
<title>dir_0767593f2fce2cf954de79364fec17e6</title>
<g id="a_node3"><a xlink:href="dir_0767593f2fce2cf954de79364fec17e6.html" target="_top" xlink:title="free_body">
<polygon fill="#ffffff" stroke="#000000" points="228.5,-468 163.5,-468 163.5,-432 228.5,-432 228.5,-468"/>
<text text-anchor="middle" x="196" y="-447.5" font-family="Helvetica,sans-Serif" font-size="10.00" fill="#000000">free_body</text>
</a>
</g>
</g>
<!-- dir_0767593f2fce2cf954de79364fec17e6&#45;&gt;dir_fc0178d6978c9fa2cad6ef3e048a60a7 -->
<g id="edge13" class="edge">
<title>dir_0767593f2fce2cf954de79364fec17e6&#45;&gt;dir_fc0178d6978c9fa2cad6ef3e048a60a7</title>
<path fill="none" stroke="#000000" d="M202.1193,-431.9644C221.268,-378.4464 285.4515,-219.5753 396,-144 426.6726,-123.031 466.688,-108.3962 495.3594,-99.7023"/>
<polygon fill="#000000" stroke="#000000" points="496.3845,-103.0491 504.9939,-96.8742 494.4129,-96.3325 496.3845,-103.0491"/>
<g id="a_edge13&#45;headlabel"><a xlink:href="dir_000051_000007.html" target="_top" xlink:title="2">
<text text-anchor="middle" x="493.7351" y="-104.2858" font-family="Helvetica,sans-Serif" font-size="10.00" fill="#000000">2</text>
</a>
</g>
</g>
<!-- dir_0767593f2fce2cf954de79364fec17e6&#45;&gt;dir_a36da230f0956f48b11c85f7d599788f -->
<g id="edge14" class="edge">
<title>dir_0767593f2fce2cf954de79364fec17e6&#45;&gt;dir_a36da230f0956f48b11c85f7d599788f</title>
<path fill="none" stroke="#000000" d="M181.3525,-431.6749C161.9083,-405.4479 130,-354.9514 130,-306 130,-306 130,-306 130,-162 130,-107.5869 165.37,-98.3093 213,-72 255.6747,-48.4279 394.9729,-30.1312 464.2038,-22.2407"/>
<polygon fill="#000000" stroke="#000000" points="464.7421,-25.7024 474.2892,-21.1085 463.9611,-18.7461 464.7421,-25.7024"/>
<g id="a_edge14&#45;headlabel"><a xlink:href="dir_000051_000006.html" target="_top" xlink:title="2">
<text text-anchor="middle" x="461.4867" y="-26.4249" font-family="Helvetica,sans-Serif" font-size="10.00" fill="#000000">2</text>
</a>
</g>
</g>
<!-- dir_b54e51ce690a91bb5edb8aefc17ffc16 -->
<g id="node4" class="node">
<title>dir_b54e51ce690a91bb5edb8aefc17ffc16</title>
<g id="a_node4"><a xlink:href="dir_b54e51ce690a91bb5edb8aefc17ffc16.html" target="_top" xlink:title="inclined_plane">
<polygon fill="#ffffff" stroke="#000000" points="333.5,-468 246.5,-468 246.5,-432 333.5,-432 333.5,-468"/>
<text text-anchor="middle" x="290" y="-447.5" font-family="Helvetica,sans-Serif" font-size="10.00" fill="#000000">inclined_plane</text>
</a>
</g>
</g>
<!-- dir_b54e51ce690a91bb5edb8aefc17ffc16&#45;&gt;dir_656f7d340c0f5b4ecaf881820f2aea38 -->
<g id="edge6" class="edge">
<title>dir_b54e51ce690a91bb5edb8aefc17ffc16&#45;&gt;dir_656f7d340c0f5b4ecaf881820f2aea38</title>
<path fill="none" stroke="#000000" d="M290.0107,-431.819C291.0242,-388.5956 299.5559,-278.6373 358,-216 386.7036,-185.237 434.4213,-171.9338 467.6762,-166.2229"/>
<polygon fill="#000000" stroke="#000000" points="468.5823,-169.6239 477.9226,-164.623 467.5023,-162.7077 468.5823,-169.6239"/>
<g id="a_edge6&#45;headlabel"><a xlink:href="dir_000052_000062.html" target="_top" xlink:title="1">
<text text-anchor="middle" x="465.4687" y="-170.4837" font-family="Helvetica,sans-Serif" font-size="10.00" fill="#000000">1</text>
</a>
</g>
</g>
<!-- dir_fa973aef359a666fa59c209acc8a7d72 -->
<g id="node5" class="node">
<title>dir_fa973aef359a666fa59c209acc8a7d72</title>
<g id="a_node5"><a xlink:href="dir_fa973aef359a666fa59c209acc8a7d72.html" target="_top" xlink:title="kuka_iiwa_robot">
<polygon fill="#ffffff" stroke="#000000" points="604.5,-468 507.5,-468 507.5,-432 604.5,-432 604.5,-468"/>
<text text-anchor="middle" x="556" y="-447.5" font-family="Helvetica,sans-Serif" font-size="10.00" fill="#000000">kuka_iiwa_robot</text>
</a>
</g>
</g>
<!-- dir_4d6afa0018d27b03aafc768625d5f8d5 -->
<g id="node8" class="node">
<title>dir_4d6afa0018d27b03aafc768625d5f8d5</title>
<g id="a_node8"><a xlink:href="dir_4d6afa0018d27b03aafc768625d5f8d5.html" target="_top" xlink:title="test_utilities">
<polygon fill="none" stroke="#000000" points="876.5,-468 799.5,-468 799.5,-432 876.5,-432 876.5,-468"/>
<text text-anchor="middle" x="838" y="-447.5" font-family="Helvetica,sans-Serif" font-size="10.00" fill="#000000">test_utilities</text>
</a>
</g>
</g>
<!-- dir_fa973aef359a666fa59c209acc8a7d72&#45;&gt;dir_4d6afa0018d27b03aafc768625d5f8d5 -->
<g id="edge38" class="edge">
<title>dir_fa973aef359a666fa59c209acc8a7d72&#45;&gt;dir_4d6afa0018d27b03aafc768625d5f8d5</title>
<path fill="none" stroke="#000000" d="M566.6803,-468.2516C577.95,-485.5106 597.4688,-510.3106 622,-521 655.0029,-535.3809 668.0498,-529.6302 703,-521 739.9568,-511.8743 777.976,-490.6103 804.2117,-473.7173"/>
<polygon fill="#000000" stroke="#000000" points="806.2037,-476.5964 812.6388,-468.1797 802.3595,-470.7464 806.2037,-476.5964"/>
<g id="a_edge38&#45;headlabel"><a xlink:href="dir_000053_000063.html" target="_top" xlink:title="1">
<text text-anchor="middle" x="804.7588" y="-478.4432" font-family="Helvetica,sans-Serif" font-size="10.00" fill="#000000">1</text>
</a>
</g>
</g>
<!-- dir_fa973aef359a666fa59c209acc8a7d72&#45;&gt;dir_fc0178d6978c9fa2cad6ef3e048a60a7 -->
<g id="edge39" class="edge">
<title>dir_fa973aef359a666fa59c209acc8a7d72&#45;&gt;dir_fc0178d6978c9fa2cad6ef3e048a60a7</title>
<path fill="none" stroke="#000000" d="M586.0937,-431.8664C594.754,-426.6977 604.23,-421.0896 613,-416 692.6675,-369.7655 813.0778,-372.3195 776,-288 735.333,-195.5182 625.8159,-133.2241 568.3425,-105.8387"/>
<polygon fill="#000000" stroke="#000000" points="569.7901,-102.6519 559.2485,-101.5904 566.8273,-108.994 569.7901,-102.6519"/>
<g id="a_edge39&#45;headlabel"><a xlink:href="dir_000053_000007.html" target="_top" xlink:title="1">
<text text-anchor="middle" x="574.2485" y="-99.1008" font-family="Helvetica,sans-Serif" font-size="10.00" fill="#000000">1</text>
</a>
</g>
</g>
<!-- dir_fa973aef359a666fa59c209acc8a7d72&#45;&gt;dir_a36da230f0956f48b11c85f7d599788f -->
<g id="edge40" class="edge">
<title>dir_fa973aef359a666fa59c209acc8a7d72&#45;&gt;dir_a36da230f0956f48b11c85f7d599788f</title>
<path fill="none" stroke="#000000" d="M581.9913,-431.9029C591.4,-426.0649 602.3397,-420.0603 613,-416 656.9867,-399.2465 675.1242,-417.4923 717,-396 806.7539,-349.9347 876,-334.885 876,-234 876,-234 876,-234 876,-162 876,-91.2559 639.0679,-41.7135 543.3801,-24.5899"/>
<polygon fill="#000000" stroke="#000000" points="543.9571,-21.1377 533.5012,-22.8477 542.7413,-28.0313 543.9571,-21.1377"/>
<g id="a_edge40&#45;headlabel"><a xlink:href="dir_000053_000006.html" target="_top" xlink:title="2">
<text text-anchor="middle" x="547.9901" y="-16.4658" font-family="Helvetica,sans-Serif" font-size="10.00" fill="#000000">2</text>
</a>
</g>
</g>
<!-- dir_fa973aef359a666fa59c209acc8a7d72&#45;&gt;dir_3f9cb8dbb3b4911cb2ecb548acd672c3 -->
<g id="edge41" class="edge">
<title>dir_fa973aef359a666fa59c209acc8a7d72&#45;&gt;dir_3f9cb8dbb3b4911cb2ecb548acd672c3</title>
<path fill="none" stroke="#000000" d="M569.8788,-431.8314C576.2136,-423.5386 583.8384,-413.557 590.7926,-404.4533"/>
<polygon fill="#000000" stroke="#000000" points="593.6452,-406.4847 596.9343,-396.4133 588.0825,-402.2353 593.6452,-406.4847"/>
<g id="a_edge41&#45;headlabel"><a xlink:href="dir_000053_000065.html" target="_top" xlink:title="8">
<text text-anchor="middle" x="593.7195" y="-408.5647" font-family="Helvetica,sans-Serif" font-size="10.00" fill="#000000">8</text>
</a>
</g>
</g>
<!-- dir_fa973aef359a666fa59c209acc8a7d72&#45;&gt;dir_656f7d340c0f5b4ecaf881820f2aea38 -->
<g id="edge42" class="edge">
<title>dir_fa973aef359a666fa59c209acc8a7d72&#45;&gt;dir_656f7d340c0f5b4ecaf881820f2aea38</title>
<path fill="none" stroke="#000000" d="M552.8097,-431.9843C544.1875,-383.2939 520.3702,-248.7961 509.9685,-190.0573"/>
<polygon fill="#000000" stroke="#000000" points="513.3792,-189.2454 508.1891,-180.0089 506.4865,-190.466 513.3792,-189.2454"/>
<g id="a_edge42&#45;headlabel"><a xlink:href="dir_000053_000062.html" target="_top" xlink:title="1">
<text text-anchor="middle" x="516.8017" y="-189.7898" font-family="Helvetica,sans-Serif" font-size="10.00" fill="#000000">1</text>
</a>
</g>
</g>
<!-- dir_b7a0e33b407baa23d8a077e33033c988 -->
<g id="node14" class="node">
<title>dir_b7a0e33b407baa23d8a077e33033c988</title>
<g id="a_node14"><a xlink:href="dir_b7a0e33b407baa23d8a077e33033c988.html" target="_top" xlink:title="systems">
<polygon fill="#ffffff" stroke="#ff0000" points="640,-324 582,-324 582,-288 640,-288 640,-324"/>
<text text-anchor="middle" x="611" y="-303.5" font-family="Helvetica,sans-Serif" font-size="10.00" fill="#000000">systems</text>
</a>
</g>
</g>
<!-- dir_fa973aef359a666fa59c209acc8a7d72&#45;&gt;dir_b7a0e33b407baa23d8a077e33033c988 -->
<g id="edge43" class="edge">
<title>dir_fa973aef359a666fa59c209acc8a7d72&#45;&gt;dir_b7a0e33b407baa23d8a077e33033c988</title>
<path fill="none" stroke="#000000" d="M557.7905,-431.8083C560.0888,-413.1875 565.0345,-383.7008 575,-360 578.9544,-350.5953 584.6152,-341.0879 590.2805,-332.727"/>
<polygon fill="#000000" stroke="#000000" points="593.1959,-334.6664 596.1147,-324.4815 587.4816,-330.6231 593.1959,-334.6664"/>
<g id="a_edge43&#45;headlabel"><a xlink:href="dir_000053_000072.html" target="_top" xlink:title="1">
<text text-anchor="middle" x="593.4374" y="-336.7406" font-family="Helvetica,sans-Serif" font-size="10.00" fill="#000000">1</text>
</a>
</g>
</g>
<!-- dir_7c13d4ecf9df251d512b4733b7b28f01 -->
<g id="node6" class="node">
<title>dir_7c13d4ecf9df251d512b4733b7b28f01</title>
<g id="a_node6"><a xlink:href="dir_7c13d4ecf9df251d512b4733b7b28f01.html" target="_top" xlink:title="mass_damper_spring">
<polygon fill="#ffffff" stroke="#000000" points="145.5,-468 24.5,-468 24.5,-432 145.5,-432 145.5,-468"/>
<text text-anchor="middle" x="85" y="-447.5" font-family="Helvetica,sans-Serif" font-size="10.00" fill="#000000">mass_damper_spring</text>
</a>
</g>
</g>
<!-- dir_7c13d4ecf9df251d512b4733b7b28f01&#45;&gt;dir_a36da230f0956f48b11c85f7d599788f -->
<g id="edge27" class="edge">
<title>dir_7c13d4ecf9df251d512b4733b7b28f01&#45;&gt;dir_a36da230f0956f48b11c85f7d599788f</title>
<path fill="none" stroke="#000000" d="M85.6216,-431.8172C86.5003,-404.504 88,-351.2598 88,-306 88,-306 88,-306 88,-162 88,-113.926 107.4402,-97.8072 148,-72 199.8634,-39.0007 382.1491,-24.8337 463.8559,-20.0395"/>
<polygon fill="#000000" stroke="#000000" points="464.4469,-23.5117 474.2321,-19.4496 464.0496,-16.523 464.4469,-23.5117"/>
<g id="a_edge27&#45;headlabel"><a xlink:href="dir_000054_000006.html" target="_top" xlink:title="2">
<text text-anchor="middle" x="461.0193" y="-24.0503" font-family="Helvetica,sans-Serif" font-size="10.00" fill="#000000">2</text>
</a>
</g>
</g>
<!-- dir_0e1ecb96e57b1c1f48b2887ea5038a05 -->
<g id="node7" class="node">
<title>dir_0e1ecb96e57b1c1f48b2887ea5038a05</title>
<g id="a_node7"><a xlink:href="dir_0e1ecb96e57b1c1f48b2887ea5038a05.html" target="_top" xlink:title="pendulum">
<polygon fill="#ffffff" stroke="#000000" points="416.5,-468 351.5,-468 351.5,-432 416.5,-432 416.5,-468"/>
<text text-anchor="middle" x="384" y="-447.5" font-family="Helvetica,sans-Serif" font-size="10.00" fill="#000000">pendulum</text>
</a>
</g>
</g>
<!-- dir_0e1ecb96e57b1c1f48b2887ea5038a05&#45;&gt;dir_a36da230f0956f48b11c85f7d599788f -->
<g id="edge7" class="edge">
<title>dir_0e1ecb96e57b1c1f48b2887ea5038a05&#45;&gt;dir_a36da230f0956f48b11c85f7d599788f</title>
<path fill="none" stroke="#000000" d="M362.5781,-431.8589C356.0893,-426.5836 348.8613,-420.9205 342,-416 267.6513,-362.6818 168,-397.4908 168,-306 168,-306 168,-306 168,-162 168,-98.1289 375.7126,-45.6757 464.5089,-26.1703"/>
<polygon fill="#000000" stroke="#000000" points="465.4451,-29.5487 474.4767,-24.0097 463.9622,-22.7076 465.4451,-29.5487"/>
<g id="a_edge7&#45;headlabel"><a xlink:href="dir_000055_000006.html" target="_top" xlink:title="1">
<text text-anchor="middle" x="462.5335" y="-30.585" font-family="Helvetica,sans-Serif" font-size="10.00" fill="#000000">1</text>
</a>
</g>
</g>
<!-- dir_0e1ecb96e57b1c1f48b2887ea5038a05&#45;&gt;dir_d739e095b49d8b72164589d00310017d -->
<g id="edge8" class="edge">
<title>dir_0e1ecb96e57b1c1f48b2887ea5038a05&#45;&gt;dir_d739e095b49d8b72164589d00310017d</title>
<path fill="none" stroke="#000000" d="M386.8403,-431.9555C392.7653,-394.3144 406.4799,-307.1867 413.573,-262.1246"/>
<polygon fill="#000000" stroke="#000000" points="417.0462,-262.5677 415.1438,-252.1451 410.1314,-261.4792 417.0462,-262.5677"/>
<g id="a_edge8&#45;headlabel"><a xlink:href="dir_000055_000033.html" target="_top" xlink:title="1">
<text text-anchor="middle" x="419.2921" y="-264.06" font-family="Helvetica,sans-Serif" font-size="10.00" fill="#000000">1</text>
</a>
</g>
</g>
<!-- dir_0e1ecb96e57b1c1f48b2887ea5038a05&#45;&gt;dir_3f9cb8dbb3b4911cb2ecb548acd672c3 -->
<g id="edge9" class="edge">
<title>dir_0e1ecb96e57b1c1f48b2887ea5038a05&#45;&gt;dir_3f9cb8dbb3b4911cb2ecb548acd672c3</title>
<path fill="none" stroke="#000000" d="M402.3321,-431.9771C409.2543,-426.0741 417.5184,-420.0091 426,-416 473.8249,-393.3941 534.8449,-384.1889 573.4348,-380.4721"/>
<polygon fill="#000000" stroke="#000000" points="574.0428,-383.932 583.6948,-379.5628 573.4248,-376.9594 574.0428,-383.932"/>
<g id="a_edge9&#45;headlabel"><a xlink:href="dir_000055_000065.html" target="_top" xlink:title="1">
<text text-anchor="middle" x="570.7129" y="-384.5775" font-family="Helvetica,sans-Serif" font-size="10.00" fill="#000000">1</text>
</a>
</g>
</g>
<!-- dir_0e1ecb96e57b1c1f48b2887ea5038a05&#45;&gt;dir_656f7d340c0f5b4ecaf881820f2aea38 -->
<g id="edge10" class="edge">
<title>dir_0e1ecb96e57b1c1f48b2887ea5038a05&#45;&gt;dir_656f7d340c0f5b4ecaf881820f2aea38</title>
<path fill="none" stroke="#000000" d="M377.0272,-431.9779C362.0588,-390.0288 331.7233,-284.242 377,-216 397.0389,-185.797 437.6609,-172.4455 467.7944,-166.5689"/>
<polygon fill="#000000" stroke="#000000" points="468.7189,-169.9603 477.9646,-164.7866 467.5105,-163.0654 468.7189,-169.9603"/>
<g id="a_edge10&#45;headlabel"><a xlink:href="dir_000055_000062.html" target="_top" xlink:title="1">
<text text-anchor="middle" x="465.6683" y="-170.8774" font-family="Helvetica,sans-Serif" font-size="10.00" fill="#000000">1</text>
</a>
</g>
</g>
<!-- dir_4d6afa0018d27b03aafc768625d5f8d5&#45;&gt;dir_fc0178d6978c9fa2cad6ef3e048a60a7 -->
<g id="edge1" class="edge">
<title>dir_4d6afa0018d27b03aafc768625d5f8d5&#45;&gt;dir_fc0178d6978c9fa2cad6ef3e048a60a7</title>
<path fill="none" stroke="#000000" d="M855.2456,-431.6186C877.6688,-405.719 914,-356.0348 914,-306 914,-306 914,-306 914,-234 914,-160.8185 665.4238,-112.0001 569.3114,-95.8596"/>
<polygon fill="#000000" stroke="#000000" points="569.6032,-92.3604 559.1663,-94.1826 568.4615,-99.2667 569.6032,-92.3604"/>
<g id="a_edge1&#45;headlabel"><a xlink:href="dir_000063_000007.html" target="_top" xlink:title="4">
<text text-anchor="middle" x="573.6127" y="-87.6453" font-family="Helvetica,sans-Serif" font-size="10.00" fill="#000000">4</text>
</a>
</g>
</g>
<!-- dir_4d6afa0018d27b03aafc768625d5f8d5&#45;&gt;dir_a36da230f0956f48b11c85f7d599788f -->
<g id="edge2" class="edge">
<title>dir_4d6afa0018d27b03aafc768625d5f8d5&#45;&gt;dir_a36da230f0956f48b11c85f7d599788f</title>
<path fill="none" stroke="#000000" d="M866.1798,-431.8002C899.9384,-407.5315 952,-361.1626 952,-306 952,-306 952,-306 952,-162 952,-76.6236 653.3771,-34.6701 543.7447,-22.1447"/>
<polygon fill="#000000" stroke="#000000" points="544.069,-18.6592 533.7415,-21.024 543.2896,-25.6157 544.069,-18.6592"/>
<g id="a_edge2&#45;headlabel"><a xlink:href="dir_000063_000006.html" target="_top" xlink:title="2">
<text text-anchor="middle" x="547.9574" y="-13.7377" font-family="Helvetica,sans-Serif" font-size="10.00" fill="#000000">2</text>
</a>
</g>
</g>
<!-- dir_4d6afa0018d27b03aafc768625d5f8d5&#45;&gt;dir_3f9cb8dbb3b4911cb2ecb548acd672c3 -->
<g id="edge3" class="edge">
<title>dir_4d6afa0018d27b03aafc768625d5f8d5&#45;&gt;dir_3f9cb8dbb3b4911cb2ecb548acd672c3</title>
<path fill="none" stroke="#000000" d="M799.4925,-437.7862C757.1902,-424.3687 689.7315,-402.9721 648.0272,-389.7443"/>
<polygon fill="#000000" stroke="#000000" points="648.8554,-386.3352 638.2652,-386.648 646.739,-393.0076 648.8554,-386.3352"/>
<g id="a_edge3&#45;headlabel"><a xlink:href="dir_000063_000065.html" target="_top" xlink:title="2">
<text text-anchor="middle" x="653.1402" y="-382.2155" font-family="Helvetica,sans-Serif" font-size="10.00" fill="#000000">2</text>
</a>
</g>
</g>
<!-- dir_4d6afa0018d27b03aafc768625d5f8d5&#45;&gt;dir_656f7d340c0f5b4ecaf881820f2aea38 -->
<g id="edge4" class="edge">
<title>dir_4d6afa0018d27b03aafc768625d5f8d5&#45;&gt;dir_656f7d340c0f5b4ecaf881820f2aea38</title>
<path fill="none" stroke="#000000" d="M822.8382,-431.8874C787.3214,-390.1957 694.7055,-285.6824 602,-216 583.1524,-201.8331 560.1679,-188.8749 541.304,-179.2052"/>
<polygon fill="#000000" stroke="#000000" points="542.6421,-175.9606 532.1356,-174.5958 539.4979,-182.2147 542.6421,-175.9606"/>
<g id="a_edge4&#45;headlabel"><a xlink:href="dir_000063_000062.html" target="_top" xlink:title="2">
<text text-anchor="middle" x="547.129" y="-172.5384" font-family="Helvetica,sans-Serif" font-size="10.00" fill="#000000">2</text>
</a>
</g>
</g>
<!-- dir_4d6afa0018d27b03aafc768625d5f8d5&#45;&gt;dir_b7a0e33b407baa23d8a077e33033c988 -->
<g id="edge5" class="edge">
<title>dir_4d6afa0018d27b03aafc768625d5f8d5&#45;&gt;dir_b7a0e33b407baa23d8a077e33033c988</title>
<path fill="none" stroke="#000000" d="M809.2503,-431.7623C768.3149,-405.7945 693.2078,-358.1495 648.1155,-329.5446"/>
<polygon fill="#000000" stroke="#000000" points="649.8354,-326.4909 639.5163,-324.0896 646.0857,-332.4019 649.8354,-326.4909"/>
<g id="a_edge5&#45;headlabel"><a xlink:href="dir_000063_000072.html" target="_top" xlink:title="2">
<text text-anchor="middle" x="654.3917" y="-323.5188" font-family="Helvetica,sans-Serif" font-size="10.00" fill="#000000">2</text>
</a>
</g>
</g>
<!-- dir_fc0178d6978c9fa2cad6ef3e048a60a7&#45;&gt;dir_a36da230f0956f48b11c85f7d599788f -->
<g id="edge11" class="edge">
<title>dir_fc0178d6978c9fa2cad6ef3e048a60a7&#45;&gt;dir_a36da230f0956f48b11c85f7d599788f</title>
<path fill="none" stroke="#000000" d="M518.982,-71.8314C515.1958,-64.0463 511.3721,-54.7729 508.3366,-46.1347"/>
<polygon fill="#000000" stroke="#000000" points="511.5983,-44.8463 505.1847,-36.4133 504.9395,-47.0053 511.5983,-44.8463"/>
<g id="a_edge11&#45;headlabel"><a xlink:href="dir_000007_000006.html" target="_top" xlink:title="57">
<text text-anchor="middle" x="515.4077" y="-44.8901" font-family="Helvetica,sans-Serif" font-size="10.00" fill="#000000">57</text>
</a>
</g>
</g>
<!-- dir_a36da230f0956f48b11c85f7d599788f&#45;&gt;dir_fc0178d6978c9fa2cad6ef3e048a60a7 -->
<g id="edge12" class="edge">
<title>dir_a36da230f0956f48b11c85f7d599788f&#45;&gt;dir_fc0178d6978c9fa2cad6ef3e048a60a7</title>
<path fill="none" stroke="#000000" d="M517.1367,-36.4133C520.9236,-44.2292 524.7394,-53.5113 527.7584,-62.136"/>
<polygon fill="#000000" stroke="#000000" points="524.485,-63.3893 530.8868,-71.8314 531.1468,-61.2397 524.485,-63.3893"/>
<g id="a_edge12&#45;headlabel"><a xlink:href="dir_000006_000007.html" target="_top" xlink:title="1">
<text text-anchor="middle" x="520.6792" y="-58.3403" font-family="Helvetica,sans-Serif" font-size="10.00" fill="#000000">1</text>
</a>
</g>
</g>
<!-- dir_d739e095b49d8b72164589d00310017d&#45;&gt;dir_fc0178d6978c9fa2cad6ef3e048a60a7 -->
<g id="edge15" class="edge">
<title>dir_d739e095b49d8b72164589d00310017d&#45;&gt;dir_fc0178d6978c9fa2cad6ef3e048a60a7</title>
<path fill="none" stroke="#000000" d="M425.9344,-215.9442C434.8042,-196.9062 450.392,-166.5984 469,-144 477.6705,-133.4701 488.5458,-123.3422 498.8088,-114.7593"/>
<polygon fill="#000000" stroke="#000000" points="501.2956,-117.2487 506.8544,-108.2292 496.8843,-111.8136 501.2956,-117.2487"/>
<g id="a_edge15&#45;headlabel"><a xlink:href="dir_000033_000007.html" target="_top" xlink:title="23">
<text text-anchor="middle" x="500.2939" y="-119.2185" font-family="Helvetica,sans-Serif" font-size="10.00" fill="#000000">23</text>
</a>
</g>
</g>
<!-- dir_d739e095b49d8b72164589d00310017d&#45;&gt;dir_a36da230f0956f48b11c85f7d599788f -->
<g id="edge16" class="edge">
<title>dir_d739e095b49d8b72164589d00310017d&#45;&gt;dir_a36da230f0956f48b11c85f7d599788f</title>
<path fill="none" stroke="#000000" d="M421.7594,-215.7432C425.8083,-197.3248 432.9111,-168.2247 442,-144 455.2136,-108.7818 475.0205,-70.2471 488.6735,-45.1862"/>
<polygon fill="#000000" stroke="#000000" points="491.822,-46.7243 493.5783,-36.276 485.6897,-43.3486 491.822,-46.7243"/>
<g id="a_edge16&#45;headlabel"><a xlink:href="dir_000033_000006.html" target="_top" xlink:title="110">
<text text-anchor="middle" x="492.5759" y="-48.7425" font-family="Helvetica,sans-Serif" font-size="10.00" fill="#000000">110</text>
</a>
</g>
</g>
<!-- dir_d739e095b49d8b72164589d00310017d&#45;&gt;dir_656f7d340c0f5b4ecaf881820f2aea38 -->
<g id="edge17" class="edge">
<title>dir_d739e095b49d8b72164589d00310017d&#45;&gt;dir_656f7d340c0f5b4ecaf881820f2aea38</title>
<path fill="none" stroke="#000000" d="M434.0014,-215.8314C444.0994,-206.7412 457.3874,-195.6219 469.7803,-185.8539"/>
<polygon fill="#000000" stroke="#000000" points="471.9995,-188.562 477.7524,-179.665 467.707,-183.0326 471.9995,-188.562"/>
<g id="a_edge17&#45;headlabel"><a xlink:href="dir_000033_000062.html" target="_top" xlink:title="1">
<text text-anchor="middle" x="470.9012" y="-190.509" font-family="Helvetica,sans-Serif" font-size="10.00" fill="#000000">1</text>
</a>
</g>
</g>
<!-- dir_d739e095b49d8b72164589d00310017d&#45;&gt;dir_b7a0e33b407baa23d8a077e33033c988 -->
<g id="edge18" class="edge">
<title>dir_d739e095b49d8b72164589d00310017d&#45;&gt;dir_b7a0e33b407baa23d8a077e33033c988</title>
<path fill="none" stroke="#000000" d="M450.2282,-244.2024C483.8454,-255.9462 536.312,-275.4054 572.168,-289.3515"/>
<polygon fill="#000000" stroke="#000000" points="571.2236,-292.7404 581.8113,-293.1278 573.7761,-286.2224 571.2236,-292.7404"/>
<g id="a_edge18&#45;headlabel"><a xlink:href="dir_000033_000072.html" target="_top" xlink:title="13">
<text text-anchor="middle" x="566.8412" y="-291.5735" font-family="Helvetica,sans-Serif" font-size="10.00" fill="#000000">13</text>
</a>
</g>
</g>
<!-- dir_3f9cb8dbb3b4911cb2ecb548acd672c3&#45;&gt;dir_fc0178d6978c9fa2cad6ef3e048a60a7 -->
<g id="edge19" class="edge">
<title>dir_3f9cb8dbb3b4911cb2ecb548acd672c3&#45;&gt;dir_fc0178d6978c9fa2cad6ef3e048a60a7</title>
<path fill="none" stroke="#000000" d="M628.2635,-359.5761C636.2389,-349.7997 644.848,-337.1148 649,-324 653.8292,-308.7462 651.9502,-303.7257 649,-288 636.3385,-220.5082 632.2562,-200.3419 593,-144 585.4716,-133.195 575.3501,-123.1064 565.5178,-114.6424"/>
<polygon fill="#000000" stroke="#000000" points="567.6868,-111.8944 557.7495,-108.2201 563.2266,-117.2894 567.6868,-111.8944"/>
<g id="a_edge19&#45;headlabel"><a xlink:href="dir_000065_000007.html" target="_top" xlink:title="12">
<text text-anchor="middle" x="572.2663" y="-109.4965" font-family="Helvetica,sans-Serif" font-size="10.00" fill="#000000">12</text>
</a>
</g>
</g>
<!-- dir_3f9cb8dbb3b4911cb2ecb548acd672c3&#45;&gt;dir_a36da230f0956f48b11c85f7d599788f -->
<g id="edge20" class="edge">
<title>dir_3f9cb8dbb3b4911cb2ecb548acd672c3&#45;&gt;dir_a36da230f0956f48b11c85f7d599788f</title>
<path fill="none" stroke="#000000" d="M636.0428,-359.8695C646.812,-350.5148 658.2346,-338.105 664,-324 673.66,-300.3669 652.9561,-219.4015 652,-216 633.3291,-149.5779 638.798,-124.4751 594,-72 580.3241,-55.9804 560.6488,-43.4179 543.1803,-34.4566"/>
<polygon fill="#000000" stroke="#000000" points="544.276,-31.0964 533.7548,-29.8495 541.202,-37.3854 544.276,-31.0964"/>
<g id="a_edge20&#45;headlabel"><a xlink:href="dir_000065_000006.html" target="_top" xlink:title="144">
<text text-anchor="middle" x="548.7522" y="-27.624" font-family="Helvetica,sans-Serif" font-size="10.00" fill="#000000">144</text>
</a>
</g>
</g>
<!-- dir_3f9cb8dbb3b4911cb2ecb548acd672c3&#45;&gt;dir_b7a0e33b407baa23d8a077e33033c988 -->
<g id="edge21" class="edge">
<title>dir_3f9cb8dbb3b4911cb2ecb548acd672c3&#45;&gt;dir_b7a0e33b407baa23d8a077e33033c988</title>
<path fill="none" stroke="#000000" d="M605.0476,-359.8314C604.2972,-352.131 604.0763,-342.9743 604.3849,-334.4166"/>
<polygon fill="#000000" stroke="#000000" points="607.8792,-334.6161 605.024,-324.4133 600.8935,-334.1697 607.8792,-334.6161"/>
<g id="a_edge21&#45;headlabel"><a xlink:href="dir_000065_000072.html" target="_top" xlink:title="16">
<text text-anchor="middle" x="610.4836" y="-335.8844" font-family="Helvetica,sans-Serif" font-size="10.00" fill="#000000">16</text>
</a>
</g>
</g>
<!-- dir_656f7d340c0f5b4ecaf881820f2aea38&#45;&gt;dir_fc0178d6978c9fa2cad6ef3e048a60a7 -->
<g id="edge22" class="edge">
<title>dir_656f7d340c0f5b4ecaf881820f2aea38&#45;&gt;dir_fc0178d6978c9fa2cad6ef3e048a60a7</title>
<path fill="none" stroke="#000000" d="M511.8132,-143.8314C514.7644,-135.9617 518.2858,-126.5712 521.555,-117.8533"/>
<polygon fill="#000000" stroke="#000000" points="524.8609,-119.0055 525.095,-108.4133 518.3066,-116.5476 524.8609,-119.0055"/>
<g id="a_edge22&#45;headlabel"><a xlink:href="dir_000062_000007.html" target="_top" xlink:title="3">
<text text-anchor="middle" x="526.2573" y="-120.8682" font-family="Helvetica,sans-Serif" font-size="10.00" fill="#000000">3</text>
</a>
</g>
</g>
<!-- dir_656f7d340c0f5b4ecaf881820f2aea38&#45;&gt;dir_a36da230f0956f48b11c85f7d599788f -->
<g id="edge23" class="edge">
<title>dir_656f7d340c0f5b4ecaf881820f2aea38&#45;&gt;dir_a36da230f0956f48b11c85f7d599788f</title>
<path fill="none" stroke="#000000" d="M501.1587,-143.6001C499.1834,-133.2025 496.9877,-119.9346 496,-108 494.6803,-92.0545 494.8244,-87.9568 496,-72 496.6169,-63.6264 497.7649,-54.5812 499.0026,-46.3322"/>
<polygon fill="#000000" stroke="#000000" points="502.4648,-46.8463 500.585,-36.4196 495.5523,-45.7428 502.4648,-46.8463"/>
<g id="a_edge23&#45;headlabel"><a xlink:href="dir_000062_000006.html" target="_top" xlink:title="35">
<text text-anchor="middle" x="504.702" y="-48.3436" font-family="Helvetica,sans-Serif" font-size="10.00" fill="#000000">35</text>
</a>
</g>
</g>
<!-- dir_656f7d340c0f5b4ecaf881820f2aea38&#45;&gt;dir_d739e095b49d8b72164589d00310017d -->
<g id="edge24" class="edge">
<title>dir_656f7d340c0f5b4ecaf881820f2aea38&#45;&gt;dir_d739e095b49d8b72164589d00310017d</title>
<path fill="none" stroke="#000000" d="M489.0051,-180.1628C479.1549,-189.0301 466.2679,-199.8295 454.1371,-209.4219"/>
<polygon fill="#000000" stroke="#000000" points="451.6457,-206.9258 445.9062,-215.8314 455.9466,-212.4488 451.6457,-206.9258"/>
<g id="a_edge24&#45;headlabel"><a xlink:href="dir_000062_000033.html" target="_top" xlink:title="8">
<text text-anchor="middle" x="452.7374" y="-199.9772" font-family="Helvetica,sans-Serif" font-size="10.00" fill="#000000">8</text>
</a>
</g>
</g>
<!-- dir_656f7d340c0f5b4ecaf881820f2aea38&#45;&gt;dir_3f9cb8dbb3b4911cb2ecb548acd672c3 -->
<g id="edge25" class="edge">
<title>dir_656f7d340c0f5b4ecaf881820f2aea38&#45;&gt;dir_3f9cb8dbb3b4911cb2ecb548acd672c3</title>
<path fill="none" stroke="#000000" d="M513.8136,-180.3821C518.7196,-190.7742 524.8562,-204.0424 530,-216 550.4159,-263.4597 548.4096,-278.5627 573,-324 578.0743,-333.3761 584.4768,-343.0664 590.5728,-351.6053"/>
<polygon fill="#000000" stroke="#000000" points="587.7735,-353.7067 596.5061,-359.7061 593.4207,-349.5704 587.7735,-353.7067"/>
<g id="a_edge25&#45;headlabel"><a xlink:href="dir_000062_000065.html" target="_top" xlink:title="8">
<text text-anchor="middle" x="583.3589" y="-349.9844" font-family="Helvetica,sans-Serif" font-size="10.00" fill="#000000">8</text>
</a>
</g>
</g>
<!-- dir_656f7d340c0f5b4ecaf881820f2aea38&#45;&gt;dir_b7a0e33b407baa23d8a077e33033c988 -->
<g id="edge26" class="edge">
<title>dir_656f7d340c0f5b4ecaf881820f2aea38&#45;&gt;dir_b7a0e33b407baa23d8a077e33033c988</title>
<path fill="none" stroke="#000000" d="M532.0543,-175.3545C547.0402,-185.3438 564.7316,-199.993 577,-216 591.4877,-234.9026 602.8195,-259.4706 608.8093,-278.1612"/>
<polygon fill="#000000" stroke="#000000" points="605.4682,-279.208 611.5736,-287.8668 612.2005,-277.2906 605.4682,-279.208"/>
<g id="a_edge26&#45;headlabel"><a xlink:href="dir_000062_000072.html" target="_top" xlink:title="8">
<text text-anchor="middle" x="601.753" y="-274.0286" font-family="Helvetica,sans-Serif" font-size="10.00" fill="#000000">8</text>
</a>
</g>
</g>
<!-- dir_b7a0e33b407baa23d8a077e33033c988&#45;&gt;dir_fc0178d6978c9fa2cad6ef3e048a60a7 -->
<g id="edge33" class="edge">
<title>dir_b7a0e33b407baa23d8a077e33033c988&#45;&gt;dir_fc0178d6978c9fa2cad6ef3e048a60a7</title>
<path fill="none" stroke="#000000" d="M611.322,-287.9845C611.1654,-269.5039 609.5529,-240.1271 602,-216 590.4812,-179.2042 567.4708,-141.058 550.9744,-116.5159"/>
<polygon fill="#000000" stroke="#000000" points="553.7619,-114.3918 545.2248,-108.1174 547.9857,-118.3462 553.7619,-114.3918"/>
<g id="a_edge33&#45;headlabel"><a xlink:href="dir_000072_000007.html" target="_top" xlink:title="11">
<text text-anchor="middle" x="558.1353" y="-113.2541" font-family="Helvetica,sans-Serif" font-size="10.00" fill="#000000">11</text>
</a>
</g>
</g>
<!-- dir_b7a0e33b407baa23d8a077e33033c988&#45;&gt;dir_a36da230f0956f48b11c85f7d599788f -->
<g id="edge34" class="edge">
<title>dir_b7a0e33b407baa23d8a077e33033c988&#45;&gt;dir_a36da230f0956f48b11c85f7d599788f</title>
<path fill="none" stroke="#000000" d="M614.8413,-287.6001C616.8166,-277.2025 619.0123,-263.9346 620,-252 626.8683,-169.0123 615.5833,-140.3371 568,-72 560.3307,-60.9857 549.8696,-50.8927 539.6278,-42.489"/>
<polygon fill="#000000" stroke="#000000" points="541.5464,-39.5456 531.5185,-36.1262 537.2253,-45.0528 541.5464,-39.5456"/>
<g id="a_edge34&#45;headlabel"><a xlink:href="dir_000072_000006.html" target="_top" xlink:title="370">
<text text-anchor="middle" x="546.127" y="-37.0308" font-family="Helvetica,sans-Serif" font-size="10.00" fill="#000000">370</text>
</a>
</g>
</g>
<!-- dir_b7a0e33b407baa23d8a077e33033c988&#45;&gt;dir_d739e095b49d8b72164589d00310017d -->
<g id="edge35" class="edge">
<title>dir_b7a0e33b407baa23d8a077e33033c988&#45;&gt;dir_d739e095b49d8b72164589d00310017d</title>
<path fill="none" stroke="#000000" d="M581.8832,-296.8812C549.2605,-285.5572 496.3961,-265.9888 459.4938,-251.6821"/>
<polygon fill="#000000" stroke="#000000" points="460.5973,-248.3558 450.0091,-247.9824 458.0535,-254.8772 460.5973,-248.3558"/>
<g id="a_edge35&#45;headlabel"><a xlink:href="dir_000072_000033.html" target="_top" xlink:title="6">
<text text-anchor="middle" x="464.978" y="-244.5168" font-family="Helvetica,sans-Serif" font-size="10.00" fill="#000000">6</text>
</a>
</g>
</g>
<!-- dir_b7a0e33b407baa23d8a077e33033c988&#45;&gt;dir_3f9cb8dbb3b4911cb2ecb548acd672c3 -->
<g id="edge36" class="edge">
<title>dir_b7a0e33b407baa23d8a077e33033c988&#45;&gt;dir_3f9cb8dbb3b4911cb2ecb548acd672c3</title>
<path fill="none" stroke="#000000" d="M616.976,-324.4133C617.7071,-332.0593 617.9203,-341.1084 617.6155,-349.5726"/>
<polygon fill="#000000" stroke="#000000" points="614.1048,-349.6264 616.9524,-359.8314 621.0902,-350.078 614.1048,-349.6264"/>
<g id="a_edge36&#45;headlabel"><a xlink:href="dir_000072_000065.html" target="_top" xlink:title="2">
<text text-anchor="middle" x="611.5032" y="-343.3562" font-family="Helvetica,sans-Serif" font-size="10.00" fill="#000000">2</text>
</a>
</g>
</g>
<!-- dir_b7a0e33b407baa23d8a077e33033c988&#45;&gt;dir_656f7d340c0f5b4ecaf881820f2aea38 -->
<g id="edge37" class="edge">
<title>dir_b7a0e33b407baa23d8a077e33033c988&#45;&gt;dir_656f7d340c0f5b4ecaf881820f2aea38</title>
<path fill="none" stroke="#000000" d="M598.22,-287.8668C588.9082,-268.7642 576.1706,-238.403 559,-216 550.853,-205.3704 540.3146,-195.3394 530.6272,-186.8743"/>
<polygon fill="#000000" stroke="#000000" points="532.6375,-183.9883 522.7611,-180.1531 528.0901,-189.3102 532.6375,-183.9883"/>
<g id="a_edge37&#45;headlabel"><a xlink:href="dir_000072_000062.html" target="_top" xlink:title="7">
<text text-anchor="middle" x="537.2147" y="-181.6648" font-family="Helvetica,sans-Serif" font-size="10.00" fill="#000000">7</text>
</a>
</g>
</g>
</g>
</svg>
        <g id="navigator" transform="translate(0 0)" fill="#404254">
                <rect fill="#f2f5e9" fill-opacity="0.5" stroke="#606060" stroke-width=".5" x="0" y="0" width="60" height="60"/>
                <use id="zoomplus" xlink:href="#zoomPlus" x="17" y="9" onmousedown="handleZoom(evt,'in')"/>
                <use id="zoomminus" xlink:href="#zoomMin" x="42" y="9" onmousedown="handleZoom(evt,'out')"/>
                <use id="reset" xlink:href="#resetDef" x="30" y="36" onmousedown="handleReset()"/>
                <g id="arrowUp" xlink:href="#dirArrow" transform="translate(30 24)" onmousedown="handlePan(0,-1)">
                  <use xlink:href="#rim" fill="#404040">
                        <set attributeName="fill" to="#808080" begin="arrowUp.mouseover" end="arrowUp.mouseout"/>
                  </use>
                  <path fill="none" stroke="white" stroke-width="1.5" d="M0,-3.0v7 M-2.5,-0.5L0,-3.0L2.5,-0.5"/>
                </g>
                <g id="arrowRight" xlink:href="#dirArrow" transform="rotate(90) translate(36 -43)" onmousedown="handlePan(1,0)">
                  <use xlink:href="#rim" fill="#404040">
                        <set attributeName="fill" to="#808080" begin="arrowRight.mouseover" end="arrowRight.mouseout"/>
                  </use>
                  <path fill="none" stroke="white" stroke-width="1.5" d="M0,-3.0v7 M-2.5,-0.5L0,-3.0L2.5,-0.5"/>
                </g>
                <g id="arrowDown" xlink:href="#dirArrow" transform="rotate(180) translate(-30 -48)" onmousedown="handlePan(0,1)">
                  <use xlink:href="#rim" fill="#404040">
                        <set attributeName="fill" to="#808080" begin="arrowDown.mouseover" end="arrowDown.mouseout"/>
                  </use>
                  <path fill="none" stroke="white" stroke-width="1.5" d="M0,-3.0v7 M-2.5,-0.5L0,-3.0L2.5,-0.5"/>
                </g>
                <g id="arrowLeft" xlink:href="#dirArrow" transform="rotate(270) translate(-36 17)" onmousedown="handlePan(-1,0)">
                  <use xlink:href="#rim" fill="#404040">
                        <set attributeName="fill" to="#808080" begin="arrowLeft.mouseover" end="arrowLeft.mouseout"/>
                  </use>
                  <path fill="none" stroke="white" stroke-width="1.5" d="M0,-3.0v7 M-2.5,-0.5L0,-3.0L2.5,-0.5"/>
                </g>
        </g>
        <svg viewBox="0 0 15 15" width="100%" height="30px" preserveAspectRatio="xMaxYMin meet">
         <g id="arrow_out" transform="scale(0.3 0.3)">
          <a xlink:href="dir_5d8dbe7a82c2c188fa06f6391bb290bd_dep_org.svg" target="_base">
           <rect id="button" ry="5" rx="5" y="6" x="6" height="38" width="38"
                fill="#f2f5e9" fill-opacity="0.5" stroke="#606060" stroke-width="1.0"/>
           <path id="arrow"
             d="M 11.500037,31.436501 C 11.940474,20.09759 22.043105,11.32322 32.158766,21.979434 L 37.068811,17.246167 C 37.068811,17.246167 37.088388,32 37.088388,32 L 22.160133,31.978069 C 22.160133,31.978069 26.997745,27.140456 26.997745,27.140456 C 18.528582,18.264221 13.291696,25.230495 11.500037,31.436501 z"
             style="fill:#404040;"/>
          </a>
         </g>
        </svg>
</svg>
