<?xml version="1.0" encoding="UTF-8" standalone="no"?>
<!DOCTYPE svg PUBLIC "-//W3C//DTD SVG 1.1//EN"
 "http://www.w3.org/Graphics/SVG/1.1/DTD/svg11.dtd">
<!-- Generated by graphviz version 2.40.1 (20161225.0304)
 -->
<!-- Title: drake/examples/fibonacci Pages: 1 -->
<svg width="102pt" height="151pt"
 viewBox="0.00 0.00 102.00 151.00" xmlns="http://www.w3.org/2000/svg" xmlns:xlink="http://www.w3.org/1999/xlink">
<g id="graph0" class="graph" transform="scale(1 1) rotate(0) translate(4 147)">
<title>drake/examples/fibonacci</title>
<polygon fill="#ffffff" stroke="transparent" points="-4,4 -4,-147 98,-147 98,4 -4,4"/>
<g id="clust1" class="cluster">
<title>clusterdir_bf85a0c13984f214f436b2edc519c6dd</title>
<g id="a_clust1"><a xlink:href="dir_bf85a0c13984f214f436b2edc519c6dd.html" target="_top" xlink:title="examples">
<polygon fill="#ddddee" stroke="#000000" points="8,-64 8,-135 86,-135 86,-64 8,-64"/>
<text text-anchor="middle" x="47" y="-123" font-family="Helvetica,sans-Serif" font-size="10.00" fill="#000000">examples</text>
</a>
</g>
</g>
<!-- dir_3dcc4f971d55774b1875fdd225f3ac02 -->
<g id="node1" class="node">
<title>dir_3dcc4f971d55774b1875fdd225f3ac02</title>
<g id="a_node1"><a xlink:href="dir_3dcc4f971d55774b1875fdd225f3ac02.html" target="_top" xlink:title="fibonacci">
<polygon fill="#eeeeff" stroke="#000000" points="77.5,-108 16.5,-108 16.5,-72 77.5,-72 77.5,-108"/>
<text text-anchor="middle" x="47" y="-87.5" font-family="Helvetica,sans-Serif" font-size="10.00" fill="#000000">fibonacci</text>
</a>
</g>
</g>
<!-- dir_b7a0e33b407baa23d8a077e33033c988 -->
<g id="node2" class="node">
<title>dir_b7a0e33b407baa23d8a077e33033c988</title>
<g id="a_node2"><a xlink:href="dir_b7a0e33b407baa23d8a077e33033c988.html" target="_top" xlink:title="systems">
<polygon fill="#ffffff" stroke="#ff0000" points="76,-36 18,-36 18,0 76,0 76,-36"/>
<text text-anchor="middle" x="47" y="-15.5" font-family="Helvetica,sans-Serif" font-size="10.00" fill="#000000">systems</text>
</a>
</g>
</g>
<!-- dir_3dcc4f971d55774b1875fdd225f3ac02&#45;&gt;dir_b7a0e33b407baa23d8a077e33033c988 -->
<g id="edge1" class="edge">
<title>dir_3dcc4f971d55774b1875fdd225f3ac02&#45;&gt;dir_b7a0e33b407baa23d8a077e33033c988</title>
<path fill="none" stroke="#000000" d="M47,-71.8314C47,-64.131 47,-54.9743 47,-46.4166"/>
<polygon fill="#000000" stroke="#000000" points="50.5001,-46.4132 47,-36.4133 43.5001,-46.4133 50.5001,-46.4132"/>
<g id="a_edge1&#45;headlabel"><a xlink:href="dir_000019_000073.html" target="_top" xlink:title="2">
<text text-anchor="middle" x="53.3393" y="-47.5079" font-family="Helvetica,sans-Serif" font-size="10.00" fill="#000000">2</text>
</a>
</g>
</g>
</g>
</svg>
