<?xml version="1.0" encoding="UTF-8" standalone="no"?>
<!DOCTYPE svg PUBLIC "-//W3C//DTD SVG 1.1//EN"
 "http://www.w3.org/Graphics/SVG/1.1/DTD/svg11.dtd">
<!-- Generated by graphviz version 2.40.1 (20161225.0304)
 -->
<!-- Title: drake/manipulation/planner Pages: 1 -->
<svg width="219pt" height="439pt"
 viewBox="0.00 0.00 219.03 439.00" xmlns="http://www.w3.org/2000/svg" xmlns:xlink="http://www.w3.org/1999/xlink">
<g id="graph0" class="graph" transform="scale(1 1) rotate(0) translate(4 435)">
<title>drake/manipulation/planner</title>
<polygon fill="#ffffff" stroke="transparent" points="-4,4 -4,-435 215.0296,-435 215.0296,4 -4,4"/>
<g id="clust1" class="cluster">
<title>clusterdir_758aa030403a70af025108ac41d12d0d</title>
<g id="a_clust1"><a xlink:href="dir_758aa030403a70af025108ac41d12d0d.html" target="_top" xlink:title="manipulation">
<polygon fill="#ddddee" stroke="#000000" points="80.0296,-352 80.0296,-423 161.0296,-423 161.0296,-352 80.0296,-352"/>
<text text-anchor="middle" x="120.5296" y="-411" font-family="Helvetica,sans-Serif" font-size="10.00" fill="#000000">manipulation</text>
</a>
</g>
</g>
<!-- dir_8d45261e6a2fc0f4521d25819d2b8e68 -->
<g id="node1" class="node">
<title>dir_8d45261e6a2fc0f4521d25819d2b8e68</title>
<g id="a_node1"><a xlink:href="dir_8d45261e6a2fc0f4521d25819d2b8e68.html" target="_top" xlink:title="planner">
<polygon fill="#eeeeff" stroke="#000000" points="147.0296,-396 93.0296,-396 93.0296,-360 147.0296,-360 147.0296,-396"/>
<text text-anchor="middle" x="120.0296" y="-375.5" font-family="Helvetica,sans-Serif" font-size="10.00" fill="#000000">planner</text>
</a>
</g>
</g>
<!-- dir_39b8b3c6654246a9c12332c930bc7d3f -->
<g id="node2" class="node">
<title>dir_39b8b3c6654246a9c12332c930bc7d3f</title>
<g id="a_node2"><a xlink:href="dir_39b8b3c6654246a9c12332c930bc7d3f.html" target="_top" xlink:title="multibody">
<polygon fill="#ffffff" stroke="#ff0000" points="92.0296,-324 26.0296,-324 26.0296,-288 92.0296,-288 92.0296,-324"/>
<text text-anchor="middle" x="59.0296" y="-303.5" font-family="Helvetica,sans-Serif" font-size="10.00" fill="#000000">multibody</text>
</a>
</g>
</g>
<!-- dir_8d45261e6a2fc0f4521d25819d2b8e68&#45;&gt;dir_39b8b3c6654246a9c12332c930bc7d3f -->
<g id="edge9" class="edge">
<title>dir_8d45261e6a2fc0f4521d25819d2b8e68&#45;&gt;dir_39b8b3c6654246a9c12332c930bc7d3f</title>
<path fill="none" stroke="#000000" d="M104.6368,-359.8314C97.5393,-351.454 88.9816,-341.3531 81.2056,-332.1749"/>
<polygon fill="#000000" stroke="#000000" points="83.7644,-329.7807 74.6298,-324.4133 78.4235,-334.3056 83.7644,-329.7807"/>
<g id="a_edge9&#45;headlabel"><a xlink:href="dir_000045_000048.html" target="_top" xlink:title="4">
<text text-anchor="middle" x="88.2543" y="-328.1879" font-family="Helvetica,sans-Serif" font-size="10.00" fill="#000000">4</text>
</a>
</g>
</g>
<!-- dir_fc0178d6978c9fa2cad6ef3e048a60a7 -->
<g id="node3" class="node">
<title>dir_fc0178d6978c9fa2cad6ef3e048a60a7</title>
<g id="a_node3"><a xlink:href="dir_fc0178d6978c9fa2cad6ef3e048a60a7.html" target="_top" xlink:title="math">
<polygon fill="none" stroke="#000000" points="86.0296,-108 32.0296,-108 32.0296,-72 86.0296,-72 86.0296,-108"/>
<text text-anchor="middle" x="59.0296" y="-87.5" font-family="Helvetica,sans-Serif" font-size="10.00" fill="#000000">math</text>
</a>
</g>
</g>
<!-- dir_8d45261e6a2fc0f4521d25819d2b8e68&#45;&gt;dir_fc0178d6978c9fa2cad6ef3e048a60a7 -->
<g id="edge10" class="edge">
<title>dir_8d45261e6a2fc0f4521d25819d2b8e68&#45;&gt;dir_fc0178d6978c9fa2cad6ef3e048a60a7</title>
<path fill="none" stroke="#000000" d="M92.6204,-372.0553C68.0123,-365.1077 33.3303,-350.951 17.0296,-324 -23.0379,-257.7535 18.1605,-162.957 43.0455,-117.0156"/>
<polygon fill="#000000" stroke="#000000" points="46.1236,-118.6821 47.9246,-108.2414 40.0058,-115.2801 46.1236,-118.6821"/>
<g id="a_edge10&#45;headlabel"><a xlink:href="dir_000045_000007.html" target="_top" xlink:title="2">
<text text-anchor="middle" x="46.8581" y="-120.7035" font-family="Helvetica,sans-Serif" font-size="10.00" fill="#000000">2</text>
</a>
</g>
</g>
<!-- dir_c86b501450b8b8b59405c286cb030cc3 -->
<g id="node4" class="node">
<title>dir_c86b501450b8b8b59405c286cb030cc3</title>
<g id="a_node4"><a xlink:href="dir_c86b501450b8b8b59405c286cb030cc3.html" target="_top" xlink:title="solvers">
<polygon fill="#ffffff" stroke="#ff0000" points="141.0296,-180 87.0296,-180 87.0296,-144 141.0296,-144 141.0296,-180"/>
<text text-anchor="middle" x="114.0296" y="-159.5" font-family="Helvetica,sans-Serif" font-size="10.00" fill="#000000">solvers</text>
</a>
</g>
</g>
<!-- dir_8d45261e6a2fc0f4521d25819d2b8e68&#45;&gt;dir_c86b501450b8b8b59405c286cb030cc3 -->
<g id="edge11" class="edge">
<title>dir_8d45261e6a2fc0f4521d25819d2b8e68&#45;&gt;dir_c86b501450b8b8b59405c286cb030cc3</title>
<path fill="none" stroke="#000000" d="M130.0233,-359.6722C145.2426,-329.2777 170.7817,-266.7593 154.0296,-216 150.7388,-206.0288 144.818,-196.3944 138.5232,-188.0924"/>
<polygon fill="#000000" stroke="#000000" points="141.2016,-185.8384 132.1872,-180.2714 135.7625,-190.2448 141.2016,-185.8384"/>
<g id="a_edge11&#45;headlabel"><a xlink:href="dir_000045_000068.html" target="_top" xlink:title="1">
<text text-anchor="middle" x="145.6705" y="-184.3442" font-family="Helvetica,sans-Serif" font-size="10.00" fill="#000000">1</text>
</a>
</g>
</g>
<!-- dir_a36da230f0956f48b11c85f7d599788f -->
<g id="node5" class="node">
<title>dir_a36da230f0956f48b11c85f7d599788f</title>
<g id="a_node5"><a xlink:href="dir_a36da230f0956f48b11c85f7d599788f.html" target="_top" xlink:title="common">
<polygon fill="#ffffff" stroke="#ff0000" points="115.5296,-36 56.5296,-36 56.5296,0 115.5296,0 115.5296,-36"/>
<text text-anchor="middle" x="86.0296" y="-15.5" font-family="Helvetica,sans-Serif" font-size="10.00" fill="#000000">common</text>
</a>
</g>
</g>
<!-- dir_8d45261e6a2fc0f4521d25819d2b8e68&#45;&gt;dir_a36da230f0956f48b11c85f7d599788f -->
<g id="edge12" class="edge">
<title>dir_8d45261e6a2fc0f4521d25819d2b8e68&#45;&gt;dir_a36da230f0956f48b11c85f7d599788f</title>
<path fill="none" stroke="#000000" d="M141.1356,-359.8504C168.0179,-334.5934 211.0296,-286.0495 211.0296,-234 211.0296,-234 211.0296,-234 211.0296,-162 211.0296,-108.3658 160.9659,-64.9439 124.205,-40.2895"/>
<polygon fill="#000000" stroke="#000000" points="125.9439,-37.2453 115.6529,-34.7262 122.1268,-43.113 125.9439,-37.2453"/>
<g id="a_edge12&#45;headlabel"><a xlink:href="dir_000045_000006.html" target="_top" xlink:title="6">
<text text-anchor="middle" x="130.5053" y="-34.3253" font-family="Helvetica,sans-Serif" font-size="10.00" fill="#000000">6</text>
</a>
</g>
</g>
<!-- dir_b7a0e33b407baa23d8a077e33033c988 -->
<g id="node6" class="node">
<title>dir_b7a0e33b407baa23d8a077e33033c988</title>
<g id="a_node6"><a xlink:href="dir_b7a0e33b407baa23d8a077e33033c988.html" target="_top" xlink:title="systems">
<polygon fill="#ffffff" stroke="#ff0000" points="145.0296,-252 87.0296,-252 87.0296,-216 145.0296,-216 145.0296,-252"/>
<text text-anchor="middle" x="116.0296" y="-231.5" font-family="Helvetica,sans-Serif" font-size="10.00" fill="#000000">systems</text>
</a>
</g>
</g>
<!-- dir_8d45261e6a2fc0f4521d25819d2b8e68&#45;&gt;dir_b7a0e33b407baa23d8a077e33033c988 -->
<g id="edge13" class="edge">
<title>dir_8d45261e6a2fc0f4521d25819d2b8e68&#45;&gt;dir_b7a0e33b407baa23d8a077e33033c988</title>
<path fill="none" stroke="#000000" d="M119.523,-359.7623C118.8408,-335.201 117.6198,-291.2474 116.8173,-262.3541"/>
<polygon fill="#000000" stroke="#000000" points="120.3085,-261.9885 116.5321,-252.0896 113.3112,-262.183 120.3085,-261.9885"/>
<g id="a_edge13&#45;headlabel"><a xlink:href="dir_000045_000072.html" target="_top" xlink:title="2">
<text text-anchor="middle" x="123.2464" y="-263.003" font-family="Helvetica,sans-Serif" font-size="10.00" fill="#000000">2</text>
</a>
</g>
</g>
<!-- dir_39b8b3c6654246a9c12332c930bc7d3f&#45;&gt;dir_fc0178d6978c9fa2cad6ef3e048a60a7 -->
<g id="edge1" class="edge">
<title>dir_39b8b3c6654246a9c12332c930bc7d3f&#45;&gt;dir_fc0178d6978c9fa2cad6ef3e048a60a7</title>
<path fill="none" stroke="#000000" d="M59.0296,-287.9555C59.0296,-250.3938 59.0296,-163.5541 59.0296,-118.4103"/>
<polygon fill="#000000" stroke="#000000" points="62.5297,-118.145 59.0296,-108.1451 55.5297,-118.1451 62.5297,-118.145"/>
<g id="a_edge1&#45;headlabel"><a xlink:href="dir_000048_000007.html" target="_top" xlink:title="32">
<text text-anchor="middle" x="65.3689" y="-119.2397" font-family="Helvetica,sans-Serif" font-size="10.00" fill="#000000">32</text>
</a>
</g>
</g>
<!-- dir_39b8b3c6654246a9c12332c930bc7d3f&#45;&gt;dir_c86b501450b8b8b59405c286cb030cc3 -->
<g id="edge2" class="edge">
<title>dir_39b8b3c6654246a9c12332c930bc7d3f&#45;&gt;dir_c86b501450b8b8b59405c286cb030cc3</title>
<path fill="none" stroke="#000000" d="M60.8201,-287.8083C63.1184,-269.1875 68.0641,-239.7008 78.0296,-216 81.984,-206.5953 87.6448,-197.0879 93.3102,-188.727"/>
<polygon fill="#000000" stroke="#000000" points="96.2255,-190.6664 99.1444,-180.4815 90.5112,-186.6231 96.2255,-190.6664"/>
<g id="a_edge2&#45;headlabel"><a xlink:href="dir_000048_000068.html" target="_top" xlink:title="25">
<text text-anchor="middle" x="96.4671" y="-192.7406" font-family="Helvetica,sans-Serif" font-size="10.00" fill="#000000">25</text>
</a>
</g>
</g>
<!-- dir_39b8b3c6654246a9c12332c930bc7d3f&#45;&gt;dir_a36da230f0956f48b11c85f7d599788f -->
<g id="edge3" class="edge">
<title>dir_39b8b3c6654246a9c12332c930bc7d3f&#45;&gt;dir_a36da230f0956f48b11c85f7d599788f</title>
<path fill="none" stroke="#000000" d="M49.536,-287.7233C29.768,-246.9931 -11.2348,-146.4984 23.0296,-72 28.5393,-60.0207 38.1629,-49.7045 48.2542,-41.3934"/>
<polygon fill="#000000" stroke="#000000" points="50.5718,-44.0269 56.3778,-35.1645 46.3124,-38.4718 50.5718,-44.0269"/>
<g id="a_edge3&#45;headlabel"><a xlink:href="dir_000048_000006.html" target="_top" xlink:title="217">
<text text-anchor="middle" x="49.4468" y="-45.9672" font-family="Helvetica,sans-Serif" font-size="10.00" fill="#000000">217</text>
</a>
</g>
</g>
<!-- dir_39b8b3c6654246a9c12332c930bc7d3f&#45;&gt;dir_b7a0e33b407baa23d8a077e33033c988 -->
<g id="edge4" class="edge">
<title>dir_39b8b3c6654246a9c12332c930bc7d3f&#45;&gt;dir_b7a0e33b407baa23d8a077e33033c988</title>
<path fill="none" stroke="#000000" d="M67.4608,-287.8314C73.2764,-279.454 81.0833,-269.3531 88.7864,-260.1749"/>
<polygon fill="#000000" stroke="#000000" points="91.5987,-262.273 95.4765,-252.4133 86.2965,-257.7028 91.5987,-262.273"/>
<g id="a_edge4&#45;headlabel"><a xlink:href="dir_000048_000072.html" target="_top" xlink:title="32">
<text text-anchor="middle" x="91.4025" y="-264.3494" font-family="Helvetica,sans-Serif" font-size="10.00" fill="#000000">32</text>
</a>
</g>
</g>
<!-- dir_fc0178d6978c9fa2cad6ef3e048a60a7&#45;&gt;dir_a36da230f0956f48b11c85f7d599788f -->
<g id="edge5" class="edge">
<title>dir_fc0178d6978c9fa2cad6ef3e048a60a7&#45;&gt;dir_a36da230f0956f48b11c85f7d599788f</title>
<path fill="none" stroke="#000000" d="M59.8905,-71.8314C62.0982,-63.8771 65.4535,-54.369 69.1072,-45.5723"/>
<polygon fill="#000000" stroke="#000000" points="72.3137,-46.9752 73.1487,-36.4133 65.9095,-44.1492 72.3137,-46.9752"/>
<g id="a_edge5&#45;headlabel"><a xlink:href="dir_000007_000006.html" target="_top" xlink:title="57">
<text text-anchor="middle" x="73.4603" y="-48.91" font-family="Helvetica,sans-Serif" font-size="10.00" fill="#000000">57</text>
</a>
</g>
</g>
<!-- dir_c86b501450b8b8b59405c286cb030cc3&#45;&gt;dir_fc0178d6978c9fa2cad6ef3e048a60a7 -->
<g id="edge6" class="edge">
<title>dir_c86b501450b8b8b59405c286cb030cc3&#45;&gt;dir_fc0178d6978c9fa2cad6ef3e048a60a7</title>
<path fill="none" stroke="#000000" d="M100.1508,-143.8314C93.8161,-135.5386 86.1913,-125.557 79.2371,-116.4533"/>
<polygon fill="#000000" stroke="#000000" points="81.9471,-114.2353 73.0953,-108.4133 76.3844,-118.4847 81.9471,-114.2353"/>
<g id="a_edge6&#45;headlabel"><a xlink:href="dir_000068_000007.html" target="_top" xlink:title="2">
<text text-anchor="middle" x="86.3854" y="-112.8683" font-family="Helvetica,sans-Serif" font-size="10.00" fill="#000000">2</text>
</a>
</g>
</g>
<!-- dir_c86b501450b8b8b59405c286cb030cc3&#45;&gt;dir_a36da230f0956f48b11c85f7d599788f -->
<g id="edge7" class="edge">
<title>dir_c86b501450b8b8b59405c286cb030cc3&#45;&gt;dir_a36da230f0956f48b11c85f7d599788f</title>
<path fill="none" stroke="#000000" d="M110.4834,-143.7623C105.6866,-119.0928 97.0857,-74.8598 91.4688,-45.9731"/>
<polygon fill="#000000" stroke="#000000" points="94.8915,-45.2377 89.5471,-36.0896 88.0202,-46.5738 94.8915,-45.2377"/>
<g id="a_edge7&#45;headlabel"><a xlink:href="dir_000068_000006.html" target="_top" xlink:title="80">
<text text-anchor="middle" x="98.3646" y="-45.7243" font-family="Helvetica,sans-Serif" font-size="10.00" fill="#000000">80</text>
</a>
</g>
</g>
<!-- dir_a36da230f0956f48b11c85f7d599788f&#45;&gt;dir_fc0178d6978c9fa2cad6ef3e048a60a7 -->
<g id="edge8" class="edge">
<title>dir_a36da230f0956f48b11c85f7d599788f&#45;&gt;dir_fc0178d6978c9fa2cad6ef3e048a60a7</title>
<path fill="none" stroke="#000000" d="M85.1007,-36.4133C82.8933,-44.3141 79.5711,-53.7132 75.9566,-62.417"/>
<polygon fill="#000000" stroke="#000000" points="72.6369,-61.27 71.7953,-71.8314 79.0394,-64.1 72.6369,-61.27"/>
<g id="a_edge8&#45;headlabel"><a xlink:href="dir_000006_000007.html" target="_top" xlink:title="1">
<text text-anchor="middle" x="71.4932" y="-54.3344" font-family="Helvetica,sans-Serif" font-size="10.00" fill="#000000">1</text>
</a>
</g>
</g>
<!-- dir_b7a0e33b407baa23d8a077e33033c988&#45;&gt;dir_39b8b3c6654246a9c12332c930bc7d3f -->
<g id="edge14" class="edge">
<title>dir_b7a0e33b407baa23d8a077e33033c988&#45;&gt;dir_39b8b3c6654246a9c12332c930bc7d3f</title>
<path fill="none" stroke="#000000" d="M107.4285,-252.4133C101.5743,-260.8239 93.7493,-270.9323 86.0484,-280.0923"/>
<polygon fill="#000000" stroke="#000000" points="83.2522,-277.9752 79.3655,-287.8314 88.5503,-282.5502 83.2522,-277.9752"/>
<g id="a_edge14&#45;headlabel"><a xlink:href="dir_000072_000048.html" target="_top" xlink:title="8">
<text text-anchor="middle" x="83.4526" y="-270.8989" font-family="Helvetica,sans-Serif" font-size="10.00" fill="#000000">8</text>
</a>
</g>
</g>
<!-- dir_b7a0e33b407baa23d8a077e33033c988&#45;&gt;dir_fc0178d6978c9fa2cad6ef3e048a60a7 -->
<g id="edge15" class="edge">
<title>dir_b7a0e33b407baa23d8a077e33033c988&#45;&gt;dir_fc0178d6978c9fa2cad6ef3e048a60a7</title>
<path fill="none" stroke="#000000" d="M100.2836,-215.6429C92.5045,-205.6881 83.6125,-192.8229 78.0296,-180 69.4501,-160.2941 64.6401,-136.4331 62.0075,-118.2324"/>
<polygon fill="#000000" stroke="#000000" points="65.4683,-117.704 60.6971,-108.2443 58.5278,-118.6147 65.4683,-117.704"/>
<g id="a_edge15&#45;headlabel"><a xlink:href="dir_000072_000007.html" target="_top" xlink:title="10">
<text text-anchor="middle" x="68.751" y="-118.3987" font-family="Helvetica,sans-Serif" font-size="10.00" fill="#000000">10</text>
</a>
</g>
</g>
<!-- dir_b7a0e33b407baa23d8a077e33033c988&#45;&gt;dir_c86b501450b8b8b59405c286cb030cc3 -->
<g id="edge16" class="edge">
<title>dir_b7a0e33b407baa23d8a077e33033c988&#45;&gt;dir_c86b501450b8b8b59405c286cb030cc3</title>
<path fill="none" stroke="#000000" d="M115.525,-215.8314C115.3111,-208.131 115.0567,-198.9743 114.819,-190.4166"/>
<polygon fill="#000000" stroke="#000000" points="118.3175,-190.3122 114.5411,-180.4133 111.3202,-190.5066 118.3175,-190.3122"/>
<g id="a_edge16&#45;headlabel"><a xlink:href="dir_000072_000068.html" target="_top" xlink:title="6">
<text text-anchor="middle" x="121.2554" y="-191.3266" font-family="Helvetica,sans-Serif" font-size="10.00" fill="#000000">6</text>
</a>
</g>
</g>
<!-- dir_b7a0e33b407baa23d8a077e33033c988&#45;&gt;dir_a36da230f0956f48b11c85f7d599788f -->
<g id="edge17" class="edge">
<title>dir_b7a0e33b407baa23d8a077e33033c988&#45;&gt;dir_a36da230f0956f48b11c85f7d599788f</title>
<path fill="none" stroke="#000000" d="M131.1437,-215.7768C138.3845,-205.8586 146.282,-192.9858 150.0296,-180 154.4661,-164.6274 153.7057,-159.572 150.0296,-144 141.3442,-107.208 119.9301,-69.061 104.2555,-44.5178"/>
<polygon fill="#000000" stroke="#000000" points="107.1707,-42.5806 98.7745,-36.1187 101.3085,-46.4061 107.1707,-42.5806"/>
<g id="a_edge17&#45;headlabel"><a xlink:href="dir_000072_000006.html" target="_top" xlink:title="368">
<text text-anchor="middle" x="111.5129" y="-41.5392" font-family="Helvetica,sans-Serif" font-size="10.00" fill="#000000">368</text>
</a>
</g>
</g>
</g>
</svg>
