<?xml version="1.0" encoding="UTF-8" standalone="no"?>
<!DOCTYPE svg PUBLIC "-//W3C//DTD SVG 1.1//EN"
 "http://www.w3.org/Graphics/SVG/1.1/DTD/svg11.dtd">
<!-- Generated by graphviz version 2.40.1 (20161225.0304)
 -->
<!-- Title: drake/manipulation Pages: 1 -->
<svg width="932pt" height="519pt"
 viewBox="0.00 0.00 932.00 519.00" xmlns="http://www.w3.org/2000/svg" xmlns:xlink="http://www.w3.org/1999/xlink">
<g id="graph0" class="graph" transform="scale(1 1) rotate(0) translate(4 515)">
<title>drake/manipulation</title>
<polygon fill="#ffffff" stroke="transparent" points="-4,4 -4,-515 928,-515 928,4 -4,4"/>
<g id="clust1" class="cluster">
<title>clusterdir_f1666844dc41ec91c14125b680b7be1b</title>
<g id="a_clust1"><a xlink:href="dir_f1666844dc41ec91c14125b680b7be1b.html" target="_top" xlink:title="drake">
<polygon fill="#ddddee" stroke="#000000" points="444,-272 444,-503 916,-503 916,-272 444,-272"/>
<text text-anchor="middle" x="680" y="-491" font-family="Helvetica,sans-Serif" font-size="10.00" fill="#000000">drake</text>
</a>
</g>
</g>
<g id="clust2" class="cluster">
<title>clusterdir_758aa030403a70af025108ac41d12d0d</title>
<g id="a_clust2"><a xlink:href="dir_758aa030403a70af025108ac41d12d0d.html" target="_top">
<polygon fill="#eeeeff" stroke="#000000" points="452,-280 452,-476 908,-476 908,-280 452,-280"/>
</a>
</g>
</g>
<!-- dir_758aa030403a70af025108ac41d12d0d -->
<g id="node1" class="node">
<title>dir_758aa030403a70af025108ac41d12d0d</title>
<text text-anchor="middle" x="859" y="-447.5" font-family="Helvetica,sans-Serif" font-size="10.00" fill="#000000">manipulation</text>
</g>
<!-- dir_c5b002a888c3529d6d8c26d354f8bc1a -->
<g id="node2" class="node">
<title>dir_c5b002a888c3529d6d8c26d354f8bc1a</title>
<g id="a_node2"><a xlink:href="dir_c5b002a888c3529d6d8c26d354f8bc1a.html" target="_top" xlink:title="kinova_jaco">
<polygon fill="#ffffff" stroke="#000000" points="713.5,-468 638.5,-468 638.5,-432 713.5,-432 713.5,-468"/>
<text text-anchor="middle" x="676" y="-447.5" font-family="Helvetica,sans-Serif" font-size="10.00" fill="#000000">kinova_jaco</text>
</a>
</g>
</g>
<!-- dir_a36da230f0956f48b11c85f7d599788f -->
<g id="node11" class="node">
<title>dir_a36da230f0956f48b11c85f7d599788f</title>
<g id="a_node11"><a xlink:href="dir_a36da230f0956f48b11c85f7d599788f.html" target="_top" xlink:title="common">
<polygon fill="#ffffff" stroke="#ff0000" points="371.5,-108 312.5,-108 312.5,-72 371.5,-72 371.5,-108"/>
<text text-anchor="middle" x="342" y="-87.5" font-family="Helvetica,sans-Serif" font-size="10.00" fill="#000000">common</text>
</a>
</g>
</g>
<!-- dir_c5b002a888c3529d6d8c26d354f8bc1a&#45;&gt;dir_a36da230f0956f48b11c85f7d599788f -->
<g id="edge1" class="edge">
<title>dir_c5b002a888c3529d6d8c26d354f8bc1a&#45;&gt;dir_a36da230f0956f48b11c85f7d599788f</title>
<path fill="none" stroke="#000000" d="M638.316,-434.5421C635.1961,-433.5773 632.0642,-432.7106 629,-432 542.2744,-411.889 294.6534,-457.2022 230,-396 171.508,-340.6303 182.5338,-292.07 209,-216 225.2144,-169.396 270.6197,-133.0041 303.8818,-111.5621"/>
<polygon fill="#000000" stroke="#000000" points="305.8631,-114.451 312.4785,-106.1753 302.1462,-108.5193 305.8631,-114.451"/>
<g id="a_edge1&#45;headlabel"><a xlink:href="dir_000043_000006.html" target="_top" xlink:title="5">
<text text-anchor="middle" x="304.3246" y="-116.2656" font-family="Helvetica,sans-Serif" font-size="10.00" fill="#000000">5</text>
</a>
</g>
</g>
<!-- dir_b7a0e33b407baa23d8a077e33033c988 -->
<g id="node12" class="node">
<title>dir_b7a0e33b407baa23d8a077e33033c988</title>
<g id="a_node12"><a xlink:href="dir_b7a0e33b407baa23d8a077e33033c988.html" target="_top" xlink:title="systems">
<polygon fill="#ffffff" stroke="#ff0000" points="276,-252 218,-252 218,-216 276,-216 276,-252"/>
<text text-anchor="middle" x="247" y="-231.5" font-family="Helvetica,sans-Serif" font-size="10.00" fill="#000000">systems</text>
</a>
</g>
</g>
<!-- dir_c5b002a888c3529d6d8c26d354f8bc1a&#45;&gt;dir_b7a0e33b407baa23d8a077e33033c988 -->
<g id="edge2" class="edge">
<title>dir_c5b002a888c3529d6d8c26d354f8bc1a&#45;&gt;dir_b7a0e33b407baa23d8a077e33033c988</title>
<path fill="none" stroke="#000000" d="M638.3119,-434.5598C635.1929,-433.591 632.0624,-432.7186 629,-432 547.0664,-412.7748 309.5642,-457.3928 252,-396 218.4543,-360.2232 228.2694,-298.069 237.9516,-262.0391"/>
<polygon fill="#000000" stroke="#000000" points="241.3856,-262.7606 240.7732,-252.1834 234.656,-260.8339 241.3856,-262.7606"/>
<g id="a_edge2&#45;headlabel"><a xlink:href="dir_000043_000073.html" target="_top" xlink:title="4">
<text text-anchor="middle" x="243.1259" y="-264.4978" font-family="Helvetica,sans-Serif" font-size="10.00" fill="#000000">4</text>
</a>
</g>
</g>
<!-- dir_3d70560bdc0f87a6aef8c45d30963b2c -->
<g id="node3" class="node">
<title>dir_3d70560bdc0f87a6aef8c45d30963b2c</title>
<g id="a_node3"><a xlink:href="dir_3d70560bdc0f87a6aef8c45d30963b2c.html" target="_top" xlink:title="kuka_iiwa">
<polygon fill="#ffffff" stroke="#000000" points="620,-468 554,-468 554,-432 620,-432 620,-468"/>
<text text-anchor="middle" x="587" y="-447.5" font-family="Helvetica,sans-Serif" font-size="10.00" fill="#000000">kuka_iiwa</text>
</a>
</g>
</g>
<!-- dir_3d70560bdc0f87a6aef8c45d30963b2c&#45;&gt;dir_a36da230f0956f48b11c85f7d599788f -->
<g id="edge8" class="edge">
<title>dir_3d70560bdc0f87a6aef8c45d30963b2c&#45;&gt;dir_a36da230f0956f48b11c85f7d599788f</title>
<path fill="none" stroke="#000000" d="M553.8613,-434.6727C550.9044,-433.6497 547.9234,-432.7358 545,-432 456.9483,-409.8393 216.4373,-441.7361 138,-396 96.0395,-371.5332 76,-354.5727 76,-306 76,-306 76,-306 76,-234 76,-192.6022 70.1326,-172.6656 100,-144 128.6249,-116.5269 241.5009,-100.62 302.4542,-93.8671"/>
<polygon fill="#000000" stroke="#000000" points="302.9176,-97.3375 312.4852,-92.7866 302.1678,-90.3778 302.9176,-97.3375"/>
<g id="a_edge8&#45;headlabel"><a xlink:href="dir_000044_000006.html" target="_top" xlink:title="10">
<text text-anchor="middle" x="299.6477" y="-98.0454" font-family="Helvetica,sans-Serif" font-size="10.00" fill="#000000">10</text>
</a>
</g>
</g>
<!-- dir_3d70560bdc0f87a6aef8c45d30963b2c&#45;&gt;dir_b7a0e33b407baa23d8a077e33033c988 -->
<g id="edge9" class="edge">
<title>dir_3d70560bdc0f87a6aef8c45d30963b2c&#45;&gt;dir_b7a0e33b407baa23d8a077e33033c988</title>
<path fill="none" stroke="#000000" d="M553.8449,-434.7366C550.8915,-433.6997 547.9159,-432.7651 545,-432 473.4335,-413.221 263.409,-451.0742 214,-396 177.1976,-354.9779 194.7124,-323.6258 214,-272 215.5137,-267.9484 217.6758,-264.0429 220.179,-260.3784"/>
<polygon fill="#000000" stroke="#000000" points="223.0866,-262.3422 226.4942,-252.3103 217.5744,-258.0276 223.0866,-262.3422"/>
<g id="a_edge9&#45;headlabel"><a xlink:href="dir_000044_000073.html" target="_top" xlink:title="5">
<text text-anchor="middle" x="223.1068" y="-264.4228" font-family="Helvetica,sans-Serif" font-size="10.00" fill="#000000">5</text>
</a>
</g>
</g>
<!-- dir_87d00f1bc7afad72962b21d21ea7c9ff -->
<g id="node4" class="node">
<title>dir_87d00f1bc7afad72962b21d21ea7c9ff</title>
<g id="a_node4"><a xlink:href="dir_87d00f1bc7afad72962b21d21ea7c9ff.html" target="_top" xlink:title="perception">
<polygon fill="#ffffff" stroke="#000000" points="800,-468 732,-468 732,-432 800,-432 800,-468"/>
<text text-anchor="middle" x="766" y="-447.5" font-family="Helvetica,sans-Serif" font-size="10.00" fill="#000000">perception</text>
</a>
</g>
</g>
<!-- dir_f46c9d8bac432799f621aa951345f12b -->
<g id="node7" class="node">
<title>dir_f46c9d8bac432799f621aa951345f12b</title>
<g id="a_node7"><a xlink:href="dir_f46c9d8bac432799f621aa951345f12b.html" target="_top" xlink:title="util">
<polygon fill="#ffffff" stroke="#000000" points="514,-396 460,-396 460,-360 514,-360 514,-396"/>
<text text-anchor="middle" x="487" y="-375.5" font-family="Helvetica,sans-Serif" font-size="10.00" fill="#000000">util</text>
</a>
</g>
</g>
<!-- dir_87d00f1bc7afad72962b21d21ea7c9ff&#45;&gt;dir_f46c9d8bac432799f621aa951345f12b -->
<g id="edge11" class="edge">
<title>dir_87d00f1bc7afad72962b21d21ea7c9ff&#45;&gt;dir_f46c9d8bac432799f621aa951345f12b</title>
<path fill="none" stroke="#000000" d="M731.9311,-435.1174C728.9343,-433.9978 725.9281,-432.9402 723,-432 654.1709,-409.8997 571.3022,-393.1211 524.3265,-384.489"/>
<polygon fill="#000000" stroke="#000000" points="524.7698,-381.0123 514.3056,-382.6714 523.5205,-387.9 524.7698,-381.0123"/>
<g id="a_edge11&#45;headlabel"><a xlink:href="dir_000045_000048.html" target="_top" xlink:title="1">
<text text-anchor="middle" x="528.8133" y="-376.3601" font-family="Helvetica,sans-Serif" font-size="10.00" fill="#000000">1</text>
</a>
</g>
</g>
<!-- dir_87d00f1bc7afad72962b21d21ea7c9ff&#45;&gt;dir_a36da230f0956f48b11c85f7d599788f -->
<g id="edge10" class="edge">
<title>dir_87d00f1bc7afad72962b21d21ea7c9ff&#45;&gt;dir_a36da230f0956f48b11c85f7d599788f</title>
<path fill="none" stroke="#000000" d="M731.5432,-434.6522C728.6844,-433.6627 725.8125,-432.7603 723,-432 535.278,-381.254 304,-500.4601 304,-306 304,-306 304,-306 304,-234 304,-192.3681 319.0328,-146.14 330.1881,-117.567"/>
<polygon fill="#000000" stroke="#000000" points="333.4578,-118.817 333.9412,-108.2332 326.9632,-116.2055 333.4578,-118.817"/>
<g id="a_edge10&#45;headlabel"><a xlink:href="dir_000045_000006.html" target="_top" xlink:title="1">
<text text-anchor="middle" x="334.7511" y="-120.7113" font-family="Helvetica,sans-Serif" font-size="10.00" fill="#000000">1</text>
</a>
</g>
</g>
<!-- dir_87d00f1bc7afad72962b21d21ea7c9ff&#45;&gt;dir_b7a0e33b407baa23d8a077e33033c988 -->
<g id="edge12" class="edge">
<title>dir_87d00f1bc7afad72962b21d21ea7c9ff&#45;&gt;dir_b7a0e33b407baa23d8a077e33033c988</title>
<path fill="none" stroke="#000000" d="M731.5823,-434.5002C728.7147,-433.5448 725.8302,-432.6917 723,-432 629.2062,-409.0774 364.0258,-457.9911 290,-396 269.631,-378.9425 256.4422,-303.7944 250.5539,-262.1063"/>
<polygon fill="#000000" stroke="#000000" points="254.0006,-261.4765 249.1823,-252.0407 247.0647,-262.4217 254.0006,-261.4765"/>
<g id="a_edge12&#45;headlabel"><a xlink:href="dir_000045_000073.html" target="_top" xlink:title="3">
<text text-anchor="middle" x="257.2991" y="-262.1549" font-family="Helvetica,sans-Serif" font-size="10.00" fill="#000000">3</text>
</a>
</g>
</g>
<!-- dir_8d45261e6a2fc0f4521d25819d2b8e68 -->
<g id="node5" class="node">
<title>dir_8d45261e6a2fc0f4521d25819d2b8e68</title>
<g id="a_node5"><a xlink:href="dir_8d45261e6a2fc0f4521d25819d2b8e68.html" target="_top" xlink:title="planner">
<polygon fill="#ffffff" stroke="#000000" points="514,-324 460,-324 460,-288 514,-288 514,-324"/>
<text text-anchor="middle" x="487" y="-303.5" font-family="Helvetica,sans-Serif" font-size="10.00" fill="#000000">planner</text>
</a>
</g>
</g>
<!-- dir_39b8b3c6654246a9c12332c930bc7d3f -->
<g id="node8" class="node">
<title>dir_39b8b3c6654246a9c12332c930bc7d3f</title>
<g id="a_node8"><a xlink:href="dir_39b8b3c6654246a9c12332c930bc7d3f.html" target="_top" xlink:title="multibody">
<polygon fill="#ffffff" stroke="#ff0000" points="436,-324 370,-324 370,-288 436,-288 436,-324"/>
<text text-anchor="middle" x="403" y="-303.5" font-family="Helvetica,sans-Serif" font-size="10.00" fill="#000000">multibody</text>
</a>
</g>
</g>
<!-- dir_8d45261e6a2fc0f4521d25819d2b8e68&#45;&gt;dir_39b8b3c6654246a9c12332c930bc7d3f -->
<g id="edge16" class="edge">
<title>dir_8d45261e6a2fc0f4521d25819d2b8e68&#45;&gt;dir_39b8b3c6654246a9c12332c930bc7d3f</title>
<path fill="none" stroke="#000000" d="M459.981,-306C455.3867,-306 450.7925,-306 446.1983,-306"/>
<polygon fill="#000000" stroke="#000000" points="446.1407,-302.5001 436.1406,-306 446.1406,-309.5001 446.1407,-302.5001"/>
<g id="a_edge16&#45;headlabel"><a xlink:href="dir_000046_000049.html" target="_top" xlink:title="4">
<text text-anchor="middle" x="449.7352" y="-297.1607" font-family="Helvetica,sans-Serif" font-size="10.00" fill="#000000">4</text>
</a>
</g>
</g>
<!-- dir_fc0178d6978c9fa2cad6ef3e048a60a7 -->
<g id="node9" class="node">
<title>dir_fc0178d6978c9fa2cad6ef3e048a60a7</title>
<g id="a_node9"><a xlink:href="dir_fc0178d6978c9fa2cad6ef3e048a60a7.html" target="_top" xlink:title="math">
<polygon fill="none" stroke="#000000" points="462,-36 408,-36 408,0 462,0 462,-36"/>
<text text-anchor="middle" x="435" y="-15.5" font-family="Helvetica,sans-Serif" font-size="10.00" fill="#000000">math</text>
</a>
</g>
</g>
<!-- dir_8d45261e6a2fc0f4521d25819d2b8e68&#45;&gt;dir_fc0178d6978c9fa2cad6ef3e048a60a7 -->
<g id="edge17" class="edge">
<title>dir_8d45261e6a2fc0f4521d25819d2b8e68&#45;&gt;dir_fc0178d6978c9fa2cad6ef3e048a60a7</title>
<path fill="none" stroke="#000000" d="M490.4016,-287.7919C497.1288,-247.2004 508.9534,-146.968 478,-72 473.8837,-62.0306 467.3471,-52.3967 460.6006,-44.0946"/>
<polygon fill="#000000" stroke="#000000" points="463.0434,-41.5676 453.8661,-36.2734 457.7389,-46.1351 463.0434,-41.5676"/>
<g id="a_edge17&#45;headlabel"><a xlink:href="dir_000046_000007.html" target="_top" xlink:title="2">
<text text-anchor="middle" x="467.5404" y="-39.9389" font-family="Helvetica,sans-Serif" font-size="10.00" fill="#000000">2</text>
</a>
</g>
</g>
<!-- dir_c86b501450b8b8b59405c286cb030cc3 -->
<g id="node10" class="node">
<title>dir_c86b501450b8b8b59405c286cb030cc3</title>
<g id="a_node10"><a xlink:href="dir_c86b501450b8b8b59405c286cb030cc3.html" target="_top" xlink:title="solvers">
<polygon fill="#ffffff" stroke="#ff0000" points="462,-180 408,-180 408,-144 462,-144 462,-180"/>
<text text-anchor="middle" x="435" y="-159.5" font-family="Helvetica,sans-Serif" font-size="10.00" fill="#000000">solvers</text>
</a>
</g>
</g>
<!-- dir_8d45261e6a2fc0f4521d25819d2b8e68&#45;&gt;dir_c86b501450b8b8b59405c286cb030cc3 -->
<g id="edge18" class="edge">
<title>dir_8d45261e6a2fc0f4521d25819d2b8e68&#45;&gt;dir_c86b501450b8b8b59405c286cb030cc3</title>
<path fill="none" stroke="#000000" d="M480.4142,-287.7623C471.4667,-262.9846 455.3924,-218.4714 444.9645,-189.5939"/>
<polygon fill="#000000" stroke="#000000" points="448.2208,-188.3064 441.5324,-180.0896 441.6369,-190.6839 448.2208,-188.3064"/>
<g id="a_edge18&#45;headlabel"><a xlink:href="dir_000046_000069.html" target="_top" xlink:title="1">
<text text-anchor="middle" x="452.1121" y="-188.223" font-family="Helvetica,sans-Serif" font-size="10.00" fill="#000000">1</text>
</a>
</g>
</g>
<!-- dir_8d45261e6a2fc0f4521d25819d2b8e68&#45;&gt;dir_a36da230f0956f48b11c85f7d599788f -->
<g id="edge19" class="edge">
<title>dir_8d45261e6a2fc0f4521d25819d2b8e68&#45;&gt;dir_a36da230f0956f48b11c85f7d599788f</title>
<path fill="none" stroke="#000000" d="M490.7214,-287.8603C496.2684,-255.5041 502.9127,-187.1857 471,-144 450.0257,-115.6167 411.2788,-102.0559 381.7049,-95.636"/>
<polygon fill="#000000" stroke="#000000" points="382.1603,-92.1583 371.671,-93.6504 380.8013,-99.0252 382.1603,-92.1583"/>
<g id="a_edge19&#45;headlabel"><a xlink:href="dir_000046_000006.html" target="_top" xlink:title="6">
<text text-anchor="middle" x="386.2376" y="-87.5708" font-family="Helvetica,sans-Serif" font-size="10.00" fill="#000000">6</text>
</a>
</g>
</g>
<!-- dir_8d45261e6a2fc0f4521d25819d2b8e68&#45;&gt;dir_b7a0e33b407baa23d8a077e33033c988 -->
<g id="edge20" class="edge">
<title>dir_8d45261e6a2fc0f4521d25819d2b8e68&#45;&gt;dir_b7a0e33b407baa23d8a077e33033c988</title>
<path fill="none" stroke="#000000" d="M468.6967,-287.9157C461.7772,-282.0069 453.5075,-275.954 445,-272 393.4624,-248.0469 327.6512,-239.192 286.404,-235.9188"/>
<polygon fill="#000000" stroke="#000000" points="286.4422,-232.4126 276.2165,-235.1847 285.939,-239.3945 286.4422,-232.4126"/>
<g id="a_edge20&#45;headlabel"><a xlink:href="dir_000046_000073.html" target="_top" xlink:title="2">
<text text-anchor="middle" x="290.2316" y="-227.3389" font-family="Helvetica,sans-Serif" font-size="10.00" fill="#000000">2</text>
</a>
</g>
</g>
<!-- dir_6c83ef925edcdfdf0a2f376978e93167 -->
<g id="node6" class="node">
<title>dir_6c83ef925edcdfdf0a2f376978e93167</title>
<g id="a_node6"><a xlink:href="dir_6c83ef925edcdfdf0a2f376978e93167.html" target="_top" xlink:title="schunk_wsg">
<polygon fill="#ffffff" stroke="#000000" points="536,-468 460,-468 460,-432 536,-432 536,-468"/>
<text text-anchor="middle" x="498" y="-447.5" font-family="Helvetica,sans-Serif" font-size="10.00" fill="#000000">schunk_wsg</text>
</a>
</g>
</g>
<!-- dir_6c83ef925edcdfdf0a2f376978e93167&#45;&gt;dir_a36da230f0956f48b11c85f7d599788f -->
<g id="edge29" class="edge">
<title>dir_6c83ef925edcdfdf0a2f376978e93167&#45;&gt;dir_a36da230f0956f48b11c85f7d599788f</title>
<path fill="none" stroke="#000000" d="M459.9169,-449.2259C366.4666,-446.7114 128.5929,-436.4078 62,-396 20.4741,-370.8026 0,-354.5727 0,-306 0,-306 0,-306 0,-234 0,-185.4273 21.3453,-170.5801 62,-144 101.0374,-118.4773 234.2918,-101.272 301.9255,-93.9667"/>
<polygon fill="#000000" stroke="#000000" points="302.6166,-97.4132 312.1924,-92.8795 301.8794,-90.4521 302.6166,-97.4132"/>
<g id="a_edge29&#45;headlabel"><a xlink:href="dir_000047_000006.html" target="_top" xlink:title="4">
<text text-anchor="middle" x="299.341" y="-98.1152" font-family="Helvetica,sans-Serif" font-size="10.00" fill="#000000">4</text>
</a>
</g>
</g>
<!-- dir_6c83ef925edcdfdf0a2f376978e93167&#45;&gt;dir_b7a0e33b407baa23d8a077e33033c988 -->
<g id="edge30" class="edge">
<title>dir_6c83ef925edcdfdf0a2f376978e93167&#45;&gt;dir_b7a0e33b407baa23d8a077e33033c988</title>
<path fill="none" stroke="#000000" d="M459.9278,-446.3624C378.685,-438.2162 194.2169,-417.5263 176,-396 140.3987,-353.9312 147.6801,-319.2781 176,-272 183.2135,-259.9576 195.6905,-251.516 208.1925,-245.7031"/>
<polygon fill="#000000" stroke="#000000" points="209.7861,-248.8309 217.671,-241.7543 207.094,-242.3692 209.7861,-248.8309"/>
<g id="a_edge30&#45;headlabel"><a xlink:href="dir_000047_000073.html" target="_top" xlink:title="9">
<text text-anchor="middle" x="207.5598" y="-250.3341" font-family="Helvetica,sans-Serif" font-size="10.00" fill="#000000">9</text>
</a>
</g>
</g>
<!-- dir_f46c9d8bac432799f621aa951345f12b&#45;&gt;dir_8d45261e6a2fc0f4521d25819d2b8e68 -->
<g id="edge24" class="edge">
<title>dir_f46c9d8bac432799f621aa951345f12b&#45;&gt;dir_8d45261e6a2fc0f4521d25819d2b8e68</title>
<path fill="none" stroke="#000000" d="M487,-359.8314C487,-352.131 487,-342.9743 487,-334.4166"/>
<polygon fill="#000000" stroke="#000000" points="490.5001,-334.4132 487,-324.4133 483.5001,-334.4133 490.5001,-334.4132"/>
<g id="a_edge24&#45;headlabel"><a xlink:href="dir_000048_000046.html" target="_top" xlink:title="1">
<text text-anchor="middle" x="493.3393" y="-335.5079" font-family="Helvetica,sans-Serif" font-size="10.00" fill="#000000">1</text>
</a>
</g>
</g>
<!-- dir_f46c9d8bac432799f621aa951345f12b&#45;&gt;dir_39b8b3c6654246a9c12332c930bc7d3f -->
<g id="edge21" class="edge">
<title>dir_f46c9d8bac432799f621aa951345f12b&#45;&gt;dir_39b8b3c6654246a9c12332c930bc7d3f</title>
<path fill="none" stroke="#000000" d="M465.8033,-359.8314C455.5566,-351.0485 443.0997,-340.3712 431.9903,-330.8489"/>
<polygon fill="#000000" stroke="#000000" points="434.0603,-328.0134 424.19,-324.1628 429.5048,-333.3282 434.0603,-328.0134"/>
<g id="a_edge21&#45;headlabel"><a xlink:href="dir_000048_000049.html" target="_top" xlink:title="2">
<text text-anchor="middle" x="438.6373" y="-325.697" font-family="Helvetica,sans-Serif" font-size="10.00" fill="#000000">2</text>
</a>
</g>
</g>
<!-- dir_f46c9d8bac432799f621aa951345f12b&#45;&gt;dir_fc0178d6978c9fa2cad6ef3e048a60a7 -->
<g id="edge22" class="edge">
<title>dir_f46c9d8bac432799f621aa951345f12b&#45;&gt;dir_fc0178d6978c9fa2cad6ef3e048a60a7</title>
<path fill="none" stroke="#000000" d="M514.1548,-362.0336C549.8296,-338.774 608,-291.9611 608,-234 608,-234 608,-234 608,-162 608,-91.6597 522.4714,-49.0441 471.6889,-29.9404"/>
<polygon fill="#000000" stroke="#000000" points="472.6254,-26.5569 462.0313,-26.4319 470.2351,-33.1362 472.6254,-26.5569"/>
<g id="a_edge22&#45;headlabel"><a xlink:href="dir_000048_000007.html" target="_top" xlink:title="1">
<text text-anchor="middle" x="476.9734" y="-22.6156" font-family="Helvetica,sans-Serif" font-size="10.00" fill="#000000">1</text>
</a>
</g>
</g>
<!-- dir_f46c9d8bac432799f621aa951345f12b&#45;&gt;dir_a36da230f0956f48b11c85f7d599788f -->
<g id="edge23" class="edge">
<title>dir_f46c9d8bac432799f621aa951345f12b&#45;&gt;dir_a36da230f0956f48b11c85f7d599788f</title>
<path fill="none" stroke="#000000" d="M459.7831,-374.5629C430.1977,-369.2575 384.066,-356.0741 361,-324 316.4207,-262.011 326.9105,-165.4423 335.7454,-118.0963"/>
<polygon fill="#000000" stroke="#000000" points="339.1889,-118.7241 337.697,-108.2348 332.3221,-117.365 339.1889,-118.7241"/>
<g id="a_edge23&#45;headlabel"><a xlink:href="dir_000048_000006.html" target="_top" xlink:title="9">
<text text-anchor="middle" x="341.2764" y="-120.3015" font-family="Helvetica,sans-Serif" font-size="10.00" fill="#000000">9</text>
</a>
</g>
</g>
<!-- dir_39b8b3c6654246a9c12332c930bc7d3f&#45;&gt;dir_fc0178d6978c9fa2cad6ef3e048a60a7 -->
<g id="edge3" class="edge">
<title>dir_39b8b3c6654246a9c12332c930bc7d3f&#45;&gt;dir_fc0178d6978c9fa2cad6ef3e048a60a7</title>
<path fill="none" stroke="#000000" d="M416.839,-287.6094C433.5577,-264.1131 460.7204,-221.5004 471,-180 482.6765,-132.8599 463.3684,-77.5628 448.8167,-45.2883"/>
<polygon fill="#000000" stroke="#000000" points="451.9006,-43.6205 444.493,-36.0457 445.5601,-46.5867 451.9006,-43.6205"/>
<g id="a_edge3&#45;headlabel"><a xlink:href="dir_000049_000007.html" target="_top" xlink:title="32">
<text text-anchor="middle" x="455.9955" y="-43.1734" font-family="Helvetica,sans-Serif" font-size="10.00" fill="#000000">32</text>
</a>
</g>
</g>
<!-- dir_39b8b3c6654246a9c12332c930bc7d3f&#45;&gt;dir_c86b501450b8b8b59405c286cb030cc3 -->
<g id="edge4" class="edge">
<title>dir_39b8b3c6654246a9c12332c930bc7d3f&#45;&gt;dir_c86b501450b8b8b59405c286cb030cc3</title>
<path fill="none" stroke="#000000" d="M407.0528,-287.7623C412.5349,-263.0928 422.3645,-218.8598 428.7838,-189.9731"/>
<polygon fill="#000000" stroke="#000000" points="432.2274,-190.6108 430.9801,-180.0896 425.394,-189.0922 432.2274,-190.6108"/>
<g id="a_edge4&#45;headlabel"><a xlink:href="dir_000049_000069.html" target="_top" xlink:title="25">
<text text-anchor="middle" x="434.2193" y="-192.2357" font-family="Helvetica,sans-Serif" font-size="10.00" fill="#000000">25</text>
</a>
</g>
</g>
<!-- dir_39b8b3c6654246a9c12332c930bc7d3f&#45;&gt;dir_a36da230f0956f48b11c85f7d599788f -->
<g id="edge5" class="edge">
<title>dir_39b8b3c6654246a9c12332c930bc7d3f&#45;&gt;dir_a36da230f0956f48b11c85f7d599788f</title>
<path fill="none" stroke="#000000" d="M397.9041,-287.9555C387.2515,-250.235 362.5646,-162.8188 349.8622,-117.8399"/>
<polygon fill="#000000" stroke="#000000" points="353.2104,-116.8174 347.1243,-108.1451 346.4739,-118.7199 353.2104,-116.8174"/>
<g id="a_edge5&#45;headlabel"><a xlink:href="dir_000049_000006.html" target="_top" xlink:title="225">
<text text-anchor="middle" x="356.9197" y="-117.0051" font-family="Helvetica,sans-Serif" font-size="10.00" fill="#000000">225</text>
</a>
</g>
</g>
<!-- dir_39b8b3c6654246a9c12332c930bc7d3f&#45;&gt;dir_b7a0e33b407baa23d8a077e33033c988 -->
<g id="edge6" class="edge">
<title>dir_39b8b3c6654246a9c12332c930bc7d3f&#45;&gt;dir_b7a0e33b407baa23d8a077e33033c988</title>
<path fill="none" stroke="#000000" d="M369.7945,-293.1278C344.9637,-282.3925 311.1135,-266.8988 285.1827,-254.4645"/>
<polygon fill="#000000" stroke="#000000" points="286.5457,-251.236 276.019,-250.0364 283.5,-257.5387 286.5457,-251.236"/>
<g id="a_edge6&#45;headlabel"><a xlink:href="dir_000049_000073.html" target="_top" xlink:title="33">
<text text-anchor="middle" x="291.0175" y="-247.7434" font-family="Helvetica,sans-Serif" font-size="10.00" fill="#000000">33</text>
</a>
</g>
</g>
<!-- dir_fc0178d6978c9fa2cad6ef3e048a60a7&#45;&gt;dir_a36da230f0956f48b11c85f7d599788f -->
<g id="edge7" class="edge">
<title>dir_fc0178d6978c9fa2cad6ef3e048a60a7&#45;&gt;dir_a36da230f0956f48b11c85f7d599788f</title>
<path fill="none" stroke="#000000" d="M417.4915,-36.1628C406.8006,-45.1154 392.8501,-56.0374 379.8125,-65.6982"/>
<polygon fill="#000000" stroke="#000000" points="377.4289,-63.1051 371.4202,-71.8314 381.5591,-68.7568 377.4289,-63.1051"/>
<g id="a_edge7&#45;headlabel"><a xlink:href="dir_000007_000006.html" target="_top" xlink:title="60">
<text text-anchor="middle" x="378.6558" y="-56.1919" font-family="Helvetica,sans-Serif" font-size="10.00" fill="#000000">60</text>
</a>
</g>
</g>
<!-- dir_c86b501450b8b8b59405c286cb030cc3&#45;&gt;dir_fc0178d6978c9fa2cad6ef3e048a60a7 -->
<g id="edge13" class="edge">
<title>dir_c86b501450b8b8b59405c286cb030cc3&#45;&gt;dir_fc0178d6978c9fa2cad6ef3e048a60a7</title>
<path fill="none" stroke="#000000" d="M435,-143.7623C435,-119.201 435,-75.2474 435,-46.3541"/>
<polygon fill="#000000" stroke="#000000" points="438.5001,-46.0896 435,-36.0896 431.5001,-46.0897 438.5001,-46.0896"/>
<g id="a_edge13&#45;headlabel"><a xlink:href="dir_000069_000007.html" target="_top" xlink:title="2">
<text text-anchor="middle" x="441.3393" y="-47.1842" font-family="Helvetica,sans-Serif" font-size="10.00" fill="#000000">2</text>
</a>
</g>
</g>
<!-- dir_c86b501450b8b8b59405c286cb030cc3&#45;&gt;dir_a36da230f0956f48b11c85f7d599788f -->
<g id="edge14" class="edge">
<title>dir_c86b501450b8b8b59405c286cb030cc3&#45;&gt;dir_a36da230f0956f48b11c85f7d599788f</title>
<path fill="none" stroke="#000000" d="M411.5322,-143.8314C399.9673,-134.8779 385.8596,-123.9558 373.3817,-114.2955"/>
<polygon fill="#000000" stroke="#000000" points="375.5102,-111.5171 365.4603,-108.1628 371.225,-117.0521 375.5102,-111.5171"/>
<g id="a_edge14&#45;headlabel"><a xlink:href="dir_000069_000006.html" target="_top" xlink:title="81">
<text text-anchor="middle" x="380.0906" y="-108.9725" font-family="Helvetica,sans-Serif" font-size="10.00" fill="#000000">81</text>
</a>
</g>
</g>
<!-- dir_a36da230f0956f48b11c85f7d599788f&#45;&gt;dir_fc0178d6978c9fa2cad6ef3e048a60a7 -->
<g id="edge15" class="edge">
<title>dir_a36da230f0956f48b11c85f7d599788f&#45;&gt;dir_fc0178d6978c9fa2cad6ef3e048a60a7</title>
<path fill="none" stroke="#000000" d="M359.5154,-71.8314C370.8864,-62.3097 385.9428,-50.5615 399.6662,-40.4722"/>
<polygon fill="#000000" stroke="#000000" points="401.9489,-43.1404 407.9938,-34.4393 397.8422,-37.4717 401.9489,-43.1404"/>
<g id="a_edge15&#45;headlabel"><a xlink:href="dir_000006_000007.html" target="_top" xlink:title="1">
<text text-anchor="middle" x="400.7036" y="-45.0486" font-family="Helvetica,sans-Serif" font-size="10.00" fill="#000000">1</text>
</a>
</g>
</g>
<!-- dir_b7a0e33b407baa23d8a077e33033c988&#45;&gt;dir_39b8b3c6654246a9c12332c930bc7d3f -->
<g id="edge25" class="edge">
<title>dir_b7a0e33b407baa23d8a077e33033c988&#45;&gt;dir_39b8b3c6654246a9c12332c930bc7d3f</title>
<path fill="none" stroke="#000000" d="M276.4476,-245.2543C300.3324,-255.4909 334.1302,-270.8997 360.8451,-283.6363"/>
<polygon fill="#000000" stroke="#000000" points="359.4414,-286.8448 369.9712,-288.0171 362.4707,-280.5342 359.4414,-286.8448"/>
<g id="a_edge25&#45;headlabel"><a xlink:href="dir_000073_000049.html" target="_top" xlink:title="10">
<text text-anchor="middle" x="354.9721" y="-285.3489" font-family="Helvetica,sans-Serif" font-size="10.00" fill="#000000">10</text>
</a>
</g>
</g>
<!-- dir_b7a0e33b407baa23d8a077e33033c988&#45;&gt;dir_fc0178d6978c9fa2cad6ef3e048a60a7 -->
<g id="edge26" class="edge">
<title>dir_b7a0e33b407baa23d8a077e33033c988&#45;&gt;dir_fc0178d6978c9fa2cad6ef3e048a60a7</title>
<path fill="none" stroke="#000000" d="M247.8549,-215.9285C250.4463,-182.4344 260.8926,-110.6188 303,-72 329.8515,-47.3732 369.4473,-33.2159 398.2645,-25.6291"/>
<polygon fill="#000000" stroke="#000000" points="399.1112,-29.0252 407.9695,-23.2131 397.4201,-22.2325 399.1112,-29.0252"/>
<g id="a_edge26&#45;headlabel"><a xlink:href="dir_000073_000007.html" target="_top" xlink:title="11">
<text text-anchor="middle" x="396.3088" y="-30.1487" font-family="Helvetica,sans-Serif" font-size="10.00" fill="#000000">11</text>
</a>
</g>
</g>
<!-- dir_b7a0e33b407baa23d8a077e33033c988&#45;&gt;dir_c86b501450b8b8b59405c286cb030cc3 -->
<g id="edge27" class="edge">
<title>dir_b7a0e33b407baa23d8a077e33033c988&#45;&gt;dir_c86b501450b8b8b59405c286cb030cc3</title>
<path fill="none" stroke="#000000" d="M276.375,-222.75C309.3194,-210.133 362.7902,-189.6548 398.4198,-176.0094"/>
<polygon fill="#000000" stroke="#000000" points="399.8774,-179.1992 407.9641,-172.3542 397.3738,-172.6622 399.8774,-179.1992"/>
<g id="a_edge27&#45;headlabel"><a xlink:href="dir_000073_000069.html" target="_top" xlink:title="6">
<text text-anchor="middle" x="397.5359" y="-180.6362" font-family="Helvetica,sans-Serif" font-size="10.00" fill="#000000">6</text>
</a>
</g>
</g>
<!-- dir_b7a0e33b407baa23d8a077e33033c988&#45;&gt;dir_a36da230f0956f48b11c85f7d599788f -->
<g id="edge28" class="edge">
<title>dir_b7a0e33b407baa23d8a077e33033c988&#45;&gt;dir_a36da230f0956f48b11c85f7d599788f</title>
<path fill="none" stroke="#000000" d="M253.6709,-215.8336C261.0442,-196.9723 274.0185,-167.0559 290,-144 296.9963,-133.9068 305.8997,-123.9177 314.3539,-115.3272"/>
<polygon fill="#000000" stroke="#000000" points="316.9474,-117.6851 321.6084,-108.1706 312.0314,-112.7018 316.9474,-117.6851"/>
<g id="a_edge28&#45;headlabel"><a xlink:href="dir_000073_000006.html" target="_top" xlink:title="371">
<text text-anchor="middle" x="316.3824" y="-119.7308" font-family="Helvetica,sans-Serif" font-size="10.00" fill="#000000">371</text>
</a>
</g>
</g>
</g>
</svg>
