<?xml version="1.0" encoding="UTF-8" standalone="no"?>
<!DOCTYPE svg PUBLIC "-//W3C//DTD SVG 1.1//EN"
 "http://www.w3.org/Graphics/SVG/1.1/DTD/svg11.dtd">
<!-- Generated by graphviz version 2.40.1 (20161225.0304)
 -->
<!-- Title: drake/systems/framework Pages: 1 -->
<svg width="222pt" height="159pt"
 viewBox="0.00 0.00 222.00 159.00" xmlns="http://www.w3.org/2000/svg" xmlns:xlink="http://www.w3.org/1999/xlink">
<g id="graph0" class="graph" transform="scale(1 1) rotate(0) translate(4 155)">
<title>drake/systems/framework</title>
<polygon fill="#ffffff" stroke="transparent" points="-4,4 -4,-155 218,-155 218,4 -4,4"/>
<g id="clust1" class="cluster">
<title>clusterdir_b7a0e33b407baa23d8a077e33033c988</title>
<g id="a_clust1"><a xlink:href="dir_b7a0e33b407baa23d8a077e33033c988.html" target="_top" xlink:title="systems">
<polygon fill="#ddddee" stroke="#000000" points="8,-56 8,-143 206,-143 206,-56 8,-56"/>
<text text-anchor="middle" x="107" y="-131" font-family="Helvetica,sans-Serif" font-size="10.00" fill="#000000">systems</text>
</a>
</g>
</g>
<g id="clust2" class="cluster">
<title>clusterdir_2186f45272e5c29e3ac18ec762ab7501</title>
<g id="a_clust2"><a xlink:href="dir_2186f45272e5c29e3ac18ec762ab7501.html" target="_top">
<polygon fill="#eeeeff" stroke="#000000" points="16,-64 16,-116 198,-116 198,-64 16,-64"/>
</a>
</g>
</g>
<!-- dir_2186f45272e5c29e3ac18ec762ab7501 -->
<g id="node1" class="node">
<title>dir_2186f45272e5c29e3ac18ec762ab7501</title>
<text text-anchor="middle" x="155" y="-87.5" font-family="Helvetica,sans-Serif" font-size="10.00" fill="#000000">framework</text>
</g>
<!-- dir_a36da230f0956f48b11c85f7d599788f -->
<g id="node3" class="node">
<title>dir_a36da230f0956f48b11c85f7d599788f</title>
<g id="a_node3"><a xlink:href="dir_a36da230f0956f48b11c85f7d599788f.html" target="_top" xlink:title="common">
<polygon fill="#ffffff" stroke="#ff0000" points="138.5,-36 79.5,-36 79.5,0 138.5,0 138.5,-36"/>
<text text-anchor="middle" x="109" y="-15.5" font-family="Helvetica,sans-Serif" font-size="10.00" fill="#000000">common</text>
</a>
</g>
</g>
<!-- dir_2186f45272e5c29e3ac18ec762ab7501&#45;&gt;dir_a36da230f0956f48b11c85f7d599788f -->
<g id="edge2" class="edge">
<title>dir_2186f45272e5c29e3ac18ec762ab7501&#45;&gt;dir_a36da230f0956f48b11c85f7d599788f</title>
<path fill="none" stroke="#000000" d="M143.3923,-71.8314C138.2022,-63.7079 131.9768,-53.9637 126.2575,-45.0118"/>
<polygon fill="#000000" stroke="#000000" points="129.0974,-42.9559 120.764,-36.4133 123.1985,-46.7246 129.0974,-42.9559"/>
<g id="a_edge2&#45;headlabel"><a xlink:href="dir_000079_000006.html" target="_top" xlink:title="173">
<text text-anchor="middle" x="133.4253" y="-41.9564" font-family="Helvetica,sans-Serif" font-size="10.00" fill="#000000">173</text>
</a>
</g>
</g>
<!-- dir_d3895d447a0b4ed0132fd543feb284e9 -->
<g id="node2" class="node">
<title>dir_d3895d447a0b4ed0132fd543feb284e9</title>
<g id="a_node2"><a xlink:href="dir_d3895d447a0b4ed0132fd543feb284e9.html" target="_top" xlink:title="test_utilities">
<polygon fill="#ffffff" stroke="#000000" points="101.5,-108 24.5,-108 24.5,-72 101.5,-72 101.5,-108"/>
<text text-anchor="middle" x="63" y="-87.5" font-family="Helvetica,sans-Serif" font-size="10.00" fill="#000000">test_utilities</text>
</a>
</g>
</g>
<!-- dir_d3895d447a0b4ed0132fd543feb284e9&#45;&gt;dir_a36da230f0956f48b11c85f7d599788f -->
<g id="edge1" class="edge">
<title>dir_d3895d447a0b4ed0132fd543feb284e9&#45;&gt;dir_a36da230f0956f48b11c85f7d599788f</title>
<path fill="none" stroke="#000000" d="M74.6077,-71.8314C79.7978,-63.7079 86.0232,-53.9637 91.7425,-45.0118"/>
<polygon fill="#000000" stroke="#000000" points="94.8015,-46.7246 97.236,-36.4133 88.9026,-42.9559 94.8015,-46.7246"/>
<g id="a_edge1&#45;headlabel"><a xlink:href="dir_000080_000006.html" target="_top" xlink:title="7">
<text text-anchor="middle" x="95.2589" y="-48.7824" font-family="Helvetica,sans-Serif" font-size="10.00" fill="#000000">7</text>
</a>
</g>
</g>
</g>
</svg>
