<?xml version="1.0" encoding="UTF-8" standalone="no"?>
<!DOCTYPE svg PUBLIC "-//W3C//DTD SVG 1.1//EN"
 "http://www.w3.org/Graphics/SVG/1.1/DTD/svg11.dtd">
<!-- Generated by graphviz version 2.40.1 (20161225.0304)
 -->
<!-- Title: drake/solvers/fbstab/components Pages: 1 -->
<svg width="118pt" height="151pt"
 viewBox="0.00 0.00 118.00 151.00" xmlns="http://www.w3.org/2000/svg" xmlns:xlink="http://www.w3.org/1999/xlink">
<g id="graph0" class="graph" transform="scale(1 1) rotate(0) translate(4 147)">
<title>drake/solvers/fbstab/components</title>
<polygon fill="#ffffff" stroke="transparent" points="-4,4 -4,-147 114,-147 114,4 -4,4"/>
<g id="clust1" class="cluster">
<title>clusterdir_fb9a140248c02c8b3a74e805be9cb92d</title>
<g id="a_clust1"><a xlink:href="dir_fb9a140248c02c8b3a74e805be9cb92d.html" target="_top" xlink:title="fbstab">
<polygon fill="#ddddee" stroke="#000000" points="8,-64 8,-135 102,-135 102,-64 8,-64"/>
<text text-anchor="middle" x="55" y="-123" font-family="Helvetica,sans-Serif" font-size="10.00" fill="#000000">fbstab</text>
</a>
</g>
</g>
<!-- dir_e40d16ce0a19d8334ee3d7fe9c80dfbb -->
<g id="node1" class="node">
<title>dir_e40d16ce0a19d8334ee3d7fe9c80dfbb</title>
<g id="a_node1"><a xlink:href="dir_e40d16ce0a19d8334ee3d7fe9c80dfbb.html" target="_top" xlink:title="components">
<polygon fill="#eeeeff" stroke="#000000" points="93.5,-108 16.5,-108 16.5,-72 93.5,-72 93.5,-108"/>
<text text-anchor="middle" x="55" y="-87.5" font-family="Helvetica,sans-Serif" font-size="10.00" fill="#000000">components</text>
</a>
</g>
</g>
<!-- dir_a36da230f0956f48b11c85f7d599788f -->
<g id="node2" class="node">
<title>dir_a36da230f0956f48b11c85f7d599788f</title>
<g id="a_node2"><a xlink:href="dir_a36da230f0956f48b11c85f7d599788f.html" target="_top" xlink:title="common">
<polygon fill="#ffffff" stroke="#ff0000" points="84.5,-36 25.5,-36 25.5,0 84.5,0 84.5,-36"/>
<text text-anchor="middle" x="55" y="-15.5" font-family="Helvetica,sans-Serif" font-size="10.00" fill="#000000">common</text>
</a>
</g>
</g>
<!-- dir_e40d16ce0a19d8334ee3d7fe9c80dfbb&#45;&gt;dir_a36da230f0956f48b11c85f7d599788f -->
<g id="edge1" class="edge">
<title>dir_e40d16ce0a19d8334ee3d7fe9c80dfbb&#45;&gt;dir_a36da230f0956f48b11c85f7d599788f</title>
<path fill="none" stroke="#000000" d="M55,-71.8314C55,-64.131 55,-54.9743 55,-46.4166"/>
<polygon fill="#000000" stroke="#000000" points="58.5001,-46.4132 55,-36.4133 51.5001,-46.4133 58.5001,-46.4132"/>
<g id="a_edge1&#45;headlabel"><a xlink:href="dir_000072_000006.html" target="_top" xlink:title="10">
<text text-anchor="middle" x="61.3393" y="-47.5079" font-family="Helvetica,sans-Serif" font-size="10.00" fill="#000000">10</text>
</a>
</g>
</g>
</g>
</svg>
