<?xml version="1.0" encoding="UTF-8" standalone="no"?>
<!DOCTYPE svg PUBLIC "-//W3C//DTD SVG 1.1//EN"
 "http://www.w3.org/Graphics/SVG/1.1/DTD/svg11.dtd">
<!-- Generated by graphviz version 2.40.1 (20161225.0304)
 -->
<!-- Title: drake/multibody/benchmarks/pendulum Pages: 1 -->
<svg width="166pt" height="367pt"
 viewBox="0.00 0.00 165.83 367.00" xmlns="http://www.w3.org/2000/svg" xmlns:xlink="http://www.w3.org/1999/xlink">
<g id="graph0" class="graph" transform="scale(1 1) rotate(0) translate(4 363)">
<title>drake/multibody/benchmarks/pendulum</title>
<polygon fill="#ffffff" stroke="transparent" points="-4,4 -4,-363 161.8276,-363 161.8276,4 -4,4"/>
<g id="clust1" class="cluster">
<title>clusterdir_5d8dbe7a82c2c188fa06f6391bb290bd</title>
<g id="a_clust1"><a xlink:href="dir_5d8dbe7a82c2c188fa06f6391bb290bd.html" target="_top" xlink:title="benchmarks">
<polygon fill="#ddddee" stroke="#000000" points="43.8276,-280 43.8276,-351 125.8276,-351 125.8276,-280 43.8276,-280"/>
<text text-anchor="middle" x="84.8276" y="-339" font-family="Helvetica,sans-Serif" font-size="10.00" fill="#000000">benchmarks</text>
</a>
</g>
</g>
<!-- dir_0e1ecb96e57b1c1f48b2887ea5038a05 -->
<g id="node1" class="node">
<title>dir_0e1ecb96e57b1c1f48b2887ea5038a05</title>
<g id="a_node1"><a xlink:href="dir_0e1ecb96e57b1c1f48b2887ea5038a05.html" target="_top" xlink:title="pendulum">
<polygon fill="#eeeeff" stroke="#000000" points="117.3276,-324 52.3276,-324 52.3276,-288 117.3276,-288 117.3276,-324"/>
<text text-anchor="middle" x="84.8276" y="-303.5" font-family="Helvetica,sans-Serif" font-size="10.00" fill="#000000">pendulum</text>
</a>
</g>
</g>
<!-- dir_a36da230f0956f48b11c85f7d599788f -->
<g id="node2" class="node">
<title>dir_a36da230f0956f48b11c85f7d599788f</title>
<g id="a_node2"><a xlink:href="dir_a36da230f0956f48b11c85f7d599788f.html" target="_top" xlink:title="common">
<polygon fill="#ffffff" stroke="#ff0000" points="86.3276,-36 27.3276,-36 27.3276,0 86.3276,0 86.3276,-36"/>
<text text-anchor="middle" x="56.8276" y="-15.5" font-family="Helvetica,sans-Serif" font-size="10.00" fill="#000000">common</text>
</a>
</g>
</g>
<!-- dir_0e1ecb96e57b1c1f48b2887ea5038a05&#45;&gt;dir_a36da230f0956f48b11c85f7d599788f -->
<g id="edge1" class="edge">
<title>dir_0e1ecb96e57b1c1f48b2887ea5038a05&#45;&gt;dir_a36da230f0956f48b11c85f7d599788f</title>
<path fill="none" stroke="#000000" d="M52.2524,-290.1151C37.6641,-281.1243 21.945,-268.3722 13.8276,-252 -20.4314,-182.9021 18.1598,-90.1166 41.5568,-44.9563"/>
<polygon fill="#000000" stroke="#000000" points="44.6786,-46.5401 46.2871,-36.0681 38.4992,-43.2514 44.6786,-46.5401"/>
<g id="a_edge1&#45;headlabel"><a xlink:href="dir_000055_000006.html" target="_top" xlink:title="1">
<text text-anchor="middle" x="45.4963" y="-48.5472" font-family="Helvetica,sans-Serif" font-size="10.00" fill="#000000">1</text>
</a>
</g>
</g>
<!-- dir_d739e095b49d8b72164589d00310017d -->
<g id="node3" class="node">
<title>dir_d739e095b49d8b72164589d00310017d</title>
<g id="a_node3"><a xlink:href="dir_d739e095b49d8b72164589d00310017d.html" target="_top" xlink:title="geometry">
<polygon fill="#ffffff" stroke="#ff0000" points="86.8276,-252 22.8276,-252 22.8276,-216 86.8276,-216 86.8276,-252"/>
<text text-anchor="middle" x="54.8276" y="-231.5" font-family="Helvetica,sans-Serif" font-size="10.00" fill="#000000">geometry</text>
</a>
</g>
</g>
<!-- dir_0e1ecb96e57b1c1f48b2887ea5038a05&#45;&gt;dir_d739e095b49d8b72164589d00310017d -->
<g id="edge2" class="edge">
<title>dir_0e1ecb96e57b1c1f48b2887ea5038a05&#45;&gt;dir_d739e095b49d8b72164589d00310017d</title>
<path fill="none" stroke="#000000" d="M77.2573,-287.8314C73.9783,-279.9617 70.0656,-270.5712 66.4331,-261.8533"/>
<polygon fill="#000000" stroke="#000000" points="69.5768,-260.2979 62.4998,-252.4133 63.1152,-262.9902 69.5768,-260.2979"/>
<g id="a_edge2&#45;headlabel"><a xlink:href="dir_000055_000033.html" target="_top" xlink:title="1">
<text text-anchor="middle" x="73.5801" y="-260.024" font-family="Helvetica,sans-Serif" font-size="10.00" fill="#000000">1</text>
</a>
</g>
</g>
<!-- dir_3f9cb8dbb3b4911cb2ecb548acd672c3 -->
<g id="node4" class="node">
<title>dir_3f9cb8dbb3b4911cb2ecb548acd672c3</title>
<g id="a_node4"><a xlink:href="dir_3f9cb8dbb3b4911cb2ecb548acd672c3.html" target="_top" xlink:title="tree">
<polygon fill="none" stroke="#000000" points="157.8276,-108 103.8276,-108 103.8276,-72 157.8276,-72 157.8276,-108"/>
<text text-anchor="middle" x="130.8276" y="-87.5" font-family="Helvetica,sans-Serif" font-size="10.00" fill="#000000">tree</text>
</a>
</g>
</g>
<!-- dir_0e1ecb96e57b1c1f48b2887ea5038a05&#45;&gt;dir_3f9cb8dbb3b4911cb2ecb548acd672c3 -->
<g id="edge3" class="edge">
<title>dir_0e1ecb96e57b1c1f48b2887ea5038a05&#45;&gt;dir_3f9cb8dbb3b4911cb2ecb548acd672c3</title>
<path fill="none" stroke="#000000" d="M94.6845,-287.9057C100.0028,-277.6037 106.3709,-264.3297 110.8276,-252 122.0404,-220.9795 124.434,-212.6909 128.8276,-180 131.599,-159.3795 132.0289,-135.8673 131.8031,-118.0471"/>
<polygon fill="#000000" stroke="#000000" points="135.3019,-117.9481 131.6,-108.0211 128.3033,-118.0899 135.3019,-117.9481"/>
<g id="a_edge3&#45;headlabel"><a xlink:href="dir_000055_000065.html" target="_top" xlink:title="1">
<text text-anchor="middle" x="138.2132" y="-118.9846" font-family="Helvetica,sans-Serif" font-size="10.00" fill="#000000">1</text>
</a>
</g>
</g>
<!-- dir_656f7d340c0f5b4ecaf881820f2aea38 -->
<g id="node5" class="node">
<title>dir_656f7d340c0f5b4ecaf881820f2aea38</title>
<g id="a_node5"><a xlink:href="dir_656f7d340c0f5b4ecaf881820f2aea38.html" target="_top" xlink:title="plant">
<polygon fill="none" stroke="#000000" points="119.8276,-180 65.8276,-180 65.8276,-144 119.8276,-144 119.8276,-180"/>
<text text-anchor="middle" x="92.8276" y="-159.5" font-family="Helvetica,sans-Serif" font-size="10.00" fill="#000000">plant</text>
</a>
</g>
</g>
<!-- dir_0e1ecb96e57b1c1f48b2887ea5038a05&#45;&gt;dir_656f7d340c0f5b4ecaf881820f2aea38 -->
<g id="edge4" class="edge">
<title>dir_0e1ecb96e57b1c1f48b2887ea5038a05&#45;&gt;dir_656f7d340c0f5b4ecaf881820f2aea38</title>
<path fill="none" stroke="#000000" d="M89.521,-287.6463C91.9348,-277.2631 94.6184,-263.9943 95.8276,-252 97.9022,-231.4221 97.0315,-208.0777 95.7055,-190.3214"/>
<polygon fill="#000000" stroke="#000000" points="99.1903,-189.9923 94.8673,-180.3196 92.2147,-190.577 99.1903,-189.9923"/>
<g id="a_edge4&#45;headlabel"><a xlink:href="dir_000055_000062.html" target="_top" xlink:title="1">
<text text-anchor="middle" x="102.3198" y="-190.8373" font-family="Helvetica,sans-Serif" font-size="10.00" fill="#000000">1</text>
</a>
</g>
</g>
<!-- dir_d739e095b49d8b72164589d00310017d&#45;&gt;dir_a36da230f0956f48b11c85f7d599788f -->
<g id="edge5" class="edge">
<title>dir_d739e095b49d8b72164589d00310017d&#45;&gt;dir_a36da230f0956f48b11c85f7d599788f</title>
<path fill="none" stroke="#000000" d="M54.9947,-215.9555C55.3425,-178.3938 56.1466,-91.5541 56.5645,-46.4103"/>
<polygon fill="#000000" stroke="#000000" points="60.0668,-46.1771 56.6596,-36.1451 53.0671,-46.1122 60.0668,-46.1771"/>
<g id="a_edge5&#45;headlabel"><a xlink:href="dir_000033_000006.html" target="_top" xlink:title="108">
<text text-anchor="middle" x="62.8727" y="-47.2978" font-family="Helvetica,sans-Serif" font-size="10.00" fill="#000000">108</text>
</a>
</g>
</g>
<!-- dir_d739e095b49d8b72164589d00310017d&#45;&gt;dir_656f7d340c0f5b4ecaf881820f2aea38 -->
<g id="edge6" class="edge">
<title>dir_d739e095b49d8b72164589d00310017d&#45;&gt;dir_656f7d340c0f5b4ecaf881820f2aea38</title>
<path fill="none" stroke="#000000" d="M58.4642,-215.8314C61.96,-207.7079 66.9004,-197.9637 72.012,-189.0118"/>
<polygon fill="#000000" stroke="#000000" points="75.0231,-190.7958 77.1335,-180.4133 69.0091,-187.2137 75.0231,-190.7958"/>
<g id="a_edge6&#45;headlabel"><a xlink:href="dir_000033_000062.html" target="_top" xlink:title="1">
<text text-anchor="middle" x="75.6231" y="-192.837" font-family="Helvetica,sans-Serif" font-size="10.00" fill="#000000">1</text>
</a>
</g>
</g>
<!-- dir_3f9cb8dbb3b4911cb2ecb548acd672c3&#45;&gt;dir_a36da230f0956f48b11c85f7d599788f -->
<g id="edge7" class="edge">
<title>dir_3f9cb8dbb3b4911cb2ecb548acd672c3&#45;&gt;dir_a36da230f0956f48b11c85f7d599788f</title>
<path fill="none" stroke="#000000" d="M112.1543,-71.8314C103.3027,-63.219 92.579,-52.7851 82.9381,-43.4048"/>
<polygon fill="#000000" stroke="#000000" points="85.103,-40.6279 75.495,-36.1628 80.2215,-45.645 85.103,-40.6279"/>
<g id="a_edge7&#45;headlabel"><a xlink:href="dir_000065_000006.html" target="_top" xlink:title="140">
<text text-anchor="middle" x="89.6593" y="-38.5996" font-family="Helvetica,sans-Serif" font-size="10.00" fill="#000000">140</text>
</a>
</g>
</g>
<!-- dir_656f7d340c0f5b4ecaf881820f2aea38&#45;&gt;dir_a36da230f0956f48b11c85f7d599788f -->
<g id="edge8" class="edge">
<title>dir_656f7d340c0f5b4ecaf881820f2aea38&#45;&gt;dir_a36da230f0956f48b11c85f7d599788f</title>
<path fill="none" stroke="#000000" d="M88.2682,-143.7623C82.1008,-119.0928 71.0426,-74.8598 63.8209,-45.9731"/>
<polygon fill="#000000" stroke="#000000" points="67.1709,-44.9421 61.35,-36.0896 60.3799,-46.6399 67.1709,-44.9421"/>
<g id="a_edge8&#45;headlabel"><a xlink:href="dir_000062_000006.html" target="_top" xlink:title="33">
<text text-anchor="middle" x="70.7972" y="-45.2408" font-family="Helvetica,sans-Serif" font-size="10.00" fill="#000000">33</text>
</a>
</g>
</g>
<!-- dir_656f7d340c0f5b4ecaf881820f2aea38&#45;&gt;dir_d739e095b49d8b72164589d00310017d -->
<g id="edge9" class="edge">
<title>dir_656f7d340c0f5b4ecaf881820f2aea38&#45;&gt;dir_d739e095b49d8b72164589d00310017d</title>
<path fill="none" stroke="#000000" d="M89.0855,-180.4133C85.5977,-188.484 80.7076,-198.1182 75.6494,-206.9775"/>
<polygon fill="#000000" stroke="#000000" points="72.4852,-205.45 70.369,-215.8314 78.4972,-209.0355 72.4852,-205.45"/>
<g id="a_edge9&#45;headlabel"><a xlink:href="dir_000062_000033.html" target="_top" xlink:title="7">
<text text-anchor="middle" x="71.8878" y="-198.4085" font-family="Helvetica,sans-Serif" font-size="10.00" fill="#000000">7</text>
</a>
</g>
</g>
<!-- dir_656f7d340c0f5b4ecaf881820f2aea38&#45;&gt;dir_3f9cb8dbb3b4911cb2ecb548acd672c3 -->
<g id="edge10" class="edge">
<title>dir_656f7d340c0f5b4ecaf881820f2aea38&#45;&gt;dir_3f9cb8dbb3b4911cb2ecb548acd672c3</title>
<path fill="none" stroke="#000000" d="M102.4166,-143.8314C106.6594,-135.7925 111.7397,-126.1666 116.4236,-117.2918"/>
<polygon fill="#000000" stroke="#000000" points="119.5372,-118.8908 121.1095,-108.4133 113.3465,-115.6235 119.5372,-118.8908"/>
<g id="a_edge10&#45;headlabel"><a xlink:href="dir_000062_000065.html" target="_top" xlink:title="8">
<text text-anchor="middle" x="120.3704" y="-120.895" font-family="Helvetica,sans-Serif" font-size="10.00" fill="#000000">8</text>
</a>
</g>
</g>
</g>
</svg>
