<?xml version="1.0" encoding="UTF-8" standalone="no"?>
<!DOCTYPE svg PUBLIC "-//W3C//DTD SVG 1.1//EN"
 "http://www.w3.org/Graphics/SVG/1.1/DTD/svg11.dtd">
<!-- Generated by graphviz version 2.40.1 (20161225.0304)
 -->
<!-- Title: drake/common/schema Pages: 1 -->
<svg width="96pt" height="151pt"
 viewBox="0.00 0.00 96.00 151.00" xmlns="http://www.w3.org/2000/svg" xmlns:xlink="http://www.w3.org/1999/xlink">
<g id="graph0" class="graph" transform="scale(1 1) rotate(0) translate(4 147)">
<title>drake/common/schema</title>
<polygon fill="#ffffff" stroke="transparent" points="-4,4 -4,-147 92,-147 92,4 -4,4"/>
<g id="clust1" class="cluster">
<title>clusterdir_a36da230f0956f48b11c85f7d599788f</title>
<g id="a_clust1"><a xlink:href="dir_a36da230f0956f48b11c85f7d599788f.html" target="_top" xlink:title="common">
<polygon fill="#ddddee" stroke="#000000" points="8,-64 8,-135 80,-135 80,-64 8,-64"/>
<text text-anchor="middle" x="44" y="-123" font-family="Helvetica,sans-Serif" font-size="10.00" fill="#000000">common</text>
</a>
</g>
</g>
<!-- dir_a361a47504c6f179d0e8aaa8b79dec3e -->
<g id="node1" class="node">
<title>dir_a361a47504c6f179d0e8aaa8b79dec3e</title>
<g id="a_node1"><a xlink:href="dir_a361a47504c6f179d0e8aaa8b79dec3e.html" target="_top" xlink:title="schema">
<polygon fill="#eeeeff" stroke="#000000" points="71.5,-108 16.5,-108 16.5,-72 71.5,-72 71.5,-108"/>
<text text-anchor="middle" x="44" y="-87.5" font-family="Helvetica,sans-Serif" font-size="10.00" fill="#000000">schema</text>
</a>
</g>
</g>
<!-- dir_fc0178d6978c9fa2cad6ef3e048a60a7 -->
<g id="node2" class="node">
<title>dir_fc0178d6978c9fa2cad6ef3e048a60a7</title>
<g id="a_node2"><a xlink:href="dir_fc0178d6978c9fa2cad6ef3e048a60a7.html" target="_top" xlink:title="math">
<polygon fill="none" stroke="#000000" points="71,-36 17,-36 17,0 71,0 71,-36"/>
<text text-anchor="middle" x="44" y="-15.5" font-family="Helvetica,sans-Serif" font-size="10.00" fill="#000000">math</text>
</a>
</g>
</g>
<!-- dir_a361a47504c6f179d0e8aaa8b79dec3e&#45;&gt;dir_fc0178d6978c9fa2cad6ef3e048a60a7 -->
<g id="edge1" class="edge">
<title>dir_a361a47504c6f179d0e8aaa8b79dec3e&#45;&gt;dir_fc0178d6978c9fa2cad6ef3e048a60a7</title>
<path fill="none" stroke="#000000" d="M44,-71.8314C44,-64.131 44,-54.9743 44,-46.4166"/>
<polygon fill="#000000" stroke="#000000" points="47.5001,-46.4132 44,-36.4133 40.5001,-46.4133 47.5001,-46.4132"/>
<g id="a_edge1&#45;headlabel"><a xlink:href="dir_000009_000007.html" target="_top" xlink:title="3">
<text text-anchor="middle" x="50.3393" y="-47.5079" font-family="Helvetica,sans-Serif" font-size="10.00" fill="#000000">3</text>
</a>
</g>
</g>
</g>
</svg>
