<?xml version="1.0" encoding="UTF-8" standalone="no"?>
<!DOCTYPE svg PUBLIC "-//W3C//DTD SVG 1.1//EN"
 "http://www.w3.org/Graphics/SVG/1.1/DTD/svg11.dtd">
<!-- Generated by graphviz version 2.40.1 (20161225.0304)
 -->
<!-- Title: drake/geometry/query_results Pages: 1 -->
<svg width="190pt" height="223pt"
 viewBox="0.00 0.00 190.00 223.00" xmlns="http://www.w3.org/2000/svg" xmlns:xlink="http://www.w3.org/1999/xlink">
<g id="graph0" class="graph" transform="scale(1 1) rotate(0) translate(4 219)">
<title>drake/geometry/query_results</title>
<polygon fill="#ffffff" stroke="transparent" points="-4,4 -4,-219 186,-219 186,4 -4,4"/>
<g id="clust1" class="cluster">
<title>clusterdir_d739e095b49d8b72164589d00310017d</title>
<g id="a_clust1"><a xlink:href="dir_d739e095b49d8b72164589d00310017d.html" target="_top" xlink:title="geometry">
<polygon fill="#ddddee" stroke="#000000" points="8,-136 8,-207 108,-207 108,-136 8,-136"/>
<text text-anchor="middle" x="58" y="-195" font-family="Helvetica,sans-Serif" font-size="10.00" fill="#000000">geometry</text>
</a>
</g>
</g>
<!-- dir_3ff34c62de56b2df4097a6c50ce2d7ff -->
<g id="node1" class="node">
<title>dir_3ff34c62de56b2df4097a6c50ce2d7ff</title>
<g id="a_node1"><a xlink:href="dir_3ff34c62de56b2df4097a6c50ce2d7ff.html" target="_top" xlink:title="query_results">
<polygon fill="#eeeeff" stroke="#000000" points="99.5,-180 16.5,-180 16.5,-144 99.5,-144 99.5,-180"/>
<text text-anchor="middle" x="58" y="-159.5" font-family="Helvetica,sans-Serif" font-size="10.00" fill="#000000">query_results</text>
</a>
</g>
</g>
<!-- dir_fc0178d6978c9fa2cad6ef3e048a60a7 -->
<g id="node2" class="node">
<title>dir_fc0178d6978c9fa2cad6ef3e048a60a7</title>
<g id="a_node2"><a xlink:href="dir_fc0178d6978c9fa2cad6ef3e048a60a7.html" target="_top" xlink:title="math">
<polygon fill="none" stroke="#000000" points="131,-108 77,-108 77,-72 131,-72 131,-108"/>
<text text-anchor="middle" x="104" y="-87.5" font-family="Helvetica,sans-Serif" font-size="10.00" fill="#000000">math</text>
</a>
</g>
</g>
<!-- dir_3ff34c62de56b2df4097a6c50ce2d7ff&#45;&gt;dir_fc0178d6978c9fa2cad6ef3e048a60a7 -->
<g id="edge1" class="edge">
<title>dir_3ff34c62de56b2df4097a6c50ce2d7ff&#45;&gt;dir_fc0178d6978c9fa2cad6ef3e048a60a7</title>
<path fill="none" stroke="#000000" d="M69.6077,-143.8314C74.7978,-135.7079 81.0232,-125.9637 86.7425,-117.0118"/>
<polygon fill="#000000" stroke="#000000" points="89.8015,-118.7246 92.236,-108.4133 83.9026,-114.9559 89.8015,-118.7246"/>
<g id="a_edge1&#45;headlabel"><a xlink:href="dir_000035_000007.html" target="_top" xlink:title="1">
<text text-anchor="middle" x="90.2589" y="-120.7824" font-family="Helvetica,sans-Serif" font-size="10.00" fill="#000000">1</text>
</a>
</g>
</g>
<!-- dir_a36da230f0956f48b11c85f7d599788f -->
<g id="node3" class="node">
<title>dir_a36da230f0956f48b11c85f7d599788f</title>
<g id="a_node3"><a xlink:href="dir_a36da230f0956f48b11c85f7d599788f.html" target="_top" xlink:title="common">
<polygon fill="#ffffff" stroke="#ff0000" points="133.5,-36 74.5,-36 74.5,0 133.5,0 133.5,-36"/>
<text text-anchor="middle" x="104" y="-15.5" font-family="Helvetica,sans-Serif" font-size="10.00" fill="#000000">common</text>
</a>
</g>
</g>
<!-- dir_3ff34c62de56b2df4097a6c50ce2d7ff&#45;&gt;dir_a36da230f0956f48b11c85f7d599788f -->
<g id="edge2" class="edge">
<title>dir_3ff34c62de56b2df4097a6c50ce2d7ff&#45;&gt;dir_a36da230f0956f48b11c85f7d599788f</title>
<path fill="none" stroke="#000000" d="M57.5302,-143.842C57.6151,-125.248 59.3368,-95.7823 68,-72 71.4919,-62.414 77.0173,-52.8535 82.701,-44.4998"/>
<polygon fill="#000000" stroke="#000000" points="85.613,-46.445 88.6025,-36.2807 79.927,-42.3622 85.613,-46.445"/>
<g id="a_edge2&#45;headlabel"><a xlink:href="dir_000035_000006.html" target="_top" xlink:title="10">
<text text-anchor="middle" x="85.8228" y="-48.5209" font-family="Helvetica,sans-Serif" font-size="10.00" fill="#000000">10</text>
</a>
</g>
</g>
<!-- dir_ffd084df0f71d68f8337a7d6f3dcd2dc -->
<g id="node4" class="node">
<title>dir_ffd084df0f71d68f8337a7d6f3dcd2dc</title>
<g id="a_node4"><a xlink:href="dir_ffd084df0f71d68f8337a7d6f3dcd2dc.html" target="_top" xlink:title="proximity">
<polygon fill="none" stroke="#000000" points="182,-180 118,-180 118,-144 182,-144 182,-180"/>
<text text-anchor="middle" x="150" y="-159.5" font-family="Helvetica,sans-Serif" font-size="10.00" fill="#000000">proximity</text>
</a>
</g>
</g>
<!-- dir_3ff34c62de56b2df4097a6c50ce2d7ff&#45;&gt;dir_ffd084df0f71d68f8337a7d6f3dcd2dc -->
<g id="edge3" class="edge">
<title>dir_3ff34c62de56b2df4097a6c50ce2d7ff&#45;&gt;dir_ffd084df0f71d68f8337a7d6f3dcd2dc</title>
<path fill="none" stroke="#000000" d="M99.6875,-162C102.3243,-162 104.9611,-162 107.598,-162"/>
<polygon fill="#000000" stroke="#000000" points="107.7686,-165.5001 117.7686,-162 107.7685,-158.5001 107.7686,-165.5001"/>
<g id="a_edge3&#45;headlabel"><a xlink:href="dir_000035_000034.html" target="_top" xlink:title="2">
<text text-anchor="middle" x="104.1739" y="-165.8393" font-family="Helvetica,sans-Serif" font-size="10.00" fill="#000000">2</text>
</a>
</g>
</g>
<!-- dir_fc0178d6978c9fa2cad6ef3e048a60a7&#45;&gt;dir_a36da230f0956f48b11c85f7d599788f -->
<g id="edge4" class="edge">
<title>dir_fc0178d6978c9fa2cad6ef3e048a60a7&#45;&gt;dir_a36da230f0956f48b11c85f7d599788f</title>
<path fill="none" stroke="#000000" d="M98.0476,-71.8314C97.2972,-64.131 97.0763,-54.9743 97.3849,-46.4166"/>
<polygon fill="#000000" stroke="#000000" points="100.8792,-46.6161 98.024,-36.4133 93.8935,-46.1697 100.8792,-46.6161"/>
<g id="a_edge4&#45;headlabel"><a xlink:href="dir_000007_000006.html" target="_top" xlink:title="60">
<text text-anchor="middle" x="103.4836" y="-47.8844" font-family="Helvetica,sans-Serif" font-size="10.00" fill="#000000">60</text>
</a>
</g>
</g>
<!-- dir_a36da230f0956f48b11c85f7d599788f&#45;&gt;dir_fc0178d6978c9fa2cad6ef3e048a60a7 -->
<g id="edge5" class="edge">
<title>dir_a36da230f0956f48b11c85f7d599788f&#45;&gt;dir_fc0178d6978c9fa2cad6ef3e048a60a7</title>
<path fill="none" stroke="#000000" d="M109.976,-36.4133C110.7071,-44.0593 110.9203,-53.1084 110.6155,-61.5726"/>
<polygon fill="#000000" stroke="#000000" points="107.1048,-61.6264 109.9524,-71.8314 114.0902,-62.078 107.1048,-61.6264"/>
<g id="a_edge5&#45;headlabel"><a xlink:href="dir_000006_000007.html" target="_top" xlink:title="1">
<text text-anchor="middle" x="104.5032" y="-55.3562" font-family="Helvetica,sans-Serif" font-size="10.00" fill="#000000">1</text>
</a>
</g>
</g>
<!-- dir_ffd084df0f71d68f8337a7d6f3dcd2dc&#45;&gt;dir_3ff34c62de56b2df4097a6c50ce2d7ff -->
<g id="edge6" class="edge">
<title>dir_ffd084df0f71d68f8337a7d6f3dcd2dc&#45;&gt;dir_3ff34c62de56b2df4097a6c50ce2d7ff</title>
<path fill="none" stroke="#000000" d="M117.7686,-162C115.1317,-162 112.4949,-162 109.8581,-162"/>
<polygon fill="#000000" stroke="#000000" points="109.6875,-158.5001 99.6875,-162 109.6875,-165.5001 109.6875,-158.5001"/>
<g id="a_edge6&#45;headlabel"><a xlink:href="dir_000034_000035.html" target="_top" xlink:title="8">
<text text-anchor="middle" x="113.2821" y="-153.1607" font-family="Helvetica,sans-Serif" font-size="10.00" fill="#000000">8</text>
</a>
</g>
</g>
<!-- dir_ffd084df0f71d68f8337a7d6f3dcd2dc&#45;&gt;dir_fc0178d6978c9fa2cad6ef3e048a60a7 -->
<g id="edge7" class="edge">
<title>dir_ffd084df0f71d68f8337a7d6f3dcd2dc&#45;&gt;dir_fc0178d6978c9fa2cad6ef3e048a60a7</title>
<path fill="none" stroke="#000000" d="M138.3923,-143.8314C133.2022,-135.7079 126.9768,-125.9637 121.2575,-117.0118"/>
<polygon fill="#000000" stroke="#000000" points="124.0974,-114.9559 115.764,-108.4133 118.1985,-118.7246 124.0974,-114.9559"/>
<g id="a_edge7&#45;headlabel"><a xlink:href="dir_000034_000007.html" target="_top" xlink:title="11">
<text text-anchor="middle" x="128.4253" y="-113.9564" font-family="Helvetica,sans-Serif" font-size="10.00" fill="#000000">11</text>
</a>
</g>
</g>
<!-- dir_ffd084df0f71d68f8337a7d6f3dcd2dc&#45;&gt;dir_a36da230f0956f48b11c85f7d599788f -->
<g id="edge8" class="edge">
<title>dir_ffd084df0f71d68f8337a7d6f3dcd2dc&#45;&gt;dir_a36da230f0956f48b11c85f7d599788f</title>
<path fill="none" stroke="#000000" d="M150.4698,-143.842C150.3849,-125.248 148.6632,-95.7823 140,-72 136.5081,-62.414 130.9827,-52.8535 125.299,-44.4998"/>
<polygon fill="#000000" stroke="#000000" points="128.073,-42.3622 119.3975,-36.2807 122.387,-46.445 128.073,-42.3622"/>
<g id="a_edge8&#45;headlabel"><a xlink:href="dir_000034_000006.html" target="_top" xlink:title="53">
<text text-anchor="middle" x="132.4759" y="-41.1261" font-family="Helvetica,sans-Serif" font-size="10.00" fill="#000000">53</text>
</a>
</g>
</g>
</g>
</svg>
