<?xml version="1.0" encoding="UTF-8" standalone="no"?>
<!DOCTYPE svg PUBLIC "-//W3C//DTD SVG 1.1//EN"
 "http://www.w3.org/Graphics/SVG/1.1/DTD/svg11.dtd">
<!-- Generated by graphviz version 2.40.1 (20161225.0304)
 -->
<!-- Title: drake/systems/sensors Pages: 1 -->
<svg width="344pt" height="439pt"
 viewBox="0.00 0.00 344.08 439.00" xmlns="http://www.w3.org/2000/svg" xmlns:xlink="http://www.w3.org/1999/xlink">
<g id="graph0" class="graph" transform="scale(1 1) rotate(0) translate(4 435)">
<title>drake/systems/sensors</title>
<polygon fill="#ffffff" stroke="transparent" points="-4,4 -4,-435 340.0786,-435 340.0786,4 -4,4"/>
<g id="clust1" class="cluster">
<title>clusterdir_b7a0e33b407baa23d8a077e33033c988</title>
<g id="a_clust1"><a xlink:href="dir_b7a0e33b407baa23d8a077e33033c988.html" target="_top" xlink:title="systems">
<polygon fill="#ddddee" stroke="#000000" points="123,-352 123,-423 193,-423 193,-352 123,-352"/>
<text text-anchor="middle" x="158" y="-411" font-family="Helvetica,sans-Serif" font-size="10.00" fill="#000000">systems</text>
</a>
</g>
</g>
<!-- dir_892460009e18f4b08a77d36884a88a01 -->
<g id="node1" class="node">
<title>dir_892460009e18f4b08a77d36884a88a01</title>
<g id="a_node1"><a xlink:href="dir_892460009e18f4b08a77d36884a88a01.html" target="_top" xlink:title="sensors">
<polygon fill="#eeeeff" stroke="#000000" points="185,-396 131,-396 131,-360 185,-360 185,-396"/>
<text text-anchor="middle" x="158" y="-375.5" font-family="Helvetica,sans-Serif" font-size="10.00" fill="#000000">sensors</text>
</a>
</g>
</g>
<!-- dir_69fa97bb6e53092a4b06d6253fe335a2 -->
<g id="node2" class="node">
<title>dir_69fa97bb6e53092a4b06d6253fe335a2</title>
<g id="a_node2"><a xlink:href="dir_69fa97bb6e53092a4b06d6253fe335a2.html" target="_top" xlink:title="rendering">
<polygon fill="none" stroke="#000000" points="269.5,-324 206.5,-324 206.5,-288 269.5,-288 269.5,-324"/>
<text text-anchor="middle" x="238" y="-303.5" font-family="Helvetica,sans-Serif" font-size="10.00" fill="#000000">rendering</text>
</a>
</g>
</g>
<!-- dir_892460009e18f4b08a77d36884a88a01&#45;&gt;dir_69fa97bb6e53092a4b06d6253fe335a2 -->
<g id="edge18" class="edge">
<title>dir_892460009e18f4b08a77d36884a88a01&#45;&gt;dir_69fa97bb6e53092a4b06d6253fe335a2</title>
<path fill="none" stroke="#000000" d="M178.1874,-359.8314C187.8514,-351.1337 199.5796,-340.5783 210.0816,-331.1265"/>
<polygon fill="#000000" stroke="#000000" points="212.7275,-333.454 217.8191,-324.1628 208.0447,-328.251 212.7275,-333.454"/>
<g id="a_edge18&#45;headlabel"><a xlink:href="dir_000086_000085.html" target="_top" xlink:title="1">
<text text-anchor="middle" x="211.955" y="-335.4691" font-family="Helvetica,sans-Serif" font-size="10.00" fill="#000000">1</text>
</a>
</g>
</g>
<!-- dir_39b8b3c6654246a9c12332c930bc7d3f -->
<g id="node3" class="node">
<title>dir_39b8b3c6654246a9c12332c930bc7d3f</title>
<g id="a_node3"><a xlink:href="dir_39b8b3c6654246a9c12332c930bc7d3f.html" target="_top" xlink:title="multibody">
<polygon fill="#ffffff" stroke="#ff0000" points="150,-252 84,-252 84,-216 150,-216 150,-252"/>
<text text-anchor="middle" x="117" y="-231.5" font-family="Helvetica,sans-Serif" font-size="10.00" fill="#000000">multibody</text>
</a>
</g>
</g>
<!-- dir_892460009e18f4b08a77d36884a88a01&#45;&gt;dir_39b8b3c6654246a9c12332c930bc7d3f -->
<g id="edge19" class="edge">
<title>dir_892460009e18f4b08a77d36884a88a01&#45;&gt;dir_39b8b3c6654246a9c12332c930bc7d3f</title>
<path fill="none" stroke="#000000" d="M152.8073,-359.7623C145.7834,-335.0928 133.1892,-290.8598 124.9646,-261.9731"/>
<polygon fill="#000000" stroke="#000000" points="128.2552,-260.7489 122.1505,-252.0896 121.5228,-262.6658 128.2552,-260.7489"/>
<g id="a_edge19&#45;headlabel"><a xlink:href="dir_000086_000048.html" target="_top" xlink:title="4">
<text text-anchor="middle" x="131.9702" y="-260.9286" font-family="Helvetica,sans-Serif" font-size="10.00" fill="#000000">4</text>
</a>
</g>
</g>
<!-- dir_fc0178d6978c9fa2cad6ef3e048a60a7 -->
<g id="node4" class="node">
<title>dir_fc0178d6978c9fa2cad6ef3e048a60a7</title>
<g id="a_node4"><a xlink:href="dir_fc0178d6978c9fa2cad6ef3e048a60a7.html" target="_top" xlink:title="math">
<polygon fill="none" stroke="#000000" points="171,-108 117,-108 117,-72 171,-72 171,-108"/>
<text text-anchor="middle" x="144" y="-87.5" font-family="Helvetica,sans-Serif" font-size="10.00" fill="#000000">math</text>
</a>
</g>
</g>
<!-- dir_892460009e18f4b08a77d36884a88a01&#45;&gt;dir_fc0178d6978c9fa2cad6ef3e048a60a7 -->
<g id="edge20" class="edge">
<title>dir_892460009e18f4b08a77d36884a88a01&#45;&gt;dir_fc0178d6978c9fa2cad6ef3e048a60a7</title>
<path fill="none" stroke="#000000" d="M140.8793,-359.7425C120.5743,-336.7115 87.862,-294.9064 75,-252 60.1735,-202.5401 94.949,-147.8242 120.3271,-116.319"/>
<polygon fill="#000000" stroke="#000000" points="123.1665,-118.3783 126.8633,-108.4493 117.7816,-113.9058 123.1665,-118.3783"/>
<g id="a_edge20&#45;headlabel"><a xlink:href="dir_000086_000007.html" target="_top" xlink:title="5">
<text text-anchor="middle" x="123.054" y="-120.4576" font-family="Helvetica,sans-Serif" font-size="10.00" fill="#000000">5</text>
</a>
</g>
</g>
<!-- dir_2186f45272e5c29e3ac18ec762ab7501 -->
<g id="node5" class="node">
<title>dir_2186f45272e5c29e3ac18ec762ab7501</title>
<g id="a_node5"><a xlink:href="dir_2186f45272e5c29e3ac18ec762ab7501.html" target="_top" xlink:title="framework">
<polygon fill="#ffffff" stroke="#ff0000" points="297,-108 227,-108 227,-72 297,-72 297,-108"/>
<text text-anchor="middle" x="262" y="-87.5" font-family="Helvetica,sans-Serif" font-size="10.00" fill="#000000">framework</text>
</a>
</g>
</g>
<!-- dir_892460009e18f4b08a77d36884a88a01&#45;&gt;dir_2186f45272e5c29e3ac18ec762ab7501 -->
<g id="edge21" class="edge">
<title>dir_892460009e18f4b08a77d36884a88a01&#45;&gt;dir_2186f45272e5c29e3ac18ec762ab7501</title>
<path fill="none" stroke="#000000" d="M185.0214,-372.5461C212.2965,-365.6975 253.8775,-351.3694 279,-324 333.5763,-264.5424 329.2784,-220.3101 303,-144 299.5506,-133.9833 293.4592,-124.3355 287.0096,-116.0351"/>
<polygon fill="#000000" stroke="#000000" points="289.6044,-113.6811 280.5254,-108.2201 284.2173,-118.1509 289.6044,-113.6811"/>
<g id="a_edge21&#45;headlabel"><a xlink:href="dir_000086_000078.html" target="_top" xlink:title="12">
<text text-anchor="middle" x="294.0847" y="-112.1344" font-family="Helvetica,sans-Serif" font-size="10.00" fill="#000000">12</text>
</a>
</g>
</g>
<!-- dir_a36da230f0956f48b11c85f7d599788f -->
<g id="node6" class="node">
<title>dir_a36da230f0956f48b11c85f7d599788f</title>
<g id="a_node6"><a xlink:href="dir_a36da230f0956f48b11c85f7d599788f.html" target="_top" xlink:title="common">
<polygon fill="#ffffff" stroke="#ff0000" points="173.5,-36 114.5,-36 114.5,0 173.5,0 173.5,-36"/>
<text text-anchor="middle" x="144" y="-15.5" font-family="Helvetica,sans-Serif" font-size="10.00" fill="#000000">common</text>
</a>
</g>
</g>
<!-- dir_892460009e18f4b08a77d36884a88a01&#45;&gt;dir_a36da230f0956f48b11c85f7d599788f -->
<g id="edge22" class="edge">
<title>dir_892460009e18f4b08a77d36884a88a01&#45;&gt;dir_a36da230f0956f48b11c85f7d599788f</title>
<path fill="none" stroke="#000000" d="M130.8388,-367.8369C85.6643,-348.9665 0,-303.9595 0,-234 0,-234 0,-234 0,-162 0,-102.3814 62.4794,-58.8249 105.1279,-36.0378"/>
<polygon fill="#000000" stroke="#000000" points="106.8925,-39.0656 114.1631,-31.3592 103.6736,-32.8495 106.8925,-39.0656"/>
<g id="a_edge22&#45;headlabel"><a xlink:href="dir_000086_000006.html" target="_top" xlink:title="20">
<text text-anchor="middle" x="105.006" y="-40.7397" font-family="Helvetica,sans-Serif" font-size="10.00" fill="#000000">20</text>
</a>
</g>
</g>
<!-- dir_d739e095b49d8b72164589d00310017d -->
<g id="node7" class="node">
<title>dir_d739e095b49d8b72164589d00310017d</title>
<g id="a_node7"><a xlink:href="dir_d739e095b49d8b72164589d00310017d.html" target="_top" xlink:title="geometry">
<polygon fill="#ffffff" stroke="#ff0000" points="244,-180 180,-180 180,-144 244,-144 244,-180"/>
<text text-anchor="middle" x="212" y="-159.5" font-family="Helvetica,sans-Serif" font-size="10.00" fill="#000000">geometry</text>
</a>
</g>
</g>
<!-- dir_892460009e18f4b08a77d36884a88a01&#45;&gt;dir_d739e095b49d8b72164589d00310017d -->
<g id="edge23" class="edge">
<title>dir_892460009e18f4b08a77d36884a88a01&#45;&gt;dir_d739e095b49d8b72164589d00310017d</title>
<path fill="none" stroke="#000000" d="M162.5111,-359.9555C171.9214,-322.3144 193.7033,-235.1867 204.9689,-190.1246"/>
<polygon fill="#000000" stroke="#000000" points="208.4338,-190.6954 207.4637,-180.1451 201.6428,-188.9976 208.4338,-190.6954"/>
<g id="a_edge23&#45;headlabel"><a xlink:href="dir_000086_000033.html" target="_top" xlink:title="5">
<text text-anchor="middle" x="210.3166" y="-192.3713" font-family="Helvetica,sans-Serif" font-size="10.00" fill="#000000">5</text>
</a>
</g>
</g>
<!-- dir_69fa97bb6e53092a4b06d6253fe335a2&#45;&gt;dir_39b8b3c6654246a9c12332c930bc7d3f -->
<g id="edge1" class="edge">
<title>dir_69fa97bb6e53092a4b06d6253fe335a2&#45;&gt;dir_39b8b3c6654246a9c12332c930bc7d3f</title>
<path fill="none" stroke="#000000" d="M207.4666,-287.8314C191.9899,-278.6221 173.0131,-267.3301 156.4437,-257.4706"/>
<polygon fill="#000000" stroke="#000000" points="157.9071,-254.2687 147.5236,-252.1628 154.3276,-260.2843 157.9071,-254.2687"/>
<g id="a_edge1&#45;headlabel"><a xlink:href="dir_000085_000048.html" target="_top" xlink:title="2">
<text text-anchor="middle" x="162.4481" y="-251.1668" font-family="Helvetica,sans-Serif" font-size="10.00" fill="#000000">2</text>
</a>
</g>
</g>
<!-- dir_69fa97bb6e53092a4b06d6253fe335a2&#45;&gt;dir_fc0178d6978c9fa2cad6ef3e048a60a7 -->
<g id="edge2" class="edge">
<title>dir_69fa97bb6e53092a4b06d6253fe335a2&#45;&gt;dir_fc0178d6978c9fa2cad6ef3e048a60a7</title>
<path fill="none" stroke="#000000" d="M246.3289,-287.8398C259.5583,-256.0423 281.1489,-189.3592 253,-144 237.4383,-118.9238 206.3856,-105.1336 181.3917,-97.7801"/>
<polygon fill="#000000" stroke="#000000" points="182.0292,-94.3269 171.4622,-95.0946 180.2016,-101.0841 182.0292,-94.3269"/>
<g id="a_edge2&#45;headlabel"><a xlink:href="dir_000085_000007.html" target="_top" xlink:title="2">
<text text-anchor="middle" x="186.2404" y="-90.0245" font-family="Helvetica,sans-Serif" font-size="10.00" fill="#000000">2</text>
</a>
</g>
</g>
<!-- dir_69fa97bb6e53092a4b06d6253fe335a2&#45;&gt;dir_2186f45272e5c29e3ac18ec762ab7501 -->
<g id="edge3" class="edge">
<title>dir_69fa97bb6e53092a4b06d6253fe335a2&#45;&gt;dir_2186f45272e5c29e3ac18ec762ab7501</title>
<path fill="none" stroke="#000000" d="M260.2213,-287.9032C270.1308,-278.3888 280.74,-265.8349 286,-252 303.0583,-207.1334 295.9644,-190.9543 286,-144 284.1019,-135.0557 280.6165,-125.7941 276.8791,-117.5203"/>
<polygon fill="#000000" stroke="#000000" points="279.9495,-115.8294 272.4559,-108.3395 273.6432,-118.8676 279.9495,-115.8294"/>
<g id="a_edge3&#45;headlabel"><a xlink:href="dir_000085_000078.html" target="_top" xlink:title="6">
<text text-anchor="middle" x="284.0675" y="-115.3354" font-family="Helvetica,sans-Serif" font-size="10.00" fill="#000000">6</text>
</a>
</g>
</g>
<!-- dir_69fa97bb6e53092a4b06d6253fe335a2&#45;&gt;dir_a36da230f0956f48b11c85f7d599788f -->
<g id="edge4" class="edge">
<title>dir_69fa97bb6e53092a4b06d6253fe335a2&#45;&gt;dir_a36da230f0956f48b11c85f7d599788f</title>
<path fill="none" stroke="#000000" d="M269.6237,-288.6192C282.7767,-279.5722 296.6668,-267.2012 304,-252 338.7617,-179.9416 352.7797,-136.9034 306,-72 291.4766,-51.8498 226.558,-34.9425 183.4397,-25.666"/>
<polygon fill="#000000" stroke="#000000" points="184.0329,-22.2143 173.527,-23.5844 182.5942,-29.0649 184.0329,-22.2143"/>
<g id="a_edge4&#45;headlabel"><a xlink:href="dir_000085_000006.html" target="_top" xlink:title="7">
<text text-anchor="middle" x="188.1343" y="-17.6743" font-family="Helvetica,sans-Serif" font-size="10.00" fill="#000000">7</text>
</a>
</g>
</g>
<!-- dir_69fa97bb6e53092a4b06d6253fe335a2&#45;&gt;dir_d739e095b49d8b72164589d00310017d -->
<g id="edge5" class="edge">
<title>dir_69fa97bb6e53092a4b06d6253fe335a2&#45;&gt;dir_d739e095b49d8b72164589d00310017d</title>
<path fill="none" stroke="#000000" d="M230.0339,-287.7623C223.1394,-263.201 214.9286,-219.2474 211.6221,-190.3541"/>
<polygon fill="#000000" stroke="#000000" points="215.0743,-189.697 210.6079,-180.0896 208.1082,-190.3853 215.0743,-189.697"/>
<g id="a_edge5&#45;headlabel"><a xlink:href="dir_000085_000033.html" target="_top" xlink:title="1">
<text text-anchor="middle" x="218.2531" y="-190.495" font-family="Helvetica,sans-Serif" font-size="10.00" fill="#000000">1</text>
</a>
</g>
</g>
<!-- dir_39b8b3c6654246a9c12332c930bc7d3f&#45;&gt;dir_fc0178d6978c9fa2cad6ef3e048a60a7 -->
<g id="edge6" class="edge">
<title>dir_39b8b3c6654246a9c12332c930bc7d3f&#45;&gt;dir_fc0178d6978c9fa2cad6ef3e048a60a7</title>
<path fill="none" stroke="#000000" d="M120.4196,-215.7623C125.0451,-191.0928 133.3388,-146.8598 138.755,-117.9731"/>
<polygon fill="#000000" stroke="#000000" points="142.2053,-118.5634 140.6082,-108.0896 135.3252,-117.2733 142.2053,-118.5634"/>
<g id="a_edge6&#45;headlabel"><a xlink:href="dir_000048_000007.html" target="_top" xlink:title="32">
<text text-anchor="middle" x="144.3336" y="-120.1196" font-family="Helvetica,sans-Serif" font-size="10.00" fill="#000000">32</text>
</a>
</g>
</g>
<!-- dir_39b8b3c6654246a9c12332c930bc7d3f&#45;&gt;dir_2186f45272e5c29e3ac18ec762ab7501 -->
<g id="edge7" class="edge">
<title>dir_39b8b3c6654246a9c12332c930bc7d3f&#45;&gt;dir_2186f45272e5c29e3ac18ec762ab7501</title>
<path fill="none" stroke="#000000" d="M124.7026,-215.6511C133.6137,-196.0869 149.8178,-165.0795 171,-144 184.3889,-130.676 201.7025,-119.3439 217.6283,-110.553"/>
<polygon fill="#000000" stroke="#000000" points="219.6177,-113.4593 226.8046,-105.6748 216.3318,-107.2784 219.6177,-113.4593"/>
<g id="a_edge7&#45;headlabel"><a xlink:href="dir_000048_000078.html" target="_top" xlink:title="31">
<text text-anchor="middle" x="217.7764" y="-115.1536" font-family="Helvetica,sans-Serif" font-size="10.00" fill="#000000">31</text>
</a>
</g>
</g>
<!-- dir_39b8b3c6654246a9c12332c930bc7d3f&#45;&gt;dir_a36da230f0956f48b11c85f7d599788f -->
<g id="edge8" class="edge">
<title>dir_39b8b3c6654246a9c12332c930bc7d3f&#45;&gt;dir_a36da230f0956f48b11c85f7d599788f</title>
<path fill="none" stroke="#000000" d="M111.9437,-215.5345C104.448,-184.9418 92.8173,-122.1451 108,-72 110.9564,-62.2355 116.3252,-52.6229 122.03,-44.2762"/>
<polygon fill="#000000" stroke="#000000" points="124.9414,-46.2239 128.0095,-36.0831 119.2871,-42.0973 124.9414,-46.2239"/>
<g id="a_edge8&#45;headlabel"><a xlink:href="dir_000048_000006.html" target="_top" xlink:title="217">
<text text-anchor="middle" x="125.1158" y="-48.3013" font-family="Helvetica,sans-Serif" font-size="10.00" fill="#000000">217</text>
</a>
</g>
</g>
<!-- dir_39b8b3c6654246a9c12332c930bc7d3f&#45;&gt;dir_d739e095b49d8b72164589d00310017d -->
<g id="edge9" class="edge">
<title>dir_39b8b3c6654246a9c12332c930bc7d3f&#45;&gt;dir_d739e095b49d8b72164589d00310017d</title>
<path fill="none" stroke="#000000" d="M135.0201,-215.8314C146.0653,-206.7927 160.4874,-195.7476 173.901,-186.0198"/>
<polygon fill="#000000" stroke="#000000" points="175.9891,-188.8295 182.0833,-180.1628 171.9146,-183.1374 175.9891,-188.8295"/>
<g id="a_edge9&#45;headlabel"><a xlink:href="dir_000048_000033.html" target="_top" xlink:title="27">
<text text-anchor="middle" x="174.7187" y="-190.7304" font-family="Helvetica,sans-Serif" font-size="10.00" fill="#000000">27</text>
</a>
</g>
</g>
<!-- dir_fc0178d6978c9fa2cad6ef3e048a60a7&#45;&gt;dir_a36da230f0956f48b11c85f7d599788f -->
<g id="edge10" class="edge">
<title>dir_fc0178d6978c9fa2cad6ef3e048a60a7&#45;&gt;dir_a36da230f0956f48b11c85f7d599788f</title>
<path fill="none" stroke="#000000" d="M138.0476,-71.8314C137.2972,-64.131 137.0763,-54.9743 137.3849,-46.4166"/>
<polygon fill="#000000" stroke="#000000" points="140.8792,-46.6161 138.024,-36.4133 133.8935,-46.1697 140.8792,-46.6161"/>
<g id="a_edge10&#45;headlabel"><a xlink:href="dir_000007_000006.html" target="_top" xlink:title="57">
<text text-anchor="middle" x="143.4836" y="-47.8844" font-family="Helvetica,sans-Serif" font-size="10.00" fill="#000000">57</text>
</a>
</g>
</g>
<!-- dir_2186f45272e5c29e3ac18ec762ab7501&#45;&gt;dir_a36da230f0956f48b11c85f7d599788f -->
<g id="edge11" class="edge">
<title>dir_2186f45272e5c29e3ac18ec762ab7501&#45;&gt;dir_a36da230f0956f48b11c85f7d599788f</title>
<path fill="none" stroke="#000000" d="M232.2236,-71.8314C217.1307,-62.6221 198.6243,-51.3301 182.4657,-41.4706"/>
<polygon fill="#000000" stroke="#000000" points="184.1263,-38.3838 173.7669,-36.1628 180.4802,-44.3593 184.1263,-38.3838"/>
<g id="a_edge11&#45;headlabel"><a xlink:href="dir_000078_000006.html" target="_top" xlink:title="171">
<text text-anchor="middle" x="188.6737" y="-35.3323" font-family="Helvetica,sans-Serif" font-size="10.00" fill="#000000">171</text>
</a>
</g>
</g>
<!-- dir_a36da230f0956f48b11c85f7d599788f&#45;&gt;dir_fc0178d6978c9fa2cad6ef3e048a60a7 -->
<g id="edge12" class="edge">
<title>dir_a36da230f0956f48b11c85f7d599788f&#45;&gt;dir_fc0178d6978c9fa2cad6ef3e048a60a7</title>
<path fill="none" stroke="#000000" d="M149.976,-36.4133C150.7071,-44.0593 150.9203,-53.1084 150.6155,-61.5726"/>
<polygon fill="#000000" stroke="#000000" points="147.1048,-61.6264 149.9524,-71.8314 154.0902,-62.078 147.1048,-61.6264"/>
<g id="a_edge12&#45;headlabel"><a xlink:href="dir_000006_000007.html" target="_top" xlink:title="1">
<text text-anchor="middle" x="144.5032" y="-55.3562" font-family="Helvetica,sans-Serif" font-size="10.00" fill="#000000">1</text>
</a>
</g>
</g>
<!-- dir_d739e095b49d8b72164589d00310017d&#45;&gt;dir_69fa97bb6e53092a4b06d6253fe335a2 -->
<g id="edge13" class="edge">
<title>dir_d739e095b49d8b72164589d00310017d&#45;&gt;dir_69fa97bb6e53092a4b06d6253fe335a2</title>
<path fill="none" stroke="#000000" d="M219.9245,-180.0896C226.8136,-204.5727 235.0316,-248.5174 238.3579,-277.4713"/>
<polygon fill="#000000" stroke="#000000" points="234.9087,-278.1573 239.3803,-287.7623 241.8745,-277.4653 234.9087,-278.1573"/>
<g id="a_edge13&#45;headlabel"><a xlink:href="dir_000033_000085.html" target="_top" xlink:title="1">
<text text-anchor="middle" x="231.7281" y="-272.361" font-family="Helvetica,sans-Serif" font-size="10.00" fill="#000000">1</text>
</a>
</g>
</g>
<!-- dir_d739e095b49d8b72164589d00310017d&#45;&gt;dir_39b8b3c6654246a9c12332c930bc7d3f -->
<g id="edge14" class="edge">
<title>dir_d739e095b49d8b72164589d00310017d&#45;&gt;dir_39b8b3c6654246a9c12332c930bc7d3f</title>
<path fill="none" stroke="#000000" d="M193.987,-180.1628C182.9432,-189.2007 168.5217,-200.2456 155.1076,-209.9739"/>
<polygon fill="#000000" stroke="#000000" points="153.0191,-207.1646 146.9249,-215.8314 157.0936,-212.8566 153.0191,-207.1646"/>
<g id="a_edge14&#45;headlabel"><a xlink:href="dir_000033_000048.html" target="_top" xlink:title="1">
<text text-anchor="middle" x="154.2893" y="-200.2636" font-family="Helvetica,sans-Serif" font-size="10.00" fill="#000000">1</text>
</a>
</g>
</g>
<!-- dir_d739e095b49d8b72164589d00310017d&#45;&gt;dir_fc0178d6978c9fa2cad6ef3e048a60a7 -->
<g id="edge15" class="edge">
<title>dir_d739e095b49d8b72164589d00310017d&#45;&gt;dir_fc0178d6978c9fa2cad6ef3e048a60a7</title>
<path fill="none" stroke="#000000" d="M194.8407,-143.8314C186.8489,-135.3694 177.1962,-125.1489 168.4584,-115.8971"/>
<polygon fill="#000000" stroke="#000000" points="170.8011,-113.2802 161.3903,-108.4133 165.712,-118.0866 170.8011,-113.2802"/>
<g id="a_edge15&#45;headlabel"><a xlink:href="dir_000033_000007.html" target="_top" xlink:title="23">
<text text-anchor="middle" x="175.3334" y="-111.444" font-family="Helvetica,sans-Serif" font-size="10.00" fill="#000000">23</text>
</a>
</g>
</g>
<!-- dir_d739e095b49d8b72164589d00310017d&#45;&gt;dir_2186f45272e5c29e3ac18ec762ab7501 -->
<g id="edge16" class="edge">
<title>dir_d739e095b49d8b72164589d00310017d&#45;&gt;dir_2186f45272e5c29e3ac18ec762ab7501</title>
<path fill="none" stroke="#000000" d="M224.6171,-143.8314C230.3172,-135.6232 237.1663,-125.7606 243.4359,-116.7323"/>
<polygon fill="#000000" stroke="#000000" points="246.3838,-118.6234 249.213,-108.4133 240.6342,-114.6306 246.3838,-118.6234"/>
<g id="a_edge16&#45;headlabel"><a xlink:href="dir_000033_000078.html" target="_top" xlink:title="4">
<text text-anchor="middle" x="246.6656" y="-120.6954" font-family="Helvetica,sans-Serif" font-size="10.00" fill="#000000">4</text>
</a>
</g>
</g>
<!-- dir_d739e095b49d8b72164589d00310017d&#45;&gt;dir_a36da230f0956f48b11c85f7d599788f -->
<g id="edge17" class="edge">
<title>dir_d739e095b49d8b72164589d00310017d&#45;&gt;dir_a36da230f0956f48b11c85f7d599788f</title>
<path fill="none" stroke="#000000" d="M206.9947,-143.8768C201.5392,-125.3105 191.9679,-95.8665 180,-72 175.3519,-62.7306 169.3931,-53.147 163.6668,-44.6731"/>
<polygon fill="#000000" stroke="#000000" points="166.4303,-42.5165 157.8483,-36.3037 160.6828,-46.5123 166.4303,-42.5165"/>
<g id="a_edge17&#45;headlabel"><a xlink:href="dir_000033_000006.html" target="_top" xlink:title="109">
<text text-anchor="middle" x="170.8134" y="-41.3472" font-family="Helvetica,sans-Serif" font-size="10.00" fill="#000000">109</text>
</a>
</g>
</g>
</g>
</svg>
