<?xml version="1.0" encoding="UTF-8" standalone="no"?>
<!DOCTYPE svg PUBLIC "-//W3C//DTD SVG 1.1//EN"
 "http://www.w3.org/Graphics/SVG/1.1/DTD/svg11.dtd">
<!-- Generated by graphviz version 2.40.1 (20161225.0304)
 -->
<!-- Title: drake/systems/controllers Pages: 1 -->
<svg width="325pt" height="375pt"
 viewBox="0.00 0.00 324.95 375.00" xmlns="http://www.w3.org/2000/svg" xmlns:xlink="http://www.w3.org/1999/xlink">
<g id="graph0" class="graph" transform="scale(1 1) rotate(0) translate(4 371)">
<title>drake/systems/controllers</title>
<polygon fill="#ffffff" stroke="transparent" points="-4,4 -4,-371 320.9469,-371 320.9469,4 -4,4"/>
<g id="clust1" class="cluster">
<title>clusterdir_b7a0e33b407baa23d8a077e33033c988</title>
<g id="a_clust1"><a xlink:href="dir_b7a0e33b407baa23d8a077e33033c988.html" target="_top" xlink:title="systems">
<polygon fill="#ddddee" stroke="#000000" points="9.1791,-272 9.1791,-359 205.1791,-359 205.1791,-272 9.1791,-272"/>
<text text-anchor="middle" x="107.1791" y="-347" font-family="Helvetica,sans-Serif" font-size="10.00" fill="#000000">systems</text>
</a>
</g>
</g>
<g id="clust2" class="cluster">
<title>clusterdir_2f3b38a11a8c8b47ab034de75b118c79</title>
<g id="a_clust2"><a xlink:href="dir_2f3b38a11a8c8b47ab034de75b118c79.html" target="_top">
<polygon fill="#eeeeff" stroke="#000000" points="17.1791,-280 17.1791,-332 197.1791,-332 197.1791,-280 17.1791,-280"/>
</a>
</g>
</g>
<!-- dir_2f3b38a11a8c8b47ab034de75b118c79 -->
<g id="node1" class="node">
<title>dir_2f3b38a11a8c8b47ab034de75b118c79</title>
<text text-anchor="middle" x="155.1791" y="-303.5" font-family="Helvetica,sans-Serif" font-size="10.00" fill="#000000">controllers</text>
</g>
<!-- dir_9f920ef99dcb5f2ba14ba6c3f54b363c -->
<g id="node3" class="node">
<title>dir_9f920ef99dcb5f2ba14ba6c3f54b363c</title>
<g id="a_node3"><a xlink:href="dir_9f920ef99dcb5f2ba14ba6c3f54b363c.html" target="_top" xlink:title="analysis">
<polygon fill="#ffffff" stroke="#ff0000" points="155.6791,-252 98.6791,-252 98.6791,-216 155.6791,-216 155.6791,-252"/>
<text text-anchor="middle" x="127.1791" y="-231.5" font-family="Helvetica,sans-Serif" font-size="10.00" fill="#000000">analysis</text>
</a>
</g>
</g>
<!-- dir_2f3b38a11a8c8b47ab034de75b118c79&#45;&gt;dir_9f920ef99dcb5f2ba14ba6c3f54b363c -->
<g id="edge14" class="edge">
<title>dir_2f3b38a11a8c8b47ab034de75b118c79&#45;&gt;dir_9f920ef99dcb5f2ba14ba6c3f54b363c</title>
<path fill="none" stroke="#000000" d="M148.1135,-287.8314C145.0531,-279.9617 141.4012,-270.5712 138.0109,-261.8533"/>
<polygon fill="#000000" stroke="#000000" points="141.2263,-260.4647 134.3398,-252.4133 134.7023,-263.0019 141.2263,-260.4647"/>
<g id="a_edge14&#45;headlabel"><a xlink:href="dir_000076_000074.html" target="_top" xlink:title="1">
<text text-anchor="middle" x="145.1753" y="-260.2859" font-family="Helvetica,sans-Serif" font-size="10.00" fill="#000000">1</text>
</a>
</g>
</g>
<!-- dir_39b8b3c6654246a9c12332c930bc7d3f -->
<g id="node4" class="node">
<title>dir_39b8b3c6654246a9c12332c930bc7d3f</title>
<g id="a_node4"><a xlink:href="dir_39b8b3c6654246a9c12332c930bc7d3f.html" target="_top" xlink:title="multibody">
<polygon fill="#ffffff" stroke="#ff0000" points="80.1791,-180 14.1791,-180 14.1791,-144 80.1791,-144 80.1791,-180"/>
<text text-anchor="middle" x="47.1791" y="-159.5" font-family="Helvetica,sans-Serif" font-size="10.00" fill="#000000">multibody</text>
</a>
</g>
</g>
<!-- dir_2f3b38a11a8c8b47ab034de75b118c79&#45;&gt;dir_39b8b3c6654246a9c12332c930bc7d3f -->
<g id="edge15" class="edge">
<title>dir_2f3b38a11a8c8b47ab034de75b118c79&#45;&gt;dir_39b8b3c6654246a9c12332c930bc7d3f</title>
<path fill="none" stroke="#000000" d="M132.0013,-287.8667C114.3668,-273.9326 92.564,-256.3538 89.1791,-252 74.5563,-233.1917 63.4835,-208.4692 56.3882,-189.6952"/>
<polygon fill="#000000" stroke="#000000" points="59.6508,-188.4252 52.9505,-180.2181 53.0703,-190.8122 59.6508,-188.4252"/>
<g id="a_edge15&#45;headlabel"><a xlink:href="dir_000076_000049.html" target="_top" xlink:title="3">
<text text-anchor="middle" x="63.5455" y="-188.3363" font-family="Helvetica,sans-Serif" font-size="10.00" fill="#000000">3</text>
</a>
</g>
</g>
<!-- dir_fc0178d6978c9fa2cad6ef3e048a60a7 -->
<g id="node5" class="node">
<title>dir_fc0178d6978c9fa2cad6ef3e048a60a7</title>
<g id="a_node5"><a xlink:href="dir_fc0178d6978c9fa2cad6ef3e048a60a7.html" target="_top" xlink:title="math">
<polygon fill="none" stroke="#000000" points="278.1791,-108 224.1791,-108 224.1791,-72 278.1791,-72 278.1791,-108"/>
<text text-anchor="middle" x="251.1791" y="-87.5" font-family="Helvetica,sans-Serif" font-size="10.00" fill="#000000">math</text>
</a>
</g>
</g>
<!-- dir_2f3b38a11a8c8b47ab034de75b118c79&#45;&gt;dir_fc0178d6978c9fa2cad6ef3e048a60a7 -->
<g id="edge16" class="edge">
<title>dir_2f3b38a11a8c8b47ab034de75b118c79&#45;&gt;dir_fc0178d6978c9fa2cad6ef3e048a60a7</title>
<path fill="none" stroke="#000000" d="M186.473,-287.8314C219.1698,-266.7463 268.286,-228.5702 287.1791,-180 292.9794,-165.0884 291.8156,-159.3135 287.1791,-144 284.2226,-134.2355 278.8538,-124.6229 273.1491,-116.2762"/>
<polygon fill="#000000" stroke="#000000" points="275.8919,-114.0973 267.1695,-108.0831 270.2376,-118.2239 275.8919,-114.0973"/>
<g id="a_edge16&#45;headlabel"><a xlink:href="dir_000076_000007.html" target="_top" xlink:title="3">
<text text-anchor="middle" x="280.3044" y="-112.827" font-family="Helvetica,sans-Serif" font-size="10.00" fill="#000000">3</text>
</a>
</g>
</g>
<!-- dir_2186f45272e5c29e3ac18ec762ab7501 -->
<g id="node6" class="node">
<title>dir_2186f45272e5c29e3ac18ec762ab7501</title>
<g id="a_node6"><a xlink:href="dir_2186f45272e5c29e3ac18ec762ab7501.html" target="_top" xlink:title="framework">
<polygon fill="#ffffff" stroke="#ff0000" points="206.1791,-108 136.1791,-108 136.1791,-72 206.1791,-72 206.1791,-108"/>
<text text-anchor="middle" x="171.1791" y="-87.5" font-family="Helvetica,sans-Serif" font-size="10.00" fill="#000000">framework</text>
</a>
</g>
</g>
<!-- dir_2f3b38a11a8c8b47ab034de75b118c79&#45;&gt;dir_2186f45272e5c29e3ac18ec762ab7501 -->
<g id="edge17" class="edge">
<title>dir_2f3b38a11a8c8b47ab034de75b118c79&#45;&gt;dir_2186f45272e5c29e3ac18ec762ab7501</title>
<path fill="none" stroke="#000000" d="M159.2754,-287.6048C161.4164,-277.2086 163.8595,-263.9406 165.1791,-252 170.3452,-205.2529 171.3234,-150.5063 171.3798,-118.1233"/>
<polygon fill="#000000" stroke="#000000" points="174.8798,-118.0384 171.3683,-108.0424 167.8798,-118.0464 174.8798,-118.0384"/>
<g id="a_edge17&#45;headlabel"><a xlink:href="dir_000076_000079.html" target="_top" xlink:title="10">
<text text-anchor="middle" x="177.7231" y="-119.1298" font-family="Helvetica,sans-Serif" font-size="10.00" fill="#000000">10</text>
</a>
</g>
</g>
<!-- dir_55f8630d5466d97e74952e939680a0a0 -->
<g id="node7" class="node">
<title>dir_55f8630d5466d97e74952e939680a0a0</title>
<g id="a_node7"><a xlink:href="dir_55f8630d5466d97e74952e939680a0a0.html" target="_top" xlink:title="primitives">
<polygon fill="none" stroke="#000000" points="278.1791,-180 212.1791,-180 212.1791,-144 278.1791,-144 278.1791,-180"/>
<text text-anchor="middle" x="245.1791" y="-159.5" font-family="Helvetica,sans-Serif" font-size="10.00" fill="#000000">primitives</text>
</a>
</g>
</g>
<!-- dir_2f3b38a11a8c8b47ab034de75b118c79&#45;&gt;dir_55f8630d5466d97e74952e939680a0a0 -->
<g id="edge18" class="edge">
<title>dir_2f3b38a11a8c8b47ab034de75b118c79&#45;&gt;dir_55f8630d5466d97e74952e939680a0a0</title>
<path fill="none" stroke="#000000" d="M171.222,-287.6695C179.7322,-277.5143 190.0741,-264.4556 198.1791,-252 211.2996,-231.8366 223.7881,-207.594 232.5897,-189.3517"/>
<polygon fill="#000000" stroke="#000000" points="235.8287,-190.6902 236.9603,-180.1559 229.5065,-187.6853 235.8287,-190.6902"/>
<g id="a_edge18&#45;headlabel"><a xlink:href="dir_000076_000085.html" target="_top" xlink:title="5">
<text text-anchor="middle" x="236.8501" y="-192.6555" font-family="Helvetica,sans-Serif" font-size="10.00" fill="#000000">5</text>
</a>
</g>
</g>
<!-- dir_a36da230f0956f48b11c85f7d599788f -->
<g id="node8" class="node">
<title>dir_a36da230f0956f48b11c85f7d599788f</title>
<g id="a_node8"><a xlink:href="dir_a36da230f0956f48b11c85f7d599788f.html" target="_top" xlink:title="common">
<polygon fill="#ffffff" stroke="#ff0000" points="240.6791,-36 181.6791,-36 181.6791,0 240.6791,0 240.6791,-36"/>
<text text-anchor="middle" x="211.1791" y="-15.5" font-family="Helvetica,sans-Serif" font-size="10.00" fill="#000000">common</text>
</a>
</g>
</g>
<!-- dir_2f3b38a11a8c8b47ab034de75b118c79&#45;&gt;dir_a36da230f0956f48b11c85f7d599788f -->
<g id="edge19" class="edge">
<title>dir_2f3b38a11a8c8b47ab034de75b118c79&#45;&gt;dir_a36da230f0956f48b11c85f7d599788f</title>
<path fill="none" stroke="#000000" d="M189.2467,-295.4043C212.611,-286.7501 243.082,-272.5628 264.1791,-252 290.0906,-226.7448 293.2357,-215.0607 302.1791,-180 314.0436,-133.4873 327.0308,-113.6568 303.1791,-72 291.7909,-52.1107 269.9147,-38.8319 250.3515,-30.4202"/>
<polygon fill="#000000" stroke="#000000" points="251.5742,-27.1397 240.9896,-26.6742 248.9737,-33.6388 251.5742,-27.1397"/>
<g id="a_edge19&#45;headlabel"><a xlink:href="dir_000076_000006.html" target="_top" xlink:title="18">
<text text-anchor="middle" x="255.9663" y="-23.339" font-family="Helvetica,sans-Serif" font-size="10.00" fill="#000000">18</text>
</a>
</g>
</g>
<!-- dir_0200b18f7e83ea48cc715228d7cee9aa -->
<g id="node2" class="node">
<title>dir_0200b18f7e83ea48cc715228d7cee9aa</title>
<g id="a_node2"><a xlink:href="dir_0200b18f7e83ea48cc715228d7cee9aa.html" target="_top" xlink:title="test_utilities">
<polygon fill="#ffffff" stroke="#000000" points="102.6791,-324 25.6791,-324 25.6791,-288 102.6791,-288 102.6791,-324"/>
<text text-anchor="middle" x="64.1791" y="-303.5" font-family="Helvetica,sans-Serif" font-size="10.00" fill="#000000">test_utilities</text>
</a>
</g>
</g>
<!-- dir_0200b18f7e83ea48cc715228d7cee9aa&#45;&gt;dir_39b8b3c6654246a9c12332c930bc7d3f -->
<g id="edge20" class="edge">
<title>dir_0200b18f7e83ea48cc715228d7cee9aa&#45;&gt;dir_39b8b3c6654246a9c12332c930bc7d3f</title>
<path fill="none" stroke="#000000" d="M61.2222,-287.5352C59.6095,-277.1172 57.6486,-263.8507 56.1791,-252 53.6346,-231.4808 51.3267,-208.26 49.6851,-190.5451"/>
<polygon fill="#000000" stroke="#000000" points="53.1447,-189.9416 48.7529,-180.2999 46.1735,-190.5759 53.1447,-189.9416"/>
<g id="a_edge20&#45;headlabel"><a xlink:href="dir_000077_000049.html" target="_top" xlink:title="1">
<text text-anchor="middle" x="56.2979" y="-190.7642" font-family="Helvetica,sans-Serif" font-size="10.00" fill="#000000">1</text>
</a>
</g>
</g>
<!-- dir_0200b18f7e83ea48cc715228d7cee9aa&#45;&gt;dir_a36da230f0956f48b11c85f7d599788f -->
<g id="edge21" class="edge">
<title>dir_0200b18f7e83ea48cc715228d7cee9aa&#45;&gt;dir_a36da230f0956f48b11c85f7d599788f</title>
<path fill="none" stroke="#000000" d="M48.7316,-287.544C25.5344,-257.4826 -13.6718,-196.0671 5.1791,-144 19.3594,-104.8333 31.1604,-96.0384 65.1791,-72 97.5012,-49.1603 140.621,-34.7805 171.6076,-26.6557"/>
<polygon fill="#000000" stroke="#000000" points="172.7742,-29.9713 181.6178,-24.1369 171.0661,-23.1829 172.7742,-29.9713"/>
<g id="a_edge21&#45;headlabel"><a xlink:href="dir_000077_000006.html" target="_top" xlink:title="1">
<text text-anchor="middle" x="169.981" y="-31.1018" font-family="Helvetica,sans-Serif" font-size="10.00" fill="#000000">1</text>
</a>
</g>
</g>
<!-- dir_9f920ef99dcb5f2ba14ba6c3f54b363c&#45;&gt;dir_39b8b3c6654246a9c12332c930bc7d3f -->
<g id="edge1" class="edge">
<title>dir_9f920ef99dcb5f2ba14ba6c3f54b363c&#45;&gt;dir_39b8b3c6654246a9c12332c930bc7d3f</title>
<path fill="none" stroke="#000000" d="M106.9917,-215.8314C97.3277,-207.1337 85.5994,-196.5783 75.0974,-187.1265"/>
<polygon fill="#000000" stroke="#000000" points="77.1343,-184.251 67.36,-180.1628 72.4516,-189.454 77.1343,-184.251"/>
<g id="a_edge1&#45;headlabel"><a xlink:href="dir_000074_000049.html" target="_top" xlink:title="1">
<text text-anchor="middle" x="81.7055" y="-182.0452" font-family="Helvetica,sans-Serif" font-size="10.00" fill="#000000">1</text>
</a>
</g>
</g>
<!-- dir_9f920ef99dcb5f2ba14ba6c3f54b363c&#45;&gt;dir_2186f45272e5c29e3ac18ec762ab7501 -->
<g id="edge2" class="edge">
<title>dir_9f920ef99dcb5f2ba14ba6c3f54b363c&#45;&gt;dir_2186f45272e5c29e3ac18ec762ab7501</title>
<path fill="none" stroke="#000000" d="M132.7517,-215.7623C140.2896,-191.0928 153.8052,-146.8598 162.6317,-117.9731"/>
<polygon fill="#000000" stroke="#000000" points="166.0767,-118.6759 165.6517,-108.0896 159.3822,-116.6303 166.0767,-118.6759"/>
<g id="a_edge2&#45;headlabel"><a xlink:href="dir_000074_000079.html" target="_top" xlink:title="38">
<text text-anchor="middle" x="167.7416" y="-120.4433" font-family="Helvetica,sans-Serif" font-size="10.00" fill="#000000">38</text>
</a>
</g>
</g>
<!-- dir_9f920ef99dcb5f2ba14ba6c3f54b363c&#45;&gt;dir_55f8630d5466d97e74952e939680a0a0 -->
<g id="edge3" class="edge">
<title>dir_9f920ef99dcb5f2ba14ba6c3f54b363c&#45;&gt;dir_55f8630d5466d97e74952e939680a0a0</title>
<path fill="none" stroke="#000000" d="M155.7436,-216.5708C171.052,-207.2301 190.1248,-195.5924 206.7202,-185.4664"/>
<polygon fill="#000000" stroke="#000000" points="208.9319,-188.217 215.6453,-180.0206 205.2859,-182.2415 208.9319,-188.217"/>
<g id="a_edge3&#45;headlabel"><a xlink:href="dir_000074_000085.html" target="_top" xlink:title="1">
<text text-anchor="middle" x="207.3423" y="-190.013" font-family="Helvetica,sans-Serif" font-size="10.00" fill="#000000">1</text>
</a>
</g>
</g>
<!-- dir_9f920ef99dcb5f2ba14ba6c3f54b363c&#45;&gt;dir_a36da230f0956f48b11c85f7d599788f -->
<g id="edge4" class="edge">
<title>dir_9f920ef99dcb5f2ba14ba6c3f54b363c&#45;&gt;dir_a36da230f0956f48b11c85f7d599788f</title>
<path fill="none" stroke="#000000" d="M121.816,-215.6052C113.7187,-184.0225 101.842,-118.409 127.1791,-72 136.8522,-54.282 155.1034,-41.5103 172.1284,-32.8508"/>
<polygon fill="#000000" stroke="#000000" points="173.8605,-35.9032 181.3983,-28.4578 170.8627,-29.5775 173.8605,-35.9032"/>
<g id="a_edge4&#45;headlabel"><a xlink:href="dir_000074_000006.html" target="_top" xlink:title="72">
<text text-anchor="middle" x="171.8281" y="-37.5082" font-family="Helvetica,sans-Serif" font-size="10.00" fill="#000000">72</text>
</a>
</g>
</g>
<!-- dir_39b8b3c6654246a9c12332c930bc7d3f&#45;&gt;dir_fc0178d6978c9fa2cad6ef3e048a60a7 -->
<g id="edge5" class="edge">
<title>dir_39b8b3c6654246a9c12332c930bc7d3f&#45;&gt;dir_fc0178d6978c9fa2cad6ef3e048a60a7</title>
<path fill="none" stroke="#000000" d="M80.2275,-152.9973C112.4874,-143.8572 163.007,-128.6099 214.2822,-108.0908"/>
<polygon fill="#000000" stroke="#000000" points="215.9143,-111.2056 223.8609,-104.1983 213.279,-104.7205 215.9143,-111.2056"/>
<g id="a_edge5&#45;headlabel"><a xlink:href="dir_000049_000007.html" target="_top" xlink:title="32">
<text text-anchor="middle" x="213.653" y="-112.6891" font-family="Helvetica,sans-Serif" font-size="10.00" fill="#000000">32</text>
</a>
</g>
</g>
<!-- dir_39b8b3c6654246a9c12332c930bc7d3f&#45;&gt;dir_2186f45272e5c29e3ac18ec762ab7501 -->
<g id="edge6" class="edge">
<title>dir_39b8b3c6654246a9c12332c930bc7d3f&#45;&gt;dir_2186f45272e5c29e3ac18ec762ab7501</title>
<path fill="none" stroke="#000000" d="M78.4695,-143.8314C94.4767,-134.5368 114.1377,-123.1208 131.2285,-113.1971"/>
<polygon fill="#000000" stroke="#000000" points="133.0082,-116.211 139.8986,-108.1628 129.4932,-110.1575 133.0082,-116.211"/>
<g id="a_edge6&#45;headlabel"><a xlink:href="dir_000049_000079.html" target="_top" xlink:title="32">
<text text-anchor="middle" x="131.3253" y="-117.9713" font-family="Helvetica,sans-Serif" font-size="10.00" fill="#000000">32</text>
</a>
</g>
</g>
<!-- dir_39b8b3c6654246a9c12332c930bc7d3f&#45;&gt;dir_a36da230f0956f48b11c85f7d599788f -->
<g id="edge7" class="edge">
<title>dir_39b8b3c6654246a9c12332c930bc7d3f&#45;&gt;dir_a36da230f0956f48b11c85f7d599788f</title>
<path fill="none" stroke="#000000" d="M52.6646,-143.9326C59.5176,-124.031 72.9889,-92.1793 94.1791,-72 115.9647,-51.2536 147.1461,-37.4028 171.8411,-28.9278"/>
<polygon fill="#000000" stroke="#000000" points="173.2191,-32.1597 181.6375,-25.727 171.045,-25.5059 173.2191,-32.1597"/>
<g id="a_edge7&#45;headlabel"><a xlink:href="dir_000049_000006.html" target="_top" xlink:title="225">
<text text-anchor="middle" x="170.684" y="-33.475" font-family="Helvetica,sans-Serif" font-size="10.00" fill="#000000">225</text>
</a>
</g>
</g>
<!-- dir_fc0178d6978c9fa2cad6ef3e048a60a7&#45;&gt;dir_a36da230f0956f48b11c85f7d599788f -->
<g id="edge8" class="edge">
<title>dir_fc0178d6978c9fa2cad6ef3e048a60a7&#45;&gt;dir_a36da230f0956f48b11c85f7d599788f</title>
<path fill="none" stroke="#000000" d="M235.133,-71.8314C229.9388,-63.8771 224.4464,-54.369 219.9142,-45.5723"/>
<polygon fill="#000000" stroke="#000000" points="222.9716,-43.8574 215.4326,-36.4133 216.6839,-46.934 222.9716,-43.8574"/>
<g id="a_edge8&#45;headlabel"><a xlink:href="dir_000007_000006.html" target="_top" xlink:title="60">
<text text-anchor="middle" x="227.1018" y="-43.3383" font-family="Helvetica,sans-Serif" font-size="10.00" fill="#000000">60</text>
</a>
</g>
</g>
<!-- dir_2186f45272e5c29e3ac18ec762ab7501&#45;&gt;dir_a36da230f0956f48b11c85f7d599788f -->
<g id="edge9" class="edge">
<title>dir_2186f45272e5c29e3ac18ec762ab7501&#45;&gt;dir_a36da230f0956f48b11c85f7d599788f</title>
<path fill="none" stroke="#000000" d="M181.2727,-71.8314C185.7388,-63.7925 191.0865,-54.1666 196.0169,-45.2918"/>
<polygon fill="#000000" stroke="#000000" points="199.1525,-46.8546 200.9495,-36.4133 193.0334,-43.4551 199.1525,-46.8546"/>
<g id="a_edge9&#45;headlabel"><a xlink:href="dir_000079_000006.html" target="_top" xlink:title="169">
<text text-anchor="middle" x="199.8889" y="-48.8757" font-family="Helvetica,sans-Serif" font-size="10.00" fill="#000000">169</text>
</a>
</g>
</g>
<!-- dir_55f8630d5466d97e74952e939680a0a0&#45;&gt;dir_fc0178d6978c9fa2cad6ef3e048a60a7 -->
<g id="edge10" class="edge">
<title>dir_55f8630d5466d97e74952e939680a0a0&#45;&gt;dir_fc0178d6978c9fa2cad6ef3e048a60a7</title>
<path fill="none" stroke="#000000" d="M246.6931,-143.8314C247.3348,-136.131 248.0979,-126.9743 248.811,-118.4166"/>
<polygon fill="#000000" stroke="#000000" points="252.302,-118.6694 249.6446,-108.4133 245.3262,-118.088 252.302,-118.6694"/>
<g id="a_edge10&#45;headlabel"><a xlink:href="dir_000085_000007.html" target="_top" xlink:title="1">
<text text-anchor="middle" x="254.833" y="-119.9874" font-family="Helvetica,sans-Serif" font-size="10.00" fill="#000000">1</text>
</a>
</g>
</g>
<!-- dir_55f8630d5466d97e74952e939680a0a0&#45;&gt;dir_2186f45272e5c29e3ac18ec762ab7501 -->
<g id="edge11" class="edge">
<title>dir_55f8630d5466d97e74952e939680a0a0&#45;&gt;dir_2186f45272e5c29e3ac18ec762ab7501</title>
<path fill="none" stroke="#000000" d="M226.5057,-143.8314C217.6542,-135.219 206.9304,-124.7851 197.2896,-115.4048"/>
<polygon fill="#000000" stroke="#000000" points="199.4544,-112.6279 189.8464,-108.1628 194.5729,-117.645 199.4544,-112.6279"/>
<g id="a_edge11&#45;headlabel"><a xlink:href="dir_000085_000079.html" target="_top" xlink:title="37">
<text text-anchor="middle" x="204.0107" y="-110.5996" font-family="Helvetica,sans-Serif" font-size="10.00" fill="#000000">37</text>
</a>
</g>
</g>
<!-- dir_55f8630d5466d97e74952e939680a0a0&#45;&gt;dir_a36da230f0956f48b11c85f7d599788f -->
<g id="edge12" class="edge">
<title>dir_55f8630d5466d97e74952e939680a0a0&#45;&gt;dir_a36da230f0956f48b11c85f7d599788f</title>
<path fill="none" stroke="#000000" d="M263.8067,-143.8656C280.2636,-125.5424 299.8335,-96.5148 287.1791,-72 279.1248,-56.397 264.2489,-44.3208 249.7792,-35.5843"/>
<polygon fill="#000000" stroke="#000000" points="251.3173,-32.4337 240.8869,-30.5745 247.8814,-38.5324 251.3173,-32.4337"/>
<g id="a_edge12&#45;headlabel"><a xlink:href="dir_000085_000006.html" target="_top" xlink:title="54">
<text text-anchor="middle" x="255.8428" y="-29.2243" font-family="Helvetica,sans-Serif" font-size="10.00" fill="#000000">54</text>
</a>
</g>
</g>
<!-- dir_a36da230f0956f48b11c85f7d599788f&#45;&gt;dir_fc0178d6978c9fa2cad6ef3e048a60a7 -->
<g id="edge13" class="edge">
<title>dir_a36da230f0956f48b11c85f7d599788f&#45;&gt;dir_fc0178d6978c9fa2cad6ef3e048a60a7</title>
<path fill="none" stroke="#000000" d="M227.3847,-36.4133C232.5848,-44.3991 238.0703,-53.9155 242.5828,-62.6975"/>
<polygon fill="#000000" stroke="#000000" points="239.5081,-64.3778 247.0378,-71.8314 245.7997,-61.3091 239.5081,-64.3778"/>
<g id="a_edge13&#45;headlabel"><a xlink:href="dir_000006_000007.html" target="_top" xlink:title="1">
<text text-anchor="middle" x="235.3805" y="-59.8917" font-family="Helvetica,sans-Serif" font-size="10.00" fill="#000000">1</text>
</a>
</g>
</g>
</g>
</svg>
