<?xml version="1.0" encoding="UTF-8" standalone="no"?>
<!DOCTYPE svg PUBLIC "-//W3C//DTD SVG 1.1//EN"
 "http://www.w3.org/Graphics/SVG/1.1/DTD/svg11.dtd">
<!-- Generated by graphviz version 2.40.1 (20161225.0304)
 -->
<!-- Title: drake/systems/trajectory_optimization Pages: 1 -->
<svg width="269pt" height="367pt"
 viewBox="0.00 0.00 268.67 367.00" xmlns="http://www.w3.org/2000/svg" xmlns:xlink="http://www.w3.org/1999/xlink">
<g id="graph0" class="graph" transform="scale(1 1) rotate(0) translate(4 363)">
<title>drake/systems/trajectory_optimization</title>
<polygon fill="#ffffff" stroke="transparent" points="-4,4 -4,-363 264.6659,-363 264.6659,4 -4,4"/>
<g id="clust1" class="cluster">
<title>clusterdir_b7a0e33b407baa23d8a077e33033c988</title>
<g id="a_clust1"><a xlink:href="dir_b7a0e33b407baa23d8a077e33033c988.html" target="_top" xlink:title="systems">
<polygon fill="#ddddee" stroke="#000000" points="21.6659,-280 21.6659,-351 169.6659,-351 169.6659,-280 21.6659,-280"/>
<text text-anchor="middle" x="95.6659" y="-339" font-family="Helvetica,sans-Serif" font-size="10.00" fill="#000000">systems</text>
</a>
</g>
</g>
<!-- dir_90a47678bc0a869c6c11f834a8ae1688 -->
<g id="node1" class="node">
<title>dir_90a47678bc0a869c6c11f834a8ae1688</title>
<g id="a_node1"><a xlink:href="dir_90a47678bc0a869c6c11f834a8ae1688.html" target="_top" xlink:title="trajectory_optimization">
<polygon fill="#eeeeff" stroke="#000000" points="161.1659,-324 30.1659,-324 30.1659,-288 161.1659,-288 161.1659,-324"/>
<text text-anchor="middle" x="95.6659" y="-303.5" font-family="Helvetica,sans-Serif" font-size="10.00" fill="#000000">trajectory_optimization</text>
</a>
</g>
</g>
<!-- dir_9f920ef99dcb5f2ba14ba6c3f54b363c -->
<g id="node2" class="node">
<title>dir_9f920ef99dcb5f2ba14ba6c3f54b363c</title>
<g id="a_node2"><a xlink:href="dir_9f920ef99dcb5f2ba14ba6c3f54b363c.html" target="_top" xlink:title="analysis">
<polygon fill="#ffffff" stroke="#ff0000" points="190.1659,-252 133.1659,-252 133.1659,-216 190.1659,-216 190.1659,-252"/>
<text text-anchor="middle" x="161.6659" y="-231.5" font-family="Helvetica,sans-Serif" font-size="10.00" fill="#000000">analysis</text>
</a>
</g>
</g>
<!-- dir_90a47678bc0a869c6c11f834a8ae1688&#45;&gt;dir_9f920ef99dcb5f2ba14ba6c3f54b363c -->
<g id="edge1" class="edge">
<title>dir_90a47678bc0a869c6c11f834a8ae1688&#45;&gt;dir_9f920ef99dcb5f2ba14ba6c3f54b363c</title>
<path fill="none" stroke="#000000" d="M112.3204,-287.8314C120.0773,-279.3694 129.446,-269.1489 137.9268,-259.8971"/>
<polygon fill="#000000" stroke="#000000" points="140.6098,-262.1499 144.787,-252.4133 135.4497,-257.4198 140.6098,-262.1499"/>
<g id="a_edge1&#45;headlabel"><a xlink:href="dir_000088_000074.html" target="_top" xlink:title="1">
<text text-anchor="middle" x="140.2738" y="-264.2182" font-family="Helvetica,sans-Serif" font-size="10.00" fill="#000000">1</text>
</a>
</g>
</g>
<!-- dir_c86b501450b8b8b59405c286cb030cc3 -->
<g id="node3" class="node">
<title>dir_c86b501450b8b8b59405c286cb030cc3</title>
<g id="a_node3"><a xlink:href="dir_c86b501450b8b8b59405c286cb030cc3.html" target="_top" xlink:title="solvers">
<polygon fill="#ffffff" stroke="#ff0000" points="67.6659,-252 13.6659,-252 13.6659,-216 67.6659,-216 67.6659,-252"/>
<text text-anchor="middle" x="40.6659" y="-231.5" font-family="Helvetica,sans-Serif" font-size="10.00" fill="#000000">solvers</text>
</a>
</g>
</g>
<!-- dir_90a47678bc0a869c6c11f834a8ae1688&#45;&gt;dir_c86b501450b8b8b59405c286cb030cc3 -->
<g id="edge2" class="edge">
<title>dir_90a47678bc0a869c6c11f834a8ae1688&#45;&gt;dir_c86b501450b8b8b59405c286cb030cc3</title>
<path fill="none" stroke="#000000" d="M81.787,-287.8314C75.4523,-279.5386 67.8275,-269.557 60.8733,-260.4533"/>
<polygon fill="#000000" stroke="#000000" points="63.5833,-258.2353 54.7315,-252.4133 58.0206,-262.4847 63.5833,-258.2353"/>
<g id="a_edge2&#45;headlabel"><a xlink:href="dir_000088_000069.html" target="_top" xlink:title="4">
<text text-anchor="middle" x="68.0217" y="-256.8683" font-family="Helvetica,sans-Serif" font-size="10.00" fill="#000000">4</text>
</a>
</g>
</g>
<!-- dir_2186f45272e5c29e3ac18ec762ab7501 -->
<g id="node4" class="node">
<title>dir_2186f45272e5c29e3ac18ec762ab7501</title>
<g id="a_node4"><a xlink:href="dir_2186f45272e5c29e3ac18ec762ab7501.html" target="_top" xlink:title="framework">
<polygon fill="#ffffff" stroke="#ff0000" points="213.6659,-108 143.6659,-108 143.6659,-72 213.6659,-72 213.6659,-108"/>
<text text-anchor="middle" x="178.6659" y="-87.5" font-family="Helvetica,sans-Serif" font-size="10.00" fill="#000000">framework</text>
</a>
</g>
</g>
<!-- dir_90a47678bc0a869c6c11f834a8ae1688&#45;&gt;dir_2186f45272e5c29e3ac18ec762ab7501 -->
<g id="edge3" class="edge">
<title>dir_90a47678bc0a869c6c11f834a8ae1688&#45;&gt;dir_2186f45272e5c29e3ac18ec762ab7501</title>
<path fill="none" stroke="#000000" d="M100.6694,-287.8741C105.8735,-269.5574 114.526,-240.5348 123.6659,-216 136.5383,-181.4453 153.9048,-142.7086 165.6531,-117.4221"/>
<polygon fill="#000000" stroke="#000000" points="168.9447,-118.6455 170.0109,-108.1045 162.6039,-115.6799 168.9447,-118.6455"/>
<g id="a_edge3&#45;headlabel"><a xlink:href="dir_000088_000079.html" target="_top" xlink:title="4">
<text text-anchor="middle" x="169.9937" y="-120.6045" font-family="Helvetica,sans-Serif" font-size="10.00" fill="#000000">4</text>
</a>
</g>
</g>
<!-- dir_55f8630d5466d97e74952e939680a0a0 -->
<g id="node5" class="node">
<title>dir_55f8630d5466d97e74952e939680a0a0</title>
<g id="a_node5"><a xlink:href="dir_55f8630d5466d97e74952e939680a0a0.html" target="_top" xlink:title="primitives">
<polygon fill="none" stroke="#000000" points="260.6659,-180 194.6659,-180 194.6659,-144 260.6659,-144 260.6659,-180"/>
<text text-anchor="middle" x="227.6659" y="-159.5" font-family="Helvetica,sans-Serif" font-size="10.00" fill="#000000">primitives</text>
</a>
</g>
</g>
<!-- dir_90a47678bc0a869c6c11f834a8ae1688&#45;&gt;dir_55f8630d5466d97e74952e939680a0a0 -->
<g id="edge4" class="edge">
<title>dir_90a47678bc0a869c6c11f834a8ae1688&#45;&gt;dir_55f8630d5466d97e74952e939680a0a0</title>
<path fill="none" stroke="#000000" d="M149.3731,-287.9149C167.5102,-279.4882 186.4797,-267.7588 199.6659,-252 214.2853,-234.5283 221.2848,-209.4427 224.6285,-190.1916"/>
<polygon fill="#000000" stroke="#000000" points="228.1076,-190.5918 226.1352,-180.1822 221.1856,-189.5497 228.1076,-190.5918"/>
<g id="a_edge4&#45;headlabel"><a xlink:href="dir_000088_000085.html" target="_top" xlink:title="1">
<text text-anchor="middle" x="230.3803" y="-192.0689" font-family="Helvetica,sans-Serif" font-size="10.00" fill="#000000">1</text>
</a>
</g>
</g>
<!-- dir_a36da230f0956f48b11c85f7d599788f -->
<g id="node6" class="node">
<title>dir_a36da230f0956f48b11c85f7d599788f</title>
<g id="a_node6"><a xlink:href="dir_a36da230f0956f48b11c85f7d599788f.html" target="_top" xlink:title="common">
<polygon fill="#ffffff" stroke="#ff0000" points="145.1659,-36 86.1659,-36 86.1659,0 145.1659,0 145.1659,-36"/>
<text text-anchor="middle" x="115.6659" y="-15.5" font-family="Helvetica,sans-Serif" font-size="10.00" fill="#000000">common</text>
</a>
</g>
</g>
<!-- dir_90a47678bc0a869c6c11f834a8ae1688&#45;&gt;dir_a36da230f0956f48b11c85f7d599788f -->
<g id="edge5" class="edge">
<title>dir_90a47678bc0a869c6c11f834a8ae1688&#45;&gt;dir_a36da230f0956f48b11c85f7d599788f</title>
<path fill="none" stroke="#000000" d="M45.1217,-287.8142C29.3131,-279.4611 13.6651,-267.8046 4.6659,-252 -3.2512,-238.096 .8189,-231.5307 4.6659,-216 21.3322,-148.715 67.4999,-80.4155 94.7596,-44.2617"/>
<polygon fill="#000000" stroke="#000000" points="97.6285,-46.2719 100.9262,-36.2033 92.0694,-42.0178 97.6285,-46.2719"/>
<g id="a_edge5&#45;headlabel"><a xlink:href="dir_000088_000006.html" target="_top" xlink:title="10">
<text text-anchor="middle" x="97.6988" y="-48.352" font-family="Helvetica,sans-Serif" font-size="10.00" fill="#000000">10</text>
</a>
</g>
</g>
<!-- dir_9f920ef99dcb5f2ba14ba6c3f54b363c&#45;&gt;dir_2186f45272e5c29e3ac18ec762ab7501 -->
<g id="edge6" class="edge">
<title>dir_9f920ef99dcb5f2ba14ba6c3f54b363c&#45;&gt;dir_2186f45272e5c29e3ac18ec762ab7501</title>
<path fill="none" stroke="#000000" d="M163.8189,-215.7623C166.7185,-191.201 171.9075,-147.2474 175.3185,-118.3541"/>
<polygon fill="#000000" stroke="#000000" points="178.8336,-118.431 176.5303,-108.0896 171.8819,-117.6103 178.8336,-118.431"/>
<g id="a_edge6&#45;headlabel"><a xlink:href="dir_000074_000079.html" target="_top" xlink:title="38">
<text text-anchor="middle" x="181.232" y="-119.8337" font-family="Helvetica,sans-Serif" font-size="10.00" fill="#000000">38</text>
</a>
</g>
</g>
<!-- dir_9f920ef99dcb5f2ba14ba6c3f54b363c&#45;&gt;dir_55f8630d5466d97e74952e939680a0a0 -->
<g id="edge7" class="edge">
<title>dir_9f920ef99dcb5f2ba14ba6c3f54b363c&#45;&gt;dir_55f8630d5466d97e74952e939680a0a0</title>
<path fill="none" stroke="#000000" d="M178.3204,-215.8314C186.0773,-207.3694 195.446,-197.1489 203.9268,-187.8971"/>
<polygon fill="#000000" stroke="#000000" points="206.6098,-190.1499 210.787,-180.4133 201.4497,-185.4198 206.6098,-190.1499"/>
<g id="a_edge7&#45;headlabel"><a xlink:href="dir_000074_000085.html" target="_top" xlink:title="1">
<text text-anchor="middle" x="206.2738" y="-192.2182" font-family="Helvetica,sans-Serif" font-size="10.00" fill="#000000">1</text>
</a>
</g>
</g>
<!-- dir_9f920ef99dcb5f2ba14ba6c3f54b363c&#45;&gt;dir_a36da230f0956f48b11c85f7d599788f -->
<g id="edge8" class="edge">
<title>dir_9f920ef99dcb5f2ba14ba6c3f54b363c&#45;&gt;dir_a36da230f0956f48b11c85f7d599788f</title>
<path fill="none" stroke="#000000" d="M157.7135,-215.6408C152.4372,-191.1126 142.8108,-146.2937 134.6659,-108 130.2913,-87.4329 125.3903,-64.2135 121.6618,-46.5112"/>
<polygon fill="#000000" stroke="#000000" points="124.9919,-45.3395 119.5069,-36.275 118.1421,-46.7815 124.9919,-45.3395"/>
<g id="a_edge8&#45;headlabel"><a xlink:href="dir_000074_000006.html" target="_top" xlink:title="72">
<text text-anchor="middle" x="128.5107" y="-45.7721" font-family="Helvetica,sans-Serif" font-size="10.00" fill="#000000">72</text>
</a>
</g>
</g>
<!-- dir_c86b501450b8b8b59405c286cb030cc3&#45;&gt;dir_a36da230f0956f48b11c85f7d599788f -->
<g id="edge9" class="edge">
<title>dir_c86b501450b8b8b59405c286cb030cc3&#45;&gt;dir_a36da230f0956f48b11c85f7d599788f</title>
<path fill="none" stroke="#000000" d="M46.9313,-215.9555C60.0287,-178.235 90.3815,-90.8188 105.9992,-45.8399"/>
<polygon fill="#000000" stroke="#000000" points="109.3917,-46.7399 109.3655,-36.1451 102.7789,-44.4437 109.3917,-46.7399"/>
<g id="a_edge9&#45;headlabel"><a xlink:href="dir_000069_000006.html" target="_top" xlink:title="81">
<text text-anchor="middle" x="110.8948" y="-48.5669" font-family="Helvetica,sans-Serif" font-size="10.00" fill="#000000">81</text>
</a>
</g>
</g>
<!-- dir_2186f45272e5c29e3ac18ec762ab7501&#45;&gt;dir_a36da230f0956f48b11c85f7d599788f -->
<g id="edge10" class="edge">
<title>dir_2186f45272e5c29e3ac18ec762ab7501&#45;&gt;dir_a36da230f0956f48b11c85f7d599788f</title>
<path fill="none" stroke="#000000" d="M162.7683,-71.8314C155.4381,-63.454 146.5998,-53.3531 138.5689,-44.1749"/>
<polygon fill="#000000" stroke="#000000" points="140.9966,-41.6343 131.7775,-36.4133 135.7285,-46.2438 140.9966,-41.6343"/>
<g id="a_edge10&#45;headlabel"><a xlink:href="dir_000079_000006.html" target="_top" xlink:title="167">
<text text-anchor="middle" x="145.5004" y="-39.9698" font-family="Helvetica,sans-Serif" font-size="10.00" fill="#000000">167</text>
</a>
</g>
</g>
<!-- dir_55f8630d5466d97e74952e939680a0a0&#45;&gt;dir_2186f45272e5c29e3ac18ec762ab7501 -->
<g id="edge11" class="edge">
<title>dir_55f8630d5466d97e74952e939680a0a0&#45;&gt;dir_2186f45272e5c29e3ac18ec762ab7501</title>
<path fill="none" stroke="#000000" d="M215.3011,-143.8314C209.715,-135.6232 203.0029,-125.7606 196.8587,-116.7323"/>
<polygon fill="#000000" stroke="#000000" points="199.7169,-114.7112 191.1971,-108.4133 193.9299,-118.6496 199.7169,-114.7112"/>
<g id="a_edge11&#45;headlabel"><a xlink:href="dir_000085_000079.html" target="_top" xlink:title="37">
<text text-anchor="middle" x="204.0865" y="-113.5855" font-family="Helvetica,sans-Serif" font-size="10.00" fill="#000000">37</text>
</a>
</g>
</g>
<!-- dir_55f8630d5466d97e74952e939680a0a0&#45;&gt;dir_a36da230f0956f48b11c85f7d599788f -->
<g id="edge12" class="edge">
<title>dir_55f8630d5466d97e74952e939680a0a0&#45;&gt;dir_a36da230f0956f48b11c85f7d599788f</title>
<path fill="none" stroke="#000000" d="M231.6376,-143.8043C234.8185,-124.3712 236.719,-93.475 222.6659,-72 207.4123,-48.6906 178.8505,-34.9928 155.071,-27.2284"/>
<polygon fill="#000000" stroke="#000000" points="155.8103,-23.7955 145.2253,-24.2533 153.7855,-30.4963 155.8103,-23.7955"/>
<g id="a_edge12&#45;headlabel"><a xlink:href="dir_000085_000006.html" target="_top" xlink:title="54">
<text text-anchor="middle" x="160.0725" y="-19.6173" font-family="Helvetica,sans-Serif" font-size="10.00" fill="#000000">54</text>
</a>
</g>
</g>
</g>
</svg>
