<?xml version="1.0" encoding="UTF-8" standalone="no"?>
<!DOCTYPE svg PUBLIC "-//W3C//DTD SVG 1.1//EN"
 "http://www.w3.org/Graphics/SVG/1.1/DTD/svg11.dtd">
<!-- Generated by graphviz version 2.40.1 (20161225.0304)
 -->
<!-- Title: drake/examples/manipulation_station Pages: 1 -->
<svg width="335pt" height="439pt"
 viewBox="0.00 0.00 335.18 439.00" xmlns="http://www.w3.org/2000/svg" xmlns:xlink="http://www.w3.org/1999/xlink">
<g id="graph0" class="graph" transform="scale(1 1) rotate(0) translate(4 435)">
<title>drake/examples/manipulation_station</title>
<polygon fill="#ffffff" stroke="transparent" points="-4,4 -4,-435 331.1765,-435 331.1765,4 -4,4"/>
<g id="clust1" class="cluster">
<title>clusterdir_bf85a0c13984f214f436b2edc519c6dd</title>
<g id="a_clust1"><a xlink:href="dir_bf85a0c13984f214f436b2edc519c6dd.html" target="_top" xlink:title="examples">
<polygon fill="#ddddee" stroke="#000000" points="69,-352 69,-423 205,-423 205,-352 69,-352"/>
<text text-anchor="middle" x="137" y="-411" font-family="Helvetica,sans-Serif" font-size="10.00" fill="#000000">examples</text>
</a>
</g>
</g>
<!-- dir_970ffa4dc1494551190363316edbd789 -->
<g id="node1" class="node">
<title>dir_970ffa4dc1494551190363316edbd789</title>
<g id="a_node1"><a xlink:href="dir_970ffa4dc1494551190363316edbd789.html" target="_top" xlink:title="manipulation_station">
<polygon fill="#eeeeff" stroke="#000000" points="197,-396 77,-396 77,-360 197,-360 197,-396"/>
<text text-anchor="middle" x="137" y="-375.5" font-family="Helvetica,sans-Serif" font-size="10.00" fill="#000000">manipulation_station</text>
</a>
</g>
</g>
<!-- dir_39b8b3c6654246a9c12332c930bc7d3f -->
<g id="node2" class="node">
<title>dir_39b8b3c6654246a9c12332c930bc7d3f</title>
<g id="a_node2"><a xlink:href="dir_39b8b3c6654246a9c12332c930bc7d3f.html" target="_top" xlink:title="multibody">
<polygon fill="#ffffff" stroke="#ff0000" points="232,-324 166,-324 166,-288 232,-288 232,-324"/>
<text text-anchor="middle" x="199" y="-303.5" font-family="Helvetica,sans-Serif" font-size="10.00" fill="#000000">multibody</text>
</a>
</g>
</g>
<!-- dir_970ffa4dc1494551190363316edbd789&#45;&gt;dir_39b8b3c6654246a9c12332c930bc7d3f -->
<g id="edge18" class="edge">
<title>dir_970ffa4dc1494551190363316edbd789&#45;&gt;dir_39b8b3c6654246a9c12332c930bc7d3f</title>
<path fill="none" stroke="#000000" d="M152.6452,-359.8314C159.8591,-351.454 168.557,-341.3531 176.4605,-332.1749"/>
<polygon fill="#000000" stroke="#000000" points="179.2711,-334.2748 183.1441,-324.4133 173.9667,-329.7071 179.2711,-334.2748"/>
<g id="a_edge18&#45;headlabel"><a xlink:href="dir_000021_000048.html" target="_top" xlink:title="2">
<text text-anchor="middle" x="179.077" y="-336.3514" font-family="Helvetica,sans-Serif" font-size="10.00" fill="#000000">2</text>
</a>
</g>
</g>
<!-- dir_fc0178d6978c9fa2cad6ef3e048a60a7 -->
<g id="node3" class="node">
<title>dir_fc0178d6978c9fa2cad6ef3e048a60a7</title>
<g id="a_node3"><a xlink:href="dir_fc0178d6978c9fa2cad6ef3e048a60a7.html" target="_top" xlink:title="math">
<polygon fill="none" stroke="#000000" points="176,-108 122,-108 122,-72 176,-72 176,-108"/>
<text text-anchor="middle" x="149" y="-87.5" font-family="Helvetica,sans-Serif" font-size="10.00" fill="#000000">math</text>
</a>
</g>
</g>
<!-- dir_970ffa4dc1494551190363316edbd789&#45;&gt;dir_fc0178d6978c9fa2cad6ef3e048a60a7 -->
<g id="edge19" class="edge">
<title>dir_970ffa4dc1494551190363316edbd789&#45;&gt;dir_fc0178d6978c9fa2cad6ef3e048a60a7</title>
<path fill="none" stroke="#000000" d="M137.7507,-359.9843C139.7794,-311.2939 145.3835,-176.7961 147.8309,-118.0573"/>
<polygon fill="#000000" stroke="#000000" points="151.3302,-118.146 148.2496,-108.0089 144.3363,-117.8545 151.3302,-118.146"/>
<g id="a_edge19&#45;headlabel"><a xlink:href="dir_000021_000007.html" target="_top" xlink:title="1">
<text text-anchor="middle" x="154.0175" y="-119.3556" font-family="Helvetica,sans-Serif" font-size="10.00" fill="#000000">1</text>
</a>
</g>
</g>
<!-- dir_3c3c25df5132fca4f15a988b4c2efab5 -->
<g id="node4" class="node">
<title>dir_3c3c25df5132fca4f15a988b4c2efab5</title>
<g id="a_node4"><a xlink:href="dir_3c3c25df5132fca4f15a988b4c2efab5.html" target="_top" xlink:title="lcm">
<polygon fill="none" stroke="#000000" points="306,-108 252,-108 252,-72 306,-72 306,-108"/>
<text text-anchor="middle" x="279" y="-87.5" font-family="Helvetica,sans-Serif" font-size="10.00" fill="#000000">lcm</text>
</a>
</g>
</g>
<!-- dir_970ffa4dc1494551190363316edbd789&#45;&gt;dir_3c3c25df5132fca4f15a988b4c2efab5 -->
<g id="edge20" class="edge">
<title>dir_970ffa4dc1494551190363316edbd789&#45;&gt;dir_3c3c25df5132fca4f15a988b4c2efab5</title>
<path fill="none" stroke="#000000" d="M197.2294,-360.5532C219.5586,-352.0419 244.0357,-340.0899 263,-324 291.9558,-299.433 298.3504,-288.4494 309,-252 322.5217,-205.7206 305.2301,-150.1508 291.8408,-117.5895"/>
<polygon fill="#000000" stroke="#000000" points="295.0003,-116.0762 287.8492,-108.2588 288.5644,-118.8295 295.0003,-116.0762"/>
<g id="a_edge20&#45;headlabel"><a xlink:href="dir_000021_000040.html" target="_top" xlink:title="2">
<text text-anchor="middle" x="299.0245" y="-115.7644" font-family="Helvetica,sans-Serif" font-size="10.00" fill="#000000">2</text>
</a>
</g>
</g>
<!-- dir_a36da230f0956f48b11c85f7d599788f -->
<g id="node5" class="node">
<title>dir_a36da230f0956f48b11c85f7d599788f</title>
<g id="a_node5"><a xlink:href="dir_a36da230f0956f48b11c85f7d599788f.html" target="_top" xlink:title="common">
<polygon fill="#ffffff" stroke="#ff0000" points="178.5,-36 119.5,-36 119.5,0 178.5,0 178.5,-36"/>
<text text-anchor="middle" x="149" y="-15.5" font-family="Helvetica,sans-Serif" font-size="10.00" fill="#000000">common</text>
</a>
</g>
</g>
<!-- dir_970ffa4dc1494551190363316edbd789&#45;&gt;dir_a36da230f0956f48b11c85f7d599788f -->
<g id="edge21" class="edge">
<title>dir_970ffa4dc1494551190363316edbd789&#45;&gt;dir_a36da230f0956f48b11c85f7d599788f</title>
<path fill="none" stroke="#000000" d="M100.6462,-359.8217C60.0593,-336.6537 0,-292.4889 0,-234 0,-234 0,-234 0,-162 0,-100.7065 66.0006,-57.215 110.1484,-34.9796"/>
<polygon fill="#000000" stroke="#000000" points="111.7544,-38.0905 119.2057,-30.5587 108.6838,-31.7998 111.7544,-38.0905"/>
<g id="a_edge21&#45;headlabel"><a xlink:href="dir_000021_000006.html" target="_top" xlink:title="1">
<text text-anchor="middle" x="109.7694" y="-39.7187" font-family="Helvetica,sans-Serif" font-size="10.00" fill="#000000">1</text>
</a>
</g>
</g>
<!-- dir_d739e095b49d8b72164589d00310017d -->
<g id="node6" class="node">
<title>dir_d739e095b49d8b72164589d00310017d</title>
<g id="a_node6"><a xlink:href="dir_d739e095b49d8b72164589d00310017d.html" target="_top" xlink:title="geometry">
<polygon fill="#ffffff" stroke="#ff0000" points="300,-252 236,-252 236,-216 300,-216 300,-252"/>
<text text-anchor="middle" x="268" y="-231.5" font-family="Helvetica,sans-Serif" font-size="10.00" fill="#000000">geometry</text>
</a>
</g>
</g>
<!-- dir_970ffa4dc1494551190363316edbd789&#45;&gt;dir_d739e095b49d8b72164589d00310017d -->
<g id="edge22" class="edge">
<title>dir_970ffa4dc1494551190363316edbd789&#45;&gt;dir_d739e095b49d8b72164589d00310017d</title>
<path fill="none" stroke="#000000" d="M190.7955,-359.9883C208.9415,-351.5691 227.8941,-339.8256 241,-324 255.4854,-306.5086 262.2009,-281.4247 265.3134,-262.1793"/>
<polygon fill="#000000" stroke="#000000" points="268.7942,-262.5588 266.6984,-252.1733 261.8603,-261.599 268.7942,-262.5588"/>
<g id="a_edge22&#45;headlabel"><a xlink:href="dir_000021_000033.html" target="_top" xlink:title="2">
<text text-anchor="middle" x="271.1139" y="-264.0087" font-family="Helvetica,sans-Serif" font-size="10.00" fill="#000000">2</text>
</a>
</g>
</g>
<!-- dir_b7a0e33b407baa23d8a077e33033c988 -->
<g id="node7" class="node">
<title>dir_b7a0e33b407baa23d8a077e33033c988</title>
<g id="a_node7"><a xlink:href="dir_b7a0e33b407baa23d8a077e33033c988.html" target="_top" xlink:title="systems">
<polygon fill="#ffffff" stroke="#ff0000" points="233,-180 175,-180 175,-144 233,-144 233,-180"/>
<text text-anchor="middle" x="204" y="-159.5" font-family="Helvetica,sans-Serif" font-size="10.00" fill="#000000">systems</text>
</a>
</g>
</g>
<!-- dir_970ffa4dc1494551190363316edbd789&#45;&gt;dir_b7a0e33b407baa23d8a077e33033c988 -->
<g id="edge23" class="edge">
<title>dir_970ffa4dc1494551190363316edbd789&#45;&gt;dir_b7a0e33b407baa23d8a077e33033c988</title>
<path fill="none" stroke="#000000" d="M140.2609,-359.8831C143.7347,-341.5734 149.7296,-312.5562 157,-288 167.2399,-253.4143 182.2377,-214.684 192.5214,-189.4075"/>
<polygon fill="#000000" stroke="#000000" points="195.7849,-190.674 196.3453,-180.0939 189.3094,-188.0152 195.7849,-190.674"/>
<g id="a_edge23&#45;headlabel"><a xlink:href="dir_000021_000072.html" target="_top" xlink:title="3">
<text text-anchor="middle" x="197.0462" y="-192.5776" font-family="Helvetica,sans-Serif" font-size="10.00" fill="#000000">3</text>
</a>
</g>
</g>
<!-- dir_39b8b3c6654246a9c12332c930bc7d3f&#45;&gt;dir_fc0178d6978c9fa2cad6ef3e048a60a7 -->
<g id="edge1" class="edge">
<title>dir_39b8b3c6654246a9c12332c930bc7d3f&#45;&gt;dir_fc0178d6978c9fa2cad6ef3e048a60a7</title>
<path fill="none" stroke="#000000" d="M193.7896,-287.7347C186.9205,-263.3104 174.6907,-218.6063 166,-180 161.351,-159.3482 156.94,-135.8372 153.7767,-118.0254"/>
<polygon fill="#000000" stroke="#000000" points="157.1945,-117.2514 152.0217,-108.0052 150.2994,-118.4591 157.1945,-117.2514"/>
<g id="a_edge1&#45;headlabel"><a xlink:href="dir_000048_000007.html" target="_top" xlink:title="32">
<text text-anchor="middle" x="160.6112" y="-117.8024" font-family="Helvetica,sans-Serif" font-size="10.00" fill="#000000">32</text>
</a>
</g>
</g>
<!-- dir_39b8b3c6654246a9c12332c930bc7d3f&#45;&gt;dir_a36da230f0956f48b11c85f7d599788f -->
<g id="edge2" class="edge">
<title>dir_39b8b3c6654246a9c12332c930bc7d3f&#45;&gt;dir_a36da230f0956f48b11c85f7d599788f</title>
<path fill="none" stroke="#000000" d="M187.7762,-287.7871C167.6823,-253.9245 126.4103,-178.3146 113,-108 110.0025,-92.2833 108.3635,-87.3135 113,-72 115.9564,-62.2355 121.3252,-52.6229 127.03,-44.2762"/>
<polygon fill="#000000" stroke="#000000" points="129.9414,-46.2239 133.0095,-36.0831 124.2871,-42.0973 129.9414,-46.2239"/>
<g id="a_edge2&#45;headlabel"><a xlink:href="dir_000048_000006.html" target="_top" xlink:title="217">
<text text-anchor="middle" x="130.1158" y="-48.3013" font-family="Helvetica,sans-Serif" font-size="10.00" fill="#000000">217</text>
</a>
</g>
</g>
<!-- dir_39b8b3c6654246a9c12332c930bc7d3f&#45;&gt;dir_d739e095b49d8b72164589d00310017d -->
<g id="edge3" class="edge">
<title>dir_39b8b3c6654246a9c12332c930bc7d3f&#45;&gt;dir_d739e095b49d8b72164589d00310017d</title>
<path fill="none" stroke="#000000" d="M210.4592,-287.8314C217.9468,-279.1337 227.8904,-268.5783 237.4519,-259.1265"/>
<polygon fill="#000000" stroke="#000000" points="239.8937,-261.634 244.6421,-252.1628 235.0238,-256.6057 239.8937,-261.634"/>
<g id="a_edge3&#45;headlabel"><a xlink:href="dir_000048_000033.html" target="_top" xlink:title="27">
<text text-anchor="middle" x="239.2869" y="-263.6743" font-family="Helvetica,sans-Serif" font-size="10.00" fill="#000000">27</text>
</a>
</g>
</g>
<!-- dir_39b8b3c6654246a9c12332c930bc7d3f&#45;&gt;dir_b7a0e33b407baa23d8a077e33033c988 -->
<g id="edge4" class="edge">
<title>dir_39b8b3c6654246a9c12332c930bc7d3f&#45;&gt;dir_b7a0e33b407baa23d8a077e33033c988</title>
<path fill="none" stroke="#000000" d="M194.9601,-287.7623C193.3531,-263.201 194.6045,-219.2474 197.5181,-190.3541"/>
<polygon fill="#000000" stroke="#000000" points="201.0331,-190.4274 198.7136,-180.0896 194.0801,-189.6175 201.0331,-190.4274"/>
<g id="a_edge4&#45;headlabel"><a xlink:href="dir_000048_000072.html" target="_top" xlink:title="32">
<text text-anchor="middle" x="203.4375" y="-191.8263" font-family="Helvetica,sans-Serif" font-size="10.00" fill="#000000">32</text>
</a>
</g>
</g>
<!-- dir_fc0178d6978c9fa2cad6ef3e048a60a7&#45;&gt;dir_a36da230f0956f48b11c85f7d599788f -->
<g id="edge5" class="edge">
<title>dir_fc0178d6978c9fa2cad6ef3e048a60a7&#45;&gt;dir_a36da230f0956f48b11c85f7d599788f</title>
<path fill="none" stroke="#000000" d="M143.0476,-71.8314C142.2972,-64.131 142.0763,-54.9743 142.3849,-46.4166"/>
<polygon fill="#000000" stroke="#000000" points="145.8792,-46.6161 143.024,-36.4133 138.8935,-46.1697 145.8792,-46.6161"/>
<g id="a_edge5&#45;headlabel"><a xlink:href="dir_000007_000006.html" target="_top" xlink:title="57">
<text text-anchor="middle" x="148.4836" y="-47.8844" font-family="Helvetica,sans-Serif" font-size="10.00" fill="#000000">57</text>
</a>
</g>
</g>
<!-- dir_3c3c25df5132fca4f15a988b4c2efab5&#45;&gt;dir_a36da230f0956f48b11c85f7d599788f -->
<g id="edge6" class="edge">
<title>dir_3c3c25df5132fca4f15a988b4c2efab5&#45;&gt;dir_a36da230f0956f48b11c85f7d599788f</title>
<path fill="none" stroke="#000000" d="M251.7477,-74.9064C233.1989,-64.6333 208.3741,-50.8841 187.7726,-39.474"/>
<polygon fill="#000000" stroke="#000000" points="189.3818,-36.3644 178.9381,-34.5811 185.9903,-42.4879 189.3818,-36.3644"/>
<g id="a_edge6&#45;headlabel"><a xlink:href="dir_000040_000006.html" target="_top" xlink:title="7">
<text text-anchor="middle" x="193.9019" y="-33.1221" font-family="Helvetica,sans-Serif" font-size="10.00" fill="#000000">7</text>
</a>
</g>
</g>
<!-- dir_a36da230f0956f48b11c85f7d599788f&#45;&gt;dir_fc0178d6978c9fa2cad6ef3e048a60a7 -->
<g id="edge7" class="edge">
<title>dir_a36da230f0956f48b11c85f7d599788f&#45;&gt;dir_fc0178d6978c9fa2cad6ef3e048a60a7</title>
<path fill="none" stroke="#000000" d="M154.976,-36.4133C155.7071,-44.0593 155.9203,-53.1084 155.6155,-61.5726"/>
<polygon fill="#000000" stroke="#000000" points="152.1048,-61.6264 154.9524,-71.8314 159.0902,-62.078 152.1048,-61.6264"/>
<g id="a_edge7&#45;headlabel"><a xlink:href="dir_000006_000007.html" target="_top" xlink:title="1">
<text text-anchor="middle" x="149.5032" y="-55.3562" font-family="Helvetica,sans-Serif" font-size="10.00" fill="#000000">1</text>
</a>
</g>
</g>
<!-- dir_d739e095b49d8b72164589d00310017d&#45;&gt;dir_39b8b3c6654246a9c12332c930bc7d3f -->
<g id="edge8" class="edge">
<title>dir_d739e095b49d8b72164589d00310017d&#45;&gt;dir_39b8b3c6654246a9c12332c930bc7d3f</title>
<path fill="none" stroke="#000000" d="M256.33,-252.4133C248.9274,-260.9938 239.1792,-271.3414 229.7779,-280.6463"/>
<polygon fill="#000000" stroke="#000000" points="227.1092,-278.3586 222.364,-287.8314 231.9808,-283.3853 227.1092,-278.3586"/>
<g id="a_edge8&#45;headlabel"><a xlink:href="dir_000033_000048.html" target="_top" xlink:title="1">
<text text-anchor="middle" x="227.7145" y="-271.3181" font-family="Helvetica,sans-Serif" font-size="10.00" fill="#000000">1</text>
</a>
</g>
</g>
<!-- dir_d739e095b49d8b72164589d00310017d&#45;&gt;dir_fc0178d6978c9fa2cad6ef3e048a60a7 -->
<g id="edge9" class="edge">
<title>dir_d739e095b49d8b72164589d00310017d&#45;&gt;dir_fc0178d6978c9fa2cad6ef3e048a60a7</title>
<path fill="none" stroke="#000000" d="M266.7407,-215.986C264.5431,-196.4247 258.5164,-165.1507 242,-144 227.4837,-125.4106 204.6475,-112.0182 185.2375,-103.2203"/>
<polygon fill="#000000" stroke="#000000" points="186.6052,-99.9987 176.0356,-99.2678 183.8426,-106.4304 186.6052,-99.9987"/>
<g id="a_edge9&#45;headlabel"><a xlink:href="dir_000033_000007.html" target="_top" xlink:title="21">
<text text-anchor="middle" x="191.0286" y="-96.3085" font-family="Helvetica,sans-Serif" font-size="10.00" fill="#000000">21</text>
</a>
</g>
</g>
<!-- dir_d739e095b49d8b72164589d00310017d&#45;&gt;dir_3c3c25df5132fca4f15a988b4c2efab5 -->
<g id="edge10" class="edge">
<title>dir_d739e095b49d8b72164589d00310017d&#45;&gt;dir_3c3c25df5132fca4f15a988b4c2efab5</title>
<path fill="none" stroke="#000000" d="M270.7844,-215.5475C272.2572,-205.1335 273.969,-191.8666 275,-180 276.7825,-159.4832 277.7896,-136.2624 278.3473,-118.5468"/>
<polygon fill="#000000" stroke="#000000" points="281.8529,-118.3969 278.6394,-108.3012 274.8558,-118.1973 281.8529,-118.3969"/>
<g id="a_edge10&#45;headlabel"><a xlink:href="dir_000033_000040.html" target="_top" xlink:title="1">
<text text-anchor="middle" x="284.5887" y="-119.5709" font-family="Helvetica,sans-Serif" font-size="10.00" fill="#000000">1</text>
</a>
</g>
</g>
<!-- dir_d739e095b49d8b72164589d00310017d&#45;&gt;dir_a36da230f0956f48b11c85f7d599788f -->
<g id="edge11" class="edge">
<title>dir_d739e095b49d8b72164589d00310017d&#45;&gt;dir_a36da230f0956f48b11c85f7d599788f</title>
<path fill="none" stroke="#000000" d="M282.4684,-215.9745C306.189,-184.0952 347.6112,-116.9017 315,-72 299.9648,-51.2983 232.5494,-34.4136 188.3903,-25.3164"/>
<polygon fill="#000000" stroke="#000000" points="189.0238,-21.8738 178.5301,-23.3342 187.6441,-28.7365 189.0238,-21.8738"/>
<g id="a_edge11&#45;headlabel"><a xlink:href="dir_000033_000006.html" target="_top" xlink:title="105">
<text text-anchor="middle" x="193.1075" y="-17.2986" font-family="Helvetica,sans-Serif" font-size="10.00" fill="#000000">105</text>
</a>
</g>
</g>
<!-- dir_d739e095b49d8b72164589d00310017d&#45;&gt;dir_b7a0e33b407baa23d8a077e33033c988 -->
<g id="edge12" class="edge">
<title>dir_d739e095b49d8b72164589d00310017d&#45;&gt;dir_b7a0e33b407baa23d8a077e33033c988</title>
<path fill="none" stroke="#000000" d="M245.8977,-215.8314C237.6348,-207.454 228.4665,-197.3531 220.7452,-188.1749"/>
<polygon fill="#000000" stroke="#000000" points="223.4341,-185.9341 214.3913,-180.4133 218.0175,-190.3683 223.4341,-185.9341"/>
<g id="a_edge12&#45;headlabel"><a xlink:href="dir_000033_000072.html" target="_top" xlink:title="10">
<text text-anchor="middle" x="227.908" y="-184.4171" font-family="Helvetica,sans-Serif" font-size="10.00" fill="#000000">10</text>
</a>
</g>
</g>
<!-- dir_b7a0e33b407baa23d8a077e33033c988&#45;&gt;dir_39b8b3c6654246a9c12332c930bc7d3f -->
<g id="edge13" class="edge">
<title>dir_b7a0e33b407baa23d8a077e33033c988&#45;&gt;dir_39b8b3c6654246a9c12332c930bc7d3f</title>
<path fill="none" stroke="#000000" d="M208.0302,-180.0896C209.6487,-204.5727 208.4064,-248.5174 205.4995,-277.4713"/>
<polygon fill="#000000" stroke="#000000" points="201.9814,-277.4257 204.3064,-287.7623 208.9349,-278.2319 201.9814,-277.4257"/>
<g id="a_edge13&#45;headlabel"><a xlink:href="dir_000072_000048.html" target="_top" xlink:title="8">
<text text-anchor="middle" x="199.5749" y="-271.0281" font-family="Helvetica,sans-Serif" font-size="10.00" fill="#000000">8</text>
</a>
</g>
</g>
<!-- dir_b7a0e33b407baa23d8a077e33033c988&#45;&gt;dir_fc0178d6978c9fa2cad6ef3e048a60a7 -->
<g id="edge14" class="edge">
<title>dir_b7a0e33b407baa23d8a077e33033c988&#45;&gt;dir_fc0178d6978c9fa2cad6ef3e048a60a7</title>
<path fill="none" stroke="#000000" d="M190.1212,-143.8314C183.7864,-135.5386 176.1616,-125.557 169.2074,-116.4533"/>
<polygon fill="#000000" stroke="#000000" points="171.9175,-114.2353 163.0657,-108.4133 166.3548,-118.4847 171.9175,-114.2353"/>
<g id="a_edge14&#45;headlabel"><a xlink:href="dir_000072_000007.html" target="_top" xlink:title="10">
<text text-anchor="middle" x="176.3558" y="-112.8683" font-family="Helvetica,sans-Serif" font-size="10.00" fill="#000000">10</text>
</a>
</g>
</g>
<!-- dir_b7a0e33b407baa23d8a077e33033c988&#45;&gt;dir_3c3c25df5132fca4f15a988b4c2efab5 -->
<g id="edge15" class="edge">
<title>dir_b7a0e33b407baa23d8a077e33033c988&#45;&gt;dir_3c3c25df5132fca4f15a988b4c2efab5</title>
<path fill="none" stroke="#000000" d="M222.9257,-143.8314C231.9857,-135.1337 242.9809,-124.5783 252.8265,-115.1265"/>
<polygon fill="#000000" stroke="#000000" points="255.2904,-117.613 260.0804,-108.1628 250.4426,-112.5633 255.2904,-117.613"/>
<g id="a_edge15&#45;headlabel"><a xlink:href="dir_000072_000040.html" target="_top" xlink:title="4">
<text text-anchor="middle" x="254.6636" y="-119.6506" font-family="Helvetica,sans-Serif" font-size="10.00" fill="#000000">4</text>
</a>
</g>
</g>
<!-- dir_b7a0e33b407baa23d8a077e33033c988&#45;&gt;dir_a36da230f0956f48b11c85f7d599788f -->
<g id="edge16" class="edge">
<title>dir_b7a0e33b407baa23d8a077e33033c988&#45;&gt;dir_a36da230f0956f48b11c85f7d599788f</title>
<path fill="none" stroke="#000000" d="M202.2095,-143.8083C199.9112,-125.1875 194.9655,-95.7008 185,-72 181.0456,-62.5953 175.3848,-53.0879 169.7195,-44.727"/>
<polygon fill="#000000" stroke="#000000" points="172.5184,-42.6231 163.8853,-36.4815 166.8041,-46.6664 172.5184,-42.6231"/>
<g id="a_edge16&#45;headlabel"><a xlink:href="dir_000072_000006.html" target="_top" xlink:title="368">
<text text-anchor="middle" x="176.9124" y="-41.4175" font-family="Helvetica,sans-Serif" font-size="10.00" fill="#000000">368</text>
</a>
</g>
</g>
<!-- dir_b7a0e33b407baa23d8a077e33033c988&#45;&gt;dir_d739e095b49d8b72164589d00310017d -->
<g id="edge17" class="edge">
<title>dir_b7a0e33b407baa23d8a077e33033c988&#45;&gt;dir_d739e095b49d8b72164589d00310017d</title>
<path fill="none" stroke="#000000" d="M226.3434,-180.4133C234.54,-188.7389 243.6014,-198.7282 251.2458,-207.8144"/>
<polygon fill="#000000" stroke="#000000" points="248.7623,-210.3063 257.8025,-215.8314 254.1809,-205.8747 248.7623,-210.3063"/>
<g id="a_edge17&#45;headlabel"><a xlink:href="dir_000072_000033.html" target="_top" xlink:title="5">
<text text-anchor="middle" x="244.2888" y="-206.8213" font-family="Helvetica,sans-Serif" font-size="10.00" fill="#000000">5</text>
</a>
</g>
</g>
</g>
</svg>
