<?xml version="1.0" encoding="UTF-8" standalone="no"?>
<!DOCTYPE svg PUBLIC "-//W3C//DTD SVG 1.1//EN"
 "http://www.w3.org/Graphics/SVG/1.1/DTD/svg11.dtd">
<!-- Generated by graphviz version 2.40.1 (20161225.0304)
 -->
<!-- Title: drake/examples/multibody/rolling_sphere Pages: 1 -->
<svg width="131pt" height="223pt"
 viewBox="0.00 0.00 131.00 223.00" xmlns="http://www.w3.org/2000/svg" xmlns:xlink="http://www.w3.org/1999/xlink">
<g id="graph0" class="graph" transform="scale(1 1) rotate(0) translate(4 219)">
<title>drake/examples/multibody/rolling_sphere</title>
<polygon fill="#ffffff" stroke="transparent" points="-4,4 -4,-219 127,-219 127,4 -4,4"/>
<g id="clust1" class="cluster">
<title>clusterdir_9acdd6771460017440c69ee654743722</title>
<g id="a_clust1"><a xlink:href="dir_9acdd6771460017440c69ee654743722.html" target="_top" xlink:title="multibody">
<polygon fill="#ddddee" stroke="#000000" points="13,-136 13,-207 115,-207 115,-136 13,-136"/>
<text text-anchor="middle" x="64" y="-195" font-family="Helvetica,sans-Serif" font-size="10.00" fill="#000000">multibody</text>
</a>
</g>
</g>
<!-- dir_474aa644b99dd5481f12728ecfc3f855 -->
<g id="node1" class="node">
<title>dir_474aa644b99dd5481f12728ecfc3f855</title>
<g id="a_node1"><a xlink:href="dir_474aa644b99dd5481f12728ecfc3f855.html" target="_top" xlink:title="rolling_sphere">
<polygon fill="#eeeeff" stroke="#000000" points="107,-180 21,-180 21,-144 107,-144 107,-180"/>
<text text-anchor="middle" x="64" y="-159.5" font-family="Helvetica,sans-Serif" font-size="10.00" fill="#000000">rolling_sphere</text>
</a>
</g>
</g>
<!-- dir_39b8b3c6654246a9c12332c930bc7d3f -->
<g id="node2" class="node">
<title>dir_39b8b3c6654246a9c12332c930bc7d3f</title>
<g id="a_node2"><a xlink:href="dir_39b8b3c6654246a9c12332c930bc7d3f.html" target="_top" xlink:title="multibody">
<polygon fill="#ffffff" stroke="#ff0000" points="66,-108 0,-108 0,-72 66,-72 66,-108"/>
<text text-anchor="middle" x="33" y="-87.5" font-family="Helvetica,sans-Serif" font-size="10.00" fill="#000000">multibody</text>
</a>
</g>
</g>
<!-- dir_474aa644b99dd5481f12728ecfc3f855&#45;&gt;dir_39b8b3c6654246a9c12332c930bc7d3f -->
<g id="edge3" class="edge">
<title>dir_474aa644b99dd5481f12728ecfc3f855&#45;&gt;dir_39b8b3c6654246a9c12332c930bc7d3f</title>
<path fill="none" stroke="#000000" d="M56.1774,-143.8314C52.7891,-135.9617 48.7459,-126.5712 44.9924,-117.8533"/>
<polygon fill="#000000" stroke="#000000" points="48.0973,-116.214 40.9279,-108.4133 41.6679,-118.9822 48.0973,-116.214"/>
<g id="a_edge3&#45;headlabel"><a xlink:href="dir_000025_000049.html" target="_top" xlink:title="1">
<text text-anchor="middle" x="52.1266" y="-115.8928" font-family="Helvetica,sans-Serif" font-size="10.00" fill="#000000">1</text>
</a>
</g>
</g>
<!-- dir_d739e095b49d8b72164589d00310017d -->
<g id="node3" class="node">
<title>dir_d739e095b49d8b72164589d00310017d</title>
<g id="a_node3"><a xlink:href="dir_d739e095b49d8b72164589d00310017d.html" target="_top" xlink:title="geometry">
<polygon fill="#ffffff" stroke="#ff0000" points="65,-36 1,-36 1,0 65,0 65,-36"/>
<text text-anchor="middle" x="33" y="-15.5" font-family="Helvetica,sans-Serif" font-size="10.00" fill="#000000">geometry</text>
</a>
</g>
</g>
<!-- dir_474aa644b99dd5481f12728ecfc3f855&#45;&gt;dir_d739e095b49d8b72164589d00310017d -->
<g id="edge4" class="edge">
<title>dir_474aa644b99dd5481f12728ecfc3f855&#45;&gt;dir_d739e095b49d8b72164589d00310017d</title>
<path fill="none" stroke="#000000" d="M70.8181,-143.9202C76.7536,-125.3886 83.2249,-95.9717 75,-72 71.531,-61.8894 65.3101,-52.2137 58.701,-43.9166"/>
<polygon fill="#000000" stroke="#000000" points="61.2008,-41.4539 52.05,-36.1141 55.8735,-45.9949 61.2008,-41.4539"/>
<g id="a_edge4&#45;headlabel"><a xlink:href="dir_000025_000034.html" target="_top" xlink:title="1">
<text text-anchor="middle" x="65.6934" y="-39.8476" font-family="Helvetica,sans-Serif" font-size="10.00" fill="#000000">1</text>
</a>
</g>
</g>
<!-- dir_39b8b3c6654246a9c12332c930bc7d3f&#45;&gt;dir_d739e095b49d8b72164589d00310017d -->
<g id="edge1" class="edge">
<title>dir_39b8b3c6654246a9c12332c930bc7d3f&#45;&gt;dir_d739e095b49d8b72164589d00310017d</title>
<path fill="none" stroke="#000000" d="M27.0476,-71.8314C26.2972,-64.131 26.0763,-54.9743 26.3849,-46.4166"/>
<polygon fill="#000000" stroke="#000000" points="29.8792,-46.6161 27.024,-36.4133 22.8935,-46.1697 29.8792,-46.6161"/>
<g id="a_edge1&#45;headlabel"><a xlink:href="dir_000049_000034.html" target="_top" xlink:title="28">
<text text-anchor="middle" x="32.4836" y="-47.8844" font-family="Helvetica,sans-Serif" font-size="10.00" fill="#000000">28</text>
</a>
</g>
</g>
<!-- dir_d739e095b49d8b72164589d00310017d&#45;&gt;dir_39b8b3c6654246a9c12332c930bc7d3f -->
<g id="edge2" class="edge">
<title>dir_d739e095b49d8b72164589d00310017d&#45;&gt;dir_39b8b3c6654246a9c12332c930bc7d3f</title>
<path fill="none" stroke="#000000" d="M38.976,-36.4133C39.7071,-44.0593 39.9203,-53.1084 39.6155,-61.5726"/>
<polygon fill="#000000" stroke="#000000" points="36.1048,-61.6264 38.9524,-71.8314 43.0902,-62.078 36.1048,-61.6264"/>
<g id="a_edge2&#45;headlabel"><a xlink:href="dir_000034_000049.html" target="_top" xlink:title="1">
<text text-anchor="middle" x="33.5032" y="-55.3562" font-family="Helvetica,sans-Serif" font-size="10.00" fill="#000000">1</text>
</a>
</g>
</g>
</g>
</svg>
