<?xml version="1.0" encoding="UTF-8" standalone="no"?>
<!DOCTYPE svg PUBLIC "-//W3C//DTD SVG 1.1//EN"
 "http://www.w3.org/Graphics/SVG/1.1/DTD/svg11.dtd">
<!-- Generated by graphviz version 2.40.1 (20161225.0304)
 -->
<!-- Title: drake/bindings/pydrake/common Pages: 1 -->
<svg width="100pt" height="151pt"
 viewBox="0.00 0.00 100.00 151.00" xmlns="http://www.w3.org/2000/svg" xmlns:xlink="http://www.w3.org/1999/xlink">
<g id="graph0" class="graph" transform="scale(1 1) rotate(0) translate(4 147)">
<title>drake/bindings/pydrake/common</title>
<polygon fill="#ffffff" stroke="transparent" points="-4,4 -4,-147 96,-147 96,4 -4,4"/>
<g id="clust1" class="cluster">
<title>clusterdir_8816e59dc2bf9c067e8fdc1ddb07dc45</title>
<g id="a_clust1"><a xlink:href="dir_8816e59dc2bf9c067e8fdc1ddb07dc45.html" target="_top" xlink:title="pydrake">
<polygon fill="#ddddee" stroke="#000000" points="8,-64 8,-135 84,-135 84,-64 8,-64"/>
<text text-anchor="middle" x="46" y="-123" font-family="Helvetica,sans-Serif" font-size="10.00" fill="#000000">pydrake</text>
</a>
</g>
</g>
<!-- dir_747259117fa90714ed7dadfdb71f4370 -->
<g id="node1" class="node">
<title>dir_747259117fa90714ed7dadfdb71f4370</title>
<g id="a_node1"><a xlink:href="dir_747259117fa90714ed7dadfdb71f4370.html" target="_top" xlink:title="common">
<polygon fill="#eeeeff" stroke="#000000" points="75.5,-108 16.5,-108 16.5,-72 75.5,-72 75.5,-108"/>
<text text-anchor="middle" x="46" y="-87.5" font-family="Helvetica,sans-Serif" font-size="10.00" fill="#000000">common</text>
</a>
</g>
</g>
<!-- dir_a36da230f0956f48b11c85f7d599788f -->
<g id="node2" class="node">
<title>dir_a36da230f0956f48b11c85f7d599788f</title>
<g id="a_node2"><a xlink:href="dir_a36da230f0956f48b11c85f7d599788f.html" target="_top" xlink:title="common">
<polygon fill="#ffffff" stroke="#ff0000" points="75.5,-36 16.5,-36 16.5,0 75.5,0 75.5,-36"/>
<text text-anchor="middle" x="46" y="-15.5" font-family="Helvetica,sans-Serif" font-size="10.00" fill="#000000">common</text>
</a>
</g>
</g>
<!-- dir_747259117fa90714ed7dadfdb71f4370&#45;&gt;dir_a36da230f0956f48b11c85f7d599788f -->
<g id="edge1" class="edge">
<title>dir_747259117fa90714ed7dadfdb71f4370&#45;&gt;dir_a36da230f0956f48b11c85f7d599788f</title>
<path fill="none" stroke="#000000" d="M46,-71.8314C46,-64.131 46,-54.9743 46,-46.4166"/>
<polygon fill="#000000" stroke="#000000" points="49.5001,-46.4132 46,-36.4133 42.5001,-46.4133 49.5001,-46.4132"/>
<g id="a_edge1&#45;headlabel"><a xlink:href="dir_000003_000006.html" target="_top" xlink:title="8">
<text text-anchor="middle" x="52.3393" y="-47.5079" font-family="Helvetica,sans-Serif" font-size="10.00" fill="#000000">8</text>
</a>
</g>
</g>
</g>
</svg>
