<?xml version="1.0" encoding="UTF-8" standalone="no"?>
<!DOCTYPE svg PUBLIC "-//W3C//DTD SVG 1.1//EN"
 "http://www.w3.org/Graphics/SVG/1.1/DTD/svg11.dtd">
<!-- Generated by graphviz version 2.40.1 (20161225.0304)
 -->
<!-- Title: drake/examples/scene_graph Pages: 1 -->
<svg width="189pt" height="367pt"
 viewBox="0.00 0.00 189.00 367.00" xmlns="http://www.w3.org/2000/svg" xmlns:xlink="http://www.w3.org/1999/xlink">
<g id="graph0" class="graph" transform="scale(1 1) rotate(0) translate(4 363)">
<title>drake/examples/scene_graph</title>
<polygon fill="#ffffff" stroke="transparent" points="-4,4 -4,-363 185,-363 185,4 -4,4"/>
<g id="clust1" class="cluster">
<title>clusterdir_bf85a0c13984f214f436b2edc519c6dd</title>
<g id="a_clust1"><a xlink:href="dir_bf85a0c13984f214f436b2edc519c6dd.html" target="_top" xlink:title="examples">
<polygon fill="#ddddee" stroke="#000000" points="8,-280 8,-351 102,-351 102,-280 8,-280"/>
<text text-anchor="middle" x="55" y="-339" font-family="Helvetica,sans-Serif" font-size="10.00" fill="#000000">examples</text>
</a>
</g>
</g>
<!-- dir_ca589d2d484319658f7f0c806a66fcf6 -->
<g id="node1" class="node">
<title>dir_ca589d2d484319658f7f0c806a66fcf6</title>
<g id="a_node1"><a xlink:href="dir_ca589d2d484319658f7f0c806a66fcf6.html" target="_top" xlink:title="scene_graph">
<polygon fill="#eeeeff" stroke="#000000" points="94,-324 16,-324 16,-288 94,-288 94,-324"/>
<text text-anchor="middle" x="55" y="-303.5" font-family="Helvetica,sans-Serif" font-size="10.00" fill="#000000">scene_graph</text>
</a>
</g>
</g>
<!-- dir_fc0178d6978c9fa2cad6ef3e048a60a7 -->
<g id="node2" class="node">
<title>dir_fc0178d6978c9fa2cad6ef3e048a60a7</title>
<g id="a_node2"><a xlink:href="dir_fc0178d6978c9fa2cad6ef3e048a60a7.html" target="_top" xlink:title="math">
<polygon fill="none" stroke="#000000" points="139,-108 85,-108 85,-72 139,-72 139,-108"/>
<text text-anchor="middle" x="112" y="-87.5" font-family="Helvetica,sans-Serif" font-size="10.00" fill="#000000">math</text>
</a>
</g>
</g>
<!-- dir_ca589d2d484319658f7f0c806a66fcf6&#45;&gt;dir_fc0178d6978c9fa2cad6ef3e048a60a7 -->
<g id="edge2" class="edge">
<title>dir_ca589d2d484319658f7f0c806a66fcf6&#45;&gt;dir_fc0178d6978c9fa2cad6ef3e048a60a7</title>
<path fill="none" stroke="#000000" d="M51.3745,-287.8136C48.3672,-269.4499 45.4062,-240.3915 51,-216 59.3337,-179.6609 79.5834,-141.6293 94.4758,-116.982"/>
<polygon fill="#000000" stroke="#000000" points="97.6088,-118.5698 99.8852,-108.2224 91.6529,-114.8918 97.6088,-118.5698"/>
<g id="a_edge2&#45;headlabel"><a xlink:href="dir_000031_000007.html" target="_top" xlink:title="1">
<text text-anchor="middle" x="98.1359" y="-120.6201" font-family="Helvetica,sans-Serif" font-size="10.00" fill="#000000">1</text>
</a>
</g>
</g>
<!-- dir_a36da230f0956f48b11c85f7d599788f -->
<g id="node3" class="node">
<title>dir_a36da230f0956f48b11c85f7d599788f</title>
<g id="a_node3"><a xlink:href="dir_a36da230f0956f48b11c85f7d599788f.html" target="_top" xlink:title="common">
<polygon fill="#ffffff" stroke="#ff0000" points="141.5,-36 82.5,-36 82.5,0 141.5,0 141.5,-36"/>
<text text-anchor="middle" x="112" y="-15.5" font-family="Helvetica,sans-Serif" font-size="10.00" fill="#000000">common</text>
</a>
</g>
</g>
<!-- dir_ca589d2d484319658f7f0c806a66fcf6&#45;&gt;dir_a36da230f0956f48b11c85f7d599788f -->
<g id="edge3" class="edge">
<title>dir_ca589d2d484319658f7f0c806a66fcf6&#45;&gt;dir_a36da230f0956f48b11c85f7d599788f</title>
<path fill="none" stroke="#000000" d="M50.3066,-287.6463C47.8929,-277.2631 45.2092,-263.9943 44,-252 35.9101,-171.7563 33.6315,-145.4237 67,-72 71.5915,-61.8968 78.5993,-52.1575 85.7274,-43.7984"/>
<polygon fill="#000000" stroke="#000000" points="88.4399,-46.0163 92.5234,-36.24 83.2346,-41.336 88.4399,-46.0163"/>
<g id="a_edge3&#45;headlabel"><a xlink:href="dir_000031_000006.html" target="_top" xlink:title="2">
<text text-anchor="middle" x="88.1478" y="-48.0877" font-family="Helvetica,sans-Serif" font-size="10.00" fill="#000000">2</text>
</a>
</g>
</g>
<!-- dir_d739e095b49d8b72164589d00310017d -->
<g id="node4" class="node">
<title>dir_d739e095b49d8b72164589d00310017d</title>
<g id="a_node4"><a xlink:href="dir_d739e095b49d8b72164589d00310017d.html" target="_top" xlink:title="geometry">
<polygon fill="#ffffff" stroke="#ff0000" points="124,-252 60,-252 60,-216 124,-216 124,-252"/>
<text text-anchor="middle" x="92" y="-231.5" font-family="Helvetica,sans-Serif" font-size="10.00" fill="#000000">geometry</text>
</a>
</g>
</g>
<!-- dir_ca589d2d484319658f7f0c806a66fcf6&#45;&gt;dir_d739e095b49d8b72164589d00310017d -->
<g id="edge4" class="edge">
<title>dir_ca589d2d484319658f7f0c806a66fcf6&#45;&gt;dir_d739e095b49d8b72164589d00310017d</title>
<path fill="none" stroke="#000000" d="M64.3367,-287.8314C68.4243,-279.8771 73.3104,-270.369 77.8309,-261.5723"/>
<polygon fill="#000000" stroke="#000000" points="81.0799,-262.9074 82.5376,-252.4133 74.8539,-259.7078 81.0799,-262.9074"/>
<g id="a_edge4&#45;headlabel"><a xlink:href="dir_000031_000033.html" target="_top" xlink:title="4">
<text text-anchor="middle" x="81.9623" y="-264.9022" font-family="Helvetica,sans-Serif" font-size="10.00" fill="#000000">4</text>
</a>
</g>
</g>
<!-- dir_b7a0e33b407baa23d8a077e33033c988 -->
<g id="node5" class="node">
<title>dir_b7a0e33b407baa23d8a077e33033c988</title>
<g id="a_node5"><a xlink:href="dir_b7a0e33b407baa23d8a077e33033c988.html" target="_top" xlink:title="systems">
<polygon fill="#ffffff" stroke="#ff0000" points="181,-180 123,-180 123,-144 181,-144 181,-180"/>
<text text-anchor="middle" x="152" y="-159.5" font-family="Helvetica,sans-Serif" font-size="10.00" fill="#000000">systems</text>
</a>
</g>
</g>
<!-- dir_ca589d2d484319658f7f0c806a66fcf6&#45;&gt;dir_b7a0e33b407baa23d8a077e33033c988 -->
<g id="edge5" class="edge">
<title>dir_ca589d2d484319658f7f0c806a66fcf6&#45;&gt;dir_b7a0e33b407baa23d8a077e33033c988</title>
<path fill="none" stroke="#000000" d="M92.7892,-287.8215C107.4461,-278.9597 123.0619,-266.9508 133,-252 145.1761,-233.6823 149.7501,-209.023 151.3775,-190.1484"/>
<polygon fill="#000000" stroke="#000000" points="154.8769,-190.2678 152.0194,-180.0656 147.8911,-189.823 154.8769,-190.2678"/>
<g id="a_edge5&#45;headlabel"><a xlink:href="dir_000031_000072.html" target="_top" xlink:title="4">
<text text-anchor="middle" x="157.4822" y="-191.5355" font-family="Helvetica,sans-Serif" font-size="10.00" fill="#000000">4</text>
</a>
</g>
</g>
<!-- dir_fc0178d6978c9fa2cad6ef3e048a60a7&#45;&gt;dir_a36da230f0956f48b11c85f7d599788f -->
<g id="edge1" class="edge">
<title>dir_fc0178d6978c9fa2cad6ef3e048a60a7&#45;&gt;dir_a36da230f0956f48b11c85f7d599788f</title>
<path fill="none" stroke="#000000" d="M106.0476,-71.8314C105.2972,-64.131 105.0763,-54.9743 105.3849,-46.4166"/>
<polygon fill="#000000" stroke="#000000" points="108.8792,-46.6161 106.024,-36.4133 101.8935,-46.1697 108.8792,-46.6161"/>
<g id="a_edge1&#45;headlabel"><a xlink:href="dir_000007_000006.html" target="_top" xlink:title="60">
<text text-anchor="middle" x="111.4836" y="-47.8844" font-family="Helvetica,sans-Serif" font-size="10.00" fill="#000000">60</text>
</a>
</g>
</g>
<!-- dir_a36da230f0956f48b11c85f7d599788f&#45;&gt;dir_fc0178d6978c9fa2cad6ef3e048a60a7 -->
<g id="edge6" class="edge">
<title>dir_a36da230f0956f48b11c85f7d599788f&#45;&gt;dir_fc0178d6978c9fa2cad6ef3e048a60a7</title>
<path fill="none" stroke="#000000" d="M117.976,-36.4133C118.7071,-44.0593 118.9203,-53.1084 118.6155,-61.5726"/>
<polygon fill="#000000" stroke="#000000" points="115.1048,-61.6264 117.9524,-71.8314 122.0902,-62.078 115.1048,-61.6264"/>
<g id="a_edge6&#45;headlabel"><a xlink:href="dir_000006_000007.html" target="_top" xlink:title="1">
<text text-anchor="middle" x="112.5032" y="-55.3562" font-family="Helvetica,sans-Serif" font-size="10.00" fill="#000000">1</text>
</a>
</g>
</g>
<!-- dir_d739e095b49d8b72164589d00310017d&#45;&gt;dir_fc0178d6978c9fa2cad6ef3e048a60a7 -->
<g id="edge7" class="edge">
<title>dir_d739e095b49d8b72164589d00310017d&#45;&gt;dir_fc0178d6978c9fa2cad6ef3e048a60a7</title>
<path fill="none" stroke="#000000" d="M94.533,-215.7623C97.9443,-191.201 104.049,-147.2474 108.0619,-118.3541"/>
<polygon fill="#000000" stroke="#000000" points="111.5785,-118.4761 109.4876,-108.0896 104.6451,-117.513 111.5785,-118.4761"/>
<g id="a_edge7&#45;headlabel"><a xlink:href="dir_000033_000007.html" target="_top" xlink:title="23">
<text text-anchor="middle" x="113.8964" y="-119.9271" font-family="Helvetica,sans-Serif" font-size="10.00" fill="#000000">23</text>
</a>
</g>
</g>
<!-- dir_d739e095b49d8b72164589d00310017d&#45;&gt;dir_a36da230f0956f48b11c85f7d599788f -->
<g id="edge8" class="edge">
<title>dir_d739e095b49d8b72164589d00310017d&#45;&gt;dir_a36da230f0956f48b11c85f7d599788f</title>
<path fill="none" stroke="#000000" d="M85.6485,-215.5718C76.1157,-185.0328 60.7669,-122.3115 76,-72 78.9564,-62.2355 84.3252,-52.6229 90.03,-44.2762"/>
<polygon fill="#000000" stroke="#000000" points="92.9414,-46.2239 96.0095,-36.0831 87.2871,-42.0973 92.9414,-46.2239"/>
<g id="a_edge8&#45;headlabel"><a xlink:href="dir_000033_000006.html" target="_top" xlink:title="110">
<text text-anchor="middle" x="93.1158" y="-48.3013" font-family="Helvetica,sans-Serif" font-size="10.00" fill="#000000">110</text>
</a>
</g>
</g>
<!-- dir_d739e095b49d8b72164589d00310017d&#45;&gt;dir_b7a0e33b407baa23d8a077e33033c988 -->
<g id="edge9" class="edge">
<title>dir_d739e095b49d8b72164589d00310017d&#45;&gt;dir_b7a0e33b407baa23d8a077e33033c988</title>
<path fill="none" stroke="#000000" d="M101.1881,-215.8314C107.4151,-207.3694 115.747,-197.1489 123.9111,-187.8971"/>
<polygon fill="#000000" stroke="#000000" points="126.5677,-190.1776 130.6796,-180.4133 121.376,-185.4822 126.5677,-190.1776"/>
<g id="a_edge9&#45;headlabel"><a xlink:href="dir_000033_000072.html" target="_top" xlink:title="13">
<text text-anchor="middle" x="126.2623" y="-192.2481" font-family="Helvetica,sans-Serif" font-size="10.00" fill="#000000">13</text>
</a>
</g>
</g>
<!-- dir_b7a0e33b407baa23d8a077e33033c988&#45;&gt;dir_fc0178d6978c9fa2cad6ef3e048a60a7 -->
<g id="edge10" class="edge">
<title>dir_b7a0e33b407baa23d8a077e33033c988&#45;&gt;dir_fc0178d6978c9fa2cad6ef3e048a60a7</title>
<path fill="none" stroke="#000000" d="M141.9063,-143.8314C137.4403,-135.7925 132.0925,-126.1666 127.1621,-117.2918"/>
<polygon fill="#000000" stroke="#000000" points="130.1456,-115.4551 122.2296,-108.4133 124.0265,-118.8546 130.1456,-115.4551"/>
<g id="a_edge10&#45;headlabel"><a xlink:href="dir_000072_000007.html" target="_top" xlink:title="11">
<text text-anchor="middle" x="134.3732" y="-114.7185" font-family="Helvetica,sans-Serif" font-size="10.00" fill="#000000">11</text>
</a>
</g>
</g>
<!-- dir_b7a0e33b407baa23d8a077e33033c988&#45;&gt;dir_a36da230f0956f48b11c85f7d599788f -->
<g id="edge11" class="edge">
<title>dir_b7a0e33b407baa23d8a077e33033c988&#45;&gt;dir_a36da230f0956f48b11c85f7d599788f</title>
<path fill="none" stroke="#000000" d="M153.9913,-143.9041C155.3938,-125.3596 155.8305,-95.9326 148,-72 144.8275,-62.3036 139.3955,-52.7108 133.6992,-44.3615"/>
<polygon fill="#000000" stroke="#000000" points="136.4549,-42.1995 127.7512,-36.1584 130.7879,-46.3087 136.4549,-42.1995"/>
<g id="a_edge11&#45;headlabel"><a xlink:href="dir_000072_000006.html" target="_top" xlink:title="369">
<text text-anchor="middle" x="140.8636" y="-40.9429" font-family="Helvetica,sans-Serif" font-size="10.00" fill="#000000">369</text>
</a>
</g>
</g>
<!-- dir_b7a0e33b407baa23d8a077e33033c988&#45;&gt;dir_d739e095b49d8b72164589d00310017d -->
<g id="edge12" class="edge">
<title>dir_b7a0e33b407baa23d8a077e33033c988&#45;&gt;dir_d739e095b49d8b72164589d00310017d</title>
<path fill="none" stroke="#000000" d="M142.6316,-180.4133C136.3643,-188.9088 128.0141,-199.1366 119.8534,-208.3696"/>
<polygon fill="#000000" stroke="#000000" points="117.2134,-206.0706 113.0929,-215.8314 122.401,-210.7706 117.2134,-206.0706"/>
<g id="a_edge12&#45;headlabel"><a xlink:href="dir_000072_000033.html" target="_top" xlink:title="6">
<text text-anchor="middle" x="117.5228" y="-199.0004" font-family="Helvetica,sans-Serif" font-size="10.00" fill="#000000">6</text>
</a>
</g>
</g>
</g>
</svg>
