<?xml version="1.0" encoding="UTF-8" standalone="no"?>
<!DOCTYPE svg PUBLIC "-//W3C//DTD SVG 1.1//EN"
 "http://www.w3.org/Graphics/SVG/1.1/DTD/svg11.dtd">
<!-- Generated by graphviz version 2.40.1 (20161225.0304)
 -->
<!-- Title: drake/perception Pages: 1 -->
<svg width="144pt" height="295pt"
 viewBox="0.00 0.00 144.00 295.00" xmlns="http://www.w3.org/2000/svg" xmlns:xlink="http://www.w3.org/1999/xlink">
<g id="graph0" class="graph" transform="scale(1 1) rotate(0) translate(4 291)">
<title>drake/perception</title>
<polygon fill="#ffffff" stroke="transparent" points="-4,4 -4,-291 140,-291 140,4 -4,4"/>
<g id="clust1" class="cluster">
<title>clusterdir_f1666844dc41ec91c14125b680b7be1b</title>
<g id="a_clust1"><a xlink:href="dir_f1666844dc41ec91c14125b680b7be1b.html" target="_top" xlink:title="drake">
<polygon fill="#ddddee" stroke="#000000" points="8,-208 8,-279 92,-279 92,-208 8,-208"/>
<text text-anchor="middle" x="50" y="-267" font-family="Helvetica,sans-Serif" font-size="10.00" fill="#000000">drake</text>
</a>
</g>
</g>
<!-- dir_0897ed8fd6dd400fbb3f13ca4cf30fd4 -->
<g id="node1" class="node">
<title>dir_0897ed8fd6dd400fbb3f13ca4cf30fd4</title>
<g id="a_node1"><a xlink:href="dir_0897ed8fd6dd400fbb3f13ca4cf30fd4.html" target="_top" xlink:title="perception">
<polygon fill="#eeeeff" stroke="#000000" points="84,-252 16,-252 16,-216 84,-216 84,-252"/>
<text text-anchor="middle" x="50" y="-231.5" font-family="Helvetica,sans-Serif" font-size="10.00" fill="#000000">perception</text>
</a>
</g>
</g>
<!-- dir_fc0178d6978c9fa2cad6ef3e048a60a7 -->
<g id="node2" class="node">
<title>dir_fc0178d6978c9fa2cad6ef3e048a60a7</title>
<g id="a_node2"><a xlink:href="dir_fc0178d6978c9fa2cad6ef3e048a60a7.html" target="_top" xlink:title="math">
<polygon fill="none" stroke="#000000" points="87,-108 33,-108 33,-72 87,-72 87,-108"/>
<text text-anchor="middle" x="60" y="-87.5" font-family="Helvetica,sans-Serif" font-size="10.00" fill="#000000">math</text>
</a>
</g>
</g>
<!-- dir_0897ed8fd6dd400fbb3f13ca4cf30fd4&#45;&gt;dir_fc0178d6978c9fa2cad6ef3e048a60a7 -->
<g id="edge3" class="edge">
<title>dir_0897ed8fd6dd400fbb3f13ca4cf30fd4&#45;&gt;dir_fc0178d6978c9fa2cad6ef3e048a60a7</title>
<path fill="none" stroke="#000000" d="M51.2665,-215.7623C52.9721,-191.201 56.0245,-147.2474 58.031,-118.3541"/>
<polygon fill="#000000" stroke="#000000" points="61.5425,-118.3081 58.7438,-108.0896 54.5593,-117.8231 61.5425,-118.3081"/>
<g id="a_edge3&#45;headlabel"><a xlink:href="dir_000067_000007.html" target="_top" xlink:title="1">
<text text-anchor="middle" x="64.126" y="-119.5907" font-family="Helvetica,sans-Serif" font-size="10.00" fill="#000000">1</text>
</a>
</g>
</g>
<!-- dir_a36da230f0956f48b11c85f7d599788f -->
<g id="node3" class="node">
<title>dir_a36da230f0956f48b11c85f7d599788f</title>
<g id="a_node3"><a xlink:href="dir_a36da230f0956f48b11c85f7d599788f.html" target="_top" xlink:title="common">
<polygon fill="#ffffff" stroke="#ff0000" points="89.5,-36 30.5,-36 30.5,0 89.5,0 89.5,-36"/>
<text text-anchor="middle" x="60" y="-15.5" font-family="Helvetica,sans-Serif" font-size="10.00" fill="#000000">common</text>
</a>
</g>
</g>
<!-- dir_0897ed8fd6dd400fbb3f13ca4cf30fd4&#45;&gt;dir_a36da230f0956f48b11c85f7d599788f -->
<g id="edge4" class="edge">
<title>dir_0897ed8fd6dd400fbb3f13ca4cf30fd4&#45;&gt;dir_a36da230f0956f48b11c85f7d599788f</title>
<path fill="none" stroke="#000000" d="M41.7874,-215.6609C29.3289,-185.2499 8.6467,-122.7086 24,-72 26.9564,-62.2355 32.3252,-52.6229 38.03,-44.2762"/>
<polygon fill="#000000" stroke="#000000" points="40.9414,-46.2239 44.0095,-36.0831 35.2871,-42.0973 40.9414,-46.2239"/>
<g id="a_edge4&#45;headlabel"><a xlink:href="dir_000067_000006.html" target="_top" xlink:title="4">
<text text-anchor="middle" x="41.1158" y="-48.3013" font-family="Helvetica,sans-Serif" font-size="10.00" fill="#000000">4</text>
</a>
</g>
</g>
<!-- dir_b7a0e33b407baa23d8a077e33033c988 -->
<g id="node4" class="node">
<title>dir_b7a0e33b407baa23d8a077e33033c988</title>
<g id="a_node4"><a xlink:href="dir_b7a0e33b407baa23d8a077e33033c988.html" target="_top" xlink:title="systems">
<polygon fill="#ffffff" stroke="#ff0000" points="136,-180 78,-180 78,-144 136,-144 136,-180"/>
<text text-anchor="middle" x="107" y="-159.5" font-family="Helvetica,sans-Serif" font-size="10.00" fill="#000000">systems</text>
</a>
</g>
</g>
<!-- dir_0897ed8fd6dd400fbb3f13ca4cf30fd4&#45;&gt;dir_b7a0e33b407baa23d8a077e33033c988 -->
<g id="edge5" class="edge">
<title>dir_0897ed8fd6dd400fbb3f13ca4cf30fd4&#45;&gt;dir_b7a0e33b407baa23d8a077e33033c988</title>
<path fill="none" stroke="#000000" d="M64.3835,-215.8314C70.9486,-207.5386 78.8507,-197.557 86.0578,-188.4533"/>
<polygon fill="#000000" stroke="#000000" points="88.9599,-190.4262 92.4228,-180.4133 83.4716,-186.0813 88.9599,-190.4262"/>
<g id="a_edge5&#45;headlabel"><a xlink:href="dir_000067_000072.html" target="_top" xlink:title="5">
<text text-anchor="middle" x="88.9549" y="-192.5069" font-family="Helvetica,sans-Serif" font-size="10.00" fill="#000000">5</text>
</a>
</g>
</g>
<!-- dir_fc0178d6978c9fa2cad6ef3e048a60a7&#45;&gt;dir_a36da230f0956f48b11c85f7d599788f -->
<g id="edge1" class="edge">
<title>dir_fc0178d6978c9fa2cad6ef3e048a60a7&#45;&gt;dir_a36da230f0956f48b11c85f7d599788f</title>
<path fill="none" stroke="#000000" d="M54.0476,-71.8314C53.2972,-64.131 53.0763,-54.9743 53.3849,-46.4166"/>
<polygon fill="#000000" stroke="#000000" points="56.8792,-46.6161 54.024,-36.4133 49.8935,-46.1697 56.8792,-46.6161"/>
<g id="a_edge1&#45;headlabel"><a xlink:href="dir_000007_000006.html" target="_top" xlink:title="60">
<text text-anchor="middle" x="59.4836" y="-47.8844" font-family="Helvetica,sans-Serif" font-size="10.00" fill="#000000">60</text>
</a>
</g>
</g>
<!-- dir_a36da230f0956f48b11c85f7d599788f&#45;&gt;dir_fc0178d6978c9fa2cad6ef3e048a60a7 -->
<g id="edge2" class="edge">
<title>dir_a36da230f0956f48b11c85f7d599788f&#45;&gt;dir_fc0178d6978c9fa2cad6ef3e048a60a7</title>
<path fill="none" stroke="#000000" d="M65.976,-36.4133C66.7071,-44.0593 66.9203,-53.1084 66.6155,-61.5726"/>
<polygon fill="#000000" stroke="#000000" points="63.1048,-61.6264 65.9524,-71.8314 70.0902,-62.078 63.1048,-61.6264"/>
<g id="a_edge2&#45;headlabel"><a xlink:href="dir_000006_000007.html" target="_top" xlink:title="1">
<text text-anchor="middle" x="60.5032" y="-55.3562" font-family="Helvetica,sans-Serif" font-size="10.00" fill="#000000">1</text>
</a>
</g>
</g>
<!-- dir_b7a0e33b407baa23d8a077e33033c988&#45;&gt;dir_fc0178d6978c9fa2cad6ef3e048a60a7 -->
<g id="edge6" class="edge">
<title>dir_b7a0e33b407baa23d8a077e33033c988&#45;&gt;dir_fc0178d6978c9fa2cad6ef3e048a60a7</title>
<path fill="none" stroke="#000000" d="M95.1399,-143.8314C89.8371,-135.7079 83.4763,-125.9637 77.6327,-117.0118"/>
<polygon fill="#000000" stroke="#000000" points="80.4169,-114.8739 72.0198,-108.4133 74.5552,-118.7003 80.4169,-114.8739"/>
<g id="a_edge6&#45;headlabel"><a xlink:href="dir_000072_000007.html" target="_top" xlink:title="11">
<text text-anchor="middle" x="84.7593" y="-113.8319" font-family="Helvetica,sans-Serif" font-size="10.00" fill="#000000">11</text>
</a>
</g>
</g>
<!-- dir_b7a0e33b407baa23d8a077e33033c988&#45;&gt;dir_a36da230f0956f48b11c85f7d599788f -->
<g id="edge7" class="edge">
<title>dir_b7a0e33b407baa23d8a077e33033c988&#45;&gt;dir_a36da230f0956f48b11c85f7d599788f</title>
<path fill="none" stroke="#000000" d="M107.2173,-143.8348C106.8854,-125.2351 104.8046,-95.7649 96,-72 92.4556,-62.4332 86.9148,-52.8784 81.2333,-44.524"/>
<polygon fill="#000000" stroke="#000000" points="84.0102,-42.3903 75.3393,-36.302 78.321,-46.4687 84.0102,-42.3903"/>
<g id="a_edge7&#45;headlabel"><a xlink:href="dir_000072_000006.html" target="_top" xlink:title="369">
<text text-anchor="middle" x="88.4121" y="-41.1576" font-family="Helvetica,sans-Serif" font-size="10.00" fill="#000000">369</text>
</a>
</g>
</g>
</g>
</svg>
