<?xml version="1.0" encoding="UTF-8" standalone="no"?>
<!DOCTYPE svg PUBLIC "-//W3C//DTD SVG 1.1//EN"
 "http://www.w3.org/Graphics/SVG/1.1/DTD/svg11.dtd">
<!-- Generated by graphviz version 2.40.1 (20161225.0304)
 -->
<!-- Title: drake/examples/multibody Pages: 1 -->
<svg width="393pt" height="231pt"
 viewBox="0.00 0.00 393.00 231.00" xmlns="http://www.w3.org/2000/svg" xmlns:xlink="http://www.w3.org/1999/xlink">
<g id="graph0" class="graph" transform="scale(1 1) rotate(0) translate(4 227)">
<title>drake/examples/multibody</title>
<polygon fill="#ffffff" stroke="transparent" points="-4,4 -4,-227 389,-227 389,4 -4,4"/>
<g id="clust1" class="cluster">
<title>clusterdir_bf85a0c13984f214f436b2edc519c6dd</title>
<g id="a_clust1"><a xlink:href="dir_bf85a0c13984f214f436b2edc519c6dd.html" target="_top" xlink:title="examples">
<polygon fill="#ddddee" stroke="#000000" points="8,-128 8,-215 377,-215 377,-128 8,-128"/>
<text text-anchor="middle" x="192.5" y="-203" font-family="Helvetica,sans-Serif" font-size="10.00" fill="#000000">examples</text>
</a>
</g>
</g>
<g id="clust2" class="cluster">
<title>clusterdir_9acdd6771460017440c69ee654743722</title>
<g id="a_clust2"><a xlink:href="dir_9acdd6771460017440c69ee654743722.html" target="_top">
<polygon fill="#eeeeff" stroke="#000000" points="16,-136 16,-188 369,-188 369,-136 16,-136"/>
</a>
</g>
</g>
<!-- dir_9acdd6771460017440c69ee654743722 -->
<g id="node1" class="node">
<title>dir_9acdd6771460017440c69ee654743722</title>
<text text-anchor="middle" x="328" y="-159.5" font-family="Helvetica,sans-Serif" font-size="10.00" fill="#000000">multibody</text>
</g>
<!-- dir_bf625d68bd1475a25d499b8c243d6bcc -->
<g id="node2" class="node">
<title>dir_bf625d68bd1475a25d499b8c243d6bcc</title>
<g id="a_node2"><a xlink:href="dir_bf625d68bd1475a25d499b8c243d6bcc.html" target="_top" xlink:title="cylinder_with_multicontact">
<polygon fill="#ffffff" stroke="#000000" points="172.5,-180 23.5,-180 23.5,-144 172.5,-144 172.5,-180"/>
<text text-anchor="middle" x="98" y="-159.5" font-family="Helvetica,sans-Serif" font-size="10.00" fill="#000000">cylinder_with_multicontact</text>
</a>
</g>
</g>
<!-- dir_39b8b3c6654246a9c12332c930bc7d3f -->
<g id="node4" class="node">
<title>dir_39b8b3c6654246a9c12332c930bc7d3f</title>
<g id="a_node4"><a xlink:href="dir_39b8b3c6654246a9c12332c930bc7d3f.html" target="_top" xlink:title="multibody">
<polygon fill="#ffffff" stroke="#ff0000" points="202,-108 136,-108 136,-72 202,-72 202,-108"/>
<text text-anchor="middle" x="169" y="-87.5" font-family="Helvetica,sans-Serif" font-size="10.00" fill="#000000">multibody</text>
</a>
</g>
</g>
<!-- dir_bf625d68bd1475a25d499b8c243d6bcc&#45;&gt;dir_39b8b3c6654246a9c12332c930bc7d3f -->
<g id="edge3" class="edge">
<title>dir_bf625d68bd1475a25d499b8c243d6bcc&#45;&gt;dir_39b8b3c6654246a9c12332c930bc7d3f</title>
<path fill="none" stroke="#000000" d="M115.9163,-143.8314C124.3442,-135.2848 134.541,-124.9443 143.736,-115.6198"/>
<polygon fill="#000000" stroke="#000000" points="146.3131,-117.9912 150.8425,-108.4133 141.3289,-113.0761 146.3131,-117.9912"/>
<g id="a_edge3&#45;headlabel"><a xlink:href="dir_000025_000050.html" target="_top" xlink:title="1">
<text text-anchor="middle" x="145.8109" y="-120.0442" font-family="Helvetica,sans-Serif" font-size="10.00" fill="#000000">1</text>
</a>
</g>
</g>
<!-- dir_d739e095b49d8b72164589d00310017d -->
<g id="node5" class="node">
<title>dir_d739e095b49d8b72164589d00310017d</title>
<g id="a_node5"><a xlink:href="dir_d739e095b49d8b72164589d00310017d.html" target="_top" xlink:title="geometry">
<polygon fill="#ffffff" stroke="#ff0000" points="201,-36 137,-36 137,0 201,0 201,-36"/>
<text text-anchor="middle" x="169" y="-15.5" font-family="Helvetica,sans-Serif" font-size="10.00" fill="#000000">geometry</text>
</a>
</g>
</g>
<!-- dir_bf625d68bd1475a25d499b8c243d6bcc&#45;&gt;dir_d739e095b49d8b72164589d00310017d -->
<g id="edge4" class="edge">
<title>dir_bf625d68bd1475a25d499b8c243d6bcc&#45;&gt;dir_d739e095b49d8b72164589d00310017d</title>
<path fill="none" stroke="#000000" d="M101.9129,-143.6696C106.3608,-124.9382 114.6459,-95.3649 127,-72 132.0797,-62.393 138.8937,-52.755 145.5534,-44.3354"/>
<polygon fill="#000000" stroke="#000000" points="148.4533,-46.3188 152.0916,-36.3683 143.0422,-41.8781 148.4533,-46.3188"/>
<g id="a_edge4&#45;headlabel"><a xlink:href="dir_000025_000035.html" target="_top" xlink:title="1">
<text text-anchor="middle" x="148.3678" y="-48.3987" font-family="Helvetica,sans-Serif" font-size="10.00" fill="#000000">1</text>
</a>
</g>
</g>
<!-- dir_474aa644b99dd5481f12728ecfc3f855 -->
<g id="node3" class="node">
<title>dir_474aa644b99dd5481f12728ecfc3f855</title>
<g id="a_node3"><a xlink:href="dir_474aa644b99dd5481f12728ecfc3f855.html" target="_top" xlink:title="rolling_sphere">
<polygon fill="#ffffff" stroke="#000000" points="277,-180 191,-180 191,-144 277,-144 277,-180"/>
<text text-anchor="middle" x="234" y="-159.5" font-family="Helvetica,sans-Serif" font-size="10.00" fill="#000000">rolling_sphere</text>
</a>
</g>
</g>
<!-- dir_474aa644b99dd5481f12728ecfc3f855&#45;&gt;dir_39b8b3c6654246a9c12332c930bc7d3f -->
<g id="edge5" class="edge">
<title>dir_474aa644b99dd5481f12728ecfc3f855&#45;&gt;dir_39b8b3c6654246a9c12332c930bc7d3f</title>
<path fill="none" stroke="#000000" d="M217.5978,-143.8314C209.9585,-135.3694 200.7317,-125.1489 192.3793,-115.8971"/>
<polygon fill="#000000" stroke="#000000" points="194.9221,-113.4906 185.6231,-108.4133 189.7262,-118.1813 194.9221,-113.4906"/>
<g id="a_edge5&#45;headlabel"><a xlink:href="dir_000026_000050.html" target="_top" xlink:title="1">
<text text-anchor="middle" x="199.4383" y="-111.7561" font-family="Helvetica,sans-Serif" font-size="10.00" fill="#000000">1</text>
</a>
</g>
</g>
<!-- dir_474aa644b99dd5481f12728ecfc3f855&#45;&gt;dir_d739e095b49d8b72164589d00310017d -->
<g id="edge6" class="edge">
<title>dir_474aa644b99dd5481f12728ecfc3f855&#45;&gt;dir_d739e095b49d8b72164589d00310017d</title>
<path fill="none" stroke="#000000" d="M231.6242,-143.9974C228.6527,-125.2697 222.496,-95.4608 211,-72 206.2182,-62.2413 199.4891,-52.56 192.8156,-44.1475"/>
<polygon fill="#000000" stroke="#000000" points="195.3091,-41.671 186.2348,-36.202 189.918,-46.1361 195.3091,-41.671"/>
<g id="a_edge6&#45;headlabel"><a xlink:href="dir_000026_000035.html" target="_top" xlink:title="1">
<text text-anchor="middle" x="199.7886" y="-40.1283" font-family="Helvetica,sans-Serif" font-size="10.00" fill="#000000">1</text>
</a>
</g>
</g>
<!-- dir_39b8b3c6654246a9c12332c930bc7d3f&#45;&gt;dir_d739e095b49d8b72164589d00310017d -->
<g id="edge1" class="edge">
<title>dir_39b8b3c6654246a9c12332c930bc7d3f&#45;&gt;dir_d739e095b49d8b72164589d00310017d</title>
<path fill="none" stroke="#000000" d="M163.0476,-71.8314C162.2972,-64.131 162.0763,-54.9743 162.3849,-46.4166"/>
<polygon fill="#000000" stroke="#000000" points="165.8792,-46.6161 163.024,-36.4133 158.8935,-46.1697 165.8792,-46.6161"/>
<g id="a_edge1&#45;headlabel"><a xlink:href="dir_000050_000035.html" target="_top" xlink:title="28">
<text text-anchor="middle" x="168.4836" y="-47.8844" font-family="Helvetica,sans-Serif" font-size="10.00" fill="#000000">28</text>
</a>
</g>
</g>
<!-- dir_d739e095b49d8b72164589d00310017d&#45;&gt;dir_39b8b3c6654246a9c12332c930bc7d3f -->
<g id="edge2" class="edge">
<title>dir_d739e095b49d8b72164589d00310017d&#45;&gt;dir_39b8b3c6654246a9c12332c930bc7d3f</title>
<path fill="none" stroke="#000000" d="M174.976,-36.4133C175.7071,-44.0593 175.9203,-53.1084 175.6155,-61.5726"/>
<polygon fill="#000000" stroke="#000000" points="172.1048,-61.6264 174.9524,-71.8314 179.0902,-62.078 172.1048,-61.6264"/>
<g id="a_edge2&#45;headlabel"><a xlink:href="dir_000035_000050.html" target="_top" xlink:title="1">
<text text-anchor="middle" x="169.5032" y="-55.3562" font-family="Helvetica,sans-Serif" font-size="10.00" fill="#000000">1</text>
</a>
</g>
</g>
</g>
</svg>
