<?xml version="1.0" encoding="UTF-8" standalone="no"?>
<!DOCTYPE svg PUBLIC "-//W3C//DTD SVG 1.1//EN"
 "http://www.w3.org/Graphics/SVG/1.1/DTD/svg11.dtd">
<!-- Generated by graphviz version 2.40.1 (20161225.0304)
 -->
<!-- Title: drake/multibody/tree Pages: 1 -->
<svg width="189pt" height="367pt"
 viewBox="0.00 0.00 188.64 367.00" xmlns="http://www.w3.org/2000/svg" xmlns:xlink="http://www.w3.org/1999/xlink">
<g id="graph0" class="graph" transform="scale(1 1) rotate(0) translate(4 363)">
<title>drake/multibody/tree</title>
<polygon fill="#ffffff" stroke="transparent" points="-4,4 -4,-363 184.6394,-363 184.6394,4 -4,4"/>
<g id="clust1" class="cluster">
<title>clusterdir_39b8b3c6654246a9c12332c930bc7d3f</title>
<g id="a_clust1"><a xlink:href="dir_39b8b3c6654246a9c12332c930bc7d3f.html" target="_top" xlink:title="multibody">
<polygon fill="#ddddee" stroke="#000000" points="34.6394,-280 34.6394,-351 104.6394,-351 104.6394,-280 34.6394,-280"/>
<text text-anchor="middle" x="69.6394" y="-339" font-family="Helvetica,sans-Serif" font-size="10.00" fill="#000000">multibody</text>
</a>
</g>
</g>
<!-- dir_3f9cb8dbb3b4911cb2ecb548acd672c3 -->
<g id="node1" class="node">
<title>dir_3f9cb8dbb3b4911cb2ecb548acd672c3</title>
<g id="a_node1"><a xlink:href="dir_3f9cb8dbb3b4911cb2ecb548acd672c3.html" target="_top" xlink:title="tree">
<polygon fill="#eeeeff" stroke="#000000" points="96.6394,-324 42.6394,-324 42.6394,-288 96.6394,-288 96.6394,-324"/>
<text text-anchor="middle" x="69.6394" y="-303.5" font-family="Helvetica,sans-Serif" font-size="10.00" fill="#000000">tree</text>
</a>
</g>
</g>
<!-- dir_fc0178d6978c9fa2cad6ef3e048a60a7 -->
<g id="node2" class="node">
<title>dir_fc0178d6978c9fa2cad6ef3e048a60a7</title>
<g id="a_node2"><a xlink:href="dir_fc0178d6978c9fa2cad6ef3e048a60a7.html" target="_top" xlink:title="math">
<polygon fill="none" stroke="#000000" points="114.6394,-108 60.6394,-108 60.6394,-72 114.6394,-72 114.6394,-108"/>
<text text-anchor="middle" x="87.6394" y="-87.5" font-family="Helvetica,sans-Serif" font-size="10.00" fill="#000000">math</text>
</a>
</g>
</g>
<!-- dir_3f9cb8dbb3b4911cb2ecb548acd672c3&#45;&gt;dir_fc0178d6978c9fa2cad6ef3e048a60a7 -->
<g id="edge3" class="edge">
<title>dir_3f9cb8dbb3b4911cb2ecb548acd672c3&#45;&gt;dir_fc0178d6978c9fa2cad6ef3e048a60a7</title>
<path fill="none" stroke="#000000" d="M73.6788,-287.5983C75.802,-277.2002 78.2462,-263.9323 79.6394,-252 85.0963,-205.2607 86.8379,-150.5117 87.3894,-118.1261"/>
<polygon fill="#000000" stroke="#000000" points="90.8901,-118.0937 87.5344,-108.0443 83.8908,-117.9929 90.8901,-118.0937"/>
<g id="a_edge3&#45;headlabel"><a xlink:href="dir_000065_000007.html" target="_top" xlink:title="12">
<text text-anchor="middle" x="93.6775" y="-119.2288" font-family="Helvetica,sans-Serif" font-size="10.00" fill="#000000">12</text>
</a>
</g>
</g>
<!-- dir_a36da230f0956f48b11c85f7d599788f -->
<g id="node3" class="node">
<title>dir_a36da230f0956f48b11c85f7d599788f</title>
<g id="a_node3"><a xlink:href="dir_a36da230f0956f48b11c85f7d599788f.html" target="_top" xlink:title="common">
<polygon fill="#ffffff" stroke="#ff0000" points="117.1394,-36 58.1394,-36 58.1394,0 117.1394,0 117.1394,-36"/>
<text text-anchor="middle" x="87.6394" y="-15.5" font-family="Helvetica,sans-Serif" font-size="10.00" fill="#000000">common</text>
</a>
</g>
</g>
<!-- dir_3f9cb8dbb3b4911cb2ecb548acd672c3&#45;&gt;dir_a36da230f0956f48b11c85f7d599788f -->
<g id="edge4" class="edge">
<title>dir_3f9cb8dbb3b4911cb2ecb548acd672c3&#45;&gt;dir_a36da230f0956f48b11c85f7d599788f</title>
<path fill="none" stroke="#000000" d="M42.3861,-291.6267C27.9971,-282.4136 11.691,-268.991 3.6394,-252 -3.2123,-237.5413 1.6844,-231.8801 3.6394,-216 11.6998,-150.5246 8.8365,-130.3368 39.6394,-72 45.0203,-61.8092 52.7213,-51.9779 60.3841,-43.5606"/>
<polygon fill="#000000" stroke="#000000" points="62.9779,-45.9122 67.3429,-36.2583 57.9104,-41.0831 62.9779,-45.9122"/>
<g id="a_edge4&#45;headlabel"><a xlink:href="dir_000065_000006.html" target="_top" xlink:title="140">
<text text-anchor="middle" x="62.5535" y="-47.9731" font-family="Helvetica,sans-Serif" font-size="10.00" fill="#000000">140</text>
</a>
</g>
</g>
<!-- dir_b7a0e33b407baa23d8a077e33033c988 -->
<g id="node4" class="node">
<title>dir_b7a0e33b407baa23d8a077e33033c988</title>
<g id="a_node4"><a xlink:href="dir_b7a0e33b407baa23d8a077e33033c988.html" target="_top" xlink:title="systems">
<polygon fill="#ffffff" stroke="#ff0000" points="70.6394,-252 12.6394,-252 12.6394,-216 70.6394,-216 70.6394,-252"/>
<text text-anchor="middle" x="41.6394" y="-231.5" font-family="Helvetica,sans-Serif" font-size="10.00" fill="#000000">systems</text>
</a>
</g>
</g>
<!-- dir_3f9cb8dbb3b4911cb2ecb548acd672c3&#45;&gt;dir_b7a0e33b407baa23d8a077e33033c988 -->
<g id="edge5" class="edge">
<title>dir_3f9cb8dbb3b4911cb2ecb548acd672c3&#45;&gt;dir_b7a0e33b407baa23d8a077e33033c988</title>
<path fill="none" stroke="#000000" d="M62.5738,-287.8314C59.5134,-279.9617 55.8615,-270.5712 52.4712,-261.8533"/>
<polygon fill="#000000" stroke="#000000" points="55.6866,-260.4647 48.8001,-252.4133 49.1626,-263.0019 55.6866,-260.4647"/>
<g id="a_edge5&#45;headlabel"><a xlink:href="dir_000065_000072.html" target="_top" xlink:title="15">
<text text-anchor="middle" x="59.6356" y="-260.2859" font-family="Helvetica,sans-Serif" font-size="10.00" fill="#000000">15</text>
</a>
</g>
</g>
<!-- dir_7d55c3d5b8b0444a3d9934d2594c5211 -->
<g id="node5" class="node">
<title>dir_7d55c3d5b8b0444a3d9934d2594c5211</title>
<g id="a_node5"><a xlink:href="dir_7d55c3d5b8b0444a3d9934d2594c5211.html" target="_top" xlink:title="math">
<polygon fill="none" stroke="#000000" points="180.6394,-180 126.6394,-180 126.6394,-144 180.6394,-144 180.6394,-180"/>
<text text-anchor="middle" x="153.6394" y="-159.5" font-family="Helvetica,sans-Serif" font-size="10.00" fill="#000000">math</text>
</a>
</g>
</g>
<!-- dir_3f9cb8dbb3b4911cb2ecb548acd672c3&#45;&gt;dir_7d55c3d5b8b0444a3d9934d2594c5211 -->
<g id="edge6" class="edge">
<title>dir_3f9cb8dbb3b4911cb2ecb548acd672c3&#45;&gt;dir_7d55c3d5b8b0444a3d9934d2594c5211</title>
<path fill="none" stroke="#000000" d="M85.9519,-287.8397C94.541,-277.7344 104.8724,-264.6691 112.6394,-252 124.8301,-232.1151 135.6278,-207.9916 143.0782,-189.7269"/>
<polygon fill="#000000" stroke="#000000" points="146.4056,-190.8319 146.8605,-180.2468 139.9039,-188.2379 146.4056,-190.8319"/>
<g id="a_edge6&#45;headlabel"><a xlink:href="dir_000065_000059.html" target="_top" xlink:title="14">
<text text-anchor="middle" x="147.7107" y="-192.7227" font-family="Helvetica,sans-Serif" font-size="10.00" fill="#000000">14</text>
</a>
</g>
</g>
<!-- dir_fc0178d6978c9fa2cad6ef3e048a60a7&#45;&gt;dir_a36da230f0956f48b11c85f7d599788f -->
<g id="edge1" class="edge">
<title>dir_fc0178d6978c9fa2cad6ef3e048a60a7&#45;&gt;dir_a36da230f0956f48b11c85f7d599788f</title>
<path fill="none" stroke="#000000" d="M81.687,-71.8314C80.9365,-64.131 80.7156,-54.9743 81.0243,-46.4166"/>
<polygon fill="#000000" stroke="#000000" points="84.5186,-46.6161 81.6634,-36.4133 77.5328,-46.1697 84.5186,-46.6161"/>
<g id="a_edge1&#45;headlabel"><a xlink:href="dir_000007_000006.html" target="_top" xlink:title="57">
<text text-anchor="middle" x="87.123" y="-47.8844" font-family="Helvetica,sans-Serif" font-size="10.00" fill="#000000">57</text>
</a>
</g>
</g>
<!-- dir_a36da230f0956f48b11c85f7d599788f&#45;&gt;dir_fc0178d6978c9fa2cad6ef3e048a60a7 -->
<g id="edge2" class="edge">
<title>dir_a36da230f0956f48b11c85f7d599788f&#45;&gt;dir_fc0178d6978c9fa2cad6ef3e048a60a7</title>
<path fill="none" stroke="#000000" d="M93.6154,-36.4133C94.3465,-44.0593 94.5596,-53.1084 94.2548,-61.5726"/>
<polygon fill="#000000" stroke="#000000" points="90.7442,-61.6264 93.5918,-71.8314 97.7296,-62.078 90.7442,-61.6264"/>
<g id="a_edge2&#45;headlabel"><a xlink:href="dir_000006_000007.html" target="_top" xlink:title="1">
<text text-anchor="middle" x="88.1426" y="-55.3562" font-family="Helvetica,sans-Serif" font-size="10.00" fill="#000000">1</text>
</a>
</g>
</g>
<!-- dir_b7a0e33b407baa23d8a077e33033c988&#45;&gt;dir_fc0178d6978c9fa2cad6ef3e048a60a7 -->
<g id="edge7" class="edge">
<title>dir_b7a0e33b407baa23d8a077e33033c988&#45;&gt;dir_fc0178d6978c9fa2cad6ef3e048a60a7</title>
<path fill="none" stroke="#000000" d="M47.4653,-215.7623C55.3458,-191.0928 69.4758,-146.8598 78.7035,-117.9731"/>
<polygon fill="#000000" stroke="#000000" points="82.1517,-118.6805 81.8607,-108.0896 75.4837,-116.5503 82.1517,-118.6805"/>
<g id="a_edge7&#45;headlabel"><a xlink:href="dir_000072_000007.html" target="_top" xlink:title="10">
<text text-anchor="middle" x="83.7626" y="-120.4686" font-family="Helvetica,sans-Serif" font-size="10.00" fill="#000000">10</text>
</a>
</g>
</g>
<!-- dir_b7a0e33b407baa23d8a077e33033c988&#45;&gt;dir_a36da230f0956f48b11c85f7d599788f -->
<g id="edge8" class="edge">
<title>dir_b7a0e33b407baa23d8a077e33033c988&#45;&gt;dir_a36da230f0956f48b11c85f7d599788f</title>
<path fill="none" stroke="#000000" d="M39.7621,-215.9213C37.2381,-185.3606 34.8224,-121.9383 51.6394,-72 54.8954,-62.3313 60.3518,-52.7466 66.0447,-44.3962"/>
<polygon fill="#000000" stroke="#000000" points="68.9561,-46.3431 71.9806,-36.1891 63.2841,-42.2407 68.9561,-46.3431"/>
<g id="a_edge8&#45;headlabel"><a xlink:href="dir_000072_000006.html" target="_top" xlink:title="368">
<text text-anchor="middle" x="69.1501" y="-48.4196" font-family="Helvetica,sans-Serif" font-size="10.00" fill="#000000">368</text>
</a>
</g>
</g>
<!-- dir_b7a0e33b407baa23d8a077e33033c988&#45;&gt;dir_7d55c3d5b8b0444a3d9934d2594c5211 -->
<g id="edge9" class="edge">
<title>dir_b7a0e33b407baa23d8a077e33033c988&#45;&gt;dir_7d55c3d5b8b0444a3d9934d2594c5211</title>
<path fill="none" stroke="#000000" d="M69.9017,-215.8314C84.4196,-206.4984 102.2649,-195.0264 117.7462,-185.0742"/>
<polygon fill="#000000" stroke="#000000" points="120.026,-187.7695 126.5451,-179.4177 116.2407,-181.8812 120.026,-187.7695"/>
<g id="a_edge9&#45;headlabel"><a xlink:href="dir_000072_000059.html" target="_top" xlink:title="1">
<text text-anchor="middle" x="118.5377" y="-189.6016" font-family="Helvetica,sans-Serif" font-size="10.00" fill="#000000">1</text>
</a>
</g>
</g>
<!-- dir_7d55c3d5b8b0444a3d9934d2594c5211&#45;&gt;dir_fc0178d6978c9fa2cad6ef3e048a60a7 -->
<g id="edge10" class="edge">
<title>dir_7d55c3d5b8b0444a3d9934d2594c5211&#45;&gt;dir_fc0178d6978c9fa2cad6ef3e048a60a7</title>
<path fill="none" stroke="#000000" d="M136.9848,-143.8314C129.228,-135.3694 119.8592,-125.1489 111.3784,-115.8971"/>
<polygon fill="#000000" stroke="#000000" points="113.8555,-113.4198 104.5182,-108.4133 108.6954,-118.1499 113.8555,-113.4198"/>
<g id="a_edge10&#45;headlabel"><a xlink:href="dir_000059_000007.html" target="_top" xlink:title="2">
<text text-anchor="middle" x="118.3774" y="-111.651" font-family="Helvetica,sans-Serif" font-size="10.00" fill="#000000">2</text>
</a>
</g>
</g>
<!-- dir_7d55c3d5b8b0444a3d9934d2594c5211&#45;&gt;dir_a36da230f0956f48b11c85f7d599788f -->
<g id="edge11" class="edge">
<title>dir_7d55c3d5b8b0444a3d9934d2594c5211&#45;&gt;dir_a36da230f0956f48b11c85f7d599788f</title>
<path fill="none" stroke="#000000" d="M149.1247,-143.8578C144.1518,-125.2765 135.2897,-95.8206 123.6394,-72 119.0835,-62.6849 113.1507,-53.0885 107.4198,-44.6168"/>
<polygon fill="#000000" stroke="#000000" points="110.1785,-42.454 101.5868,-36.2546 104.4373,-46.4588 110.1785,-42.454"/>
<g id="a_edge11&#45;headlabel"><a xlink:href="dir_000059_000006.html" target="_top" xlink:title="16">
<text text-anchor="middle" x="114.5637" y="-41.2779" font-family="Helvetica,sans-Serif" font-size="10.00" fill="#000000">16</text>
</a>
</g>
</g>
</g>
</svg>
