<?xml version="1.0" encoding="UTF-8" standalone="no"?>
<!DOCTYPE svg PUBLIC "-//W3C//DTD SVG 1.1//EN"
 "http://www.w3.org/Graphics/SVG/1.1/DTD/svg11.dtd">
<!-- Generated by graphviz version 2.40.1 (20161225.0304)
 -->
<!-- Title: drake/multibody/plant/discrete_contact_pair.h Pages: 1 -->
<!--zoomable 419 -->
<svg id="main" version="1.1" xmlns="http://www.w3.org/2000/svg" xmlns:xlink="http://www.w3.org/1999/xlink" xml:space="preserve" onload="init(evt)">
<style type="text/css"><![CDATA[
.edge:hover path { stroke: red; }
.edge:hover polygon { stroke: red; fill: red; }
]]></style>
<script type="text/javascript"><![CDATA[
var edges = document.getElementsByTagName('g');
if (edges && edges.length) {
  for (var i=0;i<edges.length;i++) {
    if (edges[i].id.substr(0,4)=='edge') {
      edges[i].setAttribute('class','edge');
    }
  }
}
]]></script>
        <defs>
                <circle id="rim" cx="0" cy="0" r="7"/>
                <circle id="rim2" cx="0" cy="0" r="3.5"/>
                <g id="zoomPlus">
                        <use xlink:href="#rim" fill="#404040">
                                <set attributeName="fill" to="#808080" begin="zoomplus.mouseover" end="zoomplus.mouseout"/>
                        </use>
                        <path d="M-4,0h8M0,-4v8" fill="none" stroke="white" stroke-width="1.5" pointer-events="none"/>
                </g>
                <g id="zoomMin">
                        <use xlink:href="#rim" fill="#404040">
                                <set attributeName="fill" to="#808080" begin="zoomminus.mouseover" end="zoomminus.mouseout"/>
                        </use>
                        <path d="M-4,0h8" fill="none" stroke="white" stroke-width="1.5" pointer-events="none"/>
                </g>
                <g id="dirArrow">
                        <path fill="none" stroke="white" stroke-width="1.5" d="M0,-3.0v7 M-2.5,-0.5L0,-3.0L2.5,-0.5"/>
                </g>
               <g id="resetDef">
                       <use xlink:href="#rim2" fill="#404040">
                               <set attributeName="fill" to="#808080" begin="reset.mouseover" end="reset.mouseout"/>
                       </use>
               </g>
        </defs>

<script type="text/javascript">
var viewWidth = 1408;
var viewHeight = 419;
var sectionId = 'dynsection-0';
</script>
<script xlink:href="svgpan.js"/>
<svg id="graph" class="graph">
<g id="viewport">
<title>drake/multibody/plant/discrete_contact_pair.h</title>
<polygon fill="#ffffff" stroke="transparent" points="-4,4 -4,-415 1403.5,-415 1403.5,4 -4,4"/>
<!-- Node0 -->
<g id="node1" class="node">
<title>Node0</title>
<g id="a_node1"><a xlink:title=" ">
<polygon fill="#bfbfbf" stroke="#000000" points="294,-380.5 294,-410.5 427,-410.5 427,-380.5 294,-380.5"/>
<text text-anchor="start" x="302" y="-398.5" font-family="Helvetica,sans-Serif" font-size="10.00" fill="#000000">drake/multibody/plant</text>
<text text-anchor="middle" x="360.5" y="-387.5" font-family="Helvetica,sans-Serif" font-size="10.00" fill="#000000">/discrete_contact_pair.h</text>
</a>
</g>
</g>
<!-- Node1 -->
<g id="node2" class="node">
<title>Node1</title>
<g id="a_node2"><a xlink:href="drake__copyable_8h.html" target="_top" xlink:title="Provides careful macros to selectively enable or disable the special member functions for copy&#45;constr...">
<polygon fill="#ffffff" stroke="#000000" points="301,-123.5 301,-153.5 422,-153.5 422,-123.5 301,-123.5"/>
<text text-anchor="start" x="309" y="-141.5" font-family="Helvetica,sans-Serif" font-size="10.00" fill="#000000">drake/common/drake</text>
<text text-anchor="middle" x="361.5" y="-130.5" font-family="Helvetica,sans-Serif" font-size="10.00" fill="#000000">_copyable.h</text>
</a>
</g>
</g>
<!-- Node0&#45;&gt;Node1 -->
<g id="edge1" class="edge">
<title>Node0&#45;&gt;Node1</title>
<path fill="none" stroke="#191970" d="M360.5596,-380.1931C360.7256,-337.5187 361.195,-216.8871 361.401,-163.9443"/>
<polygon fill="#191970" stroke="#191970" points="364.9017,-163.7402 361.4408,-153.7267 357.9018,-163.7129 364.9017,-163.7402"/>
</g>
<!-- Node2 -->
<g id="node3" class="node">
<title>Node2</title>
<g id="a_node3"><a xlink:href="eigen__types_8h.html" target="_top" xlink:title="This file contains abbreviated definitions for certain specializations of Eigen::Matrix that are comm...">
<polygon fill="#ffffff" stroke="#000000" points="212.5,-190.5 212.5,-220.5 332.5,-220.5 332.5,-190.5 212.5,-190.5"/>
<text text-anchor="start" x="220.5" y="-208.5" font-family="Helvetica,sans-Serif" font-size="10.00" fill="#000000">drake/common/eigen</text>
<text text-anchor="middle" x="272.5" y="-197.5" font-family="Helvetica,sans-Serif" font-size="10.00" fill="#000000">_types.h</text>
</a>
</g>
</g>
<!-- Node0&#45;&gt;Node2 -->
<g id="edge2" class="edge">
<title>Node0&#45;&gt;Node2</title>
<path fill="none" stroke="#191970" d="M353.4473,-380.2727C338.2198,-347.395 302.1562,-269.5305 283.742,-229.7725"/>
<polygon fill="#191970" stroke="#191970" points="286.8427,-228.1391 279.4641,-220.5361 280.4909,-231.0811 286.8427,-228.1391"/>
</g>
<!-- Node8 -->
<g id="node9" class="node">
<title>Node8</title>
<g id="a_node9"><a xlink:href="geometry__ids_8h.html" target="_top" xlink:title=" ">
<polygon fill="#ffffff" stroke="#000000" points="389,-313.5 389,-343.5 534,-343.5 534,-313.5 389,-313.5"/>
<text text-anchor="start" x="397" y="-331.5" font-family="Helvetica,sans-Serif" font-size="10.00" fill="#000000">drake/geometry/geometry</text>
<text text-anchor="middle" x="461.5" y="-320.5" font-family="Helvetica,sans-Serif" font-size="10.00" fill="#000000">_ids.h</text>
</a>
</g>
</g>
<!-- Node0&#45;&gt;Node8 -->
<g id="edge9" class="edge">
<title>Node0&#45;&gt;Node8</title>
<path fill="none" stroke="#191970" d="M383.1664,-380.4639C396.974,-371.3044 414.8189,-359.4667 429.9882,-349.4038"/>
<polygon fill="#191970" stroke="#191970" points="432.1614,-352.1623 438.5598,-343.7177 428.2918,-346.3291 432.1614,-352.1623"/>
</g>
<!-- Node2&#45;&gt;Node1 -->
<g id="edge8" class="edge">
<title>Node2&#45;&gt;Node1</title>
<path fill="none" stroke="#191970" d="M292.6955,-190.2967C304.6436,-181.302 319.9639,-169.7687 333.1138,-159.8694"/>
<polygon fill="#191970" stroke="#191970" points="335.5002,-162.4538 341.3844,-153.6432 331.2902,-156.8613 335.5002,-162.4538"/>
</g>
<!-- Node3 -->
<g id="node4" class="node">
<title>Node3</title>
<g id="a_node4"><a xlink:title=" ">
<polygon fill="#ffffff" stroke="#bfbfbf" points="534,-129 534,-148 579,-148 579,-129 534,-129"/>
<text text-anchor="middle" x="556.5" y="-136" font-family="Helvetica,sans-Serif" font-size="10.00" fill="#000000">utility</text>
</a>
</g>
</g>
<!-- Node2&#45;&gt;Node3 -->
<g id="edge3" class="edge">
<title>Node2&#45;&gt;Node3</title>
<path fill="none" stroke="#191970" d="M332.7291,-191.291C391.1598,-177.5063 477.6117,-157.111 524.1003,-146.1436"/>
<polygon fill="#191970" stroke="#191970" points="525.0038,-149.5266 533.933,-143.8239 523.3965,-142.7136 525.0038,-149.5266"/>
</g>
<!-- Node4 -->
<g id="node5" class="node">
<title>Node4</title>
<g id="a_node5"><a xlink:title=" ">
<polygon fill="#ffffff" stroke="#bfbfbf" points="167,-129 167,-148 244,-148 244,-129 167,-129"/>
<text text-anchor="middle" x="205.5" y="-136" font-family="Helvetica,sans-Serif" font-size="10.00" fill="#000000">Eigen/Dense</text>
</a>
</g>
</g>
<!-- Node2&#45;&gt;Node4 -->
<g id="edge4" class="edge">
<title>Node2&#45;&gt;Node4</title>
<path fill="none" stroke="#191970" d="M257.2967,-190.2967C246.8578,-179.8578 232.9997,-165.9997 222.2446,-155.2446"/>
<polygon fill="#191970" stroke="#191970" points="224.601,-152.6512 215.055,-148.055 219.6512,-157.601 224.601,-152.6512"/>
</g>
<!-- Node5 -->
<g id="node6" class="node">
<title>Node5</title>
<g id="a_node6"><a xlink:href="constants_8h.html" target="_top" xlink:title=" ">
<polygon fill="#ffffff" stroke="#000000" points="0,-129 0,-148 149,-148 149,-129 0,-129"/>
<text text-anchor="middle" x="74.5" y="-136" font-family="Helvetica,sans-Serif" font-size="10.00" fill="#000000">drake/common/constants.h</text>
</a>
</g>
</g>
<!-- Node2&#45;&gt;Node5 -->
<g id="edge5" class="edge">
<title>Node2&#45;&gt;Node5</title>
<path fill="none" stroke="#191970" d="M228.0649,-190.4639C193.2433,-178.6808 145.3239,-162.4657 112.3222,-151.2984"/>
<polygon fill="#191970" stroke="#191970" points="113.1845,-147.8953 102.5902,-148.0053 110.9408,-154.526 113.1845,-147.8953"/>
</g>
<!-- Node6 -->
<g id="node7" class="node">
<title>Node6</title>
<g id="a_node7"><a xlink:href="drake__assert_8h.html" target="_top" xlink:title="Provides Drake&#39;s assertion implementation.">
<polygon fill="#ffffff" stroke="#000000" points="649,-56.5 649,-86.5 770,-86.5 770,-56.5 649,-56.5"/>
<text text-anchor="start" x="657" y="-74.5" font-family="Helvetica,sans-Serif" font-size="10.00" fill="#000000">drake/common/drake</text>
<text text-anchor="middle" x="709.5" y="-63.5" font-family="Helvetica,sans-Serif" font-size="10.00" fill="#000000">_assert.h</text>
</a>
</g>
</g>
<!-- Node2&#45;&gt;Node6 -->
<g id="edge6" class="edge">
<title>Node2&#45;&gt;Node6</title>
<path fill="none" stroke="#191970" d="M271.2402,-190.475C270.5754,-171.7146 272.6119,-140.0232 291.5,-123 316.7486,-100.2443 525.8476,-83.3753 638.3977,-75.8469"/>
<polygon fill="#191970" stroke="#191970" points="638.9005,-79.3213 648.6478,-75.1692 638.4387,-72.3366 638.9005,-79.3213"/>
</g>
<!-- Node7 -->
<g id="node8" class="node">
<title>Node7</title>
<g id="a_node8"><a xlink:title=" ">
<polygon fill="#ffffff" stroke="#bfbfbf" points="617,-.5 617,-19.5 686,-19.5 686,-.5 617,-.5"/>
<text text-anchor="middle" x="651.5" y="-7.5" font-family="Helvetica,sans-Serif" font-size="10.00" fill="#000000">type_traits</text>
</a>
</g>
</g>
<!-- Node6&#45;&gt;Node7 -->
<g id="edge7" class="edge">
<title>Node6&#45;&gt;Node7</title>
<path fill="none" stroke="#191970" d="M695.1629,-56.2977C686.8603,-47.4941 676.3818,-36.3833 667.7711,-27.2529"/>
<polygon fill="#191970" stroke="#191970" points="670.1939,-24.7206 660.7865,-19.8469 665.1013,-29.5234 670.1939,-24.7206"/>
</g>
<!-- Node8&#45;&gt;Node1 -->
<g id="edge10" class="edge">
<title>Node8&#45;&gt;Node1</title>
<path fill="none" stroke="#191970" d="M453.4856,-313.2727C436.1816,-280.395 395.2002,-202.5305 374.275,-162.7725"/>
<polygon fill="#191970" stroke="#191970" points="377.1685,-160.7552 369.4137,-153.5361 370.974,-164.0154 377.1685,-160.7552"/>
</g>
<!-- Node9 -->
<g id="node10" class="node">
<title>Node9</title>
<g id="a_node10"><a xlink:href="identifier_8h.html" target="_top" xlink:title=" ">
<polygon fill="#ffffff" stroke="#000000" points="915.5,-257.5 915.5,-276.5 1061.5,-276.5 1061.5,-257.5 915.5,-257.5"/>
<text text-anchor="middle" x="988.5" y="-264.5" font-family="Helvetica,sans-Serif" font-size="10.00" fill="#000000">drake/common/identifier.h</text>
</a>
</g>
</g>
<!-- Node8&#45;&gt;Node9 -->
<g id="edge11" class="edge">
<title>Node8&#45;&gt;Node9</title>
<path fill="none" stroke="#191970" d="M534.2238,-320.0133C631.369,-308.6766 803.0782,-288.6384 905.2794,-276.7117"/>
<polygon fill="#191970" stroke="#191970" points="905.7258,-280.1835 915.2527,-275.5478 904.9143,-273.2306 905.7258,-280.1835"/>
</g>
<!-- Node9&#45;&gt;Node1 -->
<g id="edge16" class="edge">
<title>Node9&#45;&gt;Node1</title>
<path fill="none" stroke="#191970" d="M915.4481,-263.1979C779.5121,-255.7546 497.7145,-238.4579 456.5,-221 440.1455,-214.0725 406.2352,-182.6565 383.672,-160.6587"/>
<polygon fill="#191970" stroke="#191970" points="386.0829,-158.1208 376.4969,-153.6086 381.1768,-163.1138 386.0829,-158.1208"/>
</g>
<!-- Node10 -->
<g id="node11" class="node">
<title>Node10</title>
<g id="a_node11"><a xlink:title=" ">
<polygon fill="#ffffff" stroke="#bfbfbf" points="1092.5,-196 1092.5,-215 1142.5,-215 1142.5,-196 1092.5,-196"/>
<text text-anchor="middle" x="1117.5" y="-203" font-family="Helvetica,sans-Serif" font-size="10.00" fill="#000000">atomic</text>
</a>
</g>
</g>
<!-- Node9&#45;&gt;Node10 -->
<g id="edge12" class="edge">
<title>Node9&#45;&gt;Node10</title>
<path fill="none" stroke="#191970" d="M1008.6563,-257.3906C1030.051,-247.1908 1064.062,-230.9763 1088.3702,-219.3875"/>
<polygon fill="#191970" stroke="#191970" points="1089.9648,-222.5047 1097.4853,-215.0419 1086.9524,-216.186 1089.9648,-222.5047"/>
</g>
<!-- Node11 -->
<g id="node12" class="node">
<title>Node11</title>
<g id="a_node12"><a xlink:title=" ">
<polygon fill="#ffffff" stroke="#bfbfbf" points="1160.5,-196 1160.5,-215 1210.5,-215 1210.5,-196 1160.5,-196"/>
<text text-anchor="middle" x="1185.5" y="-203" font-family="Helvetica,sans-Serif" font-size="10.00" fill="#000000">cstdint</text>
</a>
</g>
</g>
<!-- Node9&#45;&gt;Node11 -->
<g id="edge13" class="edge">
<title>Node9&#45;&gt;Node11</title>
<path fill="none" stroke="#191970" d="M1028.901,-257.4289C1062.2213,-249.1012 1110.5034,-236.0298 1151.5,-221 1153.1331,-220.4013 1154.7971,-219.758 1156.4676,-219.0859"/>
<polygon fill="#191970" stroke="#191970" points="1158.1197,-222.186 1165.9362,-215.0339 1155.3656,-215.7505 1158.1197,-222.186"/>
</g>
<!-- Node12 -->
<g id="node13" class="node">
<title>Node12</title>
<g id="a_node13"><a xlink:title=" ">
<polygon fill="#ffffff" stroke="#bfbfbf" points="1272,-129 1272,-148 1337,-148 1337,-129 1272,-129"/>
<text text-anchor="middle" x="1304.5" y="-136" font-family="Helvetica,sans-Serif" font-size="10.00" fill="#000000">functional</text>
</a>
</g>
</g>
<!-- Node9&#45;&gt;Node12 -->
<g id="edge14" class="edge">
<title>Node9&#45;&gt;Node12</title>
<path fill="none" stroke="#191970" d="M993.2668,-257.3087C1002.0579,-240.5555 1022.515,-206.403 1050.5,-190 1133.3295,-141.4505 1170.828,-179.0935 1263.5,-154 1266.2545,-153.2542 1269.0817,-152.3942 1271.9013,-151.4696"/>
<polygon fill="#191970" stroke="#191970" points="1273.0696,-154.769 1281.3415,-148.1488 1270.7467,-148.1656 1273.0696,-154.769"/>
</g>
<!-- Node13 -->
<g id="node14" class="node">
<title>Node13</title>
<g id="a_node14"><a xlink:title=" ">
<polygon fill="#ffffff" stroke="#bfbfbf" points="1355.5,-129 1355.5,-148 1399.5,-148 1399.5,-129 1355.5,-129"/>
<text text-anchor="middle" x="1377.5" y="-136" font-family="Helvetica,sans-Serif" font-size="10.00" fill="#000000">string</text>
</a>
</g>
</g>
<!-- Node9&#45;&gt;Node13 -->
<g id="edge15" class="edge">
<title>Node9&#45;&gt;Node13</title>
<path fill="none" stroke="#191970" d="M1001.301,-257.3059C1013.348,-248.1156 1031.8289,-233.8436 1047.5,-221 1063.8307,-207.6158 1064.2505,-198.6766 1083.5,-190 1191.0575,-141.519 1233.785,-188.8473 1346.5,-154 1348.1599,-153.4868 1349.8398,-152.8922 1351.514,-152.241"/>
<polygon fill="#191970" stroke="#191970" points="1353.1581,-155.34 1360.8622,-148.0669 1350.3041,-148.9483 1353.1581,-155.34"/>
</g>
<!-- Node14 -->
<g id="node15" class="node">
<title>Node14</title>
<g id="a_node15"><a xlink:href="drake__throw_8h.html" target="_top" xlink:title="Provides a convenient wrapper to throw an exception when a condition is unmet.">
<polygon fill="#ffffff" stroke="#000000" points="1133,-123.5 1133,-153.5 1254,-153.5 1254,-123.5 1133,-123.5"/>
<text text-anchor="start" x="1141" y="-141.5" font-family="Helvetica,sans-Serif" font-size="10.00" fill="#000000">drake/common/drake</text>
<text text-anchor="middle" x="1193.5" y="-130.5" font-family="Helvetica,sans-Serif" font-size="10.00" fill="#000000">_throw.h</text>
</a>
</g>
</g>
<!-- Node9&#45;&gt;Node14 -->
<g id="edge17" class="edge">
<title>Node9&#45;&gt;Node14</title>
<path fill="none" stroke="#191970" d="M988.6916,-257.4782C989.5453,-241.2913 993.6551,-208.3806 1012.5,-190 1020.7973,-181.9071 1075.5121,-166.9618 1122.6345,-155.2477"/>
<polygon fill="#191970" stroke="#191970" points="1123.6844,-158.5938 1132.5552,-152.8007 1122.008,-151.7974 1123.6844,-158.5938"/>
</g>
<!-- Node15 -->
<g id="node16" class="node">
<title>Node15</title>
<g id="a_node16"><a xlink:href="hash_8h.html" target="_top" xlink:title=" ">
<polygon fill="#ffffff" stroke="#000000" points="835,-196 835,-215 960,-215 960,-196 835,-196"/>
<text text-anchor="middle" x="897.5" y="-203" font-family="Helvetica,sans-Serif" font-size="10.00" fill="#000000">drake/common/hash.h</text>
</a>
</g>
</g>
<!-- Node9&#45;&gt;Node15 -->
<g id="edge20" class="edge">
<title>Node9&#45;&gt;Node15</title>
<path fill="none" stroke="#191970" d="M974.2813,-257.3906C959.8566,-247.6421 937.3024,-232.3994 920.364,-220.9521"/>
<polygon fill="#191970" stroke="#191970" points="921.8641,-217.7415 911.6189,-215.0419 917.9444,-223.5412 921.8641,-217.7415"/>
</g>
<!-- Node23 -->
<g id="node24" class="node">
<title>Node23</title>
<g id="a_node24"><a xlink:href="never__destroyed_8h.html" target="_top" xlink:title=" ">
<polygon fill="#ffffff" stroke="#000000" points="465,-190.5 465,-220.5 586,-220.5 586,-190.5 465,-190.5"/>
<text text-anchor="start" x="473" y="-208.5" font-family="Helvetica,sans-Serif" font-size="10.00" fill="#000000">drake/common/never</text>
<text text-anchor="middle" x="525.5" y="-197.5" font-family="Helvetica,sans-Serif" font-size="10.00" fill="#000000">_destroyed.h</text>
</a>
</g>
</g>
<!-- Node9&#45;&gt;Node23 -->
<g id="edge34" class="edge">
<title>Node9&#45;&gt;Node23</title>
<path fill="none" stroke="#191970" d="M916.9178,-257.4918C829.629,-245.8973 683.0216,-226.4235 596.1553,-214.8851"/>
<polygon fill="#191970" stroke="#191970" points="596.4993,-211.4001 586.1255,-213.5529 595.5776,-218.3392 596.4993,-211.4001"/>
</g>
<!-- Node14&#45;&gt;Node6 -->
<g id="edge19" class="edge">
<title>Node14&#45;&gt;Node6</title>
<path fill="none" stroke="#191970" d="M1132.9847,-124.5555C1130.1212,-124.006 1127.2821,-123.4839 1124.5,-123 1004.339,-102.0992 863.1719,-86.4522 780.3128,-78.1641"/>
<polygon fill="#191970" stroke="#191970" points="780.5519,-74.6707 770.255,-77.1656 779.8603,-81.6365 780.5519,-74.6707"/>
</g>
<!-- Node14&#45;&gt;Node7 -->
<g id="edge18" class="edge">
<title>Node14&#45;&gt;Node7</title>
<path fill="none" stroke="#191970" d="M1132.9034,-124.1335C1022.8506,-98.0416 792.5871,-43.4496 695.8262,-20.5091"/>
<polygon fill="#191970" stroke="#191970" points="696.6038,-17.0965 686.0661,-18.1951 694.989,-23.9077 696.6038,-17.0965"/>
</g>
<!-- Node15&#45;&gt;Node3 -->
<g id="edge30" class="edge">
<title>Node15&#45;&gt;Node3</title>
<path fill="none" stroke="#191970" d="M834.8472,-199.1321C772.7171,-191.8314 675.2442,-177.7062 593.5,-154 591.1861,-153.3289 588.8219,-152.5562 586.4632,-151.7215"/>
<polygon fill="#191970" stroke="#191970" points="587.5311,-148.382 576.9417,-148.0434 585.0086,-154.9118 587.5311,-148.382"/>
</g>
<!-- Node15&#45;&gt;Node6 -->
<g id="edge32" class="edge">
<title>Node15&#45;&gt;Node6</title>
<path fill="none" stroke="#191970" d="M834.8693,-197.3531C803.7662,-190.4238 767.5783,-177.6236 742.5,-154 726.4489,-138.88 718.034,-114.9229 713.7321,-96.7118"/>
<polygon fill="#191970" stroke="#191970" points="717.1241,-95.8334 711.6478,-86.7637 710.2729,-97.2689 717.1241,-95.8334"/>
</g>
<!-- Node15&#45;&gt;Node7 -->
<g id="edge29" class="edge">
<title>Node15&#45;&gt;Node7</title>
<path fill="none" stroke="#191970" d="M834.7702,-202.5638C763.12,-197.7413 652.4204,-185.3101 626.5,-154 596.5529,-117.8259 622.9738,-58.6918 639.9115,-28.7033"/>
<polygon fill="#191970" stroke="#191970" points="643.1395,-30.1191 645.1969,-19.7259 637.1073,-26.5676 643.1395,-30.1191"/>
</g>
<!-- Node15&#45;&gt;Node12 -->
<g id="edge23" class="edge">
<title>Node15&#45;&gt;Node12</title>
<path fill="none" stroke="#191970" d="M960.1706,-197.0488C1060.8791,-183.416 1248.9888,-157.7148 1263.5,-154 1266.3336,-153.2746 1269.2406,-152.4176 1272.1351,-151.4849"/>
<polygon fill="#191970" stroke="#191970" points="1273.5194,-154.7087 1281.8029,-148.1031 1271.2081,-148.1012 1273.5194,-154.7087"/>
</g>
<!-- Node15&#45;&gt;Node13 -->
<g id="edge28" class="edge">
<title>Node15&#45;&gt;Node13</title>
<path fill="none" stroke="#191970" d="M960.0817,-198.9038C1079.1734,-186.2704 1328.238,-159.4282 1346.5,-154 1348.1654,-153.505 1349.8496,-152.9244 1351.527,-152.2839"/>
<polygon fill="#191970" stroke="#191970" points="1353.1587,-155.3892 1360.8839,-148.1384 1350.3232,-148.9892 1353.1587,-155.3892"/>
</g>
<!-- Node15&#45;&gt;Node14 -->
<g id="edge33" class="edge">
<title>Node15&#45;&gt;Node14</title>
<path fill="none" stroke="#191970" d="M939.5952,-195.9717C987.2505,-185.1848 1065.6695,-167.4346 1122.7665,-154.5106"/>
<polygon fill="#191970" stroke="#191970" points="1123.8286,-157.8588 1132.8092,-152.2375 1122.2832,-151.0315 1123.8286,-157.8588"/>
</g>
<!-- Node16 -->
<g id="node17" class="node">
<title>Node16</title>
<g id="a_node17"><a xlink:title=" ">
<polygon fill="#ffffff" stroke="#bfbfbf" points="997,-129 997,-148 1044,-148 1044,-129 997,-129"/>
<text text-anchor="middle" x="1020.5" y="-136" font-family="Helvetica,sans-Serif" font-size="10.00" fill="#000000">cmath</text>
</a>
</g>
</g>
<!-- Node15&#45;&gt;Node16 -->
<g id="edge21" class="edge">
<title>Node15&#45;&gt;Node16</title>
<path fill="none" stroke="#191970" d="M915.1229,-195.9005C935.7651,-184.6564 970.168,-165.9166 994.024,-152.9219"/>
<polygon fill="#191970" stroke="#191970" points="995.8023,-155.9388 1002.9098,-148.0817 992.4538,-149.7916 995.8023,-155.9388"/>
</g>
<!-- Node17 -->
<g id="node18" class="node">
<title>Node17</title>
<g id="a_node18"><a xlink:title=" ">
<polygon fill="#ffffff" stroke="#bfbfbf" points="1062,-129 1062,-148 1115,-148 1115,-129 1062,-129"/>
<text text-anchor="middle" x="1088.5" y="-136" font-family="Helvetica,sans-Serif" font-size="10.00" fill="#000000">cstddef</text>
</a>
</g>
</g>
<!-- Node15&#45;&gt;Node17 -->
<g id="edge22" class="edge">
<title>Node15&#45;&gt;Node17</title>
<path fill="none" stroke="#191970" d="M929.4929,-195.9461C961.2556,-186.2257 1011.1858,-170.309 1053.5,-154 1055.12,-153.3756 1056.7739,-152.7172 1058.4378,-152.0383"/>
<polygon fill="#191970" stroke="#191970" points="1060.0734,-155.1464 1067.9123,-148.0188 1057.3395,-148.7024 1060.0734,-155.1464"/>
</g>
<!-- Node18 -->
<g id="node19" class="node">
<title>Node18</title>
<g id="a_node19"><a xlink:title=" ">
<polygon fill="#ffffff" stroke="#bfbfbf" points="635.5,-129 635.5,-148 695.5,-148 695.5,-129 635.5,-129"/>
<text text-anchor="middle" x="665.5" y="-136" font-family="Helvetica,sans-Serif" font-size="10.00" fill="#000000">iostream</text>
</a>
</g>
</g>
<!-- Node15&#45;&gt;Node18 -->
<g id="edge24" class="edge">
<title>Node15&#45;&gt;Node18</title>
<path fill="none" stroke="#191970" d="M859.4597,-195.93C821.3186,-186.1355 761.0175,-170.1078 709.5,-154 706.908,-153.1896 704.2402,-152.3255 701.5609,-151.4358"/>
<polygon fill="#191970" stroke="#191970" points="702.5169,-148.0641 691.9225,-148.1514 700.259,-154.6899 702.5169,-148.0641"/>
</g>
<!-- Node19 -->
<g id="node20" class="node">
<title>Node19</title>
<g id="a_node20"><a xlink:title=" ">
<polygon fill="#ffffff" stroke="#bfbfbf" points="751.5,-129 751.5,-148 789.5,-148 789.5,-129 751.5,-129"/>
<text text-anchor="middle" x="770.5" y="-136" font-family="Helvetica,sans-Serif" font-size="10.00" fill="#000000">map</text>
</a>
</g>
</g>
<!-- Node15&#45;&gt;Node19 -->
<g id="edge25" class="edge">
<title>Node15&#45;&gt;Node19</title>
<path fill="none" stroke="#191970" d="M878.813,-195.9615C858.8519,-185.7302 826.3245,-168.9354 798.5,-154 797.8391,-153.6452 797.17,-153.2848 796.4955,-152.9203"/>
<polygon fill="#191970" stroke="#191970" points="798.092,-149.8042 787.6386,-148.0792 794.7347,-155.9466 798.092,-149.8042"/>
</g>
<!-- Node20 -->
<g id="node21" class="node">
<title>Node20</title>
<g id="a_node21"><a xlink:title=" ">
<polygon fill="#ffffff" stroke="#bfbfbf" points="807.5,-129 807.5,-148 863.5,-148 863.5,-129 807.5,-129"/>
<text text-anchor="middle" x="835.5" y="-136" font-family="Helvetica,sans-Serif" font-size="10.00" fill="#000000">optional</text>
</a>
</g>
</g>
<!-- Node15&#45;&gt;Node20 -->
<g id="edge26" class="edge">
<title>Node15&#45;&gt;Node20</title>
<path fill="none" stroke="#191970" d="M888.6169,-195.9005C878.9486,-185.4525 863.2912,-168.5325 851.4752,-155.7635"/>
<polygon fill="#191970" stroke="#191970" points="853.7274,-153.0441 844.3666,-148.0817 848.5897,-157.7985 853.7274,-153.0441"/>
</g>
<!-- Node21 -->
<g id="node22" class="node">
<title>Node21</title>
<g id="a_node22"><a xlink:title=" ">
<polygon fill="#ffffff" stroke="#bfbfbf" points="881.5,-129 881.5,-148 913.5,-148 913.5,-129 881.5,-129"/>
<text text-anchor="middle" x="897.5" y="-136" font-family="Helvetica,sans-Serif" font-size="10.00" fill="#000000">set</text>
</a>
</g>
</g>
<!-- Node15&#45;&gt;Node21 -->
<g id="edge27" class="edge">
<title>Node15&#45;&gt;Node21</title>
<path fill="none" stroke="#191970" d="M897.5,-195.9005C897.5,-186.149 897.5,-170.7597 897.5,-158.3695"/>
<polygon fill="#191970" stroke="#191970" points="901.0001,-158.0816 897.5,-148.0817 894.0001,-158.0817 901.0001,-158.0816"/>
</g>
<!-- Node22 -->
<g id="node23" class="node">
<title>Node22</title>
<g id="a_node23"><a xlink:title=" ">
<polygon fill="#ffffff" stroke="#bfbfbf" points="932,-129 932,-148 979,-148 979,-129 932,-129"/>
<text text-anchor="middle" x="955.5" y="-136" font-family="Helvetica,sans-Serif" font-size="10.00" fill="#000000">vector</text>
</a>
</g>
</g>
<!-- Node15&#45;&gt;Node22 -->
<g id="edge31" class="edge">
<title>Node15&#45;&gt;Node22</title>
<path fill="none" stroke="#191970" d="M905.81,-195.9005C914.8546,-185.4525 929.5017,-168.5325 940.5555,-155.7635"/>
<polygon fill="#191970" stroke="#191970" points="943.3066,-157.9331 947.2054,-148.0817 938.0142,-153.3515 943.3066,-157.9331"/>
</g>
<!-- Node23&#45;&gt;Node1 -->
<g id="edge38" class="edge">
<title>Node23&#45;&gt;Node1</title>
<path fill="none" stroke="#191970" d="M488.6952,-190.4639C464.8291,-180.7137 433.5349,-167.9289 407.9598,-157.4805"/>
<polygon fill="#191970" stroke="#191970" points="409.0463,-154.1436 398.4653,-153.6017 406.3989,-160.6237 409.0463,-154.1436"/>
</g>
<!-- Node23&#45;&gt;Node3 -->
<g id="edge37" class="edge">
<title>Node23&#45;&gt;Node3</title>
<path fill="none" stroke="#191970" d="M532.5344,-190.2967C537.083,-180.4658 543.0346,-167.6026 547.8688,-157.1545"/>
<polygon fill="#191970" stroke="#191970" points="551.0563,-158.6003 552.079,-148.055 544.7033,-155.6609 551.0563,-158.6003"/>
</g>
<!-- Node23&#45;&gt;Node7 -->
<g id="edge36" class="edge">
<title>Node23&#45;&gt;Node7</title>
<path fill="none" stroke="#191970" d="M522.0962,-190.2118C519.0453,-173.1101 516.32,-144.9323 525.5,-123 544.5206,-77.557 592.6696,-43.1698 623.6362,-24.848"/>
<polygon fill="#191970" stroke="#191970" points="625.7095,-27.6938 632.6436,-19.6833 622.2275,-21.6212 625.7095,-27.6938"/>
</g>
<!-- Node24 -->
<g id="node25" class="node">
<title>Node24</title>
<g id="a_node25"><a xlink:title=" ">
<polygon fill="#ffffff" stroke="#bfbfbf" points="440,-129 440,-148 477,-148 477,-129 440,-129"/>
<text text-anchor="middle" x="458.5" y="-136" font-family="Helvetica,sans-Serif" font-size="10.00" fill="#000000">new</text>
</a>
</g>
</g>
<!-- Node23&#45;&gt;Node24 -->
<g id="edge35" class="edge">
<title>Node23&#45;&gt;Node24</title>
<path fill="none" stroke="#191970" d="M510.2967,-190.2967C499.8578,-179.8578 485.9997,-165.9997 475.2446,-155.2446"/>
<polygon fill="#191970" stroke="#191970" points="477.601,-152.6512 468.055,-148.055 472.6512,-157.601 477.601,-152.6512"/>
</g>
</g>
</svg>
        <g id="navigator" transform="translate(0 0)" fill="#404254">
                <rect fill="#f2f5e9" fill-opacity="0.5" stroke="#606060" stroke-width=".5" x="0" y="0" width="60" height="60"/>
                <use id="zoomplus" xlink:href="#zoomPlus" x="17" y="9" onmousedown="handleZoom(evt,'in')"/>
                <use id="zoomminus" xlink:href="#zoomMin" x="42" y="9" onmousedown="handleZoom(evt,'out')"/>
                <use id="reset" xlink:href="#resetDef" x="30" y="36" onmousedown="handleReset()"/>
                <g id="arrowUp" xlink:href="#dirArrow" transform="translate(30 24)" onmousedown="handlePan(0,-1)">
                  <use xlink:href="#rim" fill="#404040">
                        <set attributeName="fill" to="#808080" begin="arrowUp.mouseover" end="arrowUp.mouseout"/>
                  </use>
                  <path fill="none" stroke="white" stroke-width="1.5" d="M0,-3.0v7 M-2.5,-0.5L0,-3.0L2.5,-0.5"/>
                </g>
                <g id="arrowRight" xlink:href="#dirArrow" transform="rotate(90) translate(36 -43)" onmousedown="handlePan(1,0)">
                  <use xlink:href="#rim" fill="#404040">
                        <set attributeName="fill" to="#808080" begin="arrowRight.mouseover" end="arrowRight.mouseout"/>
                  </use>
                  <path fill="none" stroke="white" stroke-width="1.5" d="M0,-3.0v7 M-2.5,-0.5L0,-3.0L2.5,-0.5"/>
                </g>
                <g id="arrowDown" xlink:href="#dirArrow" transform="rotate(180) translate(-30 -48)" onmousedown="handlePan(0,1)">
                  <use xlink:href="#rim" fill="#404040">
                        <set attributeName="fill" to="#808080" begin="arrowDown.mouseover" end="arrowDown.mouseout"/>
                  </use>
                  <path fill="none" stroke="white" stroke-width="1.5" d="M0,-3.0v7 M-2.5,-0.5L0,-3.0L2.5,-0.5"/>
                </g>
                <g id="arrowLeft" xlink:href="#dirArrow" transform="rotate(270) translate(-36 17)" onmousedown="handlePan(-1,0)">
                  <use xlink:href="#rim" fill="#404040">
                        <set attributeName="fill" to="#808080" begin="arrowLeft.mouseover" end="arrowLeft.mouseout"/>
                  </use>
                  <path fill="none" stroke="white" stroke-width="1.5" d="M0,-3.0v7 M-2.5,-0.5L0,-3.0L2.5,-0.5"/>
                </g>
        </g>
        <svg viewBox="0 0 15 15" width="100%" height="30px" preserveAspectRatio="xMaxYMin meet">
         <g id="arrow_out" transform="scale(0.3 0.3)">
          <a xlink:href="discrete__contact__pair_8h__incl_org.svg" target="_base">
           <rect id="button" ry="5" rx="5" y="6" x="6" height="38" width="38"
                fill="#f2f5e9" fill-opacity="0.5" stroke="#606060" stroke-width="1.0"/>
           <path id="arrow"
             d="M 11.500037,31.436501 C 11.940474,20.09759 22.043105,11.32322 32.158766,21.979434 L 37.068811,17.246167 C 37.068811,17.246167 37.088388,32 37.088388,32 L 22.160133,31.978069 C 22.160133,31.978069 26.997745,27.140456 26.997745,27.140456 C 18.528582,18.264221 13.291696,25.230495 11.500037,31.436501 z"
             style="fill:#404040;"/>
          </a>
         </g>
        </svg>
</svg>
