<?xml version="1.0" encoding="UTF-8" standalone="no"?>
<!DOCTYPE svg PUBLIC "-//W3C//DTD SVG 1.1//EN"
 "http://www.w3.org/Graphics/SVG/1.1/DTD/svg11.dtd">
<!-- Generated by graphviz version 2.40.1 (20161225.0304)
 -->
<!-- Title: %3 Pages: 1 -->
<svg width="1405pt" height="980pt"
 viewBox="0.00 0.00 1405.00 980.00" xmlns="http://www.w3.org/2000/svg" xmlns:xlink="http://www.w3.org/1999/xlink">
<g id="graph0" class="graph" transform="scale(1 1) rotate(0) translate(4 976)">
<title>%3</title>
<polygon fill="#ffffff" stroke="transparent" points="-4,4 -4,-976 1401,-976 1401,4 -4,4"/>
<!-- diag_xcdot -->
<g id="node1" class="node">
<title>diag_xcdot</title>
<polygon fill="none" stroke="#000000" stroke-width="2" points="872,-972 869,-976 848,-976 845,-972 816,-972 816,-936 872,-936 872,-972"/>
<text text-anchor="middle" x="844" y="-950.3" font-family="Times,serif" font-size="14.00" fill="#000000">xcdot</text>
</g>
<!-- diag_all_sources -->
<g id="node6" class="node">
<title>diag_all_sources</title>
<polygon fill="none" stroke="#000000" stroke-width="2" points="979.5,-900 976.5,-904 955.5,-904 952.5,-900 882.5,-900 882.5,-864 979.5,-864 979.5,-900"/>
<text text-anchor="middle" x="931" y="-878.3" font-family="Times,serif" font-size="14.00" fill="#000000">all_sources</text>
</g>
<!-- diag_xcdot&#45;&gt;diag_all_sources -->
<g id="edge60" class="edge">
<title>diag_xcdot&#45;&gt;diag_all_sources</title>
<path fill="none" stroke="#000000" stroke-dasharray="5,2" d="M865.9538,-935.8314C876.6695,-926.9632 889.7189,-916.1637 901.309,-906.5718"/>
<polygon fill="#000000" stroke="#000000" points="903.5808,-909.2349 909.0533,-900.1628 899.1178,-903.8422 903.5808,-909.2349"/>
</g>
<!-- leaf_xcdot -->
<g id="node26" class="node">
<title>leaf_xcdot</title>
<path fill="none" stroke="#000000" d="M945,-468C945,-468 913,-468 913,-468 907,-468 901,-462 901,-456 901,-456 901,-444 901,-444 901,-438 907,-432 913,-432 913,-432 945,-432 945,-432 951,-432 957,-438 957,-444 957,-444 957,-456 957,-456 957,-462 951,-468 945,-468"/>
<text text-anchor="middle" x="929" y="-446.3" font-family="Times,serif" font-size="14.00" fill="#000000">xcdot</text>
</g>
<!-- diag_xcdot&#45;&gt;leaf_xcdot -->
<g id="edge75" class="edge">
<title>diag_xcdot&#45;&gt;leaf_xcdot</title>
<path fill="none" stroke="#0000ff" d="M838.6073,-935.7109C825.3005,-887.6821 793.8831,-754.3433 821,-648 838.0629,-581.0849 882.8729,-512.3964 909.1013,-476.1357"/>
<polygon fill="#0000ff" stroke="#0000ff" points="911.9343,-478.191 915.0272,-468.0577 906.2901,-474.0505 911.9343,-478.191"/>
</g>
<!-- diag_ke -->
<g id="node2" class="node">
<title>diag_ke</title>
<polygon fill="none" stroke="#000000" stroke-width="2" points="1060,-972 1057,-976 1036,-976 1033,-972 1006,-972 1006,-936 1060,-936 1060,-972"/>
<text text-anchor="middle" x="1033" y="-950.3" font-family="Times,serif" font-size="14.00" fill="#000000">ke</text>
</g>
<!-- diag_ke&#45;&gt;diag_all_sources -->
<g id="edge62" class="edge">
<title>diag_ke&#45;&gt;diag_all_sources</title>
<path fill="none" stroke="#000000" stroke-dasharray="5,2" d="M1007.2611,-935.8314C994.4563,-926.7927 978.8091,-915.7476 965.0281,-906.0198"/>
<polygon fill="#000000" stroke="#000000" points="966.9188,-903.0703 956.7307,-900.1628 962.882,-908.7891 966.9188,-903.0703"/>
</g>
<!-- leaf_ke -->
<g id="node27" class="node">
<title>leaf_ke</title>
<path fill="none" stroke="#000000" d="M1091,-468C1091,-468 1061,-468 1061,-468 1055,-468 1049,-462 1049,-456 1049,-456 1049,-444 1049,-444 1049,-438 1055,-432 1061,-432 1061,-432 1091,-432 1091,-432 1097,-432 1103,-438 1103,-444 1103,-444 1103,-456 1103,-456 1103,-462 1097,-468 1091,-468"/>
<text text-anchor="middle" x="1076" y="-446.3" font-family="Times,serif" font-size="14.00" fill="#000000">ke</text>
</g>
<!-- diag_ke&#45;&gt;leaf_ke -->
<g id="edge77" class="edge">
<title>diag_ke&#45;&gt;leaf_ke</title>
<path fill="none" stroke="#0000ff" d="M1039.1502,-935.5984C1047.6628,-908.4466 1062,-855.9035 1062,-810 1062,-810 1062,-810 1062,-594 1062,-553.6868 1067.5027,-507.322 1071.6084,-478.3387"/>
<polygon fill="#0000ff" stroke="#0000ff" points="1075.1173,-478.5313 1073.0992,-468.1304 1068.1908,-477.5197 1075.1173,-478.5313"/>
</g>
<!-- diag_pc -->
<g id="node3" class="node">
<title>diag_pc</title>
<polygon fill="none" stroke="#000000" stroke-width="2" points="1193,-972 1190,-976 1169,-976 1166,-972 1139,-972 1139,-936 1193,-936 1193,-972"/>
<text text-anchor="middle" x="1166" y="-950.3" font-family="Times,serif" font-size="14.00" fill="#000000">pc</text>
</g>
<!-- diag_pc&#45;&gt;diag_all_sources -->
<g id="edge63" class="edge">
<title>diag_pc&#45;&gt;diag_all_sources</title>
<path fill="none" stroke="#000000" stroke-dasharray="5,2" d="M1138.5826,-945.5998C1102.2225,-934.4597 1037.1005,-914.5074 989.466,-899.913"/>
<polygon fill="#000000" stroke="#000000" points="990.4717,-896.5606 979.885,-896.9775 988.421,-903.2535 990.4717,-896.5606"/>
</g>
<!-- leaf_pc -->
<g id="node28" class="node">
<title>leaf_pc</title>
<path fill="none" stroke="#000000" d="M1281,-468C1281,-468 1251,-468 1251,-468 1245,-468 1239,-462 1239,-456 1239,-456 1239,-444 1239,-444 1239,-438 1245,-432 1251,-432 1251,-432 1281,-432 1281,-432 1287,-432 1293,-438 1293,-444 1293,-444 1293,-456 1293,-456 1293,-462 1287,-468 1281,-468"/>
<text text-anchor="middle" x="1266" y="-446.3" font-family="Times,serif" font-size="14.00" fill="#000000">pc</text>
</g>
<!-- diag_pc&#45;&gt;leaf_pc -->
<g id="edge78" class="edge">
<title>diag_pc&#45;&gt;leaf_pc</title>
<path fill="none" stroke="#0000ff" d="M1193.0434,-941.7354C1234.2434,-920.9807 1308,-874.7792 1308,-810 1308,-810 1308,-810 1308,-738 1308,-641.7662 1284.7541,-529.3199 1272.8503,-478.0468"/>
<polygon fill="#0000ff" stroke="#0000ff" points="1276.1974,-476.9912 1270.4947,-468.062 1269.3844,-478.5985 1276.1974,-476.9912"/>
</g>
<!-- diag_pnc -->
<g id="node4" class="node">
<title>diag_pnc</title>
<polygon fill="none" stroke="#000000" stroke-width="2" points="1364,-972 1361,-976 1340,-976 1337,-972 1310,-972 1310,-936 1364,-936 1364,-972"/>
<text text-anchor="middle" x="1337" y="-950.3" font-family="Times,serif" font-size="14.00" fill="#000000">pnc</text>
</g>
<!-- diag_pnc&#45;&gt;diag_all_sources -->
<g id="edge64" class="edge">
<title>diag_pnc&#45;&gt;diag_all_sources</title>
<path fill="none" stroke="#000000" stroke-dasharray="5,2" d="M1309.7308,-949.1641C1244.5908,-937.6122 1078.7433,-908.2008 989.6738,-892.4052"/>
<polygon fill="#000000" stroke="#000000" points="990.1855,-888.9414 979.728,-890.6414 988.9632,-895.8339 990.1855,-888.9414"/>
</g>
<!-- leaf_pnc -->
<g id="node29" class="node">
<title>leaf_pnc</title>
<path fill="none" stroke="#000000" d="M1372,-468C1372,-468 1342,-468 1342,-468 1336,-468 1330,-462 1330,-456 1330,-456 1330,-444 1330,-444 1330,-438 1336,-432 1342,-432 1342,-432 1372,-432 1372,-432 1378,-432 1384,-438 1384,-444 1384,-444 1384,-456 1384,-456 1384,-462 1378,-468 1372,-468"/>
<text text-anchor="middle" x="1357" y="-446.3" font-family="Times,serif" font-size="14.00" fill="#000000">pnc</text>
</g>
<!-- diag_pnc&#45;&gt;leaf_pnc -->
<g id="edge79" class="edge">
<title>diag_pnc&#45;&gt;leaf_pnc</title>
<path fill="none" stroke="#0000ff" d="M1350.0191,-935.9118C1367.6656,-909.5658 1397,-858.4792 1397,-810 1397,-810 1397,-810 1397,-594 1397,-552.2219 1381.176,-506.0316 1369.4336,-477.5067"/>
<polygon fill="#0000ff" stroke="#0000ff" points="1372.6092,-476.0301 1365.483,-468.19 1366.1646,-478.7629 1372.6092,-476.0301"/>
</g>
<!-- diag_pe -->
<g id="node5" class="node">
<title>diag_pe</title>
<polygon fill="none" stroke="#000000" stroke-width="2" points="973,-972 970,-976 949,-976 946,-972 919,-972 919,-936 973,-936 973,-972"/>
<text text-anchor="middle" x="946" y="-950.3" font-family="Times,serif" font-size="14.00" fill="#000000">pe</text>
</g>
<!-- diag_pe&#45;&gt;diag_all_sources -->
<g id="edge61" class="edge">
<title>diag_pe&#45;&gt;diag_all_sources</title>
<path fill="none" stroke="#000000" stroke-dasharray="5,2" d="M942.2149,-935.8314C940.6106,-928.131 938.703,-918.9743 936.9201,-910.4166"/>
<polygon fill="#000000" stroke="#000000" points="940.3021,-909.4892 934.8361,-900.4133 933.4493,-910.9169 940.3021,-909.4892"/>
</g>
<!-- leaf_pe -->
<g id="node30" class="node">
<title>leaf_pe</title>
<path fill="none" stroke="#000000" d="M1019,-468C1019,-468 989,-468 989,-468 983,-468 977,-462 977,-456 977,-456 977,-444 977,-444 977,-438 983,-432 989,-432 989,-432 1019,-432 1019,-432 1025,-432 1031,-438 1031,-444 1031,-444 1031,-456 1031,-456 1031,-462 1025,-468 1019,-468"/>
<text text-anchor="middle" x="1004" y="-446.3" font-family="Times,serif" font-size="14.00" fill="#000000">pe</text>
</g>
<!-- diag_pe&#45;&gt;leaf_pe -->
<g id="edge76" class="edge">
<title>diag_pe&#45;&gt;leaf_pe</title>
<path fill="none" stroke="#0000ff" d="M963.6994,-935.7014C986.7127,-909.8978 1024,-860.3246 1024,-810 1024,-810 1024,-810 1024,-594 1024,-553.3124 1016.0696,-506.7676 1010.1963,-477.8757"/>
<polygon fill="#0000ff" stroke="#0000ff" points="1013.6191,-477.144 1008.144,-468.0735 1006.7676,-478.5786 1013.6191,-477.144"/>
</g>
<!-- diag_x -->
<g id="node9" class="node">
<title>diag_x</title>
<polygon fill="none" stroke="#000000" stroke-width="2" points="612,-684 609,-688 588,-688 585,-684 536,-684 536,-648 612,-648 612,-684"/>
<text text-anchor="middle" x="574" y="-662.3" font-family="Times,serif" font-size="14.00" fill="#000000">state (x)</text>
</g>
<!-- diag_all_sources&#45;&gt;diag_x -->
<g id="edge48" class="edge">
<title>diag_all_sources&#45;&gt;diag_x</title>
<path fill="none" stroke="#000000" d="M899.8312,-863.8915C881.9768,-853.4719 859.1772,-840.0876 839,-828 757.8349,-779.3761 663.4391,-721.3014 612.0798,-689.5741"/>
<polygon fill="#000000" stroke="#000000" points="613.6529,-686.4319 603.3063,-684.1519 609.9728,-692.3865 613.6529,-686.4319"/>
</g>
<!-- diag_p -->
<g id="node10" class="node">
<title>diag_p</title>
<polygon fill="none" stroke="#000000" stroke-width="2" points="477.5,-684 474.5,-688 453.5,-688 450.5,-684 354.5,-684 354.5,-648 477.5,-648 477.5,-684"/>
<text text-anchor="middle" x="416" y="-662.3" font-family="Times,serif" font-size="14.00" fill="#000000">parameters (p)</text>
</g>
<!-- diag_all_sources&#45;&gt;diag_p -->
<g id="edge49" class="edge">
<title>diag_all_sources&#45;&gt;diag_p</title>
<path fill="none" stroke="#000000" d="M882.1418,-879.9187C764.6219,-874.4521 473.5106,-857.9986 442,-828 405.9477,-793.6776 407.0001,-730.7268 411.2998,-694.2252"/>
<polygon fill="#000000" stroke="#000000" points="414.7784,-694.6176 412.6354,-684.2418 407.8402,-693.6893 414.7784,-694.6176"/>
</g>
<!-- diag_a -->
<g id="node11" class="node">
<title>diag_a</title>
<polygon fill="none" stroke="#000000" stroke-width="2" points="773.5,-684 770.5,-688 749.5,-688 746.5,-684 668.5,-684 668.5,-648 773.5,-648 773.5,-684"/>
<text text-anchor="middle" x="721" y="-662.3" font-family="Times,serif" font-size="14.00" fill="#000000">accuracy (a)</text>
</g>
<!-- diag_all_sources&#45;&gt;diag_a -->
<g id="edge50" class="edge">
<title>diag_all_sources&#45;&gt;diag_a</title>
<path fill="none" stroke="#000000" d="M913.4567,-863.9555C876.0892,-825.5203 788.5582,-735.4884 745.6259,-691.3295"/>
<polygon fill="#000000" stroke="#000000" points="748.1213,-688.8753 738.641,-684.1451 743.1024,-693.7548 748.1213,-688.8753"/>
</g>
<!-- diag_t -->
<g id="node12" class="node">
<title>diag_t</title>
<polygon fill="none" stroke="#000000" stroke-width="2" points="900,-684 897,-688 876,-688 873,-684 830,-684 830,-648 900,-648 900,-684"/>
<text text-anchor="middle" x="865" y="-662.3" font-family="Times,serif" font-size="14.00" fill="#000000">time (t)</text>
</g>
<!-- diag_all_sources&#45;&gt;diag_t -->
<g id="edge51" class="edge">
<title>diag_all_sources&#45;&gt;diag_t</title>
<path fill="none" stroke="#000000" d="M915.9845,-863.5723C908.5879,-853.5981 900.1696,-840.737 895,-828 876.9275,-783.4722 869.6551,-727.6158 866.791,-694.4786"/>
<polygon fill="#000000" stroke="#000000" points="870.2529,-693.8556 865.9794,-684.1609 863.2744,-694.4046 870.2529,-693.8556"/>
</g>
<!-- diag_u -->
<g id="node13" class="node">
<title>diag_u</title>
<polygon fill="none" stroke="#000000" stroke-width="2" points="996,-684 993,-688 972,-688 969,-684 918,-684 918,-648 996,-648 996,-684"/>
<text text-anchor="middle" x="957" y="-662.3" font-family="Times,serif" font-size="14.00" fill="#000000">input (u)</text>
</g>
<!-- diag_all_sources&#45;&gt;diag_u -->
<g id="edge52" class="edge">
<title>diag_all_sources&#45;&gt;diag_u</title>
<path fill="none" stroke="#000000" d="M946.9905,-863.9169C954.6538,-854.0371 963.0166,-841.1563 967,-828 980.705,-782.7356 972.1415,-727.1913 964.6177,-694.302"/>
<polygon fill="#000000" stroke="#000000" points="967.9909,-693.3603 962.2409,-684.4615 961.1866,-695.0037 967.9909,-693.3603"/>
</g>
<!-- dkinvis -->
<!-- diag_all_sources&#45;&gt;dkinvis -->
<!-- diag_kinematics -->
<g id="node7" class="node">
<title>diag_kinematics</title>
<polygon fill="none" stroke="#000000" stroke-width="2" points="545.5,-828 542.5,-832 521.5,-832 518.5,-828 450.5,-828 450.5,-792 545.5,-792 545.5,-828"/>
<text text-anchor="middle" x="498" y="-806.3" font-family="Times,serif" font-size="14.00" fill="#000000">kinematics</text>
</g>
<!-- diag_configuration -->
<g id="node8" class="node">
<title>diag_configuration</title>
<polygon fill="none" stroke="#000000" stroke-width="2" points="560.5,-756 557.5,-760 536.5,-760 533.5,-756 447.5,-756 447.5,-720 560.5,-720 560.5,-756"/>
<text text-anchor="middle" x="504" y="-734.3" font-family="Times,serif" font-size="14.00" fill="#000000">configuration</text>
</g>
<!-- diag_kinematics&#45;&gt;diag_configuration -->
<g id="edge58" class="edge">
<title>diag_kinematics&#45;&gt;diag_configuration</title>
<path fill="none" stroke="#000000" d="M499.5141,-791.8314C500.1558,-784.131 500.9188,-774.9743 501.6319,-766.4166"/>
<polygon fill="#000000" stroke="#000000" points="505.1229,-766.6694 502.4656,-756.4133 498.1471,-766.088 505.1229,-766.6694"/>
</g>
<!-- diag_v -->
<g id="node21" class="node">
<title>diag_v</title>
<polygon fill="none" stroke="#000000" stroke-width="2" points="126,-540 123,-544 102,-544 99,-540 72,-540 72,-504 126,-504 126,-540"/>
<text text-anchor="middle" x="99" y="-518.3" font-family="Times,serif" font-size="14.00" fill="#000000">v</text>
</g>
<!-- diag_kinematics&#45;&gt;diag_v -->
<g id="edge59" class="edge">
<title>diag_kinematics&#45;&gt;diag_v</title>
<path fill="none" stroke="#000000" d="M450.358,-799.2587C368.7361,-778.2533 202.7797,-723.6954 118,-612 104.6207,-594.3731 100.1588,-569.4582 98.8804,-550.3103"/>
<polygon fill="#000000" stroke="#000000" points="102.3675,-549.9222 98.4567,-540.0756 95.3735,-550.2119 102.3675,-549.9222"/>
</g>
<!-- diag_configuration&#45;&gt;diag_p -->
<g id="edge53" class="edge">
<title>diag_configuration&#45;&gt;diag_p</title>
<path fill="none" stroke="#000000" d="M481.7939,-719.8314C470.955,-710.9632 457.7556,-700.1637 446.0322,-690.5718"/>
<polygon fill="#000000" stroke="#000000" points="448.155,-687.7864 438.199,-684.1628 443.7223,-693.2041 448.155,-687.7864"/>
</g>
<!-- diag_configuration&#45;&gt;diag_a -->
<g id="edge54" class="edge">
<title>diag_configuration&#45;&gt;diag_a</title>
<path fill="none" stroke="#000000" d="M558.4782,-719.9243C588.9702,-709.8071 627.1045,-697.1543 658.7693,-686.648"/>
<polygon fill="#000000" stroke="#000000" points="659.984,-689.9326 668.373,-683.4615 657.7796,-683.2888 659.984,-689.9326"/>
</g>
<!-- diag_xd -->
<g id="node16" class="node">
<title>diag_xd</title>
<polygon fill="none" stroke="#000000" stroke-width="2" points="617,-612 614,-616 593,-616 590,-612 563,-612 563,-576 617,-576 617,-612"/>
<text text-anchor="middle" x="590" y="-590.3" font-family="Times,serif" font-size="14.00" fill="#000000">xd</text>
</g>
<!-- diag_configuration&#45;&gt;diag_xd -->
<g id="edge56" class="edge">
<title>diag_configuration&#45;&gt;diag_xd</title>
<path fill="none" stroke="#000000" stroke-dasharray="5,2" d="M505.406,-719.836C507.5921,-700.7076 513.1216,-670.3251 527,-648 534.1414,-636.5122 544.5197,-626.1867 554.7996,-617.7164"/>
<polygon fill="#000000" stroke="#000000" points="557.2387,-620.2522 562.9591,-611.3344 552.926,-614.7385 557.2387,-620.2522"/>
</g>
<!-- diag_xa -->
<g id="node17" class="node">
<title>diag_xa</title>
<polygon fill="none" stroke="#000000" stroke-width="2" points="705,-612 702,-616 681,-616 678,-612 651,-612 651,-576 705,-576 705,-612"/>
<text text-anchor="middle" x="678" y="-590.3" font-family="Times,serif" font-size="14.00" fill="#000000">xa</text>
</g>
<!-- diag_configuration&#45;&gt;diag_xa -->
<g id="edge57" class="edge">
<title>diag_configuration&#45;&gt;diag_xa</title>
<path fill="none" stroke="#000000" stroke-dasharray="5,2" d="M559.6542,-719.9551C580.4715,-711.3423 603.3294,-699.477 621,-684 640.8478,-666.6161 656.2753,-640.659 666.0457,-621.0818"/>
<polygon fill="#000000" stroke="#000000" points="669.2093,-622.5789 670.3822,-612.0491 662.8989,-619.5492 669.2093,-622.5789"/>
</g>
<!-- diag_q -->
<g id="node20" class="node">
<title>diag_q</title>
<polygon fill="none" stroke="#000000" stroke-width="2" points="54,-540 51,-544 30,-544 27,-540 0,-540 0,-504 54,-504 54,-540"/>
<text text-anchor="middle" x="27" y="-518.3" font-family="Times,serif" font-size="14.00" fill="#000000">q</text>
</g>
<!-- diag_configuration&#45;&gt;diag_q -->
<g id="edge55" class="edge">
<title>diag_configuration&#45;&gt;diag_q</title>
<path fill="none" stroke="#000000" d="M447.1757,-728.0368C368.6752,-712.4335 224.6733,-677.0644 118,-612 90.1564,-595.0171 64.3267,-567.9228 47.3545,-547.8946"/>
<polygon fill="#000000" stroke="#000000" points="49.9387,-545.5279 40.8616,-540.0637 44.55,-549.9958 49.9387,-545.5279"/>
</g>
<!-- diag_xc -->
<g id="node15" class="node">
<title>diag_xc</title>
<polygon fill="none" stroke="#000000" stroke-width="2" points="181,-612 178,-616 157,-616 154,-612 127,-612 127,-576 181,-576 181,-612"/>
<text text-anchor="middle" x="154" y="-590.3" font-family="Times,serif" font-size="14.00" fill="#000000">xc</text>
</g>
<!-- diag_x&#45;&gt;diag_xc -->
<g id="edge42" class="edge">
<title>diag_x&#45;&gt;diag_xc</title>
<path fill="none" stroke="#000000" d="M535.5831,-657.3321C520.4901,-654.1157 502.9824,-650.6173 487,-648 358.9853,-627.0361 319.2652,-649.1597 190.9222,-611.6923"/>
<polygon fill="#000000" stroke="#000000" points="191.7009,-608.2722 181.1176,-608.7658 189.6988,-614.9798 191.7009,-608.2722"/>
</g>
<!-- diag_x&#45;&gt;diag_xd -->
<g id="edge43" class="edge">
<title>diag_x&#45;&gt;diag_xd</title>
<path fill="none" stroke="#000000" d="M578.0375,-647.8314C579.7487,-640.131 581.7835,-630.9743 583.6852,-622.4166"/>
<polygon fill="#000000" stroke="#000000" points="587.1554,-622.9344 585.9082,-612.4133 580.3221,-621.4159 587.1554,-622.9344"/>
</g>
<!-- diag_x&#45;&gt;diag_xa -->
<g id="edge44" class="edge">
<title>diag_x&#45;&gt;diag_xa</title>
<path fill="none" stroke="#000000" d="M600.2436,-647.8314C613.2995,-638.7927 629.2535,-627.7476 643.3047,-618.0198"/>
<polygon fill="#000000" stroke="#000000" points="645.5351,-620.7326 651.7648,-612.1628 641.5506,-614.9773 645.5351,-620.7326"/>
</g>
<!-- diag_pn -->
<g id="node18" class="node">
<title>diag_pn</title>
<polygon fill="none" stroke="#000000" stroke-width="2" points="253,-612 250,-616 229,-616 226,-612 199,-612 199,-576 253,-576 253,-612"/>
<text text-anchor="middle" x="226" y="-590.3" font-family="Times,serif" font-size="14.00" fill="#000000">pn</text>
</g>
<!-- diag_p&#45;&gt;diag_pn -->
<g id="edge45" class="edge">
<title>diag_p&#45;&gt;diag_pn</title>
<path fill="none" stroke="#000000" d="M368.055,-647.8314C335.3627,-635.4427 292.724,-619.2849 262.7221,-607.9158"/>
<polygon fill="#000000" stroke="#000000" points="263.6561,-604.5268 253.0647,-604.2561 261.1755,-611.0726 263.6561,-604.5268"/>
</g>
<!-- diag_pa -->
<g id="node19" class="node">
<title>diag_pa</title>
<polygon fill="none" stroke="#000000" stroke-width="2" points="443,-612 440,-616 419,-616 416,-612 389,-612 389,-576 443,-576 443,-612"/>
<text text-anchor="middle" x="416" y="-590.3" font-family="Times,serif" font-size="14.00" fill="#000000">pa</text>
</g>
<!-- diag_p&#45;&gt;diag_pa -->
<g id="edge46" class="edge">
<title>diag_p&#45;&gt;diag_pa</title>
<path fill="none" stroke="#000000" d="M416,-647.8314C416,-640.131 416,-630.9743 416,-622.4166"/>
<polygon fill="#000000" stroke="#000000" points="419.5001,-622.4132 416,-612.4133 412.5001,-622.4133 419.5001,-622.4132"/>
</g>
<!-- leaf_a -->
<g id="node36" class="node">
<title>leaf_a</title>
<path fill="none" stroke="#000000" d="M750.5,-180C750.5,-180 669.5,-180 669.5,-180 663.5,-180 657.5,-174 657.5,-168 657.5,-168 657.5,-156 657.5,-156 657.5,-150 663.5,-144 669.5,-144 669.5,-144 750.5,-144 750.5,-144 756.5,-144 762.5,-150 762.5,-156 762.5,-156 762.5,-168 762.5,-168 762.5,-174 756.5,-180 750.5,-180"/>
<text text-anchor="middle" x="710" y="-158.3" font-family="Times,serif" font-size="14.00" fill="#000000">accuracy (a)</text>
</g>
<!-- diag_a&#45;&gt;leaf_a -->
<g id="edge81" class="edge">
<title>diag_a&#45;&gt;leaf_a</title>
<path fill="none" stroke="#ff0000" stroke-dasharray="1,5" d="M734.3661,-638.5892C746.9892,-610.1408 764,-564.0103 764,-522 764,-522 764,-522 764,-306 764,-258.207 737.599,-206.8469 721.7172,-180.2744"/>
<polygon fill="#ff0000" stroke="#ff0000" points="731.094,-637.3287 730.1192,-647.8786 737.4602,-640.2393 731.094,-637.3287"/>
</g>
<!-- leaf_t -->
<g id="node37" class="node">
<title>leaf_t</title>
<path fill="none" stroke="#000000" d="M1027,-180C1027,-180 981,-180 981,-180 975,-180 969,-174 969,-168 969,-168 969,-156 969,-156 969,-150 975,-144 981,-144 981,-144 1027,-144 1027,-144 1033,-144 1039,-150 1039,-156 1039,-156 1039,-168 1039,-168 1039,-174 1033,-180 1027,-180"/>
<text text-anchor="middle" x="1004" y="-158.3" font-family="Times,serif" font-size="14.00" fill="#000000">time (t)</text>
</g>
<!-- diag_t&#45;&gt;leaf_t -->
<g id="edge80" class="edge">
<title>diag_t&#45;&gt;leaf_t</title>
<path fill="none" stroke="#ff0000" stroke-dasharray="1,5" d="M865.9411,-637.586C866.8208,-608.5434 868,-562.1327 868,-522 868,-522 868,-522 868,-306 868,-247.1978 928.6808,-202.7014 968.9766,-179.6357"/>
<polygon fill="#ff0000" stroke="#ff0000" points="862.4355,-637.7128 865.6216,-647.8172 869.4321,-637.9313 862.4355,-637.7128"/>
</g>
<!-- diag_u_i -->
<g id="node24" class="node">
<title>diag_u_i</title>
<polygon fill="none" stroke="#000000" stroke-width="2" points="1234,-540 1231,-544 1210,-544 1207,-540 1180,-540 1180,-504 1234,-504 1234,-540"/>
<text text-anchor="middle" x="1207" y="-518.3" font-family="Times,serif" font-size="14.00" fill="#000000">u_i</text>
</g>
<!-- diag_u&#45;&gt;diag_u_i -->
<g id="edge47" class="edge">
<title>diag_u&#45;&gt;diag_u_i</title>
<path fill="none" stroke="#000000" d="M987.4113,-646.175C1033.955,-619.3659 1121.0056,-569.2247 1170.0412,-540.9802"/>
<path fill="none" stroke="#ffffff" d="M988.4095,-647.9081C1034.9533,-621.0989 1122.0038,-570.9578 1171.0394,-542.7133"/>
<path fill="none" stroke="#000000" d="M989.4078,-649.6412C1035.9515,-622.832 1123.0021,-572.6909 1172.0377,-544.4464"/>
<polygon fill="#000000" stroke="#000000" points="1172.8163,-545.7289 1179.7347,-537.7048 1169.3224,-539.6632 1172.8163,-545.7289"/>
</g>
<!-- super_diag_u_i -->
<g id="node14" class="node">
<title>super_diag_u_i</title>
<text text-anchor="middle" x="1185" y="-662.3" font-family="Times,serif" font-size="14.00" fill="#000000">... parent diagram u_i ...</text>
</g>
<!-- diag_xc&#45;&gt;diag_q -->
<g id="edge39" class="edge">
<title>diag_xc&#45;&gt;diag_q</title>
<path fill="none" stroke="#000000" d="M126.7553,-578.5542C108.1732,-568.0195 83.362,-553.9532 63.1328,-542.4848"/>
<polygon fill="#000000" stroke="#000000" points="64.625,-539.3074 54.1996,-537.4203 61.1727,-545.3969 64.625,-539.3074"/>
</g>
<!-- diag_xc&#45;&gt;diag_v -->
<g id="edge40" class="edge">
<title>diag_xc&#45;&gt;diag_v</title>
<path fill="none" stroke="#000000" d="M140.1212,-575.8314C133.7864,-567.5386 126.1616,-557.557 119.2074,-548.4533"/>
<polygon fill="#000000" stroke="#000000" points="121.9175,-546.2353 113.0657,-540.4133 116.3548,-550.4847 121.9175,-546.2353"/>
</g>
<!-- diag_z -->
<g id="node22" class="node">
<title>diag_z</title>
<polygon fill="none" stroke="#000000" stroke-width="2" points="317,-540 314,-544 293,-544 290,-540 263,-540 263,-504 317,-504 317,-540"/>
<text text-anchor="middle" x="290" y="-518.3" font-family="Times,serif" font-size="14.00" fill="#000000">z</text>
</g>
<!-- diag_xc&#45;&gt;diag_z -->
<g id="edge41" class="edge">
<title>diag_xc&#45;&gt;diag_z</title>
<path fill="none" stroke="#000000" d="M181.1948,-579.6028C202.0424,-568.5658 231.01,-553.23 253.8147,-541.1569"/>
<polygon fill="#000000" stroke="#000000" points="255.6521,-544.1445 262.8524,-536.3723 252.3769,-537.9579 255.6521,-544.1445"/>
</g>
<!-- leaf_xd -->
<g id="node40" class="node">
<title>leaf_xd</title>
<path fill="none" stroke="#000000" d="M635,-108C635,-108 605,-108 605,-108 599,-108 593,-102 593,-96 593,-96 593,-84 593,-84 593,-78 599,-72 605,-72 605,-72 635,-72 635,-72 641,-72 647,-78 647,-84 647,-84 647,-96 647,-96 647,-102 641,-108 635,-108"/>
<text text-anchor="middle" x="620" y="-86.3" font-family="Times,serif" font-size="14.00" fill="#000000">xd</text>
</g>
<!-- diag_xd&#45;&gt;leaf_xd -->
<g id="edge71" class="edge">
<title>diag_xd&#45;&gt;leaf_xd</title>
<path fill="none" stroke="#0000ff" d="M591.3391,-575.6867C598.1909,-548.6448 615,-496.2373 615,-450 615,-450 615,-450 615,-306 615,-238.6899 613.0342,-159.6014 614.9594,-118.3273"/>
<polygon fill="#0000ff" stroke="#0000ff" points="618.4615,-118.397 615.5729,-108.2036 611.4744,-117.9735 618.4615,-118.397"/>
</g>
<!-- diag_xd&#45;&gt;leaf_xd -->
<g id="edge85" class="edge">
<title>diag_xd&#45;&gt;leaf_xd</title>
<path fill="none" stroke="#ff0000" stroke-dasharray="1,5" d="M607.3292,-566.321C619.5496,-537.6588 633,-491.3607 633,-450 633,-450 633,-450 633,-306 633,-232.6749 630.6672,-145.3724 625.5563,-108.2036"/>
<polygon fill="#ff0000" stroke="#ff0000" points="604.0245,-565.1338 603.082,-575.6867 610.3996,-568.0248 604.0245,-565.1338"/>
</g>
<!-- leaf_xa -->
<g id="node41" class="node">
<title>leaf_xa</title>
<path fill="none" stroke="#000000" d="M923,-108C923,-108 893,-108 893,-108 887,-108 881,-102 881,-96 881,-96 881,-84 881,-84 881,-78 887,-72 893,-72 893,-72 923,-72 923,-72 929,-72 935,-78 935,-84 935,-84 935,-96 935,-96 935,-102 929,-108 923,-108"/>
<text text-anchor="middle" x="908" y="-86.3" font-family="Times,serif" font-size="14.00" fill="#000000">xa</text>
</g>
<!-- diag_xa&#45;&gt;leaf_xa -->
<g id="edge72" class="edge">
<title>diag_xa&#45;&gt;leaf_xa</title>
<path fill="none" stroke="#0000ff" d="M686.1656,-575.9481C717.8731,-519.9038 829.6528,-342.8692 884,-180 890.7062,-159.9027 894.4994,-136.2386 897.8765,-118.2206"/>
<polygon fill="#0000ff" stroke="#0000ff" points="901.325,-118.8236 899.8356,-108.334 894.4585,-117.4629 901.325,-118.8236"/>
</g>
<!-- diag_xa&#45;&gt;leaf_xa -->
<g id="edge86" class="edge">
<title>diag_xa&#45;&gt;leaf_xa</title>
<path fill="none" stroke="#ff0000" stroke-dasharray="1,5" d="M700.0051,-567.675C745.7999,-504.0269 850.0942,-335.5529 902,-180 910.0224,-155.9583 913.8762,-126.8125 913.4411,-108.334"/>
<polygon fill="#ff0000" stroke="#ff0000" points="697.0304,-565.8131 693.943,-575.9481 702.6768,-569.9505 697.0304,-565.8131"/>
</g>
<!-- leaf_pn -->
<g id="node42" class="node">
<title>leaf_pn</title>
<path fill="none" stroke="#000000" d="M238,-108C238,-108 208,-108 208,-108 202,-108 196,-102 196,-96 196,-96 196,-84 196,-84 196,-78 202,-72 208,-72 208,-72 238,-72 238,-72 244,-72 250,-78 250,-84 250,-84 250,-96 250,-96 250,-102 244,-108 238,-108"/>
<text text-anchor="middle" x="223" y="-86.3" font-family="Times,serif" font-size="14.00" fill="#000000">pn</text>
</g>
<!-- diag_pn&#45;&gt;leaf_pn -->
<g id="edge73" class="edge">
<title>diag_pn&#45;&gt;leaf_pn</title>
<path fill="none" stroke="#0000ff" d="M213.7663,-575.615C201.8315,-548.4838 187,-495.9662 187,-450 187,-450 187,-450 187,-234 187,-193.0446 197.6812,-146.642 207.8467,-117.8464"/>
<polygon fill="#0000ff" stroke="#0000ff" points="211.1429,-119.0248 211.4025,-108.4332 204.5945,-116.5512 211.1429,-119.0248"/>
</g>
<!-- diag_pn&#45;&gt;leaf_pn -->
<g id="edge87" class="edge">
<title>diag_pn&#45;&gt;leaf_pn</title>
<path fill="none" stroke="#ff0000" stroke-dasharray="1,5" d="M223.3491,-565.8433C216.7646,-537.074 205,-490.9386 205,-450 205,-450 205,-450 205,-234 205,-188.2158 218.3484,-135.6242 223.1455,-108.4332"/>
<polygon fill="#ff0000" stroke="#ff0000" points="219.9332,-566.6062 225.5092,-575.615 226.7682,-565.0952 219.9332,-566.6062"/>
</g>
<!-- leaf_pa -->
<g id="node43" class="node">
<title>leaf_pa</title>
<path fill="none" stroke="#000000" d="M495,-108C495,-108 465,-108 465,-108 459,-108 453,-102 453,-96 453,-96 453,-84 453,-84 453,-78 459,-72 465,-72 465,-72 495,-72 495,-72 501,-72 507,-78 507,-84 507,-84 507,-96 507,-96 507,-102 501,-108 495,-108"/>
<text text-anchor="middle" x="480" y="-86.3" font-family="Times,serif" font-size="14.00" fill="#000000">pa</text>
</g>
<!-- diag_pa&#45;&gt;leaf_pa -->
<g id="edge74" class="edge">
<title>diag_pa&#45;&gt;leaf_pa</title>
<path fill="none" stroke="#0000ff" d="M410.181,-575.8146C407,-548.4983 407,-495.25 407,-450 407,-450 407,-450 407,-378 407,-378 448.7753,-190.0113 469.5697,-117.7944"/>
<polygon fill="#0000ff" stroke="#0000ff" points="472.982,-118.5985 472.478,-108.0157 466.2725,-116.603 472.982,-118.5985"/>
</g>
<!-- diag_pa&#45;&gt;leaf_pa -->
<g id="edge88" class="edge">
<title>diag_pa&#45;&gt;leaf_pa</title>
<path fill="none" stroke="#ff0000" stroke-dasharray="1,5" d="M422.7822,-565.5823C425,-536.5369 425,-490.124 425,-450 425,-450 425,-450 425,-378 425,-378 470.9854,-171.0659 479.515,-108.0157"/>
<polygon fill="#ff0000" stroke="#ff0000" points="419.2717,-565.5306 421.819,-575.8146 426.2409,-566.1867 419.2717,-565.5306"/>
</g>
<!-- leaf_q -->
<g id="node44" class="node">
<title>leaf_q</title>
<path fill="none" stroke="#000000" d="M55,-36C55,-36 25,-36 25,-36 19,-36 13,-30 13,-24 13,-24 13,-12 13,-12 13,-6 19,0 25,0 25,0 55,0 55,0 61,0 67,-6 67,-12 67,-12 67,-24 67,-24 67,-30 61,-36 55,-36"/>
<text text-anchor="middle" x="40" y="-14.3" font-family="Times,serif" font-size="14.00" fill="#000000">q</text>
</g>
<!-- diag_q&#45;&gt;leaf_q -->
<g id="edge68" class="edge">
<title>diag_q&#45;&gt;leaf_q</title>
<path fill="none" stroke="#0000ff" d="M21.181,-503.8146C18,-476.4983 18,-423.25 18,-378 18,-378 18,-378 18,-162 18,-121.5353 23.1548,-74.9327 29.2196,-45.9674"/>
<polygon fill="#0000ff" stroke="#0000ff" points="32.6497,-46.6689 31.4874,-36.138 25.8288,-45.0952 32.6497,-46.6689"/>
</g>
<!-- diag_q&#45;&gt;leaf_q -->
<g id="edge82" class="edge">
<title>diag_q&#45;&gt;leaf_q</title>
<path fill="none" stroke="#ff0000" stroke-dasharray="1,5" d="M33.7822,-493.5823C36,-464.5369 36,-418.124 36,-378 36,-378 36,-378 36,-162 36,-116.566 42.4986,-63.3939 43.1254,-36.138"/>
<polygon fill="#ff0000" stroke="#ff0000" points="30.2717,-493.5306 32.819,-503.8146 37.2409,-494.1867 30.2717,-493.5306"/>
</g>
<!-- leaf_v -->
<g id="node45" class="node">
<title>leaf_v</title>
<path fill="none" stroke="#000000" d="M153,-36C153,-36 123,-36 123,-36 117,-36 111,-30 111,-24 111,-24 111,-12 111,-12 111,-6 117,0 123,0 123,0 153,0 153,0 159,0 165,-6 165,-12 165,-12 165,-24 165,-24 165,-30 159,-36 153,-36"/>
<text text-anchor="middle" x="138" y="-14.3" font-family="Times,serif" font-size="14.00" fill="#000000">v</text>
</g>
<!-- diag_v&#45;&gt;leaf_v -->
<g id="edge69" class="edge">
<title>diag_v&#45;&gt;leaf_v</title>
<path fill="none" stroke="#0000ff" d="M89.8658,-503.8863C81.9983,-476.6615 74,-423.5285 74,-378 74,-378 74,-378 74,-162 74,-118.775 95.8944,-72.7709 114.3157,-44.7016"/>
<polygon fill="#0000ff" stroke="#0000ff" points="117.351,-46.4651 120.1425,-36.2446 111.5867,-42.4935 117.351,-46.4651"/>
</g>
<!-- diag_v&#45;&gt;leaf_v -->
<g id="edge83" class="edge">
<title>diag_v&#45;&gt;leaf_v</title>
<path fill="none" stroke="#ff0000" stroke-dasharray="1,5" d="M100.7633,-493.6854C98.2888,-464.7211 92,-418.3709 92,-378 92,-378 92,-378 92,-162 92,-114.097 118.8899,-62.7808 131.9891,-36.2446"/>
<polygon fill="#ff0000" stroke="#ff0000" points="97.2889,-494.166 101.5038,-503.8863 104.2705,-493.6591 97.2889,-494.166"/>
</g>
<!-- leaf_z -->
<g id="node46" class="node">
<title>leaf_z</title>
<path fill="none" stroke="#000000" d="M374,-36C374,-36 344,-36 344,-36 338,-36 332,-30 332,-24 332,-24 332,-12 332,-12 332,-6 338,0 344,0 344,0 374,0 374,0 380,0 386,-6 386,-12 386,-12 386,-24 386,-24 386,-30 380,-36 374,-36"/>
<text text-anchor="middle" x="359" y="-14.3" font-family="Times,serif" font-size="14.00" fill="#000000">z</text>
</g>
<!-- diag_z&#45;&gt;leaf_z -->
<g id="edge70" class="edge">
<title>diag_z&#45;&gt;leaf_z</title>
<path fill="none" stroke="#0000ff" d="M284.181,-503.8146C281,-476.4983 281,-423.25 281,-378 281,-378 281,-378 281,-234 281,-175.1099 303.2473,-163.8246 322,-108 329.002,-87.1559 336.3679,-63.397 343.0881,-45.5263"/>
<polygon fill="#0000ff" stroke="#0000ff" points="346.4302,-46.5924 346.8552,-36.006 339.9213,-44.0168 346.4302,-46.5924"/>
</g>
<!-- diag_z&#45;&gt;leaf_z -->
<g id="edge84" class="edge">
<title>diag_z&#45;&gt;leaf_z</title>
<path fill="none" stroke="#ff0000" stroke-dasharray="1,5" d="M296.7822,-493.5823C299,-464.5369 299,-418.124 299,-378 299,-378 299,-378 299,-234 299,-175.1099 321.2473,-163.8246 340,-108 348.3373,-83.181 357.1904,-54.2295 360.4606,-36.006"/>
<polygon fill="#ff0000" stroke="#ff0000" points="293.2717,-493.5306 295.819,-503.8146 300.2409,-494.1867 293.2717,-493.5306"/>
</g>
<!-- diag_y -->
<g id="node23" class="node">
<title>diag_y</title>
<polygon fill="none" stroke="#000000" stroke-dasharray="1,5" points="1144,-540 1141,-544 1120,-544 1117,-540 1090,-540 1090,-504 1144,-504 1144,-540"/>
<text text-anchor="middle" x="1117" y="-518.3" font-family="Times,serif" font-size="14.00" fill="#000000">y_j</text>
</g>
<!-- diag_y&#45;&gt;diag_u_i -->
<g id="edge65" class="edge">
<title>diag_y&#45;&gt;diag_u_i</title>
<path fill="none" stroke="#00ff00" d="M1154.1643,-522C1162.7628,-522 1171.3614,-522 1179.9599,-522"/>
<polygon fill="#00ff00" stroke="#00ff00" points="1154.0703,-518.5001 1144.0703,-522 1154.0703,-525.5001 1154.0703,-518.5001"/>
</g>
<!-- diag_u_i&#45;&gt;super_diag_u_i -->
<g id="edge67" class="edge">
<title>diag_u_i&#45;&gt;super_diag_u_i</title>
<path fill="none" stroke="#00ff00" d="M1204.2363,-540.0896C1200.4794,-564.6805 1193.7228,-608.905 1189.3002,-637.8531"/>
<polygon fill="#00ff00" stroke="#00ff00" points="1185.8368,-637.3484 1187.7863,-647.7623 1192.7565,-638.4056 1185.8368,-637.3484"/>
</g>
<!-- diag_u_fixed -->
<g id="node25" class="node">
<title>diag_u_fixed</title>
<polygon fill="none" stroke="#000000" stroke-width="2" points="1369,-540 1366,-544 1345,-544 1342,-540 1315,-540 1315,-504 1369,-504 1369,-540"/>
<text text-anchor="middle" x="1342" y="-518.3" font-family="Times,serif" font-size="14.00" fill="#000000">fixed</text>
</g>
<!-- diag_u_i&#45;&gt;diag_u_fixed -->
<g id="edge66" class="edge">
<title>diag_u_i&#45;&gt;diag_u_fixed</title>
<path fill="none" stroke="#00ff00" d="M1234.1582,-522C1257.6257,-522 1281.0933,-522 1304.5608,-522"/>
<polygon fill="#00ff00" stroke="#00ff00" points="1304.6183,-525.5001 1314.6183,-522 1304.6183,-518.5001 1304.6183,-525.5001"/>
</g>
<!-- leaf_xcdot_invis -->
<!-- diag_u_i&#45;&gt;leaf_xcdot_invis -->
<!-- leaf_all_sources -->
<g id="node31" class="node">
<title>leaf_all_sources</title>
<path fill="none" stroke="#000000" d="M1040.5,-396C1040.5,-396 967.5,-396 967.5,-396 961.5,-396 955.5,-390 955.5,-384 955.5,-384 955.5,-372 955.5,-372 955.5,-366 961.5,-360 967.5,-360 967.5,-360 1040.5,-360 1040.5,-360 1046.5,-360 1052.5,-366 1052.5,-372 1052.5,-372 1052.5,-384 1052.5,-384 1052.5,-390 1046.5,-396 1040.5,-396"/>
<text text-anchor="middle" x="1004" y="-374.3" font-family="Times,serif" font-size="14.00" fill="#000000">all_sources</text>
</g>
<!-- leaf_xcdot&#45;&gt;leaf_all_sources -->
<g id="edge31" class="edge">
<title>leaf_xcdot&#45;&gt;leaf_all_sources</title>
<path fill="none" stroke="#000000" d="M947.9257,-431.8314C956.9857,-423.1337 967.9809,-412.5783 977.8265,-403.1265"/>
<polygon fill="#000000" stroke="#000000" points="980.2904,-405.613 985.0804,-396.1628 975.4426,-400.5633 980.2904,-405.613"/>
</g>
<!-- leaf_ke&#45;&gt;leaf_all_sources -->
<g id="edge33" class="edge">
<title>leaf_ke&#45;&gt;leaf_all_sources</title>
<path fill="none" stroke="#000000" d="M1057.8314,-431.8314C1049.2848,-423.2848 1038.9443,-412.9443 1029.6198,-403.6198"/>
<polygon fill="#000000" stroke="#000000" points="1031.9592,-401.0095 1022.4133,-396.4133 1027.0095,-405.9592 1031.9592,-401.0095"/>
</g>
<!-- leaf_pc&#45;&gt;leaf_all_sources -->
<g id="edge34" class="edge">
<title>leaf_pc&#45;&gt;leaf_all_sources</title>
<path fill="none" stroke="#000000" d="M1238.9482,-442.5659C1197.5925,-431.201 1117.662,-409.2354 1062.6041,-394.1049"/>
<polygon fill="#000000" stroke="#000000" points="1063.1979,-390.6384 1052.6279,-391.3634 1061.3429,-397.3882 1063.1979,-390.6384"/>
</g>
<!-- leaf_pnc&#45;&gt;leaf_all_sources -->
<g id="edge35" class="edge">
<title>leaf_pnc&#45;&gt;leaf_all_sources</title>
<path fill="none" stroke="#000000" d="M1329.8,-440.2809C1321.0032,-437.3583 1311.1557,-434.3161 1302,-432 1219.9644,-411.2472 1123.2982,-395.2456 1062.8195,-386.2233"/>
<polygon fill="#000000" stroke="#000000" points="1063.1006,-382.7269 1052.6964,-384.7279 1062.0776,-389.6517 1063.1006,-382.7269"/>
</g>
<!-- leaf_pe&#45;&gt;leaf_all_sources -->
<g id="edge32" class="edge">
<title>leaf_pe&#45;&gt;leaf_all_sources</title>
<path fill="none" stroke="#000000" d="M1004,-431.8314C1004,-424.131 1004,-414.9743 1004,-406.4166"/>
<polygon fill="#000000" stroke="#000000" points="1007.5001,-406.4132 1004,-396.4133 1000.5001,-406.4133 1007.5001,-406.4132"/>
</g>
<!-- leaf_x -->
<g id="node34" class="node">
<title>leaf_x</title>
<path fill="none" stroke="#000000" d="M845,-180C845,-180 793,-180 793,-180 787,-180 781,-174 781,-168 781,-168 781,-156 781,-156 781,-150 787,-144 793,-144 793,-144 845,-144 845,-144 851,-144 857,-150 857,-156 857,-156 857,-168 857,-168 857,-174 851,-180 845,-180"/>
<text text-anchor="middle" x="819" y="-158.3" font-family="Times,serif" font-size="14.00" fill="#000000">state (x)</text>
</g>
<!-- leaf_all_sources&#45;&gt;leaf_x -->
<g id="edge18" class="edge">
<title>leaf_all_sources&#45;&gt;leaf_x</title>
<path fill="none" stroke="#000000" d="M1000.1634,-359.8772C992.4104,-327.2443 972.0128,-258.0887 931,-216 913.3494,-197.8864 888.3958,-185.042 866.5208,-176.4378"/>
<polygon fill="#000000" stroke="#000000" points="867.6378,-173.1189 857.0454,-172.8933 865.1852,-179.6752 867.6378,-173.1189"/>
</g>
<!-- leaf_p -->
<g id="node35" class="node">
<title>leaf_p</title>
<path fill="none" stroke="#000000" d="M438.5,-180C438.5,-180 339.5,-180 339.5,-180 333.5,-180 327.5,-174 327.5,-168 327.5,-168 327.5,-156 327.5,-156 327.5,-150 333.5,-144 339.5,-144 339.5,-144 438.5,-144 438.5,-144 444.5,-144 450.5,-150 450.5,-156 450.5,-156 450.5,-168 450.5,-168 450.5,-174 444.5,-180 438.5,-180"/>
<text text-anchor="middle" x="389" y="-158.3" font-family="Times,serif" font-size="14.00" fill="#000000">parameters (p)</text>
</g>
<!-- leaf_all_sources&#45;&gt;leaf_p -->
<g id="edge19" class="edge">
<title>leaf_all_sources&#45;&gt;leaf_p</title>
<path fill="none" stroke="#000000" d="M955.1778,-368.4164C830.4999,-343.6858 507.203,-277.851 465,-252 439.4789,-236.3673 418.3003,-209.1965 404.8394,-188.7879"/>
<polygon fill="#000000" stroke="#000000" points="407.71,-186.7799 399.3815,-180.2311 401.8084,-190.5443 407.71,-186.7799"/>
</g>
<!-- leaf_all_sources&#45;&gt;leaf_a -->
<g id="edge20" class="edge">
<title>leaf_all_sources&#45;&gt;leaf_a</title>
<path fill="none" stroke="#000000" d="M979.4394,-359.9555C926.6925,-321.2026 802.5511,-229.9967 742.999,-186.2442"/>
<polygon fill="#000000" stroke="#000000" points="744.8286,-183.2453 734.6975,-180.1451 740.684,-188.8865 744.8286,-183.2453"/>
</g>
<!-- leaf_all_sources&#45;&gt;leaf_t -->
<g id="edge21" class="edge">
<title>leaf_all_sources&#45;&gt;leaf_t</title>
<path fill="none" stroke="#000000" d="M1004,-359.9555C1004,-322.3938 1004,-235.5541 1004,-190.4103"/>
<polygon fill="#000000" stroke="#000000" points="1007.5001,-190.145 1004,-180.1451 1000.5001,-190.1451 1007.5001,-190.145"/>
</g>
<!-- leaf_u -->
<g id="node38" class="node">
<title>leaf_u</title>
<path fill="none" stroke="#000000" d="M1146,-180C1146,-180 1092,-180 1092,-180 1086,-180 1080,-174 1080,-168 1080,-168 1080,-156 1080,-156 1080,-150 1086,-144 1092,-144 1092,-144 1146,-144 1146,-144 1152,-144 1158,-150 1158,-156 1158,-156 1158,-168 1158,-168 1158,-174 1152,-180 1146,-180"/>
<text text-anchor="middle" x="1119" y="-158.3" font-family="Times,serif" font-size="14.00" fill="#000000">input (u)</text>
</g>
<!-- leaf_all_sources&#45;&gt;leaf_u -->
<g id="edge22" class="edge">
<title>leaf_all_sources&#45;&gt;leaf_u</title>
<path fill="none" stroke="#000000" d="M1013.607,-359.9555C1033.8166,-321.9967 1080.8196,-233.7127 1104.6288,-188.9928"/>
<polygon fill="#000000" stroke="#000000" points="1107.7293,-190.6168 1109.3394,-180.1451 1101.5504,-187.3271 1107.7293,-190.6168"/>
</g>
<!-- lkinvis -->
<!-- leaf_all_sources&#45;&gt;lkinvis -->
<!-- leaf_kinematics -->
<g id="node32" class="node">
<title>leaf_kinematics</title>
<path fill="none" stroke="#000000" d="M536.5,-324C536.5,-324 465.5,-324 465.5,-324 459.5,-324 453.5,-318 453.5,-312 453.5,-312 453.5,-300 453.5,-300 453.5,-294 459.5,-288 465.5,-288 465.5,-288 536.5,-288 536.5,-288 542.5,-288 548.5,-294 548.5,-300 548.5,-300 548.5,-312 548.5,-312 548.5,-318 542.5,-324 536.5,-324"/>
<text text-anchor="middle" x="501" y="-302.3" font-family="Times,serif" font-size="14.00" fill="#000000">kinematics</text>
</g>
<!-- leaf_configuration -->
<g id="node33" class="node">
<title>leaf_configuration</title>
<path fill="none" stroke="#000000" d="M574.5,-252C574.5,-252 485.5,-252 485.5,-252 479.5,-252 473.5,-246 473.5,-240 473.5,-240 473.5,-228 473.5,-228 473.5,-222 479.5,-216 485.5,-216 485.5,-216 574.5,-216 574.5,-216 580.5,-216 586.5,-222 586.5,-228 586.5,-228 586.5,-240 586.5,-240 586.5,-246 580.5,-252 574.5,-252"/>
<text text-anchor="middle" x="530" y="-230.3" font-family="Times,serif" font-size="14.00" fill="#000000">configuration</text>
</g>
<!-- leaf_kinematics&#45;&gt;leaf_configuration -->
<g id="edge29" class="edge">
<title>leaf_kinematics&#45;&gt;leaf_configuration</title>
<path fill="none" stroke="#000000" d="M508.3179,-287.8314C511.4876,-279.9617 515.27,-270.5712 518.7813,-261.8533"/>
<polygon fill="#000000" stroke="#000000" points="522.0939,-262.9968 522.5835,-252.4133 515.6008,-260.3815 522.0939,-262.9968"/>
</g>
<!-- leaf_kinematics&#45;&gt;leaf_v -->
<g id="edge30" class="edge">
<title>leaf_kinematics&#45;&gt;leaf_v</title>
<path fill="none" stroke="#000000" d="M458.9124,-287.987C393.8125,-258.4128 267.7928,-194.1388 187,-108 170.0027,-89.878 156.9679,-64.7438 148.6307,-45.6413"/>
<polygon fill="#000000" stroke="#000000" points="151.7967,-44.1405 144.703,-36.2709 145.3409,-46.8465 151.7967,-44.1405"/>
</g>
<!-- leaf_configuration&#45;&gt;leaf_p -->
<g id="edge23" class="edge">
<title>leaf_configuration&#45;&gt;leaf_p</title>
<path fill="none" stroke="#000000" d="M494.4197,-215.8314C475.9675,-206.4089 453.2455,-194.8062 433.627,-184.7883"/>
<polygon fill="#000000" stroke="#000000" points="435.0667,-181.5935 424.5689,-180.1628 431.8832,-187.8278 435.0667,-181.5935"/>
</g>
<!-- leaf_configuration&#45;&gt;leaf_a -->
<g id="edge24" class="edge">
<title>leaf_configuration&#45;&gt;leaf_a</title>
<path fill="none" stroke="#000000" d="M575.4216,-215.8314C599.7095,-206.1162 629.7922,-194.0831 655.352,-183.8592"/>
<polygon fill="#000000" stroke="#000000" points="656.9201,-187.0016 664.905,-180.038 654.3204,-180.5023 656.9201,-187.0016"/>
</g>
<!-- leaf_configuration&#45;&gt;leaf_xd -->
<g id="edge27" class="edge">
<title>leaf_configuration&#45;&gt;leaf_xd</title>
<path fill="none" stroke="#000000" stroke-dasharray="5,2" d="M541.3986,-215.7623C557.0198,-190.7682 585.1923,-145.6924 603.2245,-116.8409"/>
<polygon fill="#000000" stroke="#000000" points="606.362,-118.4246 608.694,-108.0896 600.426,-114.7146 606.362,-118.4246"/>
</g>
<!-- leaf_configuration&#45;&gt;leaf_xa -->
<g id="edge28" class="edge">
<title>leaf_configuration&#45;&gt;leaf_xa</title>
<path fill="none" stroke="#000000" stroke-dasharray="5,2" d="M586.5474,-231.2361C670.5352,-226.0986 822.9759,-212.4877 866,-180 885.8939,-164.978 896.7132,-138.219 902.3626,-117.7709"/>
<polygon fill="#000000" stroke="#000000" points="905.7668,-118.585 904.8022,-108.0342 898.9766,-116.8837 905.7668,-118.585"/>
</g>
<!-- leaf_configuration&#45;&gt;leaf_q -->
<g id="edge25" class="edge">
<title>leaf_configuration&#45;&gt;leaf_q</title>
<path fill="none" stroke="#000000" d="M473.4345,-223.6603C430.0128,-214.7591 369.0486,-200.152 318,-180 256.2041,-155.6054 244.4571,-141.3542 187,-108 148.6537,-85.7397 105.451,-59.0973 75.8599,-40.6028"/>
<polygon fill="#000000" stroke="#000000" points="77.4669,-37.4795 67.1339,-35.1386 73.7517,-43.4123 77.4669,-37.4795"/>
</g>
<!-- leaf_configuration&#45;&gt;leaf_z -->
<g id="edge26" class="edge">
<title>leaf_configuration&#45;&gt;leaf_z</title>
<path fill="none" stroke="#000000" stroke-dasharray="5,2" d="M534.2188,-215.9363C540.6871,-183.3982 549.0936,-114.3895 516,-72 501.0063,-52.7946 437.3454,-35.405 395.8353,-25.8088"/>
<polygon fill="#000000" stroke="#000000" points="396.5848,-22.3899 386.059,-23.5974 395.0403,-29.2174 396.5848,-22.3899"/>
</g>
<!-- leaf_xc -->
<g id="node39" class="node">
<title>leaf_xc</title>
<path fill="none" stroke="#000000" d="M310,-108C310,-108 280,-108 280,-108 274,-108 268,-102 268,-96 268,-96 268,-84 268,-84 268,-78 274,-72 280,-72 280,-72 310,-72 310,-72 316,-72 322,-78 322,-84 322,-84 322,-96 322,-96 322,-102 316,-108 310,-108"/>
<text text-anchor="middle" x="295" y="-86.3" font-family="Times,serif" font-size="14.00" fill="#000000">xc</text>
</g>
<!-- leaf_x&#45;&gt;leaf_xc -->
<g id="edge10" class="edge">
<title>leaf_x&#45;&gt;leaf_xc</title>
<path fill="none" stroke="#000000" d="M780.781,-146.4453C777.8369,-145.5299 774.8874,-144.699 772,-144 629.4646,-109.4917 589.6884,-124.7946 444,-108 405.9105,-103.6092 362.3793,-98.3188 332.247,-94.6138"/>
<polygon fill="#000000" stroke="#000000" points="332.5315,-91.1225 322.1785,-93.3735 331.6756,-98.07 332.5315,-91.1225"/>
</g>
<!-- leaf_x&#45;&gt;leaf_xd -->
<g id="edge11" class="edge">
<title>leaf_x&#45;&gt;leaf_xd</title>
<path fill="none" stroke="#000000" d="M780.8098,-147.2847C777.8321,-146.1646 774.869,-145.0588 772,-144 732.7651,-129.52 687.5802,-113.5577 656.7389,-102.7701"/>
<polygon fill="#000000" stroke="#000000" points="657.85,-99.4509 647.2552,-99.4579 655.5419,-106.0594 657.85,-99.4509"/>
</g>
<!-- leaf_x&#45;&gt;leaf_xa -->
<g id="edge12" class="edge">
<title>leaf_x&#45;&gt;leaf_xa</title>
<path fill="none" stroke="#000000" d="M841.4585,-143.8314C852.4205,-134.9632 865.7699,-124.1637 877.6265,-114.5718"/>
<polygon fill="#000000" stroke="#000000" points="879.9755,-117.1734 885.5487,-108.1628 875.5729,-111.7313 879.9755,-117.1734"/>
</g>
<!-- leaf_p&#45;&gt;leaf_pn -->
<g id="edge15" class="edge">
<title>leaf_p&#45;&gt;leaf_pn</title>
<path fill="none" stroke="#000000" d="M343.2404,-143.9041C320.3312,-134.6363 292.0408,-122.8799 259.3616,-108.0369"/>
<polygon fill="#000000" stroke="#000000" points="260.5786,-104.7449 250.0289,-103.7681 257.6669,-111.1106 260.5786,-104.7449"/>
</g>
<!-- leaf_p&#45;&gt;leaf_pa -->
<g id="edge16" class="edge">
<title>leaf_p&#45;&gt;leaf_pa</title>
<path fill="none" stroke="#000000" d="M411.9631,-143.8314C423.1715,-134.9632 436.8209,-124.1637 448.9439,-114.5718"/>
<polygon fill="#000000" stroke="#000000" points="451.3737,-117.1125 457.0442,-108.1628 447.0303,-111.6229 451.3737,-117.1125"/>
</g>
<!-- leaf_u_i -->
<g id="node52" class="node">
<title>leaf_u_i</title>
<path fill="none" stroke="#000000" d="M1190,-36C1190,-36 1160,-36 1160,-36 1154,-36 1148,-30 1148,-24 1148,-24 1148,-12 1148,-12 1148,-6 1154,0 1160,0 1160,0 1190,0 1190,0 1196,0 1202,-6 1202,-12 1202,-12 1202,-24 1202,-24 1202,-30 1196,-36 1190,-36"/>
<text text-anchor="middle" x="1175" y="-14.3" font-family="Times,serif" font-size="14.00" fill="#000000">u_i</text>
</g>
<!-- leaf_u&#45;&gt;leaf_u_i -->
<g id="edge17" class="edge">
<title>leaf_u&#45;&gt;leaf_u_i</title>
<path fill="none" stroke="#000000" d="M1124.2284,-143.0374C1133.8642,-118.2598 1151.1749,-73.7465 1162.405,-44.869"/>
<path fill="none" stroke="#ffffff" d="M1126.0924,-143.7623C1135.7282,-118.9846 1153.0389,-74.4714 1164.269,-45.5939"/>
<path fill="none" stroke="#000000" d="M1127.9564,-144.4872C1137.5922,-119.7095 1154.9029,-75.1963 1166.1331,-46.3188"/>
<polygon fill="#000000" stroke="#000000" points="1167.6026,-46.6783 1167.9651,-36.0896 1161.0786,-44.1411 1167.6026,-46.6783"/>
</g>
<!-- leaf_xc&#45;&gt;leaf_q -->
<g id="edge5" class="edge">
<title>leaf_xc&#45;&gt;leaf_q</title>
<path fill="none" stroke="#000000" d="M267.7787,-75.5489C264.8565,-74.2517 261.8939,-73.0384 259,-72 191.6182,-47.8209 171.2921,-53.9872 102,-36 93.8244,-33.8777 85.0896,-31.4452 76.8331,-29.0689"/>
<polygon fill="#000000" stroke="#000000" points="77.6491,-25.6611 67.0692,-26.2229 75.6902,-32.3814 77.6491,-25.6611"/>
</g>
<!-- leaf_xc&#45;&gt;leaf_v -->
<g id="edge6" class="edge">
<title>leaf_xc&#45;&gt;leaf_v</title>
<path fill="none" stroke="#000000" d="M267.9355,-76.3085C264.9298,-74.8355 261.9059,-73.3741 259,-72 230.8521,-58.6899 198.6442,-44.3591 174.538,-33.8077"/>
<polygon fill="#000000" stroke="#000000" points="175.6324,-30.4666 165.0673,-29.6742 172.8323,-36.8821 175.6324,-30.4666"/>
</g>
<!-- leaf_xc&#45;&gt;leaf_z -->
<g id="edge7" class="edge">
<title>leaf_xc&#45;&gt;leaf_z</title>
<path fill="none" stroke="#000000" d="M311.1499,-71.8314C318.6717,-63.3694 327.7565,-53.1489 335.9804,-43.8971"/>
<polygon fill="#000000" stroke="#000000" points="338.6049,-46.2127 342.6327,-36.4133 333.373,-41.5621 338.6049,-46.2127"/>
</g>
<!-- leaf_xd_i_all -->
<g id="node47" class="node">
<title>leaf_xd_i_all</title>
<path fill="none" stroke="#000000" d="M601,-36C601,-36 571,-36 571,-36 565,-36 559,-30 559,-24 559,-24 559,-12 559,-12 559,-6 565,0 571,0 571,0 601,0 601,0 607,0 613,-6 613,-12 613,-12 613,-24 613,-24 613,-30 607,-36 601,-36"/>
<text text-anchor="middle" x="586" y="-14.3" font-family="Times,serif" font-size="14.00" fill="#000000">xd_i</text>
</g>
<!-- leaf_xd&#45;&gt;leaf_xd_i_all -->
<g id="edge8" class="edge">
<title>leaf_xd&#45;&gt;leaf_xd_i_all</title>
<path fill="none" stroke="#000000" d="M609.6119,-72.6854C605.8557,-64.7311 601.3658,-55.223 597.2118,-46.4263"/>
<path fill="none" stroke="#ffffff" d="M611.4204,-71.8314C607.6642,-63.8771 603.1743,-54.369 599.0202,-45.5723"/>
<path fill="none" stroke="#000000" d="M613.2289,-70.9773C609.4727,-63.0231 604.9828,-53.515 600.8287,-44.7183"/>
<polygon fill="#000000" stroke="#000000" points="602.1301,-43.9612 594.6952,-36.4133 595.8004,-46.9503 602.1301,-43.9612"/>
</g>
<!-- leaf_xa_i_all -->
<g id="node48" class="node">
<title>leaf_xa_i_all</title>
<path fill="none" stroke="#000000" d="M923,-36C923,-36 893,-36 893,-36 887,-36 881,-30 881,-24 881,-24 881,-12 881,-12 881,-6 887,0 893,0 893,0 923,0 923,0 929,0 935,-6 935,-12 935,-12 935,-24 935,-24 935,-30 929,-36 923,-36"/>
<text text-anchor="middle" x="908" y="-14.3" font-family="Times,serif" font-size="14.00" fill="#000000">xa_i</text>
</g>
<!-- leaf_xa&#45;&gt;leaf_xa_i_all -->
<g id="edge9" class="edge">
<title>leaf_xa&#45;&gt;leaf_xa_i_all</title>
<path fill="none" stroke="#000000" d="M906,-71.8314C906,-64.131 906,-54.9743 906,-46.4166"/>
<path fill="none" stroke="#ffffff" d="M908,-71.8314C908,-64.131 908,-54.9743 908,-46.4166"/>
<path fill="none" stroke="#000000" d="M910,-71.8314C910,-64.131 910,-54.9743 910,-46.4166"/>
<polygon fill="#000000" stroke="#000000" points="911.5001,-46.4132 908,-36.4133 904.5001,-46.4133 911.5001,-46.4132"/>
</g>
<!-- leaf_pn_i_all -->
<g id="node49" class="node">
<title>leaf_pn_i_all</title>
<path fill="none" stroke="#000000" d="M238,-36C238,-36 208,-36 208,-36 202,-36 196,-30 196,-24 196,-24 196,-12 196,-12 196,-6 202,0 208,0 208,0 238,0 238,0 244,0 250,-6 250,-12 250,-12 250,-24 250,-24 250,-30 244,-36 238,-36"/>
<text text-anchor="middle" x="223" y="-14.3" font-family="Times,serif" font-size="14.00" fill="#000000">pn_i</text>
</g>
<!-- leaf_pn&#45;&gt;leaf_pn_i_all -->
<g id="edge13" class="edge">
<title>leaf_pn&#45;&gt;leaf_pn_i_all</title>
<path fill="none" stroke="#000000" d="M221,-71.8314C221,-64.131 221,-54.9743 221,-46.4166"/>
<path fill="none" stroke="#ffffff" d="M223,-71.8314C223,-64.131 223,-54.9743 223,-46.4166"/>
<path fill="none" stroke="#000000" d="M225,-71.8314C225,-64.131 225,-54.9743 225,-46.4166"/>
<polygon fill="#000000" stroke="#000000" points="226.5001,-46.4132 223,-36.4133 219.5001,-46.4133 226.5001,-46.4132"/>
</g>
<!-- leaf_pa_i_all -->
<g id="node50" class="node">
<title>leaf_pa_i_all</title>
<path fill="none" stroke="#000000" d="M495,-36C495,-36 465,-36 465,-36 459,-36 453,-30 453,-24 453,-24 453,-12 453,-12 453,-6 459,0 465,0 465,0 495,0 495,0 501,0 507,-6 507,-12 507,-12 507,-24 507,-24 507,-30 501,-36 495,-36"/>
<text text-anchor="middle" x="480" y="-14.3" font-family="Times,serif" font-size="14.00" fill="#000000">pa_i</text>
</g>
<!-- leaf_pa&#45;&gt;leaf_pa_i_all -->
<g id="edge14" class="edge">
<title>leaf_pa&#45;&gt;leaf_pa_i_all</title>
<path fill="none" stroke="#000000" d="M478,-71.8314C478,-64.131 478,-54.9743 478,-46.4166"/>
<path fill="none" stroke="#ffffff" d="M480,-71.8314C480,-64.131 480,-54.9743 480,-46.4166"/>
<path fill="none" stroke="#000000" d="M482,-71.8314C482,-64.131 482,-54.9743 482,-46.4166"/>
<polygon fill="#000000" stroke="#000000" points="483.5001,-46.4132 480,-36.4133 476.5001,-46.4133 483.5001,-46.4132"/>
</g>
<!-- leaf_z&#45;&gt;leaf_xd_i_all -->
<!-- leaf_y -->
<g id="node51" class="node">
<title>leaf_y</title>
<polygon fill="none" stroke="#000000" stroke-dasharray="1,5" points="1112,-36 1058,-36 1058,0 1112,0 1112,-36"/>
<text text-anchor="middle" x="1085" y="-14.3" font-family="Times,serif" font-size="14.00" fill="#000000">y_j</text>
</g>
<!-- leaf_y&#45;&gt;leaf_u_i -->
<g id="edge36" class="edge">
<title>leaf_y&#45;&gt;leaf_u_i</title>
<path fill="none" stroke="#00ff00" d="M1122.1643,-18C1130.7628,-18 1139.3614,-18 1147.9599,-18"/>
<polygon fill="#00ff00" stroke="#00ff00" points="1122.0703,-14.5001 1112.0703,-18 1122.0703,-21.5001 1122.0703,-14.5001"/>
</g>
<!-- leaf_u_i&#45;&gt;diag_u_i -->
<g id="edge38" class="edge">
<title>leaf_u_i&#45;&gt;diag_u_i</title>
<path fill="none" stroke="#00ff00" d="M1181.7864,-36.3503C1191.1797,-63.4381 1207,-115.9023 1207,-162 1207,-378 1207,-378 1207,-378 1207,-418.124 1207,-464.5369 1207,-493.5823"/>
<polygon fill="#00ff00" stroke="#00ff00" points="1203.5001,-493.8146 1207,-503.8146 1210.5001,-493.8147 1203.5001,-493.8146"/>
</g>
<!-- leaf_u_fixed -->
<g id="node53" class="node">
<title>leaf_u_fixed</title>
<path fill="none" stroke="#000000" d="M1280,-36C1280,-36 1250,-36 1250,-36 1244,-36 1238,-30 1238,-24 1238,-24 1238,-12 1238,-12 1238,-6 1244,0 1250,0 1250,0 1280,0 1280,0 1286,0 1292,-6 1292,-12 1292,-12 1292,-24 1292,-24 1292,-30 1286,-36 1280,-36"/>
<text text-anchor="middle" x="1265" y="-14.3" font-family="Times,serif" font-size="14.00" fill="#000000">fixed</text>
</g>
<!-- leaf_u_i&#45;&gt;leaf_u_fixed -->
<g id="edge37" class="edge">
<title>leaf_u_i&#45;&gt;leaf_u_fixed</title>
<path fill="none" stroke="#00ff00" d="M1202.0703,-18C1210.6689,-18 1219.2674,-18 1227.866,-18"/>
<polygon fill="#00ff00" stroke="#00ff00" points="1227.9599,-21.5001 1237.9599,-18 1227.9599,-14.5001 1227.9599,-21.5001"/>
</g>
</g>
</svg>
