<?xml version="1.0" encoding="UTF-8" standalone="no"?>
<!DOCTYPE svg PUBLIC "-//W3C//DTD SVG 1.1//EN"
 "http://www.w3.org/Graphics/SVG/1.1/DTD/svg11.dtd">
<!-- Generated by graphviz version 2.40.1 (20161225.0304)
 -->
<!-- Title: drake/lcm/drake_lcm_interface.h Pages: 1 -->
<!--zoomable 296 -->
<svg id="main" version="1.1" xmlns="http://www.w3.org/2000/svg" xmlns:xlink="http://www.w3.org/1999/xlink" xml:space="preserve" onload="init(evt)">
<style type="text/css"><![CDATA[
.edge:hover path { stroke: red; }
.edge:hover polygon { stroke: red; fill: red; }
]]></style>
<script type="text/javascript"><![CDATA[
var edges = document.getElementsByTagName('g');
if (edges && edges.length) {
  for (var i=0;i<edges.length;i++) {
    if (edges[i].id.substr(0,4)=='edge') {
      edges[i].setAttribute('class','edge');
    }
  }
}
]]></script>
        <defs>
                <circle id="rim" cx="0" cy="0" r="7"/>
                <circle id="rim2" cx="0" cy="0" r="3.5"/>
                <g id="zoomPlus">
                        <use xlink:href="#rim" fill="#404040">
                                <set attributeName="fill" to="#808080" begin="zoomplus.mouseover" end="zoomplus.mouseout"/>
                        </use>
                        <path d="M-4,0h8M0,-4v8" fill="none" stroke="white" stroke-width="1.5" pointer-events="none"/>
                </g>
                <g id="zoomMin">
                        <use xlink:href="#rim" fill="#404040">
                                <set attributeName="fill" to="#808080" begin="zoomminus.mouseover" end="zoomminus.mouseout"/>
                        </use>
                        <path d="M-4,0h8" fill="none" stroke="white" stroke-width="1.5" pointer-events="none"/>
                </g>
                <g id="dirArrow">
                        <path fill="none" stroke="white" stroke-width="1.5" d="M0,-3.0v7 M-2.5,-0.5L0,-3.0L2.5,-0.5"/>
                </g>
               <g id="resetDef">
                       <use xlink:href="#rim2" fill="#404040">
                               <set attributeName="fill" to="#808080" begin="reset.mouseover" end="reset.mouseout"/>
                       </use>
               </g>
        </defs>

<script type="text/javascript">
var viewWidth = 870;
var viewHeight = 296;
var sectionId = 'dynsection-0';
</script>
<script xlink:href="svgpan.js"/>
<svg id="graph" class="graph">
<g id="viewport">
<title>drake/lcm/drake_lcm_interface.h</title>
<polygon fill="#ffffff" stroke="transparent" points="-4,4 -4,-292 866.3023,-292 866.3023,4 -4,4"/>
<!-- Node0 -->
<g id="node1" class="node">
<title>Node0</title>
<g id="a_node1"><a xlink:title=" ">
<polygon fill="#bfbfbf" stroke="#000000" points="254.3023,-257.5 254.3023,-287.5 373.3023,-287.5 373.3023,-257.5 254.3023,-257.5"/>
<text text-anchor="start" x="262.3023" y="-275.5" font-family="Helvetica,sans-Serif" font-size="10.00" fill="#000000">drake/lcm/drake_lcm</text>
<text text-anchor="middle" x="313.8023" y="-264.5" font-family="Helvetica,sans-Serif" font-size="10.00" fill="#000000">_interface.h</text>
</a>
</g>
</g>
<!-- Node1 -->
<g id="node2" class="node">
<title>Node1</title>
<g id="a_node2"><a xlink:title=" ">
<polygon fill="#ffffff" stroke="#bfbfbf" points="379.8023,-140 379.8023,-159 429.8023,-159 429.8023,-140 379.8023,-140"/>
<text text-anchor="middle" x="404.8023" y="-147" font-family="Helvetica,sans-Serif" font-size="10.00" fill="#000000">cstdint</text>
</a>
</g>
</g>
<!-- Node0&#45;&gt;Node1 -->
<g id="edge1" class="edge">
<title>Node0&#45;&gt;Node1</title>
<path fill="none" stroke="#191970" d="M331.4888,-257.3915C342.2117,-247.6779 355.7219,-234.4045 365.8023,-221 378.2312,-204.4725 389.1876,-183.4934 396.2975,-168.5431"/>
<polygon fill="#191970" stroke="#191970" points="399.5581,-169.8308 400.576,-159.2849 393.2038,-166.8942 399.5581,-169.8308"/>
</g>
<!-- Node2 -->
<g id="node3" class="node">
<title>Node2</title>
<g id="a_node3"><a xlink:title=" ">
<polygon fill="#ffffff" stroke="#bfbfbf" points="24.3023,-201.5 24.3023,-220.5 89.3023,-220.5 89.3023,-201.5 24.3023,-201.5"/>
<text text-anchor="middle" x="56.8023" y="-208.5" font-family="Helvetica,sans-Serif" font-size="10.00" fill="#000000">functional</text>
</a>
</g>
</g>
<!-- Node0&#45;&gt;Node2 -->
<g id="edge2" class="edge">
<title>Node0&#45;&gt;Node2</title>
<path fill="none" stroke="#191970" d="M254.1954,-258.2361C206.7978,-246.8939 141.6459,-231.303 99.3816,-221.1892"/>
<polygon fill="#191970" stroke="#191970" points="99.9567,-217.7281 89.4167,-218.8046 98.3276,-224.5359 99.9567,-217.7281"/>
</g>
<!-- Node3 -->
<g id="node4" class="node">
<title>Node3</title>
<g id="a_node4"><a xlink:title=" ">
<polygon fill="#ffffff" stroke="#bfbfbf" points="245.8023,-73 245.8023,-92 303.8023,-92 303.8023,-73 245.8023,-73"/>
<text text-anchor="middle" x="274.8023" y="-80" font-family="Helvetica,sans-Serif" font-size="10.00" fill="#000000">memory</text>
</a>
</g>
</g>
<!-- Node0&#45;&gt;Node3 -->
<g id="edge3" class="edge">
<title>Node0&#45;&gt;Node3</title>
<path fill="none" stroke="#191970" d="M310.6767,-257.2727C303.6355,-222.9695 286.5421,-139.6941 278.7686,-101.8228"/>
<polygon fill="#191970" stroke="#191970" points="282.1969,-101.1178 276.7576,-92.0258 275.3399,-102.5254 282.1969,-101.1178"/>
</g>
<!-- Node4 -->
<g id="node5" class="node">
<title>Node4</title>
<g id="a_node5"><a xlink:title=" ">
<polygon fill="#ffffff" stroke="#bfbfbf" points="145.8023,-201.5 145.8023,-220.5 201.8023,-220.5 201.8023,-201.5 145.8023,-201.5"/>
<text text-anchor="middle" x="173.8023" y="-208.5" font-family="Helvetica,sans-Serif" font-size="10.00" fill="#000000">optional</text>
</a>
</g>
</g>
<!-- Node0&#45;&gt;Node4 -->
<g id="edge4" class="edge">
<title>Node0&#45;&gt;Node4</title>
<path fill="none" stroke="#191970" d="M279.5545,-257.4554C256.7074,-247.419 226.9144,-234.3314 204.7756,-224.6061"/>
<polygon fill="#191970" stroke="#191970" points="206.0606,-221.3478 195.4973,-220.5303 203.2452,-227.7567 206.0606,-221.3478"/>
</g>
<!-- Node5 -->
<g id="node6" class="node">
<title>Node5</title>
<g id="a_node6"><a xlink:title=" ">
<polygon fill="#ffffff" stroke="#bfbfbf" points="220.3023,-201.5 220.3023,-220.5 285.3023,-220.5 285.3023,-201.5 220.3023,-201.5"/>
<text text-anchor="middle" x="252.8023" y="-208.5" font-family="Helvetica,sans-Serif" font-size="10.00" fill="#000000">stdexcept</text>
</a>
</g>
</g>
<!-- Node0&#45;&gt;Node5 -->
<g id="edge5" class="edge">
<title>Node0&#45;&gt;Node5</title>
<path fill="none" stroke="#191970" d="M298.7237,-257.2977C289.9034,-248.4052 278.7482,-237.1586 269.6411,-227.9769"/>
<polygon fill="#191970" stroke="#191970" points="272.0963,-225.4821 262.5692,-220.8469 267.1264,-230.4116 272.0963,-225.4821"/>
</g>
<!-- Node6 -->
<g id="node7" class="node">
<title>Node6</title>
<g id="a_node7"><a xlink:title=" ">
<polygon fill="#ffffff" stroke="#bfbfbf" points="321.8023,-73 321.8023,-92 365.8023,-92 365.8023,-73 321.8023,-73"/>
<text text-anchor="middle" x="343.8023" y="-80" font-family="Helvetica,sans-Serif" font-size="10.00" fill="#000000">string</text>
</a>
</g>
</g>
<!-- Node0&#45;&gt;Node6 -->
<g id="edge6" class="edge">
<title>Node0&#45;&gt;Node6</title>
<path fill="none" stroke="#191970" d="M318.5764,-257.3174C321.6175,-247.135 325.4197,-233.3737 327.8023,-221 335.8514,-179.1972 340.3926,-129.4625 342.4468,-102.4248"/>
<polygon fill="#191970" stroke="#191970" points="345.9473,-102.5426 343.1779,-92.3161 338.9656,-102.0376 345.9473,-102.5426"/>
</g>
<!-- Node7 -->
<g id="node8" class="node">
<title>Node7</title>
<g id="a_node8"><a xlink:title=" ">
<polygon fill="#ffffff" stroke="#bfbfbf" points="447.3023,-6 447.3023,-25 492.3023,-25 492.3023,-6 447.3023,-6"/>
<text text-anchor="middle" x="469.8023" y="-13" font-family="Helvetica,sans-Serif" font-size="10.00" fill="#000000">utility</text>
</a>
</g>
</g>
<!-- Node0&#45;&gt;Node7 -->
<g id="edge7" class="edge">
<title>Node0&#45;&gt;Node7</title>
<path fill="none" stroke="#191970" d="M253.9268,-262.9371C208.3405,-254.2909 151.066,-240.0054 136.8023,-221 131.4667,-213.8906 134.0015,-209.4361 136.8023,-201 160.2173,-130.474 174.3847,-107.3264 236.8023,-67 269.656,-45.7741 380.8133,-27.8413 436.883,-19.8921"/>
<polygon fill="#191970" stroke="#191970" points="437.5809,-23.3287 447.0017,-18.4813 436.6142,-16.3958 437.5809,-23.3287"/>
</g>
<!-- Node8 -->
<g id="node9" class="node">
<title>Node8</title>
<g id="a_node9"><a xlink:title=" ">
<polygon fill="#ffffff" stroke="#bfbfbf" points="637.3023,-73 637.3023,-92 684.3023,-92 684.3023,-73 637.3023,-73"/>
<text text-anchor="middle" x="660.8023" y="-80" font-family="Helvetica,sans-Serif" font-size="10.00" fill="#000000">vector</text>
</a>
</g>
</g>
<!-- Node0&#45;&gt;Node8 -->
<g id="edge8" class="edge">
<title>Node0&#45;&gt;Node8</title>
<path fill="none" stroke="#191970" d="M373.5158,-268.454C447.301,-262.3472 567.3337,-248.4494 601.8023,-221 639.3293,-191.115 653.3738,-132.8844 658.3175,-102.3189"/>
<polygon fill="#191970" stroke="#191970" points="661.8314,-102.4733 659.7966,-92.0757 654.9033,-101.4728 661.8314,-102.4733"/>
</g>
<!-- Node9 -->
<g id="node10" class="node">
<title>Node9</title>
<g id="a_node10"><a xlink:href="drake__copyable_8h.html" target="_top" xlink:title="Provides careful macros to selectively enable or disable the special member functions for copy&#45;constr...">
<polygon fill="#ffffff" stroke="#000000" points="125.3023,-.5 125.3023,-30.5 246.3023,-30.5 246.3023,-.5 125.3023,-.5"/>
<text text-anchor="start" x="133.3023" y="-18.5" font-family="Helvetica,sans-Serif" font-size="10.00" fill="#000000">drake/common/drake</text>
<text text-anchor="middle" x="185.8023" y="-7.5" font-family="Helvetica,sans-Serif" font-size="10.00" fill="#000000">_copyable.h</text>
</a>
</g>
</g>
<!-- Node0&#45;&gt;Node9 -->
<g id="edge9" class="edge">
<title>Node0&#45;&gt;Node9</title>
<path fill="none" stroke="#191970" d="M254.085,-266.333C171.2981,-257.1738 30.0533,-239.1024 14.8023,-221 -42.3197,-153.1981 81.0057,-72.1661 147.2977,-35.3959"/>
<polygon fill="#191970" stroke="#191970" points="149.1499,-38.3724 156.2485,-30.5072 145.7945,-32.2289 149.1499,-38.3724"/>
</g>
<!-- Node10 -->
<g id="node11" class="node">
<title>Node10</title>
<g id="a_node11"><a xlink:href="drake__throw_8h.html" target="_top" xlink:title="Provides a convenient wrapper to throw an exception when a condition is unmet.">
<polygon fill="#ffffff" stroke="#000000" points="682.3023,-134.5 682.3023,-164.5 803.3023,-164.5 803.3023,-134.5 682.3023,-134.5"/>
<text text-anchor="start" x="690.3023" y="-152.5" font-family="Helvetica,sans-Serif" font-size="10.00" fill="#000000">drake/common/drake</text>
<text text-anchor="middle" x="742.8023" y="-141.5" font-family="Helvetica,sans-Serif" font-size="10.00" fill="#000000">_throw.h</text>
</a>
</g>
</g>
<!-- Node0&#45;&gt;Node10 -->
<g id="edge10" class="edge">
<title>Node0&#45;&gt;Node10</title>
<path fill="none" stroke="#191970" d="M373.4184,-268.221C460.366,-261.2436 617.1261,-245.6665 667.8023,-221 690.8054,-209.8033 711.396,-188.982 725.1558,-172.6845"/>
<polygon fill="#191970" stroke="#191970" points="728.1002,-174.6118 731.7053,-164.6492 722.6743,-170.1892 728.1002,-174.6118"/>
</g>
<!-- Node13 -->
<g id="node14" class="node">
<title>Node13</title>
<g id="a_node14"><a xlink:href="lcm__messages_8h.html" target="_top" xlink:title=" ">
<polygon fill="#ffffff" stroke="#000000" points="442.8023,-201.5 442.8023,-220.5 592.8023,-220.5 592.8023,-201.5 442.8023,-201.5"/>
<text text-anchor="middle" x="517.8023" y="-208.5" font-family="Helvetica,sans-Serif" font-size="10.00" fill="#000000">drake/lcm/lcm_messages.h</text>
</a>
</g>
</g>
<!-- Node0&#45;&gt;Node13 -->
<g id="edge14" class="edge">
<title>Node0&#45;&gt;Node13</title>
<path fill="none" stroke="#191970" d="M363.7063,-257.4554C398.3414,-247.0139 443.9311,-233.27 476.5197,-223.4455"/>
<polygon fill="#191970" stroke="#191970" points="477.6254,-226.7678 486.1895,-220.5303 475.6049,-220.0657 477.6254,-226.7678"/>
</g>
<!-- Node11 -->
<g id="node12" class="node">
<title>Node11</title>
<g id="a_node12"><a xlink:title=" ">
<polygon fill="#ffffff" stroke="#bfbfbf" points="678.3023,-6 678.3023,-25 747.3023,-25 747.3023,-6 678.3023,-6"/>
<text text-anchor="middle" x="712.8023" y="-13" font-family="Helvetica,sans-Serif" font-size="10.00" fill="#000000">type_traits</text>
</a>
</g>
</g>
<!-- Node10&#45;&gt;Node11 -->
<g id="edge11" class="edge">
<title>Node10&#45;&gt;Node11</title>
<path fill="none" stroke="#191970" d="M739.4192,-134.389C733.9512,-109.9649 723.1763,-61.8371 717.1477,-34.9095"/>
<polygon fill="#191970" stroke="#191970" points="720.5527,-34.0979 714.9525,-25.1042 713.7218,-35.6273 720.5527,-34.0979"/>
</g>
<!-- Node12 -->
<g id="node13" class="node">
<title>Node12</title>
<g id="a_node13"><a xlink:href="drake__assert_8h.html" target="_top" xlink:title="Provides Drake&#39;s assertion implementation.">
<polygon fill="#ffffff" stroke="#000000" points="741.3023,-67.5 741.3023,-97.5 862.3023,-97.5 862.3023,-67.5 741.3023,-67.5"/>
<text text-anchor="start" x="749.3023" y="-85.5" font-family="Helvetica,sans-Serif" font-size="10.00" fill="#000000">drake/common/drake</text>
<text text-anchor="middle" x="801.8023" y="-74.5" font-family="Helvetica,sans-Serif" font-size="10.00" fill="#000000">_assert.h</text>
</a>
</g>
</g>
<!-- Node10&#45;&gt;Node12 -->
<g id="edge12" class="edge">
<title>Node10&#45;&gt;Node12</title>
<path fill="none" stroke="#191970" d="M756.1903,-134.2967C763.7338,-125.7303 773.305,-114.8614 781.7297,-105.2943"/>
<polygon fill="#191970" stroke="#191970" points="784.4852,-107.4612 788.4673,-97.6432 779.2317,-102.835 784.4852,-107.4612"/>
</g>
<!-- Node12&#45;&gt;Node11 -->
<g id="edge13" class="edge">
<title>Node12&#45;&gt;Node11</title>
<path fill="none" stroke="#191970" d="M781.6068,-67.2967C767.3363,-56.5537 748.2555,-42.1895 733.8075,-31.3129"/>
<polygon fill="#191970" stroke="#191970" points="735.589,-28.2731 725.4947,-25.055 731.3789,-33.8656 735.589,-28.2731"/>
</g>
<!-- Node13&#45;&gt;Node1 -->
<g id="edge15" class="edge">
<title>Node13&#45;&gt;Node1</title>
<path fill="none" stroke="#191970" d="M500.1461,-201.3906C481.6537,-191.3262 452.4013,-175.4057 431.1715,-163.8514"/>
<polygon fill="#191970" stroke="#191970" points="432.7911,-160.7481 422.3346,-159.0419 429.4449,-166.8965 432.7911,-160.7481"/>
</g>
<!-- Node13&#45;&gt;Node8 -->
<g id="edge16" class="edge">
<title>Node13&#45;&gt;Node8</title>
<path fill="none" stroke="#191970" d="M539.0255,-201.4421C555.8065,-193.2549 579.2494,-180.3687 596.8023,-165 618.4363,-146.058 637.8323,-118.915 649.4577,-101.0067"/>
<polygon fill="#191970" stroke="#191970" points="652.6923,-102.4404 655.0816,-92.1185 646.777,-98.6975 652.6923,-102.4404"/>
</g>
<!-- Node13&#45;&gt;Node10 -->
<g id="edge17" class="edge">
<title>Node13&#45;&gt;Node10</title>
<path fill="none" stroke="#191970" d="M552.9586,-201.3906C586.2996,-192.2774 637.2071,-178.3627 677.9152,-167.2358"/>
<polygon fill="#191970" stroke="#191970" points="679.0378,-170.5574 687.7611,-164.5446 677.1921,-163.8051 679.0378,-170.5574"/>
</g>
<!-- Node14 -->
<g id="node15" class="node">
<title>Node14</title>
<g id="a_node15"><a xlink:href="nice__type__name_8h.html" target="_top" xlink:title=" ">
<polygon fill="#ffffff" stroke="#000000" points="447.8023,-134.5 447.8023,-164.5 587.8023,-164.5 587.8023,-134.5 447.8023,-134.5"/>
<text text-anchor="start" x="455.8023" y="-152.5" font-family="Helvetica,sans-Serif" font-size="10.00" fill="#000000">drake/common/nice_type</text>
<text text-anchor="middle" x="517.8023" y="-141.5" font-family="Helvetica,sans-Serif" font-size="10.00" fill="#000000">_name.h</text>
</a>
</g>
</g>
<!-- Node13&#45;&gt;Node14 -->
<g id="edge18" class="edge">
<title>Node13&#45;&gt;Node14</title>
<path fill="none" stroke="#191970" d="M517.8023,-201.3906C517.8023,-194.2234 517.8023,-184.0862 517.8023,-174.671"/>
<polygon fill="#191970" stroke="#191970" points="521.3024,-174.5446 517.8023,-164.5446 514.3024,-174.5446 521.3024,-174.5446"/>
</g>
<!-- Node14&#45;&gt;Node3 -->
<g id="edge19" class="edge">
<title>Node14&#45;&gt;Node3</title>
<path fill="none" stroke="#191970" d="M447.3645,-134.396C407.487,-125.2018 356.9142,-112.4573 312.8023,-98 310.6569,-97.2969 308.4604,-96.5303 306.2583,-95.7268"/>
<polygon fill="#191970" stroke="#191970" points="307.2991,-92.3771 296.7094,-92.0497 304.7836,-98.9095 307.2991,-92.3771"/>
</g>
<!-- Node14&#45;&gt;Node6 -->
<g id="edge20" class="edge">
<title>Node14&#45;&gt;Node6</title>
<path fill="none" stroke="#191970" d="M471.8664,-134.4993C443.5588,-124.8766 406.6991,-111.6615 374.8023,-98 373.62,-97.4936 372.419,-96.9637 371.2107,-96.4178"/>
<polygon fill="#191970" stroke="#191970" points="372.528,-93.1689 361.9932,-92.0425 369.5263,-99.4926 372.528,-93.1689"/>
</g>
<!-- Node14&#45;&gt;Node7 -->
<g id="edge22" class="edge">
<title>Node14&#45;&gt;Node7</title>
<path fill="none" stroke="#191970" d="M508.1278,-134.2289C502.1489,-124.2385 494.7071,-110.7246 489.8023,-98 481.8016,-77.2438 476.2828,-52.284 473.1004,-35.2929"/>
<polygon fill="#191970" stroke="#191970" points="476.5387,-34.6363 471.344,-25.4023 469.6465,-35.8603 476.5387,-34.6363"/>
</g>
<!-- Node14&#45;&gt;Node8 -->
<g id="edge23" class="edge">
<title>Node14&#45;&gt;Node8</title>
<path fill="none" stroke="#191970" d="M550.8973,-134.32C573.0007,-124.1387 602.6962,-110.3777 628.8023,-98 629.8063,-97.524 630.8273,-97.0383 631.858,-96.5466"/>
<polygon fill="#191970" stroke="#191970" points="633.698,-99.5456 641.1963,-92.0605 630.6668,-93.2359 633.698,-99.5456"/>
</g>
<!-- Node15 -->
<g id="node16" class="node">
<title>Node15</title>
<g id="a_node16"><a xlink:title=" ">
<polygon fill="#ffffff" stroke="#bfbfbf" points="384.3023,-73 384.3023,-92 441.3023,-92 441.3023,-73 384.3023,-73"/>
<text text-anchor="middle" x="412.8023" y="-80" font-family="Helvetica,sans-Serif" font-size="10.00" fill="#000000">typeinfo</text>
</a>
</g>
</g>
<!-- Node14&#45;&gt;Node15 -->
<g id="edge21" class="edge">
<title>Node14&#45;&gt;Node15</title>
<path fill="none" stroke="#191970" d="M494.2383,-134.4639C477.0968,-123.526 453.9702,-108.769 436.7421,-97.7759"/>
<polygon fill="#191970" stroke="#191970" points="438.166,-94.5326 427.8532,-92.1039 434.4005,-100.4336 438.166,-94.5326"/>
</g>
<!-- Node16 -->
<g id="node17" class="node">
<title>Node16</title>
<g id="a_node17"><a xlink:href="never__destroyed_8h.html" target="_top" xlink:title=" ">
<polygon fill="#ffffff" stroke="#000000" points="498.3023,-67.5 498.3023,-97.5 619.3023,-97.5 619.3023,-67.5 498.3023,-67.5"/>
<text text-anchor="start" x="506.3023" y="-85.5" font-family="Helvetica,sans-Serif" font-size="10.00" fill="#000000">drake/common/never</text>
<text text-anchor="middle" x="558.8023" y="-74.5" font-family="Helvetica,sans-Serif" font-size="10.00" fill="#000000">_destroyed.h</text>
</a>
</g>
</g>
<!-- Node14&#45;&gt;Node16 -->
<g id="edge24" class="edge">
<title>Node14&#45;&gt;Node16</title>
<path fill="none" stroke="#191970" d="M527.1058,-134.2967C532.1383,-126.0729 538.4692,-115.7272 544.1474,-106.4483"/>
<polygon fill="#191970" stroke="#191970" points="547.3013,-107.9997 549.5356,-97.6432 541.3305,-104.346 547.3013,-107.9997"/>
</g>
<!-- Node16&#45;&gt;Node7 -->
<g id="edge27" class="edge">
<title>Node16&#45;&gt;Node7</title>
<path fill="none" stroke="#191970" d="M538.6068,-67.2967C524.3363,-56.5537 505.2555,-42.1895 490.8075,-31.3129"/>
<polygon fill="#191970" stroke="#191970" points="492.589,-28.2731 482.4947,-25.055 488.3789,-33.8656 492.589,-28.2731"/>
</g>
<!-- Node16&#45;&gt;Node9 -->
<g id="edge28" class="edge">
<title>Node16&#45;&gt;Node9</title>
<path fill="none" stroke="#191970" d="M498.0433,-71.5862C431.9329,-59.7111 326.3653,-40.7486 256.5652,-28.2108"/>
<polygon fill="#191970" stroke="#191970" points="256.9966,-24.7323 246.5354,-26.4092 255.759,-31.6221 256.9966,-24.7323"/>
</g>
<!-- Node16&#45;&gt;Node11 -->
<g id="edge26" class="edge">
<title>Node16&#45;&gt;Node11</title>
<path fill="none" stroke="#191970" d="M593.3629,-67.4639C619.7841,-55.969 655.9002,-40.2561 681.4814,-29.1266"/>
<polygon fill="#191970" stroke="#191970" points="682.9542,-32.3028 690.7276,-25.1039 680.1615,-25.884 682.9542,-32.3028"/>
</g>
<!-- Node17 -->
<g id="node18" class="node">
<title>Node17</title>
<g id="a_node18"><a xlink:title=" ">
<polygon fill="#ffffff" stroke="#bfbfbf" points="540.3023,-6 540.3023,-25 577.3023,-25 577.3023,-6 540.3023,-6"/>
<text text-anchor="middle" x="558.8023" y="-13" font-family="Helvetica,sans-Serif" font-size="10.00" fill="#000000">new</text>
</a>
</g>
</g>
<!-- Node16&#45;&gt;Node17 -->
<g id="edge25" class="edge">
<title>Node16&#45;&gt;Node17</title>
<path fill="none" stroke="#191970" d="M558.8023,-67.2967C558.8023,-57.7699 558.8023,-45.3954 558.8023,-35.1306"/>
<polygon fill="#191970" stroke="#191970" points="562.3024,-35.0549 558.8023,-25.055 555.3024,-35.055 562.3024,-35.0549"/>
</g>
</g>
</svg>
        <g id="navigator" transform="translate(0 0)" fill="#404254">
                <rect fill="#f2f5e9" fill-opacity="0.5" stroke="#606060" stroke-width=".5" x="0" y="0" width="60" height="60"/>
                <use id="zoomplus" xlink:href="#zoomPlus" x="17" y="9" onmousedown="handleZoom(evt,'in')"/>
                <use id="zoomminus" xlink:href="#zoomMin" x="42" y="9" onmousedown="handleZoom(evt,'out')"/>
                <use id="reset" xlink:href="#resetDef" x="30" y="36" onmousedown="handleReset()"/>
                <g id="arrowUp" xlink:href="#dirArrow" transform="translate(30 24)" onmousedown="handlePan(0,-1)">
                  <use xlink:href="#rim" fill="#404040">
                        <set attributeName="fill" to="#808080" begin="arrowUp.mouseover" end="arrowUp.mouseout"/>
                  </use>
                  <path fill="none" stroke="white" stroke-width="1.5" d="M0,-3.0v7 M-2.5,-0.5L0,-3.0L2.5,-0.5"/>
                </g>
                <g id="arrowRight" xlink:href="#dirArrow" transform="rotate(90) translate(36 -43)" onmousedown="handlePan(1,0)">
                  <use xlink:href="#rim" fill="#404040">
                        <set attributeName="fill" to="#808080" begin="arrowRight.mouseover" end="arrowRight.mouseout"/>
                  </use>
                  <path fill="none" stroke="white" stroke-width="1.5" d="M0,-3.0v7 M-2.5,-0.5L0,-3.0L2.5,-0.5"/>
                </g>
                <g id="arrowDown" xlink:href="#dirArrow" transform="rotate(180) translate(-30 -48)" onmousedown="handlePan(0,1)">
                  <use xlink:href="#rim" fill="#404040">
                        <set attributeName="fill" to="#808080" begin="arrowDown.mouseover" end="arrowDown.mouseout"/>
                  </use>
                  <path fill="none" stroke="white" stroke-width="1.5" d="M0,-3.0v7 M-2.5,-0.5L0,-3.0L2.5,-0.5"/>
                </g>
                <g id="arrowLeft" xlink:href="#dirArrow" transform="rotate(270) translate(-36 17)" onmousedown="handlePan(-1,0)">
                  <use xlink:href="#rim" fill="#404040">
                        <set attributeName="fill" to="#808080" begin="arrowLeft.mouseover" end="arrowLeft.mouseout"/>
                  </use>
                  <path fill="none" stroke="white" stroke-width="1.5" d="M0,-3.0v7 M-2.5,-0.5L0,-3.0L2.5,-0.5"/>
                </g>
        </g>
        <svg viewBox="0 0 15 15" width="100%" height="30px" preserveAspectRatio="xMaxYMin meet">
         <g id="arrow_out" transform="scale(0.3 0.3)">
          <a xlink:href="drake__lcm__interface_8h__incl_org.svg" target="_base">
           <rect id="button" ry="5" rx="5" y="6" x="6" height="38" width="38"
                fill="#f2f5e9" fill-opacity="0.5" stroke="#606060" stroke-width="1.0"/>
           <path id="arrow"
             d="M 11.500037,31.436501 C 11.940474,20.09759 22.043105,11.32322 32.158766,21.979434 L 37.068811,17.246167 C 37.068811,17.246167 37.088388,32 37.088388,32 L 22.160133,31.978069 C 22.160133,31.978069 26.997745,27.140456 26.997745,27.140456 C 18.528582,18.264221 13.291696,25.230495 11.500037,31.436501 z"
             style="fill:#404040;"/>
          </a>
         </g>
        </svg>
</svg>
