<?xml version="1.0" encoding="UTF-8" standalone="no"?>
<!DOCTYPE svg PUBLIC "-//W3C//DTD SVG 1.1//EN"
 "http://www.w3.org/Graphics/SVG/1.1/DTD/svg11.dtd">
<!-- Generated by graphviz version 2.40.1 (20161225.0304)
 -->
<!-- Title: drake/lcm/drake_lcm_log.h Pages: 1 -->
<svg width="982pt" height="363pt"
 viewBox="0.00 0.00 981.50 363.00" xmlns="http://www.w3.org/2000/svg" xmlns:xlink="http://www.w3.org/1999/xlink">
<g id="graph0" class="graph" transform="scale(1 1) rotate(0) translate(4 359)">
<title>drake/lcm/drake_lcm_log.h</title>
<polygon fill="#ffffff" stroke="transparent" points="-4,4 -4,-359 977.5,-359 977.5,4 -4,4"/>
<!-- Node0 -->
<g id="node1" class="node">
<title>Node0</title>
<g id="a_node1"><a xlink:title=" ">
<polygon fill="#bfbfbf" stroke="#000000" points="197.5,-324.5 197.5,-354.5 316.5,-354.5 316.5,-324.5 197.5,-324.5"/>
<text text-anchor="start" x="205.5" y="-342.5" font-family="Helvetica,sans-Serif" font-size="10.00" fill="#000000">drake/lcm/drake_lcm</text>
<text text-anchor="middle" x="257" y="-331.5" font-family="Helvetica,sans-Serif" font-size="10.00" fill="#000000">_log.h</text>
</a>
</g>
</g>
<!-- Node1 -->
<g id="node2" class="node">
<title>Node1</title>
<g id="a_node2"><a xlink:title=" ">
<polygon fill="#ffffff" stroke="#bfbfbf" points="0,-263 0,-282 50,-282 50,-263 0,-263"/>
<text text-anchor="middle" x="25" y="-270" font-family="Helvetica,sans-Serif" font-size="10.00" fill="#000000">atomic</text>
</a>
</g>
</g>
<!-- Node0&#45;&gt;Node1 -->
<g id="edge1" class="edge">
<title>Node0&#45;&gt;Node1</title>
<path fill="none" stroke="#191970" d="M197.2767,-326.8128C157.5582,-317.684 104.5225,-304.1593 59,-288 57.3608,-287.4181 55.692,-286.7881 54.0178,-286.1264"/>
<polygon fill="#191970" stroke="#191970" points="55.1109,-282.7883 44.5381,-282.105 52.3772,-289.2324 55.1109,-282.7883"/>
</g>
<!-- Node2 -->
<g id="node3" class="node">
<title>Node2</title>
<g id="a_node3"><a xlink:title=" ">
<polygon fill="#ffffff" stroke="#bfbfbf" points="68,-263 68,-282 106,-282 106,-263 68,-263"/>
<text text-anchor="middle" x="87" y="-270" font-family="Helvetica,sans-Serif" font-size="10.00" fill="#000000">map</text>
</a>
</g>
</g>
<!-- Node0&#45;&gt;Node2 -->
<g id="edge2" class="edge">
<title>Node0&#45;&gt;Node2</title>
<path fill="none" stroke="#191970" d="M214.3809,-324.4688C187.1666,-314.6278 151.2529,-301.1893 120,-288 118.4364,-287.3401 116.8383,-286.6485 115.2302,-285.9389"/>
<polygon fill="#191970" stroke="#191970" points="116.6306,-282.7309 106.0789,-281.7759 113.7321,-289.1026 116.6306,-282.7309"/>
</g>
<!-- Node3 -->
<g id="node4" class="node">
<title>Node3</title>
<g id="a_node4"><a xlink:title=" ">
<polygon fill="#ffffff" stroke="#bfbfbf" points="231,-73 231,-92 289,-92 289,-73 231,-73"/>
<text text-anchor="middle" x="260" y="-80" font-family="Helvetica,sans-Serif" font-size="10.00" fill="#000000">memory</text>
</a>
</g>
</g>
<!-- Node0&#45;&gt;Node3 -->
<g id="edge3" class="edge">
<title>Node0&#45;&gt;Node3</title>
<path fill="none" stroke="#191970" d="M199.7732,-324.3888C181.6372,-316.6053 163.5723,-305.0329 153,-288 145.734,-276.2939 149.7395,-270.3864 153,-257 168.6912,-192.5778 218.3484,-129.3673 244.1251,-99.8234"/>
<polygon fill="#191970" stroke="#191970" points="246.9733,-101.8876 251.0048,-92.0898 241.7432,-97.235 246.9733,-101.8876"/>
</g>
<!-- Node4 -->
<g id="node5" class="node">
<title>Node4</title>
<g id="a_node5"><a xlink:title=" ">
<polygon fill="#ffffff" stroke="#bfbfbf" points="162,-263 162,-282 210,-282 210,-263 162,-263"/>
<text text-anchor="middle" x="186" y="-270" font-family="Helvetica,sans-Serif" font-size="10.00" fill="#000000">mutex</text>
</a>
</g>
</g>
<!-- Node0&#45;&gt;Node4 -->
<g id="edge4" class="edge">
<title>Node0&#45;&gt;Node4</title>
<path fill="none" stroke="#191970" d="M240.889,-324.2967C229.7195,-313.7564 214.856,-299.7303 203.4133,-288.9323"/>
<polygon fill="#191970" stroke="#191970" points="205.8006,-286.3727 196.1254,-282.055 200.9963,-291.4638 205.8006,-286.3727"/>
</g>
<!-- Node5 -->
<g id="node6" class="node">
<title>Node5</title>
<g id="a_node6"><a xlink:title=" ">
<polygon fill="#ffffff" stroke="#bfbfbf" points="224,-201.5 224,-220.5 280,-220.5 280,-201.5 224,-201.5"/>
<text text-anchor="middle" x="252" y="-208.5" font-family="Helvetica,sans-Serif" font-size="10.00" fill="#000000">optional</text>
</a>
</g>
</g>
<!-- Node0&#45;&gt;Node5 -->
<g id="edge5" class="edge">
<title>Node0&#45;&gt;Node5</title>
<path fill="none" stroke="#191970" d="M256.4068,-324.2548C255.501,-300.9744 253.7728,-256.5607 252.7709,-230.8117"/>
<polygon fill="#191970" stroke="#191970" points="256.2651,-230.5921 252.3788,-220.7358 249.2704,-230.8643 256.2651,-230.5921"/>
</g>
<!-- Node6 -->
<g id="node7" class="node">
<title>Node6</title>
<g id="a_node7"><a xlink:title=" ">
<polygon fill="#ffffff" stroke="#bfbfbf" points="307,-73 307,-92 351,-92 351,-73 307,-73"/>
<text text-anchor="middle" x="329" y="-80" font-family="Helvetica,sans-Serif" font-size="10.00" fill="#000000">string</text>
</a>
</g>
</g>
<!-- Node0&#45;&gt;Node6 -->
<g id="edge6" class="edge">
<title>Node0&#45;&gt;Node6</title>
<path fill="none" stroke="#191970" d="M249.8618,-324.4793C235.608,-293.5981 205.7505,-223.9562 215,-201 233.2913,-155.6033 278.213,-117.8633 305.8921,-97.8854"/>
<polygon fill="#191970" stroke="#191970" points="308.0472,-100.6488 314.2173,-92.036 304.0228,-94.9212 308.0472,-100.6488"/>
</g>
<!-- Node7 -->
<g id="node8" class="node">
<title>Node7</title>
<g id="a_node8"><a xlink:title=" ">
<polygon fill="#ffffff" stroke="#bfbfbf" points="659.5,-73 659.5,-92 706.5,-92 706.5,-73 659.5,-73"/>
<text text-anchor="middle" x="683" y="-80" font-family="Helvetica,sans-Serif" font-size="10.00" fill="#000000">vector</text>
</a>
</g>
</g>
<!-- Node0&#45;&gt;Node7 -->
<g id="edge7" class="edge">
<title>Node0&#45;&gt;Node7</title>
<path fill="none" stroke="#191970" d="M316.8512,-335.1821C448.5434,-324.4506 757.4854,-292.1405 830,-221 858.1863,-193.3478 871.3942,-165.8091 848,-134 840.0246,-123.1559 762.1717,-102.2132 716.3131,-90.6554"/>
<polygon fill="#191970" stroke="#191970" points="717.0517,-87.2324 706.5013,-88.2025 715.3539,-94.0234 717.0517,-87.2324"/>
</g>
<!-- Node8 -->
<g id="node9" class="node">
<title>Node8</title>
<g id="a_node9"><a xlink:title=" ">
<polygon fill="#ffffff" stroke="#bfbfbf" points="500,-263 500,-282 598,-282 598,-263 500,-263"/>
<text text-anchor="middle" x="549" y="-270" font-family="Helvetica,sans-Serif" font-size="10.00" fill="#000000">lcm/lcm&#45;cpp.hpp</text>
</a>
</g>
</g>
<!-- Node0&#45;&gt;Node8 -->
<g id="edge8" class="edge">
<title>Node0&#45;&gt;Node8</title>
<path fill="none" stroke="#191970" d="M316.7992,-327.1055C364.1806,-317.1003 431.9927,-302.3704 491,-288 495.3909,-286.9307 499.9583,-285.7789 504.5164,-284.6033"/>
<polygon fill="#191970" stroke="#191970" points="505.6199,-287.9325 514.4079,-282.0145 503.8475,-281.1605 505.6199,-287.9325"/>
</g>
<!-- Node9 -->
<g id="node10" class="node">
<title>Node9</title>
<g id="a_node10"><a xlink:href="drake__copyable_8h.html" target="_top" xlink:title="Provides careful macros to selectively enable or disable the special member functions for copy&#45;constr...">
<polygon fill="#ffffff" stroke="#000000" points="852.5,-.5 852.5,-30.5 973.5,-30.5 973.5,-.5 852.5,-.5"/>
<text text-anchor="start" x="860.5" y="-18.5" font-family="Helvetica,sans-Serif" font-size="10.00" fill="#000000">drake/common/drake</text>
<text text-anchor="middle" x="913" y="-7.5" font-family="Helvetica,sans-Serif" font-size="10.00" fill="#000000">_copyable.h</text>
</a>
</g>
</g>
<!-- Node0&#45;&gt;Node9 -->
<g id="edge9" class="edge">
<title>Node0&#45;&gt;Node9</title>
<path fill="none" stroke="#191970" d="M316.6779,-337.2006C406.6118,-332.7866 581.8096,-320.4853 727,-288 829.7332,-265.0142 951,-316.2733 951,-211 951,-211 951,-211 951,-149.5 951,-110.0468 935.5648,-66.4537 924.3691,-40.0231"/>
<polygon fill="#191970" stroke="#191970" points="927.5399,-38.5383 920.3268,-30.778 921.1262,-41.3427 927.5399,-38.5383"/>
</g>
<!-- Node10 -->
<g id="node11" class="node">
<title>Node10</title>
<g id="a_node11"><a xlink:href="drake__lcm__interface_8h.html" target="_top" xlink:title=" ">
<polygon fill="#ffffff" stroke="#000000" points="362.5,-257.5 362.5,-287.5 481.5,-287.5 481.5,-257.5 362.5,-257.5"/>
<text text-anchor="start" x="370.5" y="-275.5" font-family="Helvetica,sans-Serif" font-size="10.00" fill="#000000">drake/lcm/drake_lcm</text>
<text text-anchor="middle" x="422" y="-264.5" font-family="Helvetica,sans-Serif" font-size="10.00" fill="#000000">_interface.h</text>
</a>
</g>
</g>
<!-- Node0&#45;&gt;Node10 -->
<g id="edge10" class="edge">
<title>Node0&#45;&gt;Node10</title>
<path fill="none" stroke="#191970" d="M294.0292,-324.4639C318.0408,-314.7137 349.5258,-301.9289 375.2569,-291.4805"/>
<polygon fill="#191970" stroke="#191970" points="376.8608,-294.6069 384.8093,-287.6017 374.2272,-288.1212 376.8608,-294.6069"/>
</g>
<!-- Node10&#45;&gt;Node3 -->
<g id="edge13" class="edge">
<title>Node10&#45;&gt;Node3</title>
<path fill="none" stroke="#191970" d="M398.8174,-257.4162C385.189,-247.9104 368.1165,-234.8463 355,-221 318.5868,-182.5608 286.0321,-128.967 270.1834,-101.0589"/>
<polygon fill="#191970" stroke="#191970" points="273.2337,-99.3423 265.2954,-92.3256 267.1254,-102.7612 273.2337,-99.3423"/>
</g>
<!-- Node10&#45;&gt;Node5 -->
<g id="edge14" class="edge">
<title>Node10&#45;&gt;Node5</title>
<path fill="none" stroke="#191970" d="M380.4133,-257.4554C352.0484,-247.194 314.8667,-233.7429 287.8164,-223.9571"/>
<polygon fill="#191970" stroke="#191970" points="288.9382,-220.641 278.344,-220.5303 286.5569,-227.2235 288.9382,-220.641"/>
</g>
<!-- Node10&#45;&gt;Node6 -->
<g id="edge16" class="edge">
<title>Node10&#45;&gt;Node6</title>
<path fill="none" stroke="#191970" d="M402.5164,-257.4376C391.5515,-248.0338 378.4133,-235.0667 370,-221 347.0346,-182.6026 336.1654,-130.453 331.6867,-102.3711"/>
<polygon fill="#191970" stroke="#191970" points="335.1126,-101.6124 330.1845,-92.2335 328.1882,-102.6385 335.1126,-101.6124"/>
</g>
<!-- Node10&#45;&gt;Node7 -->
<g id="edge18" class="edge">
<title>Node10&#45;&gt;Node7</title>
<path fill="none" stroke="#191970" d="M481.7899,-258.057C532.3321,-245.5162 598.2094,-228.2617 609,-221 650.6973,-192.9391 670.7157,-133.4654 678.6543,-102.3761"/>
<polygon fill="#191970" stroke="#191970" points="682.1379,-102.8559 681.0503,-92.3171 675.3284,-101.2339 682.1379,-102.8559"/>
</g>
<!-- Node10&#45;&gt;Node9 -->
<g id="edge19" class="edge">
<title>Node10&#45;&gt;Node9</title>
<path fill="none" stroke="#191970" d="M481.7567,-258.6341C484.8764,-258.0488 487.9715,-257.4993 491,-257 565.748,-244.6775 767.4072,-263.6761 830,-221 890.6481,-179.6499 906.9981,-85.8097 911.3926,-40.6729"/>
<polygon fill="#191970" stroke="#191970" points="914.8927,-40.8189 912.2539,-30.558 907.9179,-40.2249 914.8927,-40.8189"/>
</g>
<!-- Node11 -->
<g id="node12" class="node">
<title>Node11</title>
<g id="a_node12"><a xlink:title=" ">
<polygon fill="#ffffff" stroke="#bfbfbf" points="407,-140 407,-159 457,-159 457,-140 407,-140"/>
<text text-anchor="middle" x="432" y="-147" font-family="Helvetica,sans-Serif" font-size="10.00" fill="#000000">cstdint</text>
</a>
</g>
</g>
<!-- Node10&#45;&gt;Node11 -->
<g id="edge11" class="edge">
<title>Node10&#45;&gt;Node11</title>
<path fill="none" stroke="#191970" d="M423.2262,-257.4178C425.0271,-235.2662 428.3897,-193.9061 430.3883,-169.3234"/>
<polygon fill="#191970" stroke="#191970" points="433.9017,-169.3 431.2236,-159.0493 426.9247,-168.7327 433.9017,-169.3"/>
</g>
<!-- Node12 -->
<g id="node13" class="node">
<title>Node12</title>
<g id="a_node13"><a xlink:title=" ">
<polygon fill="#ffffff" stroke="#bfbfbf" points="656.5,-201.5 656.5,-220.5 721.5,-220.5 721.5,-201.5 656.5,-201.5"/>
<text text-anchor="middle" x="689" y="-208.5" font-family="Helvetica,sans-Serif" font-size="10.00" fill="#000000">functional</text>
</a>
</g>
</g>
<!-- Node10&#45;&gt;Node12 -->
<g id="edge12" class="edge">
<title>Node10&#45;&gt;Node12</title>
<path fill="none" stroke="#191970" d="M481.5877,-258.7747C531.6356,-247.2469 601.9209,-231.0575 646.4569,-220.7993"/>
<polygon fill="#191970" stroke="#191970" points="647.4146,-224.1704 656.3738,-218.515 645.8433,-217.349 647.4146,-224.1704"/>
</g>
<!-- Node13 -->
<g id="node14" class="node">
<title>Node13</title>
<g id="a_node14"><a xlink:title=" ">
<polygon fill="#ffffff" stroke="#bfbfbf" points="739.5,-201.5 739.5,-220.5 804.5,-220.5 804.5,-201.5 739.5,-201.5"/>
<text text-anchor="middle" x="772" y="-208.5" font-family="Helvetica,sans-Serif" font-size="10.00" fill="#000000">stdexcept</text>
</a>
</g>
</g>
<!-- Node10&#45;&gt;Node13 -->
<g id="edge15" class="edge">
<title>Node10&#45;&gt;Node13</title>
<path fill="none" stroke="#191970" d="M481.7847,-258.7932C484.8971,-258.1664 487.9829,-257.5644 491,-257 593.9148,-237.748 623.4487,-241.5498 729.5637,-221.1508"/>
<polygon fill="#191970" stroke="#191970" points="730.2395,-224.585 739.3851,-219.2364 728.9002,-217.7143 730.2395,-224.585"/>
</g>
<!-- Node14 -->
<g id="node15" class="node">
<title>Node14</title>
<g id="a_node15"><a xlink:title=" ">
<polygon fill="#ffffff" stroke="#bfbfbf" points="394.5,-6 394.5,-25 439.5,-25 439.5,-6 394.5,-6"/>
<text text-anchor="middle" x="417" y="-13" font-family="Helvetica,sans-Serif" font-size="10.00" fill="#000000">utility</text>
</a>
</g>
</g>
<!-- Node10&#45;&gt;Node14 -->
<g id="edge17" class="edge">
<title>Node10&#45;&gt;Node14</title>
<path fill="none" stroke="#191970" d="M417.5143,-257.3679C411.6493,-236.7187 401.6889,-198.4531 398,-165 392.8608,-118.3944 404.228,-63.7767 411.5098,-35.204"/>
<polygon fill="#191970" stroke="#191970" points="414.9608,-35.8454 414.1455,-25.282 408.1954,-34.0482 414.9608,-35.8454"/>
</g>
<!-- Node15 -->
<g id="node16" class="node">
<title>Node15</title>
<g id="a_node16"><a xlink:href="drake__throw_8h.html" target="_top" xlink:title="Provides a convenient wrapper to throw an exception when a condition is unmet.">
<polygon fill="#ffffff" stroke="#000000" points="717.5,-134.5 717.5,-164.5 838.5,-164.5 838.5,-134.5 717.5,-134.5"/>
<text text-anchor="start" x="725.5" y="-152.5" font-family="Helvetica,sans-Serif" font-size="10.00" fill="#000000">drake/common/drake</text>
<text text-anchor="middle" x="778" y="-141.5" font-family="Helvetica,sans-Serif" font-size="10.00" fill="#000000">_throw.h</text>
</a>
</g>
</g>
<!-- Node10&#45;&gt;Node15 -->
<g id="edge20" class="edge">
<title>Node10&#45;&gt;Node15</title>
<path fill="none" stroke="#191970" d="M481.7599,-258.6534C484.8787,-258.063 487.9728,-257.5071 491,-257 562.2296,-245.0673 765.8426,-274.823 814,-221 826.7841,-206.7119 815.336,-187.0599 802.0597,-171.9742"/>
<polygon fill="#191970" stroke="#191970" points="804.4739,-169.4327 795.0691,-164.5542 799.3789,-174.2328 804.4739,-169.4327"/>
</g>
<!-- Node18 -->
<g id="node19" class="node">
<title>Node18</title>
<g id="a_node19"><a xlink:href="lcm__messages_8h.html" target="_top" xlink:title=" ">
<polygon fill="#ffffff" stroke="#000000" points="450,-201.5 450,-220.5 600,-220.5 600,-201.5 450,-201.5"/>
<text text-anchor="middle" x="525" y="-208.5" font-family="Helvetica,sans-Serif" font-size="10.00" fill="#000000">drake/lcm/lcm_messages.h</text>
</a>
</g>
</g>
<!-- Node10&#45;&gt;Node18 -->
<g id="edge24" class="edge">
<title>Node10&#45;&gt;Node18</title>
<path fill="none" stroke="#191970" d="M447.1966,-257.4554C463.3272,-247.8241 484.1638,-235.3828 500.2136,-225.7996"/>
<polygon fill="#191970" stroke="#191970" points="502.247,-228.662 509.0387,-220.5303 498.6584,-222.6518 502.247,-228.662"/>
</g>
<!-- Node16 -->
<g id="node17" class="node">
<title>Node16</title>
<g id="a_node17"><a xlink:title=" ">
<polygon fill="#ffffff" stroke="#bfbfbf" points="700.5,-6 700.5,-25 769.5,-25 769.5,-6 700.5,-6"/>
<text text-anchor="middle" x="735" y="-13" font-family="Helvetica,sans-Serif" font-size="10.00" fill="#000000">type_traits</text>
</a>
</g>
</g>
<!-- Node15&#45;&gt;Node16 -->
<g id="edge21" class="edge">
<title>Node15&#45;&gt;Node16</title>
<path fill="none" stroke="#191970" d="M770.4124,-134.4688C765.5242,-124.3503 759.3019,-110.6033 755,-98 747.8142,-76.9477 742.1494,-52.041 738.7099,-35.1433"/>
<polygon fill="#191970" stroke="#191970" points="742.1414,-34.4534 736.7775,-25.3167 735.2729,-35.8042 742.1414,-34.4534"/>
</g>
<!-- Node17 -->
<g id="node18" class="node">
<title>Node17</title>
<g id="a_node18"><a xlink:href="drake__assert_8h.html" target="_top" xlink:title="Provides Drake&#39;s assertion implementation.">
<polygon fill="#ffffff" stroke="#000000" points="763.5,-67.5 763.5,-97.5 884.5,-97.5 884.5,-67.5 763.5,-67.5"/>
<text text-anchor="start" x="771.5" y="-85.5" font-family="Helvetica,sans-Serif" font-size="10.00" fill="#000000">drake/common/drake</text>
<text text-anchor="middle" x="824" y="-74.5" font-family="Helvetica,sans-Serif" font-size="10.00" fill="#000000">_assert.h</text>
</a>
</g>
</g>
<!-- Node15&#45;&gt;Node17 -->
<g id="edge22" class="edge">
<title>Node15&#45;&gt;Node17</title>
<path fill="none" stroke="#191970" d="M788.4381,-134.2967C794.1431,-125.9873 801.3354,-115.5115 807.7567,-106.1587"/>
<polygon fill="#191970" stroke="#191970" points="810.8285,-107.8682 813.6032,-97.6432 805.0577,-103.9062 810.8285,-107.8682"/>
</g>
<!-- Node17&#45;&gt;Node16 -->
<g id="edge23" class="edge">
<title>Node17&#45;&gt;Node16</title>
<path fill="none" stroke="#191970" d="M803.8045,-67.2967C789.534,-56.5537 770.4532,-42.1895 756.0052,-31.3129"/>
<polygon fill="#191970" stroke="#191970" points="757.7867,-28.2731 747.6924,-25.055 753.5766,-33.8656 757.7867,-28.2731"/>
</g>
<!-- Node18&#45;&gt;Node7 -->
<g id="edge26" class="edge">
<title>Node18&#45;&gt;Node7</title>
<path fill="none" stroke="#191970" d="M555.4293,-201.4968C576.2798,-193.935 603.7241,-181.8188 624,-165 645.7127,-146.9894 663.356,-119.2111 673.5197,-100.9442"/>
<polygon fill="#191970" stroke="#191970" points="676.6061,-102.5946 678.2551,-92.1288 670.4395,-99.282 676.6061,-102.5946"/>
</g>
<!-- Node18&#45;&gt;Node11 -->
<g id="edge25" class="edge">
<title>Node18&#45;&gt;Node11</title>
<path fill="none" stroke="#191970" d="M510.4688,-201.3906C495.5906,-191.5519 472.2496,-176.1167 454.8872,-164.6351"/>
<polygon fill="#191970" stroke="#191970" points="456.701,-161.6385 446.4292,-159.0419 452.8398,-167.4773 456.701,-161.6385"/>
</g>
<!-- Node18&#45;&gt;Node15 -->
<g id="edge27" class="edge">
<title>Node18&#45;&gt;Node15</title>
<path fill="none" stroke="#191970" d="M564.2537,-201.4581C602.3992,-192.1856 661.1813,-177.8966 707.454,-166.6485"/>
<polygon fill="#191970" stroke="#191970" points="708.5344,-169.9879 717.4247,-164.2248 706.8809,-163.186 708.5344,-169.9879"/>
</g>
<!-- Node19 -->
<g id="node20" class="node">
<title>Node19</title>
<g id="a_node20"><a xlink:href="nice__type__name_8h.html" target="_top" xlink:title=" ">
<polygon fill="#ffffff" stroke="#000000" points="475,-134.5 475,-164.5 615,-164.5 615,-134.5 475,-134.5"/>
<text text-anchor="start" x="483" y="-152.5" font-family="Helvetica,sans-Serif" font-size="10.00" fill="#000000">drake/common/nice_type</text>
<text text-anchor="middle" x="545" y="-141.5" font-family="Helvetica,sans-Serif" font-size="10.00" fill="#000000">_name.h</text>
</a>
</g>
</g>
<!-- Node18&#45;&gt;Node19 -->
<g id="edge28" class="edge">
<title>Node18&#45;&gt;Node19</title>
<path fill="none" stroke="#191970" d="M528.125,-201.3906C530.5059,-194.0692 533.8947,-183.6488 537.0115,-174.0647"/>
<polygon fill="#191970" stroke="#191970" points="540.3432,-175.1368 540.1074,-164.5446 533.6863,-172.9719 540.3432,-175.1368"/>
</g>
<!-- Node19&#45;&gt;Node3 -->
<g id="edge29" class="edge">
<title>Node19&#45;&gt;Node3</title>
<path fill="none" stroke="#191970" d="M474.8558,-135.5525C407.9194,-122.1327 314.836,-103.1421 298,-98 295.7002,-97.2976 293.3463,-96.511 290.9926,-95.6746"/>
<polygon fill="#191970" stroke="#191970" points="292.0476,-92.3312 281.4567,-92.0441 289.557,-98.8732 292.0476,-92.3312"/>
</g>
<!-- Node19&#45;&gt;Node6 -->
<g id="edge30" class="edge">
<title>Node19&#45;&gt;Node6</title>
<path fill="none" stroke="#191970" d="M496.5254,-134.4639C455.2045,-121.6468 396.9776,-103.5856 361.1792,-92.4815"/>
<polygon fill="#191970" stroke="#191970" points="361.8595,-89.0281 351.2715,-89.4083 359.7856,-95.7138 361.8595,-89.0281"/>
</g>
<!-- Node19&#45;&gt;Node7 -->
<g id="edge33" class="edge">
<title>Node19&#45;&gt;Node7</title>
<path fill="none" stroke="#191970" d="M575.9699,-134.4639C599.3331,-123.1209 631.1559,-107.6707 654.0194,-96.5703"/>
<polygon fill="#191970" stroke="#191970" points="655.7516,-99.62 663.2188,-92.1039 652.6943,-93.323 655.7516,-99.62"/>
</g>
<!-- Node19&#45;&gt;Node14 -->
<g id="edge32" class="edge">
<title>Node19&#45;&gt;Node14</title>
<path fill="none" stroke="#191970" d="M490.6697,-134.4464C471.1881,-126.5297 450.6805,-114.854 437,-98 422.4627,-80.0905 418.2254,-53.2421 417.1274,-35.0796"/>
<polygon fill="#191970" stroke="#191970" points="420.6243,-34.9258 416.7855,-25.0509 413.6284,-35.1644 420.6243,-34.9258"/>
</g>
<!-- Node20 -->
<g id="node21" class="node">
<title>Node20</title>
<g id="a_node21"><a xlink:title=" ">
<polygon fill="#ffffff" stroke="#bfbfbf" points="445.5,-73 445.5,-92 502.5,-92 502.5,-73 445.5,-73"/>
<text text-anchor="middle" x="474" y="-80" font-family="Helvetica,sans-Serif" font-size="10.00" fill="#000000">typeinfo</text>
</a>
</g>
</g>
<!-- Node19&#45;&gt;Node20 -->
<g id="edge31" class="edge">
<title>Node19&#45;&gt;Node20</title>
<path fill="none" stroke="#191970" d="M528.889,-134.2967C517.7195,-123.7564 502.856,-109.7303 491.4133,-98.9323"/>
<polygon fill="#191970" stroke="#191970" points="493.8006,-96.3727 484.1254,-92.055 488.9963,-101.4638 493.8006,-96.3727"/>
</g>
<!-- Node21 -->
<g id="node22" class="node">
<title>Node21</title>
<g id="a_node22"><a xlink:href="never__destroyed_8h.html" target="_top" xlink:title=" ">
<polygon fill="#ffffff" stroke="#000000" points="520.5,-67.5 520.5,-97.5 641.5,-97.5 641.5,-67.5 520.5,-67.5"/>
<text text-anchor="start" x="528.5" y="-85.5" font-family="Helvetica,sans-Serif" font-size="10.00" fill="#000000">drake/common/never</text>
<text text-anchor="middle" x="581" y="-74.5" font-family="Helvetica,sans-Serif" font-size="10.00" fill="#000000">_destroyed.h</text>
</a>
</g>
</g>
<!-- Node19&#45;&gt;Node21 -->
<g id="edge34" class="edge">
<title>Node19&#45;&gt;Node21</title>
<path fill="none" stroke="#191970" d="M553.169,-134.2967C557.5416,-126.1586 563.0309,-115.9425 567.9763,-106.7386"/>
<polygon fill="#191970" stroke="#191970" points="571.2133,-108.1087 572.8634,-97.6432 565.047,-104.7955 571.2133,-108.1087"/>
</g>
<!-- Node21&#45;&gt;Node9 -->
<g id="edge38" class="edge">
<title>Node21&#45;&gt;Node9</title>
<path fill="none" stroke="#191970" d="M641.6873,-68.9694C644.8354,-68.2965 647.954,-67.6365 651,-67 715.6895,-53.4821 789.5811,-39.0489 842.3644,-28.9119"/>
<polygon fill="#191970" stroke="#191970" points="843.1369,-32.3277 852.2988,-27.0069 841.8185,-25.4529 843.1369,-32.3277"/>
</g>
<!-- Node21&#45;&gt;Node14 -->
<g id="edge37" class="edge">
<title>Node21&#45;&gt;Node14</title>
<path fill="none" stroke="#191970" d="M544.1952,-67.4639C515.598,-55.7809 476.3356,-39.7408 449.0266,-28.584"/>
<polygon fill="#191970" stroke="#191970" points="450.1291,-25.2537 439.5481,-24.7117 447.4817,-31.7338 450.1291,-25.2537"/>
</g>
<!-- Node21&#45;&gt;Node16 -->
<g id="edge36" class="edge">
<title>Node21&#45;&gt;Node16</title>
<path fill="none" stroke="#191970" d="M615.5606,-67.4639C641.9818,-55.969 678.0979,-40.2561 703.6791,-29.1266"/>
<polygon fill="#191970" stroke="#191970" points="705.1519,-32.3028 712.9253,-25.1039 702.3592,-25.884 705.1519,-32.3028"/>
</g>
<!-- Node22 -->
<g id="node23" class="node">
<title>Node22</title>
<g id="a_node23"><a xlink:title=" ">
<polygon fill="#ffffff" stroke="#bfbfbf" points="562.5,-6 562.5,-25 599.5,-25 599.5,-6 562.5,-6"/>
<text text-anchor="middle" x="581" y="-13" font-family="Helvetica,sans-Serif" font-size="10.00" fill="#000000">new</text>
</a>
</g>
</g>
<!-- Node21&#45;&gt;Node22 -->
<g id="edge35" class="edge">
<title>Node21&#45;&gt;Node22</title>
<path fill="none" stroke="#191970" d="M581,-67.2967C581,-57.7699 581,-45.3954 581,-35.1306"/>
<polygon fill="#191970" stroke="#191970" points="584.5001,-35.0549 581,-25.055 577.5001,-35.055 584.5001,-35.0549"/>
</g>
</g>
</svg>
