<?xml version="1.0" encoding="UTF-8" standalone="no"?>
<!DOCTYPE svg PUBLIC "-//W3C//DTD SVG 1.1//EN"
 "http://www.w3.org/Graphics/SVG/1.1/DTD/svg11.dtd">
<!-- Generated by graphviz version 2.40.1 (20161225.0304)
 -->
<!-- Title: drake/lcm/drake_lcm.h Pages: 1 -->
<!--zoomable 352 -->
<svg id="main" version="1.1" xmlns="http://www.w3.org/2000/svg" xmlns:xlink="http://www.w3.org/1999/xlink" xml:space="preserve" onload="init(evt)">
<style type="text/css"><![CDATA[
.edge:hover path { stroke: red; }
.edge:hover polygon { stroke: red; fill: red; }
]]></style>
<script type="text/javascript"><![CDATA[
var edges = document.getElementsByTagName('g');
if (edges && edges.length) {
  for (var i=0;i<edges.length;i++) {
    if (edges[i].id.substr(0,4)=='edge') {
      edges[i].setAttribute('class','edge');
    }
  }
}
]]></script>
        <defs>
                <circle id="rim" cx="0" cy="0" r="7"/>
                <circle id="rim2" cx="0" cy="0" r="3.5"/>
                <g id="zoomPlus">
                        <use xlink:href="#rim" fill="#404040">
                                <set attributeName="fill" to="#808080" begin="zoomplus.mouseover" end="zoomplus.mouseout"/>
                        </use>
                        <path d="M-4,0h8M0,-4v8" fill="none" stroke="white" stroke-width="1.5" pointer-events="none"/>
                </g>
                <g id="zoomMin">
                        <use xlink:href="#rim" fill="#404040">
                                <set attributeName="fill" to="#808080" begin="zoomminus.mouseover" end="zoomminus.mouseout"/>
                        </use>
                        <path d="M-4,0h8" fill="none" stroke="white" stroke-width="1.5" pointer-events="none"/>
                </g>
                <g id="dirArrow">
                        <path fill="none" stroke="white" stroke-width="1.5" d="M0,-3.0v7 M-2.5,-0.5L0,-3.0L2.5,-0.5"/>
                </g>
               <g id="resetDef">
                       <use xlink:href="#rim2" fill="#404040">
                               <set attributeName="fill" to="#808080" begin="reset.mouseover" end="reset.mouseout"/>
                       </use>
               </g>
        </defs>

<script type="text/javascript">
var viewWidth = 876;
var viewHeight = 352;
var sectionId = 'dynsection-0';
</script>
<script xlink:href="svgpan.js"/>
<svg id="graph" class="graph">
<g id="viewport">
<title>drake/lcm/drake_lcm.h</title>
<polygon fill="#ffffff" stroke="transparent" points="-4,4 -4,-348 872.3243,-348 872.3243,4 -4,4"/>
<!-- Node0 -->
<g id="node1" class="node">
<title>Node0</title>
<g id="a_node1"><a xlink:title=" ">
<polygon fill="#bfbfbf" stroke="#000000" points="499.3243,-324.5 499.3243,-343.5 627.3243,-343.5 627.3243,-324.5 499.3243,-324.5"/>
<text text-anchor="middle" x="563.3243" y="-331.5" font-family="Helvetica,sans-Serif" font-size="10.00" fill="#000000">drake/lcm/drake_lcm.h</text>
</a>
</g>
</g>
<!-- Node1 -->
<g id="node2" class="node">
<title>Node1</title>
<g id="a_node2"><a xlink:title=" ">
<polygon fill="#ffffff" stroke="#bfbfbf" points="22.3243,-73 22.3243,-92 80.3243,-92 80.3243,-73 22.3243,-73"/>
<text text-anchor="middle" x="51.3243" y="-80" font-family="Helvetica,sans-Serif" font-size="10.00" fill="#000000">memory</text>
</a>
</g>
</g>
<!-- Node0&#45;&gt;Node1 -->
<g id="edge1" class="edge">
<title>Node0&#45;&gt;Node1</title>
<path fill="none" stroke="#191970" d="M499.2689,-331.3128C366.1046,-324.1766 67.0343,-299.5579 10.3243,-221 -16.694,-183.5727 16.3416,-128.3599 37.0366,-100.2905"/>
<polygon fill="#191970" stroke="#191970" points="39.938,-102.2581 43.2303,-92.1878 34.3766,-98.007 39.938,-102.2581"/>
</g>
<!-- Node2 -->
<g id="node3" class="node">
<title>Node2</title>
<g id="a_node3"><a xlink:title=" ">
<polygon fill="#ffffff" stroke="#bfbfbf" points="19.3243,-201.5 19.3243,-220.5 75.3243,-220.5 75.3243,-201.5 19.3243,-201.5"/>
<text text-anchor="middle" x="47.3243" y="-208.5" font-family="Helvetica,sans-Serif" font-size="10.00" fill="#000000">optional</text>
</a>
</g>
</g>
<!-- Node0&#45;&gt;Node2 -->
<g id="edge2" class="edge">
<title>Node0&#45;&gt;Node2</title>
<path fill="none" stroke="#191970" d="M511.5111,-324.4978C465.1691,-315.773 395.4778,-302.0951 335.3243,-288 244.9536,-266.8244 139.862,-237.5294 85.0244,-221.8829"/>
<polygon fill="#191970" stroke="#191970" points="85.9617,-218.5107 75.3847,-219.1252 84.0364,-225.2407 85.9617,-218.5107"/>
</g>
<!-- Node3 -->
<g id="node4" class="node">
<title>Node3</title>
<g id="a_node4"><a xlink:title=" ">
<polygon fill="#ffffff" stroke="#bfbfbf" points="594.3243,-73 594.3243,-92 638.3243,-92 638.3243,-73 594.3243,-73"/>
<text text-anchor="middle" x="616.3243" y="-80" font-family="Helvetica,sans-Serif" font-size="10.00" fill="#000000">string</text>
</a>
</g>
</g>
<!-- Node0&#45;&gt;Node3 -->
<g id="edge3" class="edge">
<title>Node0&#45;&gt;Node3</title>
<path fill="none" stroke="#191970" d="M573.9831,-324.4172C593.1156,-306.4108 632.6542,-265.3247 647.3243,-221 661.1917,-179.1006 640.4777,-128.0309 626.7852,-101.1352"/>
<polygon fill="#191970" stroke="#191970" points="629.7547,-99.2648 621.9679,-92.0803 623.5748,-102.5526 629.7547,-99.2648"/>
</g>
<!-- Node4 -->
<g id="node5" class="node">
<title>Node4</title>
<g id="a_node5"><a xlink:title=" ">
<polygon fill="#ffffff" stroke="#bfbfbf" points="770.3243,-263 770.3243,-282 868.3243,-282 868.3243,-263 770.3243,-263"/>
<text text-anchor="middle" x="819.3243" y="-270" font-family="Helvetica,sans-Serif" font-size="10.00" fill="#000000">lcm/lcm&#45;cpp.hpp</text>
</a>
</g>
</g>
<!-- Node0&#45;&gt;Node4 -->
<g id="edge4" class="edge">
<title>Node0&#45;&gt;Node4</title>
<path fill="none" stroke="#191970" d="M603.6366,-324.4819C642.6958,-315.2383 703.5969,-300.7697 756.3243,-288 761.0042,-286.8666 765.878,-285.6795 770.7503,-284.4882"/>
<polygon fill="#191970" stroke="#191970" points="771.8074,-287.8328 780.6869,-282.053 770.1412,-281.034 771.8074,-287.8328"/>
</g>
<!-- Node5 -->
<g id="node6" class="node">
<title>Node5</title>
<g id="a_node6"><a xlink:href="drake__copyable_8h.html" target="_top" xlink:title="Provides careful macros to selectively enable or disable the special member functions for copy&#45;constr...">
<polygon fill="#ffffff" stroke="#000000" points="605.8243,-.5 605.8243,-30.5 726.8243,-30.5 726.8243,-.5 605.8243,-.5"/>
<text text-anchor="start" x="613.8243" y="-18.5" font-family="Helvetica,sans-Serif" font-size="10.00" fill="#000000">drake/common/drake</text>
<text text-anchor="middle" x="666.3243" y="-7.5" font-family="Helvetica,sans-Serif" font-size="10.00" fill="#000000">_copyable.h</text>
</a>
</g>
</g>
<!-- Node0&#45;&gt;Node5 -->
<g id="edge5" class="edge">
<title>Node0&#45;&gt;Node5</title>
<path fill="none" stroke="#191970" d="M606.6552,-324.4194C659.6308,-309.8533 742.3243,-276.6084 742.3243,-211 742.3243,-211 742.3243,-211 742.3243,-149.5 742.3243,-105.8187 711.3904,-63.3321 688.9933,-38.2952"/>
<polygon fill="#191970" stroke="#191970" points="691.4273,-35.7719 682.0715,-30.8 686.2848,-40.5211 691.4273,-35.7719"/>
</g>
<!-- Node6 -->
<g id="node7" class="node">
<title>Node6</title>
<g id="a_node7"><a xlink:href="drake__lcm__interface_8h.html" target="_top" xlink:title=" ">
<polygon fill="#ffffff" stroke="#000000" points="344.8243,-257.5 344.8243,-287.5 463.8243,-287.5 463.8243,-257.5 344.8243,-257.5"/>
<text text-anchor="start" x="352.8243" y="-275.5" font-family="Helvetica,sans-Serif" font-size="10.00" fill="#000000">drake/lcm/drake_lcm</text>
<text text-anchor="middle" x="404.3243" y="-264.5" font-family="Helvetica,sans-Serif" font-size="10.00" fill="#000000">_interface.h</text>
</a>
</g>
</g>
<!-- Node0&#45;&gt;Node6 -->
<g id="edge6" class="edge">
<title>Node0&#45;&gt;Node6</title>
<path fill="none" stroke="#191970" d="M538.4805,-324.3906C515.5671,-315.5279 480.913,-302.1239 452.5657,-291.1594"/>
<polygon fill="#191970" stroke="#191970" points="453.8094,-287.8878 443.2201,-287.5446 451.2841,-294.4165 453.8094,-287.8878"/>
</g>
<!-- Node6&#45;&gt;Node1 -->
<g id="edge9" class="edge">
<title>Node6&#45;&gt;Node1</title>
<path fill="none" stroke="#191970" d="M344.5594,-262.524C286.0346,-252.1794 201.4053,-235.5178 171.3243,-221 135.7546,-203.8332 128.4072,-194.6577 102.3243,-165 84.941,-145.2342 69.771,-118.8461 60.5929,-101.2932"/>
<polygon fill="#191970" stroke="#191970" points="63.5664,-99.4193 55.91,-92.0961 57.3285,-102.5956 63.5664,-99.4193"/>
</g>
<!-- Node6&#45;&gt;Node2 -->
<g id="edge10" class="edge">
<title>Node6&#45;&gt;Node2</title>
<path fill="none" stroke="#191970" d="M344.5845,-264.0365C281.0565,-254.7323 177.7496,-238.7315 89.3243,-221 88.0841,-220.7513 86.8249,-220.492 85.5547,-220.2244"/>
<polygon fill="#191970" stroke="#191970" points="86.2496,-216.7936 75.73,-218.0546 84.7399,-223.6289 86.2496,-216.7936"/>
</g>
<!-- Node6&#45;&gt;Node3 -->
<g id="edge12" class="edge">
<title>Node6&#45;&gt;Node3</title>
<path fill="none" stroke="#191970" d="M418.4879,-257.4544C433.3037,-242.1885 457.6573,-218.3927 481.3243,-201 507.3107,-181.9028 519.3745,-185.4331 544.3243,-165 567.8702,-145.7166 590.1245,-118.2873 603.4942,-100.4418"/>
<polygon fill="#191970" stroke="#191970" points="606.5385,-102.2093 609.6356,-92.0772 600.896,-98.0664 606.5385,-102.2093"/>
</g>
<!-- Node6&#45;&gt;Node5 -->
<g id="edge15" class="edge">
<title>Node6&#45;&gt;Node5</title>
<path fill="none" stroke="#191970" d="M463.9099,-267.8526C527.8479,-261.5398 623.4613,-247.8226 647.3243,-221 692.1118,-170.6578 681.3494,-83.3791 672.4829,-40.6003"/>
<polygon fill="#191970" stroke="#191970" points="675.878,-39.7431 670.3045,-30.7327 669.0426,-41.2521 675.878,-39.7431"/>
</g>
<!-- Node7 -->
<g id="node8" class="node">
<title>Node7</title>
<g id="a_node8"><a xlink:title=" ">
<polygon fill="#ffffff" stroke="#bfbfbf" points="111.3243,-140 111.3243,-159 161.3243,-159 161.3243,-140 111.3243,-140"/>
<text text-anchor="middle" x="136.3243" y="-147" font-family="Helvetica,sans-Serif" font-size="10.00" fill="#000000">cstdint</text>
</a>
</g>
</g>
<!-- Node6&#45;&gt;Node7 -->
<g id="edge7" class="edge">
<title>Node6&#45;&gt;Node7</title>
<path fill="none" stroke="#191970" d="M344.6932,-267.2542C301.4353,-261.2424 242.9326,-248.3931 198.3243,-221 176.555,-207.6319 158.3583,-184.1269 147.4249,-167.7298"/>
<polygon fill="#191970" stroke="#191970" points="150.1936,-165.5629 141.8548,-159.0272 144.2978,-169.3365 150.1936,-165.5629"/>
</g>
<!-- Node8 -->
<g id="node9" class="node">
<title>Node8</title>
<g id="a_node9"><a xlink:title=" ">
<polygon fill="#ffffff" stroke="#bfbfbf" points="489.8243,-201.5 489.8243,-220.5 554.8243,-220.5 554.8243,-201.5 489.8243,-201.5"/>
<text text-anchor="middle" x="522.3243" y="-208.5" font-family="Helvetica,sans-Serif" font-size="10.00" fill="#000000">functional</text>
</a>
</g>
</g>
<!-- Node6&#45;&gt;Node8 -->
<g id="edge8" class="edge">
<title>Node6&#45;&gt;Node8</title>
<path fill="none" stroke="#191970" d="M433.1903,-257.4554C452.0154,-247.644 476.4353,-234.9167 494.9535,-225.2653"/>
<polygon fill="#191970" stroke="#191970" points="496.7883,-228.2559 504.0385,-220.5303 493.553,-222.0484 496.7883,-228.2559"/>
</g>
<!-- Node9 -->
<g id="node10" class="node">
<title>Node9</title>
<g id="a_node10"><a xlink:title=" ">
<polygon fill="#ffffff" stroke="#bfbfbf" points="572.8243,-201.5 572.8243,-220.5 637.8243,-220.5 637.8243,-201.5 572.8243,-201.5"/>
<text text-anchor="middle" x="605.3243" y="-208.5" font-family="Helvetica,sans-Serif" font-size="10.00" fill="#000000">stdexcept</text>
</a>
</g>
</g>
<!-- Node6&#45;&gt;Node9 -->
<g id="edge11" class="edge">
<title>Node6&#45;&gt;Node9</title>
<path fill="none" stroke="#191970" d="M453.4944,-257.4554C487.4731,-247.059 532.1524,-233.3884 564.2329,-223.5727"/>
<polygon fill="#191970" stroke="#191970" points="565.6381,-226.803 574.1764,-220.5303 563.59,-220.1094 565.6381,-226.803"/>
</g>
<!-- Node10 -->
<g id="node11" class="node">
<title>Node10</title>
<g id="a_node11"><a xlink:title=" ">
<polygon fill="#ffffff" stroke="#bfbfbf" points="85.8243,-6 85.8243,-25 130.8243,-25 130.8243,-6 85.8243,-6"/>
<text text-anchor="middle" x="108.3243" y="-13" font-family="Helvetica,sans-Serif" font-size="10.00" fill="#000000">utility</text>
</a>
</g>
</g>
<!-- Node6&#45;&gt;Node10 -->
<g id="edge13" class="edge">
<title>Node6&#45;&gt;Node10</title>
<path fill="none" stroke="#191970" d="M344.6376,-262.9734C270.8643,-250.9109 152.7543,-230.5519 134.3243,-221 66.2408,-185.7135 41.5771,-169.2901 13.3243,-98 8.2482,-85.1914 6.2759,-78.8384 13.3243,-67 26.8073,-44.3541 54.101,-31.0539 75.9874,-23.6618"/>
<polygon fill="#191970" stroke="#191970" points="77.0876,-26.9851 85.5938,-20.6689 75.0053,-20.3019 77.0876,-26.9851"/>
</g>
<!-- Node11 -->
<g id="node12" class="node">
<title>Node11</title>
<g id="a_node12"><a xlink:title=" ">
<polygon fill="#ffffff" stroke="#bfbfbf" points="350.8243,-73 350.8243,-92 397.8243,-92 397.8243,-73 350.8243,-73"/>
<text text-anchor="middle" x="374.3243" y="-80" font-family="Helvetica,sans-Serif" font-size="10.00" fill="#000000">vector</text>
</a>
</g>
</g>
<!-- Node6&#45;&gt;Node11 -->
<g id="edge14" class="edge">
<title>Node6&#45;&gt;Node11</title>
<path fill="none" stroke="#191970" d="M401.92,-257.2727C396.5269,-223.1167 383.4677,-140.408 377.4527,-102.313"/>
<polygon fill="#191970" stroke="#191970" points="380.8453,-101.3576 375.8284,-92.0258 373.9309,-102.4494 380.8453,-101.3576"/>
</g>
<!-- Node12 -->
<g id="node13" class="node">
<title>Node12</title>
<g id="a_node13"><a xlink:href="drake__throw_8h.html" target="_top" xlink:title="Provides a convenient wrapper to throw an exception when a condition is unmet.">
<polygon fill="#ffffff" stroke="#000000" points="413.8243,-134.5 413.8243,-164.5 534.8243,-164.5 534.8243,-134.5 413.8243,-134.5"/>
<text text-anchor="start" x="421.8243" y="-152.5" font-family="Helvetica,sans-Serif" font-size="10.00" fill="#000000">drake/common/drake</text>
<text text-anchor="middle" x="474.3243" y="-141.5" font-family="Helvetica,sans-Serif" font-size="10.00" fill="#000000">_throw.h</text>
</a>
</g>
</g>
<!-- Node6&#45;&gt;Node12 -->
<g id="edge16" class="edge">
<title>Node6&#45;&gt;Node12</title>
<path fill="none" stroke="#191970" d="M412.9077,-257.4178C424.8206,-236.485 446.4954,-198.3994 460.65,-173.5276"/>
<polygon fill="#191970" stroke="#191970" points="463.7664,-175.1279 465.6707,-164.7056 457.6826,-171.6655 463.7664,-175.1279"/>
</g>
<!-- Node15 -->
<g id="node16" class="node">
<title>Node15</title>
<g id="a_node16"><a xlink:href="lcm__messages_8h.html" target="_top" xlink:title=" ">
<polygon fill="#ffffff" stroke="#000000" points="207.3243,-201.5 207.3243,-220.5 357.3243,-220.5 357.3243,-201.5 207.3243,-201.5"/>
<text text-anchor="middle" x="282.3243" y="-208.5" font-family="Helvetica,sans-Serif" font-size="10.00" fill="#000000">drake/lcm/lcm_messages.h</text>
</a>
</g>
</g>
<!-- Node6&#45;&gt;Node15 -->
<g id="edge20" class="edge">
<title>Node6&#45;&gt;Node15</title>
<path fill="none" stroke="#191970" d="M374.4797,-257.4554C354.9273,-247.599 329.5371,-234.7999 310.3598,-225.1327"/>
<polygon fill="#191970" stroke="#191970" points="311.7351,-221.9064 301.23,-220.5303 308.5841,-228.1571 311.7351,-221.9064"/>
</g>
<!-- Node13 -->
<g id="node14" class="node">
<title>Node13</title>
<g id="a_node14"><a xlink:title=" ">
<polygon fill="#ffffff" stroke="#bfbfbf" points="391.8243,-6 391.8243,-25 460.8243,-25 460.8243,-6 391.8243,-6"/>
<text text-anchor="middle" x="426.3243" y="-13" font-family="Helvetica,sans-Serif" font-size="10.00" fill="#000000">type_traits</text>
</a>
</g>
</g>
<!-- Node12&#45;&gt;Node13 -->
<g id="edge17" class="edge">
<title>Node12&#45;&gt;Node13</title>
<path fill="none" stroke="#191970" d="M464.6498,-134.2289C458.6709,-124.2385 451.2291,-110.7246 446.3243,-98 438.3236,-77.2438 432.8047,-52.284 429.6224,-35.2929"/>
<polygon fill="#191970" stroke="#191970" points="433.0607,-34.6363 427.866,-25.4023 426.1685,-35.8603 433.0607,-34.6363"/>
</g>
<!-- Node14 -->
<g id="node15" class="node">
<title>Node14</title>
<g id="a_node15"><a xlink:href="drake__assert_8h.html" target="_top" xlink:title="Provides Drake&#39;s assertion implementation.">
<polygon fill="#ffffff" stroke="#000000" points="454.8243,-67.5 454.8243,-97.5 575.8243,-97.5 575.8243,-67.5 454.8243,-67.5"/>
<text text-anchor="start" x="462.8243" y="-85.5" font-family="Helvetica,sans-Serif" font-size="10.00" fill="#000000">drake/common/drake</text>
<text text-anchor="middle" x="515.3243" y="-74.5" font-family="Helvetica,sans-Serif" font-size="10.00" fill="#000000">_assert.h</text>
</a>
</g>
</g>
<!-- Node12&#45;&gt;Node14 -->
<g id="edge18" class="edge">
<title>Node12&#45;&gt;Node14</title>
<path fill="none" stroke="#191970" d="M483.6278,-134.2967C488.6603,-126.0729 494.9912,-115.7272 500.6693,-106.4483"/>
<polygon fill="#191970" stroke="#191970" points="503.8233,-107.9997 506.0576,-97.6432 497.8525,-104.346 503.8233,-107.9997"/>
</g>
<!-- Node14&#45;&gt;Node13 -->
<g id="edge19" class="edge">
<title>Node14&#45;&gt;Node13</title>
<path fill="none" stroke="#191970" d="M495.1288,-67.2967C480.8583,-56.5537 461.7775,-42.1895 447.3295,-31.3129"/>
<polygon fill="#191970" stroke="#191970" points="449.111,-28.2731 439.0167,-25.055 444.9009,-33.8656 449.111,-28.2731"/>
</g>
<!-- Node15&#45;&gt;Node7 -->
<g id="edge21" class="edge">
<title>Node15&#45;&gt;Node7</title>
<path fill="none" stroke="#191970" d="M258.1808,-201.3924C235.4227,-192.2634 200.4153,-178.0328 170.3243,-165 169.1188,-164.4779 167.8914,-163.9414 166.6529,-163.3961"/>
<polygon fill="#191970" stroke="#191970" points="167.6837,-160.023 157.1262,-159.1345 164.8253,-166.4128 167.6837,-160.023"/>
</g>
<!-- Node15&#45;&gt;Node11 -->
<g id="edge22" class="edge">
<title>Node15&#45;&gt;Node11</title>
<path fill="none" stroke="#191970" d="M293.8077,-201.1747C303.6994,-192.3458 317.9759,-178.6973 328.3243,-165 343.6946,-144.6558 357.3631,-118.5909 365.7271,-101.2591"/>
<polygon fill="#191970" stroke="#191970" points="368.9122,-102.7105 370.0115,-92.1729 362.5808,-99.7251 368.9122,-102.7105"/>
</g>
<!-- Node15&#45;&gt;Node12 -->
<g id="edge23" class="edge">
<title>Node15&#45;&gt;Node12</title>
<path fill="none" stroke="#191970" d="M312.3243,-201.3906C340.3543,-192.4123 382.9338,-178.7735 417.4061,-167.7316"/>
<polygon fill="#191970" stroke="#191970" points="418.9001,-170.9283 427.3558,-164.5446 416.7647,-164.2619 418.9001,-170.9283"/>
</g>
<!-- Node16 -->
<g id="node17" class="node">
<title>Node16</title>
<g id="a_node17"><a xlink:href="nice__type__name_8h.html" target="_top" xlink:title=" ">
<polygon fill="#ffffff" stroke="#000000" points="179.3243,-134.5 179.3243,-164.5 319.3243,-164.5 319.3243,-134.5 179.3243,-134.5"/>
<text text-anchor="start" x="187.3243" y="-152.5" font-family="Helvetica,sans-Serif" font-size="10.00" fill="#000000">drake/common/nice_type</text>
<text text-anchor="middle" x="249.3243" y="-141.5" font-family="Helvetica,sans-Serif" font-size="10.00" fill="#000000">_name.h</text>
</a>
</g>
</g>
<!-- Node15&#45;&gt;Node16 -->
<g id="edge24" class="edge">
<title>Node15&#45;&gt;Node16</title>
<path fill="none" stroke="#191970" d="M277.168,-201.3906C273.1568,-193.9151 267.4119,-183.2087 262.1811,-173.4605"/>
<polygon fill="#191970" stroke="#191970" points="265.2093,-171.7013 257.397,-164.5446 259.0412,-175.0111 265.2093,-171.7013"/>
</g>
<!-- Node16&#45;&gt;Node1 -->
<g id="edge25" class="edge">
<title>Node16&#45;&gt;Node1</title>
<path fill="none" stroke="#191970" d="M203.1018,-134.4795C172.233,-124.3655 130.7655,-110.6196 94.3243,-98 92.0466,-97.2112 89.7041,-96.3914 87.3441,-95.5591"/>
<polygon fill="#191970" stroke="#191970" points="88.2608,-92.1703 77.6661,-92.1138 85.9132,-98.7649 88.2608,-92.1703"/>
</g>
<!-- Node16&#45;&gt;Node3 -->
<g id="edge26" class="edge">
<title>Node16&#45;&gt;Node3</title>
<path fill="none" stroke="#191970" d="M319.5833,-141.3389C403.0843,-131.1841 537.169,-113.3124 585.3243,-98 586.9801,-97.4735 588.6567,-96.8686 590.3285,-96.2096"/>
<polygon fill="#191970" stroke="#191970" points="591.9815,-99.304 599.67,-92.0145 589.1138,-92.9184 591.9815,-99.304"/>
</g>
<!-- Node16&#45;&gt;Node10 -->
<g id="edge28" class="edge">
<title>Node16&#45;&gt;Node10</title>
<path fill="none" stroke="#191970" d="M183.5183,-134.4557C162.878,-126.7203 141.7452,-115.1609 127.3243,-98 112.5246,-80.3883 108.7195,-53.4736 107.9971,-35.2146"/>
<polygon fill="#191970" stroke="#191970" points="111.4959,-35.0817 107.875,-25.1249 104.4964,-35.1665 111.4959,-35.0817"/>
</g>
<!-- Node16&#45;&gt;Node11 -->
<g id="edge29" class="edge">
<title>Node16&#45;&gt;Node11</title>
<path fill="none" stroke="#191970" d="M277.3767,-134.4639C298.3501,-123.2222 326.8499,-107.9463 347.5171,-96.8686"/>
<polygon fill="#191970" stroke="#191970" points="349.2463,-99.913 356.4065,-92.1039 345.9393,-93.7433 349.2463,-99.913"/>
</g>
<!-- Node17 -->
<g id="node18" class="node">
<title>Node17</title>
<g id="a_node18"><a xlink:title=" ">
<polygon fill="#ffffff" stroke="#bfbfbf" points="275.8243,-73 275.8243,-92 332.8243,-92 332.8243,-73 275.8243,-73"/>
<text text-anchor="middle" x="304.3243" y="-80" font-family="Helvetica,sans-Serif" font-size="10.00" fill="#000000">typeinfo</text>
</a>
</g>
</g>
<!-- Node16&#45;&gt;Node17 -->
<g id="edge27" class="edge">
<title>Node16&#45;&gt;Node17</title>
<path fill="none" stroke="#191970" d="M261.8046,-134.2967C270.2075,-124.0605 281.3092,-110.5366 290.0616,-99.8746"/>
<polygon fill="#191970" stroke="#191970" points="292.841,-102.005 296.4807,-92.055 287.4304,-97.5635 292.841,-102.005"/>
</g>
<!-- Node18 -->
<g id="node19" class="node">
<title>Node18</title>
<g id="a_node19"><a xlink:href="never__destroyed_8h.html" target="_top" xlink:title=" ">
<polygon fill="#ffffff" stroke="#000000" points="136.8243,-67.5 136.8243,-97.5 257.8243,-97.5 257.8243,-67.5 136.8243,-67.5"/>
<text text-anchor="start" x="144.8243" y="-85.5" font-family="Helvetica,sans-Serif" font-size="10.00" fill="#000000">drake/common/never</text>
<text text-anchor="middle" x="197.3243" y="-74.5" font-family="Helvetica,sans-Serif" font-size="10.00" fill="#000000">_destroyed.h</text>
</a>
</g>
</g>
<!-- Node16&#45;&gt;Node18 -->
<g id="edge30" class="edge">
<title>Node16&#45;&gt;Node18</title>
<path fill="none" stroke="#191970" d="M237.5247,-134.2967C230.9427,-125.816 222.6091,-115.0785 215.2384,-105.5817"/>
<polygon fill="#191970" stroke="#191970" points="217.9734,-103.3971 209.0772,-97.6432 212.4435,-107.689 217.9734,-103.3971"/>
</g>
<!-- Node18&#45;&gt;Node5 -->
<g id="edge34" class="edge">
<title>Node18&#45;&gt;Node5</title>
<path fill="none" stroke="#191970" d="M257.8423,-68.5713C260.7051,-68.0176 263.5433,-67.4903 266.3243,-67 381.053,-46.7732 515.616,-31.0842 595.7678,-22.5786"/>
<polygon fill="#191970" stroke="#191970" points="596.1695,-26.0557 605.7476,-21.5268 595.4358,-19.0942 596.1695,-26.0557"/>
</g>
<!-- Node18&#45;&gt;Node10 -->
<g id="edge33" class="edge">
<title>Node18&#45;&gt;Node10</title>
<path fill="none" stroke="#191970" d="M177.1288,-67.2967C162.8583,-56.5537 143.7775,-42.1895 129.3295,-31.3129"/>
<polygon fill="#191970" stroke="#191970" points="131.111,-28.2731 121.0167,-25.055 126.9009,-33.8656 131.111,-28.2731"/>
</g>
<!-- Node18&#45;&gt;Node13 -->
<g id="edge32" class="edge">
<title>Node18&#45;&gt;Node13</title>
<path fill="none" stroke="#191970" d="M248.7164,-67.4639C289.5107,-55.5284 345.8476,-39.0456 384.0524,-27.8678"/>
<polygon fill="#191970" stroke="#191970" points="385.2213,-31.1726 393.8361,-25.0053 383.2556,-24.4542 385.2213,-31.1726"/>
</g>
<!-- Node19 -->
<g id="node20" class="node">
<title>Node19</title>
<g id="a_node20"><a xlink:title=" ">
<polygon fill="#ffffff" stroke="#bfbfbf" points="178.8243,-6 178.8243,-25 215.8243,-25 215.8243,-6 178.8243,-6"/>
<text text-anchor="middle" x="197.3243" y="-13" font-family="Helvetica,sans-Serif" font-size="10.00" fill="#000000">new</text>
</a>
</g>
</g>
<!-- Node18&#45;&gt;Node19 -->
<g id="edge31" class="edge">
<title>Node18&#45;&gt;Node19</title>
<path fill="none" stroke="#191970" d="M197.3243,-67.2967C197.3243,-57.7699 197.3243,-45.3954 197.3243,-35.1306"/>
<polygon fill="#191970" stroke="#191970" points="200.8244,-35.0549 197.3243,-25.055 193.8244,-35.055 200.8244,-35.0549"/>
</g>
</g>
</svg>
        <g id="navigator" transform="translate(0 0)" fill="#404254">
                <rect fill="#f2f5e9" fill-opacity="0.5" stroke="#606060" stroke-width=".5" x="0" y="0" width="60" height="60"/>
                <use id="zoomplus" xlink:href="#zoomPlus" x="17" y="9" onmousedown="handleZoom(evt,'in')"/>
                <use id="zoomminus" xlink:href="#zoomMin" x="42" y="9" onmousedown="handleZoom(evt,'out')"/>
                <use id="reset" xlink:href="#resetDef" x="30" y="36" onmousedown="handleReset()"/>
                <g id="arrowUp" xlink:href="#dirArrow" transform="translate(30 24)" onmousedown="handlePan(0,-1)">
                  <use xlink:href="#rim" fill="#404040">
                        <set attributeName="fill" to="#808080" begin="arrowUp.mouseover" end="arrowUp.mouseout"/>
                  </use>
                  <path fill="none" stroke="white" stroke-width="1.5" d="M0,-3.0v7 M-2.5,-0.5L0,-3.0L2.5,-0.5"/>
                </g>
                <g id="arrowRight" xlink:href="#dirArrow" transform="rotate(90) translate(36 -43)" onmousedown="handlePan(1,0)">
                  <use xlink:href="#rim" fill="#404040">
                        <set attributeName="fill" to="#808080" begin="arrowRight.mouseover" end="arrowRight.mouseout"/>
                  </use>
                  <path fill="none" stroke="white" stroke-width="1.5" d="M0,-3.0v7 M-2.5,-0.5L0,-3.0L2.5,-0.5"/>
                </g>
                <g id="arrowDown" xlink:href="#dirArrow" transform="rotate(180) translate(-30 -48)" onmousedown="handlePan(0,1)">
                  <use xlink:href="#rim" fill="#404040">
                        <set attributeName="fill" to="#808080" begin="arrowDown.mouseover" end="arrowDown.mouseout"/>
                  </use>
                  <path fill="none" stroke="white" stroke-width="1.5" d="M0,-3.0v7 M-2.5,-0.5L0,-3.0L2.5,-0.5"/>
                </g>
                <g id="arrowLeft" xlink:href="#dirArrow" transform="rotate(270) translate(-36 17)" onmousedown="handlePan(-1,0)">
                  <use xlink:href="#rim" fill="#404040">
                        <set attributeName="fill" to="#808080" begin="arrowLeft.mouseover" end="arrowLeft.mouseout"/>
                  </use>
                  <path fill="none" stroke="white" stroke-width="1.5" d="M0,-3.0v7 M-2.5,-0.5L0,-3.0L2.5,-0.5"/>
                </g>
        </g>
        <svg viewBox="0 0 15 15" width="100%" height="30px" preserveAspectRatio="xMaxYMin meet">
         <g id="arrow_out" transform="scale(0.3 0.3)">
          <a xlink:href="drake__lcm_8h__incl_org.svg" target="_base">
           <rect id="button" ry="5" rx="5" y="6" x="6" height="38" width="38"
                fill="#f2f5e9" fill-opacity="0.5" stroke="#606060" stroke-width="1.0"/>
           <path id="arrow"
             d="M 11.500037,31.436501 C 11.940474,20.09759 22.043105,11.32322 32.158766,21.979434 L 37.068811,17.246167 C 37.068811,17.246167 37.088388,32 37.088388,32 L 22.160133,31.978069 C 22.160133,31.978069 26.997745,27.140456 26.997745,27.140456 C 18.528582,18.264221 13.291696,25.230495 11.500037,31.436501 z"
             style="fill:#404040;"/>
          </a>
         </g>
        </svg>
</svg>
