<?xml version="1.0" encoding="UTF-8" standalone="no"?>
<!DOCTYPE svg PUBLIC "-//W3C//DTD SVG 1.1//EN"
 "http://www.w3.org/Graphics/SVG/1.1/DTD/svg11.dtd">
<!-- Generated by graphviz version 2.40.1 (20161225.0304)
 -->
<!-- Title: drake/lcm/drake_lcm.h Pages: 1 -->
<svg width="318pt" height="106pt"
 viewBox="0.00 0.00 317.50 106.00" xmlns="http://www.w3.org/2000/svg" xmlns:xlink="http://www.w3.org/1999/xlink">
<g id="graph0" class="graph" transform="scale(1 1) rotate(0) translate(4 102)">
<title>drake/lcm/drake_lcm.h</title>
<polygon fill="#ffffff" stroke="transparent" points="-4,4 -4,-102 313.5,-102 313.5,4 -4,4"/>
<!-- Node20 -->
<g id="node1" class="node">
<title>Node20</title>
<g id="a_node1"><a xlink:title=" ">
<polygon fill="#bfbfbf" stroke="#000000" points="99.5,-78.5 99.5,-97.5 227.5,-97.5 227.5,-78.5 99.5,-78.5"/>
<text text-anchor="middle" x="163.5" y="-85.5" font-family="Helvetica,sans-Serif" font-size="10.00" fill="#000000">drake/lcm/drake_lcm.h</text>
</a>
</g>
</g>
<!-- Node21 -->
<g id="node2" class="node">
<title>Node21</title>
<g id="a_node2"><a xlink:href="manipulation__station__hardware__interface_8h.html" target="_top" xlink:title=" ">
<polygon fill="#ffffff" stroke="#000000" points="0,-.5 0,-41.5 163,-41.5 163,-.5 0,-.5"/>
<text text-anchor="start" x="8" y="-29.5" font-family="Helvetica,sans-Serif" font-size="10.00" fill="#000000">drake/examples/manipulation</text>
<text text-anchor="start" x="8" y="-18.5" font-family="Helvetica,sans-Serif" font-size="10.00" fill="#000000">_station/manipulation_station</text>
<text text-anchor="middle" x="81.5" y="-7.5" font-family="Helvetica,sans-Serif" font-size="10.00" fill="#000000">_hardware_interface.h</text>
</a>
</g>
</g>
<!-- Node20&#45;&gt;Node21 -->
<g id="edge1" class="edge">
<title>Node20&#45;&gt;Node21</title>
<path fill="none" stroke="#191970" d="M143.8908,-71.9779C132.7577,-62.8813 118.7016,-51.3965 106.7508,-41.6318"/>
<polygon fill="#191970" stroke="#191970" points="141.7931,-74.7836 151.7514,-78.4005 146.2221,-69.3629 141.7931,-74.7836"/>
</g>
<!-- Node22 -->
<g id="node3" class="node">
<title>Node22</title>
<g id="a_node3"><a xlink:href="drake__mock__lcm_8h.html" target="_top" xlink:title=" ">
<polygon fill="#ffffff" stroke="#000000" points="181.5,-6 181.5,-36 309.5,-36 309.5,-6 181.5,-6"/>
<text text-anchor="start" x="189.5" y="-24" font-family="Helvetica,sans-Serif" font-size="10.00" fill="#000000">drake/lcm/drake_mock</text>
<text text-anchor="middle" x="245.5" y="-13" font-family="Helvetica,sans-Serif" font-size="10.00" fill="#000000">_lcm.h</text>
</a>
</g>
</g>
<!-- Node20&#45;&gt;Node22 -->
<g id="edge2" class="edge">
<title>Node20&#45;&gt;Node22</title>
<path fill="none" stroke="#191970" d="M183.3254,-71.8012C196.6541,-60.9107 214.0977,-46.6579 227.1152,-36.0218"/>
<polygon fill="#191970" stroke="#191970" points="180.7779,-69.3629 175.2486,-78.4005 185.2069,-74.7836 180.7779,-69.3629"/>
</g>
</g>
</svg>
