<?xml version="1.0" encoding="UTF-8" standalone="no"?>
<!DOCTYPE svg PUBLIC "-//W3C//DTD SVG 1.1//EN"
 "http://www.w3.org/Graphics/SVG/1.1/DTD/svg11.dtd">
<!-- Generated by graphviz version 2.40.1 (20161225.0304)
 -->
<!-- Title: drake/common/test_utilities/eigen_matrix_compare.h Pages: 1 -->
<svg width="603pt" height="162pt"
 viewBox="0.00 0.00 602.50 162.00" xmlns="http://www.w3.org/2000/svg" xmlns:xlink="http://www.w3.org/1999/xlink">
<g id="graph0" class="graph" transform="scale(1 1) rotate(0) translate(4 158)">
<title>drake/common/test_utilities/eigen_matrix_compare.h</title>
<polygon fill="#ffffff" stroke="transparent" points="-4,4 -4,-158 598.5,-158 598.5,4 -4,4"/>
<!-- Node0 -->
<g id="node1" class="node">
<title>Node0</title>
<g id="a_node1"><a xlink:title=" ">
<polygon fill="#bfbfbf" stroke="#000000" points="132,-123.5 132,-153.5 286,-153.5 286,-123.5 132,-123.5"/>
<text text-anchor="start" x="140" y="-141.5" font-family="Helvetica,sans-Serif" font-size="10.00" fill="#000000">drake/common/test_utilities</text>
<text text-anchor="middle" x="209" y="-130.5" font-family="Helvetica,sans-Serif" font-size="10.00" fill="#000000">/eigen_matrix_compare.h</text>
</a>
</g>
</g>
<!-- Node1 -->
<g id="node2" class="node">
<title>Node1</title>
<g id="a_node2"><a xlink:title=" ">
<polygon fill="#ffffff" stroke="#bfbfbf" points="0,-67.5 0,-86.5 64,-86.5 64,-67.5 0,-67.5"/>
<text text-anchor="middle" x="32" y="-74.5" font-family="Helvetica,sans-Serif" font-size="10.00" fill="#000000">algorithm</text>
</a>
</g>
</g>
<!-- Node0&#45;&gt;Node1 -->
<g id="edge1" class="edge">
<title>Node0&#45;&gt;Node1</title>
<path fill="none" stroke="#191970" d="M165.7009,-123.4554C136.0385,-113.149 97.1155,-99.6249 68.9212,-89.8286"/>
<polygon fill="#191970" stroke="#191970" points="70.0235,-86.5064 59.4287,-86.5303 67.726,-93.1186 70.0235,-86.5064"/>
</g>
<!-- Node2 -->
<g id="node3" class="node">
<title>Node2</title>
<g id="a_node3"><a xlink:title=" ">
<polygon fill="#ffffff" stroke="#bfbfbf" points="82.5,-67.5 82.5,-86.5 129.5,-86.5 129.5,-67.5 82.5,-67.5"/>
<text text-anchor="middle" x="106" y="-74.5" font-family="Helvetica,sans-Serif" font-size="10.00" fill="#000000">cmath</text>
</a>
</g>
</g>
<!-- Node0&#45;&gt;Node2 -->
<g id="edge2" class="edge">
<title>Node0&#45;&gt;Node2</title>
<path fill="none" stroke="#191970" d="M183.8034,-123.4554C167.6728,-113.8241 146.8362,-101.3828 130.7864,-91.7996"/>
<polygon fill="#191970" stroke="#191970" points="132.3416,-88.6518 121.9613,-86.5303 128.753,-94.662 132.3416,-88.6518"/>
</g>
<!-- Node3 -->
<g id="node4" class="node">
<title>Node3</title>
<g id="a_node4"><a xlink:title=" ">
<polygon fill="#ffffff" stroke="#bfbfbf" points="148,-67.5 148,-86.5 192,-86.5 192,-67.5 148,-67.5"/>
<text text-anchor="middle" x="170" y="-74.5" font-family="Helvetica,sans-Serif" font-size="10.00" fill="#000000">limits</text>
</a>
</g>
</g>
<!-- Node0&#45;&gt;Node3 -->
<g id="edge3" class="edge">
<title>Node0&#45;&gt;Node3</title>
<path fill="none" stroke="#191970" d="M199.3595,-123.2977C194.0023,-114.8498 187.2978,-104.2773 181.6487,-95.369"/>
<polygon fill="#191970" stroke="#191970" points="184.5556,-93.4176 176.2444,-86.8469 178.6441,-97.1664 184.5556,-93.4176"/>
</g>
<!-- Node4 -->
<g id="node5" class="node">
<title>Node4</title>
<g id="a_node5"><a xlink:title=" ">
<polygon fill="#ffffff" stroke="#bfbfbf" points="210.5,-67.5 210.5,-86.5 287.5,-86.5 287.5,-67.5 210.5,-67.5"/>
<text text-anchor="middle" x="249" y="-74.5" font-family="Helvetica,sans-Serif" font-size="10.00" fill="#000000">Eigen/Dense</text>
</a>
</g>
</g>
<!-- Node0&#45;&gt;Node4 -->
<g id="edge4" class="edge">
<title>Node0&#45;&gt;Node4</title>
<path fill="none" stroke="#191970" d="M218.8876,-123.2977C224.3822,-114.8498 231.2586,-104.2773 237.0527,-95.369"/>
<polygon fill="#191970" stroke="#191970" points="240.0772,-97.1381 242.5955,-86.8469 234.2092,-93.3215 240.0772,-97.1381"/>
</g>
<!-- Node5 -->
<g id="node6" class="node">
<title>Node5</title>
<g id="a_node6"><a xlink:title=" ">
<polygon fill="#ffffff" stroke="#bfbfbf" points="306,-67.5 306,-86.5 384,-86.5 384,-67.5 306,-67.5"/>
<text text-anchor="middle" x="345" y="-74.5" font-family="Helvetica,sans-Serif" font-size="10.00" fill="#000000">gtest/gtest.h</text>
</a>
</g>
</g>
<!-- Node0&#45;&gt;Node5 -->
<g id="edge5" class="edge">
<title>Node0&#45;&gt;Node5</title>
<path fill="none" stroke="#191970" d="M242.2693,-123.4554C264.3641,-113.464 293.146,-100.4487 314.6219,-90.7372"/>
<polygon fill="#191970" stroke="#191970" points="316.2553,-93.8398 323.9248,-86.5303 313.371,-87.4616 316.2553,-93.8398"/>
</g>
<!-- Node6 -->
<g id="node7" class="node">
<title>Node6</title>
<g id="a_node7"><a xlink:href="text__logging_8h.html" target="_top" xlink:title="This is the entry point for all text logging within Drake.">
<polygon fill="#ffffff" stroke="#000000" points="402.5,-67.5 402.5,-86.5 565.5,-86.5 565.5,-67.5 402.5,-67.5"/>
<text text-anchor="middle" x="484" y="-74.5" font-family="Helvetica,sans-Serif" font-size="10.00" fill="#000000">drake/common/text_logging.h</text>
</a>
</g>
</g>
<!-- Node0&#45;&gt;Node6 -->
<g id="edge6" class="edge">
<title>Node0&#45;&gt;Node6</title>
<path fill="none" stroke="#191970" d="M276.2726,-123.4554C324.0689,-112.7664 387.3409,-98.6165 431.4439,-88.7535"/>
<polygon fill="#191970" stroke="#191970" points="432.3897,-92.1285 441.3848,-86.5303 430.8619,-85.2972 432.3897,-92.1285"/>
</g>
<!-- Node7 -->
<g id="node8" class="node">
<title>Node7</title>
<g id="a_node8"><a xlink:title=" ">
<polygon fill="#ffffff" stroke="#bfbfbf" points="411,-6 411,-25 455,-25 455,-6 411,-6"/>
<text text-anchor="middle" x="433" y="-13" font-family="Helvetica,sans-Serif" font-size="10.00" fill="#000000">string</text>
</a>
</g>
</g>
<!-- Node6&#45;&gt;Node7 -->
<g id="edge7" class="edge">
<title>Node6&#45;&gt;Node7</title>
<path fill="none" stroke="#191970" d="M476.0313,-67.3906C468.4409,-58.2376 456.8339,-44.2409 447.5868,-33.09"/>
<polygon fill="#191970" stroke="#191970" points="450.1587,-30.7083 441.0811,-25.2449 444.7703,-35.1766 450.1587,-30.7083"/>
</g>
<!-- Node8 -->
<g id="node9" class="node">
<title>Node8</title>
<g id="a_node9"><a xlink:href="drake__copyable_8h.html" target="_top" xlink:title="Provides careful macros to selectively enable or disable the special member functions for copy&#45;constr...">
<polygon fill="#ffffff" stroke="#000000" points="473.5,-.5 473.5,-30.5 594.5,-30.5 594.5,-.5 473.5,-.5"/>
<text text-anchor="start" x="481.5" y="-18.5" font-family="Helvetica,sans-Serif" font-size="10.00" fill="#000000">drake/common/drake</text>
<text text-anchor="middle" x="534" y="-7.5" font-family="Helvetica,sans-Serif" font-size="10.00" fill="#000000">_copyable.h</text>
</a>
</g>
</g>
<!-- Node6&#45;&gt;Node8 -->
<g id="edge8" class="edge">
<title>Node6&#45;&gt;Node8</title>
<path fill="none" stroke="#191970" d="M491.8125,-67.3906C498.0781,-59.6839 507.1355,-48.5434 515.2529,-38.5589"/>
<polygon fill="#191970" stroke="#191970" points="518.176,-40.5117 521.7686,-30.5446 512.7446,-36.0959 518.176,-40.5117"/>
</g>
</g>
</svg>
