<?xml version="1.0" encoding="UTF-8" standalone="no"?>
<!DOCTYPE svg PUBLIC "-//W3C//DTD SVG 1.1//EN"
 "http://www.w3.org/Graphics/SVG/1.1/DTD/svg11.dtd">
<!-- Generated by graphviz version 2.40.1 (20161225.0304)
 -->
<!-- Title: drake/bindings/pydrake/common/eigen_geometry_pybind.h Pages: 1 -->
<!--zoomable 307 -->
<svg id="main" version="1.1" xmlns="http://www.w3.org/2000/svg" xmlns:xlink="http://www.w3.org/1999/xlink" xml:space="preserve" onload="init(evt)">
<style type="text/css"><![CDATA[
.edge:hover path { stroke: red; }
.edge:hover polygon { stroke: red; fill: red; }
]]></style>
<script type="text/javascript"><![CDATA[
var edges = document.getElementsByTagName('g');
if (edges && edges.length) {
  for (var i=0;i<edges.length;i++) {
    if (edges[i].id.substr(0,4)=='edge') {
      edges[i].setAttribute('class','edge');
    }
  }
}
]]></script>
        <defs>
                <circle id="rim" cx="0" cy="0" r="7"/>
                <circle id="rim2" cx="0" cy="0" r="3.5"/>
                <g id="zoomPlus">
                        <use xlink:href="#rim" fill="#404040">
                                <set attributeName="fill" to="#808080" begin="zoomplus.mouseover" end="zoomplus.mouseout"/>
                        </use>
                        <path d="M-4,0h8M0,-4v8" fill="none" stroke="white" stroke-width="1.5" pointer-events="none"/>
                </g>
                <g id="zoomMin">
                        <use xlink:href="#rim" fill="#404040">
                                <set attributeName="fill" to="#808080" begin="zoomminus.mouseover" end="zoomminus.mouseout"/>
                        </use>
                        <path d="M-4,0h8" fill="none" stroke="white" stroke-width="1.5" pointer-events="none"/>
                </g>
                <g id="dirArrow">
                        <path fill="none" stroke="white" stroke-width="1.5" d="M0,-3.0v7 M-2.5,-0.5L0,-3.0L2.5,-0.5"/>
                </g>
               <g id="resetDef">
                       <use xlink:href="#rim2" fill="#404040">
                               <set attributeName="fill" to="#808080" begin="reset.mouseover" end="reset.mouseout"/>
                       </use>
               </g>
        </defs>

<script type="text/javascript">
var viewWidth = 876;
var viewHeight = 307;
var sectionId = 'dynsection-0';
</script>
<script xlink:href="svgpan.js"/>
<svg id="graph" class="graph">
<g id="viewport">
<title>drake/bindings/pydrake/common/eigen_geometry_pybind.h</title>
<polygon fill="#ffffff" stroke="transparent" points="-4,4 -4,-303 872.2359,-303 872.2359,4 -4,4"/>
<!-- Node0 -->
<g id="node1" class="node">
<title>Node0</title>
<g id="a_node1"><a xlink:title="Provides pybind11 type_casters for Eigen geometric types.">
<polygon fill="#bfbfbf" stroke="#000000" points="180,-257.5 180,-298.5 325,-298.5 325,-257.5 180,-257.5"/>
<text text-anchor="start" x="188" y="-286.5" font-family="Helvetica,sans-Serif" font-size="10.00" fill="#000000">drake/bindings/pydrake</text>
<text text-anchor="start" x="188" y="-275.5" font-family="Helvetica,sans-Serif" font-size="10.00" fill="#000000">/common/eigen_geometry</text>
<text text-anchor="middle" x="252.5" y="-264.5" font-family="Helvetica,sans-Serif" font-size="10.00" fill="#000000">_pybind.h</text>
</a>
</g>
</g>
<!-- Node1 -->
<g id="node2" class="node">
<title>Node1</title>
<g id="a_node2"><a xlink:title=" ">
<polygon fill="#ffffff" stroke="#bfbfbf" points="187.5,-129 187.5,-148 231.5,-148 231.5,-129 187.5,-129"/>
<text text-anchor="middle" x="209.5" y="-136" font-family="Helvetica,sans-Serif" font-size="10.00" fill="#000000">string</text>
</a>
</g>
</g>
<!-- Node0&#45;&gt;Node1 -->
<g id="edge1" class="edge">
<title>Node0&#45;&gt;Node1</title>
<path fill="none" stroke="#191970" d="M240.6941,-257.4711C235.0507,-246.8759 228.6396,-233.5661 224.5,-221 217.6904,-200.3289 213.7187,-175.6654 211.5925,-158.7221"/>
<polygon fill="#191970" stroke="#191970" points="215.0217,-157.9047 210.4033,-148.3695 208.0675,-158.7036 215.0217,-157.9047"/>
</g>
<!-- Node2 -->
<g id="node3" class="node">
<title>Node2</title>
<g id="a_node3"><a xlink:title=" ">
<polygon fill="#ffffff" stroke="#bfbfbf" points="278,-62 278,-81 323,-81 323,-62 278,-62"/>
<text text-anchor="middle" x="300.5" y="-69" font-family="Helvetica,sans-Serif" font-size="10.00" fill="#000000">utility</text>
</a>
</g>
</g>
<!-- Node0&#45;&gt;Node2 -->
<g id="edge2" class="edge">
<title>Node0&#45;&gt;Node2</title>
<path fill="none" stroke="#191970" d="M229.354,-257.3772C197.7127,-226.6371 148.1566,-167.6356 178.5,-123 202.9524,-87.0301 229.789,-104.7424 269.5,-87 270.5164,-86.5459 271.5477,-86.0765 272.5866,-85.5964"/>
<polygon fill="#191970" stroke="#191970" points="274.4361,-88.591 281.9377,-81.1092 271.4077,-82.28 274.4361,-88.591"/>
</g>
<!-- Node3 -->
<g id="node4" class="node">
<title>Node3</title>
<g id="a_node4"><a xlink:title=" ">
<polygon fill="#ffffff" stroke="#bfbfbf" points="388,-196 388,-215 489,-215 489,-196 388,-196"/>
<text text-anchor="middle" x="438.5" y="-203" font-family="Helvetica,sans-Serif" font-size="10.00" fill="#000000">pybind11/eigen.h</text>
</a>
</g>
</g>
<!-- Node0&#45;&gt;Node3 -->
<g id="edge3" class="edge">
<title>Node0&#45;&gt;Node3</title>
<path fill="none" stroke="#191970" d="M305.3026,-257.4183C337.06,-245.0398 376.5611,-229.6429 404.2699,-218.8424"/>
<polygon fill="#191970" stroke="#191970" points="405.8625,-221.9782 413.9086,-215.0853 403.3203,-215.4561 405.8625,-221.9782"/>
</g>
<!-- Node4 -->
<g id="node5" class="node">
<title>Node4</title>
<g id="a_node5"><a xlink:title=" ">
<polygon fill="#ffffff" stroke="#bfbfbf" points="507,-196 507,-215 584,-215 584,-196 507,-196"/>
<text text-anchor="middle" x="545.5" y="-203" font-family="Helvetica,sans-Serif" font-size="10.00" fill="#000000">Eigen/Dense</text>
</a>
</g>
</g>
<!-- Node0&#45;&gt;Node4 -->
<g id="edge4" class="edge">
<title>Node0&#45;&gt;Node4</title>
<path fill="none" stroke="#191970" d="M325.0583,-263.0028C374.2797,-252.3859 440.6657,-237.2007 498.5,-221 501.6439,-220.1193 504.8901,-219.1586 508.1389,-218.1609"/>
<polygon fill="#191970" stroke="#191970" points="509.3185,-221.4587 517.7934,-215.1005 507.2032,-214.7859 509.3185,-221.4587"/>
</g>
<!-- Node5 -->
<g id="node6" class="node">
<title>Node5</title>
<g id="a_node6"><a xlink:href="wrap__pybind_8h.html" target="_top" xlink:title="Defines convenience utilities to wrap pybind11 methods and classes.">
<polygon fill="#ffffff" stroke="#000000" points="233,-190.5 233,-220.5 370,-220.5 370,-190.5 233,-190.5"/>
<text text-anchor="start" x="241" y="-208.5" font-family="Helvetica,sans-Serif" font-size="10.00" fill="#000000">drake/bindings/pydrake</text>
<text text-anchor="middle" x="301.5" y="-197.5" font-family="Helvetica,sans-Serif" font-size="10.00" fill="#000000">/common/wrap_pybind.h</text>
</a>
</g>
</g>
<!-- Node0&#45;&gt;Node5 -->
<g id="edge5" class="edge">
<title>Node0&#45;&gt;Node5</title>
<path fill="none" stroke="#191970" d="M266.4104,-257.4183C272.414,-248.5354 279.4682,-238.0981 285.671,-228.9205"/>
<polygon fill="#191970" stroke="#191970" points="288.5952,-230.8442 291.2951,-220.5991 282.7956,-226.9244 288.5952,-230.8442"/>
</g>
<!-- Node11 -->
<g id="node12" class="node">
<title>Node11</title>
<g id="a_node12"><a xlink:href="pydrake__pybind_8h.html" target="_top" xlink:title=" ">
<polygon fill="#ffffff" stroke="#000000" points="0,-123.5 0,-153.5 131,-153.5 131,-123.5 0,-123.5"/>
<text text-anchor="start" x="8" y="-141.5" font-family="Helvetica,sans-Serif" font-size="10.00" fill="#000000">drake/bindings/pydrake</text>
<text text-anchor="middle" x="65.5" y="-130.5" font-family="Helvetica,sans-Serif" font-size="10.00" fill="#000000">/pydrake_pybind.h</text>
</a>
</g>
</g>
<!-- Node0&#45;&gt;Node11 -->
<g id="edge27" class="edge">
<title>Node0&#45;&gt;Node11</title>
<path fill="none" stroke="#191970" d="M206.3711,-257.3763C186.7633,-247.6302 164.1676,-235.0482 145.5,-221 122.3476,-203.5768 99.7166,-179.3698 84.4671,-161.6839"/>
<polygon fill="#191970" stroke="#191970" points="86.7389,-158.9508 77.604,-153.5838 81.3981,-163.476 86.7389,-158.9508"/>
</g>
<!-- Node5&#45;&gt;Node1 -->
<g id="edge7" class="edge">
<title>Node5&#45;&gt;Node1</title>
<path fill="none" stroke="#191970" d="M280.6238,-190.2967C265.7331,-179.4524 245.7757,-164.9182 230.7919,-154.006"/>
<polygon fill="#191970" stroke="#191970" points="232.7643,-151.1127 222.6203,-148.055 228.6434,-156.7712 232.7643,-151.1127"/>
</g>
<!-- Node5&#45;&gt;Node2 -->
<g id="edge9" class="edge">
<title>Node5&#45;&gt;Node2</title>
<path fill="none" stroke="#191970" d="M301.3872,-190.389C301.2058,-166.0735 300.849,-118.2644 300.6475,-91.2698"/>
<polygon fill="#191970" stroke="#191970" points="304.1463,-91.0777 300.5717,-81.1042 297.1465,-91.13 304.1463,-91.0777"/>
</g>
<!-- Node6 -->
<g id="node7" class="node">
<title>Node6</title>
<g id="a_node7"><a xlink:title=" ">
<polygon fill="#ffffff" stroke="#bfbfbf" points="500.5,-62 500.5,-81 558.5,-81 558.5,-62 500.5,-62"/>
<text text-anchor="middle" x="529.5" y="-69" font-family="Helvetica,sans-Serif" font-size="10.00" fill="#000000">memory</text>
</a>
</g>
</g>
<!-- Node5&#45;&gt;Node6 -->
<g id="edge6" class="edge">
<title>Node5&#45;&gt;Node6</title>
<path fill="none" stroke="#191970" d="M370.3713,-191.6354C373.4542,-191.0711 376.508,-190.5233 379.5,-190 432.1907,-180.7847 582.6194,-194.5534 617.5,-154 640.1554,-127.66 596.4889,-100.8115 562.9464,-85.1758"/>
<polygon fill="#191970" stroke="#191970" points="564.3736,-81.98 553.8177,-81.0728 561.5039,-88.3648 564.3736,-81.98"/>
</g>
<!-- Node7 -->
<g id="node8" class="node">
<title>Node7</title>
<g id="a_node8"><a xlink:title=" ">
<polygon fill="#ffffff" stroke="#bfbfbf" points="603,-.5 603,-19.5 672,-19.5 672,-.5 603,-.5"/>
<text text-anchor="middle" x="637.5" y="-7.5" font-family="Helvetica,sans-Serif" font-size="10.00" fill="#000000">type_traits</text>
</a>
</g>
</g>
<!-- Node5&#45;&gt;Node7 -->
<g id="edge8" class="edge">
<title>Node5&#45;&gt;Node7</title>
<path fill="none" stroke="#191970" d="M370.3316,-191.3835C373.4252,-190.8874 376.4922,-190.4228 379.5,-190 474.8949,-176.5906 728.4443,-202.8032 811.5,-154 852.8223,-129.7192 886.7068,-93.2107 856.5,-56 835.005,-29.521 739.9846,-17.7255 682.4009,-12.9275"/>
<polygon fill="#191970" stroke="#191970" points="682.3562,-9.413 672.1106,-12.111 681.8025,-16.3911 682.3562,-9.413"/>
</g>
<!-- Node8 -->
<g id="node9" class="node">
<title>Node8</title>
<g id="a_node9"><a xlink:title=" ">
<polygon fill="#ffffff" stroke="#bfbfbf" points="141,-62 141,-81 260,-81 260,-62 141,-62"/>
<text text-anchor="middle" x="200.5" y="-69" font-family="Helvetica,sans-Serif" font-size="10.00" fill="#000000">pybind11/pybind11.h</text>
</a>
</g>
</g>
<!-- Node5&#45;&gt;Node8 -->
<g id="edge10" class="edge">
<title>Node5&#45;&gt;Node8</title>
<path fill="none" stroke="#191970" d="M290.3645,-190.2142C278.2168,-173.5921 258.1451,-146.2822 240.5,-123 231.9321,-111.695 222.1691,-99.1193 214.4333,-89.2249"/>
<polygon fill="#191970" stroke="#191970" points="217.1611,-87.0315 208.238,-81.3194 211.6514,-91.3493 217.1611,-87.0315"/>
</g>
<!-- Node9 -->
<g id="node10" class="node">
<title>Node9</title>
<g id="a_node10"><a xlink:href="wrap__function_8h.html" target="_top" xlink:title=" ">
<polygon fill="#ffffff" stroke="#000000" points="326,-123.5 326,-153.5 469,-153.5 469,-123.5 326,-123.5"/>
<text text-anchor="start" x="334" y="-141.5" font-family="Helvetica,sans-Serif" font-size="10.00" fill="#000000">drake/bindings/pydrake</text>
<text text-anchor="middle" x="397.5" y="-130.5" font-family="Helvetica,sans-Serif" font-size="10.00" fill="#000000">/common/wrap_function.h</text>
</a>
</g>
</g>
<!-- Node5&#45;&gt;Node9 -->
<g id="edge11" class="edge">
<title>Node5&#45;&gt;Node9</title>
<path fill="none" stroke="#191970" d="M323.2839,-190.2967C336.2945,-181.2163 353.0121,-169.5488 367.2858,-159.587"/>
<polygon fill="#191970" stroke="#191970" points="369.6051,-162.2365 375.8023,-153.6432 365.5988,-156.4962 369.6051,-162.2365"/>
</g>
<!-- Node5&#45;&gt;Node11 -->
<g id="edge15" class="edge">
<title>Node5&#45;&gt;Node11</title>
<path fill="none" stroke="#191970" d="M248.537,-190.4639C212.9828,-180.3701 165.9726,-167.024 128.4972,-156.3848"/>
<polygon fill="#191970" stroke="#191970" points="129.2697,-152.9659 118.694,-153.6017 127.358,-159.6998 129.2697,-152.9659"/>
</g>
<!-- Node13 -->
<g id="node14" class="node">
<title>Node13</title>
<g id="a_node14"><a xlink:href="copyable__unique__ptr_8h.html" target="_top" xlink:title=" ">
<polygon fill="#ffffff" stroke="#000000" points="665,-123.5 665,-153.5 802,-153.5 802,-123.5 665,-123.5"/>
<text text-anchor="start" x="673" y="-141.5" font-family="Helvetica,sans-Serif" font-size="10.00" fill="#000000">drake/common/copyable</text>
<text text-anchor="middle" x="733.5" y="-130.5" font-family="Helvetica,sans-Serif" font-size="10.00" fill="#000000">_unique_ptr.h</text>
</a>
</g>
</g>
<!-- Node5&#45;&gt;Node13 -->
<g id="edge19" class="edge">
<title>Node5&#45;&gt;Node13</title>
<path fill="none" stroke="#191970" d="M370.3598,-191.5676C373.4458,-191.0217 376.5034,-190.4963 379.5,-190 499.3699,-170.149 530.5175,-173.1589 650.5,-154 651.8028,-153.792 653.1166,-153.5794 654.4389,-153.3629"/>
<polygon fill="#191970" stroke="#191970" points="655.4254,-156.7462 664.7059,-151.6351 654.2637,-149.8432 655.4254,-156.7462"/>
</g>
<!-- Node17 -->
<g id="node18" class="node">
<title>Node17</title>
<g id="a_node18"><a xlink:href="drake__copyable_8h.html" target="_top" xlink:title="Provides careful macros to selectively enable or disable the special member functions for copy&#45;constr...">
<polygon fill="#ffffff" stroke="#000000" points="487,-123.5 487,-153.5 608,-153.5 608,-123.5 487,-123.5"/>
<text text-anchor="start" x="495" y="-141.5" font-family="Helvetica,sans-Serif" font-size="10.00" fill="#000000">drake/common/drake</text>
<text text-anchor="middle" x="547.5" y="-130.5" font-family="Helvetica,sans-Serif" font-size="10.00" fill="#000000">_copyable.h</text>
</a>
</g>
</g>
<!-- Node5&#45;&gt;Node17 -->
<g id="edge26" class="edge">
<title>Node5&#45;&gt;Node17</title>
<path fill="none" stroke="#191970" d="M356.7072,-190.4639C393.9257,-180.3272 443.1873,-166.9104 482.3316,-156.2491"/>
<polygon fill="#191970" stroke="#191970" points="483.3232,-159.6066 492.052,-153.6017 481.4837,-152.8526 483.3232,-159.6066"/>
</g>
<!-- Node9&#45;&gt;Node2 -->
<g id="edge14" class="edge">
<title>Node9&#45;&gt;Node2</title>
<path fill="none" stroke="#191970" d="M375.4892,-123.2967C359.7892,-112.4524 338.7472,-97.9182 322.949,-87.006"/>
<polygon fill="#191970" stroke="#191970" points="324.5505,-83.8585 314.3333,-81.055 320.5722,-89.6181 324.5505,-83.8585"/>
</g>
<!-- Node9&#45;&gt;Node7 -->
<g id="edge13" class="edge">
<title>Node9&#45;&gt;Node7</title>
<path fill="none" stroke="#191970" d="M394.7471,-123.2194C392.3768,-104.7872 391.6113,-74.0361 408.5,-56 433.0129,-29.8217 532.9753,-17.8584 592.4231,-12.9641"/>
<polygon fill="#191970" stroke="#191970" points="592.9735,-16.4317 602.6679,-12.1574 592.424,-9.4533 592.9735,-16.4317"/>
</g>
<!-- Node10 -->
<g id="node11" class="node">
<title>Node10</title>
<g id="a_node11"><a xlink:title=" ">
<polygon fill="#ffffff" stroke="#bfbfbf" points="417,-62 417,-81 482,-81 482,-62 417,-62"/>
<text text-anchor="middle" x="449.5" y="-69" font-family="Helvetica,sans-Serif" font-size="10.00" fill="#000000">functional</text>
</a>
</g>
</g>
<!-- Node9&#45;&gt;Node10 -->
<g id="edge12" class="edge">
<title>Node9&#45;&gt;Node10</title>
<path fill="none" stroke="#191970" d="M409.2996,-123.2967C417.1655,-113.1618 427.5327,-99.804 435.7688,-89.1921"/>
<polygon fill="#191970" stroke="#191970" points="438.7179,-91.1008 442.0842,-81.055 433.188,-86.8089 438.7179,-91.1008"/>
</g>
<!-- Node11&#45;&gt;Node2 -->
<g id="edge16" class="edge">
<title>Node11&#45;&gt;Node2</title>
<path fill="none" stroke="#191970" d="M131.3658,-125.6675C171.8729,-116.8488 224.4688,-103.7172 269.5,-87 270.9103,-86.4765 272.3407,-85.9074 273.774,-85.3066"/>
<polygon fill="#191970" stroke="#191970" points="275.4617,-88.383 283.089,-81.0295 272.5407,-82.0216 275.4617,-88.383"/>
</g>
<!-- Node11&#45;&gt;Node8 -->
<g id="edge17" class="edge">
<title>Node11&#45;&gt;Node8</title>
<path fill="none" stroke="#191970" d="M95.7966,-123.4639C118.652,-112.1209 149.7829,-96.6707 172.1494,-85.5703"/>
<polygon fill="#191970" stroke="#191970" points="173.7473,-88.6847 181.1488,-81.1039 170.6353,-82.4144 173.7473,-88.6847"/>
</g>
<!-- Node12 -->
<g id="node13" class="node">
<title>Node12</title>
<g id="a_node13"><a xlink:href="drake__deprecated_8h.html" target="_top" xlink:title="Provides a portable macro for use in generating compile&#45;time warnings for use of code that is permitt...">
<polygon fill="#ffffff" stroke="#000000" points="2,-56.5 2,-86.5 123,-86.5 123,-56.5 2,-56.5"/>
<text text-anchor="start" x="10" y="-74.5" font-family="Helvetica,sans-Serif" font-size="10.00" fill="#000000">drake/common/drake</text>
<text text-anchor="middle" x="62.5" y="-63.5" font-family="Helvetica,sans-Serif" font-size="10.00" fill="#000000">_deprecated.h</text>
</a>
</g>
</g>
<!-- Node11&#45;&gt;Node12 -->
<g id="edge18" class="edge">
<title>Node11&#45;&gt;Node12</title>
<path fill="none" stroke="#191970" d="M64.8193,-123.2967C64.4702,-115.5013 64.0358,-105.7991 63.6376,-96.9064"/>
<polygon fill="#191970" stroke="#191970" points="67.122,-96.4766 63.1781,-86.6432 60.129,-96.7898 67.122,-96.4766"/>
</g>
<!-- Node13&#45;&gt;Node2 -->
<g id="edge23" class="edge">
<title>Node13&#45;&gt;Node2</title>
<path fill="none" stroke="#191970" d="M664.8899,-127.8837C570.3053,-113.2482 403.5835,-87.4506 333.2553,-76.5684"/>
<polygon fill="#191970" stroke="#191970" points="333.627,-73.0843 323.2094,-75.0139 332.5566,-80.002 333.627,-73.0843"/>
</g>
<!-- Node13&#45;&gt;Node6 -->
<g id="edge22" class="edge">
<title>Node13&#45;&gt;Node6</title>
<path fill="none" stroke="#191970" d="M681.8862,-123.4867C649.1873,-113.7057 606.1213,-100.3257 568.5,-87 566.5942,-86.3249 564.6432,-85.6141 562.6794,-84.8832"/>
<polygon fill="#191970" stroke="#191970" points="563.4918,-81.4463 552.9016,-81.1338 560.9855,-87.9822 563.4918,-81.4463"/>
</g>
<!-- Node14 -->
<g id="node15" class="node">
<title>Node14</title>
<g id="a_node15"><a xlink:title=" ">
<polygon fill="#ffffff" stroke="#bfbfbf" points="716,-62 716,-81 769,-81 769,-62 716,-62"/>
<text text-anchor="middle" x="742.5" y="-69" font-family="Helvetica,sans-Serif" font-size="10.00" fill="#000000">cstddef</text>
</a>
</g>
</g>
<!-- Node13&#45;&gt;Node14 -->
<g id="edge20" class="edge">
<title>Node13&#45;&gt;Node14</title>
<path fill="none" stroke="#191970" d="M735.5422,-123.2967C736.822,-113.7699 738.4842,-101.3954 739.863,-91.1306"/>
<polygon fill="#191970" stroke="#191970" points="743.3539,-91.4319 741.2165,-81.055 736.4162,-90.5 743.3539,-91.4319"/>
</g>
<!-- Node15 -->
<g id="node16" class="node">
<title>Node15</title>
<g id="a_node16"><a xlink:title=" ">
<polygon fill="#ffffff" stroke="#bfbfbf" points="787.5,-62 787.5,-81 847.5,-81 847.5,-62 787.5,-62"/>
<text text-anchor="middle" x="817.5" y="-69" font-family="Helvetica,sans-Serif" font-size="10.00" fill="#000000">iostream</text>
</a>
</g>
</g>
<!-- Node13&#45;&gt;Node15 -->
<g id="edge21" class="edge">
<title>Node13&#45;&gt;Node15</title>
<path fill="none" stroke="#191970" d="M752.5609,-123.2967C766.0297,-112.5537 784.0385,-98.1895 797.6748,-87.3129"/>
<polygon fill="#191970" stroke="#191970" points="799.8853,-90.0268 805.5206,-81.055 795.5204,-84.5544 799.8853,-90.0268"/>
</g>
<!-- Node16 -->
<g id="node17" class="node">
<title>Node16</title>
<g id="a_node17"><a xlink:href="drake__assert_8h.html" target="_top" xlink:title="Provides Drake&#39;s assertion implementation.">
<polygon fill="#ffffff" stroke="#000000" points="577,-56.5 577,-86.5 698,-86.5 698,-56.5 577,-56.5"/>
<text text-anchor="start" x="585" y="-74.5" font-family="Helvetica,sans-Serif" font-size="10.00" fill="#000000">drake/common/drake</text>
<text text-anchor="middle" x="637.5" y="-63.5" font-family="Helvetica,sans-Serif" font-size="10.00" fill="#000000">_assert.h</text>
</a>
</g>
</g>
<!-- Node13&#45;&gt;Node16 -->
<g id="edge24" class="edge">
<title>Node13&#45;&gt;Node16</title>
<path fill="none" stroke="#191970" d="M711.7161,-123.2967C698.7055,-114.2163 681.9879,-102.5488 667.7142,-92.587"/>
<polygon fill="#191970" stroke="#191970" points="669.4012,-89.4962 659.1977,-86.6432 665.3949,-95.2365 669.4012,-89.4962"/>
</g>
<!-- Node16&#45;&gt;Node7 -->
<g id="edge25" class="edge">
<title>Node16&#45;&gt;Node7</title>
<path fill="none" stroke="#191970" d="M637.5,-56.2977C637.5,-48.3834 637.5,-38.6043 637.5,-30.0759"/>
<polygon fill="#191970" stroke="#191970" points="641.0001,-29.8469 637.5,-19.8469 634.0001,-29.847 641.0001,-29.8469"/>
</g>
</g>
</svg>
        <g id="navigator" transform="translate(0 0)" fill="#404254">
                <rect fill="#f2f5e9" fill-opacity="0.5" stroke="#606060" stroke-width=".5" x="0" y="0" width="60" height="60"/>
                <use id="zoomplus" xlink:href="#zoomPlus" x="17" y="9" onmousedown="handleZoom(evt,'in')"/>
                <use id="zoomminus" xlink:href="#zoomMin" x="42" y="9" onmousedown="handleZoom(evt,'out')"/>
                <use id="reset" xlink:href="#resetDef" x="30" y="36" onmousedown="handleReset()"/>
                <g id="arrowUp" xlink:href="#dirArrow" transform="translate(30 24)" onmousedown="handlePan(0,-1)">
                  <use xlink:href="#rim" fill="#404040">
                        <set attributeName="fill" to="#808080" begin="arrowUp.mouseover" end="arrowUp.mouseout"/>
                  </use>
                  <path fill="none" stroke="white" stroke-width="1.5" d="M0,-3.0v7 M-2.5,-0.5L0,-3.0L2.5,-0.5"/>
                </g>
                <g id="arrowRight" xlink:href="#dirArrow" transform="rotate(90) translate(36 -43)" onmousedown="handlePan(1,0)">
                  <use xlink:href="#rim" fill="#404040">
                        <set attributeName="fill" to="#808080" begin="arrowRight.mouseover" end="arrowRight.mouseout"/>
                  </use>
                  <path fill="none" stroke="white" stroke-width="1.5" d="M0,-3.0v7 M-2.5,-0.5L0,-3.0L2.5,-0.5"/>
                </g>
                <g id="arrowDown" xlink:href="#dirArrow" transform="rotate(180) translate(-30 -48)" onmousedown="handlePan(0,1)">
                  <use xlink:href="#rim" fill="#404040">
                        <set attributeName="fill" to="#808080" begin="arrowDown.mouseover" end="arrowDown.mouseout"/>
                  </use>
                  <path fill="none" stroke="white" stroke-width="1.5" d="M0,-3.0v7 M-2.5,-0.5L0,-3.0L2.5,-0.5"/>
                </g>
                <g id="arrowLeft" xlink:href="#dirArrow" transform="rotate(270) translate(-36 17)" onmousedown="handlePan(-1,0)">
                  <use xlink:href="#rim" fill="#404040">
                        <set attributeName="fill" to="#808080" begin="arrowLeft.mouseover" end="arrowLeft.mouseout"/>
                  </use>
                  <path fill="none" stroke="white" stroke-width="1.5" d="M0,-3.0v7 M-2.5,-0.5L0,-3.0L2.5,-0.5"/>
                </g>
        </g>
        <svg viewBox="0 0 15 15" width="100%" height="30px" preserveAspectRatio="xMaxYMin meet">
         <g id="arrow_out" transform="scale(0.3 0.3)">
          <a xlink:href="eigen__geometry__pybind_8h__incl_org.svg" target="_base">
           <rect id="button" ry="5" rx="5" y="6" x="6" height="38" width="38"
                fill="#f2f5e9" fill-opacity="0.5" stroke="#606060" stroke-width="1.0"/>
           <path id="arrow"
             d="M 11.500037,31.436501 C 11.940474,20.09759 22.043105,11.32322 32.158766,21.979434 L 37.068811,17.246167 C 37.068811,17.246167 37.088388,32 37.088388,32 L 22.160133,31.978069 C 22.160133,31.978069 26.997745,27.140456 26.997745,27.140456 C 18.528582,18.264221 13.291696,25.230495 11.500037,31.436501 z"
             style="fill:#404040;"/>
          </a>
         </g>
        </svg>
</svg>
