<?xml version="1.0" encoding="UTF-8" standalone="no"?>
<!DOCTYPE svg PUBLIC "-//W3C//DTD SVG 1.1//EN"
 "http://www.w3.org/Graphics/SVG/1.1/DTD/svg11.dtd">
<!-- Generated by graphviz version 2.40.1 (20161225.0304)
 -->
<!-- Title: drake/bindings/pydrake/common/eigen_pybind.h Pages: 1 -->
<svg width="658pt" height="229pt"
 viewBox="0.00 0.00 658.00 229.00" xmlns="http://www.w3.org/2000/svg" xmlns:xlink="http://www.w3.org/1999/xlink">
<g id="graph0" class="graph" transform="scale(1 1) rotate(0) translate(4 225)">
<title>drake/bindings/pydrake/common/eigen_pybind.h</title>
<polygon fill="#ffffff" stroke="transparent" points="-4,4 -4,-225 654,-225 654,4 -4,4"/>
<!-- Node0 -->
<g id="node1" class="node">
<title>Node0</title>
<g id="a_node1"><a xlink:title=" ">
<polygon fill="#bfbfbf" stroke="#000000" points="59.5,-190.5 59.5,-220.5 199.5,-220.5 199.5,-190.5 59.5,-190.5"/>
<text text-anchor="start" x="67.5" y="-208.5" font-family="Helvetica,sans-Serif" font-size="10.00" fill="#000000">drake/bindings/pydrake</text>
<text text-anchor="middle" x="129.5" y="-197.5" font-family="Helvetica,sans-Serif" font-size="10.00" fill="#000000">/common/eigen_pybind.h</text>
</a>
</g>
</g>
<!-- Node1 -->
<g id="node2" class="node">
<title>Node1</title>
<g id="a_node2"><a xlink:title=" ">
<polygon fill="#ffffff" stroke="#bfbfbf" points="0,-129 0,-148 101,-148 101,-129 0,-129"/>
<text text-anchor="middle" x="50.5" y="-136" font-family="Helvetica,sans-Serif" font-size="10.00" fill="#000000">pybind11/eigen.h</text>
</a>
</g>
</g>
<!-- Node0&#45;&gt;Node1 -->
<g id="edge1" class="edge">
<title>Node0&#45;&gt;Node1</title>
<path fill="none" stroke="#191970" d="M111.5737,-190.2967C99.0261,-179.6551 82.2889,-165.4602 69.5091,-154.6217"/>
<polygon fill="#191970" stroke="#191970" points="71.6567,-151.8538 61.7663,-148.055 67.129,-157.1924 71.6567,-151.8538"/>
</g>
<!-- Node2 -->
<g id="node3" class="node">
<title>Node2</title>
<g id="a_node3"><a xlink:title=" ">
<polygon fill="#ffffff" stroke="#bfbfbf" points="65,-62 65,-81 142,-81 142,-62 65,-62"/>
<text text-anchor="middle" x="103.5" y="-69" font-family="Helvetica,sans-Serif" font-size="10.00" fill="#000000">Eigen/Dense</text>
</a>
</g>
</g>
<!-- Node0&#45;&gt;Node2 -->
<g id="edge2" class="edge">
<title>Node0&#45;&gt;Node2</title>
<path fill="none" stroke="#191970" d="M126.568,-190.389C121.8501,-166.0735 112.5737,-118.2644 107.3359,-91.2698"/>
<polygon fill="#191970" stroke="#191970" points="110.7043,-90.2544 105.3635,-81.1042 103.8324,-91.5878 110.7043,-90.2544"/>
</g>
<!-- Node3 -->
<g id="node4" class="node">
<title>Node3</title>
<g id="a_node4"><a xlink:href="eigen__types_8h.html" target="_top" xlink:title="This file contains abbreviated definitions for certain specializations of Eigen::Matrix that are comm...">
<polygon fill="#ffffff" stroke="#000000" points="210.5,-123.5 210.5,-153.5 330.5,-153.5 330.5,-123.5 210.5,-123.5"/>
<text text-anchor="start" x="218.5" y="-141.5" font-family="Helvetica,sans-Serif" font-size="10.00" fill="#000000">drake/common/eigen</text>
<text text-anchor="middle" x="270.5" y="-130.5" font-family="Helvetica,sans-Serif" font-size="10.00" fill="#000000">_types.h</text>
</a>
</g>
</g>
<!-- Node0&#45;&gt;Node3 -->
<g id="edge3" class="edge">
<title>Node0&#45;&gt;Node3</title>
<path fill="none" stroke="#191970" d="M161.1432,-190.4639C181.2299,-180.9191 207.4367,-168.4663 229.1597,-158.144"/>
<polygon fill="#191970" stroke="#191970" points="230.9446,-161.1709 238.4746,-153.7177 227.9403,-154.8484 230.9446,-161.1709"/>
</g>
<!-- Node3&#45;&gt;Node2 -->
<g id="edge5" class="edge">
<title>Node3&#45;&gt;Node2</title>
<path fill="none" stroke="#191970" d="M233.0219,-123.4639C204.118,-111.8677 164.5146,-95.9789 136.7343,-84.8335"/>
<polygon fill="#191970" stroke="#191970" points="138.0223,-81.5791 127.4381,-81.1039 135.4158,-88.0758 138.0223,-81.5791"/>
</g>
<!-- Node4 -->
<g id="node5" class="node">
<title>Node4</title>
<g id="a_node5"><a xlink:title=" ">
<polygon fill="#ffffff" stroke="#bfbfbf" points="160,-62 160,-81 205,-81 205,-62 160,-62"/>
<text text-anchor="middle" x="182.5" y="-69" font-family="Helvetica,sans-Serif" font-size="10.00" fill="#000000">utility</text>
</a>
</g>
</g>
<!-- Node3&#45;&gt;Node4 -->
<g id="edge4" class="edge">
<title>Node3&#45;&gt;Node4</title>
<path fill="none" stroke="#191970" d="M250.5314,-123.2967C236.4213,-112.5537 217.5549,-98.1895 203.2692,-87.3129"/>
<polygon fill="#191970" stroke="#191970" points="205.1264,-84.328 195.0498,-81.055 200.886,-89.8975 205.1264,-84.328"/>
</g>
<!-- Node5 -->
<g id="node6" class="node">
<title>Node5</title>
<g id="a_node6"><a xlink:href="constants_8h.html" target="_top" xlink:title=" ">
<polygon fill="#ffffff" stroke="#000000" points="223,-62 223,-81 372,-81 372,-62 223,-62"/>
<text text-anchor="middle" x="297.5" y="-69" font-family="Helvetica,sans-Serif" font-size="10.00" fill="#000000">drake/common/constants.h</text>
</a>
</g>
</g>
<!-- Node3&#45;&gt;Node5 -->
<g id="edge6" class="edge">
<title>Node3&#45;&gt;Node5</title>
<path fill="none" stroke="#191970" d="M276.6267,-123.2967C280.5475,-113.5672 285.6653,-100.8675 289.852,-90.4784"/>
<polygon fill="#191970" stroke="#191970" points="293.158,-91.6384 293.6495,-81.055 286.6653,-89.0219 293.158,-91.6384"/>
</g>
<!-- Node6 -->
<g id="node7" class="node">
<title>Node6</title>
<g id="a_node7"><a xlink:href="drake__assert_8h.html" target="_top" xlink:title="Provides Drake&#39;s assertion implementation.">
<polygon fill="#ffffff" stroke="#000000" points="390,-56.5 390,-86.5 511,-86.5 511,-56.5 390,-56.5"/>
<text text-anchor="start" x="398" y="-74.5" font-family="Helvetica,sans-Serif" font-size="10.00" fill="#000000">drake/common/drake</text>
<text text-anchor="middle" x="450.5" y="-63.5" font-family="Helvetica,sans-Serif" font-size="10.00" fill="#000000">_assert.h</text>
</a>
</g>
</g>
<!-- Node3&#45;&gt;Node6 -->
<g id="edge7" class="edge">
<title>Node3&#45;&gt;Node6</title>
<path fill="none" stroke="#191970" d="M310.8955,-123.4639C337.3208,-113.6278 372.0431,-100.7034 400.248,-90.2049"/>
<polygon fill="#191970" stroke="#191970" points="401.7774,-93.3703 409.9283,-86.6017 399.3355,-86.81 401.7774,-93.3703"/>
</g>
<!-- Node8 -->
<g id="node9" class="node">
<title>Node8</title>
<g id="a_node9"><a xlink:href="drake__copyable_8h.html" target="_top" xlink:title="Provides careful macros to selectively enable or disable the special member functions for copy&#45;constr...">
<polygon fill="#ffffff" stroke="#000000" points="529,-56.5 529,-86.5 650,-86.5 650,-56.5 529,-56.5"/>
<text text-anchor="start" x="537" y="-74.5" font-family="Helvetica,sans-Serif" font-size="10.00" fill="#000000">drake/common/drake</text>
<text text-anchor="middle" x="589.5" y="-63.5" font-family="Helvetica,sans-Serif" font-size="10.00" fill="#000000">_copyable.h</text>
</a>
</g>
</g>
<!-- Node3&#45;&gt;Node8 -->
<g id="edge9" class="edge">
<title>Node3&#45;&gt;Node8</title>
<path fill="none" stroke="#191970" d="M330.6753,-126.4166C379.077,-116.6259 449.0996,-102.3016 519.062,-87.2921"/>
<polygon fill="#191970" stroke="#191970" points="519.8905,-90.694 528.9313,-85.1701 518.419,-83.8504 519.8905,-90.694"/>
</g>
<!-- Node7 -->
<g id="node8" class="node">
<title>Node7</title>
<g id="a_node8"><a xlink:title=" ">
<polygon fill="#ffffff" stroke="#bfbfbf" points="416,-.5 416,-19.5 485,-19.5 485,-.5 416,-.5"/>
<text text-anchor="middle" x="450.5" y="-7.5" font-family="Helvetica,sans-Serif" font-size="10.00" fill="#000000">type_traits</text>
</a>
</g>
</g>
<!-- Node6&#45;&gt;Node7 -->
<g id="edge8" class="edge">
<title>Node6&#45;&gt;Node7</title>
<path fill="none" stroke="#191970" d="M450.5,-56.2977C450.5,-48.3834 450.5,-38.6043 450.5,-30.0759"/>
<polygon fill="#191970" stroke="#191970" points="454.0001,-29.8469 450.5,-19.8469 447.0001,-29.847 454.0001,-29.8469"/>
</g>
</g>
</svg>
