<?xml version="1.0" encoding="UTF-8" standalone="no"?>
<!DOCTYPE svg PUBLIC "-//W3C//DTD SVG 1.1//EN"
 "http://www.w3.org/Graphics/SVG/1.1/DTD/svg11.dtd">
<!-- Generated by graphviz version 2.40.1 (20161225.0304)
 -->
<!-- Title: drake/common/test_utilities/expect_no_throw.h Pages: 1 -->
<svg width="614pt" height="240pt"
 viewBox="0.00 0.00 614.00 240.00" xmlns="http://www.w3.org/2000/svg" xmlns:xlink="http://www.w3.org/1999/xlink">
<g id="graph0" class="graph" transform="scale(1 1) rotate(0) translate(4 236)">
<title>drake/common/test_utilities/expect_no_throw.h</title>
<polygon fill="#ffffff" stroke="transparent" points="-4,4 -4,-236 610,-236 610,4 -4,4"/>
<!-- Node0 -->
<g id="node1" class="node">
<title>Node0</title>
<g id="a_node1"><a xlink:title=" ">
<polygon fill="#bfbfbf" stroke="#000000" points="45.5,-201.5 45.5,-231.5 199.5,-231.5 199.5,-201.5 45.5,-201.5"/>
<text text-anchor="start" x="53.5" y="-219.5" font-family="Helvetica,sans-Serif" font-size="10.00" fill="#000000">drake/common/test_utilities</text>
<text text-anchor="middle" x="122.5" y="-208.5" font-family="Helvetica,sans-Serif" font-size="10.00" fill="#000000">/expect_no_throw.h</text>
</a>
</g>
</g>
<!-- Node1 -->
<g id="node2" class="node">
<title>Node1</title>
<g id="a_node2"><a xlink:title=" ">
<polygon fill="#ffffff" stroke="#bfbfbf" points="0,-140 0,-159 65,-159 65,-140 0,-140"/>
<text text-anchor="middle" x="32.5" y="-147" font-family="Helvetica,sans-Serif" font-size="10.00" fill="#000000">exception</text>
</a>
</g>
</g>
<!-- Node0&#45;&gt;Node1 -->
<g id="edge1" class="edge">
<title>Node0&#45;&gt;Node1</title>
<path fill="none" stroke="#191970" d="M102.0776,-201.2967C87.6468,-190.5537 68.3516,-176.1895 53.7412,-165.3129"/>
<polygon fill="#191970" stroke="#191970" points="55.4464,-162.219 45.335,-159.055 51.2664,-167.8339 55.4464,-162.219"/>
</g>
<!-- Node2 -->
<g id="node3" class="node">
<title>Node2</title>
<g id="a_node3"><a xlink:title=" ">
<polygon fill="#ffffff" stroke="#bfbfbf" points="83.5,-140 83.5,-159 161.5,-159 161.5,-140 83.5,-140"/>
<text text-anchor="middle" x="122.5" y="-147" font-family="Helvetica,sans-Serif" font-size="10.00" fill="#000000">gtest/gtest.h</text>
</a>
</g>
</g>
<!-- Node0&#45;&gt;Node2 -->
<g id="edge2" class="edge">
<title>Node0&#45;&gt;Node2</title>
<path fill="none" stroke="#191970" d="M122.5,-201.2967C122.5,-191.7699 122.5,-179.3954 122.5,-169.1306"/>
<polygon fill="#191970" stroke="#191970" points="126.0001,-169.0549 122.5,-159.055 119.0001,-169.055 126.0001,-169.0549"/>
</g>
<!-- Node3 -->
<g id="node4" class="node">
<title>Node3</title>
<g id="a_node4"><a xlink:href="nice__type__name_8h.html" target="_top" xlink:title=" ">
<polygon fill="#ffffff" stroke="#000000" points="179.5,-134.5 179.5,-164.5 319.5,-164.5 319.5,-134.5 179.5,-134.5"/>
<text text-anchor="start" x="187.5" y="-152.5" font-family="Helvetica,sans-Serif" font-size="10.00" fill="#000000">drake/common/nice_type</text>
<text text-anchor="middle" x="249.5" y="-141.5" font-family="Helvetica,sans-Serif" font-size="10.00" fill="#000000">_name.h</text>
</a>
</g>
</g>
<!-- Node0&#45;&gt;Node3 -->
<g id="edge3" class="edge">
<title>Node0&#45;&gt;Node3</title>
<path fill="none" stroke="#191970" d="M151.0013,-201.4639C168.9313,-192.0047 192.2753,-179.6894 211.737,-169.4222"/>
<polygon fill="#191970" stroke="#191970" points="213.4429,-172.4795 220.6544,-164.7177 210.1766,-166.2882 213.4429,-172.4795"/>
</g>
<!-- Node4 -->
<g id="node5" class="node">
<title>Node4</title>
<g id="a_node5"><a xlink:title=" ">
<polygon fill="#ffffff" stroke="#bfbfbf" points="54.5,-73 54.5,-92 112.5,-92 112.5,-73 54.5,-73"/>
<text text-anchor="middle" x="83.5" y="-80" font-family="Helvetica,sans-Serif" font-size="10.00" fill="#000000">memory</text>
</a>
</g>
</g>
<!-- Node3&#45;&gt;Node4 -->
<g id="edge4" class="edge">
<title>Node3&#45;&gt;Node4</title>
<path fill="none" stroke="#191970" d="M211.9552,-134.4487C186.4348,-124.2045 151.9152,-110.3217 121.5,-98 119.8656,-97.3379 118.192,-96.6589 116.5022,-95.9725"/>
<polygon fill="#191970" stroke="#191970" points="117.3862,-92.5536 106.8045,-92.0263 114.7478,-99.0374 117.3862,-92.5536"/>
</g>
<!-- Node5 -->
<g id="node6" class="node">
<title>Node5</title>
<g id="a_node6"><a xlink:title=" ">
<polygon fill="#ffffff" stroke="#bfbfbf" points="130.5,-73 130.5,-92 174.5,-92 174.5,-73 130.5,-73"/>
<text text-anchor="middle" x="152.5" y="-80" font-family="Helvetica,sans-Serif" font-size="10.00" fill="#000000">string</text>
</a>
</g>
</g>
<!-- Node3&#45;&gt;Node5 -->
<g id="edge5" class="edge">
<title>Node3&#45;&gt;Node5</title>
<path fill="none" stroke="#191970" d="M227.4892,-134.2967C211.7892,-123.4524 190.7472,-108.9182 174.949,-98.006"/>
<polygon fill="#191970" stroke="#191970" points="176.5505,-94.8585 166.3333,-92.055 172.5722,-100.6181 176.5505,-94.8585"/>
</g>
<!-- Node6 -->
<g id="node7" class="node">
<title>Node6</title>
<g id="a_node7"><a xlink:title=" ">
<polygon fill="#ffffff" stroke="#bfbfbf" points="193,-73 193,-92 250,-92 250,-73 193,-73"/>
<text text-anchor="middle" x="221.5" y="-80" font-family="Helvetica,sans-Serif" font-size="10.00" fill="#000000">typeinfo</text>
</a>
</g>
</g>
<!-- Node3&#45;&gt;Node6 -->
<g id="edge6" class="edge">
<title>Node3&#45;&gt;Node6</title>
<path fill="none" stroke="#191970" d="M243.1464,-134.2967C239.0803,-124.5672 233.773,-111.8675 229.4313,-101.4784"/>
<polygon fill="#191970" stroke="#191970" points="232.5785,-99.9321 225.4931,-92.055 226.1198,-102.6313 232.5785,-99.9321"/>
</g>
<!-- Node7 -->
<g id="node8" class="node">
<title>Node7</title>
<g id="a_node8"><a xlink:title=" ">
<polygon fill="#ffffff" stroke="#bfbfbf" points="268,-6 268,-25 313,-25 313,-6 268,-6"/>
<text text-anchor="middle" x="290.5" y="-13" font-family="Helvetica,sans-Serif" font-size="10.00" fill="#000000">utility</text>
</a>
</g>
</g>
<!-- Node3&#45;&gt;Node7 -->
<g id="edge7" class="edge">
<title>Node3&#45;&gt;Node7</title>
<path fill="none" stroke="#191970" d="M254.1235,-134.389C261.5965,-109.9649 276.3222,-61.8371 284.5613,-34.9095"/>
<polygon fill="#191970" stroke="#191970" points="287.9824,-35.6906 287.5614,-25.1042 281.2887,-33.6425 287.9824,-35.6906"/>
</g>
<!-- Node8 -->
<g id="node9" class="node">
<title>Node8</title>
<g id="a_node9"><a xlink:title=" ">
<polygon fill="#ffffff" stroke="#bfbfbf" points="307,-73 307,-92 354,-92 354,-73 307,-73"/>
<text text-anchor="middle" x="330.5" y="-80" font-family="Helvetica,sans-Serif" font-size="10.00" fill="#000000">vector</text>
</a>
</g>
</g>
<!-- Node3&#45;&gt;Node8 -->
<g id="edge8" class="edge">
<title>Node3&#45;&gt;Node8</title>
<path fill="none" stroke="#191970" d="M267.8802,-134.2967C280.7454,-123.6551 297.9063,-109.4602 311.0096,-98.6217"/>
<polygon fill="#191970" stroke="#191970" points="313.4737,-101.1257 318.9485,-92.055 309.0121,-95.7318 313.4737,-101.1257"/>
</g>
<!-- Node9 -->
<g id="node10" class="node">
<title>Node9</title>
<g id="a_node10"><a xlink:href="never__destroyed_8h.html" target="_top" xlink:title=" ">
<polygon fill="#ffffff" stroke="#000000" points="372,-67.5 372,-97.5 493,-97.5 493,-67.5 372,-67.5"/>
<text text-anchor="start" x="380" y="-85.5" font-family="Helvetica,sans-Serif" font-size="10.00" fill="#000000">drake/common/never</text>
<text text-anchor="middle" x="432.5" y="-74.5" font-family="Helvetica,sans-Serif" font-size="10.00" fill="#000000">_destroyed.h</text>
</a>
</g>
</g>
<!-- Node3&#45;&gt;Node9 -->
<g id="edge9" class="edge">
<title>Node3&#45;&gt;Node9</title>
<path fill="none" stroke="#191970" d="M290.5688,-134.4639C317.5518,-124.5849 353.044,-111.5905 381.7857,-101.0675"/>
<polygon fill="#191970" stroke="#191970" points="383.065,-104.3264 391.2521,-97.6017 380.6583,-97.7531 383.065,-104.3264"/>
</g>
<!-- Node9&#45;&gt;Node7 -->
<g id="edge12" class="edge">
<title>Node9&#45;&gt;Node7</title>
<path fill="none" stroke="#191970" d="M400.6324,-67.4639C376.4847,-56.0702 343.5543,-40.5327 320.0061,-29.4219"/>
<polygon fill="#191970" stroke="#191970" points="321.392,-26.2058 310.8546,-25.1039 318.4049,-32.5365 321.392,-26.2058"/>
</g>
<!-- Node10 -->
<g id="node11" class="node">
<title>Node10</title>
<g id="a_node11"><a xlink:title=" ">
<polygon fill="#ffffff" stroke="#bfbfbf" points="343,-6 343,-25 380,-25 380,-6 343,-6"/>
<text text-anchor="middle" x="361.5" y="-13" font-family="Helvetica,sans-Serif" font-size="10.00" fill="#000000">new</text>
</a>
</g>
</g>
<!-- Node9&#45;&gt;Node10 -->
<g id="edge10" class="edge">
<title>Node9&#45;&gt;Node10</title>
<path fill="none" stroke="#191970" d="M416.389,-67.2967C405.2195,-56.7564 390.356,-42.7303 378.9133,-31.9323"/>
<polygon fill="#191970" stroke="#191970" points="381.3006,-29.3727 371.6254,-25.055 376.4963,-34.4638 381.3006,-29.3727"/>
</g>
<!-- Node11 -->
<g id="node12" class="node">
<title>Node11</title>
<g id="a_node12"><a xlink:title=" ">
<polygon fill="#ffffff" stroke="#bfbfbf" points="398,-6 398,-25 467,-25 467,-6 398,-6"/>
<text text-anchor="middle" x="432.5" y="-13" font-family="Helvetica,sans-Serif" font-size="10.00" fill="#000000">type_traits</text>
</a>
</g>
</g>
<!-- Node9&#45;&gt;Node11 -->
<g id="edge11" class="edge">
<title>Node9&#45;&gt;Node11</title>
<path fill="none" stroke="#191970" d="M432.5,-67.2967C432.5,-57.7699 432.5,-45.3954 432.5,-35.1306"/>
<polygon fill="#191970" stroke="#191970" points="436.0001,-35.0549 432.5,-25.055 429.0001,-35.055 436.0001,-35.0549"/>
</g>
<!-- Node12 -->
<g id="node13" class="node">
<title>Node12</title>
<g id="a_node13"><a xlink:href="drake__copyable_8h.html" target="_top" xlink:title="Provides careful macros to selectively enable or disable the special member functions for copy&#45;constr...">
<polygon fill="#ffffff" stroke="#000000" points="485,-.5 485,-30.5 606,-30.5 606,-.5 485,-.5"/>
<text text-anchor="start" x="493" y="-18.5" font-family="Helvetica,sans-Serif" font-size="10.00" fill="#000000">drake/common/drake</text>
<text text-anchor="middle" x="545.5" y="-7.5" font-family="Helvetica,sans-Serif" font-size="10.00" fill="#000000">_copyable.h</text>
</a>
</g>
</g>
<!-- Node9&#45;&gt;Node12 -->
<g id="edge13" class="edge">
<title>Node9&#45;&gt;Node12</title>
<path fill="none" stroke="#191970" d="M457.8594,-67.4639C473.5963,-58.1332 494.0205,-46.0232 511.1928,-35.8415"/>
<polygon fill="#191970" stroke="#191970" points="513.0176,-38.8285 519.8343,-30.7177 509.4475,-32.8073 513.0176,-38.8285"/>
</g>
</g>
</svg>
