<?xml version="1.0" encoding="UTF-8" standalone="no"?>
<!DOCTYPE svg PUBLIC "-//W3C//DTD SVG 1.1//EN"
 "http://www.w3.org/Graphics/SVG/1.1/DTD/svg11.dtd">
<!-- Generated by graphviz version 2.40.1 (20161225.0304)
 -->
<!-- Title: drake/math/expmap.h Pages: 1 -->
<svg width="1266pt" height="464pt"
 viewBox="0.00 0.00 1265.50 464.00" xmlns="http://www.w3.org/2000/svg" xmlns:xlink="http://www.w3.org/1999/xlink">
<g id="graph0" class="graph" transform="scale(1 1) rotate(0) translate(4 460)">
<title>drake/math/expmap.h</title>
<polygon fill="#ffffff" stroke="transparent" points="-4,4 -4,-460 1261.5,-460 1261.5,4 -4,4"/>
<!-- Node0 -->
<g id="node1" class="node">
<title>Node0</title>
<g id="a_node1"><a xlink:title="Utilities for arithmetic on exponential maps.">
<polygon fill="#bfbfbf" stroke="#000000" points="604,-436.5 604,-455.5 729,-455.5 729,-436.5 604,-436.5"/>
<text text-anchor="middle" x="666.5" y="-443.5" font-family="Helvetica,sans-Serif" font-size="10.00" fill="#000000">drake/math/expmap.h</text>
</a>
</g>
</g>
<!-- Node1 -->
<g id="node2" class="node">
<title>Node1</title>
<g id="a_node2"><a xlink:title=" ">
<polygon fill="#ffffff" stroke="#bfbfbf" points="547,-129 547,-148 594,-148 594,-129 547,-129"/>
<text text-anchor="middle" x="570.5" y="-136" font-family="Helvetica,sans-Serif" font-size="10.00" fill="#000000">cmath</text>
</a>
</g>
</g>
<!-- Node0&#45;&gt;Node1 -->
<g id="edge1" class="edge">
<title>Node0&#45;&gt;Node1</title>
<path fill="none" stroke="#191970" d="M617.9579,-436.4341C533.5161,-418.3911 368.5,-376.3113 368.5,-323 368.5,-323 368.5,-323 368.5,-267 368.5,-231.7513 362.9825,-215.3251 387.5,-190 408.0957,-168.7258 489.7205,-151.974 536.7063,-143.8561"/>
<polygon fill="#191970" stroke="#191970" points="537.4531,-147.2797 546.7312,-142.1642 536.2882,-140.3773 537.4531,-147.2797"/>
</g>
<!-- Node2 -->
<g id="node3" class="node">
<title>Node2</title>
<g id="a_node3"><a xlink:title=" ">
<polygon fill="#ffffff" stroke="#bfbfbf" points="1091,-62 1091,-81 1168,-81 1168,-62 1091,-62"/>
<text text-anchor="middle" x="1129.5" y="-69" font-family="Helvetica,sans-Serif" font-size="10.00" fill="#000000">Eigen/Dense</text>
</a>
</g>
</g>
<!-- Node0&#45;&gt;Node2 -->
<g id="edge2" class="edge">
<title>Node0&#45;&gt;Node2</title>
<path fill="none" stroke="#191970" d="M729.1878,-439.5138C881.2888,-422.9337 1257.5,-376.5149 1257.5,-323 1257.5,-323 1257.5,-323 1257.5,-205.5 1257.5,-148.8522 1196.9463,-106.7375 1159.1372,-85.9628"/>
<polygon fill="#191970" stroke="#191970" points="1160.5389,-82.7443 1150.0654,-81.145 1157.2556,-88.9265 1160.5389,-82.7443"/>
</g>
<!-- Node3 -->
<g id="node4" class="node">
<title>Node3</title>
<g id="a_node4"><a xlink:href="common_2autodiff_8h.html" target="_top" xlink:title=" ">
<polygon fill="#ffffff" stroke="#000000" points="495.5,-257.5 495.5,-276.5 635.5,-276.5 635.5,-257.5 495.5,-257.5"/>
<text text-anchor="middle" x="565.5" y="-264.5" font-family="Helvetica,sans-Serif" font-size="10.00" fill="#000000">drake/common/autodiff.h</text>
</a>
</g>
</g>
<!-- Node0&#45;&gt;Node3 -->
<g id="edge3" class="edge">
<title>Node0&#45;&gt;Node3</title>
<path fill="none" stroke="#191970" d="M661.0698,-436.3762C644.9715,-407.8455 597.3036,-323.3648 575.9964,-285.6024"/>
<polygon fill="#191970" stroke="#191970" points="578.9195,-283.6607 570.957,-276.6714 572.823,-287.1006 578.9195,-283.6607"/>
</g>
<!-- Node11 -->
<g id="node12" class="node">
<title>Node11</title>
<g id="a_node12"><a xlink:href="drake__assert_8h.html" target="_top" xlink:title="Provides Drake&#39;s assertion implementation.">
<polygon fill="#ffffff" stroke="#000000" points="448,-56.5 448,-86.5 569,-86.5 569,-56.5 448,-56.5"/>
<text text-anchor="start" x="456" y="-74.5" font-family="Helvetica,sans-Serif" font-size="10.00" fill="#000000">drake/common/drake</text>
<text text-anchor="middle" x="508.5" y="-63.5" font-family="Helvetica,sans-Serif" font-size="10.00" fill="#000000">_assert.h</text>
</a>
</g>
</g>
<!-- Node0&#45;&gt;Node11 -->
<g id="edge30" class="edge">
<title>Node0&#45;&gt;Node11</title>
<path fill="none" stroke="#191970" d="M603.9589,-443.2455C472.6981,-435.756 180.5,-409.3825 180.5,-323 180.5,-323 180.5,-323 180.5,-205.5 180.5,-167.8735 172.0924,-148.7794 199.5,-123 216.6479,-106.8708 351.9501,-89.0011 437.736,-79.1234"/>
<polygon fill="#191970" stroke="#191970" points="438.1439,-82.5997 447.6826,-77.9883 437.3502,-75.6448 438.1439,-82.5997"/>
</g>
<!-- Node21 -->
<g id="node22" class="node">
<title>Node21</title>
<g id="a_node22"><a xlink:href="math_2autodiff_8h.html" target="_top" xlink:title="Utilities for arithmetic on AutoDiffScalar.">
<polygon fill="#ffffff" stroke="#000000" points="651,-313.5 651,-332.5 774,-332.5 774,-313.5 651,-313.5"/>
<text text-anchor="middle" x="712.5" y="-320.5" font-family="Helvetica,sans-Serif" font-size="10.00" fill="#000000">drake/math/autodiff.h</text>
</a>
</g>
</g>
<!-- Node0&#45;&gt;Node21 -->
<g id="edge31" class="edge">
<title>Node0&#45;&gt;Node21</title>
<path fill="none" stroke="#191970" d="M670.1095,-436.3484C677.7009,-416.0499 695.4375,-368.6235 705.395,-341.9981"/>
<polygon fill="#191970" stroke="#191970" points="708.6825,-343.1992 708.9072,-332.6068 702.126,-340.7472 708.6825,-343.1992"/>
</g>
<!-- Node24 -->
<g id="node25" class="node">
<title>Node24</title>
<g id="a_node25"><a xlink:href="autodiff__gradient_8h.html" target="_top" xlink:title="Utilities that relate simultaneously to both autodiff matrices and gradient matrices.">
<polygon fill="#ffffff" stroke="#000000" points="898.5,-369.5 898.5,-399.5 1012.5,-399.5 1012.5,-369.5 898.5,-369.5"/>
<text text-anchor="start" x="906.5" y="-387.5" font-family="Helvetica,sans-Serif" font-size="10.00" fill="#000000">drake/math/autodiff</text>
<text text-anchor="middle" x="955.5" y="-376.5" font-family="Helvetica,sans-Serif" font-size="10.00" fill="#000000">_gradient.h</text>
</a>
</g>
</g>
<!-- Node0&#45;&gt;Node24 -->
<g id="edge37" class="edge">
<title>Node0&#45;&gt;Node24</title>
<path fill="none" stroke="#191970" d="M711.3392,-436.4581C758.7275,-426.3737 833.9973,-410.3561 888.4452,-398.7695"/>
<polygon fill="#191970" stroke="#191970" points="889.3056,-402.1648 898.3581,-396.66 887.8485,-395.3181 889.3056,-402.1648"/>
</g>
<!-- Node4 -->
<g id="node5" class="node">
<title>Node4</title>
<g id="a_node5"><a xlink:title=" ">
<polygon fill="#ffffff" stroke="#bfbfbf" points="397,-196 397,-215 466,-215 466,-196 397,-196"/>
<text text-anchor="middle" x="431.5" y="-203" font-family="Helvetica,sans-Serif" font-size="10.00" fill="#000000">Eigen/Core</text>
</a>
</g>
</g>
<!-- Node3&#45;&gt;Node4 -->
<g id="edge4" class="edge">
<title>Node3&#45;&gt;Node4</title>
<path fill="none" stroke="#191970" d="M544.5625,-257.3906C522.2402,-247.1457 486.6963,-230.8326 461.4243,-219.2339"/>
<polygon fill="#191970" stroke="#191970" points="462.8389,-216.0322 452.2905,-215.0419 459.919,-222.3942 462.8389,-216.0322"/>
</g>
<!-- Node5 -->
<g id="node6" class="node">
<title>Node5</title>
<g id="a_node6"><a xlink:title=" ">
<polygon fill="#ffffff" stroke="#bfbfbf" points="484,-196 484,-215 635,-215 635,-196 484,-196"/>
<text text-anchor="middle" x="559.5" y="-203" font-family="Helvetica,sans-Serif" font-size="10.00" fill="#000000">unsupported/Eigen/AutoDiff</text>
</a>
</g>
</g>
<!-- Node3&#45;&gt;Node5 -->
<g id="edge5" class="edge">
<title>Node3&#45;&gt;Node5</title>
<path fill="none" stroke="#191970" d="M564.5625,-257.3906C563.7308,-248.8657 562.4892,-236.1392 561.4438,-225.4235"/>
<polygon fill="#191970" stroke="#191970" points="564.9053,-224.8577 560.4507,-215.2449 557.9383,-225.5375 564.9053,-224.8577"/>
</g>
<!-- Node6 -->
<g id="node7" class="node">
<title>Node6</title>
<g id="a_node7"><a xlink:href="eigen__autodiff__types_8h.html" target="_top" xlink:title="This file contains abbreviated definitions for certain uses of AutoDiffScalar that are commonly used ...">
<polygon fill="#ffffff" stroke="#000000" points="899.5,-190.5 899.5,-220.5 1019.5,-220.5 1019.5,-190.5 899.5,-190.5"/>
<text text-anchor="start" x="907.5" y="-208.5" font-family="Helvetica,sans-Serif" font-size="10.00" fill="#000000">drake/common/eigen</text>
<text text-anchor="middle" x="959.5" y="-197.5" font-family="Helvetica,sans-Serif" font-size="10.00" fill="#000000">_autodiff_types.h</text>
</a>
</g>
</g>
<!-- Node3&#45;&gt;Node6 -->
<g id="edge6" class="edge">
<title>Node3&#45;&gt;Node6</title>
<path fill="none" stroke="#191970" d="M626.6302,-257.4581C697.5414,-246.3895 814.2461,-228.1729 888.9447,-216.5131"/>
<polygon fill="#191970" stroke="#191970" points="889.8565,-219.9132 899.197,-214.9128 888.7768,-212.997 889.8565,-219.9132"/>
</g>
<!-- Node13 -->
<g id="node14" class="node">
<title>Node13</title>
<g id="a_node14"><a xlink:href="autodiffxd_8h.html" target="_top" xlink:title=" ">
<polygon fill="#ffffff" stroke="#000000" points="691.5,-196 691.5,-215 843.5,-215 843.5,-196 691.5,-196"/>
<text text-anchor="middle" x="767.5" y="-203" font-family="Helvetica,sans-Serif" font-size="10.00" fill="#000000">drake/common/autodiffxd.h</text>
</a>
</g>
</g>
<!-- Node3&#45;&gt;Node13 -->
<g id="edge16" class="edge">
<title>Node3&#45;&gt;Node13</title>
<path fill="none" stroke="#191970" d="M597.0625,-257.3906C631.8985,-246.7846 688.095,-229.6753 726.3588,-218.0257"/>
<polygon fill="#191970" stroke="#191970" points="727.6121,-221.3028 736.1591,-215.0419 725.5733,-214.6063 727.6121,-221.3028"/>
</g>
<!-- Node15 -->
<g id="node16" class="node">
<title>Node15</title>
<g id="a_node16"><a xlink:href="autodiff__overloads_8h.html" target="_top" xlink:title="Overloads for STL mathematical operations on AutoDiffScalar.">
<polygon fill="#ffffff" stroke="#000000" points="209,-190.5 209,-220.5 340,-220.5 340,-190.5 209,-190.5"/>
<text text-anchor="start" x="217" y="-208.5" font-family="Helvetica,sans-Serif" font-size="10.00" fill="#000000">drake/common/autodiff</text>
<text text-anchor="middle" x="274.5" y="-197.5" font-family="Helvetica,sans-Serif" font-size="10.00" fill="#000000">_overloads.h</text>
</a>
</g>
</g>
<!-- Node3&#45;&gt;Node15 -->
<g id="edge20" class="edge">
<title>Node3&#45;&gt;Node15</title>
<path fill="none" stroke="#191970" d="M520.3505,-257.4581C474.8885,-247.8502 403.9422,-232.8563 349.9245,-221.4402"/>
<polygon fill="#191970" stroke="#191970" points="350.5528,-217.9958 340.0452,-219.3523 349.1053,-224.8445 350.5528,-217.9958"/>
</g>
<!-- Node6&#45;&gt;Node2 -->
<g id="edge8" class="edge">
<title>Node6&#45;&gt;Node2</title>
<path fill="none" stroke="#191970" d="M970.4721,-190.3526C983.8726,-172.6094 1007.9328,-143.0907 1033.5,-123 1053.0535,-107.6348 1077.8457,-94.4676 1097.3371,-85.2938"/>
<polygon fill="#191970" stroke="#191970" points="1098.805,-88.4712 1106.4336,-81.119 1095.8851,-82.1092 1098.805,-88.4712"/>
</g>
<!-- Node7 -->
<g id="node8" class="node">
<title>Node7</title>
<g id="a_node8"><a xlink:title=" ">
<polygon fill="#ffffff" stroke="#bfbfbf" points="474,-.5 474,-19.5 543,-19.5 543,-.5 474,-.5"/>
<text text-anchor="middle" x="508.5" y="-7.5" font-family="Helvetica,sans-Serif" font-size="10.00" fill="#000000">type_traits</text>
</a>
</g>
</g>
<!-- Node6&#45;&gt;Node7 -->
<g id="edge7" class="edge">
<title>Node6&#45;&gt;Node7</title>
<path fill="none" stroke="#191970" d="M905.9747,-190.49C877.9291,-181.6428 843.4821,-169.1974 814.5,-154 793.6349,-143.0589 792.0013,-134.6086 771.5,-123 694.5134,-79.4075 597.4146,-41.7977 545.4073,-22.9311"/>
<polygon fill="#191970" stroke="#191970" points="546.5255,-19.6139 535.9311,-19.5203 544.1548,-26.2002 546.5255,-19.6139"/>
</g>
<!-- Node8 -->
<g id="node9" class="node">
<title>Node8</title>
<g id="a_node9"><a xlink:href="eigen__types_8h.html" target="_top" xlink:title="This file contains abbreviated definitions for certain specializations of Eigen::Matrix that are comm...">
<polygon fill="#ffffff" stroke="#000000" points="823.5,-123.5 823.5,-153.5 943.5,-153.5 943.5,-123.5 823.5,-123.5"/>
<text text-anchor="start" x="831.5" y="-141.5" font-family="Helvetica,sans-Serif" font-size="10.00" fill="#000000">drake/common/eigen</text>
<text text-anchor="middle" x="883.5" y="-130.5" font-family="Helvetica,sans-Serif" font-size="10.00" fill="#000000">_types.h</text>
</a>
</g>
</g>
<!-- Node6&#45;&gt;Node8 -->
<g id="edge9" class="edge">
<title>Node6&#45;&gt;Node8</title>
<path fill="none" stroke="#191970" d="M942.2544,-190.2967C932.2458,-181.4733 919.4664,-170.2072 908.3836,-160.4368"/>
<polygon fill="#191970" stroke="#191970" points="910.4932,-157.6307 900.6773,-153.6432 905.8641,-162.8816 910.4932,-157.6307"/>
</g>
<!-- Node8&#45;&gt;Node2 -->
<g id="edge11" class="edge">
<title>Node8&#45;&gt;Node2</title>
<path fill="none" stroke="#191970" d="M943.5321,-123.8465C982.918,-113.9966 1035.4625,-100.4082 1081.5,-87 1084.6529,-86.0817 1087.9121,-85.0999 1091.1787,-84.0928"/>
<polygon fill="#191970" stroke="#191970" points="1092.4133,-87.3736 1100.9023,-81.0342 1090.3128,-80.6962 1092.4133,-87.3736"/>
</g>
<!-- Node9 -->
<g id="node10" class="node">
<title>Node9</title>
<g id="a_node10"><a xlink:title=" ">
<polygon fill="#ffffff" stroke="#bfbfbf" points="861,-62 861,-81 906,-81 906,-62 861,-62"/>
<text text-anchor="middle" x="883.5" y="-69" font-family="Helvetica,sans-Serif" font-size="10.00" fill="#000000">utility</text>
</a>
</g>
</g>
<!-- Node8&#45;&gt;Node9 -->
<g id="edge10" class="edge">
<title>Node8&#45;&gt;Node9</title>
<path fill="none" stroke="#191970" d="M883.5,-123.2967C883.5,-113.7699 883.5,-101.3954 883.5,-91.1306"/>
<polygon fill="#191970" stroke="#191970" points="887.0001,-91.0549 883.5,-81.055 880.0001,-91.055 887.0001,-91.0549"/>
</g>
<!-- Node10 -->
<g id="node11" class="node">
<title>Node10</title>
<g id="a_node11"><a xlink:href="constants_8h.html" target="_top" xlink:title=" ">
<polygon fill="#ffffff" stroke="#000000" points="924,-62 924,-81 1073,-81 1073,-62 924,-62"/>
<text text-anchor="middle" x="998.5" y="-69" font-family="Helvetica,sans-Serif" font-size="10.00" fill="#000000">drake/common/constants.h</text>
</a>
</g>
</g>
<!-- Node8&#45;&gt;Node10 -->
<g id="edge12" class="edge">
<title>Node8&#45;&gt;Node10</title>
<path fill="none" stroke="#191970" d="M909.3082,-123.4639C928.4299,-112.3234 954.3517,-97.2212 973.3218,-86.1691"/>
<polygon fill="#191970" stroke="#191970" points="975.1371,-89.1622 982.0157,-81.1039 971.6132,-83.1138 975.1371,-89.1622"/>
</g>
<!-- Node8&#45;&gt;Node11 -->
<g id="edge13" class="edge">
<title>Node8&#45;&gt;Node11</title>
<path fill="none" stroke="#191970" d="M823.2498,-127.7353C756.7483,-115.8537 649.8108,-96.7475 579.3452,-84.1577"/>
<polygon fill="#191970" stroke="#191970" points="579.6822,-80.6625 569.2224,-82.3491 578.4509,-87.5534 579.6822,-80.6625"/>
</g>
<!-- Node12 -->
<g id="node13" class="node">
<title>Node12</title>
<g id="a_node13"><a xlink:href="drake__copyable_8h.html" target="_top" xlink:title="Provides careful macros to selectively enable or disable the special member functions for copy&#45;constr...">
<polygon fill="#ffffff" stroke="#000000" points="722,-56.5 722,-86.5 843,-86.5 843,-56.5 722,-56.5"/>
<text text-anchor="start" x="730" y="-74.5" font-family="Helvetica,sans-Serif" font-size="10.00" fill="#000000">drake/common/drake</text>
<text text-anchor="middle" x="782.5" y="-63.5" font-family="Helvetica,sans-Serif" font-size="10.00" fill="#000000">_copyable.h</text>
</a>
</g>
</g>
<!-- Node8&#45;&gt;Node12 -->
<g id="edge15" class="edge">
<title>Node8&#45;&gt;Node12</title>
<path fill="none" stroke="#191970" d="M860.8336,-123.4639C847.026,-114.3044 829.1811,-102.4667 814.0118,-92.4038"/>
<polygon fill="#191970" stroke="#191970" points="815.7082,-89.3291 805.4402,-86.7177 811.8386,-95.1623 815.7082,-89.3291"/>
</g>
<!-- Node11&#45;&gt;Node7 -->
<g id="edge14" class="edge">
<title>Node11&#45;&gt;Node7</title>
<path fill="none" stroke="#191970" d="M508.5,-56.2977C508.5,-48.3834 508.5,-38.6043 508.5,-30.0759"/>
<polygon fill="#191970" stroke="#191970" points="512.0001,-29.8469 508.5,-19.8469 505.0001,-29.847 512.0001,-29.8469"/>
</g>
<!-- Node13&#45;&gt;Node1 -->
<g id="edge17" class="edge">
<title>Node13&#45;&gt;Node1</title>
<path fill="none" stroke="#191970" d="M739.2747,-195.9005C703.4321,-183.7104 641.6854,-162.7103 603.6427,-149.7719"/>
<polygon fill="#191970" stroke="#191970" points="604.6417,-146.4148 594.0473,-146.5085 602.3877,-153.042 604.6417,-146.4148"/>
</g>
<!-- Node13&#45;&gt;Node2 -->
<g id="edge19" class="edge">
<title>Node13&#45;&gt;Node2</title>
<path fill="none" stroke="#191970" d="M818.5107,-195.9297C856.5578,-187.7009 909.2097,-173.972 952.5,-154 974.8861,-143.6721 976.6756,-134.4673 998.5,-123 1028.1368,-107.4279 1063.5697,-93.7738 1090.1077,-84.4444"/>
<polygon fill="#191970" stroke="#191970" points="1091.5072,-87.6639 1099.8125,-81.0857 1089.2177,-81.0488 1091.5072,-87.6639"/>
</g>
<!-- Node14 -->
<g id="node15" class="node">
<title>Node14</title>
<g id="a_node15"><a xlink:title=" ">
<polygon fill="#ffffff" stroke="#bfbfbf" points="672,-129 672,-148 729,-148 729,-129 672,-129"/>
<text text-anchor="middle" x="700.5" y="-136" font-family="Helvetica,sans-Serif" font-size="10.00" fill="#000000">ostream</text>
</a>
</g>
</g>
<!-- Node13&#45;&gt;Node14 -->
<g id="edge18" class="edge">
<title>Node13&#45;&gt;Node14</title>
<path fill="none" stroke="#191970" d="M757.9005,-195.9005C747.353,-185.353 730.2096,-168.2096 717.3998,-155.3998"/>
<polygon fill="#191970" stroke="#191970" points="719.6276,-152.6779 710.0817,-148.0817 714.6779,-157.6276 719.6276,-152.6779"/>
</g>
<!-- Node15&#45;&gt;Node1 -->
<g id="edge21" class="edge">
<title>Node15&#45;&gt;Node1</title>
<path fill="none" stroke="#191970" d="M340.192,-190.6305C401.1241,-176.8385 489.3479,-156.8689 536.9758,-146.0882"/>
<polygon fill="#191970" stroke="#191970" points="537.7969,-149.491 546.7774,-143.8696 536.2515,-142.6637 537.7969,-149.491"/>
</g>
<!-- Node15&#45;&gt;Node11 -->
<g id="edge27" class="edge">
<title>Node15&#45;&gt;Node11</title>
<path fill="none" stroke="#191970" d="M301.2115,-190.4598C319.3634,-180.2203 343.9068,-166.3387 365.5,-154 402.4389,-132.8925 444.6179,-108.526 473.5415,-91.7761"/>
<polygon fill="#191970" stroke="#191970" points="475.5447,-94.6606 482.4431,-86.6192 472.0357,-88.6036 475.5447,-94.6606"/>
</g>
<!-- Node16 -->
<g id="node17" class="node">
<title>Node16</title>
<g id="a_node17"><a xlink:title=" ">
<polygon fill="#ffffff" stroke="#bfbfbf" points="315.5,-62 315.5,-81 359.5,-81 359.5,-62 315.5,-62"/>
<text text-anchor="middle" x="337.5" y="-69" font-family="Helvetica,sans-Serif" font-size="10.00" fill="#000000">limits</text>
</a>
</g>
</g>
<!-- Node15&#45;&gt;Node16 -->
<g id="edge22" class="edge">
<title>Node15&#45;&gt;Node16</title>
<path fill="none" stroke="#191970" d="M309.5324,-190.3603C324.3862,-181.9673 340.1656,-169.9543 348.5,-154 358.8608,-134.1665 352.6615,-108.1393 346.1459,-90.6694"/>
<polygon fill="#191970" stroke="#191970" points="349.2255,-88.9543 342.1933,-81.0297 342.7488,-91.6099 349.2255,-88.9543"/>
</g>
<!-- Node17 -->
<g id="node18" class="node">
<title>Node17</title>
<g id="a_node18"><a xlink:href="cond_8h.html" target="_top" xlink:title=" ">
<polygon fill="#ffffff" stroke="#000000" points="27,-129 27,-148 152,-148 152,-129 27,-129"/>
<text text-anchor="middle" x="89.5" y="-136" font-family="Helvetica,sans-Serif" font-size="10.00" fill="#000000">drake/common/cond.h</text>
</a>
</g>
</g>
<!-- Node15&#45;&gt;Node17 -->
<g id="edge23" class="edge">
<title>Node15&#45;&gt;Node17</title>
<path fill="none" stroke="#191970" d="M232.9824,-190.4639C200.5872,-178.7316 156.0596,-162.6054 125.2385,-151.4431"/>
<polygon fill="#191970" stroke="#191970" points="126.3402,-148.1197 115.7459,-148.0053 123.9565,-154.7014 126.3402,-148.1197"/>
</g>
<!-- Node20 -->
<g id="node21" class="node">
<title>Node20</title>
<g id="a_node21"><a xlink:href="dummy__value_8h.html" target="_top" xlink:title=" ">
<polygon fill="#ffffff" stroke="#000000" points="209,-123.5 209,-153.5 340,-153.5 340,-123.5 209,-123.5"/>
<text text-anchor="start" x="217" y="-141.5" font-family="Helvetica,sans-Serif" font-size="10.00" fill="#000000">drake/common/dummy</text>
<text text-anchor="middle" x="274.5" y="-130.5" font-family="Helvetica,sans-Serif" font-size="10.00" fill="#000000">_value.h</text>
</a>
</g>
</g>
<!-- Node15&#45;&gt;Node20 -->
<g id="edge28" class="edge">
<title>Node15&#45;&gt;Node20</title>
<path fill="none" stroke="#191970" d="M274.5,-190.2967C274.5,-182.5013 274.5,-172.7991 274.5,-163.9064"/>
<polygon fill="#191970" stroke="#191970" points="278.0001,-163.6431 274.5,-153.6432 271.0001,-163.6432 278.0001,-163.6431"/>
</g>
<!-- Node17&#45;&gt;Node7 -->
<g id="edge25" class="edge">
<title>Node17&#45;&gt;Node7</title>
<path fill="none" stroke="#191970" d="M113.4423,-128.9125C161.5761,-109.7183 268.6919,-67.4311 306.5,-56 359.8205,-39.8788 422.5576,-26.4276 463.8021,-18.3161"/>
<polygon fill="#191970" stroke="#191970" points="464.6582,-21.7153 473.8062,-16.3706 463.3219,-14.844 464.6582,-21.7153"/>
</g>
<!-- Node18 -->
<g id="node19" class="node">
<title>Node18</title>
<g id="a_node19"><a xlink:title=" ">
<polygon fill="#ffffff" stroke="#bfbfbf" points="0,-62 0,-81 65,-81 65,-62 0,-62"/>
<text text-anchor="middle" x="32.5" y="-69" font-family="Helvetica,sans-Serif" font-size="10.00" fill="#000000">functional</text>
</a>
</g>
</g>
<!-- Node17&#45;&gt;Node18 -->
<g id="edge24" class="edge">
<title>Node17&#45;&gt;Node18</title>
<path fill="none" stroke="#191970" d="M81.3333,-128.9005C72.4446,-118.4525 58.05,-101.5325 47.1869,-88.7635"/>
<polygon fill="#191970" stroke="#191970" points="49.7972,-86.4303 40.6516,-81.0817 44.4656,-90.9662 49.7972,-86.4303"/>
</g>
<!-- Node19 -->
<g id="node20" class="node">
<title>Node19</title>
<g id="a_node20"><a xlink:href="double__overloads_8h.html" target="_top" xlink:title="Provides necessary operations on double to have it as a ScalarType in drake.">
<polygon fill="#ffffff" stroke="#000000" points="83.5,-56.5 83.5,-86.5 209.5,-86.5 209.5,-56.5 83.5,-56.5"/>
<text text-anchor="start" x="91.5" y="-74.5" font-family="Helvetica,sans-Serif" font-size="10.00" fill="#000000">drake/common/double</text>
<text text-anchor="middle" x="146.5" y="-63.5" font-family="Helvetica,sans-Serif" font-size="10.00" fill="#000000">_overloads.h</text>
</a>
</g>
</g>
<!-- Node17&#45;&gt;Node19 -->
<g id="edge26" class="edge">
<title>Node17&#45;&gt;Node19</title>
<path fill="none" stroke="#191970" d="M97.6667,-128.9005C105.3202,-119.9043 117.0557,-106.1099 127.1041,-94.2986"/>
<polygon fill="#191970" stroke="#191970" points="129.9063,-96.4063 133.7203,-86.5218 124.5747,-91.8704 129.9063,-96.4063"/>
</g>
<!-- Node20&#45;&gt;Node16 -->
<g id="edge29" class="edge">
<title>Node20&#45;&gt;Node16</title>
<path fill="none" stroke="#191970" d="M288.7957,-123.2967C298.5161,-112.9591 311.3894,-99.2684 321.4597,-88.5588"/>
<polygon fill="#191970" stroke="#191970" points="324.215,-90.7378 328.5155,-81.055 319.1154,-85.9426 324.215,-90.7378"/>
</g>
<!-- Node21&#45;&gt;Node1 -->
<g id="edge32" class="edge">
<title>Node21&#45;&gt;Node1</title>
<path fill="none" stroke="#191970" d="M705.6056,-313.4027C699.2076,-304.281 689.6264,-290.0553 682.5,-277 662.1974,-239.8064 670.437,-222.7101 643.5,-190 631.0891,-174.9292 613.234,-162.228 598.2891,-153.2097"/>
<polygon fill="#191970" stroke="#191970" points="599.8422,-150.0646 589.4345,-148.0822 596.3343,-156.1223 599.8422,-150.0646"/>
</g>
<!-- Node21&#45;&gt;Node2 -->
<g id="edge34" class="edge">
<title>Node21&#45;&gt;Node2</title>
<path fill="none" stroke="#191970" d="M719.1657,-313.4464C730.0931,-298.6141 753.3392,-270.3661 780.5,-257 880.4325,-207.8224 939.8838,-288.4693 1028.5,-221 1066.3437,-192.1872 1043.5132,-161.4585 1071.5,-123 1081.4465,-109.3319 1095.5844,-96.6851 1107.4115,-87.3446"/>
<polygon fill="#191970" stroke="#191970" points="1109.6923,-90.0069 1115.5221,-81.1602 1105.4479,-84.4405 1109.6923,-90.0069"/>
</g>
<!-- Node21&#45;&gt;Node3 -->
<g id="edge35" class="edge">
<title>Node21&#45;&gt;Node3</title>
<path fill="none" stroke="#191970" d="M687.2298,-313.3733C663.1034,-304.1822 626.5638,-290.2624 599.8123,-280.0713"/>
<polygon fill="#191970" stroke="#191970" points="601.0313,-276.7904 590.4404,-276.5011 598.5393,-283.3318 601.0313,-276.7904"/>
</g>
<!-- Node22 -->
<g id="node23" class="node">
<title>Node22</title>
<g id="a_node23"><a xlink:title=" ">
<polygon fill="#ffffff" stroke="#bfbfbf" points="692,-257.5 692,-276.5 733,-276.5 733,-257.5 692,-257.5"/>
<text text-anchor="middle" x="712.5" y="-264.5" font-family="Helvetica,sans-Serif" font-size="10.00" fill="#000000">tuple</text>
</a>
</g>
</g>
<!-- Node21&#45;&gt;Node22 -->
<g id="edge33" class="edge">
<title>Node21&#45;&gt;Node22</title>
<path fill="none" stroke="#191970" d="M712.5,-313.2455C712.5,-305.9382 712.5,-295.6944 712.5,-286.7046"/>
<polygon fill="#191970" stroke="#191970" points="716.0001,-286.6426 712.5,-276.6427 709.0001,-286.6427 716.0001,-286.6426"/>
</g>
<!-- Node23 -->
<g id="node24" class="node">
<title>Node23</title>
<g id="a_node24"><a xlink:href="unused_8h.html" target="_top" xlink:title=" ">
<polygon fill="#ffffff" stroke="#000000" points="790,-257.5 790,-276.5 927,-276.5 927,-257.5 790,-257.5"/>
<text text-anchor="middle" x="858.5" y="-264.5" font-family="Helvetica,sans-Serif" font-size="10.00" fill="#000000">drake/common/unused.h</text>
</a>
</g>
</g>
<!-- Node21&#45;&gt;Node23 -->
<g id="edge36" class="edge">
<title>Node21&#45;&gt;Node23</title>
<path fill="none" stroke="#191970" d="M737.5983,-313.3733C761.4555,-304.2226 797.5335,-290.3844 824.071,-280.2057"/>
<polygon fill="#191970" stroke="#191970" points="825.6459,-283.3503 833.7292,-276.5011 823.139,-276.8145 825.6459,-283.3503"/>
</g>
<!-- Node24&#45;&gt;Node2 -->
<g id="edge39" class="edge">
<title>Node24&#45;&gt;Node2</title>
<path fill="none" stroke="#191970" d="M965.1921,-369.4096C983.4081,-340.8527 1023.6911,-276.7679 1054.5,-221 1080.0119,-174.8203 1107.0887,-118.8868 1120.6588,-90.305"/>
<polygon fill="#191970" stroke="#191970" points="1123.9096,-91.6176 1125.0193,-81.0811 1117.5812,-88.6259 1123.9096,-91.6176"/>
</g>
<!-- Node24&#45;&gt;Node11 -->
<g id="edge40" class="edge">
<title>Node24&#45;&gt;Node11</title>
<path fill="none" stroke="#191970" d="M956.5237,-369.1997C957.4974,-344.0187 956.418,-293.0454 935.5,-257 922.6444,-234.8475 910.4233,-237.0954 890.5,-221 873.5455,-207.3031 871.0672,-201.4158 852.5,-190 818.9404,-169.3662 804.4798,-175.5485 771.5,-154 754.381,-142.8147 755.6361,-132.4475 737.5,-123 710.2679,-108.8142 635.7395,-93.4833 579.0366,-83.2714"/>
<polygon fill="#191970" stroke="#191970" points="579.4887,-79.7969 569.0298,-81.4887 578.261,-86.6884 579.4887,-79.7969"/>
</g>
<!-- Node24&#45;&gt;Node21 -->
<g id="edge42" class="edge">
<title>Node24&#45;&gt;Node21</title>
<path fill="none" stroke="#191970" d="M898.2201,-370.0032C856.1403,-359.3534 799.6383,-345.0535 760.046,-335.0332"/>
<polygon fill="#191970" stroke="#191970" points="760.6648,-331.5796 750.1117,-332.519 758.9473,-338.3656 760.6648,-331.5796"/>
</g>
<!-- Node24&#45;&gt;Node23 -->
<g id="edge41" class="edge">
<title>Node24&#45;&gt;Node23</title>
<path fill="none" stroke="#191970" d="M942.8189,-369.1389C924.7866,-347.2957 891.8287,-307.3724 872.8993,-284.4424"/>
<polygon fill="#191970" stroke="#191970" points="875.4571,-282.043 866.3917,-276.5595 870.0589,-286.4994 875.4571,-282.043"/>
</g>
<!-- Node25 -->
<g id="node26" class="node">
<title>Node25</title>
<g id="a_node26"><a xlink:title=" ">
<polygon fill="#ffffff" stroke="#bfbfbf" points="1021.5,-313.5 1021.5,-332.5 1085.5,-332.5 1085.5,-313.5 1021.5,-313.5"/>
<text text-anchor="middle" x="1053.5" y="-320.5" font-family="Helvetica,sans-Serif" font-size="10.00" fill="#000000">algorithm</text>
</a>
</g>
</g>
<!-- Node24&#45;&gt;Node25 -->
<g id="edge38" class="edge">
<title>Node24&#45;&gt;Node25</title>
<path fill="none" stroke="#191970" d="M979.4735,-369.4554C994.6776,-359.9141 1014.2759,-347.6151 1029.4875,-338.0691"/>
<polygon fill="#191970" stroke="#191970" points="1031.7037,-340.8105 1038.3135,-332.5303 1027.9828,-334.8813 1031.7037,-340.8105"/>
</g>
<!-- Node26 -->
<g id="node27" class="node">
<title>Node26</title>
<g id="a_node27"><a xlink:href="gradient_8h.html" target="_top" xlink:title="Utilities for arithmetic on gradients.">
<polygon fill="#ffffff" stroke="#000000" points="1104,-313.5 1104,-332.5 1229,-332.5 1229,-313.5 1104,-313.5"/>
<text text-anchor="middle" x="1166.5" y="-320.5" font-family="Helvetica,sans-Serif" font-size="10.00" fill="#000000">drake/math/gradient.h</text>
</a>
</g>
</g>
<!-- Node24&#45;&gt;Node26 -->
<g id="edge43" class="edge">
<title>Node24&#45;&gt;Node26</title>
<path fill="none" stroke="#191970" d="M1007.1164,-369.4554C1042.9399,-359.0139 1090.094,-345.27 1123.8009,-335.4455"/>
<polygon fill="#191970" stroke="#191970" points="1125.1814,-338.6888 1133.8025,-332.5303 1123.2226,-331.9685 1125.1814,-338.6888"/>
</g>
<!-- Node26&#45;&gt;Node2 -->
<g id="edge44" class="edge">
<title>Node26&#45;&gt;Node2</title>
<path fill="none" stroke="#191970" d="M1165.0947,-313.448C1159.6459,-276.411 1139.8471,-141.8321 1132.3782,-91.0638"/>
<polygon fill="#191970" stroke="#191970" points="1135.825,-90.4456 1130.9067,-81.0615 1128.8995,-91.4645 1135.825,-90.4456"/>
</g>
</g>
</svg>
