<?xml version="1.0" encoding="UTF-8" standalone="no"?>
<!DOCTYPE svg PUBLIC "-//W3C//DTD SVG 1.1//EN"
 "http://www.w3.org/Graphics/SVG/1.1/DTD/svg11.dtd">
<!-- Generated by graphviz version 2.40.1 (20161225.0304)
 -->
<!-- Title: drake/solvers/fbstab/fbstab_dense.h Pages: 1 -->
<!--zoomable 385 -->
<svg id="main" version="1.1" xmlns="http://www.w3.org/2000/svg" xmlns:xlink="http://www.w3.org/1999/xlink" xml:space="preserve" onload="init(evt)">
<style type="text/css"><![CDATA[
.edge:hover path { stroke: red; }
.edge:hover polygon { stroke: red; fill: red; }
]]></style>
<script type="text/javascript"><![CDATA[
var edges = document.getElementsByTagName('g');
if (edges && edges.length) {
  for (var i=0;i<edges.length;i++) {
    if (edges[i].id.substr(0,4)=='edge') {
      edges[i].setAttribute('class','edge');
    }
  }
}
]]></script>
        <defs>
                <circle id="rim" cx="0" cy="0" r="7"/>
                <circle id="rim2" cx="0" cy="0" r="3.5"/>
                <g id="zoomPlus">
                        <use xlink:href="#rim" fill="#404040">
                                <set attributeName="fill" to="#808080" begin="zoomplus.mouseover" end="zoomplus.mouseout"/>
                        </use>
                        <path d="M-4,0h8M0,-4v8" fill="none" stroke="white" stroke-width="1.5" pointer-events="none"/>
                </g>
                <g id="zoomMin">
                        <use xlink:href="#rim" fill="#404040">
                                <set attributeName="fill" to="#808080" begin="zoomminus.mouseover" end="zoomminus.mouseout"/>
                        </use>
                        <path d="M-4,0h8" fill="none" stroke="white" stroke-width="1.5" pointer-events="none"/>
                </g>
                <g id="dirArrow">
                        <path fill="none" stroke="white" stroke-width="1.5" d="M0,-3.0v7 M-2.5,-0.5L0,-3.0L2.5,-0.5"/>
                </g>
               <g id="resetDef">
                       <use xlink:href="#rim2" fill="#404040">
                               <set attributeName="fill" to="#808080" begin="reset.mouseover" end="reset.mouseout"/>
                       </use>
               </g>
        </defs>

<script type="text/javascript">
var viewWidth = 1383;
var viewHeight = 385;
var sectionId = 'dynsection-0';
</script>
<script xlink:href="svgpan.js"/>
<svg id="graph" class="graph">
<g id="viewport">
<title>drake/solvers/fbstab/fbstab_dense.h</title>
<polygon fill="#ffffff" stroke="transparent" points="-4,4 -4,-381 1379,-381 1379,4 -4,4"/>
<!-- Node0 -->
<g id="node1" class="node">
<title>Node0</title>
<g id="a_node1"><a xlink:title=" ">
<polygon fill="#bfbfbf" stroke="#000000" points="309,-346.5 309,-376.5 425,-376.5 425,-346.5 309,-346.5"/>
<text text-anchor="start" x="317" y="-364.5" font-family="Helvetica,sans-Serif" font-size="10.00" fill="#000000">drake/solvers/fbstab</text>
<text text-anchor="middle" x="367" y="-353.5" font-family="Helvetica,sans-Serif" font-size="10.00" fill="#000000">/fbstab_dense.h</text>
</a>
</g>
</g>
<!-- Node1 -->
<g id="node2" class="node">
<title>Node1</title>
<g id="a_node2"><a xlink:title=" ">
<polygon fill="#ffffff" stroke="#bfbfbf" points="107,-73 107,-92 165,-92 165,-73 107,-73"/>
<text text-anchor="middle" x="136" y="-80" font-family="Helvetica,sans-Serif" font-size="10.00" fill="#000000">memory</text>
</a>
</g>
</g>
<!-- Node0&#45;&gt;Node1 -->
<g id="edge1" class="edge">
<title>Node0&#45;&gt;Node1</title>
<path fill="none" stroke="#191970" d="M308.6344,-350.8098C262.6266,-341.3448 203.2845,-326.4996 185,-310 124.8467,-255.7187 128.8683,-146.8722 133.4335,-102.261"/>
<polygon fill="#191970" stroke="#191970" points="136.9309,-102.4838 134.5961,-92.1495 129.9767,-101.6842 136.9309,-102.4838"/>
</g>
<!-- Node2 -->
<g id="node3" class="node">
<title>Node2</title>
<g id="a_node3"><a xlink:title=" ">
<polygon fill="#ffffff" stroke="#bfbfbf" points="96.5,-6 96.5,-25 173.5,-25 173.5,-6 96.5,-6"/>
<text text-anchor="middle" x="135" y="-13" font-family="Helvetica,sans-Serif" font-size="10.00" fill="#000000">Eigen/Dense</text>
</a>
</g>
</g>
<!-- Node0&#45;&gt;Node2 -->
<g id="edge2" class="edge">
<title>Node0&#45;&gt;Node2</title>
<path fill="none" stroke="#191970" d="M308.8478,-351.0166C205.3637,-330.6927 0,-282.0964 0,-216.5 0,-216.5 0,-216.5 0,-149.5 0,-91.4129 63.735,-49.8866 103.6199,-29.5867"/>
<polygon fill="#191970" stroke="#191970" points="105.2795,-32.6709 112.7075,-25.1161 102.1895,-26.3898 105.2795,-32.6709"/>
</g>
<!-- Node3 -->
<g id="node4" class="node">
<title>Node3</title>
<g id="a_node4"><a xlink:href="drake__copyable_8h.html" target="_top" xlink:title="Provides careful macros to selectively enable or disable the special member functions for copy&#45;constr...">
<polygon fill="#ffffff" stroke="#000000" points="439.5,-.5 439.5,-30.5 560.5,-30.5 560.5,-.5 439.5,-.5"/>
<text text-anchor="start" x="447.5" y="-18.5" font-family="Helvetica,sans-Serif" font-size="10.00" fill="#000000">drake/common/drake</text>
<text text-anchor="middle" x="500" y="-7.5" font-family="Helvetica,sans-Serif" font-size="10.00" fill="#000000">_copyable.h</text>
</a>
</g>
</g>
<!-- Node0&#45;&gt;Node3 -->
<g id="edge3" class="edge">
<title>Node0&#45;&gt;Node3</title>
<path fill="none" stroke="#191970" d="M425.1826,-359.3096C639.8427,-350.4679 1375,-313.133 1375,-216.5 1375,-216.5 1375,-216.5 1375,-149.5 1375,-68.3624 779.5388,-29.9016 571.0567,-18.9223"/>
<polygon fill="#191970" stroke="#191970" points="571.0022,-15.4148 560.8336,-18.3896 570.6379,-22.4053 571.0022,-15.4148"/>
</g>
<!-- Node4 -->
<g id="node5" class="node">
<title>Node4</title>
<g id="a_node5"><a xlink:href="dense__data_8h.html" target="_top" xlink:title=" ">
<polygon fill="#ffffff" stroke="#000000" points="261,-67.5 261,-97.5 409,-97.5 409,-67.5 261,-67.5"/>
<text text-anchor="start" x="269" y="-85.5" font-family="Helvetica,sans-Serif" font-size="10.00" fill="#000000">drake/solvers/fbstab</text>
<text text-anchor="middle" x="335" y="-74.5" font-family="Helvetica,sans-Serif" font-size="10.00" fill="#000000">/components/dense_data.h</text>
</a>
</g>
</g>
<!-- Node0&#45;&gt;Node4 -->
<g id="edge4" class="edge">
<title>Node0&#45;&gt;Node4</title>
<path fill="none" stroke="#191970" d="M366.504,-346.402C365.4482,-317.895 362.5214,-254.2275 356,-201 352.0339,-168.6287 345.0969,-131.6772 340.2865,-107.7661"/>
<polygon fill="#191970" stroke="#191970" points="343.6736,-106.8588 338.2443,-97.7608 336.815,-108.2588 343.6736,-106.8588"/>
</g>
<!-- Node5 -->
<g id="node6" class="node">
<title>Node5</title>
<g id="a_node6"><a xlink:href="dense__feasibility_8h.html" target="_top" xlink:title=" ">
<polygon fill="#ffffff" stroke="#000000" points="171.5,-201.5 171.5,-231.5 346.5,-231.5 346.5,-201.5 171.5,-201.5"/>
<text text-anchor="start" x="179.5" y="-219.5" font-family="Helvetica,sans-Serif" font-size="10.00" fill="#000000">drake/solvers/fbstab</text>
<text text-anchor="middle" x="259" y="-208.5" font-family="Helvetica,sans-Serif" font-size="10.00" fill="#000000">/components/dense_feasibility.h</text>
</a>
</g>
</g>
<!-- Node0&#45;&gt;Node5 -->
<g id="edge7" class="edge">
<title>Node0&#45;&gt;Node5</title>
<path fill="none" stroke="#191970" d="M355.6462,-346.2565C336.7182,-320.8439 298.5975,-269.6633 276.3064,-239.7355"/>
<polygon fill="#191970" stroke="#191970" points="278.9821,-237.4684 270.2016,-231.5392 273.3681,-241.6498 278.9821,-237.4684"/>
</g>
<!-- Node6 -->
<g id="node7" class="node">
<title>Node6</title>
<g id="a_node7"><a xlink:href="dense__variable_8h.html" target="_top" xlink:title=" ">
<polygon fill="#ffffff" stroke="#000000" points="142,-134.5 142,-164.5 308,-164.5 308,-134.5 142,-134.5"/>
<text text-anchor="start" x="150" y="-152.5" font-family="Helvetica,sans-Serif" font-size="10.00" fill="#000000">drake/solvers/fbstab</text>
<text text-anchor="middle" x="225" y="-141.5" font-family="Helvetica,sans-Serif" font-size="10.00" fill="#000000">/components/dense_variable.h</text>
</a>
</g>
</g>
<!-- Node0&#45;&gt;Node6 -->
<g id="edge28" class="edge">
<title>Node0&#45;&gt;Node6</title>
<path fill="none" stroke="#191970" d="M318.6058,-346.4388C269.1725,-328.164 195.1193,-292.0958 162,-232 155.35,-219.9333 156.0972,-213.4493 162,-201 167.7308,-188.9134 177.841,-178.7223 188.3071,-170.678"/>
<polygon fill="#191970" stroke="#191970" points="190.5911,-173.348 196.7,-164.6917 186.5263,-167.6491 190.5911,-173.348"/>
</g>
<!-- Node7 -->
<g id="node8" class="node">
<title>Node7</title>
<g id="a_node8"><a xlink:href="dense__linear__solver_8h.html" target="_top" xlink:title=" ">
<polygon fill="#ffffff" stroke="#000000" points="395.5,-268.5 395.5,-309.5 540.5,-309.5 540.5,-268.5 395.5,-268.5"/>
<text text-anchor="start" x="403.5" y="-297.5" font-family="Helvetica,sans-Serif" font-size="10.00" fill="#000000">drake/solvers/fbstab</text>
<text text-anchor="start" x="403.5" y="-286.5" font-family="Helvetica,sans-Serif" font-size="10.00" fill="#000000">/components/dense_linear</text>
<text text-anchor="middle" x="468" y="-275.5" font-family="Helvetica,sans-Serif" font-size="10.00" fill="#000000">_solver.h</text>
</a>
</g>
</g>
<!-- Node0&#45;&gt;Node7 -->
<g id="edge16" class="edge">
<title>Node0&#45;&gt;Node7</title>
<path fill="none" stroke="#191970" d="M387.9273,-346.478C400.3889,-337.5328 416.5599,-325.9248 431.1042,-315.4846"/>
<polygon fill="#191970" stroke="#191970" points="433.3565,-318.1762 439.4393,-309.5015 429.2745,-312.4896 433.3565,-318.1762"/>
</g>
<!-- Node8 -->
<g id="node9" class="node">
<title>Node8</title>
<g id="a_node9"><a xlink:href="dense__residual_8h.html" target="_top" xlink:title=" ">
<polygon fill="#ffffff" stroke="#000000" points="479.5,-201.5 479.5,-231.5 644.5,-231.5 644.5,-201.5 479.5,-201.5"/>
<text text-anchor="start" x="487.5" y="-219.5" font-family="Helvetica,sans-Serif" font-size="10.00" fill="#000000">drake/solvers/fbstab</text>
<text text-anchor="middle" x="562" y="-208.5" font-family="Helvetica,sans-Serif" font-size="10.00" fill="#000000">/components/dense_residual.h</text>
</a>
</g>
</g>
<!-- Node0&#45;&gt;Node8 -->
<g id="edge27" class="edge">
<title>Node0&#45;&gt;Node8</title>
<path fill="none" stroke="#191970" d="M425.4189,-352.2228C472.5726,-343.4882 533.6644,-328.9264 550,-310 566.0266,-291.4317 567.4007,-262.5578 565.7857,-241.8094"/>
<polygon fill="#191970" stroke="#191970" points="569.2595,-241.3756 564.7305,-231.7976 562.298,-242.1094 569.2595,-241.3756"/>
</g>
<!-- Node10 -->
<g id="node11" class="node">
<title>Node10</title>
<g id="a_node11"><a xlink:href="fbstab__algorithm_8h.html" target="_top" xlink:title=" ">
<polygon fill="#ffffff" stroke="#000000" points="865,-274 865,-304 981,-304 981,-274 865,-274"/>
<text text-anchor="start" x="873" y="-292" font-family="Helvetica,sans-Serif" font-size="10.00" fill="#000000">drake/solvers/fbstab</text>
<text text-anchor="middle" x="923" y="-281" font-family="Helvetica,sans-Serif" font-size="10.00" fill="#000000">/fbstab_algorithm.h</text>
</a>
</g>
</g>
<!-- Node0&#45;&gt;Node10 -->
<g id="edge29" class="edge">
<title>Node0&#45;&gt;Node10</title>
<path fill="none" stroke="#191970" d="M425.1893,-353.9124C528.751,-340.4084 744.5046,-312.275 854.8323,-297.8888"/>
<polygon fill="#191970" stroke="#191970" points="855.3867,-301.3462 864.8502,-296.5825 854.4816,-294.405 855.3867,-301.3462"/>
</g>
<!-- Node4&#45;&gt;Node2 -->
<g id="edge5" class="edge">
<title>Node4&#45;&gt;Node2</title>
<path fill="none" stroke="#191970" d="M290.1161,-67.4639C254.9427,-55.6808 206.5393,-39.4657 173.2043,-28.2984"/>
<polygon fill="#191970" stroke="#191970" points="173.9679,-24.8631 163.374,-25.0053 171.7443,-31.5006 173.9679,-24.8631"/>
</g>
<!-- Node4&#45;&gt;Node3 -->
<g id="edge6" class="edge">
<title>Node4&#45;&gt;Node3</title>
<path fill="none" stroke="#191970" d="M372.0292,-67.4639C396.0408,-57.7137 427.5258,-44.9289 453.2569,-34.4805"/>
<polygon fill="#191970" stroke="#191970" points="454.8608,-37.6069 462.8093,-30.6017 452.2272,-31.1212 454.8608,-37.6069"/>
</g>
<!-- Node5&#45;&gt;Node2 -->
<g id="edge8" class="edge">
<title>Node5&#45;&gt;Node2</title>
<path fill="none" stroke="#191970" d="M198.6718,-201.436C176.0721,-193.4844 151.4328,-181.7871 133,-165 98.8055,-133.8585 83.825,-111.0242 98,-67 102.0817,-54.3232 110.5676,-42.1274 118.384,-32.7887"/>
<polygon fill="#191970" stroke="#191970" points="121.2039,-34.8844 125.2286,-25.0837 115.9706,-30.2355 121.2039,-34.8844"/>
</g>
<!-- Node5&#45;&gt;Node3 -->
<g id="edge9" class="edge">
<title>Node5&#45;&gt;Node3</title>
<path fill="none" stroke="#191970" d="M282.9939,-201.2959C298.3944,-191.3321 318.6795,-177.8228 336,-165 373.8252,-136.997 383.1426,-129.6209 418,-98 439.5312,-78.468 462.7761,-54.8158 478.9992,-37.8532"/>
<polygon fill="#191970" stroke="#191970" points="481.5717,-40.2271 485.9276,-30.5691 476.4996,-35.4027 481.5717,-40.2271"/>
</g>
<!-- Node5&#45;&gt;Node4 -->
<g id="edge10" class="edge">
<title>Node5&#45;&gt;Node4</title>
<path fill="none" stroke="#191970" d="M282.0467,-201.4736C294.2417,-192.3461 308.4261,-179.6416 317,-165 327.209,-147.5661 331.6428,-124.9941 333.5607,-107.8684"/>
<polygon fill="#191970" stroke="#191970" points="337.0825,-107.7831 334.4932,-97.5095 330.1107,-107.1555 337.0825,-107.7831"/>
</g>
<!-- Node5&#45;&gt;Node6 -->
<g id="edge11" class="edge">
<title>Node5&#45;&gt;Node6</title>
<path fill="none" stroke="#191970" d="M251.2849,-201.2967C247.1551,-193.1586 241.9708,-182.9425 237.3002,-173.7386"/>
<polygon fill="#191970" stroke="#191970" points="240.3311,-171.9768 232.6846,-164.6432 234.0888,-175.1445 240.3311,-171.9768"/>
</g>
<!-- Node6&#45;&gt;Node1 -->
<g id="edge12" class="edge">
<title>Node6&#45;&gt;Node1</title>
<path fill="none" stroke="#191970" d="M204.8045,-134.2967C190.534,-123.5537 171.4532,-109.1895 157.0052,-98.3129"/>
<polygon fill="#191970" stroke="#191970" points="158.7867,-95.2731 148.6924,-92.055 154.5766,-100.8656 158.7867,-95.2731"/>
</g>
<!-- Node6&#45;&gt;Node2 -->
<g id="edge13" class="edge">
<title>Node6&#45;&gt;Node2</title>
<path fill="none" stroke="#191970" d="M216.2035,-134.3247C206.3545,-117.5645 189.7089,-89.9167 174,-67 166.135,-55.5263 156.7364,-43.0815 149.1364,-33.3"/>
<polygon fill="#191970" stroke="#191970" points="151.6843,-30.8773 142.7581,-25.17 146.1769,-35.198 151.6843,-30.8773"/>
</g>
<!-- Node6&#45;&gt;Node3 -->
<g id="edge14" class="edge">
<title>Node6&#45;&gt;Node3</title>
<path fill="none" stroke="#191970" d="M225.5722,-134.2628C227.1316,-115.5811 232.6778,-84.2789 252,-67 277.7863,-43.9406 365.5493,-29.7728 429.3698,-22.2773"/>
<polygon fill="#191970" stroke="#191970" points="429.8562,-25.7445 439.3938,-21.1312 429.061,-18.7898 429.8562,-25.7445"/>
</g>
<!-- Node6&#45;&gt;Node4 -->
<g id="edge15" class="edge">
<title>Node6&#45;&gt;Node4</title>
<path fill="none" stroke="#191970" d="M249.6861,-134.4639C264.8647,-125.2188 284.5228,-113.2452 301.1427,-103.1222"/>
<polygon fill="#191970" stroke="#191970" points="303.2959,-105.9089 310.0157,-97.7177 299.6545,-99.9305 303.2959,-105.9089"/>
</g>
<!-- Node7&#45;&gt;Node2 -->
<g id="edge17" class="edge">
<title>Node7&#45;&gt;Node2</title>
<path fill="none" stroke="#191970" d="M395.2764,-280.9276C317.7996,-271.3734 201.0349,-253.9532 162,-232 102.8875,-198.7552 95.4888,-165.5085 89,-98 87.6818,-84.2854 84.0882,-79.8725 89,-67 94.1934,-53.3895 104.8209,-41.0965 114.5535,-31.9368"/>
<polygon fill="#191970" stroke="#191970" points="116.883,-34.549 122.046,-25.2973 112.2405,-29.3099 116.883,-34.549"/>
</g>
<!-- Node7&#45;&gt;Node3 -->
<g id="edge18" class="edge">
<title>Node7&#45;&gt;Node3</title>
<path fill="none" stroke="#191970" d="M540.6838,-274.7639C585.9657,-264.4257 638.4717,-249.2633 654,-232 674.2856,-209.448 664.0978,-195.194 667,-165 668.3182,-151.2854 673.3236,-146.2409 667,-134 642.3023,-86.1913 588.4273,-53.4907 548.5127,-34.7461"/>
<polygon fill="#191970" stroke="#191970" points="549.7557,-31.4664 539.2044,-30.5065 546.8541,-37.8367 549.7557,-31.4664"/>
</g>
<!-- Node7&#45;&gt;Node4 -->
<g id="edge19" class="edge">
<title>Node7&#45;&gt;Node4</title>
<path fill="none" stroke="#191970" d="M467.3516,-268.4695C465.3508,-236.5269 457.3755,-174.4095 426,-134 415.582,-120.5823 400.621,-110.0926 385.8304,-102.1831"/>
<polygon fill="#191970" stroke="#191970" points="387.1922,-98.9505 376.6853,-97.5887 384.0498,-105.2055 387.1922,-98.9505"/>
</g>
<!-- Node7&#45;&gt;Node6 -->
<g id="edge26" class="edge">
<title>Node7&#45;&gt;Node6</title>
<path fill="none" stroke="#191970" d="M445.8193,-268.3562C424.1793,-249.0252 389.6867,-220.2998 356,-201 332.9841,-187.8138 305.9348,-176.5509 282.4103,-167.951"/>
<polygon fill="#191970" stroke="#191970" points="283.5018,-164.6244 272.9073,-164.55 281.1431,-171.215 283.5018,-164.6244"/>
</g>
<!-- Node7&#45;&gt;Node8 -->
<g id="edge20" class="edge">
<title>Node7&#45;&gt;Node8</title>
<path fill="none" stroke="#191970" d="M494.6852,-268.4183C507.0335,-258.8944 521.6985,-247.5836 534.1834,-237.9543"/>
<polygon fill="#191970" stroke="#191970" points="536.6424,-240.4779 542.4232,-231.5991 532.3672,-234.935 536.6424,-240.4779"/>
</g>
<!-- Node8&#45;&gt;Node2 -->
<g id="edge22" class="edge">
<title>Node8&#45;&gt;Node2</title>
<path fill="none" stroke="#191970" d="M552.8359,-201.1106C532.9418,-169.3368 482.3647,-96.9522 418,-67 377.1952,-48.0114 253.5557,-30.2314 183.9563,-21.3716"/>
<polygon fill="#191970" stroke="#191970" points="184.0423,-17.8549 173.6835,-20.0787 183.1681,-24.8001 184.0423,-17.8549"/>
</g>
<!-- Node8&#45;&gt;Node3 -->
<g id="edge23" class="edge">
<title>Node8&#45;&gt;Node3</title>
<path fill="none" stroke="#191970" d="M562.2681,-201.394C562.2312,-173.6245 559.6623,-113.0888 540,-67 535.6687,-56.8473 528.8344,-46.9578 522.0321,-38.6037"/>
<polygon fill="#191970" stroke="#191970" points="524.506,-36.1124 515.3343,-30.8086 519.1967,-40.6743 524.506,-36.1124"/>
</g>
<!-- Node8&#45;&gt;Node4 -->
<g id="edge24" class="edge">
<title>Node8&#45;&gt;Node4</title>
<path fill="none" stroke="#191970" d="M547.232,-201.4029C529.0065,-183.4363 496.4324,-153.4316 464,-134 441.8272,-120.7154 415.6069,-109.5269 392.6156,-101.0081"/>
<polygon fill="#191970" stroke="#191970" points="393.5754,-97.6333 382.9811,-97.5223 391.1938,-104.2158 393.5754,-97.6333"/>
</g>
<!-- Node8&#45;&gt;Node6 -->
<g id="edge25" class="edge">
<title>Node8&#45;&gt;Node6</title>
<path fill="none" stroke="#191970" d="M486.3706,-201.4639C434.2128,-191.0942 364.7899,-177.2921 310.6012,-166.5186"/>
<polygon fill="#191970" stroke="#191970" points="311.1585,-163.061 300.6679,-164.5438 309.7934,-169.9266 311.1585,-163.061"/>
</g>
<!-- Node9 -->
<g id="node10" class="node">
<title>Node9</title>
<g id="a_node10"><a xlink:title=" ">
<polygon fill="#ffffff" stroke="#bfbfbf" points="592.5,-140 592.5,-159 657.5,-159 657.5,-140 592.5,-140"/>
<text text-anchor="middle" x="625" y="-147" font-family="Helvetica,sans-Serif" font-size="10.00" fill="#000000">stdexcept</text>
</a>
</g>
</g>
<!-- Node8&#45;&gt;Node9 -->
<g id="edge21" class="edge">
<title>Node8&#45;&gt;Node9</title>
<path fill="none" stroke="#191970" d="M576.2957,-201.2967C586.0161,-190.9591 598.8894,-177.2684 608.9597,-166.5588"/>
<polygon fill="#191970" stroke="#191970" points="611.715,-168.7378 616.0155,-159.055 606.6154,-163.9426 611.715,-168.7378"/>
</g>
<!-- Node10&#45;&gt;Node9 -->
<g id="edge37" class="edge">
<title>Node10&#45;&gt;Node9</title>
<path fill="none" stroke="#191970" d="M864.6624,-277.8327C825.1962,-268.8455 772.6865,-254.0373 730,-232 695.6001,-214.2407 661.4004,-184.5458 641.7773,-166.0437"/>
<polygon fill="#191970" stroke="#191970" points="644.1731,-163.4919 634.5341,-159.094 639.3267,-168.543 644.1731,-163.4919"/>
</g>
<!-- Node11 -->
<g id="node12" class="node">
<title>Node11</title>
<g id="a_node12"><a xlink:title=" ">
<polygon fill="#ffffff" stroke="#bfbfbf" points="1283,-207 1283,-226 1347,-226 1347,-207 1283,-207"/>
<text text-anchor="middle" x="1315" y="-214" font-family="Helvetica,sans-Serif" font-size="10.00" fill="#000000">algorithm</text>
</a>
</g>
</g>
<!-- Node10&#45;&gt;Node11 -->
<g id="edge30" class="edge">
<title>Node10&#45;&gt;Node11</title>
<path fill="none" stroke="#191970" d="M981.2042,-283.1656C1051.4519,-275.2985 1172.7585,-259.0641 1274,-232 1276.8258,-231.2446 1279.7273,-230.3666 1282.6181,-229.4199"/>
<polygon fill="#191970" stroke="#191970" points="1284.0119,-232.6397 1292.2797,-226.0145 1281.6849,-226.0378 1284.0119,-232.6397"/>
</g>
<!-- Node12 -->
<g id="node13" class="node">
<title>Node12</title>
<g id="a_node13"><a xlink:title=" ">
<polygon fill="#ffffff" stroke="#bfbfbf" points="739,-207 739,-226 781,-226 781,-207 739,-207"/>
<text text-anchor="middle" x="760" y="-214" font-family="Helvetica,sans-Serif" font-size="10.00" fill="#000000">array</text>
</a>
</g>
</g>
<!-- Node10&#45;&gt;Node12 -->
<g id="edge31" class="edge">
<title>Node10&#45;&gt;Node12</title>
<path fill="none" stroke="#191970" d="M885.9892,-273.9779C859.1274,-262.8722 822.034,-247.1159 790,-232 789.0192,-231.5372 788.0234,-231.0603 787.02,-230.5738"/>
<polygon fill="#191970" stroke="#191970" points="788.4899,-227.3957 777.9801,-226.0562 785.3607,-233.6573 788.4899,-227.3957"/>
</g>
<!-- Node13 -->
<g id="node14" class="node">
<title>Node13</title>
<g id="a_node14"><a xlink:title=" ">
<polygon fill="#ffffff" stroke="#bfbfbf" points="799,-207 799,-226 849,-226 849,-207 799,-207"/>
<text text-anchor="middle" x="824" y="-214" font-family="Helvetica,sans-Serif" font-size="10.00" fill="#000000">chrono</text>
</a>
</g>
</g>
<!-- Node10&#45;&gt;Node13 -->
<g id="edge32" class="edge">
<title>Node10&#45;&gt;Node13</title>
<path fill="none" stroke="#191970" d="M902.4871,-273.978C885.7998,-261.7574 862.3264,-244.5673 845.4035,-232.1743"/>
<polygon fill="#191970" stroke="#191970" points="847.3575,-229.2671 837.2216,-226.1825 843.2216,-234.9147 847.3575,-229.2671"/>
</g>
<!-- Node14 -->
<g id="node15" class="node">
<title>Node14</title>
<g id="a_node15"><a xlink:title=" ">
<polygon fill="#ffffff" stroke="#bfbfbf" points="867.5,-207 867.5,-226 914.5,-226 914.5,-207 867.5,-207"/>
<text text-anchor="middle" x="891" y="-214" font-family="Helvetica,sans-Serif" font-size="10.00" fill="#000000">cmath</text>
</a>
</g>
</g>
<!-- Node10&#45;&gt;Node14 -->
<g id="edge33" class="edge">
<title>Node10&#45;&gt;Node14</title>
<path fill="none" stroke="#191970" d="M916.3696,-273.978C911.4497,-262.8313 904.7048,-247.55 899.4064,-235.5457"/>
<polygon fill="#191970" stroke="#191970" points="902.6077,-234.1309 895.3677,-226.3957 896.2038,-236.9575 902.6077,-234.1309"/>
</g>
<!-- Node15 -->
<g id="node16" class="node">
<title>Node15</title>
<g id="a_node16"><a xlink:title=" ">
<polygon fill="#ffffff" stroke="#bfbfbf" points="933,-207 933,-226 979,-226 979,-207 933,-207"/>
<text text-anchor="middle" x="956" y="-214" font-family="Helvetica,sans-Serif" font-size="10.00" fill="#000000">cstdio</text>
</a>
</g>
</g>
<!-- Node10&#45;&gt;Node15 -->
<g id="edge34" class="edge">
<title>Node10&#45;&gt;Node15</title>
<path fill="none" stroke="#191970" d="M929.8376,-273.978C934.9113,-262.8313 941.8669,-247.55 947.3309,-235.5457"/>
<polygon fill="#191970" stroke="#191970" points="950.5385,-236.9472 951.4958,-226.3957 944.1674,-234.0472 950.5385,-236.9472"/>
</g>
<!-- Node16 -->
<g id="node17" class="node">
<title>Node16</title>
<g id="a_node17"><a xlink:title=" ">
<polygon fill="#ffffff" stroke="#bfbfbf" points="997,-207 997,-226 1047,-226 1047,-207 997,-207"/>
<text text-anchor="middle" x="1022" y="-214" font-family="Helvetica,sans-Serif" font-size="10.00" fill="#000000">cstring</text>
</a>
</g>
</g>
<!-- Node10&#45;&gt;Node16 -->
<g id="edge35" class="edge">
<title>Node10&#45;&gt;Node16</title>
<path fill="none" stroke="#191970" d="M943.5129,-273.978C960.2002,-261.7574 983.6736,-244.5673 1000.5965,-232.1743"/>
<polygon fill="#191970" stroke="#191970" points="1002.7784,-234.9147 1008.7784,-226.1825 998.6425,-229.2671 1002.7784,-234.9147"/>
</g>
<!-- Node17 -->
<g id="node18" class="node">
<title>Node17</title>
<g id="a_node18"><a xlink:title=" ">
<polygon fill="#ffffff" stroke="#bfbfbf" points="1065,-207 1065,-226 1125,-226 1125,-207 1065,-207"/>
<text text-anchor="middle" x="1095" y="-214" font-family="Helvetica,sans-Serif" font-size="10.00" fill="#000000">iostream</text>
</a>
</g>
</g>
<!-- Node10&#45;&gt;Node17 -->
<g id="edge36" class="edge">
<title>Node10&#45;&gt;Node17</title>
<path fill="none" stroke="#191970" d="M958.6385,-273.978C989.3149,-261.0475 1033.1911,-242.5532 1062.8186,-230.0648"/>
<polygon fill="#191970" stroke="#191970" points="1064.425,-233.186 1072.2804,-226.0766 1061.706,-226.7356 1064.425,-233.186"/>
</g>
<!-- Node18 -->
<g id="node19" class="node">
<title>Node18</title>
<g id="a_node19"><a xlink:href="drake__assert_8h.html" target="_top" xlink:title="Provides Drake&#39;s assertion implementation.">
<polygon fill="#ffffff" stroke="#000000" points="1143.5,-201.5 1143.5,-231.5 1264.5,-231.5 1264.5,-201.5 1143.5,-201.5"/>
<text text-anchor="start" x="1151.5" y="-219.5" font-family="Helvetica,sans-Serif" font-size="10.00" fill="#000000">drake/common/drake</text>
<text text-anchor="middle" x="1204" y="-208.5" font-family="Helvetica,sans-Serif" font-size="10.00" fill="#000000">_assert.h</text>
</a>
</g>
</g>
<!-- Node10&#45;&gt;Node18 -->
<g id="edge38" class="edge">
<title>Node10&#45;&gt;Node18</title>
<path fill="none" stroke="#191970" d="M981.2234,-273.978C1026.2474,-262.3614 1088.6761,-246.2544 1135.9949,-234.0458"/>
<polygon fill="#191970" stroke="#191970" points="1137.0427,-237.3902 1145.8512,-231.5028 1135.2939,-230.6121 1137.0427,-237.3902"/>
</g>
<!-- Node19 -->
<g id="node20" class="node">
<title>Node19</title>
<g id="a_node20"><a xlink:title=" ">
<polygon fill="#ffffff" stroke="#bfbfbf" points="1169.5,-140 1169.5,-159 1238.5,-159 1238.5,-140 1169.5,-140"/>
<text text-anchor="middle" x="1204" y="-147" font-family="Helvetica,sans-Serif" font-size="10.00" fill="#000000">type_traits</text>
</a>
</g>
</g>
<!-- Node18&#45;&gt;Node19 -->
<g id="edge39" class="edge">
<title>Node18&#45;&gt;Node19</title>
<path fill="none" stroke="#191970" d="M1204,-201.2967C1204,-191.7699 1204,-179.3954 1204,-169.1306"/>
<polygon fill="#191970" stroke="#191970" points="1207.5001,-169.0549 1204,-159.055 1200.5001,-169.055 1207.5001,-169.0549"/>
</g>
</g>
</svg>
        <g id="navigator" transform="translate(0 0)" fill="#404254">
                <rect fill="#f2f5e9" fill-opacity="0.5" stroke="#606060" stroke-width=".5" x="0" y="0" width="60" height="60"/>
                <use id="zoomplus" xlink:href="#zoomPlus" x="17" y="9" onmousedown="handleZoom(evt,'in')"/>
                <use id="zoomminus" xlink:href="#zoomMin" x="42" y="9" onmousedown="handleZoom(evt,'out')"/>
                <use id="reset" xlink:href="#resetDef" x="30" y="36" onmousedown="handleReset()"/>
                <g id="arrowUp" xlink:href="#dirArrow" transform="translate(30 24)" onmousedown="handlePan(0,-1)">
                  <use xlink:href="#rim" fill="#404040">
                        <set attributeName="fill" to="#808080" begin="arrowUp.mouseover" end="arrowUp.mouseout"/>
                  </use>
                  <path fill="none" stroke="white" stroke-width="1.5" d="M0,-3.0v7 M-2.5,-0.5L0,-3.0L2.5,-0.5"/>
                </g>
                <g id="arrowRight" xlink:href="#dirArrow" transform="rotate(90) translate(36 -43)" onmousedown="handlePan(1,0)">
                  <use xlink:href="#rim" fill="#404040">
                        <set attributeName="fill" to="#808080" begin="arrowRight.mouseover" end="arrowRight.mouseout"/>
                  </use>
                  <path fill="none" stroke="white" stroke-width="1.5" d="M0,-3.0v7 M-2.5,-0.5L0,-3.0L2.5,-0.5"/>
                </g>
                <g id="arrowDown" xlink:href="#dirArrow" transform="rotate(180) translate(-30 -48)" onmousedown="handlePan(0,1)">
                  <use xlink:href="#rim" fill="#404040">
                        <set attributeName="fill" to="#808080" begin="arrowDown.mouseover" end="arrowDown.mouseout"/>
                  </use>
                  <path fill="none" stroke="white" stroke-width="1.5" d="M0,-3.0v7 M-2.5,-0.5L0,-3.0L2.5,-0.5"/>
                </g>
                <g id="arrowLeft" xlink:href="#dirArrow" transform="rotate(270) translate(-36 17)" onmousedown="handlePan(-1,0)">
                  <use xlink:href="#rim" fill="#404040">
                        <set attributeName="fill" to="#808080" begin="arrowLeft.mouseover" end="arrowLeft.mouseout"/>
                  </use>
                  <path fill="none" stroke="white" stroke-width="1.5" d="M0,-3.0v7 M-2.5,-0.5L0,-3.0L2.5,-0.5"/>
                </g>
        </g>
        <svg viewBox="0 0 15 15" width="100%" height="30px" preserveAspectRatio="xMaxYMin meet">
         <g id="arrow_out" transform="scale(0.3 0.3)">
          <a xlink:href="fbstab__dense_8h__incl_org.svg" target="_base">
           <rect id="button" ry="5" rx="5" y="6" x="6" height="38" width="38"
                fill="#f2f5e9" fill-opacity="0.5" stroke="#606060" stroke-width="1.0"/>
           <path id="arrow"
             d="M 11.500037,31.436501 C 11.940474,20.09759 22.043105,11.32322 32.158766,21.979434 L 37.068811,17.246167 C 37.068811,17.246167 37.088388,32 37.088388,32 L 22.160133,31.978069 C 22.160133,31.978069 26.997745,27.140456 26.997745,27.140456 C 18.528582,18.264221 13.291696,25.230495 11.500037,31.436501 z"
             style="fill:#404040;"/>
          </a>
         </g>
        </svg>
</svg>
