<?xml version="1.0" encoding="UTF-8" standalone="no"?>
<!DOCTYPE svg PUBLIC "-//W3C//DTD SVG 1.1//EN"
 "http://www.w3.org/Graphics/SVG/1.1/DTD/svg11.dtd">
<!-- Generated by graphviz version 2.40.1 (20161225.0304)
 -->
<!-- Title: drake/solvers/fbstab/fbstab_mpc.h Pages: 1 -->
<svg width="1489pt" height="385pt"
 viewBox="0.00 0.00 1489.00 385.00" xmlns="http://www.w3.org/2000/svg" xmlns:xlink="http://www.w3.org/1999/xlink">
<g id="graph0" class="graph" transform="scale(1 1) rotate(0) translate(4 381)">
<title>drake/solvers/fbstab/fbstab_mpc.h</title>
<polygon fill="#ffffff" stroke="transparent" points="-4,4 -4,-381 1485,-381 1485,4 -4,4"/>
<!-- Node0 -->
<g id="node1" class="node">
<title>Node0</title>
<g id="a_node1"><a xlink:title=" ">
<polygon fill="#bfbfbf" stroke="#000000" points="407,-346.5 407,-376.5 523,-376.5 523,-346.5 407,-346.5"/>
<text text-anchor="start" x="415" y="-364.5" font-family="Helvetica,sans-Serif" font-size="10.00" fill="#000000">drake/solvers/fbstab</text>
<text text-anchor="middle" x="465" y="-353.5" font-family="Helvetica,sans-Serif" font-size="10.00" fill="#000000">/fbstab_mpc.h</text>
</a>
</g>
</g>
<!-- Node1 -->
<g id="node2" class="node">
<title>Node1</title>
<g id="a_node2"><a xlink:title=" ">
<polygon fill="#ffffff" stroke="#bfbfbf" points="66,-73 66,-92 124,-92 124,-73 66,-73"/>
<text text-anchor="middle" x="95" y="-80" font-family="Helvetica,sans-Serif" font-size="10.00" fill="#000000">memory</text>
</a>
</g>
</g>
<!-- Node0&#45;&gt;Node1 -->
<g id="edge1" class="edge">
<title>Node0&#45;&gt;Node1</title>
<path fill="none" stroke="#191970" d="M406.7966,-355.2066C354.12,-348.2446 275.0557,-334.606 210,-310 145.1863,-285.4855 109.6378,-292.0167 75,-232 50.8797,-190.2069 71.8466,-131.119 85.4892,-101.2891"/>
<polygon fill="#191970" stroke="#191970" points="88.7588,-102.5651 89.9234,-92.0344 82.446,-99.5404 88.7588,-102.5651"/>
</g>
<!-- Node2 -->
<g id="node3" class="node">
<title>Node2</title>
<g id="a_node3"><a xlink:title=" ">
<polygon fill="#ffffff" stroke="#bfbfbf" points="700.5,-6 700.5,-25 747.5,-25 747.5,-6 700.5,-6"/>
<text text-anchor="middle" x="724" y="-13" font-family="Helvetica,sans-Serif" font-size="10.00" fill="#000000">vector</text>
</a>
</g>
</g>
<!-- Node0&#45;&gt;Node2 -->
<g id="edge2" class="edge">
<title>Node0&#45;&gt;Node2</title>
<path fill="none" stroke="#191970" d="M523.2346,-352.9757C580.9328,-343.7087 664.5417,-327.8185 692,-310 735.5458,-281.7418 762,-268.4111 762,-216.5 762,-216.5 762,-216.5 762,-149.5 762,-107.2065 744.2624,-60.1555 733.0243,-34.5895"/>
<polygon fill="#191970" stroke="#191970" points="736.1341,-32.9726 728.8127,-25.3143 729.7604,-35.8667 736.1341,-32.9726"/>
</g>
<!-- Node3 -->
<g id="node4" class="node">
<title>Node3</title>
<g id="a_node4"><a xlink:title=" ">
<polygon fill="#ffffff" stroke="#bfbfbf" points="495.5,-6 495.5,-25 572.5,-25 572.5,-6 495.5,-6"/>
<text text-anchor="middle" x="534" y="-13" font-family="Helvetica,sans-Serif" font-size="10.00" fill="#000000">Eigen/Dense</text>
</a>
</g>
</g>
<!-- Node0&#45;&gt;Node3 -->
<g id="edge3" class="edge">
<title>Node0&#45;&gt;Node3</title>
<path fill="none" stroke="#191970" d="M523.2241,-353.6226C575.646,-345.3314 647.3795,-330.6094 667,-310 696.2389,-279.2874 686,-258.9049 686,-216.5 686,-216.5 686,-216.5 686,-149.5 686,-88.2118 615.6047,-48.282 570.6269,-29.0246"/>
<polygon fill="#191970" stroke="#191970" points="571.7533,-25.7031 561.1746,-25.1192 569.0802,-32.1726 571.7533,-25.7031"/>
</g>
<!-- Node4 -->
<g id="node5" class="node">
<title>Node4</title>
<g id="a_node5"><a xlink:href="drake__copyable_8h.html" target="_top" xlink:title="Provides careful macros to selectively enable or disable the special member functions for copy&#45;constr...">
<polygon fill="#ffffff" stroke="#000000" points="254.5,-.5 254.5,-30.5 375.5,-30.5 375.5,-.5 254.5,-.5"/>
<text text-anchor="start" x="262.5" y="-18.5" font-family="Helvetica,sans-Serif" font-size="10.00" fill="#000000">drake/common/drake</text>
<text text-anchor="middle" x="315" y="-7.5" font-family="Helvetica,sans-Serif" font-size="10.00" fill="#000000">_copyable.h</text>
</a>
</g>
</g>
<!-- Node0&#45;&gt;Node4 -->
<g id="edge4" class="edge">
<title>Node0&#45;&gt;Node4</title>
<path fill="none" stroke="#191970" d="M406.6785,-357.4966C317.9785,-350.6991 153.888,-335.1384 101,-310 45.7524,-283.7401 0,-277.6709 0,-216.5 0,-216.5 0,-216.5 0,-149.5 0,-108.1517 9.8032,-91.6506 43,-67 74.215,-43.821 174.6186,-29.3698 244.2878,-21.8728"/>
<polygon fill="#191970" stroke="#191970" points="244.7527,-25.3433 254.3319,-20.817 244.0208,-18.3817 244.7527,-25.3433"/>
</g>
<!-- Node5 -->
<g id="node6" class="node">
<title>Node5</title>
<g id="a_node6"><a xlink:href="mpc__data_8h.html" target="_top" xlink:title=" ">
<polygon fill="#ffffff" stroke="#000000" points="404,-67.5 404,-97.5 544,-97.5 544,-67.5 404,-67.5"/>
<text text-anchor="start" x="412" y="-85.5" font-family="Helvetica,sans-Serif" font-size="10.00" fill="#000000">drake/solvers/fbstab</text>
<text text-anchor="middle" x="474" y="-74.5" font-family="Helvetica,sans-Serif" font-size="10.00" fill="#000000">/components/mpc_data.h</text>
</a>
</g>
</g>
<!-- Node0&#45;&gt;Node5 -->
<g id="edge5" class="edge">
<title>Node0&#45;&gt;Node5</title>
<path fill="none" stroke="#191970" d="M472.2793,-346.4112C483.2651,-322.7138 503.585,-275.0275 511,-232 518.7106,-187.2572 499.9136,-136.0952 486.3815,-106.715"/>
<polygon fill="#191970" stroke="#191970" points="489.5088,-105.1417 482.0401,-97.6271 483.1925,-108.1591 489.5088,-105.1417"/>
</g>
<!-- Node6 -->
<g id="node7" class="node">
<title>Node6</title>
<g id="a_node7"><a xlink:href="mpc__feasibility_8h.html" target="_top" xlink:title=" ">
<polygon fill="#ffffff" stroke="#000000" points="84.5,-201.5 84.5,-231.5 251.5,-231.5 251.5,-201.5 84.5,-201.5"/>
<text text-anchor="start" x="92.5" y="-219.5" font-family="Helvetica,sans-Serif" font-size="10.00" fill="#000000">drake/solvers/fbstab</text>
<text text-anchor="middle" x="168" y="-208.5" font-family="Helvetica,sans-Serif" font-size="10.00" fill="#000000">/components/mpc_feasibility.h</text>
</a>
</g>
</g>
<!-- Node0&#45;&gt;Node6 -->
<g id="edge9" class="edge">
<title>Node0&#45;&gt;Node6</title>
<path fill="none" stroke="#191970" d="M406.9002,-354.5878C365.3233,-347.7777 309.1336,-334.6591 265,-310 232.9136,-292.0721 203.67,-260.9239 185.8689,-239.5405"/>
<polygon fill="#191970" stroke="#191970" points="188.4308,-237.1434 179.405,-231.5949 183.0007,-241.561 188.4308,-237.1434"/>
</g>
<!-- Node7 -->
<g id="node8" class="node">
<title>Node7</title>
<g id="a_node8"><a xlink:href="mpc__variable_8h.html" target="_top" xlink:title=" ">
<polygon fill="#ffffff" stroke="#000000" points="234,-134.5 234,-164.5 392,-164.5 392,-134.5 234,-134.5"/>
<text text-anchor="start" x="242" y="-152.5" font-family="Helvetica,sans-Serif" font-size="10.00" fill="#000000">drake/solvers/fbstab</text>
<text text-anchor="middle" x="313" y="-141.5" font-family="Helvetica,sans-Serif" font-size="10.00" fill="#000000">/components/mpc_variable.h</text>
</a>
</g>
</g>
<!-- Node0&#45;&gt;Node7 -->
<g id="edge23" class="edge">
<title>Node0&#45;&gt;Node7</title>
<path fill="none" stroke="#191970" d="M435.9402,-346.4591C399.9906,-326.0349 340.4282,-285.8137 315,-232 306.6148,-214.2543 306.6311,-191.8763 308.4584,-174.9054"/>
<polygon fill="#191970" stroke="#191970" points="311.9753,-175.0165 309.8507,-164.6369 305.0388,-174.076 311.9753,-175.0165"/>
</g>
<!-- Node8 -->
<g id="node9" class="node">
<title>Node8</title>
<g id="a_node9"><a xlink:href="mpc__residual_8h.html" target="_top" xlink:title=" ">
<polygon fill="#ffffff" stroke="#000000" points="345.5,-201.5 345.5,-231.5 502.5,-231.5 502.5,-201.5 345.5,-201.5"/>
<text text-anchor="start" x="353.5" y="-219.5" font-family="Helvetica,sans-Serif" font-size="10.00" fill="#000000">drake/solvers/fbstab</text>
<text text-anchor="middle" x="424" y="-208.5" font-family="Helvetica,sans-Serif" font-size="10.00" fill="#000000">/components/mpc_residual.h</text>
</a>
</g>
</g>
<!-- Node0&#45;&gt;Node8 -->
<g id="edge18" class="edge">
<title>Node0&#45;&gt;Node8</title>
<path fill="none" stroke="#191970" d="M460.6898,-346.2565C453.6275,-321.2802 439.5271,-271.413 431.0111,-241.2954"/>
<polygon fill="#191970" stroke="#191970" points="434.3414,-240.2096 428.2525,-231.5392 427.6055,-242.1143 434.3414,-240.2096"/>
</g>
<!-- Node9 -->
<g id="node10" class="node">
<title>Node9</title>
<g id="a_node10"><a xlink:href="riccati__linear__solver_8h.html" target="_top" xlink:title=" ">
<polygon fill="#ffffff" stroke="#000000" points="512,-268.5 512,-309.5 658,-309.5 658,-268.5 512,-268.5"/>
<text text-anchor="start" x="520" y="-297.5" font-family="Helvetica,sans-Serif" font-size="10.00" fill="#000000">drake/solvers/fbstab</text>
<text text-anchor="start" x="520" y="-286.5" font-family="Helvetica,sans-Serif" font-size="10.00" fill="#000000">/components/riccati_linear</text>
<text text-anchor="middle" x="585" y="-275.5" font-family="Helvetica,sans-Serif" font-size="10.00" fill="#000000">_solver.h</text>
</a>
</g>
</g>
<!-- Node0&#45;&gt;Node9 -->
<g id="edge24" class="edge">
<title>Node0&#45;&gt;Node9</title>
<path fill="none" stroke="#191970" d="M489.8641,-346.478C504.9467,-337.3656 524.6029,-325.4899 542.1303,-314.9005"/>
<polygon fill="#191970" stroke="#191970" points="544.3172,-317.6684 551.0665,-309.5015 540.6974,-311.677 544.3172,-317.6684"/>
</g>
<!-- Node10 -->
<g id="node11" class="node">
<title>Node10</title>
<g id="a_node11"><a xlink:href="fbstab__algorithm_8h.html" target="_top" xlink:title=" ">
<polygon fill="#ffffff" stroke="#000000" points="1090,-274 1090,-304 1206,-304 1206,-274 1090,-274"/>
<text text-anchor="start" x="1098" y="-292" font-family="Helvetica,sans-Serif" font-size="10.00" fill="#000000">drake/solvers/fbstab</text>
<text text-anchor="middle" x="1148" y="-281" font-family="Helvetica,sans-Serif" font-size="10.00" fill="#000000">/fbstab_algorithm.h</text>
</a>
</g>
</g>
<!-- Node0&#45;&gt;Node10 -->
<g id="edge31" class="edge">
<title>Node0&#45;&gt;Node10</title>
<path fill="none" stroke="#191970" d="M523.2322,-355.3187C648.9937,-341.9692 945.4517,-310.5004 1079.7546,-296.2442"/>
<polygon fill="#191970" stroke="#191970" points="1080.3405,-299.7018 1089.9152,-295.1657 1079.6016,-292.7409 1080.3405,-299.7018"/>
</g>
<!-- Node5&#45;&gt;Node2 -->
<g id="edge6" class="edge">
<title>Node5&#45;&gt;Node2</title>
<path fill="none" stroke="#191970" d="M530.1049,-67.4639C579.4747,-54.2328 649.6962,-35.4134 690.6877,-24.4277"/>
<polygon fill="#191970" stroke="#191970" points="691.6959,-27.7811 700.449,-21.8117 689.8838,-21.0197 691.6959,-27.7811"/>
</g>
<!-- Node5&#45;&gt;Node3 -->
<g id="edge7" class="edge">
<title>Node5&#45;&gt;Node3</title>
<path fill="none" stroke="#191970" d="M487.6149,-67.2967C496.8724,-56.9591 509.1327,-43.2684 518.7235,-32.5588"/>
<polygon fill="#191970" stroke="#191970" points="521.3794,-34.8394 525.4433,-25.055 516.1647,-30.1696 521.3794,-34.8394"/>
</g>
<!-- Node5&#45;&gt;Node4 -->
<g id="edge8" class="edge">
<title>Node5&#45;&gt;Node4</title>
<path fill="none" stroke="#191970" d="M438.3173,-67.4639C415.2808,-57.7567 385.1059,-45.0415 360.3714,-34.6188"/>
<polygon fill="#191970" stroke="#191970" points="361.4127,-31.2596 350.8383,-30.6017 358.6945,-37.7103 361.4127,-31.2596"/>
</g>
<!-- Node6&#45;&gt;Node3 -->
<g id="edge10" class="edge">
<title>Node6&#45;&gt;Node3</title>
<path fill="none" stroke="#191970" d="M168.3524,-201.216C169.5645,-183.0655 174.1919,-152.8796 191,-134 230.8036,-89.2909 400.5052,-45.6635 485.3304,-26.1461"/>
<polygon fill="#191970" stroke="#191970" points="486.2679,-29.5223 495.2397,-23.8871 484.7119,-22.6974 486.2679,-29.5223"/>
</g>
<!-- Node6&#45;&gt;Node4 -->
<g id="edge11" class="edge">
<title>Node6&#45;&gt;Node4</title>
<path fill="none" stroke="#191970" d="M142.2495,-201.4991C98.4823,-174.1515 17.9485,-114.6171 57,-67 80.2797,-38.6141 176.0496,-25.5707 244.0944,-19.7942"/>
<polygon fill="#191970" stroke="#191970" points="244.6574,-23.2601 254.3408,-18.961 244.09,-16.2831 244.6574,-23.2601"/>
</g>
<!-- Node6&#45;&gt;Node5 -->
<g id="edge12" class="edge">
<title>Node6&#45;&gt;Node5</title>
<path fill="none" stroke="#191970" d="M174.172,-201.3519C182.6882,-182.4614 199.8919,-150.6328 225,-134 252.3223,-115.9005 331.7179,-101.4715 393.5884,-92.544"/>
<polygon fill="#191970" stroke="#191970" points="394.3366,-95.9731 403.7465,-91.1045 393.3543,-89.0423 394.3366,-95.9731"/>
</g>
<!-- Node6&#45;&gt;Node7 -->
<g id="edge13" class="edge">
<title>Node6&#45;&gt;Node7</title>
<path fill="none" stroke="#191970" d="M200.5408,-201.4639C221.3631,-191.8426 248.5804,-179.2663 271.0236,-168.896"/>
<polygon fill="#191970" stroke="#191970" points="272.7076,-171.9735 280.3172,-164.6017 269.7714,-165.6191 272.7076,-171.9735"/>
</g>
<!-- Node7&#45;&gt;Node1 -->
<g id="edge14" class="edge">
<title>Node7&#45;&gt;Node1</title>
<path fill="none" stroke="#191970" d="M258.7406,-134.4367C224.049,-124.5831 178.1852,-111.1426 138,-98 135.5582,-97.2014 133.0462,-96.3569 130.521,-95.4908"/>
<polygon fill="#191970" stroke="#191970" points="131.4302,-92.1008 120.8354,-92.0955 129.1144,-98.7067 131.4302,-92.1008"/>
</g>
<!-- Node7&#45;&gt;Node3 -->
<g id="edge15" class="edge">
<title>Node7&#45;&gt;Node3</title>
<path fill="none" stroke="#191970" d="M324.5117,-134.433C339.1271,-116.2162 365.9576,-85.6822 395,-67 422.758,-49.1441 457.5897,-36.2536 485.4409,-27.8349"/>
<polygon fill="#191970" stroke="#191970" points="486.7441,-31.1004 495.36,-24.9346 484.7796,-24.3817 486.7441,-31.1004"/>
</g>
<!-- Node7&#45;&gt;Node4 -->
<g id="edge16" class="edge">
<title>Node7&#45;&gt;Node4</title>
<path fill="none" stroke="#191970" d="M312.4406,-134.2914C311.9192,-117.7353 311.3167,-90.4814 312,-67 312.2464,-58.5344 312.7201,-49.2961 313.2195,-41.0109"/>
<polygon fill="#191970" stroke="#191970" points="316.7262,-41.0171 313.874,-30.8134 309.7406,-40.5687 316.7262,-41.0171"/>
</g>
<!-- Node7&#45;&gt;Node5 -->
<g id="edge17" class="edge">
<title>Node7&#45;&gt;Node5</title>
<path fill="none" stroke="#191970" d="M349.1315,-134.4639C372.561,-124.7137 403.2828,-111.9289 428.3901,-101.4805"/>
<polygon fill="#191970" stroke="#191970" points="429.8231,-104.6752 437.7109,-97.6017 427.1336,-98.2125 429.8231,-104.6752"/>
</g>
<!-- Node8&#45;&gt;Node3 -->
<g id="edge19" class="edge">
<title>Node8&#45;&gt;Node3</title>
<path fill="none" stroke="#191970" d="M450.8538,-201.3907C482.144,-182.0579 532.2079,-145.333 553,-98 562.191,-77.0768 553.2086,-51.1363 544.738,-33.9914"/>
<polygon fill="#191970" stroke="#191970" points="547.7458,-32.1934 539.9511,-25.0175 541.5696,-35.488 547.7458,-32.1934"/>
</g>
<!-- Node8&#45;&gt;Node4 -->
<g id="edge20" class="edge">
<title>Node8&#45;&gt;Node4</title>
<path fill="none" stroke="#191970" d="M421.4501,-201.3211C418.2172,-184.3174 411.7325,-156.2272 401,-134 383.5759,-97.9145 355.0005,-61.3368 335.6143,-38.5563"/>
<polygon fill="#191970" stroke="#191970" points="338.1116,-36.0931 328.9255,-30.8142 332.8147,-40.6694 338.1116,-36.0931"/>
</g>
<!-- Node8&#45;&gt;Node5 -->
<g id="edge21" class="edge">
<title>Node8&#45;&gt;Node5</title>
<path fill="none" stroke="#191970" d="M429.6384,-201.389C438.1535,-178.5686 454.3899,-135.055 464.6809,-107.4751"/>
<polygon fill="#191970" stroke="#191970" points="468.0886,-108.354 468.3054,-97.7614 461.5303,-105.9068 468.0886,-108.354"/>
</g>
<!-- Node8&#45;&gt;Node7 -->
<g id="edge22" class="edge">
<title>Node8&#45;&gt;Node7</title>
<path fill="none" stroke="#191970" d="M399.0894,-201.4639C383.7729,-192.2188 363.9361,-180.2452 347.1651,-170.1222"/>
<polygon fill="#191970" stroke="#191970" points="348.5815,-166.889 338.2115,-164.7177 344.9641,-172.8819 348.5815,-166.889"/>
</g>
<!-- Node9&#45;&gt;Node2 -->
<g id="edge25" class="edge">
<title>Node9&#45;&gt;Node2</title>
<path fill="none" stroke="#191970" d="M610.0824,-268.3837C621.2247,-258.2822 633.8575,-245.417 643,-232 687.2042,-167.1283 711.1473,-74.9905 719.9837,-35.1297"/>
<polygon fill="#191970" stroke="#191970" points="723.4086,-35.8505 722.0797,-25.3393 716.5638,-34.385 723.4086,-35.8505"/>
</g>
<!-- Node9&#45;&gt;Node3 -->
<g id="edge26" class="edge">
<title>Node9&#45;&gt;Node3</title>
<path fill="none" stroke="#191970" d="M603.546,-268.4258C611.4963,-258.2367 619.8893,-245.2876 624,-232 636.8726,-190.3901 637.8984,-175.2786 624,-134 609.9037,-92.1336 574.4828,-53.3255 552.5151,-32.17"/>
<polygon fill="#191970" stroke="#191970" points="554.7804,-29.496 545.0949,-25.2016 549.9884,-34.5987 554.7804,-29.496"/>
</g>
<!-- Node9&#45;&gt;Node4 -->
<g id="edge27" class="edge">
<title>Node9&#45;&gt;Node4</title>
<path fill="none" stroke="#191970" d="M588.9668,-268.332C596.0157,-224.8394 605.4465,-123.2493 553,-67 530.572,-42.9457 447.4933,-29.1071 385.7715,-21.9519"/>
<polygon fill="#191970" stroke="#191970" points="386.0041,-18.4561 375.676,-20.8184 385.223,-25.4124 386.0041,-18.4561"/>
</g>
<!-- Node9&#45;&gt;Node5 -->
<g id="edge28" class="edge">
<title>Node9&#45;&gt;Node5</title>
<path fill="none" stroke="#191970" d="M576.4792,-268.2894C563.6622,-237.9385 537.9299,-179.9938 510,-134 504.3095,-124.6291 497.5387,-114.6787 491.4128,-106.0481"/>
<polygon fill="#191970" stroke="#191970" points="494.2494,-103.9978 485.5658,-97.9278 488.5688,-108.0881 494.2494,-103.9978"/>
</g>
<!-- Node9&#45;&gt;Node7 -->
<g id="edge30" class="edge">
<title>Node9&#45;&gt;Node7</title>
<path fill="none" stroke="#191970" d="M511.8472,-280.5913C447.7358,-271.7713 360.9855,-255.8416 336,-232 320.5329,-217.241 315.1846,-193.0364 313.4678,-174.652"/>
<polygon fill="#191970" stroke="#191970" points="316.9571,-174.3724 312.8275,-164.6155 309.9713,-174.8181 316.9571,-174.3724"/>
</g>
<!-- Node9&#45;&gt;Node8 -->
<g id="edge29" class="edge">
<title>Node9&#45;&gt;Node8</title>
<path fill="none" stroke="#191970" d="M539.2945,-268.4183C516.5178,-258.1617 489.1393,-245.8329 466.7784,-235.7636"/>
<polygon fill="#191970" stroke="#191970" points="468.0857,-232.5138 457.5304,-231.5991 465.2115,-238.8965 468.0857,-232.5138"/>
</g>
<!-- Node11 -->
<g id="node12" class="node">
<title>Node11</title>
<g id="a_node12"><a xlink:title=" ">
<polygon fill="#ffffff" stroke="#bfbfbf" points="1013,-207 1013,-226 1077,-226 1077,-207 1013,-207"/>
<text text-anchor="middle" x="1045" y="-214" font-family="Helvetica,sans-Serif" font-size="10.00" fill="#000000">algorithm</text>
</a>
</g>
</g>
<!-- Node10&#45;&gt;Node11 -->
<g id="edge32" class="edge">
<title>Node10&#45;&gt;Node11</title>
<path fill="none" stroke="#191970" d="M1126.6583,-273.978C1109.2968,-261.7574 1084.8749,-244.5673 1067.2682,-232.1743"/>
<polygon fill="#191970" stroke="#191970" points="1068.9478,-229.0764 1058.7558,-226.1825 1064.9186,-234.8005 1068.9478,-229.0764"/>
</g>
<!-- Node12 -->
<g id="node13" class="node">
<title>Node12</title>
<g id="a_node13"><a xlink:title=" ">
<polygon fill="#ffffff" stroke="#bfbfbf" points="1095,-207 1095,-226 1137,-226 1137,-207 1095,-207"/>
<text text-anchor="middle" x="1116" y="-214" font-family="Helvetica,sans-Serif" font-size="10.00" fill="#000000">array</text>
</a>
</g>
</g>
<!-- Node10&#45;&gt;Node12 -->
<g id="edge33" class="edge">
<title>Node10&#45;&gt;Node12</title>
<path fill="none" stroke="#191970" d="M1141.3696,-273.978C1136.4497,-262.8313 1129.7048,-247.55 1124.4064,-235.5457"/>
<polygon fill="#191970" stroke="#191970" points="1127.6077,-234.1309 1120.3677,-226.3957 1121.2038,-236.9575 1127.6077,-234.1309"/>
</g>
<!-- Node13 -->
<g id="node14" class="node">
<title>Node13</title>
<g id="a_node14"><a xlink:title=" ">
<polygon fill="#ffffff" stroke="#bfbfbf" points="1155,-207 1155,-226 1205,-226 1205,-207 1155,-207"/>
<text text-anchor="middle" x="1180" y="-214" font-family="Helvetica,sans-Serif" font-size="10.00" fill="#000000">chrono</text>
</a>
</g>
</g>
<!-- Node10&#45;&gt;Node13 -->
<g id="edge34" class="edge">
<title>Node10&#45;&gt;Node13</title>
<path fill="none" stroke="#191970" d="M1154.6304,-273.978C1159.5503,-262.8313 1166.2952,-247.55 1171.5936,-235.5457"/>
<polygon fill="#191970" stroke="#191970" points="1174.7962,-236.9575 1175.6323,-226.3957 1168.3923,-234.1309 1174.7962,-236.9575"/>
</g>
<!-- Node14 -->
<g id="node15" class="node">
<title>Node14</title>
<g id="a_node15"><a xlink:title=" ">
<polygon fill="#ffffff" stroke="#bfbfbf" points="1223.5,-207 1223.5,-226 1270.5,-226 1270.5,-207 1223.5,-207"/>
<text text-anchor="middle" x="1247" y="-214" font-family="Helvetica,sans-Serif" font-size="10.00" fill="#000000">cmath</text>
</a>
</g>
</g>
<!-- Node10&#45;&gt;Node14 -->
<g id="edge35" class="edge">
<title>Node10&#45;&gt;Node14</title>
<path fill="none" stroke="#191970" d="M1168.5129,-273.978C1185.2002,-261.7574 1208.6736,-244.5673 1225.5965,-232.1743"/>
<polygon fill="#191970" stroke="#191970" points="1227.7784,-234.9147 1233.7784,-226.1825 1223.6425,-229.2671 1227.7784,-234.9147"/>
</g>
<!-- Node15 -->
<g id="node16" class="node">
<title>Node15</title>
<g id="a_node16"><a xlink:title=" ">
<polygon fill="#ffffff" stroke="#bfbfbf" points="1289,-207 1289,-226 1335,-226 1335,-207 1289,-207"/>
<text text-anchor="middle" x="1312" y="-214" font-family="Helvetica,sans-Serif" font-size="10.00" fill="#000000">cstdio</text>
</a>
</g>
</g>
<!-- Node10&#45;&gt;Node15 -->
<g id="edge36" class="edge">
<title>Node10&#45;&gt;Node15</title>
<path fill="none" stroke="#191970" d="M1184.0418,-273.9353C1210.6827,-262.6793 1247.7712,-246.7555 1280,-232 1281.0103,-231.5375 1282.0367,-231.0633 1283.072,-230.5815"/>
<polygon fill="#191970" stroke="#191970" points="1284.896,-233.5903 1292.4329,-226.144 1281.8975,-227.265 1284.896,-233.5903"/>
</g>
<!-- Node16 -->
<g id="node17" class="node">
<title>Node16</title>
<g id="a_node17"><a xlink:title=" ">
<polygon fill="#ffffff" stroke="#bfbfbf" points="1353,-207 1353,-226 1403,-226 1403,-207 1353,-207"/>
<text text-anchor="middle" x="1378" y="-214" font-family="Helvetica,sans-Serif" font-size="10.00" fill="#000000">cstring</text>
</a>
</g>
</g>
<!-- Node10&#45;&gt;Node16 -->
<g id="edge37" class="edge">
<title>Node10&#45;&gt;Node16</title>
<path fill="none" stroke="#191970" d="M1206.1759,-274.4511C1245.5516,-264.0289 1298.4841,-248.8923 1344,-232 1345.6307,-231.3948 1347.2928,-230.7463 1348.9618,-230.0703"/>
<polygon fill="#191970" stroke="#191970" points="1350.6183,-233.1681 1358.4261,-226.0065 1347.8564,-226.736 1350.6183,-233.1681"/>
</g>
<!-- Node17 -->
<g id="node18" class="node">
<title>Node17</title>
<g id="a_node18"><a xlink:title=" ">
<polygon fill="#ffffff" stroke="#bfbfbf" points="1421,-207 1421,-226 1481,-226 1481,-207 1421,-207"/>
<text text-anchor="middle" x="1451" y="-214" font-family="Helvetica,sans-Serif" font-size="10.00" fill="#000000">iostream</text>
</a>
</g>
</g>
<!-- Node10&#45;&gt;Node17 -->
<g id="edge38" class="edge">
<title>Node10&#45;&gt;Node17</title>
<path fill="none" stroke="#191970" d="M1206.1252,-279.3131C1260.0918,-269.6479 1342.3587,-253.1974 1412,-232 1414.2936,-231.3019 1416.642,-230.5271 1418.9932,-229.707"/>
<polygon fill="#191970" stroke="#191970" points="1420.3857,-232.9234 1428.5408,-226.1599 1417.9479,-226.3616 1420.3857,-232.9234"/>
</g>
<!-- Node18 -->
<g id="node19" class="node">
<title>Node18</title>
<g id="a_node19"><a xlink:title=" ">
<polygon fill="#ffffff" stroke="#bfbfbf" points="790.5,-207 790.5,-226 855.5,-226 855.5,-207 790.5,-207"/>
<text text-anchor="middle" x="823" y="-214" font-family="Helvetica,sans-Serif" font-size="10.00" fill="#000000">stdexcept</text>
</a>
</g>
</g>
<!-- Node10&#45;&gt;Node18 -->
<g id="edge39" class="edge">
<title>Node10&#45;&gt;Node18</title>
<path fill="none" stroke="#191970" d="M1089.9215,-280.0092C1032.2704,-270.4533 941.6694,-253.7272 865,-232 862.1958,-231.2053 859.3119,-230.3109 856.4319,-229.3629"/>
<polygon fill="#191970" stroke="#191970" points="857.3709,-225.9838 846.7761,-226.0011 855.0692,-232.5946 857.3709,-225.9838"/>
</g>
<!-- Node19 -->
<g id="node20" class="node">
<title>Node19</title>
<g id="a_node20"><a xlink:href="drake__assert_8h.html" target="_top" xlink:title="Provides Drake&#39;s assertion implementation.">
<polygon fill="#ffffff" stroke="#000000" points="873.5,-201.5 873.5,-231.5 994.5,-231.5 994.5,-201.5 873.5,-201.5"/>
<text text-anchor="start" x="881.5" y="-219.5" font-family="Helvetica,sans-Serif" font-size="10.00" fill="#000000">drake/common/drake</text>
<text text-anchor="middle" x="934" y="-208.5" font-family="Helvetica,sans-Serif" font-size="10.00" fill="#000000">_assert.h</text>
</a>
</g>
</g>
<!-- Node10&#45;&gt;Node19 -->
<g id="edge40" class="edge">
<title>Node10&#45;&gt;Node19</title>
<path fill="none" stroke="#191970" d="M1103.6591,-273.978C1070.0877,-262.6045 1023.8102,-246.9263 988.0669,-234.8171"/>
<polygon fill="#191970" stroke="#191970" points="988.8784,-231.3966 978.2841,-231.5028 986.6323,-238.0265 988.8784,-231.3966"/>
</g>
<!-- Node20 -->
<g id="node21" class="node">
<title>Node20</title>
<g id="a_node21"><a xlink:title=" ">
<polygon fill="#ffffff" stroke="#bfbfbf" points="899.5,-140 899.5,-159 968.5,-159 968.5,-140 899.5,-140"/>
<text text-anchor="middle" x="934" y="-147" font-family="Helvetica,sans-Serif" font-size="10.00" fill="#000000">type_traits</text>
</a>
</g>
</g>
<!-- Node19&#45;&gt;Node20 -->
<g id="edge41" class="edge">
<title>Node19&#45;&gt;Node20</title>
<path fill="none" stroke="#191970" d="M934,-201.2967C934,-191.7699 934,-179.3954 934,-169.1306"/>
<polygon fill="#191970" stroke="#191970" points="937.5001,-169.0549 934,-159.055 930.5001,-169.055 937.5001,-169.0549"/>
</g>
</g>
</svg>
