<?xml version="1.0" encoding="UTF-8" standalone="no"?>
<!DOCTYPE svg PUBLIC "-//W3C//DTD SVG 1.1//EN"
 "http://www.w3.org/Graphics/SVG/1.1/DTD/svg11.dtd">
<!-- Generated by graphviz version 2.40.1 (20161225.0304)
 -->
<!-- Title: drake/solvers/fbstab/fbstab_algorithm.h Pages: 1 -->
<svg width="699pt" height="162pt"
 viewBox="0.00 0.00 698.50 162.00" xmlns="http://www.w3.org/2000/svg" xmlns:xlink="http://www.w3.org/1999/xlink">
<g id="graph0" class="graph" transform="scale(1 1) rotate(0) translate(4 158)">
<title>drake/solvers/fbstab/fbstab_algorithm.h</title>
<polygon fill="#ffffff" stroke="transparent" points="-4,4 -4,-158 694.5,-158 694.5,4 -4,4"/>
<!-- Node0 -->
<g id="node1" class="node">
<title>Node0</title>
<g id="a_node1"><a xlink:title=" ">
<polygon fill="#bfbfbf" stroke="#000000" points="241,-123.5 241,-153.5 357,-153.5 357,-123.5 241,-123.5"/>
<text text-anchor="start" x="249" y="-141.5" font-family="Helvetica,sans-Serif" font-size="10.00" fill="#000000">drake/solvers/fbstab</text>
<text text-anchor="middle" x="299" y="-130.5" font-family="Helvetica,sans-Serif" font-size="10.00" fill="#000000">/fbstab_algorithm.h</text>
</a>
</g>
</g>
<!-- Node1 -->
<g id="node2" class="node">
<title>Node1</title>
<g id="a_node2"><a xlink:title=" ">
<polygon fill="#ffffff" stroke="#bfbfbf" points="0,-62 0,-81 64,-81 64,-62 0,-62"/>
<text text-anchor="middle" x="32" y="-69" font-family="Helvetica,sans-Serif" font-size="10.00" fill="#000000">algorithm</text>
</a>
</g>
</g>
<!-- Node0&#45;&gt;Node1 -->
<g id="edge1" class="edge">
<title>Node0&#45;&gt;Node1</title>
<path fill="none" stroke="#191970" d="M240.8373,-127.5372C194.8509,-118.3215 129.2536,-103.9551 73,-87 70.4249,-86.2238 67.7793,-85.3665 65.1318,-84.4653"/>
<polygon fill="#191970" stroke="#191970" points="66.2528,-81.1492 55.6582,-81.0757 63.8945,-87.74 66.2528,-81.1492"/>
</g>
<!-- Node2 -->
<g id="node3" class="node">
<title>Node2</title>
<g id="a_node3"><a xlink:title=" ">
<polygon fill="#ffffff" stroke="#bfbfbf" points="82,-62 82,-81 124,-81 124,-62 82,-62"/>
<text text-anchor="middle" x="103" y="-69" font-family="Helvetica,sans-Serif" font-size="10.00" fill="#000000">array</text>
</a>
</g>
</g>
<!-- Node0&#45;&gt;Node2 -->
<g id="edge2" class="edge">
<title>Node0&#45;&gt;Node2</title>
<path fill="none" stroke="#191970" d="M241.6564,-123.4071C209.268,-114.2164 168.321,-101.4718 133,-87 131.8099,-86.5124 130.6035,-85.9946 129.3924,-85.4552"/>
<polygon fill="#191970" stroke="#191970" points="130.7349,-82.2174 120.205,-81.0456 127.7059,-88.5281 130.7349,-82.2174"/>
</g>
<!-- Node3 -->
<g id="node4" class="node">
<title>Node3</title>
<g id="a_node4"><a xlink:title=" ">
<polygon fill="#ffffff" stroke="#bfbfbf" points="142,-62 142,-81 192,-81 192,-62 142,-62"/>
<text text-anchor="middle" x="167" y="-69" font-family="Helvetica,sans-Serif" font-size="10.00" fill="#000000">chrono</text>
</a>
</g>
</g>
<!-- Node0&#45;&gt;Node3 -->
<g id="edge3" class="edge">
<title>Node0&#45;&gt;Node3</title>
<path fill="none" stroke="#191970" d="M269.3766,-123.4639C247.1289,-112.1715 216.8616,-96.8086 195.0139,-85.7192"/>
<polygon fill="#191970" stroke="#191970" points="196.4224,-82.5091 185.9212,-81.1039 193.2541,-88.7511 196.4224,-82.5091"/>
</g>
<!-- Node4 -->
<g id="node5" class="node">
<title>Node4</title>
<g id="a_node5"><a xlink:title=" ">
<polygon fill="#ffffff" stroke="#bfbfbf" points="210.5,-62 210.5,-81 257.5,-81 257.5,-62 210.5,-62"/>
<text text-anchor="middle" x="234" y="-69" font-family="Helvetica,sans-Serif" font-size="10.00" fill="#000000">cmath</text>
</a>
</g>
</g>
<!-- Node0&#45;&gt;Node4 -->
<g id="edge4" class="edge">
<title>Node0&#45;&gt;Node4</title>
<path fill="none" stroke="#191970" d="M284.2505,-123.2967C274.1232,-112.8578 260.6788,-98.9997 250.2448,-88.2446"/>
<polygon fill="#191970" stroke="#191970" points="252.745,-85.7953 243.2697,-81.055 247.7208,-90.6695 252.745,-85.7953"/>
</g>
<!-- Node5 -->
<g id="node6" class="node">
<title>Node5</title>
<g id="a_node6"><a xlink:title=" ">
<polygon fill="#ffffff" stroke="#bfbfbf" points="276,-62 276,-81 322,-81 322,-62 276,-62"/>
<text text-anchor="middle" x="299" y="-69" font-family="Helvetica,sans-Serif" font-size="10.00" fill="#000000">cstdio</text>
</a>
</g>
</g>
<!-- Node0&#45;&gt;Node5 -->
<g id="edge5" class="edge">
<title>Node0&#45;&gt;Node5</title>
<path fill="none" stroke="#191970" d="M299,-123.2967C299,-113.7699 299,-101.3954 299,-91.1306"/>
<polygon fill="#191970" stroke="#191970" points="302.5001,-91.0549 299,-81.055 295.5001,-91.055 302.5001,-91.0549"/>
</g>
<!-- Node6 -->
<g id="node7" class="node">
<title>Node6</title>
<g id="a_node7"><a xlink:title=" ">
<polygon fill="#ffffff" stroke="#bfbfbf" points="340,-62 340,-81 390,-81 390,-62 340,-62"/>
<text text-anchor="middle" x="365" y="-69" font-family="Helvetica,sans-Serif" font-size="10.00" fill="#000000">cstring</text>
</a>
</g>
</g>
<!-- Node0&#45;&gt;Node6 -->
<g id="edge6" class="edge">
<title>Node0&#45;&gt;Node6</title>
<path fill="none" stroke="#191970" d="M313.9764,-123.2967C324.2595,-112.8578 337.9108,-98.9997 348.5053,-88.2446"/>
<polygon fill="#191970" stroke="#191970" points="351.0633,-90.6352 355.5876,-81.055 346.0765,-85.7228 351.0633,-90.6352"/>
</g>
<!-- Node7 -->
<g id="node8" class="node">
<title>Node7</title>
<g id="a_node8"><a xlink:title=" ">
<polygon fill="#ffffff" stroke="#bfbfbf" points="408,-62 408,-81 468,-81 468,-62 408,-62"/>
<text text-anchor="middle" x="438" y="-69" font-family="Helvetica,sans-Serif" font-size="10.00" fill="#000000">iostream</text>
</a>
</g>
</g>
<!-- Node0&#45;&gt;Node7 -->
<g id="edge7" class="edge">
<title>Node0&#45;&gt;Node7</title>
<path fill="none" stroke="#191970" d="M330.1943,-123.4639C353.7268,-112.1209 385.7802,-96.6707 408.8094,-85.5703"/>
<polygon fill="#191970" stroke="#191970" points="410.587,-88.5989 418.0754,-81.1039 407.5476,-82.2932 410.587,-88.5989"/>
</g>
<!-- Node8 -->
<g id="node9" class="node">
<title>Node8</title>
<g id="a_node9"><a xlink:title=" ">
<polygon fill="#ffffff" stroke="#bfbfbf" points="486.5,-62 486.5,-81 551.5,-81 551.5,-62 486.5,-62"/>
<text text-anchor="middle" x="519" y="-69" font-family="Helvetica,sans-Serif" font-size="10.00" fill="#000000">stdexcept</text>
</a>
</g>
</g>
<!-- Node0&#45;&gt;Node8 -->
<g id="edge8" class="edge">
<title>Node0&#45;&gt;Node8</title>
<path fill="none" stroke="#191970" d="M355.036,-123.401C390.2458,-113.6392 436.5061,-100.311 477,-87 479.3905,-86.2142 481.848,-85.3793 484.3175,-84.5202"/>
<polygon fill="#191970" stroke="#191970" points="485.5436,-87.7989 493.7843,-81.14 483.1896,-81.2066 485.5436,-87.7989"/>
</g>
<!-- Node9 -->
<g id="node10" class="node">
<title>Node9</title>
<g id="a_node10"><a xlink:href="drake__assert_8h.html" target="_top" xlink:title="Provides Drake&#39;s assertion implementation.">
<polygon fill="#ffffff" stroke="#000000" points="569.5,-56.5 569.5,-86.5 690.5,-86.5 690.5,-56.5 569.5,-56.5"/>
<text text-anchor="start" x="577.5" y="-74.5" font-family="Helvetica,sans-Serif" font-size="10.00" fill="#000000">drake/common/drake</text>
<text text-anchor="middle" x="630" y="-63.5" font-family="Helvetica,sans-Serif" font-size="10.00" fill="#000000">_assert.h</text>
</a>
</g>
</g>
<!-- Node0&#45;&gt;Node9 -->
<g id="edge9" class="edge">
<title>Node0&#45;&gt;Node9</title>
<path fill="none" stroke="#191970" d="M357.1062,-127.5425C407.9749,-117.8444 484.1391,-103.07 559.3199,-87.3271"/>
<polygon fill="#191970" stroke="#191970" points="560.3714,-90.6827 569.438,-85.2012 558.9319,-83.8323 560.3714,-90.6827"/>
</g>
<!-- Node10 -->
<g id="node11" class="node">
<title>Node10</title>
<g id="a_node11"><a xlink:title=" ">
<polygon fill="#ffffff" stroke="#bfbfbf" points="595.5,-.5 595.5,-19.5 664.5,-19.5 664.5,-.5 595.5,-.5"/>
<text text-anchor="middle" x="630" y="-7.5" font-family="Helvetica,sans-Serif" font-size="10.00" fill="#000000">type_traits</text>
</a>
</g>
</g>
<!-- Node9&#45;&gt;Node10 -->
<g id="edge10" class="edge">
<title>Node9&#45;&gt;Node10</title>
<path fill="none" stroke="#191970" d="M630,-56.2977C630,-48.3834 630,-38.6043 630,-30.0759"/>
<polygon fill="#191970" stroke="#191970" points="633.5001,-29.8469 630,-19.8469 626.5001,-29.847 633.5001,-29.8469"/>
</g>
</g>
</svg>
