<?xml version="1.0" encoding="UTF-8" standalone="no"?>
<!DOCTYPE svg PUBLIC "-//W3C//DTD SVG 1.1//EN"
 "http://www.w3.org/Graphics/SVG/1.1/DTD/svg11.dtd">
<!-- Generated by graphviz version 2.40.1 (20161225.0304)
 -->
<!-- Title: drake/common/find_resource.h Pages: 1 -->
<svg width="470pt" height="151pt"
 viewBox="0.00 0.00 469.50 151.00" xmlns="http://www.w3.org/2000/svg" xmlns:xlink="http://www.w3.org/1999/xlink">
<g id="graph0" class="graph" transform="scale(1 1) rotate(0) translate(4 147)">
<title>drake/common/find_resource.h</title>
<polygon fill="#ffffff" stroke="transparent" points="-4,4 -4,-147 465.5,-147 465.5,4 -4,4"/>
<!-- Node0 -->
<g id="node1" class="node">
<title>Node0</title>
<g id="a_node1"><a xlink:title=" ">
<polygon fill="#bfbfbf" stroke="#000000" points="76,-123.5 76,-142.5 244,-142.5 244,-123.5 76,-123.5"/>
<text text-anchor="middle" x="160" y="-130.5" font-family="Helvetica,sans-Serif" font-size="10.00" fill="#000000">drake/common/find_resource.h</text>
</a>
</g>
</g>
<!-- Node1 -->
<g id="node2" class="node">
<title>Node1</title>
<g id="a_node2"><a xlink:title=" ">
<polygon fill="#ffffff" stroke="#bfbfbf" points="0,-62 0,-81 56,-81 56,-62 0,-62"/>
<text text-anchor="middle" x="28" y="-69" font-family="Helvetica,sans-Serif" font-size="10.00" fill="#000000">optional</text>
</a>
</g>
</g>
<!-- Node0&#45;&gt;Node1 -->
<g id="edge1" class="edge">
<title>Node0&#45;&gt;Node1</title>
<path fill="none" stroke="#191970" d="M139.375,-123.3906C117.4827,-113.1908 82.6807,-96.9763 57.8073,-85.3875"/>
<polygon fill="#191970" stroke="#191970" points="59.0228,-82.0926 48.4802,-81.0419 56.0665,-88.4377 59.0228,-82.0926"/>
</g>
<!-- Node2 -->
<g id="node3" class="node">
<title>Node2</title>
<g id="a_node3"><a xlink:title=" ">
<polygon fill="#ffffff" stroke="#bfbfbf" points="74,-62 74,-81 118,-81 118,-62 74,-62"/>
<text text-anchor="middle" x="96" y="-69" font-family="Helvetica,sans-Serif" font-size="10.00" fill="#000000">string</text>
</a>
</g>
</g>
<!-- Node0&#45;&gt;Node2 -->
<g id="edge2" class="edge">
<title>Node0&#45;&gt;Node2</title>
<path fill="none" stroke="#191970" d="M150,-123.3906C140.2881,-114.0581 125.3361,-99.6902 113.6259,-88.4374"/>
<polygon fill="#191970" stroke="#191970" points="115.7766,-85.65 106.141,-81.2449 110.9264,-90.6974 115.7766,-85.65"/>
</g>
<!-- Node3 -->
<g id="node4" class="node">
<title>Node3</title>
<g id="a_node4"><a xlink:title=" ">
<polygon fill="#ffffff" stroke="#bfbfbf" points="136.5,-62 136.5,-81 183.5,-81 183.5,-62 136.5,-62"/>
<text text-anchor="middle" x="160" y="-69" font-family="Helvetica,sans-Serif" font-size="10.00" fill="#000000">vector</text>
</a>
</g>
</g>
<!-- Node0&#45;&gt;Node3 -->
<g id="edge3" class="edge">
<title>Node0&#45;&gt;Node3</title>
<path fill="none" stroke="#191970" d="M160,-123.3906C160,-114.8657 160,-102.1392 160,-91.4235"/>
<polygon fill="#191970" stroke="#191970" points="163.5001,-91.2448 160,-81.2449 156.5001,-91.2449 163.5001,-91.2448"/>
</g>
<!-- Node4 -->
<g id="node5" class="node">
<title>Node4</title>
<g id="a_node5"><a xlink:href="drake__assert_8h.html" target="_top" xlink:title="Provides Drake&#39;s assertion implementation.">
<polygon fill="#ffffff" stroke="#000000" points="201.5,-56.5 201.5,-86.5 322.5,-86.5 322.5,-56.5 201.5,-56.5"/>
<text text-anchor="start" x="209.5" y="-74.5" font-family="Helvetica,sans-Serif" font-size="10.00" fill="#000000">drake/common/drake</text>
<text text-anchor="middle" x="262" y="-63.5" font-family="Helvetica,sans-Serif" font-size="10.00" fill="#000000">_assert.h</text>
</a>
</g>
</g>
<!-- Node0&#45;&gt;Node4 -->
<g id="edge4" class="edge">
<title>Node0&#45;&gt;Node4</title>
<path fill="none" stroke="#191970" d="M175.9375,-123.3906C189.8698,-114.9903 210.5684,-102.5103 228.1749,-91.8945"/>
<polygon fill="#191970" stroke="#191970" points="230.2914,-94.7054 237.048,-86.5446 226.677,-88.7108 230.2914,-94.7054"/>
</g>
<!-- Node6 -->
<g id="node7" class="node">
<title>Node6</title>
<g id="a_node7"><a xlink:href="drake__copyable_8h.html" target="_top" xlink:title="Provides careful macros to selectively enable or disable the special member functions for copy&#45;constr...">
<polygon fill="#ffffff" stroke="#000000" points="340.5,-56.5 340.5,-86.5 461.5,-86.5 461.5,-56.5 340.5,-56.5"/>
<text text-anchor="start" x="348.5" y="-74.5" font-family="Helvetica,sans-Serif" font-size="10.00" fill="#000000">drake/common/drake</text>
<text text-anchor="middle" x="401" y="-63.5" font-family="Helvetica,sans-Serif" font-size="10.00" fill="#000000">_copyable.h</text>
</a>
</g>
</g>
<!-- Node0&#45;&gt;Node6 -->
<g id="edge6" class="edge">
<title>Node0&#45;&gt;Node6</title>
<path fill="none" stroke="#191970" d="M197.3918,-123.4581C233.2832,-114.2991 288.3538,-100.2458 332.1756,-89.0631"/>
<polygon fill="#191970" stroke="#191970" points="333.0882,-92.4424 341.9122,-86.5784 331.3573,-85.6598 333.0882,-92.4424"/>
</g>
<!-- Node5 -->
<g id="node6" class="node">
<title>Node5</title>
<g id="a_node6"><a xlink:title=" ">
<polygon fill="#ffffff" stroke="#bfbfbf" points="227.5,-.5 227.5,-19.5 296.5,-19.5 296.5,-.5 227.5,-.5"/>
<text text-anchor="middle" x="262" y="-7.5" font-family="Helvetica,sans-Serif" font-size="10.00" fill="#000000">type_traits</text>
</a>
</g>
</g>
<!-- Node4&#45;&gt;Node5 -->
<g id="edge5" class="edge">
<title>Node4&#45;&gt;Node5</title>
<path fill="none" stroke="#191970" d="M262,-56.2977C262,-48.3834 262,-38.6043 262,-30.0759"/>
<polygon fill="#191970" stroke="#191970" points="265.5001,-29.8469 262,-19.8469 258.5001,-29.847 265.5001,-29.8469"/>
</g>
</g>
</svg>
