<?xml version="1.0" encoding="UTF-8" standalone="no"?>
<!DOCTYPE svg PUBLIC "-//W3C//DTD SVG 1.1//EN"
 "http://www.w3.org/Graphics/SVG/1.1/DTD/svg11.dtd">
<!-- Generated by graphviz version 2.40.1 (20161225.0304)
 -->
<!-- Title: drake/systems/framework/framework_common.h Pages: 1 -->
<svg width="1711pt" height="363pt"
 viewBox="0.00 0.00 1711.16 363.00" xmlns="http://www.w3.org/2000/svg" xmlns:xlink="http://www.w3.org/1999/xlink">
<g id="graph0" class="graph" transform="scale(1 1) rotate(0) translate(4 359)">
<title>drake/systems/framework/framework_common.h</title>
<polygon fill="#ffffff" stroke="transparent" points="-4,4 -4,-359 1707.1631,-359 1707.1631,4 -4,4"/>
<!-- Node0 -->
<g id="node1" class="node">
<title>Node0</title>
<g id="a_node1"><a xlink:title=" ">
<polygon fill="#bfbfbf" stroke="#000000" points="789.5,-324.5 789.5,-354.5 934.5,-354.5 934.5,-324.5 789.5,-324.5"/>
<text text-anchor="start" x="797.5" y="-342.5" font-family="Helvetica,sans-Serif" font-size="10.00" fill="#000000">drake/systems/framework</text>
<text text-anchor="middle" x="862" y="-331.5" font-family="Helvetica,sans-Serif" font-size="10.00" fill="#000000">/framework_common.h</text>
</a>
</g>
</g>
<!-- Node1 -->
<g id="node2" class="node">
<title>Node1</title>
<g id="a_node2"><a xlink:title=" ">
<polygon fill="#ffffff" stroke="#bfbfbf" points="1,-263 1,-282 65,-282 65,-263 1,-263"/>
<text text-anchor="middle" x="33" y="-270" font-family="Helvetica,sans-Serif" font-size="10.00" fill="#000000">algorithm</text>
</a>
</g>
</g>
<!-- Node0&#45;&gt;Node1 -->
<g id="edge1" class="edge">
<title>Node0&#45;&gt;Node1</title>
<path fill="none" stroke="#191970" d="M789.266,-337.1247C621.9351,-331.2703 213.7261,-314.6577 79,-288 75.1119,-287.2307 71.0999,-286.2209 67.1406,-285.0849"/>
<polygon fill="#191970" stroke="#191970" points="68.0975,-281.717 57.5084,-282.0665 66.0043,-288.3967 68.0975,-281.717"/>
</g>
<!-- Node2 -->
<g id="node3" class="node">
<title>Node2</title>
<g id="a_node3"><a xlink:title=" ">
<polygon fill="#ffffff" stroke="#bfbfbf" points="1450,-129 1450,-148 1508,-148 1508,-129 1450,-129"/>
<text text-anchor="middle" x="1479" y="-136" font-family="Helvetica,sans-Serif" font-size="10.00" fill="#000000">memory</text>
</a>
</g>
</g>
<!-- Node0&#45;&gt;Node2 -->
<g id="edge2" class="edge">
<title>Node0&#45;&gt;Node2</title>
<path fill="none" stroke="#191970" d="M934.5125,-334.4568C1125.7435,-320.412 1632.3816,-278.0987 1680,-221 1688.8243,-210.4189 1688.4472,-200.8845 1680,-190 1660.3297,-164.6544 1570.7207,-149.6466 1518.023,-142.8613"/>
<polygon fill="#191970" stroke="#191970" points="1518.3634,-139.3768 1508.0073,-141.6133 1517.4977,-146.323 1518.3634,-139.3768"/>
</g>
<!-- Node3 -->
<g id="node4" class="node">
<title>Node3</title>
<g id="a_node4"><a xlink:title=" ">
<polygon fill="#ffffff" stroke="#bfbfbf" points="0,-129 0,-148 56,-148 56,-129 0,-129"/>
<text text-anchor="middle" x="28" y="-136" font-family="Helvetica,sans-Serif" font-size="10.00" fill="#000000">optional</text>
</a>
</g>
</g>
<!-- Node0&#45;&gt;Node3 -->
<g id="edge3" class="edge">
<title>Node0&#45;&gt;Node3</title>
<path fill="none" stroke="#191970" d="M789.1282,-337.0201C687.1145,-332.4944 496.3433,-320.1808 337,-288 238.4769,-268.1024 208.5637,-270.3489 121,-221 89.88,-203.4615 60.1268,-174.1173 42.9807,-155.5633"/>
<polygon fill="#191970" stroke="#191970" points="45.5388,-153.174 36.2334,-148.1085 40.3489,-157.8713 45.5388,-153.174"/>
</g>
<!-- Node4 -->
<g id="node5" class="node">
<title>Node4</title>
<g id="a_node5"><a xlink:title=" ">
<polygon fill="#ffffff" stroke="#bfbfbf" points="799,-129 799,-148 843,-148 843,-129 799,-129"/>
<text text-anchor="middle" x="821" y="-136" font-family="Helvetica,sans-Serif" font-size="10.00" fill="#000000">string</text>
</a>
</g>
</g>
<!-- Node0&#45;&gt;Node4 -->
<g id="edge4" class="edge">
<title>Node0&#45;&gt;Node4</title>
<path fill="none" stroke="#191970" d="M848.4653,-324.4953C840.6344,-314.8207 831.4686,-301.5519 827,-288 812.3505,-243.5722 815.3432,-187.666 818.4058,-158.4186"/>
<polygon fill="#191970" stroke="#191970" points="821.9074,-158.6077 819.5881,-148.2699 814.9544,-157.7977 821.9074,-158.6077"/>
</g>
<!-- Node5 -->
<g id="node6" class="node">
<title>Node5</title>
<g id="a_node6"><a xlink:title=" ">
<polygon fill="#ffffff" stroke="#bfbfbf" points="1103.5,-62 1103.5,-81 1148.5,-81 1148.5,-62 1103.5,-62"/>
<text text-anchor="middle" x="1126" y="-69" font-family="Helvetica,sans-Serif" font-size="10.00" fill="#000000">utility</text>
</a>
</g>
</g>
<!-- Node0&#45;&gt;Node5 -->
<g id="edge5" class="edge">
<title>Node0&#45;&gt;Node5</title>
<path fill="none" stroke="#191970" d="M934.6269,-336.229C1080.5034,-329.2527 1404.4298,-311.604 1513,-288 1598.0439,-269.5108 1647.0864,-292.2948 1697,-221 1761.9519,-128.2251 1289.0625,-84.2061 1158.6787,-73.9126"/>
<polygon fill="#191970" stroke="#191970" points="1158.7548,-70.4081 1148.5141,-73.1241 1158.2134,-77.3871 1158.7548,-70.4081"/>
</g>
<!-- Node6 -->
<g id="node7" class="node">
<title>Node6</title>
<g id="a_node7"><a xlink:title=" ">
<polygon fill="#ffffff" stroke="#bfbfbf" points="836.5,-263 836.5,-282 887.5,-282 887.5,-263 836.5,-263"/>
<text text-anchor="middle" x="862" y="-270" font-family="Helvetica,sans-Serif" font-size="10.00" fill="#000000">variant</text>
</a>
</g>
</g>
<!-- Node0&#45;&gt;Node6 -->
<g id="edge6" class="edge">
<title>Node0&#45;&gt;Node6</title>
<path fill="none" stroke="#191970" d="M862,-324.2967C862,-314.7699 862,-302.3954 862,-292.1306"/>
<polygon fill="#191970" stroke="#191970" points="865.5001,-292.0549 862,-282.055 858.5001,-292.055 865.5001,-292.0549"/>
</g>
<!-- Node7 -->
<g id="node8" class="node">
<title>Node7</title>
<g id="a_node8"><a xlink:title=" ">
<polygon fill="#ffffff" stroke="#bfbfbf" points="861.5,-129 861.5,-148 908.5,-148 908.5,-129 861.5,-129"/>
<text text-anchor="middle" x="885" y="-136" font-family="Helvetica,sans-Serif" font-size="10.00" fill="#000000">vector</text>
</a>
</g>
</g>
<!-- Node0&#45;&gt;Node7 -->
<g id="edge7" class="edge">
<title>Node0&#45;&gt;Node7</title>
<path fill="none" stroke="#191970" d="M875.3403,-324.49C883.0198,-314.8135 891.9323,-301.5445 896,-288 909.5408,-242.9126 898.4535,-186.8993 890.7819,-157.9124"/>
<polygon fill="#191970" stroke="#191970" points="894.1312,-156.8932 888.0674,-148.2053 887.3899,-158.7784 894.1312,-156.8932"/>
</g>
<!-- Node8 -->
<g id="node9" class="node">
<title>Node8</title>
<g id="a_node9"><a xlink:href="drake__assert_8h.html" target="_top" xlink:title="Provides Drake&#39;s assertion implementation.">
<polygon fill="#ffffff" stroke="#000000" points="672.5,-56.5 672.5,-86.5 793.5,-86.5 793.5,-56.5 672.5,-56.5"/>
<text text-anchor="start" x="680.5" y="-74.5" font-family="Helvetica,sans-Serif" font-size="10.00" fill="#000000">drake/common/drake</text>
<text text-anchor="middle" x="733" y="-63.5" font-family="Helvetica,sans-Serif" font-size="10.00" fill="#000000">_assert.h</text>
</a>
</g>
</g>
<!-- Node0&#45;&gt;Node8 -->
<g id="edge8" class="edge">
<title>Node0&#45;&gt;Node8</title>
<path fill="none" stroke="#191970" d="M895.8031,-324.4203C981.4049,-285.9016 1201.2915,-184.7648 1220,-154 1227.1587,-142.228 1229.2159,-133.2418 1220,-123 1192.6957,-92.6561 932.2808,-78.8561 803.8771,-73.855"/>
<polygon fill="#191970" stroke="#191970" points="803.8691,-70.3522 793.7428,-73.4679 803.6018,-77.3471 803.8691,-70.3522"/>
</g>
<!-- Node10 -->
<g id="node11" class="node">
<title>Node10</title>
<g id="a_node11"><a xlink:href="identifier_8h.html" target="_top" xlink:title=" ">
<polygon fill="#ffffff" stroke="#000000" points="346,-263 346,-282 492,-282 492,-263 346,-263"/>
<text text-anchor="middle" x="419" y="-270" font-family="Helvetica,sans-Serif" font-size="10.00" fill="#000000">drake/common/identifier.h</text>
</a>
</g>
</g>
<!-- Node0&#45;&gt;Node10 -->
<g id="edge10" class="edge">
<title>Node0&#45;&gt;Node10</title>
<path fill="none" stroke="#191970" d="M789.3436,-328.5113C707.2243,-316.0915 574.3036,-295.9884 492.0304,-283.5452"/>
<polygon fill="#191970" stroke="#191970" points="492.4185,-280.0642 482.0075,-282.0294 491.3717,-286.9855 492.4185,-280.0642"/>
</g>
<!-- Node24 -->
<g id="node25" class="node">
<title>Node24</title>
<g id="a_node25"><a xlink:href="type__safe__index_8h.html" target="_top" xlink:title=" ">
<polygon fill="#ffffff" stroke="#000000" points="625.5,-257.5 625.5,-287.5 766.5,-287.5 766.5,-257.5 625.5,-257.5"/>
<text text-anchor="start" x="633.5" y="-275.5" font-family="Helvetica,sans-Serif" font-size="10.00" fill="#000000">drake/common/type_safe</text>
<text text-anchor="middle" x="696" y="-264.5" font-family="Helvetica,sans-Serif" font-size="10.00" fill="#000000">_index.h</text>
</a>
</g>
</g>
<!-- Node0&#45;&gt;Node24 -->
<g id="edge38" class="edge">
<title>Node0&#45;&gt;Node24</title>
<path fill="none" stroke="#191970" d="M824.7464,-324.4639C800.5892,-314.7137 768.9134,-301.9289 743.0264,-291.4805"/>
<polygon fill="#191970" stroke="#191970" points="743.9993,-288.0989 733.4161,-287.6017 741.3793,-294.5901 743.9993,-288.0989"/>
</g>
<!-- Node28 -->
<g id="node29" class="node">
<title>Node28</title>
<g id="a_node29"><a xlink:href="value_8h.html" target="_top" xlink:title=" ">
<polygon fill="#ffffff" stroke="#000000" points="1174.5,-263 1174.5,-282 1303.5,-282 1303.5,-263 1174.5,-263"/>
<text text-anchor="middle" x="1239" y="-270" font-family="Helvetica,sans-Serif" font-size="10.00" fill="#000000">drake/common/value.h</text>
</a>
</g>
</g>
<!-- Node0&#45;&gt;Node28 -->
<g id="edge52" class="edge">
<title>Node0&#45;&gt;Node28</title>
<path fill="none" stroke="#191970" d="M934.6894,-326.5817C1004.497,-314.1756 1108.9018,-295.6209 1175.4679,-283.7908"/>
<polygon fill="#191970" stroke="#191970" points="1176.1772,-287.2197 1185.4105,-282.0239 1174.9523,-280.3277 1176.1772,-287.2197"/>
</g>
<!-- Node9 -->
<g id="node10" class="node">
<title>Node9</title>
<g id="a_node10"><a xlink:title=" ">
<polygon fill="#ffffff" stroke="#bfbfbf" points="572.5,-.5 572.5,-19.5 641.5,-19.5 641.5,-.5 572.5,-.5"/>
<text text-anchor="middle" x="607" y="-7.5" font-family="Helvetica,sans-Serif" font-size="10.00" fill="#000000">type_traits</text>
</a>
</g>
</g>
<!-- Node8&#45;&gt;Node9 -->
<g id="edge9" class="edge">
<title>Node8&#45;&gt;Node9</title>
<path fill="none" stroke="#191970" d="M702.1769,-56.4554C681.8912,-46.554 655.5212,-33.683 635.6838,-24.0004"/>
<polygon fill="#191970" stroke="#191970" points="637.0474,-20.7714 626.5255,-19.5303 633.977,-27.062 637.0474,-20.7714"/>
</g>
<!-- Node10&#45;&gt;Node4 -->
<g id="edge14" class="edge">
<title>Node10&#45;&gt;Node4</title>
<path fill="none" stroke="#191970" d="M483.5775,-262.9734C523.9935,-255.3186 576.3084,-242.2481 619,-221 638.8226,-211.1341 638.451,-200.3975 658,-190 700.7419,-167.2669 755.1963,-152.5945 789.082,-144.9405"/>
<polygon fill="#191970" stroke="#191970" points="789.8827,-148.3482 798.9021,-142.7893 788.3848,-141.5103 789.8827,-148.3482"/>
</g>
<!-- Node11 -->
<g id="node12" class="node">
<title>Node11</title>
<g id="a_node12"><a xlink:title=" ">
<polygon fill="#ffffff" stroke="#bfbfbf" points="159,-196 159,-215 209,-215 209,-196 159,-196"/>
<text text-anchor="middle" x="184" y="-203" font-family="Helvetica,sans-Serif" font-size="10.00" fill="#000000">atomic</text>
</a>
</g>
</g>
<!-- Node10&#45;&gt;Node11 -->
<g id="edge11" class="edge">
<title>Node10&#45;&gt;Node11</title>
<path fill="none" stroke="#191970" d="M371.9991,-262.9298C330.8127,-253.9618 269.6337,-239.2229 218,-221 216.3598,-220.4211 214.6901,-219.7935 213.0153,-219.1336"/>
<polygon fill="#191970" stroke="#191970" points="214.1069,-215.795 203.5337,-215.1176 211.3767,-222.2406 214.1069,-215.795"/>
</g>
<!-- Node12 -->
<g id="node13" class="node">
<title>Node12</title>
<g id="a_node13"><a xlink:title=" ">
<polygon fill="#ffffff" stroke="#bfbfbf" points="227,-196 227,-215 277,-215 277,-196 227,-196"/>
<text text-anchor="middle" x="252" y="-203" font-family="Helvetica,sans-Serif" font-size="10.00" fill="#000000">cstdint</text>
</a>
</g>
</g>
<!-- Node10&#45;&gt;Node12 -->
<g id="edge12" class="edge">
<title>Node10&#45;&gt;Node12</title>
<path fill="none" stroke="#191970" d="M395.073,-262.9005C366.3025,-251.3579 317.8436,-231.9163 285.3983,-218.8993"/>
<polygon fill="#191970" stroke="#191970" points="286.4668,-215.5569 275.8826,-215.0817 283.8603,-222.0535 286.4668,-215.5569"/>
</g>
<!-- Node13 -->
<g id="node14" class="node">
<title>Node13</title>
<g id="a_node14"><a xlink:title=" ">
<polygon fill="#ffffff" stroke="#bfbfbf" points="74.5,-129 74.5,-148 139.5,-148 139.5,-129 74.5,-129"/>
<text text-anchor="middle" x="107" y="-136" font-family="Helvetica,sans-Serif" font-size="10.00" fill="#000000">functional</text>
</a>
</g>
</g>
<!-- Node10&#45;&gt;Node13 -->
<g id="edge13" class="edge">
<title>Node10&#45;&gt;Node13</title>
<path fill="none" stroke="#191970" d="M345.7919,-265.6777C277.054,-258.0136 180.3742,-243.6028 150,-221 129.2146,-205.5327 117.5944,-177.0571 111.8146,-157.9482"/>
<polygon fill="#191970" stroke="#191970" points="115.1566,-156.9014 109.1221,-148.1931 108.4089,-158.7639 115.1566,-156.9014"/>
</g>
<!-- Node14 -->
<g id="node15" class="node">
<title>Node14</title>
<g id="a_node15"><a xlink:href="drake__copyable_8h.html" target="_top" xlink:title="Provides careful macros to selectively enable or disable the special member functions for copy&#45;constr...">
<polygon fill="#ffffff" stroke="#000000" points="450.5,-56.5 450.5,-86.5 571.5,-86.5 571.5,-56.5 450.5,-56.5"/>
<text text-anchor="start" x="458.5" y="-74.5" font-family="Helvetica,sans-Serif" font-size="10.00" fill="#000000">drake/common/drake</text>
<text text-anchor="middle" x="511" y="-63.5" font-family="Helvetica,sans-Serif" font-size="10.00" fill="#000000">_copyable.h</text>
</a>
</g>
</g>
<!-- Node10&#45;&gt;Node14 -->
<g id="edge15" class="edge">
<title>Node10&#45;&gt;Node14</title>
<path fill="none" stroke="#191970" d="M423.4374,-262.8054C437.219,-232.6955 479.5742,-140.1585 499.8964,-95.7588"/>
<polygon fill="#191970" stroke="#191970" points="503.1279,-97.1083 504.1074,-86.5588 496.763,-94.195 503.1279,-97.1083"/>
</g>
<!-- Node15 -->
<g id="node16" class="node">
<title>Node15</title>
<g id="a_node16"><a xlink:href="drake__throw_8h.html" target="_top" xlink:title="Provides a convenient wrapper to throw an exception when a condition is unmet.">
<polygon fill="#ffffff" stroke="#000000" points="157.5,-123.5 157.5,-153.5 278.5,-153.5 278.5,-123.5 157.5,-123.5"/>
<text text-anchor="start" x="165.5" y="-141.5" font-family="Helvetica,sans-Serif" font-size="10.00" fill="#000000">drake/common/drake</text>
<text text-anchor="middle" x="218" y="-130.5" font-family="Helvetica,sans-Serif" font-size="10.00" fill="#000000">_throw.h</text>
</a>
</g>
</g>
<!-- Node10&#45;&gt;Node15 -->
<g id="edge16" class="edge">
<title>Node10&#45;&gt;Node15</title>
<path fill="none" stroke="#191970" d="M404.5446,-262.8631C372.1393,-241.2595 293.0792,-188.5528 248.9932,-159.1621"/>
<polygon fill="#191970" stroke="#191970" points="250.9285,-156.2459 240.6665,-153.611 247.0456,-162.0703 250.9285,-156.2459"/>
</g>
<!-- Node16 -->
<g id="node17" class="node">
<title>Node16</title>
<g id="a_node17"><a xlink:href="hash_8h.html" target="_top" xlink:title=" ">
<polygon fill="#ffffff" stroke="#000000" points="485.5,-196 485.5,-215 610.5,-215 610.5,-196 485.5,-196"/>
<text text-anchor="middle" x="548" y="-203" font-family="Helvetica,sans-Serif" font-size="10.00" fill="#000000">drake/common/hash.h</text>
</a>
</g>
</g>
<!-- Node10&#45;&gt;Node16 -->
<g id="edge19" class="edge">
<title>Node10&#45;&gt;Node16</title>
<path fill="none" stroke="#191970" d="M437.4826,-262.9005C459.2275,-251.6067 495.5323,-232.7506 520.564,-219.7497"/>
<polygon fill="#191970" stroke="#191970" points="522.2905,-222.797 529.5517,-215.0817 519.0641,-216.5849 522.2905,-222.797"/>
</g>
<!-- Node22 -->
<g id="node23" class="node">
<title>Node22</title>
<g id="a_node23"><a xlink:href="never__destroyed_8h.html" target="_top" xlink:title=" ">
<polygon fill="#ffffff" stroke="#000000" points="335.5,-123.5 335.5,-153.5 456.5,-153.5 456.5,-123.5 335.5,-123.5"/>
<text text-anchor="start" x="343.5" y="-141.5" font-family="Helvetica,sans-Serif" font-size="10.00" fill="#000000">drake/common/never</text>
<text text-anchor="middle" x="396" y="-130.5" font-family="Helvetica,sans-Serif" font-size="10.00" fill="#000000">_destroyed.h</text>
</a>
</g>
</g>
<!-- Node10&#45;&gt;Node22 -->
<g id="edge33" class="edge">
<title>Node10&#45;&gt;Node22</title>
<path fill="none" stroke="#191970" d="M417.3459,-262.8631C413.8232,-242.3397 405.4825,-193.7457 400.332,-163.7388"/>
<polygon fill="#191970" stroke="#191970" points="403.735,-162.8748 398.5937,-153.611 396.8359,-164.059 403.735,-162.8748"/>
</g>
<!-- Node15&#45;&gt;Node8 -->
<g id="edge18" class="edge">
<title>Node15&#45;&gt;Node8</title>
<path fill="none" stroke="#191970" d="M278.5228,-129.6325C293.9945,-127.4155 310.6071,-125.0783 326,-123 443.7766,-107.0981 580.9337,-90.0461 662.1684,-80.0994"/>
<polygon fill="#191970" stroke="#191970" points="662.7777,-83.551 672.2788,-78.8628 661.9278,-76.6028 662.7777,-83.551"/>
</g>
<!-- Node15&#45;&gt;Node9 -->
<g id="edge17" class="edge">
<title>Node15&#45;&gt;Node9</title>
<path fill="none" stroke="#191970" d="M227.0045,-123.4009C239.306,-104.2527 263.2699,-71.828 293,-56 338.7516,-31.6424 486.8651,-18.2408 562.1626,-12.848"/>
<polygon fill="#191970" stroke="#191970" points="562.5545,-16.3292 572.2859,-12.1399 562.066,-9.3463 562.5545,-16.3292"/>
</g>
<!-- Node16&#45;&gt;Node3 -->
<g id="edge25" class="edge">
<title>Node16&#45;&gt;Node3</title>
<path fill="none" stroke="#191970" d="M485.4836,-201.1013C373.475,-192.8438 143.0017,-174.039 65,-154 62.521,-153.3631 59.9913,-152.5897 57.4765,-151.732"/>
<polygon fill="#191970" stroke="#191970" points="58.5808,-148.4074 47.9899,-148.1174 56.0883,-154.9486 58.5808,-148.4074"/>
</g>
<!-- Node16&#45;&gt;Node4 -->
<g id="edge27" class="edge">
<title>Node16&#45;&gt;Node4</title>
<path fill="none" stroke="#191970" d="M586.8243,-195.9717C640.9727,-182.6825 738.1852,-158.8245 788.6365,-146.4427"/>
<polygon fill="#191970" stroke="#191970" points="789.7826,-149.7654 798.6602,-143.9827 788.1141,-142.9671 789.7826,-149.7654"/>
</g>
<!-- Node16&#45;&gt;Node5 -->
<g id="edge29" class="edge">
<title>Node16&#45;&gt;Node5</title>
<path fill="none" stroke="#191970" d="M577.6964,-195.9611C609.1419,-185.7985 660.1905,-169.1242 704,-154 742.4054,-140.7415 750.6237,-133.0137 790,-123 899.258,-95.2149 1032.5524,-80.2201 1093.1723,-74.3987"/>
<polygon fill="#191970" stroke="#191970" points="1093.6558,-77.8687 1103.2845,-73.4485 1093.0009,-70.8994 1093.6558,-77.8687"/>
</g>
<!-- Node16&#45;&gt;Node7 -->
<g id="edge30" class="edge">
<title>Node16&#45;&gt;Node7</title>
<path fill="none" stroke="#191970" d="M609.4824,-195.9989C691.5635,-183.1738 829.2996,-161.1083 852,-154 853.8574,-153.4184 855.7448,-152.7528 857.6281,-152.0319"/>
<polygon fill="#191970" stroke="#191970" points="859.0273,-155.2403 866.8531,-148.0983 856.2816,-148.8012 859.0273,-155.2403"/>
</g>
<!-- Node16&#45;&gt;Node8 -->
<g id="edge31" class="edge">
<title>Node16&#45;&gt;Node8</title>
<path fill="none" stroke="#191970" d="M588.0578,-195.9172C615.0018,-187.9928 650.1799,-174.64 676,-154 695.6198,-138.3164 711.2299,-114.1057 721.1179,-95.9615"/>
<polygon fill="#191970" stroke="#191970" points="724.4815,-97.0819 726.0117,-86.5981 718.2777,-93.8394 724.4815,-97.0819"/>
</g>
<!-- Node16&#45;&gt;Node9 -->
<g id="edge28" class="edge">
<title>Node16&#45;&gt;Node9</title>
<path fill="none" stroke="#191970" d="M490.7239,-195.9907C428.4398,-185.0699 336.3223,-166.991 326,-154 317.4288,-143.2129 323.9156,-136.6192 326,-123 330.721,-92.153 323.5614,-76.6024 347,-56 378.2925,-28.4942 496.2341,-16.8574 561.9954,-12.4217"/>
<polygon fill="#191970" stroke="#191970" points="562.3268,-15.9077 572.0804,-11.7704 561.8756,-8.9223 562.3268,-15.9077"/>
</g>
<!-- Node16&#45;&gt;Node13 -->
<g id="edge22" class="edge">
<title>Node16&#45;&gt;Node13</title>
<path fill="none" stroke="#191970" d="M485.3153,-199.2339C389.308,-189.331 210.4117,-169.5873 148,-154 145.1622,-153.2913 142.2522,-152.4459 139.3558,-151.521"/>
<polygon fill="#191970" stroke="#191970" points="140.2794,-148.1365 129.6846,-148.1524 137.9769,-154.747 140.2794,-148.1365"/>
</g>
<!-- Node16&#45;&gt;Node15 -->
<g id="edge32" class="edge">
<title>Node16&#45;&gt;Node15</title>
<path fill="none" stroke="#191970" d="M500.5195,-195.9774C449.2988,-185.6892 365.3496,-168.7819 293,-154 291.5345,-153.7006 290.0529,-153.3975 288.5596,-153.0918"/>
<polygon fill="#191970" stroke="#191970" points="289.0767,-149.625 278.5773,-151.0438 287.6698,-156.4822 289.0767,-149.625"/>
</g>
<!-- Node17 -->
<g id="node18" class="node">
<title>Node17</title>
<g id="a_node18"><a xlink:title=" ">
<polygon fill="#ffffff" stroke="#bfbfbf" points="563.5,-129 563.5,-148 610.5,-148 610.5,-129 563.5,-129"/>
<text text-anchor="middle" x="587" y="-136" font-family="Helvetica,sans-Serif" font-size="10.00" fill="#000000">cmath</text>
</a>
</g>
</g>
<!-- Node16&#45;&gt;Node17 -->
<g id="edge20" class="edge">
<title>Node16&#45;&gt;Node17</title>
<path fill="none" stroke="#191970" d="M553.5877,-195.9005C559.4957,-185.751 568.9587,-169.4941 576.3082,-156.8679"/>
<polygon fill="#191970" stroke="#191970" points="579.4167,-158.4849 581.4226,-148.0817 573.367,-154.9634 579.4167,-158.4849"/>
</g>
<!-- Node18 -->
<g id="node19" class="node">
<title>Node18</title>
<g id="a_node19"><a xlink:title=" ">
<polygon fill="#ffffff" stroke="#bfbfbf" points="1079.5,-129 1079.5,-148 1132.5,-148 1132.5,-129 1079.5,-129"/>
<text text-anchor="middle" x="1106" y="-136" font-family="Helvetica,sans-Serif" font-size="10.00" fill="#000000">cstddef</text>
</a>
</g>
</g>
<!-- Node16&#45;&gt;Node18 -->
<g id="edge21" class="edge">
<title>Node16&#45;&gt;Node18</title>
<path fill="none" stroke="#191970" d="M610.7623,-196.1727C626.1911,-194.0133 642.6788,-191.8179 658,-190 823.3879,-170.376 866.3222,-178.8898 1031,-154 1043.6331,-152.0906 1057.3497,-149.4307 1069.5562,-146.8528"/>
<polygon fill="#191970" stroke="#191970" points="1070.3632,-150.2592 1079.3977,-144.7248 1068.8838,-143.4173 1070.3632,-150.2592"/>
</g>
<!-- Node19 -->
<g id="node20" class="node">
<title>Node19</title>
<g id="a_node20"><a xlink:title=" ">
<polygon fill="#ffffff" stroke="#bfbfbf" points="1151,-129 1151,-148 1211,-148 1211,-129 1151,-129"/>
<text text-anchor="middle" x="1181" y="-136" font-family="Helvetica,sans-Serif" font-size="10.00" fill="#000000">iostream</text>
</a>
</g>
</g>
<!-- Node16&#45;&gt;Node19 -->
<g id="edge23" class="edge">
<title>Node16&#45;&gt;Node19</title>
<path fill="none" stroke="#191970" d="M610.4463,-195.9759C625.9589,-193.81 642.564,-191.661 658,-190 872.0266,-166.9698 931.0225,-201.4051 1141,-154 1144.0262,-153.3168 1147.1267,-152.4455 1150.1971,-151.4655"/>
<polygon fill="#191970" stroke="#191970" points="1151.5243,-154.7083 1159.7748,-148.0616 1149.1801,-148.1125 1151.5243,-154.7083"/>
</g>
<!-- Node20 -->
<g id="node21" class="node">
<title>Node20</title>
<g id="a_node21"><a xlink:title=" ">
<polygon fill="#ffffff" stroke="#bfbfbf" points="629,-129 629,-148 667,-148 667,-129 629,-129"/>
<text text-anchor="middle" x="648" y="-136" font-family="Helvetica,sans-Serif" font-size="10.00" fill="#000000">map</text>
</a>
</g>
</g>
<!-- Node16&#45;&gt;Node20 -->
<g id="edge24" class="edge">
<title>Node16&#45;&gt;Node20</title>
<path fill="none" stroke="#191970" d="M562.3276,-195.9005C578.7385,-184.9052 605.8475,-166.7422 625.1751,-153.7927"/>
<polygon fill="#191970" stroke="#191970" points="627.3395,-156.5556 633.699,-148.0817 623.4431,-150.7402 627.3395,-156.5556"/>
</g>
<!-- Node21 -->
<g id="node22" class="node">
<title>Node21</title>
<g id="a_node22"><a xlink:title=" ">
<polygon fill="#ffffff" stroke="#bfbfbf" points="513,-129 513,-148 545,-148 545,-129 513,-129"/>
<text text-anchor="middle" x="529" y="-136" font-family="Helvetica,sans-Serif" font-size="10.00" fill="#000000">set</text>
</a>
</g>
</g>
<!-- Node16&#45;&gt;Node21 -->
<g id="edge26" class="edge">
<title>Node16&#45;&gt;Node21</title>
<path fill="none" stroke="#191970" d="M545.2778,-195.9005C542.4842,-186.0495 538.059,-170.4451 534.5273,-157.9912"/>
<polygon fill="#191970" stroke="#191970" points="537.8127,-156.7474 531.7172,-148.0817 531.0783,-158.6572 537.8127,-156.7474"/>
</g>
<!-- Node22&#45;&gt;Node5 -->
<g id="edge36" class="edge">
<title>Node22&#45;&gt;Node5</title>
<path fill="none" stroke="#191970" d="M456.7487,-129.13C472.141,-126.9353 488.6599,-124.7343 504,-123 728.7448,-97.5915 1000.5138,-79.3789 1093.205,-73.5199"/>
<polygon fill="#191970" stroke="#191970" points="1093.5977,-77.0023 1103.3587,-72.8824 1093.159,-70.016 1093.5977,-77.0023"/>
</g>
<!-- Node22&#45;&gt;Node9 -->
<g id="edge35" class="edge">
<title>Node22&#45;&gt;Node9</title>
<path fill="none" stroke="#191970" d="M400.2559,-123.3166C406.2619,-104.6905 419.0199,-73.4456 441,-56 459.758,-41.1118 520.0187,-26.8477 562.5097,-18.2542"/>
<polygon fill="#191970" stroke="#191970" points="563.229,-21.6798 572.3559,-16.2993 561.8658,-14.8138 563.229,-21.6798"/>
</g>
<!-- Node22&#45;&gt;Node14 -->
<g id="edge37" class="edge">
<title>Node22&#45;&gt;Node14</title>
<path fill="none" stroke="#191970" d="M421.8082,-123.4639C437.8237,-114.1332 458.6094,-102.0232 476.0856,-91.8415"/>
<polygon fill="#191970" stroke="#191970" points="478.0014,-94.776 484.88,-86.7177 474.4775,-88.7276 478.0014,-94.776"/>
</g>
<!-- Node23 -->
<g id="node24" class="node">
<title>Node23</title>
<g id="a_node24"><a xlink:title=" ">
<polygon fill="#ffffff" stroke="#bfbfbf" points="356.5,-62 356.5,-81 393.5,-81 393.5,-62 356.5,-62"/>
<text text-anchor="middle" x="375" y="-69" font-family="Helvetica,sans-Serif" font-size="10.00" fill="#000000">new</text>
</a>
</g>
</g>
<!-- Node22&#45;&gt;Node23 -->
<g id="edge34" class="edge">
<title>Node22&#45;&gt;Node23</title>
<path fill="none" stroke="#191970" d="M391.2348,-123.2967C388.217,-113.6685 384.2876,-101.1318 381.0504,-90.8038"/>
<polygon fill="#191970" stroke="#191970" points="384.3256,-89.5504 377.9948,-81.055 377.646,-91.6441 384.3256,-89.5504"/>
</g>
<!-- Node24&#45;&gt;Node4 -->
<g id="edge41" class="edge">
<title>Node24&#45;&gt;Node4</title>
<path fill="none" stroke="#191970" d="M714.0853,-257.3624C725.6147,-247.4251 740.6532,-233.9204 753,-221 773.3111,-199.7451 794.5195,-173.2101 807.7397,-156.0652"/>
<polygon fill="#191970" stroke="#191970" points="810.5867,-158.1039 813.8778,-148.0332 805.0248,-153.8535 810.5867,-158.1039"/>
</g>
<!-- Node24&#45;&gt;Node8 -->
<g id="edge42" class="edge">
<title>Node24&#45;&gt;Node8</title>
<path fill="none" stroke="#191970" d="M704.8293,-257.2591C710.1683,-247.2807 716.5838,-233.7689 720,-221 731.3941,-178.4116 733.4051,-126.8042 733.4592,-96.7094"/>
<polygon fill="#191970" stroke="#191970" points="736.9589,-96.6325 733.4043,-86.6518 729.959,-96.6708 736.9589,-96.6325"/>
</g>
<!-- Node24&#45;&gt;Node13 -->
<g id="edge39" class="edge">
<title>Node24&#45;&gt;Node13</title>
<path fill="none" stroke="#191970" d="M625.2997,-265.0292C559.3452,-257.1676 458.5507,-242.8633 373,-221 333.2302,-210.8365 325.2299,-202.0811 286,-190 225.4215,-171.3445 208.3971,-173.2345 148,-154 145.5891,-153.2322 143.1128,-152.4024 140.6287,-151.5396"/>
<polygon fill="#191970" stroke="#191970" points="141.7261,-148.2147 131.1317,-148.11 139.3484,-154.7985 141.7261,-148.2147"/>
</g>
<!-- Node24&#45;&gt;Node15 -->
<g id="edge43" class="edge">
<title>Node24&#45;&gt;Node15</title>
<path fill="none" stroke="#191970" d="M625.2927,-257.449C581.9769,-247.8575 525.5295,-234.6928 476,-221 404.4632,-201.2231 323.0698,-174.4742 271.1639,-156.867"/>
<polygon fill="#191970" stroke="#191970" points="272.1005,-153.4886 261.506,-153.5809 269.8456,-160.1155 272.1005,-153.4886"/>
</g>
<!-- Node24&#45;&gt;Node16 -->
<g id="edge44" class="edge">
<title>Node24&#45;&gt;Node16</title>
<path fill="none" stroke="#191970" d="M662.7859,-257.4639C637.506,-246.0196 602.9908,-230.3945 578.4261,-219.274"/>
<polygon fill="#191970" stroke="#191970" points="579.7681,-216.0396 569.2146,-215.1039 576.8812,-222.4166 579.7681,-216.0396"/>
</g>
<!-- Node25 -->
<g id="node26" class="node">
<title>Node25</title>
<g id="a_node26"><a xlink:title=" ">
<polygon fill="#ffffff" stroke="#bfbfbf" points="667,-196 667,-215 711,-215 711,-196 667,-196"/>
<text text-anchor="middle" x="689" y="-203" font-family="Helvetica,sans-Serif" font-size="10.00" fill="#000000">limits</text>
</a>
</g>
</g>
<!-- Node24&#45;&gt;Node25 -->
<g id="edge40" class="edge">
<title>Node24&#45;&gt;Node25</title>
<path fill="none" stroke="#191970" d="M694.4116,-257.2967C693.4163,-247.7699 692.1234,-235.3954 691.051,-225.1306"/>
<polygon fill="#191970" stroke="#191970" points="694.5185,-224.6371 689.9983,-215.055 687.5564,-225.3646 694.5185,-224.6371"/>
</g>
<!-- Node26 -->
<g id="node27" class="node">
<title>Node26</title>
<g id="a_node27"><a xlink:href="nice__type__name_8h.html" target="_top" xlink:title=" ">
<polygon fill="#ffffff" stroke="#000000" points="919,-190.5 919,-220.5 1059,-220.5 1059,-190.5 919,-190.5"/>
<text text-anchor="start" x="927" y="-208.5" font-family="Helvetica,sans-Serif" font-size="10.00" fill="#000000">drake/common/nice_type</text>
<text text-anchor="middle" x="989" y="-197.5" font-family="Helvetica,sans-Serif" font-size="10.00" fill="#000000">_name.h</text>
</a>
</g>
</g>
<!-- Node24&#45;&gt;Node26 -->
<g id="edge45" class="edge">
<title>Node24&#45;&gt;Node26</title>
<path fill="none" stroke="#191970" d="M761.7549,-257.4639C806.7265,-247.1803 866.4609,-233.5209 913.3995,-222.7875"/>
<polygon fill="#191970" stroke="#191970" points="914.2434,-226.1849 923.2116,-220.5438 912.683,-219.3611 914.2434,-226.1849"/>
</g>
<!-- Node26&#45;&gt;Node2 -->
<g id="edge46" class="edge">
<title>Node26&#45;&gt;Node2</title>
<path fill="none" stroke="#191970" d="M1059.2051,-195.9005C1163.8868,-181.5869 1357.4029,-155.1265 1439.9943,-143.8334"/>
<polygon fill="#191970" stroke="#191970" points="1440.5336,-147.2924 1449.9672,-142.4698 1439.5852,-140.3569 1440.5336,-147.2924"/>
</g>
<!-- Node26&#45;&gt;Node4 -->
<g id="edge47" class="edge">
<title>Node26&#45;&gt;Node4</title>
<path fill="none" stroke="#191970" d="M945.3461,-190.4018C918.2029,-180.6921 882.7394,-167.4192 852,-154 850.9798,-153.5546 849.9451,-153.0927 848.9035,-152.6189"/>
<polygon fill="#191970" stroke="#191970" points="850.0726,-149.2992 839.5389,-148.1621 847.0644,-155.6199 850.0726,-149.2992"/>
</g>
<!-- Node26&#45;&gt;Node5 -->
<g id="edge49" class="edge">
<title>Node26&#45;&gt;Node5</title>
<path fill="none" stroke="#191970" d="M974.5085,-190.3346C959.5955,-172.8388 940.5579,-143.8131 956,-123 972.4159,-100.8743 1048.7301,-84.5464 1093.3335,-76.7014"/>
<polygon fill="#191970" stroke="#191970" points="1094.1354,-80.1151 1103.4023,-74.9795 1092.9554,-73.2153 1094.1354,-80.1151"/>
</g>
<!-- Node26&#45;&gt;Node7 -->
<g id="edge50" class="edge">
<title>Node26&#45;&gt;Node7</title>
<path fill="none" stroke="#191970" d="M965.6604,-190.4639C948.6821,-179.526 925.7758,-164.769 908.7118,-153.7759"/>
<polygon fill="#191970" stroke="#191970" points="910.2096,-150.5774 899.9076,-148.1039 906.4186,-156.462 910.2096,-150.5774"/>
</g>
<!-- Node26&#45;&gt;Node22 -->
<g id="edge51" class="edge">
<title>Node26&#45;&gt;Node22</title>
<path fill="none" stroke="#191970" d="M918.6282,-198.8461C824.1828,-189.7288 651.2501,-172.3782 504,-154 492.0321,-152.5063 479.3364,-150.7968 467.0155,-149.0712"/>
<polygon fill="#191970" stroke="#191970" points="467.17,-145.5582 456.7782,-147.6223 466.189,-152.4892 467.17,-145.5582"/>
</g>
<!-- Node27 -->
<g id="node28" class="node">
<title>Node27</title>
<g id="a_node28"><a xlink:title=" ">
<polygon fill="#ffffff" stroke="#bfbfbf" points="965.5,-129 965.5,-148 1022.5,-148 1022.5,-129 965.5,-129"/>
<text text-anchor="middle" x="994" y="-136" font-family="Helvetica,sans-Serif" font-size="10.00" fill="#000000">typeinfo</text>
</a>
</g>
</g>
<!-- Node26&#45;&gt;Node27 -->
<g id="edge48" class="edge">
<title>Node26&#45;&gt;Node27</title>
<path fill="none" stroke="#191970" d="M990.1346,-190.2967C990.8455,-180.7699 991.769,-168.3954 992.535,-158.1306"/>
<polygon fill="#191970" stroke="#191970" points="996.0329,-158.2877 993.2869,-148.055 989.0524,-157.7667 996.0329,-158.2877"/>
</g>
<!-- Node28&#45;&gt;Node2 -->
<g id="edge53" class="edge">
<title>Node28&#45;&gt;Node2</title>
<path fill="none" stroke="#191970" d="M1303.6125,-265.0618C1360.7329,-257.1674 1438.2648,-242.7916 1460,-221 1476.4085,-204.5489 1479.7971,-176.9556 1479.9889,-158.2545"/>
<polygon fill="#191970" stroke="#191970" points="1483.4868,-158.1113 1479.7949,-148.1806 1476.4881,-158.2461 1483.4868,-158.1113"/>
</g>
<!-- Node28&#45;&gt;Node4 -->
<g id="edge55" class="edge">
<title>Node28&#45;&gt;Node4</title>
<path fill="none" stroke="#191970" d="M1174.3506,-266.8889C1092.1562,-258.9847 955.4551,-243.0356 910,-221 878.4341,-205.6976 850.2809,-175.4021 834.4537,-156.0893"/>
<polygon fill="#191970" stroke="#191970" points="837.0469,-153.7271 828.0812,-148.082 831.5697,-158.0861 837.0469,-153.7271"/>
</g>
<!-- Node28&#45;&gt;Node5 -->
<g id="edge58" class="edge">
<title>Node28&#45;&gt;Node5</title>
<path fill="none" stroke="#191970" d="M1278.0934,-262.9133C1299.8003,-255.3745 1324.9813,-242.4473 1338,-221 1361.7046,-181.9487 1341.7236,-152.6847 1307,-123 1284.7101,-103.9447 1204.6775,-86.2897 1158.8455,-77.4412"/>
<polygon fill="#191970" stroke="#191970" points="1159.2782,-73.961 1148.8013,-75.5373 1157.9745,-80.8385 1159.2782,-73.961"/>
</g>
<!-- Node28&#45;&gt;Node9 -->
<g id="edge56" class="edge">
<title>Node28&#45;&gt;Node9</title>
<path fill="none" stroke="#191970" d="M1303.7491,-269.6125C1420.2518,-263.7485 1655.4333,-248.6025 1680,-221 1689.1599,-210.7081 1687.208,-201.7419 1680,-190 1645.5807,-133.9303 1608.6686,-148.4522 1548,-123 1461.9436,-86.897 1440.584,-73.9307 1349,-56 1214.2896,-29.6258 791.1752,-15.3223 651.9239,-11.2388"/>
<polygon fill="#191970" stroke="#191970" points="651.7259,-7.7317 641.6287,-10.9405 651.523,-14.7288 651.7259,-7.7317"/>
</g>
<!-- Node28&#45;&gt;Node14 -->
<g id="edge65" class="edge">
<title>Node28&#45;&gt;Node14</title>
<path fill="none" stroke="#191970" d="M1224.7742,-262.9498C1195.4411,-243.1651 1126.2697,-196.0322 1070,-154 1052.2606,-140.7491 1051.5249,-131.3066 1031,-123 878.6663,-61.3489 826.5224,-103.3358 663,-87 636.4366,-84.3463 607.2673,-81.3836 581.6464,-78.7649"/>
<polygon fill="#191970" stroke="#191970" points="581.9496,-75.2778 571.6453,-77.7418 581.2372,-82.2414 581.9496,-75.2778"/>
</g>
<!-- Node28&#45;&gt;Node16 -->
<g id="edge66" class="edge">
<title>Node28&#45;&gt;Node16</title>
<path fill="none" stroke="#191970" d="M1174.4082,-267.8682C1067.039,-259.9238 845.1234,-242.4626 658,-221 646.0248,-219.6265 633.3404,-217.9998 621.0068,-216.3253"/>
<polygon fill="#191970" stroke="#191970" points="621.1366,-212.8102 610.7524,-214.9121 620.1809,-219.7447 621.1366,-212.8102"/>
</g>
<!-- Node28&#45;&gt;Node26 -->
<g id="edge70" class="edge">
<title>Node28&#45;&gt;Node26</title>
<path fill="none" stroke="#191970" d="M1203.4466,-262.9717C1164.9353,-252.6507 1102.6369,-235.9547 1055.0858,-223.211"/>
<polygon fill="#191970" stroke="#191970" points="1055.7419,-219.7634 1045.1767,-220.5553 1053.9298,-226.5248 1055.7419,-219.7634"/>
</g>
<!-- Node28&#45;&gt;Node27 -->
<g id="edge57" class="edge">
<title>Node28&#45;&gt;Node27</title>
<path fill="none" stroke="#191970" d="M1221.3802,-262.8631C1178.9128,-239.636 1070.7089,-180.4551 1020.4271,-152.954"/>
<polygon fill="#191970" stroke="#191970" points="1021.9131,-149.7775 1011.4601,-148.0496 1018.5541,-155.919 1021.9131,-149.7775"/>
</g>
<!-- Node29 -->
<g id="node30" class="node">
<title>Node29</title>
<g id="a_node30"><a xlink:title=" ">
<polygon fill="#ffffff" stroke="#bfbfbf" points="1385.5,-196 1385.5,-215 1450.5,-215 1450.5,-196 1385.5,-196"/>
<text text-anchor="middle" x="1418" y="-203" font-family="Helvetica,sans-Serif" font-size="10.00" fill="#000000">stdexcept</text>
</a>
</g>
</g>
<!-- Node28&#45;&gt;Node29 -->
<g id="edge54" class="edge">
<title>Node28&#45;&gt;Node29</title>
<path fill="none" stroke="#191970" d="M1264.6463,-262.9005C1295.617,-251.3082 1347.8732,-231.7486 1382.6506,-218.7313"/>
<polygon fill="#191970" stroke="#191970" points="1384.2627,-221.8651 1392.4012,-215.0817 1381.8088,-215.3093 1384.2627,-221.8651"/>
</g>
<!-- Node30 -->
<g id="node31" class="node">
<title>Node30</title>
<g id="a_node31"><a xlink:href="copyable__unique__ptr_8h.html" target="_top" xlink:title=" ">
<polygon fill="#ffffff" stroke="#000000" points="1191.5,-190.5 1191.5,-220.5 1328.5,-220.5 1328.5,-190.5 1191.5,-190.5"/>
<text text-anchor="start" x="1199.5" y="-208.5" font-family="Helvetica,sans-Serif" font-size="10.00" fill="#000000">drake/common/copyable</text>
<text text-anchor="middle" x="1260" y="-197.5" font-family="Helvetica,sans-Serif" font-size="10.00" fill="#000000">_unique_ptr.h</text>
</a>
</g>
</g>
<!-- Node28&#45;&gt;Node30 -->
<g id="edge59" class="edge">
<title>Node28&#45;&gt;Node30</title>
<path fill="none" stroke="#191970" d="M1242.0088,-262.9005C1244.6658,-254.4234 1248.6582,-241.6856 1252.2076,-230.3614"/>
<polygon fill="#191970" stroke="#191970" points="1255.6406,-231.1109 1255.2917,-220.5218 1248.961,-229.0172 1255.6406,-231.1109"/>
</g>
<!-- Node31 -->
<g id="node32" class="node">
<title>Node31</title>
<g id="a_node32"><a xlink:href="is__cloneable_8h.html" target="_top" xlink:title=" ">
<polygon fill="#ffffff" stroke="#000000" points="1507.5,-196 1507.5,-215 1670.5,-215 1670.5,-196 1507.5,-196"/>
<text text-anchor="middle" x="1589" y="-203" font-family="Helvetica,sans-Serif" font-size="10.00" fill="#000000">drake/common/is_cloneable.h</text>
</a>
</g>
</g>
<!-- Node28&#45;&gt;Node31 -->
<g id="edge67" class="edge">
<title>Node28&#45;&gt;Node31</title>
<path fill="none" stroke="#191970" d="M1288.7748,-262.9717C1352.053,-250.8584 1461.2035,-229.9639 1529.0101,-216.9838"/>
<polygon fill="#191970" stroke="#191970" points="1529.9503,-220.3674 1539.1139,-215.0496 1528.6342,-213.4923 1529.9503,-220.3674"/>
</g>
<!-- Node30&#45;&gt;Node2 -->
<g id="edge62" class="edge">
<title>Node30&#45;&gt;Node2</title>
<path fill="none" stroke="#191970" d="M1309.1479,-190.4639C1348.6864,-178.3676 1403.492,-161.6006 1440.0413,-150.4189"/>
<polygon fill="#191970" stroke="#191970" points="1441.2995,-153.6942 1449.838,-147.4217 1439.2516,-147.0004 1441.2995,-153.6942"/>
</g>
<!-- Node30&#45;&gt;Node5 -->
<g id="edge63" class="edge">
<title>Node30&#45;&gt;Node5</title>
<path fill="none" stroke="#191970" d="M1273.8697,-190.2973C1288.1198,-172.7664 1306.2297,-143.7078 1291,-123 1275.2319,-101.5601 1202.1027,-85.1067 1158.6699,-77.0225"/>
<polygon fill="#191970" stroke="#191970" points="1159.0446,-73.5335 1148.5809,-75.1954 1157.7972,-80.4215 1159.0446,-73.5335"/>
</g>
<!-- Node30&#45;&gt;Node8 -->
<g id="edge64" class="edge">
<title>Node30&#45;&gt;Node8</title>
<path fill="none" stroke="#191970" d="M1263.8405,-190.3682C1267.5518,-171.7951 1270.359,-140.605 1253,-123 1222.0773,-91.6391 938.8544,-78.2227 803.8934,-73.5723"/>
<polygon fill="#191970" stroke="#191970" points="803.7667,-70.0661 793.6543,-73.2265 803.5304,-77.0621 803.7667,-70.0661"/>
</g>
<!-- Node30&#45;&gt;Node18 -->
<g id="edge60" class="edge">
<title>Node30&#45;&gt;Node18</title>
<path fill="none" stroke="#191970" d="M1225.4394,-190.4639C1199.0182,-178.969 1162.9021,-163.2561 1137.3209,-152.1266"/>
<polygon fill="#191970" stroke="#191970" points="1138.6408,-148.884 1128.0747,-148.1039 1135.8481,-155.3028 1138.6408,-148.884"/>
</g>
<!-- Node30&#45;&gt;Node19 -->
<g id="edge61" class="edge">
<title>Node30&#45;&gt;Node19</title>
<path fill="none" stroke="#191970" d="M1242.0737,-190.2967C1229.5261,-179.6551 1212.7889,-165.4602 1200.0091,-154.6217"/>
<polygon fill="#191970" stroke="#191970" points="1202.1567,-151.8538 1192.2663,-148.055 1197.629,-157.1924 1202.1567,-151.8538"/>
</g>
<!-- Node31&#45;&gt;Node2 -->
<g id="edge68" class="edge">
<title>Node31&#45;&gt;Node2</title>
<path fill="none" stroke="#191970" d="M1573.2397,-195.9005C1555.0243,-184.8057 1524.827,-166.4128 1503.5323,-153.4424"/>
<polygon fill="#191970" stroke="#191970" points="1505.0923,-150.2945 1494.7311,-148.0817 1501.4509,-156.2728 1505.0923,-150.2945"/>
</g>
<!-- Node31&#45;&gt;Node9 -->
<g id="edge69" class="edge">
<title>Node31&#45;&gt;Node9</title>
<path fill="none" stroke="#191970" d="M1583.5301,-195.7275C1573.0909,-178.068 1548.5306,-141.0064 1517,-123 1366.5069,-37.0569 813.7941,-15.5651 651.8623,-11.0593"/>
<polygon fill="#191970" stroke="#191970" points="651.8606,-7.5581 641.7697,-10.7866 651.6715,-14.5555 651.8606,-7.5581"/>
</g>
</g>
</svg>
