<?xml version="1.0" encoding="UTF-8" standalone="no"?>
<!DOCTYPE svg PUBLIC "-//W3C//DTD SVG 1.1//EN"
 "http://www.w3.org/Graphics/SVG/1.1/DTD/svg11.dtd">
<!-- Generated by graphviz version 2.40.1 (20161225.0304)
 -->
<!-- Title: drake/bindings/pydrake/systems/framework_py_systems.h Pages: 1 -->
<svg width="329pt" height="184pt"
 viewBox="0.00 0.00 329.00 184.00" xmlns="http://www.w3.org/2000/svg" xmlns:xlink="http://www.w3.org/1999/xlink">
<g id="graph0" class="graph" transform="scale(1 1) rotate(0) translate(4 180)">
<title>drake/bindings/pydrake/systems/framework_py_systems.h</title>
<polygon fill="#ffffff" stroke="transparent" points="-4,4 -4,-180 325,-180 325,4 -4,4"/>
<!-- Node0 -->
<g id="node1" class="node">
<title>Node0</title>
<g id="a_node1"><a xlink:title="Provides the Python bindings for the core system classes of the systems framework.">
<polygon fill="#bfbfbf" stroke="#000000" points="55.5,-134.5 55.5,-175.5 189.5,-175.5 189.5,-134.5 55.5,-134.5"/>
<text text-anchor="start" x="63.5" y="-163.5" font-family="Helvetica,sans-Serif" font-size="10.00" fill="#000000">drake/bindings/pydrake</text>
<text text-anchor="start" x="63.5" y="-152.5" font-family="Helvetica,sans-Serif" font-size="10.00" fill="#000000">/systems/framework_py</text>
<text text-anchor="middle" x="122.5" y="-141.5" font-family="Helvetica,sans-Serif" font-size="10.00" fill="#000000">_systems.h</text>
</a>
</g>
</g>
<!-- Node1 -->
<g id="node2" class="node">
<title>Node1</title>
<g id="a_node2"><a xlink:href="pydrake__pybind_8h.html" target="_top" xlink:title=" ">
<polygon fill="#ffffff" stroke="#000000" points="57,-67.5 57,-97.5 188,-97.5 188,-67.5 57,-67.5"/>
<text text-anchor="start" x="65" y="-85.5" font-family="Helvetica,sans-Serif" font-size="10.00" fill="#000000">drake/bindings/pydrake</text>
<text text-anchor="middle" x="122.5" y="-74.5" font-family="Helvetica,sans-Serif" font-size="10.00" fill="#000000">/pydrake_pybind.h</text>
</a>
</g>
</g>
<!-- Node0&#45;&gt;Node1 -->
<g id="edge1" class="edge">
<title>Node0&#45;&gt;Node1</title>
<path fill="none" stroke="#191970" d="M122.5,-134.4183C122.5,-126.0849 122.5,-116.3834 122.5,-107.6373"/>
<polygon fill="#191970" stroke="#191970" points="126.0001,-107.5991 122.5,-97.5991 119.0001,-107.5991 126.0001,-107.5991"/>
</g>
<!-- Node2 -->
<g id="node3" class="node">
<title>Node2</title>
<g id="a_node3"><a xlink:title=" ">
<polygon fill="#ffffff" stroke="#bfbfbf" points="0,-6 0,-25 45,-25 45,-6 0,-6"/>
<text text-anchor="middle" x="22.5" y="-13" font-family="Helvetica,sans-Serif" font-size="10.00" fill="#000000">utility</text>
</a>
</g>
</g>
<!-- Node1&#45;&gt;Node2 -->
<g id="edge2" class="edge">
<title>Node1&#45;&gt;Node2</title>
<path fill="none" stroke="#191970" d="M99.8085,-67.2967C83.4717,-56.351 61.5241,-41.6462 45.1881,-30.701"/>
<polygon fill="#191970" stroke="#191970" points="47.017,-27.7135 36.7612,-25.055 43.1207,-33.5289 47.017,-27.7135"/>
</g>
<!-- Node3 -->
<g id="node4" class="node">
<title>Node3</title>
<g id="a_node4"><a xlink:title=" ">
<polygon fill="#ffffff" stroke="#bfbfbf" points="63,-6 63,-25 182,-25 182,-6 63,-6"/>
<text text-anchor="middle" x="122.5" y="-13" font-family="Helvetica,sans-Serif" font-size="10.00" fill="#000000">pybind11/pybind11.h</text>
</a>
</g>
</g>
<!-- Node1&#45;&gt;Node3 -->
<g id="edge3" class="edge">
<title>Node1&#45;&gt;Node3</title>
<path fill="none" stroke="#191970" d="M122.5,-67.2967C122.5,-57.7699 122.5,-45.3954 122.5,-35.1306"/>
<polygon fill="#191970" stroke="#191970" points="126.0001,-35.0549 122.5,-25.055 119.0001,-35.055 126.0001,-35.0549"/>
</g>
<!-- Node4 -->
<g id="node5" class="node">
<title>Node4</title>
<g id="a_node5"><a xlink:href="drake__deprecated_8h.html" target="_top" xlink:title="Provides a portable macro for use in generating compile&#45;time warnings for use of code that is permitt...">
<polygon fill="#ffffff" stroke="#000000" points="200,-.5 200,-30.5 321,-30.5 321,-.5 200,-.5"/>
<text text-anchor="start" x="208" y="-18.5" font-family="Helvetica,sans-Serif" font-size="10.00" fill="#000000">drake/common/drake</text>
<text text-anchor="middle" x="260.5" y="-7.5" font-family="Helvetica,sans-Serif" font-size="10.00" fill="#000000">_deprecated.h</text>
</a>
</g>
</g>
<!-- Node1&#45;&gt;Node4 -->
<g id="edge4" class="edge">
<title>Node1&#45;&gt;Node4</title>
<path fill="none" stroke="#191970" d="M153.4699,-67.4639C173.1292,-57.9191 198.7784,-45.4663 220.0393,-35.144"/>
<polygon fill="#191970" stroke="#191970" points="221.6888,-38.2339 229.156,-30.7177 218.6315,-31.9368 221.6888,-38.2339"/>
</g>
</g>
</svg>
