<?xml version="1.0" encoding="UTF-8" standalone="no"?>
<!DOCTYPE svg PUBLIC "-//W3C//DTD SVG 1.1//EN"
 "http://www.w3.org/Graphics/SVG/1.1/DTD/svg11.dtd">
<!-- Generated by graphviz version 2.40.1 (20161225.0304)
 -->
<!-- Title: drake/solvers/function.h Pages: 1 -->
<svg width="614pt" height="218pt"
 viewBox="0.00 0.00 613.50 218.00" xmlns="http://www.w3.org/2000/svg" xmlns:xlink="http://www.w3.org/1999/xlink">
<g id="graph0" class="graph" transform="scale(1 1) rotate(0) translate(4 214)">
<title>drake/solvers/function.h</title>
<polygon fill="#ffffff" stroke="transparent" points="-4,4 -4,-214 609.5,-214 609.5,4 -4,4"/>
<!-- Node0 -->
<g id="node1" class="node">
<title>Node0</title>
<g id="a_node1"><a xlink:title=" ">
<polygon fill="#bfbfbf" stroke="#000000" points="19,-190.5 19,-209.5 153,-209.5 153,-190.5 19,-190.5"/>
<text text-anchor="middle" x="86" y="-197.5" font-family="Helvetica,sans-Serif" font-size="10.00" fill="#000000">drake/solvers/function.h</text>
</a>
</g>
</g>
<!-- Node1 -->
<g id="node2" class="node">
<title>Node1</title>
<g id="a_node2"><a xlink:title=" ">
<polygon fill="#ffffff" stroke="#bfbfbf" points="0,-129 0,-148 58,-148 58,-129 0,-129"/>
<text text-anchor="middle" x="29" y="-136" font-family="Helvetica,sans-Serif" font-size="10.00" fill="#000000">memory</text>
</a>
</g>
</g>
<!-- Node0&#45;&gt;Node1 -->
<g id="edge1" class="edge">
<title>Node0&#45;&gt;Node1</title>
<path fill="none" stroke="#191970" d="M77.0938,-190.3906C68.5272,-181.1478 55.3831,-166.966 44.9997,-155.7628"/>
<polygon fill="#191970" stroke="#191970" points="47.3965,-153.2 38.0318,-148.2449 42.2625,-157.9584 47.3965,-153.2"/>
</g>
<!-- Node2 -->
<g id="node3" class="node">
<title>Node2</title>
<g id="a_node3"><a xlink:title=" ">
<polygon fill="#ffffff" stroke="#bfbfbf" points="20.5,-62 20.5,-81 97.5,-81 97.5,-62 20.5,-62"/>
<text text-anchor="middle" x="59" y="-69" font-family="Helvetica,sans-Serif" font-size="10.00" fill="#000000">Eigen/Dense</text>
</a>
</g>
</g>
<!-- Node0&#45;&gt;Node2 -->
<g id="edge2" class="edge">
<title>Node0&#45;&gt;Node2</title>
<path fill="none" stroke="#191970" d="M83.9706,-190.3416C79.5533,-169.3184 68.9931,-119.0598 63.1191,-91.1038"/>
<polygon fill="#191970" stroke="#191970" points="66.5345,-90.337 61.0529,-81.2705 59.6841,-91.7765 66.5345,-90.337"/>
</g>
<!-- Node3 -->
<g id="node4" class="node">
<title>Node3</title>
<g id="a_node4"><a xlink:href="eigen__types_8h.html" target="_top" xlink:title="This file contains abbreviated definitions for certain specializations of Eigen::Matrix that are comm...">
<polygon fill="#ffffff" stroke="#000000" points="167,-123.5 167,-153.5 287,-153.5 287,-123.5 167,-123.5"/>
<text text-anchor="start" x="175" y="-141.5" font-family="Helvetica,sans-Serif" font-size="10.00" fill="#000000">drake/common/eigen</text>
<text text-anchor="middle" x="227" y="-130.5" font-family="Helvetica,sans-Serif" font-size="10.00" fill="#000000">_types.h</text>
</a>
</g>
</g>
<!-- Node0&#45;&gt;Node3 -->
<g id="edge3" class="edge">
<title>Node0&#45;&gt;Node3</title>
<path fill="none" stroke="#191970" d="M108.0313,-190.3906C128.0857,-181.6435 158.2818,-168.4728 183.2334,-157.5897"/>
<polygon fill="#191970" stroke="#191970" points="184.7408,-160.7507 192.5075,-153.5446 181.9422,-154.3345 184.7408,-160.7507"/>
</g>
<!-- Node3&#45;&gt;Node2 -->
<g id="edge5" class="edge">
<title>Node3&#45;&gt;Node2</title>
<path fill="none" stroke="#191970" d="M189.2975,-123.4639C160.2205,-111.8677 120.38,-95.9789 92.4334,-84.8335"/>
<polygon fill="#191970" stroke="#191970" points="93.6666,-81.5574 83.0815,-81.1039 91.0735,-88.0594 93.6666,-81.5574"/>
</g>
<!-- Node4 -->
<g id="node5" class="node">
<title>Node4</title>
<g id="a_node5"><a xlink:title=" ">
<polygon fill="#ffffff" stroke="#bfbfbf" points="115.5,-62 115.5,-81 160.5,-81 160.5,-62 115.5,-62"/>
<text text-anchor="middle" x="138" y="-69" font-family="Helvetica,sans-Serif" font-size="10.00" fill="#000000">utility</text>
</a>
</g>
</g>
<!-- Node3&#45;&gt;Node4 -->
<g id="edge4" class="edge">
<title>Node3&#45;&gt;Node4</title>
<path fill="none" stroke="#191970" d="M206.8045,-123.2967C192.534,-112.5537 173.4532,-98.1895 159.0052,-87.3129"/>
<polygon fill="#191970" stroke="#191970" points="160.7867,-84.2731 150.6924,-81.055 156.5766,-89.8656 160.7867,-84.2731"/>
</g>
<!-- Node5 -->
<g id="node6" class="node">
<title>Node5</title>
<g id="a_node6"><a xlink:href="constants_8h.html" target="_top" xlink:title=" ">
<polygon fill="#ffffff" stroke="#000000" points="178.5,-62 178.5,-81 327.5,-81 327.5,-62 178.5,-62"/>
<text text-anchor="middle" x="253" y="-69" font-family="Helvetica,sans-Serif" font-size="10.00" fill="#000000">drake/common/constants.h</text>
</a>
</g>
</g>
<!-- Node3&#45;&gt;Node5 -->
<g id="edge6" class="edge">
<title>Node3&#45;&gt;Node5</title>
<path fill="none" stroke="#191970" d="M232.8998,-123.2967C236.6754,-113.5672 241.6037,-100.8675 245.6353,-90.4784"/>
<polygon fill="#191970" stroke="#191970" points="248.9372,-91.6439 249.2921,-81.055 242.4114,-89.1114 248.9372,-91.6439"/>
</g>
<!-- Node6 -->
<g id="node7" class="node">
<title>Node6</title>
<g id="a_node7"><a xlink:href="drake__assert_8h.html" target="_top" xlink:title="Provides Drake&#39;s assertion implementation.">
<polygon fill="#ffffff" stroke="#000000" points="345.5,-56.5 345.5,-86.5 466.5,-86.5 466.5,-56.5 345.5,-56.5"/>
<text text-anchor="start" x="353.5" y="-74.5" font-family="Helvetica,sans-Serif" font-size="10.00" fill="#000000">drake/common/drake</text>
<text text-anchor="middle" x="406" y="-63.5" font-family="Helvetica,sans-Serif" font-size="10.00" fill="#000000">_assert.h</text>
</a>
</g>
</g>
<!-- Node3&#45;&gt;Node6 -->
<g id="edge7" class="edge">
<title>Node3&#45;&gt;Node6</title>
<path fill="none" stroke="#191970" d="M267.1711,-123.4639C293.4496,-113.6278 327.979,-100.7034 356.0272,-90.2049"/>
<polygon fill="#191970" stroke="#191970" points="357.5152,-93.3852 365.6537,-86.6017 355.0613,-86.8293 357.5152,-93.3852"/>
</g>
<!-- Node8 -->
<g id="node9" class="node">
<title>Node8</title>
<g id="a_node9"><a xlink:href="drake__copyable_8h.html" target="_top" xlink:title="Provides careful macros to selectively enable or disable the special member functions for copy&#45;constr...">
<polygon fill="#ffffff" stroke="#000000" points="484.5,-56.5 484.5,-86.5 605.5,-86.5 605.5,-56.5 484.5,-56.5"/>
<text text-anchor="start" x="492.5" y="-74.5" font-family="Helvetica,sans-Serif" font-size="10.00" fill="#000000">drake/common/drake</text>
<text text-anchor="middle" x="545" y="-63.5" font-family="Helvetica,sans-Serif" font-size="10.00" fill="#000000">_copyable.h</text>
</a>
</g>
</g>
<!-- Node3&#45;&gt;Node8 -->
<g id="edge9" class="edge">
<title>Node3&#45;&gt;Node8</title>
<path fill="none" stroke="#191970" d="M287.1854,-126.3506C335.3866,-116.5521 405.0004,-102.2484 474.6107,-87.283"/>
<polygon fill="#191970" stroke="#191970" points="475.3922,-90.695 484.4308,-85.1673 473.9179,-83.852 475.3922,-90.695"/>
</g>
<!-- Node7 -->
<g id="node8" class="node">
<title>Node7</title>
<g id="a_node8"><a xlink:title=" ">
<polygon fill="#ffffff" stroke="#bfbfbf" points="371.5,-.5 371.5,-19.5 440.5,-19.5 440.5,-.5 371.5,-.5"/>
<text text-anchor="middle" x="406" y="-7.5" font-family="Helvetica,sans-Serif" font-size="10.00" fill="#000000">type_traits</text>
</a>
</g>
</g>
<!-- Node6&#45;&gt;Node7 -->
<g id="edge8" class="edge">
<title>Node6&#45;&gt;Node7</title>
<path fill="none" stroke="#191970" d="M406,-56.2977C406,-48.3834 406,-38.6043 406,-30.0759"/>
<polygon fill="#191970" stroke="#191970" points="409.5001,-29.8469 406,-19.8469 402.5001,-29.847 409.5001,-29.8469"/>
</g>
</g>
</svg>
