<?xml version="1.0" encoding="UTF-8" standalone="no"?>
<!DOCTYPE svg PUBLIC "-//W3C//DTD SVG 1.1//EN"
 "http://www.w3.org/Graphics/SVG/1.1/DTD/svg11.dtd">
<!-- Generated by graphviz version 2.40.1 (20161225.0304)
 -->
<!-- Title: drake/geometry/geometry_index.h Pages: 1 -->
<svg width="1217pt" height="363pt"
 viewBox="0.00 0.00 1217.00 363.00" xmlns="http://www.w3.org/2000/svg" xmlns:xlink="http://www.w3.org/1999/xlink">
<g id="graph0" class="graph" transform="scale(1 1) rotate(0) translate(4 359)">
<title>drake/geometry/geometry_index.h</title>
<polygon fill="#ffffff" stroke="transparent" points="-4,4 -4,-359 1213,-359 1213,4 -4,4"/>
<!-- Node0 -->
<g id="node1" class="node">
<title>Node0</title>
<g id="a_node1"><a xlink:title=" ">
<polygon fill="#bfbfbf" stroke="#000000" points="478,-324.5 478,-354.5 623,-354.5 623,-324.5 478,-324.5"/>
<text text-anchor="start" x="486" y="-342.5" font-family="Helvetica,sans-Serif" font-size="10.00" fill="#000000">drake/geometry/geometry</text>
<text text-anchor="middle" x="550.5" y="-331.5" font-family="Helvetica,sans-Serif" font-size="10.00" fill="#000000">_index.h</text>
</a>
</g>
</g>
<!-- Node1 -->
<g id="node2" class="node">
<title>Node1</title>
<g id="a_node2"><a xlink:href="type__safe__index_8h.html" target="_top" xlink:title=" ">
<polygon fill="#ffffff" stroke="#000000" points="480,-257.5 480,-287.5 621,-287.5 621,-257.5 480,-257.5"/>
<text text-anchor="start" x="488" y="-275.5" font-family="Helvetica,sans-Serif" font-size="10.00" fill="#000000">drake/common/type_safe</text>
<text text-anchor="middle" x="550.5" y="-264.5" font-family="Helvetica,sans-Serif" font-size="10.00" fill="#000000">_index.h</text>
</a>
</g>
</g>
<!-- Node0&#45;&gt;Node1 -->
<g id="edge1" class="edge">
<title>Node0&#45;&gt;Node1</title>
<path fill="none" stroke="#191970" d="M550.5,-324.2967C550.5,-316.5013 550.5,-306.7991 550.5,-297.9064"/>
<polygon fill="#191970" stroke="#191970" points="554.0001,-297.6431 550.5,-287.6432 547.0001,-297.6432 554.0001,-297.6431"/>
</g>
<!-- Node2 -->
<g id="node3" class="node">
<title>Node2</title>
<g id="a_node3"><a xlink:title=" ">
<polygon fill="#ffffff" stroke="#bfbfbf" points="457,-129 457,-148 522,-148 522,-129 457,-129"/>
<text text-anchor="middle" x="489.5" y="-136" font-family="Helvetica,sans-Serif" font-size="10.00" fill="#000000">functional</text>
</a>
</g>
</g>
<!-- Node1&#45;&gt;Node2 -->
<g id="edge2" class="edge">
<title>Node1&#45;&gt;Node2</title>
<path fill="none" stroke="#191970" d="M543.6211,-257.389C532.4533,-232.8564 510.3988,-184.4088 498.1728,-157.5517"/>
<polygon fill="#191970" stroke="#191970" points="501.2007,-155.7554 493.872,-148.1042 494.8298,-158.6556 501.2007,-155.7554"/>
</g>
<!-- Node3 -->
<g id="node4" class="node">
<title>Node3</title>
<g id="a_node4"><a xlink:title=" ">
<polygon fill="#ffffff" stroke="#bfbfbf" points="783.5,-196 783.5,-215 827.5,-215 827.5,-196 783.5,-196"/>
<text text-anchor="middle" x="805.5" y="-203" font-family="Helvetica,sans-Serif" font-size="10.00" fill="#000000">limits</text>
</a>
</g>
</g>
<!-- Node1&#45;&gt;Node3 -->
<g id="edge3" class="edge">
<title>Node1&#45;&gt;Node3</title>
<path fill="none" stroke="#191970" d="M621.398,-259.1243C664.704,-250.1449 720.9116,-237.0351 769.5,-221 771.3901,-220.3762 773.3183,-219.6926 775.2511,-218.9711"/>
<polygon fill="#191970" stroke="#191970" points="776.8175,-222.1141 784.7999,-215.1475 774.2154,-215.6157 776.8175,-222.1141"/>
</g>
<!-- Node4 -->
<g id="node5" class="node">
<title>Node4</title>
<g id="a_node5"><a xlink:title=" ">
<polygon fill="#ffffff" stroke="#bfbfbf" points="394.5,-129 394.5,-148 438.5,-148 438.5,-129 394.5,-129"/>
<text text-anchor="middle" x="416.5" y="-136" font-family="Helvetica,sans-Serif" font-size="10.00" fill="#000000">string</text>
</a>
</g>
</g>
<!-- Node1&#45;&gt;Node4 -->
<g id="edge4" class="edge">
<title>Node1&#45;&gt;Node4</title>
<path fill="none" stroke="#191970" d="M535.389,-257.389C510.2051,-232.2051 459.8195,-181.8195 433.4592,-155.4592"/>
<polygon fill="#191970" stroke="#191970" points="435.6501,-152.7004 426.1042,-148.1042 430.7004,-157.6501 435.6501,-152.7004"/>
</g>
<!-- Node5 -->
<g id="node6" class="node">
<title>Node5</title>
<g id="a_node6"><a xlink:href="drake__assert_8h.html" target="_top" xlink:title="Provides Drake&#39;s assertion implementation.">
<polygon fill="#ffffff" stroke="#000000" points="655,-56.5 655,-86.5 776,-86.5 776,-56.5 655,-56.5"/>
<text text-anchor="start" x="663" y="-74.5" font-family="Helvetica,sans-Serif" font-size="10.00" fill="#000000">drake/common/drake</text>
<text text-anchor="middle" x="715.5" y="-63.5" font-family="Helvetica,sans-Serif" font-size="10.00" fill="#000000">_assert.h</text>
</a>
</g>
</g>
<!-- Node1&#45;&gt;Node5 -->
<g id="edge5" class="edge">
<title>Node1&#45;&gt;Node5</title>
<path fill="none" stroke="#191970" d="M556.6354,-257.3627C563.9977,-240.1489 577.3871,-211.6317 593.5,-190 621.6335,-152.2304 662.0689,-115.5251 688.5558,-93.2195"/>
<polygon fill="#191970" stroke="#191970" points="690.8523,-95.8618 696.299,-86.7741 686.374,-90.4817 690.8523,-95.8618"/>
</g>
<!-- Node7 -->
<g id="node8" class="node">
<title>Node7</title>
<g id="a_node8"><a xlink:href="drake__throw_8h.html" target="_top" xlink:title="Provides a convenient wrapper to throw an exception when a condition is unmet.">
<polygon fill="#ffffff" stroke="#000000" points="1088,-123.5 1088,-153.5 1209,-153.5 1209,-123.5 1088,-123.5"/>
<text text-anchor="start" x="1096" y="-141.5" font-family="Helvetica,sans-Serif" font-size="10.00" fill="#000000">drake/common/drake</text>
<text text-anchor="middle" x="1148.5" y="-130.5" font-family="Helvetica,sans-Serif" font-size="10.00" fill="#000000">_throw.h</text>
</a>
</g>
</g>
<!-- Node1&#45;&gt;Node7 -->
<g id="edge7" class="edge">
<title>Node1&#45;&gt;Node7</title>
<path fill="none" stroke="#191970" d="M621.0761,-260.1751C656.9638,-252.145 700.4864,-239.6213 736.5,-221 755.8609,-210.9892 754.4338,-198.5095 774.5,-190 896.8219,-138.1268 942.2229,-174.9184 1077.9368,-153.9284"/>
<polygon fill="#191970" stroke="#191970" points="1078.5572,-157.3736 1087.8665,-152.3152 1077.4347,-150.4642 1078.5572,-157.3736"/>
</g>
<!-- Node8 -->
<g id="node9" class="node">
<title>Node8</title>
<g id="a_node9"><a xlink:href="hash_8h.html" target="_top" xlink:title=" ">
<polygon fill="#ffffff" stroke="#000000" points="602,-196 602,-215 727,-215 727,-196 602,-196"/>
<text text-anchor="middle" x="664.5" y="-203" font-family="Helvetica,sans-Serif" font-size="10.00" fill="#000000">drake/common/hash.h</text>
</a>
</g>
</g>
<!-- Node1&#45;&gt;Node8 -->
<g id="edge10" class="edge">
<title>Node1&#45;&gt;Node8</title>
<path fill="none" stroke="#191970" d="M576.0838,-257.4639C594.9531,-246.3741 620.5021,-231.3584 639.2839,-220.32"/>
<polygon fill="#191970" stroke="#191970" points="641.3111,-223.1883 648.159,-215.1039 637.7643,-217.1534 641.3111,-223.1883"/>
</g>
<!-- Node17 -->
<g id="node18" class="node">
<title>Node17</title>
<g id="a_node18"><a xlink:href="nice__type__name_8h.html" target="_top" xlink:title=" ">
<polygon fill="#ffffff" stroke="#000000" points="230.5,-190.5 230.5,-220.5 370.5,-220.5 370.5,-190.5 230.5,-190.5"/>
<text text-anchor="start" x="238.5" y="-208.5" font-family="Helvetica,sans-Serif" font-size="10.00" fill="#000000">drake/common/nice_type</text>
<text text-anchor="middle" x="300.5" y="-197.5" font-family="Helvetica,sans-Serif" font-size="10.00" fill="#000000">_name.h</text>
</a>
</g>
</g>
<!-- Node1&#45;&gt;Node17 -->
<g id="edge24" class="edge">
<title>Node1&#45;&gt;Node17</title>
<path fill="none" stroke="#191970" d="M494.3951,-257.4639C456.5715,-247.3272 406.5088,-233.9104 366.7281,-223.2491"/>
<polygon fill="#191970" stroke="#191970" points="367.4148,-219.8097 356.8496,-220.6017 365.6027,-226.5711 367.4148,-219.8097"/>
</g>
<!-- Node6 -->
<g id="node7" class="node">
<title>Node6</title>
<g id="a_node7"><a xlink:title=" ">
<polygon fill="#ffffff" stroke="#bfbfbf" points="636,-.5 636,-19.5 705,-19.5 705,-.5 636,-.5"/>
<text text-anchor="middle" x="670.5" y="-7.5" font-family="Helvetica,sans-Serif" font-size="10.00" fill="#000000">type_traits</text>
</a>
</g>
</g>
<!-- Node5&#45;&gt;Node6 -->
<g id="edge6" class="edge">
<title>Node5&#45;&gt;Node6</title>
<path fill="none" stroke="#191970" d="M704.3764,-56.2977C698.1299,-47.7609 690.296,-37.0545 683.7353,-28.0883"/>
<polygon fill="#191970" stroke="#191970" points="686.4348,-25.8505 677.7051,-19.8469 680.7856,-29.984 686.4348,-25.8505"/>
</g>
<!-- Node7&#45;&gt;Node5 -->
<g id="edge9" class="edge">
<title>Node7&#45;&gt;Node5</title>
<path fill="none" stroke="#191970" d="M1087.8514,-124.7711C1084.6932,-124.15 1081.5618,-123.5553 1078.5,-123 977.4099,-104.665 859.4907,-88.9776 786.1504,-79.8879"/>
<polygon fill="#191970" stroke="#191970" points="786.4572,-76.3993 776.1041,-78.6495 785.6007,-83.3467 786.4572,-76.3993"/>
</g>
<!-- Node7&#45;&gt;Node6 -->
<g id="edge8" class="edge">
<title>Node7&#45;&gt;Node6</title>
<path fill="none" stroke="#191970" d="M1092.2617,-123.3816C996.238,-97.5676 802.5833,-45.5078 715.1429,-22.0013"/>
<polygon fill="#191970" stroke="#191970" points="715.8346,-18.563 705.2688,-19.3468 714.0172,-25.323 715.8346,-18.563"/>
</g>
<!-- Node8&#45;&gt;Node2 -->
<g id="edge13" class="edge">
<title>Node8&#45;&gt;Node2</title>
<path fill="none" stroke="#191970" d="M639.4268,-195.9005C609.1482,-184.3082 558.0597,-164.7486 524.0595,-151.7313"/>
<polygon fill="#191970" stroke="#191970" points="525.1171,-148.3886 514.5267,-148.0817 522.6142,-154.9258 525.1171,-148.3886"/>
</g>
<!-- Node8&#45;&gt;Node4 -->
<g id="edge18" class="edge">
<title>Node8&#45;&gt;Node4</title>
<path fill="none" stroke="#191970" d="M608.6234,-195.9208C564.1769,-187.4291 500.8182,-173.3619 447.5,-154 446.086,-153.4865 444.6526,-152.9255 443.217,-152.3312"/>
<polygon fill="#191970" stroke="#191970" points="444.4447,-149.0442 433.8942,-148.0752 441.5376,-155.4121 444.4447,-149.0442"/>
</g>
<!-- Node8&#45;&gt;Node5 -->
<g id="edge22" class="edge">
<title>Node8&#45;&gt;Node5</title>
<path fill="none" stroke="#191970" d="M665.9106,-195.5455C668.371,-179.7287 674.1942,-148.0829 684.5,-123 688.4028,-113.501 693.8858,-103.6951 699.1575,-95.2217"/>
<polygon fill="#191970" stroke="#191970" points="702.2229,-96.9266 704.71,-86.6279 696.3433,-93.1278 702.2229,-96.9266"/>
</g>
<!-- Node8&#45;&gt;Node6 -->
<g id="edge19" class="edge">
<title>Node8&#45;&gt;Node6</title>
<path fill="none" stroke="#191970" d="M661.0017,-195.9122C652.7709,-171.9761 633.8003,-107.7961 646.5,-56 648.8743,-46.3164 653.6821,-36.4071 658.3753,-28.2776"/>
<polygon fill="#191970" stroke="#191970" points="661.4119,-30.0214 663.6792,-19.672 655.4528,-26.3486 661.4119,-30.0214"/>
</g>
<!-- Node8&#45;&gt;Node7 -->
<g id="edge23" class="edge">
<title>Node8&#45;&gt;Node7</title>
<path fill="none" stroke="#191970" d="M708.3521,-195.9453C719.1548,-193.7928 730.7177,-191.6575 741.5,-190 887.1824,-167.6047 928.1001,-177.8544 1077.8502,-153.9807"/>
<polygon fill="#191970" stroke="#191970" points="1078.5615,-157.4113 1087.8737,-152.3582 1077.4429,-150.5012 1078.5615,-157.4113"/>
</g>
<!-- Node9 -->
<g id="node10" class="node">
<title>Node9</title>
<g id="a_node10"><a xlink:title=" ">
<polygon fill="#ffffff" stroke="#bfbfbf" points="693,-129 693,-148 740,-148 740,-129 693,-129"/>
<text text-anchor="middle" x="716.5" y="-136" font-family="Helvetica,sans-Serif" font-size="10.00" fill="#000000">cmath</text>
</a>
</g>
</g>
<!-- Node8&#45;&gt;Node9 -->
<g id="edge11" class="edge">
<title>Node8&#45;&gt;Node9</title>
<path fill="none" stroke="#191970" d="M671.9503,-195.9005C679.9821,-185.552 692.9415,-168.8542 702.8174,-156.1295"/>
<polygon fill="#191970" stroke="#191970" points="705.6972,-158.1275 709.0635,-148.0817 700.1672,-153.8356 705.6972,-158.1275"/>
</g>
<!-- Node10 -->
<g id="node11" class="node">
<title>Node10</title>
<g id="a_node11"><a xlink:title=" ">
<polygon fill="#ffffff" stroke="#bfbfbf" points="758,-129 758,-148 811,-148 811,-129 758,-129"/>
<text text-anchor="middle" x="784.5" y="-136" font-family="Helvetica,sans-Serif" font-size="10.00" fill="#000000">cstddef</text>
</a>
</g>
</g>
<!-- Node8&#45;&gt;Node10 -->
<g id="edge12" class="edge">
<title>Node8&#45;&gt;Node10</title>
<path fill="none" stroke="#191970" d="M681.6931,-195.9005C701.7427,-184.7062 735.0988,-166.0823 758.3602,-153.0947"/>
<polygon fill="#191970" stroke="#191970" points="760.3138,-156.0126 767.3388,-148.0817 756.9013,-149.9007 760.3138,-156.0126"/>
</g>
<!-- Node11 -->
<g id="node12" class="node">
<title>Node11</title>
<g id="a_node12"><a xlink:title=" ">
<polygon fill="#ffffff" stroke="#bfbfbf" points="829.5,-129 829.5,-148 889.5,-148 889.5,-129 829.5,-129"/>
<text text-anchor="middle" x="859.5" y="-136" font-family="Helvetica,sans-Serif" font-size="10.00" fill="#000000">iostream</text>
</a>
</g>
</g>
<!-- Node8&#45;&gt;Node11 -->
<g id="edge14" class="edge">
<title>Node8&#45;&gt;Node11</title>
<path fill="none" stroke="#191970" d="M695.1746,-195.967C726.7676,-186.01 777.3428,-169.6841 820.5,-154 822.4003,-153.3094 824.3468,-152.5864 826.3073,-151.8461"/>
<polygon fill="#191970" stroke="#191970" points="828.0099,-154.9405 836.0759,-148.071 825.4865,-148.4111 828.0099,-154.9405"/>
</g>
<!-- Node12 -->
<g id="node13" class="node">
<title>Node12</title>
<g id="a_node13"><a xlink:title=" ">
<polygon fill="#ffffff" stroke="#bfbfbf" points="907.5,-129 907.5,-148 945.5,-148 945.5,-129 907.5,-129"/>
<text text-anchor="middle" x="926.5" y="-136" font-family="Helvetica,sans-Serif" font-size="10.00" fill="#000000">map</text>
</a>
</g>
</g>
<!-- Node8&#45;&gt;Node12 -->
<g id="edge15" class="edge">
<title>Node8&#45;&gt;Node12</title>
<path fill="none" stroke="#191970" d="M711.3433,-195.9467C774.519,-182.9463 881.1587,-160.5492 898.5,-154 899.6988,-153.5473 900.9088,-153.0503 902.1183,-152.5208"/>
<polygon fill="#191970" stroke="#191970" points="903.7863,-155.6003 911.1852,-148.0169 900.6722,-149.3311 903.7863,-155.6003"/>
</g>
<!-- Node13 -->
<g id="node14" class="node">
<title>Node13</title>
<g id="a_node14"><a xlink:title=" ">
<polygon fill="#ffffff" stroke="#bfbfbf" points="963.5,-129 963.5,-148 1019.5,-148 1019.5,-129 963.5,-129"/>
<text text-anchor="middle" x="991.5" y="-136" font-family="Helvetica,sans-Serif" font-size="10.00" fill="#000000">optional</text>
</a>
</g>
</g>
<!-- Node8&#45;&gt;Node13 -->
<g id="edge16" class="edge">
<title>Node8&#45;&gt;Node13</title>
<path fill="none" stroke="#191970" d="M710.8729,-195.9216C720.9579,-193.9067 731.5778,-191.8367 741.5,-190 835.9055,-172.5246 862.2849,-180.7237 954.5,-154 956.8141,-153.3294 959.1784,-152.557 961.5371,-151.7225"/>
<polygon fill="#191970" stroke="#191970" points="962.9915,-154.9129 971.0587,-148.0448 960.4693,-148.383 962.9915,-154.9129"/>
</g>
<!-- Node14 -->
<g id="node15" class="node">
<title>Node14</title>
<g id="a_node15"><a xlink:title=" ">
<polygon fill="#ffffff" stroke="#bfbfbf" points="1037.5,-129 1037.5,-148 1069.5,-148 1069.5,-129 1037.5,-129"/>
<text text-anchor="middle" x="1053.5" y="-136" font-family="Helvetica,sans-Serif" font-size="10.00" fill="#000000">set</text>
</a>
</g>
</g>
<!-- Node8&#45;&gt;Node14 -->
<g id="edge17" class="edge">
<title>Node8&#45;&gt;Node14</title>
<path fill="none" stroke="#191970" d="M709.1859,-195.9238C719.7537,-193.8204 731.0025,-191.7125 741.5,-190 868.3778,-169.3013 907.2993,-196.8581 1028.5,-154 1029.3847,-153.6872 1030.2712,-153.3394 1031.1546,-152.9633"/>
<polygon fill="#191970" stroke="#191970" points="1033.0702,-155.9102 1040.2855,-148.152 1029.807,-149.7173 1033.0702,-155.9102"/>
</g>
<!-- Node15 -->
<g id="node16" class="node">
<title>Node15</title>
<g id="a_node16"><a xlink:title=" ">
<polygon fill="#ffffff" stroke="#bfbfbf" points="278,-62 278,-81 323,-81 323,-62 278,-62"/>
<text text-anchor="middle" x="300.5" y="-69" font-family="Helvetica,sans-Serif" font-size="10.00" fill="#000000">utility</text>
</a>
</g>
</g>
<!-- Node8&#45;&gt;Node15 -->
<g id="edge20" class="edge">
<title>Node8&#45;&gt;Node15</title>
<path fill="none" stroke="#191970" d="M652.0697,-195.7647C629.4104,-178.4982 579.3029,-142.498 531.5,-123 463.9077,-95.4302 378.8777,-81.3232 333.1669,-75.2711"/>
<polygon fill="#191970" stroke="#191970" points="333.5906,-71.7969 323.2276,-74.0009 332.7032,-78.7404 333.5906,-71.7969"/>
</g>
<!-- Node16 -->
<g id="node17" class="node">
<title>Node16</title>
<g id="a_node17"><a xlink:title=" ">
<polygon fill="#ffffff" stroke="#bfbfbf" points="329,-129 329,-148 376,-148 376,-129 329,-129"/>
<text text-anchor="middle" x="352.5" y="-136" font-family="Helvetica,sans-Serif" font-size="10.00" fill="#000000">vector</text>
</a>
</g>
</g>
<!-- Node8&#45;&gt;Node16 -->
<g id="edge21" class="edge">
<title>Node8&#45;&gt;Node16</title>
<path fill="none" stroke="#191970" d="M601.8714,-198.6086C544.5739,-191.214 457.9536,-177.2747 385.5,-154 383.6469,-153.4047 381.7628,-152.7288 379.882,-152.0002"/>
<polygon fill="#191970" stroke="#191970" points="381.233,-148.7714 370.6629,-148.0478 378.4747,-155.2051 381.233,-148.7714"/>
</g>
<!-- Node17&#45;&gt;Node4 -->
<g id="edge26" class="edge">
<title>Node17&#45;&gt;Node4</title>
<path fill="none" stroke="#191970" d="M326.5327,-190.4639C345.8206,-179.3234 371.9678,-164.2212 391.1028,-153.1691"/>
<polygon fill="#191970" stroke="#191970" points="392.9635,-156.1363 399.8723,-148.1039 389.4624,-150.0747 392.9635,-156.1363"/>
</g>
<!-- Node17&#45;&gt;Node15 -->
<g id="edge28" class="edge">
<title>Node17&#45;&gt;Node15</title>
<path fill="none" stroke="#191970" d="M300.5,-190.389C300.5,-166.0735 300.5,-118.2644 300.5,-91.2698"/>
<polygon fill="#191970" stroke="#191970" points="304.0001,-91.1041 300.5,-81.1042 297.0001,-91.1042 304.0001,-91.1041"/>
</g>
<!-- Node17&#45;&gt;Node16 -->
<g id="edge29" class="edge">
<title>Node17&#45;&gt;Node16</title>
<path fill="none" stroke="#191970" d="M312.2996,-190.2967C320.1655,-180.1618 330.5327,-166.804 338.7688,-156.1921"/>
<polygon fill="#191970" stroke="#191970" points="341.7179,-158.1008 345.0842,-148.055 336.188,-153.8089 341.7179,-158.1008"/>
</g>
<!-- Node18 -->
<g id="node19" class="node">
<title>Node18</title>
<g id="a_node19"><a xlink:title=" ">
<polygon fill="#ffffff" stroke="#bfbfbf" points="214.5,-129 214.5,-148 272.5,-148 272.5,-129 214.5,-129"/>
<text text-anchor="middle" x="243.5" y="-136" font-family="Helvetica,sans-Serif" font-size="10.00" fill="#000000">memory</text>
</a>
</g>
</g>
<!-- Node17&#45;&gt;Node18 -->
<g id="edge25" class="edge">
<title>Node17&#45;&gt;Node18</title>
<path fill="none" stroke="#191970" d="M287.5658,-190.2967C278.8574,-180.0605 267.352,-166.5366 258.2814,-155.8746"/>
<polygon fill="#191970" stroke="#191970" points="260.7745,-153.4036 251.6289,-148.055 255.4429,-157.9395 260.7745,-153.4036"/>
</g>
<!-- Node19 -->
<g id="node20" class="node">
<title>Node19</title>
<g id="a_node20"><a xlink:title=" ">
<polygon fill="#ffffff" stroke="#bfbfbf" points="0,-129 0,-148 57,-148 57,-129 0,-129"/>
<text text-anchor="middle" x="28.5" y="-136" font-family="Helvetica,sans-Serif" font-size="10.00" fill="#000000">typeinfo</text>
</a>
</g>
</g>
<!-- Node17&#45;&gt;Node19 -->
<g id="edge27" class="edge">
<title>Node17&#45;&gt;Node19</title>
<path fill="none" stroke="#191970" d="M230.4805,-193.5947C183.293,-184.7366 119.959,-171.2182 65.5,-154 63.3418,-153.3177 61.1353,-152.5588 58.9275,-151.7537"/>
<polygon fill="#191970" stroke="#191970" points="59.9736,-148.4048 49.3856,-148.0234 57.4248,-154.9243 59.9736,-148.4048"/>
</g>
<!-- Node20 -->
<g id="node21" class="node">
<title>Node20</title>
<g id="a_node21"><a xlink:href="never__destroyed_8h.html" target="_top" xlink:title=" ">
<polygon fill="#ffffff" stroke="#000000" points="75,-123.5 75,-153.5 196,-153.5 196,-123.5 75,-123.5"/>
<text text-anchor="start" x="83" y="-141.5" font-family="Helvetica,sans-Serif" font-size="10.00" fill="#000000">drake/common/never</text>
<text text-anchor="middle" x="135.5" y="-130.5" font-family="Helvetica,sans-Serif" font-size="10.00" fill="#000000">_destroyed.h</text>
</a>
</g>
</g>
<!-- Node17&#45;&gt;Node20 -->
<g id="edge30" class="edge">
<title>Node17&#45;&gt;Node20</title>
<path fill="none" stroke="#191970" d="M263.4708,-190.4639C239.4592,-180.7137 207.9742,-167.9289 182.2431,-157.4805"/>
<polygon fill="#191970" stroke="#191970" points="183.2728,-154.1212 172.6907,-153.6017 180.6392,-160.6069 183.2728,-154.1212"/>
</g>
<!-- Node20&#45;&gt;Node6 -->
<g id="edge32" class="edge">
<title>Node20&#45;&gt;Node6</title>
<path fill="none" stroke="#191970" d="M157.0769,-123.4851C188.4047,-101.9724 245.273,-64.0747 268.5,-56 333.6014,-33.368 535.0986,-18.4042 625.6389,-12.6505"/>
<polygon fill="#191970" stroke="#191970" points="626.0946,-16.1289 635.8562,-12.0105 625.6569,-9.1426 626.0946,-16.1289"/>
</g>
<!-- Node20&#45;&gt;Node15 -->
<g id="edge33" class="edge">
<title>Node20&#45;&gt;Node15</title>
<path fill="none" stroke="#191970" d="M172.5292,-123.4639C201.3008,-111.7809 240.8025,-95.7408 268.2781,-84.584"/>
<polygon fill="#191970" stroke="#191970" points="269.8659,-87.7169 277.8144,-80.7117 267.2323,-81.2312 269.8659,-87.7169"/>
</g>
<!-- Node21 -->
<g id="node22" class="node">
<title>Node21</title>
<g id="a_node22"><a xlink:title=" ">
<polygon fill="#ffffff" stroke="#bfbfbf" points="27,-62 27,-81 64,-81 64,-62 27,-62"/>
<text text-anchor="middle" x="45.5" y="-69" font-family="Helvetica,sans-Serif" font-size="10.00" fill="#000000">new</text>
</a>
</g>
</g>
<!-- Node20&#45;&gt;Node21 -->
<g id="edge31" class="edge">
<title>Node20&#45;&gt;Node21</title>
<path fill="none" stroke="#191970" d="M115.0776,-123.2967C100.6468,-112.5537 81.3516,-98.1895 66.7412,-87.3129"/>
<polygon fill="#191970" stroke="#191970" points="68.4464,-84.219 58.335,-81.055 64.2664,-89.8339 68.4464,-84.219"/>
</g>
<!-- Node22 -->
<g id="node23" class="node">
<title>Node22</title>
<g id="a_node23"><a xlink:href="drake__copyable_8h.html" target="_top" xlink:title="Provides careful macros to selectively enable or disable the special member functions for copy&#45;constr...">
<polygon fill="#ffffff" stroke="#000000" points="82,-56.5 82,-86.5 203,-86.5 203,-56.5 82,-56.5"/>
<text text-anchor="start" x="90" y="-74.5" font-family="Helvetica,sans-Serif" font-size="10.00" fill="#000000">drake/common/drake</text>
<text text-anchor="middle" x="142.5" y="-63.5" font-family="Helvetica,sans-Serif" font-size="10.00" fill="#000000">_copyable.h</text>
</a>
</g>
</g>
<!-- Node20&#45;&gt;Node22 -->
<g id="edge34" class="edge">
<title>Node20&#45;&gt;Node22</title>
<path fill="none" stroke="#191970" d="M137.0884,-123.2967C137.9118,-115.4156 138.9388,-105.5857 139.8762,-96.6135"/>
<polygon fill="#191970" stroke="#191970" points="143.3597,-96.9528 140.9179,-86.6432 136.3976,-96.2253 143.3597,-96.9528"/>
</g>
</g>
</svg>
