<?xml version="1.0" encoding="UTF-8" standalone="no"?>
<!DOCTYPE svg PUBLIC "-//W3C//DTD SVG 1.1//EN"
 "http://www.w3.org/Graphics/SVG/1.1/DTD/svg11.dtd">
<!-- Generated by graphviz version 2.40.1 (20161225.0304)
 -->
<!-- Title: drake/geometry/geometry_properties.h Pages: 1 -->
<svg width="1766pt" height="352pt"
 viewBox="0.00 0.00 1765.85 352.00" xmlns="http://www.w3.org/2000/svg" xmlns:xlink="http://www.w3.org/1999/xlink">
<g id="graph0" class="graph" transform="scale(1 1) rotate(0) translate(4 348)">
<title>drake/geometry/geometry_properties.h</title>
<polygon fill="#ffffff" stroke="transparent" points="-4,4 -4,-348 1761.8478,-348 1761.8478,4 -4,4"/>
<!-- Node0 -->
<g id="node1" class="node">
<title>Node0</title>
<g id="a_node1"><a xlink:title=" ">
<polygon fill="#bfbfbf" stroke="#000000" points="1167.8478,-313.5 1167.8478,-343.5 1312.8478,-343.5 1312.8478,-313.5 1167.8478,-313.5"/>
<text text-anchor="start" x="1175.8478" y="-331.5" font-family="Helvetica,sans-Serif" font-size="10.00" fill="#000000">drake/geometry/geometry</text>
<text text-anchor="middle" x="1240.3478" y="-320.5" font-family="Helvetica,sans-Serif" font-size="10.00" fill="#000000">_properties.h</text>
</a>
</g>
</g>
<!-- Node1 -->
<g id="node2" class="node">
<title>Node1</title>
<g id="a_node2"><a xlink:title=" ">
<polygon fill="#ffffff" stroke="#bfbfbf" points="111.3478,-129 111.3478,-148 169.3478,-148 169.3478,-129 111.3478,-129"/>
<text text-anchor="middle" x="140.3478" y="-136" font-family="Helvetica,sans-Serif" font-size="10.00" fill="#000000">memory</text>
</a>
</g>
</g>
<!-- Node0&#45;&gt;Node1 -->
<g id="edge1" class="edge">
<title>Node0&#45;&gt;Node1</title>
<path fill="none" stroke="#191970" d="M1167.7557,-326.6728C967.5017,-320.6903 411.2777,-297.4524 247.3478,-221 228.815,-212.3568 229.2892,-202.808 213.3478,-190 197.2272,-177.048 178.0972,-163.6179 163.4652,-153.721"/>
<polygon fill="#191970" stroke="#191970" points="165.259,-150.7098 155.0031,-148.0512 161.3625,-156.5252 165.259,-150.7098"/>
</g>
<!-- Node2 -->
<g id="node3" class="node">
<title>Node2</title>
<g id="a_node3"><a xlink:title=" ">
<polygon fill="#ffffff" stroke="#bfbfbf" points="23.3478,-129 23.3478,-148 55.3478,-148 55.3478,-129 23.3478,-129"/>
<text text-anchor="middle" x="39.3478" y="-136" font-family="Helvetica,sans-Serif" font-size="10.00" fill="#000000">set</text>
</a>
</g>
</g>
<!-- Node0&#45;&gt;Node2 -->
<g id="edge2" class="edge">
<title>Node0&#45;&gt;Node2</title>
<path fill="none" stroke="#191970" d="M1167.6836,-326.6489C1018.942,-322.3124 669.1841,-309.3089 377.3478,-277 222.951,-259.9069 133.0065,-339.3149 32.3478,-221 17.563,-203.6218 23.8037,-176.0768 30.6806,-157.6537"/>
<polygon fill="#191970" stroke="#191970" points="33.984,-158.8231 34.5429,-148.243 27.5081,-156.1653 33.984,-158.8231"/>
</g>
<!-- Node3 -->
<g id="node4" class="node">
<title>Node3</title>
<g id="a_node4"><a xlink:title=" ">
<polygon fill="#ffffff" stroke="#bfbfbf" points="1089.3478,-129 1089.3478,-148 1133.3478,-148 1133.3478,-129 1089.3478,-129"/>
<text text-anchor="middle" x="1111.3478" y="-136" font-family="Helvetica,sans-Serif" font-size="10.00" fill="#000000">string</text>
</a>
</g>
</g>
<!-- Node0&#45;&gt;Node3 -->
<g id="edge3" class="edge">
<title>Node0&#45;&gt;Node3</title>
<path fill="none" stroke="#191970" d="M1230.0093,-313.2727C1206.4194,-278.5278 1148.7181,-193.5415 1123.4893,-156.3828"/>
<polygon fill="#191970" stroke="#191970" points="1126.3282,-154.3331 1117.8154,-148.0258 1120.5369,-158.2652 1126.3282,-154.3331"/>
</g>
<!-- Node4 -->
<g id="node5" class="node">
<title>Node4</title>
<g id="a_node5"><a xlink:title=" ">
<polygon fill="#ffffff" stroke="#bfbfbf" points="1464.8478,-257.5 1464.8478,-276.5 1557.8478,-276.5 1557.8478,-257.5 1464.8478,-257.5"/>
<text text-anchor="middle" x="1511.3478" y="-264.5" font-family="Helvetica,sans-Serif" font-size="10.00" fill="#000000">unordered_map</text>
</a>
</g>
</g>
<!-- Node0&#45;&gt;Node4 -->
<g id="edge4" class="edge">
<title>Node0&#45;&gt;Node4</title>
<path fill="none" stroke="#191970" d="M1306.6419,-313.4554C1353.743,-302.7664 1416.0947,-288.6165 1459.5562,-278.7535"/>
<polygon fill="#191970" stroke="#191970" points="1460.375,-282.1567 1469.3525,-276.5303 1458.8258,-275.3303 1460.375,-282.1567"/>
</g>
<!-- Node5 -->
<g id="node6" class="node">
<title>Node5</title>
<g id="a_node6"><a xlink:title=" ">
<polygon fill="#ffffff" stroke="#bfbfbf" points="1576.3478,-257.5 1576.3478,-276.5 1662.3478,-276.5 1662.3478,-257.5 1576.3478,-257.5"/>
<text text-anchor="middle" x="1619.3478" y="-264.5" font-family="Helvetica,sans-Serif" font-size="10.00" fill="#000000">fmt/ostream.h</text>
</a>
</g>
</g>
<!-- Node0&#45;&gt;Node5 -->
<g id="edge5" class="edge">
<title>Node0&#45;&gt;Node5</title>
<path fill="none" stroke="#191970" d="M1312.8726,-317.7962C1376.9464,-308.1749 1473.1732,-293.3259 1566.358,-277.1308"/>
<polygon fill="#191970" stroke="#191970" points="1566.9889,-280.5737 1576.2382,-275.4065 1565.7854,-273.6779 1566.9889,-280.5737"/>
</g>
<!-- Node6 -->
<g id="node7" class="node">
<title>Node6</title>
<g id="a_node7"><a xlink:title=" ">
<polygon fill="#ffffff" stroke="#bfbfbf" points="1680.8478,-257.5 1680.8478,-276.5 1757.8478,-276.5 1757.8478,-257.5 1680.8478,-257.5"/>
<text text-anchor="middle" x="1719.3478" y="-264.5" font-family="Helvetica,sans-Serif" font-size="10.00" fill="#000000">Eigen/Dense</text>
</a>
</g>
</g>
<!-- Node0&#45;&gt;Node6 -->
<g id="edge6" class="edge">
<title>Node0&#45;&gt;Node6</title>
<path fill="none" stroke="#191970" d="M1313.0634,-321.7484C1396.8645,-313.5313 1538.8895,-298.2692 1670.7497,-276.9761"/>
<polygon fill="#191970" stroke="#191970" points="1671.322,-280.4291 1680.6289,-275.3662 1670.1961,-273.5202 1671.322,-280.4291"/>
</g>
<!-- Node7 -->
<g id="node8" class="node">
<title>Node7</title>
<g id="a_node8"><a xlink:href="copyable__unique__ptr_8h.html" target="_top" xlink:title=" ">
<polygon fill="#ffffff" stroke="#000000" points="299.8478,-190.5 299.8478,-220.5 436.8478,-220.5 436.8478,-190.5 299.8478,-190.5"/>
<text text-anchor="start" x="307.8478" y="-208.5" font-family="Helvetica,sans-Serif" font-size="10.00" fill="#000000">drake/common/copyable</text>
<text text-anchor="middle" x="368.3478" y="-197.5" font-family="Helvetica,sans-Serif" font-size="10.00" fill="#000000">_unique_ptr.h</text>
</a>
</g>
</g>
<!-- Node0&#45;&gt;Node7 -->
<g id="edge7" class="edge">
<title>Node0&#45;&gt;Node7</title>
<path fill="none" stroke="#191970" d="M1167.6367,-321.0932C1080.1039,-311.9263 928.7189,-295.2741 799.3478,-277 675.8121,-259.5502 533.0916,-235.0061 446.8406,-219.6883"/>
<polygon fill="#191970" stroke="#191970" points="447.3244,-216.2195 436.8659,-217.9133 446.0979,-223.1112 447.3244,-216.2195"/>
</g>
<!-- Node13 -->
<g id="node14" class="node">
<title>Node13</title>
<g id="a_node14"><a xlink:href="never__destroyed_8h.html" target="_top" xlink:title=" ">
<polygon fill="#ffffff" stroke="#000000" points="1226.8478,-123.5 1226.8478,-153.5 1347.8478,-153.5 1347.8478,-123.5 1226.8478,-123.5"/>
<text text-anchor="start" x="1234.8478" y="-141.5" font-family="Helvetica,sans-Serif" font-size="10.00" fill="#000000">drake/common/never</text>
<text text-anchor="middle" x="1287.3478" y="-130.5" font-family="Helvetica,sans-Serif" font-size="10.00" fill="#000000">_destroyed.h</text>
</a>
</g>
</g>
<!-- Node0&#45;&gt;Node13 -->
<g id="edge14" class="edge">
<title>Node0&#45;&gt;Node13</title>
<path fill="none" stroke="#191970" d="M1257.6184,-313.4814C1278.1113,-294.3946 1311.1605,-259.2946 1324.3478,-221 1328.8339,-207.973 1328.5705,-203.1147 1324.3478,-190 1321.058,-179.7825 1314.9071,-169.8776 1308.5517,-161.5293"/>
<polygon fill="#191970" stroke="#191970" points="1311.2493,-159.2991 1302.2265,-153.7459 1305.8169,-163.7138 1311.2493,-159.2991"/>
</g>
<!-- Node16 -->
<g id="node17" class="node">
<title>Node16</title>
<g id="a_node17"><a xlink:href="value_8h.html" target="_top" xlink:title=" ">
<polygon fill="#ffffff" stroke="#000000" points="807.8478,-257.5 807.8478,-276.5 936.8478,-276.5 936.8478,-257.5 807.8478,-257.5"/>
<text text-anchor="middle" x="872.3478" y="-264.5" font-family="Helvetica,sans-Serif" font-size="10.00" fill="#000000">drake/common/value.h</text>
</a>
</g>
</g>
<!-- Node0&#45;&gt;Node16 -->
<g id="edge19" class="edge">
<title>Node0&#45;&gt;Node16</title>
<path fill="none" stroke="#191970" d="M1167.6429,-316.3496C1101.2341,-305.2514 1003.8433,-288.9755 939.3028,-278.1895"/>
<polygon fill="#191970" stroke="#191970" points="939.6765,-274.7035 929.2363,-276.5072 938.5226,-281.6077 939.6765,-274.7035"/>
</g>
<!-- Node28 -->
<g id="node29" class="node">
<title>Node28</title>
<g id="a_node29"><a xlink:href="rgba_8h.html" target="_top" xlink:title=" ">
<polygon fill="#ffffff" stroke="#000000" points="1318.3478,-257.5 1318.3478,-276.5 1446.3478,-276.5 1446.3478,-257.5 1318.3478,-257.5"/>
<text text-anchor="middle" x="1382.3478" y="-264.5" font-family="Helvetica,sans-Serif" font-size="10.00" fill="#000000">drake/geometry/rgba.h</text>
</a>
</g>
</g>
<!-- Node0&#45;&gt;Node28 -->
<g id="edge54" class="edge">
<title>Node0&#45;&gt;Node28</title>
<path fill="none" stroke="#191970" d="M1275.0849,-313.4554C1298.2584,-303.419 1328.477,-290.3314 1350.9321,-280.6061"/>
<polygon fill="#191970" stroke="#191970" points="1352.5575,-283.7164 1360.3429,-276.5303 1349.7755,-277.2929 1352.5575,-283.7164"/>
</g>
<!-- Node7&#45;&gt;Node1 -->
<g id="edge10" class="edge">
<title>Node7&#45;&gt;Node1</title>
<path fill="none" stroke="#191970" d="M310.1079,-190.4789C273.5133,-180.7469 225.4338,-167.4227 183.3478,-154 180.9002,-153.2194 178.3839,-152.3883 175.8555,-151.532"/>
<polygon fill="#191970" stroke="#191970" points="176.7579,-148.1402 166.1631,-148.1578 174.4564,-154.751 176.7579,-148.1402"/>
</g>
<!-- Node8 -->
<g id="node9" class="node">
<title>Node8</title>
<g id="a_node9"><a xlink:title=" ">
<polygon fill="#ffffff" stroke="#bfbfbf" points="303.8478,-129 303.8478,-148 356.8478,-148 356.8478,-129 303.8478,-129"/>
<text text-anchor="middle" x="330.3478" y="-136" font-family="Helvetica,sans-Serif" font-size="10.00" fill="#000000">cstddef</text>
</a>
</g>
</g>
<!-- Node7&#45;&gt;Node8 -->
<g id="edge8" class="edge">
<title>Node7&#45;&gt;Node8</title>
<path fill="none" stroke="#191970" d="M359.7251,-190.2967C354.0919,-180.3645 346.7032,-167.3371 340.7451,-156.8321"/>
<polygon fill="#191970" stroke="#191970" points="343.745,-155.0266 335.7671,-148.055 337.6561,-158.4801 343.745,-155.0266"/>
</g>
<!-- Node9 -->
<g id="node10" class="node">
<title>Node9</title>
<g id="a_node10"><a xlink:title=" ">
<polygon fill="#ffffff" stroke="#bfbfbf" points="225.3478,-129 225.3478,-148 285.3478,-148 285.3478,-129 225.3478,-129"/>
<text text-anchor="middle" x="255.3478" y="-136" font-family="Helvetica,sans-Serif" font-size="10.00" fill="#000000">iostream</text>
</a>
</g>
</g>
<!-- Node7&#45;&gt;Node9 -->
<g id="edge9" class="edge">
<title>Node7&#45;&gt;Node9</title>
<path fill="none" stroke="#191970" d="M342.9884,-190.4639C324.2847,-179.3741 298.9598,-164.3584 280.3428,-153.32"/>
<polygon fill="#191970" stroke="#191970" points="281.9322,-150.1935 271.5455,-148.1039 278.3621,-156.2147 281.9322,-150.1935"/>
</g>
<!-- Node10 -->
<g id="node11" class="node">
<title>Node10</title>
<g id="a_node11"><a xlink:title=" ">
<polygon fill="#ffffff" stroke="#bfbfbf" points="616.8478,-62 616.8478,-81 661.8478,-81 661.8478,-62 616.8478,-62"/>
<text text-anchor="middle" x="639.3478" y="-69" font-family="Helvetica,sans-Serif" font-size="10.00" fill="#000000">utility</text>
</a>
</g>
</g>
<!-- Node7&#45;&gt;Node10 -->
<g id="edge11" class="edge">
<title>Node7&#45;&gt;Node10</title>
<path fill="none" stroke="#191970" d="M437.0371,-192.405C470.4341,-184.2939 510.378,-171.9285 543.3478,-154 560.272,-144.7969 599.0435,-109.5027 621.7986,-88.1726"/>
<polygon fill="#191970" stroke="#191970" points="624.2399,-90.6812 629.1173,-81.2758 619.4392,-85.5868 624.2399,-90.6812"/>
</g>
<!-- Node11 -->
<g id="node12" class="node">
<title>Node11</title>
<g id="a_node12"><a xlink:href="drake__assert_8h.html" target="_top" xlink:title="Provides Drake&#39;s assertion implementation.">
<polygon fill="#ffffff" stroke="#000000" points="324.8478,-56.5 324.8478,-86.5 445.8478,-86.5 445.8478,-56.5 324.8478,-56.5"/>
<text text-anchor="start" x="332.8478" y="-74.5" font-family="Helvetica,sans-Serif" font-size="10.00" fill="#000000">drake/common/drake</text>
<text text-anchor="middle" x="385.3478" y="-63.5" font-family="Helvetica,sans-Serif" font-size="10.00" fill="#000000">_assert.h</text>
</a>
</g>
</g>
<!-- Node7&#45;&gt;Node11 -->
<g id="edge12" class="edge">
<title>Node7&#45;&gt;Node11</title>
<path fill="none" stroke="#191970" d="M299.726,-190.5102C264.4422,-181.2661 226.6981,-168.4351 216.3478,-154 208.3194,-142.8031 208.1475,-134.0716 216.3478,-123 228.533,-106.5484 273.9642,-93.2506 314.6553,-84.291"/>
<polygon fill="#191970" stroke="#191970" points="315.5556,-87.6777 324.6026,-82.1639 314.0918,-80.8325 315.5556,-87.6777"/>
</g>
<!-- Node12 -->
<g id="node13" class="node">
<title>Node12</title>
<g id="a_node13"><a xlink:title=" ">
<polygon fill="#ffffff" stroke="#bfbfbf" points="394.8478,-.5 394.8478,-19.5 463.8478,-19.5 463.8478,-.5 394.8478,-.5"/>
<text text-anchor="middle" x="429.3478" y="-7.5" font-family="Helvetica,sans-Serif" font-size="10.00" fill="#000000">type_traits</text>
</a>
</g>
</g>
<!-- Node11&#45;&gt;Node12 -->
<g id="edge13" class="edge">
<title>Node11&#45;&gt;Node12</title>
<path fill="none" stroke="#191970" d="M396.2242,-56.2977C402.3319,-47.7609 409.9918,-37.0545 416.4066,-28.0883"/>
<polygon fill="#191970" stroke="#191970" points="419.3307,-30.0163 422.3029,-19.8469 413.6377,-25.9433 419.3307,-30.0163"/>
</g>
<!-- Node13&#45;&gt;Node10 -->
<g id="edge17" class="edge">
<title>Node13&#45;&gt;Node10</title>
<path fill="none" stroke="#191970" d="M1226.4784,-124.3679C1223.7363,-123.876 1221.0166,-123.4166 1218.3478,-123 1012.0756,-90.8028 761.0828,-77.012 672.3446,-72.9047"/>
<polygon fill="#191970" stroke="#191970" points="672.251,-69.397 662.1028,-72.4407 671.9341,-76.3898 672.251,-69.397"/>
</g>
<!-- Node13&#45;&gt;Node12 -->
<g id="edge16" class="edge">
<title>Node13&#45;&gt;Node12</title>
<path fill="none" stroke="#191970" d="M1239.9885,-123.4226C1178.6664,-104.5305 1068.1641,-72.6213 971.3478,-56 788.5232,-24.6128 567.1575,-14.3099 474.035,-11.2145"/>
<polygon fill="#191970" stroke="#191970" points="473.9563,-7.7103 463.8493,-10.888 473.732,-14.7067 473.9563,-7.7103"/>
</g>
<!-- Node14 -->
<g id="node15" class="node">
<title>Node14</title>
<g id="a_node15"><a xlink:title=" ">
<polygon fill="#ffffff" stroke="#bfbfbf" points="1264.8478,-62 1264.8478,-81 1301.8478,-81 1301.8478,-62 1264.8478,-62"/>
<text text-anchor="middle" x="1283.3478" y="-69" font-family="Helvetica,sans-Serif" font-size="10.00" fill="#000000">new</text>
</a>
</g>
</g>
<!-- Node13&#45;&gt;Node14 -->
<g id="edge15" class="edge">
<title>Node13&#45;&gt;Node14</title>
<path fill="none" stroke="#191970" d="M1286.4402,-123.2967C1285.8714,-113.7699 1285.1326,-101.3954 1284.5198,-91.1306"/>
<polygon fill="#191970" stroke="#191970" points="1288.0081,-90.8286 1283.9183,-81.055 1281.0206,-91.2458 1288.0081,-90.8286"/>
</g>
<!-- Node15 -->
<g id="node16" class="node">
<title>Node15</title>
<g id="a_node16"><a xlink:href="drake__copyable_8h.html" target="_top" xlink:title="Provides careful macros to selectively enable or disable the special member functions for copy&#45;constr...">
<polygon fill="#ffffff" stroke="#000000" points="1319.8478,-56.5 1319.8478,-86.5 1440.8478,-86.5 1440.8478,-56.5 1319.8478,-56.5"/>
<text text-anchor="start" x="1327.8478" y="-74.5" font-family="Helvetica,sans-Serif" font-size="10.00" fill="#000000">drake/common/drake</text>
<text text-anchor="middle" x="1380.3478" y="-63.5" font-family="Helvetica,sans-Serif" font-size="10.00" fill="#000000">_copyable.h</text>
</a>
</g>
</g>
<!-- Node13&#45;&gt;Node15 -->
<g id="edge18" class="edge">
<title>Node13&#45;&gt;Node15</title>
<path fill="none" stroke="#191970" d="M1308.451,-123.2967C1321.0551,-114.2163 1337.2502,-102.5488 1351.0778,-92.587"/>
<polygon fill="#191970" stroke="#191970" points="1353.2604,-95.3284 1359.3282,-86.6432 1349.1686,-89.6488 1353.2604,-95.3284"/>
</g>
<!-- Node16&#45;&gt;Node1 -->
<g id="edge20" class="edge">
<title>Node16&#45;&gt;Node1</title>
<path fill="none" stroke="#191970" d="M807.7938,-266.2608C676.7045,-264.0513 383.8334,-255.3109 290.3478,-221 268.2307,-212.8826 267.5962,-202.0443 247.3478,-190 223.0708,-175.5593 194.1298,-161.8239 172.4716,-152.1754"/>
<polygon fill="#191970" stroke="#191970" points="173.6388,-148.8652 163.076,-148.0421 170.82,-155.2726 173.6388,-148.8652"/>
</g>
<!-- Node16&#45;&gt;Node3 -->
<g id="edge22" class="edge">
<title>Node16&#45;&gt;Node3</title>
<path fill="none" stroke="#191970" d="M937.1094,-260.6062C992.5593,-253.8389 1066.7648,-241.2835 1088.3478,-221 1105.4767,-204.9024 1110.2213,-177.226 1111.345,-158.4097"/>
<polygon fill="#191970" stroke="#191970" points="1114.8478,-158.3675 1111.6549,-148.2653 1107.8511,-158.1537 1114.8478,-158.3675"/>
</g>
<!-- Node16&#45;&gt;Node7 -->
<g id="edge26" class="edge">
<title>Node16&#45;&gt;Node7</title>
<path fill="none" stroke="#191970" d="M807.7474,-259.1172C715.5559,-247.8677 546.4361,-227.231 447.0512,-215.1037"/>
<polygon fill="#191970" stroke="#191970" points="447.4146,-211.6221 437.0643,-213.885 446.5667,-218.5706 447.4146,-211.6221"/>
</g>
<!-- Node16&#45;&gt;Node10 -->
<g id="edge25" class="edge">
<title>Node16&#45;&gt;Node10</title>
<path fill="none" stroke="#191970" d="M807.6357,-259.6619C754.7108,-252.4274 685.3138,-239.7207 664.3478,-221 627.65,-188.2321 631.2196,-123.5908 635.8144,-91.1069"/>
<polygon fill="#191970" stroke="#191970" points="639.2975,-91.4898 637.418,-81.063 632.385,-90.386 639.2975,-91.4898"/>
</g>
<!-- Node16&#45;&gt;Node12 -->
<g id="edge23" class="edge">
<title>Node16&#45;&gt;Node12</title>
<path fill="none" stroke="#191970" d="M807.7453,-265.5184C616.1234,-260.8545 62.3348,-245.3249 32.3478,-221 -2.0439,-193.1021 -9.3103,-160.435 14.3478,-123 54.3214,-59.7486 286.0386,-26.2778 384.7918,-14.7237"/>
<polygon fill="#191970" stroke="#191970" points="385.2267,-18.1968 394.7622,-13.579 384.4282,-11.2425 385.2267,-18.1968"/>
</g>
<!-- Node16&#45;&gt;Node15 -->
<g id="edge27" class="edge">
<title>Node16&#45;&gt;Node15</title>
<path fill="none" stroke="#191970" d="M936.965,-258.3851C991.7586,-250.5006 1072.2334,-237.5527 1141.3478,-221 1141.3478,-221 1357.3478,-154 1357.3478,-154 1372.0893,-138.8264 1377.5493,-115.0362 1379.4912,-96.8939"/>
<polygon fill="#191970" stroke="#191970" points="1382.9969,-96.956 1380.2845,-86.7142 1376.018,-96.412 1382.9969,-96.956"/>
</g>
<!-- Node17 -->
<g id="node18" class="node">
<title>Node17</title>
<g id="a_node18"><a xlink:title=" ">
<polygon fill="#ffffff" stroke="#bfbfbf" points="1249.8478,-196 1249.8478,-215 1314.8478,-215 1314.8478,-196 1249.8478,-196"/>
<text text-anchor="middle" x="1282.3478" y="-203" font-family="Helvetica,sans-Serif" font-size="10.00" fill="#000000">stdexcept</text>
</a>
</g>
</g>
<!-- Node16&#45;&gt;Node17 -->
<g id="edge21" class="edge">
<title>Node16&#45;&gt;Node17</title>
<path fill="none" stroke="#191970" d="M936.901,-258.6328C1002.5639,-249.9411 1107.2013,-235.5929 1197.3478,-221 1211.1535,-218.7651 1226.1776,-216.1022 1239.7014,-213.6195"/>
<polygon fill="#191970" stroke="#191970" points="1240.5105,-217.0292 1249.7057,-211.7661 1239.2354,-210.1463 1240.5105,-217.0292"/>
</g>
<!-- Node18 -->
<g id="node19" class="node">
<title>Node18</title>
<g id="a_node19"><a xlink:title=" ">
<polygon fill="#ffffff" stroke="#bfbfbf" points="1151.8478,-129 1151.8478,-148 1208.8478,-148 1208.8478,-129 1151.8478,-129"/>
<text text-anchor="middle" x="1180.3478" y="-136" font-family="Helvetica,sans-Serif" font-size="10.00" fill="#000000">typeinfo</text>
</a>
</g>
</g>
<!-- Node16&#45;&gt;Node18 -->
<g id="edge24" class="edge">
<title>Node16&#45;&gt;Node18</title>
<path fill="none" stroke="#191970" d="M937.0904,-259.3902C997.1827,-251.4555 1081.5558,-237.8331 1110.3478,-221 1136.8437,-205.5093 1158.0334,-176.1843 1169.8965,-156.9953"/>
<polygon fill="#191970" stroke="#191970" points="1172.9919,-158.6377 1175.0913,-148.2529 1166.9741,-155.0618 1172.9919,-158.6377"/>
</g>
<!-- Node19 -->
<g id="node20" class="node">
<title>Node19</title>
<g id="a_node20"><a xlink:href="hash_8h.html" target="_top" xlink:title=" ">
<polygon fill="#ffffff" stroke="#000000" points="672.8478,-196 672.8478,-215 797.8478,-215 797.8478,-196 672.8478,-196"/>
<text text-anchor="middle" x="735.3478" y="-203" font-family="Helvetica,sans-Serif" font-size="10.00" fill="#000000">drake/common/hash.h</text>
</a>
</g>
</g>
<!-- Node16&#45;&gt;Node19 -->
<g id="edge28" class="edge">
<title>Node16&#45;&gt;Node19</title>
<path fill="none" stroke="#191970" d="M850.9416,-257.3906C828.1195,-247.1457 791.7799,-230.8326 765.9421,-219.2339"/>
<polygon fill="#191970" stroke="#191970" points="767.1601,-215.9443 756.6038,-215.0419 764.2933,-222.3303 767.1601,-215.9443"/>
</g>
<!-- Node26 -->
<g id="node27" class="node">
<title>Node26</title>
<g id="a_node27"><a xlink:href="is__cloneable_8h.html" target="_top" xlink:title=" ">
<polygon fill="#ffffff" stroke="#000000" points="41.8478,-196 41.8478,-215 204.8478,-215 204.8478,-196 41.8478,-196"/>
<text text-anchor="middle" x="123.3478" y="-203" font-family="Helvetica,sans-Serif" font-size="10.00" fill="#000000">drake/common/is_cloneable.h</text>
</a>
</g>
</g>
<!-- Node16&#45;&gt;Node26 -->
<g id="edge44" class="edge">
<title>Node16&#45;&gt;Node26</title>
<path fill="none" stroke="#191970" d="M807.6383,-263.0251C695.4754,-255.942 457.7318,-240.0755 257.3478,-221 242.3351,-219.5709 226.3965,-217.88 210.9476,-216.1494"/>
<polygon fill="#191970" stroke="#191970" points="211.2114,-212.657 200.8809,-215.0089 210.4233,-219.6125 211.2114,-212.657"/>
</g>
<!-- Node27 -->
<g id="node28" class="node">
<title>Node27</title>
<g id="a_node28"><a xlink:href="nice__type__name_8h.html" target="_top" xlink:title=" ">
<polygon fill="#ffffff" stroke="#000000" points="939.3478,-190.5 939.3478,-220.5 1079.3478,-220.5 1079.3478,-190.5 939.3478,-190.5"/>
<text text-anchor="start" x="947.3478" y="-208.5" font-family="Helvetica,sans-Serif" font-size="10.00" fill="#000000">drake/common/nice_type</text>
<text text-anchor="middle" x="1009.3478" y="-197.5" font-family="Helvetica,sans-Serif" font-size="10.00" fill="#000000">_name.h</text>
</a>
</g>
</g>
<!-- Node16&#45;&gt;Node27 -->
<g id="edge47" class="edge">
<title>Node16&#45;&gt;Node27</title>
<path fill="none" stroke="#191970" d="M893.7541,-257.3906C913.1538,-248.682 942.3208,-235.5888 966.5022,-224.7336"/>
<polygon fill="#191970" stroke="#191970" points="968.1443,-227.833 975.8339,-220.5446 965.2775,-221.447 968.1443,-227.833"/>
</g>
<!-- Node19&#45;&gt;Node2 -->
<g id="edge35" class="edge">
<title>Node19&#45;&gt;Node2</title>
<path fill="none" stroke="#191970" d="M672.8378,-201.6936C535.5007,-193.1223 211.0411,-171.6758 102.3478,-154 90.0055,-151.9929 76.5203,-148.8117 65.2044,-145.8521"/>
<polygon fill="#191970" stroke="#191970" points="66.0838,-142.4643 55.5172,-143.2366 64.2591,-149.2223 66.0838,-142.4643"/>
</g>
<!-- Node19&#45;&gt;Node3 -->
<g id="edge36" class="edge">
<title>Node19&#45;&gt;Node3</title>
<path fill="none" stroke="#191970" d="M797.8553,-196.0417C860.0187,-186.3939 958.024,-170.531 1042.3478,-154 1054.3397,-151.6491 1067.4369,-148.7832 1078.9673,-146.1582"/>
<polygon fill="#191970" stroke="#191970" points="1080.0808,-149.4934 1089.0393,-143.8368 1078.5087,-142.6722 1080.0808,-149.4934"/>
</g>
<!-- Node19&#45;&gt;Node8 -->
<g id="edge30" class="edge">
<title>Node19&#45;&gt;Node8</title>
<path fill="none" stroke="#191970" d="M672.7023,-200.8679C599.5162,-194.4881 475.212,-180.6311 371.3478,-154 368.5145,-153.2735 365.6077,-152.4158 362.7133,-151.4825"/>
<polygon fill="#191970" stroke="#191970" points="363.6406,-148.099 353.0457,-148.1 361.3287,-154.7062 363.6406,-148.099"/>
</g>
<!-- Node19&#45;&gt;Node9 -->
<g id="edge32" class="edge">
<title>Node19&#45;&gt;Node9</title>
<path fill="none" stroke="#191970" d="M672.7052,-203.3368C586.3578,-199.1963 426.4476,-187.3473 294.3478,-154 291.5662,-153.2978 288.7177,-152.4449 285.8886,-151.5044"/>
<polygon fill="#191970" stroke="#191970" points="287.0641,-148.2076 276.4703,-148.06 284.6598,-154.7818 287.0641,-148.2076"/>
</g>
<!-- Node19&#45;&gt;Node10 -->
<g id="edge38" class="edge">
<title>Node19&#45;&gt;Node10</title>
<path fill="none" stroke="#191970" d="M713.0103,-195.9109C695.7801,-187.3738 672.7033,-173.2503 659.3478,-154 646.3303,-135.2368 641.744,-108.9622 640.1516,-91.1436"/>
<polygon fill="#191970" stroke="#191970" points="643.6367,-90.8008 639.4885,-81.0518 636.6518,-91.2598 643.6367,-90.8008"/>
</g>
<!-- Node19&#45;&gt;Node11 -->
<g id="edge40" class="edge">
<title>Node19&#45;&gt;Node11</title>
<path fill="none" stroke="#191970" d="M672.7993,-203.9048C587.8722,-200.4149 442.2942,-189.3079 404.3478,-154 388.8765,-139.6044 384.7905,-115.355 384.1812,-96.8615"/>
<polygon fill="#191970" stroke="#191970" points="387.6811,-96.7501 384.1644,-86.7559 380.6811,-96.7618 387.6811,-96.7501"/>
</g>
<!-- Node19&#45;&gt;Node12 -->
<g id="edge37" class="edge">
<title>Node19&#45;&gt;Node12</title>
<path fill="none" stroke="#191970" d="M797.9741,-201.502C871.5807,-194.3811 978.8857,-174.9672 938.3478,-123 881.1186,-49.6355 587.5532,-21.2291 474.1404,-12.8857"/>
<polygon fill="#191970" stroke="#191970" points="474.2829,-9.387 464.058,-12.1622 473.7819,-16.369 474.2829,-9.387"/>
</g>
<!-- Node20 -->
<g id="node21" class="node">
<title>Node20</title>
<g id="a_node21"><a xlink:title=" ">
<polygon fill="#ffffff" stroke="#bfbfbf" points="881.8478,-129 881.8478,-148 928.8478,-148 928.8478,-129 881.8478,-129"/>
<text text-anchor="middle" x="905.3478" y="-136" font-family="Helvetica,sans-Serif" font-size="10.00" fill="#000000">cmath</text>
</a>
</g>
</g>
<!-- Node19&#45;&gt;Node20 -->
<g id="edge29" class="edge">
<title>Node19&#45;&gt;Node20</title>
<path fill="none" stroke="#191970" d="M762.6329,-195.9664C790.4637,-186.0737 834.7741,-169.8568 872.3478,-154 873.6964,-153.4309 875.0706,-152.8381 876.4548,-152.2306"/>
<polygon fill="#191970" stroke="#191970" points="877.9045,-155.4163 885.5693,-148.1019 875.0161,-149.04 877.9045,-155.4163"/>
</g>
<!-- Node21 -->
<g id="node22" class="node">
<title>Node21</title>
<g id="a_node22"><a xlink:title=" ">
<polygon fill="#ffffff" stroke="#bfbfbf" points="667.8478,-129 667.8478,-148 732.8478,-148 732.8478,-129 667.8478,-129"/>
<text text-anchor="middle" x="700.3478" y="-136" font-family="Helvetica,sans-Serif" font-size="10.00" fill="#000000">functional</text>
</a>
</g>
</g>
<!-- Node19&#45;&gt;Node21 -->
<g id="edge31" class="edge">
<title>Node19&#45;&gt;Node21</title>
<path fill="none" stroke="#191970" d="M730.3332,-195.9005C725.0832,-185.8505 716.705,-169.8122 710.1376,-157.2403"/>
<polygon fill="#191970" stroke="#191970" points="713.0856,-155.3246 705.3532,-148.0817 706.8812,-158.5657 713.0856,-155.3246"/>
</g>
<!-- Node22 -->
<g id="node23" class="node">
<title>Node22</title>
<g id="a_node23"><a xlink:title=" ">
<polygon fill="#ffffff" stroke="#bfbfbf" points="751.3478,-129 751.3478,-148 789.3478,-148 789.3478,-129 751.3478,-129"/>
<text text-anchor="middle" x="770.3478" y="-136" font-family="Helvetica,sans-Serif" font-size="10.00" fill="#000000">map</text>
</a>
</g>
</g>
<!-- Node19&#45;&gt;Node22 -->
<g id="edge33" class="edge">
<title>Node19&#45;&gt;Node22</title>
<path fill="none" stroke="#191970" d="M740.3625,-195.9005C745.6125,-185.8505 753.9907,-169.8122 760.5581,-157.2403"/>
<polygon fill="#191970" stroke="#191970" points="763.8145,-158.5657 765.3425,-148.0817 757.61,-155.3246 763.8145,-158.5657"/>
</g>
<!-- Node23 -->
<g id="node24" class="node">
<title>Node23</title>
<g id="a_node24"><a xlink:title=" ">
<polygon fill="#ffffff" stroke="#bfbfbf" points="807.3478,-129 807.3478,-148 863.3478,-148 863.3478,-129 807.3478,-129"/>
<text text-anchor="middle" x="835.3478" y="-136" font-family="Helvetica,sans-Serif" font-size="10.00" fill="#000000">optional</text>
</a>
</g>
</g>
<!-- Node19&#45;&gt;Node23 -->
<g id="edge34" class="edge">
<title>Node19&#45;&gt;Node23</title>
<path fill="none" stroke="#191970" d="M749.6754,-195.9005C766.0864,-184.9052 793.1954,-166.7422 812.523,-153.7927"/>
<polygon fill="#191970" stroke="#191970" points="814.6873,-156.5556 821.0469,-148.0817 810.791,-150.7402 814.6873,-156.5556"/>
</g>
<!-- Node24 -->
<g id="node25" class="node">
<title>Node24</title>
<g id="a_node25"><a xlink:title=" ">
<polygon fill="#ffffff" stroke="#bfbfbf" points="985.8478,-129 985.8478,-148 1032.8478,-148 1032.8478,-129 985.8478,-129"/>
<text text-anchor="middle" x="1009.3478" y="-136" font-family="Helvetica,sans-Serif" font-size="10.00" fill="#000000">vector</text>
</a>
</g>
</g>
<!-- Node19&#45;&gt;Node24 -->
<g id="edge39" class="edge">
<title>Node19&#45;&gt;Node24</title>
<path fill="none" stroke="#191970" d="M792.3263,-195.9179C840.574,-187.129 911.2727,-172.6541 971.3478,-154 973.6443,-153.2869 975.9958,-152.4924 978.3478,-151.6504"/>
<polygon fill="#191970" stroke="#191970" points="979.788,-154.847 987.8801,-148.0082 977.2895,-148.3081 979.788,-154.847"/>
</g>
<!-- Node25 -->
<g id="node26" class="node">
<title>Node25</title>
<g id="a_node26"><a xlink:href="drake__throw_8h.html" target="_top" xlink:title="Provides a convenient wrapper to throw an exception when a condition is unmet.">
<polygon fill="#ffffff" stroke="#000000" points="413.8478,-123.5 413.8478,-153.5 534.8478,-153.5 534.8478,-123.5 413.8478,-123.5"/>
<text text-anchor="start" x="421.8478" y="-141.5" font-family="Helvetica,sans-Serif" font-size="10.00" fill="#000000">drake/common/drake</text>
<text text-anchor="middle" x="474.3478" y="-130.5" font-family="Helvetica,sans-Serif" font-size="10.00" fill="#000000">_throw.h</text>
</a>
</g>
</g>
<!-- Node19&#45;&gt;Node25 -->
<g id="edge41" class="edge">
<title>Node19&#45;&gt;Node25</title>
<path fill="none" stroke="#191970" d="M698.2301,-195.9717C657.8561,-185.6075 592.44,-168.8148 542.7191,-156.0512"/>
<polygon fill="#191970" stroke="#191970" points="543.5525,-152.6518 532.9963,-153.5553 541.812,-159.4319 543.5525,-152.6518"/>
</g>
<!-- Node25&#45;&gt;Node11 -->
<g id="edge43" class="edge">
<title>Node25&#45;&gt;Node11</title>
<path fill="none" stroke="#191970" d="M454.1524,-123.2967C442.2042,-114.302 426.8839,-102.7687 413.7341,-92.8694"/>
<polygon fill="#191970" stroke="#191970" points="415.5577,-89.8613 405.4634,-86.6432 411.3476,-95.4538 415.5577,-89.8613"/>
</g>
<!-- Node25&#45;&gt;Node12 -->
<g id="edge42" class="edge">
<title>Node25&#45;&gt;Node12</title>
<path fill="none" stroke="#191970" d="M471.8777,-123.2391C468.8729,-106.4039 463.0921,-78.6908 454.3478,-56 450.6831,-46.4903 445.4327,-36.4865 440.6888,-28.2457"/>
<polygon fill="#191970" stroke="#191970" points="443.6089,-26.3091 435.4777,-19.5169 437.5985,-29.8973 443.6089,-26.3091"/>
</g>
<!-- Node26&#45;&gt;Node1 -->
<g id="edge45" class="edge">
<title>Node26&#45;&gt;Node1</title>
<path fill="none" stroke="#191970" d="M125.7835,-195.9005C128.283,-186.0495 132.2424,-170.4451 135.4023,-157.9912"/>
<polygon fill="#191970" stroke="#191970" points="138.8497,-158.6353 137.9167,-148.0817 132.0647,-156.9137 138.8497,-158.6353"/>
</g>
<!-- Node26&#45;&gt;Node12 -->
<g id="edge46" class="edge">
<title>Node26&#45;&gt;Node12</title>
<path fill="none" stroke="#191970" d="M116.2772,-195.9196C105.1081,-179.5148 86.2251,-145.6297 102.3478,-123 135.8547,-75.9701 303.4963,-35.841 384.8791,-18.7771"/>
<polygon fill="#191970" stroke="#191970" points="385.7486,-22.1714 394.8306,-16.7155 384.3285,-15.3169 385.7486,-22.1714"/>
</g>
<!-- Node27&#45;&gt;Node1 -->
<g id="edge48" class="edge">
<title>Node27&#45;&gt;Node1</title>
<path fill="none" stroke="#191970" d="M939.2542,-199.8489C900.3983,-196.7848 851.2098,-193.0185 807.3478,-190 544.8153,-171.9328 477.2461,-188.3781 216.3478,-154 204.2665,-152.4081 191.23,-150.0048 179.4232,-147.5628"/>
<polygon fill="#191970" stroke="#191970" points="179.9294,-144.092 169.419,-145.4262 178.4674,-150.9377 179.9294,-144.092"/>
</g>
<!-- Node27&#45;&gt;Node3 -->
<g id="edge49" class="edge">
<title>Node27&#45;&gt;Node3</title>
<path fill="none" stroke="#191970" d="M1032.2386,-190.4639C1048.8904,-179.526 1071.3562,-164.769 1088.092,-153.7759"/>
<polygon fill="#191970" stroke="#191970" points="1090.2904,-156.5195 1096.7269,-148.1039 1086.4472,-150.6688 1090.2904,-156.5195"/>
</g>
<!-- Node27&#45;&gt;Node10 -->
<g id="edge51" class="edge">
<title>Node27&#45;&gt;Node10</title>
<path fill="none" stroke="#191970" d="M1023.885,-190.4883C1039.4381,-172.6059 1059.6763,-142.6839 1042.3478,-123 1017.9424,-95.2773 763.6909,-78.4436 672.047,-73.2389"/>
<polygon fill="#191970" stroke="#191970" points="672.13,-69.7381 661.9505,-72.6754 671.7399,-76.7273 672.13,-69.7381"/>
</g>
<!-- Node27&#45;&gt;Node13 -->
<g id="edge53" class="edge">
<title>Node27&#45;&gt;Node13</title>
<path fill="none" stroke="#191970" d="M1071.7365,-190.4639C1114.7481,-180.0978 1171.9924,-166.3015 1216.6874,-155.5297"/>
<polygon fill="#191970" stroke="#191970" points="1217.6997,-158.886 1226.6013,-153.1404 1216.0596,-152.0808 1217.6997,-158.886"/>
</g>
<!-- Node27&#45;&gt;Node18 -->
<g id="edge50" class="edge">
<title>Node27&#45;&gt;Node18</title>
<path fill="none" stroke="#191970" d="M1048.7022,-190.4728C1075.2129,-180.2979 1110.9398,-166.4853 1142.3478,-154 1143.9865,-153.3486 1145.6636,-152.6783 1147.3562,-151.9987"/>
<polygon fill="#191970" stroke="#191970" points="1149.1036,-155.0676 1157.0627,-148.0745 1146.4798,-148.5779 1149.1036,-155.0676"/>
</g>
<!-- Node27&#45;&gt;Node24 -->
<g id="edge52" class="edge">
<title>Node27&#45;&gt;Node24</title>
<path fill="none" stroke="#191970" d="M1009.3478,-190.2967C1009.3478,-180.7699 1009.3478,-168.3954 1009.3478,-158.1306"/>
<polygon fill="#191970" stroke="#191970" points="1012.8479,-158.0549 1009.3478,-148.055 1005.8479,-158.055 1012.8479,-158.0549"/>
</g>
<!-- Node28&#45;&gt;Node15 -->
<g id="edge57" class="edge">
<title>Node28&#45;&gt;Node15</title>
<path fill="none" stroke="#191970" d="M1383.912,-257.2017C1387.4099,-233.8967 1395.1905,-173.3455 1390.3478,-123 1389.5139,-114.3305 1387.9077,-104.952 1386.2225,-96.6039"/>
<polygon fill="#191970" stroke="#191970" points="1389.6198,-95.7535 1384.0979,-86.7114 1382.7759,-97.2235 1389.6198,-95.7535"/>
</g>
<!-- Node28&#45;&gt;Node17 -->
<g id="edge55" class="edge">
<title>Node28&#45;&gt;Node17</title>
<path fill="none" stroke="#191970" d="M1366.7228,-257.3906C1350.5781,-247.4616 1325.1657,-231.833 1306.4455,-220.3201"/>
<polygon fill="#191970" stroke="#191970" points="1308.2147,-217.2992 1297.8631,-215.0419 1304.5477,-223.2619 1308.2147,-217.2992"/>
</g>
<!-- Node29 -->
<g id="node30" class="node">
<title>Node29</title>
<g id="a_node30"><a xlink:title=" ">
<polygon fill="#ffffff" stroke="#bfbfbf" points="1442.8478,-196 1442.8478,-215 1521.8478,-215 1521.8478,-196 1442.8478,-196"/>
<text text-anchor="middle" x="1482.3478" y="-203" font-family="Helvetica,sans-Serif" font-size="10.00" fill="#000000">fmt/format.h</text>
</a>
</g>
</g>
<!-- Node28&#45;&gt;Node29 -->
<g id="edge56" class="edge">
<title>Node28&#45;&gt;Node29</title>
<path fill="none" stroke="#191970" d="M1397.9728,-257.3906C1414.1176,-247.4616 1439.53,-231.833 1458.2502,-220.3201"/>
<polygon fill="#191970" stroke="#191970" points="1460.148,-223.2619 1466.8326,-215.0419 1456.481,-217.2992 1460.148,-223.2619"/>
</g>
</g>
</svg>
