<?xml version="1.0" encoding="UTF-8" standalone="no"?>
<!DOCTYPE svg PUBLIC "-//W3C//DTD SVG 1.1//EN"
 "http://www.w3.org/Graphics/SVG/1.1/DTD/svg11.dtd">
<!-- Generated by graphviz version 2.40.1 (20161225.0304)
 -->
<!-- Title: drake/geometry/geometry_roles.h Pages: 1 -->
<!--zoomable 419 -->
<svg id="main" version="1.1" xmlns="http://www.w3.org/2000/svg" xmlns:xlink="http://www.w3.org/1999/xlink" xml:space="preserve" onload="init(evt)">
<style type="text/css"><![CDATA[
.edge:hover path { stroke: red; }
.edge:hover polygon { stroke: red; fill: red; }
]]></style>
<script type="text/javascript"><![CDATA[
var edges = document.getElementsByTagName('g');
if (edges && edges.length) {
  for (var i=0;i<edges.length;i++) {
    if (edges[i].id.substr(0,4)=='edge') {
      edges[i].setAttribute('class','edge');
    }
  }
}
]]></script>
        <defs>
                <circle id="rim" cx="0" cy="0" r="7"/>
                <circle id="rim2" cx="0" cy="0" r="3.5"/>
                <g id="zoomPlus">
                        <use xlink:href="#rim" fill="#404040">
                                <set attributeName="fill" to="#808080" begin="zoomplus.mouseover" end="zoomplus.mouseout"/>
                        </use>
                        <path d="M-4,0h8M0,-4v8" fill="none" stroke="white" stroke-width="1.5" pointer-events="none"/>
                </g>
                <g id="zoomMin">
                        <use xlink:href="#rim" fill="#404040">
                                <set attributeName="fill" to="#808080" begin="zoomminus.mouseover" end="zoomminus.mouseout"/>
                        </use>
                        <path d="M-4,0h8" fill="none" stroke="white" stroke-width="1.5" pointer-events="none"/>
                </g>
                <g id="dirArrow">
                        <path fill="none" stroke="white" stroke-width="1.5" d="M0,-3.0v7 M-2.5,-0.5L0,-3.0L2.5,-0.5"/>
                </g>
               <g id="resetDef">
                       <use xlink:href="#rim2" fill="#404040">
                               <set attributeName="fill" to="#808080" begin="reset.mouseover" end="reset.mouseout"/>
                       </use>
               </g>
        </defs>

<script type="text/javascript">
var viewWidth = 1809;
var viewHeight = 419;
var sectionId = 'dynsection-0';
</script>
<script xlink:href="svgpan.js"/>
<svg id="graph" class="graph">
<g id="viewport">
<title>drake/geometry/geometry_roles.h</title>
<polygon fill="#ffffff" stroke="transparent" points="-4,4 -4,-415 1804.971,-415 1804.971,4 -4,4"/>
<!-- Node0 -->
<g id="node1" class="node">
<title>Node0</title>
<g id="a_node1"><a xlink:title=" ">
<polygon fill="#bfbfbf" stroke="#000000" points="262,-380.5 262,-410.5 407,-410.5 407,-380.5 262,-380.5"/>
<text text-anchor="start" x="270" y="-398.5" font-family="Helvetica,sans-Serif" font-size="10.00" fill="#000000">drake/geometry/geometry</text>
<text text-anchor="middle" x="334.5" y="-387.5" font-family="Helvetica,sans-Serif" font-size="10.00" fill="#000000">_roles.h</text>
</a>
</g>
</g>
<!-- Node1 -->
<g id="node2" class="node">
<title>Node1</title>
<g id="a_node2"><a xlink:title=" ">
<polygon fill="#ffffff" stroke="#bfbfbf" points="704.5,-129 704.5,-148 764.5,-148 764.5,-129 704.5,-129"/>
<text text-anchor="middle" x="734.5" y="-136" font-family="Helvetica,sans-Serif" font-size="10.00" fill="#000000">iostream</text>
</a>
</g>
</g>
<!-- Node0&#45;&gt;Node1 -->
<g id="edge1" class="edge">
<title>Node0&#45;&gt;Node1</title>
<path fill="none" stroke="#191970" d="M330.6047,-380.2856C321.8879,-342.3086 305.3664,-242.6258 356.5,-190 368.2194,-177.9386 599.3427,-152.5923 694.2986,-142.6384"/>
<polygon fill="#191970" stroke="#191970" points="694.8022,-146.1049 704.3847,-141.5854 694.0753,-139.1428 694.8022,-146.1049"/>
</g>
<!-- Node2 -->
<g id="node3" class="node">
<title>Node2</title>
<g id="a_node3"><a xlink:title=" ">
<polygon fill="#ffffff" stroke="#bfbfbf" points="1729.5,-129 1729.5,-148 1773.5,-148 1773.5,-129 1729.5,-129"/>
<text text-anchor="middle" x="1751.5" y="-136" font-family="Helvetica,sans-Serif" font-size="10.00" fill="#000000">string</text>
</a>
</g>
</g>
<!-- Node0&#45;&gt;Node2 -->
<g id="edge2" class="edge">
<title>Node0&#45;&gt;Node2</title>
<path fill="none" stroke="#191970" d="M407.0356,-392.6407C598.716,-383.4944 1133.0312,-347.6555 1556.5,-221 1617.9249,-202.6284 1686.1661,-170.9956 1723.4235,-152.6991"/>
<polygon fill="#191970" stroke="#191970" points="1725.2352,-155.7076 1732.6425,-148.1325 1722.128,-149.435 1725.2352,-155.7076"/>
</g>
<!-- Node3 -->
<g id="node4" class="node">
<title>Node3</title>
<g id="a_node4"><a xlink:href="drake__copyable_8h.html" target="_top" xlink:title="Provides careful macros to selectively enable or disable the special member functions for copy&#45;constr...">
<polygon fill="#ffffff" stroke="#000000" points="262,-56.5 262,-86.5 383,-86.5 383,-56.5 262,-56.5"/>
<text text-anchor="start" x="270" y="-74.5" font-family="Helvetica,sans-Serif" font-size="10.00" fill="#000000">drake/common/drake</text>
<text text-anchor="middle" x="322.5" y="-63.5" font-family="Helvetica,sans-Serif" font-size="10.00" fill="#000000">_copyable.h</text>
</a>
</g>
</g>
<!-- Node0&#45;&gt;Node3 -->
<g id="edge3" class="edge">
<title>Node0&#45;&gt;Node3</title>
<path fill="none" stroke="#191970" d="M328.1358,-380.4947C324.2035,-370.3872 319.5327,-356.6427 317.5,-344 303.0405,-254.0675 313.1546,-145.3 319.0613,-96.8778"/>
<polygon fill="#191970" stroke="#191970" points="322.5662,-97.0589 320.3514,-86.6981 315.6218,-96.1787 322.5662,-97.0589"/>
</g>
<!-- Node4 -->
<g id="node5" class="node">
<title>Node4</title>
<g id="a_node5"><a xlink:href="eigen__types_8h.html" target="_top" xlink:title="This file contains abbreviated definitions for certain specializations of Eigen::Matrix that are comm...">
<polygon fill="#ffffff" stroke="#000000" points="87.5,-123.5 87.5,-153.5 207.5,-153.5 207.5,-123.5 87.5,-123.5"/>
<text text-anchor="start" x="95.5" y="-141.5" font-family="Helvetica,sans-Serif" font-size="10.00" fill="#000000">drake/common/eigen</text>
<text text-anchor="middle" x="147.5" y="-130.5" font-family="Helvetica,sans-Serif" font-size="10.00" fill="#000000">_types.h</text>
</a>
</g>
</g>
<!-- Node0&#45;&gt;Node4 -->
<g id="edge4" class="edge">
<title>Node0&#45;&gt;Node4</title>
<path fill="none" stroke="#191970" d="M268.41,-380.4542C247.1136,-372.6986 225.0291,-361.1271 209.5,-344 162.5253,-292.1914 151.1038,-205.9089 148.3533,-163.5366"/>
<polygon fill="#191970" stroke="#191970" points="151.8468,-163.3185 147.8144,-153.521 144.8569,-163.6947 151.8468,-163.3185"/>
</g>
<!-- Node10 -->
<g id="node11" class="node">
<title>Node10</title>
<g id="a_node11"><a xlink:href="geometry__properties_8h.html" target="_top" xlink:title=" ">
<polygon fill="#ffffff" stroke="#000000" points="522,-313.5 522,-343.5 667,-343.5 667,-313.5 522,-313.5"/>
<text text-anchor="start" x="530" y="-331.5" font-family="Helvetica,sans-Serif" font-size="10.00" fill="#000000">drake/geometry/geometry</text>
<text text-anchor="middle" x="594.5" y="-320.5" font-family="Helvetica,sans-Serif" font-size="10.00" fill="#000000">_properties.h</text>
</a>
</g>
</g>
<!-- Node0&#45;&gt;Node10 -->
<g id="edge11" class="edge">
<title>Node0&#45;&gt;Node10</title>
<path fill="none" stroke="#191970" d="M392.8491,-380.4639C432.3523,-370.2842 484.6923,-356.7966 526.1481,-346.1138"/>
<polygon fill="#191970" stroke="#191970" points="527.0862,-349.4864 535.8964,-343.6017 525.3394,-342.7079 527.0862,-349.4864"/>
</g>
<!-- Node4&#45;&gt;Node3 -->
<g id="edge10" class="edge">
<title>Node4&#45;&gt;Node3</title>
<path fill="none" stroke="#191970" d="M186.7734,-123.4639C212.4646,-113.6278 246.2225,-100.7034 273.6439,-90.2049"/>
<polygon fill="#191970" stroke="#191970" points="274.9678,-93.4459 283.0553,-86.6017 272.4649,-86.9086 274.9678,-93.4459"/>
</g>
<!-- Node5 -->
<g id="node6" class="node">
<title>Node5</title>
<g id="a_node6"><a xlink:title=" ">
<polygon fill="#ffffff" stroke="#bfbfbf" points="609,-62 609,-81 654,-81 654,-62 609,-62"/>
<text text-anchor="middle" x="631.5" y="-69" font-family="Helvetica,sans-Serif" font-size="10.00" fill="#000000">utility</text>
</a>
</g>
</g>
<!-- Node4&#45;&gt;Node5 -->
<g id="edge5" class="edge">
<title>Node4&#45;&gt;Node5</title>
<path fill="none" stroke="#191970" d="M207.5399,-131.2389C284.3678,-121.799 421.5151,-104.4478 538.5,-87 558.6647,-83.9925 581.2227,-80.2424 599.0717,-77.1842"/>
<polygon fill="#191970" stroke="#191970" points="599.7236,-80.6235 608.983,-75.4743 598.5336,-73.7254 599.7236,-80.6235"/>
</g>
<!-- Node6 -->
<g id="node7" class="node">
<title>Node6</title>
<g id="a_node7"><a xlink:title=" ">
<polygon fill="#ffffff" stroke="#bfbfbf" points="0,-62 0,-81 77,-81 77,-62 0,-62"/>
<text text-anchor="middle" x="38.5" y="-69" font-family="Helvetica,sans-Serif" font-size="10.00" fill="#000000">Eigen/Dense</text>
</a>
</g>
</g>
<!-- Node4&#45;&gt;Node6 -->
<g id="edge6" class="edge">
<title>Node4&#45;&gt;Node6</title>
<path fill="none" stroke="#191970" d="M123.0383,-123.4639C105.079,-112.4247 80.7911,-97.4954 62.8566,-86.4715"/>
<polygon fill="#191970" stroke="#191970" points="64.4764,-83.3588 54.1243,-81.1039 60.8107,-89.3223 64.4764,-83.3588"/>
</g>
<!-- Node7 -->
<g id="node8" class="node">
<title>Node7</title>
<g id="a_node8"><a xlink:href="constants_8h.html" target="_top" xlink:title=" ">
<polygon fill="#ffffff" stroke="#000000" points="95,-62 95,-81 244,-81 244,-62 95,-62"/>
<text text-anchor="middle" x="169.5" y="-69" font-family="Helvetica,sans-Serif" font-size="10.00" fill="#000000">drake/common/constants.h</text>
</a>
</g>
</g>
<!-- Node4&#45;&gt;Node7 -->
<g id="edge7" class="edge">
<title>Node4&#45;&gt;Node7</title>
<path fill="none" stroke="#191970" d="M152.4921,-123.2967C155.6536,-113.6685 159.7702,-101.1318 163.1615,-90.8038"/>
<polygon fill="#191970" stroke="#191970" points="166.5681,-91.6478 166.3625,-81.055 159.9175,-89.464 166.5681,-91.6478"/>
</g>
<!-- Node8 -->
<g id="node9" class="node">
<title>Node8</title>
<g id="a_node9"><a xlink:href="drake__assert_8h.html" target="_top" xlink:title="Provides Drake&#39;s assertion implementation.">
<polygon fill="#ffffff" stroke="#000000" points="969,-56.5 969,-86.5 1090,-86.5 1090,-56.5 969,-56.5"/>
<text text-anchor="start" x="977" y="-74.5" font-family="Helvetica,sans-Serif" font-size="10.00" fill="#000000">drake/common/drake</text>
<text text-anchor="middle" x="1029.5" y="-63.5" font-family="Helvetica,sans-Serif" font-size="10.00" fill="#000000">_assert.h</text>
</a>
</g>
</g>
<!-- Node4&#45;&gt;Node8 -->
<g id="edge8" class="edge">
<title>Node4&#45;&gt;Node8</title>
<path fill="none" stroke="#191970" d="M207.7763,-133.9212C365.5702,-121.9346 790.2018,-89.678 958.9533,-76.859"/>
<polygon fill="#191970" stroke="#191970" points="959.2644,-80.3455 968.9706,-76.098 958.7341,-73.3656 959.2644,-80.3455"/>
</g>
<!-- Node9 -->
<g id="node10" class="node">
<title>Node9</title>
<g id="a_node10"><a xlink:title=" ">
<polygon fill="#ffffff" stroke="#bfbfbf" points="1331,-.5 1331,-19.5 1400,-19.5 1400,-.5 1331,-.5"/>
<text text-anchor="middle" x="1365.5" y="-7.5" font-family="Helvetica,sans-Serif" font-size="10.00" fill="#000000">type_traits</text>
</a>
</g>
</g>
<!-- Node8&#45;&gt;Node9 -->
<g id="edge9" class="edge">
<title>Node8&#45;&gt;Node9</title>
<path fill="none" stroke="#191970" d="M1090.0518,-58.8271C1094.9366,-57.8532 1099.7988,-56.8999 1104.5,-56 1180.3352,-41.4841 1268.9004,-26.2327 1320.9194,-17.4476"/>
<polygon fill="#191970" stroke="#191970" points="1321.542,-20.8921 1330.8213,-15.7789 1320.3787,-13.9895 1321.542,-20.8921"/>
</g>
<!-- Node10&#45;&gt;Node2 -->
<g id="edge14" class="edge">
<title>Node10&#45;&gt;Node2</title>
<path fill="none" stroke="#191970" d="M667.1566,-324.6131C820.4991,-315.3533 1187.8226,-287.5906 1488.5,-221 1573.7346,-202.1232 1671.0488,-168.2543 1719.9412,-150.3471"/>
<polygon fill="#191970" stroke="#191970" points="1721.1649,-153.6263 1729.3371,-146.8834 1718.7437,-147.0583 1721.1649,-153.6263"/>
</g>
<!-- Node10&#45;&gt;Node6 -->
<g id="edge17" class="edge">
<title>Node10&#45;&gt;Node6</title>
<path fill="none" stroke="#191970" d="M521.7787,-322.9867C411.9389,-310.9142 203.3221,-272.8426 78.5,-154 60.2863,-136.6588 49.3187,-109.2993 43.5906,-90.8921"/>
<polygon fill="#191970" stroke="#191970" points="46.9393,-89.8728 40.8082,-81.2322 40.2128,-91.8103 46.9393,-89.8728"/>
</g>
<!-- Node11 -->
<g id="node12" class="node">
<title>Node11</title>
<g id="a_node12"><a xlink:title=" ">
<polygon fill="#ffffff" stroke="#bfbfbf" points="782.5,-129 782.5,-148 840.5,-148 840.5,-129 782.5,-129"/>
<text text-anchor="middle" x="811.5" y="-136" font-family="Helvetica,sans-Serif" font-size="10.00" fill="#000000">memory</text>
</a>
</g>
</g>
<!-- Node10&#45;&gt;Node11 -->
<g id="edge12" class="edge">
<title>Node10&#45;&gt;Node11</title>
<path fill="none" stroke="#191970" d="M592.7316,-313.4302C591.58,-298.5637 591.4046,-275.4506 598.5,-257 612.2277,-221.3031 620.7374,-211.3038 652.5,-190 699.0969,-158.7466 720.5715,-172.6178 773.5,-154 775.4156,-153.3262 777.3756,-152.6103 779.3464,-151.8701"/>
<polygon fill="#191970" stroke="#191970" points="781.093,-154.9455 789.135,-148.0479 778.5469,-148.425 781.093,-154.9455"/>
</g>
<!-- Node12 -->
<g id="node13" class="node">
<title>Node12</title>
<g id="a_node13"><a xlink:title=" ">
<polygon fill="#ffffff" stroke="#bfbfbf" points="1146.5,-129 1146.5,-148 1178.5,-148 1178.5,-129 1146.5,-129"/>
<text text-anchor="middle" x="1162.5" y="-136" font-family="Helvetica,sans-Serif" font-size="10.00" fill="#000000">set</text>
</a>
</g>
</g>
<!-- Node10&#45;&gt;Node12 -->
<g id="edge13" class="edge">
<title>Node10&#45;&gt;Node12</title>
<path fill="none" stroke="#191970" d="M667.2338,-321.1997C822.406,-304.8652 1174.5331,-263.4576 1207.5,-221 1223.7847,-200.0272 1201.1761,-172.3771 1182.5447,-155.0164"/>
<polygon fill="#191970" stroke="#191970" points="1184.7304,-152.2765 1174.9282,-148.2554 1180.0833,-157.5116 1184.7304,-152.2765"/>
</g>
<!-- Node13 -->
<g id="node14" class="node">
<title>Node13</title>
<g id="a_node14"><a xlink:title=" ">
<polygon fill="#ffffff" stroke="#bfbfbf" points="623,-257.5 623,-276.5 716,-276.5 716,-257.5 623,-257.5"/>
<text text-anchor="middle" x="669.5" y="-264.5" font-family="Helvetica,sans-Serif" font-size="10.00" fill="#000000">unordered_map</text>
</a>
</g>
</g>
<!-- Node10&#45;&gt;Node13 -->
<g id="edge15" class="edge">
<title>Node10&#45;&gt;Node13</title>
<path fill="none" stroke="#191970" d="M613.0393,-313.2977C624.1008,-304.2274 638.1491,-292.7077 649.4653,-283.4285"/>
<polygon fill="#191970" stroke="#191970" points="651.9781,-285.8942 657.4916,-276.8469 647.5396,-280.4813 651.9781,-285.8942"/>
</g>
<!-- Node14 -->
<g id="node15" class="node">
<title>Node14</title>
<g id="a_node15"><a xlink:title=" ">
<polygon fill="#ffffff" stroke="#bfbfbf" points="734.5,-257.5 734.5,-276.5 820.5,-276.5 820.5,-257.5 734.5,-257.5"/>
<text text-anchor="middle" x="777.5" y="-264.5" font-family="Helvetica,sans-Serif" font-size="10.00" fill="#000000">fmt/ostream.h</text>
</a>
</g>
</g>
<!-- Node10&#45;&gt;Node14 -->
<g id="edge16" class="edge">
<title>Node10&#45;&gt;Node14</title>
<path fill="none" stroke="#191970" d="M639.2668,-313.4554C669.9348,-303.149 710.1771,-289.6249 739.3272,-279.8286"/>
<polygon fill="#191970" stroke="#191970" points="740.7774,-283.0336 749.1415,-276.5303 738.5475,-276.3983 740.7774,-283.0336"/>
</g>
<!-- Node15 -->
<g id="node16" class="node">
<title>Node15</title>
<g id="a_node16"><a xlink:href="copyable__unique__ptr_8h.html" target="_top" xlink:title=" ">
<polygon fill="#ffffff" stroke="#000000" points="661,-190.5 661,-220.5 798,-220.5 798,-190.5 661,-190.5"/>
<text text-anchor="start" x="669" y="-208.5" font-family="Helvetica,sans-Serif" font-size="10.00" fill="#000000">drake/common/copyable</text>
<text text-anchor="middle" x="729.5" y="-197.5" font-family="Helvetica,sans-Serif" font-size="10.00" fill="#000000">_unique_ptr.h</text>
</a>
</g>
</g>
<!-- Node10&#45;&gt;Node15 -->
<g id="edge18" class="edge">
<title>Node10&#45;&gt;Node15</title>
<path fill="none" stroke="#191970" d="M595.0706,-313.3492C596.4269,-297.551 600.7849,-272.9162 614.5,-257 626.8501,-242.6678 643.9806,-232.1417 661.252,-224.4857"/>
<polygon fill="#191970" stroke="#191970" points="662.9302,-227.5792 670.8323,-220.5217 660.2538,-221.111 662.9302,-227.5792"/>
</g>
<!-- Node17 -->
<g id="node18" class="node">
<title>Node17</title>
<g id="a_node18"><a xlink:href="never__destroyed_8h.html" target="_top" xlink:title=" ">
<polygon fill="#ffffff" stroke="#000000" points="451,-123.5 451,-153.5 572,-153.5 572,-123.5 451,-123.5"/>
<text text-anchor="start" x="459" y="-141.5" font-family="Helvetica,sans-Serif" font-size="10.00" fill="#000000">drake/common/never</text>
<text text-anchor="middle" x="511.5" y="-130.5" font-family="Helvetica,sans-Serif" font-size="10.00" fill="#000000">_destroyed.h</text>
</a>
</g>
</g>
<!-- Node10&#45;&gt;Node17 -->
<g id="edge24" class="edge">
<title>Node10&#45;&gt;Node17</title>
<path fill="none" stroke="#191970" d="M521.9925,-316.0097C472.5322,-306.3969 412.3545,-292.2157 391.5,-277 367.7899,-259.7008 364.5913,-249.2128 356.5,-221 352.7017,-207.7561 348.4386,-201.1732 356.5,-190 367.0021,-175.444 405.0227,-162.6901 440.7765,-153.5156"/>
<polygon fill="#191970" stroke="#191970" points="441.9188,-156.8381 450.7761,-151.0243 440.2266,-150.0457 441.9188,-156.8381"/>
</g>
<!-- Node19 -->
<g id="node20" class="node">
<title>Node19</title>
<g id="a_node20"><a xlink:href="value_8h.html" target="_top" xlink:title=" ">
<polygon fill="#ffffff" stroke="#000000" points="850,-257.5 850,-276.5 979,-276.5 979,-257.5 850,-257.5"/>
<text text-anchor="middle" x="914.5" y="-264.5" font-family="Helvetica,sans-Serif" font-size="10.00" fill="#000000">drake/common/value.h</text>
</a>
</g>
</g>
<!-- Node10&#45;&gt;Node19 -->
<g id="edge29" class="edge">
<title>Node10&#45;&gt;Node19</title>
<path fill="none" stroke="#191970" d="M667.113,-314.5447C723.9345,-303.6243 801.9669,-288.6274 855.0981,-278.4163"/>
<polygon fill="#191970" stroke="#191970" points="855.8885,-281.8285 865.0482,-276.504 854.5673,-274.9543 855.8885,-281.8285"/>
</g>
<!-- Node31 -->
<g id="node32" class="node">
<title>Node31</title>
<g id="a_node32"><a xlink:href="rgba_8h.html" target="_top" xlink:title=" ">
<polygon fill="#ffffff" stroke="#000000" points="400.5,-257.5 400.5,-276.5 528.5,-276.5 528.5,-257.5 400.5,-257.5"/>
<text text-anchor="middle" x="464.5" y="-264.5" font-family="Helvetica,sans-Serif" font-size="10.00" fill="#000000">drake/geometry/rgba.h</text>
</a>
</g>
</g>
<!-- Node10&#45;&gt;Node31 -->
<g id="edge64" class="edge">
<title>Node10&#45;&gt;Node31</title>
<path fill="none" stroke="#191970" d="M562.6984,-313.4554C541.6735,-303.509 514.3141,-290.5659 493.8157,-280.8686"/>
<polygon fill="#191970" stroke="#191970" points="495.1816,-277.6429 484.6454,-276.5303 492.1881,-283.9706 495.1816,-277.6429"/>
</g>
<!-- Node15&#45;&gt;Node1 -->
<g id="edge20" class="edge">
<title>Node15&#45;&gt;Node1</title>
<path fill="none" stroke="#191970" d="M730.6346,-190.2967C731.3455,-180.7699 732.269,-168.3954 733.035,-158.1306"/>
<polygon fill="#191970" stroke="#191970" points="736.5329,-158.2877 733.7869,-148.055 729.5524,-157.7667 736.5329,-158.2877"/>
</g>
<!-- Node15&#45;&gt;Node5 -->
<g id="edge22" class="edge">
<title>Node15&#45;&gt;Node5</title>
<path fill="none" stroke="#191970" d="M703.3965,-190.4222C689.6442,-181.3615 673.4144,-168.7375 662.5,-154 648.3983,-134.9586 640.0136,-108.7652 635.5895,-91.0404"/>
<polygon fill="#191970" stroke="#191970" points="638.9869,-90.197 633.331,-81.2381 632.1657,-91.7687 638.9869,-90.197"/>
</g>
<!-- Node15&#45;&gt;Node8 -->
<g id="edge23" class="edge">
<title>Node15&#45;&gt;Node8</title>
<path fill="none" stroke="#191970" d="M714.4833,-190.2772C698.733,-172.4616 678.4563,-142.8732 695.5,-123 712.4119,-103.2805 865.7891,-86.1964 958.7129,-77.5398"/>
<polygon fill="#191970" stroke="#191970" points="959.2611,-81.0042 968.8981,-76.6021 958.6193,-74.0337 959.2611,-81.0042"/>
</g>
<!-- Node15&#45;&gt;Node11 -->
<g id="edge21" class="edge">
<title>Node15&#45;&gt;Node11</title>
<path fill="none" stroke="#191970" d="M748.1071,-190.2967C761.1311,-179.6551 778.5039,-165.4602 791.769,-154.6217"/>
<polygon fill="#191970" stroke="#191970" points="794.2766,-157.0926 799.8059,-148.055 789.8475,-151.6719 794.2766,-157.0926"/>
</g>
<!-- Node16 -->
<g id="node17" class="node">
<title>Node16</title>
<g id="a_node17"><a xlink:title=" ">
<polygon fill="#ffffff" stroke="#bfbfbf" points="972,-129 972,-148 1025,-148 1025,-129 972,-129"/>
<text text-anchor="middle" x="998.5" y="-136" font-family="Helvetica,sans-Serif" font-size="10.00" fill="#000000">cstddef</text>
</a>
</g>
</g>
<!-- Node15&#45;&gt;Node16 -->
<g id="edge19" class="edge">
<title>Node15&#45;&gt;Node16</title>
<path fill="none" stroke="#191970" d="M798.0484,-194.1587C845.2157,-185.4494 908.9518,-171.8811 963.5,-154 965.3945,-153.379 967.3256,-152.6907 969.2588,-151.9593"/>
<polygon fill="#191970" stroke="#191970" points="970.8554,-155.0876 978.7812,-148.0568 968.2008,-148.6104 970.8554,-155.0876"/>
</g>
<!-- Node17&#45;&gt;Node3 -->
<g id="edge28" class="edge">
<title>Node17&#45;&gt;Node3</title>
<path fill="none" stroke="#191970" d="M469.0847,-123.4639C441.217,-113.5849 404.5611,-100.5905 374.877,-90.0675"/>
<polygon fill="#191970" stroke="#191970" points="375.695,-86.6441 365.1003,-86.6017 373.3561,-93.2418 375.695,-86.6441"/>
</g>
<!-- Node17&#45;&gt;Node5 -->
<g id="edge27" class="edge">
<title>Node17&#45;&gt;Node5</title>
<path fill="none" stroke="#191970" d="M538.4303,-123.4639C558.4741,-112.2728 585.6783,-97.0838 605.4965,-86.0186"/>
<polygon fill="#191970" stroke="#191970" points="607.2739,-89.0349 614.2989,-81.1039 603.8614,-82.923 607.2739,-89.0349"/>
</g>
<!-- Node17&#45;&gt;Node9 -->
<g id="edge26" class="edge">
<title>Node17&#45;&gt;Node9</title>
<path fill="none" stroke="#191970" d="M522.4087,-123.2995C537.4547,-103.7195 566.5948,-70.4865 600.5,-56 666.656,-27.7339 1167.0585,-14.3956 1320.7451,-10.9371"/>
<polygon fill="#191970" stroke="#191970" points="1320.8604,-14.4355 1330.7803,-10.7143 1320.705,-7.4372 1320.8604,-14.4355"/>
</g>
<!-- Node18 -->
<g id="node19" class="node">
<title>Node18</title>
<g id="a_node19"><a xlink:title=" ">
<polygon fill="#ffffff" stroke="#bfbfbf" points="493,-62 493,-81 530,-81 530,-62 493,-62"/>
<text text-anchor="middle" x="511.5" y="-69" font-family="Helvetica,sans-Serif" font-size="10.00" fill="#000000">new</text>
</a>
</g>
</g>
<!-- Node17&#45;&gt;Node18 -->
<g id="edge25" class="edge">
<title>Node17&#45;&gt;Node18</title>
<path fill="none" stroke="#191970" d="M511.5,-123.2967C511.5,-113.7699 511.5,-101.3954 511.5,-91.1306"/>
<polygon fill="#191970" stroke="#191970" points="515.0001,-91.0549 511.5,-81.055 508.0001,-91.055 515.0001,-91.0549"/>
</g>
<!-- Node19&#45;&gt;Node2 -->
<g id="edge32" class="edge">
<title>Node19&#45;&gt;Node2</title>
<path fill="none" stroke="#191970" d="M979.169,-263.5769C1073.3876,-257.994 1253.7134,-245.0581 1405.5,-221 1467.5868,-211.1593 1482.0674,-203.3283 1543.5,-190 1619.8252,-173.4406 1641.0377,-177.5608 1715.5,-154 1717.6085,-153.3328 1719.7618,-152.5853 1721.9147,-151.7884"/>
<polygon fill="#191970" stroke="#191970" points="1723.2205,-155.0358 1731.2091,-148.0764 1720.6242,-148.5351 1723.2205,-155.0358"/>
</g>
<!-- Node19&#45;&gt;Node3 -->
<g id="edge37" class="edge">
<title>Node19&#45;&gt;Node3</title>
<path fill="none" stroke="#191970" d="M849.8099,-257.9581C778.9679,-247.808 670.0365,-231.4019 629.5,-221 608.0201,-215.4881 461.2281,-164.1275 441.5,-154 407.6391,-136.6173 372.2059,-110.9382 348.9044,-92.8566"/>
<polygon fill="#191970" stroke="#191970" points="350.921,-89.99 340.894,-86.5681 346.5985,-95.496 350.921,-89.99"/>
</g>
<!-- Node19&#45;&gt;Node5 -->
<g id="edge35" class="edge">
<title>Node19&#45;&gt;Node5</title>
<path fill="none" stroke="#191970" d="M849.9839,-257.574C774.6802,-246.2915 659.4617,-228.0392 652.5,-221 618.2084,-186.3266 622.6703,-123.0818 627.6676,-91.1136"/>
<polygon fill="#191970" stroke="#191970" points="631.1249,-91.6611 629.3949,-81.2085 624.2289,-90.4585 631.1249,-91.6611"/>
</g>
<!-- Node19&#45;&gt;Node9 -->
<g id="edge33" class="edge">
<title>Node19&#45;&gt;Node9</title>
<path fill="none" stroke="#191970" d="M979.1805,-263.6566C1171.9553,-253.0095 1732.3612,-216.8505 1782.5,-154 1839.9199,-82.0224 1748.0288,-84.6301 1666.5,-56 1579.2175,-25.3494 1470.6155,-15.1081 1410.6245,-11.6958"/>
<polygon fill="#191970" stroke="#191970" points="1410.5307,-8.186 1400.3595,-11.1521 1410.1604,-15.1762 1410.5307,-8.186"/>
</g>
<!-- Node19&#45;&gt;Node11 -->
<g id="edge30" class="edge">
<title>Node19&#45;&gt;Node11</title>
<path fill="none" stroke="#191970" d="M893.9839,-257.4953C878.835,-249.5817 858.6463,-237.0309 845.5,-221 830.2063,-202.3505 820.9395,-175.8718 816.0255,-157.9842"/>
<polygon fill="#191970" stroke="#191970" points="819.3696,-156.9327 813.5133,-148.1036 812.5854,-158.6577 819.3696,-156.9327"/>
</g>
<!-- Node19&#45;&gt;Node15 -->
<g id="edge36" class="edge">
<title>Node19&#45;&gt;Node15</title>
<path fill="none" stroke="#191970" d="M885.5938,-257.3906C858.5857,-248.4123 817.5585,-234.7735 784.3431,-223.7316"/>
<polygon fill="#191970" stroke="#191970" points="785.3496,-220.378 774.7561,-220.5446 783.1414,-227.0205 785.3496,-220.378"/>
</g>
<!-- Node20 -->
<g id="node21" class="node">
<title>Node20</title>
<g id="a_node21"><a xlink:title=" ">
<polygon fill="#ffffff" stroke="#bfbfbf" points="463,-196 463,-215 528,-215 528,-196 463,-196"/>
<text text-anchor="middle" x="495.5" y="-203" font-family="Helvetica,sans-Serif" font-size="10.00" fill="#000000">stdexcept</text>
</a>
</g>
</g>
<!-- Node19&#45;&gt;Node20 -->
<g id="edge31" class="edge">
<title>Node19&#45;&gt;Node20</title>
<path fill="none" stroke="#191970" d="M849.7225,-258.9271C782.3413,-250.3309 673.8449,-235.9315 580.5,-221 566.6901,-218.791 551.6649,-216.1351 538.1414,-213.6508"/>
<polygon fill="#191970" stroke="#191970" points="538.6083,-210.1778 528.1376,-211.7948 537.3313,-217.0603 538.6083,-210.1778"/>
</g>
<!-- Node21 -->
<g id="node22" class="node">
<title>Node21</title>
<g id="a_node22"><a xlink:title=" ">
<polygon fill="#ffffff" stroke="#bfbfbf" points="897,-129 897,-148 954,-148 954,-129 897,-129"/>
<text text-anchor="middle" x="925.5" y="-136" font-family="Helvetica,sans-Serif" font-size="10.00" fill="#000000">typeinfo</text>
</a>
</g>
</g>
<!-- Node19&#45;&gt;Node21 -->
<g id="edge34" class="edge">
<title>Node19&#45;&gt;Node21</title>
<path fill="none" stroke="#191970" d="M979.2708,-260.3825C1055.1612,-251.9639 1172.2981,-236.6316 1185.5,-221 1235.4488,-161.8583 1171.0705,-212.348 963.5,-154 961.0393,-153.3083 958.522,-152.5061 956.0123,-151.6379"/>
<polygon fill="#191970" stroke="#191970" points="957.0981,-148.3068 946.5062,-148.0567 954.6303,-154.8574 957.0981,-148.3068"/>
</g>
<!-- Node22 -->
<g id="node23" class="node">
<title>Node22</title>
<g id="a_node23"><a xlink:href="hash_8h.html" target="_top" xlink:title=" ">
<polygon fill="#ffffff" stroke="#000000" points="1271,-196 1271,-215 1396,-215 1396,-196 1271,-196"/>
<text text-anchor="middle" x="1333.5" y="-203" font-family="Helvetica,sans-Serif" font-size="10.00" fill="#000000">drake/common/hash.h</text>
</a>
</g>
</g>
<!-- Node19&#45;&gt;Node22 -->
<g id="edge38" class="edge">
<title>Node19&#45;&gt;Node22</title>
<path fill="none" stroke="#191970" d="M979.0505,-257.5254C1055.2193,-246.3455 1181.5276,-227.8062 1260.9984,-216.1416"/>
<polygon fill="#191970" stroke="#191970" points="1261.545,-219.599 1270.9307,-214.6838 1260.5284,-212.6732 1261.545,-219.599"/>
</g>
<!-- Node29 -->
<g id="node30" class="node">
<title>Node29</title>
<g id="a_node30"><a xlink:href="is__cloneable_8h.html" target="_top" xlink:title=" ">
<polygon fill="#ffffff" stroke="#000000" points="1013,-196 1013,-215 1176,-215 1176,-196 1013,-196"/>
<text text-anchor="middle" x="1094.5" y="-203" font-family="Helvetica,sans-Serif" font-size="10.00" fill="#000000">drake/common/is_cloneable.h</text>
</a>
</g>
</g>
<!-- Node19&#45;&gt;Node29 -->
<g id="edge54" class="edge">
<title>Node19&#45;&gt;Node29</title>
<path fill="none" stroke="#191970" d="M942.625,-257.3906C973.4028,-246.8749 1022.8921,-229.966 1056.9655,-218.3243"/>
<polygon fill="#191970" stroke="#191970" points="1058.2412,-221.5871 1066.5725,-215.0419 1055.978,-214.9631 1058.2412,-221.5871"/>
</g>
<!-- Node30 -->
<g id="node31" class="node">
<title>Node30</title>
<g id="a_node31"><a xlink:href="nice__type__name_8h.html" target="_top" xlink:title=" ">
<polygon fill="#ffffff" stroke="#000000" points="854.5,-190.5 854.5,-220.5 994.5,-220.5 994.5,-190.5 854.5,-190.5"/>
<text text-anchor="start" x="862.5" y="-208.5" font-family="Helvetica,sans-Serif" font-size="10.00" fill="#000000">drake/common/nice_type</text>
<text text-anchor="middle" x="924.5" y="-197.5" font-family="Helvetica,sans-Serif" font-size="10.00" fill="#000000">_name.h</text>
</a>
</g>
</g>
<!-- Node19&#45;&gt;Node30 -->
<g id="edge57" class="edge">
<title>Node19&#45;&gt;Node30</title>
<path fill="none" stroke="#191970" d="M916.0625,-257.3906C917.2279,-250.2234 918.8762,-240.0862 920.4071,-230.671"/>
<polygon fill="#191970" stroke="#191970" points="923.9033,-230.9767 922.0537,-220.5446 916.9941,-229.8532 923.9033,-230.9767"/>
</g>
<!-- Node22&#45;&gt;Node1 -->
<g id="edge42" class="edge">
<title>Node22&#45;&gt;Node1</title>
<path fill="none" stroke="#191970" d="M1270.8723,-198.7003C1244.5229,-195.9019 1213.5311,-192.6923 1185.5,-190 1002.5332,-172.4266 952.3536,-196.3919 773.5,-154 770.642,-153.3226 767.7171,-152.4742 764.8171,-151.5254"/>
<polygon fill="#191970" stroke="#191970" points="765.7812,-148.1517 755.1872,-148.0158 763.3842,-154.7285 765.7812,-148.1517"/>
</g>
<!-- Node22&#45;&gt;Node2 -->
<g id="edge46" class="edge">
<title>Node22&#45;&gt;Node2</title>
<path fill="none" stroke="#191970" d="M1396.0221,-196.5972C1411.5326,-194.4142 1428.1178,-192.1017 1443.5,-190 1564.3206,-173.4925 1597.9448,-186.4176 1715.5,-154 1717.8246,-153.3589 1720.1955,-152.5984 1722.5553,-151.7636"/>
<polygon fill="#191970" stroke="#191970" points="1724.0214,-154.948 1732.0466,-148.0309 1721.4594,-148.4337 1724.0214,-154.948"/>
</g>
<!-- Node22&#45;&gt;Node5 -->
<g id="edge48" class="edge">
<title>Node22&#45;&gt;Node5</title>
<path fill="none" stroke="#191970" d="M1309.7474,-195.8858C1287.5199,-186.4724 1253.747,-171.0861 1226.5,-154 1207.7411,-142.2367 1208.0462,-131.2537 1187.5,-123 1138.8633,-103.4619 775.5779,-80.1796 663.9985,-73.4242"/>
<polygon fill="#191970" stroke="#191970" points="664.1976,-69.9299 654.0053,-72.8227 663.7769,-76.9172 664.1976,-69.9299"/>
</g>
<!-- Node22&#45;&gt;Node8 -->
<g id="edge50" class="edge">
<title>Node22&#45;&gt;Node8</title>
<path fill="none" stroke="#191970" d="M1396.1623,-197.0805C1458.7933,-186.1856 1540.936,-163.5999 1504.5,-123 1478.0278,-93.5026 1226.3202,-79.3442 1100.4495,-74.0627"/>
<polygon fill="#191970" stroke="#191970" points="1100.2756,-70.5526 1090.1401,-73.6381 1099.9876,-77.5467 1100.2756,-70.5526"/>
</g>
<!-- Node22&#45;&gt;Node9 -->
<g id="edge47" class="edge">
<title>Node22&#45;&gt;Node9</title>
<path fill="none" stroke="#191970" d="M1372.2047,-195.9968C1381.7454,-193.8427 1391.9626,-191.6938 1401.5,-190 1463.4849,-178.9916 1640.9087,-201.2596 1682.5,-154 1763.7562,-61.6696 1515.5819,-25.1408 1410.3213,-14.0379"/>
<polygon fill="#191970" stroke="#191970" points="1410.6031,-10.5486 1400.2987,-13.0122 1409.8904,-17.5122 1410.6031,-10.5486"/>
</g>
<!-- Node22&#45;&gt;Node12 -->
<g id="edge45" class="edge">
<title>Node22&#45;&gt;Node12</title>
<path fill="none" stroke="#191970" d="M1303.9079,-195.9116C1275.0778,-186.2861 1230.2052,-170.5469 1192.5,-154 1190.913,-153.3036 1189.2925,-152.5613 1187.6673,-151.793"/>
<polygon fill="#191970" stroke="#191970" points="1189.0236,-148.5588 1178.5103,-147.2472 1185.9111,-154.8287 1189.0236,-148.5588"/>
</g>
<!-- Node22&#45;&gt;Node16 -->
<g id="edge40" class="edge">
<title>Node22&#45;&gt;Node16</title>
<path fill="none" stroke="#191970" d="M1270.7793,-196.4763C1196.5789,-185.4893 1077.6742,-166.8164 1034.5,-154 1032.3269,-153.3549 1030.1098,-152.6153 1027.8969,-151.8165"/>
<polygon fill="#191970" stroke="#191970" points="1028.9582,-148.4725 1018.3719,-148.0472 1026.3824,-154.9814 1028.9582,-148.4725"/>
</g>
<!-- Node23 -->
<g id="node24" class="node">
<title>Node23</title>
<g id="a_node24"><a xlink:title=" ">
<polygon fill="#ffffff" stroke="#bfbfbf" points="1235,-129 1235,-148 1282,-148 1282,-129 1235,-129"/>
<text text-anchor="middle" x="1258.5" y="-136" font-family="Helvetica,sans-Serif" font-size="10.00" fill="#000000">cmath</text>
</a>
</g>
</g>
<!-- Node22&#45;&gt;Node23 -->
<g id="edge39" class="edge">
<title>Node22&#45;&gt;Node23</title>
<path fill="none" stroke="#191970" d="M1322.7543,-195.9005C1310.836,-185.2535 1291.3943,-167.8856 1277.0132,-155.0385"/>
<polygon fill="#191970" stroke="#191970" points="1279.0151,-152.1337 1269.2257,-148.0817 1274.3516,-157.354 1279.0151,-152.1337"/>
</g>
<!-- Node24 -->
<g id="node25" class="node">
<title>Node24</title>
<g id="a_node25"><a xlink:title=" ">
<polygon fill="#ffffff" stroke="#bfbfbf" points="1300,-129 1300,-148 1365,-148 1365,-129 1300,-129"/>
<text text-anchor="middle" x="1332.5" y="-136" font-family="Helvetica,sans-Serif" font-size="10.00" fill="#000000">functional</text>
</a>
</g>
</g>
<!-- Node22&#45;&gt;Node24 -->
<g id="edge41" class="edge">
<title>Node22&#45;&gt;Node24</title>
<path fill="none" stroke="#191970" d="M1333.3567,-195.9005C1333.2112,-186.149 1332.9815,-170.7597 1332.7966,-158.3695"/>
<polygon fill="#191970" stroke="#191970" points="1336.292,-158.0283 1332.643,-148.0817 1329.2927,-158.1328 1336.292,-158.0283"/>
</g>
<!-- Node25 -->
<g id="node26" class="node">
<title>Node25</title>
<g id="a_node26"><a xlink:title=" ">
<polygon fill="#ffffff" stroke="#bfbfbf" points="1383.5,-129 1383.5,-148 1421.5,-148 1421.5,-129 1383.5,-129"/>
<text text-anchor="middle" x="1402.5" y="-136" font-family="Helvetica,sans-Serif" font-size="10.00" fill="#000000">map</text>
</a>
</g>
</g>
<!-- Node22&#45;&gt;Node25 -->
<g id="edge43" class="edge">
<title>Node22&#45;&gt;Node25</title>
<path fill="none" stroke="#191970" d="M1343.386,-195.9005C1354.2484,-185.353 1371.9035,-168.2096 1385.0957,-155.3998"/>
<polygon fill="#191970" stroke="#191970" points="1387.8962,-157.559 1392.6323,-148.0817 1383.0198,-152.537 1387.8962,-157.559"/>
</g>
<!-- Node26 -->
<g id="node27" class="node">
<title>Node26</title>
<g id="a_node27"><a xlink:title=" ">
<polygon fill="#ffffff" stroke="#bfbfbf" points="1439.5,-129 1439.5,-148 1495.5,-148 1495.5,-129 1439.5,-129"/>
<text text-anchor="middle" x="1467.5" y="-136" font-family="Helvetica,sans-Serif" font-size="10.00" fill="#000000">optional</text>
</a>
</g>
</g>
<!-- Node22&#45;&gt;Node26 -->
<g id="edge44" class="edge">
<title>Node22&#45;&gt;Node26</title>
<path fill="none" stroke="#191970" d="M1352.6989,-195.9005C1375.3862,-184.5569 1413.3313,-165.5844 1439.3435,-152.5783"/>
<polygon fill="#191970" stroke="#191970" points="1440.9577,-155.6843 1448.3367,-148.0817 1437.8271,-149.4234 1440.9577,-155.6843"/>
</g>
<!-- Node27 -->
<g id="node28" class="node">
<title>Node27</title>
<g id="a_node28"><a xlink:title=" ">
<polygon fill="#ffffff" stroke="#bfbfbf" points="1043,-129 1043,-148 1090,-148 1090,-129 1043,-129"/>
<text text-anchor="middle" x="1066.5" y="-136" font-family="Helvetica,sans-Serif" font-size="10.00" fill="#000000">vector</text>
</a>
</g>
</g>
<!-- Node22&#45;&gt;Node27 -->
<g id="edge49" class="edge">
<title>Node22&#45;&gt;Node27</title>
<path fill="none" stroke="#191970" d="M1295.529,-195.9717C1243.2427,-182.8512 1149.9011,-159.4284 1100.0527,-146.9196"/>
<polygon fill="#191970" stroke="#191970" points="1100.6573,-143.4629 1090.1061,-144.4236 1098.9535,-150.2524 1100.6573,-143.4629"/>
</g>
<!-- Node28 -->
<g id="node29" class="node">
<title>Node28</title>
<g id="a_node29"><a xlink:href="drake__throw_8h.html" target="_top" xlink:title="Provides a convenient wrapper to throw an exception when a condition is unmet.">
<polygon fill="#ffffff" stroke="#000000" points="1552,-123.5 1552,-153.5 1673,-153.5 1673,-123.5 1552,-123.5"/>
<text text-anchor="start" x="1560" y="-141.5" font-family="Helvetica,sans-Serif" font-size="10.00" fill="#000000">drake/common/drake</text>
<text text-anchor="middle" x="1612.5" y="-130.5" font-family="Helvetica,sans-Serif" font-size="10.00" fill="#000000">_throw.h</text>
</a>
</g>
</g>
<!-- Node22&#45;&gt;Node28 -->
<g id="edge51" class="edge">
<title>Node22&#45;&gt;Node28</title>
<path fill="none" stroke="#191970" d="M1373.1776,-195.9717C1417.0823,-185.4283 1488.6901,-168.2321 1542.1555,-155.3928"/>
<polygon fill="#191970" stroke="#191970" points="1543.0106,-158.787 1551.9168,-153.0486 1541.376,-151.9805 1543.0106,-158.787"/>
</g>
<!-- Node28&#45;&gt;Node8 -->
<g id="edge53" class="edge">
<title>Node28&#45;&gt;Node8</title>
<path fill="none" stroke="#191970" d="M1551.6061,-125.3696C1546.8435,-124.5096 1542.0996,-123.7065 1537.5,-123 1382.4264,-99.1797 1198.9655,-83.6805 1100.4891,-76.3821"/>
<polygon fill="#191970" stroke="#191970" points="1100.5879,-72.88 1090.3584,-75.638 1100.0751,-79.8612 1100.5879,-72.88"/>
</g>
<!-- Node28&#45;&gt;Node9 -->
<g id="edge52" class="edge">
<title>Node28&#45;&gt;Node9</title>
<path fill="none" stroke="#191970" d="M1583.1959,-123.2548C1535.0164,-98.1897 1439.7474,-48.6267 1392.8657,-24.2368"/>
<polygon fill="#191970" stroke="#191970" points="1394.383,-21.0809 1383.8964,-19.5706 1391.1523,-27.2908 1394.383,-21.0809"/>
</g>
<!-- Node29&#45;&gt;Node9 -->
<g id="edge56" class="edge">
<title>Node29&#45;&gt;Node9</title>
<path fill="none" stroke="#191970" d="M1097.3139,-195.8953C1102.6494,-179.1506 1115.696,-144.365 1137.5,-123 1190.3049,-71.2584 1271.4999,-38.8768 1321.4047,-22.6539"/>
<polygon fill="#191970" stroke="#191970" points="1322.4783,-25.9853 1330.9507,-19.6239 1320.3604,-19.3134 1322.4783,-25.9853"/>
</g>
<!-- Node29&#45;&gt;Node11 -->
<g id="edge55" class="edge">
<title>Node29&#45;&gt;Node11</title>
<path fill="none" stroke="#191970" d="M1054.2535,-195.9717C1000.0632,-183.1422 904.266,-160.4623 850.6459,-147.7678"/>
<polygon fill="#191970" stroke="#191970" points="851.3639,-144.3411 840.8266,-145.443 849.7512,-151.1528 851.3639,-144.3411"/>
</g>
<!-- Node30&#45;&gt;Node2 -->
<g id="edge59" class="edge">
<title>Node30&#45;&gt;Node2</title>
<path fill="none" stroke="#191970" d="M994.6528,-191.3387C997.9754,-190.8472 1001.2704,-190.3967 1004.5,-190 1304.0071,-153.213 1383.57,-195.2142 1682.5,-154 1694.6056,-152.331 1707.7282,-149.6168 1719.247,-146.9224"/>
<polygon fill="#191970" stroke="#191970" points="1720.4063,-150.2428 1729.2994,-144.4841 1718.7562,-143.44 1720.4063,-150.2428"/>
</g>
<!-- Node30&#45;&gt;Node5 -->
<g id="edge61" class="edge">
<title>Node30&#45;&gt;Node5</title>
<path fill="none" stroke="#191970" d="M915.0589,-190.468C902.4591,-171.7 878.351,-140.0007 849.5,-123 790.2555,-88.0897 708.8472,-76.8355 664.1583,-73.2135"/>
<polygon fill="#191970" stroke="#191970" points="664.3774,-69.7202 654.1487,-72.4812 663.8666,-76.7016 664.3774,-69.7202"/>
</g>
<!-- Node30&#45;&gt;Node11 -->
<g id="edge58" class="edge">
<title>Node30&#45;&gt;Node11</title>
<path fill="none" stroke="#191970" d="M899.1406,-190.4639C880.4369,-179.3741 855.1119,-164.3584 836.495,-153.32"/>
<polygon fill="#191970" stroke="#191970" points="838.0844,-150.1935 827.6977,-148.1039 834.5143,-156.2147 838.0844,-150.1935"/>
</g>
<!-- Node30&#45;&gt;Node17 -->
<g id="edge63" class="edge">
<title>Node30&#45;&gt;Node17</title>
<path fill="none" stroke="#191970" d="M854.4402,-194.1344C778.5643,-181.8252 658.2043,-162.2995 582.113,-149.9554"/>
<polygon fill="#191970" stroke="#191970" points="582.5712,-146.484 572.1397,-148.3374 581.4502,-153.3937 582.5712,-146.484"/>
</g>
<!-- Node30&#45;&gt;Node21 -->
<g id="edge60" class="edge">
<title>Node30&#45;&gt;Node21</title>
<path fill="none" stroke="#191970" d="M924.7269,-190.2967C924.8691,-180.7699 925.0538,-168.3954 925.207,-158.1306"/>
<polygon fill="#191970" stroke="#191970" points="928.7077,-158.1061 925.3574,-148.055 921.7084,-158.0016 928.7077,-158.1061"/>
</g>
<!-- Node30&#45;&gt;Node27 -->
<g id="edge62" class="edge">
<title>Node30&#45;&gt;Node27</title>
<path fill="none" stroke="#191970" d="M957.2834,-190.2892C979.1819,-180.0948 1008.6086,-166.3309 1034.5,-154 1035.5032,-153.5222 1036.5235,-153.035 1037.5536,-152.5421"/>
<polygon fill="#191970" stroke="#191970" points="1039.3956,-155.5398 1046.8888,-148.0497 1036.3602,-149.2322 1039.3956,-155.5398"/>
</g>
<!-- Node31&#45;&gt;Node3 -->
<g id="edge67" class="edge">
<title>Node31&#45;&gt;Node3</title>
<path fill="none" stroke="#191970" d="M417.8982,-257.4854C396.2717,-250.767 371.9818,-239.535 356.5,-221 326.8881,-185.5482 321.7992,-129.4612 321.5932,-97.0068"/>
<polygon fill="#191970" stroke="#191970" points="325.097,-96.6182 321.6918,-86.5855 318.0973,-96.5519 325.097,-96.6182"/>
</g>
<!-- Node31&#45;&gt;Node20 -->
<g id="edge65" class="edge">
<title>Node31&#45;&gt;Node20</title>
<path fill="none" stroke="#191970" d="M469.3438,-257.3906C473.7766,-248.5965 480.4631,-235.3312 485.9659,-224.4145"/>
<polygon fill="#191970" stroke="#191970" points="489.2122,-225.75 490.588,-215.2449 482.9614,-222.5992 489.2122,-225.75"/>
</g>
<!-- Node32 -->
<g id="node33" class="node">
<title>Node32</title>
<g id="a_node33"><a xlink:title=" ">
<polygon fill="#ffffff" stroke="#bfbfbf" points="366,-196 366,-215 445,-215 445,-196 366,-196"/>
<text text-anchor="middle" x="405.5" y="-203" font-family="Helvetica,sans-Serif" font-size="10.00" fill="#000000">fmt/format.h</text>
</a>
</g>
</g>
<!-- Node31&#45;&gt;Node32 -->
<g id="edge66" class="edge">
<title>Node31&#45;&gt;Node32</title>
<path fill="none" stroke="#191970" d="M455.2813,-257.3906C446.4142,-248.1478 432.8088,-233.966 422.0611,-222.7628"/>
<polygon fill="#191970" stroke="#191970" points="424.2973,-220.0381 414.8487,-215.2449 419.2459,-224.8841 424.2973,-220.0381"/>
</g>
</g>
</svg>
        <g id="navigator" transform="translate(0 0)" fill="#404254">
                <rect fill="#f2f5e9" fill-opacity="0.5" stroke="#606060" stroke-width=".5" x="0" y="0" width="60" height="60"/>
                <use id="zoomplus" xlink:href="#zoomPlus" x="17" y="9" onmousedown="handleZoom(evt,'in')"/>
                <use id="zoomminus" xlink:href="#zoomMin" x="42" y="9" onmousedown="handleZoom(evt,'out')"/>
                <use id="reset" xlink:href="#resetDef" x="30" y="36" onmousedown="handleReset()"/>
                <g id="arrowUp" xlink:href="#dirArrow" transform="translate(30 24)" onmousedown="handlePan(0,-1)">
                  <use xlink:href="#rim" fill="#404040">
                        <set attributeName="fill" to="#808080" begin="arrowUp.mouseover" end="arrowUp.mouseout"/>
                  </use>
                  <path fill="none" stroke="white" stroke-width="1.5" d="M0,-3.0v7 M-2.5,-0.5L0,-3.0L2.5,-0.5"/>
                </g>
                <g id="arrowRight" xlink:href="#dirArrow" transform="rotate(90) translate(36 -43)" onmousedown="handlePan(1,0)">
                  <use xlink:href="#rim" fill="#404040">
                        <set attributeName="fill" to="#808080" begin="arrowRight.mouseover" end="arrowRight.mouseout"/>
                  </use>
                  <path fill="none" stroke="white" stroke-width="1.5" d="M0,-3.0v7 M-2.5,-0.5L0,-3.0L2.5,-0.5"/>
                </g>
                <g id="arrowDown" xlink:href="#dirArrow" transform="rotate(180) translate(-30 -48)" onmousedown="handlePan(0,1)">
                  <use xlink:href="#rim" fill="#404040">
                        <set attributeName="fill" to="#808080" begin="arrowDown.mouseover" end="arrowDown.mouseout"/>
                  </use>
                  <path fill="none" stroke="white" stroke-width="1.5" d="M0,-3.0v7 M-2.5,-0.5L0,-3.0L2.5,-0.5"/>
                </g>
                <g id="arrowLeft" xlink:href="#dirArrow" transform="rotate(270) translate(-36 17)" onmousedown="handlePan(-1,0)">
                  <use xlink:href="#rim" fill="#404040">
                        <set attributeName="fill" to="#808080" begin="arrowLeft.mouseover" end="arrowLeft.mouseout"/>
                  </use>
                  <path fill="none" stroke="white" stroke-width="1.5" d="M0,-3.0v7 M-2.5,-0.5L0,-3.0L2.5,-0.5"/>
                </g>
        </g>
        <svg viewBox="0 0 15 15" width="100%" height="30px" preserveAspectRatio="xMaxYMin meet">
         <g id="arrow_out" transform="scale(0.3 0.3)">
          <a xlink:href="geometry__roles_8h__incl_org.svg" target="_base">
           <rect id="button" ry="5" rx="5" y="6" x="6" height="38" width="38"
                fill="#f2f5e9" fill-opacity="0.5" stroke="#606060" stroke-width="1.0"/>
           <path id="arrow"
             d="M 11.500037,31.436501 C 11.940474,20.09759 22.043105,11.32322 32.158766,21.979434 L 37.068811,17.246167 C 37.068811,17.246167 37.088388,32 37.088388,32 L 22.160133,31.978069 C 22.160133,31.978069 26.997745,27.140456 26.997745,27.140456 C 18.528582,18.264221 13.291696,25.230495 11.500037,31.436501 z"
             style="fill:#404040;"/>
          </a>
         </g>
        </svg>
</svg>
