<?xml version="1.0" encoding="UTF-8" standalone="no"?>
<!DOCTYPE svg PUBLIC "-//W3C//DTD SVG 1.1//EN"
 "http://www.w3.org/Graphics/SVG/1.1/DTD/svg11.dtd">
<!-- Generated by graphviz version 2.40.1 (20161225.0304)
 -->
<!-- Title: drake/geometry/geometry_frame.h Pages: 1 -->
<!--zoomable 419 -->
<svg id="main" version="1.1" xmlns="http://www.w3.org/2000/svg" xmlns:xlink="http://www.w3.org/1999/xlink" xml:space="preserve" onload="init(evt)">
<style type="text/css"><![CDATA[
.edge:hover path { stroke: red; }
.edge:hover polygon { stroke: red; fill: red; }
]]></style>
<script type="text/javascript"><![CDATA[
var edges = document.getElementsByTagName('g');
if (edges && edges.length) {
  for (var i=0;i<edges.length;i++) {
    if (edges[i].id.substr(0,4)=='edge') {
      edges[i].setAttribute('class','edge');
    }
  }
}
]]></script>
        <defs>
                <circle id="rim" cx="0" cy="0" r="7"/>
                <circle id="rim2" cx="0" cy="0" r="3.5"/>
                <g id="zoomPlus">
                        <use xlink:href="#rim" fill="#404040">
                                <set attributeName="fill" to="#808080" begin="zoomplus.mouseover" end="zoomplus.mouseout"/>
                        </use>
                        <path d="M-4,0h8M0,-4v8" fill="none" stroke="white" stroke-width="1.5" pointer-events="none"/>
                </g>
                <g id="zoomMin">
                        <use xlink:href="#rim" fill="#404040">
                                <set attributeName="fill" to="#808080" begin="zoomminus.mouseover" end="zoomminus.mouseout"/>
                        </use>
                        <path d="M-4,0h8" fill="none" stroke="white" stroke-width="1.5" pointer-events="none"/>
                </g>
                <g id="dirArrow">
                        <path fill="none" stroke="white" stroke-width="1.5" d="M0,-3.0v7 M-2.5,-0.5L0,-3.0L2.5,-0.5"/>
                </g>
               <g id="resetDef">
                       <use xlink:href="#rim2" fill="#404040">
                               <set attributeName="fill" to="#808080" begin="reset.mouseover" end="reset.mouseout"/>
                       </use>
               </g>
        </defs>

<script type="text/javascript">
var viewWidth = 1436;
var viewHeight = 419;
var sectionId = 'dynsection-0';
</script>
<script xlink:href="svgpan.js"/>
<svg id="graph" class="graph">
<g id="viewport">
<title>drake/geometry/geometry_frame.h</title>
<polygon fill="#ffffff" stroke="transparent" points="-4,4 -4,-415 1432,-415 1432,4 -4,4"/>
<!-- Node0 -->
<g id="node1" class="node">
<title>Node0</title>
<g id="a_node1"><a xlink:title=" ">
<polygon fill="#bfbfbf" stroke="#000000" points="359.5,-380.5 359.5,-410.5 504.5,-410.5 504.5,-380.5 359.5,-380.5"/>
<text text-anchor="start" x="367.5" y="-398.5" font-family="Helvetica,sans-Serif" font-size="10.00" fill="#000000">drake/geometry/geometry</text>
<text text-anchor="middle" x="432" y="-387.5" font-family="Helvetica,sans-Serif" font-size="10.00" fill="#000000">_frame.h</text>
</a>
</g>
</g>
<!-- Node1 -->
<g id="node2" class="node">
<title>Node1</title>
<g id="a_node2"><a xlink:title=" ">
<polygon fill="#ffffff" stroke="#bfbfbf" points="1384,-129 1384,-148 1428,-148 1428,-129 1384,-129"/>
<text text-anchor="middle" x="1406" y="-136" font-family="Helvetica,sans-Serif" font-size="10.00" fill="#000000">string</text>
</a>
</g>
</g>
<!-- Node0&#45;&gt;Node1 -->
<g id="edge1" class="edge">
<title>Node0&#45;&gt;Node1</title>
<path fill="none" stroke="#191970" d="M504.5302,-383.4577C642.0268,-359.6542 949.2015,-301.8 1199,-221 1263.0995,-200.2663 1335.7774,-169.5654 1375.7023,-152.0516"/>
<polygon fill="#191970" stroke="#191970" points="1377.1493,-155.2387 1384.8869,-148.0013 1374.3248,-148.8339 1377.1493,-155.2387"/>
</g>
<!-- Node2 -->
<g id="node3" class="node">
<title>Node2</title>
<g id="a_node3"><a xlink:title=" ">
<polygon fill="#ffffff" stroke="#bfbfbf" points="582.5,-.5 582.5,-19.5 651.5,-19.5 651.5,-.5 582.5,-.5"/>
<text text-anchor="middle" x="617" y="-7.5" font-family="Helvetica,sans-Serif" font-size="10.00" fill="#000000">type_traits</text>
</a>
</g>
</g>
<!-- Node0&#45;&gt;Node2 -->
<g id="edge2" class="edge">
<title>Node0&#45;&gt;Node2</title>
<path fill="none" stroke="#191970" d="M359.2056,-388.9486C236.0889,-375.8372 0,-341.0418 0,-267 0,-267 0,-267 0,-138.5 0,-80.057 429.7586,-29.6611 571.937,-14.5876"/>
<polygon fill="#191970" stroke="#191970" points="572.4806,-18.0498 582.0596,-13.5227 571.7483,-11.0882 572.4806,-18.0498"/>
</g>
<!-- Node3 -->
<g id="node4" class="node">
<title>Node3</title>
<g id="a_node4"><a xlink:href="drake__copyable_8h.html" target="_top" xlink:title="Provides careful macros to selectively enable or disable the special member functions for copy&#45;constr...">
<polygon fill="#ffffff" stroke="#000000" points="328.5,-123.5 328.5,-153.5 449.5,-153.5 449.5,-123.5 328.5,-123.5"/>
<text text-anchor="start" x="336.5" y="-141.5" font-family="Helvetica,sans-Serif" font-size="10.00" fill="#000000">drake/common/drake</text>
<text text-anchor="middle" x="389" y="-130.5" font-family="Helvetica,sans-Serif" font-size="10.00" fill="#000000">_copyable.h</text>
</a>
</g>
</g>
<!-- Node0&#45;&gt;Node3 -->
<g id="edge3" class="edge">
<title>Node0&#45;&gt;Node3</title>
<path fill="none" stroke="#191970" d="M422.7955,-380.3053C417.2312,-370.3453 410.5478,-356.8367 407,-344 389.5525,-280.8714 387.8471,-203.066 388.2963,-163.7688"/>
<polygon fill="#191970" stroke="#191970" points="391.7999,-163.5883 388.474,-153.5291 384.8009,-163.4668 391.7999,-163.5883"/>
</g>
<!-- Node4 -->
<g id="node5" class="node">
<title>Node4</title>
<g id="a_node5"><a xlink:href="drake__deprecated_8h.html" target="_top" xlink:title="Provides a portable macro for use in generating compile&#45;time warnings for use of code that is permitt...">
<polygon fill="#ffffff" stroke="#000000" points="416.5,-313.5 416.5,-343.5 537.5,-343.5 537.5,-313.5 416.5,-313.5"/>
<text text-anchor="start" x="424.5" y="-331.5" font-family="Helvetica,sans-Serif" font-size="10.00" fill="#000000">drake/common/drake</text>
<text text-anchor="middle" x="477" y="-320.5" font-family="Helvetica,sans-Serif" font-size="10.00" fill="#000000">_deprecated.h</text>
</a>
</g>
</g>
<!-- Node0&#45;&gt;Node4 -->
<g id="edge4" class="edge">
<title>Node0&#45;&gt;Node4</title>
<path fill="none" stroke="#191970" d="M442.2112,-380.2967C447.7921,-371.9873 454.8281,-361.5115 461.1098,-352.1587"/>
<polygon fill="#191970" stroke="#191970" points="464.1591,-353.896 466.8292,-343.6432 458.3481,-349.9931 464.1591,-353.896"/>
</g>
<!-- Node5 -->
<g id="node6" class="node">
<title>Node5</title>
<g id="a_node6"><a xlink:href="eigen__types_8h.html" target="_top" xlink:title="This file contains abbreviated definitions for certain specializations of Eigen::Matrix that are comm...">
<polygon fill="#ffffff" stroke="#000000" points="240,-190.5 240,-220.5 360,-220.5 360,-190.5 240,-190.5"/>
<text text-anchor="start" x="248" y="-208.5" font-family="Helvetica,sans-Serif" font-size="10.00" fill="#000000">drake/common/eigen</text>
<text text-anchor="middle" x="300" y="-197.5" font-family="Helvetica,sans-Serif" font-size="10.00" fill="#000000">_types.h</text>
</a>
</g>
</g>
<!-- Node0&#45;&gt;Node5 -->
<g id="edge5" class="edge">
<title>Node0&#45;&gt;Node5</title>
<path fill="none" stroke="#191970" d="M411.557,-380.3437C399.6266,-370.8122 384.8393,-357.7465 374,-344 345.4614,-307.8071 322.3425,-259.0123 309.9318,-230.0461"/>
<polygon fill="#191970" stroke="#191970" points="313.0973,-228.5443 305.9973,-220.6805 306.6437,-231.2556 313.0973,-228.5443"/>
</g>
<!-- Node10 -->
<g id="node11" class="node">
<title>Node10</title>
<g id="a_node11"><a xlink:href="geometry__ids_8h.html" target="_top" xlink:title=" ">
<polygon fill="#ffffff" stroke="#000000" points="555.5,-313.5 555.5,-343.5 700.5,-343.5 700.5,-313.5 555.5,-313.5"/>
<text text-anchor="start" x="563.5" y="-331.5" font-family="Helvetica,sans-Serif" font-size="10.00" fill="#000000">drake/geometry/geometry</text>
<text text-anchor="middle" x="628" y="-320.5" font-family="Helvetica,sans-Serif" font-size="10.00" fill="#000000">_ids.h</text>
</a>
</g>
</g>
<!-- Node0&#45;&gt;Node10 -->
<g id="edge12" class="edge">
<title>Node0&#45;&gt;Node10</title>
<path fill="none" stroke="#191970" d="M475.9862,-380.4639C505.0117,-370.5419 543.2303,-357.4774 574.0842,-346.9304"/>
<polygon fill="#191970" stroke="#191970" points="575.4916,-350.1482 583.8219,-343.6017 573.2274,-343.5245 575.4916,-350.1482"/>
</g>
<!-- Node5&#45;&gt;Node3 -->
<g id="edge11" class="edge">
<title>Node5&#45;&gt;Node3</title>
<path fill="none" stroke="#191970" d="M320.1955,-190.2967C332.1436,-181.302 347.4639,-169.7687 360.6138,-159.8694"/>
<polygon fill="#191970" stroke="#191970" points="363.0002,-162.4538 368.8844,-153.6432 358.7902,-156.8613 363.0002,-162.4538"/>
</g>
<!-- Node6 -->
<g id="node7" class="node">
<title>Node6</title>
<g id="a_node7"><a xlink:title=" ">
<polygon fill="#ffffff" stroke="#bfbfbf" points="1021.5,-129 1021.5,-148 1066.5,-148 1066.5,-129 1021.5,-129"/>
<text text-anchor="middle" x="1044" y="-136" font-family="Helvetica,sans-Serif" font-size="10.00" fill="#000000">utility</text>
</a>
</g>
</g>
<!-- Node5&#45;&gt;Node6 -->
<g id="edge6" class="edge">
<title>Node5&#45;&gt;Node6</title>
<path fill="none" stroke="#191970" d="M360.1123,-201.7975C526.2911,-191.4769 981.7334,-162.5819 1013,-154 1014.7154,-153.5292 1016.448,-152.9604 1018.171,-152.3225"/>
<polygon fill="#191970" stroke="#191970" points="1019.9991,-155.3423 1027.7466,-148.1156 1017.1834,-148.9336 1019.9991,-155.3423"/>
</g>
<!-- Node7 -->
<g id="node8" class="node">
<title>Node7</title>
<g id="a_node8"><a xlink:title=" ">
<polygon fill="#ffffff" stroke="#bfbfbf" points="28.5,-129 28.5,-148 105.5,-148 105.5,-129 28.5,-129"/>
<text text-anchor="middle" x="67" y="-136" font-family="Helvetica,sans-Serif" font-size="10.00" fill="#000000">Eigen/Dense</text>
</a>
</g>
</g>
<!-- Node5&#45;&gt;Node7 -->
<g id="edge7" class="edge">
<title>Node5&#45;&gt;Node7</title>
<path fill="none" stroke="#191970" d="M242.8099,-190.4338C205.9154,-180.5251 156.968,-167.0253 114,-154 111.0527,-153.1066 108.0094,-152.1595 104.9547,-151.1912"/>
<polygon fill="#191970" stroke="#191970" points="105.8543,-147.8039 95.2627,-148.0665 103.7063,-154.4662 105.8543,-147.8039"/>
</g>
<!-- Node8 -->
<g id="node9" class="node">
<title>Node8</title>
<g id="a_node9"><a xlink:href="constants_8h.html" target="_top" xlink:title=" ">
<polygon fill="#ffffff" stroke="#000000" points="123.5,-129 123.5,-148 272.5,-148 272.5,-129 123.5,-129"/>
<text text-anchor="middle" x="198" y="-136" font-family="Helvetica,sans-Serif" font-size="10.00" fill="#000000">drake/common/constants.h</text>
</a>
</g>
</g>
<!-- Node5&#45;&gt;Node8 -->
<g id="edge8" class="edge">
<title>Node5&#45;&gt;Node8</title>
<path fill="none" stroke="#191970" d="M277.1092,-190.4639C260.4575,-179.526 237.9917,-164.769 221.2558,-153.7759"/>
<polygon fill="#191970" stroke="#191970" points="222.9006,-150.6688 212.6209,-148.1039 219.0575,-156.5195 222.9006,-150.6688"/>
</g>
<!-- Node9 -->
<g id="node10" class="node">
<title>Node9</title>
<g id="a_node10"><a xlink:href="drake__assert_8h.html" target="_top" xlink:title="Provides Drake&#39;s assertion implementation.">
<polygon fill="#ffffff" stroke="#000000" points="467.5,-56.5 467.5,-86.5 588.5,-86.5 588.5,-56.5 467.5,-56.5"/>
<text text-anchor="start" x="475.5" y="-74.5" font-family="Helvetica,sans-Serif" font-size="10.00" fill="#000000">drake/common/drake</text>
<text text-anchor="middle" x="528" y="-63.5" font-family="Helvetica,sans-Serif" font-size="10.00" fill="#000000">_assert.h</text>
</a>
</g>
</g>
<!-- Node5&#45;&gt;Node9 -->
<g id="edge9" class="edge">
<title>Node5&#45;&gt;Node9</title>
<path fill="none" stroke="#191970" d="M299.0648,-190.4995C298.7818,-172.0619 301.2609,-141.0116 319,-123 338.3075,-103.3959 404.5587,-89.3047 457.358,-80.8708"/>
<polygon fill="#191970" stroke="#191970" points="458.04,-84.3069 467.3828,-79.3107 456.9635,-77.3902 458.04,-84.3069"/>
</g>
<!-- Node9&#45;&gt;Node2 -->
<g id="edge10" class="edge">
<title>Node9&#45;&gt;Node2</title>
<path fill="none" stroke="#191970" d="M550,-56.2977C563.5968,-46.9022 580.9966,-34.8787 594.6567,-25.4395"/>
<polygon fill="#191970" stroke="#191970" points="596.7785,-28.2276 603.0158,-19.6633 592.7991,-22.4688 596.7785,-28.2276"/>
</g>
<!-- Node10&#45;&gt;Node3 -->
<g id="edge13" class="edge">
<title>Node10&#45;&gt;Node3</title>
<path fill="none" stroke="#191970" d="M608.8456,-313.2727C566.4375,-279.5591 464.5267,-198.5422 415.8124,-159.8153"/>
<polygon fill="#191970" stroke="#191970" points="417.9197,-157.0193 407.9138,-153.5361 413.5636,-162.4988 417.9197,-157.0193"/>
</g>
<!-- Node11 -->
<g id="node12" class="node">
<title>Node11</title>
<g id="a_node12"><a xlink:href="identifier_8h.html" target="_top" xlink:title=" ">
<polygon fill="#ffffff" stroke="#000000" points="629,-257.5 629,-276.5 775,-276.5 775,-257.5 629,-257.5"/>
<text text-anchor="middle" x="702" y="-264.5" font-family="Helvetica,sans-Serif" font-size="10.00" fill="#000000">drake/common/identifier.h</text>
</a>
</g>
</g>
<!-- Node10&#45;&gt;Node11 -->
<g id="edge14" class="edge">
<title>Node10&#45;&gt;Node11</title>
<path fill="none" stroke="#191970" d="M646.2921,-313.2977C657.2061,-304.2274 671.0671,-292.7077 682.2324,-283.4285"/>
<polygon fill="#191970" stroke="#191970" points="684.698,-285.9303 690.1517,-276.8469 680.2238,-280.5468 684.698,-285.9303"/>
</g>
<!-- Node11&#45;&gt;Node1 -->
<g id="edge18" class="edge">
<title>Node11&#45;&gt;Node1</title>
<path fill="none" stroke="#191970" d="M775.0319,-262.057C857.7556,-255.7159 996.3569,-242.8433 1114,-221 1229.6336,-199.5298 1258.7846,-192.2522 1370,-154 1371.8822,-153.3526 1373.8042,-152.6509 1375.7324,-151.9155"/>
<polygon fill="#191970" stroke="#191970" points="1377.3123,-155.052 1385.2691,-148.0563 1374.6864,-148.5632 1377.3123,-155.052"/>
</g>
<!-- Node11&#45;&gt;Node3 -->
<g id="edge19" class="edge">
<title>Node11&#45;&gt;Node3</title>
<path fill="none" stroke="#191970" d="M702.7228,-257.2974C703.3671,-240.8375 702.0499,-207.5263 683,-190 647.7737,-157.5911 522.52,-162.8225 459.7708,-154.0045"/>
<polygon fill="#191970" stroke="#191970" points="459.9727,-150.4908 449.5375,-152.3231 458.8377,-157.3982 459.9727,-150.4908"/>
</g>
<!-- Node12 -->
<g id="node13" class="node">
<title>Node12</title>
<g id="a_node13"><a xlink:title=" ">
<polygon fill="#ffffff" stroke="#bfbfbf" points="556,-196 556,-215 606,-215 606,-196 556,-196"/>
<text text-anchor="middle" x="581" y="-203" font-family="Helvetica,sans-Serif" font-size="10.00" fill="#000000">atomic</text>
</a>
</g>
</g>
<!-- Node11&#45;&gt;Node12 -->
<g id="edge15" class="edge">
<title>Node11&#45;&gt;Node12</title>
<path fill="none" stroke="#191970" d="M683.0938,-257.3906C663.2034,-247.2811 631.6877,-231.2628 608.9308,-219.6962"/>
<polygon fill="#191970" stroke="#191970" points="610.274,-216.4528 599.7735,-215.0419 607.1022,-222.693 610.274,-216.4528"/>
</g>
<!-- Node13 -->
<g id="node14" class="node">
<title>Node13</title>
<g id="a_node14"><a xlink:title=" ">
<polygon fill="#ffffff" stroke="#bfbfbf" points="624,-196 624,-215 674,-215 674,-196 624,-196"/>
<text text-anchor="middle" x="649" y="-203" font-family="Helvetica,sans-Serif" font-size="10.00" fill="#000000">cstdint</text>
</a>
</g>
</g>
<!-- Node11&#45;&gt;Node13 -->
<g id="edge16" class="edge">
<title>Node11&#45;&gt;Node13</title>
<path fill="none" stroke="#191970" d="M693.7188,-257.3906C685.8307,-248.2376 673.7686,-234.2409 664.1588,-223.09"/>
<polygon fill="#191970" stroke="#191970" points="666.5775,-220.5352 657.398,-215.2449 661.2749,-225.1049 666.5775,-220.5352"/>
</g>
<!-- Node14 -->
<g id="node15" class="node">
<title>Node14</title>
<g id="a_node15"><a xlink:title=" ">
<polygon fill="#ffffff" stroke="#bfbfbf" points="606.5,-129 606.5,-148 671.5,-148 671.5,-129 606.5,-129"/>
<text text-anchor="middle" x="639" y="-136" font-family="Helvetica,sans-Serif" font-size="10.00" fill="#000000">functional</text>
</a>
</g>
</g>
<!-- Node11&#45;&gt;Node14 -->
<g id="edge17" class="edge">
<title>Node11&#45;&gt;Node14</title>
<path fill="none" stroke="#191970" d="M707.4948,-257.3865C715.3939,-242.1821 727.7802,-212.0511 716,-190 707.0046,-173.1617 689.7961,-160.8661 673.925,-152.5207"/>
<polygon fill="#191970" stroke="#191970" points="675.3277,-149.3106 664.8071,-148.059 672.251,-155.5982 675.3277,-149.3106"/>
</g>
<!-- Node15 -->
<g id="node16" class="node">
<title>Node15</title>
<g id="a_node16"><a xlink:href="drake__throw_8h.html" target="_top" xlink:title="Provides a convenient wrapper to throw an exception when a condition is unmet.">
<polygon fill="#ffffff" stroke="#000000" points="467.5,-123.5 467.5,-153.5 588.5,-153.5 588.5,-123.5 467.5,-123.5"/>
<text text-anchor="start" x="475.5" y="-141.5" font-family="Helvetica,sans-Serif" font-size="10.00" fill="#000000">drake/common/drake</text>
<text text-anchor="middle" x="528" y="-130.5" font-family="Helvetica,sans-Serif" font-size="10.00" fill="#000000">_throw.h</text>
</a>
</g>
</g>
<!-- Node11&#45;&gt;Node15 -->
<g id="edge20" class="edge">
<title>Node11&#45;&gt;Node15</title>
<path fill="none" stroke="#191970" d="M650.1112,-257.4289C610.8073,-249.1463 561.2244,-236.1369 547,-221 532.6797,-205.761 528.4082,-181.9781 527.4392,-163.8552"/>
<polygon fill="#191970" stroke="#191970" points="530.9344,-163.6034 527.2006,-153.6883 523.9363,-163.7677 530.9344,-163.6034"/>
</g>
<!-- Node16 -->
<g id="node17" class="node">
<title>Node16</title>
<g id="a_node17"><a xlink:href="hash_8h.html" target="_top" xlink:title=" ">
<polygon fill="#ffffff" stroke="#000000" points="833.5,-196 833.5,-215 958.5,-215 958.5,-196 833.5,-196"/>
<text text-anchor="middle" x="896" y="-203" font-family="Helvetica,sans-Serif" font-size="10.00" fill="#000000">drake/common/hash.h</text>
</a>
</g>
</g>
<!-- Node11&#45;&gt;Node16 -->
<g id="edge23" class="edge">
<title>Node11&#45;&gt;Node16</title>
<path fill="none" stroke="#191970" d="M732.3125,-257.3906C765.6265,-246.8298 819.2808,-229.8208 856.0181,-218.1747"/>
<polygon fill="#191970" stroke="#191970" points="857.4256,-221.4002 865.9004,-215.0419 855.3102,-214.7275 857.4256,-221.4002"/>
</g>
<!-- Node24 -->
<g id="node25" class="node">
<title>Node24</title>
<g id="a_node25"><a xlink:href="never__destroyed_8h.html" target="_top" xlink:title=" ">
<polygon fill="#ffffff" stroke="#000000" points="983.5,-190.5 983.5,-220.5 1104.5,-220.5 1104.5,-190.5 983.5,-190.5"/>
<text text-anchor="start" x="991.5" y="-208.5" font-family="Helvetica,sans-Serif" font-size="10.00" fill="#000000">drake/common/never</text>
<text text-anchor="middle" x="1044" y="-197.5" font-family="Helvetica,sans-Serif" font-size="10.00" fill="#000000">_destroyed.h</text>
</a>
</g>
</g>
<!-- Node11&#45;&gt;Node24 -->
<g id="edge37" class="edge">
<title>Node11&#45;&gt;Node24</title>
<path fill="none" stroke="#191970" d="M759.9463,-257.493C813.892,-248.5205 896.4984,-234.4706 968,-221 969.7286,-220.6743 971.4787,-220.3416 973.2435,-220.0032"/>
<polygon fill="#191970" stroke="#191970" points="974.318,-223.36 983.4662,-218.0158 972.9821,-216.4886 974.318,-223.36"/>
</g>
<!-- Node15&#45;&gt;Node2 -->
<g id="edge21" class="edge">
<title>Node15&#45;&gt;Node2</title>
<path fill="none" stroke="#191970" d="M557.4046,-123.302C571.6621,-114.5128 587.8552,-102.1775 598,-87 609.439,-69.8863 613.9973,-46.501 615.8103,-30.0055"/>
<polygon fill="#191970" stroke="#191970" points="619.314,-30.1096 616.6776,-19.848 612.3394,-29.514 619.314,-30.1096"/>
</g>
<!-- Node15&#45;&gt;Node9 -->
<g id="edge22" class="edge">
<title>Node15&#45;&gt;Node9</title>
<path fill="none" stroke="#191970" d="M528,-123.2967C528,-115.5013 528,-105.7991 528,-96.9064"/>
<polygon fill="#191970" stroke="#191970" points="531.5001,-96.6431 528,-86.6432 524.5001,-96.6432 531.5001,-96.6431"/>
</g>
<!-- Node16&#45;&gt;Node1 -->
<g id="edge31" class="edge">
<title>Node16&#45;&gt;Node1</title>
<path fill="none" stroke="#191970" d="M940.5768,-195.989C951.7785,-193.8102 963.8,-191.6519 975,-190 1134.9522,-166.4091 1177.3838,-179.7662 1337,-154 1349.064,-152.0526 1362.1772,-149.2764 1373.7003,-146.6104"/>
<polygon fill="#191970" stroke="#191970" points="1374.84,-149.9371 1383.7599,-144.2198 1373.2216,-143.1267 1374.84,-149.9371"/>
</g>
<!-- Node16&#45;&gt;Node2 -->
<g id="edge32" class="edge">
<title>Node16&#45;&gt;Node2</title>
<path fill="none" stroke="#191970" d="M898.8889,-195.8227C903.2036,-179.2715 909.2941,-145.1717 894,-123 840.9217,-46.053 725.5618,-21.4476 661.7297,-13.6196"/>
<polygon fill="#191970" stroke="#191970" points="661.8997,-10.1164 651.5678,-12.4621 661.1074,-17.0715 661.8997,-10.1164"/>
</g>
<!-- Node16&#45;&gt;Node6 -->
<g id="edge33" class="edge">
<title>Node16&#45;&gt;Node6</title>
<path fill="none" stroke="#191970" d="M918.5772,-195.9514C942.2494,-185.849 980.4584,-169.2861 1013,-154 1013.9803,-153.5395 1014.9761,-153.0671 1015.9802,-152.5868"/>
<polygon fill="#191970" stroke="#191970" points="1017.6036,-155.6891 1025.0544,-148.1567 1014.5326,-149.3988 1017.6036,-155.6891"/>
</g>
<!-- Node16&#45;&gt;Node9 -->
<g id="edge35" class="edge">
<title>Node16&#45;&gt;Node9</title>
<path fill="none" stroke="#191970" d="M896.1658,-195.8603C895.8982,-178.4168 892.6258,-141.6934 871,-123 831.3971,-88.7671 687.3745,-77.2786 599.0358,-73.4306"/>
<polygon fill="#191970" stroke="#191970" points="598.9505,-69.9242 588.8146,-73.0085 598.6616,-76.9182 598.9505,-69.9242"/>
</g>
<!-- Node16&#45;&gt;Node14 -->
<g id="edge26" class="edge">
<title>Node16&#45;&gt;Node14</title>
<path fill="none" stroke="#191970" d="M849.0192,-195.9258C805.1732,-186.5957 738.1179,-171.314 681,-154 678.3711,-153.2031 675.6675,-152.3308 672.96,-151.4191"/>
<polygon fill="#191970" stroke="#191970" points="673.8589,-148.0252 663.2641,-148.0093 671.5366,-154.6287 673.8589,-148.0252"/>
</g>
<!-- Node16&#45;&gt;Node15 -->
<g id="edge36" class="edge">
<title>Node16&#45;&gt;Node15</title>
<path fill="none" stroke="#191970" d="M835.9161,-195.9637C777.8016,-186.5481 687.0155,-171.3358 598.6013,-154.0667"/>
<polygon fill="#191970" stroke="#191970" points="599.157,-150.6091 588.6699,-152.1162 597.8079,-157.4779 599.157,-150.6091"/>
</g>
<!-- Node17 -->
<g id="node18" class="node">
<title>Node17</title>
<g id="a_node18"><a xlink:title=" ">
<polygon fill="#ffffff" stroke="#bfbfbf" points="956.5,-129 956.5,-148 1003.5,-148 1003.5,-129 956.5,-129"/>
<text text-anchor="middle" x="980" y="-136" font-family="Helvetica,sans-Serif" font-size="10.00" fill="#000000">cmath</text>
</a>
</g>
</g>
<!-- Node16&#45;&gt;Node17 -->
<g id="edge24" class="edge">
<title>Node16&#45;&gt;Node17</title>
<path fill="none" stroke="#191970" d="M908.0352,-195.9005C921.6332,-185.0544 943.9754,-167.2339 960.1624,-154.3229"/>
<polygon fill="#191970" stroke="#191970" points="962.3519,-157.0535 967.9872,-148.0817 957.9869,-151.5811 962.3519,-157.0535"/>
</g>
<!-- Node18 -->
<g id="node19" class="node">
<title>Node18</title>
<g id="a_node19"><a xlink:title=" ">
<polygon fill="#ffffff" stroke="#bfbfbf" points="1084.5,-129 1084.5,-148 1137.5,-148 1137.5,-129 1084.5,-129"/>
<text text-anchor="middle" x="1111" y="-136" font-family="Helvetica,sans-Serif" font-size="10.00" fill="#000000">cstddef</text>
</a>
</g>
</g>
<!-- Node16&#45;&gt;Node18 -->
<g id="edge25" class="edge">
<title>Node16&#45;&gt;Node18</title>
<path fill="none" stroke="#191970" d="M935.118,-195.9752C971.9167,-186.6249 1028.3296,-171.2813 1076,-154 1077.6322,-153.4083 1079.2958,-152.7759 1080.9673,-152.1174"/>
<polygon fill="#191970" stroke="#191970" points="1082.5805,-155.237 1090.465,-148.1599 1079.8881,-148.7754 1082.5805,-155.237"/>
</g>
<!-- Node19 -->
<g id="node20" class="node">
<title>Node19</title>
<g id="a_node20"><a xlink:title=" ">
<polygon fill="#ffffff" stroke="#bfbfbf" points="1156,-129 1156,-148 1216,-148 1216,-129 1156,-129"/>
<text text-anchor="middle" x="1186" y="-136" font-family="Helvetica,sans-Serif" font-size="10.00" fill="#000000">iostream</text>
</a>
</g>
</g>
<!-- Node16&#45;&gt;Node19 -->
<g id="edge27" class="edge">
<title>Node16&#45;&gt;Node19</title>
<path fill="none" stroke="#191970" d="M943.4982,-195.9782C1013.5169,-181.9095 1137.2634,-156.909 1147,-154 1149.4434,-153.27 1151.9476,-152.4499 1154.4504,-151.5779"/>
<polygon fill="#191970" stroke="#191970" points="1155.8121,-154.8057 1163.9645,-148.039 1153.3717,-148.2449 1155.8121,-154.8057"/>
</g>
<!-- Node20 -->
<g id="node21" class="node">
<title>Node20</title>
<g id="a_node21"><a xlink:title=" ">
<polygon fill="#ffffff" stroke="#bfbfbf" points="1234,-129 1234,-148 1272,-148 1272,-129 1234,-129"/>
<text text-anchor="middle" x="1253" y="-136" font-family="Helvetica,sans-Serif" font-size="10.00" fill="#000000">map</text>
</a>
</g>
</g>
<!-- Node16&#45;&gt;Node20 -->
<g id="edge28" class="edge">
<title>Node16&#45;&gt;Node20</title>
<path fill="none" stroke="#191970" d="M942.7144,-195.9274C953.3109,-193.8694 964.5279,-191.7801 975,-190 1085.6696,-171.1874 1118.5943,-189.7701 1225,-154 1226.2442,-153.5817 1227.4973,-153.1087 1228.7469,-152.5944"/>
<polygon fill="#191970" stroke="#191970" points="1230.5894,-155.5907 1238.0567,-148.0747 1227.5322,-149.2935 1230.5894,-155.5907"/>
</g>
<!-- Node21 -->
<g id="node22" class="node">
<title>Node21</title>
<g id="a_node22"><a xlink:title=" ">
<polygon fill="#ffffff" stroke="#bfbfbf" points="690,-129 690,-148 746,-148 746,-129 690,-129"/>
<text text-anchor="middle" x="718" y="-136" font-family="Helvetica,sans-Serif" font-size="10.00" fill="#000000">optional</text>
</a>
</g>
</g>
<!-- Node16&#45;&gt;Node21 -->
<g id="edge29" class="edge">
<title>Node16&#45;&gt;Node21</title>
<path fill="none" stroke="#191970" d="M868.8288,-195.9985C840.331,-185.9346 794.3087,-169.4027 755,-154 753.2006,-153.2949 751.3565,-152.5606 749.4986,-151.8116"/>
<polygon fill="#191970" stroke="#191970" points="750.8167,-148.5693 740.2366,-148.0123 748.1602,-155.0456 750.8167,-148.5693"/>
</g>
<!-- Node22 -->
<g id="node23" class="node">
<title>Node22</title>
<g id="a_node23"><a xlink:title=" ">
<polygon fill="#ffffff" stroke="#bfbfbf" points="764,-129 764,-148 796,-148 796,-129 764,-129"/>
<text text-anchor="middle" x="780" y="-136" font-family="Helvetica,sans-Serif" font-size="10.00" fill="#000000">set</text>
</a>
</g>
</g>
<!-- Node16&#45;&gt;Node22 -->
<g id="edge30" class="edge">
<title>Node16&#45;&gt;Node22</title>
<path fill="none" stroke="#191970" d="M879.0287,-195.9081C860.8964,-185.6321 831.3377,-168.8004 806,-154 805.5916,-153.7614 805.1798,-153.5205 804.7653,-153.2776"/>
<polygon fill="#191970" stroke="#191970" points="806.3135,-150.1271 795.9235,-148.0538 802.7527,-156.1539 806.3135,-150.1271"/>
</g>
<!-- Node23 -->
<g id="node24" class="node">
<title>Node23</title>
<g id="a_node24"><a xlink:title=" ">
<polygon fill="#ffffff" stroke="#bfbfbf" points="814.5,-129 814.5,-148 861.5,-148 861.5,-129 814.5,-129"/>
<text text-anchor="middle" x="838" y="-136" font-family="Helvetica,sans-Serif" font-size="10.00" fill="#000000">vector</text>
</a>
</g>
</g>
<!-- Node16&#45;&gt;Node23 -->
<g id="edge34" class="edge">
<title>Node16&#45;&gt;Node23</title>
<path fill="none" stroke="#191970" d="M887.69,-195.9005C878.6454,-185.4525 863.9983,-168.5325 852.9445,-155.7635"/>
<polygon fill="#191970" stroke="#191970" points="855.4858,-153.3515 846.2946,-148.0817 850.1934,-157.9331 855.4858,-153.3515"/>
</g>
<!-- Node24&#45;&gt;Node2 -->
<g id="edge39" class="edge">
<title>Node24&#45;&gt;Node2</title>
<path fill="none" stroke="#191970" d="M1104.7408,-191.0582C1106.5116,-190.694 1108.2676,-190.3403 1110,-190 1213.2189,-169.7232 1405.3727,-202.9403 1337,-123 1292.6763,-71.1774 812.4335,-26.5029 661.8727,-13.6864"/>
<polygon fill="#191970" stroke="#191970" points="661.8719,-10.1739 651.6125,-12.819 661.2821,-17.1491 661.8719,-10.1739"/>
</g>
<!-- Node24&#45;&gt;Node3 -->
<g id="edge41" class="edge">
<title>Node24&#45;&gt;Node3</title>
<path fill="none" stroke="#191970" d="M983.1419,-192.359C978.0337,-191.4781 972.9365,-190.6747 968,-190 746.1602,-159.6809 684.6168,-186.1942 459.9876,-154.161"/>
<polygon fill="#191970" stroke="#191970" points="460.2589,-150.6638 449.8602,-152.6932 459.2547,-157.5914 460.2589,-150.6638"/>
</g>
<!-- Node24&#45;&gt;Node6 -->
<g id="edge40" class="edge">
<title>Node24&#45;&gt;Node6</title>
<path fill="none" stroke="#191970" d="M1044,-190.2967C1044,-180.7699 1044,-168.3954 1044,-158.1306"/>
<polygon fill="#191970" stroke="#191970" points="1047.5001,-158.0549 1044,-148.055 1040.5001,-158.055 1047.5001,-158.0549"/>
</g>
<!-- Node25 -->
<g id="node26" class="node">
<title>Node25</title>
<g id="a_node26"><a xlink:title=" ">
<polygon fill="#ffffff" stroke="#bfbfbf" points="1290.5,-129 1290.5,-148 1327.5,-148 1327.5,-129 1290.5,-129"/>
<text text-anchor="middle" x="1309" y="-136" font-family="Helvetica,sans-Serif" font-size="10.00" fill="#000000">new</text>
</a>
</g>
</g>
<!-- Node24&#45;&gt;Node25 -->
<g id="edge38" class="edge">
<title>Node24&#45;&gt;Node25</title>
<path fill="none" stroke="#191970" d="M1104.801,-197.293C1153.521,-189.5377 1223.067,-175.7914 1281,-154 1282.1994,-153.5489 1283.4099,-153.0532 1284.6198,-152.5247"/>
<polygon fill="#191970" stroke="#191970" points="1286.2862,-155.6051 1293.6882,-148.0248 1283.1746,-149.3347 1286.2862,-155.6051"/>
</g>
</g>
</svg>
        <g id="navigator" transform="translate(0 0)" fill="#404254">
                <rect fill="#f2f5e9" fill-opacity="0.5" stroke="#606060" stroke-width=".5" x="0" y="0" width="60" height="60"/>
                <use id="zoomplus" xlink:href="#zoomPlus" x="17" y="9" onmousedown="handleZoom(evt,'in')"/>
                <use id="zoomminus" xlink:href="#zoomMin" x="42" y="9" onmousedown="handleZoom(evt,'out')"/>
                <use id="reset" xlink:href="#resetDef" x="30" y="36" onmousedown="handleReset()"/>
                <g id="arrowUp" xlink:href="#dirArrow" transform="translate(30 24)" onmousedown="handlePan(0,-1)">
                  <use xlink:href="#rim" fill="#404040">
                        <set attributeName="fill" to="#808080" begin="arrowUp.mouseover" end="arrowUp.mouseout"/>
                  </use>
                  <path fill="none" stroke="white" stroke-width="1.5" d="M0,-3.0v7 M-2.5,-0.5L0,-3.0L2.5,-0.5"/>
                </g>
                <g id="arrowRight" xlink:href="#dirArrow" transform="rotate(90) translate(36 -43)" onmousedown="handlePan(1,0)">
                  <use xlink:href="#rim" fill="#404040">
                        <set attributeName="fill" to="#808080" begin="arrowRight.mouseover" end="arrowRight.mouseout"/>
                  </use>
                  <path fill="none" stroke="white" stroke-width="1.5" d="M0,-3.0v7 M-2.5,-0.5L0,-3.0L2.5,-0.5"/>
                </g>
                <g id="arrowDown" xlink:href="#dirArrow" transform="rotate(180) translate(-30 -48)" onmousedown="handlePan(0,1)">
                  <use xlink:href="#rim" fill="#404040">
                        <set attributeName="fill" to="#808080" begin="arrowDown.mouseover" end="arrowDown.mouseout"/>
                  </use>
                  <path fill="none" stroke="white" stroke-width="1.5" d="M0,-3.0v7 M-2.5,-0.5L0,-3.0L2.5,-0.5"/>
                </g>
                <g id="arrowLeft" xlink:href="#dirArrow" transform="rotate(270) translate(-36 17)" onmousedown="handlePan(-1,0)">
                  <use xlink:href="#rim" fill="#404040">
                        <set attributeName="fill" to="#808080" begin="arrowLeft.mouseover" end="arrowLeft.mouseout"/>
                  </use>
                  <path fill="none" stroke="white" stroke-width="1.5" d="M0,-3.0v7 M-2.5,-0.5L0,-3.0L2.5,-0.5"/>
                </g>
        </g>
        <svg viewBox="0 0 15 15" width="100%" height="30px" preserveAspectRatio="xMaxYMin meet">
         <g id="arrow_out" transform="scale(0.3 0.3)">
          <a xlink:href="geometry__frame_8h__incl_org.svg" target="_base">
           <rect id="button" ry="5" rx="5" y="6" x="6" height="38" width="38"
                fill="#f2f5e9" fill-opacity="0.5" stroke="#606060" stroke-width="1.0"/>
           <path id="arrow"
             d="M 11.500037,31.436501 C 11.940474,20.09759 22.043105,11.32322 32.158766,21.979434 L 37.068811,17.246167 C 37.068811,17.246167 37.088388,32 37.088388,32 L 22.160133,31.978069 C 22.160133,31.978069 26.997745,27.140456 26.997745,27.140456 C 18.528582,18.264221 13.291696,25.230495 11.500037,31.436501 z"
             style="fill:#404040;"/>
          </a>
         </g>
        </svg>
</svg>
