<?xml version="1.0" encoding="UTF-8" standalone="no"?>
<!DOCTYPE svg PUBLIC "-//W3C//DTD SVG 1.1//EN"
 "http://www.w3.org/Graphics/SVG/1.1/DTD/svg11.dtd">
<!-- Generated by graphviz version 2.40.1 (20161225.0304)
 -->
<!-- Title: drake/geometry/geometry_roles.h Pages: 1 -->
<!--zoomable 419 -->
<svg id="main" version="1.1" xmlns="http://www.w3.org/2000/svg" xmlns:xlink="http://www.w3.org/1999/xlink" xml:space="preserve" onload="init(evt)">
<style type="text/css"><![CDATA[
.edge:hover path { stroke: red; }
.edge:hover polygon { stroke: red; fill: red; }
]]></style>
<script type="text/javascript"><![CDATA[
var edges = document.getElementsByTagName('g');
if (edges && edges.length) {
  for (var i=0;i<edges.length;i++) {
    if (edges[i].id.substr(0,4)=='edge') {
      edges[i].setAttribute('class','edge');
    }
  }
}
]]></script>
        <defs>
                <circle id="rim" cx="0" cy="0" r="7"/>
                <circle id="rim2" cx="0" cy="0" r="3.5"/>
                <g id="zoomPlus">
                        <use xlink:href="#rim" fill="#404040">
                                <set attributeName="fill" to="#808080" begin="zoomplus.mouseover" end="zoomplus.mouseout"/>
                        </use>
                        <path d="M-4,0h8M0,-4v8" fill="none" stroke="white" stroke-width="1.5" pointer-events="none"/>
                </g>
                <g id="zoomMin">
                        <use xlink:href="#rim" fill="#404040">
                                <set attributeName="fill" to="#808080" begin="zoomminus.mouseover" end="zoomminus.mouseout"/>
                        </use>
                        <path d="M-4,0h8" fill="none" stroke="white" stroke-width="1.5" pointer-events="none"/>
                </g>
                <g id="dirArrow">
                        <path fill="none" stroke="white" stroke-width="1.5" d="M0,-3.0v7 M-2.5,-0.5L0,-3.0L2.5,-0.5"/>
                </g>
               <g id="resetDef">
                       <use xlink:href="#rim2" fill="#404040">
                               <set attributeName="fill" to="#808080" begin="reset.mouseover" end="reset.mouseout"/>
                       </use>
               </g>
        </defs>

<script type="text/javascript">
var viewWidth = 1811;
var viewHeight = 419;
var sectionId = 'dynsection-0';
</script>
<script xlink:href="svgpan.js"/>
<svg id="graph" class="graph">
<g id="viewport">
<title>drake/geometry/geometry_roles.h</title>
<polygon fill="#ffffff" stroke="transparent" points="-4,4 -4,-415 1806.5,-415 1806.5,4 -4,4"/>
<!-- Node0 -->
<g id="node1" class="node">
<title>Node0</title>
<g id="a_node1"><a xlink:title=" ">
<polygon fill="#bfbfbf" stroke="#000000" points="790,-380.5 790,-410.5 935,-410.5 935,-380.5 790,-380.5"/>
<text text-anchor="start" x="798" y="-398.5" font-family="Helvetica,sans-Serif" font-size="10.00" fill="#000000">drake/geometry/geometry</text>
<text text-anchor="middle" x="862.5" y="-387.5" font-family="Helvetica,sans-Serif" font-size="10.00" fill="#000000">_roles.h</text>
</a>
</g>
</g>
<!-- Node1 -->
<g id="node2" class="node">
<title>Node1</title>
<g id="a_node2"><a xlink:title=" ">
<polygon fill="#ffffff" stroke="#bfbfbf" points="204.5,-129 204.5,-148 264.5,-148 264.5,-129 204.5,-129"/>
<text text-anchor="middle" x="234.5" y="-136" font-family="Helvetica,sans-Serif" font-size="10.00" fill="#000000">iostream</text>
</a>
</g>
</g>
<!-- Node0&#45;&gt;Node1 -->
<g id="edge1" class="edge">
<title>Node0&#45;&gt;Node1</title>
<path fill="none" stroke="#191970" d="M789.765,-384.0785C668.0488,-364.0474 429.2712,-320.5568 356.5,-277 305.144,-246.2611 263.7819,-186.6465 245.1698,-156.6574"/>
<polygon fill="#191970" stroke="#191970" points="248.12,-154.7723 239.9425,-148.0358 242.1342,-158.4015 248.12,-154.7723"/>
</g>
<!-- Node2 -->
<g id="node3" class="node">
<title>Node2</title>
<g id="a_node3"><a xlink:title=" ">
<polygon fill="#ffffff" stroke="#bfbfbf" points="1344.5,-129 1344.5,-148 1388.5,-148 1388.5,-129 1344.5,-129"/>
<text text-anchor="middle" x="1366.5" y="-136" font-family="Helvetica,sans-Serif" font-size="10.00" fill="#000000">string</text>
</a>
</g>
</g>
<!-- Node0&#45;&gt;Node2 -->
<g id="edge2" class="edge">
<title>Node0&#45;&gt;Node2</title>
<path fill="none" stroke="#191970" d="M935.1178,-391.1578C1136.7617,-378.3662 1692.2582,-337.8642 1745.5,-277 1770.9583,-247.897 1771.3923,-218.7176 1745.5,-190 1693.587,-132.4226 1473.065,-175.2175 1398.5,-154 1396.5852,-153.4552 1394.645,-152.8016 1392.7162,-152.0754"/>
<polygon fill="#191970" stroke="#191970" points="1393.9042,-148.7756 1383.3374,-148.0054 1391.1176,-155.197 1393.9042,-148.7756"/>
</g>
<!-- Node3 -->
<g id="node4" class="node">
<title>Node3</title>
<g id="a_node4"><a xlink:href="drake__copyable_8h.html" target="_top" xlink:title="Provides careful macros to selectively enable or disable the special member functions for copy&#45;constr...">
<polygon fill="#ffffff" stroke="#000000" points="1489,-56.5 1489,-86.5 1610,-86.5 1610,-56.5 1489,-56.5"/>
<text text-anchor="start" x="1497" y="-74.5" font-family="Helvetica,sans-Serif" font-size="10.00" fill="#000000">drake/common/drake</text>
<text text-anchor="middle" x="1549.5" y="-63.5" font-family="Helvetica,sans-Serif" font-size="10.00" fill="#000000">_copyable.h</text>
</a>
</g>
</g>
<!-- Node0&#45;&gt;Node3 -->
<g id="edge3" class="edge">
<title>Node0&#45;&gt;Node3</title>
<path fill="none" stroke="#191970" d="M935.0883,-393.1957C1155.5738,-385.2416 1802.5,-354.4519 1802.5,-267 1802.5,-267 1802.5,-267 1802.5,-205.5 1802.5,-122.6627 1695.2717,-90.89 1620.4307,-78.8025"/>
<polygon fill="#191970" stroke="#191970" points="1620.5137,-75.2747 1610.0998,-77.2243 1619.4565,-82.1944 1620.5137,-75.2747"/>
</g>
<!-- Node4 -->
<g id="node5" class="node">
<title>Node4</title>
<g id="a_node5"><a xlink:href="eigen__types_8h.html" target="_top" xlink:title="This file contains abbreviated definitions for certain specializations of Eigen::Matrix that are comm...">
<polygon fill="#ffffff" stroke="#000000" points="66.5,-123.5 66.5,-153.5 186.5,-153.5 186.5,-123.5 66.5,-123.5"/>
<text text-anchor="start" x="74.5" y="-141.5" font-family="Helvetica,sans-Serif" font-size="10.00" fill="#000000">drake/common/eigen</text>
<text text-anchor="middle" x="126.5" y="-130.5" font-family="Helvetica,sans-Serif" font-size="10.00" fill="#000000">_types.h</text>
</a>
</g>
</g>
<!-- Node0&#45;&gt;Node4 -->
<g id="edge4" class="edge">
<title>Node0&#45;&gt;Node4</title>
<path fill="none" stroke="#191970" d="M789.6019,-389.6749C688.4704,-381.036 511.0927,-363.7108 449.5,-344 389.8391,-324.9074 378.8475,-309.8328 325.5,-277 262.6789,-238.3367 192.6123,-187.7045 154.659,-159.6083"/>
<polygon fill="#191970" stroke="#191970" points="156.7309,-156.7874 146.6159,-153.6352 152.5575,-162.4072 156.7309,-156.7874"/>
</g>
<!-- Node10 -->
<g id="node11" class="node">
<title>Node10</title>
<g id="a_node11"><a xlink:href="geometry__properties_8h.html" target="_top" xlink:title=" ">
<polygon fill="#ffffff" stroke="#000000" points="790,-313.5 790,-343.5 935,-343.5 935,-313.5 790,-313.5"/>
<text text-anchor="start" x="798" y="-331.5" font-family="Helvetica,sans-Serif" font-size="10.00" fill="#000000">drake/geometry/geometry</text>
<text text-anchor="middle" x="862.5" y="-320.5" font-family="Helvetica,sans-Serif" font-size="10.00" fill="#000000">_properties.h</text>
</a>
</g>
</g>
<!-- Node0&#45;&gt;Node10 -->
<g id="edge11" class="edge">
<title>Node0&#45;&gt;Node10</title>
<path fill="none" stroke="#191970" d="M862.5,-380.2967C862.5,-372.5013 862.5,-362.7991 862.5,-353.9064"/>
<polygon fill="#191970" stroke="#191970" points="866.0001,-353.6431 862.5,-343.6432 859.0001,-353.6432 866.0001,-353.6431"/>
</g>
<!-- Node4&#45;&gt;Node3 -->
<g id="edge10" class="edge">
<title>Node4&#45;&gt;Node3</title>
<path fill="none" stroke="#191970" d="M186.5904,-124.2846C189.5941,-123.7994 192.5762,-123.3659 195.5,-123 759.092,-52.4744 911.8004,-156.7066 1478.5939,-87.0848"/>
<polygon fill="#191970" stroke="#191970" points="1479.1664,-90.5407 1488.6591,-85.8356 1478.3042,-83.594 1479.1664,-90.5407"/>
</g>
<!-- Node5 -->
<g id="node6" class="node">
<title>Node5</title>
<g id="a_node6"><a xlink:title=" ">
<polygon fill="#ffffff" stroke="#bfbfbf" points="1192,-62 1192,-81 1237,-81 1237,-62 1192,-62"/>
<text text-anchor="middle" x="1214.5" y="-69" font-family="Helvetica,sans-Serif" font-size="10.00" fill="#000000">utility</text>
</a>
</g>
</g>
<!-- Node4&#45;&gt;Node5 -->
<g id="edge5" class="edge">
<title>Node4&#45;&gt;Node5</title>
<path fill="none" stroke="#191970" d="M186.601,-124.3656C189.6019,-123.8589 192.5805,-123.3987 195.5,-123 392.816,-96.052 1029.6419,-76.7119 1181.6812,-72.4048"/>
<polygon fill="#191970" stroke="#191970" points="1181.8799,-75.9007 1191.7775,-72.1208 1181.683,-68.9035 1181.8799,-75.9007"/>
</g>
<!-- Node6 -->
<g id="node7" class="node">
<title>Node6</title>
<g id="a_node7"><a xlink:title=" ">
<polygon fill="#ffffff" stroke="#bfbfbf" points="0,-62 0,-81 77,-81 77,-62 0,-62"/>
<text text-anchor="middle" x="38.5" y="-69" font-family="Helvetica,sans-Serif" font-size="10.00" fill="#000000">Eigen/Dense</text>
</a>
</g>
</g>
<!-- Node4&#45;&gt;Node6 -->
<g id="edge6" class="edge">
<title>Node4&#45;&gt;Node6</title>
<path fill="none" stroke="#191970" d="M106.5314,-123.2967C92.4213,-112.5537 73.5549,-98.1895 59.2692,-87.3129"/>
<polygon fill="#191970" stroke="#191970" points="61.1264,-84.328 51.0498,-81.055 56.886,-89.8975 61.1264,-84.328"/>
</g>
<!-- Node7 -->
<g id="node8" class="node">
<title>Node7</title>
<g id="a_node8"><a xlink:href="constants_8h.html" target="_top" xlink:title=" ">
<polygon fill="#ffffff" stroke="#000000" points="95,-62 95,-81 244,-81 244,-62 95,-62"/>
<text text-anchor="middle" x="169.5" y="-69" font-family="Helvetica,sans-Serif" font-size="10.00" fill="#000000">drake/common/constants.h</text>
</a>
</g>
</g>
<!-- Node4&#45;&gt;Node7 -->
<g id="edge7" class="edge">
<title>Node4&#45;&gt;Node7</title>
<path fill="none" stroke="#191970" d="M136.2574,-123.2967C142.6968,-113.2631 151.1635,-100.0709 157.9405,-89.5113"/>
<polygon fill="#191970" stroke="#191970" points="160.912,-91.3613 163.3677,-81.055 155.0209,-87.5804 160.912,-91.3613"/>
</g>
<!-- Node8 -->
<g id="node9" class="node">
<title>Node8</title>
<g id="a_node9"><a xlink:href="drake__assert_8h.html" target="_top" xlink:title="Provides Drake&#39;s assertion implementation.">
<polygon fill="#ffffff" stroke="#000000" points="475,-56.5 475,-86.5 596,-86.5 596,-56.5 475,-56.5"/>
<text text-anchor="start" x="483" y="-74.5" font-family="Helvetica,sans-Serif" font-size="10.00" fill="#000000">drake/common/drake</text>
<text text-anchor="middle" x="535.5" y="-63.5" font-family="Helvetica,sans-Serif" font-size="10.00" fill="#000000">_assert.h</text>
</a>
</g>
</g>
<!-- Node4&#45;&gt;Node8 -->
<g id="edge8" class="edge">
<title>Node4&#45;&gt;Node8</title>
<path fill="none" stroke="#191970" d="M186.659,-124.7233C189.6445,-124.1221 192.604,-123.5439 195.5,-123 288.0054,-105.6264 395.5234,-90.1195 464.4787,-80.7693"/>
<polygon fill="#191970" stroke="#191970" points="465.3438,-84.1844 474.786,-79.3786 464.4078,-77.2473 465.3438,-84.1844"/>
</g>
<!-- Node9 -->
<g id="node10" class="node">
<title>Node9</title>
<g id="a_node10"><a xlink:title=" ">
<polygon fill="#ffffff" stroke="#bfbfbf" points="919,-.5 919,-19.5 988,-19.5 988,-.5 919,-.5"/>
<text text-anchor="middle" x="953.5" y="-7.5" font-family="Helvetica,sans-Serif" font-size="10.00" fill="#000000">type_traits</text>
</a>
</g>
</g>
<!-- Node8&#45;&gt;Node9 -->
<g id="edge9" class="edge">
<title>Node8&#45;&gt;Node9</title>
<path fill="none" stroke="#191970" d="M596.2808,-62.5574C681.1616,-50.0689 833.2416,-27.6935 908.6175,-16.6035"/>
<polygon fill="#191970" stroke="#191970" points="909.3453,-20.0342 918.7293,-15.1158 908.3263,-13.1088 909.3453,-20.0342"/>
</g>
<!-- Node10&#45;&gt;Node2 -->
<g id="edge15" class="edge">
<title>Node10&#45;&gt;Node2</title>
<path fill="none" stroke="#191970" d="M935.3133,-325.8316C1013.1524,-321.3365 1139.4275,-309.2847 1243.5,-277 1296.2751,-260.6285 1322.2148,-265.8431 1354.5,-221 1367.6039,-202.7991 1369.2411,-176.4061 1368.4919,-158.4064"/>
<polygon fill="#191970" stroke="#191970" points="1371.9669,-157.9265 1367.775,-148.1962 1364.9841,-158.4168 1371.9669,-157.9265"/>
</g>
<!-- Node10&#45;&gt;Node6 -->
<g id="edge18" class="edge">
<title>Node10&#45;&gt;Node6</title>
<path fill="none" stroke="#191970" d="M789.9698,-323.7056C670.2848,-315.3602 436.686,-297.1207 356.5,-277 217.127,-242.0277 150.4477,-263.5839 57.5,-154 42.6197,-136.4563 38.8326,-109.5265 38.1363,-91.2454"/>
<polygon fill="#191970" stroke="#191970" points="41.6351,-91.1046 38.0307,-81.1417 34.6355,-91.1778 41.6351,-91.1046"/>
</g>
<!-- Node11 -->
<g id="node12" class="node">
<title>Node11</title>
<g id="a_node12"><a xlink:title=" ">
<polygon fill="#ffffff" stroke="#bfbfbf" points="321,-129 321,-148 386,-148 386,-129 321,-129"/>
<text text-anchor="middle" x="353.5" y="-136" font-family="Helvetica,sans-Serif" font-size="10.00" fill="#000000">functional</text>
</a>
</g>
</g>
<!-- Node10&#45;&gt;Node11 -->
<g id="edge12" class="edge">
<title>Node10&#45;&gt;Node11</title>
<path fill="none" stroke="#191970" d="M789.7625,-316.0379C744.0084,-307.2644 684.0756,-294.0488 632.5,-277 574.3148,-257.7663 561.51,-248.0067 506.5,-221 461.0341,-198.6789 409.421,-170.1652 379.2633,-153.1729"/>
<polygon fill="#191970" stroke="#191970" points="380.6883,-149.958 370.2607,-148.0832 377.2432,-156.0515 380.6883,-149.958"/>
</g>
<!-- Node12 -->
<g id="node13" class="node">
<title>Node12</title>
<g id="a_node13"><a xlink:title=" ">
<polygon fill="#ffffff" stroke="#bfbfbf" points="1013.5,-129 1013.5,-148 1071.5,-148 1071.5,-129 1013.5,-129"/>
<text text-anchor="middle" x="1042.5" y="-136" font-family="Helvetica,sans-Serif" font-size="10.00" fill="#000000">memory</text>
</a>
</g>
</g>
<!-- Node10&#45;&gt;Node12 -->
<g id="edge13" class="edge">
<title>Node10&#45;&gt;Node12</title>
<path fill="none" stroke="#191970" d="M863.2952,-313.2372C865.5998,-284.9137 874.5746,-224.015 909.5,-190 913.1942,-186.4021 968.4152,-165.6733 1006.5283,-151.6361"/>
<polygon fill="#191970" stroke="#191970" points="1008.1078,-154.7846 1016.287,-148.0502 1005.6934,-148.2141 1008.1078,-154.7846"/>
</g>
<!-- Node13 -->
<g id="node14" class="node">
<title>Node13</title>
<g id="a_node14"><a xlink:title=" ">
<polygon fill="#ffffff" stroke="#bfbfbf" points="475.5,-129 475.5,-148 507.5,-148 507.5,-129 475.5,-129"/>
<text text-anchor="middle" x="491.5" y="-136" font-family="Helvetica,sans-Serif" font-size="10.00" fill="#000000">set</text>
</a>
</g>
</g>
<!-- Node10&#45;&gt;Node13 -->
<g id="edge14" class="edge">
<title>Node10&#45;&gt;Node13</title>
<path fill="none" stroke="#191970" d="M838.4566,-313.4578C806.4345,-293.2187 748.2737,-255.74 700.5,-221 682.5921,-207.9778 681.2018,-200.105 661.5,-190 609.2975,-163.2255 590.3522,-171.9583 534.5,-154 528.9285,-152.2086 522.9984,-150.1629 517.3788,-148.1582"/>
<polygon fill="#191970" stroke="#191970" points="518.3373,-144.7826 507.7432,-144.6576 515.947,-151.3619 518.3373,-144.7826"/>
</g>
<!-- Node14 -->
<g id="node15" class="node">
<title>Node14</title>
<g id="a_node15"><a xlink:title=" ">
<polygon fill="#ffffff" stroke="#bfbfbf" points="365,-257.5 365,-276.5 458,-276.5 458,-257.5 365,-257.5"/>
<text text-anchor="middle" x="411.5" y="-264.5" font-family="Helvetica,sans-Serif" font-size="10.00" fill="#000000">unordered_map</text>
</a>
</g>
</g>
<!-- Node10&#45;&gt;Node14 -->
<g id="edge16" class="edge">
<title>Node10&#45;&gt;Node14</title>
<path fill="none" stroke="#191970" d="M789.808,-319.5891C711.4075,-309.8177 582.9616,-293.3435 472.5,-277 471.0403,-276.784 469.5614,-276.5624 468.0696,-276.3364"/>
<polygon fill="#191970" stroke="#191970" points="468.5211,-272.8646 458.1033,-274.7934 467.4501,-279.7822 468.5211,-272.8646"/>
</g>
<!-- Node15 -->
<g id="node16" class="node">
<title>Node15</title>
<g id="a_node16"><a xlink:title=" ">
<polygon fill="#ffffff" stroke="#bfbfbf" points="890.5,-257.5 890.5,-276.5 976.5,-276.5 976.5,-257.5 890.5,-257.5"/>
<text text-anchor="middle" x="933.5" y="-264.5" font-family="Helvetica,sans-Serif" font-size="10.00" fill="#000000">fmt/ostream.h</text>
</a>
</g>
</g>
<!-- Node10&#45;&gt;Node15 -->
<g id="edge17" class="edge">
<title>Node10&#45;&gt;Node15</title>
<path fill="none" stroke="#191970" d="M880.0506,-313.2977C890.5221,-304.2274 903.8211,-292.7077 914.5338,-283.4285"/>
<polygon fill="#191970" stroke="#191970" points="916.8649,-286.0398 922.132,-276.8469 912.2818,-280.7487 916.8649,-286.0398"/>
</g>
<!-- Node16 -->
<g id="node17" class="node">
<title>Node16</title>
<g id="a_node17"><a xlink:href="copyable__unique__ptr_8h.html" target="_top" xlink:title=" ">
<polygon fill="#ffffff" stroke="#000000" points="515,-190.5 515,-220.5 652,-220.5 652,-190.5 515,-190.5"/>
<text text-anchor="start" x="523" y="-208.5" font-family="Helvetica,sans-Serif" font-size="10.00" fill="#000000">drake/common/copyable</text>
<text text-anchor="middle" x="583.5" y="-197.5" font-family="Helvetica,sans-Serif" font-size="10.00" fill="#000000">_unique_ptr.h</text>
</a>
</g>
</g>
<!-- Node10&#45;&gt;Node16 -->
<g id="edge19" class="edge">
<title>Node10&#45;&gt;Node16</title>
<path fill="none" stroke="#191970" d="M789.7768,-317.5483C751.5467,-309.8132 704.8039,-297.1377 666.5,-277 642.6294,-264.4503 619.738,-243.8669 604.0646,-227.9997"/>
<polygon fill="#191970" stroke="#191970" points="606.4368,-225.4173 596.9776,-220.645 601.3962,-230.2745 606.4368,-225.4173"/>
</g>
<!-- Node18 -->
<g id="node19" class="node">
<title>Node18</title>
<g id="a_node19"><a xlink:href="never__destroyed_8h.html" target="_top" xlink:title=" ">
<polygon fill="#ffffff" stroke="#000000" points="1407,-123.5 1407,-153.5 1528,-153.5 1528,-123.5 1407,-123.5"/>
<text text-anchor="start" x="1415" y="-141.5" font-family="Helvetica,sans-Serif" font-size="10.00" fill="#000000">drake/common/never</text>
<text text-anchor="middle" x="1467.5" y="-130.5" font-family="Helvetica,sans-Serif" font-size="10.00" fill="#000000">_destroyed.h</text>
</a>
</g>
</g>
<!-- Node10&#45;&gt;Node18 -->
<g id="edge25" class="edge">
<title>Node10&#45;&gt;Node18</title>
<path fill="none" stroke="#191970" d="M935.295,-322.9195C1108.0543,-308.9236 1531.3938,-269.9217 1571.5,-221 1592.4909,-195.3952 1557.1705,-172.547 1522.1298,-157.4251"/>
<polygon fill="#191970" stroke="#191970" points="1523.3615,-154.1471 1512.783,-153.5598 1520.6864,-160.6158 1523.3615,-154.1471"/>
</g>
<!-- Node20 -->
<g id="node21" class="node">
<title>Node20</title>
<g id="a_node21"><a xlink:href="value_8h.html" target="_top" xlink:title=" ">
<polygon fill="#ffffff" stroke="#000000" points="1105,-257.5 1105,-276.5 1234,-276.5 1234,-257.5 1105,-257.5"/>
<text text-anchor="middle" x="1169.5" y="-264.5" font-family="Helvetica,sans-Serif" font-size="10.00" fill="#000000">drake/common/value.h</text>
</a>
</g>
</g>
<!-- Node10&#45;&gt;Node20 -->
<g id="edge30" class="edge">
<title>Node10&#45;&gt;Node20</title>
<path fill="none" stroke="#191970" d="M935.2547,-313.9254C989.1671,-303.1253 1061.6567,-288.6038 1111.6464,-278.5896"/>
<polygon fill="#191970" stroke="#191970" points="1112.5268,-281.9828 1121.6445,-276.5867 1111.1518,-275.1192 1112.5268,-281.9828"/>
</g>
<!-- Node31 -->
<g id="node32" class="node">
<title>Node31</title>
<g id="a_node32"><a xlink:href="rgba_8h.html" target="_top" xlink:title=" ">
<polygon fill="#ffffff" stroke="#000000" points="1608.5,-257.5 1608.5,-276.5 1736.5,-276.5 1736.5,-257.5 1608.5,-257.5"/>
<text text-anchor="middle" x="1672.5" y="-264.5" font-family="Helvetica,sans-Serif" font-size="10.00" fill="#000000">drake/geometry/rgba.h</text>
</a>
</g>
</g>
<!-- Node10&#45;&gt;Node31 -->
<g id="edge65" class="edge">
<title>Node10&#45;&gt;Node31</title>
<path fill="none" stroke="#191970" d="M935.0846,-324.7743C1066.7063,-317.7109 1353.4686,-300.9098 1594.5,-277 1595.7609,-276.8749 1597.033,-276.7458 1598.3136,-276.613"/>
<polygon fill="#191970" stroke="#191970" points="1598.6968,-280.092 1608.2601,-275.5319 1597.9404,-273.133 1598.6968,-280.092"/>
</g>
<!-- Node16&#45;&gt;Node1 -->
<g id="edge21" class="edge">
<title>Node16&#45;&gt;Node1</title>
<path fill="none" stroke="#191970" d="M514.9583,-197.346C452.6761,-189.1315 358.5671,-174.6994 278.5,-154 275.3635,-153.1891 272.133,-152.2533 268.9143,-151.2512"/>
<polygon fill="#191970" stroke="#191970" points="269.9933,-147.9217 259.4,-148.1055 267.7958,-154.5678 269.9933,-147.9217"/>
</g>
<!-- Node16&#45;&gt;Node5 -->
<g id="edge23" class="edge">
<title>Node16&#45;&gt;Node5</title>
<path fill="none" stroke="#191970" d="M621.9718,-190.4631C643.9186,-181.2036 671.5419,-168.3728 694.5,-154 712.9742,-142.4343 712.3855,-131.3947 732.5,-123 814.1998,-88.903 1087.1656,-76.0663 1181.8344,-72.5747"/>
<polygon fill="#191970" stroke="#191970" points="1182.0959,-76.0677 1191.9642,-72.2119 1181.8453,-69.0721 1182.0959,-76.0677"/>
</g>
<!-- Node16&#45;&gt;Node8 -->
<g id="edge24" class="edge">
<title>Node16&#45;&gt;Node8</title>
<path fill="none" stroke="#191970" d="M514.7418,-202.2017C442.7981,-197.1399 336.8335,-184.5801 311.5,-154 265.9895,-99.064 382.9618,-80.7059 464.483,-74.5735"/>
<polygon fill="#191970" stroke="#191970" points="465.0034,-78.0456 474.7329,-73.8518 464.5118,-71.0629 465.0034,-78.0456"/>
</g>
<!-- Node16&#45;&gt;Node12 -->
<g id="edge22" class="edge">
<title>Node16&#45;&gt;Node12</title>
<path fill="none" stroke="#191970" d="M652.0092,-196.4099C757.9995,-182.3291 951.202,-156.5855 966.5,-154 978.5153,-151.9693 991.5325,-149.4375 1003.3419,-147.0126"/>
<polygon fill="#191970" stroke="#191970" points="1004.2788,-150.3926 1013.3535,-144.9244 1002.8495,-143.5401 1004.2788,-150.3926"/>
</g>
<!-- Node17 -->
<g id="node18" class="node">
<title>Node17</title>
<g id="a_node18"><a xlink:title=" ">
<polygon fill="#ffffff" stroke="#bfbfbf" points="404,-129 404,-148 457,-148 457,-129 404,-129"/>
<text text-anchor="middle" x="430.5" y="-136" font-family="Helvetica,sans-Serif" font-size="10.00" fill="#000000">cstddef</text>
</a>
</g>
</g>
<!-- Node16&#45;&gt;Node17 -->
<g id="edge20" class="edge">
<title>Node16&#45;&gt;Node17</title>
<path fill="none" stroke="#191970" d="M549.1638,-190.4639C522.9142,-178.969 487.0326,-163.2561 461.6175,-152.1266"/>
<polygon fill="#191970" stroke="#191970" points="462.9955,-148.9092 452.4313,-148.1039 460.1876,-155.3214 462.9955,-148.9092"/>
</g>
<!-- Node18&#45;&gt;Node3 -->
<g id="edge29" class="edge">
<title>Node18&#45;&gt;Node3</title>
<path fill="none" stroke="#191970" d="M1486.1071,-123.2967C1497.0107,-114.3876 1510.9622,-102.9882 1522.9997,-93.1527"/>
<polygon fill="#191970" stroke="#191970" points="1525.4373,-95.6808 1530.9666,-86.6432 1521.0082,-90.2601 1525.4373,-95.6808"/>
</g>
<!-- Node18&#45;&gt;Node5 -->
<g id="edge28" class="edge">
<title>Node18&#45;&gt;Node5</title>
<path fill="none" stroke="#191970" d="M1410.7219,-123.4639C1360.2224,-110.0905 1288.1647,-91.008 1246.8842,-80.0761"/>
<polygon fill="#191970" stroke="#191970" points="1247.6469,-76.6575 1237.0842,-77.4808 1245.8549,-83.4242 1247.6469,-76.6575"/>
</g>
<!-- Node18&#45;&gt;Node9 -->
<g id="edge27" class="edge">
<title>Node18&#45;&gt;Node9</title>
<path fill="none" stroke="#191970" d="M1433.7404,-123.4541C1390.9777,-104.9697 1314.6367,-73.871 1246.5,-56 1160.2258,-33.3719 1056.5581,-20.3053 998.5344,-14.2209"/>
<polygon fill="#191970" stroke="#191970" points="998.5508,-10.7043 988.2458,-13.1653 997.8363,-17.6677 998.5508,-10.7043"/>
</g>
<!-- Node19 -->
<g id="node20" class="node">
<title>Node19</title>
<g id="a_node20"><a xlink:title=" ">
<polygon fill="#ffffff" stroke="#bfbfbf" points="1434,-62 1434,-81 1471,-81 1471,-62 1434,-62"/>
<text text-anchor="middle" x="1452.5" y="-69" font-family="Helvetica,sans-Serif" font-size="10.00" fill="#000000">new</text>
</a>
</g>
</g>
<!-- Node18&#45;&gt;Node19 -->
<g id="edge26" class="edge">
<title>Node18&#45;&gt;Node19</title>
<path fill="none" stroke="#191970" d="M1464.0963,-123.2967C1461.9634,-113.7699 1459.193,-101.3954 1456.8949,-91.1306"/>
<polygon fill="#191970" stroke="#191970" points="1460.2394,-90.0487 1454.6392,-81.055 1453.4085,-91.5781 1460.2394,-90.0487"/>
</g>
<!-- Node20&#45;&gt;Node2 -->
<g id="edge33" class="edge">
<title>Node20&#45;&gt;Node2</title>
<path fill="none" stroke="#191970" d="M1220.2001,-257.4265C1260.9361,-248.8597 1313.9825,-235.4525 1330.5,-221 1349.1794,-204.6559 1358.5378,-176.8361 1362.951,-158.0713"/>
<polygon fill="#191970" stroke="#191970" points="1366.389,-158.7294 1365.0111,-148.2245 1359.5374,-157.2959 1366.389,-158.7294"/>
</g>
<!-- Node20&#45;&gt;Node3 -->
<g id="edge38" class="edge">
<title>Node20&#45;&gt;Node3</title>
<path fill="none" stroke="#191970" d="M1213.5971,-257.4371C1251.3086,-248.926 1306.8761,-235.5928 1354.5,-221 1375.2031,-214.6562 1523.8486,-170.8079 1537.5,-154 1550.4068,-138.1089 1552.7144,-114.5926 1552.1952,-96.7284"/>
<polygon fill="#191970" stroke="#191970" points="1555.6869,-96.4841 1551.5991,-86.7096 1548.6993,-96.8999 1555.6869,-96.4841"/>
</g>
<!-- Node20&#45;&gt;Node5 -->
<g id="edge36" class="edge">
<title>Node20&#45;&gt;Node5</title>
<path fill="none" stroke="#191970" d="M1211.2598,-257.4925C1244.554,-248.967 1287.2444,-235.5833 1297.5,-221 1315.0025,-196.1116 1279.3547,-130.1562 1274.5,-123 1264.8876,-108.8308 1250.3992,-96.2436 1238.0678,-87.0602"/>
<polygon fill="#191970" stroke="#191970" points="1239.7446,-83.9571 1229.5705,-81.0009 1235.6804,-89.6565 1239.7446,-83.9571"/>
</g>
<!-- Node20&#45;&gt;Node9 -->
<g id="edge34" class="edge">
<title>Node20&#45;&gt;Node9</title>
<path fill="none" stroke="#191970" d="M1234.0898,-259.6393C1284.5985,-252.7746 1356.1344,-240.594 1416.5,-221 1432.9981,-215.6449 1543.524,-164.2731 1557.5,-154 1599.0282,-123.4746 1654.6664,-93.6791 1619.5,-56 1598.2839,-33.268 1144.5081,-16.3191 998.3966,-11.4347"/>
<polygon fill="#191970" stroke="#191970" points="998.1273,-7.924 988.0169,-11.0908 997.8955,-14.9201 998.1273,-7.924"/>
</g>
<!-- Node20&#45;&gt;Node12 -->
<g id="edge31" class="edge">
<title>Node20&#45;&gt;Node12</title>
<path fill="none" stroke="#191970" d="M1104.7714,-264.1628C1038.9713,-259.7599 943.5232,-248.6661 920.5,-221 911.6869,-210.4096 912.8841,-201.4815 920.5,-190 925.5748,-182.3493 971.8137,-164.196 1005.8719,-151.625"/>
<polygon fill="#191970" stroke="#191970" points="1007.3637,-154.8061 1015.5504,-148.0809 1004.9567,-148.2329 1007.3637,-154.8061"/>
</g>
<!-- Node20&#45;&gt;Node16 -->
<g id="edge37" class="edge">
<title>Node20&#45;&gt;Node16</title>
<path fill="none" stroke="#191970" d="M1104.9424,-261.3667C1014.4458,-253.3108 844.7655,-237.6261 700.5,-221 688.1326,-219.5747 675.0453,-217.9529 662.2764,-216.3081"/>
<polygon fill="#191970" stroke="#191970" points="662.492,-212.8067 652.124,-214.9874 661.589,-219.7482 662.492,-212.8067"/>
</g>
<!-- Node21 -->
<g id="node22" class="node">
<title>Node21</title>
<g id="a_node22"><a xlink:title=" ">
<polygon fill="#ffffff" stroke="#bfbfbf" points="1497,-196 1497,-215 1562,-215 1562,-196 1497,-196"/>
<text text-anchor="middle" x="1529.5" y="-203" font-family="Helvetica,sans-Serif" font-size="10.00" fill="#000000">stdexcept</text>
</a>
</g>
</g>
<!-- Node20&#45;&gt;Node21 -->
<g id="edge32" class="edge">
<title>Node20&#45;&gt;Node21</title>
<path fill="none" stroke="#191970" d="M1234.2564,-260.7841C1297.9853,-253.8953 1397.7826,-241.0361 1482.5,-221 1486.1424,-220.1386 1489.9061,-219.1215 1493.6444,-218.0266"/>
<polygon fill="#191970" stroke="#191970" points="1494.8693,-221.3112 1503.3797,-215.0005 1492.7915,-214.6266 1494.8693,-221.3112"/>
</g>
<!-- Node22 -->
<g id="node23" class="node">
<title>Node22</title>
<g id="a_node23"><a xlink:title=" ">
<polygon fill="#ffffff" stroke="#bfbfbf" points="1193,-129 1193,-148 1250,-148 1250,-129 1193,-129"/>
<text text-anchor="middle" x="1221.5" y="-136" font-family="Helvetica,sans-Serif" font-size="10.00" fill="#000000">typeinfo</text>
</a>
</g>
</g>
<!-- Node20&#45;&gt;Node22 -->
<g id="edge35" class="edge">
<title>Node20&#45;&gt;Node22</title>
<path fill="none" stroke="#191970" d="M1160.4743,-257.3924C1147.5858,-242.4514 1126.7977,-212.9774 1139.5,-190 1145.4513,-179.2346 1171.3952,-163.9477 1192.5291,-152.8268"/>
<polygon fill="#191970" stroke="#191970" points="1194.2323,-155.8866 1201.515,-148.1916 1191.0232,-149.6655 1194.2323,-155.8866"/>
</g>
<!-- Node23 -->
<g id="node24" class="node">
<title>Node23</title>
<g id="a_node24"><a xlink:href="hash_8h.html" target="_top" xlink:title=" ">
<polygon fill="#ffffff" stroke="#000000" points="709,-196 709,-215 834,-215 834,-196 709,-196"/>
<text text-anchor="middle" x="771.5" y="-203" font-family="Helvetica,sans-Serif" font-size="10.00" fill="#000000">drake/common/hash.h</text>
</a>
</g>
</g>
<!-- Node20&#45;&gt;Node23 -->
<g id="edge39" class="edge">
<title>Node20&#45;&gt;Node23</title>
<path fill="none" stroke="#191970" d="M1107.7492,-257.4581C1036.1805,-246.3991 918.4342,-228.2047 842.9692,-216.5436"/>
<polygon fill="#191970" stroke="#191970" points="843.4854,-213.0819 833.0682,-215.0137 842.4164,-219.9998 843.4854,-213.0819"/>
</g>
<!-- Node29 -->
<g id="node30" class="node">
<title>Node29</title>
<g id="a_node30"><a xlink:href="is__cloneable_8h.html" target="_top" xlink:title=" ">
<polygon fill="#ffffff" stroke="#000000" points="929,-196 929,-215 1092,-215 1092,-196 929,-196"/>
<text text-anchor="middle" x="1010.5" y="-203" font-family="Helvetica,sans-Serif" font-size="10.00" fill="#000000">drake/common/is_cloneable.h</text>
</a>
</g>
</g>
<!-- Node20&#45;&gt;Node29 -->
<g id="edge55" class="edge">
<title>Node20&#45;&gt;Node29</title>
<path fill="none" stroke="#191970" d="M1144.6563,-257.3906C1117.8193,-247.0103 1074.8767,-230.4004 1044.8247,-218.7766"/>
<polygon fill="#191970" stroke="#191970" points="1045.7586,-215.3851 1035.1693,-215.0419 1043.2333,-221.9138 1045.7586,-215.3851"/>
</g>
<!-- Node30 -->
<g id="node31" class="node">
<title>Node30</title>
<g id="a_node31"><a xlink:href="nice__type__name_8h.html" target="_top" xlink:title=" ">
<polygon fill="#ffffff" stroke="#000000" points="1148.5,-190.5 1148.5,-220.5 1288.5,-220.5 1288.5,-190.5 1148.5,-190.5"/>
<text text-anchor="start" x="1156.5" y="-208.5" font-family="Helvetica,sans-Serif" font-size="10.00" fill="#000000">drake/common/nice_type</text>
<text text-anchor="middle" x="1218.5" y="-197.5" font-family="Helvetica,sans-Serif" font-size="10.00" fill="#000000">_name.h</text>
</a>
</g>
</g>
<!-- Node20&#45;&gt;Node30 -->
<g id="edge58" class="edge">
<title>Node20&#45;&gt;Node30</title>
<path fill="none" stroke="#191970" d="M1177.1563,-257.3906C1183.2966,-249.6839 1192.1728,-238.5434 1200.1279,-228.5589"/>
<polygon fill="#191970" stroke="#191970" points="1203.0192,-230.5467 1206.5133,-220.5446 1197.5444,-226.1847 1203.0192,-230.5467"/>
</g>
<!-- Node23&#45;&gt;Node1 -->
<g id="edge43" class="edge">
<title>Node23&#45;&gt;Node1</title>
<path fill="none" stroke="#191970" d="M708.7295,-196.2409C693.3009,-194.0795 676.8154,-191.866 661.5,-190 506.2717,-171.087 466.107,-177.4568 311.5,-154 299.5085,-152.1807 286.5545,-149.7544 274.7545,-147.3627"/>
<polygon fill="#191970" stroke="#191970" points="275.2373,-143.8884 264.735,-145.2858 273.8164,-150.7427 275.2373,-143.8884"/>
</g>
<!-- Node23&#45;&gt;Node2 -->
<g id="edge47" class="edge">
<title>Node23&#45;&gt;Node2</title>
<path fill="none" stroke="#191970" d="M834.4808,-198.919C961.6265,-185.6242 1238.7101,-156.6018 1259.5,-154 1284.6743,-150.8495 1313.0935,-146.7049 1334.3132,-143.4942"/>
<polygon fill="#191970" stroke="#191970" points="1335.0434,-146.9235 1344.4016,-141.9562 1333.9883,-140.0034 1335.0434,-146.9235"/>
</g>
<!-- Node23&#45;&gt;Node5 -->
<g id="edge49" class="edge">
<title>Node23&#45;&gt;Node5</title>
<path fill="none" stroke="#191970" d="M816.3726,-195.9674C865.404,-185.1454 940.4494,-167.2738 966.5,-154 985.9202,-144.1046 984.9929,-132.723 1004.5,-123 1063.0369,-93.8233 1139.1693,-80.5062 1181.8306,-74.9758"/>
<polygon fill="#191970" stroke="#191970" points="1182.4274,-78.4289 1191.9245,-73.7327 1181.5716,-71.4814 1182.4274,-78.4289"/>
</g>
<!-- Node23&#45;&gt;Node8 -->
<g id="edge51" class="edge">
<title>Node23&#45;&gt;Node8</title>
<path fill="none" stroke="#191970" d="M726.2898,-195.9776C664.78,-182.8409 561.6109,-160.0878 555.5,-154 540.488,-139.0446 536.0299,-114.8642 535.0061,-96.5388"/>
<polygon fill="#191970" stroke="#191970" points="538.505,-96.4453 534.7464,-86.5396 531.5073,-96.6272 538.505,-96.4453"/>
</g>
<!-- Node23&#45;&gt;Node9 -->
<g id="edge48" class="edge">
<title>Node23&#45;&gt;Node9</title>
<path fill="none" stroke="#191970" d="M776.8748,-195.7872C785.9751,-179.7632 805.4883,-147.1591 826.5,-123 859.9093,-84.5863 905.958,-46.634 932.4432,-25.9629"/>
<polygon fill="#191970" stroke="#191970" points="934.8547,-28.5227 940.6286,-19.6395 930.5753,-22.9832 934.8547,-28.5227"/>
</g>
<!-- Node23&#45;&gt;Node11 -->
<g id="edge42" class="edge">
<title>Node23&#45;&gt;Node11</title>
<path fill="none" stroke="#191970" d="M708.9735,-196.629C693.4631,-194.4451 676.8791,-192.1242 661.5,-190 543.322,-173.6769 511.2654,-182.8249 395.5,-154 392.5044,-153.2541 389.4273,-152.3666 386.3661,-151.3992"/>
<polygon fill="#191970" stroke="#191970" points="387.3563,-148.0389 376.7617,-148.1137 385.0905,-154.6621 387.3563,-148.0389"/>
</g>
<!-- Node23&#45;&gt;Node13 -->
<g id="edge46" class="edge">
<title>Node23&#45;&gt;Node13</title>
<path fill="none" stroke="#191970" d="M724.4376,-195.9736C653.3528,-181.561 526.3044,-155.6996 521.5,-154 520.0492,-153.4868 518.5805,-152.9158 517.1129,-152.3044"/>
<polygon fill="#191970" stroke="#191970" points="518.1827,-148.9404 507.6426,-147.8645 515.2113,-155.2785 518.1827,-148.9404"/>
</g>
<!-- Node23&#45;&gt;Node17 -->
<g id="edge41" class="edge">
<title>Node23&#45;&gt;Node17</title>
<path fill="none" stroke="#191970" d="M708.8428,-196.7259C633.2504,-185.8249 510.7948,-167.0697 466.5,-154 464.3259,-153.3585 462.108,-152.6215 459.8945,-151.8247"/>
<polygon fill="#191970" stroke="#191970" points="460.9548,-148.4803 450.3683,-148.0594 458.3816,-154.9903 460.9548,-148.4803"/>
</g>
<!-- Node24 -->
<g id="node25" class="node">
<title>Node24</title>
<g id="a_node25"><a xlink:title=" ">
<polygon fill="#ffffff" stroke="#bfbfbf" points="910,-129 910,-148 957,-148 957,-129 910,-129"/>
<text text-anchor="middle" x="933.5" y="-136" font-family="Helvetica,sans-Serif" font-size="10.00" fill="#000000">cmath</text>
</a>
</g>
</g>
<!-- Node23&#45;&gt;Node24 -->
<g id="edge40" class="edge">
<title>Node23&#45;&gt;Node24</title>
<path fill="none" stroke="#191970" d="M796.8956,-195.8732C823.0446,-185.8415 864.8851,-169.4571 900.5,-154 901.8427,-153.4172 903.2121,-152.8133 904.5925,-152.1967"/>
<polygon fill="#191970" stroke="#191970" points="906.054,-155.377 913.6932,-148.0357 903.1433,-149.0109 906.054,-155.377"/>
</g>
<!-- Node25 -->
<g id="node26" class="node">
<title>Node25</title>
<g id="a_node26"><a xlink:title=" ">
<polygon fill="#ffffff" stroke="#bfbfbf" points="741.5,-129 741.5,-148 779.5,-148 779.5,-129 741.5,-129"/>
<text text-anchor="middle" x="760.5" y="-136" font-family="Helvetica,sans-Serif" font-size="10.00" fill="#000000">map</text>
</a>
</g>
</g>
<!-- Node23&#45;&gt;Node25 -->
<g id="edge44" class="edge">
<title>Node23&#45;&gt;Node25</title>
<path fill="none" stroke="#191970" d="M769.924,-195.9005C768.3066,-186.0495 765.7447,-170.4451 763.7,-157.9912"/>
<polygon fill="#191970" stroke="#191970" points="767.1471,-157.3825 762.0731,-148.0817 760.2395,-158.5166 767.1471,-157.3825"/>
</g>
<!-- Node26 -->
<g id="node27" class="node">
<title>Node26</title>
<g id="a_node27"><a xlink:title=" ">
<polygon fill="#ffffff" stroke="#bfbfbf" points="835.5,-129 835.5,-148 891.5,-148 891.5,-129 835.5,-129"/>
<text text-anchor="middle" x="863.5" y="-136" font-family="Helvetica,sans-Serif" font-size="10.00" fill="#000000">optional</text>
</a>
</g>
</g>
<!-- Node23&#45;&gt;Node26 -->
<g id="edge45" class="edge">
<title>Node23&#45;&gt;Node26</title>
<path fill="none" stroke="#191970" d="M784.6814,-195.9005C799.7111,-184.9549 824.4942,-166.9064 842.2593,-153.9688"/>
<polygon fill="#191970" stroke="#191970" points="844.32,-156.7979 850.3431,-148.0817 840.1991,-151.1394 844.32,-156.7979"/>
</g>
<!-- Node27 -->
<g id="node28" class="node">
<title>Node27</title>
<g id="a_node28"><a xlink:title=" ">
<polygon fill="#ffffff" stroke="#bfbfbf" points="1128,-129 1128,-148 1175,-148 1175,-129 1128,-129"/>
<text text-anchor="middle" x="1151.5" y="-136" font-family="Helvetica,sans-Serif" font-size="10.00" fill="#000000">vector</text>
</a>
</g>
</g>
<!-- Node23&#45;&gt;Node27 -->
<g id="edge50" class="edge">
<title>Node23&#45;&gt;Node27</title>
<path fill="none" stroke="#191970" d="M834.1012,-196.003C896.6399,-186.2954 995.4499,-170.3606 1080.5,-154 1092.7657,-151.6405 1106.1627,-148.7879 1117.9818,-146.1764"/>
<polygon fill="#191970" stroke="#191970" points="1118.8977,-149.5582 1127.894,-143.962 1117.3714,-142.7266 1118.8977,-149.5582"/>
</g>
<!-- Node28 -->
<g id="node29" class="node">
<title>Node28</title>
<g id="a_node29"><a xlink:href="drake__throw_8h.html" target="_top" xlink:title="Provides a convenient wrapper to throw an exception when a condition is unmet.">
<polygon fill="#ffffff" stroke="#000000" points="564,-123.5 564,-153.5 685,-153.5 685,-123.5 564,-123.5"/>
<text text-anchor="start" x="572" y="-141.5" font-family="Helvetica,sans-Serif" font-size="10.00" fill="#000000">drake/common/drake</text>
<text text-anchor="middle" x="624.5" y="-130.5" font-family="Helvetica,sans-Serif" font-size="10.00" fill="#000000">_throw.h</text>
</a>
</g>
</g>
<!-- Node23&#45;&gt;Node28 -->
<g id="edge52" class="edge">
<title>Node23&#45;&gt;Node28</title>
<path fill="none" stroke="#191970" d="M750.4385,-195.9005C728.7078,-185.9961 694.2167,-170.2756 666.8202,-157.7888"/>
<polygon fill="#191970" stroke="#191970" points="668.0092,-154.4844 657.4582,-153.5218 665.106,-160.854 668.0092,-154.4844"/>
</g>
<!-- Node28&#45;&gt;Node8 -->
<g id="edge54" class="edge">
<title>Node28&#45;&gt;Node8</title>
<path fill="none" stroke="#191970" d="M604.3045,-123.2967C592.3564,-114.302 577.0361,-102.7687 563.8862,-92.8694"/>
<polygon fill="#191970" stroke="#191970" points="565.7098,-89.8613 555.6156,-86.6432 561.4998,-95.4538 565.7098,-89.8613"/>
</g>
<!-- Node28&#45;&gt;Node9 -->
<g id="edge53" class="edge">
<title>Node28&#45;&gt;Node9</title>
<path fill="none" stroke="#191970" d="M651.6528,-123.4102C684.5048,-105.5878 741.845,-75.8595 793.5,-56 831.5972,-41.353 876.3504,-28.8678 908.8236,-20.6165"/>
<polygon fill="#191970" stroke="#191970" points="910.0619,-23.9145 918.9114,-18.0889 908.3605,-17.1244 910.0619,-23.9145"/>
</g>
<!-- Node29&#45;&gt;Node9 -->
<g id="edge57" class="edge">
<title>Node29&#45;&gt;Node9</title>
<path fill="none" stroke="#191970" d="M1032.9995,-195.8603C1049.4806,-187.4512 1070.6264,-173.522 1080.5,-154 1086.7183,-141.7053 1086.1411,-135.57 1080.5,-123 1060.2412,-77.8573 1012.0469,-43.377 981.1965,-24.9553"/>
<polygon fill="#191970" stroke="#191970" points="982.6365,-21.7446 972.2292,-19.7597 979.1272,-27.8014 982.6365,-21.7446"/>
</g>
<!-- Node29&#45;&gt;Node12 -->
<g id="edge56" class="edge">
<title>Node29&#45;&gt;Node12</title>
<path fill="none" stroke="#191970" d="M1015.0848,-195.9005C1019.8848,-185.8505 1027.5449,-169.8122 1033.5494,-157.2403"/>
<polygon fill="#191970" stroke="#191970" points="1036.7721,-158.6137 1037.9237,-148.0817 1030.4556,-155.5968 1036.7721,-158.6137"/>
</g>
<!-- Node30&#45;&gt;Node2 -->
<g id="edge60" class="edge">
<title>Node30&#45;&gt;Node2</title>
<path fill="none" stroke="#191970" d="M1251.7141,-190.4639C1276.994,-179.0196 1311.5092,-163.3945 1336.0739,-152.274"/>
<polygon fill="#191970" stroke="#191970" points="1337.6188,-155.4166 1345.2854,-148.1039 1334.7319,-149.0396 1337.6188,-155.4166"/>
</g>
<!-- Node30&#45;&gt;Node5 -->
<g id="edge62" class="edge">
<title>Node30&#45;&gt;Node5</title>
<path fill="none" stroke="#191970" d="M1235.3807,-190.1071C1244.4243,-180.6844 1254.6743,-167.8094 1259.5,-154 1264.0451,-140.9935 1264.3416,-135.8991 1259.5,-123 1254.4801,-109.6259 1244.2394,-97.4478 1234.7938,-88.2954"/>
<polygon fill="#191970" stroke="#191970" points="1236.9285,-85.5055 1227.1787,-81.3593 1232.2148,-90.6806 1236.9285,-85.5055"/>
</g>
<!-- Node30&#45;&gt;Node12 -->
<g id="edge59" class="edge">
<title>Node30&#45;&gt;Node12</title>
<path fill="none" stroke="#191970" d="M1179.0022,-190.4639C1148.3164,-178.7824 1106.1882,-162.7449 1076.8814,-151.5884"/>
<polygon fill="#191970" stroke="#191970" points="1078.0601,-148.2921 1067.4691,-148.0053 1075.5696,-154.8341 1078.0601,-148.2921"/>
</g>
<!-- Node30&#45;&gt;Node18 -->
<g id="edge64" class="edge">
<title>Node30&#45;&gt;Node18</title>
<path fill="none" stroke="#191970" d="M1274.3805,-190.4639C1312.0528,-180.3272 1361.9152,-166.9104 1401.5368,-156.2491"/>
<polygon fill="#191970" stroke="#191970" points="1402.6287,-159.5799 1411.3758,-153.6017 1400.8098,-152.8203 1402.6287,-159.5799"/>
</g>
<!-- Node30&#45;&gt;Node22 -->
<g id="edge61" class="edge">
<title>Node30&#45;&gt;Node22</title>
<path fill="none" stroke="#191970" d="M1219.1807,-190.2967C1219.6073,-180.7699 1220.1614,-168.3954 1220.621,-158.1306"/>
<polygon fill="#191970" stroke="#191970" points="1224.1213,-158.2016 1221.0722,-148.055 1217.1283,-157.8884 1224.1213,-158.2016"/>
</g>
<!-- Node30&#45;&gt;Node27 -->
<g id="edge63" class="edge">
<title>Node30&#45;&gt;Node27</title>
<path fill="none" stroke="#191970" d="M1203.2967,-190.2967C1192.8578,-179.8578 1178.9997,-165.9997 1168.2446,-155.2446"/>
<polygon fill="#191970" stroke="#191970" points="1170.601,-152.6512 1161.055,-148.055 1165.6512,-157.601 1170.601,-152.6512"/>
</g>
<!-- Node31&#45;&gt;Node3 -->
<g id="edge68" class="edge">
<title>Node31&#45;&gt;Node3</title>
<path fill="none" stroke="#191970" d="M1666.4004,-257.3051C1647.8394,-227.8037 1591.6587,-138.5083 1564.5079,-95.354"/>
<polygon fill="#191970" stroke="#191970" points="1567.3143,-93.2421 1559.0265,-86.6418 1561.3894,-96.9698 1567.3143,-93.2421"/>
</g>
<!-- Node31&#45;&gt;Node21 -->
<g id="edge66" class="edge">
<title>Node31&#45;&gt;Node21</title>
<path fill="none" stroke="#191970" d="M1650.1563,-257.3906C1626.2297,-247.1005 1588.0691,-230.6888 1561.0784,-219.0809"/>
<polygon fill="#191970" stroke="#191970" points="1562.2561,-215.7775 1551.6869,-215.0419 1559.4905,-222.208 1562.2561,-215.7775"/>
</g>
<!-- Node32 -->
<g id="node33" class="node">
<title>Node32</title>
<g id="a_node33"><a xlink:title=" ">
<polygon fill="#ffffff" stroke="#bfbfbf" points="1657,-196 1657,-215 1736,-215 1736,-196 1657,-196"/>
<text text-anchor="middle" x="1696.5" y="-203" font-family="Helvetica,sans-Serif" font-size="10.00" fill="#000000">fmt/format.h</text>
</a>
</g>
</g>
<!-- Node31&#45;&gt;Node32 -->
<g id="edge67" class="edge">
<title>Node31&#45;&gt;Node32</title>
<path fill="none" stroke="#191970" d="M1676.25,-257.3906C1679.6468,-248.6862 1684.7531,-235.6015 1688.988,-224.7494"/>
<polygon fill="#191970" stroke="#191970" points="1692.3222,-225.8331 1692.6971,-215.2449 1685.8011,-223.2882 1692.3222,-225.8331"/>
</g>
</g>
</svg>
        <g id="navigator" transform="translate(0 0)" fill="#404254">
                <rect fill="#f2f5e9" fill-opacity="0.5" stroke="#606060" stroke-width=".5" x="0" y="0" width="60" height="60"/>
                <use id="zoomplus" xlink:href="#zoomPlus" x="17" y="9" onmousedown="handleZoom(evt,'in')"/>
                <use id="zoomminus" xlink:href="#zoomMin" x="42" y="9" onmousedown="handleZoom(evt,'out')"/>
                <use id="reset" xlink:href="#resetDef" x="30" y="36" onmousedown="handleReset()"/>
                <g id="arrowUp" xlink:href="#dirArrow" transform="translate(30 24)" onmousedown="handlePan(0,-1)">
                  <use xlink:href="#rim" fill="#404040">
                        <set attributeName="fill" to="#808080" begin="arrowUp.mouseover" end="arrowUp.mouseout"/>
                  </use>
                  <path fill="none" stroke="white" stroke-width="1.5" d="M0,-3.0v7 M-2.5,-0.5L0,-3.0L2.5,-0.5"/>
                </g>
                <g id="arrowRight" xlink:href="#dirArrow" transform="rotate(90) translate(36 -43)" onmousedown="handlePan(1,0)">
                  <use xlink:href="#rim" fill="#404040">
                        <set attributeName="fill" to="#808080" begin="arrowRight.mouseover" end="arrowRight.mouseout"/>
                  </use>
                  <path fill="none" stroke="white" stroke-width="1.5" d="M0,-3.0v7 M-2.5,-0.5L0,-3.0L2.5,-0.5"/>
                </g>
                <g id="arrowDown" xlink:href="#dirArrow" transform="rotate(180) translate(-30 -48)" onmousedown="handlePan(0,1)">
                  <use xlink:href="#rim" fill="#404040">
                        <set attributeName="fill" to="#808080" begin="arrowDown.mouseover" end="arrowDown.mouseout"/>
                  </use>
                  <path fill="none" stroke="white" stroke-width="1.5" d="M0,-3.0v7 M-2.5,-0.5L0,-3.0L2.5,-0.5"/>
                </g>
                <g id="arrowLeft" xlink:href="#dirArrow" transform="rotate(270) translate(-36 17)" onmousedown="handlePan(-1,0)">
                  <use xlink:href="#rim" fill="#404040">
                        <set attributeName="fill" to="#808080" begin="arrowLeft.mouseover" end="arrowLeft.mouseout"/>
                  </use>
                  <path fill="none" stroke="white" stroke-width="1.5" d="M0,-3.0v7 M-2.5,-0.5L0,-3.0L2.5,-0.5"/>
                </g>
        </g>
        <svg viewBox="0 0 15 15" width="100%" height="30px" preserveAspectRatio="xMaxYMin meet">
         <g id="arrow_out" transform="scale(0.3 0.3)">
          <a xlink:href="geometry__roles_8h__incl_org.svg" target="_base">
           <rect id="button" ry="5" rx="5" y="6" x="6" height="38" width="38"
                fill="#f2f5e9" fill-opacity="0.5" stroke="#606060" stroke-width="1.0"/>
           <path id="arrow"
             d="M 11.500037,31.436501 C 11.940474,20.09759 22.043105,11.32322 32.158766,21.979434 L 37.068811,17.246167 C 37.068811,17.246167 37.088388,32 37.088388,32 L 22.160133,31.978069 C 22.160133,31.978069 26.997745,27.140456 26.997745,27.140456 C 18.528582,18.264221 13.291696,25.230495 11.500037,31.436501 z"
             style="fill:#404040;"/>
          </a>
         </g>
        </svg>
</svg>
