<?xml version="1.0" encoding="UTF-8" standalone="no"?>
<!DOCTYPE svg PUBLIC "-//W3C//DTD SVG 1.1//EN"
 "http://www.w3.org/Graphics/SVG/1.1/DTD/svg11.dtd">
<!-- Generated by graphviz version 2.40.1 (20161225.0304)
 -->
<!-- Title: drake/math/gradient.h Pages: 1 -->
<svg width="688pt" height="240pt"
 viewBox="0.00 0.00 687.50 240.00" xmlns="http://www.w3.org/2000/svg" xmlns:xlink="http://www.w3.org/1999/xlink">
<g id="graph0" class="graph" transform="scale(1 1) rotate(0) translate(4 236)">
<title>drake/math/gradient.h</title>
<polygon fill="#ffffff" stroke="transparent" points="-4,4 -4,-236 683.5,-236 683.5,4 -4,4"/>
<!-- Node2 -->
<g id="node1" class="node">
<title>Node2</title>
<g id="a_node1"><a xlink:title="Utilities for arithmetic on gradients.">
<polygon fill="#bfbfbf" stroke="#000000" points="461,-212.5 461,-231.5 586,-231.5 586,-212.5 461,-212.5"/>
<text text-anchor="middle" x="523.5" y="-219.5" font-family="Helvetica,sans-Serif" font-size="10.00" fill="#000000">drake/math/gradient.h</text>
</a>
</g>
</g>
<!-- Node3 -->
<g id="node2" class="node">
<title>Node3</title>
<g id="a_node2"><a xlink:href="autodiff__gradient_8h.html" target="_top" xlink:title="Utilities that relate simultaneously to both autodiff matrices and gradient matrices.">
<polygon fill="#ffffff" stroke="#000000" points="243.5,-145.5 243.5,-175.5 357.5,-175.5 357.5,-145.5 243.5,-145.5"/>
<text text-anchor="start" x="251.5" y="-163.5" font-family="Helvetica,sans-Serif" font-size="10.00" fill="#000000">drake/math/autodiff</text>
<text text-anchor="middle" x="300.5" y="-152.5" font-family="Helvetica,sans-Serif" font-size="10.00" fill="#000000">_gradient.h</text>
</a>
</g>
</g>
<!-- Node2&#45;&gt;Node3 -->
<g id="edge1" class="edge">
<title>Node2&#45;&gt;Node3</title>
<path fill="none" stroke="#191970" d="M479.0047,-209.7289C443.34,-199.8931 393.1373,-186.048 355.0519,-175.5446"/>
<polygon fill="#191970" stroke="#191970" points="478.0856,-213.106 488.6563,-212.3906 479.9467,-206.3579 478.0856,-213.106"/>
</g>
<!-- Node7 -->
<g id="node6" class="node">
<title>Node7</title>
<g id="a_node6"><a xlink:href="gradient__util_8h.html" target="_top" xlink:title=" ">
<polygon fill="#ffffff" stroke="#000000" points="508.5,-145.5 508.5,-175.5 624.5,-175.5 624.5,-145.5 508.5,-145.5"/>
<text text-anchor="start" x="516.5" y="-163.5" font-family="Helvetica,sans-Serif" font-size="10.00" fill="#000000">drake/math/gradient</text>
<text text-anchor="middle" x="566.5" y="-152.5" font-family="Helvetica,sans-Serif" font-size="10.00" fill="#000000">_util.h</text>
</a>
</g>
</g>
<!-- Node2&#45;&gt;Node7 -->
<g id="edge5" class="edge">
<title>Node2&#45;&gt;Node7</title>
<path fill="none" stroke="#191970" d="M536.024,-204.0877C542.3566,-195.0307 549.9553,-184.1627 555.981,-175.5446"/>
<polygon fill="#191970" stroke="#191970" points="533.0805,-202.1896 530.2188,-212.3906 538.8174,-206.2007 533.0805,-202.1896"/>
</g>
<!-- Node8 -->
<g id="node7" class="node">
<title>Node8</title>
<g id="a_node7"><a xlink:href="normalize__vector_8h.html" target="_top" xlink:title=" ">
<polygon fill="#ffffff" stroke="#000000" points="461,-73 461,-103 586,-103 586,-73 461,-73"/>
<text text-anchor="start" x="469" y="-91" font-family="Helvetica,sans-Serif" font-size="10.00" fill="#000000">drake/math/normalize</text>
<text text-anchor="middle" x="523.5" y="-80" font-family="Helvetica,sans-Serif" font-size="10.00" fill="#000000">_vector.h</text>
</a>
</g>
</g>
<!-- Node2&#45;&gt;Node8 -->
<g id="edge9" class="edge">
<title>Node2&#45;&gt;Node8</title>
<path fill="none" stroke="#191970" d="M511.3753,-203.7224C506.6821,-195.5929 501.8743,-185.6836 499.5,-176 493.2024,-150.315 505.3344,-120.6923 514.5312,-103.1997"/>
<polygon fill="#191970" stroke="#191970" points="508.4528,-205.6514 516.6792,-212.328 514.4119,-201.9786 508.4528,-205.6514"/>
</g>
<!-- Node9 -->
<g id="node8" class="node">
<title>Node9</title>
<g id="a_node8"><a xlink:href="rotation__conversion__gradient_8h.html" target="_top" xlink:title=" ">
<polygon fill="#ffffff" stroke="#000000" points="549.5,-.5 549.5,-30.5 679.5,-30.5 679.5,-.5 549.5,-.5"/>
<text text-anchor="start" x="557.5" y="-18.5" font-family="Helvetica,sans-Serif" font-size="10.00" fill="#000000">drake/math/rotation</text>
<text text-anchor="middle" x="614.5" y="-7.5" font-family="Helvetica,sans-Serif" font-size="10.00" fill="#000000">_conversion_gradient.h</text>
</a>
</g>
</g>
<!-- Node2&#45;&gt;Node9 -->
<g id="edge10" class="edge">
<title>Node2&#45;&gt;Node9</title>
<path fill="none" stroke="#191970" d="M588.116,-209.0631C605.7836,-202.2445 622.9502,-191.8468 633.5,-176 663.8212,-130.4545 636.9259,-61.1701 622.387,-30.7378"/>
<polygon fill="#191970" stroke="#191970" points="586.5751,-205.8938 578.288,-212.4948 588.8828,-212.5025 586.5751,-205.8938"/>
</g>
<!-- Node4 -->
<g id="node3" class="node">
<title>Node4</title>
<g id="a_node3"><a xlink:href="distance__to__point__with__gradient_8h.html" target="_top" xlink:title=" ">
<polygon fill="#ffffff" stroke="#000000" points="0,-67.5 0,-108.5 145,-108.5 145,-67.5 0,-67.5"/>
<text text-anchor="start" x="8" y="-96.5" font-family="Helvetica,sans-Serif" font-size="10.00" fill="#000000">drake/geometry/proximity</text>
<text text-anchor="start" x="8" y="-85.5" font-family="Helvetica,sans-Serif" font-size="10.00" fill="#000000">/distance_to_point_with</text>
<text text-anchor="middle" x="72.5" y="-74.5" font-family="Helvetica,sans-Serif" font-size="10.00" fill="#000000">_gradient.h</text>
</a>
</g>
</g>
<!-- Node3&#45;&gt;Node4 -->
<g id="edge2" class="edge">
<title>Node3&#45;&gt;Node4</title>
<path fill="none" stroke="#191970" d="M243.4946,-142.3733C211.1253,-132.0804 170.5021,-119.163 136.9737,-108.5015"/>
<polygon fill="#191970" stroke="#191970" points="242.6678,-145.783 253.2583,-145.478 244.7891,-139.1121 242.6678,-145.783"/>
</g>
<!-- Node5 -->
<g id="node4" class="node">
<title>Node5</title>
<g id="a_node4"><a xlink:href="expmap_8h.html" target="_top" xlink:title="Utilities for arithmetic on exponential maps.">
<polygon fill="#ffffff" stroke="#000000" points="163,-78.5 163,-97.5 288,-97.5 288,-78.5 163,-78.5"/>
<text text-anchor="middle" x="225.5" y="-85.5" font-family="Helvetica,sans-Serif" font-size="10.00" fill="#000000">drake/math/expmap.h</text>
</a>
</g>
</g>
<!-- Node3&#45;&gt;Node5 -->
<g id="edge3" class="edge">
<title>Node3&#45;&gt;Node5</title>
<path fill="none" stroke="#191970" d="M277.5894,-138.3531C263.6194,-124.8487 246.449,-108.2507 235.7369,-97.8957"/>
<polygon fill="#191970" stroke="#191970" points="275.3375,-141.0442 284.96,-145.478 280.2026,-136.0112 275.3375,-141.0442"/>
</g>
<!-- Node6 -->
<g id="node5" class="node">
<title>Node6</title>
<g id="a_node5"><a xlink:href="kinematic__constraint__utilities_8h.html" target="_top" xlink:title=" ">
<polygon fill="#ffffff" stroke="#000000" points="306.5,-67.5 306.5,-108.5 442.5,-108.5 442.5,-67.5 306.5,-67.5"/>
<text text-anchor="start" x="314.5" y="-96.5" font-family="Helvetica,sans-Serif" font-size="10.00" fill="#000000">drake/multibody/inverse</text>
<text text-anchor="start" x="314.5" y="-85.5" font-family="Helvetica,sans-Serif" font-size="10.00" fill="#000000">_kinematics/kinematic</text>
<text text-anchor="middle" x="374.5" y="-74.5" font-family="Helvetica,sans-Serif" font-size="10.00" fill="#000000">_constraint_utilities.h</text>
</a>
</g>
</g>
<!-- Node3&#45;&gt;Node6 -->
<g id="edge4" class="edge">
<title>Node3&#45;&gt;Node6</title>
<path fill="none" stroke="#191970" d="M323.2009,-138.2593C332.8789,-128.7774 344.0995,-117.7843 353.5743,-108.5015"/>
<polygon fill="#191970" stroke="#191970" points="320.5266,-135.9795 315.8328,-145.478 325.4254,-140.9797 320.5266,-135.9795"/>
</g>
<!-- Node7&#45;&gt;Node8 -->
<g id="edge6" class="edge">
<title>Node7&#45;&gt;Node8</title>
<path fill="none" stroke="#191970" d="M552.3727,-136.6807C545.7913,-125.5842 538.1613,-112.7196 532.3982,-103.0028"/>
<polygon fill="#191970" stroke="#191970" points="549.4787,-138.6624 557.5904,-145.478 555.4994,-135.0915 549.4787,-138.6624"/>
</g>
<!-- Node7&#45;&gt;Node9 -->
<g id="edge8" class="edge">
<title>Node7&#45;&gt;Node9</title>
<path fill="none" stroke="#191970" d="M581.4702,-136.3861C586.1892,-127.9659 591.062,-118.2927 594.5,-109 604.3495,-82.3779 609.9643,-49.6032 612.6071,-30.7737"/>
<polygon fill="#191970" stroke="#191970" points="578.3023,-134.871 576.2923,-145.2734 584.3506,-138.3949 578.3023,-134.871"/>
</g>
<!-- Node8&#45;&gt;Node9 -->
<g id="edge7" class="edge">
<title>Node8&#45;&gt;Node9</title>
<path fill="none" stroke="#191970" d="M550.5072,-66.4833C565.0454,-54.9007 582.6189,-40.8998 595.6689,-30.5028"/>
<polygon fill="#191970" stroke="#191970" points="547.9956,-64.0093 542.3553,-72.978 552.3575,-69.4841 547.9956,-64.0093"/>
</g>
</g>
</svg>
