<?xml version="1.0" encoding="UTF-8" standalone="no"?>
<!DOCTYPE svg PUBLIC "-//W3C//DTD SVG 1.1//EN"
 "http://www.w3.org/Graphics/SVG/1.1/DTD/svg11.dtd">
<!-- Generated by graphviz version 2.40.1 (20161225.0304)
 -->
<!-- Title: drake/common/hash.h Pages: 1 -->
<svg width="874pt" height="218pt"
 viewBox="0.00 0.00 874.00 218.00" xmlns="http://www.w3.org/2000/svg" xmlns:xlink="http://www.w3.org/1999/xlink">
<g id="graph0" class="graph" transform="scale(1 1) rotate(0) translate(4 214)">
<title>drake/common/hash.h</title>
<polygon fill="#ffffff" stroke="transparent" points="-4,4 -4,-214 870,-214 870,4 -4,4"/>
<!-- Node0 -->
<g id="node1" class="node">
<title>Node0</title>
<g id="a_node1"><a xlink:title=" ">
<polygon fill="#bfbfbf" stroke="#000000" points="381,-190.5 381,-209.5 506,-209.5 506,-190.5 381,-190.5"/>
<text text-anchor="middle" x="443.5" y="-197.5" font-family="Helvetica,sans-Serif" font-size="10.00" fill="#000000">drake/common/hash.h</text>
</a>
</g>
</g>
<!-- Node1 -->
<g id="node2" class="node">
<title>Node1</title>
<g id="a_node2"><a xlink:title=" ">
<polygon fill="#ffffff" stroke="#bfbfbf" points="0,-129 0,-148 47,-148 47,-129 0,-129"/>
<text text-anchor="middle" x="23.5" y="-136" font-family="Helvetica,sans-Serif" font-size="10.00" fill="#000000">cmath</text>
</a>
</g>
</g>
<!-- Node0&#45;&gt;Node1 -->
<g id="edge1" class="edge">
<title>Node0&#45;&gt;Node1</title>
<path fill="none" stroke="#191970" d="M380.9915,-195.1304C287.2714,-187.3989 114.9901,-171.3993 55.5,-154 53.7892,-153.4996 52.0573,-152.915 50.3307,-152.2714"/>
<polygon fill="#191970" stroke="#191970" points="51.2541,-148.8583 40.6852,-148.1175 48.4853,-155.2875 51.2541,-148.8583"/>
</g>
<!-- Node2 -->
<g id="node3" class="node">
<title>Node2</title>
<g id="a_node3"><a xlink:title=" ">
<polygon fill="#ffffff" stroke="#bfbfbf" points="65,-129 65,-148 118,-148 118,-129 65,-129"/>
<text text-anchor="middle" x="91.5" y="-136" font-family="Helvetica,sans-Serif" font-size="10.00" fill="#000000">cstddef</text>
</a>
</g>
</g>
<!-- Node0&#45;&gt;Node2 -->
<g id="edge2" class="edge">
<title>Node0&#45;&gt;Node2</title>
<path fill="none" stroke="#191970" d="M380.7819,-195.9624C316.0552,-190.6268 212.6683,-178.8248 126.5,-154 124.5363,-153.4343 122.5394,-152.7808 120.5456,-152.0689"/>
<polygon fill="#191970" stroke="#191970" points="121.3548,-148.6229 110.7702,-148.1571 118.7541,-155.1219 121.3548,-148.6229"/>
</g>
<!-- Node3 -->
<g id="node4" class="node">
<title>Node3</title>
<g id="a_node4"><a xlink:title=" ">
<polygon fill="#ffffff" stroke="#bfbfbf" points="136,-129 136,-148 201,-148 201,-129 136,-129"/>
<text text-anchor="middle" x="168.5" y="-136" font-family="Helvetica,sans-Serif" font-size="10.00" fill="#000000">functional</text>
</a>
</g>
</g>
<!-- Node0&#45;&gt;Node3 -->
<g id="edge3" class="edge">
<title>Node0&#45;&gt;Node3</title>
<path fill="none" stroke="#191970" d="M381.0563,-190.4404C333.7717,-182.5366 267.4573,-170.0231 210.5,-154 207.6943,-153.2107 204.8093,-152.32 201.9285,-151.3747"/>
<polygon fill="#191970" stroke="#191970" points="202.8663,-147.9952 192.2715,-148.0174 200.5676,-154.6071 202.8663,-147.9952"/>
</g>
<!-- Node4 -->
<g id="node5" class="node">
<title>Node4</title>
<g id="a_node5"><a xlink:title=" ">
<polygon fill="#ffffff" stroke="#bfbfbf" points="219.5,-129 219.5,-148 279.5,-148 279.5,-129 219.5,-129"/>
<text text-anchor="middle" x="249.5" y="-136" font-family="Helvetica,sans-Serif" font-size="10.00" fill="#000000">iostream</text>
</a>
</g>
</g>
<!-- Node0&#45;&gt;Node4 -->
<g id="edge4" class="edge">
<title>Node0&#45;&gt;Node4</title>
<path fill="none" stroke="#191970" d="M408.1246,-190.478C376.5207,-181.7403 329.0819,-168.0544 288.5,-154 286.3743,-153.2638 284.1941,-152.4798 282.0034,-151.6701"/>
<polygon fill="#191970" stroke="#191970" points="283.0591,-148.3267 272.4686,-148.0252 280.5596,-154.8653 283.0591,-148.3267"/>
</g>
<!-- Node5 -->
<g id="node6" class="node">
<title>Node5</title>
<g id="a_node6"><a xlink:title=" ">
<polygon fill="#ffffff" stroke="#bfbfbf" points="297.5,-129 297.5,-148 335.5,-148 335.5,-129 297.5,-129"/>
<text text-anchor="middle" x="316.5" y="-136" font-family="Helvetica,sans-Serif" font-size="10.00" fill="#000000">map</text>
</a>
</g>
</g>
<!-- Node0&#45;&gt;Node5 -->
<g id="edge5" class="edge">
<title>Node0&#45;&gt;Node5</title>
<path fill="none" stroke="#191970" d="M421.6583,-190.3853C401.4559,-181.3666 370.6871,-167.3112 344.5,-154 343.8128,-153.6507 343.1178,-153.2937 342.4179,-152.9309"/>
<polygon fill="#191970" stroke="#191970" points="343.7444,-149.6711 333.2761,-148.0383 340.4414,-155.8428 343.7444,-149.6711"/>
</g>
<!-- Node6 -->
<g id="node7" class="node">
<title>Node6</title>
<g id="a_node7"><a xlink:title=" ">
<polygon fill="#ffffff" stroke="#bfbfbf" points="353.5,-129 353.5,-148 409.5,-148 409.5,-129 353.5,-129"/>
<text text-anchor="middle" x="381.5" y="-136" font-family="Helvetica,sans-Serif" font-size="10.00" fill="#000000">optional</text>
</a>
</g>
</g>
<!-- Node0&#45;&gt;Node6 -->
<g id="edge6" class="edge">
<title>Node0&#45;&gt;Node6</title>
<path fill="none" stroke="#191970" d="M433.8125,-190.3906C424.4041,-181.0581 409.9193,-166.6902 398.5751,-155.4374"/>
<polygon fill="#191970" stroke="#191970" points="400.8886,-152.8024 391.3241,-148.2449 395.9589,-157.7722 400.8886,-152.8024"/>
</g>
<!-- Node7 -->
<g id="node8" class="node">
<title>Node7</title>
<g id="a_node8"><a xlink:title=" ">
<polygon fill="#ffffff" stroke="#bfbfbf" points="427.5,-129 427.5,-148 459.5,-148 459.5,-129 427.5,-129"/>
<text text-anchor="middle" x="443.5" y="-136" font-family="Helvetica,sans-Serif" font-size="10.00" fill="#000000">set</text>
</a>
</g>
</g>
<!-- Node0&#45;&gt;Node7 -->
<g id="edge7" class="edge">
<title>Node0&#45;&gt;Node7</title>
<path fill="none" stroke="#191970" d="M443.5,-190.3906C443.5,-181.8657 443.5,-169.1392 443.5,-158.4235"/>
<polygon fill="#191970" stroke="#191970" points="447.0001,-158.2448 443.5,-148.2449 440.0001,-158.2449 447.0001,-158.2448"/>
</g>
<!-- Node8 -->
<g id="node9" class="node">
<title>Node8</title>
<g id="a_node9"><a xlink:title=" ">
<polygon fill="#ffffff" stroke="#bfbfbf" points="477.5,-129 477.5,-148 521.5,-148 521.5,-129 477.5,-129"/>
<text text-anchor="middle" x="499.5" y="-136" font-family="Helvetica,sans-Serif" font-size="10.00" fill="#000000">string</text>
</a>
</g>
</g>
<!-- Node0&#45;&gt;Node8 -->
<g id="edge8" class="edge">
<title>Node0&#45;&gt;Node8</title>
<path fill="none" stroke="#191970" d="M452.25,-190.3906C460.6662,-181.1478 473.5797,-166.966 483.781,-155.7628"/>
<polygon fill="#191970" stroke="#191970" points="486.4818,-157.9953 490.6266,-148.2449 481.306,-153.2824 486.4818,-157.9953"/>
</g>
<!-- Node9 -->
<g id="node10" class="node">
<title>Node9</title>
<g id="a_node10"><a xlink:title=" ">
<polygon fill="#ffffff" stroke="#bfbfbf" points="682,-.5 682,-19.5 751,-19.5 751,-.5 682,-.5"/>
<text text-anchor="middle" x="716.5" y="-7.5" font-family="Helvetica,sans-Serif" font-size="10.00" fill="#000000">type_traits</text>
</a>
</g>
</g>
<!-- Node0&#45;&gt;Node9 -->
<g id="edge9" class="edge">
<title>Node0&#45;&gt;Node9</title>
<path fill="none" stroke="#191970" d="M464.6109,-190.419C482.6923,-181.8475 509.119,-168.4377 530.5,-154 544.4833,-144.5576 632.9808,-66.0957 646.5,-56 661.1737,-45.0421 678.3507,-33.7331 692.0169,-25.0704"/>
<polygon fill="#191970" stroke="#191970" points="694.2326,-27.8122 700.8433,-19.5328 690.5123,-21.8826 694.2326,-27.8122"/>
</g>
<!-- Node10 -->
<g id="node11" class="node">
<title>Node10</title>
<g id="a_node11"><a xlink:title=" ">
<polygon fill="#ffffff" stroke="#bfbfbf" points="578,-129 578,-148 623,-148 623,-129 578,-129"/>
<text text-anchor="middle" x="600.5" y="-136" font-family="Helvetica,sans-Serif" font-size="10.00" fill="#000000">utility</text>
</a>
</g>
</g>
<!-- Node0&#45;&gt;Node10 -->
<g id="edge10" class="edge">
<title>Node0&#45;&gt;Node10</title>
<path fill="none" stroke="#191970" d="M469.3384,-190.3568C493.701,-181.2026 531.1947,-166.9549 563.5,-154 565.0999,-153.3584 566.7362,-152.696 568.387,-152.0228"/>
<polygon fill="#191970" stroke="#191970" points="569.9384,-155.169 577.847,-148.1189 567.268,-148.6984 569.9384,-155.169"/>
</g>
<!-- Node11 -->
<g id="node12" class="node">
<title>Node11</title>
<g id="a_node12"><a xlink:title=" ">
<polygon fill="#ffffff" stroke="#bfbfbf" points="641,-129 641,-148 688,-148 688,-129 641,-129"/>
<text text-anchor="middle" x="664.5" y="-136" font-family="Helvetica,sans-Serif" font-size="10.00" fill="#000000">vector</text>
</a>
</g>
</g>
<!-- Node0&#45;&gt;Node11 -->
<g id="edge11" class="edge">
<title>Node0&#45;&gt;Node11</title>
<path fill="none" stroke="#191970" d="M494.1684,-190.4614C532.468,-182.5684 586.0344,-170.0593 631.5,-154 633.1413,-153.4203 634.8107,-152.7862 636.4834,-152.1162"/>
<polygon fill="#191970" stroke="#191970" points="638.1476,-155.2093 645.9241,-148.0136 635.3577,-148.7893 638.1476,-155.2093"/>
</g>
<!-- Node12 -->
<g id="node13" class="node">
<title>Node12</title>
<g id="a_node13"><a xlink:href="drake__assert_8h.html" target="_top" xlink:title="Provides Drake&#39;s assertion implementation.">
<polygon fill="#ffffff" stroke="#000000" points="656,-56.5 656,-86.5 777,-86.5 777,-56.5 656,-56.5"/>
<text text-anchor="start" x="664" y="-74.5" font-family="Helvetica,sans-Serif" font-size="10.00" fill="#000000">drake/common/drake</text>
<text text-anchor="middle" x="716.5" y="-63.5" font-family="Helvetica,sans-Serif" font-size="10.00" fill="#000000">_assert.h</text>
</a>
</g>
</g>
<!-- Node0&#45;&gt;Node12 -->
<g id="edge12" class="edge">
<title>Node0&#45;&gt;Node12</title>
<path fill="none" stroke="#191970" d="M506.2246,-196.3006C572.0592,-191.1159 669.6719,-179.3159 696.5,-154 711.9118,-139.4569 716.3205,-115.2257 717.2243,-96.7765"/>
<polygon fill="#191970" stroke="#191970" points="720.7251,-96.7611 717.4081,-86.6989 713.7262,-96.6334 720.7251,-96.7611"/>
</g>
<!-- Node13 -->
<g id="node14" class="node">
<title>Node13</title>
<g id="a_node14"><a xlink:href="drake__throw_8h.html" target="_top" xlink:title="Provides a convenient wrapper to throw an exception when a condition is unmet.">
<polygon fill="#ffffff" stroke="#000000" points="745,-123.5 745,-153.5 866,-153.5 866,-123.5 745,-123.5"/>
<text text-anchor="start" x="753" y="-141.5" font-family="Helvetica,sans-Serif" font-size="10.00" fill="#000000">drake/common/drake</text>
<text text-anchor="middle" x="805.5" y="-130.5" font-family="Helvetica,sans-Serif" font-size="10.00" fill="#000000">_throw.h</text>
</a>
</g>
</g>
<!-- Node0&#45;&gt;Node13 -->
<g id="edge14" class="edge">
<title>Node0&#45;&gt;Node13</title>
<path fill="none" stroke="#191970" d="M506.0622,-190.7997C564.2953,-182.0401 653.4421,-168.1307 730.5,-154 731.9713,-153.7302 733.4581,-153.4542 734.9562,-153.173"/>
<polygon fill="#191970" stroke="#191970" points="735.8016,-156.5747 744.9634,-151.2538 734.4831,-149.7 735.8016,-156.5747"/>
</g>
<!-- Node12&#45;&gt;Node9 -->
<g id="edge13" class="edge">
<title>Node12&#45;&gt;Node9</title>
<path fill="none" stroke="#191970" d="M716.5,-56.2977C716.5,-48.3834 716.5,-38.6043 716.5,-30.0759"/>
<polygon fill="#191970" stroke="#191970" points="720.0001,-29.8469 716.5,-19.8469 713.0001,-29.847 720.0001,-29.8469"/>
</g>
<!-- Node13&#45;&gt;Node9 -->
<g id="edge15" class="edge">
<title>Node13&#45;&gt;Node9</title>
<path fill="none" stroke="#191970" d="M805.0863,-123.4633C803.9185,-105.8267 799.7748,-76.4104 785.5,-56 776.1141,-42.5798 761.4462,-32.0037 748.0433,-24.394"/>
<polygon fill="#191970" stroke="#191970" points="749.5184,-21.2141 739.047,-19.601 746.227,-27.392 749.5184,-21.2141"/>
</g>
<!-- Node13&#45;&gt;Node12 -->
<g id="edge16" class="edge">
<title>Node13&#45;&gt;Node12</title>
<path fill="none" stroke="#191970" d="M785.3045,-123.2967C773.3564,-114.302 758.0361,-102.7687 744.8862,-92.8694"/>
<polygon fill="#191970" stroke="#191970" points="746.7098,-89.8613 736.6156,-86.6432 742.4998,-95.4538 746.7098,-89.8613"/>
</g>
</g>
</svg>
