<?xml version="1.0" encoding="UTF-8" standalone="no"?>
<!DOCTYPE svg PUBLIC "-//W3C//DTD SVG 1.1//EN"
 "http://www.w3.org/Graphics/SVG/1.1/DTD/svg11.dtd">
<!-- Generated by graphviz version 2.40.1 (20161225.0304)
 -->
<!-- Title: drake/common/identifier.h Pages: 1 -->
<!--zoomable 285 -->
<svg id="main" version="1.1" xmlns="http://www.w3.org/2000/svg" xmlns:xlink="http://www.w3.org/1999/xlink" xml:space="preserve" onload="init(evt)">
<style type="text/css"><![CDATA[
.edge:hover path { stroke: red; }
.edge:hover polygon { stroke: red; fill: red; }
]]></style>
<script type="text/javascript"><![CDATA[
var edges = document.getElementsByTagName('g');
if (edges && edges.length) {
  for (var i=0;i<edges.length;i++) {
    if (edges[i].id.substr(0,4)=='edge') {
      edges[i].setAttribute('class','edge');
    }
  }
}
]]></script>
        <defs>
                <circle id="rim" cx="0" cy="0" r="7"/>
                <circle id="rim2" cx="0" cy="0" r="3.5"/>
                <g id="zoomPlus">
                        <use xlink:href="#rim" fill="#404040">
                                <set attributeName="fill" to="#808080" begin="zoomplus.mouseover" end="zoomplus.mouseout"/>
                        </use>
                        <path d="M-4,0h8M0,-4v8" fill="none" stroke="white" stroke-width="1.5" pointer-events="none"/>
                </g>
                <g id="zoomMin">
                        <use xlink:href="#rim" fill="#404040">
                                <set attributeName="fill" to="#808080" begin="zoomminus.mouseover" end="zoomminus.mouseout"/>
                        </use>
                        <path d="M-4,0h8" fill="none" stroke="white" stroke-width="1.5" pointer-events="none"/>
                </g>
                <g id="dirArrow">
                        <path fill="none" stroke="white" stroke-width="1.5" d="M0,-3.0v7 M-2.5,-0.5L0,-3.0L2.5,-0.5"/>
                </g>
               <g id="resetDef">
                       <use xlink:href="#rim2" fill="#404040">
                               <set attributeName="fill" to="#808080" begin="reset.mouseover" end="reset.mouseout"/>
                       </use>
               </g>
        </defs>

<script type="text/javascript">
var viewWidth = 1108;
var viewHeight = 285;
var sectionId = 'dynsection-0';
</script>
<script xlink:href="svgpan.js"/>
<svg id="graph" class="graph">
<g id="viewport">
<title>drake/common/identifier.h</title>
<polygon fill="#ffffff" stroke="transparent" points="-4,4 -4,-281 1104,-281 1104,4 -4,4"/>
<!-- Node0 -->
<g id="node1" class="node">
<title>Node0</title>
<g id="a_node1"><a xlink:title=" ">
<polygon fill="#bfbfbf" stroke="#000000" points="192.5,-257.5 192.5,-276.5 338.5,-276.5 338.5,-257.5 192.5,-257.5"/>
<text text-anchor="middle" x="265.5" y="-264.5" font-family="Helvetica,sans-Serif" font-size="10.00" fill="#000000">drake/common/identifier.h</text>
</a>
</g>
</g>
<!-- Node1 -->
<g id="node2" class="node">
<title>Node1</title>
<g id="a_node2"><a xlink:title=" ">
<polygon fill="#ffffff" stroke="#bfbfbf" points="62.5,-196 62.5,-215 112.5,-215 112.5,-196 62.5,-196"/>
<text text-anchor="middle" x="87.5" y="-203" font-family="Helvetica,sans-Serif" font-size="10.00" fill="#000000">atomic</text>
</a>
</g>
</g>
<!-- Node0&#45;&gt;Node1 -->
<g id="edge1" class="edge">
<title>Node0&#45;&gt;Node1</title>
<path fill="none" stroke="#191970" d="M231.6472,-257.4218C202.2142,-248.8022 158.5918,-235.3212 121.5,-221 119.919,-220.3896 118.3065,-219.7423 116.6856,-219.0721"/>
<polygon fill="#191970" stroke="#191970" points="118.0352,-215.8425 107.4679,-215.079 115.2527,-222.2657 118.0352,-215.8425"/>
</g>
<!-- Node2 -->
<g id="node3" class="node">
<title>Node2</title>
<g id="a_node3"><a xlink:title=" ">
<polygon fill="#ffffff" stroke="#bfbfbf" points="130.5,-196 130.5,-215 180.5,-215 180.5,-196 130.5,-196"/>
<text text-anchor="middle" x="155.5" y="-203" font-family="Helvetica,sans-Serif" font-size="10.00" fill="#000000">cstdint</text>
</a>
</g>
</g>
<!-- Node0&#45;&gt;Node2 -->
<g id="edge2" class="edge">
<title>Node0&#45;&gt;Node2</title>
<path fill="none" stroke="#191970" d="M248.3125,-257.3906C230.3918,-247.3713 202.0905,-231.5483 181.4477,-220.0071"/>
<polygon fill="#191970" stroke="#191970" points="183.0033,-216.867 172.5668,-215.0419 179.5872,-222.9769 183.0033,-216.867"/>
</g>
<!-- Node3 -->
<g id="node4" class="node">
<title>Node3</title>
<g id="a_node4"><a xlink:title=" ">
<polygon fill="#ffffff" stroke="#bfbfbf" points="0,-129 0,-148 65,-148 65,-129 0,-129"/>
<text text-anchor="middle" x="32.5" y="-136" font-family="Helvetica,sans-Serif" font-size="10.00" fill="#000000">functional</text>
</a>
</g>
</g>
<!-- Node0&#45;&gt;Node3 -->
<g id="edge3" class="edge">
<title>Node0&#45;&gt;Node3</title>
<path fill="none" stroke="#191970" d="M256.5088,-257.383C238.1459,-237.8179 197.3977,-194.8167 189.5,-190 143.7759,-162.1135 125.1938,-171.2768 74.5,-154 72.1182,-153.1883 69.6671,-152.334 67.2024,-151.4608"/>
<polygon fill="#191970" stroke="#191970" points="68.3402,-148.1506 57.7458,-148.05 65.9652,-154.7353 68.3402,-148.1506"/>
</g>
<!-- Node4 -->
<g id="node5" class="node">
<title>Node4</title>
<g id="a_node5"><a xlink:title=" ">
<polygon fill="#ffffff" stroke="#bfbfbf" points="83.5,-129 83.5,-148 127.5,-148 127.5,-129 83.5,-129"/>
<text text-anchor="middle" x="105.5" y="-136" font-family="Helvetica,sans-Serif" font-size="10.00" fill="#000000">string</text>
</a>
</g>
</g>
<!-- Node0&#45;&gt;Node4 -->
<g id="edge4" class="edge">
<title>Node0&#45;&gt;Node4</title>
<path fill="none" stroke="#191970" d="M262.4667,-257.3905C256.9561,-241.3669 243.8556,-209.0718 222.5,-190 191.5945,-162.3995 174.1631,-171.2751 136.5,-154 135.4882,-153.5359 134.4607,-153.0579 133.4251,-152.5705"/>
<polygon fill="#191970" stroke="#191970" points="134.6154,-149.2581 124.0898,-148.0485 131.5637,-155.5579 134.6154,-149.2581"/>
</g>
<!-- Node5 -->
<g id="node6" class="node">
<title>Node5</title>
<g id="a_node6"><a xlink:href="drake__copyable_8h.html" target="_top" xlink:title="Provides careful macros to selectively enable or disable the special member functions for copy&#45;constr...">
<polygon fill="#ffffff" stroke="#000000" points="885,-123.5 885,-153.5 1006,-153.5 1006,-123.5 885,-123.5"/>
<text text-anchor="start" x="893" y="-141.5" font-family="Helvetica,sans-Serif" font-size="10.00" fill="#000000">drake/common/drake</text>
<text text-anchor="middle" x="945.5" y="-130.5" font-family="Helvetica,sans-Serif" font-size="10.00" fill="#000000">_copyable.h</text>
</a>
</g>
</g>
<!-- Node0&#45;&gt;Node5 -->
<g id="edge5" class="edge">
<title>Node0&#45;&gt;Node5</title>
<path fill="none" stroke="#191970" d="M332.0565,-257.4981C391.3473,-248.7996 480.3988,-235.1604 557.5,-221 696.7875,-195.4184 733.3093,-185.226 874.993,-154.3204"/>
<polygon fill="#191970" stroke="#191970" points="875.9022,-157.7045 884.9285,-152.1568 874.4127,-150.8648 875.9022,-157.7045"/>
</g>
<!-- Node6 -->
<g id="node7" class="node">
<title>Node6</title>
<g id="a_node7"><a xlink:href="drake__throw_8h.html" target="_top" xlink:title="Provides a convenient wrapper to throw an exception when a condition is unmet.">
<polygon fill="#ffffff" stroke="#000000" points="146,-123.5 146,-153.5 267,-153.5 267,-123.5 146,-123.5"/>
<text text-anchor="start" x="154" y="-141.5" font-family="Helvetica,sans-Serif" font-size="10.00" fill="#000000">drake/common/drake</text>
<text text-anchor="middle" x="206.5" y="-130.5" font-family="Helvetica,sans-Serif" font-size="10.00" fill="#000000">_throw.h</text>
</a>
</g>
</g>
<!-- Node0&#45;&gt;Node6 -->
<g id="edge6" class="edge">
<title>Node0&#45;&gt;Node6</title>
<path fill="none" stroke="#191970" d="M267.0113,-257.4533C268.9506,-242.3406 270.9313,-212.333 260.5,-190 255.146,-178.5374 246.0188,-168.3258 236.7761,-160.0788"/>
<polygon fill="#191970" stroke="#191970" points="238.9815,-157.3605 229.0655,-153.6291 234.4903,-162.7298 238.9815,-157.3605"/>
</g>
<!-- Node9 -->
<g id="node10" class="node">
<title>Node9</title>
<g id="a_node10"><a xlink:href="hash_8h.html" target="_top" xlink:title=" ">
<polygon fill="#ffffff" stroke="#000000" points="423,-196 423,-215 548,-215 548,-196 423,-196"/>
<text text-anchor="middle" x="485.5" y="-203" font-family="Helvetica,sans-Serif" font-size="10.00" fill="#000000">drake/common/hash.h</text>
</a>
</g>
</g>
<!-- Node0&#45;&gt;Node9 -->
<g id="edge10" class="edge">
<title>Node0&#45;&gt;Node9</title>
<path fill="none" stroke="#191970" d="M299.875,-257.3906C338.0573,-246.7169 399.8016,-229.4566 441.4884,-217.8033"/>
<polygon fill="#191970" stroke="#191970" points="442.6779,-221.105 451.3664,-215.0419 440.7933,-214.3634 442.6779,-221.105"/>
</g>
<!-- Node18 -->
<g id="node19" class="node">
<title>Node18</title>
<g id="a_node19"><a xlink:href="never__destroyed_8h.html" target="_top" xlink:title=" ">
<polygon fill="#ffffff" stroke="#000000" points="885,-190.5 885,-220.5 1006,-220.5 1006,-190.5 885,-190.5"/>
<text text-anchor="start" x="893" y="-208.5" font-family="Helvetica,sans-Serif" font-size="10.00" fill="#000000">drake/common/never</text>
<text text-anchor="middle" x="945.5" y="-197.5" font-family="Helvetica,sans-Serif" font-size="10.00" fill="#000000">_destroyed.h</text>
</a>
</g>
</g>
<!-- Node0&#45;&gt;Node18 -->
<g id="edge24" class="edge">
<title>Node0&#45;&gt;Node18</title>
<path fill="none" stroke="#191970" d="M338.5947,-260.3892C470.0151,-248.5034 744.5837,-223.6711 874.4805,-211.9231"/>
<polygon fill="#191970" stroke="#191970" points="875.0657,-215.3845 884.7097,-210.9979 874.4351,-208.413 875.0657,-215.3845"/>
</g>
<!-- Node7 -->
<g id="node8" class="node">
<title>Node7</title>
<g id="a_node8"><a xlink:title=" ">
<polygon fill="#ffffff" stroke="#bfbfbf" points="649,-.5 649,-19.5 718,-19.5 718,-.5 649,-.5"/>
<text text-anchor="middle" x="683.5" y="-7.5" font-family="Helvetica,sans-Serif" font-size="10.00" fill="#000000">type_traits</text>
</a>
</g>
</g>
<!-- Node6&#45;&gt;Node7 -->
<g id="edge7" class="edge">
<title>Node6&#45;&gt;Node7</title>
<path fill="none" stroke="#191970" d="M262.6206,-123.3816C358.4435,-97.5676 551.693,-45.5078 638.9505,-22.0013"/>
<polygon fill="#191970" stroke="#191970" points="640.0586,-25.3276 648.804,-19.3468 638.2378,-18.5686 640.0586,-25.3276"/>
</g>
<!-- Node8 -->
<g id="node9" class="node">
<title>Node8</title>
<g id="a_node9"><a xlink:href="drake__assert_8h.html" target="_top" xlink:title="Provides Drake&#39;s assertion implementation.">
<polygon fill="#ffffff" stroke="#000000" points="579,-56.5 579,-86.5 700,-86.5 700,-56.5 579,-56.5"/>
<text text-anchor="start" x="587" y="-74.5" font-family="Helvetica,sans-Serif" font-size="10.00" fill="#000000">drake/common/drake</text>
<text text-anchor="middle" x="639.5" y="-63.5" font-family="Helvetica,sans-Serif" font-size="10.00" fill="#000000">_assert.h</text>
</a>
</g>
</g>
<!-- Node6&#45;&gt;Node8 -->
<g id="edge8" class="edge">
<title>Node6&#45;&gt;Node8</title>
<path fill="none" stroke="#191970" d="M267.0258,-124.6145C269.8865,-124.0492 272.7221,-123.5077 275.5,-123 376.8384,-104.4799 495.0903,-88.8408 568.6426,-79.8121"/>
<polygon fill="#191970" stroke="#191970" points="569.2158,-83.2682 578.718,-78.5824 568.3676,-76.3198 569.2158,-83.2682"/>
</g>
<!-- Node8&#45;&gt;Node7 -->
<g id="edge9" class="edge">
<title>Node8&#45;&gt;Node7</title>
<path fill="none" stroke="#191970" d="M650.3764,-56.2977C656.4841,-47.7609 664.1439,-37.0545 670.5588,-28.0883"/>
<polygon fill="#191970" stroke="#191970" points="673.4829,-30.0163 676.455,-19.8469 667.7899,-25.9433 673.4829,-30.0163"/>
</g>
<!-- Node9&#45;&gt;Node3 -->
<g id="edge13" class="edge">
<title>Node9&#45;&gt;Node3</title>
<path fill="none" stroke="#191970" d="M422.7255,-202.1079C341.411,-196.7 195.7182,-183.5483 74.5,-154 71.5007,-153.2689 68.4211,-152.3915 65.3583,-151.4309"/>
<polygon fill="#191970" stroke="#191970" points="66.3458,-148.0698 55.7513,-148.156 64.0871,-154.6954 66.3458,-148.0698"/>
</g>
<!-- Node9&#45;&gt;Node4 -->
<g id="edge18" class="edge">
<title>Node9&#45;&gt;Node4</title>
<path fill="none" stroke="#191970" d="M422.7014,-202.226C351.7849,-197.1642 233.6204,-184.584 136.5,-154 134.8428,-153.4781 133.165,-152.8768 131.4924,-152.2205"/>
<polygon fill="#191970" stroke="#191970" points="132.7054,-148.9288 122.1485,-148.0327 129.8424,-155.3165 132.7054,-148.9288"/>
</g>
<!-- Node9&#45;&gt;Node6 -->
<g id="edge23" class="edge">
<title>Node9&#45;&gt;Node6</title>
<path fill="none" stroke="#191970" d="M445.8224,-195.9717C401.9177,-185.4283 330.3099,-168.2321 276.8445,-155.3928"/>
<polygon fill="#191970" stroke="#191970" points="277.624,-151.9805 267.0832,-153.0486 275.9894,-158.787 277.624,-151.9805"/>
</g>
<!-- Node9&#45;&gt;Node7 -->
<g id="edge19" class="edge">
<title>Node9&#45;&gt;Node7</title>
<path fill="none" stroke="#191970" d="M527.2447,-195.9373C584.6425,-182.6333 681.5671,-159.5446 687.5,-154 720.1141,-123.5203 720.8562,-99.1709 709.5,-56 706.8888,-46.0734 701.5933,-36.0366 696.4588,-27.8822"/>
<polygon fill="#191970" stroke="#191970" points="699.364,-25.9303 690.8819,-19.5817 693.5537,-29.8342 699.364,-25.9303"/>
</g>
<!-- Node9&#45;&gt;Node8 -->
<g id="edge22" class="edge">
<title>Node9&#45;&gt;Node8</title>
<path fill="none" stroke="#191970" d="M548.3809,-196.3576C596.2622,-187.9585 656.437,-173.8004 671.5,-154 684.9289,-136.3476 673.0332,-112.3662 660.106,-94.809"/>
<polygon fill="#191970" stroke="#191970" points="662.7138,-92.4629 653.7836,-86.7619 657.2095,-96.7875 662.7138,-92.4629"/>
</g>
<!-- Node10 -->
<g id="node11" class="node">
<title>Node10</title>
<g id="a_node11"><a xlink:title=" ">
<polygon fill="#ffffff" stroke="#bfbfbf" points="757,-129 757,-148 804,-148 804,-129 757,-129"/>
<text text-anchor="middle" x="780.5" y="-136" font-family="Helvetica,sans-Serif" font-size="10.00" fill="#000000">cmath</text>
</a>
</g>
</g>
<!-- Node9&#45;&gt;Node10 -->
<g id="edge11" class="edge">
<title>Node9&#45;&gt;Node10</title>
<path fill="none" stroke="#191970" d="M548.1074,-196.3628C600.6548,-187.8865 677.36,-173.6183 742.5,-154 744.8025,-153.3065 747.1584,-152.5265 749.5135,-151.6949"/>
<polygon fill="#191970" stroke="#191970" points="750.9453,-154.8951 759.0525,-148.0743 748.4612,-148.3507 750.9453,-154.8951"/>
</g>
<!-- Node11 -->
<g id="node12" class="node">
<title>Node11</title>
<g id="a_node12"><a xlink:title=" ">
<polygon fill="#ffffff" stroke="#bfbfbf" points="285,-129 285,-148 338,-148 338,-129 285,-129"/>
<text text-anchor="middle" x="311.5" y="-136" font-family="Helvetica,sans-Serif" font-size="10.00" fill="#000000">cstddef</text>
</a>
</g>
</g>
<!-- Node9&#45;&gt;Node11 -->
<g id="edge12" class="edge">
<title>Node9&#45;&gt;Node11</title>
<path fill="none" stroke="#191970" d="M458.6362,-195.9197C430.7159,-185.8587 385.8244,-169.3906 347.5,-154 345.8937,-153.3549 344.2512,-152.685 342.5956,-152.0016"/>
<polygon fill="#191970" stroke="#191970" points="343.7043,-148.6709 333.1296,-148.018 340.989,-155.1229 343.7043,-148.6709"/>
</g>
<!-- Node12 -->
<g id="node13" class="node">
<title>Node12</title>
<g id="a_node13"><a xlink:title=" ">
<polygon fill="#ffffff" stroke="#bfbfbf" points="356.5,-129 356.5,-148 416.5,-148 416.5,-129 356.5,-129"/>
<text text-anchor="middle" x="386.5" y="-136" font-family="Helvetica,sans-Serif" font-size="10.00" fill="#000000">iostream</text>
</a>
</g>
</g>
<!-- Node9&#45;&gt;Node12 -->
<g id="edge14" class="edge">
<title>Node9&#45;&gt;Node12</title>
<path fill="none" stroke="#191970" d="M471.3157,-195.9005C455.0689,-184.9052 428.2309,-166.7422 409.0966,-153.7927"/>
<polygon fill="#191970" stroke="#191970" points="410.9014,-150.7879 400.658,-148.0817 406.978,-156.5851 410.9014,-150.7879"/>
</g>
<!-- Node13 -->
<g id="node14" class="node">
<title>Node13</title>
<g id="a_node14"><a xlink:title=" ">
<polygon fill="#ffffff" stroke="#bfbfbf" points="434.5,-129 434.5,-148 472.5,-148 472.5,-129 434.5,-129"/>
<text text-anchor="middle" x="453.5" y="-136" font-family="Helvetica,sans-Serif" font-size="10.00" fill="#000000">map</text>
</a>
</g>
</g>
<!-- Node9&#45;&gt;Node13 -->
<g id="edge15" class="edge">
<title>Node9&#45;&gt;Node13</title>
<path fill="none" stroke="#191970" d="M480.9152,-195.9005C476.1152,-185.8505 468.4551,-169.8122 462.4506,-157.2403"/>
<polygon fill="#191970" stroke="#191970" points="465.5444,-155.5968 458.0763,-148.0817 459.2279,-158.6137 465.5444,-155.5968"/>
</g>
<!-- Node14 -->
<g id="node15" class="node">
<title>Node14</title>
<g id="a_node15"><a xlink:title=" ">
<polygon fill="#ffffff" stroke="#bfbfbf" points="490.5,-129 490.5,-148 546.5,-148 546.5,-129 490.5,-129"/>
<text text-anchor="middle" x="518.5" y="-136" font-family="Helvetica,sans-Serif" font-size="10.00" fill="#000000">optional</text>
</a>
</g>
</g>
<!-- Node9&#45;&gt;Node14 -->
<g id="edge16" class="edge">
<title>Node9&#45;&gt;Node14</title>
<path fill="none" stroke="#191970" d="M490.2281,-195.9005C495.1781,-185.8505 503.0776,-169.8122 509.2697,-157.2403"/>
<polygon fill="#191970" stroke="#191970" points="512.5019,-158.5991 513.7807,-148.0817 506.2223,-155.5061 512.5019,-158.5991"/>
</g>
<!-- Node15 -->
<g id="node16" class="node">
<title>Node15</title>
<g id="a_node16"><a xlink:title=" ">
<polygon fill="#ffffff" stroke="#bfbfbf" points="564.5,-129 564.5,-148 596.5,-148 596.5,-129 564.5,-129"/>
<text text-anchor="middle" x="580.5" y="-136" font-family="Helvetica,sans-Serif" font-size="10.00" fill="#000000">set</text>
</a>
</g>
</g>
<!-- Node9&#45;&gt;Node15 -->
<g id="edge17" class="edge">
<title>Node9&#45;&gt;Node15</title>
<path fill="none" stroke="#191970" d="M499.1112,-195.9005C514.6311,-184.9549 540.2223,-166.9064 558.5667,-153.9688"/>
<polygon fill="#191970" stroke="#191970" points="560.7592,-156.7054 566.9141,-148.0817 556.7248,-150.9849 560.7592,-156.7054"/>
</g>
<!-- Node16 -->
<g id="node17" class="node">
<title>Node16</title>
<g id="a_node17"><a xlink:title=" ">
<polygon fill="#ffffff" stroke="#bfbfbf" points="822,-129 822,-148 867,-148 867,-129 822,-129"/>
<text text-anchor="middle" x="844.5" y="-136" font-family="Helvetica,sans-Serif" font-size="10.00" fill="#000000">utility</text>
</a>
</g>
</g>
<!-- Node9&#45;&gt;Node16 -->
<g id="edge20" class="edge">
<title>Node9&#45;&gt;Node16</title>
<path fill="none" stroke="#191970" d="M548.1731,-201.4116C615.1746,-195.7237 723.876,-182.6788 813.5,-154 815.1548,-153.4705 816.8307,-152.8632 818.5019,-152.2025"/>
<polygon fill="#191970" stroke="#191970" points="820.157,-155.2959 827.8419,-148.0026 817.2862,-148.9116 820.157,-155.2959"/>
</g>
<!-- Node17 -->
<g id="node18" class="node">
<title>Node17</title>
<g id="a_node18"><a xlink:title=" ">
<polygon fill="#ffffff" stroke="#bfbfbf" points="615,-129 615,-148 662,-148 662,-129 615,-129"/>
<text text-anchor="middle" x="638.5" y="-136" font-family="Helvetica,sans-Serif" font-size="10.00" fill="#000000">vector</text>
</a>
</g>
</g>
<!-- Node9&#45;&gt;Node17 -->
<g id="edge21" class="edge">
<title>Node9&#45;&gt;Node17</title>
<path fill="none" stroke="#191970" d="M508.6055,-195.8564C532.8435,-185.6765 571.999,-169.0513 605.5,-154 606.6692,-153.4747 607.8599,-152.9355 609.0614,-152.388"/>
<polygon fill="#191970" stroke="#191970" points="610.6955,-155.4885 618.3054,-148.1169 607.7595,-149.134 610.6955,-155.4885"/>
</g>
<!-- Node18&#45;&gt;Node5 -->
<g id="edge28" class="edge">
<title>Node18&#45;&gt;Node5</title>
<path fill="none" stroke="#191970" d="M945.5,-190.2967C945.5,-182.5013 945.5,-172.7991 945.5,-163.9064"/>
<polygon fill="#191970" stroke="#191970" points="949.0001,-163.6431 945.5,-153.6432 942.0001,-163.6432 949.0001,-163.6431"/>
</g>
<!-- Node18&#45;&gt;Node7 -->
<g id="edge26" class="edge">
<title>Node18&#45;&gt;Node7</title>
<path fill="none" stroke="#191970" d="M977.9543,-190.3708C992.227,-181.8631 1007.5331,-169.7522 1015.5,-154 1021.7183,-141.7053 1023.5207,-134.2025 1015.5,-123 981.3469,-75.2985 810.4756,-35.3798 728.0779,-18.5578"/>
<polygon fill="#191970" stroke="#191970" points="728.7404,-15.1211 718.2458,-16.5746 727.3563,-21.9829 728.7404,-15.1211"/>
</g>
<!-- Node18&#45;&gt;Node16 -->
<g id="edge27" class="edge">
<title>Node18&#45;&gt;Node16</title>
<path fill="none" stroke="#191970" d="M922.8336,-190.4639C906.3451,-179.526 884.0996,-164.769 867.5278,-153.7759"/>
<polygon fill="#191970" stroke="#191970" points="869.2455,-150.7153 858.9776,-148.1039 865.3759,-156.5485 869.2455,-150.7153"/>
</g>
<!-- Node19 -->
<g id="node20" class="node">
<title>Node19</title>
<g id="a_node20"><a xlink:title=" ">
<polygon fill="#ffffff" stroke="#bfbfbf" points="1063,-129 1063,-148 1100,-148 1100,-129 1063,-129"/>
<text text-anchor="middle" x="1081.5" y="-136" font-family="Helvetica,sans-Serif" font-size="10.00" fill="#000000">new</text>
</a>
</g>
</g>
<!-- Node18&#45;&gt;Node19 -->
<g id="edge25" class="edge">
<title>Node18&#45;&gt;Node19</title>
<path fill="none" stroke="#191970" d="M976.0211,-190.4639C999.3198,-178.9858 1031.1551,-163.3023 1053.7404,-152.1757"/>
<polygon fill="#191970" stroke="#191970" points="1055.3778,-155.2707 1062.8016,-147.7117 1052.2843,-148.9914 1055.3778,-155.2707"/>
</g>
</g>
</svg>
        <g id="navigator" transform="translate(0 0)" fill="#404254">
                <rect fill="#f2f5e9" fill-opacity="0.5" stroke="#606060" stroke-width=".5" x="0" y="0" width="60" height="60"/>
                <use id="zoomplus" xlink:href="#zoomPlus" x="17" y="9" onmousedown="handleZoom(evt,'in')"/>
                <use id="zoomminus" xlink:href="#zoomMin" x="42" y="9" onmousedown="handleZoom(evt,'out')"/>
                <use id="reset" xlink:href="#resetDef" x="30" y="36" onmousedown="handleReset()"/>
                <g id="arrowUp" xlink:href="#dirArrow" transform="translate(30 24)" onmousedown="handlePan(0,-1)">
                  <use xlink:href="#rim" fill="#404040">
                        <set attributeName="fill" to="#808080" begin="arrowUp.mouseover" end="arrowUp.mouseout"/>
                  </use>
                  <path fill="none" stroke="white" stroke-width="1.5" d="M0,-3.0v7 M-2.5,-0.5L0,-3.0L2.5,-0.5"/>
                </g>
                <g id="arrowRight" xlink:href="#dirArrow" transform="rotate(90) translate(36 -43)" onmousedown="handlePan(1,0)">
                  <use xlink:href="#rim" fill="#404040">
                        <set attributeName="fill" to="#808080" begin="arrowRight.mouseover" end="arrowRight.mouseout"/>
                  </use>
                  <path fill="none" stroke="white" stroke-width="1.5" d="M0,-3.0v7 M-2.5,-0.5L0,-3.0L2.5,-0.5"/>
                </g>
                <g id="arrowDown" xlink:href="#dirArrow" transform="rotate(180) translate(-30 -48)" onmousedown="handlePan(0,1)">
                  <use xlink:href="#rim" fill="#404040">
                        <set attributeName="fill" to="#808080" begin="arrowDown.mouseover" end="arrowDown.mouseout"/>
                  </use>
                  <path fill="none" stroke="white" stroke-width="1.5" d="M0,-3.0v7 M-2.5,-0.5L0,-3.0L2.5,-0.5"/>
                </g>
                <g id="arrowLeft" xlink:href="#dirArrow" transform="rotate(270) translate(-36 17)" onmousedown="handlePan(-1,0)">
                  <use xlink:href="#rim" fill="#404040">
                        <set attributeName="fill" to="#808080" begin="arrowLeft.mouseover" end="arrowLeft.mouseout"/>
                  </use>
                  <path fill="none" stroke="white" stroke-width="1.5" d="M0,-3.0v7 M-2.5,-0.5L0,-3.0L2.5,-0.5"/>
                </g>
        </g>
        <svg viewBox="0 0 15 15" width="100%" height="30px" preserveAspectRatio="xMaxYMin meet">
         <g id="arrow_out" transform="scale(0.3 0.3)">
          <a xlink:href="identifier_8h__incl_org.svg" target="_base">
           <rect id="button" ry="5" rx="5" y="6" x="6" height="38" width="38"
                fill="#f2f5e9" fill-opacity="0.5" stroke="#606060" stroke-width="1.0"/>
           <path id="arrow"
             d="M 11.500037,31.436501 C 11.940474,20.09759 22.043105,11.32322 32.158766,21.979434 L 37.068811,17.246167 C 37.068811,17.246167 37.088388,32 37.088388,32 L 22.160133,31.978069 C 22.160133,31.978069 26.997745,27.140456 26.997745,27.140456 C 18.528582,18.264221 13.291696,25.230495 11.500037,31.436501 z"
             style="fill:#404040;"/>
          </a>
         </g>
        </svg>
</svg>
