<?xml version="1.0" encoding="UTF-8" standalone="no"?>
<!DOCTYPE svg PUBLIC "-//W3C//DTD SVG 1.1//EN"
 "http://www.w3.org/Graphics/SVG/1.1/DTD/svg11.dtd">
<!-- Generated by graphviz version 2.40.1 (20161225.0304)
 -->
<!-- Title: drake/examples/kuka_iiwa_arm/iiwa_common.h Pages: 1 -->
<svg width="593pt" height="296pt"
 viewBox="0.00 0.00 593.00 296.00" xmlns="http://www.w3.org/2000/svg" xmlns:xlink="http://www.w3.org/1999/xlink">
<g id="graph0" class="graph" transform="scale(1 1) rotate(0) translate(4 292)">
<title>drake/examples/kuka_iiwa_arm/iiwa_common.h</title>
<polygon fill="#ffffff" stroke="transparent" points="-4,4 -4,-292 589,-292 589,4 -4,4"/>
<!-- Node0 -->
<g id="node1" class="node">
<title>Node0</title>
<g id="a_node1"><a xlink:title=" ">
<polygon fill="#bfbfbf" stroke="#000000" points="159,-257.5 159,-287.5 306,-287.5 306,-257.5 159,-257.5"/>
<text text-anchor="start" x="167" y="-275.5" font-family="Helvetica,sans-Serif" font-size="10.00" fill="#000000">drake/examples/kuka</text>
<text text-anchor="middle" x="232.5" y="-264.5" font-family="Helvetica,sans-Serif" font-size="10.00" fill="#000000">_iiwa_arm/iiwa_common.h</text>
</a>
</g>
</g>
<!-- Node1 -->
<g id="node2" class="node">
<title>Node1</title>
<g id="a_node2"><a xlink:href="eigen__types_8h.html" target="_top" xlink:title="This file contains abbreviated definitions for certain specializations of Eigen::Matrix that are comm...">
<polygon fill="#ffffff" stroke="#000000" points="172.5,-123.5 172.5,-153.5 292.5,-153.5 292.5,-123.5 172.5,-123.5"/>
<text text-anchor="start" x="180.5" y="-141.5" font-family="Helvetica,sans-Serif" font-size="10.00" fill="#000000">drake/common/eigen</text>
<text text-anchor="middle" x="232.5" y="-130.5" font-family="Helvetica,sans-Serif" font-size="10.00" fill="#000000">_types.h</text>
</a>
</g>
</g>
<!-- Node0&#45;&gt;Node1 -->
<g id="edge1" class="edge">
<title>Node0&#45;&gt;Node1</title>
<path fill="none" stroke="#191970" d="M219.5465,-257.4249C212.0907,-247.7239 203.4401,-234.452 199.5,-221 195.6272,-207.7777 195.6272,-203.2223 199.5,-190 202.4243,-180.0161 207.9433,-170.1314 213.6428,-161.7322"/>
<polygon fill="#191970" stroke="#191970" points="216.5188,-163.7281 219.5465,-153.5751 210.8481,-159.624 216.5188,-163.7281"/>
</g>
<!-- Node8 -->
<g id="node9" class="node">
<title>Node8</title>
<g id="a_node9"><a xlink:href="iiwa__constants_8h.html" target="_top" xlink:title=" ">
<polygon fill="#ffffff" stroke="#000000" points="208.5,-190.5 208.5,-220.5 362.5,-220.5 362.5,-190.5 208.5,-190.5"/>
<text text-anchor="start" x="216.5" y="-208.5" font-family="Helvetica,sans-Serif" font-size="10.00" fill="#000000">drake/manipulation</text>
<text text-anchor="middle" x="285.5" y="-197.5" font-family="Helvetica,sans-Serif" font-size="10.00" fill="#000000">/kuka_iiwa/iiwa_constants.h</text>
</a>
</g>
</g>
<!-- Node0&#45;&gt;Node8 -->
<g id="edge8" class="edge">
<title>Node0&#45;&gt;Node8</title>
<path fill="none" stroke="#191970" d="M244.5265,-257.2967C251.2351,-248.816 259.7289,-238.0785 267.2414,-228.5817"/>
<polygon fill="#191970" stroke="#191970" points="270.062,-230.6574 273.5211,-220.6432 264.572,-226.3146 270.062,-230.6574"/>
</g>
<!-- Node2 -->
<g id="node3" class="node">
<title>Node2</title>
<g id="a_node3"><a xlink:title=" ">
<polygon fill="#ffffff" stroke="#bfbfbf" points="0,-62 0,-81 45,-81 45,-62 0,-62"/>
<text text-anchor="middle" x="22.5" y="-69" font-family="Helvetica,sans-Serif" font-size="10.00" fill="#000000">utility</text>
</a>
</g>
</g>
<!-- Node1&#45;&gt;Node2 -->
<g id="edge2" class="edge">
<title>Node1&#45;&gt;Node2</title>
<path fill="none" stroke="#191970" d="M172.3324,-124.1373C137.1616,-115.0164 92.2125,-102.0996 53.5,-87 52.1336,-86.467 50.7463,-85.895 49.3546,-85.2963"/>
<polygon fill="#191970" stroke="#191970" points="50.8226,-82.1191 40.2782,-81.0864 47.8772,-88.4693 50.8226,-82.1191"/>
</g>
<!-- Node3 -->
<g id="node4" class="node">
<title>Node3</title>
<g id="a_node4"><a xlink:title=" ">
<polygon fill="#ffffff" stroke="#bfbfbf" points="63,-62 63,-81 140,-81 140,-62 63,-62"/>
<text text-anchor="middle" x="101.5" y="-69" font-family="Helvetica,sans-Serif" font-size="10.00" fill="#000000">Eigen/Dense</text>
</a>
</g>
</g>
<!-- Node1&#45;&gt;Node3 -->
<g id="edge3" class="edge">
<title>Node1&#45;&gt;Node3</title>
<path fill="none" stroke="#191970" d="M203.101,-123.4639C181.0219,-112.1715 150.9839,-96.8086 129.3017,-85.7192"/>
<polygon fill="#191970" stroke="#191970" points="130.7747,-82.5414 120.2778,-81.1039 127.5872,-88.7736 130.7747,-82.5414"/>
</g>
<!-- Node4 -->
<g id="node5" class="node">
<title>Node4</title>
<g id="a_node5"><a xlink:href="constants_8h.html" target="_top" xlink:title=" ">
<polygon fill="#ffffff" stroke="#000000" points="158,-62 158,-81 307,-81 307,-62 158,-62"/>
<text text-anchor="middle" x="232.5" y="-69" font-family="Helvetica,sans-Serif" font-size="10.00" fill="#000000">drake/common/constants.h</text>
</a>
</g>
</g>
<!-- Node1&#45;&gt;Node4 -->
<g id="edge4" class="edge">
<title>Node1&#45;&gt;Node4</title>
<path fill="none" stroke="#191970" d="M232.5,-123.2967C232.5,-113.7699 232.5,-101.3954 232.5,-91.1306"/>
<polygon fill="#191970" stroke="#191970" points="236.0001,-91.0549 232.5,-81.055 229.0001,-91.055 236.0001,-91.0549"/>
</g>
<!-- Node5 -->
<g id="node6" class="node">
<title>Node5</title>
<g id="a_node6"><a xlink:href="drake__assert_8h.html" target="_top" xlink:title="Provides Drake&#39;s assertion implementation.">
<polygon fill="#ffffff" stroke="#000000" points="325,-56.5 325,-86.5 446,-86.5 446,-56.5 325,-56.5"/>
<text text-anchor="start" x="333" y="-74.5" font-family="Helvetica,sans-Serif" font-size="10.00" fill="#000000">drake/common/drake</text>
<text text-anchor="middle" x="385.5" y="-63.5" font-family="Helvetica,sans-Serif" font-size="10.00" fill="#000000">_assert.h</text>
</a>
</g>
</g>
<!-- Node1&#45;&gt;Node5 -->
<g id="edge5" class="edge">
<title>Node1&#45;&gt;Node5</title>
<path fill="none" stroke="#191970" d="M266.8362,-123.4639C289.0034,-113.7567 318.0396,-101.0415 341.8408,-90.6188"/>
<polygon fill="#191970" stroke="#191970" points="343.2578,-93.8191 351.0141,-86.6017 340.4499,-87.407 343.2578,-93.8191"/>
</g>
<!-- Node7 -->
<g id="node8" class="node">
<title>Node7</title>
<g id="a_node8"><a xlink:href="drake__copyable_8h.html" target="_top" xlink:title="Provides careful macros to selectively enable or disable the special member functions for copy&#45;constr...">
<polygon fill="#ffffff" stroke="#000000" points="464,-56.5 464,-86.5 585,-86.5 585,-56.5 464,-56.5"/>
<text text-anchor="start" x="472" y="-74.5" font-family="Helvetica,sans-Serif" font-size="10.00" fill="#000000">drake/common/drake</text>
<text text-anchor="middle" x="524.5" y="-63.5" font-family="Helvetica,sans-Serif" font-size="10.00" fill="#000000">_copyable.h</text>
</a>
</g>
</g>
<!-- Node1&#45;&gt;Node7 -->
<g id="edge7" class="edge">
<title>Node1&#45;&gt;Node7</title>
<path fill="none" stroke="#191970" d="M292.6485,-124.6988C339.5058,-113.9473 404.661,-98.9973 453.9731,-87.6825"/>
<polygon fill="#191970" stroke="#191970" points="454.9642,-91.0462 463.9282,-85.3983 453.3987,-84.2235 454.9642,-91.0462"/>
</g>
<!-- Node6 -->
<g id="node7" class="node">
<title>Node6</title>
<g id="a_node7"><a xlink:title=" ">
<polygon fill="#ffffff" stroke="#bfbfbf" points="351,-.5 351,-19.5 420,-19.5 420,-.5 351,-.5"/>
<text text-anchor="middle" x="385.5" y="-7.5" font-family="Helvetica,sans-Serif" font-size="10.00" fill="#000000">type_traits</text>
</a>
</g>
</g>
<!-- Node5&#45;&gt;Node6 -->
<g id="edge6" class="edge">
<title>Node5&#45;&gt;Node6</title>
<path fill="none" stroke="#191970" d="M385.5,-56.2977C385.5,-48.3834 385.5,-38.6043 385.5,-30.0759"/>
<polygon fill="#191970" stroke="#191970" points="389.0001,-29.8469 385.5,-19.8469 382.0001,-29.847 389.0001,-29.8469"/>
</g>
<!-- Node8&#45;&gt;Node1 -->
<g id="edge9" class="edge">
<title>Node8&#45;&gt;Node1</title>
<path fill="none" stroke="#191970" d="M273.4735,-190.2967C266.7649,-181.816 258.2711,-171.0785 250.7586,-161.5817"/>
<polygon fill="#191970" stroke="#191970" points="253.428,-159.3146 244.4789,-153.6432 247.938,-163.6574 253.428,-159.3146"/>
</g>
</g>
</svg>
