<?xml version="1.0" encoding="UTF-8" standalone="no"?>
<!DOCTYPE svg PUBLIC "-//W3C//DTD SVG 1.1//EN"
 "http://www.w3.org/Graphics/SVG/1.1/DTD/svg11.dtd">
<!-- Generated by graphviz version 2.40.1 (20161225.0304)
 -->
<!-- Title: drake/manipulation/kuka_iiwa/iiwa_constants.h Pages: 1 -->
<!--zoomable 184 -->
<svg id="main" version="1.1" xmlns="http://www.w3.org/2000/svg" xmlns:xlink="http://www.w3.org/1999/xlink" xml:space="preserve" onload="init(evt)">
<style type="text/css"><![CDATA[
.edge:hover path { stroke: red; }
.edge:hover polygon { stroke: red; fill: red; }
]]></style>
<script type="text/javascript"><![CDATA[
var edges = document.getElementsByTagName('g');
if (edges && edges.length) {
  for (var i=0;i<edges.length;i++) {
    if (edges[i].id.substr(0,4)=='edge') {
      edges[i].setAttribute('class','edge');
    }
  }
}
]]></script>
        <defs>
                <circle id="rim" cx="0" cy="0" r="7"/>
                <circle id="rim2" cx="0" cy="0" r="3.5"/>
                <g id="zoomPlus">
                        <use xlink:href="#rim" fill="#404040">
                                <set attributeName="fill" to="#808080" begin="zoomplus.mouseover" end="zoomplus.mouseout"/>
                        </use>
                        <path d="M-4,0h8M0,-4v8" fill="none" stroke="white" stroke-width="1.5" pointer-events="none"/>
                </g>
                <g id="zoomMin">
                        <use xlink:href="#rim" fill="#404040">
                                <set attributeName="fill" to="#808080" begin="zoomminus.mouseover" end="zoomminus.mouseout"/>
                        </use>
                        <path d="M-4,0h8" fill="none" stroke="white" stroke-width="1.5" pointer-events="none"/>
                </g>
                <g id="dirArrow">
                        <path fill="none" stroke="white" stroke-width="1.5" d="M0,-3.0v7 M-2.5,-0.5L0,-3.0L2.5,-0.5"/>
                </g>
               <g id="resetDef">
                       <use xlink:href="#rim2" fill="#404040">
                               <set attributeName="fill" to="#808080" begin="reset.mouseover" end="reset.mouseout"/>
                       </use>
               </g>
        </defs>

<script type="text/javascript">
var viewWidth = 814;
var viewHeight = 184;
var sectionId = 'dynsection-1';
</script>
<script xlink:href="svgpan.js"/>
<svg id="graph" class="graph">
<g id="viewport">
<title>drake/manipulation/kuka_iiwa/iiwa_constants.h</title>
<polygon fill="#ffffff" stroke="transparent" points="-4,4 -4,-180 809.5,-180 809.5,4 -4,4"/>
<!-- Node8 -->
<g id="node1" class="node">
<title>Node8</title>
<g id="a_node1"><a xlink:title=" ">
<polygon fill="#bfbfbf" stroke="#000000" points="281.5,-145.5 281.5,-175.5 435.5,-175.5 435.5,-145.5 281.5,-145.5"/>
<text text-anchor="start" x="289.5" y="-163.5" font-family="Helvetica,sans-Serif" font-size="10.00" fill="#000000">drake/manipulation</text>
<text text-anchor="middle" x="358.5" y="-152.5" font-family="Helvetica,sans-Serif" font-size="10.00" fill="#000000">/kuka_iiwa/iiwa_constants.h</text>
</a>
</g>
</g>
<!-- Node9 -->
<g id="node2" class="node">
<title>Node9</title>
<g id="a_node2"><a xlink:href="iiwa__common_8h.html" target="_top" xlink:title=" ">
<polygon fill="#ffffff" stroke="#000000" points="0,-73 0,-103 147,-103 147,-73 0,-73"/>
<text text-anchor="start" x="8" y="-91" font-family="Helvetica,sans-Serif" font-size="10.00" fill="#000000">drake/examples/kuka</text>
<text text-anchor="middle" x="73.5" y="-80" font-family="Helvetica,sans-Serif" font-size="10.00" fill="#000000">_iiwa_arm/iiwa_common.h</text>
</a>
</g>
</g>
<!-- Node8&#45;&gt;Node9 -->
<g id="edge1" class="edge">
<title>Node8&#45;&gt;Node9</title>
<path fill="none" stroke="#191970" d="M289.7485,-143.0106C241.7031,-130.7885 178.2174,-114.6386 132.4765,-103.0028"/>
<polygon fill="#191970" stroke="#191970" points="288.8936,-146.4045 299.4478,-145.478 290.6194,-139.6206 288.8936,-146.4045"/>
</g>
<!-- Node10 -->
<g id="node3" class="node">
<title>Node10</title>
<g id="a_node3"><a xlink:href="iiwa__lcm_8h.html" target="_top" xlink:title=" ">
<polygon fill="#ffffff" stroke="#000000" points="379.5,-.5 379.5,-30.5 501.5,-30.5 501.5,-.5 379.5,-.5"/>
<text text-anchor="start" x="387.5" y="-18.5" font-family="Helvetica,sans-Serif" font-size="10.00" fill="#000000">drake/examples/kuka</text>
<text text-anchor="middle" x="440.5" y="-7.5" font-family="Helvetica,sans-Serif" font-size="10.00" fill="#000000">_iiwa_arm/iiwa_lcm.h</text>
</a>
</g>
</g>
<!-- Node8&#45;&gt;Node10 -->
<g id="edge2" class="edge">
<title>Node8&#45;&gt;Node10</title>
<path fill="none" stroke="#191970" d="M271.3657,-142.9348C237.5187,-134.19 204.4657,-122.575 194.5,-109 183.4535,-93.9528 182.7304,-81.4887 194.5,-67 217.3693,-38.8473 314.283,-25.5406 379.4253,-19.6705"/>
<polygon fill="#191970" stroke="#191970" points="270.8407,-146.4112 281.3909,-145.4397 272.5376,-139.62 270.8407,-146.4112"/>
</g>
<!-- Node11 -->
<g id="node4" class="node">
<title>Node11</title>
<g id="a_node4"><a xlink:href="iiwa__command__receiver_8h.html" target="_top" xlink:title=" ">
<polygon fill="#ffffff" stroke="#000000" points="203.5,-67.5 203.5,-108.5 349.5,-108.5 349.5,-67.5 203.5,-67.5"/>
<text text-anchor="start" x="211.5" y="-96.5" font-family="Helvetica,sans-Serif" font-size="10.00" fill="#000000">drake/manipulation</text>
<text text-anchor="start" x="211.5" y="-85.5" font-family="Helvetica,sans-Serif" font-size="10.00" fill="#000000">/kuka_iiwa/iiwa_command</text>
<text text-anchor="middle" x="276.5" y="-74.5" font-family="Helvetica,sans-Serif" font-size="10.00" fill="#000000">_receiver.h</text>
</a>
</g>
</g>
<!-- Node8&#45;&gt;Node11 -->
<g id="edge3" class="edge">
<title>Node8&#45;&gt;Node11</title>
<path fill="none" stroke="#191970" d="M333.98,-138.8207C323.1139,-129.2135 310.395,-117.9681 299.6879,-108.5015"/>
<polygon fill="#191970" stroke="#191970" points="331.6995,-141.4763 341.5095,-145.478 336.3361,-136.232 331.6995,-141.4763"/>
</g>
<!-- Node12 -->
<g id="node5" class="node">
<title>Node12</title>
<g id="a_node5"><a xlink:href="iiwa__command__sender_8h.html" target="_top" xlink:title=" ">
<polygon fill="#ffffff" stroke="#000000" points="367.5,-67.5 367.5,-108.5 513.5,-108.5 513.5,-67.5 367.5,-67.5"/>
<text text-anchor="start" x="375.5" y="-96.5" font-family="Helvetica,sans-Serif" font-size="10.00" fill="#000000">drake/manipulation</text>
<text text-anchor="start" x="375.5" y="-85.5" font-family="Helvetica,sans-Serif" font-size="10.00" fill="#000000">/kuka_iiwa/iiwa_command</text>
<text text-anchor="middle" x="440.5" y="-74.5" font-family="Helvetica,sans-Serif" font-size="10.00" fill="#000000">_sender.h</text>
</a>
</g>
</g>
<!-- Node8&#45;&gt;Node12 -->
<g id="edge5" class="edge">
<title>Node8&#45;&gt;Node12</title>
<path fill="none" stroke="#191970" d="M383.02,-138.8207C393.8861,-129.2135 406.605,-117.9681 417.3121,-108.5015"/>
<polygon fill="#191970" stroke="#191970" points="380.6639,-136.232 375.4905,-145.478 385.3005,-141.4763 380.6639,-136.232"/>
</g>
<!-- Node13 -->
<g id="node6" class="node">
<title>Node13</title>
<g id="a_node6"><a xlink:href="iiwa__status__receiver_8h.html" target="_top" xlink:title=" ">
<polygon fill="#ffffff" stroke="#000000" points="531.5,-67.5 531.5,-108.5 659.5,-108.5 659.5,-67.5 531.5,-67.5"/>
<text text-anchor="start" x="539.5" y="-96.5" font-family="Helvetica,sans-Serif" font-size="10.00" fill="#000000">drake/manipulation</text>
<text text-anchor="start" x="539.5" y="-85.5" font-family="Helvetica,sans-Serif" font-size="10.00" fill="#000000">/kuka_iiwa/iiwa_status</text>
<text text-anchor="middle" x="595.5" y="-74.5" font-family="Helvetica,sans-Serif" font-size="10.00" fill="#000000">_receiver.h</text>
</a>
</g>
</g>
<!-- Node8&#45;&gt;Node13 -->
<g id="edge7" class="edge">
<title>Node8&#45;&gt;Node13</title>
<path fill="none" stroke="#191970" d="M417.5533,-142.4352C452.0958,-131.8684 495.7331,-118.5194 531.1495,-107.6853"/>
<polygon fill="#191970" stroke="#191970" points="416.1453,-139.2057 407.6066,-145.478 418.193,-145.8995 416.1453,-139.2057"/>
</g>
<!-- Node14 -->
<g id="node7" class="node">
<title>Node14</title>
<g id="a_node7"><a xlink:href="iiwa__status__sender_8h.html" target="_top" xlink:title=" ">
<polygon fill="#ffffff" stroke="#000000" points="677.5,-67.5 677.5,-108.5 805.5,-108.5 805.5,-67.5 677.5,-67.5"/>
<text text-anchor="start" x="685.5" y="-96.5" font-family="Helvetica,sans-Serif" font-size="10.00" fill="#000000">drake/manipulation</text>
<text text-anchor="start" x="685.5" y="-85.5" font-family="Helvetica,sans-Serif" font-size="10.00" fill="#000000">/kuka_iiwa/iiwa_status</text>
<text text-anchor="middle" x="741.5" y="-74.5" font-family="Helvetica,sans-Serif" font-size="10.00" fill="#000000">_sender.h</text>
</a>
</g>
</g>
<!-- Node8&#45;&gt;Node14 -->
<g id="edge9" class="edge">
<title>Node8&#45;&gt;Node14</title>
<path fill="none" stroke="#191970" d="M445.9334,-148.7282C508.3234,-139.6596 594.0228,-125.8397 668.5,-109 671.3298,-108.3602 674.2124,-107.6752 677.1178,-106.9576"/>
<polygon fill="#191970" stroke="#191970" points="445.1345,-145.3071 435.7363,-150.1983 446.1334,-152.2355 445.1345,-145.3071"/>
</g>
<!-- Node11&#45;&gt;Node10 -->
<g id="edge4" class="edge">
<title>Node11&#45;&gt;Node10</title>
<path fill="none" stroke="#191970" d="M332.2827,-63.34C356.8581,-52.4758 384.9447,-40.0595 406.3448,-30.5991"/>
<polygon fill="#191970" stroke="#191970" points="330.7881,-60.1739 323.0571,-67.4183 333.6185,-66.5762 330.7881,-60.1739"/>
</g>
<!-- Node12&#45;&gt;Node10 -->
<g id="edge6" class="edge">
<title>Node12&#45;&gt;Node10</title>
<path fill="none" stroke="#191970" d="M440.5,-57.3279C440.5,-48.0871 440.5,-38.3508 440.5,-30.5991"/>
<polygon fill="#191970" stroke="#191970" points="437.0001,-57.4183 440.5,-67.4183 444.0001,-57.4184 437.0001,-57.4183"/>
</g>
<!-- Node13&#45;&gt;Node10 -->
<g id="edge8" class="edge">
<title>Node13&#45;&gt;Node10</title>
<path fill="none" stroke="#191970" d="M542.1638,-63.0524C519.0845,-52.2573 492.8283,-39.9762 472.7808,-30.5991"/>
<polygon fill="#191970" stroke="#191970" points="540.9568,-66.3518 551.4978,-67.4183 543.9226,-60.0111 540.9568,-66.3518"/>
</g>
<!-- Node14&#45;&gt;Node10 -->
<g id="edge10" class="edge">
<title>Node14&#45;&gt;Node10</title>
<path fill="none" stroke="#191970" d="M667.5417,-66.8149C605.7814,-51.1308 545.3971,-37.6982 501.6969,-28.3154"/>
<polygon fill="#191970" stroke="#191970" points="666.9079,-70.2654 677.4633,-69.3512 668.6417,-63.4835 666.9079,-70.2654"/>
</g>
</g>
</svg>
        <g id="navigator" transform="translate(0 0)" fill="#404254">
                <rect fill="#f2f5e9" fill-opacity="0.5" stroke="#606060" stroke-width=".5" x="0" y="0" width="60" height="60"/>
                <use id="zoomplus" xlink:href="#zoomPlus" x="17" y="9" onmousedown="handleZoom(evt,'in')"/>
                <use id="zoomminus" xlink:href="#zoomMin" x="42" y="9" onmousedown="handleZoom(evt,'out')"/>
                <use id="reset" xlink:href="#resetDef" x="30" y="36" onmousedown="handleReset()"/>
                <g id="arrowUp" xlink:href="#dirArrow" transform="translate(30 24)" onmousedown="handlePan(0,-1)">
                  <use xlink:href="#rim" fill="#404040">
                        <set attributeName="fill" to="#808080" begin="arrowUp.mouseover" end="arrowUp.mouseout"/>
                  </use>
                  <path fill="none" stroke="white" stroke-width="1.5" d="M0,-3.0v7 M-2.5,-0.5L0,-3.0L2.5,-0.5"/>
                </g>
                <g id="arrowRight" xlink:href="#dirArrow" transform="rotate(90) translate(36 -43)" onmousedown="handlePan(1,0)">
                  <use xlink:href="#rim" fill="#404040">
                        <set attributeName="fill" to="#808080" begin="arrowRight.mouseover" end="arrowRight.mouseout"/>
                  </use>
                  <path fill="none" stroke="white" stroke-width="1.5" d="M0,-3.0v7 M-2.5,-0.5L0,-3.0L2.5,-0.5"/>
                </g>
                <g id="arrowDown" xlink:href="#dirArrow" transform="rotate(180) translate(-30 -48)" onmousedown="handlePan(0,1)">
                  <use xlink:href="#rim" fill="#404040">
                        <set attributeName="fill" to="#808080" begin="arrowDown.mouseover" end="arrowDown.mouseout"/>
                  </use>
                  <path fill="none" stroke="white" stroke-width="1.5" d="M0,-3.0v7 M-2.5,-0.5L0,-3.0L2.5,-0.5"/>
                </g>
                <g id="arrowLeft" xlink:href="#dirArrow" transform="rotate(270) translate(-36 17)" onmousedown="handlePan(-1,0)">
                  <use xlink:href="#rim" fill="#404040">
                        <set attributeName="fill" to="#808080" begin="arrowLeft.mouseover" end="arrowLeft.mouseout"/>
                  </use>
                  <path fill="none" stroke="white" stroke-width="1.5" d="M0,-3.0v7 M-2.5,-0.5L0,-3.0L2.5,-0.5"/>
                </g>
        </g>
        <svg viewBox="0 0 15 15" width="100%" height="30px" preserveAspectRatio="xMaxYMin meet">
         <g id="arrow_out" transform="scale(0.3 0.3)">
          <a xlink:href="iiwa__constants_8h__dep__incl_org.svg" target="_base">
           <rect id="button" ry="5" rx="5" y="6" x="6" height="38" width="38"
                fill="#f2f5e9" fill-opacity="0.5" stroke="#606060" stroke-width="1.0"/>
           <path id="arrow"
             d="M 11.500037,31.436501 C 11.940474,20.09759 22.043105,11.32322 32.158766,21.979434 L 37.068811,17.246167 C 37.068811,17.246167 37.088388,32 37.088388,32 L 22.160133,31.978069 C 22.160133,31.978069 26.997745,27.140456 26.997745,27.140456 C 18.528582,18.264221 13.291696,25.230495 11.500037,31.436501 z"
             style="fill:#404040;"/>
          </a>
         </g>
        </svg>
</svg>
