<?xml version="1.0" encoding="UTF-8" standalone="no"?>
<!DOCTYPE svg PUBLIC "-//W3C//DTD SVG 1.1//EN"
 "http://www.w3.org/Graphics/SVG/1.1/DTD/svg11.dtd">
<!-- Generated by graphviz version 2.40.1 (20161225.0304)
 -->
<!-- Title: drake/systems/analysis/implicit_integrator.h Pages: 1 -->
<svg width="608pt" height="117pt"
 viewBox="0.00 0.00 607.50 117.00" xmlns="http://www.w3.org/2000/svg" xmlns:xlink="http://www.w3.org/1999/xlink">
<g id="graph0" class="graph" transform="scale(1 1) rotate(0) translate(4 113)">
<title>drake/systems/analysis/implicit_integrator.h</title>
<polygon fill="#ffffff" stroke="transparent" points="-4,4 -4,-113 603.5,-113 603.5,4 -4,4"/>
<!-- Node122 -->
<g id="node1" class="node">
<title>Node122</title>
<g id="a_node1"><a xlink:title=" ">
<polygon fill="#bfbfbf" stroke="#000000" points="242.5,-78.5 242.5,-108.5 374.5,-108.5 374.5,-78.5 242.5,-78.5"/>
<text text-anchor="start" x="250.5" y="-96.5" font-family="Helvetica,sans-Serif" font-size="10.00" fill="#000000">drake/systems/analysis</text>
<text text-anchor="middle" x="308.5" y="-85.5" font-family="Helvetica,sans-Serif" font-size="10.00" fill="#000000">/implicit_integrator.h</text>
</a>
</g>
</g>
<!-- Node123 -->
<g id="node2" class="node">
<title>Node123</title>
<g id="a_node2"><a xlink:href="implicit__euler__integrator_8h.html" target="_top" xlink:title=" ">
<polygon fill="#ffffff" stroke="#000000" points="0,-6 0,-36 149,-36 149,-6 0,-6"/>
<text text-anchor="start" x="8" y="-24" font-family="Helvetica,sans-Serif" font-size="10.00" fill="#000000">drake/systems/analysis</text>
<text text-anchor="middle" x="74.5" y="-13" font-family="Helvetica,sans-Serif" font-size="10.00" fill="#000000">/implicit_euler_integrator.h</text>
</a>
</g>
</g>
<!-- Node122&#45;&gt;Node123 -->
<g id="edge1" class="edge">
<title>Node122&#45;&gt;Node123</title>
<path fill="none" stroke="#191970" d="M250.3139,-75.4723C211.0832,-63.3174 159.9297,-47.4686 122.9228,-36.0028"/>
<polygon fill="#191970" stroke="#191970" points="249.4272,-78.8616 260.015,-78.478 251.4989,-72.1752 249.4272,-78.8616"/>
</g>
<!-- Node124 -->
<g id="node3" class="node">
<title>Node124</title>
<g id="a_node3"><a xlink:href="radau__integrator_8h.html" target="_top" xlink:title=" ">
<polygon fill="#ffffff" stroke="#000000" points="167.5,-6 167.5,-36 299.5,-36 299.5,-6 167.5,-6"/>
<text text-anchor="start" x="175.5" y="-24" font-family="Helvetica,sans-Serif" font-size="10.00" fill="#000000">drake/systems/analysis</text>
<text text-anchor="middle" x="233.5" y="-13" font-family="Helvetica,sans-Serif" font-size="10.00" fill="#000000">/radau_integrator.h</text>
</a>
</g>
</g>
<!-- Node122&#45;&gt;Node124 -->
<g id="edge2" class="edge">
<title>Node122&#45;&gt;Node124</title>
<path fill="none" stroke="#191970" d="M285.5668,-71.3313C273.7192,-59.8785 259.5746,-46.2054 249.0201,-36.0028"/>
<polygon fill="#191970" stroke="#191970" points="283.3375,-74.0442 292.96,-78.478 288.2026,-69.0112 283.3375,-74.0442"/>
</g>
<!-- Node125 -->
<g id="node4" class="node">
<title>Node125</title>
<g id="a_node4"><a xlink:href="implicit__integrator__test_8h.html" target="_top" xlink:title=" ">
<polygon fill="#ffffff" stroke="#000000" points="317.5,-.5 317.5,-41.5 449.5,-41.5 449.5,-.5 317.5,-.5"/>
<text text-anchor="start" x="325.5" y="-29.5" font-family="Helvetica,sans-Serif" font-size="10.00" fill="#000000">drake/systems/analysis</text>
<text text-anchor="start" x="325.5" y="-18.5" font-family="Helvetica,sans-Serif" font-size="10.00" fill="#000000">/test_utilities/implicit</text>
<text text-anchor="middle" x="383.5" y="-7.5" font-family="Helvetica,sans-Serif" font-size="10.00" fill="#000000">_integrator_test.h</text>
</a>
</g>
</g>
<!-- Node122&#45;&gt;Node125 -->
<g id="edge3" class="edge">
<title>Node122&#45;&gt;Node125</title>
<path fill="none" stroke="#191970" d="M331.5077,-71.2593C341.3165,-61.7774 352.6886,-50.7843 362.2915,-41.5015"/>
<polygon fill="#191970" stroke="#191970" points="328.7974,-69.0112 324.04,-78.478 333.6625,-74.0442 328.7974,-69.0112"/>
</g>
<!-- Node126 -->
<g id="node5" class="node">
<title>Node126</title>
<g id="a_node5"><a xlink:href="velocity__implicit__euler__integrator_8h.html" target="_top" xlink:title=" ">
<polygon fill="#ffffff" stroke="#000000" points="467.5,-.5 467.5,-41.5 599.5,-41.5 599.5,-.5 467.5,-.5"/>
<text text-anchor="start" x="475.5" y="-29.5" font-family="Helvetica,sans-Serif" font-size="10.00" fill="#000000">drake/systems/analysis</text>
<text text-anchor="start" x="475.5" y="-18.5" font-family="Helvetica,sans-Serif" font-size="10.00" fill="#000000">/velocity_implicit_euler</text>
<text text-anchor="middle" x="533.5" y="-7.5" font-family="Helvetica,sans-Serif" font-size="10.00" fill="#000000">_integrator.h</text>
</a>
</g>
</g>
<!-- Node122&#45;&gt;Node126 -->
<g id="edge4" class="edge">
<title>Node122&#45;&gt;Node126</title>
<path fill="none" stroke="#191970" d="M364.7553,-75.3733C396.6987,-65.0804 436.7874,-52.163 469.8746,-41.5015"/>
<polygon fill="#191970" stroke="#191970" points="363.5648,-72.0796 355.1201,-78.478 365.7117,-78.7423 363.5648,-72.0796"/>
</g>
</g>
</svg>
