<?xml version="1.0" encoding="UTF-8" standalone="no"?>
<!DOCTYPE svg PUBLIC "-//W3C//DTD SVG 1.1//EN"
 "http://www.w3.org/Graphics/SVG/1.1/DTD/svg11.dtd">
<!-- Generated by graphviz version 2.40.1 (20161225.0304)
 -->
<!-- Title: Graphical Class Hierarchy Pages: 1 -->
<svg width="659pt" height="1242pt"
 viewBox="0.00 0.00 659.00 1241.50" xmlns="http://www.w3.org/2000/svg" xmlns:xlink="http://www.w3.org/1999/xlink">
<g id="graph0" class="graph" transform="scale(1 1) rotate(0) translate(4 1237.5)">
<title>Graphical Class Hierarchy</title>
<polygon fill="#ffffff" stroke="transparent" points="-4,4 -4,-1237.5 655,-1237.5 655,4 -4,4"/>
<!-- Node0 -->
<g id="node1" class="node">
<title>Node0</title>
<g id="a_node1"><a xlink:href="classdrake_1_1solvers_1_1_evaluator_base.html" target="_top" xlink:title="Provides an abstract interface to represent an expression, mapping a fixed or dynamic number of input...">
<polygon fill="#ffffff" stroke="#000000" points="0,-95.5 0,-114.5 87,-114.5 87,-95.5 0,-95.5"/>
<text text-anchor="middle" x="43.5" y="-102.5" font-family="Helvetica,sans-Serif" font-size="10.00" fill="#000000">EvaluatorBase</text>
</a>
</g>
</g>
<!-- Node1 -->
<g id="node2" class="node">
<title>Node1</title>
<g id="a_node2"><a xlink:href="classdrake_1_1multibody_1_1_contact_wrench_evaluator.html" target="_top" xlink:title=" ">
<polygon fill="#ffffff" stroke="#000000" points="123,-946.5 123,-965.5 260,-965.5 260,-946.5 123,-946.5"/>
<text text-anchor="middle" x="191.5" y="-953.5" font-family="Helvetica,sans-Serif" font-size="10.00" fill="#000000">ContactWrenchEvaluator</text>
</a>
</g>
</g>
<!-- Node0&#45;&gt;Node1 -->
<g id="edge1" class="edge">
<title>Node0&#45;&gt;Node1</title>
<path fill="none" stroke="#191970" d="M45.5397,-124.9994C53.2122,-198.6865 82.0068,-461.8505 123,-676 143.5114,-783.1519 178.7627,-910.8551 188.776,-946.4061"/>
<polygon fill="#191970" stroke="#191970" points="48.999,-124.4244 44.491,-114.8365 42.036,-125.1429 48.999,-124.4244"/>
</g>
<!-- Node3 -->
<g id="node4" class="node">
<title>Node3</title>
<g id="a_node4"><a xlink:href="classdrake_1_1solvers_1_1_constraint.html" target="_top" xlink:title="A constraint is a function + lower and upper bounds.">
<polygon fill="#ffffff" stroke="#000000" points="158,-647.5 158,-666.5 225,-666.5 225,-647.5 158,-647.5"/>
<text text-anchor="middle" x="191.5" y="-654.5" font-family="Helvetica,sans-Serif" font-size="10.00" fill="#000000">Constraint</text>
</a>
</g>
</g>
<!-- Node0&#45;&gt;Node3 -->
<g id="edge3" class="edge">
<title>Node0&#45;&gt;Node3</title>
<path fill="none" stroke="#191970" d="M48.7145,-124.4487C72.6312,-213.6515 171.4119,-582.0768 188.8605,-647.1553"/>
<polygon fill="#191970" stroke="#191970" points="52.0392,-123.3334 46.0688,-114.581 45.278,-125.1463 52.0392,-123.3334"/>
</g>
<!-- Node33 -->
<g id="node34" class="node">
<title>Node33</title>
<g id="a_node34"><a xlink:href="classdrake_1_1solvers_1_1_cost.html" target="_top" xlink:title="Provides an abstract base for all costs.">
<polygon fill="#ffffff" stroke="#000000" points="172.5,-114.5 172.5,-133.5 210.5,-133.5 210.5,-114.5 172.5,-114.5"/>
<text text-anchor="middle" x="191.5" y="-121.5" font-family="Helvetica,sans-Serif" font-size="10.00" fill="#000000">Cost</text>
</a>
</g>
</g>
<!-- Node0&#45;&gt;Node33 -->
<g id="edge33" class="edge">
<title>Node0&#45;&gt;Node33</title>
<path fill="none" stroke="#191970" d="M97.3184,-111.9091C123.5383,-115.2752 153.4185,-119.1112 172.3601,-121.5428"/>
<polygon fill="#191970" stroke="#191970" points="97.4687,-108.3998 87.1044,-110.5979 96.5773,-115.3428 97.4687,-108.3998"/>
</g>
<!-- Node39 -->
<g id="node40" class="node">
<title>Node39</title>
<g id="a_node40"><a xlink:href="classdrake_1_1solvers_1_1_function_evaluator.html" target="_top" xlink:title="An evaluator that may be specified using a callable object.">
<polygon fill="#ffffff" stroke="#000000" points="125.5,-76.5 125.5,-95.5 257.5,-95.5 257.5,-76.5 125.5,-76.5"/>
<text text-anchor="middle" x="191.5" y="-83.5" font-family="Helvetica,sans-Serif" font-size="10.00" fill="#000000">FunctionEvaluator&lt; F &gt;</text>
</a>
</g>
</g>
<!-- Node0&#45;&gt;Node39 -->
<g id="edge39" class="edge">
<title>Node0&#45;&gt;Node39</title>
<path fill="none" stroke="#191970" d="M97.224,-98.103C106.3856,-96.9268 115.9966,-95.693 125.4334,-94.4815"/>
<polygon fill="#191970" stroke="#191970" points="96.5773,-94.6572 87.1044,-99.4021 97.4687,-101.6002 96.5773,-94.6572"/>
</g>
<!-- Node40 -->
<g id="node41" class="node">
<title>Node40</title>
<g id="a_node41"><a xlink:href="classdrake_1_1solvers_1_1_polynomial_evaluator.html" target="_top" xlink:title="Implements an evaluator of the form P(x, y...) where P is a multivariate polynomial in x,...">
<polygon fill="#ffffff" stroke="#000000" points="132.5,-38.5 132.5,-57.5 250.5,-57.5 250.5,-38.5 132.5,-38.5"/>
<text text-anchor="middle" x="191.5" y="-45.5" font-family="Helvetica,sans-Serif" font-size="10.00" fill="#000000">PolynomialEvaluator</text>
</a>
</g>
</g>
<!-- Node0&#45;&gt;Node40 -->
<g id="edge40" class="edge">
<title>Node0&#45;&gt;Node40</title>
<path fill="none" stroke="#191970" d="M70.3947,-90.6925C85.5603,-82.9965 105.0189,-73.7317 123,-67 132.3619,-63.4951 142.6572,-60.306 152.358,-57.5837"/>
<polygon fill="#191970" stroke="#191970" points="68.3916,-87.7874 61.1074,-95.481 71.5995,-94.0091 68.3916,-87.7874"/>
</g>
<!-- Node41 -->
<g id="node42" class="node">
<title>Node41</title>
<g id="a_node42"><a xlink:href="classdrake_1_1solvers_1_1_visualization_callback.html" target="_top" xlink:title="Defines a simple evaluator with no outputs that takes a callback function pointer.">
<polygon fill="#ffffff" stroke="#000000" points="130.5,-.5 130.5,-19.5 252.5,-19.5 252.5,-.5 130.5,-.5"/>
<text text-anchor="middle" x="191.5" y="-7.5" font-family="Helvetica,sans-Serif" font-size="10.00" fill="#000000">VisualizationCallback</text>
</a>
</g>
</g>
<!-- Node0&#45;&gt;Node41 -->
<g id="edge41" class="edge">
<title>Node0&#45;&gt;Node41</title>
<path fill="none" stroke="#191970" d="M57.6562,-87.0741C72.2551,-69.7623 96.5638,-44.0219 123,-29 129.7599,-25.1588 137.3412,-22.0575 144.9302,-19.5646"/>
<polygon fill="#191970" stroke="#191970" points="54.5807,-85.305 50.9472,-95.2573 59.9939,-89.7431 54.5807,-85.305"/>
</g>
<!-- Node2 -->
<g id="node3" class="node">
<title>Node2</title>
<g id="a_node3"><a xlink:href="classdrake_1_1multibody_1_1_contact_wrench_from_force_in_world_frame_evaluator.html" target="_top" xlink:title="The contact wrench is τ_AB_W = 0, f_AB_W = λ Namely we assume that λ is the contact force from A to B...">
<polygon fill="#ffffff" stroke="#000000" points="311.5,-1203 311.5,-1233 462.5,-1233 462.5,-1203 311.5,-1203"/>
<text text-anchor="start" x="319.5" y="-1221" font-family="Helvetica,sans-Serif" font-size="10.00" fill="#000000">ContactWrenchFromForceIn</text>
<text text-anchor="middle" x="387" y="-1210" font-family="Helvetica,sans-Serif" font-size="10.00" fill="#000000">WorldFrameEvaluator</text>
</a>
</g>
</g>
<!-- Node1&#45;&gt;Node2 -->
<g id="edge2" class="edge">
<title>Node1&#45;&gt;Node2</title>
<path fill="none" stroke="#191970" d="M194.3555,-976.0947C201.9653,-1021.9851 227.0737,-1135.0591 296,-1194 300.5946,-1197.9289 305.7619,-1201.2235 311.2405,-1203.985"/>
<polygon fill="#191970" stroke="#191970" points="197.7733,-975.2943 192.7818,-965.949 190.856,-976.3673 197.7733,-975.2943"/>
</g>
<!-- Node4 -->
<g id="node5" class="node">
<title>Node4</title>
<g id="a_node5"><a xlink:href="classdrake_1_1examples_1_1planar__gripper_1_1_brick_static_equilibrium_nonlinear_constraint.html" target="_top" xlink:title="Given the set of contacts between the fingertips and the brick, impose the static equilibrium as a no...">
<polygon fill="#ffffff" stroke="#000000" points="301,-1154 301,-1184 473,-1184 473,-1154 301,-1154"/>
<text text-anchor="start" x="309" y="-1172" font-family="Helvetica,sans-Serif" font-size="10.00" fill="#000000">BrickStaticEquilibriumNonlinear</text>
<text text-anchor="middle" x="387" y="-1161" font-family="Helvetica,sans-Serif" font-size="10.00" fill="#000000">Constraint</text>
</a>
</g>
</g>
<!-- Node3&#45;&gt;Node4 -->
<g id="edge4" class="edge">
<title>Node3&#45;&gt;Node4</title>
<path fill="none" stroke="#191970" d="M196.7056,-676.3178C208.8086,-721.6233 239.3784,-838.345 260,-937 279.1062,-1028.4054 233.2112,-1074.88 296,-1144 299.5253,-1147.8807 303.5911,-1151.1819 308.0073,-1153.9878"/>
<polygon fill="#191970" stroke="#191970" points="200.0751,-675.37 194.1043,-666.6179 193.314,-677.1832 200.0751,-675.37"/>
</g>
<!-- Node5 -->
<g id="node6" class="node">
<title>Node5</title>
<g id="a_node6"><a xlink:href="classdrake_1_1multibody_1_1_angle_between_vectors_constraint.html" target="_top" xlink:title="Constrains that the angle between a vector a and another vector b is between [θ_lower,...">
<polygon fill="#ffffff" stroke="#000000" points="300,-1115.5 300,-1134.5 474,-1134.5 474,-1115.5 300,-1115.5"/>
<text text-anchor="middle" x="387" y="-1122.5" font-family="Helvetica,sans-Serif" font-size="10.00" fill="#000000">AngleBetweenVectorsConstraint</text>
</a>
</g>
</g>
<!-- Node3&#45;&gt;Node5 -->
<g id="edge5" class="edge">
<title>Node3&#45;&gt;Node5</title>
<path fill="none" stroke="#191970" d="M196.4523,-676.3732C208.017,-721.7965 237.523,-838.7511 260,-937 277.1267,-1011.8622 241.587,-1051.8068 296,-1106 299.7736,-1109.7584 304.0865,-1112.8636 308.7369,-1115.4214"/>
<polygon fill="#191970" stroke="#191970" points="199.8345,-675.4717 193.9716,-666.6469 193.0516,-677.2017 199.8345,-675.4717"/>
</g>
<!-- Node6 -->
<g id="node7" class="node">
<title>Node6</title>
<g id="a_node7"><a xlink:href="classdrake_1_1multibody_1_1_distance_constraint.html" target="_top" xlink:title="Constrains the distance between a pair of geometries to be within a range [distance_lower,...">
<polygon fill="#ffffff" stroke="#000000" points="332,-1077.5 332,-1096.5 442,-1096.5 442,-1077.5 332,-1077.5"/>
<text text-anchor="middle" x="387" y="-1084.5" font-family="Helvetica,sans-Serif" font-size="10.00" fill="#000000">DistanceConstraint</text>
</a>
</g>
</g>
<!-- Node3&#45;&gt;Node6 -->
<g id="edge6" class="edge">
<title>Node3&#45;&gt;Node6</title>
<path fill="none" stroke="#191970" d="M196.33,-676.5753C216.3966,-757.83 292.3103,-1064.4662 296,-1068 305.6743,-1077.2656 318.6411,-1082.5203 331.7485,-1085.3909"/>
<polygon fill="#191970" stroke="#191970" points="199.6772,-675.5304 193.8824,-666.6607 192.8812,-677.2081 199.6772,-675.5304"/>
</g>
<!-- Node7 -->
<g id="node8" class="node">
<title>Node7</title>
<g id="a_node8"><a xlink:href="classdrake_1_1multibody_1_1_gaze_target_constraint.html" target="_top" xlink:title="Constrains a target point T to be within a cone K.">
<polygon fill="#ffffff" stroke="#000000" points="325.5,-1039.5 325.5,-1058.5 448.5,-1058.5 448.5,-1039.5 325.5,-1039.5"/>
<text text-anchor="middle" x="387" y="-1046.5" font-family="Helvetica,sans-Serif" font-size="10.00" fill="#000000">GazeTargetConstraint</text>
</a>
</g>
</g>
<!-- Node3&#45;&gt;Node7 -->
<g id="edge7" class="edge">
<title>Node3&#45;&gt;Node7</title>
<path fill="none" stroke="#191970" d="M196.3884,-676.5902C215.1957,-751.6539 282.5073,-1017.3864 296,-1030 304.135,-1037.6049 314.4956,-1042.4906 325.2911,-1045.5705"/>
<polygon fill="#191970" stroke="#191970" points="199.711,-675.4495 193.8893,-666.5974 192.9201,-677.1479 199.711,-675.4495"/>
</g>
<!-- Node8 -->
<g id="node9" class="node">
<title>Node8</title>
<g id="a_node9"><a xlink:href="classdrake_1_1multibody_1_1_manipulator_equation_constraint.html" target="_top" xlink:title="A Constraint to impose the manipulator equation: 0 = (Buₙ₊₁ + ∑ᵢ (Jᵢ_WBᵀ(qₙ₊₁)ᵀ * Fᵢ_AB_W(λᵢ,...">
<polygon fill="#ffffff" stroke="#000000" points="303.5,-1001.5 303.5,-1020.5 470.5,-1020.5 470.5,-1001.5 303.5,-1001.5"/>
<text text-anchor="middle" x="387" y="-1008.5" font-family="Helvetica,sans-Serif" font-size="10.00" fill="#000000">ManipulatorEquationConstraint</text>
</a>
</g>
</g>
<!-- Node3&#45;&gt;Node8 -->
<g id="edge8" class="edge">
<title>Node3&#45;&gt;Node8</title>
<path fill="none" stroke="#191970" d="M195.0151,-676.9895C206.9062,-742.3511 247.5958,-948.0569 296,-992 300.1824,-995.7969 304.9221,-998.9107 309.9886,-1001.4573"/>
<polygon fill="#191970" stroke="#191970" points="198.3982,-676.0254 193.1893,-666.7995 191.508,-677.26 198.3982,-676.0254"/>
</g>
<!-- Node9 -->
<g id="node10" class="node">
<title>Node9</title>
<g id="a_node10"><a xlink:href="classdrake_1_1multibody_1_1_minimum_distance_constraint.html" target="_top" xlink:title="Constrain the signed distance between all candidate pairs of geometries (according to the logic of Sc...">
<polygon fill="#ffffff" stroke="#000000" points="309.5,-963.5 309.5,-982.5 464.5,-982.5 464.5,-963.5 309.5,-963.5"/>
<text text-anchor="middle" x="387" y="-970.5" font-family="Helvetica,sans-Serif" font-size="10.00" fill="#000000">MinimumDistanceConstraint</text>
</a>
</g>
</g>
<!-- Node3&#45;&gt;Node9 -->
<g id="edge9" class="edge">
<title>Node3&#45;&gt;Node9</title>
<path fill="none" stroke="#191970" d="M195.7763,-676.6534C209.2214,-736.6662 252.3424,-915.7747 296,-954 300.2499,-957.7211 305.0387,-960.7799 310.1396,-963.2878"/>
<polygon fill="#191970" stroke="#191970" points="199.1308,-675.6123 193.5544,-666.6038 192.2958,-677.1236 199.1308,-675.6123"/>
</g>
<!-- Node10 -->
<g id="node11" class="node">
<title>Node10</title>
<g id="a_node11"><a xlink:href="classdrake_1_1multibody_1_1_orientation_constraint.html" target="_top" xlink:title="Constrains that the angle difference θ between the orientation of frame A and the orientation of fram...">
<polygon fill="#ffffff" stroke="#000000" points="326,-925.5 326,-944.5 448,-944.5 448,-925.5 326,-925.5"/>
<text text-anchor="middle" x="387" y="-932.5" font-family="Helvetica,sans-Serif" font-size="10.00" fill="#000000">OrientationConstraint</text>
</a>
</g>
</g>
<!-- Node3&#45;&gt;Node10 -->
<g id="edge10" class="edge">
<title>Node3&#45;&gt;Node10</title>
<path fill="none" stroke="#191970" d="M193.281,-676.7655C198.7903,-725.5835 220.0778,-852.496 296,-916 304.542,-923.1448 315.0901,-927.8184 325.9425,-930.8339"/>
<polygon fill="#191970" stroke="#191970" points="196.7409,-676.1944 192.2402,-666.6031 189.7773,-676.9077 196.7409,-676.1944"/>
</g>
<!-- Node11 -->
<g id="node12" class="node">
<title>Node11</title>
<g id="a_node12"><a xlink:href="classdrake_1_1multibody_1_1_point_to_point_distance_constraint.html" target="_top" xlink:title="Constrain that the distance between a point P1 on frame B1 and another point P2 on frame B2 is within...">
<polygon fill="#ffffff" stroke="#000000" points="301.5,-887.5 301.5,-906.5 472.5,-906.5 472.5,-887.5 301.5,-887.5"/>
<text text-anchor="middle" x="387" y="-894.5" font-family="Helvetica,sans-Serif" font-size="10.00" fill="#000000">PointToPointDistanceConstraint</text>
</a>
</g>
</g>
<!-- Node3&#45;&gt;Node11 -->
<g id="edge11" class="edge">
<title>Node3&#45;&gt;Node11</title>
<path fill="none" stroke="#191970" d="M194.7907,-676.8033C203.1512,-720.522 229.4598,-825.5569 296,-878 300.8168,-881.7963 306.2086,-884.8842 311.8987,-887.3904"/>
<polygon fill="#191970" stroke="#191970" points="198.2164,-676.0774 193.0007,-666.8553 191.327,-677.3171 198.2164,-676.0774"/>
</g>
<!-- Node12 -->
<g id="node13" class="node">
<title>Node12</title>
<g id="a_node13"><a xlink:href="classdrake_1_1multibody_1_1_position_constraint.html" target="_top" xlink:title="Constrains the position of a point Q, rigidly attached to a frame B, to be within a bounding box meas...">
<polygon fill="#ffffff" stroke="#000000" points="334,-849.5 334,-868.5 440,-868.5 440,-849.5 334,-849.5"/>
<text text-anchor="middle" x="387" y="-856.5" font-family="Helvetica,sans-Serif" font-size="10.00" fill="#000000">PositionConstraint</text>
</a>
</g>
</g>
<!-- Node3&#45;&gt;Node12 -->
<g id="edge12" class="edge">
<title>Node3&#45;&gt;Node12</title>
<path fill="none" stroke="#191970" d="M196.8435,-676.7359C208.2287,-714.801 238.6429,-798.2776 296,-840 306.9633,-847.9749 320.5295,-852.7619 333.8102,-855.5945"/>
<polygon fill="#191970" stroke="#191970" points="200.1376,-675.5253 194.0205,-666.8747 193.4079,-677.4518 200.1376,-675.5253"/>
</g>
<!-- Node13 -->
<g id="node14" class="node">
<title>Node13</title>
<g id="a_node14"><a xlink:href="classdrake_1_1multibody_1_1_static_equilibrium_constraint.html" target="_top" xlink:title="Impose the static equilibrium constraint 0 = τ_g + Bu + ∑J_WBᵀ(q) * Fapp_B_W.">
<polygon fill="#ffffff" stroke="#000000" points="312,-811.5 312,-830.5 462,-830.5 462,-811.5 312,-811.5"/>
<text text-anchor="middle" x="387" y="-818.5" font-family="Helvetica,sans-Serif" font-size="10.00" fill="#000000">StaticEquilibriumConstraint</text>
</a>
</g>
</g>
<!-- Node3&#45;&gt;Node13 -->
<g id="edge13" class="edge">
<title>Node3&#45;&gt;Node13</title>
<path fill="none" stroke="#191970" d="M199.6062,-676.0975C214.0537,-707.675 247.3716,-770.4122 296,-802 301.9552,-805.8683 308.5515,-808.9682 315.3927,-811.4495"/>
<polygon fill="#191970" stroke="#191970" points="202.683,-674.4011 195.4352,-666.6732 196.2819,-677.2342 202.683,-674.4011"/>
</g>
<!-- Node14 -->
<g id="node15" class="node">
<title>Node14</title>
<g id="a_node15"><a xlink:href="classdrake_1_1multibody_1_1_static_friction_cone_constraint.html" target="_top" xlink:title="Formulates the nonlinear friction cone constraint |fₜ| ≤ μ*fₙ, where fₜ is the tangential contact for...">
<polygon fill="#ffffff" stroke="#000000" points="309.5,-773.5 309.5,-792.5 464.5,-792.5 464.5,-773.5 309.5,-773.5"/>
<text text-anchor="middle" x="387" y="-780.5" font-family="Helvetica,sans-Serif" font-size="10.00" fill="#000000">StaticFrictionConeConstraint</text>
</a>
</g>
</g>
<!-- Node3&#45;&gt;Node14 -->
<g id="edge14" class="edge">
<title>Node3&#45;&gt;Node14</title>
<path fill="none" stroke="#191970" d="M203.5978,-674.8264C221.038,-699.0463 255.622,-741.8613 296,-764 303.0759,-767.8796 310.8591,-770.9685 318.8035,-773.4276"/>
<polygon fill="#191970" stroke="#191970" points="206.3877,-672.7089 197.7768,-666.5362 200.6589,-676.7315 206.3877,-672.7089"/>
</g>
<!-- Node15 -->
<g id="node16" class="node">
<title>Node15</title>
<g id="a_node16"><a xlink:href="classdrake_1_1solvers_1_1_evaluator_constraint.html" target="_top" xlink:title="A constraint that may be specified using another (potentially nonlinear) evaluator.">
<polygon fill="#ffffff" stroke="#000000" points="330.5,-724 330.5,-754 443.5,-754 443.5,-724 330.5,-724"/>
<text text-anchor="start" x="338.5" y="-742" font-family="Helvetica,sans-Serif" font-size="10.00" fill="#000000">EvaluatorConstraint</text>
<text text-anchor="middle" x="387" y="-731" font-family="Helvetica,sans-Serif" font-size="10.00" fill="#000000">&lt; EvaluatorType &gt;</text>
</a>
</g>
</g>
<!-- Node3&#45;&gt;Node15 -->
<g id="edge15" class="edge">
<title>Node3&#45;&gt;Node15</title>
<path fill="none" stroke="#191970" d="M215.2601,-672.0323C235.9515,-684.6111 267.0851,-702.3258 296,-714 306.9386,-718.4164 318.9224,-722.3261 330.4983,-725.6648"/>
<polygon fill="#191970" stroke="#191970" points="216.883,-668.9212 206.5335,-666.6545 213.2105,-674.8805 216.883,-668.9212"/>
</g>
<!-- Node16 -->
<g id="node17" class="node">
<title>Node16</title>
<g id="a_node17"><a xlink:href="classdrake_1_1solvers_1_1_exponential_cone_constraint.html" target="_top" xlink:title="An exponential cone constraint is a special type of convex cone constraint.">
<polygon fill="#ffffff" stroke="#000000" points="312.5,-685.5 312.5,-704.5 461.5,-704.5 461.5,-685.5 312.5,-685.5"/>
<text text-anchor="middle" x="387" y="-692.5" font-family="Helvetica,sans-Serif" font-size="10.00" fill="#000000">ExponentialConeConstraint</text>
</a>
</g>
</g>
<!-- Node3&#45;&gt;Node16 -->
<g id="edge16" class="edge">
<title>Node3&#45;&gt;Node16</title>
<path fill="none" stroke="#191970" d="M235.0399,-665.463C265.5775,-671.3987 306.4382,-679.3409 338.0976,-685.4947"/>
<polygon fill="#191970" stroke="#191970" points="235.5918,-662.0048 225.1076,-663.5324 234.2561,-668.8762 235.5918,-662.0048"/>
</g>
<!-- Node17 -->
<g id="node18" class="node">
<title>Node17</title>
<g id="a_node18"><a xlink:href="classdrake_1_1solvers_1_1_expression_constraint.html" target="_top" xlink:title="Impose a generic (potentially nonlinear) constraint represented as a vector of symbolic Expression.">
<polygon fill="#ffffff" stroke="#000000" points="327,-647.5 327,-666.5 447,-666.5 447,-647.5 327,-647.5"/>
<text text-anchor="middle" x="387" y="-654.5" font-family="Helvetica,sans-Serif" font-size="10.00" fill="#000000">ExpressionConstraint</text>
</a>
</g>
</g>
<!-- Node3&#45;&gt;Node17 -->
<g id="edge17" class="edge">
<title>Node3&#45;&gt;Node17</title>
<path fill="none" stroke="#191970" d="M235.3757,-657C262.2899,-657 297.1281,-657 326.6222,-657"/>
<polygon fill="#191970" stroke="#191970" points="235.1077,-653.5001 225.1076,-657 235.1076,-660.5001 235.1077,-653.5001"/>
</g>
<!-- Node18 -->
<g id="node19" class="node">
<title>Node18</title>
<g id="a_node19"><a xlink:href="classdrake_1_1solvers_1_1_linear_complementarity_constraint.html" target="_top" xlink:title="Implements a constraint of the form:">
<polygon fill="#ffffff" stroke="#000000" points="296,-609.5 296,-628.5 478,-628.5 478,-609.5 296,-609.5"/>
<text text-anchor="middle" x="387" y="-616.5" font-family="Helvetica,sans-Serif" font-size="10.00" fill="#000000">LinearComplementarityConstraint</text>
</a>
</g>
</g>
<!-- Node3&#45;&gt;Node18 -->
<g id="edge18" class="edge">
<title>Node3&#45;&gt;Node18</title>
<path fill="none" stroke="#191970" d="M235.0399,-648.537C265.5775,-642.6013 306.4382,-634.6591 338.0976,-628.5053"/>
<polygon fill="#191970" stroke="#191970" points="234.2561,-645.1238 225.1076,-650.4676 235.5918,-651.9952 234.2561,-645.1238"/>
</g>
<!-- Node19 -->
<g id="node20" class="node">
<title>Node19</title>
<g id="a_node20"><a xlink:href="classdrake_1_1solvers_1_1_linear_constraint.html" target="_top" xlink:title="Implements a constraint of the form .">
<polygon fill="#ffffff" stroke="#000000" points="338.5,-571.5 338.5,-590.5 435.5,-590.5 435.5,-571.5 338.5,-571.5"/>
<text text-anchor="middle" x="387" y="-578.5" font-family="Helvetica,sans-Serif" font-size="10.00" fill="#000000">LinearConstraint</text>
</a>
</g>
</g>
<!-- Node3&#45;&gt;Node19 -->
<g id="edge19" class="edge">
<title>Node3&#45;&gt;Node19</title>
<path fill="none" stroke="#191970" d="M214.3778,-641.9511C234.95,-629.057 266.3993,-610.8921 296,-600 309.3289,-595.0954 324.2471,-591.3176 338.0869,-588.4715"/>
<polygon fill="#191970" stroke="#191970" points="212.2878,-639.1327 205.7368,-647.4595 216.0506,-645.0354 212.2878,-639.1327"/>
</g>
<!-- Node22 -->
<g id="node23" class="node">
<title>Node22</title>
<g id="a_node23"><a xlink:href="classdrake_1_1solvers_1_1_linear_matrix_inequality_constraint.html" target="_top" xlink:title="Impose the matrix inequality constraint on variable x where p.s.d stands for positive semidefinite.">
<polygon fill="#ffffff" stroke="#000000" points="299,-533.5 299,-552.5 475,-552.5 475,-533.5 299,-533.5"/>
<text text-anchor="middle" x="387" y="-540.5" font-family="Helvetica,sans-Serif" font-size="10.00" fill="#000000">LinearMatrixInequalityConstraint</text>
</a>
</g>
</g>
<!-- Node3&#45;&gt;Node22 -->
<g id="edge22" class="edge">
<title>Node3&#45;&gt;Node22</title>
<path fill="none" stroke="#191970" d="M205.4066,-639.6084C223.7647,-617.8992 258.2103,-581.2827 296,-562 303.6192,-558.1122 311.9841,-555.0198 320.4592,-552.5601"/>
<polygon fill="#191970" stroke="#191970" points="202.6481,-637.452 198.9761,-647.3902 208.0442,-641.9111 202.6481,-637.452"/>
</g>
<!-- Node23 -->
<g id="node24" class="node">
<title>Node23</title>
<g id="a_node24"><a xlink:href="classdrake_1_1solvers_1_1_lorentz_cone_constraint.html" target="_top" xlink:title="Constraining the linear expression &#160;lies within the Lorentz cone.">
<polygon fill="#ffffff" stroke="#000000" points="323,-495.5 323,-514.5 451,-514.5 451,-495.5 323,-495.5"/>
<text text-anchor="middle" x="387" y="-502.5" font-family="Helvetica,sans-Serif" font-size="10.00" fill="#000000">LorentzConeConstraint</text>
</a>
</g>
</g>
<!-- Node3&#45;&gt;Node23 -->
<g id="edge23" class="edge">
<title>Node3&#45;&gt;Node23</title>
<path fill="none" stroke="#191970" d="M200.6848,-638.2471C216.0888,-608.8991 250.0196,-552.5292 296,-524 304.0913,-518.9797 313.2865,-515.2642 322.6471,-512.5188"/>
<polygon fill="#191970" stroke="#191970" points="197.4373,-636.9115 196.0195,-647.4111 203.6755,-640.0874 197.4373,-636.9115"/>
</g>
<!-- Node24 -->
<g id="node25" class="node">
<title>Node24</title>
<g id="a_node25"><a xlink:href="classdrake_1_1solvers_1_1_minimum_value_constraint.html" target="_top" xlink:title="Constrain all elements of the vector returned by the user&#45;provided function to be no smaller than a s...">
<polygon fill="#ffffff" stroke="#000000" points="317,-457.5 317,-476.5 457,-476.5 457,-457.5 317,-457.5"/>
<text text-anchor="middle" x="387" y="-464.5" font-family="Helvetica,sans-Serif" font-size="10.00" fill="#000000">MinimumValueConstraint</text>
</a>
</g>
</g>
<!-- Node3&#45;&gt;Node24 -->
<g id="edge24" class="edge">
<title>Node3&#45;&gt;Node24</title>
<path fill="none" stroke="#191970" d="M197.5669,-637.5683C209.8787,-601.5322 241.3663,-524.514 296,-486 302.3317,-481.5365 309.4883,-478.0788 316.9377,-475.4067"/>
<polygon fill="#191970" stroke="#191970" points="194.1501,-636.7554 194.3573,-647.3482 200.8011,-638.9383 194.1501,-636.7554"/>
</g>
<!-- Node25 -->
<g id="node26" class="node">
<title>Node25</title>
<g id="a_node26"><a xlink:href="classdrake_1_1solvers_1_1_positive_semidefinite_constraint.html" target="_top" xlink:title="Implements a positive semidefinite constraint on a symmetric matrix S &#160;namely, all eigen values of S ...">
<polygon fill="#ffffff" stroke="#000000" points="303,-419.5 303,-438.5 471,-438.5 471,-419.5 303,-419.5"/>
<text text-anchor="middle" x="387" y="-426.5" font-family="Helvetica,sans-Serif" font-size="10.00" fill="#000000">PositiveSemidefiniteConstraint</text>
</a>
</g>
</g>
<!-- Node3&#45;&gt;Node25 -->
<g id="edge25" class="edge">
<title>Node3&#45;&gt;Node25</title>
<path fill="none" stroke="#191970" d="M195.3239,-637.4049C204.5776,-595.5185 232.2821,-497.0945 296,-448 300.986,-444.1583 306.5648,-441.0462 312.44,-438.5305"/>
<polygon fill="#191970" stroke="#191970" points="191.8959,-636.699 193.2727,-647.204 198.7474,-638.1333 191.8959,-636.699"/>
</g>
<!-- Node26 -->
<g id="node27" class="node">
<title>Node26</title>
<g id="a_node27"><a xlink:href="classdrake_1_1solvers_1_1_quadratic_constraint.html" target="_top" xlink:title="lb ≤ .5 xᵀQx + bᵀx ≤ ub Without loss of generality, the class stores a symmetric matrix Q.">
<polygon fill="#ffffff" stroke="#000000" points="330,-381.5 330,-400.5 444,-400.5 444,-381.5 330,-381.5"/>
<text text-anchor="middle" x="387" y="-388.5" font-family="Helvetica,sans-Serif" font-size="10.00" fill="#000000">QuadraticConstraint</text>
</a>
</g>
</g>
<!-- Node3&#45;&gt;Node26 -->
<g id="edge26" class="edge">
<title>Node3&#45;&gt;Node26</title>
<path fill="none" stroke="#191970" d="M193.7157,-637.1891C200.1107,-589.9114 223.0719,-469.9692 296,-410 305.5987,-402.1069 317.6559,-397.2431 329.8243,-394.3003"/>
<polygon fill="#191970" stroke="#191970" points="190.2158,-636.9712 192.453,-647.3272 197.1622,-637.8365 190.2158,-636.9712"/>
</g>
<!-- Node27 -->
<g id="node28" class="node">
<title>Node27</title>
<g id="a_node28"><a xlink:href="classdrake_1_1solvers_1_1_rotated_lorentz_cone_constraint.html" target="_top" xlink:title="Constraining that the linear expression &#160;lies within rotated Lorentz cone.">
<polygon fill="#ffffff" stroke="#000000" points="304,-343.5 304,-362.5 470,-362.5 470,-343.5 304,-343.5"/>
<text text-anchor="middle" x="387" y="-350.5" font-family="Helvetica,sans-Serif" font-size="10.00" fill="#000000">RotatedLorentzConeConstraint</text>
</a>
</g>
</g>
<!-- Node3&#45;&gt;Node27 -->
<g id="edge27" class="edge">
<title>Node3&#45;&gt;Node27</title>
<path fill="none" stroke="#191970" d="M192.4799,-637.0516C196.1791,-584.8057 213.6981,-443.1128 296,-372 300.3964,-368.2013 305.3558,-365.0953 310.633,-362.5623"/>
<polygon fill="#191970" stroke="#191970" points="188.9701,-637.1073 191.8557,-647.3016 195.9571,-637.5328 188.9701,-637.1073"/>
</g>
<!-- Node28 -->
<g id="node29" class="node">
<title>Node28</title>
<g id="a_node29"><a xlink:href="classdrake_1_1systems_1_1_system_constraint_wrapper.html" target="_top" xlink:title="This wrapper class wraps a SystemConstraint object to the format of solvers::Constraint.">
<polygon fill="#ffffff" stroke="#000000" points="314.5,-305.5 314.5,-324.5 459.5,-324.5 459.5,-305.5 314.5,-305.5"/>
<text text-anchor="middle" x="387" y="-312.5" font-family="Helvetica,sans-Serif" font-size="10.00" fill="#000000">SystemConstraintWrapper</text>
</a>
</g>
</g>
<!-- Node3&#45;&gt;Node28 -->
<g id="edge28" class="edge">
<title>Node3&#45;&gt;Node28</title>
<path fill="none" stroke="#191970" d="M195.2024,-637.3007C207.527,-573.8009 249.0537,-376.171 296,-334 301.4029,-329.1467 307.7182,-325.4125 314.4581,-322.554"/>
<polygon fill="#191970" stroke="#191970" points="191.7451,-636.7456 193.3034,-647.2252 198.6204,-638.0612 191.7451,-636.7456"/>
</g>
<!-- Node29 -->
<g id="node30" class="node">
<title>Node29</title>
<g id="a_node30"><a xlink:href="classdrake_1_1systems_1_1trajectory__optimization_1_1_direct_collocation_constraint.html" target="_top" xlink:title="Implements the direct collocation constraints for a first&#45;order hold on the input and a cubic polynom...">
<polygon fill="#ffffff" stroke="#000000" points="311.5,-267.5 311.5,-286.5 462.5,-286.5 462.5,-267.5 311.5,-267.5"/>
<text text-anchor="middle" x="387" y="-274.5" font-family="Helvetica,sans-Serif" font-size="10.00" fill="#000000">DirectCollocationConstraint</text>
</a>
</g>
</g>
<!-- Node3&#45;&gt;Node29 -->
<g id="edge29" class="edge">
<title>Node3&#45;&gt;Node29</title>
<path fill="none" stroke="#191970" d="M194.4996,-637.2755C205.2827,-568.9593 244.2032,-344.0056 296,-296 300.4981,-291.8311 305.6659,-288.4812 311.2055,-285.799"/>
<polygon fill="#191970" stroke="#191970" points="190.9886,-637.0763 192.9136,-647.4948 197.9058,-638.1499 190.9886,-637.0763"/>
</g>
<!-- Node30 -->
<g id="node31" class="node">
<title>Node30</title>
<g id="a_node31"><a xlink:href="classdrake_1_1systems_1_1trajectory__optimization_1_1_mid_point_integration_constraint.html" target="_top" xlink:title="Implements the midpoint integration.">
<polygon fill="#ffffff" stroke="#000000" points="306,-229.5 306,-248.5 468,-248.5 468,-229.5 306,-229.5"/>
<text text-anchor="middle" x="387" y="-236.5" font-family="Helvetica,sans-Serif" font-size="10.00" fill="#000000">MidPointIntegrationConstraint</text>
</a>
</g>
</g>
<!-- Node3&#45;&gt;Node30 -->
<g id="edge30" class="edge">
<title>Node3&#45;&gt;Node30</title>
<path fill="none" stroke="#191970" d="M193.9437,-637.1137C203.3233,-564.0453 239.355,-311.8642 296,-258 299.9765,-254.2187 304.502,-251.1066 309.3603,-248.5528"/>
<polygon fill="#191970" stroke="#191970" points="190.4448,-636.8861 192.6681,-647.245 197.39,-637.7606 190.4448,-636.8861"/>
</g>
<!-- Node31 -->
<g id="node32" class="node">
<title>Node31</title>
<g id="a_node32"><a xlink:href="classdrake_1_1solvers_1_1_evaluator_constraint.html" target="_top" xlink:title=" ">
<polygon fill="#ffffff" stroke="#000000" points="317,-180 317,-210 457,-210 457,-180 317,-180"/>
<text text-anchor="start" x="325" y="-198" font-family="Helvetica,sans-Serif" font-size="10.00" fill="#000000">EvaluatorConstraint</text>
<text text-anchor="middle" x="387" y="-187" font-family="Helvetica,sans-Serif" font-size="10.00" fill="#000000">&lt; PolynomialEvaluator &gt;</text>
</a>
</g>
</g>
<!-- Node3&#45;&gt;Node31 -->
<g id="edge31" class="edge">
<title>Node3&#45;&gt;Node31</title>
<path fill="none" stroke="#191970" d="M193.6117,-636.8697C202.1336,-559.3765 236.4218,-281.6014 296,-220 301.809,-213.9937 308.9151,-209.3884 316.5709,-205.8642"/>
<polygon fill="#191970" stroke="#191970" points="190.094,-636.8469 192.5031,-647.1642 197.0538,-637.5965 190.094,-636.8469"/>
</g>
<!-- Node20 -->
<g id="node21" class="node">
<title>Node20</title>
<g id="a_node21"><a xlink:href="classdrake_1_1solvers_1_1_bounding_box_constraint.html" target="_top" xlink:title="Implements a constraint of the form .">
<polygon fill="#ffffff" stroke="#000000" points="517,-590.5 517,-609.5 648,-609.5 648,-590.5 517,-590.5"/>
<text text-anchor="middle" x="582.5" y="-597.5" font-family="Helvetica,sans-Serif" font-size="10.00" fill="#000000">BoundingBoxConstraint</text>
</a>
</g>
</g>
<!-- Node19&#45;&gt;Node20 -->
<g id="edge20" class="edge">
<title>Node19&#45;&gt;Node20</title>
<path fill="none" stroke="#191970" d="M445.6289,-586.698C468.0572,-588.8777 493.7762,-591.3772 516.8208,-593.6169"/>
<polygon fill="#191970" stroke="#191970" points="445.8687,-583.2049 435.577,-585.721 445.1915,-590.172 445.8687,-583.2049"/>
</g>
<!-- Node21 -->
<g id="node22" class="node">
<title>Node21</title>
<g id="a_node22"><a xlink:href="classdrake_1_1solvers_1_1_linear_equality_constraint.html" target="_top" xlink:title="Implements a constraint of the form .">
<polygon fill="#ffffff" stroke="#000000" points="514,-552.5 514,-571.5 651,-571.5 651,-552.5 514,-552.5"/>
<text text-anchor="middle" x="582.5" y="-559.5" font-family="Helvetica,sans-Serif" font-size="10.00" fill="#000000">LinearEqualityConstraint</text>
</a>
</g>
</g>
<!-- Node19&#45;&gt;Node21 -->
<g id="edge21" class="edge">
<title>Node19&#45;&gt;Node21</title>
<path fill="none" stroke="#191970" d="M445.541,-575.3106C467.0368,-573.2215 491.565,-570.8377 513.8677,-568.6701"/>
<polygon fill="#191970" stroke="#191970" points="445.1915,-571.828 435.577,-576.279 445.8687,-578.7951 445.1915,-571.828"/>
</g>
<!-- Node32 -->
<g id="node33" class="node">
<title>Node32</title>
<g id="a_node33"><a xlink:href="classdrake_1_1solvers_1_1_polynomial_constraint.html" target="_top" xlink:title="A constraint on the values of multivariate polynomials.">
<polygon fill="#ffffff" stroke="#000000" points="521.5,-185.5 521.5,-204.5 643.5,-204.5 643.5,-185.5 521.5,-185.5"/>
<text text-anchor="middle" x="582.5" y="-192.5" font-family="Helvetica,sans-Serif" font-size="10.00" fill="#000000">PolynomialConstraint</text>
</a>
</g>
</g>
<!-- Node31&#45;&gt;Node32 -->
<g id="edge32" class="edge">
<title>Node31&#45;&gt;Node32</title>
<path fill="none" stroke="#191970" d="M467.2608,-195C485.3364,-195 504.2368,-195 521.3798,-195"/>
<polygon fill="#191970" stroke="#191970" points="467.0278,-191.5001 457.0278,-195 467.0278,-198.5001 467.0278,-191.5001"/>
</g>
<!-- Node34 -->
<g id="node35" class="node">
<title>Node34</title>
<g id="a_node35"><a xlink:href="classdrake_1_1solvers_1_1_evaluator_cost.html" target="_top" xlink:title="A cost that may be specified using another (potentially nonlinear) evaluator.">
<polygon fill="#ffffff" stroke="#000000" points="315.5,-131 315.5,-161 458.5,-161 458.5,-131 315.5,-131"/>
<text text-anchor="start" x="323.5" y="-149" font-family="Helvetica,sans-Serif" font-size="10.00" fill="#000000">EvaluatorCost&lt; Evaluator</text>
<text text-anchor="middle" x="387" y="-138" font-family="Helvetica,sans-Serif" font-size="10.00" fill="#000000">Type &gt;</text>
</a>
</g>
</g>
<!-- Node33&#45;&gt;Node34 -->
<g id="edge34" class="edge">
<title>Node33&#45;&gt;Node34</title>
<path fill="none" stroke="#191970" d="M220.8543,-127.3033C245.8353,-130.1145 282.7633,-134.27 315.4646,-137.95"/>
<polygon fill="#191970" stroke="#191970" points="220.93,-123.7898 210.6013,-126.1495 220.1472,-130.7459 220.93,-123.7898"/>
</g>
<!-- Node35 -->
<g id="node36" class="node">
<title>Node35</title>
<g id="a_node36"><a xlink:href="classdrake_1_1solvers_1_1_linear_cost.html" target="_top" xlink:title="Implements a cost of the form .">
<polygon fill="#ffffff" stroke="#000000" points="353,-92.5 353,-111.5 421,-111.5 421,-92.5 353,-92.5"/>
<text text-anchor="middle" x="387" y="-99.5" font-family="Helvetica,sans-Serif" font-size="10.00" fill="#000000">LinearCost</text>
</a>
</g>
</g>
<!-- Node33&#45;&gt;Node35 -->
<g id="edge35" class="edge">
<title>Node33&#45;&gt;Node35</title>
<path fill="none" stroke="#191970" d="M220.7423,-120.7093C256.066,-116.7343 315.3938,-110.058 352.8024,-105.8483"/>
<polygon fill="#191970" stroke="#191970" points="220.1472,-117.2541 210.6013,-121.8505 220.93,-124.2102 220.1472,-117.2541"/>
</g>
<!-- Node36 -->
<g id="node37" class="node">
<title>Node36</title>
<g id="a_node37"><a xlink:href="classdrake_1_1solvers_1_1_quadratic_cost.html" target="_top" xlink:title="Implements a cost of the form .">
<polygon fill="#ffffff" stroke="#000000" points="344,-54.5 344,-73.5 430,-73.5 430,-54.5 344,-54.5"/>
<text text-anchor="middle" x="387" y="-61.5" font-family="Helvetica,sans-Serif" font-size="10.00" fill="#000000">QuadraticCost</text>
</a>
</g>
</g>
<!-- Node33&#45;&gt;Node36 -->
<g id="edge36" class="edge">
<title>Node33&#45;&gt;Node36</title>
<path fill="none" stroke="#191970" d="M220.4601,-117.8634C232.9033,-114.7467 247.4411,-110.4519 260,-105 277.2003,-97.5332 278.567,-89.9063 296,-83 311.1548,-76.9963 328.5161,-72.7724 343.9839,-69.8585"/>
<polygon fill="#191970" stroke="#191970" points="219.5125,-114.491 210.5899,-120.2039 221.1276,-121.3021 219.5125,-114.491"/>
</g>
<!-- Node37 -->
<g id="node38" class="node">
<title>Node37</title>
<g id="a_node38"><a xlink:href="classdrake_1_1solvers_1_1_evaluator_cost.html" target="_top" xlink:title=" ">
<polygon fill="#ffffff" stroke="#000000" points="311.5,-5 311.5,-35 462.5,-35 462.5,-5 311.5,-5"/>
<text text-anchor="start" x="319.5" y="-23" font-family="Helvetica,sans-Serif" font-size="10.00" fill="#000000">EvaluatorCost&lt; Polynomial</text>
<text text-anchor="middle" x="387" y="-12" font-family="Helvetica,sans-Serif" font-size="10.00" fill="#000000">Evaluator &gt;</text>
</a>
</g>
</g>
<!-- Node33&#45;&gt;Node37 -->
<g id="edge37" class="edge">
<title>Node33&#45;&gt;Node37</title>
<path fill="none" stroke="#191970" d="M220.6018,-120.893C233.6825,-118.3181 248.6857,-113.6097 260,-105 284.748,-86.1679 271.2288,-63.8016 296,-45 301.0897,-41.1369 306.7406,-37.8706 312.6636,-35.1089"/>
<polygon fill="#191970" stroke="#191970" points="219.9294,-117.4565 210.6307,-122.5344 221.0665,-124.3636 219.9294,-117.4565"/>
</g>
<!-- Node38 -->
<g id="node39" class="node">
<title>Node38</title>
<g id="a_node39"><a xlink:href="classdrake_1_1solvers_1_1_polynomial_cost.html" target="_top" xlink:title="Implements a cost of the form P(x, y...) where P is a multivariate polynomial in x,...">
<polygon fill="#ffffff" stroke="#000000" points="536,-10.5 536,-29.5 629,-29.5 629,-10.5 536,-10.5"/>
<text text-anchor="middle" x="582.5" y="-17.5" font-family="Helvetica,sans-Serif" font-size="10.00" fill="#000000">PolynomialCost</text>
</a>
</g>
</g>
<!-- Node37&#45;&gt;Node38 -->
<g id="edge38" class="edge">
<title>Node37&#45;&gt;Node38</title>
<path fill="none" stroke="#191970" d="M472.8162,-20C494.5122,-20 517.0044,-20 535.931,-20"/>
<polygon fill="#191970" stroke="#191970" points="472.5854,-16.5001 462.5854,-20 472.5854,-23.5001 472.5854,-16.5001"/>
</g>
</g>
</svg>
