<?xml version="1.0" encoding="UTF-8" standalone="no"?>
<!DOCTYPE svg PUBLIC "-//W3C//DTD SVG 1.1//EN"
 "http://www.w3.org/Graphics/SVG/1.1/DTD/svg11.dtd">
<!-- Generated by graphviz version 2.40.1 (20161225.0304)
 -->
<!-- Title: Graphical Class Hierarchy Pages: 1 -->
<svg width="546pt" height="180pt"
 viewBox="0.00 0.00 546.00 180.00" xmlns="http://www.w3.org/2000/svg" xmlns:xlink="http://www.w3.org/1999/xlink">
<g id="graph0" class="graph" transform="scale(1 1) rotate(0) translate(4 176)">
<title>Graphical Class Hierarchy</title>
<polygon fill="#ffffff" stroke="transparent" points="-4,4 -4,-176 542,-176 542,4 -4,4"/>
<!-- Node0 -->
<g id="node1" class="node">
<title>Node0</title>
<g id="a_node1"><a xlink:href="classdrake_1_1systems_1_1_port_base.html" target="_top" xlink:title="A PortBase is base class for System ports; users will typically use the the InputPort&lt;T&gt; or OutputPor...">
<polygon fill="#ffffff" stroke="#000000" points="0,-57.5 0,-76.5 60,-76.5 60,-57.5 0,-57.5"/>
<text text-anchor="middle" x="30" y="-64.5" font-family="Helvetica,sans-Serif" font-size="10.00" fill="#000000">PortBase</text>
</a>
</g>
</g>
<!-- Node1 -->
<g id="node2" class="node">
<title>Node1</title>
<g id="a_node2"><a xlink:href="classdrake_1_1systems_1_1_input_port_base.html" target="_top" xlink:title="An InputPort is a System resource that describes the kind of input a System accepts,...">
<polygon fill="#ffffff" stroke="#000000" points="100,-95.5 100,-114.5 185,-114.5 185,-95.5 100,-95.5"/>
<text text-anchor="middle" x="142.5" y="-102.5" font-family="Helvetica,sans-Serif" font-size="10.00" fill="#000000">InputPortBase</text>
</a>
</g>
</g>
<!-- Node0&#45;&gt;Node1 -->
<g id="edge1" class="edge">
<title>Node0&#45;&gt;Node1</title>
<path fill="none" stroke="#191970" d="M67.9715,-79.8259C83.0666,-84.9247 100.1322,-90.6891 114.1206,-95.4141"/>
<polygon fill="#191970" stroke="#191970" points="68.9827,-76.4733 58.3885,-76.589 66.7426,-83.1052 68.9827,-76.4733"/>
</g>
<!-- Node5 -->
<g id="node6" class="node">
<title>Node5</title>
<g id="a_node6"><a xlink:href="classdrake_1_1systems_1_1_output_port_base.html" target="_top" xlink:title="OutputPortBase handles the scalar type&#45;independent aspects of an OutputPort.">
<polygon fill="#ffffff" stroke="#000000" points="96,-38.5 96,-57.5 189,-57.5 189,-38.5 96,-38.5"/>
<text text-anchor="middle" x="142.5" y="-45.5" font-family="Helvetica,sans-Serif" font-size="10.00" fill="#000000">OutputPortBase</text>
</a>
</g>
</g>
<!-- Node0&#45;&gt;Node5 -->
<g id="edge5" class="edge">
<title>Node0&#45;&gt;Node5</title>
<path fill="none" stroke="#191970" d="M70.2736,-60.1982C78.526,-58.8045 87.2787,-57.3263 95.7367,-55.8978"/>
<polygon fill="#191970" stroke="#191970" points="69.4254,-56.7918 60.1479,-61.9083 70.5912,-63.6941 69.4254,-56.7918"/>
</g>
<!-- Node2 -->
<g id="node3" class="node">
<title>Node2</title>
<g id="a_node3"><a xlink:href="classdrake_1_1systems_1_1_input_port.html" target="_top" xlink:title="An InputPort is a System resource that describes the kind of input a System accepts,...">
<polygon fill="#ffffff" stroke="#000000" points="249,-152.5 249,-171.5 338,-171.5 338,-152.5 249,-152.5"/>
<text text-anchor="middle" x="293.5" y="-159.5" font-family="Helvetica,sans-Serif" font-size="10.00" fill="#000000">InputPort&lt; T &gt;</text>
</a>
</g>
</g>
<!-- Node1&#45;&gt;Node2 -->
<g id="edge2" class="edge">
<title>Node1&#45;&gt;Node2</title>
<path fill="none" stroke="#191970" d="M170.3302,-119.1815C186.1061,-126.8725 206.3614,-136.173 225,-143 234.5025,-146.4806 244.9456,-149.6808 254.7517,-152.4232"/>
<polygon fill="#191970" stroke="#191970" points="171.6562,-115.9326 161.1408,-114.6372 168.5532,-122.2073 171.6562,-115.9326"/>
</g>
<!-- Node3 -->
<g id="node4" class="node">
<title>Node3</title>
<g id="a_node4"><a xlink:href="classdrake_1_1systems_1_1_input_port.html" target="_top" xlink:title=" ">
<polygon fill="#ffffff" stroke="#000000" points="225,-114.5 225,-133.5 362,-133.5 362,-114.5 225,-114.5"/>
<text text-anchor="middle" x="293.5" y="-121.5" font-family="Helvetica,sans-Serif" font-size="10.00" fill="#000000">InputPort&lt; AutoDiffXd &gt;</text>
</a>
</g>
</g>
<!-- Node1&#45;&gt;Node3 -->
<g id="edge3" class="edge">
<title>Node1&#45;&gt;Node3</title>
<path fill="none" stroke="#191970" d="M195.4338,-111.6605C204.9308,-112.8555 214.9525,-114.1165 224.8176,-115.3578"/>
<polygon fill="#191970" stroke="#191970" points="195.7254,-108.1697 185.3666,-110.3938 194.8514,-115.115 195.7254,-108.1697"/>
</g>
<!-- Node4 -->
<g id="node5" class="node">
<title>Node4</title>
<g id="a_node5"><a xlink:href="classdrake_1_1systems_1_1_input_port.html" target="_top" xlink:title=" ">
<polygon fill="#ffffff" stroke="#000000" points="235.5,-76.5 235.5,-95.5 351.5,-95.5 351.5,-76.5 235.5,-76.5"/>
<text text-anchor="middle" x="293.5" y="-83.5" font-family="Helvetica,sans-Serif" font-size="10.00" fill="#000000">InputPort&lt; double &gt;</text>
</a>
</g>
</g>
<!-- Node1&#45;&gt;Node4 -->
<g id="edge4" class="edge">
<title>Node1&#45;&gt;Node4</title>
<path fill="none" stroke="#191970" d="M195.4596,-98.3362C208.3429,-96.7151 222.1902,-94.9728 235.3017,-93.323"/>
<polygon fill="#191970" stroke="#191970" points="194.8514,-94.885 185.3666,-99.6062 195.7254,-101.8303 194.8514,-94.885"/>
</g>
<!-- Node6 -->
<g id="node7" class="node">
<title>Node6</title>
<g id="a_node7"><a xlink:href="classdrake_1_1systems_1_1_output_port.html" target="_top" xlink:title="An OutputPort belongs to a System and represents the properties of one of that System&#39;s output ports.">
<polygon fill="#ffffff" stroke="#000000" points="244.5,-38.5 244.5,-57.5 342.5,-57.5 342.5,-38.5 244.5,-38.5"/>
<text text-anchor="middle" x="293.5" y="-45.5" font-family="Helvetica,sans-Serif" font-size="10.00" fill="#000000">OutputPort&lt; T &gt;</text>
</a>
</g>
</g>
<!-- Node5&#45;&gt;Node6 -->
<g id="edge6" class="edge">
<title>Node5&#45;&gt;Node6</title>
<path fill="none" stroke="#191970" d="M199.1108,-48C213.946,-48 229.8209,-48 244.2382,-48"/>
<polygon fill="#191970" stroke="#191970" points="199.0371,-44.5001 189.0371,-48 199.0371,-51.5001 199.0371,-44.5001"/>
</g>
<!-- Node9 -->
<g id="node10" class="node">
<title>Node9</title>
<g id="a_node10"><a xlink:href="classdrake_1_1systems_1_1_output_port.html" target="_top" xlink:title=" ">
<polygon fill="#ffffff" stroke="#000000" points="231,-.5 231,-19.5 356,-19.5 356,-.5 231,-.5"/>
<text text-anchor="middle" x="293.5" y="-7.5" font-family="Helvetica,sans-Serif" font-size="10.00" fill="#000000">OutputPort&lt; double &gt;</text>
</a>
</g>
</g>
<!-- Node5&#45;&gt;Node9 -->
<g id="edge9" class="edge">
<title>Node5&#45;&gt;Node9</title>
<path fill="none" stroke="#191970" d="M190.3431,-35.96C211.4386,-30.6512 235.8766,-24.5012 255.6703,-19.5201"/>
<polygon fill="#191970" stroke="#191970" points="189.4471,-32.5763 180.6037,-38.411 191.1555,-39.3646 189.4471,-32.5763"/>
</g>
<!-- Node7 -->
<g id="node8" class="node">
<title>Node7</title>
<g id="a_node8"><a xlink:href="classdrake_1_1systems_1_1_diagram_output_port.html" target="_top" xlink:title="(Advanced.) Holds information about a subsystem output port that has been exported to become one of t...">
<polygon fill="#ffffff" stroke="#000000" points="398,-57.5 398,-76.5 538,-76.5 538,-57.5 398,-57.5"/>
<text text-anchor="middle" x="468" y="-64.5" font-family="Helvetica,sans-Serif" font-size="10.00" fill="#000000">DiagramOutputPort&lt; T &gt;</text>
</a>
</g>
</g>
<!-- Node6&#45;&gt;Node7 -->
<g id="edge7" class="edge">
<title>Node6&#45;&gt;Node7</title>
<path fill="none" stroke="#191970" d="M352.8675,-54.4641C367.319,-56.0376 382.9109,-57.7353 397.8118,-59.3577"/>
<polygon fill="#191970" stroke="#191970" points="352.8925,-50.9462 342.5724,-53.3431 352.1347,-57.9051 352.8925,-50.9462"/>
</g>
<!-- Node8 -->
<g id="node9" class="node">
<title>Node8</title>
<g id="a_node9"><a xlink:href="classdrake_1_1systems_1_1_leaf_output_port.html" target="_top" xlink:title="(Advanced.) Implements an output port whose value is managed by a cache entry in the same LeafSystem ...">
<polygon fill="#ffffff" stroke="#000000" points="408.5,-19.5 408.5,-38.5 527.5,-38.5 527.5,-19.5 408.5,-19.5"/>
<text text-anchor="middle" x="468" y="-26.5" font-family="Helvetica,sans-Serif" font-size="10.00" fill="#000000">LeafOutputPort&lt; T &gt;</text>
</a>
</g>
</g>
<!-- Node6&#45;&gt;Node8 -->
<g id="edge8" class="edge">
<title>Node6&#45;&gt;Node8</title>
<path fill="none" stroke="#191970" d="M352.6485,-41.5598C370.6447,-39.6003 390.4267,-37.4464 408.4493,-35.484"/>
<polygon fill="#191970" stroke="#191970" points="352.1347,-38.0949 342.5724,-42.6569 352.8925,-45.0538 352.1347,-38.0949"/>
</g>
</g>
</svg>
