<?xml version="1.0" encoding="UTF-8" standalone="no"?>
<!DOCTYPE svg PUBLIC "-//W3C//DTD SVG 1.1//EN"
 "http://www.w3.org/Graphics/SVG/1.1/DTD/svg11.dtd">
<!-- Generated by graphviz version 2.40.1 (20161225.0304)
 -->
<!-- Title: Graphical Class Hierarchy Pages: 1 -->
<svg width="157pt" height="294pt"
 viewBox="0.00 0.00 157.00 294.00" xmlns="http://www.w3.org/2000/svg" xmlns:xlink="http://www.w3.org/1999/xlink">
<g id="graph0" class="graph" transform="scale(1 1) rotate(0) translate(4 290)">
<title>Graphical Class Hierarchy</title>
<polygon fill="#ffffff" stroke="transparent" points="-4,4 -4,-290 153,-290 153,4 -4,4"/>
<!-- Node0 -->
<g id="node1" class="node">
<title>Node0</title>
<g id="a_node1"><a xlink:href="classdrake_1_1geometry_1_1_shape.html" target="_top" xlink:title="The base interface for all shape specifications.">
<polygon fill="#ffffff" stroke="#000000" points="0,-133.5 0,-152.5 47,-152.5 47,-133.5 0,-133.5"/>
<text text-anchor="middle" x="23.5" y="-140.5" font-family="Helvetica,sans-Serif" font-size="10.00" fill="#000000">Shape</text>
</a>
</g>
</g>
<!-- Node1 -->
<g id="node2" class="node">
<title>Node1</title>
<g id="a_node2"><a xlink:href="classdrake_1_1geometry_1_1_box.html" target="_top" xlink:title="Definition of a box.">
<polygon fill="#ffffff" stroke="#000000" points="98.5,-266.5 98.5,-285.5 133.5,-285.5 133.5,-266.5 98.5,-266.5"/>
<text text-anchor="middle" x="116" y="-273.5" font-family="Helvetica,sans-Serif" font-size="10.00" fill="#000000">Box</text>
</a>
</g>
</g>
<!-- Node0&#45;&gt;Node1 -->
<g id="edge1" class="edge">
<title>Node0&#45;&gt;Node1</title>
<path fill="none" stroke="#191970" d="M29.723,-162.2438C38.4171,-186.697 56.2066,-229.0747 83,-257 87.3023,-261.4841 92.8944,-265.2369 98.249,-268.1908"/>
<polygon fill="#191970" stroke="#191970" points="32.9993,-161.0071 26.4611,-152.6703 26.3734,-163.2648 32.9993,-161.0071"/>
</g>
<!-- Node2 -->
<g id="node3" class="node">
<title>Node2</title>
<g id="a_node3"><a xlink:href="classdrake_1_1geometry_1_1_capsule.html" target="_top" xlink:title="Definition of a capsule.">
<polygon fill="#ffffff" stroke="#000000" points="88,-228.5 88,-247.5 144,-247.5 144,-228.5 88,-228.5"/>
<text text-anchor="middle" x="116" y="-235.5" font-family="Helvetica,sans-Serif" font-size="10.00" fill="#000000">Capsule</text>
</a>
</g>
</g>
<!-- Node0&#45;&gt;Node2 -->
<g id="edge2" class="edge">
<title>Node0&#45;&gt;Node2</title>
<path fill="none" stroke="#191970" d="M35.0657,-161.5884C45.9764,-178.0817 63.5292,-202.1118 83,-219 86.9953,-222.4653 91.7161,-225.6203 96.319,-228.3205"/>
<polygon fill="#191970" stroke="#191970" points="37.8015,-159.3722 29.4449,-152.8594 31.9161,-163.162 37.8015,-159.3722"/>
</g>
<!-- Node3 -->
<g id="node4" class="node">
<title>Node3</title>
<g id="a_node4"><a xlink:href="classdrake_1_1geometry_1_1_convex.html" target="_top" xlink:title="Support for convex shapes.">
<polygon fill="#ffffff" stroke="#000000" points="89.5,-190.5 89.5,-209.5 142.5,-209.5 142.5,-190.5 89.5,-190.5"/>
<text text-anchor="middle" x="116" y="-197.5" font-family="Helvetica,sans-Serif" font-size="10.00" fill="#000000">Convex</text>
</a>
</g>
</g>
<!-- Node0&#45;&gt;Node3 -->
<g id="edge3" class="edge">
<title>Node0&#45;&gt;Node3</title>
<path fill="none" stroke="#191970" d="M46.6219,-158.1154C57.5748,-165.1858 70.884,-173.6484 83,-181 88.1997,-184.155 93.9241,-187.4962 99.1245,-190.4823"/>
<polygon fill="#191970" stroke="#191970" points="48.3481,-155.0633 38.0536,-152.5588 44.5393,-160.9365 48.3481,-155.0633"/>
</g>
<!-- Node4 -->
<g id="node5" class="node">
<title>Node4</title>
<g id="a_node5"><a xlink:href="classdrake_1_1geometry_1_1_cylinder.html" target="_top" xlink:title="Definition of a cylinder.">
<polygon fill="#ffffff" stroke="#000000" points="87.5,-152.5 87.5,-171.5 144.5,-171.5 144.5,-152.5 87.5,-152.5"/>
<text text-anchor="middle" x="116" y="-159.5" font-family="Helvetica,sans-Serif" font-size="10.00" fill="#000000">Cylinder</text>
</a>
</g>
</g>
<!-- Node0&#45;&gt;Node4 -->
<g id="edge4" class="edge">
<title>Node0&#45;&gt;Node4</title>
<path fill="none" stroke="#191970" d="M57.2254,-149.9274C67.0956,-151.9548 77.7888,-154.1512 87.3146,-156.1079"/>
<polygon fill="#191970" stroke="#191970" points="57.8208,-146.4767 47.321,-147.893 56.4123,-153.3335 57.8208,-146.4767"/>
</g>
<!-- Node5 -->
<g id="node6" class="node">
<title>Node5</title>
<g id="a_node6"><a xlink:href="classdrake_1_1geometry_1_1_ellipsoid.html" target="_top" xlink:title="Definition of an ellipsoid.">
<polygon fill="#ffffff" stroke="#000000" points="87,-114.5 87,-133.5 145,-133.5 145,-114.5 87,-114.5"/>
<text text-anchor="middle" x="116" y="-121.5" font-family="Helvetica,sans-Serif" font-size="10.00" fill="#000000">Ellipsoid</text>
</a>
</g>
</g>
<!-- Node0&#45;&gt;Node5 -->
<g id="edge5" class="edge">
<title>Node0&#45;&gt;Node5</title>
<path fill="none" stroke="#191970" d="M57.1352,-136.0911C66.9139,-134.0826 77.5071,-131.9067 86.9763,-129.9616"/>
<polygon fill="#191970" stroke="#191970" points="56.4123,-132.6665 47.321,-138.107 57.8208,-139.5233 56.4123,-132.6665"/>
</g>
<!-- Node6 -->
<g id="node7" class="node">
<title>Node6</title>
<g id="a_node7"><a xlink:href="classdrake_1_1geometry_1_1_half_space.html" target="_top" xlink:title="Definition of a half space.">
<polygon fill="#ffffff" stroke="#000000" points="83,-76.5 83,-95.5 149,-95.5 149,-76.5 83,-76.5"/>
<text text-anchor="middle" x="116" y="-83.5" font-family="Helvetica,sans-Serif" font-size="10.00" fill="#000000">HalfSpace</text>
</a>
</g>
</g>
<!-- Node0&#45;&gt;Node6 -->
<g id="edge6" class="edge">
<title>Node0&#45;&gt;Node6</title>
<path fill="none" stroke="#191970" d="M46.6219,-127.8846C57.5748,-120.8142 70.884,-112.3516 83,-105 88.1997,-101.845 93.9241,-98.5038 99.1245,-95.5177"/>
<polygon fill="#191970" stroke="#191970" points="44.5393,-125.0635 38.0536,-133.4412 48.3481,-130.9367 44.5393,-125.0635"/>
</g>
<!-- Node7 -->
<g id="node8" class="node">
<title>Node7</title>
<g id="a_node8"><a xlink:href="classdrake_1_1geometry_1_1_mesh.html" target="_top" xlink:title="Limited support for meshes.">
<polygon fill="#ffffff" stroke="#000000" points="95,-38.5 95,-57.5 137,-57.5 137,-38.5 95,-38.5"/>
<text text-anchor="middle" x="116" y="-45.5" font-family="Helvetica,sans-Serif" font-size="10.00" fill="#000000">Mesh</text>
</a>
</g>
</g>
<!-- Node0&#45;&gt;Node7 -->
<g id="edge7" class="edge">
<title>Node0&#45;&gt;Node7</title>
<path fill="none" stroke="#191970" d="M35.0657,-124.4116C45.9764,-107.9183 63.5292,-83.8882 83,-67 86.9953,-63.5347 91.7161,-60.3797 96.319,-57.6795"/>
<polygon fill="#191970" stroke="#191970" points="31.9161,-122.838 29.4449,-133.1406 37.8015,-126.6278 31.9161,-122.838"/>
</g>
<!-- Node8 -->
<g id="node9" class="node">
<title>Node8</title>
<g id="a_node9"><a xlink:href="classdrake_1_1geometry_1_1_sphere.html" target="_top" xlink:title="Definition of sphere.">
<polygon fill="#ffffff" stroke="#000000" points="91,-.5 91,-19.5 141,-19.5 141,-.5 91,-.5"/>
<text text-anchor="middle" x="116" y="-7.5" font-family="Helvetica,sans-Serif" font-size="10.00" fill="#000000">Sphere</text>
</a>
</g>
</g>
<!-- Node0&#45;&gt;Node8 -->
<g id="edge8" class="edge">
<title>Node0&#45;&gt;Node8</title>
<path fill="none" stroke="#191970" d="M29.723,-123.7562C38.4171,-99.303 56.2066,-56.9253 83,-29 86.4785,-25.3746 90.8001,-22.2272 95.1576,-19.5935"/>
<polygon fill="#191970" stroke="#191970" points="26.3734,-122.7352 26.4611,-133.3297 32.9993,-124.9929 26.3734,-122.7352"/>
</g>
</g>
</svg>
