<?xml version="1.0" encoding="UTF-8" standalone="no"?>
<!DOCTYPE svg PUBLIC "-//W3C//DTD SVG 1.1//EN"
 "http://www.w3.org/Graphics/SVG/1.1/DTD/svg11.dtd">
<!-- Generated by graphviz version 2.40.1 (20161225.0304)
 -->
<!-- Title: Graphical Class Hierarchy Pages: 1 -->
<svg width="256pt" height="166pt"
 viewBox="0.00 0.00 256.00 165.50" xmlns="http://www.w3.org/2000/svg" xmlns:xlink="http://www.w3.org/1999/xlink">
<g id="graph0" class="graph" transform="scale(1 1) rotate(0) translate(4 161.5)">
<title>Graphical Class Hierarchy</title>
<polygon fill="#ffffff" stroke="transparent" points="-4,4 -4,-161.5 252,-161.5 252,4 -4,4"/>
<!-- Node102 -->
<g id="node1" class="node">
<title>Node102</title>
<g id="a_node1"><a xlink:title=" ">
<polygon fill="#ffffff" stroke="#bfbfbf" points="0,-66.5 0,-85.5 38,-85.5 38,-66.5 0,-66.5"/>
<text text-anchor="middle" x="19" y="-73.5" font-family="Helvetica,sans-Serif" font-size="10.00" fill="#000000">Test</text>
</a>
</g>
</g>
<!-- Node0 -->
<g id="node2" class="node">
<title>Node0</title>
<g id="a_node2"><a xlink:href="structdrake_1_1systems_1_1analysis__test_1_1_explicit_error_controlled_integrator_test.html" target="_top" xlink:title=" ">
<polygon fill="#ffffff" stroke="#000000" points="74,-127 74,-157 248,-157 248,-127 74,-127"/>
<text text-anchor="start" x="82" y="-145" font-family="Helvetica,sans-Serif" font-size="10.00" fill="#000000">ExplicitErrorControlledIntegrator</text>
<text text-anchor="middle" x="161" y="-134" font-family="Helvetica,sans-Serif" font-size="10.00" fill="#000000">Test&lt; T &gt;</text>
</a>
</g>
</g>
<!-- Node102&#45;&gt;Node0 -->
<g id="edge1" class="edge">
<title>Node102&#45;&gt;Node0</title>
<path fill="none" stroke="#191970" d="M37.3742,-92.3434C47.5716,-100.7058 60.8283,-110.4708 74,-117 81.6034,-120.769 89.8702,-124.0603 98.1821,-126.9078"/>
<polygon fill="#191970" stroke="#191970" points="39.4882,-89.5471 29.5969,-85.7507 34.9618,-94.8868 39.4882,-89.5471"/>
</g>
<!-- Node104 -->
<g id="node3" class="node">
<title>Node104</title>
<g id="a_node3"><a xlink:href="structdrake_1_1systems_1_1analysis__test_1_1_generic_integrator_test.html" target="_top" xlink:title=" ">
<polygon fill="#ffffff" stroke="#000000" points="85,-88.5 85,-107.5 237,-107.5 237,-88.5 85,-88.5"/>
<text text-anchor="middle" x="161" y="-95.5" font-family="Helvetica,sans-Serif" font-size="10.00" fill="#000000">GenericIntegratorTest&lt; T &gt;</text>
</a>
</g>
</g>
<!-- Node102&#45;&gt;Node104 -->
<g id="edge2" class="edge">
<title>Node102&#45;&gt;Node104</title>
<path fill="none" stroke="#191970" d="M48.2202,-80.5271C63.0559,-82.8256 81.6692,-85.7093 99.4733,-88.4677"/>
<polygon fill="#191970" stroke="#191970" points="48.5687,-77.0394 38.1508,-78.967 47.497,-83.9569 48.5687,-77.0394"/>
</g>
<!-- Node105 -->
<g id="node4" class="node">
<title>Node105</title>
<g id="a_node4"><a xlink:href="classdrake_1_1systems_1_1analysis__test_1_1_implicit_integrator_test.html" target="_top" xlink:title=" ">
<polygon fill="#ffffff" stroke="#000000" points="100,-39 100,-69 222,-69 222,-39 100,-39"/>
<text text-anchor="start" x="108" y="-57" font-family="Helvetica,sans-Serif" font-size="10.00" fill="#000000">ImplicitIntegratorTest</text>
<text text-anchor="middle" x="161" y="-46" font-family="Helvetica,sans-Serif" font-size="10.00" fill="#000000">&lt; IntegratorType &gt;</text>
</a>
</g>
</g>
<!-- Node102&#45;&gt;Node105 -->
<g id="edge3" class="edge">
<title>Node102&#45;&gt;Node105</title>
<path fill="none" stroke="#191970" d="M48.2719,-71.4649C63.1874,-69.1541 81.9114,-66.2532 99.7908,-63.4831"/>
<polygon fill="#191970" stroke="#191970" points="47.497,-68.0431 38.1508,-73.033 48.5687,-74.9606 47.497,-68.0431"/>
</g>
<!-- Node106 -->
<g id="node5" class="node">
<title>Node106</title>
<g id="a_node5"><a xlink:href="structdrake_1_1systems_1_1analysis__test_1_1_pleides_test.html" target="_top" xlink:title=" ">
<polygon fill="#ffffff" stroke="#000000" points="110.5,-.5 110.5,-19.5 211.5,-19.5 211.5,-.5 110.5,-.5"/>
<text text-anchor="middle" x="161" y="-7.5" font-family="Helvetica,sans-Serif" font-size="10.00" fill="#000000">PleidesTest&lt; T &gt;</text>
</a>
</g>
</g>
<!-- Node102&#45;&gt;Node106 -->
<g id="edge4" class="edge">
<title>Node102&#45;&gt;Node106</title>
<path fill="none" stroke="#191970" d="M35.0923,-58.9959C45.3406,-49.13 59.3989,-37.2567 74,-30 85.2417,-24.4129 98.0793,-20.3592 110.3775,-17.4278"/>
<polygon fill="#191970" stroke="#191970" points="32.3386,-56.8005 27.7525,-66.3513 37.2936,-61.745 32.3386,-56.8005"/>
</g>
</g>
</svg>
