<?xml version="1.0" encoding="UTF-8" standalone="no"?>
<!DOCTYPE svg PUBLIC "-//W3C//DTD SVG 1.1//EN"
 "http://www.w3.org/Graphics/SVG/1.1/DTD/svg11.dtd">
<!-- Generated by graphviz version 2.40.1 (20161225.0304)
 -->
<!-- Title: Graphical Class Hierarchy Pages: 1 -->
<svg width="319pt" height="66pt"
 viewBox="0.00 0.00 319.00 66.00" xmlns="http://www.w3.org/2000/svg" xmlns:xlink="http://www.w3.org/1999/xlink">
<g id="graph0" class="graph" transform="scale(1 1) rotate(0) translate(4 62)">
<title>Graphical Class Hierarchy</title>
<polygon fill="#ffffff" stroke="transparent" points="-4,4 -4,-62 315,-62 315,4 -4,4"/>
<!-- Node0 -->
<g id="node1" class="node">
<title>Node0</title>
<g id="a_node1"><a xlink:href="classdrake_1_1symbolic_1_1_polynomial_basis_element.html" target="_top" xlink:title="Each polynomial p(x) can be written as a linear combination of its basis elements p(x) = ∑ᵢ cᵢ * ϕᵢ(x...">
<polygon fill="#ffffff" stroke="#000000" points="0,-19.5 0,-38.5 138,-38.5 138,-19.5 0,-19.5"/>
<text text-anchor="middle" x="69" y="-26.5" font-family="Helvetica,sans-Serif" font-size="10.00" fill="#000000">PolynomialBasisElement</text>
</a>
</g>
</g>
<!-- Node1 -->
<g id="node2" class="node">
<title>Node1</title>
<g id="a_node2"><a xlink:href="classdrake_1_1symbolic_1_1_chebyshev_basis_element.html" target="_top" xlink:title="ChebyshevBasisElement represents an element of Chebyshev polynomial basis, written as the product of ...">
<polygon fill="#ffffff" stroke="#000000" points="174,-38.5 174,-57.5 311,-57.5 311,-38.5 174,-38.5"/>
<text text-anchor="middle" x="242.5" y="-45.5" font-family="Helvetica,sans-Serif" font-size="10.00" fill="#000000">ChebyshevBasisElement</text>
</a>
</g>
</g>
<!-- Node0&#45;&gt;Node1 -->
<g id="edge1" class="edge">
<title>Node0&#45;&gt;Node1</title>
<path fill="none" stroke="#191970" d="M148.1248,-37.665C156.7469,-38.6092 165.4702,-39.5645 173.9506,-40.4931"/>
<polygon fill="#191970" stroke="#191970" points="148.3919,-34.1734 138.0703,-36.5639 147.6299,-41.1318 148.3919,-34.1734"/>
</g>
<!-- Node2 -->
<g id="node3" class="node">
<title>Node2</title>
<g id="a_node3"><a xlink:href="classdrake_1_1symbolic_1_1_monomial_basis_element.html" target="_top" xlink:title="MonomialBasisElement represents a monomial, a product of powers of variables with non&#45;negative intege...">
<polygon fill="#ffffff" stroke="#000000" points="177,-.5 177,-19.5 308,-19.5 308,-.5 177,-.5"/>
<text text-anchor="middle" x="242.5" y="-7.5" font-family="Helvetica,sans-Serif" font-size="10.00" fill="#000000">MonomialBasisElement</text>
</a>
</g>
</g>
<!-- Node0&#45;&gt;Node2 -->
<g id="edge2" class="edge">
<title>Node0&#45;&gt;Node2</title>
<path fill="none" stroke="#191970" d="M148.0236,-20.3461C157.6382,-19.2932 167.3804,-18.2264 176.7728,-17.1978"/>
<polygon fill="#191970" stroke="#191970" points="147.6299,-16.8682 138.0703,-21.4361 148.3919,-23.8266 147.6299,-16.8682"/>
</g>
</g>
</svg>
