<?xml version="1.0" encoding="UTF-8" standalone="no"?>
<!DOCTYPE svg PUBLIC "-//W3C//DTD SVG 1.1//EN"
 "http://www.w3.org/Graphics/SVG/1.1/DTD/svg11.dtd">
<!-- Generated by graphviz version 2.40.1 (20161225.0304)
 -->
<!-- Title: Graphical Class Hierarchy Pages: 1 -->
<svg width="343pt" height="725pt"
 viewBox="0.00 0.00 343.00 725.00" xmlns="http://www.w3.org/2000/svg" xmlns:xlink="http://www.w3.org/1999/xlink">
<g id="graph0" class="graph" transform="scale(1 1) rotate(0) translate(4 721)">
<title>Graphical Class Hierarchy</title>
<polygon fill="#ffffff" stroke="transparent" points="-4,4 -4,-721 339,-721 339,4 -4,4"/>
<!-- Node0 -->
<g id="node1" class="node">
<title>Node0</title>
<g id="a_node1"><a xlink:href="structdrake_1_1uhash.html" target="_top" xlink:title="A hashing functor, somewhat like std::hash.">
<polygon fill="#ffffff" stroke="#000000" points="0,-349 0,-368 141,-368 141,-349 0,-349"/>
<text text-anchor="middle" x="70.5" y="-356" font-family="Helvetica,sans-Serif" font-size="10.00" fill="#000000">uhash&lt; HashAlgorithm &gt;</text>
</a>
</g>
</g>
<!-- Node1 -->
<g id="node2" class="node">
<title>Node1</title>
<g id="a_node2"><a xlink:href="structstd_1_1hash_3_01drake_1_1geometry_1_1render_1_1_render_label_01_4.html" target="_top" xlink:title="Enables use of the label to serve as a key in STL containers.">
<polygon fill="#ffffff" stroke="#000000" points="190,-686.5 190,-716.5 322,-716.5 322,-686.5 190,-686.5"/>
<text text-anchor="start" x="198" y="-704.5" font-family="Helvetica,sans-Serif" font-size="10.00" fill="#000000">hash&lt; drake::geometry</text>
<text text-anchor="middle" x="256" y="-693.5" font-family="Helvetica,sans-Serif" font-size="10.00" fill="#000000">::render::RenderLabel &gt;</text>
</a>
</g>
</g>
<!-- Node0&#45;&gt;Node1 -->
<g id="edge1" class="edge">
<title>Node0&#45;&gt;Node1</title>
<path fill="none" stroke="#191970" d="M74.6002,-378.1873C88.0118,-440.8335 132.2887,-633.9922 177,-677.5 180.8011,-681.1987 185.1536,-684.3297 189.8189,-686.9796"/>
<polygon fill="#191970" stroke="#191970" points="77.9549,-377.1339 72.462,-368.0742 71.1063,-378.5819 77.9549,-377.1339"/>
</g>
<!-- Node2 -->
<g id="node3" class="node">
<title>Node2</title>
<g id="a_node3"><a xlink:href="structstd_1_1hash_3_01drake_1_1_identifier_3_01_tag_01_4_01_4.html" target="_top" xlink:title="Enables use of the identifier to serve as a key in STL containers.">
<polygon fill="#ffffff" stroke="#000000" points="191.5,-637.5 191.5,-667.5 320.5,-667.5 320.5,-637.5 191.5,-637.5"/>
<text text-anchor="start" x="199.5" y="-655.5" font-family="Helvetica,sans-Serif" font-size="10.00" fill="#000000">hash&lt; drake::Identifier</text>
<text text-anchor="middle" x="256" y="-644.5" font-family="Helvetica,sans-Serif" font-size="10.00" fill="#000000">&lt; Tag &gt; &gt;</text>
</a>
</g>
</g>
<!-- Node0&#45;&gt;Node2 -->
<g id="edge2" class="edge">
<title>Node0&#45;&gt;Node2</title>
<path fill="none" stroke="#191970" d="M72.4528,-378.018C78.4458,-427.4204 101.0562,-558.4552 177,-628.5 181.2147,-632.3873 186.041,-635.6458 191.185,-638.377"/>
<polygon fill="#191970" stroke="#191970" points="75.9253,-377.5767 71.3374,-368.0267 68.9685,-378.3533 75.9253,-377.5767"/>
</g>
<!-- Node3 -->
<g id="node4" class="node">
<title>Node3</title>
<g id="a_node4"><a xlink:href="structstd_1_1hash_3_01drake_1_1solvers_1_1_binding_3_01_c_01_4_01_4.html" target="_top" xlink:title=" ">
<polygon fill="#ffffff" stroke="#000000" points="196,-588.5 196,-618.5 316,-618.5 316,-588.5 196,-588.5"/>
<text text-anchor="start" x="204" y="-606.5" font-family="Helvetica,sans-Serif" font-size="10.00" fill="#000000">hash&lt; drake::solvers</text>
<text text-anchor="middle" x="256" y="-595.5" font-family="Helvetica,sans-Serif" font-size="10.00" fill="#000000">::Binding&lt; C &gt; &gt;</text>
</a>
</g>
</g>
<!-- Node0&#45;&gt;Node3 -->
<g id="edge3" class="edge">
<title>Node0&#45;&gt;Node3</title>
<path fill="none" stroke="#191970" d="M74.3864,-378.1597C83.9251,-421.1973 112.5682,-524.3053 177,-579.5 182.5519,-584.256 189.0271,-588.0695 195.8373,-591.1273"/>
<polygon fill="#191970" stroke="#191970" points="77.7615,-377.2018 72.275,-368.1381 70.9119,-378.6449 77.7615,-377.2018"/>
</g>
<!-- Node4 -->
<g id="node5" class="node">
<title>Node4</title>
<g id="a_node5"><a xlink:href="structstd_1_1hash_3_01drake_1_1solvers_1_1_solver_id_01_4.html" target="_top" xlink:title=" ">
<polygon fill="#ffffff" stroke="#000000" points="196,-539.5 196,-569.5 316,-569.5 316,-539.5 196,-539.5"/>
<text text-anchor="start" x="204" y="-557.5" font-family="Helvetica,sans-Serif" font-size="10.00" fill="#000000">hash&lt; drake::solvers</text>
<text text-anchor="middle" x="256" y="-546.5" font-family="Helvetica,sans-Serif" font-size="10.00" fill="#000000">::SolverId &gt;</text>
</a>
</g>
</g>
<!-- Node0&#45;&gt;Node4 -->
<g id="edge4" class="edge">
<title>Node0&#45;&gt;Node4</title>
<path fill="none" stroke="#191970" d="M77.2812,-378.1019C90.6385,-413.8127 123.7662,-489.5537 177,-530.5 182.681,-534.8697 189.1564,-538.448 195.8993,-541.3773"/>
<polygon fill="#191970" stroke="#191970" points="80.4609,-376.6022 73.7702,-368.3872 73.8776,-378.9815 80.4609,-376.6022"/>
</g>
<!-- Node5 -->
<g id="node6" class="node">
<title>Node5</title>
<g id="a_node6"><a xlink:href="structstd_1_1hash_3_01drake_1_1_sorted_pair_3_01_t_01_4_01_4.html" target="_top" xlink:title="Provides std::hash&lt;SortedPair&lt;T&gt;&gt;.">
<polygon fill="#ffffff" stroke="#000000" points="188.5,-490.5 188.5,-520.5 323.5,-520.5 323.5,-490.5 188.5,-490.5"/>
<text text-anchor="start" x="196.5" y="-508.5" font-family="Helvetica,sans-Serif" font-size="10.00" fill="#000000">hash&lt; drake::SortedPair</text>
<text text-anchor="middle" x="256" y="-497.5" font-family="Helvetica,sans-Serif" font-size="10.00" fill="#000000">&lt; T &gt; &gt;</text>
</a>
</g>
</g>
<!-- Node0&#45;&gt;Node5 -->
<g id="edge5" class="edge">
<title>Node0&#45;&gt;Node5</title>
<path fill="none" stroke="#191970" d="M81.5845,-376.9053C98.7187,-403.8072 134.1727,-453.6819 177,-481.5 182.2892,-484.9356 188.094,-487.8992 194.0809,-490.4515"/>
<polygon fill="#191970" stroke="#191970" points="84.3731,-374.7616 76.121,-368.1168 78.4282,-378.4574 84.3731,-374.7616"/>
</g>
<!-- Node6 -->
<g id="node7" class="node">
<title>Node6</title>
<g id="a_node7"><a xlink:href="structstd_1_1hash_3_01drake_1_1symbolic_1_1_chebyshev_polynomial_01_4.html" target="_top" xlink:title=" ">
<polygon fill="#ffffff" stroke="#000000" points="184.5,-441.5 184.5,-471.5 327.5,-471.5 327.5,-441.5 184.5,-441.5"/>
<text text-anchor="start" x="192.5" y="-459.5" font-family="Helvetica,sans-Serif" font-size="10.00" fill="#000000">hash&lt; drake::symbolic</text>
<text text-anchor="middle" x="256" y="-448.5" font-family="Helvetica,sans-Serif" font-size="10.00" fill="#000000">::ChebyshevPolynomial &gt;</text>
</a>
</g>
</g>
<!-- Node0&#45;&gt;Node6 -->
<g id="edge6" class="edge">
<title>Node0&#45;&gt;Node6</title>
<path fill="none" stroke="#191970" d="M89.8024,-374.7112C110.298,-391.2286 144.1998,-416.6114 177,-432.5 183.8372,-435.812 191.2295,-438.7813 198.6539,-441.4078"/>
<polygon fill="#191970" stroke="#191970" points="91.837,-371.8537 81.8816,-368.2286 87.4036,-377.2707 91.837,-371.8537"/>
</g>
<!-- Node7 -->
<g id="node8" class="node">
<title>Node7</title>
<g id="a_node8"><a xlink:href="structstd_1_1hash_3_01drake_1_1symbolic_1_1_expression_01_4.html" target="_top" xlink:title=" ">
<polygon fill="#ffffff" stroke="#000000" points="191.5,-392.5 191.5,-422.5 320.5,-422.5 320.5,-392.5 191.5,-392.5"/>
<text text-anchor="start" x="199.5" y="-410.5" font-family="Helvetica,sans-Serif" font-size="10.00" fill="#000000">hash&lt; drake::symbolic</text>
<text text-anchor="middle" x="256" y="-399.5" font-family="Helvetica,sans-Serif" font-size="10.00" fill="#000000">::Expression &gt;</text>
</a>
</g>
</g>
<!-- Node0&#45;&gt;Node7 -->
<g id="edge7" class="edge">
<title>Node0&#45;&gt;Node7</title>
<path fill="none" stroke="#191970" d="M116.6462,-370.6896C141.5989,-377.2808 172.6317,-385.4782 199.0744,-392.463"/>
<polygon fill="#191970" stroke="#191970" points="117.2689,-367.2341 106.7066,-368.064 115.4811,-374.0019 117.2689,-367.2341"/>
</g>
<!-- Node8 -->
<g id="node9" class="node">
<title>Node8</title>
<g id="a_node9"><a xlink:href="structstd_1_1hash_3_01drake_1_1symbolic_1_1_formula_01_4.html" target="_top" xlink:title=" ">
<polygon fill="#ffffff" stroke="#000000" points="191.5,-343.5 191.5,-373.5 320.5,-373.5 320.5,-343.5 191.5,-343.5"/>
<text text-anchor="start" x="199.5" y="-361.5" font-family="Helvetica,sans-Serif" font-size="10.00" fill="#000000">hash&lt; drake::symbolic</text>
<text text-anchor="middle" x="256" y="-350.5" font-family="Helvetica,sans-Serif" font-size="10.00" fill="#000000">::Formula &gt;</text>
</a>
</g>
</g>
<!-- Node0&#45;&gt;Node8 -->
<g id="edge8" class="edge">
<title>Node0&#45;&gt;Node8</title>
<path fill="none" stroke="#191970" d="M151.3074,-358.5C164.6893,-358.5 178.4085,-358.5 191.3256,-358.5"/>
<polygon fill="#191970" stroke="#191970" points="151.1588,-355.0001 141.1588,-358.5 151.1587,-362.0001 151.1588,-355.0001"/>
</g>
<!-- Node9 -->
<g id="node10" class="node">
<title>Node9</title>
<g id="a_node10"><a xlink:href="structstd_1_1hash_3_01drake_1_1symbolic_1_1_monomial_01_4.html" target="_top" xlink:title=" ">
<polygon fill="#ffffff" stroke="#000000" points="191.5,-294.5 191.5,-324.5 320.5,-324.5 320.5,-294.5 191.5,-294.5"/>
<text text-anchor="start" x="199.5" y="-312.5" font-family="Helvetica,sans-Serif" font-size="10.00" fill="#000000">hash&lt; drake::symbolic</text>
<text text-anchor="middle" x="256" y="-301.5" font-family="Helvetica,sans-Serif" font-size="10.00" fill="#000000">::Monomial &gt;</text>
</a>
</g>
</g>
<!-- Node0&#45;&gt;Node9 -->
<g id="edge9" class="edge">
<title>Node0&#45;&gt;Node9</title>
<path fill="none" stroke="#191970" d="M116.6462,-346.3104C141.5989,-339.7192 172.6317,-331.5218 199.0744,-324.537"/>
<polygon fill="#191970" stroke="#191970" points="115.4811,-342.9981 106.7066,-348.936 117.2689,-349.7659 115.4811,-342.9981"/>
</g>
<!-- Node10 -->
<g id="node11" class="node">
<title>Node10</title>
<g id="a_node11"><a xlink:href="structstd_1_1hash_3_01drake_1_1symbolic_1_1_polynomial_01_4.html" target="_top" xlink:title=" ">
<polygon fill="#ffffff" stroke="#000000" points="191.5,-245.5 191.5,-275.5 320.5,-275.5 320.5,-245.5 191.5,-245.5"/>
<text text-anchor="start" x="199.5" y="-263.5" font-family="Helvetica,sans-Serif" font-size="10.00" fill="#000000">hash&lt; drake::symbolic</text>
<text text-anchor="middle" x="256" y="-252.5" font-family="Helvetica,sans-Serif" font-size="10.00" fill="#000000">::Polynomial &gt;</text>
</a>
</g>
</g>
<!-- Node0&#45;&gt;Node10 -->
<g id="edge10" class="edge">
<title>Node0&#45;&gt;Node10</title>
<path fill="none" stroke="#191970" d="M89.8773,-342.601C110.4339,-326.3826 144.3846,-301.4036 177,-285.5 184.6289,-281.7801 192.9375,-278.4469 201.2073,-275.5198"/>
<polygon fill="#191970" stroke="#191970" points="87.5493,-339.9813 81.9304,-348.9634 91.9242,-345.4458 87.5493,-339.9813"/>
</g>
<!-- Node11 -->
<g id="node12" class="node">
<title>Node11</title>
<g id="a_node12"><a xlink:href="structstd_1_1hash_3_01drake_1_1symbolic_1_1_variable_01_4.html" target="_top" xlink:title=" ">
<polygon fill="#ffffff" stroke="#000000" points="191.5,-196.5 191.5,-226.5 320.5,-226.5 320.5,-196.5 191.5,-196.5"/>
<text text-anchor="start" x="199.5" y="-214.5" font-family="Helvetica,sans-Serif" font-size="10.00" fill="#000000">hash&lt; drake::symbolic</text>
<text text-anchor="middle" x="256" y="-203.5" font-family="Helvetica,sans-Serif" font-size="10.00" fill="#000000">::Variable &gt;</text>
</a>
</g>
</g>
<!-- Node0&#45;&gt;Node11 -->
<g id="edge11" class="edge">
<title>Node0&#45;&gt;Node11</title>
<path fill="none" stroke="#191970" d="M81.6629,-340.3109C98.8967,-313.7121 134.4756,-264.3489 177,-236.5 182.8969,-232.6381 189.4307,-229.3387 196.1415,-226.528"/>
<polygon fill="#191970" stroke="#191970" points="78.555,-338.6768 76.1647,-348.9985 84.47,-342.4202 78.555,-338.6768"/>
</g>
<!-- Node12 -->
<g id="node13" class="node">
<title>Node12</title>
<g id="a_node13"><a xlink:href="structstd_1_1hash_3_01drake_1_1symbolic_1_1_variables_01_4.html" target="_top" xlink:title=" ">
<polygon fill="#ffffff" stroke="#000000" points="191.5,-147.5 191.5,-177.5 320.5,-177.5 320.5,-147.5 191.5,-147.5"/>
<text text-anchor="start" x="199.5" y="-165.5" font-family="Helvetica,sans-Serif" font-size="10.00" fill="#000000">hash&lt; drake::symbolic</text>
<text text-anchor="middle" x="256" y="-154.5" font-family="Helvetica,sans-Serif" font-size="10.00" fill="#000000">::Variables &gt;</text>
</a>
</g>
</g>
<!-- Node0&#45;&gt;Node12 -->
<g id="edge12" class="edge">
<title>Node0&#45;&gt;Node12</title>
<path fill="none" stroke="#191970" d="M77.3593,-339.0702C90.8441,-303.662 124.1725,-228.5107 177,-187.5 181.9999,-183.6185 187.6148,-180.3328 193.4857,-177.5526"/>
<polygon fill="#191970" stroke="#191970" points="73.9839,-338.1078 73.8118,-348.7012 80.5525,-340.5273 73.9839,-338.1078"/>
</g>
<!-- Node13 -->
<g id="node14" class="node">
<title>Node13</title>
<g id="a_node14"><a xlink:href="structstd_1_1hash_3_01drake_1_1systems_1_1sensors_1_1_color_3_01_t_01_4_01_4.html" target="_top" xlink:title=" ">
<polygon fill="#ffffff" stroke="#000000" points="190.5,-98.5 190.5,-128.5 321.5,-128.5 321.5,-98.5 190.5,-98.5"/>
<text text-anchor="start" x="198.5" y="-116.5" font-family="Helvetica,sans-Serif" font-size="10.00" fill="#000000">hash&lt; drake::systems</text>
<text text-anchor="middle" x="256" y="-105.5" font-family="Helvetica,sans-Serif" font-size="10.00" fill="#000000">::sensors::Color&lt; T &gt; &gt;</text>
</a>
</g>
</g>
<!-- Node0&#45;&gt;Node13 -->
<g id="edge13" class="edge">
<title>Node0&#45;&gt;Node13</title>
<path fill="none" stroke="#191970" d="M74.4612,-338.9824C84.1496,-296.2462 113.0742,-193.8051 177,-138.5 181.4605,-134.641 186.5186,-131.3769 191.8685,-128.616"/>
<polygon fill="#191970" stroke="#191970" points="71.0021,-338.4194 72.3134,-348.9328 77.8446,-339.8964 71.0021,-338.4194"/>
</g>
<!-- Node14 -->
<g id="node15" class="node">
<title>Node14</title>
<g id="a_node15"><a xlink:href="structstd_1_1hash_3_01drake_1_1systems_1_1sensors_1_1_pixel_type_01_4.html" target="_top" xlink:title=" ">
<polygon fill="#ffffff" stroke="#000000" points="193,-49.5 193,-79.5 319,-79.5 319,-49.5 193,-49.5"/>
<text text-anchor="start" x="201" y="-67.5" font-family="Helvetica,sans-Serif" font-size="10.00" fill="#000000">hash&lt; drake::systems</text>
<text text-anchor="middle" x="256" y="-56.5" font-family="Helvetica,sans-Serif" font-size="10.00" fill="#000000">::sensors::PixelType &gt;</text>
</a>
</g>
</g>
<!-- Node0&#45;&gt;Node14 -->
<g id="edge14" class="edge">
<title>Node0&#45;&gt;Node14</title>
<path fill="none" stroke="#191970" d="M72.5666,-338.7701C78.7902,-289.4141 101.8298,-159.5497 177,-89.5 181.6307,-85.1847 187.0033,-81.6143 192.7261,-78.6602"/>
<polygon fill="#191970" stroke="#191970" points="69.0821,-338.4343 71.4016,-348.7721 76.0351,-339.2442 69.0821,-338.4343"/>
</g>
<!-- Node15 -->
<g id="node16" class="node">
<title>Node15</title>
<g id="a_node16"><a xlink:href="structstd_1_1hash_3_01drake_1_1_type_safe_index_3_01_tag_01_4_01_4.html" target="_top" xlink:title="Enables use of the type&#45;safe index to serve as a key in STL containers.">
<polygon fill="#ffffff" stroke="#000000" points="177,-.5 177,-30.5 335,-30.5 335,-.5 177,-.5"/>
<text text-anchor="start" x="185" y="-18.5" font-family="Helvetica,sans-Serif" font-size="10.00" fill="#000000">hash&lt; drake::TypeSafeIndex</text>
<text text-anchor="middle" x="256" y="-7.5" font-family="Helvetica,sans-Serif" font-size="10.00" fill="#000000">&lt; Tag &gt; &gt;</text>
</a>
</g>
</g>
<!-- Node0&#45;&gt;Node15 -->
<g id="edge15" class="edge">
<title>Node0&#45;&gt;Node15</title>
<path fill="none" stroke="#191970" d="M71.1929,-338.6362C74.2119,-283.2663 90.3834,-125.6837 177,-40.5 180.8975,-36.6669 185.3787,-33.421 190.1842,-30.6723"/>
<polygon fill="#191970" stroke="#191970" points="67.687,-338.6882 70.7277,-348.8373 74.6797,-339.0072 67.687,-338.6882"/>
</g>
</g>
</svg>
