<?xml version="1.0" encoding="UTF-8" standalone="no"?>
<!DOCTYPE svg PUBLIC "-//W3C//DTD SVG 1.1//EN"
 "http://www.w3.org/Graphics/SVG/1.1/DTD/svg11.dtd">
<!-- Generated by graphviz version 2.40.1 (20161225.0304)
 -->
<!-- Title: Graphical Class Hierarchy Pages: 1 -->
<svg width="299pt" height="297pt"
 viewBox="0.00 0.00 299.00 296.50" xmlns="http://www.w3.org/2000/svg" xmlns:xlink="http://www.w3.org/1999/xlink">
<g id="graph0" class="graph" transform="scale(1 1) rotate(0) translate(4 292.5)">
<title>Graphical Class Hierarchy</title>
<polygon fill="#ffffff" stroke="transparent" points="-4,4 -4,-292.5 295,-292.5 295,4 -4,4"/>
<!-- Node589 -->
<g id="node1" class="node">
<title>Node589</title>
<g id="a_node1"><a xlink:title=" ">
<polygon fill="#ffffff" stroke="#bfbfbf" points="0,-132 0,-151 101,-151 101,-132 0,-132"/>
<text text-anchor="middle" x="50.5" y="-139" font-family="Helvetica,sans-Serif" font-size="10.00" fill="#000000">integral_constant</text>
</a>
</g>
</g>
<!-- Node0 -->
<g id="node2" class="node">
<title>Node0</title>
<g id="a_node2"><a xlink:href="structdrake_1_1is__eigen__nonvector__expression__double__pair.html" target="_top" xlink:title=" ">
<polygon fill="#ffffff" stroke="#000000" points="145.5,-247 145.5,-288 282.5,-288 282.5,-247 145.5,-247"/>
<text text-anchor="start" x="153.5" y="-276" font-family="Helvetica,sans-Serif" font-size="10.00" fill="#000000">is_eigen_nonvector</text>
<text text-anchor="start" x="153.5" y="-265" font-family="Helvetica,sans-Serif" font-size="10.00" fill="#000000">_expression_double_pair</text>
<text text-anchor="middle" x="214" y="-254" font-family="Helvetica,sans-Serif" font-size="10.00" fill="#000000">&lt; DerivedV, DerivedB &gt;</text>
</a>
</g>
</g>
<!-- Node589&#45;&gt;Node0 -->
<g id="edge1" class="edge">
<title>Node589&#45;&gt;Node0</title>
<path fill="none" stroke="#191970" d="M62.6392,-159.4358C77.8163,-180.6599 105.6447,-215.8427 137,-237.5 141.958,-240.9245 147.3617,-244.0328 152.9314,-246.8366"/>
<polygon fill="#191970" stroke="#191970" points="65.357,-157.2146 56.7621,-151.0196 59.6178,-161.2223 65.357,-157.2146"/>
</g>
<!-- Node591 -->
<g id="node3" class="node">
<title>Node591</title>
<g id="a_node3"><a xlink:href="structdrake_1_1is__eigen__nonvector__of.html" target="_top" xlink:title=" ">
<polygon fill="#ffffff" stroke="#000000" points="150,-197.5 150,-227.5 278,-227.5 278,-197.5 150,-197.5"/>
<text text-anchor="start" x="158" y="-215.5" font-family="Helvetica,sans-Serif" font-size="10.00" fill="#000000">is_eigen_nonvector</text>
<text text-anchor="middle" x="214" y="-204.5" font-family="Helvetica,sans-Serif" font-size="10.00" fill="#000000">_of&lt; Derived, Scalar &gt;</text>
</a>
</g>
</g>
<!-- Node589&#45;&gt;Node591 -->
<g id="edge2" class="edge">
<title>Node589&#45;&gt;Node591</title>
<path fill="none" stroke="#191970" d="M74.7067,-156.3171C91.7096,-166.3062 115.2166,-179.2918 137,-188.5 144.6095,-191.7166 152.8013,-194.7254 160.903,-197.4512"/>
<polygon fill="#191970" stroke="#191970" points="76.3643,-153.2306 65.982,-151.1189 72.7814,-159.2442 76.3643,-153.2306"/>
</g>
<!-- Node592 -->
<g id="node4" class="node">
<title>Node592</title>
<g id="a_node4"><a xlink:href="structdrake_1_1is__eigen__scalar__same.html" target="_top" xlink:title=" ">
<polygon fill="#ffffff" stroke="#000000" points="152,-148.5 152,-178.5 276,-178.5 276,-148.5 152,-148.5"/>
<text text-anchor="start" x="160" y="-166.5" font-family="Helvetica,sans-Serif" font-size="10.00" fill="#000000">is_eigen_scalar_same</text>
<text text-anchor="middle" x="214" y="-155.5" font-family="Helvetica,sans-Serif" font-size="10.00" fill="#000000">&lt; Derived, Scalar &gt;</text>
</a>
</g>
</g>
<!-- Node589&#45;&gt;Node592 -->
<g id="edge3" class="edge">
<title>Node589&#45;&gt;Node592</title>
<path fill="none" stroke="#191970" d="M111.3092,-149.6823C124.5854,-151.4687 138.6516,-153.3614 151.9746,-155.1541"/>
<polygon fill="#191970" stroke="#191970" points="111.7136,-146.2052 101.3362,-148.3403 110.7801,-153.1427 111.7136,-146.2052"/>
</g>
<!-- Node593 -->
<g id="node5" class="node">
<title>Node593</title>
<g id="a_node5"><a xlink:href="structdrake_1_1is__eigen__vector.html" target="_top" xlink:title=" ">
<polygon fill="#ffffff" stroke="#000000" points="137,-110 137,-129 291,-129 291,-110 137,-110"/>
<text text-anchor="middle" x="214" y="-117" font-family="Helvetica,sans-Serif" font-size="10.00" fill="#000000">is_eigen_vector&lt; Derived &gt;</text>
</a>
</g>
</g>
<!-- Node589&#45;&gt;Node593 -->
<g id="edge4" class="edge">
<title>Node589&#45;&gt;Node593</title>
<path fill="none" stroke="#191970" d="M111.533,-133.2876C121.9161,-131.8905 132.7765,-130.4292 143.3822,-129.0021"/>
<polygon fill="#191970" stroke="#191970" points="110.7801,-129.8573 101.3362,-134.6597 111.7136,-136.7948 110.7801,-129.8573"/>
</g>
<!-- Node594 -->
<g id="node6" class="node">
<title>Node594</title>
<g id="a_node6"><a xlink:href="structdrake_1_1is__eigen__vector__expression__double__pair.html" target="_top" xlink:title=" ">
<polygon fill="#ffffff" stroke="#000000" points="138,-50 138,-91 290,-91 290,-50 138,-50"/>
<text text-anchor="start" x="146" y="-79" font-family="Helvetica,sans-Serif" font-size="10.00" fill="#000000">is_eigen_vector_expression</text>
<text text-anchor="start" x="146" y="-68" font-family="Helvetica,sans-Serif" font-size="10.00" fill="#000000">_double_pair&lt; DerivedV,</text>
<text text-anchor="middle" x="214" y="-57" font-family="Helvetica,sans-Serif" font-size="10.00" fill="#000000"> DerivedB &gt;</text>
</a>
</g>
</g>
<!-- Node589&#45;&gt;Node594 -->
<g id="edge5" class="edge">
<title>Node589&#45;&gt;Node594</title>
<path fill="none" stroke="#191970" d="M78.8119,-127.4565C95.5929,-119.2898 117.354,-108.9704 137,-100.5 144.246,-97.3759 151.9326,-94.2094 159.536,-91.163"/>
<polygon fill="#191970" stroke="#191970" points="77.0029,-124.4452 69.5606,-131.986 80.081,-130.7321 77.0029,-124.4452"/>
</g>
<!-- Node595 -->
<g id="node7" class="node">
<title>Node595</title>
<g id="a_node7"><a xlink:href="structdrake_1_1is__eigen__vector__of.html" target="_top" xlink:title=" ">
<polygon fill="#ffffff" stroke="#000000" points="157.5,-.5 157.5,-30.5 270.5,-30.5 270.5,-.5 157.5,-.5"/>
<text text-anchor="start" x="165.5" y="-18.5" font-family="Helvetica,sans-Serif" font-size="10.00" fill="#000000">is_eigen_vector_of</text>
<text text-anchor="middle" x="214" y="-7.5" font-family="Helvetica,sans-Serif" font-size="10.00" fill="#000000">&lt; Derived, Scalar &gt;</text>
</a>
</g>
</g>
<!-- Node589&#45;&gt;Node595 -->
<g id="edge6" class="edge">
<title>Node589&#45;&gt;Node595</title>
<path fill="none" stroke="#191970" d="M61.5622,-123.2781C76.1532,-100.7193 103.8939,-62.583 137,-40.5 143.197,-36.3664 150.1284,-32.8728 157.2246,-29.9314"/>
<polygon fill="#191970" stroke="#191970" points="58.5003,-121.5724 56.1368,-131.9003 64.425,-125.3005 58.5003,-121.5724"/>
</g>
</g>
</svg>
