<?xml version="1.0" encoding="UTF-8" standalone="no"?>
<!DOCTYPE svg PUBLIC "-//W3C//DTD SVG 1.1//EN"
 "http://www.w3.org/Graphics/SVG/1.1/DTD/svg11.dtd">
<!-- Generated by graphviz version 2.40.1 (20161225.0304)
 -->
<!-- Title: Graphical Class Hierarchy Pages: 1 -->
<svg width="321pt" height="225pt"
 viewBox="0.00 0.00 321.00 225.00" xmlns="http://www.w3.org/2000/svg" xmlns:xlink="http://www.w3.org/1999/xlink">
<g id="graph0" class="graph" transform="scale(1 1) rotate(0) translate(4 221)">
<title>Graphical Class Hierarchy</title>
<polygon fill="#ffffff" stroke="transparent" points="-4,4 -4,-221 317,-221 317,4 -4,4"/>
<!-- Node0 -->
<g id="node1" class="node">
<title>Node0</title>
<g id="a_node1"><a xlink:href="structdrake_1_1systems_1_1scalar__conversion_1_1_non_symbolic_traits.html" target="_top" xlink:title="A concrete traits class providing sugar to disable support for symbolic evaluation (i....">
<polygon fill="#ffffff" stroke="#000000" points="0,-99 0,-118 109,-118 109,-99 0,-99"/>
<text text-anchor="middle" x="54.5" y="-106" font-family="Helvetica,sans-Serif" font-size="10.00" fill="#000000">NonSymbolicTraits</text>
</a>
</g>
</g>
<!-- Node1 -->
<g id="node2" class="node">
<title>Node1</title>
<g id="a_node2"><a xlink:href="structdrake_1_1systems_1_1scalar__conversion_1_1_traits_3_01examples_1_1quadrotor_1_1_quadrotor_plant_01_4.html" target="_top" xlink:title=" ">
<polygon fill="#ffffff" stroke="#000000" points="150.5,-186.5 150.5,-216.5 307.5,-216.5 307.5,-186.5 150.5,-186.5"/>
<text text-anchor="start" x="158.5" y="-204.5" font-family="Helvetica,sans-Serif" font-size="10.00" fill="#000000">Traits&lt; examples::quadrotor</text>
<text text-anchor="middle" x="229" y="-193.5" font-family="Helvetica,sans-Serif" font-size="10.00" fill="#000000">::QuadrotorPlant &gt;</text>
</a>
</g>
</g>
<!-- Node0&#45;&gt;Node1 -->
<g id="edge1" class="edge">
<title>Node0&#45;&gt;Node1</title>
<path fill="none" stroke="#191970" d="M72.1072,-125.1582C89.422,-140.7157 117.2253,-163.5707 145,-177.5 151.7787,-180.8996 159.1139,-183.8868 166.5295,-186.4929"/>
<polygon fill="#191970" stroke="#191970" points="74.2315,-122.3574 64.4958,-118.1782 69.5003,-127.5166 74.2315,-122.3574"/>
</g>
<!-- Node2 -->
<g id="node3" class="node">
<title>Node2</title>
<g id="a_node3"><a xlink:href="structdrake_1_1systems_1_1scalar__conversion_1_1_traits_3_01examples_1_1rimless__wheel_1_1_rimless_wheel_01_4.html" target="_top" xlink:title=" ">
<polygon fill="#ffffff" stroke="#000000" points="156,-137.5 156,-167.5 302,-167.5 302,-137.5 156,-137.5"/>
<text text-anchor="start" x="164" y="-155.5" font-family="Helvetica,sans-Serif" font-size="10.00" fill="#000000">Traits&lt; examples::rimless</text>
<text text-anchor="middle" x="229" y="-144.5" font-family="Helvetica,sans-Serif" font-size="10.00" fill="#000000">_wheel::RimlessWheel &gt;</text>
</a>
</g>
</g>
<!-- Node0&#45;&gt;Node2 -->
<g id="edge2" class="edge">
<title>Node0&#45;&gt;Node2</title>
<path fill="none" stroke="#191970" d="M102.1946,-120.5261C122.8932,-125.7453 147.3593,-131.9144 169.2521,-137.4346"/>
<polygon fill="#191970" stroke="#191970" points="102.9162,-117.0986 92.3639,-118.0473 101.2046,-123.8862 102.9162,-117.0986"/>
</g>
<!-- Node3 -->
<g id="node4" class="node">
<title>Node3</title>
<g id="a_node4"><a xlink:href="structdrake_1_1systems_1_1scalar__conversion_1_1_traits_3_01sensors_1_1_beam_model_01_4.html" target="_top" xlink:title=" ">
<polygon fill="#ffffff" stroke="#000000" points="145,-99 145,-118 313,-118 313,-99 145,-99"/>
<text text-anchor="middle" x="229" y="-106" font-family="Helvetica,sans-Serif" font-size="10.00" fill="#000000">Traits&lt; sensors::BeamModel &gt;</text>
</a>
</g>
</g>
<!-- Node0&#45;&gt;Node3 -->
<g id="edge3" class="edge">
<title>Node0&#45;&gt;Node3</title>
<path fill="none" stroke="#191970" d="M119.4934,-108.5C127.7317,-108.5 136.2537,-108.5 144.738,-108.5"/>
<polygon fill="#191970" stroke="#191970" points="119.2341,-105.0001 109.2341,-108.5 119.2341,-112.0001 119.2341,-105.0001"/>
</g>
<!-- Node4 -->
<g id="node5" class="node">
<title>Node4</title>
<g id="a_node5"><a xlink:href="structdrake_1_1systems_1_1scalar__conversion_1_1_traits_3_01_trajectory_affine_system_01_4.html" target="_top" xlink:title=" ">
<polygon fill="#ffffff" stroke="#000000" points="162,-49.5 162,-79.5 296,-79.5 296,-49.5 162,-49.5"/>
<text text-anchor="start" x="170" y="-67.5" font-family="Helvetica,sans-Serif" font-size="10.00" fill="#000000">Traits&lt; TrajectoryAffine</text>
<text text-anchor="middle" x="229" y="-56.5" font-family="Helvetica,sans-Serif" font-size="10.00" fill="#000000">System &gt;</text>
</a>
</g>
</g>
<!-- Node0&#45;&gt;Node4 -->
<g id="edge4" class="edge">
<title>Node0&#45;&gt;Node4</title>
<path fill="none" stroke="#191970" d="M102.1946,-96.4739C122.8932,-91.2547 147.3593,-85.0856 169.2521,-79.5654"/>
<polygon fill="#191970" stroke="#191970" points="101.2046,-93.1138 92.3639,-98.9527 102.9162,-99.9014 101.2046,-93.1138"/>
</g>
<!-- Node5 -->
<g id="node6" class="node">
<title>Node5</title>
<g id="a_node6"><a xlink:href="structdrake_1_1systems_1_1scalar__conversion_1_1_traits_3_01_trajectory_linear_system_01_4.html" target="_top" xlink:title=" ">
<polygon fill="#ffffff" stroke="#000000" points="161.5,-.5 161.5,-30.5 296.5,-30.5 296.5,-.5 161.5,-.5"/>
<text text-anchor="start" x="169.5" y="-18.5" font-family="Helvetica,sans-Serif" font-size="10.00" fill="#000000">Traits&lt; TrajectoryLinear</text>
<text text-anchor="middle" x="229" y="-7.5" font-family="Helvetica,sans-Serif" font-size="10.00" fill="#000000">System &gt;</text>
</a>
</g>
</g>
<!-- Node0&#45;&gt;Node5 -->
<g id="edge5" class="edge">
<title>Node0&#45;&gt;Node5</title>
<path fill="none" stroke="#191970" d="M72.4708,-91.9136C89.8611,-76.6465 117.5508,-54.3339 145,-40.5 152.4731,-36.7337 160.6124,-33.4318 168.7866,-30.5686"/>
<polygon fill="#191970" stroke="#191970" points="69.9233,-89.4966 64.8074,-98.7744 74.5924,-94.7119 69.9233,-89.4966"/>
</g>
</g>
</svg>
