<?xml version="1.0" encoding="UTF-8" standalone="no"?>
<!DOCTYPE svg PUBLIC "-//W3C//DTD SVG 1.1//EN"
 "http://www.w3.org/Graphics/SVG/1.1/DTD/svg11.dtd">
<!-- Generated by graphviz version 2.40.1 (20161225.0304)
 -->
<!-- Title: Graphical Class Hierarchy Pages: 1 -->
<svg width="456pt" height="104pt"
 viewBox="0.00 0.00 456.00 104.00" xmlns="http://www.w3.org/2000/svg" xmlns:xlink="http://www.w3.org/1999/xlink">
<g id="graph0" class="graph" transform="scale(1 1) rotate(0) translate(4 100)">
<title>Graphical Class Hierarchy</title>
<polygon fill="#ffffff" stroke="transparent" points="-4,4 -4,-100 452,-100 452,4 -4,4"/>
<!-- Node515 -->
<g id="node1" class="node">
<title>Node515</title>
<g id="a_node1"><a xlink:title=" ">
<polygon fill="#ffffff" stroke="#bfbfbf" points="115,-76.5 115,-95.5 293,-95.5 293,-76.5 115,-76.5"/>
<text text-anchor="middle" x="204" y="-83.5" font-family="Helvetica,sans-Serif" font-size="10.00" fill="#000000">ModuleInitVtkRenderingOpenGL2</text>
</a>
</g>
</g>
<!-- Node3 -->
<g id="node2" class="node">
<title>Node3</title>
<g id="a_node2"><a xlink:href="classdrake_1_1geometry_1_1render_1_1_render_engine_ospray.html" target="_top" xlink:title="See documentation for MakeRenderEngineOspray() for details.">
<polygon fill="#ffffff" stroke="#000000" points="329,-38.5 329,-57.5 448,-57.5 448,-38.5 329,-38.5"/>
<text text-anchor="middle" x="388.5" y="-45.5" font-family="Helvetica,sans-Serif" font-size="10.00" fill="#000000">RenderEngineOspray</text>
</a>
</g>
</g>
<!-- Node515&#45;&gt;Node3 -->
<g id="edge1" class="edge">
<title>Node515&#45;&gt;Node3</title>
<path fill="none" stroke="#8b1a1a" d="M260.3672,-74.3905C286.6074,-68.986 317.436,-62.6365 342.2776,-57.5201"/>
<polygon fill="#8b1a1a" stroke="#8b1a1a" points="259.6455,-70.9656 250.5571,-76.411 261.0576,-77.8217 259.6455,-70.9656"/>
</g>
<!-- Node4 -->
<g id="node3" class="node">
<title>Node4</title>
<g id="a_node3"><a xlink:href="classdrake_1_1geometry_1_1render_1_1_render_engine_vtk.html" target="_top" xlink:title="See documentation of MakeRenderEngineVtk().">
<polygon fill="#ffffff" stroke="#000000" points="338,-76.5 338,-95.5 439,-95.5 439,-76.5 338,-76.5"/>
<text text-anchor="middle" x="388.5" y="-83.5" font-family="Helvetica,sans-Serif" font-size="10.00" fill="#000000">RenderEngineVtk</text>
</a>
</g>
</g>
<!-- Node515&#45;&gt;Node4 -->
<g id="edge2" class="edge">
<title>Node515&#45;&gt;Node4</title>
<path fill="none" stroke="#8b1a1a" d="M303.1057,-86C315.1052,-86 326.9492,-86 337.8195,-86"/>
<polygon fill="#8b1a1a" stroke="#8b1a1a" points="303.0075,-82.5001 293.0074,-86 303.0074,-89.5001 303.0075,-82.5001"/>
</g>
<!-- Node0 -->
<g id="node4" class="node">
<title>Node0</title>
<g id="a_node4"><a xlink:href="classdrake_1_1geometry_1_1_shape_reifier.html" target="_top" xlink:title="The interface for converting shape descriptions to real shapes.">
<polygon fill="#ffffff" stroke="#000000" points="0,-19.5 0,-38.5 79,-38.5 79,-19.5 0,-19.5"/>
<text text-anchor="middle" x="39.5" y="-26.5" font-family="Helvetica,sans-Serif" font-size="10.00" fill="#000000">ShapeReifier</text>
</a>
</g>
</g>
<!-- Node1 -->
<g id="node5" class="node">
<title>Node1</title>
<g id="a_node5"><a xlink:href="classdrake_1_1geometry_1_1render_1_1_render_engine.html" target="_top" xlink:title="The engine for performing rasterization operations on geometry.">
<polygon fill="#ffffff" stroke="#000000" points="162,-.5 162,-19.5 246,-19.5 246,-.5 162,-.5"/>
<text text-anchor="middle" x="204" y="-7.5" font-family="Helvetica,sans-Serif" font-size="10.00" fill="#000000">RenderEngine</text>
</a>
</g>
</g>
<!-- Node0&#45;&gt;Node1 -->
<g id="edge3" class="edge">
<title>Node0&#45;&gt;Node1</title>
<path fill="none" stroke="#191970" d="M89.3211,-23.2456C112.5208,-20.566 139.819,-17.413 161.9608,-14.8556"/>
<polygon fill="#191970" stroke="#191970" points="88.8532,-19.7763 79.3209,-24.4006 89.6564,-26.73 88.8532,-19.7763"/>
</g>
<!-- Node5 -->
<g id="node7" class="node">
<title>Node5</title>
<g id="a_node7"><a xlink:href="classdrake_1_1geometry_1_1_shape_name.html" target="_top" xlink:title="Class that reports the name of the type of shape being reified (e.g., Sphere, Box,...">
<polygon fill="#ffffff" stroke="#000000" points="166,-38.5 166,-57.5 242,-57.5 242,-38.5 166,-38.5"/>
<text text-anchor="middle" x="204" y="-45.5" font-family="Helvetica,sans-Serif" font-size="10.00" fill="#000000">ShapeName</text>
</a>
</g>
</g>
<!-- Node0&#45;&gt;Node5 -->
<g id="edge7" class="edge">
<title>Node0&#45;&gt;Node5</title>
<path fill="none" stroke="#191970" d="M89.5407,-34.7798C114.1123,-37.6178 143.2385,-40.9819 165.9601,-43.6063"/>
<polygon fill="#191970" stroke="#191970" points="89.6564,-31.27 79.3209,-33.5994 88.8532,-38.2237 89.6564,-31.27"/>
</g>
<!-- Node1&#45;&gt;Node3 -->
<g id="edge5" class="edge">
<title>Node1&#45;&gt;Node3</title>
<path fill="none" stroke="#191970" d="M256.3814,-20.7886C283.4011,-26.3536 316.071,-33.0824 342.1633,-38.4564"/>
<polygon fill="#191970" stroke="#191970" points="256.8285,-17.3073 246.328,-18.718 255.4164,-24.1634 256.8285,-17.3073"/>
</g>
<!-- Node1&#45;&gt;Node4 -->
<g id="edge6" class="edge">
<title>Node1&#45;&gt;Node4</title>
<path fill="none" stroke="#191970" d="M256.1351,-15.6889C268.7436,-18.507 281.8018,-22.716 293,-29 313.2883,-40.385 309.2984,-54.6274 329,-67 335.0608,-70.8062 341.9513,-73.9127 348.8409,-76.4273"/>
<polygon fill="#191970" stroke="#191970" points="256.6533,-12.2236 246.1638,-13.7139 255.2932,-19.0902 256.6533,-12.2236"/>
</g>
<!-- Node2 -->
<g id="node6" class="node">
<title>Node2</title>
<g id="a_node6"><a xlink:href="classdrake_1_1geometry_1_1render_1_1_render_engine_gl.html" target="_top" xlink:title="See documentation of MakeRenderEngineGl().">
<polygon fill="#ffffff" stroke="#000000" points="341,-.5 341,-19.5 436,-19.5 436,-.5 341,-.5"/>
<text text-anchor="middle" x="388.5" y="-7.5" font-family="Helvetica,sans-Serif" font-size="10.00" fill="#000000">RenderEngineGl</text>
</a>
</g>
</g>
<!-- Node1&#45;&gt;Node2 -->
<g id="edge4" class="edge">
<title>Node1&#45;&gt;Node2</title>
<path fill="none" stroke="#191970" d="M256.5793,-10C283.107,-10 315.0411,-10 340.8452,-10"/>
<polygon fill="#191970" stroke="#191970" points="256.3281,-6.5001 246.328,-10 256.328,-13.5001 256.3281,-6.5001"/>
</g>
</g>
</svg>
