<?xml version="1.0" encoding="UTF-8" standalone="no"?>
<!DOCTYPE svg PUBLIC "-//W3C//DTD SVG 1.1//EN"
 "http://www.w3.org/Graphics/SVG/1.1/DTD/svg11.dtd">
<!-- Generated by graphviz version 2.40.1 (20161225.0304)
 -->
<!-- Title: Graphical Class Hierarchy Pages: 1 -->
<svg width="605pt" height="173pt"
 viewBox="0.00 0.00 605.00 173.00" xmlns="http://www.w3.org/2000/svg" xmlns:xlink="http://www.w3.org/1999/xlink">
<g id="graph0" class="graph" transform="scale(1 1) rotate(0) translate(4 169)">
<title>Graphical Class Hierarchy</title>
<polygon fill="#ffffff" stroke="transparent" points="-4,4 -4,-169 601,-169 601,4 -4,4"/>
<!-- Node809 -->
<g id="node1" class="node">
<title>Node809</title>
<g id="a_node1"><a xlink:title=" ">
<polygon fill="#ffffff" stroke="#bfbfbf" points="0,-85.5 0,-104.5 141,-104.5 141,-85.5 0,-85.5"/>
<text text-anchor="middle" x="70.5" y="-92.5" font-family="Helvetica,sans-Serif" font-size="10.00" fill="#000000">ContextMessageInterface</text>
</a>
</g>
</g>
<!-- Node0 -->
<g id="node2" class="node">
<title>Node0</title>
<g id="a_node2"><a xlink:href="classdrake_1_1systems_1_1_context_base.html" target="_top" xlink:title="Provides non&#45;templatized Context functionality shared by the templatized derived classes.">
<polygon fill="#ffffff" stroke="#000000" points="177,-85.5 177,-104.5 256,-104.5 256,-85.5 177,-85.5"/>
<text text-anchor="middle" x="216.5" y="-92.5" font-family="Helvetica,sans-Serif" font-size="10.00" fill="#000000">ContextBase</text>
</a>
</g>
</g>
<!-- Node809&#45;&gt;Node0 -->
<g id="edge1" class="edge">
<title>Node809&#45;&gt;Node0</title>
<path fill="none" stroke="#191970" d="M151.3641,-95C160.1899,-95 168.8605,-95 176.8519,-95"/>
<polygon fill="#191970" stroke="#191970" points="151.3616,-91.5001 141.3616,-95 151.3616,-98.5001 151.3616,-91.5001"/>
</g>
<!-- Node1 -->
<g id="node3" class="node">
<title>Node1</title>
<g id="a_node3"><a xlink:href="classdrake_1_1systems_1_1_context.html" target="_top" xlink:title=" ">
<polygon fill="#ffffff" stroke="#000000" points="298.5,-145.5 298.5,-164.5 429.5,-164.5 429.5,-145.5 298.5,-145.5"/>
<text text-anchor="middle" x="364" y="-152.5" font-family="Helvetica,sans-Serif" font-size="10.00" fill="#000000">Context&lt; AutoDiffXd &gt;</text>
</a>
</g>
</g>
<!-- Node0&#45;&gt;Node1 -->
<g id="edge2" class="edge">
<title>Node0&#45;&gt;Node1</title>
<path fill="none" stroke="#191970" d="M240.398,-109.8994C254.9042,-118.4501 274.0309,-128.8698 292,-136 301.1325,-139.6238 311.1883,-142.7706 320.8143,-145.4041"/>
<polygon fill="#191970" stroke="#191970" points="241.9648,-106.7575 231.5912,-104.6036 238.3574,-112.7564 241.9648,-106.7575"/>
</g>
<!-- Node2 -->
<g id="node4" class="node">
<title>Node2</title>
<g id="a_node4"><a xlink:href="classdrake_1_1systems_1_1_context.html" target="_top" xlink:title=" ">
<polygon fill="#ffffff" stroke="#000000" points="309,-107.5 309,-126.5 419,-126.5 419,-107.5 309,-107.5"/>
<text text-anchor="middle" x="364" y="-114.5" font-family="Helvetica,sans-Serif" font-size="10.00" fill="#000000">Context&lt; double &gt;</text>
</a>
</g>
</g>
<!-- Node0&#45;&gt;Node2 -->
<g id="edge3" class="edge">
<title>Node0&#45;&gt;Node2</title>
<path fill="none" stroke="#191970" d="M266.2221,-102.4162C279.9176,-104.4589 294.8542,-106.6867 308.8372,-108.7723"/>
<polygon fill="#191970" stroke="#191970" points="266.4342,-98.9092 256.0273,-100.8956 265.4015,-105.8326 266.4342,-98.9092"/>
</g>
<!-- Node3 -->
<g id="node5" class="node">
<title>Node3</title>
<g id="a_node5"><a xlink:href="classdrake_1_1systems_1_1_context.html" target="_top" xlink:title=" ">
<polygon fill="#ffffff" stroke="#000000" points="292,-58 292,-88 436,-88 436,-58 292,-58"/>
<text text-anchor="start" x="300" y="-76" font-family="Helvetica,sans-Serif" font-size="10.00" fill="#000000">Context&lt; drake::symbolic</text>
<text text-anchor="middle" x="364" y="-65" font-family="Helvetica,sans-Serif" font-size="10.00" fill="#000000">::Expression &gt;</text>
</a>
</g>
</g>
<!-- Node0&#45;&gt;Node3 -->
<g id="edge4" class="edge">
<title>Node0&#45;&gt;Node3</title>
<path fill="none" stroke="#191970" d="M265.9466,-87.6249C274.2964,-86.3795 283.1142,-85.0643 291.9007,-83.7538"/>
<polygon fill="#191970" stroke="#191970" points="265.4015,-84.1674 256.0273,-89.1044 266.4342,-91.0908 265.4015,-84.1674"/>
</g>
<!-- Node4 -->
<g id="node6" class="node">
<title>Node4</title>
<g id="a_node6"><a xlink:href="classdrake_1_1systems_1_1_context.html" target="_top" xlink:title="Context is an abstract class template that represents all the typed values that are used in a System&#39;...">
<polygon fill="#ffffff" stroke="#000000" points="322.5,-19.5 322.5,-38.5 405.5,-38.5 405.5,-19.5 322.5,-19.5"/>
<text text-anchor="middle" x="364" y="-26.5" font-family="Helvetica,sans-Serif" font-size="10.00" fill="#000000">Context&lt; T &gt;</text>
</a>
</g>
</g>
<!-- Node0&#45;&gt;Node4 -->
<g id="edge5" class="edge">
<title>Node0&#45;&gt;Node4</title>
<path fill="none" stroke="#191970" d="M238.1515,-79.5859C252.7923,-69.7322 272.8743,-57.2917 292,-49 301.5223,-44.8718 312.1244,-41.3705 322.2015,-38.5076"/>
<polygon fill="#191970" stroke="#191970" points="236.056,-76.7791 229.7959,-85.3267 240.02,-82.5486 236.056,-76.7791"/>
</g>
<!-- Node5 -->
<g id="node7" class="node">
<title>Node5</title>
<g id="a_node7"><a xlink:href="classdrake_1_1systems_1_1_diagram_context.html" target="_top" xlink:title="The DiagramContext is a container for all of the data necessary to uniquely determine the computation...">
<polygon fill="#ffffff" stroke="#000000" points="472,-38.5 472,-57.5 597,-57.5 597,-38.5 472,-38.5"/>
<text text-anchor="middle" x="534.5" y="-45.5" font-family="Helvetica,sans-Serif" font-size="10.00" fill="#000000">DiagramContext&lt; T &gt;</text>
</a>
</g>
</g>
<!-- Node4&#45;&gt;Node5 -->
<g id="edge6" class="edge">
<title>Node4&#45;&gt;Node5</title>
<path fill="none" stroke="#191970" d="M415.8318,-34.776C433.5209,-36.7472 453.4907,-38.9726 471.933,-41.0277"/>
<polygon fill="#191970" stroke="#191970" points="416.0351,-31.2771 405.709,-33.6479 415.2598,-38.234 416.0351,-31.2771"/>
</g>
<!-- Node6 -->
<g id="node8" class="node">
<title>Node6</title>
<g id="a_node8"><a xlink:href="classdrake_1_1systems_1_1_leaf_context.html" target="_top" xlink:title="LeafContext contains all prerequisite data necessary to uniquely determine the results of computation...">
<polygon fill="#ffffff" stroke="#000000" points="482.5,-.5 482.5,-19.5 586.5,-19.5 586.5,-.5 482.5,-.5"/>
<text text-anchor="middle" x="534.5" y="-7.5" font-family="Helvetica,sans-Serif" font-size="10.00" fill="#000000">LeafContext&lt; T &gt;</text>
</a>
</g>
</g>
<!-- Node4&#45;&gt;Node6 -->
<g id="edge7" class="edge">
<title>Node4&#45;&gt;Node6</title>
<path fill="none" stroke="#191970" d="M415.7581,-23.2322C436.8165,-20.8856 461.1168,-18.1776 482.2274,-15.8251"/>
<polygon fill="#191970" stroke="#191970" points="415.2598,-19.766 405.709,-24.3521 416.0351,-26.7229 415.2598,-19.766"/>
</g>
</g>
</svg>
