<?xml version="1.0" encoding="UTF-8" standalone="no"?>
<!DOCTYPE svg PUBLIC "-//W3C//DTD SVG 1.1//EN"
 "http://www.w3.org/Graphics/SVG/1.1/DTD/svg11.dtd">
<!-- Generated by graphviz version 2.40.1 (20161225.0304)
 -->
<!-- Title: Graphical Class Hierarchy Pages: 1 -->
<svg width="343pt" height="774pt"
 viewBox="0.00 0.00 343.00 774.00" xmlns="http://www.w3.org/2000/svg" xmlns:xlink="http://www.w3.org/1999/xlink">
<g id="graph0" class="graph" transform="scale(1 1) rotate(0) translate(4 770)">
<title>Graphical Class Hierarchy</title>
<polygon fill="#ffffff" stroke="transparent" points="-4,4 -4,-770 339,-770 339,4 -4,4"/>
<!-- Node0 -->
<g id="node1" class="node">
<title>Node0</title>
<g id="a_node1"><a xlink:href="structdrake_1_1uhash.html" target="_top" xlink:title="A hashing functor, somewhat like std::hash.">
<polygon fill="#ffffff" stroke="#000000" points="0,-373 0,-392 141,-392 141,-373 0,-373"/>
<text text-anchor="middle" x="70.5" y="-380" font-family="Helvetica,sans-Serif" font-size="10.00" fill="#000000">uhash&lt; HashAlgorithm &gt;</text>
</a>
</g>
</g>
<!-- Node1 -->
<g id="node2" class="node">
<title>Node1</title>
<g id="a_node2"><a xlink:href="structstd_1_1hash_3_01drake_1_1geometry_1_1render_1_1_render_label_01_4.html" target="_top" xlink:title="Enables use of the label to serve as a key in STL containers.">
<polygon fill="#ffffff" stroke="#000000" points="190,-735.5 190,-765.5 322,-765.5 322,-735.5 190,-735.5"/>
<text text-anchor="start" x="198" y="-753.5" font-family="Helvetica,sans-Serif" font-size="10.00" fill="#000000">hash&lt; drake::geometry</text>
<text text-anchor="middle" x="256" y="-742.5" font-family="Helvetica,sans-Serif" font-size="10.00" fill="#000000">::render::RenderLabel &gt;</text>
</a>
</g>
</g>
<!-- Node0&#45;&gt;Node1 -->
<g id="edge1" class="edge">
<title>Node0&#45;&gt;Node1</title>
<path fill="none" stroke="#191970" d="M74.0618,-402.0093C86.4079,-467.6412 129.2335,-678.9858 177,-726.5 180.7602,-730.2403 185.0837,-733.4008 189.7291,-736.0709"/>
<polygon fill="#191970" stroke="#191970" points="77.4964,-401.3348 72.23,-392.1416 70.614,-402.6125 77.4964,-401.3348"/>
</g>
<!-- Node2 -->
<g id="node3" class="node">
<title>Node2</title>
<g id="a_node3"><a xlink:href="structstd_1_1hash_3_01drake_1_1_identifier_3_01_tag_01_4_01_4.html" target="_top" xlink:title="Enables use of the identifier to serve as a key in STL containers.">
<polygon fill="#ffffff" stroke="#000000" points="191.5,-686.5 191.5,-716.5 320.5,-716.5 320.5,-686.5 191.5,-686.5"/>
<text text-anchor="start" x="199.5" y="-704.5" font-family="Helvetica,sans-Serif" font-size="10.00" fill="#000000">hash&lt; drake::Identifier</text>
<text text-anchor="middle" x="256" y="-693.5" font-family="Helvetica,sans-Serif" font-size="10.00" fill="#000000">&lt; Tag &gt; &gt;</text>
</a>
</g>
</g>
<!-- Node0&#45;&gt;Node2 -->
<g id="edge2" class="edge">
<title>Node0&#45;&gt;Node2</title>
<path fill="none" stroke="#191970" d="M71.711,-402.0338C76.0282,-454.5014 95.1592,-599.7705 177,-677.5 181.2613,-681.5473 186.1841,-684.9138 191.4471,-687.7137"/>
<polygon fill="#191970" stroke="#191970" points="75.2008,-401.7648 70.981,-392.0466 68.2194,-402.2752 75.2008,-401.7648"/>
</g>
<!-- Node3 -->
<g id="node4" class="node">
<title>Node3</title>
<g id="a_node4"><a xlink:href="structstd_1_1hash_3_01drake_1_1solvers_1_1_binding_3_01_c_01_4_01_4.html" target="_top" xlink:title=" ">
<polygon fill="#ffffff" stroke="#000000" points="196,-637.5 196,-667.5 316,-667.5 316,-637.5 196,-637.5"/>
<text text-anchor="start" x="204" y="-655.5" font-family="Helvetica,sans-Serif" font-size="10.00" fill="#000000">hash&lt; drake::solvers</text>
<text text-anchor="middle" x="256" y="-644.5" font-family="Helvetica,sans-Serif" font-size="10.00" fill="#000000">::Binding&lt; C &gt; &gt;</text>
</a>
</g>
</g>
<!-- Node0&#45;&gt;Node3 -->
<g id="edge3" class="edge">
<title>Node0&#45;&gt;Node3</title>
<path fill="none" stroke="#191970" d="M73.3177,-402.1446C81.019,-448.5606 106.748,-565.8092 177,-628.5 182.4545,-633.3674 188.871,-637.248 195.6499,-640.3417"/>
<polygon fill="#191970" stroke="#191970" points="76.7627,-401.5205 71.7655,-392.1782 69.8461,-402.5978 76.7627,-401.5205"/>
</g>
<!-- Node4 -->
<g id="node5" class="node">
<title>Node4</title>
<g id="a_node5"><a xlink:href="structstd_1_1hash_3_01drake_1_1solvers_1_1_solver_id_01_4.html" target="_top" xlink:title=" ">
<polygon fill="#ffffff" stroke="#000000" points="196,-588.5 196,-618.5 316,-618.5 316,-588.5 196,-588.5"/>
<text text-anchor="start" x="204" y="-606.5" font-family="Helvetica,sans-Serif" font-size="10.00" fill="#000000">hash&lt; drake::solvers</text>
<text text-anchor="middle" x="256" y="-595.5" font-family="Helvetica,sans-Serif" font-size="10.00" fill="#000000">::SolverId &gt;</text>
</a>
</g>
</g>
<!-- Node0&#45;&gt;Node4 -->
<g id="edge4" class="edge">
<title>Node0&#45;&gt;Node4</title>
<path fill="none" stroke="#191970" d="M75.6517,-402.1829C87.0346,-441.7792 118.1073,-531.3804 177,-579.5 182.5501,-584.0348 188.9457,-587.7137 195.645,-590.6981"/>
<polygon fill="#191970" stroke="#191970" points="78.9908,-401.1253 72.9566,-392.4168 72.243,-402.9876 78.9908,-401.1253"/>
</g>
<!-- Node5 -->
<g id="node6" class="node">
<title>Node5</title>
<g id="a_node6"><a xlink:href="structstd_1_1hash_3_01drake_1_1_sorted_pair_3_01_t_01_4_01_4.html" target="_top" xlink:title="Provides std::hash&lt;SortedPair&lt;T&gt;&gt;.">
<polygon fill="#ffffff" stroke="#000000" points="188.5,-539.5 188.5,-569.5 323.5,-569.5 323.5,-539.5 188.5,-539.5"/>
<text text-anchor="start" x="196.5" y="-557.5" font-family="Helvetica,sans-Serif" font-size="10.00" fill="#000000">hash&lt; drake::SortedPair</text>
<text text-anchor="middle" x="256" y="-546.5" font-family="Helvetica,sans-Serif" font-size="10.00" fill="#000000">&lt; T &gt; &gt;</text>
</a>
</g>
</g>
<!-- Node0&#45;&gt;Node5 -->
<g id="edge5" class="edge">
<title>Node0&#45;&gt;Node5</title>
<path fill="none" stroke="#191970" d="M79.0779,-401.5162C94.2669,-433.0472 128.8881,-496.0806 177,-530.5 181.7798,-533.9195 187.0549,-536.8593 192.5441,-539.3853"/>
<polygon fill="#191970" stroke="#191970" points="82.0886,-399.692 74.6804,-392.1177 75.7483,-402.6586 82.0886,-399.692"/>
</g>
<!-- Node6 -->
<g id="node7" class="node">
<title>Node6</title>
<g id="a_node7"><a xlink:href="structstd_1_1hash_3_01drake_1_1symbolic_1_1_chebyshev_basis_element_01_4.html" target="_top" xlink:title=" ">
<polygon fill="#ffffff" stroke="#000000" points="178.5,-490.5 178.5,-520.5 333.5,-520.5 333.5,-490.5 178.5,-490.5"/>
<text text-anchor="start" x="186.5" y="-508.5" font-family="Helvetica,sans-Serif" font-size="10.00" fill="#000000">hash&lt; drake::symbolic</text>
<text text-anchor="middle" x="256" y="-497.5" font-family="Helvetica,sans-Serif" font-size="10.00" fill="#000000">::ChebyshevBasisElement &gt;</text>
</a>
</g>
</g>
<!-- Node0&#45;&gt;Node6 -->
<g id="edge6" class="edge">
<title>Node0&#45;&gt;Node6</title>
<path fill="none" stroke="#191970" d="M84.8769,-400.0937C103.8022,-422.1566 139.1351,-459.723 177,-481.5 182.8401,-484.8588 189.1986,-487.7932 195.6884,-490.3459"/>
<polygon fill="#191970" stroke="#191970" points="87.3546,-397.602 78.2401,-392.2004 81.9968,-402.1069 87.3546,-397.602"/>
</g>
<!-- Node7 -->
<g id="node8" class="node">
<title>Node7</title>
<g id="a_node8"><a xlink:href="structstd_1_1hash_3_01drake_1_1symbolic_1_1_chebyshev_polynomial_01_4.html" target="_top" xlink:title=" ">
<polygon fill="#ffffff" stroke="#000000" points="184.5,-441.5 184.5,-471.5 327.5,-471.5 327.5,-441.5 184.5,-441.5"/>
<text text-anchor="start" x="192.5" y="-459.5" font-family="Helvetica,sans-Serif" font-size="10.00" fill="#000000">hash&lt; drake::symbolic</text>
<text text-anchor="middle" x="256" y="-448.5" font-family="Helvetica,sans-Serif" font-size="10.00" fill="#000000">::ChebyshevPolynomial &gt;</text>
</a>
</g>
</g>
<!-- Node0&#45;&gt;Node7 -->
<g id="edge7" class="edge">
<title>Node0&#45;&gt;Node7</title>
<path fill="none" stroke="#191970" d="M98.073,-396.788C119.2991,-407.4559 149.5537,-421.9512 177,-432.5 185.1618,-435.6369 193.9195,-438.6416 202.5256,-441.3989"/>
<polygon fill="#191970" stroke="#191970" points="99.4999,-393.5873 88.9984,-392.1838 96.3326,-399.8298 99.4999,-393.5873"/>
</g>
<!-- Node8 -->
<g id="node9" class="node">
<title>Node8</title>
<g id="a_node9"><a xlink:href="structstd_1_1hash_3_01drake_1_1symbolic_1_1_expression_01_4.html" target="_top" xlink:title=" ">
<polygon fill="#ffffff" stroke="#000000" points="191.5,-392.5 191.5,-422.5 320.5,-422.5 320.5,-392.5 191.5,-392.5"/>
<text text-anchor="start" x="199.5" y="-410.5" font-family="Helvetica,sans-Serif" font-size="10.00" fill="#000000">hash&lt; drake::symbolic</text>
<text text-anchor="middle" x="256" y="-399.5" font-family="Helvetica,sans-Serif" font-size="10.00" fill="#000000">::Expression &gt;</text>
</a>
</g>
</g>
<!-- Node0&#45;&gt;Node8 -->
<g id="edge8" class="edge">
<title>Node0&#45;&gt;Node8</title>
<path fill="none" stroke="#191970" d="M151.3074,-393.3905C164.6893,-395.194 178.4085,-397.0429 191.3256,-398.7838"/>
<polygon fill="#191970" stroke="#191970" points="151.5367,-389.8898 141.1588,-392.0227 150.6017,-396.8271 151.5367,-389.8898"/>
</g>
<!-- Node9 -->
<g id="node10" class="node">
<title>Node9</title>
<g id="a_node10"><a xlink:href="structstd_1_1hash_3_01drake_1_1symbolic_1_1_formula_01_4.html" target="_top" xlink:title=" ">
<polygon fill="#ffffff" stroke="#000000" points="191.5,-343.5 191.5,-373.5 320.5,-373.5 320.5,-343.5 191.5,-343.5"/>
<text text-anchor="start" x="199.5" y="-361.5" font-family="Helvetica,sans-Serif" font-size="10.00" fill="#000000">hash&lt; drake::symbolic</text>
<text text-anchor="middle" x="256" y="-350.5" font-family="Helvetica,sans-Serif" font-size="10.00" fill="#000000">::Formula &gt;</text>
</a>
</g>
</g>
<!-- Node0&#45;&gt;Node9 -->
<g id="edge9" class="edge">
<title>Node0&#45;&gt;Node9</title>
<path fill="none" stroke="#191970" d="M151.3074,-372.0451C164.6893,-370.3138 178.4085,-368.5388 191.3256,-366.8676"/>
<polygon fill="#191970" stroke="#191970" points="150.627,-368.6039 141.1588,-373.3582 151.5252,-375.546 150.627,-368.6039"/>
</g>
<!-- Node10 -->
<g id="node11" class="node">
<title>Node10</title>
<g id="a_node11"><a xlink:href="structstd_1_1hash_3_01drake_1_1symbolic_1_1_monomial_01_4.html" target="_top" xlink:title=" ">
<polygon fill="#ffffff" stroke="#000000" points="191.5,-294.5 191.5,-324.5 320.5,-324.5 320.5,-294.5 191.5,-294.5"/>
<text text-anchor="start" x="199.5" y="-312.5" font-family="Helvetica,sans-Serif" font-size="10.00" fill="#000000">hash&lt; drake::symbolic</text>
<text text-anchor="middle" x="256" y="-301.5" font-family="Helvetica,sans-Serif" font-size="10.00" fill="#000000">::Monomial &gt;</text>
</a>
</g>
</g>
<!-- Node0&#45;&gt;Node10 -->
<g id="edge10" class="edge">
<title>Node0&#45;&gt;Node10</title>
<path fill="none" stroke="#191970" d="M98.9463,-368.5834C120.1808,-358.465 150.0566,-344.7945 177,-334.5 186.0036,-331.0599 195.7056,-327.7081 205.1237,-324.634"/>
<polygon fill="#191970" stroke="#191970" points="97.3382,-365.4729 89.8395,-372.9575 100.369,-371.7828 97.3382,-365.4729"/>
</g>
<!-- Node11 -->
<g id="node12" class="node">
<title>Node11</title>
<g id="a_node12"><a xlink:href="structstd_1_1hash_3_01drake_1_1symbolic_1_1_polynomial_01_4.html" target="_top" xlink:title=" ">
<polygon fill="#ffffff" stroke="#000000" points="191.5,-245.5 191.5,-275.5 320.5,-275.5 320.5,-245.5 191.5,-245.5"/>
<text text-anchor="start" x="199.5" y="-263.5" font-family="Helvetica,sans-Serif" font-size="10.00" fill="#000000">hash&lt; drake::symbolic</text>
<text text-anchor="middle" x="256" y="-252.5" font-family="Helvetica,sans-Serif" font-size="10.00" fill="#000000">::Polynomial &gt;</text>
</a>
</g>
</g>
<!-- Node0&#45;&gt;Node11 -->
<g id="edge11" class="edge">
<title>Node0&#45;&gt;Node11</title>
<path fill="none" stroke="#191970" d="M85.2856,-365.0138C104.4023,-343.4408 139.6939,-306.9898 177,-285.5 183.6067,-281.6943 190.8638,-278.3928 198.219,-275.55"/>
<polygon fill="#191970" stroke="#191970" points="82.4807,-362.9056 78.5609,-372.7486 87.7633,-367.4984 82.4807,-362.9056"/>
</g>
<!-- Node12 -->
<g id="node13" class="node">
<title>Node12</title>
<g id="a_node13"><a xlink:href="structstd_1_1hash_3_01drake_1_1symbolic_1_1_variable_01_4.html" target="_top" xlink:title=" ">
<polygon fill="#ffffff" stroke="#000000" points="191.5,-196.5 191.5,-226.5 320.5,-226.5 320.5,-196.5 191.5,-196.5"/>
<text text-anchor="start" x="199.5" y="-214.5" font-family="Helvetica,sans-Serif" font-size="10.00" fill="#000000">hash&lt; drake::symbolic</text>
<text text-anchor="middle" x="256" y="-203.5" font-family="Helvetica,sans-Serif" font-size="10.00" fill="#000000">::Variable &gt;</text>
</a>
</g>
</g>
<!-- Node0&#45;&gt;Node12 -->
<g id="edge12" class="edge">
<title>Node0&#45;&gt;Node12</title>
<path fill="none" stroke="#191970" d="M79.4132,-363.3526C94.88,-332.1913 129.6311,-270.5702 177,-236.5 182.3722,-232.6361 188.3644,-229.3535 194.5805,-226.5683"/>
<polygon fill="#191970" stroke="#191970" points="76.1114,-362.1415 74.9169,-372.6688 82.4156,-365.1842 76.1114,-362.1415"/>
</g>
<!-- Node13 -->
<g id="node14" class="node">
<title>Node13</title>
<g id="a_node14"><a xlink:href="structstd_1_1hash_3_01drake_1_1symbolic_1_1_variables_01_4.html" target="_top" xlink:title=" ">
<polygon fill="#ffffff" stroke="#000000" points="191.5,-147.5 191.5,-177.5 320.5,-177.5 320.5,-147.5 191.5,-147.5"/>
<text text-anchor="start" x="199.5" y="-165.5" font-family="Helvetica,sans-Serif" font-size="10.00" fill="#000000">hash&lt; drake::symbolic</text>
<text text-anchor="middle" x="256" y="-154.5" font-family="Helvetica,sans-Serif" font-size="10.00" fill="#000000">::Variables &gt;</text>
</a>
</g>
</g>
<!-- Node0&#45;&gt;Node13 -->
<g id="edge13" class="edge">
<title>Node0&#45;&gt;Node13</title>
<path fill="none" stroke="#191970" d="M75.7579,-363.0708C87.3346,-323.975 118.7433,-235.4539 177,-187.5 181.6649,-183.6601 186.9255,-180.4073 192.4608,-177.6523"/>
<polygon fill="#191970" stroke="#191970" points="72.385,-362.1362 73.0127,-372.7124 79.1174,-364.0531 72.385,-362.1362"/>
</g>
<!-- Node14 -->
<g id="node15" class="node">
<title>Node14</title>
<g id="a_node15"><a xlink:href="structstd_1_1hash_3_01drake_1_1systems_1_1sensors_1_1_color_3_01_t_01_4_01_4.html" target="_top" xlink:title=" ">
<polygon fill="#ffffff" stroke="#000000" points="190.5,-98.5 190.5,-128.5 321.5,-128.5 321.5,-98.5 190.5,-98.5"/>
<text text-anchor="start" x="198.5" y="-116.5" font-family="Helvetica,sans-Serif" font-size="10.00" fill="#000000">hash&lt; drake::systems</text>
<text text-anchor="middle" x="256" y="-105.5" font-family="Helvetica,sans-Serif" font-size="10.00" fill="#000000">::sensors::Color&lt; T &gt; &gt;</text>
</a>
</g>
</g>
<!-- Node0&#45;&gt;Node14 -->
<g id="edge14" class="edge">
<title>Node0&#45;&gt;Node14</title>
<path fill="none" stroke="#191970" d="M73.4668,-362.7728C81.4435,-316.6448 107.6429,-200.9277 177,-138.5 181.2769,-134.6504 186.146,-131.3934 191.3178,-128.6379"/>
<polygon fill="#191970" stroke="#191970" points="69.9662,-362.4941 71.8162,-372.9261 76.8755,-363.6173 69.9662,-362.4941"/>
</g>
<!-- Node15 -->
<g id="node16" class="node">
<title>Node15</title>
<g id="a_node16"><a xlink:href="structstd_1_1hash_3_01drake_1_1systems_1_1sensors_1_1_pixel_type_01_4.html" target="_top" xlink:title=" ">
<polygon fill="#ffffff" stroke="#000000" points="193,-49.5 193,-79.5 319,-79.5 319,-49.5 193,-49.5"/>
<text text-anchor="start" x="201" y="-67.5" font-family="Helvetica,sans-Serif" font-size="10.00" fill="#000000">hash&lt; drake::systems</text>
<text text-anchor="middle" x="256" y="-56.5" font-family="Helvetica,sans-Serif" font-size="10.00" fill="#000000">::sensors::PixelType &gt;</text>
</a>
</g>
</g>
<!-- Node0&#45;&gt;Node15 -->
<g id="edge15" class="edge">
<title>Node0&#45;&gt;Node15</title>
<path fill="none" stroke="#191970" d="M71.8346,-362.7946C76.4417,-310.5077 96.1947,-166.9692 177,-89.5 181.6729,-85.02 187.1441,-81.3425 192.9884,-78.3238"/>
<polygon fill="#191970" stroke="#191970" points="68.3452,-362.5237 71.0469,-372.7683 75.3235,-363.0749 68.3452,-362.5237"/>
</g>
<!-- Node16 -->
<g id="node17" class="node">
<title>Node16</title>
<g id="a_node17"><a xlink:href="structstd_1_1hash_3_01drake_1_1_type_safe_index_3_01_tag_01_4_01_4.html" target="_top" xlink:title="Enables use of the type&#45;safe index to serve as a key in STL containers.">
<polygon fill="#ffffff" stroke="#000000" points="177,-.5 177,-30.5 335,-30.5 335,-.5 177,-.5"/>
<text text-anchor="start" x="185" y="-18.5" font-family="Helvetica,sans-Serif" font-size="10.00" fill="#000000">hash&lt; drake::TypeSafeIndex</text>
<text text-anchor="middle" x="256" y="-7.5" font-family="Helvetica,sans-Serif" font-size="10.00" fill="#000000">&lt; Tag &gt; &gt;</text>
</a>
</g>
</g>
<!-- Node0&#45;&gt;Node16 -->
<g id="edge16" class="edge">
<title>Node0&#45;&gt;Node16</title>
<path fill="none" stroke="#191970" d="M74.176,-362.7176C86.7405,-297.0688 129.819,-87.8985 177,-40.5 180.8565,-36.6257 185.3088,-33.3507 190.095,-30.5825"/>
<polygon fill="#191970" stroke="#191970" points="70.665,-362.4484 72.2485,-372.9243 77.5434,-363.7474 70.665,-362.4484"/>
</g>
</g>
</svg>
