<?xml version="1.0" encoding="UTF-8" standalone="no"?>
<!DOCTYPE svg PUBLIC "-//W3C//DTD SVG 1.1//EN"
 "http://www.w3.org/Graphics/SVG/1.1/DTD/svg11.dtd">
<!-- Generated by graphviz version 2.40.1 (20161225.0304)
 -->
<!-- Title: Graphical Class Hierarchy Pages: 1 -->
<svg width="563pt" height="180pt"
 viewBox="0.00 0.00 563.00 180.00" xmlns="http://www.w3.org/2000/svg" xmlns:xlink="http://www.w3.org/1999/xlink">
<g id="graph0" class="graph" transform="scale(1 1) rotate(0) translate(4 176)">
<title>Graphical Class Hierarchy</title>
<polygon fill="#ffffff" stroke="transparent" points="-4,4 -4,-176 559,-176 559,4 -4,4"/>
<!-- Node0 -->
<g id="node1" class="node">
<title>Node0</title>
<g id="a_node1"><a xlink:href="classdrake_1_1multibody_1_1_multibody_element.html" target="_top" xlink:title=" ">
<polygon fill="#ffffff" stroke="#000000" points="0,-71 0,-101 186,-101 186,-71 0,-71"/>
<text text-anchor="start" x="8" y="-89" font-family="Helvetica,sans-Serif" font-size="10.00" fill="#000000">MultibodyElement&lt; ForceElement,</text>
<text text-anchor="middle" x="93" y="-78" font-family="Helvetica,sans-Serif" font-size="10.00" fill="#000000"> T, ForceElementIndex &gt;</text>
</a>
</g>
</g>
<!-- Node1 -->
<g id="node2" class="node">
<title>Node1</title>
<g id="a_node2"><a xlink:href="classdrake_1_1multibody_1_1_force_element.html" target="_top" xlink:title="A ForceElement allows modeling state and time dependent forces in a MultibodyTree model.">
<polygon fill="#ffffff" stroke="#000000" points="222,-76.5 222,-95.5 334,-95.5 334,-76.5 222,-76.5"/>
<text text-anchor="middle" x="278" y="-83.5" font-family="Helvetica,sans-Serif" font-size="10.00" fill="#000000">ForceElement&lt; T &gt;</text>
</a>
</g>
</g>
<!-- Node0&#45;&gt;Node1 -->
<g id="edge1" class="edge">
<title>Node0&#45;&gt;Node1</title>
<path fill="none" stroke="#191970" d="M196.0598,-86C204.8992,-86 213.6082,-86 221.8583,-86"/>
<polygon fill="#191970" stroke="#191970" points="196.042,-82.5001 186.042,-86 196.042,-89.5001 196.042,-82.5001"/>
</g>
<!-- Node2 -->
<g id="node3" class="node">
<title>Node2</title>
<g id="a_node3"><a xlink:href="classdrake_1_1multibody_1_1_door_hinge.html" target="_top" xlink:title="This ForceElement models a revolute DoorHinge joint that could exhibit different force/torque charact...">
<polygon fill="#ffffff" stroke="#000000" points="414,-152.5 414,-171.5 511,-171.5 511,-152.5 414,-152.5"/>
<text text-anchor="middle" x="462.5" y="-159.5" font-family="Helvetica,sans-Serif" font-size="10.00" fill="#000000">DoorHinge&lt; T &gt;</text>
</a>
</g>
</g>
<!-- Node1&#45;&gt;Node2 -->
<g id="edge2" class="edge">
<title>Node1&#45;&gt;Node2</title>
<path fill="none" stroke="#191970" d="M298.8328,-101.8985C316.7727,-114.8326 343.8341,-132.5904 370,-143 383.7098,-148.4542 399.2125,-152.4217 413.5531,-155.2738"/>
<polygon fill="#191970" stroke="#191970" points="300.463,-98.7522 290.3359,-95.6389 296.3111,-104.388 300.463,-98.7522"/>
</g>
<!-- Node3 -->
<g id="node4" class="node">
<title>Node3</title>
<g id="a_node4"><a xlink:href="classdrake_1_1multibody_1_1_linear_bushing_roll_pitch_yaw.html" target="_top" xlink:title="This ForceElement models a massless flexible bushing that connects a frame A of a link (body) L0 to a...">
<polygon fill="#ffffff" stroke="#000000" points="374,-114.5 374,-133.5 551,-133.5 551,-114.5 374,-114.5"/>
<text text-anchor="middle" x="462.5" y="-121.5" font-family="Helvetica,sans-Serif" font-size="10.00" fill="#000000">LinearBushingRollPitchYaw&lt; T &gt;</text>
</a>
</g>
</g>
<!-- Node1&#45;&gt;Node3 -->
<g id="edge3" class="edge">
<title>Node1&#45;&gt;Node3</title>
<path fill="none" stroke="#191970" d="M334.4712,-97.6725C346.2136,-100.0968 358.51,-102.6335 370,-105 384.9333,-108.0757 401.2241,-111.4242 415.9154,-114.4414"/>
<polygon fill="#191970" stroke="#191970" points="334.8301,-94.1728 324.3289,-95.578 333.4143,-101.0282 334.8301,-94.1728"/>
</g>
<!-- Node4 -->
<g id="node5" class="node">
<title>Node4</title>
<g id="a_node5"><a xlink:href="classdrake_1_1multibody_1_1_linear_spring_damper.html" target="_top" xlink:title="This ForceElement models a spring&#45;damper attached between two points on two different bodies.">
<polygon fill="#ffffff" stroke="#000000" points="390,-76.5 390,-95.5 535,-95.5 535,-76.5 390,-76.5"/>
<text text-anchor="middle" x="462.5" y="-83.5" font-family="Helvetica,sans-Serif" font-size="10.00" fill="#000000">LinearSpringDamper&lt; T &gt;</text>
</a>
</g>
</g>
<!-- Node1&#45;&gt;Node4 -->
<g id="edge4" class="edge">
<title>Node1&#45;&gt;Node4</title>
<path fill="none" stroke="#191970" d="M344.2057,-86C359.0485,-86 374.8711,-86 389.9562,-86"/>
<polygon fill="#191970" stroke="#191970" points="344.1076,-82.5001 334.1075,-86 344.1075,-89.5001 344.1076,-82.5001"/>
</g>
<!-- Node5 -->
<g id="node6" class="node">
<title>Node5</title>
<g id="a_node6"><a xlink:href="classdrake_1_1multibody_1_1_revolute_spring.html" target="_top" xlink:title="This ForceElement models a torsional spring attached to a RevoluteJoint and applies a torque to that ...">
<polygon fill="#ffffff" stroke="#000000" points="403,-38.5 403,-57.5 522,-57.5 522,-38.5 403,-38.5"/>
<text text-anchor="middle" x="462.5" y="-45.5" font-family="Helvetica,sans-Serif" font-size="10.00" fill="#000000">RevoluteSpring&lt; T &gt;</text>
</a>
</g>
</g>
<!-- Node1&#45;&gt;Node5 -->
<g id="edge5" class="edge">
<title>Node1&#45;&gt;Node5</title>
<path fill="none" stroke="#191970" d="M334.4712,-74.3275C346.2136,-71.9032 358.51,-69.3665 370,-67 384.9333,-63.9243 401.2241,-60.5758 415.9154,-57.5586"/>
<polygon fill="#191970" stroke="#191970" points="333.4143,-70.9718 324.3289,-76.422 334.8301,-77.8272 333.4143,-70.9718"/>
</g>
<!-- Node6 -->
<g id="node7" class="node">
<title>Node6</title>
<g id="a_node7"><a xlink:href="classdrake_1_1multibody_1_1_uniform_gravity_field_element.html" target="_top" xlink:title="This ForceElement allows modeling the effect of a uniform gravity field as felt by bodies on the surf...">
<polygon fill="#ffffff" stroke="#000000" points="370,-.5 370,-19.5 555,-19.5 555,-.5 370,-.5"/>
<text text-anchor="middle" x="462.5" y="-7.5" font-family="Helvetica,sans-Serif" font-size="10.00" fill="#000000">UniformGravityFieldElement&lt; T &gt;</text>
</a>
</g>
</g>
<!-- Node1&#45;&gt;Node6 -->
<g id="edge6" class="edge">
<title>Node1&#45;&gt;Node6</title>
<path fill="none" stroke="#191970" d="M298.8328,-70.1015C316.7727,-57.1674 343.8341,-39.4096 370,-29 379.5969,-25.1821 390.0723,-22.0926 400.4126,-19.6043"/>
<polygon fill="#191970" stroke="#191970" points="296.3111,-67.612 290.3359,-76.3611 300.463,-73.2478 296.3111,-67.612"/>
</g>
</g>
</svg>
