<?xml version="1.0" encoding="UTF-8" standalone="no"?>
<!DOCTYPE svg PUBLIC "-//W3C//DTD SVG 1.1//EN"
 "http://www.w3.org/Graphics/SVG/1.1/DTD/svg11.dtd">
<!-- Generated by graphviz version 2.40.1 (20161225.0304)
 -->
<!-- Title: Graphical Class Hierarchy Pages: 1 -->
<svg width="310pt" height="186pt"
 viewBox="0.00 0.00 310.00 186.00" xmlns="http://www.w3.org/2000/svg" xmlns:xlink="http://www.w3.org/1999/xlink">
<g id="graph0" class="graph" transform="scale(1 1) rotate(0) translate(4 182)">
<title>Graphical Class Hierarchy</title>
<polygon fill="#ffffff" stroke="transparent" points="-4,4 -4,-182 306,-182 306,4 -4,4"/>
<!-- Node0 -->
<g id="node1" class="node">
<title>Node0</title>
<g id="a_node1"><a xlink:href="structdrake_1_1systems_1_1scalar__conversion_1_1_non_symbolic_traits.html" target="_top" xlink:title="A concrete traits class providing sugar to disable support for symbolic evaluation (i....">
<polygon fill="#ffffff" stroke="#000000" points="0,-79 0,-98 109,-98 109,-79 0,-79"/>
<text text-anchor="middle" x="54.5" y="-86" font-family="Helvetica,sans-Serif" font-size="10.00" fill="#000000">NonSymbolicTraits</text>
</a>
</g>
</g>
<!-- Node1 -->
<g id="node2" class="node">
<title>Node1</title>
<g id="a_node2"><a xlink:href="structdrake_1_1systems_1_1scalar__conversion_1_1_traits_3_01examples_1_1quadrotor_1_1_quadrotor_plant_01_4.html" target="_top" xlink:title=" ">
<polygon fill="#ffffff" stroke="#000000" points="145,-147.5 145,-177.5 302,-177.5 302,-147.5 145,-147.5"/>
<text text-anchor="start" x="153" y="-165.5" font-family="Helvetica,sans-Serif" font-size="10.00" fill="#000000">Traits&lt; examples::quadrotor</text>
<text text-anchor="middle" x="223.5" y="-154.5" font-family="Helvetica,sans-Serif" font-size="10.00" fill="#000000">::QuadrotorPlant &gt;</text>
</a>
</g>
</g>
<!-- Node0&#45;&gt;Node1 -->
<g id="edge1" class="edge">
<title>Node0&#45;&gt;Node1</title>
<path fill="none" stroke="#191970" d="M78.3137,-103.4516C96.177,-114.218 121.4951,-128.5421 145,-138.5 152.6109,-141.7244 160.8025,-144.7196 168.9211,-147.4241"/>
<polygon fill="#191970" stroke="#191970" points="80.0587,-100.4162 69.7009,-98.1877 76.4083,-106.389 80.0587,-100.4162"/>
</g>
<!-- Node2 -->
<g id="node3" class="node">
<title>Node2</title>
<g id="a_node3"><a xlink:href="structdrake_1_1systems_1_1scalar__conversion_1_1_traits_3_01examples_1_1rimless__wheel_1_1_rimless_wheel_01_4.html" target="_top" xlink:title=" ">
<polygon fill="#ffffff" stroke="#000000" points="150.5,-98.5 150.5,-128.5 296.5,-128.5 296.5,-98.5 150.5,-98.5"/>
<text text-anchor="start" x="158.5" y="-116.5" font-family="Helvetica,sans-Serif" font-size="10.00" fill="#000000">Traits&lt; examples::rimless</text>
<text text-anchor="middle" x="223.5" y="-105.5" font-family="Helvetica,sans-Serif" font-size="10.00" fill="#000000">_wheel::RimlessWheel &gt;</text>
</a>
</g>
</g>
<!-- Node0&#45;&gt;Node2 -->
<g id="edge2" class="edge">
<title>Node0&#45;&gt;Node2</title>
<path fill="none" stroke="#191970" d="M119.381,-98.0978C129.5498,-99.602 140.1198,-101.1657 150.4568,-102.6948"/>
<polygon fill="#191970" stroke="#191970" points="119.774,-94.6179 109.3695,-96.6168 118.7496,-101.5426 119.774,-94.6179"/>
</g>
<!-- Node3 -->
<g id="node4" class="node">
<title>Node3</title>
<g id="a_node4"><a xlink:href="structdrake_1_1systems_1_1scalar__conversion_1_1_traits_3_01_trajectory_affine_system_01_4.html" target="_top" xlink:title=" ">
<polygon fill="#ffffff" stroke="#000000" points="156.5,-49.5 156.5,-79.5 290.5,-79.5 290.5,-49.5 156.5,-49.5"/>
<text text-anchor="start" x="164.5" y="-67.5" font-family="Helvetica,sans-Serif" font-size="10.00" fill="#000000">Traits&lt; TrajectoryAffine</text>
<text text-anchor="middle" x="223.5" y="-56.5" font-family="Helvetica,sans-Serif" font-size="10.00" fill="#000000">System &gt;</text>
</a>
</g>
</g>
<!-- Node0&#45;&gt;Node3 -->
<g id="edge3" class="edge">
<title>Node0&#45;&gt;Node3</title>
<path fill="none" stroke="#191970" d="M119.353,-79.2901C131.4244,-77.5758 144.0622,-75.7811 156.205,-74.0567"/>
<polygon fill="#191970" stroke="#191970" points="118.778,-75.8366 109.3695,-80.7079 119.7623,-82.767 118.778,-75.8366"/>
</g>
<!-- Node4 -->
<g id="node5" class="node">
<title>Node4</title>
<g id="a_node5"><a xlink:href="structdrake_1_1systems_1_1scalar__conversion_1_1_traits_3_01_trajectory_linear_system_01_4.html" target="_top" xlink:title=" ">
<polygon fill="#ffffff" stroke="#000000" points="156,-.5 156,-30.5 291,-30.5 291,-.5 156,-.5"/>
<text text-anchor="start" x="164" y="-18.5" font-family="Helvetica,sans-Serif" font-size="10.00" fill="#000000">Traits&lt; TrajectoryLinear</text>
<text text-anchor="middle" x="223.5" y="-7.5" font-family="Helvetica,sans-Serif" font-size="10.00" fill="#000000">System &gt;</text>
</a>
</g>
</g>
<!-- Node0&#45;&gt;Node4 -->
<g id="edge4" class="edge">
<title>Node0&#45;&gt;Node4</title>
<path fill="none" stroke="#191970" d="M79.5669,-73.638C97.4109,-63.4507 122.1752,-50.0961 145,-40.5 153.4384,-36.9523 162.5639,-33.6159 171.5055,-30.607"/>
<polygon fill="#191970" stroke="#191970" points="77.3256,-70.891 70.4218,-78.9277 80.8305,-76.9504 77.3256,-70.891"/>
</g>
</g>
</svg>
