<?xml version="1.0" encoding="UTF-8" standalone="no"?>
<!DOCTYPE svg PUBLIC "-//W3C//DTD SVG 1.1//EN"
 "http://www.w3.org/Graphics/SVG/1.1/DTD/svg11.dtd">
<!-- Generated by graphviz version 2.40.1 (20161225.0304)
 -->
<!-- Title: Graphical Class Hierarchy Pages: 1 -->
<svg width="413pt" height="66pt"
 viewBox="0.00 0.00 413.00 66.00" xmlns="http://www.w3.org/2000/svg" xmlns:xlink="http://www.w3.org/1999/xlink">
<g id="graph0" class="graph" transform="scale(1 1) rotate(0) translate(4 62)">
<title>Graphical Class Hierarchy</title>
<polygon fill="#ffffff" stroke="transparent" points="-4,4 -4,-62 409,-62 409,4 -4,4"/>
<!-- Node0 -->
<g id="node1" class="node">
<title>Node0</title>
<g id="a_node1"><a xlink:href="classdrake_1_1solvers_1_1_mathematical_program.html" target="_top" xlink:title="MathematicalProgram stores the decision variables, the constraints and costs of an optimization probl...">
<polygon fill="#ffffff" stroke="#000000" points="0,-19.5 0,-38.5 125,-38.5 125,-19.5 0,-19.5"/>
<text text-anchor="middle" x="62.5" y="-26.5" font-family="Helvetica,sans-Serif" font-size="10.00" fill="#000000">MathematicalProgram</text>
</a>
</g>
</g>
<!-- Node1 -->
<g id="node2" class="node">
<title>Node1</title>
<g id="a_node2"><a xlink:href="classdrake_1_1systems_1_1trajectory__optimization_1_1_multiple_shooting.html" target="_top" xlink:title="MultipleShooting is an abstract class for trajectory optimization that creates decision variables for...">
<polygon fill="#ffffff" stroke="#000000" points="161,-19.5 161,-38.5 259,-38.5 259,-19.5 161,-19.5"/>
<text text-anchor="middle" x="210" y="-26.5" font-family="Helvetica,sans-Serif" font-size="10.00" fill="#000000">MultipleShooting</text>
</a>
</g>
</g>
<!-- Node0&#45;&gt;Node1 -->
<g id="edge1" class="edge">
<title>Node0&#45;&gt;Node1</title>
<path fill="none" stroke="#191970" d="M135.1895,-29C143.8562,-29 152.5424,-29 160.7693,-29"/>
<polygon fill="#191970" stroke="#191970" points="135.0533,-25.5001 125.0533,-29 135.0532,-32.5001 135.0533,-25.5001"/>
</g>
<!-- Node2 -->
<g id="node3" class="node">
<title>Node2</title>
<g id="a_node3"><a xlink:href="classdrake_1_1systems_1_1trajectory__optimization_1_1_direct_collocation.html" target="_top" xlink:title="DirectCollocation implements the approach to trajectory optimization as described in C.">
<polygon fill="#ffffff" stroke="#000000" points="299.5,-38.5 299.5,-57.5 400.5,-57.5 400.5,-38.5 299.5,-38.5"/>
<text text-anchor="middle" x="350" y="-45.5" font-family="Helvetica,sans-Serif" font-size="10.00" fill="#000000">DirectCollocation</text>
</a>
</g>
</g>
<!-- Node1&#45;&gt;Node2 -->
<g id="edge2" class="edge">
<title>Node1&#45;&gt;Node2</title>
<path fill="none" stroke="#191970" d="M269.5156,-37.0771C279.3937,-38.4177 289.5568,-39.797 299.1939,-41.1049"/>
<polygon fill="#191970" stroke="#191970" points="269.7386,-33.5754 259.3588,-35.6987 268.7972,-40.5118 269.7386,-33.5754"/>
</g>
<!-- Node3 -->
<g id="node4" class="node">
<title>Node3</title>
<g id="a_node4"><a xlink:href="classdrake_1_1systems_1_1trajectory__optimization_1_1_direct_transcription.html" target="_top" xlink:title="DirectTranscription is perhaps the simplest implementation of a multiple shooting method,...">
<polygon fill="#ffffff" stroke="#000000" points="295,-.5 295,-19.5 405,-19.5 405,-.5 295,-.5"/>
<text text-anchor="middle" x="350" y="-7.5" font-family="Helvetica,sans-Serif" font-size="10.00" fill="#000000">DirectTranscription</text>
</a>
</g>
</g>
<!-- Node1&#45;&gt;Node3 -->
<g id="edge3" class="edge">
<title>Node1&#45;&gt;Node3</title>
<path fill="none" stroke="#191970" d="M269.4966,-20.9255C277.9199,-19.7823 286.5509,-18.611 294.8865,-17.4797"/>
<polygon fill="#191970" stroke="#191970" points="268.7972,-17.4882 259.3588,-22.3013 269.7386,-24.4246 268.7972,-17.4882"/>
</g>
</g>
</svg>
