<?xml version="1.0" encoding="UTF-8" standalone="no"?>
<!DOCTYPE svg PUBLIC "-//W3C//DTD SVG 1.1//EN"
 "http://www.w3.org/Graphics/SVG/1.1/DTD/svg11.dtd">
<!-- Generated by graphviz version 2.40.1 (20161225.0304)
 -->
<!-- Title: Graphical Class Hierarchy Pages: 1 -->
<svg width="215pt" height="142pt"
 viewBox="0.00 0.00 215.00 142.00" xmlns="http://www.w3.org/2000/svg" xmlns:xlink="http://www.w3.org/1999/xlink">
<g id="graph0" class="graph" transform="scale(1 1) rotate(0) translate(4 138)">
<title>Graphical Class Hierarchy</title>
<polygon fill="#ffffff" stroke="transparent" points="-4,4 -4,-138 211,-138 211,4 -4,4"/>
<!-- Node0 -->
<g id="node1" class="node">
<title>Node0</title>
<g id="a_node1"><a xlink:href="classdrake_1_1schema_1_1_distribution.html" target="_top" xlink:title="Base class for a single distribution, to be used with YAML archives.">
<polygon fill="#ffffff" stroke="#000000" points="0,-57.5 0,-76.5 74,-76.5 74,-57.5 0,-57.5"/>
<text text-anchor="middle" x="37" y="-64.5" font-family="Helvetica,sans-Serif" font-size="10.00" fill="#000000">Distribution</text>
</a>
</g>
</g>
<!-- Node1 -->
<g id="node2" class="node">
<title>Node1</title>
<g id="a_node2"><a xlink:href="classdrake_1_1schema_1_1_deterministic.html" target="_top" xlink:title="A single deterministic value.">
<polygon fill="#ffffff" stroke="#000000" points="117,-114.5 117,-133.5 200,-133.5 200,-114.5 117,-114.5"/>
<text text-anchor="middle" x="158.5" y="-121.5" font-family="Helvetica,sans-Serif" font-size="10.00" fill="#000000">Deterministic</text>
</a>
</g>
</g>
<!-- Node0&#45;&gt;Node1 -->
<g id="edge1" class="edge">
<title>Node0&#45;&gt;Node1</title>
<path fill="none" stroke="#191970" d="M63.0636,-81.4284C76.844,-88.8363 94.1477,-97.7937 110,-105 117.2446,-108.2933 125.2395,-111.5676 132.6128,-114.4468"/>
<polygon fill="#191970" stroke="#191970" points="64.6058,-78.2831 54.1474,-76.588 61.266,-84.4351 64.6058,-78.2831"/>
</g>
<!-- Node2 -->
<g id="node3" class="node">
<title>Node2</title>
<g id="a_node3"><a xlink:href="classdrake_1_1schema_1_1_gaussian.html" target="_top" xlink:title="A gaussian distribution with mean and stddev.">
<polygon fill="#ffffff" stroke="#000000" points="127.5,-76.5 127.5,-95.5 189.5,-95.5 189.5,-76.5 127.5,-76.5"/>
<text text-anchor="middle" x="158.5" y="-83.5" font-family="Helvetica,sans-Serif" font-size="10.00" fill="#000000">Gaussian</text>
</a>
</g>
</g>
<!-- Node0&#45;&gt;Node2 -->
<g id="edge2" class="edge">
<title>Node0&#45;&gt;Node2</title>
<path fill="none" stroke="#191970" d="M84.3778,-74.4089C98.7981,-76.6639 114.276,-79.0843 127.3389,-81.1271"/>
<polygon fill="#191970" stroke="#191970" points="84.5349,-70.891 74.1142,-72.8039 83.4533,-77.8069 84.5349,-70.891"/>
</g>
<!-- Node3 -->
<g id="node4" class="node">
<title>Node3</title>
<g id="a_node4"><a xlink:href="classdrake_1_1schema_1_1_uniform.html" target="_top" xlink:title="A uniform distribution with min inclusive and max exclusive.">
<polygon fill="#ffffff" stroke="#000000" points="130.5,-38.5 130.5,-57.5 186.5,-57.5 186.5,-38.5 130.5,-38.5"/>
<text text-anchor="middle" x="158.5" y="-45.5" font-family="Helvetica,sans-Serif" font-size="10.00" fill="#000000">Uniform</text>
</a>
</g>
</g>
<!-- Node0&#45;&gt;Node3 -->
<g id="edge3" class="edge">
<title>Node0&#45;&gt;Node3</title>
<path fill="none" stroke="#191970" d="M84.1713,-59.6234C99.8245,-57.1756 116.7453,-54.5295 130.4824,-52.3813"/>
<polygon fill="#191970" stroke="#191970" points="83.4533,-56.1931 74.1142,-61.1961 84.5349,-63.109 83.4533,-56.1931"/>
</g>
<!-- Node4 -->
<g id="node5" class="node">
<title>Node4</title>
<g id="a_node5"><a xlink:href="classdrake_1_1schema_1_1_uniform_discrete.html" target="_top" xlink:title="Chooses from among discrete values with equal probability.">
<polygon fill="#ffffff" stroke="#000000" points="110,-.5 110,-19.5 207,-19.5 207,-.5 110,-.5"/>
<text text-anchor="middle" x="158.5" y="-7.5" font-family="Helvetica,sans-Serif" font-size="10.00" fill="#000000">UniformDiscrete</text>
</a>
</g>
</g>
<!-- Node0&#45;&gt;Node4 -->
<g id="edge4" class="edge">
<title>Node0&#45;&gt;Node4</title>
<path fill="none" stroke="#191970" d="M63.0636,-52.5716C76.844,-45.1637 94.1477,-36.2063 110,-29 117.2446,-25.7067 125.2395,-22.4324 132.6128,-19.5532"/>
<polygon fill="#191970" stroke="#191970" points="61.266,-49.5649 54.1474,-57.412 64.6058,-55.7169 61.266,-49.5649"/>
</g>
</g>
</svg>
