<?xml version="1.0" encoding="UTF-8" standalone="no"?>
<!DOCTYPE svg PUBLIC "-//W3C//DTD SVG 1.1//EN"
 "http://www.w3.org/Graphics/SVG/1.1/DTD/svg11.dtd">
<!-- Generated by graphviz version 2.40.1 (20161225.0304)
 -->
<!-- Title: drake/geometry/internal_frame.h Pages: 1 -->
<!--zoomable 430 -->
<svg id="main" version="1.1" xmlns="http://www.w3.org/2000/svg" xmlns:xlink="http://www.w3.org/1999/xlink" xml:space="preserve" onload="init(evt)">
<style type="text/css"><![CDATA[
.edge:hover path { stroke: red; }
.edge:hover polygon { stroke: red; fill: red; }
]]></style>
<script type="text/javascript"><![CDATA[
var edges = document.getElementsByTagName('g');
if (edges && edges.length) {
  for (var i=0;i<edges.length;i++) {
    if (edges[i].id.substr(0,4)=='edge') {
      edges[i].setAttribute('class','edge');
    }
  }
}
]]></script>
        <defs>
                <circle id="rim" cx="0" cy="0" r="7"/>
                <circle id="rim2" cx="0" cy="0" r="3.5"/>
                <g id="zoomPlus">
                        <use xlink:href="#rim" fill="#404040">
                                <set attributeName="fill" to="#808080" begin="zoomplus.mouseover" end="zoomplus.mouseout"/>
                        </use>
                        <path d="M-4,0h8M0,-4v8" fill="none" stroke="white" stroke-width="1.5" pointer-events="none"/>
                </g>
                <g id="zoomMin">
                        <use xlink:href="#rim" fill="#404040">
                                <set attributeName="fill" to="#808080" begin="zoomminus.mouseover" end="zoomminus.mouseout"/>
                        </use>
                        <path d="M-4,0h8" fill="none" stroke="white" stroke-width="1.5" pointer-events="none"/>
                </g>
                <g id="dirArrow">
                        <path fill="none" stroke="white" stroke-width="1.5" d="M0,-3.0v7 M-2.5,-0.5L0,-3.0L2.5,-0.5"/>
                </g>
               <g id="resetDef">
                       <use xlink:href="#rim2" fill="#404040">
                               <set attributeName="fill" to="#808080" begin="reset.mouseover" end="reset.mouseout"/>
                       </use>
               </g>
        </defs>

<script type="text/javascript">
var viewWidth = 1327;
var viewHeight = 430;
var sectionId = 'dynsection-0';
</script>
<script xlink:href="svgpan.js"/>
<svg id="graph" class="graph">
<g id="viewport">
<title>drake/geometry/internal_frame.h</title>
<polygon fill="#ffffff" stroke="transparent" points="-4,4 -4,-426 1322.5,-426 1322.5,4 -4,4"/>
<!-- Node0 -->
<g id="node1" class="node">
<title>Node0</title>
<g id="a_node1"><a xlink:title=" ">
<polygon fill="#bfbfbf" stroke="#000000" points="246,-391.5 246,-421.5 381,-421.5 381,-391.5 246,-391.5"/>
<text text-anchor="start" x="254" y="-409.5" font-family="Helvetica,sans-Serif" font-size="10.00" fill="#000000">drake/geometry/internal</text>
<text text-anchor="middle" x="313.5" y="-398.5" font-family="Helvetica,sans-Serif" font-size="10.00" fill="#000000">_frame.h</text>
</a>
</g>
</g>
<!-- Node1 -->
<g id="node2" class="node">
<title>Node1</title>
<g id="a_node2"><a xlink:title=" ">
<polygon fill="#ffffff" stroke="#bfbfbf" points="1274.5,-129 1274.5,-148 1318.5,-148 1318.5,-129 1274.5,-129"/>
<text text-anchor="middle" x="1296.5" y="-136" font-family="Helvetica,sans-Serif" font-size="10.00" fill="#000000">string</text>
</a>
</g>
</g>
<!-- Node0&#45;&gt;Node1 -->
<g id="edge1" class="edge">
<title>Node0&#45;&gt;Node1</title>
<path fill="none" stroke="#191970" d="M381.0563,-399.234C456.5623,-390.6523 582.3032,-374.9826 689.5,-355 943.6316,-307.6273 1053.039,-381.7377 1255.5,-221 1275.5002,-205.1215 1286.501,-176.9581 1291.9484,-158.0102"/>
<polygon fill="#191970" stroke="#191970" points="1295.4008,-158.6411 1294.5399,-148.0813 1288.6278,-156.8732 1295.4008,-158.6411"/>
</g>
<!-- Node2 -->
<g id="node3" class="node">
<title>Node2</title>
<g id="a_node3"><a xlink:title=" ">
<polygon fill="#ffffff" stroke="#bfbfbf" points="136.5,-330 136.5,-349 222.5,-349 222.5,-330 136.5,-330"/>
<text text-anchor="middle" x="179.5" y="-337" font-family="Helvetica,sans-Serif" font-size="10.00" fill="#000000">unordered_set</text>
</a>
</g>
</g>
<!-- Node0&#45;&gt;Node2 -->
<g id="edge2" class="edge">
<title>Node0&#45;&gt;Node2</title>
<path fill="none" stroke="#191970" d="M283.4278,-391.4639C260.843,-380.1715 230.1171,-364.8086 207.9384,-353.7192"/>
<polygon fill="#191970" stroke="#191970" points="209.2174,-350.4456 198.7078,-349.1039 206.0869,-356.7066 209.2174,-350.4456"/>
</g>
<!-- Node3 -->
<g id="node4" class="node">
<title>Node3</title>
<g id="a_node4"><a xlink:href="drake__copyable_8h.html" target="_top" xlink:title="Provides careful macros to selectively enable or disable the special member functions for copy&#45;constr...">
<polygon fill="#ffffff" stroke="#000000" points="0,-56.5 0,-86.5 121,-86.5 121,-56.5 0,-56.5"/>
<text text-anchor="start" x="8" y="-74.5" font-family="Helvetica,sans-Serif" font-size="10.00" fill="#000000">drake/common/drake</text>
<text text-anchor="middle" x="60.5" y="-63.5" font-family="Helvetica,sans-Serif" font-size="10.00" fill="#000000">_copyable.h</text>
</a>
</g>
</g>
<!-- Node0&#45;&gt;Node3 -->
<g id="edge3" class="edge">
<title>Node0&#45;&gt;Node3</title>
<path fill="none" stroke="#191970" d="M245.8523,-391.5737C154.6381,-369.4564 3.5,-324.9026 3.5,-272.5 3.5,-272.5 3.5,-272.5 3.5,-205.5 3.5,-164.115 26.8071,-120.8651 43.6138,-95.0576"/>
<polygon fill="#191970" stroke="#191970" points="46.5655,-96.9403 49.2386,-86.6882 40.7557,-93.0357 46.5655,-96.9403"/>
</g>
<!-- Node4 -->
<g id="node5" class="node">
<title>Node4</title>
<g id="a_node5"><a xlink:href="geometry__ids_8h.html" target="_top" xlink:title=" ">
<polygon fill="#ffffff" stroke="#000000" points="241,-324.5 241,-354.5 386,-354.5 386,-324.5 241,-324.5"/>
<text text-anchor="start" x="249" y="-342.5" font-family="Helvetica,sans-Serif" font-size="10.00" fill="#000000">drake/geometry/geometry</text>
<text text-anchor="middle" x="313.5" y="-331.5" font-family="Helvetica,sans-Serif" font-size="10.00" fill="#000000">_ids.h</text>
</a>
</g>
</g>
<!-- Node0&#45;&gt;Node4 -->
<g id="edge4" class="edge">
<title>Node0&#45;&gt;Node4</title>
<path fill="none" stroke="#191970" d="M313.5,-391.2967C313.5,-383.5013 313.5,-373.7991 313.5,-364.9064"/>
<polygon fill="#191970" stroke="#191970" points="317.0001,-364.6431 313.5,-354.6432 310.0001,-364.6432 317.0001,-364.6431"/>
</g>
<!-- Node23 -->
<g id="node24" class="node">
<title>Node23</title>
<g id="a_node24"><a xlink:href="geometry__index_8h.html" target="_top" xlink:title=" ">
<polygon fill="#ffffff" stroke="#000000" points="535,-324.5 535,-354.5 680,-354.5 680,-324.5 535,-324.5"/>
<text text-anchor="start" x="543" y="-342.5" font-family="Helvetica,sans-Serif" font-size="10.00" fill="#000000">drake/geometry/geometry</text>
<text text-anchor="middle" x="607.5" y="-331.5" font-family="Helvetica,sans-Serif" font-size="10.00" fill="#000000">_index.h</text>
</a>
</g>
</g>
<!-- Node0&#45;&gt;Node23 -->
<g id="edge35" class="edge">
<title>Node0&#45;&gt;Node23</title>
<path fill="none" stroke="#191970" d="M379.4793,-391.4639C424.6044,-381.1803 484.5426,-367.5209 531.6415,-356.7875"/>
<polygon fill="#191970" stroke="#191970" points="532.5147,-360.1783 541.487,-354.5438 530.9593,-353.3533 532.5147,-360.1783"/>
</g>
<!-- Node4&#45;&gt;Node3 -->
<g id="edge5" class="edge">
<title>Node4&#45;&gt;Node3</title>
<path fill="none" stroke="#191970" d="M276.0699,-324.4446C232.7052,-305.5202 161.1291,-269.5409 113.5,-221 89.5237,-196.5647 87.1708,-186.183 75.5,-154 68.7826,-135.4763 64.9753,-113.478 62.8786,-96.8574"/>
<polygon fill="#191970" stroke="#191970" points="66.3427,-96.3426 61.7344,-86.8024 59.3876,-97.1341 66.3427,-96.3426"/>
</g>
<!-- Node5 -->
<g id="node6" class="node">
<title>Node5</title>
<g id="a_node6"><a xlink:href="identifier_8h.html" target="_top" xlink:title=" ">
<polygon fill="#ffffff" stroke="#000000" points="240.5,-263 240.5,-282 386.5,-282 386.5,-263 240.5,-263"/>
<text text-anchor="middle" x="313.5" y="-270" font-family="Helvetica,sans-Serif" font-size="10.00" fill="#000000">drake/common/identifier.h</text>
</a>
</g>
</g>
<!-- Node4&#45;&gt;Node5 -->
<g id="edge6" class="edge">
<title>Node4&#45;&gt;Node5</title>
<path fill="none" stroke="#191970" d="M313.5,-324.2967C313.5,-314.7699 313.5,-302.3954 313.5,-292.1306"/>
<polygon fill="#191970" stroke="#191970" points="317.0001,-292.0549 313.5,-282.055 310.0001,-292.055 317.0001,-292.0549"/>
</g>
<!-- Node5&#45;&gt;Node1 -->
<g id="edge10" class="edge">
<title>Node5&#45;&gt;Node1</title>
<path fill="none" stroke="#191970" d="M386.7361,-269.0591C579.6802,-259.8313 1089.5178,-234.3329 1123.5,-221 1143.7901,-213.0392 1142.4647,-200.6169 1161.5,-190 1204.218,-166.1743 1220.4185,-172.9776 1265.5,-154 1266.6854,-153.501 1267.889,-152.9772 1269.0995,-152.4364"/>
<polygon fill="#191970" stroke="#191970" points="1270.7765,-155.5152 1278.3256,-148.0813 1267.7884,-149.185 1270.7765,-155.5152"/>
</g>
<!-- Node5&#45;&gt;Node3 -->
<g id="edge11" class="edge">
<title>Node5&#45;&gt;Node3</title>
<path fill="none" stroke="#191970" d="M252.5448,-262.9618C219.491,-255.5651 179.2363,-242.7631 148.5,-221 104.8401,-190.0862 79.4015,-130.0984 67.9175,-96.2651"/>
<polygon fill="#191970" stroke="#191970" points="71.2171,-95.0938 64.7968,-86.6659 64.5601,-97.2581 71.2171,-95.0938"/>
</g>
<!-- Node6 -->
<g id="node7" class="node">
<title>Node6</title>
<g id="a_node7"><a xlink:title=" ">
<polygon fill="#ffffff" stroke="#bfbfbf" points="263.5,-196 263.5,-215 313.5,-215 313.5,-196 263.5,-196"/>
<text text-anchor="middle" x="288.5" y="-203" font-family="Helvetica,sans-Serif" font-size="10.00" fill="#000000">atomic</text>
</a>
</g>
</g>
<!-- Node5&#45;&gt;Node6 -->
<g id="edge7" class="edge">
<title>Node5&#45;&gt;Node6</title>
<path fill="none" stroke="#191970" d="M309.9181,-262.9005C306.2052,-252.95 300.302,-237.1292 295.6324,-224.6147"/>
<polygon fill="#191970" stroke="#191970" points="298.8504,-223.2271 292.0752,-215.0817 292.2921,-225.6743 298.8504,-223.2271"/>
</g>
<!-- Node7 -->
<g id="node8" class="node">
<title>Node7</title>
<g id="a_node8"><a xlink:title=" ">
<polygon fill="#ffffff" stroke="#bfbfbf" points="157.5,-196 157.5,-215 207.5,-215 207.5,-196 157.5,-196"/>
<text text-anchor="middle" x="182.5" y="-203" font-family="Helvetica,sans-Serif" font-size="10.00" fill="#000000">cstdint</text>
</a>
</g>
</g>
<!-- Node5&#45;&gt;Node7 -->
<g id="edge8" class="edge">
<title>Node5&#45;&gt;Node7</title>
<path fill="none" stroke="#191970" d="M294.7309,-262.9005C272.6489,-251.6067 235.7811,-232.7506 210.3614,-219.7497"/>
<polygon fill="#191970" stroke="#191970" points="211.7312,-216.5191 201.2343,-215.0817 208.5437,-222.7513 211.7312,-216.5191"/>
</g>
<!-- Node8 -->
<g id="node9" class="node">
<title>Node8</title>
<g id="a_node9"><a xlink:title=" ">
<polygon fill="#ffffff" stroke="#bfbfbf" points="108,-129 108,-148 173,-148 173,-129 108,-129"/>
<text text-anchor="middle" x="140.5" y="-136" font-family="Helvetica,sans-Serif" font-size="10.00" fill="#000000">functional</text>
</a>
</g>
</g>
<!-- Node5&#45;&gt;Node8 -->
<g id="edge9" class="edge">
<title>Node5&#45;&gt;Node8</title>
<path fill="none" stroke="#191970" d="M302.5247,-262.9022C280.9574,-244.0858 233.6572,-203.0477 216.5,-190 199.5851,-177.1366 179.6745,-163.7028 164.4767,-153.782"/>
<polygon fill="#191970" stroke="#191970" points="165.9885,-150.5914 155.6918,-148.0954 162.1846,-156.4676 165.9885,-150.5914"/>
</g>
<!-- Node9 -->
<g id="node10" class="node">
<title>Node9</title>
<g id="a_node10"><a xlink:href="drake__throw_8h.html" target="_top" xlink:title="Provides a convenient wrapper to throw an exception when a condition is unmet.">
<polygon fill="#ffffff" stroke="#000000" points="191,-123.5 191,-153.5 312,-153.5 312,-123.5 191,-123.5"/>
<text text-anchor="start" x="199" y="-141.5" font-family="Helvetica,sans-Serif" font-size="10.00" fill="#000000">drake/common/drake</text>
<text text-anchor="middle" x="251.5" y="-130.5" font-family="Helvetica,sans-Serif" font-size="10.00" fill="#000000">_throw.h</text>
</a>
</g>
</g>
<!-- Node5&#45;&gt;Node9 -->
<g id="edge12" class="edge">
<title>Node5&#45;&gt;Node9</title>
<path fill="none" stroke="#191970" d="M317.7769,-262.9815C324.2965,-246.959 334.7411,-214.0014 322.5,-190 315.9864,-177.2286 304.6608,-166.8854 292.9436,-158.9119"/>
<polygon fill="#191970" stroke="#191970" points="294.7304,-155.9009 284.4056,-153.5239 290.9946,-161.8206 294.7304,-155.9009"/>
</g>
<!-- Node12 -->
<g id="node13" class="node">
<title>Node12</title>
<g id="a_node13"><a xlink:href="hash_8h.html" target="_top" xlink:title=" ">
<polygon fill="#ffffff" stroke="#000000" points="540,-196 540,-215 665,-215 665,-196 540,-196"/>
<text text-anchor="middle" x="602.5" y="-203" font-family="Helvetica,sans-Serif" font-size="10.00" fill="#000000">drake/common/hash.h</text>
</a>
</g>
</g>
<!-- Node5&#45;&gt;Node12 -->
<g id="edge16" class="edge">
<title>Node5&#45;&gt;Node12</title>
<path fill="none" stroke="#191970" d="M354.5997,-262.9717C406.2397,-250.9998 494.878,-230.4504 550.9913,-217.4415"/>
<polygon fill="#191970" stroke="#191970" points="552.123,-220.772 561.0741,-215.1039 550.542,-213.9529 552.123,-220.772"/>
</g>
<!-- Node21 -->
<g id="node22" class="node">
<title>Node21</title>
<g id="a_node22"><a xlink:href="never__destroyed_8h.html" target="_top" xlink:title=" ">
<polygon fill="#ffffff" stroke="#000000" points="841,-123.5 841,-153.5 962,-153.5 962,-123.5 841,-123.5"/>
<text text-anchor="start" x="849" y="-141.5" font-family="Helvetica,sans-Serif" font-size="10.00" fill="#000000">drake/common/never</text>
<text text-anchor="middle" x="901.5" y="-130.5" font-family="Helvetica,sans-Serif" font-size="10.00" fill="#000000">_destroyed.h</text>
</a>
</g>
</g>
<!-- Node5&#45;&gt;Node21 -->
<g id="edge30" class="edge">
<title>Node5&#45;&gt;Node21</title>
<path fill="none" stroke="#191970" d="M386.6122,-266.5434C460.1498,-259.5114 576.389,-245.5455 674.5,-221 739.8729,-204.645 812.6264,-176.3118 857.7312,-157.4848"/>
<polygon fill="#191970" stroke="#191970" points="859.3386,-160.6057 867.1995,-153.5025 856.6247,-154.1532 859.3386,-160.6057"/>
</g>
<!-- Node10 -->
<g id="node11" class="node">
<title>Node10</title>
<g id="a_node11"><a xlink:title=" ">
<polygon fill="#ffffff" stroke="#bfbfbf" points="685,-.5 685,-19.5 754,-19.5 754,-.5 685,-.5"/>
<text text-anchor="middle" x="719.5" y="-7.5" font-family="Helvetica,sans-Serif" font-size="10.00" fill="#000000">type_traits</text>
</a>
</g>
</g>
<!-- Node9&#45;&gt;Node10 -->
<g id="edge13" class="edge">
<title>Node9&#45;&gt;Node10</title>
<path fill="none" stroke="#191970" d="M278.6683,-123.4026C313.4838,-104.7165 376.1988,-73.2576 433.5,-56 516.6858,-30.9467 617.8349,-18.759 674.8254,-13.4817"/>
<polygon fill="#191970" stroke="#191970" points="675.2911,-16.9541 684.9387,-12.5751 674.6661,-9.982 675.2911,-16.9541"/>
</g>
<!-- Node11 -->
<g id="node12" class="node">
<title>Node11</title>
<g id="a_node12"><a xlink:href="drake__assert_8h.html" target="_top" xlink:title="Provides Drake&#39;s assertion implementation.">
<polygon fill="#ffffff" stroke="#000000" points="442,-56.5 442,-86.5 563,-86.5 563,-56.5 442,-56.5"/>
<text text-anchor="start" x="450" y="-74.5" font-family="Helvetica,sans-Serif" font-size="10.00" fill="#000000">drake/common/drake</text>
<text text-anchor="middle" x="502.5" y="-63.5" font-family="Helvetica,sans-Serif" font-size="10.00" fill="#000000">_assert.h</text>
</a>
</g>
</g>
<!-- Node9&#45;&gt;Node11 -->
<g id="edge14" class="edge">
<title>Node9&#45;&gt;Node11</title>
<path fill="none" stroke="#191970" d="M307.8293,-123.4639C345.8847,-113.3057 396.2802,-99.8535 436.2607,-89.1814"/>
<polygon fill="#191970" stroke="#191970" points="437.166,-92.5624 445.925,-86.6017 435.3606,-85.7992 437.166,-92.5624"/>
</g>
<!-- Node11&#45;&gt;Node10 -->
<g id="edge15" class="edge">
<title>Node11&#45;&gt;Node10</title>
<path fill="none" stroke="#191970" d="M555.5842,-56.4554C592.5852,-45.9689 641.3396,-32.1515 676.0342,-22.3187"/>
<polygon fill="#191970" stroke="#191970" points="677.206,-25.6245 685.8727,-19.5303 675.2973,-18.8897 677.206,-25.6245"/>
</g>
<!-- Node12&#45;&gt;Node1 -->
<g id="edge24" class="edge">
<title>Node12&#45;&gt;Node1</title>
<path fill="none" stroke="#191970" d="M665.1433,-203.7018C807.8799,-199.1094 1153.5545,-185.0523 1265.5,-154 1267.2141,-153.5245 1268.9457,-152.9522 1270.668,-152.3116"/>
<polygon fill="#191970" stroke="#191970" points="1272.4991,-155.3298 1280.2417,-148.0977 1269.6791,-148.9229 1272.4991,-155.3298"/>
</g>
<!-- Node12&#45;&gt;Node8 -->
<g id="edge19" class="edge">
<title>Node12&#45;&gt;Node8</title>
<path fill="none" stroke="#191970" d="M539.7925,-199.6902C439.5896,-190.093 247.9027,-170.3612 181.5,-154 178.4937,-153.2593 175.4073,-152.3625 172.3423,-151.3779"/>
<polygon fill="#191970" stroke="#191970" points="173.3436,-148.0202 162.7488,-148.0177 171.0296,-154.6267 173.3436,-148.0202"/>
</g>
<!-- Node12&#45;&gt;Node9 -->
<g id="edge29" class="edge">
<title>Node12&#45;&gt;Node9</title>
<path fill="none" stroke="#191970" d="M549.7881,-195.977C494.2027,-185.8617 404.101,-169.2572 326.5,-154 325.0323,-153.7114 323.5488,-153.4183 322.0536,-153.1215"/>
<polygon fill="#191970" stroke="#191970" points="322.5545,-149.6524 312.0619,-151.1208 321.18,-156.5162 322.5545,-149.6524"/>
</g>
<!-- Node12&#45;&gt;Node10 -->
<g id="edge25" class="edge">
<title>Node12&#45;&gt;Node10</title>
<path fill="none" stroke="#191970" d="M637.7179,-195.9776C680.6514,-184.0183 748.4064,-163.8724 755.5,-154 783.3153,-115.2885 752.1367,-57.3358 732.6968,-28.1606"/>
<polygon fill="#191970" stroke="#191970" points="735.454,-25.9941 726.8873,-19.7602 729.6967,-29.9758 735.454,-25.9941"/>
</g>
<!-- Node12&#45;&gt;Node11 -->
<g id="edge28" class="edge">
<title>Node12&#45;&gt;Node11</title>
<path fill="none" stroke="#191970" d="M549.3707,-195.9856C479.6935,-183.2561 365.5152,-161.4237 359.5,-154 333.0811,-121.3953 383.6568,-99.0998 431.7982,-85.9864"/>
<polygon fill="#191970" stroke="#191970" points="432.8948,-89.3175 441.6874,-83.4064 431.1278,-82.5442 432.8948,-89.3175"/>
</g>
<!-- Node13 -->
<g id="node14" class="node">
<title>Node13</title>
<g id="a_node14"><a xlink:title=" ">
<polygon fill="#ffffff" stroke="#bfbfbf" points="699,-129 699,-148 746,-148 746,-129 699,-129"/>
<text text-anchor="middle" x="722.5" y="-136" font-family="Helvetica,sans-Serif" font-size="10.00" fill="#000000">cmath</text>
</a>
</g>
</g>
<!-- Node12&#45;&gt;Node13 -->
<g id="edge17" class="edge">
<title>Node12&#45;&gt;Node13</title>
<path fill="none" stroke="#191970" d="M619.6931,-195.9005C639.7427,-184.7062 673.0988,-166.0823 696.3602,-153.0947"/>
<polygon fill="#191970" stroke="#191970" points="698.3138,-156.0126 705.3388,-148.0817 694.9013,-149.9007 698.3138,-156.0126"/>
</g>
<!-- Node14 -->
<g id="node15" class="node">
<title>Node14</title>
<g id="a_node15"><a xlink:title=" ">
<polygon fill="#ffffff" stroke="#bfbfbf" points="369,-129 369,-148 422,-148 422,-129 369,-129"/>
<text text-anchor="middle" x="395.5" y="-136" font-family="Helvetica,sans-Serif" font-size="10.00" fill="#000000">cstddef</text>
</a>
</g>
</g>
<!-- Node12&#45;&gt;Node14 -->
<g id="edge18" class="edge">
<title>Node12&#45;&gt;Node14</title>
<path fill="none" stroke="#191970" d="M566.4108,-195.9218C531.5314,-186.3629 477.3793,-170.7238 431.5,-154 429.6779,-153.3358 427.8154,-152.6274 425.9439,-151.8929"/>
<polygon fill="#191970" stroke="#191970" points="427.2392,-148.6412 416.6589,-148.086 424.5837,-155.118 427.2392,-148.6412"/>
</g>
<!-- Node15 -->
<g id="node16" class="node">
<title>Node15</title>
<g id="a_node16"><a xlink:title=" ">
<polygon fill="#ffffff" stroke="#bfbfbf" points="440.5,-129 440.5,-148 500.5,-148 500.5,-129 440.5,-129"/>
<text text-anchor="middle" x="470.5" y="-136" font-family="Helvetica,sans-Serif" font-size="10.00" fill="#000000">iostream</text>
</a>
</g>
</g>
<!-- Node12&#45;&gt;Node15 -->
<g id="edge20" class="edge">
<title>Node12&#45;&gt;Node15</title>
<path fill="none" stroke="#191970" d="M583.5876,-195.9005C561.337,-184.6067 524.1878,-165.7506 498.5741,-152.7497"/>
<polygon fill="#191970" stroke="#191970" points="499.8785,-149.4868 489.3773,-148.0817 496.7102,-155.7288 499.8785,-149.4868"/>
</g>
<!-- Node16 -->
<g id="node17" class="node">
<title>Node16</title>
<g id="a_node17"><a xlink:title=" ">
<polygon fill="#ffffff" stroke="#bfbfbf" points="518.5,-129 518.5,-148 556.5,-148 556.5,-129 518.5,-129"/>
<text text-anchor="middle" x="537.5" y="-136" font-family="Helvetica,sans-Serif" font-size="10.00" fill="#000000">map</text>
</a>
</g>
</g>
<!-- Node12&#45;&gt;Node16 -->
<g id="edge21" class="edge">
<title>Node12&#45;&gt;Node16</title>
<path fill="none" stroke="#191970" d="M593.1871,-195.9005C582.9544,-185.353 566.3228,-168.2096 553.8954,-155.3998"/>
<polygon fill="#191970" stroke="#191970" points="556.2709,-152.822 546.7956,-148.0817 551.2467,-157.6962 556.2709,-152.822"/>
</g>
<!-- Node17 -->
<g id="node18" class="node">
<title>Node17</title>
<g id="a_node18"><a xlink:title=" ">
<polygon fill="#ffffff" stroke="#bfbfbf" points="574.5,-129 574.5,-148 630.5,-148 630.5,-129 574.5,-129"/>
<text text-anchor="middle" x="602.5" y="-136" font-family="Helvetica,sans-Serif" font-size="10.00" fill="#000000">optional</text>
</a>
</g>
</g>
<!-- Node12&#45;&gt;Node17 -->
<g id="edge22" class="edge">
<title>Node12&#45;&gt;Node17</title>
<path fill="none" stroke="#191970" d="M602.5,-195.9005C602.5,-186.149 602.5,-170.7597 602.5,-158.3695"/>
<polygon fill="#191970" stroke="#191970" points="606.0001,-158.0816 602.5,-148.0817 599.0001,-158.0817 606.0001,-158.0816"/>
</g>
<!-- Node18 -->
<g id="node19" class="node">
<title>Node18</title>
<g id="a_node19"><a xlink:title=" ">
<polygon fill="#ffffff" stroke="#bfbfbf" points="648.5,-129 648.5,-148 680.5,-148 680.5,-129 648.5,-129"/>
<text text-anchor="middle" x="664.5" y="-136" font-family="Helvetica,sans-Serif" font-size="10.00" fill="#000000">set</text>
</a>
</g>
</g>
<!-- Node12&#45;&gt;Node18 -->
<g id="edge23" class="edge">
<title>Node12&#45;&gt;Node18</title>
<path fill="none" stroke="#191970" d="M611.3831,-195.9005C621.0514,-185.4525 636.7088,-168.5325 648.5248,-155.7635"/>
<polygon fill="#191970" stroke="#191970" points="651.4103,-157.7985 655.6334,-148.0817 646.2726,-153.0441 651.4103,-157.7985"/>
</g>
<!-- Node19 -->
<g id="node20" class="node">
<title>Node19</title>
<g id="a_node20"><a xlink:title=" ">
<polygon fill="#ffffff" stroke="#bfbfbf" points="968,-62 968,-81 1013,-81 1013,-62 968,-62"/>
<text text-anchor="middle" x="990.5" y="-69" font-family="Helvetica,sans-Serif" font-size="10.00" fill="#000000">utility</text>
</a>
</g>
</g>
<!-- Node12&#45;&gt;Node19 -->
<g id="edge26" class="edge">
<title>Node12&#45;&gt;Node19</title>
<path fill="none" stroke="#191970" d="M665.2052,-200.611C764.5778,-192.2966 949.3201,-174.3156 971.5,-154 988.7243,-138.2235 991.8856,-110.2421 991.8063,-91.2884"/>
<polygon fill="#191970" stroke="#191970" points="995.2971,-90.9599 991.4511,-81.0878 988.3013,-91.2036 995.2971,-90.9599"/>
</g>
<!-- Node20 -->
<g id="node21" class="node">
<title>Node20</title>
<g id="a_node21"><a xlink:title=" ">
<polygon fill="#ffffff" stroke="#bfbfbf" points="1019,-129 1019,-148 1066,-148 1066,-129 1019,-129"/>
<text text-anchor="middle" x="1042.5" y="-136" font-family="Helvetica,sans-Serif" font-size="10.00" fill="#000000">vector</text>
</a>
</g>
</g>
<!-- Node12&#45;&gt;Node20 -->
<g id="edge27" class="edge">
<title>Node12&#45;&gt;Node20</title>
<path fill="none" stroke="#191970" d="M665.0947,-202.5186C744.993,-197.5725 886.9526,-184.9374 1004.5,-154 1007.1226,-153.3098 1009.8054,-152.4821 1012.4725,-151.5732"/>
<polygon fill="#191970" stroke="#191970" points="1013.794,-154.8157 1021.9272,-148.0258 1011.335,-148.2618 1013.794,-154.8157"/>
</g>
<!-- Node21&#45;&gt;Node3 -->
<g id="edge34" class="edge">
<title>Node21&#45;&gt;Node3</title>
<path fill="none" stroke="#191970" d="M840.8081,-131.6202C814.5895,-128.7612 783.5524,-125.5278 755.5,-123 527.8248,-102.4843 257.6473,-84.1992 131.72,-76.0271"/>
<polygon fill="#191970" stroke="#191970" points="131.651,-72.5154 121.4458,-75.362 131.1988,-79.5008 131.651,-72.5154"/>
</g>
<!-- Node21&#45;&gt;Node10 -->
<g id="edge32" class="edge">
<title>Node21&#45;&gt;Node10</title>
<path fill="none" stroke="#191970" d="M902.34,-123.2734C902.4883,-104.8956 899.834,-74.1994 882.5,-56 866.2603,-38.9495 806.5411,-25.2288 764.1026,-17.3451"/>
<polygon fill="#191970" stroke="#191970" points="764.724,-13.9007 754.2603,-15.5628 763.4766,-20.7887 764.724,-13.9007"/>
</g>
<!-- Node21&#45;&gt;Node19 -->
<g id="edge33" class="edge">
<title>Node21&#45;&gt;Node19</title>
<path fill="none" stroke="#191970" d="M921.6955,-123.2967C935.966,-112.5537 955.0468,-98.1895 969.4948,-87.3129"/>
<polygon fill="#191970" stroke="#191970" points="971.9234,-89.8656 977.8076,-81.055 967.7133,-84.2731 971.9234,-89.8656"/>
</g>
<!-- Node22 -->
<g id="node23" class="node">
<title>Node22</title>
<g id="a_node23"><a xlink:title=" ">
<polygon fill="#ffffff" stroke="#bfbfbf" points="836,-62 836,-81 873,-81 873,-62 836,-62"/>
<text text-anchor="middle" x="854.5" y="-69" font-family="Helvetica,sans-Serif" font-size="10.00" fill="#000000">new</text>
</a>
</g>
</g>
<!-- Node21&#45;&gt;Node22 -->
<g id="edge31" class="edge">
<title>Node21&#45;&gt;Node22</title>
<path fill="none" stroke="#191970" d="M890.835,-123.2967C883.7965,-113.2631 874.5423,-100.0709 867.1348,-89.5113"/>
<polygon fill="#191970" stroke="#191970" points="869.8109,-87.2316 861.2027,-81.055 864.0803,-91.2516 869.8109,-87.2316"/>
</g>
<!-- Node24 -->
<g id="node25" class="node">
<title>Node24</title>
<g id="a_node25"><a xlink:href="type__safe__index_8h.html" target="_top" xlink:title=" ">
<polygon fill="#ffffff" stroke="#000000" points="637,-257.5 637,-287.5 778,-287.5 778,-257.5 637,-257.5"/>
<text text-anchor="start" x="645" y="-275.5" font-family="Helvetica,sans-Serif" font-size="10.00" fill="#000000">drake/common/type_safe</text>
<text text-anchor="middle" x="707.5" y="-264.5" font-family="Helvetica,sans-Serif" font-size="10.00" fill="#000000">_index.h</text>
</a>
</g>
</g>
<!-- Node23&#45;&gt;Node24 -->
<g id="edge36" class="edge">
<title>Node23&#45;&gt;Node24</title>
<path fill="none" stroke="#191970" d="M630.1915,-324.2967C643.8722,-315.1306 661.4874,-303.3285 676.447,-293.3055"/>
<polygon fill="#191970" stroke="#191970" points="678.5387,-296.1171 684.8983,-287.6432 674.6424,-290.3017 678.5387,-296.1171"/>
</g>
<!-- Node24&#45;&gt;Node1 -->
<g id="edge39" class="edge">
<title>Node24&#45;&gt;Node1</title>
<path fill="none" stroke="#191970" d="M778.0736,-268.3213C910.1213,-260.0848 1184.7544,-240.8253 1223.5,-221 1251.5924,-206.6258 1273.7976,-176.5086 1286.0345,-156.9135"/>
<polygon fill="#191970" stroke="#191970" points="1289.0853,-158.6314 1291.223,-148.2544 1283.0807,-155.0334 1289.0853,-158.6314"/>
</g>
<!-- Node24&#45;&gt;Node8 -->
<g id="edge37" class="edge">
<title>Node24&#45;&gt;Node8</title>
<path fill="none" stroke="#191970" d="M636.8774,-261.6226C580.0023,-252.3567 498.1686,-237.8816 427.5,-221 380.1736,-209.6945 369.4142,-202.9097 322.5,-190 260.1409,-172.8402 243.1781,-173.4658 181.5,-154 179.0871,-153.2385 176.6093,-152.4133 174.1242,-151.5538"/>
<polygon fill="#191970" stroke="#191970" points="175.2194,-148.2282 164.625,-148.1312 172.8465,-154.8138 175.2194,-148.2282"/>
</g>
<!-- Node24&#45;&gt;Node9 -->
<g id="edge41" class="edge">
<title>Node24&#45;&gt;Node9</title>
<path fill="none" stroke="#191970" d="M655.8945,-257.4271C620.8121,-247.1734 573.3497,-233.2882 531.5,-221 455.9286,-198.8101 368.9156,-173.1559 312.2072,-156.4225"/>
<polygon fill="#191970" stroke="#191970" points="312.9112,-152.9811 302.3295,-153.5075 310.9299,-159.6948 312.9112,-152.9811"/>
</g>
<!-- Node24&#45;&gt;Node11 -->
<g id="edge40" class="edge">
<title>Node24&#45;&gt;Node11</title>
<path fill="none" stroke="#191970" d="M720.8377,-257.1967C744.6007,-228.0255 788.7855,-163.7436 755.5,-123 732.8417,-95.2648 639.893,-82.0884 573.2337,-76.102"/>
<polygon fill="#191970" stroke="#191970" points="573.4526,-72.608 563.1888,-75.236 572.8512,-79.5821 573.4526,-72.608"/>
</g>
<!-- Node24&#45;&gt;Node12 -->
<g id="edge42" class="edge">
<title>Node24&#45;&gt;Node12</title>
<path fill="none" stroke="#191970" d="M683.936,-257.4639C666.7944,-246.526 643.6679,-231.769 626.4398,-220.7759"/>
<polygon fill="#191970" stroke="#191970" points="627.8636,-217.5326 617.5509,-215.1039 624.0982,-223.4336 627.8636,-217.5326"/>
</g>
<!-- Node25 -->
<g id="node26" class="node">
<title>Node25</title>
<g id="a_node26"><a xlink:title=" ">
<polygon fill="#ffffff" stroke="#bfbfbf" points="1170.5,-196 1170.5,-215 1214.5,-215 1214.5,-196 1170.5,-196"/>
<text text-anchor="middle" x="1192.5" y="-203" font-family="Helvetica,sans-Serif" font-size="10.00" fill="#000000">limits</text>
</a>
</g>
</g>
<!-- Node24&#45;&gt;Node25 -->
<g id="edge38" class="edge">
<title>Node24&#45;&gt;Node25</title>
<path fill="none" stroke="#191970" d="M778.4,-266.9075C886.4041,-257.9582 1086.9373,-239.5337 1156.5,-221 1158.8301,-220.3792 1161.205,-219.6332 1163.5675,-218.8087"/>
<polygon fill="#191970" stroke="#191970" points="1165.0251,-221.9969 1173.0642,-215.0958 1162.4762,-215.4774 1165.0251,-221.9969"/>
</g>
<!-- Node26 -->
<g id="node27" class="node">
<title>Node26</title>
<g id="a_node27"><a xlink:href="nice__type__name_8h.html" target="_top" xlink:title=" ">
<polygon fill="#ffffff" stroke="#000000" points="974.5,-190.5 974.5,-220.5 1114.5,-220.5 1114.5,-190.5 974.5,-190.5"/>
<text text-anchor="start" x="982.5" y="-208.5" font-family="Helvetica,sans-Serif" font-size="10.00" fill="#000000">drake/common/nice_type</text>
<text text-anchor="middle" x="1044.5" y="-197.5" font-family="Helvetica,sans-Serif" font-size="10.00" fill="#000000">_name.h</text>
</a>
</g>
</g>
<!-- Node24&#45;&gt;Node26 -->
<g id="edge43" class="edge">
<title>Node24&#45;&gt;Node26</title>
<path fill="none" stroke="#191970" d="M778.1462,-258.4546C832.4954,-247.6493 907.6299,-232.7116 964.2467,-221.4554"/>
<polygon fill="#191970" stroke="#191970" points="965.1104,-224.8523 974.236,-219.4694 963.7454,-217.9866 965.1104,-224.8523"/>
</g>
<!-- Node26&#45;&gt;Node1 -->
<g id="edge45" class="edge">
<title>Node26&#45;&gt;Node1</title>
<path fill="none" stroke="#191970" d="M1114.6705,-191.0194C1168.4978,-179.5617 1238.0776,-163.895 1265.5,-154 1266.915,-153.4894 1268.3493,-152.9307 1269.7856,-152.3382"/>
<polygon fill="#191970" stroke="#191970" points="1271.4625,-155.4203 1279.1105,-148.0883 1268.5595,-149.0507 1271.4625,-155.4203"/>
</g>
<!-- Node26&#45;&gt;Node19 -->
<g id="edge47" class="edge">
<title>Node26&#45;&gt;Node19</title>
<path fill="none" stroke="#191970" d="M1057.9228,-190.2848C1071.2309,-173.2485 1087.9664,-145.1293 1075.5,-123 1064.2498,-103.0297 1041.7868,-89.9175 1022.7776,-81.9234"/>
<polygon fill="#191970" stroke="#191970" points="1023.8178,-78.5724 1013.2295,-78.2004 1021.2748,-85.0942 1023.8178,-78.5724"/>
</g>
<!-- Node26&#45;&gt;Node20 -->
<g id="edge48" class="edge">
<title>Node26&#45;&gt;Node20</title>
<path fill="none" stroke="#191970" d="M1044.0462,-190.2967C1043.7618,-180.7699 1043.3924,-168.3954 1043.086,-158.1306"/>
<polygon fill="#191970" stroke="#191970" points="1046.5821,-157.9461 1042.7852,-148.055 1039.5853,-158.155 1046.5821,-157.9461"/>
</g>
<!-- Node26&#45;&gt;Node21 -->
<g id="edge49" class="edge">
<title>Node26&#45;&gt;Node21</title>
<path fill="none" stroke="#191970" d="M1012.408,-190.4639C991.945,-180.8763 965.2194,-168.3545 943.1306,-158.0052"/>
<polygon fill="#191970" stroke="#191970" points="944.52,-154.7911 933.9796,-153.7177 941.55,-161.1299 944.52,-154.7911"/>
</g>
<!-- Node27 -->
<g id="node28" class="node">
<title>Node27</title>
<g id="a_node28"><a xlink:title=" ">
<polygon fill="#ffffff" stroke="#bfbfbf" points="1198.5,-129 1198.5,-148 1256.5,-148 1256.5,-129 1198.5,-129"/>
<text text-anchor="middle" x="1227.5" y="-136" font-family="Helvetica,sans-Serif" font-size="10.00" fill="#000000">memory</text>
</a>
</g>
</g>
<!-- Node26&#45;&gt;Node27 -->
<g id="edge44" class="edge">
<title>Node26&#45;&gt;Node27</title>
<path fill="none" stroke="#191970" d="M1088.4741,-190.4718C1117.3219,-180.468 1155.8023,-166.849 1189.5,-154 1191.3474,-153.2956 1193.2408,-152.5617 1195.1486,-151.8131"/>
<polygon fill="#191970" stroke="#191970" points="1196.6709,-154.974 1204.6599,-148.015 1194.0749,-148.4732 1196.6709,-154.974"/>
</g>
<!-- Node28 -->
<g id="node29" class="node">
<title>Node28</title>
<g id="a_node29"><a xlink:title=" ">
<polygon fill="#ffffff" stroke="#bfbfbf" points="1123,-129 1123,-148 1180,-148 1180,-129 1123,-129"/>
<text text-anchor="middle" x="1151.5" y="-136" font-family="Helvetica,sans-Serif" font-size="10.00" fill="#000000">typeinfo</text>
</a>
</g>
</g>
<!-- Node26&#45;&gt;Node28 -->
<g id="edge46" class="edge">
<title>Node26&#45;&gt;Node28</title>
<path fill="none" stroke="#191970" d="M1068.5129,-190.4639C1086.1426,-179.4247 1109.9849,-164.4954 1127.5903,-153.4715"/>
<polygon fill="#191970" stroke="#191970" points="1129.5444,-156.3775 1136.1624,-148.1039 1125.8293,-150.4446 1129.5444,-156.3775"/>
</g>
</g>
</svg>
        <g id="navigator" transform="translate(0 0)" fill="#404254">
                <rect fill="#f2f5e9" fill-opacity="0.5" stroke="#606060" stroke-width=".5" x="0" y="0" width="60" height="60"/>
                <use id="zoomplus" xlink:href="#zoomPlus" x="17" y="9" onmousedown="handleZoom(evt,'in')"/>
                <use id="zoomminus" xlink:href="#zoomMin" x="42" y="9" onmousedown="handleZoom(evt,'out')"/>
                <use id="reset" xlink:href="#resetDef" x="30" y="36" onmousedown="handleReset()"/>
                <g id="arrowUp" xlink:href="#dirArrow" transform="translate(30 24)" onmousedown="handlePan(0,-1)">
                  <use xlink:href="#rim" fill="#404040">
                        <set attributeName="fill" to="#808080" begin="arrowUp.mouseover" end="arrowUp.mouseout"/>
                  </use>
                  <path fill="none" stroke="white" stroke-width="1.5" d="M0,-3.0v7 M-2.5,-0.5L0,-3.0L2.5,-0.5"/>
                </g>
                <g id="arrowRight" xlink:href="#dirArrow" transform="rotate(90) translate(36 -43)" onmousedown="handlePan(1,0)">
                  <use xlink:href="#rim" fill="#404040">
                        <set attributeName="fill" to="#808080" begin="arrowRight.mouseover" end="arrowRight.mouseout"/>
                  </use>
                  <path fill="none" stroke="white" stroke-width="1.5" d="M0,-3.0v7 M-2.5,-0.5L0,-3.0L2.5,-0.5"/>
                </g>
                <g id="arrowDown" xlink:href="#dirArrow" transform="rotate(180) translate(-30 -48)" onmousedown="handlePan(0,1)">
                  <use xlink:href="#rim" fill="#404040">
                        <set attributeName="fill" to="#808080" begin="arrowDown.mouseover" end="arrowDown.mouseout"/>
                  </use>
                  <path fill="none" stroke="white" stroke-width="1.5" d="M0,-3.0v7 M-2.5,-0.5L0,-3.0L2.5,-0.5"/>
                </g>
                <g id="arrowLeft" xlink:href="#dirArrow" transform="rotate(270) translate(-36 17)" onmousedown="handlePan(-1,0)">
                  <use xlink:href="#rim" fill="#404040">
                        <set attributeName="fill" to="#808080" begin="arrowLeft.mouseover" end="arrowLeft.mouseout"/>
                  </use>
                  <path fill="none" stroke="white" stroke-width="1.5" d="M0,-3.0v7 M-2.5,-0.5L0,-3.0L2.5,-0.5"/>
                </g>
        </g>
        <svg viewBox="0 0 15 15" width="100%" height="30px" preserveAspectRatio="xMaxYMin meet">
         <g id="arrow_out" transform="scale(0.3 0.3)">
          <a xlink:href="internal__frame_8h__incl_org.svg" target="_base">
           <rect id="button" ry="5" rx="5" y="6" x="6" height="38" width="38"
                fill="#f2f5e9" fill-opacity="0.5" stroke="#606060" stroke-width="1.0"/>
           <path id="arrow"
             d="M 11.500037,31.436501 C 11.940474,20.09759 22.043105,11.32322 32.158766,21.979434 L 37.068811,17.246167 C 37.068811,17.246167 37.088388,32 37.088388,32 L 22.160133,31.978069 C 22.160133,31.978069 26.997745,27.140456 26.997745,27.140456 C 18.528582,18.264221 13.291696,25.230495 11.500037,31.436501 z"
             style="fill:#404040;"/>
          </a>
         </g>
        </svg>
</svg>
