<?xml version="1.0" encoding="UTF-8" standalone="no"?>
<!DOCTYPE svg PUBLIC "-//W3C//DTD SVG 1.1//EN"
 "http://www.w3.org/Graphics/SVG/1.1/DTD/svg11.dtd">
<!-- Generated by graphviz version 2.40.1 (20161225.0304)
 -->
<!-- Title: drake/systems/analysis/integrator_base.h Pages: 1 -->
<svg width="1843pt" height="251pt"
 viewBox="0.00 0.00 1842.50 251.00" xmlns="http://www.w3.org/2000/svg" xmlns:xlink="http://www.w3.org/1999/xlink">
<g id="graph0" class="graph" transform="scale(1 1) rotate(0) translate(4 247)">
<title>drake/systems/analysis/integrator_base.h</title>
<polygon fill="#ffffff" stroke="transparent" points="-4,4 -4,-247 1838.5,-247 1838.5,4 -4,4"/>
<!-- Node115 -->
<g id="node1" class="node">
<title>Node115</title>
<g id="a_node1"><a xlink:title=" ">
<polygon fill="#bfbfbf" stroke="#000000" points="918.5,-212.5 918.5,-242.5 1050.5,-242.5 1050.5,-212.5 918.5,-212.5"/>
<text text-anchor="start" x="926.5" y="-230.5" font-family="Helvetica,sans-Serif" font-size="10.00" fill="#000000">drake/systems/analysis</text>
<text text-anchor="middle" x="984.5" y="-219.5" font-family="Helvetica,sans-Serif" font-size="10.00" fill="#000000">/integrator_base.h</text>
</a>
</g>
</g>
<!-- Node116 -->
<g id="node2" class="node">
<title>Node116</title>
<g id="a_node2"><a xlink:href="bogacki__shampine3__integrator_8h.html" target="_top" xlink:title=" ">
<polygon fill="#ffffff" stroke="#000000" points="0,-145.5 0,-175.5 179,-175.5 179,-145.5 0,-145.5"/>
<text text-anchor="start" x="8" y="-163.5" font-family="Helvetica,sans-Serif" font-size="10.00" fill="#000000">drake/systems/analysis</text>
<text text-anchor="middle" x="89.5" y="-152.5" font-family="Helvetica,sans-Serif" font-size="10.00" fill="#000000">/bogacki_shampine3_integrator.h</text>
</a>
</g>
</g>
<!-- Node115&#45;&gt;Node116 -->
<g id="edge1" class="edge">
<title>Node115&#45;&gt;Node116</title>
<path fill="none" stroke="#191970" d="M907.9359,-224.8576C765.8108,-219.4395 451.7016,-205.058 188.5,-176 185.3875,-175.6564 182.2232,-175.2844 179.0299,-174.8899"/>
<polygon fill="#191970" stroke="#191970" points="908.1545,-228.3682 918.2793,-225.2476 908.4184,-221.3732 908.1545,-228.3682"/>
</g>
<!-- Node118 -->
<g id="node4" class="node">
<title>Node118</title>
<g id="a_node4"><a xlink:href="explicit__euler__integrator_8h.html" target="_top" xlink:title=" ">
<polygon fill="#ffffff" stroke="#000000" points="511.5,-145.5 511.5,-175.5 659.5,-175.5 659.5,-145.5 511.5,-145.5"/>
<text text-anchor="start" x="519.5" y="-163.5" font-family="Helvetica,sans-Serif" font-size="10.00" fill="#000000">drake/systems/analysis</text>
<text text-anchor="middle" x="585.5" y="-152.5" font-family="Helvetica,sans-Serif" font-size="10.00" fill="#000000">/explicit_euler_integrator.h</text>
</a>
</g>
</g>
<!-- Node115&#45;&gt;Node118 -->
<g id="edge3" class="edge">
<title>Node115&#45;&gt;Node118</title>
<path fill="none" stroke="#191970" d="M908.4378,-215.6079C844.3786,-205.4717 750.3588,-190.3119 668.5,-176 665.612,-175.4951 662.6687,-174.9744 659.6964,-174.4436"/>
<polygon fill="#191970" stroke="#191970" points="908.0315,-219.0871 918.4553,-217.1907 909.1241,-212.1729 908.0315,-219.0871"/>
</g>
<!-- Node119 -->
<g id="node5" class="node">
<title>Node119</title>
<g id="a_node5"><a xlink:href="implicit__integrator_8h.html" target="_top" xlink:title=" ">
<polygon fill="#ffffff" stroke="#000000" points="361.5,-145.5 361.5,-175.5 493.5,-175.5 493.5,-145.5 361.5,-145.5"/>
<text text-anchor="start" x="369.5" y="-163.5" font-family="Helvetica,sans-Serif" font-size="10.00" fill="#000000">drake/systems/analysis</text>
<text text-anchor="middle" x="427.5" y="-152.5" font-family="Helvetica,sans-Serif" font-size="10.00" fill="#000000">/implicit_integrator.h</text>
</a>
</g>
</g>
<!-- Node115&#45;&gt;Node119 -->
<g id="edge4" class="edge">
<title>Node115&#45;&gt;Node119</title>
<path fill="none" stroke="#191970" d="M908.2337,-221.6597C812.9569,-213.8337 645.0969,-198.2988 502.5,-176 499.61,-175.5481 496.6628,-175.0593 493.6897,-174.5435"/>
<polygon fill="#191970" stroke="#191970" points="908.1035,-225.1606 918.3548,-222.4844 908.6721,-218.1837 908.1035,-225.1606"/>
</g>
<!-- Node123 -->
<g id="node9" class="node">
<title>Node123</title>
<g id="a_node9"><a xlink:href="initial__value__problem_8h.html" target="_top" xlink:title=" ">
<polygon fill="#ffffff" stroke="#000000" points="677.5,-145.5 677.5,-175.5 811.5,-175.5 811.5,-145.5 677.5,-145.5"/>
<text text-anchor="start" x="685.5" y="-163.5" font-family="Helvetica,sans-Serif" font-size="10.00" fill="#000000">drake/systems/analysis</text>
<text text-anchor="middle" x="744.5" y="-152.5" font-family="Helvetica,sans-Serif" font-size="10.00" fill="#000000">/initial_value_problem.h</text>
</a>
</g>
</g>
<!-- Node115&#45;&gt;Node123 -->
<g id="edge9" class="edge">
<title>Node115&#45;&gt;Node123</title>
<path fill="none" stroke="#191970" d="M920.6823,-209.6842C882.6138,-199.0568 834.8028,-185.7095 798.5956,-175.6017"/>
<polygon fill="#191970" stroke="#191970" points="920.0665,-213.1461 930.6393,-212.4639 921.9487,-206.4039 920.0665,-213.1461"/>
</g>
<!-- Node126 -->
<g id="node12" class="node">
<title>Node126</title>
<g id="a_node12"><a xlink:href="runge__kutta2__integrator_8h.html" target="_top" xlink:title=" ">
<polygon fill="#ffffff" stroke="#000000" points="197.5,-145.5 197.5,-175.5 343.5,-175.5 343.5,-145.5 197.5,-145.5"/>
<text text-anchor="start" x="205.5" y="-163.5" font-family="Helvetica,sans-Serif" font-size="10.00" fill="#000000">drake/systems/analysis</text>
<text text-anchor="middle" x="270.5" y="-152.5" font-family="Helvetica,sans-Serif" font-size="10.00" fill="#000000">/runge_kutta2_integrator.h</text>
</a>
</g>
</g>
<!-- Node115&#45;&gt;Node126 -->
<g id="edge12" class="edge">
<title>Node115&#45;&gt;Node126</title>
<path fill="none" stroke="#191970" d="M908.1814,-223.8857C789.1049,-217.6605 552.0608,-202.9154 352.5,-176 349.6284,-175.6127 346.7049,-175.1913 343.7553,-174.7435"/>
<polygon fill="#191970" stroke="#191970" points="908.1212,-227.3871 918.2886,-224.4084 908.4828,-220.3965 908.1212,-227.3871"/>
</g>
<!-- Node127 -->
<g id="node13" class="node">
<title>Node127</title>
<g id="a_node13"><a xlink:href="runge__kutta3__integrator_8h.html" target="_top" xlink:title=" ">
<polygon fill="#ffffff" stroke="#000000" points="829.5,-145.5 829.5,-175.5 975.5,-175.5 975.5,-145.5 829.5,-145.5"/>
<text text-anchor="start" x="837.5" y="-163.5" font-family="Helvetica,sans-Serif" font-size="10.00" fill="#000000">drake/systems/analysis</text>
<text text-anchor="middle" x="902.5" y="-152.5" font-family="Helvetica,sans-Serif" font-size="10.00" fill="#000000">/runge_kutta3_integrator.h</text>
</a>
</g>
</g>
<!-- Node115&#45;&gt;Node127 -->
<g id="edge15" class="edge">
<title>Node115&#45;&gt;Node127</title>
<path fill="none" stroke="#191970" d="M957.9183,-205.7808C945.8722,-195.9383 931.9233,-184.541 921.0334,-175.6432"/>
<polygon fill="#191970" stroke="#191970" points="955.9346,-208.6797 965.8929,-212.2967 960.3637,-203.2591 955.9346,-208.6797"/>
</g>
<!-- Node128 -->
<g id="node14" class="node">
<title>Node128</title>
<g id="a_node14"><a xlink:href="runge__kutta5__integrator_8h.html" target="_top" xlink:title=" ">
<polygon fill="#ffffff" stroke="#000000" points="993.5,-145.5 993.5,-175.5 1139.5,-175.5 1139.5,-145.5 993.5,-145.5"/>
<text text-anchor="start" x="1001.5" y="-163.5" font-family="Helvetica,sans-Serif" font-size="10.00" fill="#000000">drake/systems/analysis</text>
<text text-anchor="middle" x="1066.5" y="-152.5" font-family="Helvetica,sans-Serif" font-size="10.00" fill="#000000">/runge_kutta5_integrator.h</text>
</a>
</g>
</g>
<!-- Node115&#45;&gt;Node128 -->
<g id="edge16" class="edge">
<title>Node115&#45;&gt;Node128</title>
<path fill="none" stroke="#191970" d="M1011.0817,-205.7808C1023.1278,-195.9383 1037.0767,-184.541 1047.9666,-175.6432"/>
<polygon fill="#191970" stroke="#191970" points="1008.6363,-203.2591 1003.1071,-212.2967 1013.0654,-208.6797 1008.6363,-203.2591"/>
</g>
<!-- Node129 -->
<g id="node15" class="node">
<title>Node129</title>
<g id="a_node15"><a xlink:href="semi__explicit__euler__integrator_8h.html" target="_top" xlink:title=" ">
<polygon fill="#ffffff" stroke="#000000" points="1158,-145.5 1158,-175.5 1335,-175.5 1335,-145.5 1158,-145.5"/>
<text text-anchor="start" x="1166" y="-163.5" font-family="Helvetica,sans-Serif" font-size="10.00" fill="#000000">drake/systems/analysis</text>
<text text-anchor="middle" x="1246.5" y="-152.5" font-family="Helvetica,sans-Serif" font-size="10.00" fill="#000000">/semi_explicit_euler_integrator.h</text>
</a>
</g>
</g>
<!-- Node115&#45;&gt;Node129 -->
<g id="edge17" class="edge">
<title>Node115&#45;&gt;Node129</title>
<path fill="none" stroke="#191970" d="M1053.1089,-209.955C1094.8364,-199.2842 1147.5831,-185.7955 1187.4456,-175.6017"/>
<polygon fill="#191970" stroke="#191970" points="1052.119,-206.5954 1043.2979,-212.4639 1053.8533,-213.3772 1052.119,-206.5954"/>
</g>
<!-- Node130 -->
<g id="node16" class="node">
<title>Node130</title>
<g id="a_node16"><a xlink:href="simulator_8h.html" target="_top" xlink:title=" ">
<polygon fill="#ffffff" stroke="#000000" points="1390.5,-145.5 1390.5,-175.5 1522.5,-175.5 1522.5,-145.5 1390.5,-145.5"/>
<text text-anchor="start" x="1398.5" y="-163.5" font-family="Helvetica,sans-Serif" font-size="10.00" fill="#000000">drake/systems/analysis</text>
<text text-anchor="middle" x="1456.5" y="-152.5" font-family="Helvetica,sans-Serif" font-size="10.00" fill="#000000">/simulator.h</text>
</a>
</g>
</g>
<!-- Node115&#45;&gt;Node130 -->
<g id="edge18" class="edge">
<title>Node115&#45;&gt;Node130</title>
<path fill="none" stroke="#191970" d="M1060.9345,-218.8513C1140.0862,-209.569 1267.2423,-193.7445 1376.5,-176 1380.9685,-175.2743 1385.57,-174.4878 1390.2012,-173.6671"/>
<polygon fill="#191970" stroke="#191970" points="1060.096,-215.4253 1050.5695,-220.0616 1060.9079,-222.3781 1060.096,-215.4253"/>
</g>
<!-- Node132 -->
<g id="node18" class="node">
<title>Node132</title>
<g id="a_node18"><a xlink:href="simulator__flags_8h.html" target="_top" xlink:title=" ">
<polygon fill="#ffffff" stroke="#000000" points="1090.5,-73 1090.5,-103 1222.5,-103 1222.5,-73 1090.5,-73"/>
<text text-anchor="start" x="1098.5" y="-91" font-family="Helvetica,sans-Serif" font-size="10.00" fill="#000000">drake/systems/analysis</text>
<text text-anchor="middle" x="1156.5" y="-80" font-family="Helvetica,sans-Serif" font-size="10.00" fill="#000000">/simulator_flags.h</text>
</a>
</g>
</g>
<!-- Node115&#45;&gt;Node132 -->
<g id="edge24" class="edge">
<title>Node115&#45;&gt;Node132</title>
<path fill="none" stroke="#191970" d="M1060.6798,-221.867C1160.7995,-213.6774 1326.18,-197.1272 1344.5,-176 1353.5262,-165.5906 1352.7082,-156.0658 1344.5,-145 1342.3919,-142.158 1263.9692,-119.0349 1209.0887,-103.1277"/>
<polygon fill="#191970" stroke="#191970" points="1060.2896,-218.3871 1050.604,-222.6811 1060.8534,-225.3643 1060.2896,-218.3871"/>
</g>
<!-- Node133 -->
<g id="node19" class="node">
<title>Node133</title>
<g id="a_node19"><a xlink:href="simulator__gflags_8h.html" target="_top" xlink:title="This file defines gflags settings to control Simulator settings.">
<polygon fill="#ffffff" stroke="#000000" points="1702.5,-73 1702.5,-103 1834.5,-103 1834.5,-73 1702.5,-73"/>
<text text-anchor="start" x="1710.5" y="-91" font-family="Helvetica,sans-Serif" font-size="10.00" fill="#000000">drake/systems/analysis</text>
<text text-anchor="middle" x="1768.5" y="-80" font-family="Helvetica,sans-Serif" font-size="10.00" fill="#000000">/simulator_gflags.h</text>
</a>
</g>
</g>
<!-- Node115&#45;&gt;Node133 -->
<g id="edge25" class="edge">
<title>Node115&#45;&gt;Node133</title>
<path fill="none" stroke="#191970" d="M1060.8917,-225.7683C1190.677,-221.9239 1448.2565,-210.1286 1531.5,-176 1551.6668,-167.7319 1550.1836,-155.0964 1569.5,-145 1572.8392,-143.2546 1657.2495,-119.3218 1715.0496,-103.0287"/>
<polygon fill="#191970" stroke="#191970" points="1060.5298,-222.2772 1050.6346,-226.0634 1060.7312,-229.2743 1060.5298,-222.2772"/>
</g>
<!-- Node136 -->
<g id="node22" class="node">
<title>Node136</title>
<g id="a_node22"><a xlink:href="direct__transcription_8h.html" target="_top" xlink:title=" ">
<polygon fill="#ffffff" stroke="#000000" points="1578.5,-145.5 1578.5,-175.5 1768.5,-175.5 1768.5,-145.5 1578.5,-145.5"/>
<text text-anchor="start" x="1586.5" y="-163.5" font-family="Helvetica,sans-Serif" font-size="10.00" fill="#000000">drake/systems/trajectory</text>
<text text-anchor="middle" x="1673.5" y="-152.5" font-family="Helvetica,sans-Serif" font-size="10.00" fill="#000000">_optimization/direct_transcription.h</text>
</a>
</g>
</g>
<!-- Node115&#45;&gt;Node136 -->
<g id="edge26" class="edge">
<title>Node115&#45;&gt;Node136</title>
<path fill="none" stroke="#191970" d="M1060.8202,-222.0116C1171.8518,-213.7348 1384.34,-196.7934 1564.5,-176 1569.0571,-175.474 1573.7178,-174.9105 1578.4225,-174.3209"/>
<polygon fill="#191970" stroke="#191970" points="1060.4356,-218.5304 1050.7222,-222.7613 1060.9539,-225.5112 1060.4356,-218.5304"/>
</g>
<!-- Node117 -->
<g id="node3" class="node">
<title>Node117</title>
<g id="a_node3"><a xlink:href="radau__integrator_8h.html" target="_top" xlink:title=" ">
<polygon fill="#ffffff" stroke="#000000" points="45.5,-73 45.5,-103 177.5,-103 177.5,-73 45.5,-73"/>
<text text-anchor="start" x="53.5" y="-91" font-family="Helvetica,sans-Serif" font-size="10.00" fill="#000000">drake/systems/analysis</text>
<text text-anchor="middle" x="111.5" y="-80" font-family="Helvetica,sans-Serif" font-size="10.00" fill="#000000">/radau_integrator.h</text>
</a>
</g>
</g>
<!-- Node116&#45;&gt;Node117 -->
<g id="edge2" class="edge">
<title>Node116&#45;&gt;Node117</title>
<path fill="none" stroke="#191970" d="M97.0324,-135.6774C100.3285,-124.8151 104.0873,-112.4281 106.9474,-103.0028"/>
<polygon fill="#191970" stroke="#191970" points="93.613,-134.8925 94.0584,-145.478 100.3114,-136.9251 93.613,-134.8925"/>
</g>
<!-- Node119&#45;&gt;Node117 -->
<g id="edge6" class="edge">
<title>Node119&#45;&gt;Node117</title>
<path fill="none" stroke="#191970" d="M351.1376,-144.4317C286.7276,-130.8369 202.5189,-112.9501 186.5,-109 179.1481,-107.1871 171.4238,-105.1624 163.8418,-103.1055"/>
<polygon fill="#191970" stroke="#191970" points="350.7844,-147.9341 361.2916,-146.5739 352.2295,-141.0849 350.7844,-147.9341"/>
</g>
<!-- Node120 -->
<g id="node6" class="node">
<title>Node120</title>
<g id="a_node6"><a xlink:href="implicit__euler__integrator_8h.html" target="_top" xlink:title=" ">
<polygon fill="#ffffff" stroke="#000000" points="196,-73 196,-103 345,-103 345,-73 196,-73"/>
<text text-anchor="start" x="204" y="-91" font-family="Helvetica,sans-Serif" font-size="10.00" fill="#000000">drake/systems/analysis</text>
<text text-anchor="middle" x="270.5" y="-80" font-family="Helvetica,sans-Serif" font-size="10.00" fill="#000000">/implicit_euler_integrator.h</text>
</a>
</g>
</g>
<!-- Node119&#45;&gt;Node120 -->
<g id="edge5" class="edge">
<title>Node119&#45;&gt;Node120</title>
<path fill="none" stroke="#191970" d="M385.7569,-141.2237C359.8232,-129.248 326.9765,-114.0799 302.9888,-103.0028"/>
<polygon fill="#191970" stroke="#191970" points="384.4234,-144.463 394.9695,-145.478 387.3581,-138.1079 384.4234,-144.463"/>
</g>
<!-- Node121 -->
<g id="node7" class="node">
<title>Node121</title>
<g id="a_node7"><a xlink:href="implicit__integrator__test_8h.html" target="_top" xlink:title=" ">
<polygon fill="#ffffff" stroke="#000000" points="363.5,-67.5 363.5,-108.5 495.5,-108.5 495.5,-67.5 363.5,-67.5"/>
<text text-anchor="start" x="371.5" y="-96.5" font-family="Helvetica,sans-Serif" font-size="10.00" fill="#000000">drake/systems/analysis</text>
<text text-anchor="start" x="371.5" y="-85.5" font-family="Helvetica,sans-Serif" font-size="10.00" fill="#000000">/test_utilities/implicit</text>
<text text-anchor="middle" x="429.5" y="-74.5" font-family="Helvetica,sans-Serif" font-size="10.00" fill="#000000">_integrator_test.h</text>
</a>
</g>
</g>
<!-- Node119&#45;&gt;Node121 -->
<g id="edge7" class="edge">
<title>Node119&#45;&gt;Node121</title>
<path fill="none" stroke="#191970" d="M428.1924,-135.4016C428.4347,-126.6173 428.7037,-116.8652 428.9344,-108.5015"/>
<polygon fill="#191970" stroke="#191970" points="424.6916,-135.3852 427.9144,-145.478 431.6889,-135.5783 424.6916,-135.3852"/>
</g>
<!-- Node122 -->
<g id="node8" class="node">
<title>Node122</title>
<g id="a_node8"><a xlink:href="velocity__implicit__euler__integrator_8h.html" target="_top" xlink:title=" ">
<polygon fill="#ffffff" stroke="#000000" points="513.5,-67.5 513.5,-108.5 645.5,-108.5 645.5,-67.5 513.5,-67.5"/>
<text text-anchor="start" x="521.5" y="-96.5" font-family="Helvetica,sans-Serif" font-size="10.00" fill="#000000">drake/systems/analysis</text>
<text text-anchor="start" x="521.5" y="-85.5" font-family="Helvetica,sans-Serif" font-size="10.00" fill="#000000">/velocity_implicit_euler</text>
<text text-anchor="middle" x="579.5" y="-74.5" font-family="Helvetica,sans-Serif" font-size="10.00" fill="#000000">_integrator.h</text>
</a>
</g>
</g>
<!-- Node119&#45;&gt;Node122 -->
<g id="edge8" class="edge">
<title>Node119&#45;&gt;Node122</title>
<path fill="none" stroke="#191970" d="M468.0393,-141.1638C489.1772,-131.0816 515.0324,-118.7494 536.5175,-108.5015"/>
<polygon fill="#191970" stroke="#191970" points="466.5136,-138.0137 458.9945,-145.478 469.5272,-144.3319 466.5136,-138.0137"/>
</g>
<!-- Node124 -->
<g id="node10" class="node">
<title>Node124</title>
<g id="a_node10"><a xlink:href="scalar__initial__value__problem_8h.html" target="_top" xlink:title=" ">
<polygon fill="#ffffff" stroke="#000000" points="678.5,-67.5 678.5,-108.5 810.5,-108.5 810.5,-67.5 678.5,-67.5"/>
<text text-anchor="start" x="686.5" y="-96.5" font-family="Helvetica,sans-Serif" font-size="10.00" fill="#000000">drake/systems/analysis</text>
<text text-anchor="start" x="686.5" y="-85.5" font-family="Helvetica,sans-Serif" font-size="10.00" fill="#000000">/scalar_initial_value</text>
<text text-anchor="middle" x="744.5" y="-74.5" font-family="Helvetica,sans-Serif" font-size="10.00" fill="#000000">_problem.h</text>
</a>
</g>
</g>
<!-- Node123&#45;&gt;Node124 -->
<g id="edge10" class="edge">
<title>Node123&#45;&gt;Node124</title>
<path fill="none" stroke="#191970" d="M744.5,-135.4016C744.5,-126.6173 744.5,-116.8652 744.5,-108.5015"/>
<polygon fill="#191970" stroke="#191970" points="741.0001,-135.4779 744.5,-145.478 748.0001,-135.478 741.0001,-135.4779"/>
</g>
<!-- Node125 -->
<g id="node11" class="node">
<title>Node125</title>
<g id="a_node11"><a xlink:href="antiderivative__function_8h.html" target="_top" xlink:title=" ">
<polygon fill="#ffffff" stroke="#000000" points="673.5,-.5 673.5,-30.5 815.5,-30.5 815.5,-.5 673.5,-.5"/>
<text text-anchor="start" x="681.5" y="-18.5" font-family="Helvetica,sans-Serif" font-size="10.00" fill="#000000">drake/systems/analysis</text>
<text text-anchor="middle" x="744.5" y="-7.5" font-family="Helvetica,sans-Serif" font-size="10.00" fill="#000000">/antiderivative_function.h</text>
</a>
</g>
</g>
<!-- Node124&#45;&gt;Node125 -->
<g id="edge11" class="edge">
<title>Node124&#45;&gt;Node125</title>
<path fill="none" stroke="#191970" d="M744.5,-57.3279C744.5,-48.0871 744.5,-38.3508 744.5,-30.5991"/>
<polygon fill="#191970" stroke="#191970" points="741.0001,-57.4183 744.5,-67.4183 748.0001,-57.4184 741.0001,-57.4183"/>
</g>
<!-- Node126&#45;&gt;Node117 -->
<g id="edge14" class="edge">
<title>Node126&#45;&gt;Node117</title>
<path fill="none" stroke="#191970" d="M228.2252,-141.2237C201.9611,-129.248 168.696,-114.0799 144.4027,-103.0028"/>
<polygon fill="#191970" stroke="#191970" points="227.0042,-144.5137 237.5551,-145.478 229.9084,-138.1445 227.0042,-144.5137"/>
</g>
<!-- Node126&#45;&gt;Node120 -->
<g id="edge13" class="edge">
<title>Node126&#45;&gt;Node120</title>
<path fill="none" stroke="#191970" d="M270.5,-135.3409C270.5,-124.5601 270.5,-112.3309 270.5,-103.0028"/>
<polygon fill="#191970" stroke="#191970" points="267.0001,-135.4779 270.5,-145.478 274.0001,-135.478 267.0001,-135.4779"/>
</g>
<!-- Node131 -->
<g id="node17" class="node">
<title>Node131</title>
<g id="a_node17"><a xlink:href="monte__carlo_8h.html" target="_top" xlink:title=" ">
<polygon fill="#ffffff" stroke="#000000" points="1240.5,-73 1240.5,-103 1372.5,-103 1372.5,-73 1240.5,-73"/>
<text text-anchor="start" x="1248.5" y="-91" font-family="Helvetica,sans-Serif" font-size="10.00" fill="#000000">drake/systems/analysis</text>
<text text-anchor="middle" x="1306.5" y="-80" font-family="Helvetica,sans-Serif" font-size="10.00" fill="#000000">/monte_carlo.h</text>
</a>
</g>
</g>
<!-- Node130&#45;&gt;Node131 -->
<g id="edge19" class="edge">
<title>Node130&#45;&gt;Node131</title>
<path fill="none" stroke="#191970" d="M1416.2917,-141.066C1391.5655,-129.115 1360.358,-114.0313 1337.5403,-103.0028"/>
<polygon fill="#191970" stroke="#191970" points="1414.8933,-144.2774 1425.4199,-145.478 1417.9395,-137.975 1414.8933,-144.2774"/>
</g>
<!-- Node130&#45;&gt;Node132 -->
<g id="edge20" class="edge">
<title>Node130&#45;&gt;Node132</title>
<path fill="none" stroke="#191970" d="M1380.3566,-144.0252C1336.67,-134.3348 1280.8613,-121.552 1231.5,-109 1224.1614,-107.1339 1216.4446,-105.0793 1208.8662,-103.008"/>
<polygon fill="#191970" stroke="#191970" points="1379.8162,-147.4902 1390.3361,-146.2319 1381.3276,-140.6553 1379.8162,-147.4902"/>
</g>
<!-- Node130&#45;&gt;Node133 -->
<g id="edge21" class="edge">
<title>Node130&#45;&gt;Node133</title>
<path fill="none" stroke="#191970" d="M1532.6573,-145.1436C1579.2599,-135.4513 1640.0108,-122.2878 1693.5,-109 1700.8487,-107.1744 1708.5713,-105.1427 1716.1524,-103.0823"/>
<polygon fill="#191970" stroke="#191970" points="1531.7179,-141.7639 1522.6359,-147.2198 1533.138,-148.6183 1531.7179,-141.7639"/>
</g>
<!-- Node134 -->
<g id="node20" class="node">
<title>Node134</title>
<g id="a_node20"><a xlink:href="simulator__print__stats_8h.html" target="_top" xlink:title=" ">
<polygon fill="#ffffff" stroke="#000000" points="1390.5,-73 1390.5,-103 1522.5,-103 1522.5,-73 1390.5,-73"/>
<text text-anchor="start" x="1398.5" y="-91" font-family="Helvetica,sans-Serif" font-size="10.00" fill="#000000">drake/systems/analysis</text>
<text text-anchor="middle" x="1456.5" y="-80" font-family="Helvetica,sans-Serif" font-size="10.00" fill="#000000">/simulator_print_stats.h</text>
</a>
</g>
</g>
<!-- Node130&#45;&gt;Node134 -->
<g id="edge22" class="edge">
<title>Node130&#45;&gt;Node134</title>
<path fill="none" stroke="#191970" d="M1456.5,-135.3409C1456.5,-124.5601 1456.5,-112.3309 1456.5,-103.0028"/>
<polygon fill="#191970" stroke="#191970" points="1453.0001,-135.4779 1456.5,-145.478 1460.0001,-135.478 1453.0001,-135.4779"/>
</g>
<!-- Node135 -->
<g id="node21" class="node">
<title>Node135</title>
<g id="a_node21"><a xlink:href="dynamic__programming_8h.html" target="_top" xlink:title=" ">
<polygon fill="#ffffff" stroke="#000000" points="1541,-73 1541,-103 1684,-103 1684,-73 1541,-73"/>
<text text-anchor="start" x="1549" y="-91" font-family="Helvetica,sans-Serif" font-size="10.00" fill="#000000">drake/systems/controllers</text>
<text text-anchor="middle" x="1612.5" y="-80" font-family="Helvetica,sans-Serif" font-size="10.00" fill="#000000">/dynamic_programming.h</text>
</a>
</g>
</g>
<!-- Node130&#45;&gt;Node135 -->
<g id="edge23" class="edge">
<title>Node130&#45;&gt;Node135</title>
<path fill="none" stroke="#191970" d="M1497.9772,-141.2237C1523.7457,-129.248 1556.3832,-114.0799 1580.2181,-103.0028"/>
<polygon fill="#191970" stroke="#191970" points="1496.4167,-138.0894 1488.8233,-145.478 1499.3669,-144.4373 1496.4167,-138.0894"/>
</g>
</g>
</svg>
