<?xml version="1.0" encoding="UTF-8" standalone="no"?>
<!DOCTYPE svg PUBLIC "-//W3C//DTD SVG 1.1//EN"
 "http://www.w3.org/Graphics/SVG/1.1/DTD/svg11.dtd">
<!-- Generated by graphviz version 2.40.1 (20161225.0304)
 -->
<!-- Title: drake/manipulation/kinova_jaco/jaco_constants.h Pages: 1 -->
<svg width="646pt" height="117pt"
 viewBox="0.00 0.00 646.00 117.00" xmlns="http://www.w3.org/2000/svg" xmlns:xlink="http://www.w3.org/1999/xlink">
<g id="graph0" class="graph" transform="scale(1 1) rotate(0) translate(4 113)">
<title>drake/manipulation/kinova_jaco/jaco_constants.h</title>
<polygon fill="#ffffff" stroke="transparent" points="-4,4 -4,-113 642,-113 642,4 -4,4"/>
<!-- Node1 -->
<g id="node1" class="node">
<title>Node1</title>
<g id="a_node1"><a xlink:title=" ">
<polygon fill="#bfbfbf" stroke="#000000" points="251,-78.5 251,-108.5 414,-108.5 414,-78.5 251,-78.5"/>
<text text-anchor="start" x="259" y="-96.5" font-family="Helvetica,sans-Serif" font-size="10.00" fill="#000000">drake/manipulation</text>
<text text-anchor="middle" x="332.5" y="-85.5" font-family="Helvetica,sans-Serif" font-size="10.00" fill="#000000">/kinova_jaco/jaco_constants.h</text>
</a>
</g>
</g>
<!-- Node2 -->
<g id="node2" class="node">
<title>Node2</title>
<g id="a_node2"><a xlink:href="jaco__command__receiver_8h.html" target="_top" xlink:title=" ">
<polygon fill="#ffffff" stroke="#000000" points="0,-.5 0,-41.5 155,-41.5 155,-.5 0,-.5"/>
<text text-anchor="start" x="8" y="-29.5" font-family="Helvetica,sans-Serif" font-size="10.00" fill="#000000">drake/manipulation</text>
<text text-anchor="start" x="8" y="-18.5" font-family="Helvetica,sans-Serif" font-size="10.00" fill="#000000">/kinova_jaco/jaco_command</text>
<text text-anchor="middle" x="77.5" y="-7.5" font-family="Helvetica,sans-Serif" font-size="10.00" fill="#000000">_receiver.h</text>
</a>
</g>
</g>
<!-- Node1&#45;&gt;Node2 -->
<g id="edge1" class="edge">
<title>Node1&#45;&gt;Node2</title>
<path fill="none" stroke="#191970" d="M269.6782,-75.6389C233.3254,-65.3033 187.4309,-52.2549 149.6088,-41.5015"/>
<polygon fill="#191970" stroke="#191970" points="269.0879,-79.1097 279.6638,-78.478 271.0022,-72.3766 269.0879,-79.1097"/>
</g>
<!-- Node3 -->
<g id="node3" class="node">
<title>Node3</title>
<g id="a_node3"><a xlink:href="jaco__command__sender_8h.html" target="_top" xlink:title=" ">
<polygon fill="#ffffff" stroke="#000000" points="173,-.5 173,-41.5 328,-41.5 328,-.5 173,-.5"/>
<text text-anchor="start" x="181" y="-29.5" font-family="Helvetica,sans-Serif" font-size="10.00" fill="#000000">drake/manipulation</text>
<text text-anchor="start" x="181" y="-18.5" font-family="Helvetica,sans-Serif" font-size="10.00" fill="#000000">/kinova_jaco/jaco_command</text>
<text text-anchor="middle" x="250.5" y="-7.5" font-family="Helvetica,sans-Serif" font-size="10.00" fill="#000000">_sender.h</text>
</a>
</g>
</g>
<!-- Node1&#45;&gt;Node3 -->
<g id="edge2" class="edge">
<title>Node1&#45;&gt;Node3</title>
<path fill="none" stroke="#191970" d="M307.98,-71.8207C297.1139,-62.2135 284.395,-50.9681 273.6879,-41.5015"/>
<polygon fill="#191970" stroke="#191970" points="305.6995,-74.4763 315.5095,-78.478 310.3361,-69.232 305.6995,-74.4763"/>
</g>
<!-- Node4 -->
<g id="node4" class="node">
<title>Node4</title>
<g id="a_node4"><a xlink:href="jaco__status__receiver_8h.html" target="_top" xlink:title=" ">
<polygon fill="#ffffff" stroke="#000000" points="346,-.5 346,-41.5 483,-41.5 483,-.5 346,-.5"/>
<text text-anchor="start" x="354" y="-29.5" font-family="Helvetica,sans-Serif" font-size="10.00" fill="#000000">drake/manipulation</text>
<text text-anchor="start" x="354" y="-18.5" font-family="Helvetica,sans-Serif" font-size="10.00" fill="#000000">/kinova_jaco/jaco_status</text>
<text text-anchor="middle" x="414.5" y="-7.5" font-family="Helvetica,sans-Serif" font-size="10.00" fill="#000000">_receiver.h</text>
</a>
</g>
</g>
<!-- Node1&#45;&gt;Node4 -->
<g id="edge3" class="edge">
<title>Node1&#45;&gt;Node4</title>
<path fill="none" stroke="#191970" d="M357.02,-71.8207C367.8861,-62.2135 380.605,-50.9681 391.3121,-41.5015"/>
<polygon fill="#191970" stroke="#191970" points="354.6639,-69.232 349.4905,-78.478 359.3005,-74.4763 354.6639,-69.232"/>
</g>
<!-- Node5 -->
<g id="node5" class="node">
<title>Node5</title>
<g id="a_node5"><a xlink:href="jaco__status__sender_8h.html" target="_top" xlink:title=" ">
<polygon fill="#ffffff" stroke="#000000" points="501,-.5 501,-41.5 638,-41.5 638,-.5 501,-.5"/>
<text text-anchor="start" x="509" y="-29.5" font-family="Helvetica,sans-Serif" font-size="10.00" fill="#000000">drake/manipulation</text>
<text text-anchor="start" x="509" y="-18.5" font-family="Helvetica,sans-Serif" font-size="10.00" fill="#000000">/kinova_jaco/jaco_status</text>
<text text-anchor="middle" x="569.5" y="-7.5" font-family="Helvetica,sans-Serif" font-size="10.00" fill="#000000">_sender.h</text>
</a>
</g>
</g>
<!-- Node1&#45;&gt;Node5 -->
<g id="edge4" class="edge">
<title>Node1&#45;&gt;Node5</title>
<path fill="none" stroke="#191970" d="M391.321,-75.5062C425.0384,-65.1918 467.4791,-52.2089 502.4813,-41.5015"/>
<polygon fill="#191970" stroke="#191970" points="390.1453,-72.2057 381.6066,-78.478 392.193,-78.8995 390.1453,-72.2057"/>
</g>
</g>
</svg>
