<?xml version="1.0" encoding="UTF-8" standalone="no"?>
<!DOCTYPE svg PUBLIC "-//W3C//DTD SVG 1.1//EN"
 "http://www.w3.org/Graphics/SVG/1.1/DTD/svg11.dtd">
<!-- Generated by graphviz version 2.40.1 (20161225.0304)
 -->
<!-- Title: drake/math/jacobian.h Pages: 1 -->
<!--zoomable 341 -->
<svg id="main" version="1.1" xmlns="http://www.w3.org/2000/svg" xmlns:xlink="http://www.w3.org/1999/xlink" xml:space="preserve" onload="init(evt)">
<style type="text/css"><![CDATA[
.edge:hover path { stroke: red; }
.edge:hover polygon { stroke: red; fill: red; }
]]></style>
<script type="text/javascript"><![CDATA[
var edges = document.getElementsByTagName('g');
if (edges && edges.length) {
  for (var i=0;i<edges.length;i++) {
    if (edges[i].id.substr(0,4)=='edge') {
      edges[i].setAttribute('class','edge');
    }
  }
}
]]></script>
        <defs>
                <circle id="rim" cx="0" cy="0" r="7"/>
                <circle id="rim2" cx="0" cy="0" r="3.5"/>
                <g id="zoomPlus">
                        <use xlink:href="#rim" fill="#404040">
                                <set attributeName="fill" to="#808080" begin="zoomplus.mouseover" end="zoomplus.mouseout"/>
                        </use>
                        <path d="M-4,0h8M0,-4v8" fill="none" stroke="white" stroke-width="1.5" pointer-events="none"/>
                </g>
                <g id="zoomMin">
                        <use xlink:href="#rim" fill="#404040">
                                <set attributeName="fill" to="#808080" begin="zoomminus.mouseover" end="zoomminus.mouseout"/>
                        </use>
                        <path d="M-4,0h8" fill="none" stroke="white" stroke-width="1.5" pointer-events="none"/>
                </g>
                <g id="dirArrow">
                        <path fill="none" stroke="white" stroke-width="1.5" d="M0,-3.0v7 M-2.5,-0.5L0,-3.0L2.5,-0.5"/>
                </g>
               <g id="resetDef">
                       <use xlink:href="#rim2" fill="#404040">
                               <set attributeName="fill" to="#808080" begin="reset.mouseover" end="reset.mouseout"/>
                       </use>
               </g>
        </defs>

<script type="text/javascript">
var viewWidth = 1183;
var viewHeight = 341;
var sectionId = 'dynsection-0';
</script>
<script xlink:href="svgpan.js"/>
<svg id="graph" class="graph">
<g id="viewport">
<title>drake/math/jacobian.h</title>
<polygon fill="#ffffff" stroke="transparent" points="-4,4 -4,-337 1179,-337 1179,4 -4,4"/>
<!-- Node0 -->
<g id="node1" class="node">
<title>Node0</title>
<g id="a_node1"><a xlink:title=" ">
<polygon fill="#bfbfbf" stroke="#000000" points="166,-313.5 166,-332.5 292,-332.5 292,-313.5 166,-313.5"/>
<text text-anchor="middle" x="229" y="-320.5" font-family="Helvetica,sans-Serif" font-size="10.00" fill="#000000">drake/math/jacobian.h</text>
</a>
</g>
</g>
<!-- Node1 -->
<g id="node2" class="node">
<title>Node1</title>
<g id="a_node2"><a xlink:title=" ">
<polygon fill="#ffffff" stroke="#bfbfbf" points="0,-257.5 0,-276.5 64,-276.5 64,-257.5 0,-257.5"/>
<text text-anchor="middle" x="32" y="-264.5" font-family="Helvetica,sans-Serif" font-size="10.00" fill="#000000">algorithm</text>
</a>
</g>
</g>
<!-- Node0&#45;&gt;Node1 -->
<g id="edge1" class="edge">
<title>Node0&#45;&gt;Node1</title>
<path fill="none" stroke="#191970" d="M195.1345,-313.3733C161.5487,-303.826 110.0132,-289.1763 73.8757,-278.9037"/>
<polygon fill="#191970" stroke="#191970" points="74.695,-275.4981 64.1191,-276.1303 72.781,-282.2313 74.695,-275.4981"/>
</g>
<!-- Node2 -->
<g id="node3" class="node">
<title>Node2</title>
<g id="a_node3"><a xlink:title=" ">
<polygon fill="#ffffff" stroke="#bfbfbf" points="674.5,-129 674.5,-148 721.5,-148 721.5,-129 674.5,-129"/>
<text text-anchor="middle" x="698" y="-136" font-family="Helvetica,sans-Serif" font-size="10.00" fill="#000000">cmath</text>
</a>
</g>
</g>
<!-- Node0&#45;&gt;Node2 -->
<g id="edge2" class="edge">
<title>Node0&#45;&gt;Node2</title>
<path fill="none" stroke="#191970" d="M292.3882,-317.3935C403.3868,-306.2045 626.0219,-277.2044 677,-221 692.5411,-203.8656 696.9286,-176.8446 697.9917,-158.4308"/>
<polygon fill="#191970" stroke="#191970" points="701.4957,-158.3427 698.294,-148.2433 694.4988,-158.1351 701.4957,-158.3427"/>
</g>
<!-- Node3 -->
<g id="node4" class="node">
<title>Node3</title>
<g id="a_node4"><a xlink:title=" ">
<polygon fill="#ffffff" stroke="#bfbfbf" points="133.5,-62 133.5,-81 210.5,-81 210.5,-62 133.5,-62"/>
<text text-anchor="middle" x="172" y="-69" font-family="Helvetica,sans-Serif" font-size="10.00" fill="#000000">Eigen/Dense</text>
</a>
</g>
</g>
<!-- Node0&#45;&gt;Node3 -->
<g id="edge3" class="edge">
<title>Node0&#45;&gt;Node3</title>
<path fill="none" stroke="#191970" d="M209.7999,-313.3423C181.9331,-298.1051 131.3874,-265.5714 111,-221 89.443,-173.8715 130.8347,-116.8442 155.4985,-88.794"/>
<polygon fill="#191970" stroke="#191970" points="158.3906,-90.8159 162.5276,-81.0621 153.211,-86.1071 158.3906,-90.8159"/>
</g>
<!-- Node4 -->
<g id="node5" class="node">
<title>Node4</title>
<g id="a_node5"><a xlink:href="common_2autodiff_8h.html" target="_top" xlink:title=" ">
<polygon fill="#ffffff" stroke="#000000" points="373,-257.5 373,-276.5 513,-276.5 513,-257.5 373,-257.5"/>
<text text-anchor="middle" x="443" y="-264.5" font-family="Helvetica,sans-Serif" font-size="10.00" fill="#000000">drake/common/autodiff.h</text>
</a>
</g>
</g>
<!-- Node0&#45;&gt;Node4 -->
<g id="edge4" class="edge">
<title>Node0&#45;&gt;Node4</title>
<path fill="none" stroke="#191970" d="M265.7879,-313.3733C302.0661,-303.8799 357.6236,-289.3415 396.8446,-279.0781"/>
<polygon fill="#191970" stroke="#191970" points="397.904,-282.4188 406.6921,-276.5011 396.1318,-275.6468 397.904,-282.4188"/>
</g>
<!-- Node5 -->
<g id="node6" class="node">
<title>Node5</title>
<g id="a_node6"><a xlink:title=" ">
<polygon fill="#ffffff" stroke="#bfbfbf" points="598.5,-196 598.5,-215 667.5,-215 667.5,-196 598.5,-196"/>
<text text-anchor="middle" x="633" y="-203" font-family="Helvetica,sans-Serif" font-size="10.00" fill="#000000">Eigen/Core</text>
</a>
</g>
</g>
<!-- Node4&#45;&gt;Node5 -->
<g id="edge5" class="edge">
<title>Node4&#45;&gt;Node5</title>
<path fill="none" stroke="#191970" d="M474.4262,-257.4316C504.06,-248.3303 549.6724,-234.1184 589,-221 591.4201,-220.1927 593.9108,-219.3495 596.4181,-218.4912"/>
<polygon fill="#191970" stroke="#191970" points="597.7535,-221.7328 606.0566,-215.1518 595.4618,-215.1185 597.7535,-221.7328"/>
</g>
<!-- Node6 -->
<g id="node7" class="node">
<title>Node6</title>
<g id="a_node7"><a xlink:title=" ">
<polygon fill="#ffffff" stroke="#bfbfbf" points="120.5,-196 120.5,-215 271.5,-215 271.5,-196 120.5,-196"/>
<text text-anchor="middle" x="196" y="-203" font-family="Helvetica,sans-Serif" font-size="10.00" fill="#000000">unsupported/Eigen/AutoDiff</text>
</a>
</g>
</g>
<!-- Node4&#45;&gt;Node6 -->
<g id="edge6" class="edge">
<title>Node4&#45;&gt;Node6</title>
<path fill="none" stroke="#191970" d="M404.6773,-257.4581C361.503,-246.7082 291.2505,-229.2162 244.3416,-217.5365"/>
<polygon fill="#191970" stroke="#191970" points="244.962,-214.0842 234.4126,-215.0643 243.2707,-220.8768 244.962,-214.0842"/>
</g>
<!-- Node7 -->
<g id="node8" class="node">
<title>Node7</title>
<g id="a_node8"><a xlink:href="eigen__autodiff__types_8h.html" target="_top" xlink:title="This file contains abbreviated definitions for certain uses of AutoDiffScalar that are commonly used ...">
<polygon fill="#ffffff" stroke="#000000" points="460,-190.5 460,-220.5 580,-220.5 580,-190.5 460,-190.5"/>
<text text-anchor="start" x="468" y="-208.5" font-family="Helvetica,sans-Serif" font-size="10.00" fill="#000000">drake/common/eigen</text>
<text text-anchor="middle" x="520" y="-197.5" font-family="Helvetica,sans-Serif" font-size="10.00" fill="#000000">_autodiff_types.h</text>
</a>
</g>
</g>
<!-- Node4&#45;&gt;Node7 -->
<g id="edge7" class="edge">
<title>Node4&#45;&gt;Node7</title>
<path fill="none" stroke="#191970" d="M455.0313,-257.3906C465.1628,-249.2986 480.0342,-237.4207 492.9931,-227.0705"/>
<polygon fill="#191970" stroke="#191970" points="495.5343,-229.5202 501.1637,-220.5446 491.1657,-224.0506 495.5343,-229.5202"/>
</g>
<!-- Node14 -->
<g id="node15" class="node">
<title>Node14</title>
<g id="a_node15"><a xlink:href="autodiffxd_8h.html" target="_top" xlink:title=" ">
<polygon fill="#ffffff" stroke="#000000" points="290,-196 290,-215 442,-215 442,-196 290,-196"/>
<text text-anchor="middle" x="366" y="-203" font-family="Helvetica,sans-Serif" font-size="10.00" fill="#000000">drake/common/autodiffxd.h</text>
</a>
</g>
</g>
<!-- Node4&#45;&gt;Node14 -->
<g id="edge17" class="edge">
<title>Node4&#45;&gt;Node14</title>
<path fill="none" stroke="#191970" d="M430.9688,-257.3906C418.9893,-247.8227 400.3834,-232.9621 386.1475,-221.5919"/>
<polygon fill="#191970" stroke="#191970" points="387.9447,-218.5479 377.9468,-215.0419 383.5761,-224.0175 387.9447,-218.5479"/>
</g>
<!-- Node16 -->
<g id="node17" class="node">
<title>Node16</title>
<g id="a_node17"><a xlink:href="autodiff__overloads_8h.html" target="_top" xlink:title="Overloads for STL mathematical operations on AutoDiffScalar.">
<polygon fill="#ffffff" stroke="#000000" points="724.5,-190.5 724.5,-220.5 855.5,-220.5 855.5,-190.5 724.5,-190.5"/>
<text text-anchor="start" x="732.5" y="-208.5" font-family="Helvetica,sans-Serif" font-size="10.00" fill="#000000">drake/common/autodiff</text>
<text text-anchor="middle" x="790" y="-197.5" font-family="Helvetica,sans-Serif" font-size="10.00" fill="#000000">_overloads.h</text>
</a>
</g>
</g>
<!-- Node4&#45;&gt;Node16 -->
<g id="edge21" class="edge">
<title>Node4&#45;&gt;Node16</title>
<path fill="none" stroke="#191970" d="M496.838,-257.4581C555.2324,-247.1087 648.8869,-230.51 714.5901,-218.8652"/>
<polygon fill="#191970" stroke="#191970" points="715.2434,-222.304 724.4791,-217.1125 714.0217,-215.4114 715.2434,-222.304"/>
</g>
<!-- Node7&#45;&gt;Node3 -->
<g id="edge9" class="edge">
<title>Node7&#45;&gt;Node3</title>
<path fill="none" stroke="#191970" d="M496.7054,-190.3499C467.6423,-172.0493 415.9211,-141.4309 368,-123 304.4132,-98.5439 284.5155,-105.6841 219,-87 215.8602,-86.1046 212.617,-85.1335 209.3702,-84.1289"/>
<polygon fill="#191970" stroke="#191970" points="210.3095,-80.7549 199.719,-81.0568 208.1862,-87.4251 210.3095,-80.7549"/>
</g>
<!-- Node8 -->
<g id="node9" class="node">
<title>Node8</title>
<g id="a_node9"><a xlink:title=" ">
<polygon fill="#ffffff" stroke="#bfbfbf" points="712.5,-.5 712.5,-19.5 781.5,-19.5 781.5,-.5 712.5,-.5"/>
<text text-anchor="middle" x="747" y="-7.5" font-family="Helvetica,sans-Serif" font-size="10.00" fill="#000000">type_traits</text>
</a>
</g>
</g>
<!-- Node7&#45;&gt;Node8 -->
<g id="edge8" class="edge">
<title>Node7&#45;&gt;Node8</title>
<path fill="none" stroke="#191970" d="M546.9535,-190.3241C602.8704,-158.8168 726.449,-89.0512 728,-87 740.5504,-70.4025 744.9043,-46.5672 746.3654,-29.8236"/>
<polygon fill="#191970" stroke="#191970" points="749.877,-29.732 746.9799,-19.541 742.8895,-29.3143 749.877,-29.732"/>
</g>
<!-- Node9 -->
<g id="node10" class="node">
<title>Node9</title>
<g id="a_node10"><a xlink:href="eigen__types_8h.html" target="_top" xlink:title="This file contains abbreviated definitions for certain specializations of Eigen::Matrix that are comm...">
<polygon fill="#ffffff" stroke="#000000" points="446,-123.5 446,-153.5 566,-153.5 566,-123.5 446,-123.5"/>
<text text-anchor="start" x="454" y="-141.5" font-family="Helvetica,sans-Serif" font-size="10.00" fill="#000000">drake/common/eigen</text>
<text text-anchor="middle" x="506" y="-130.5" font-family="Helvetica,sans-Serif" font-size="10.00" fill="#000000">_types.h</text>
</a>
</g>
</g>
<!-- Node7&#45;&gt;Node9 -->
<g id="edge10" class="edge">
<title>Node7&#45;&gt;Node9</title>
<path fill="none" stroke="#191970" d="M516.8232,-190.2967C515.1764,-182.4156 513.1224,-172.5857 511.2476,-163.6135"/>
<polygon fill="#191970" stroke="#191970" points="514.6357,-162.7159 509.1642,-153.6432 507.7837,-164.1477 514.6357,-162.7159"/>
</g>
<!-- Node9&#45;&gt;Node3 -->
<g id="edge12" class="edge">
<title>Node9&#45;&gt;Node3</title>
<path fill="none" stroke="#191970" d="M445.8634,-126.8811C438.8329,-125.5557 431.7602,-124.2374 425,-123 333.5759,-106.2652 309.1499,-109.6145 219,-87 215.5623,-86.1376 212.0122,-85.1508 208.4751,-84.1019"/>
<polygon fill="#191970" stroke="#191970" points="209.2342,-80.6723 198.6455,-81.0335 207.1483,-87.3543 209.2342,-80.6723"/>
</g>
<!-- Node10 -->
<g id="node11" class="node">
<title>Node10</title>
<g id="a_node11"><a xlink:title=" ">
<polygon fill="#ffffff" stroke="#bfbfbf" points="534.5,-62 534.5,-81 579.5,-81 579.5,-62 534.5,-62"/>
<text text-anchor="middle" x="557" y="-69" font-family="Helvetica,sans-Serif" font-size="10.00" fill="#000000">utility</text>
</a>
</g>
</g>
<!-- Node9&#45;&gt;Node10 -->
<g id="edge11" class="edge">
<title>Node9&#45;&gt;Node10</title>
<path fill="none" stroke="#191970" d="M517.5727,-123.2967C525.2873,-113.1618 535.4551,-99.804 543.5329,-89.1921"/>
<polygon fill="#191970" stroke="#191970" points="546.4549,-91.1319 549.7268,-81.055 540.8849,-86.8921 546.4549,-91.1319"/>
</g>
<!-- Node11 -->
<g id="node12" class="node">
<title>Node11</title>
<g id="a_node12"><a xlink:href="constants_8h.html" target="_top" xlink:title=" ">
<polygon fill="#ffffff" stroke="#000000" points="228.5,-62 228.5,-81 377.5,-81 377.5,-62 228.5,-62"/>
<text text-anchor="middle" x="303" y="-69" font-family="Helvetica,sans-Serif" font-size="10.00" fill="#000000">drake/common/constants.h</text>
</a>
</g>
</g>
<!-- Node9&#45;&gt;Node11 -->
<g id="edge13" class="edge">
<title>Node9&#45;&gt;Node11</title>
<path fill="none" stroke="#191970" d="M460.4428,-123.4639C424.5879,-111.63 375.1887,-95.3258 341.3407,-84.1543"/>
<polygon fill="#191970" stroke="#191970" points="342.3927,-80.8159 331.7996,-81.0053 340.1988,-87.4632 342.3927,-80.8159"/>
</g>
<!-- Node12 -->
<g id="node13" class="node">
<title>Node12</title>
<g id="a_node13"><a xlink:href="drake__assert_8h.html" target="_top" xlink:title="Provides Drake&#39;s assertion implementation.">
<polygon fill="#ffffff" stroke="#000000" points="597.5,-56.5 597.5,-86.5 718.5,-86.5 718.5,-56.5 597.5,-56.5"/>
<text text-anchor="start" x="605.5" y="-74.5" font-family="Helvetica,sans-Serif" font-size="10.00" fill="#000000">drake/common/drake</text>
<text text-anchor="middle" x="658" y="-63.5" font-family="Helvetica,sans-Serif" font-size="10.00" fill="#000000">_assert.h</text>
</a>
</g>
</g>
<!-- Node9&#45;&gt;Node12 -->
<g id="edge14" class="edge">
<title>Node9&#45;&gt;Node12</title>
<path fill="none" stroke="#191970" d="M540.1118,-123.4639C562.0367,-113.7996 590.7254,-101.154 614.3119,-90.7572"/>
<polygon fill="#191970" stroke="#191970" points="616.0007,-93.8379 623.7395,-86.6017 613.1772,-87.4325 616.0007,-93.8379"/>
</g>
<!-- Node13 -->
<g id="node14" class="node">
<title>Node13</title>
<g id="a_node14"><a xlink:href="drake__copyable_8h.html" target="_top" xlink:title="Provides careful macros to selectively enable or disable the special member functions for copy&#45;constr...">
<polygon fill="#ffffff" stroke="#000000" points="395.5,-56.5 395.5,-86.5 516.5,-86.5 516.5,-56.5 395.5,-56.5"/>
<text text-anchor="start" x="403.5" y="-74.5" font-family="Helvetica,sans-Serif" font-size="10.00" fill="#000000">drake/common/drake</text>
<text text-anchor="middle" x="456" y="-63.5" font-family="Helvetica,sans-Serif" font-size="10.00" fill="#000000">_copyable.h</text>
</a>
</g>
</g>
<!-- Node9&#45;&gt;Node13 -->
<g id="edge16" class="edge">
<title>Node9&#45;&gt;Node13</title>
<path fill="none" stroke="#191970" d="M494.6542,-123.2967C488.3893,-114.9016 480.4741,-104.2952 473.4402,-94.8698"/>
<polygon fill="#191970" stroke="#191970" points="476.0868,-92.5642 467.3009,-86.6432 470.4767,-96.7508 476.0868,-92.5642"/>
</g>
<!-- Node12&#45;&gt;Node8 -->
<g id="edge15" class="edge">
<title>Node12&#45;&gt;Node8</title>
<path fill="none" stroke="#191970" d="M680,-56.2977C693.5968,-46.9022 710.9966,-34.8787 724.6567,-25.4395"/>
<polygon fill="#191970" stroke="#191970" points="726.7785,-28.2276 733.0158,-19.6633 722.7991,-22.4688 726.7785,-28.2276"/>
</g>
<!-- Node14&#45;&gt;Node2 -->
<g id="edge18" class="edge">
<title>Node14&#45;&gt;Node2</title>
<path fill="none" stroke="#191970" d="M413.2149,-195.9717C481.1055,-182.2709 604.6621,-157.3363 664.177,-145.3257"/>
<polygon fill="#191970" stroke="#191970" points="665.0686,-148.7164 674.1786,-143.3073 663.6838,-141.8548 665.0686,-148.7164"/>
</g>
<!-- Node14&#45;&gt;Node3 -->
<g id="edge20" class="edge">
<title>Node14&#45;&gt;Node3</title>
<path fill="none" stroke="#191970" d="M366.5691,-195.9C367.0286,-178.848 365.4166,-143.1766 346,-123 305.3189,-80.7268 275.0931,-104.1912 219,-87 216.0555,-86.0976 213.0141,-85.144 209.9608,-84.1713"/>
<polygon fill="#191970" stroke="#191970" points="210.8631,-80.7847 200.2713,-81.0384 208.7095,-87.4452 210.8631,-80.7847"/>
</g>
<!-- Node15 -->
<g id="node16" class="node">
<title>Node15</title>
<g id="a_node16"><a xlink:title=" ">
<polygon fill="#ffffff" stroke="#bfbfbf" points="280.5,-129 280.5,-148 337.5,-148 337.5,-129 280.5,-129"/>
<text text-anchor="middle" x="309" y="-136" font-family="Helvetica,sans-Serif" font-size="10.00" fill="#000000">ostream</text>
</a>
</g>
</g>
<!-- Node14&#45;&gt;Node15 -->
<g id="edge19" class="edge">
<title>Node14&#45;&gt;Node15</title>
<path fill="none" stroke="#191970" d="M357.8333,-195.9005C348.9446,-185.4525 334.55,-168.5325 323.6869,-155.7635"/>
<polygon fill="#191970" stroke="#191970" points="326.2972,-153.4303 317.1516,-148.0817 320.9656,-157.9662 326.2972,-153.4303"/>
</g>
<!-- Node16&#45;&gt;Node2 -->
<g id="edge22" class="edge">
<title>Node16&#45;&gt;Node2</title>
<path fill="none" stroke="#191970" d="M769.1238,-190.2967C754.2331,-179.4524 734.2757,-164.9182 719.2919,-154.006"/>
<polygon fill="#191970" stroke="#191970" points="721.2643,-151.1127 711.1203,-148.055 717.1434,-156.7712 721.2643,-151.1127"/>
</g>
<!-- Node16&#45;&gt;Node12 -->
<g id="edge28" class="edge">
<title>Node16&#45;&gt;Node12</title>
<path fill="none" stroke="#191970" d="M781.3171,-190.3479C770.8365,-172.8647 751.9852,-143.8507 731,-123 719.4681,-111.542 705.1422,-100.8335 692.2433,-92.1815"/>
<polygon fill="#191970" stroke="#191970" points="693.8804,-89.0705 683.5931,-86.5362 690.0546,-94.9326 693.8804,-89.0705"/>
</g>
<!-- Node17 -->
<g id="node18" class="node">
<title>Node17</title>
<g id="a_node18"><a xlink:title=" ">
<polygon fill="#ffffff" stroke="#bfbfbf" points="818,-62 818,-81 862,-81 862,-62 818,-62"/>
<text text-anchor="middle" x="840" y="-69" font-family="Helvetica,sans-Serif" font-size="10.00" fill="#000000">limits</text>
</a>
</g>
</g>
<!-- Node16&#45;&gt;Node17 -->
<g id="edge23" class="edge">
<title>Node16&#45;&gt;Node17</title>
<path fill="none" stroke="#191970" d="M791.7178,-190.4409C793.9991,-173.5446 798.8517,-145.5504 808,-123 812.798,-111.1729 820.2296,-98.9963 826.7236,-89.4545"/>
<polygon fill="#191970" stroke="#191970" points="829.6358,-91.3981 832.5461,-81.2108 823.9181,-87.3597 829.6358,-91.3981"/>
</g>
<!-- Node18 -->
<g id="node19" class="node">
<title>Node18</title>
<g id="a_node19"><a xlink:href="cond_8h.html" target="_top" xlink:title=" ">
<polygon fill="#ffffff" stroke="#000000" points="965.5,-129 965.5,-148 1090.5,-148 1090.5,-129 965.5,-129"/>
<text text-anchor="middle" x="1028" y="-136" font-family="Helvetica,sans-Serif" font-size="10.00" fill="#000000">drake/common/cond.h</text>
</a>
</g>
</g>
<!-- Node16&#45;&gt;Node18 -->
<g id="edge24" class="edge">
<title>Node16&#45;&gt;Node18</title>
<path fill="none" stroke="#191970" d="M843.4118,-190.4639C885.9899,-178.4776 944.8591,-161.9052 984.5726,-150.7254"/>
<polygon fill="#191970" stroke="#191970" points="985.5576,-154.0842 994.235,-148.0053 983.6606,-147.3461 985.5576,-154.0842"/>
</g>
<!-- Node21 -->
<g id="node22" class="node">
<title>Node21</title>
<g id="a_node22"><a xlink:href="dummy__value_8h.html" target="_top" xlink:title=" ">
<polygon fill="#ffffff" stroke="#000000" points="816.5,-123.5 816.5,-153.5 947.5,-153.5 947.5,-123.5 816.5,-123.5"/>
<text text-anchor="start" x="824.5" y="-141.5" font-family="Helvetica,sans-Serif" font-size="10.00" fill="#000000">drake/common/dummy</text>
<text text-anchor="middle" x="882" y="-130.5" font-family="Helvetica,sans-Serif" font-size="10.00" fill="#000000">_value.h</text>
</a>
</g>
</g>
<!-- Node16&#45;&gt;Node21 -->
<g id="edge29" class="edge">
<title>Node16&#45;&gt;Node21</title>
<path fill="none" stroke="#191970" d="M810.8762,-190.2967C823.3448,-181.2163 839.3658,-169.5488 853.0447,-159.587"/>
<polygon fill="#191970" stroke="#191970" points="855.1833,-162.3594 861.2064,-153.6432 851.0624,-156.7009 855.1833,-162.3594"/>
</g>
<!-- Node18&#45;&gt;Node8 -->
<g id="edge26" class="edge">
<title>Node18&#45;&gt;Node8</title>
<path fill="none" stroke="#191970" d="M1011.3922,-128.8622C983.12,-112.6637 923.5861,-79.4536 871,-56 842.9851,-43.5053 810.4408,-31.5242 785.7235,-22.9234"/>
<polygon fill="#191970" stroke="#191970" points="786.5799,-19.5166 775.9851,-19.5683 784.2997,-26.1348 786.5799,-19.5166"/>
</g>
<!-- Node19 -->
<g id="node20" class="node">
<title>Node19</title>
<g id="a_node20"><a xlink:title=" ">
<polygon fill="#ffffff" stroke="#bfbfbf" points="965.5,-62 965.5,-81 1030.5,-81 1030.5,-62 965.5,-62"/>
<text text-anchor="middle" x="998" y="-69" font-family="Helvetica,sans-Serif" font-size="10.00" fill="#000000">functional</text>
</a>
</g>
</g>
<!-- Node18&#45;&gt;Node19 -->
<g id="edge25" class="edge">
<title>Node18&#45;&gt;Node19</title>
<path fill="none" stroke="#191970" d="M1023.7017,-128.9005C1019.2017,-118.8505 1012.0204,-102.8122 1006.3912,-90.2403"/>
<polygon fill="#191970" stroke="#191970" points="1009.5714,-88.7782 1002.2903,-81.0817 1003.1826,-91.6389 1009.5714,-88.7782"/>
</g>
<!-- Node20 -->
<g id="node21" class="node">
<title>Node20</title>
<g id="a_node21"><a xlink:href="double__overloads_8h.html" target="_top" xlink:title="Provides necessary operations on double to have it as a ScalarType in drake.">
<polygon fill="#ffffff" stroke="#000000" points="1049,-56.5 1049,-86.5 1175,-86.5 1175,-56.5 1049,-56.5"/>
<text text-anchor="start" x="1057" y="-74.5" font-family="Helvetica,sans-Serif" font-size="10.00" fill="#000000">drake/common/double</text>
<text text-anchor="middle" x="1112" y="-63.5" font-family="Helvetica,sans-Serif" font-size="10.00" fill="#000000">_overloads.h</text>
</a>
</g>
</g>
<!-- Node18&#45;&gt;Node20 -->
<g id="edge27" class="edge">
<title>Node18&#45;&gt;Node20</title>
<path fill="none" stroke="#191970" d="M1040.0352,-128.9005C1051.7478,-119.5583 1069.9477,-105.0417 1085.1137,-92.945"/>
<polygon fill="#191970" stroke="#191970" points="1087.5314,-95.4936 1093.1667,-86.5218 1083.1665,-90.0212 1087.5314,-95.4936"/>
</g>
<!-- Node21&#45;&gt;Node17 -->
<g id="edge30" class="edge">
<title>Node21&#45;&gt;Node17</title>
<path fill="none" stroke="#191970" d="M872.4695,-123.2967C866.2434,-113.3645 858.077,-100.3371 851.4918,-89.8321"/>
<polygon fill="#191970" stroke="#191970" points="854.2666,-87.6689 845.9897,-81.055 848.3356,-91.3868 854.2666,-87.6689"/>
</g>
</g>
</svg>
        <g id="navigator" transform="translate(0 0)" fill="#404254">
                <rect fill="#f2f5e9" fill-opacity="0.5" stroke="#606060" stroke-width=".5" x="0" y="0" width="60" height="60"/>
                <use id="zoomplus" xlink:href="#zoomPlus" x="17" y="9" onmousedown="handleZoom(evt,'in')"/>
                <use id="zoomminus" xlink:href="#zoomMin" x="42" y="9" onmousedown="handleZoom(evt,'out')"/>
                <use id="reset" xlink:href="#resetDef" x="30" y="36" onmousedown="handleReset()"/>
                <g id="arrowUp" xlink:href="#dirArrow" transform="translate(30 24)" onmousedown="handlePan(0,-1)">
                  <use xlink:href="#rim" fill="#404040">
                        <set attributeName="fill" to="#808080" begin="arrowUp.mouseover" end="arrowUp.mouseout"/>
                  </use>
                  <path fill="none" stroke="white" stroke-width="1.5" d="M0,-3.0v7 M-2.5,-0.5L0,-3.0L2.5,-0.5"/>
                </g>
                <g id="arrowRight" xlink:href="#dirArrow" transform="rotate(90) translate(36 -43)" onmousedown="handlePan(1,0)">
                  <use xlink:href="#rim" fill="#404040">
                        <set attributeName="fill" to="#808080" begin="arrowRight.mouseover" end="arrowRight.mouseout"/>
                  </use>
                  <path fill="none" stroke="white" stroke-width="1.5" d="M0,-3.0v7 M-2.5,-0.5L0,-3.0L2.5,-0.5"/>
                </g>
                <g id="arrowDown" xlink:href="#dirArrow" transform="rotate(180) translate(-30 -48)" onmousedown="handlePan(0,1)">
                  <use xlink:href="#rim" fill="#404040">
                        <set attributeName="fill" to="#808080" begin="arrowDown.mouseover" end="arrowDown.mouseout"/>
                  </use>
                  <path fill="none" stroke="white" stroke-width="1.5" d="M0,-3.0v7 M-2.5,-0.5L0,-3.0L2.5,-0.5"/>
                </g>
                <g id="arrowLeft" xlink:href="#dirArrow" transform="rotate(270) translate(-36 17)" onmousedown="handlePan(-1,0)">
                  <use xlink:href="#rim" fill="#404040">
                        <set attributeName="fill" to="#808080" begin="arrowLeft.mouseover" end="arrowLeft.mouseout"/>
                  </use>
                  <path fill="none" stroke="white" stroke-width="1.5" d="M0,-3.0v7 M-2.5,-0.5L0,-3.0L2.5,-0.5"/>
                </g>
        </g>
        <svg viewBox="0 0 15 15" width="100%" height="30px" preserveAspectRatio="xMaxYMin meet">
         <g id="arrow_out" transform="scale(0.3 0.3)">
          <a xlink:href="jacobian_8h__incl_org.svg" target="_base">
           <rect id="button" ry="5" rx="5" y="6" x="6" height="38" width="38"
                fill="#f2f5e9" fill-opacity="0.5" stroke="#606060" stroke-width="1.0"/>
           <path id="arrow"
             d="M 11.500037,31.436501 C 11.940474,20.09759 22.043105,11.32322 32.158766,21.979434 L 37.068811,17.246167 C 37.068811,17.246167 37.088388,32 37.088388,32 L 22.160133,31.978069 C 22.160133,31.978069 26.997745,27.140456 26.997745,27.140456 C 18.528582,18.264221 13.291696,25.230495 11.500037,31.436501 z"
             style="fill:#404040;"/>
          </a>
         </g>
        </svg>
</svg>
