<?xml version="1.0" encoding="UTF-8" standalone="no"?>
<!DOCTYPE svg PUBLIC "-//W3C//DTD SVG 1.1//EN"
 "http://www.w3.org/Graphics/SVG/1.1/DTD/svg11.dtd">
<!-- Generated by graphviz version 2.40.1 (20161225.0304)
 -->
<!-- Title: drake/math/knot_vector_type.h Pages: 1 -->
<svg width="157pt" height="173pt"
 viewBox="0.00 0.00 157.00 173.00" xmlns="http://www.w3.org/2000/svg" xmlns:xlink="http://www.w3.org/1999/xlink">
<g id="graph0" class="graph" transform="scale(1 1) rotate(0) translate(4 169)">
<title>drake/math/knot_vector_type.h</title>
<polygon fill="#ffffff" stroke="transparent" points="-4,4 -4,-169 153,-169 153,4 -4,4"/>
<!-- Node1 -->
<g id="node1" class="node">
<title>Node1</title>
<g id="a_node1"><a xlink:title=" ">
<polygon fill="#bfbfbf" stroke="#000000" points="7.5,-134.5 7.5,-164.5 141.5,-164.5 141.5,-134.5 7.5,-134.5"/>
<text text-anchor="start" x="15.5" y="-152.5" font-family="Helvetica,sans-Serif" font-size="10.00" fill="#000000">drake/math/knot_vector</text>
<text text-anchor="middle" x="74.5" y="-141.5" font-family="Helvetica,sans-Serif" font-size="10.00" fill="#000000">_type.h</text>
</a>
</g>
</g>
<!-- Node2 -->
<g id="node2" class="node">
<title>Node2</title>
<g id="a_node2"><a xlink:href="bspline__basis_8h.html" target="_top" xlink:title=" ">
<polygon fill="#ffffff" stroke="#000000" points="19,-67.5 19,-97.5 130,-97.5 130,-67.5 19,-67.5"/>
<text text-anchor="start" x="27" y="-85.5" font-family="Helvetica,sans-Serif" font-size="10.00" fill="#000000">drake/math/bspline</text>
<text text-anchor="middle" x="74.5" y="-74.5" font-family="Helvetica,sans-Serif" font-size="10.00" fill="#000000">_basis.h</text>
</a>
</g>
</g>
<!-- Node1&#45;&gt;Node2 -->
<g id="edge1" class="edge">
<title>Node1&#45;&gt;Node2</title>
<path fill="none" stroke="#191970" d="M74.5,-124.0249C74.5,-115.128 74.5,-105.4287 74.5,-97.6432"/>
<polygon fill="#191970" stroke="#191970" points="71.0001,-124.2966 74.5,-134.2967 78.0001,-124.2967 71.0001,-124.2966"/>
</g>
<!-- Node3 -->
<g id="node3" class="node">
<title>Node3</title>
<g id="a_node3"><a xlink:href="bspline__trajectory_8h.html" target="_top" xlink:title=" ">
<polygon fill="#ffffff" stroke="#000000" points="0,-.5 0,-30.5 149,-30.5 149,-.5 0,-.5"/>
<text text-anchor="start" x="8" y="-18.5" font-family="Helvetica,sans-Serif" font-size="10.00" fill="#000000">drake/common/trajectories</text>
<text text-anchor="middle" x="74.5" y="-7.5" font-family="Helvetica,sans-Serif" font-size="10.00" fill="#000000">/bspline_trajectory.h</text>
</a>
</g>
</g>
<!-- Node2&#45;&gt;Node3 -->
<g id="edge2" class="edge">
<title>Node2&#45;&gt;Node3</title>
<path fill="none" stroke="#191970" d="M74.5,-57.0249C74.5,-48.128 74.5,-38.4287 74.5,-30.6432"/>
<polygon fill="#191970" stroke="#191970" points="71.0001,-57.2966 74.5,-67.2967 78.0001,-57.2967 71.0001,-57.2966"/>
</g>
</g>
</svg>
