<?xml version="1.0" encoding="UTF-8" standalone="no"?>
<!DOCTYPE svg PUBLIC "-//W3C//DTD SVG 1.1//EN"
 "http://www.w3.org/Graphics/SVG/1.1/DTD/svg11.dtd">
<!-- Generated by graphviz version 2.40.1 (20161225.0304)
 -->
<!-- Title: drake/lcm/lcm_messages.h Pages: 1 -->
<svg width="626pt" height="229pt"
 viewBox="0.00 0.00 626.00 229.00" xmlns="http://www.w3.org/2000/svg" xmlns:xlink="http://www.w3.org/1999/xlink">
<g id="graph0" class="graph" transform="scale(1 1) rotate(0) translate(4 225)">
<title>drake/lcm/lcm_messages.h</title>
<polygon fill="#ffffff" stroke="transparent" points="-4,4 -4,-225 622,-225 622,4 -4,4"/>
<!-- Node0 -->
<g id="node1" class="node">
<title>Node0</title>
<g id="a_node1"><a xlink:title=" ">
<polygon fill="#bfbfbf" stroke="#000000" points="73.5,-201.5 73.5,-220.5 223.5,-220.5 223.5,-201.5 73.5,-201.5"/>
<text text-anchor="middle" x="148.5" y="-208.5" font-family="Helvetica,sans-Serif" font-size="10.00" fill="#000000">drake/lcm/lcm_messages.h</text>
</a>
</g>
</g>
<!-- Node1 -->
<g id="node2" class="node">
<title>Node1</title>
<g id="a_node2"><a xlink:title=" ">
<polygon fill="#ffffff" stroke="#bfbfbf" points="21.5,-140 21.5,-159 71.5,-159 71.5,-140 21.5,-140"/>
<text text-anchor="middle" x="46.5" y="-147" font-family="Helvetica,sans-Serif" font-size="10.00" fill="#000000">cstdint</text>
</a>
</g>
</g>
<!-- Node0&#45;&gt;Node1 -->
<g id="edge1" class="edge">
<title>Node0&#45;&gt;Node1</title>
<path fill="none" stroke="#191970" d="M132.5625,-201.3906C116.0949,-191.4616 90.1742,-175.833 71.0796,-164.3201"/>
<polygon fill="#191970" stroke="#191970" points="72.6966,-161.2081 62.3256,-159.0419 69.0822,-167.2027 72.6966,-161.2081"/>
</g>
<!-- Node2 -->
<g id="node3" class="node">
<title>Node2</title>
<g id="a_node3"><a xlink:title=" ">
<polygon fill="#ffffff" stroke="#bfbfbf" points="0,-73 0,-92 47,-92 47,-73 0,-73"/>
<text text-anchor="middle" x="23.5" y="-80" font-family="Helvetica,sans-Serif" font-size="10.00" fill="#000000">vector</text>
</a>
</g>
</g>
<!-- Node0&#45;&gt;Node2 -->
<g id="edge2" class="edge">
<title>Node0&#45;&gt;Node2</title>
<path fill="none" stroke="#191970" d="M140.4599,-201.2039C128.0631,-186.2625 103.3215,-157.0819 80.5,-134 68.2764,-121.6369 53.7215,-108.5108 42.3792,-98.6045"/>
<polygon fill="#191970" stroke="#191970" points="44.6193,-95.9145 34.7673,-92.0172 40.0386,-101.2076 44.6193,-95.9145"/>
</g>
<!-- Node3 -->
<g id="node4" class="node">
<title>Node3</title>
<g id="a_node4"><a xlink:href="drake__throw_8h.html" target="_top" xlink:title="Provides a convenient wrapper to throw an exception when a condition is unmet.">
<polygon fill="#ffffff" stroke="#000000" points="408,-134.5 408,-164.5 529,-164.5 529,-134.5 408,-134.5"/>
<text text-anchor="start" x="416" y="-152.5" font-family="Helvetica,sans-Serif" font-size="10.00" fill="#000000">drake/common/drake</text>
<text text-anchor="middle" x="468.5" y="-141.5" font-family="Helvetica,sans-Serif" font-size="10.00" fill="#000000">_throw.h</text>
</a>
</g>
</g>
<!-- Node0&#45;&gt;Node3 -->
<g id="edge3" class="edge">
<title>Node0&#45;&gt;Node3</title>
<path fill="none" stroke="#191970" d="M198.1489,-201.4581C251.6953,-191.1671 337.3918,-174.6974 397.9281,-163.063"/>
<polygon fill="#191970" stroke="#191970" points="398.6347,-166.4914 407.7944,-161.1669 397.3136,-159.6172 398.6347,-166.4914"/>
</g>
<!-- Node6 -->
<g id="node7" class="node">
<title>Node6</title>
<g id="a_node7"><a xlink:href="nice__type__name_8h.html" target="_top" xlink:title=" ">
<polygon fill="#ffffff" stroke="#000000" points="127.5,-134.5 127.5,-164.5 267.5,-164.5 267.5,-134.5 127.5,-134.5"/>
<text text-anchor="start" x="135.5" y="-152.5" font-family="Helvetica,sans-Serif" font-size="10.00" fill="#000000">drake/common/nice_type</text>
<text text-anchor="middle" x="197.5" y="-141.5" font-family="Helvetica,sans-Serif" font-size="10.00" fill="#000000">_name.h</text>
</a>
</g>
</g>
<!-- Node0&#45;&gt;Node6 -->
<g id="edge7" class="edge">
<title>Node0&#45;&gt;Node6</title>
<path fill="none" stroke="#191970" d="M156.1563,-201.3906C162.2966,-193.6839 171.1728,-182.5434 179.1279,-172.5589"/>
<polygon fill="#191970" stroke="#191970" points="182.0192,-174.5467 185.5133,-164.5446 176.5444,-170.1847 182.0192,-174.5467"/>
</g>
<!-- Node4 -->
<g id="node5" class="node">
<title>Node4</title>
<g id="a_node5"><a xlink:title=" ">
<polygon fill="#ffffff" stroke="#bfbfbf" points="523,-6 523,-25 592,-25 592,-6 523,-6"/>
<text text-anchor="middle" x="557.5" y="-13" font-family="Helvetica,sans-Serif" font-size="10.00" fill="#000000">type_traits</text>
</a>
</g>
</g>
<!-- Node3&#45;&gt;Node4 -->
<g id="edge4" class="edge">
<title>Node3&#45;&gt;Node4</title>
<path fill="none" stroke="#191970" d="M469.1277,-134.2802C470.5052,-116.7333 474.8541,-87.6597 488.5,-67 498.6371,-51.6526 514.9701,-39.1609 529.2011,-30.3253"/>
<polygon fill="#191970" stroke="#191970" points="531.3181,-33.1407 538.163,-25.0538 527.769,-27.1071 531.3181,-33.1407"/>
</g>
<!-- Node5 -->
<g id="node6" class="node">
<title>Node5</title>
<g id="a_node6"><a xlink:href="drake__assert_8h.html" target="_top" xlink:title="Provides Drake&#39;s assertion implementation.">
<polygon fill="#ffffff" stroke="#000000" points="497,-67.5 497,-97.5 618,-97.5 618,-67.5 497,-67.5"/>
<text text-anchor="start" x="505" y="-85.5" font-family="Helvetica,sans-Serif" font-size="10.00" fill="#000000">drake/common/drake</text>
<text text-anchor="middle" x="557.5" y="-74.5" font-family="Helvetica,sans-Serif" font-size="10.00" fill="#000000">_assert.h</text>
</a>
</g>
</g>
<!-- Node3&#45;&gt;Node5 -->
<g id="edge5" class="edge">
<title>Node3&#45;&gt;Node5</title>
<path fill="none" stroke="#191970" d="M488.6955,-134.2967C500.6436,-125.302 515.9639,-113.7687 529.1138,-103.8694"/>
<polygon fill="#191970" stroke="#191970" points="531.5002,-106.4538 537.3844,-97.6432 527.2902,-100.8613 531.5002,-106.4538"/>
</g>
<!-- Node5&#45;&gt;Node4 -->
<g id="edge6" class="edge">
<title>Node5&#45;&gt;Node4</title>
<path fill="none" stroke="#191970" d="M557.5,-67.2967C557.5,-57.7699 557.5,-45.3954 557.5,-35.1306"/>
<polygon fill="#191970" stroke="#191970" points="561.0001,-35.0549 557.5,-25.055 554.0001,-35.055 561.0001,-35.0549"/>
</g>
<!-- Node6&#45;&gt;Node2 -->
<g id="edge12" class="edge">
<title>Node6&#45;&gt;Node2</title>
<path fill="none" stroke="#191970" d="M153.288,-134.4875C125.3044,-124.7067 88.4966,-111.3267 56.5,-98 55.1488,-97.4372 53.7724,-96.8496 52.3864,-96.2463"/>
<polygon fill="#191970" stroke="#191970" points="53.8204,-93.0536 43.2656,-92.1326 50.9424,-99.4346 53.8204,-93.0536"/>
</g>
<!-- Node7 -->
<g id="node8" class="node">
<title>Node7</title>
<g id="a_node8"><a xlink:title=" ">
<polygon fill="#ffffff" stroke="#bfbfbf" points="65.5,-73 65.5,-92 123.5,-92 123.5,-73 65.5,-73"/>
<text text-anchor="middle" x="94.5" y="-80" font-family="Helvetica,sans-Serif" font-size="10.00" fill="#000000">memory</text>
</a>
</g>
</g>
<!-- Node6&#45;&gt;Node7 -->
<g id="edge8" class="edge">
<title>Node6&#45;&gt;Node7</title>
<path fill="none" stroke="#191970" d="M174.3848,-134.4639C157.5698,-123.526 134.8837,-108.769 117.9838,-97.7759"/>
<polygon fill="#191970" stroke="#191970" points="119.5553,-94.6228 109.2642,-92.1039 115.7384,-100.4906 119.5553,-94.6228"/>
</g>
<!-- Node8 -->
<g id="node9" class="node">
<title>Node8</title>
<g id="a_node9"><a xlink:title=" ">
<polygon fill="#ffffff" stroke="#bfbfbf" points="141.5,-73 141.5,-92 185.5,-92 185.5,-73 141.5,-73"/>
<text text-anchor="middle" x="163.5" y="-80" font-family="Helvetica,sans-Serif" font-size="10.00" fill="#000000">string</text>
</a>
</g>
</g>
<!-- Node6&#45;&gt;Node8 -->
<g id="edge9" class="edge">
<title>Node6&#45;&gt;Node8</title>
<path fill="none" stroke="#191970" d="M189.7849,-134.2967C184.7961,-124.4658 178.2685,-111.6026 172.9664,-101.1545"/>
<polygon fill="#191970" stroke="#191970" points="175.9953,-99.3886 168.3488,-92.055 169.753,-102.5563 175.9953,-99.3886"/>
</g>
<!-- Node9 -->
<g id="node10" class="node">
<title>Node9</title>
<g id="a_node10"><a xlink:title=" ">
<polygon fill="#ffffff" stroke="#bfbfbf" points="204,-73 204,-92 261,-92 261,-73 204,-73"/>
<text text-anchor="middle" x="232.5" y="-80" font-family="Helvetica,sans-Serif" font-size="10.00" fill="#000000">typeinfo</text>
</a>
</g>
</g>
<!-- Node6&#45;&gt;Node9 -->
<g id="edge10" class="edge">
<title>Node6&#45;&gt;Node9</title>
<path fill="none" stroke="#191970" d="M205.442,-134.2967C210.5775,-124.4658 217.2971,-111.6026 222.7551,-101.1545"/>
<polygon fill="#191970" stroke="#191970" points="225.9806,-102.5391 227.5086,-92.055 219.7761,-99.2979 225.9806,-102.5391"/>
</g>
<!-- Node10 -->
<g id="node11" class="node">
<title>Node10</title>
<g id="a_node11"><a xlink:title=" ">
<polygon fill="#ffffff" stroke="#bfbfbf" points="266,-6 266,-25 311,-25 311,-6 266,-6"/>
<text text-anchor="middle" x="288.5" y="-13" font-family="Helvetica,sans-Serif" font-size="10.00" fill="#000000">utility</text>
</a>
</g>
</g>
<!-- Node6&#45;&gt;Node10 -->
<g id="edge11" class="edge">
<title>Node6&#45;&gt;Node10</title>
<path fill="none" stroke="#191970" d="M228.2076,-134.3302C242.8085,-125.6185 259.2683,-113.3436 269.5,-98 282.1355,-79.0518 286.4358,-52.8161 287.8621,-35.0571"/>
<polygon fill="#191970" stroke="#191970" points="291.3603,-35.1873 288.4354,-25.0043 284.3716,-34.7887 291.3603,-35.1873"/>
</g>
<!-- Node11 -->
<g id="node12" class="node">
<title>Node11</title>
<g id="a_node12"><a xlink:href="never__destroyed_8h.html" target="_top" xlink:title=" ">
<polygon fill="#ffffff" stroke="#000000" points="318,-67.5 318,-97.5 439,-97.5 439,-67.5 318,-67.5"/>
<text text-anchor="start" x="326" y="-85.5" font-family="Helvetica,sans-Serif" font-size="10.00" fill="#000000">drake/common/never</text>
<text text-anchor="middle" x="378.5" y="-74.5" font-family="Helvetica,sans-Serif" font-size="10.00" fill="#000000">_destroyed.h</text>
</a>
</g>
</g>
<!-- Node6&#45;&gt;Node11 -->
<g id="edge13" class="edge">
<title>Node6&#45;&gt;Node11</title>
<path fill="none" stroke="#191970" d="M238.1199,-134.4639C264.692,-124.6278 299.6073,-111.7034 327.9688,-101.2049"/>
<polygon fill="#191970" stroke="#191970" points="329.5398,-104.3555 337.7029,-97.6017 327.1098,-97.7909 329.5398,-104.3555"/>
</g>
<!-- Node11&#45;&gt;Node4 -->
<g id="edge15" class="edge">
<title>Node11&#45;&gt;Node4</title>
<path fill="none" stroke="#191970" d="M418.6711,-67.4639C449.8799,-55.7824 492.7263,-39.7449 522.5326,-28.5884"/>
<polygon fill="#191970" stroke="#191970" points="523.9668,-31.7888 532.1053,-25.0053 521.5129,-25.2329 523.9668,-31.7888"/>
</g>
<!-- Node11&#45;&gt;Node10 -->
<g id="edge16" class="edge">
<title>Node11&#45;&gt;Node10</title>
<path fill="none" stroke="#191970" d="M358.0776,-67.2967C343.6468,-56.5537 324.3516,-42.1895 309.7412,-31.3129"/>
<polygon fill="#191970" stroke="#191970" points="311.4464,-28.219 301.335,-25.055 307.2664,-33.8339 311.4464,-28.219"/>
</g>
<!-- Node12 -->
<g id="node13" class="node">
<title>Node12</title>
<g id="a_node13"><a xlink:title=" ">
<polygon fill="#ffffff" stroke="#bfbfbf" points="329,-6 329,-25 366,-25 366,-6 329,-6"/>
<text text-anchor="middle" x="347.5" y="-13" font-family="Helvetica,sans-Serif" font-size="10.00" fill="#000000">new</text>
</a>
</g>
</g>
<!-- Node11&#45;&gt;Node12 -->
<g id="edge14" class="edge">
<title>Node11&#45;&gt;Node12</title>
<path fill="none" stroke="#191970" d="M371.4656,-67.2967C366.917,-57.4658 360.9654,-44.6026 356.1312,-34.1545"/>
<polygon fill="#191970" stroke="#191970" points="359.2967,-32.6609 351.921,-25.055 352.9437,-35.6003 359.2967,-32.6609"/>
</g>
<!-- Node13 -->
<g id="node14" class="node">
<title>Node13</title>
<g id="a_node14"><a xlink:href="drake__copyable_8h.html" target="_top" xlink:title="Provides careful macros to selectively enable or disable the special member functions for copy&#45;constr...">
<polygon fill="#ffffff" stroke="#000000" points="384,-.5 384,-30.5 505,-30.5 505,-.5 384,-.5"/>
<text text-anchor="start" x="392" y="-18.5" font-family="Helvetica,sans-Serif" font-size="10.00" fill="#000000">drake/common/drake</text>
<text text-anchor="middle" x="444.5" y="-7.5" font-family="Helvetica,sans-Serif" font-size="10.00" fill="#000000">_copyable.h</text>
</a>
</g>
</g>
<!-- Node11&#45;&gt;Node13 -->
<g id="edge17" class="edge">
<title>Node11&#45;&gt;Node13</title>
<path fill="none" stroke="#191970" d="M393.4764,-67.2967C401.9993,-58.6446 412.836,-47.6438 422.3283,-38.0076"/>
<polygon fill="#191970" stroke="#191970" points="425.0585,-40.2234 429.5828,-30.6432 420.0717,-35.311 425.0585,-40.2234"/>
</g>
</g>
</svg>
