<?xml version="1.0" encoding="UTF-8" standalone="no"?>
<!DOCTYPE svg PUBLIC "-//W3C//DTD SVG 1.1//EN"
 "http://www.w3.org/Graphics/SVG/1.1/DTD/svg11.dtd">
<!-- Generated by graphviz version 2.40.1 (20161225.0304)
 -->
<!-- Title: drake/geometry/proximity/make_sphere_mesh.h Pages: 1 -->
<svg width="336pt" height="106pt"
 viewBox="0.00 0.00 336.00 106.00" xmlns="http://www.w3.org/2000/svg" xmlns:xlink="http://www.w3.org/1999/xlink">
<g id="graph0" class="graph" transform="scale(1 1) rotate(0) translate(4 102)">
<title>drake/geometry/proximity/make_sphere_mesh.h</title>
<polygon fill="#ffffff" stroke="transparent" points="-4,4 -4,-102 332,-102 332,4 -4,4"/>
<!-- Node82 -->
<g id="node1" class="node">
<title>Node82</title>
<g id="a_node1"><a xlink:title=" ">
<polygon fill="#bfbfbf" stroke="#000000" points="86,-67.5 86,-97.5 231,-97.5 231,-67.5 86,-67.5"/>
<text text-anchor="start" x="94" y="-85.5" font-family="Helvetica,sans-Serif" font-size="10.00" fill="#000000">drake/geometry/proximity</text>
<text text-anchor="middle" x="158.5" y="-74.5" font-family="Helvetica,sans-Serif" font-size="10.00" fill="#000000">/make_sphere_mesh.h</text>
</a>
</g>
</g>
<!-- Node83 -->
<g id="node2" class="node">
<title>Node83</title>
<g id="a_node2"><a xlink:href="make__ellipsoid__mesh_8h.html" target="_top" xlink:title=" ">
<polygon fill="#ffffff" stroke="#000000" points="0,-.5 0,-30.5 145,-30.5 145,-.5 0,-.5"/>
<text text-anchor="start" x="8" y="-18.5" font-family="Helvetica,sans-Serif" font-size="10.00" fill="#000000">drake/geometry/proximity</text>
<text text-anchor="middle" x="72.5" y="-7.5" font-family="Helvetica,sans-Serif" font-size="10.00" fill="#000000">/make_ellipsoid_mesh.h</text>
</a>
</g>
</g>
<!-- Node82&#45;&gt;Node83 -->
<g id="edge1" class="edge">
<title>Node82&#45;&gt;Node83</title>
<path fill="none" stroke="#191970" d="M130.9855,-61.0643C118.2696,-51.1577 103.4684,-39.6265 91.9375,-30.6432"/>
<polygon fill="#191970" stroke="#191970" points="128.9456,-63.9119 138.9853,-67.2967 133.2477,-58.3899 128.9456,-63.9119"/>
</g>
<!-- Node84 -->
<g id="node3" class="node">
<title>Node84</title>
<g id="a_node3"><a xlink:href="hydroelastic__field__sphere_8h.html" target="_top" xlink:title=" ">
<polygon fill="#ffffff" stroke="#000000" points="163,-.5 163,-30.5 328,-30.5 328,-.5 163,-.5"/>
<text text-anchor="start" x="171" y="-18.5" font-family="Helvetica,sans-Serif" font-size="10.00" fill="#000000">drake/multibody/hydroelastics</text>
<text text-anchor="middle" x="245.5" y="-7.5" font-family="Helvetica,sans-Serif" font-size="10.00" fill="#000000">/hydroelastic_field_sphere.h</text>
</a>
</g>
</g>
<!-- Node82&#45;&gt;Node84 -->
<g id="edge2" class="edge">
<title>Node82&#45;&gt;Node84</title>
<path fill="none" stroke="#191970" d="M186.3344,-61.0643C199.1982,-51.1577 214.1715,-39.6265 225.8365,-30.6432"/>
<polygon fill="#191970" stroke="#191970" points="184.029,-58.4221 178.2416,-67.2967 188.3001,-63.9681 184.029,-58.4221"/>
</g>
</g>
</svg>
