<?xml version="1.0" encoding="UTF-8" standalone="no"?>
<!DOCTYPE svg PUBLIC "-//W3C//DTD SVG 1.1//EN"
 "http://www.w3.org/Graphics/SVG/1.1/DTD/svg11.dtd">
<!-- Generated by graphviz version 2.40.1 (20161225.0304)
 -->
<!-- Title: drake/solvers/mathematical_program_result.h Pages: 1 -->
<!--zoomable 385 -->
<svg id="main" version="1.1" xmlns="http://www.w3.org/2000/svg" xmlns:xlink="http://www.w3.org/1999/xlink" xml:space="preserve" onload="init(evt)">
<style type="text/css"><![CDATA[
.edge:hover path { stroke: red; }
.edge:hover polygon { stroke: red; fill: red; }
]]></style>
<script type="text/javascript"><![CDATA[
var edges = document.getElementsByTagName('g');
if (edges && edges.length) {
  for (var i=0;i<edges.length;i++) {
    if (edges[i].id.substr(0,4)=='edge') {
      edges[i].setAttribute('class','edge');
    }
  }
}
]]></script>
        <defs>
                <circle id="rim" cx="0" cy="0" r="7"/>
                <circle id="rim2" cx="0" cy="0" r="3.5"/>
                <g id="zoomPlus">
                        <use xlink:href="#rim" fill="#404040">
                                <set attributeName="fill" to="#808080" begin="zoomplus.mouseover" end="zoomplus.mouseout"/>
                        </use>
                        <path d="M-4,0h8M0,-4v8" fill="none" stroke="white" stroke-width="1.5" pointer-events="none"/>
                </g>
                <g id="zoomMin">
                        <use xlink:href="#rim" fill="#404040">
                                <set attributeName="fill" to="#808080" begin="zoomminus.mouseover" end="zoomminus.mouseout"/>
                        </use>
                        <path d="M-4,0h8" fill="none" stroke="white" stroke-width="1.5" pointer-events="none"/>
                </g>
                <g id="dirArrow">
                        <path fill="none" stroke="white" stroke-width="1.5" d="M0,-3.0v7 M-2.5,-0.5L0,-3.0L2.5,-0.5"/>
                </g>
               <g id="resetDef">
                       <use xlink:href="#rim2" fill="#404040">
                               <set attributeName="fill" to="#808080" begin="reset.mouseover" end="reset.mouseout"/>
                       </use>
               </g>
        </defs>

<script type="text/javascript">
var viewWidth = 1769;
var viewHeight = 385;
var sectionId = 'dynsection-1';
</script>
<script xlink:href="svgpan.js"/>
<svg id="graph" class="graph">
<g id="viewport">
<title>drake/solvers/mathematical_program_result.h</title>
<polygon fill="#ffffff" stroke="transparent" points="-4,4 -4,-381 1764.5,-381 1764.5,4 -4,4"/>
<!-- Node97 -->
<g id="node1" class="node">
<title>Node97</title>
<g id="a_node1"><a xlink:title=" ">
<polygon fill="#bfbfbf" stroke="#000000" points="476.5,-346.5 476.5,-376.5 630.5,-376.5 630.5,-346.5 476.5,-346.5"/>
<text text-anchor="start" x="484.5" y="-364.5" font-family="Helvetica,sans-Serif" font-size="10.00" fill="#000000">drake/solvers/mathematical</text>
<text text-anchor="middle" x="553.5" y="-353.5" font-family="Helvetica,sans-Serif" font-size="10.00" fill="#000000">_program_result.h</text>
</a>
</g>
</g>
<!-- Node98 -->
<g id="node2" class="node">
<title>Node98</title>
<g id="a_node2"><a xlink:href="static__equilibrium__problem_8h.html" target="_top" xlink:title=" ">
<polygon fill="#ffffff" stroke="#000000" points="181.5,-274 181.5,-304 343.5,-304 343.5,-274 181.5,-274"/>
<text text-anchor="start" x="189.5" y="-292" font-family="Helvetica,sans-Serif" font-size="10.00" fill="#000000">drake/multibody/optimization</text>
<text text-anchor="middle" x="262.5" y="-281" font-family="Helvetica,sans-Serif" font-size="10.00" fill="#000000">/static_equilibrium_problem.h</text>
</a>
</g>
</g>
<!-- Node97&#45;&gt;Node98 -->
<g id="edge1" class="edge">
<title>Node97&#45;&gt;Node98</title>
<path fill="none" stroke="#191970" d="M483.3011,-344.0106C434.2442,-331.7885 369.422,-315.6386 322.7181,-304.0028"/>
<polygon fill="#191970" stroke="#191970" points="482.6551,-347.4566 493.2046,-346.478 484.3474,-340.6642 482.6551,-347.4566"/>
</g>
<!-- Node99 -->
<g id="node3" class="node">
<title>Node99</title>
<g id="a_node3"><a xlink:href="branch__and__bound_8h.html" target="_top" xlink:title=" ">
<polygon fill="#ffffff" stroke="#000000" points="362,-274 362,-304 481,-304 481,-274 362,-274"/>
<text text-anchor="start" x="370" y="-292" font-family="Helvetica,sans-Serif" font-size="10.00" fill="#000000">drake/solvers/branch</text>
<text text-anchor="middle" x="421.5" y="-281" font-family="Helvetica,sans-Serif" font-size="10.00" fill="#000000">_and_bound.h</text>
</a>
</g>
</g>
<!-- Node97&#45;&gt;Node99 -->
<g id="edge2" class="edge">
<title>Node97&#45;&gt;Node99</title>
<path fill="none" stroke="#191970" d="M517.251,-341.5905C495.6331,-329.717 468.6296,-314.8856 448.8154,-304.0028"/>
<polygon fill="#191970" stroke="#191970" points="515.6996,-344.7316 526.1495,-346.478 519.0695,-338.5961 515.6996,-344.7316"/>
</g>
<!-- Node100 -->
<g id="node4" class="node">
<title>Node100</title>
<g id="a_node4"><a xlink:href="mosek__solver_8h.html" target="_top" xlink:title=" ">
<polygon fill="#ffffff" stroke="#000000" points="0,-134.5 0,-164.5 119,-164.5 119,-134.5 0,-134.5"/>
<text text-anchor="start" x="8" y="-152.5" font-family="Helvetica,sans-Serif" font-size="10.00" fill="#000000">drake/solvers/mosek</text>
<text text-anchor="middle" x="59.5" y="-141.5" font-family="Helvetica,sans-Serif" font-size="10.00" fill="#000000">_solver.h</text>
</a>
</g>
</g>
<!-- Node97&#45;&gt;Node100 -->
<g id="edge3" class="edge">
<title>Node97&#45;&gt;Node100</title>
<path fill="none" stroke="#191970" d="M542.9342,-337.3271C532.3958,-315.9979 514.2176,-285.6361 489.5,-268 459.0854,-246.2991 230.1292,-189.9667 119.2818,-163.5548"/>
<polygon fill="#191970" stroke="#191970" points="539.793,-338.8718 547.2346,-346.4133 546.1201,-335.8772 539.793,-338.8718"/>
</g>
<!-- Node101 -->
<g id="node5" class="node">
<title>Node101</title>
<g id="a_node5"><a xlink:href="solve_8h.html" target="_top" xlink:title=" ">
<polygon fill="#ffffff" stroke="#000000" points="538,-279.5 538,-298.5 659,-298.5 659,-279.5 538,-279.5"/>
<text text-anchor="middle" x="598.5" y="-286.5" font-family="Helvetica,sans-Serif" font-size="10.00" fill="#000000">drake/solvers/solve.h</text>
</a>
</g>
</g>
<!-- Node97&#45;&gt;Node101 -->
<g id="edge4" class="edge">
<title>Node97&#45;&gt;Node101</title>
<path fill="none" stroke="#191970" d="M568.1853,-337.8403C576.3862,-324.6278 586.1687,-308.8672 592.3579,-298.8957"/>
<polygon fill="#191970" stroke="#191970" points="565.124,-336.1358 562.824,-346.478 571.0714,-339.8273 565.124,-336.1358"/>
</g>
<!-- Node102 -->
<g id="node6" class="node">
<title>Node102</title>
<g id="a_node6"><a xlink:href="solver__interface_8h.html" target="_top" xlink:title=" ">
<polygon fill="#ffffff" stroke="#000000" points="677.5,-274 677.5,-304 793.5,-304 793.5,-274 677.5,-274"/>
<text text-anchor="start" x="685.5" y="-292" font-family="Helvetica,sans-Serif" font-size="10.00" fill="#000000">drake/solvers/solver</text>
<text text-anchor="middle" x="735.5" y="-281" font-family="Helvetica,sans-Serif" font-size="10.00" fill="#000000">_interface.h</text>
</a>
</g>
</g>
<!-- Node97&#45;&gt;Node102 -->
<g id="edge5" class="edge">
<title>Node97&#45;&gt;Node102</title>
<path fill="none" stroke="#191970" d="M600.7075,-342.6948C630.9495,-330.6478 669.6645,-315.2257 697.8378,-304.0028"/>
<polygon fill="#191970" stroke="#191970" points="599.2053,-339.5257 591.2105,-346.478 601.7958,-346.0287 599.2053,-339.5257"/>
</g>
<!-- Node120 -->
<g id="node24" class="node">
<title>Node120</title>
<g id="a_node24"><a xlink:href="multiple__shooting_8h.html" target="_top" xlink:title=" ">
<polygon fill="#ffffff" stroke="#000000" points="901,-268.5 901,-309.5 1040,-309.5 1040,-268.5 901,-268.5"/>
<text text-anchor="start" x="909" y="-297.5" font-family="Helvetica,sans-Serif" font-size="10.00" fill="#000000">drake/systems/trajectory</text>
<text text-anchor="start" x="909" y="-286.5" font-family="Helvetica,sans-Serif" font-size="10.00" fill="#000000">_optimization/multiple</text>
<text text-anchor="middle" x="970.5" y="-275.5" font-family="Helvetica,sans-Serif" font-size="10.00" fill="#000000">_shooting.h</text>
</a>
</g>
</g>
<!-- Node97&#45;&gt;Node120 -->
<g id="edge25" class="edge">
<title>Node97&#45;&gt;Node120</title>
<path fill="none" stroke="#191970" d="M641.1487,-346.2613C718.3788,-332.834 829.3946,-313.5327 900.7357,-301.1293"/>
<polygon fill="#191970" stroke="#191970" points="640.2099,-342.872 630.9572,-348.0332 641.409,-349.7685 640.2099,-342.872"/>
</g>
<!-- Node103 -->
<g id="node7" class="node">
<title>Node103</title>
<g id="a_node7"><a xlink:href="choose__best__solver_8h.html" target="_top" xlink:title=" ">
<polygon fill="#ffffff" stroke="#000000" points="607.5,-201.5 607.5,-231.5 727.5,-231.5 727.5,-201.5 607.5,-201.5"/>
<text text-anchor="start" x="615.5" y="-219.5" font-family="Helvetica,sans-Serif" font-size="10.00" fill="#000000">drake/solvers/choose</text>
<text text-anchor="middle" x="667.5" y="-208.5" font-family="Helvetica,sans-Serif" font-size="10.00" fill="#000000">_best_solver.h</text>
</a>
</g>
</g>
<!-- Node102&#45;&gt;Node103 -->
<g id="edge6" class="edge">
<title>Node102&#45;&gt;Node103</title>
<path fill="none" stroke="#191970" d="M714.3998,-266.5035C703.7214,-255.1184 691.0498,-241.6083 681.5716,-231.5028"/>
<polygon fill="#191970" stroke="#191970" points="712.0164,-269.0785 721.4104,-273.978 717.1221,-264.2897 712.0164,-269.0785"/>
</g>
<!-- Node104 -->
<g id="node8" class="node">
<title>Node104</title>
<g id="a_node8"><a xlink:href="solver__base_8h.html" target="_top" xlink:title=" ">
<polygon fill="#ffffff" stroke="#000000" points="745.5,-201.5 745.5,-231.5 861.5,-231.5 861.5,-201.5 745.5,-201.5"/>
<text text-anchor="start" x="753.5" y="-219.5" font-family="Helvetica,sans-Serif" font-size="10.00" fill="#000000">drake/solvers/solver</text>
<text text-anchor="middle" x="803.5" y="-208.5" font-family="Helvetica,sans-Serif" font-size="10.00" fill="#000000">_base.h</text>
</a>
</g>
</g>
<!-- Node102&#45;&gt;Node104 -->
<g id="edge7" class="edge">
<title>Node102&#45;&gt;Node104</title>
<path fill="none" stroke="#191970" d="M756.6002,-266.5035C767.2786,-255.1184 779.9502,-241.6083 789.4284,-231.5028"/>
<polygon fill="#191970" stroke="#191970" points="753.8779,-264.2897 749.5896,-273.978 758.9836,-269.0785 753.8779,-264.2897"/>
</g>
<!-- Node104&#45;&gt;Node100 -->
<g id="edge19" class="edge">
<title>Node104&#45;&gt;Node100</title>
<path fill="none" stroke="#191970" d="M735.1064,-200.9606C466.7891,-163.3328 393.2729,-202.3273 128.5,-165 125.4606,-164.5715 122.3569,-164.0789 119.2302,-163.5388"/>
<polygon fill="#191970" stroke="#191970" points="734.75,-204.4451 745.1438,-202.391 735.7377,-197.5151 734.75,-204.4451"/>
</g>
<!-- Node105 -->
<g id="node9" class="node">
<title>Node105</title>
<g id="a_node9"><a xlink:href="csdp__solver_8h.html" target="_top" xlink:title=" ">
<polygon fill="#ffffff" stroke="#000000" points="137.5,-134.5 137.5,-164.5 245.5,-164.5 245.5,-134.5 137.5,-134.5"/>
<text text-anchor="start" x="145.5" y="-152.5" font-family="Helvetica,sans-Serif" font-size="10.00" fill="#000000">drake/solvers/csdp</text>
<text text-anchor="middle" x="191.5" y="-141.5" font-family="Helvetica,sans-Serif" font-size="10.00" fill="#000000">_solver.h</text>
</a>
</g>
</g>
<!-- Node104&#45;&gt;Node105 -->
<g id="edge8" class="edge">
<title>Node104&#45;&gt;Node105</title>
<path fill="none" stroke="#191970" d="M735.211,-200.9557C522.3483,-169.5927 463.4354,-198.2669 254.5,-165 251.6079,-164.5395 248.6534,-164.0127 245.679,-163.4377"/>
<polygon fill="#191970" stroke="#191970" points="734.7272,-204.4222 745.1359,-202.4448 735.7659,-197.4997 734.7272,-204.4222"/>
</g>
<!-- Node107 -->
<g id="node11" class="node">
<title>Node107</title>
<g id="a_node11"><a xlink:href="dreal__solver_8h.html" target="_top" xlink:title=" ">
<polygon fill="#ffffff" stroke="#000000" points="263.5,-134.5 263.5,-164.5 373.5,-164.5 373.5,-134.5 263.5,-134.5"/>
<text text-anchor="start" x="271.5" y="-152.5" font-family="Helvetica,sans-Serif" font-size="10.00" fill="#000000">drake/solvers/dreal</text>
<text text-anchor="middle" x="318.5" y="-141.5" font-family="Helvetica,sans-Serif" font-size="10.00" fill="#000000">_solver.h</text>
</a>
</g>
</g>
<!-- Node104&#45;&gt;Node107 -->
<g id="edge10" class="edge">
<title>Node104&#45;&gt;Node107</title>
<path fill="none" stroke="#191970" d="M735.4864,-200.9715C578.7112,-175.787 535.1823,-191.1271 382.5,-165 379.5702,-164.4986 376.5753,-163.9392 373.5589,-163.3388"/>
<polygon fill="#191970" stroke="#191970" points="735.0508,-204.4467 745.4847,-202.6074 736.1811,-197.5385 735.0508,-204.4467"/>
</g>
<!-- Node108 -->
<g id="node12" class="node">
<title>Node108</title>
<g id="a_node12"><a xlink:href="equality__constrained__qp__solver_8h.html" target="_top" xlink:title=" ">
<polygon fill="#ffffff" stroke="#000000" points="391.5,-134.5 391.5,-164.5 531.5,-164.5 531.5,-134.5 391.5,-134.5"/>
<text text-anchor="start" x="399.5" y="-152.5" font-family="Helvetica,sans-Serif" font-size="10.00" fill="#000000">drake/solvers/equality</text>
<text text-anchor="middle" x="461.5" y="-141.5" font-family="Helvetica,sans-Serif" font-size="10.00" fill="#000000">_constrained_qp_solver.h</text>
</a>
</g>
</g>
<!-- Node104&#45;&gt;Node108 -->
<g id="edge11" class="edge">
<title>Node104&#45;&gt;Node108</title>
<path fill="none" stroke="#191970" d="M735.6087,-200.8651C648.1317,-182.8909 624.4537,-180.9454 540.5,-165 537.6164,-164.4523 534.6743,-163.8902 531.7027,-163.3197"/>
<polygon fill="#191970" stroke="#191970" points="734.9296,-204.2986 745.431,-202.8952 736.3464,-197.4435 734.9296,-204.2986"/>
</g>
<!-- Node109 -->
<g id="node13" class="node">
<title>Node109</title>
<g id="a_node13"><a xlink:href="gurobi__solver_8h.html" target="_top" xlink:title=" ">
<polygon fill="#ffffff" stroke="#000000" points="549.5,-134.5 549.5,-164.5 665.5,-164.5 665.5,-134.5 549.5,-134.5"/>
<text text-anchor="start" x="557.5" y="-152.5" font-family="Helvetica,sans-Serif" font-size="10.00" fill="#000000">drake/solvers/gurobi</text>
<text text-anchor="middle" x="607.5" y="-141.5" font-family="Helvetica,sans-Serif" font-size="10.00" fill="#000000">_solver.h</text>
</a>
</g>
</g>
<!-- Node104&#45;&gt;Node109 -->
<g id="edge12" class="edge">
<title>Node104&#45;&gt;Node109</title>
<path fill="none" stroke="#191970" d="M749.7879,-198.1392C718.9665,-187.6033 680.744,-174.5375 651.6781,-164.6017"/>
<polygon fill="#191970" stroke="#191970" points="748.9192,-201.5411 759.5138,-201.4639 751.1835,-194.9174 748.9192,-201.5411"/>
</g>
<!-- Node110 -->
<g id="node14" class="node">
<title>Node110</title>
<g id="a_node14"><a xlink:href="ipopt__solver_8h.html" target="_top" xlink:title=" ">
<polygon fill="#ffffff" stroke="#000000" points="683.5,-134.5 683.5,-164.5 793.5,-164.5 793.5,-134.5 683.5,-134.5"/>
<text text-anchor="start" x="691.5" y="-152.5" font-family="Helvetica,sans-Serif" font-size="10.00" fill="#000000">drake/solvers/ipopt</text>
<text text-anchor="middle" x="738.5" y="-141.5" font-family="Helvetica,sans-Serif" font-size="10.00" fill="#000000">_solver.h</text>
</a>
</g>
</g>
<!-- Node104&#45;&gt;Node110 -->
<g id="edge13" class="edge">
<title>Node104&#45;&gt;Node110</title>
<path fill="none" stroke="#191970" d="M781.5992,-193.9253C772.2445,-184.2828 761.5743,-173.2843 753.1911,-164.6432"/>
<polygon fill="#191970" stroke="#191970" points="779.2752,-196.5564 788.7505,-201.2967 784.2994,-191.6821 779.2752,-196.5564"/>
</g>
<!-- Node111 -->
<g id="node15" class="node">
<title>Node111</title>
<g id="a_node15"><a xlink:href="linear__system__solver_8h.html" target="_top" xlink:title=" ">
<polygon fill="#ffffff" stroke="#000000" points="812,-134.5 812,-164.5 925,-164.5 925,-134.5 812,-134.5"/>
<text text-anchor="start" x="820" y="-152.5" font-family="Helvetica,sans-Serif" font-size="10.00" fill="#000000">drake/solvers/linear</text>
<text text-anchor="middle" x="868.5" y="-141.5" font-family="Helvetica,sans-Serif" font-size="10.00" fill="#000000">_system_solver.h</text>
</a>
</g>
</g>
<!-- Node104&#45;&gt;Node111 -->
<g id="edge14" class="edge">
<title>Node104&#45;&gt;Node111</title>
<path fill="none" stroke="#191970" d="M825.4008,-193.9253C834.7555,-184.2828 845.4257,-173.2843 853.8089,-164.6432"/>
<polygon fill="#191970" stroke="#191970" points="822.7006,-191.6821 818.2495,-201.2967 827.7248,-196.5564 822.7006,-191.6821"/>
</g>
<!-- Node112 -->
<g id="node16" class="node">
<title>Node112</title>
<g id="a_node16"><a xlink:href="moby__lcp__solver_8h.html" target="_top" xlink:title=" ">
<polygon fill="#ffffff" stroke="#000000" points="943,-134.5 943,-164.5 1056,-164.5 1056,-134.5 943,-134.5"/>
<text text-anchor="start" x="951" y="-152.5" font-family="Helvetica,sans-Serif" font-size="10.00" fill="#000000">drake/solvers/moby</text>
<text text-anchor="middle" x="999.5" y="-141.5" font-family="Helvetica,sans-Serif" font-size="10.00" fill="#000000">_lcp_solver.h</text>
</a>
</g>
</g>
<!-- Node104&#45;&gt;Node112 -->
<g id="edge15" class="edge">
<title>Node104&#45;&gt;Node112</title>
<path fill="none" stroke="#191970" d="M857.2121,-198.1392C888.0335,-187.6033 926.256,-174.5375 955.3219,-164.6017"/>
<polygon fill="#191970" stroke="#191970" points="855.8165,-194.9174 847.4862,-201.4639 858.0808,-201.5411 855.8165,-194.9174"/>
</g>
<!-- Node115 -->
<g id="node19" class="node">
<title>Node115</title>
<g id="a_node19"><a xlink:href="nlopt__solver_8h.html" target="_top" xlink:title=" ">
<polygon fill="#ffffff" stroke="#000000" points="1074.5,-134.5 1074.5,-164.5 1184.5,-164.5 1184.5,-134.5 1074.5,-134.5"/>
<text text-anchor="start" x="1082.5" y="-152.5" font-family="Helvetica,sans-Serif" font-size="10.00" fill="#000000">drake/solvers/nlopt</text>
<text text-anchor="middle" x="1129.5" y="-141.5" font-family="Helvetica,sans-Serif" font-size="10.00" fill="#000000">_solver.h</text>
</a>
</g>
</g>
<!-- Node104&#45;&gt;Node115 -->
<g id="edge20" class="edge">
<title>Node104&#45;&gt;Node115</title>
<path fill="none" stroke="#191970" d="M871.6127,-200.8254C958.4972,-183.0619 982.4209,-182.7152 1065.5,-165 1068.4071,-164.3801 1071.3838,-163.7263 1074.386,-163.0518"/>
<polygon fill="#191970" stroke="#191970" points="870.6557,-197.4491 861.5696,-202.8984 872.0707,-204.3046 870.6557,-197.4491"/>
</g>
<!-- Node116 -->
<g id="node20" class="node">
<title>Node116</title>
<g id="a_node20"><a xlink:href="osqp__solver_8h.html" target="_top" xlink:title=" ">
<polygon fill="#ffffff" stroke="#000000" points="1203,-134.5 1203,-164.5 1312,-164.5 1312,-134.5 1203,-134.5"/>
<text text-anchor="start" x="1211" y="-152.5" font-family="Helvetica,sans-Serif" font-size="10.00" fill="#000000">drake/solvers/osqp</text>
<text text-anchor="middle" x="1257.5" y="-141.5" font-family="Helvetica,sans-Serif" font-size="10.00" fill="#000000">_solver.h</text>
</a>
</g>
</g>
<!-- Node104&#45;&gt;Node116 -->
<g id="edge21" class="edge">
<title>Node104&#45;&gt;Node116</title>
<path fill="none" stroke="#191970" d="M871.5517,-200.9514C1014.6582,-177.2619 1054.4395,-189.4874 1193.5,-165 1196.54,-164.4647 1199.6506,-163.8699 1202.7832,-163.2341"/>
<polygon fill="#191970" stroke="#191970" points="870.8003,-197.5286 861.5211,-202.6421 871.9638,-204.4312 870.8003,-197.5286"/>
</g>
<!-- Node117 -->
<g id="node21" class="node">
<title>Node117</title>
<g id="a_node21"><a xlink:href="scs__solver_8h.html" target="_top" xlink:title=" ">
<polygon fill="#ffffff" stroke="#000000" points="1330.5,-140 1330.5,-159 1476.5,-159 1476.5,-140 1330.5,-140"/>
<text text-anchor="middle" x="1403.5" y="-147" font-family="Helvetica,sans-Serif" font-size="10.00" fill="#000000">drake/solvers/scs_solver.h</text>
</a>
</g>
</g>
<!-- Node104&#45;&gt;Node117 -->
<g id="edge22" class="edge">
<title>Node104&#45;&gt;Node117</title>
<path fill="none" stroke="#191970" d="M871.4244,-201.0106C1070.9632,-170.9342 1125.4115,-191.2819 1321.5,-165 1333.275,-163.4218 1345.9199,-161.2643 1357.6692,-159.0606"/>
<polygon fill="#191970" stroke="#191970" points="870.858,-197.5565 861.5028,-202.5293 871.9172,-204.4759 870.858,-197.5565"/>
</g>
<!-- Node118 -->
<g id="node22" class="node">
<title>Node118</title>
<g id="a_node22"><a xlink:href="snopt__solver_8h.html" target="_top" xlink:title=" ">
<polygon fill="#ffffff" stroke="#000000" points="1495,-134.5 1495,-164.5 1608,-164.5 1608,-134.5 1495,-134.5"/>
<text text-anchor="start" x="1503" y="-152.5" font-family="Helvetica,sans-Serif" font-size="10.00" fill="#000000">drake/solvers/snopt</text>
<text text-anchor="middle" x="1551.5" y="-141.5" font-family="Helvetica,sans-Serif" font-size="10.00" fill="#000000">_solver.h</text>
</a>
</g>
</g>
<!-- Node104&#45;&gt;Node118 -->
<g id="edge23" class="edge">
<title>Node104&#45;&gt;Node118</title>
<path fill="none" stroke="#191970" d="M872.0054,-200.9465C1143.323,-163.0289 1217.8625,-203.964 1485.5,-165 1488.5283,-164.5591 1491.6223,-164.0479 1494.7373,-163.4852"/>
<polygon fill="#191970" stroke="#191970" points="871.264,-197.5166 861.8558,-202.3886 872.2488,-204.447 871.264,-197.5166"/>
</g>
<!-- Node119 -->
<g id="node23" class="node">
<title>Node119</title>
<g id="a_node23"><a xlink:href="unrevised__lemke__solver_8h.html" target="_top" xlink:title=" ">
<polygon fill="#ffffff" stroke="#000000" points="1626.5,-134.5 1626.5,-164.5 1760.5,-164.5 1760.5,-134.5 1626.5,-134.5"/>
<text text-anchor="start" x="1634.5" y="-152.5" font-family="Helvetica,sans-Serif" font-size="10.00" fill="#000000">drake/solvers/unrevised</text>
<text text-anchor="middle" x="1693.5" y="-141.5" font-family="Helvetica,sans-Serif" font-size="10.00" fill="#000000">_lemke_solver.h</text>
</a>
</g>
</g>
<!-- Node104&#45;&gt;Node119 -->
<g id="edge24" class="edge">
<title>Node104&#45;&gt;Node119</title>
<path fill="none" stroke="#191970" d="M872.1664,-200.9377C1201.566,-156.3943 1291.0763,-205.908 1617.5,-165 1620.4395,-164.6316 1623.4351,-164.2121 1626.4554,-163.7529"/>
<polygon fill="#191970" stroke="#191970" points="871.2823,-197.5261 861.8507,-202.3526 872.2336,-204.4611 871.2823,-197.5261"/>
</g>
<!-- Node106 -->
<g id="node10" class="node">
<title>Node106</title>
<g id="a_node10"><a xlink:href="csdp__solver__internal_8h.html" target="_top" xlink:title=" ">
<polygon fill="#ffffff" stroke="#000000" points="137.5,-67.5 137.5,-97.5 245.5,-97.5 245.5,-67.5 137.5,-67.5"/>
<text text-anchor="start" x="145.5" y="-85.5" font-family="Helvetica,sans-Serif" font-size="10.00" fill="#000000">drake/solvers/csdp</text>
<text text-anchor="middle" x="191.5" y="-74.5" font-family="Helvetica,sans-Serif" font-size="10.00" fill="#000000">_solver_internal.h</text>
</a>
</g>
</g>
<!-- Node105&#45;&gt;Node106 -->
<g id="edge9" class="edge">
<title>Node105&#45;&gt;Node106</title>
<path fill="none" stroke="#191970" d="M191.5,-124.0249C191.5,-115.128 191.5,-105.4287 191.5,-97.6432"/>
<polygon fill="#191970" stroke="#191970" points="188.0001,-124.2966 191.5,-134.2967 195.0001,-124.2967 188.0001,-124.2966"/>
</g>
<!-- Node113 -->
<g id="node17" class="node">
<title>Node113</title>
<g id="a_node17"><a xlink:href="rod2d_8h.html" target="_top" xlink:title=" ">
<polygon fill="#ffffff" stroke="#000000" points="936.5,-.5 936.5,-30.5 1062.5,-30.5 1062.5,-.5 936.5,-.5"/>
<text text-anchor="start" x="944.5" y="-18.5" font-family="Helvetica,sans-Serif" font-size="10.00" fill="#000000">drake/examples/rod2d</text>
<text text-anchor="middle" x="999.5" y="-7.5" font-family="Helvetica,sans-Serif" font-size="10.00" fill="#000000">/rod2d.h</text>
</a>
</g>
</g>
<!-- Node112&#45;&gt;Node113 -->
<g id="edge16" class="edge">
<title>Node112&#45;&gt;Node113</title>
<path fill="none" stroke="#191970" d="M981.0333,-125.9251C975.5681,-117.5778 970.3002,-107.8123 967.5,-98 963.7191,-84.7512 963.7191,-80.2488 967.5,-67 971.3131,-53.6386 979.7017,-40.3639 986.9336,-30.6388"/>
<polygon fill="#191970" stroke="#191970" points="978.334,-128.1726 986.9336,-134.3612 984.0703,-124.1606 978.334,-128.1726"/>
</g>
<!-- Node114 -->
<g id="node18" class="node">
<title>Node114</title>
<g id="a_node18"><a xlink:href="constraint__solver_8h.html" target="_top" xlink:title=" ">
<polygon fill="#ffffff" stroke="#000000" points="976,-67.5 976,-97.5 1125,-97.5 1125,-67.5 976,-67.5"/>
<text text-anchor="start" x="984" y="-85.5" font-family="Helvetica,sans-Serif" font-size="10.00" fill="#000000">drake/multibody/constraint</text>
<text text-anchor="middle" x="1050.5" y="-74.5" font-family="Helvetica,sans-Serif" font-size="10.00" fill="#000000">/constraint_solver.h</text>
</a>
</g>
</g>
<!-- Node112&#45;&gt;Node114 -->
<g id="edge17" class="edge">
<title>Node112&#45;&gt;Node114</title>
<path fill="none" stroke="#191970" d="M1017.3404,-126.0626C1024.5193,-116.6315 1032.5909,-106.0276 1038.9731,-97.6432"/>
<polygon fill="#191970" stroke="#191970" points="1014.3446,-124.2197 1011.0727,-134.2967 1019.9146,-128.4595 1014.3446,-124.2197"/>
</g>
<!-- Node114&#45;&gt;Node113 -->
<g id="edge18" class="edge">
<title>Node114&#45;&gt;Node113</title>
<path fill="none" stroke="#191970" d="M1032.6596,-59.0626C1025.4807,-49.6315 1017.4091,-39.0276 1011.0269,-30.6432"/>
<polygon fill="#191970" stroke="#191970" points="1030.0854,-61.4595 1038.9273,-67.2967 1035.6554,-57.2197 1030.0854,-61.4595"/>
</g>
<!-- Node121 -->
<g id="node25" class="node">
<title>Node121</title>
<g id="a_node25"><a xlink:href="direct__collocation_8h.html" target="_top" xlink:title=" ">
<polygon fill="#ffffff" stroke="#000000" points="879.5,-201.5 879.5,-231.5 1061.5,-231.5 1061.5,-201.5 879.5,-201.5"/>
<text text-anchor="start" x="887.5" y="-219.5" font-family="Helvetica,sans-Serif" font-size="10.00" fill="#000000">drake/systems/trajectory</text>
<text text-anchor="middle" x="970.5" y="-208.5" font-family="Helvetica,sans-Serif" font-size="10.00" fill="#000000">_optimization/direct_collocation.h</text>
</a>
</g>
</g>
<!-- Node120&#45;&gt;Node121 -->
<g id="edge26" class="edge">
<title>Node120&#45;&gt;Node121</title>
<path fill="none" stroke="#191970" d="M970.5,-258.3279C970.5,-249.0871 970.5,-239.3508 970.5,-231.5991"/>
<polygon fill="#191970" stroke="#191970" points="967.0001,-258.4183 970.5,-268.4183 974.0001,-258.4184 967.0001,-258.4183"/>
</g>
<!-- Node122 -->
<g id="node26" class="node">
<title>Node122</title>
<g id="a_node26"><a xlink:href="direct__transcription_8h.html" target="_top" xlink:title=" ">
<polygon fill="#ffffff" stroke="#000000" points="1079.5,-201.5 1079.5,-231.5 1269.5,-231.5 1269.5,-201.5 1079.5,-201.5"/>
<text text-anchor="start" x="1087.5" y="-219.5" font-family="Helvetica,sans-Serif" font-size="10.00" fill="#000000">drake/systems/trajectory</text>
<text text-anchor="middle" x="1174.5" y="-208.5" font-family="Helvetica,sans-Serif" font-size="10.00" fill="#000000">_optimization/direct_transcription.h</text>
</a>
</g>
</g>
<!-- Node120&#45;&gt;Node122 -->
<g id="edge27" class="edge">
<title>Node120&#45;&gt;Node122</title>
<path fill="none" stroke="#191970" d="M1037.8748,-265.0555C1068.9146,-254.0242 1104.8083,-241.2679 1132.0142,-231.5991"/>
<polygon fill="#191970" stroke="#191970" points="1036.6631,-261.7716 1028.4125,-268.4183 1039.0073,-268.3675 1036.6631,-261.7716"/>
</g>
</g>
</svg>
        <g id="navigator" transform="translate(0 0)" fill="#404254">
                <rect fill="#f2f5e9" fill-opacity="0.5" stroke="#606060" stroke-width=".5" x="0" y="0" width="60" height="60"/>
                <use id="zoomplus" xlink:href="#zoomPlus" x="17" y="9" onmousedown="handleZoom(evt,'in')"/>
                <use id="zoomminus" xlink:href="#zoomMin" x="42" y="9" onmousedown="handleZoom(evt,'out')"/>
                <use id="reset" xlink:href="#resetDef" x="30" y="36" onmousedown="handleReset()"/>
                <g id="arrowUp" xlink:href="#dirArrow" transform="translate(30 24)" onmousedown="handlePan(0,-1)">
                  <use xlink:href="#rim" fill="#404040">
                        <set attributeName="fill" to="#808080" begin="arrowUp.mouseover" end="arrowUp.mouseout"/>
                  </use>
                  <path fill="none" stroke="white" stroke-width="1.5" d="M0,-3.0v7 M-2.5,-0.5L0,-3.0L2.5,-0.5"/>
                </g>
                <g id="arrowRight" xlink:href="#dirArrow" transform="rotate(90) translate(36 -43)" onmousedown="handlePan(1,0)">
                  <use xlink:href="#rim" fill="#404040">
                        <set attributeName="fill" to="#808080" begin="arrowRight.mouseover" end="arrowRight.mouseout"/>
                  </use>
                  <path fill="none" stroke="white" stroke-width="1.5" d="M0,-3.0v7 M-2.5,-0.5L0,-3.0L2.5,-0.5"/>
                </g>
                <g id="arrowDown" xlink:href="#dirArrow" transform="rotate(180) translate(-30 -48)" onmousedown="handlePan(0,1)">
                  <use xlink:href="#rim" fill="#404040">
                        <set attributeName="fill" to="#808080" begin="arrowDown.mouseover" end="arrowDown.mouseout"/>
                  </use>
                  <path fill="none" stroke="white" stroke-width="1.5" d="M0,-3.0v7 M-2.5,-0.5L0,-3.0L2.5,-0.5"/>
                </g>
                <g id="arrowLeft" xlink:href="#dirArrow" transform="rotate(270) translate(-36 17)" onmousedown="handlePan(-1,0)">
                  <use xlink:href="#rim" fill="#404040">
                        <set attributeName="fill" to="#808080" begin="arrowLeft.mouseover" end="arrowLeft.mouseout"/>
                  </use>
                  <path fill="none" stroke="white" stroke-width="1.5" d="M0,-3.0v7 M-2.5,-0.5L0,-3.0L2.5,-0.5"/>
                </g>
        </g>
        <svg viewBox="0 0 15 15" width="100%" height="30px" preserveAspectRatio="xMaxYMin meet">
         <g id="arrow_out" transform="scale(0.3 0.3)">
          <a xlink:href="mathematical__program__result_8h__dep__incl_org.svg" target="_base">
           <rect id="button" ry="5" rx="5" y="6" x="6" height="38" width="38"
                fill="#f2f5e9" fill-opacity="0.5" stroke="#606060" stroke-width="1.0"/>
           <path id="arrow"
             d="M 11.500037,31.436501 C 11.940474,20.09759 22.043105,11.32322 32.158766,21.979434 L 37.068811,17.246167 C 37.068811,17.246167 37.088388,32 37.088388,32 L 22.160133,31.978069 C 22.160133,31.978069 26.997745,27.140456 26.997745,27.140456 C 18.528582,18.264221 13.291696,25.230495 11.500037,31.436501 z"
             style="fill:#404040;"/>
          </a>
         </g>
        </svg>
</svg>
