<?xml version="1.0" encoding="UTF-8" standalone="no"?>
<!DOCTYPE svg PUBLIC "-//W3C//DTD SVG 1.1//EN"
 "http://www.w3.org/Graphics/SVG/1.1/DTD/svg11.dtd">
<!-- Generated by graphviz version 2.40.1 (20161225.0304)
 -->
<!-- Title: drake/math/matrix_util.h Pages: 1 -->
<!--zoomable 218 -->
<svg id="main" version="1.1" xmlns="http://www.w3.org/2000/svg" xmlns:xlink="http://www.w3.org/1999/xlink" xml:space="preserve" onload="init(evt)">
<style type="text/css"><![CDATA[
.edge:hover path { stroke: red; }
.edge:hover polygon { stroke: red; fill: red; }
]]></style>
<script type="text/javascript"><![CDATA[
var edges = document.getElementsByTagName('g');
if (edges && edges.length) {
  for (var i=0;i<edges.length;i++) {
    if (edges[i].id.substr(0,4)=='edge') {
      edges[i].setAttribute('class','edge');
    }
  }
}
]]></script>
        <defs>
                <circle id="rim" cx="0" cy="0" r="7"/>
                <circle id="rim2" cx="0" cy="0" r="3.5"/>
                <g id="zoomPlus">
                        <use xlink:href="#rim" fill="#404040">
                                <set attributeName="fill" to="#808080" begin="zoomplus.mouseover" end="zoomplus.mouseout"/>
                        </use>
                        <path d="M-4,0h8M0,-4v8" fill="none" stroke="white" stroke-width="1.5" pointer-events="none"/>
                </g>
                <g id="zoomMin">
                        <use xlink:href="#rim" fill="#404040">
                                <set attributeName="fill" to="#808080" begin="zoomminus.mouseover" end="zoomminus.mouseout"/>
                        </use>
                        <path d="M-4,0h8" fill="none" stroke="white" stroke-width="1.5" pointer-events="none"/>
                </g>
                <g id="dirArrow">
                        <path fill="none" stroke="white" stroke-width="1.5" d="M0,-3.0v7 M-2.5,-0.5L0,-3.0L2.5,-0.5"/>
                </g>
               <g id="resetDef">
                       <use xlink:href="#rim2" fill="#404040">
                               <set attributeName="fill" to="#808080" begin="reset.mouseover" end="reset.mouseout"/>
                       </use>
               </g>
        </defs>

<script type="text/javascript">
var viewWidth = 843;
var viewHeight = 218;
var sectionId = 'dynsection-0';
</script>
<script xlink:href="svgpan.js"/>
<svg id="graph" class="graph">
<g id="viewport">
<title>drake/math/matrix_util.h</title>
<polygon fill="#ffffff" stroke="transparent" points="-4,4 -4,-214 838.5,-214 838.5,4 -4,4"/>
<!-- Node0 -->
<g id="node1" class="node">
<title>Node0</title>
<g id="a_node1"><a xlink:title=" ">
<polygon fill="#bfbfbf" stroke="#000000" points="222,-190.5 222,-209.5 360,-209.5 360,-190.5 222,-190.5"/>
<text text-anchor="middle" x="291" y="-197.5" font-family="Helvetica,sans-Serif" font-size="10.00" fill="#000000">drake/math/matrix_util.h</text>
</a>
</g>
</g>
<!-- Node1 -->
<g id="node2" class="node">
<title>Node1</title>
<g id="a_node2"><a xlink:title=" ">
<polygon fill="#ffffff" stroke="#bfbfbf" points="0,-129 0,-148 64,-148 64,-129 0,-129"/>
<text text-anchor="middle" x="32" y="-136" font-family="Helvetica,sans-Serif" font-size="10.00" fill="#000000">algorithm</text>
</a>
</g>
</g>
<!-- Node0&#45;&gt;Node1 -->
<g id="edge1" class="edge">
<title>Node0&#45;&gt;Node1</title>
<path fill="none" stroke="#191970" d="M233.9474,-190.44C189.6179,-182.4184 126.8292,-169.7531 73,-154 70.4187,-153.2446 67.7687,-152.4023 65.1181,-151.5116"/>
<polygon fill="#191970" stroke="#191970" points="66.2332,-148.1935 55.6385,-148.1421 63.8887,-154.7892 66.2332,-148.1935"/>
</g>
<!-- Node2 -->
<g id="node3" class="node">
<title>Node2</title>
<g id="a_node3"><a xlink:title=" ">
<polygon fill="#ffffff" stroke="#bfbfbf" points="82.5,-129 82.5,-148 129.5,-148 129.5,-129 82.5,-129"/>
<text text-anchor="middle" x="106" y="-136" font-family="Helvetica,sans-Serif" font-size="10.00" fill="#000000">cmath</text>
</a>
</g>
</g>
<!-- Node0&#45;&gt;Node2 -->
<g id="edge2" class="edge">
<title>Node0&#45;&gt;Node2</title>
<path fill="none" stroke="#191970" d="M253.3391,-190.4735C222.0206,-182.1263 176.508,-169.0051 138,-154 136.598,-153.4537 135.1729,-152.8709 133.7418,-152.2635"/>
<polygon fill="#191970" stroke="#191970" points="134.9442,-148.9658 124.3913,-148.0246 132.0539,-155.3413 134.9442,-148.9658"/>
</g>
<!-- Node3 -->
<g id="node4" class="node">
<title>Node3</title>
<g id="a_node4"><a xlink:title=" ">
<polygon fill="#ffffff" stroke="#bfbfbf" points="147.5,-129 147.5,-148 212.5,-148 212.5,-129 147.5,-129"/>
<text text-anchor="middle" x="180" y="-136" font-family="Helvetica,sans-Serif" font-size="10.00" fill="#000000">functional</text>
</a>
</g>
</g>
<!-- Node0&#45;&gt;Node3 -->
<g id="edge3" class="edge">
<title>Node0&#45;&gt;Node3</title>
<path fill="none" stroke="#191970" d="M273.6563,-190.3906C255.5727,-180.3713 227.0141,-164.5483 206.1835,-153.0071"/>
<polygon fill="#191970" stroke="#191970" points="207.6654,-149.8268 197.222,-148.0419 204.2729,-155.9498 207.6654,-149.8268"/>
</g>
<!-- Node4 -->
<g id="node5" class="node">
<title>Node4</title>
<g id="a_node5"><a xlink:title=" ">
<polygon fill="#ffffff" stroke="#bfbfbf" points="388.5,-62 388.5,-81 465.5,-81 465.5,-62 388.5,-62"/>
<text text-anchor="middle" x="427" y="-69" font-family="Helvetica,sans-Serif" font-size="10.00" fill="#000000">Eigen/Dense</text>
</a>
</g>
</g>
<!-- Node0&#45;&gt;Node4 -->
<g id="edge4" class="edge">
<title>Node0&#45;&gt;Node4</title>
<path fill="none" stroke="#191970" d="M316.981,-190.4339C335.3421,-182.7091 359.6711,-170.4224 377,-154 396.2958,-135.7135 410.8858,-108.3866 419.1872,-90.2603"/>
<polygon fill="#191970" stroke="#191970" points="422.4283,-91.5845 423.2394,-81.0207 416.0177,-88.773 422.4283,-91.5845"/>
</g>
<!-- Node5 -->
<g id="node6" class="node">
<title>Node5</title>
<g id="a_node6"><a xlink:href="drake__assert_8h.html" target="_top" xlink:title="Provides Drake&#39;s assertion implementation.">
<polygon fill="#ffffff" stroke="#000000" points="249.5,-56.5 249.5,-86.5 370.5,-86.5 370.5,-56.5 249.5,-56.5"/>
<text text-anchor="start" x="257.5" y="-74.5" font-family="Helvetica,sans-Serif" font-size="10.00" fill="#000000">drake/common/drake</text>
<text text-anchor="middle" x="310" y="-63.5" font-family="Helvetica,sans-Serif" font-size="10.00" fill="#000000">_assert.h</text>
</a>
</g>
</g>
<!-- Node0&#45;&gt;Node5 -->
<g id="edge5" class="edge">
<title>Node0&#45;&gt;Node5</title>
<path fill="none" stroke="#191970" d="M316.885,-190.4647C332.7227,-183.1252 351.6794,-171.2779 361,-154 367.5413,-141.8741 366.2415,-135.7418 361,-123 356.3349,-111.6593 347.831,-101.4898 339.0869,-93.2432"/>
<polygon fill="#191970" stroke="#191970" points="341.2519,-90.4862 331.4314,-86.5101 336.6289,-95.7425 341.2519,-90.4862"/>
</g>
<!-- Node7 -->
<g id="node8" class="node">
<title>Node7</title>
<g id="a_node8"><a xlink:href="drake__throw_8h.html" target="_top" xlink:title="Provides a convenient wrapper to throw an exception when a condition is unmet.">
<polygon fill="#ffffff" stroke="#000000" points="230.5,-123.5 230.5,-153.5 351.5,-153.5 351.5,-123.5 230.5,-123.5"/>
<text text-anchor="start" x="238.5" y="-141.5" font-family="Helvetica,sans-Serif" font-size="10.00" fill="#000000">drake/common/drake</text>
<text text-anchor="middle" x="291" y="-130.5" font-family="Helvetica,sans-Serif" font-size="10.00" fill="#000000">_throw.h</text>
</a>
</g>
</g>
<!-- Node0&#45;&gt;Node7 -->
<g id="edge7" class="edge">
<title>Node0&#45;&gt;Node7</title>
<path fill="none" stroke="#191970" d="M291,-190.3906C291,-183.2234 291,-173.0862 291,-163.671"/>
<polygon fill="#191970" stroke="#191970" points="294.5001,-163.5446 291,-153.5446 287.5001,-163.5446 294.5001,-163.5446"/>
</g>
<!-- Node8 -->
<g id="node9" class="node">
<title>Node8</title>
<g id="a_node9"><a xlink:href="eigen__types_8h.html" target="_top" xlink:title="This file contains abbreviated definitions for certain specializations of Eigen::Matrix that are comm...">
<polygon fill="#ffffff" stroke="#000000" points="446,-123.5 446,-153.5 566,-153.5 566,-123.5 446,-123.5"/>
<text text-anchor="start" x="454" y="-141.5" font-family="Helvetica,sans-Serif" font-size="10.00" fill="#000000">drake/common/eigen</text>
<text text-anchor="middle" x="506" y="-130.5" font-family="Helvetica,sans-Serif" font-size="10.00" fill="#000000">_types.h</text>
</a>
</g>
</g>
<!-- Node0&#45;&gt;Node8 -->
<g id="edge10" class="edge">
<title>Node0&#45;&gt;Node8</title>
<path fill="none" stroke="#191970" d="M324.5938,-190.3906C356.3856,-181.2967 404.8923,-167.4215 443.7499,-156.3064"/>
<polygon fill="#191970" stroke="#191970" points="444.7533,-159.6599 453.4051,-153.5446 442.8281,-152.9298 444.7533,-159.6599"/>
</g>
<!-- Node6 -->
<g id="node7" class="node">
<title>Node6</title>
<g id="a_node7"><a xlink:title=" ">
<polygon fill="#ffffff" stroke="#bfbfbf" points="230.5,-.5 230.5,-19.5 299.5,-19.5 299.5,-.5 230.5,-.5"/>
<text text-anchor="middle" x="265" y="-7.5" font-family="Helvetica,sans-Serif" font-size="10.00" fill="#000000">type_traits</text>
</a>
</g>
</g>
<!-- Node5&#45;&gt;Node6 -->
<g id="edge6" class="edge">
<title>Node5&#45;&gt;Node6</title>
<path fill="none" stroke="#191970" d="M298.8764,-56.2977C292.6299,-47.7609 284.796,-37.0545 278.2353,-28.0883"/>
<polygon fill="#191970" stroke="#191970" points="280.9348,-25.8505 272.2051,-19.8469 275.2856,-29.984 280.9348,-25.8505"/>
</g>
<!-- Node7&#45;&gt;Node5 -->
<g id="edge9" class="edge">
<title>Node7&#45;&gt;Node5</title>
<path fill="none" stroke="#191970" d="M295.3114,-123.2967C297.5706,-115.3299 300.3946,-105.3718 302.9611,-96.3213"/>
<polygon fill="#191970" stroke="#191970" points="306.3446,-97.2187 305.7057,-86.6432 299.6101,-95.3089 306.3446,-97.2187"/>
</g>
<!-- Node7&#45;&gt;Node6 -->
<g id="edge8" class="edge">
<title>Node7&#45;&gt;Node6</title>
<path fill="none" stroke="#191970" d="M269.9796,-123.4031C259.1061,-114.2536 246.9014,-101.5505 241,-87 233.0681,-67.4431 242.7948,-44.2245 252.1367,-28.4346"/>
<polygon fill="#191970" stroke="#191970" points="255.3069,-29.9734 257.7423,-19.6623 249.4083,-26.2042 255.3069,-29.9734"/>
</g>
<!-- Node8&#45;&gt;Node4 -->
<g id="edge12" class="edge">
<title>Node8&#45;&gt;Node4</title>
<path fill="none" stroke="#191970" d="M488.0737,-123.2967C475.5261,-112.6551 458.7889,-98.4602 446.0091,-87.6217"/>
<polygon fill="#191970" stroke="#191970" points="448.1567,-84.8538 438.2663,-81.055 443.629,-90.1924 448.1567,-84.8538"/>
</g>
<!-- Node8&#45;&gt;Node5 -->
<g id="edge14" class="edge">
<title>Node8&#45;&gt;Node5</title>
<path fill="none" stroke="#191970" d="M462.0138,-123.4639C432.9883,-113.5419 394.7697,-100.4774 363.9158,-89.9304"/>
<polygon fill="#191970" stroke="#191970" points="364.7726,-86.5245 354.1781,-86.6017 362.5084,-93.1482 364.7726,-86.5245"/>
</g>
<!-- Node9 -->
<g id="node10" class="node">
<title>Node9</title>
<g id="a_node10"><a xlink:title=" ">
<polygon fill="#ffffff" stroke="#bfbfbf" points="483.5,-62 483.5,-81 528.5,-81 528.5,-62 483.5,-62"/>
<text text-anchor="middle" x="506" y="-69" font-family="Helvetica,sans-Serif" font-size="10.00" fill="#000000">utility</text>
</a>
</g>
</g>
<!-- Node8&#45;&gt;Node9 -->
<g id="edge11" class="edge">
<title>Node8&#45;&gt;Node9</title>
<path fill="none" stroke="#191970" d="M506,-123.2967C506,-113.7699 506,-101.3954 506,-91.1306"/>
<polygon fill="#191970" stroke="#191970" points="509.5001,-91.0549 506,-81.055 502.5001,-91.055 509.5001,-91.0549"/>
</g>
<!-- Node10 -->
<g id="node11" class="node">
<title>Node10</title>
<g id="a_node11"><a xlink:href="constants_8h.html" target="_top" xlink:title=" ">
<polygon fill="#ffffff" stroke="#000000" points="546.5,-62 546.5,-81 695.5,-81 695.5,-62 546.5,-62"/>
<text text-anchor="middle" x="621" y="-69" font-family="Helvetica,sans-Serif" font-size="10.00" fill="#000000">drake/common/constants.h</text>
</a>
</g>
</g>
<!-- Node8&#45;&gt;Node10 -->
<g id="edge13" class="edge">
<title>Node8&#45;&gt;Node10</title>
<path fill="none" stroke="#191970" d="M531.8082,-123.4639C550.9299,-112.3234 576.8517,-97.2212 595.8218,-86.1691"/>
<polygon fill="#191970" stroke="#191970" points="597.6371,-89.1622 604.5157,-81.1039 594.1132,-83.1138 597.6371,-89.1622"/>
</g>
<!-- Node11 -->
<g id="node12" class="node">
<title>Node11</title>
<g id="a_node12"><a xlink:href="drake__copyable_8h.html" target="_top" xlink:title="Provides careful macros to selectively enable or disable the special member functions for copy&#45;constr...">
<polygon fill="#ffffff" stroke="#000000" points="713.5,-56.5 713.5,-86.5 834.5,-86.5 834.5,-56.5 713.5,-56.5"/>
<text text-anchor="start" x="721.5" y="-74.5" font-family="Helvetica,sans-Serif" font-size="10.00" fill="#000000">drake/common/drake</text>
<text text-anchor="middle" x="774" y="-63.5" font-family="Helvetica,sans-Serif" font-size="10.00" fill="#000000">_copyable.h</text>
</a>
</g>
</g>
<!-- Node8&#45;&gt;Node11 -->
<g id="edge15" class="edge">
<title>Node8&#45;&gt;Node11</title>
<path fill="none" stroke="#191970" d="M566.1444,-123.4639C606.9491,-113.2627 661.0413,-99.7397 703.8153,-89.0462"/>
<polygon fill="#191970" stroke="#191970" points="704.7407,-92.4226 713.5932,-86.6017 703.0429,-85.6316 704.7407,-92.4226"/>
</g>
</g>
</svg>
        <g id="navigator" transform="translate(0 0)" fill="#404254">
                <rect fill="#f2f5e9" fill-opacity="0.5" stroke="#606060" stroke-width=".5" x="0" y="0" width="60" height="60"/>
                <use id="zoomplus" xlink:href="#zoomPlus" x="17" y="9" onmousedown="handleZoom(evt,'in')"/>
                <use id="zoomminus" xlink:href="#zoomMin" x="42" y="9" onmousedown="handleZoom(evt,'out')"/>
                <use id="reset" xlink:href="#resetDef" x="30" y="36" onmousedown="handleReset()"/>
                <g id="arrowUp" xlink:href="#dirArrow" transform="translate(30 24)" onmousedown="handlePan(0,-1)">
                  <use xlink:href="#rim" fill="#404040">
                        <set attributeName="fill" to="#808080" begin="arrowUp.mouseover" end="arrowUp.mouseout"/>
                  </use>
                  <path fill="none" stroke="white" stroke-width="1.5" d="M0,-3.0v7 M-2.5,-0.5L0,-3.0L2.5,-0.5"/>
                </g>
                <g id="arrowRight" xlink:href="#dirArrow" transform="rotate(90) translate(36 -43)" onmousedown="handlePan(1,0)">
                  <use xlink:href="#rim" fill="#404040">
                        <set attributeName="fill" to="#808080" begin="arrowRight.mouseover" end="arrowRight.mouseout"/>
                  </use>
                  <path fill="none" stroke="white" stroke-width="1.5" d="M0,-3.0v7 M-2.5,-0.5L0,-3.0L2.5,-0.5"/>
                </g>
                <g id="arrowDown" xlink:href="#dirArrow" transform="rotate(180) translate(-30 -48)" onmousedown="handlePan(0,1)">
                  <use xlink:href="#rim" fill="#404040">
                        <set attributeName="fill" to="#808080" begin="arrowDown.mouseover" end="arrowDown.mouseout"/>
                  </use>
                  <path fill="none" stroke="white" stroke-width="1.5" d="M0,-3.0v7 M-2.5,-0.5L0,-3.0L2.5,-0.5"/>
                </g>
                <g id="arrowLeft" xlink:href="#dirArrow" transform="rotate(270) translate(-36 17)" onmousedown="handlePan(-1,0)">
                  <use xlink:href="#rim" fill="#404040">
                        <set attributeName="fill" to="#808080" begin="arrowLeft.mouseover" end="arrowLeft.mouseout"/>
                  </use>
                  <path fill="none" stroke="white" stroke-width="1.5" d="M0,-3.0v7 M-2.5,-0.5L0,-3.0L2.5,-0.5"/>
                </g>
        </g>
        <svg viewBox="0 0 15 15" width="100%" height="30px" preserveAspectRatio="xMaxYMin meet">
         <g id="arrow_out" transform="scale(0.3 0.3)">
          <a xlink:href="matrix__util_8h__incl_org.svg" target="_base">
           <rect id="button" ry="5" rx="5" y="6" x="6" height="38" width="38"
                fill="#f2f5e9" fill-opacity="0.5" stroke="#606060" stroke-width="1.0"/>
           <path id="arrow"
             d="M 11.500037,31.436501 C 11.940474,20.09759 22.043105,11.32322 32.158766,21.979434 L 37.068811,17.246167 C 37.068811,17.246167 37.088388,32 37.088388,32 L 22.160133,31.978069 C 22.160133,31.978069 26.997745,27.140456 26.997745,27.140456 C 18.528582,18.264221 13.291696,25.230495 11.500037,31.436501 z"
             style="fill:#404040;"/>
          </a>
         </g>
        </svg>
</svg>
