<?xml version="1.0" encoding="UTF-8" standalone="no"?>
<!DOCTYPE svg PUBLIC "-//W3C//DTD SVG 1.1//EN"
 "http://www.w3.org/Graphics/SVG/1.1/DTD/svg11.dtd">
<!-- Generated by graphviz version 2.40.1 (20161225.0304)
 -->
<!-- Title: drake/geometry/proximity/mesh_half_space_intersection.h Pages: 1 -->
<svg width="184pt" height="106pt"
 viewBox="0.00 0.00 184.00 106.00" xmlns="http://www.w3.org/2000/svg" xmlns:xlink="http://www.w3.org/1999/xlink">
<g id="graph0" class="graph" transform="scale(1 1) rotate(0) translate(4 102)">
<title>drake/geometry/proximity/mesh_half_space_intersection.h</title>
<polygon fill="#ffffff" stroke="transparent" points="-4,4 -4,-102 180,-102 180,4 -4,4"/>
<!-- Node93 -->
<g id="node1" class="node">
<title>Node93</title>
<g id="a_node1"><a xlink:title=" ">
<polygon fill="#bfbfbf" stroke="#000000" points="0,-67.5 0,-97.5 176,-97.5 176,-67.5 0,-67.5"/>
<text text-anchor="start" x="8" y="-85.5" font-family="Helvetica,sans-Serif" font-size="10.00" fill="#000000">drake/geometry/proximity</text>
<text text-anchor="middle" x="88" y="-74.5" font-family="Helvetica,sans-Serif" font-size="10.00" fill="#000000">/mesh_half_space_intersection.h</text>
</a>
</g>
</g>
<!-- Node94 -->
<g id="node2" class="node">
<title>Node94</title>
<g id="a_node2"><a xlink:href="hydroelastic__callback_8h.html" target="_top" xlink:title=" ">
<polygon fill="#ffffff" stroke="#000000" points="15.5,-.5 15.5,-30.5 160.5,-30.5 160.5,-.5 15.5,-.5"/>
<text text-anchor="start" x="23.5" y="-18.5" font-family="Helvetica,sans-Serif" font-size="10.00" fill="#000000">drake/geometry/proximity</text>
<text text-anchor="middle" x="88" y="-7.5" font-family="Helvetica,sans-Serif" font-size="10.00" fill="#000000">/hydroelastic_callback.h</text>
</a>
</g>
</g>
<!-- Node93&#45;&gt;Node94 -->
<g id="edge1" class="edge">
<title>Node93&#45;&gt;Node94</title>
<path fill="none" stroke="#191970" d="M88,-57.0249C88,-48.128 88,-38.4287 88,-30.6432"/>
<polygon fill="#191970" stroke="#191970" points="84.5001,-57.2966 88,-67.2967 91.5001,-57.2967 84.5001,-57.2966"/>
</g>
</g>
</svg>
