<?xml version="1.0" encoding="UTF-8" standalone="no"?>
<!DOCTYPE svg PUBLIC "-//W3C//DTD SVG 1.1//EN"
 "http://www.w3.org/Graphics/SVG/1.1/DTD/svg11.dtd">
<!-- Generated by graphviz version 2.40.1 (20161225.0304)
 -->
<!-- Title: drake/solvers/mixed_integer_optimization_util.h Pages: 1 -->
<svg width="171pt" height="117pt"
 viewBox="0.00 0.00 171.00 117.00" xmlns="http://www.w3.org/2000/svg" xmlns:xlink="http://www.w3.org/1999/xlink">
<g id="graph0" class="graph" transform="scale(1 1) rotate(0) translate(4 113)">
<title>drake/solvers/mixed_integer_optimization_util.h</title>
<polygon fill="#ffffff" stroke="transparent" points="-4,4 -4,-113 167,-113 167,4 -4,4"/>
<!-- Node93 -->
<g id="node1" class="node">
<title>Node93</title>
<g id="a_node1"><a xlink:title=" ">
<polygon fill="#bfbfbf" stroke="#000000" points="20,-67.5 20,-108.5 143,-108.5 143,-67.5 20,-67.5"/>
<text text-anchor="start" x="28" y="-96.5" font-family="Helvetica,sans-Serif" font-size="10.00" fill="#000000">drake/solvers/mixed</text>
<text text-anchor="start" x="28" y="-85.5" font-family="Helvetica,sans-Serif" font-size="10.00" fill="#000000">_integer_optimization</text>
<text text-anchor="middle" x="81.5" y="-74.5" font-family="Helvetica,sans-Serif" font-size="10.00" fill="#000000">_util.h</text>
</a>
</g>
</g>
<!-- Node94 -->
<g id="node2" class="node">
<title>Node94</title>
<g id="a_node2"><a xlink:href="mixed__integer__rotation__constraint_8h.html" target="_top" xlink:title=" ">
<polygon fill="#ffffff" stroke="#000000" points="0,-.5 0,-30.5 163,-30.5 163,-.5 0,-.5"/>
<text text-anchor="start" x="8" y="-18.5" font-family="Helvetica,sans-Serif" font-size="10.00" fill="#000000">drake/solvers/mixed</text>
<text text-anchor="middle" x="81.5" y="-7.5" font-family="Helvetica,sans-Serif" font-size="10.00" fill="#000000">_integer_rotation_constraint.h</text>
</a>
</g>
</g>
<!-- Node93&#45;&gt;Node94 -->
<g id="edge1" class="edge">
<title>Node93&#45;&gt;Node94</title>
<path fill="none" stroke="#191970" d="M81.5,-57.3279C81.5,-48.0871 81.5,-38.3508 81.5,-30.5991"/>
<polygon fill="#191970" stroke="#191970" points="78.0001,-57.4183 81.5,-67.4183 85.0001,-57.4184 78.0001,-57.4183"/>
</g>
</g>
</svg>
