<?xml version="1.0" encoding="UTF-8" standalone="no"?>
<!DOCTYPE svg PUBLIC "-//W3C//DTD SVG 1.1//EN"
 "http://www.w3.org/Graphics/SVG/1.1/DTD/svg11.dtd">
<!-- Generated by graphviz version 2.40.1 (20161225.0304)
 -->
<!-- Title: drake/solvers/moby_lcp_solver.h Pages: 1 -->
<svg width="197pt" height="173pt"
 viewBox="0.00 0.00 196.50 173.00" xmlns="http://www.w3.org/2000/svg" xmlns:xlink="http://www.w3.org/1999/xlink">
<g id="graph0" class="graph" transform="scale(1 1) rotate(0) translate(4 169)">
<title>drake/solvers/moby_lcp_solver.h</title>
<polygon fill="#ffffff" stroke="transparent" points="-4,4 -4,-169 192.5,-169 192.5,4 -4,4"/>
<!-- Node102 -->
<g id="node1" class="node">
<title>Node102</title>
<g id="a_node1"><a xlink:title=" ">
<polygon fill="#bfbfbf" stroke="#000000" points="6.5,-134.5 6.5,-164.5 119.5,-164.5 119.5,-134.5 6.5,-134.5"/>
<text text-anchor="start" x="14.5" y="-152.5" font-family="Helvetica,sans-Serif" font-size="10.00" fill="#000000">drake/solvers/moby</text>
<text text-anchor="middle" x="63" y="-141.5" font-family="Helvetica,sans-Serif" font-size="10.00" fill="#000000">_lcp_solver.h</text>
</a>
</g>
</g>
<!-- Node103 -->
<g id="node2" class="node">
<title>Node103</title>
<g id="a_node2"><a xlink:href="rod2d_8h.html" target="_top" xlink:title=" ">
<polygon fill="#ffffff" stroke="#000000" points="0,-.5 0,-30.5 126,-30.5 126,-.5 0,-.5"/>
<text text-anchor="start" x="8" y="-18.5" font-family="Helvetica,sans-Serif" font-size="10.00" fill="#000000">drake/examples/rod2d</text>
<text text-anchor="middle" x="63" y="-7.5" font-family="Helvetica,sans-Serif" font-size="10.00" fill="#000000">/rod2d.h</text>
</a>
</g>
</g>
<!-- Node102&#45;&gt;Node103 -->
<g id="edge1" class="edge">
<title>Node102&#45;&gt;Node103</title>
<path fill="none" stroke="#191970" d="M44.5333,-125.9251C39.0681,-117.5778 33.8002,-107.8123 31,-98 27.2191,-84.7512 27.2191,-80.2488 31,-67 34.8131,-53.6386 43.2017,-40.3639 50.4336,-30.6388"/>
<polygon fill="#191970" stroke="#191970" points="41.834,-128.1726 50.4336,-134.3612 47.5703,-124.1606 41.834,-128.1726"/>
</g>
<!-- Node104 -->
<g id="node3" class="node">
<title>Node104</title>
<g id="a_node3"><a xlink:href="constraint__solver_8h.html" target="_top" xlink:title=" ">
<polygon fill="#ffffff" stroke="#000000" points="39.5,-67.5 39.5,-97.5 188.5,-97.5 188.5,-67.5 39.5,-67.5"/>
<text text-anchor="start" x="47.5" y="-85.5" font-family="Helvetica,sans-Serif" font-size="10.00" fill="#000000">drake/multibody/constraint</text>
<text text-anchor="middle" x="114" y="-74.5" font-family="Helvetica,sans-Serif" font-size="10.00" fill="#000000">/constraint_solver.h</text>
</a>
</g>
</g>
<!-- Node102&#45;&gt;Node104 -->
<g id="edge2" class="edge">
<title>Node102&#45;&gt;Node104</title>
<path fill="none" stroke="#191970" d="M80.8404,-126.0626C88.0193,-116.6315 96.0909,-106.0276 102.4731,-97.6432"/>
<polygon fill="#191970" stroke="#191970" points="77.8446,-124.2197 74.5727,-134.2967 83.4146,-128.4595 77.8446,-124.2197"/>
</g>
<!-- Node104&#45;&gt;Node103 -->
<g id="edge3" class="edge">
<title>Node104&#45;&gt;Node103</title>
<path fill="none" stroke="#191970" d="M96.1596,-59.0626C88.9807,-49.6315 80.9091,-39.0276 74.5269,-30.6432"/>
<polygon fill="#191970" stroke="#191970" points="93.5854,-61.4595 102.4273,-67.2967 99.1554,-57.2197 93.5854,-61.4595"/>
</g>
</g>
</svg>
