<?xml version="1.0" encoding="UTF-8" standalone="no"?>
<!DOCTYPE svg PUBLIC "-//W3C//DTD SVG 1.1//EN"
 "http://www.w3.org/Graphics/SVG/1.1/DTD/svg11.dtd">
<!-- Generated by graphviz version 2.40.1 (20161225.0304)
 -->
<!-- Title: drake/solvers/fbstab/components/mpc_data.h Pages: 1 -->
<svg width="545pt" height="318pt"
 viewBox="0.00 0.00 545.17 318.00" xmlns="http://www.w3.org/2000/svg" xmlns:xlink="http://www.w3.org/1999/xlink">
<g id="graph0" class="graph" transform="scale(1 1) rotate(0) translate(4 314)">
<title>drake/solvers/fbstab/components/mpc_data.h</title>
<polygon fill="#ffffff" stroke="transparent" points="-4,4 -4,-314 541.1743,-314 541.1743,4 -4,4"/>
<!-- Node4 -->
<g id="node1" class="node">
<title>Node4</title>
<g id="a_node1"><a xlink:title=" ">
<polygon fill="#bfbfbf" stroke="#000000" points="142.1743,-279.5 142.1743,-309.5 282.1743,-309.5 282.1743,-279.5 142.1743,-279.5"/>
<text text-anchor="start" x="150.1743" y="-297.5" font-family="Helvetica,sans-Serif" font-size="10.00" fill="#000000">drake/solvers/fbstab</text>
<text text-anchor="middle" x="212.1743" y="-286.5" font-family="Helvetica,sans-Serif" font-size="10.00" fill="#000000">/components/mpc_data.h</text>
</a>
</g>
</g>
<!-- Node5 -->
<g id="node2" class="node">
<title>Node5</title>
<g id="a_node2"><a xlink:href="mpc__feasibility_8h.html" target="_top" xlink:title=" ">
<polygon fill="#ffffff" stroke="#000000" points="17.6743,-145.5 17.6743,-175.5 184.6743,-175.5 184.6743,-145.5 17.6743,-145.5"/>
<text text-anchor="start" x="25.6743" y="-163.5" font-family="Helvetica,sans-Serif" font-size="10.00" fill="#000000">drake/solvers/fbstab</text>
<text text-anchor="middle" x="101.1743" y="-152.5" font-family="Helvetica,sans-Serif" font-size="10.00" fill="#000000">/components/mpc_feasibility.h</text>
</a>
</g>
</g>
<!-- Node4&#45;&gt;Node5 -->
<g id="edge1" class="edge">
<title>Node4&#45;&gt;Node5</title>
<path fill="none" stroke="#191970" d="M193.1222,-271.5001C170.4445,-244.1235 133.2127,-199.177 113.8162,-175.7614"/>
<polygon fill="#191970" stroke="#191970" points="190.5823,-273.9207 199.6569,-279.389 195.9731,-269.4552 190.5823,-273.9207"/>
</g>
<!-- Node6 -->
<g id="node3" class="node">
<title>Node6</title>
<g id="a_node3"><a xlink:href="fbstab__mpc_8h.html" target="_top" xlink:title=" ">
<polygon fill="#ffffff" stroke="#000000" points="223.1743,-.5 223.1743,-30.5 339.1743,-30.5 339.1743,-.5 223.1743,-.5"/>
<text text-anchor="start" x="231.1743" y="-18.5" font-family="Helvetica,sans-Serif" font-size="10.00" fill="#000000">drake/solvers/fbstab</text>
<text text-anchor="middle" x="281.1743" y="-7.5" font-family="Helvetica,sans-Serif" font-size="10.00" fill="#000000">/fbstab_mpc.h</text>
</a>
</g>
</g>
<!-- Node4&#45;&gt;Node6 -->
<g id="edge13" class="edge">
<title>Node4&#45;&gt;Node6</title>
<path fill="none" stroke="#191970" d="M145.1211,-276.4996C71.9701,-253.2578 -29.8597,-208.1583 9.1743,-145 55.2994,-70.368 157.7676,-37.9396 222.9333,-24.4508"/>
<polygon fill="#191970" stroke="#191970" points="144.1973,-279.8775 154.7853,-279.4976 146.2714,-273.1918 144.1973,-279.8775"/>
</g>
<!-- Node7 -->
<g id="node4" class="node">
<title>Node7</title>
<g id="a_node4"><a xlink:href="mpc__residual_8h.html" target="_top" xlink:title=" ">
<polygon fill="#ffffff" stroke="#000000" points="202.6743,-145.5 202.6743,-175.5 359.6743,-175.5 359.6743,-145.5 202.6743,-145.5"/>
<text text-anchor="start" x="210.6743" y="-163.5" font-family="Helvetica,sans-Serif" font-size="10.00" fill="#000000">drake/solvers/fbstab</text>
<text text-anchor="middle" x="281.1743" y="-152.5" font-family="Helvetica,sans-Serif" font-size="10.00" fill="#000000">/components/mpc_residual.h</text>
</a>
</g>
</g>
<!-- Node4&#45;&gt;Node7 -->
<g id="edge3" class="edge">
<title>Node4&#45;&gt;Node7</title>
<path fill="none" stroke="#191970" d="M214.4338,-269.055C216.7833,-252.0669 221.5478,-229.6846 231.1743,-212 238.8004,-197.9902 251.3004,-185.1152 261.8939,-175.7427"/>
<polygon fill="#191970" stroke="#191970" points="210.9166,-268.9929 213.2118,-279.3361 217.8677,-269.8191 210.9166,-268.9929"/>
</g>
<!-- Node8 -->
<g id="node5" class="node">
<title>Node8</title>
<g id="a_node5"><a xlink:href="riccati__linear__solver_8h.html" target="_top" xlink:title=" ">
<polygon fill="#ffffff" stroke="#000000" points="391.1743,-67.5 391.1743,-108.5 537.1743,-108.5 537.1743,-67.5 391.1743,-67.5"/>
<text text-anchor="start" x="399.1743" y="-96.5" font-family="Helvetica,sans-Serif" font-size="10.00" fill="#000000">drake/solvers/fbstab</text>
<text text-anchor="start" x="399.1743" y="-85.5" font-family="Helvetica,sans-Serif" font-size="10.00" fill="#000000">/components/riccati_linear</text>
<text text-anchor="middle" x="464.1743" y="-74.5" font-family="Helvetica,sans-Serif" font-size="10.00" fill="#000000">_solver.h</text>
</a>
</g>
</g>
<!-- Node4&#45;&gt;Node8 -->
<g id="edge12" class="edge">
<title>Node4&#45;&gt;Node8</title>
<path fill="none" stroke="#191970" d="M292.2874,-281.0616C338.1806,-271.9117 389.9837,-258.6432 407.1743,-243 446.5111,-207.204 458.7686,-141.9002 462.5365,-108.6468"/>
<polygon fill="#191970" stroke="#191970" points="291.4425,-277.6603 282.2966,-283.0085 292.7815,-284.531 291.4425,-277.6603"/>
</g>
<!-- Node9 -->
<g id="node6" class="node">
<title>Node9</title>
<g id="a_node6"><a xlink:href="mpc__variable_8h.html" target="_top" xlink:title=" ">
<polygon fill="#ffffff" stroke="#000000" points="240.1743,-212.5 240.1743,-242.5 398.1743,-242.5 398.1743,-212.5 240.1743,-212.5"/>
<text text-anchor="start" x="248.1743" y="-230.5" font-family="Helvetica,sans-Serif" font-size="10.00" fill="#000000">drake/solvers/fbstab</text>
<text text-anchor="middle" x="319.1743" y="-219.5" font-family="Helvetica,sans-Serif" font-size="10.00" fill="#000000">/components/mpc_variable.h</text>
</a>
</g>
</g>
<!-- Node4&#45;&gt;Node9 -->
<g id="edge7" class="edge">
<title>Node4&#45;&gt;Node9</title>
<path fill="none" stroke="#191970" d="M244.7916,-274.0761C260.9193,-263.9774 280.0501,-251.9983 294.8713,-242.7177"/>
<polygon fill="#191970" stroke="#191970" points="242.8052,-271.1903 236.1872,-279.4639 246.5202,-277.1232 242.8052,-271.1903"/>
</g>
<!-- Node5&#45;&gt;Node6 -->
<g id="edge2" class="edge">
<title>Node5&#45;&gt;Node6</title>
<path fill="none" stroke="#191970" d="M127.9543,-138.9272C164.8705,-109.1892 230.4572,-56.3554 262.5049,-30.5392"/>
<polygon fill="#191970" stroke="#191970" points="125.6891,-136.2575 120.0972,-145.2565 130.0805,-141.7088 125.6891,-136.2575"/>
</g>
<!-- Node7&#45;&gt;Node6 -->
<g id="edge6" class="edge">
<title>Node7&#45;&gt;Node6</title>
<path fill="none" stroke="#191970" d="M281.1743,-135.0601C281.1743,-104.7971 281.1743,-55.2707 281.1743,-30.5392"/>
<polygon fill="#191970" stroke="#191970" points="277.6744,-135.2565 281.1743,-145.2565 284.6744,-135.2566 277.6744,-135.2565"/>
</g>
<!-- Node7&#45;&gt;Node8 -->
<g id="edge4" class="edge">
<title>Node7&#45;&gt;Node8</title>
<path fill="none" stroke="#191970" d="M328.6175,-141.7042C354.312,-131.5247 386.0947,-118.9332 412.4257,-108.5015"/>
<polygon fill="#191970" stroke="#191970" points="327.0998,-138.5407 319.092,-145.478 329.6781,-145.0486 327.0998,-138.5407"/>
</g>
<!-- Node8&#45;&gt;Node6 -->
<g id="edge5" class="edge">
<title>Node8&#45;&gt;Node6</title>
<path fill="none" stroke="#191970" d="M402.6528,-63.6267C375.0592,-52.6948 343.3763,-40.1429 319.2865,-30.5991"/>
<polygon fill="#191970" stroke="#191970" points="401.6372,-66.989 412.2233,-67.4183 404.2155,-60.4811 401.6372,-66.989"/>
</g>
<!-- Node9&#45;&gt;Node5 -->
<g id="edge8" class="edge">
<title>Node9&#45;&gt;Node5</title>
<path fill="none" stroke="#191970" d="M260.3218,-209.4123C225.8892,-198.8298 182.9194,-185.6235 150.3111,-175.6017"/>
<polygon fill="#191970" stroke="#191970" points="259.6638,-212.8716 270.2508,-212.4639 261.7203,-206.1805 259.6638,-212.8716"/>
</g>
<!-- Node9&#45;&gt;Node6 -->
<g id="edge11" class="edge">
<title>Node9&#45;&gt;Node6</title>
<path fill="none" stroke="#191970" d="M347.7015,-205.6569C356.2749,-197.4027 364.6099,-187.2539 369.1743,-176 374.3526,-163.2324 373.2252,-158.1688 369.1743,-145 354.7884,-98.2345 317.1268,-53.2101 296.0331,-30.5986"/>
<polygon fill="#191970" stroke="#191970" points="345.2931,-203.1156 340.1947,-212.4031 349.9721,-208.3221 345.2931,-203.1156"/>
</g>
<!-- Node9&#45;&gt;Node7 -->
<g id="edge9" class="edge">
<title>Node9&#45;&gt;Node7</title>
<path fill="none" stroke="#191970" d="M305.5531,-203.4837C300.2875,-194.1996 294.4213,-183.8565 289.7629,-175.6432"/>
<polygon fill="#191970" stroke="#191970" points="302.5736,-205.325 310.5515,-212.2967 308.6625,-201.8716 302.5736,-205.325"/>
</g>
<!-- Node9&#45;&gt;Node8 -->
<g id="edge10" class="edge">
<title>Node9&#45;&gt;Node8</title>
<path fill="none" stroke="#191970" d="M358.4956,-207.4757C373.1341,-198.941 389.302,-188.1413 402.1743,-176 423.383,-155.9956 441.7666,-127.6938 452.8925,-108.6355"/>
<polygon fill="#191970" stroke="#191970" points="356.6069,-204.5227 349.6218,-212.4888 360.0501,-210.6174 356.6069,-204.5227"/>
</g>
</g>
</svg>
