<?xml version="1.0" encoding="UTF-8" standalone="no"?>
<!DOCTYPE svg PUBLIC "-//W3C//DTD SVG 1.1//EN"
 "http://www.w3.org/Graphics/SVG/1.1/DTD/svg11.dtd">
<!-- Generated by graphviz version 2.40.1 (20161225.0304)
 -->
<!-- Title: drake/solvers/fbstab/components/mpc_residual.h Pages: 1 -->
<svg width="210pt" height="184pt"
 viewBox="0.00 0.00 209.50 184.00" xmlns="http://www.w3.org/2000/svg" xmlns:xlink="http://www.w3.org/1999/xlink">
<g id="graph0" class="graph" transform="scale(1 1) rotate(0) translate(4 180)">
<title>drake/solvers/fbstab/components/mpc_residual.h</title>
<polygon fill="#ffffff" stroke="transparent" points="-4,4 -4,-180 205.5,-180 205.5,4 -4,4"/>
<!-- Node7 -->
<g id="node1" class="node">
<title>Node7</title>
<g id="a_node1"><a xlink:title=" ">
<polygon fill="#bfbfbf" stroke="#000000" points="44.5,-145.5 44.5,-175.5 201.5,-175.5 201.5,-145.5 44.5,-145.5"/>
<text text-anchor="start" x="52.5" y="-163.5" font-family="Helvetica,sans-Serif" font-size="10.00" fill="#000000">drake/solvers/fbstab</text>
<text text-anchor="middle" x="123" y="-152.5" font-family="Helvetica,sans-Serif" font-size="10.00" fill="#000000">/components/mpc_residual.h</text>
</a>
</g>
</g>
<!-- Node8 -->
<g id="node2" class="node">
<title>Node8</title>
<g id="a_node2"><a xlink:href="riccati__linear__solver_8h.html" target="_top" xlink:title=" ">
<polygon fill="#ffffff" stroke="#000000" points="0,-67.5 0,-108.5 146,-108.5 146,-67.5 0,-67.5"/>
<text text-anchor="start" x="8" y="-96.5" font-family="Helvetica,sans-Serif" font-size="10.00" fill="#000000">drake/solvers/fbstab</text>
<text text-anchor="start" x="8" y="-85.5" font-family="Helvetica,sans-Serif" font-size="10.00" fill="#000000">/components/riccati_linear</text>
<text text-anchor="middle" x="73" y="-74.5" font-family="Helvetica,sans-Serif" font-size="10.00" fill="#000000">_solver.h</text>
</a>
</g>
</g>
<!-- Node7&#45;&gt;Node8 -->
<g id="edge1" class="edge">
<title>Node7&#45;&gt;Node8</title>
<path fill="none" stroke="#191970" d="M106.8799,-137.1258C100.5237,-127.9094 93.2874,-117.4167 87.139,-108.5015"/>
<polygon fill="#191970" stroke="#191970" points="104.0813,-139.2329 112.64,-145.478 109.8438,-135.2587 104.0813,-139.2329"/>
</g>
<!-- Node9 -->
<g id="node3" class="node">
<title>Node9</title>
<g id="a_node3"><a xlink:href="fbstab__mpc_8h.html" target="_top" xlink:title=" ">
<polygon fill="#ffffff" stroke="#000000" points="65,-.5 65,-30.5 181,-30.5 181,-.5 65,-.5"/>
<text text-anchor="start" x="73" y="-18.5" font-family="Helvetica,sans-Serif" font-size="10.00" fill="#000000">drake/solvers/fbstab</text>
<text text-anchor="middle" x="123" y="-7.5" font-family="Helvetica,sans-Serif" font-size="10.00" fill="#000000">/fbstab_mpc.h</text>
</a>
</g>
</g>
<!-- Node7&#45;&gt;Node9 -->
<g id="edge3" class="edge">
<title>Node7&#45;&gt;Node9</title>
<path fill="none" stroke="#191970" d="M141.4667,-136.9251C146.9319,-128.5778 152.1998,-118.8123 155,-109 160.1225,-91.05 160.1225,-84.95 155,-67 151.1869,-53.6386 142.7983,-40.3639 135.5664,-30.6388"/>
<polygon fill="#191970" stroke="#191970" points="138.4297,-135.1606 135.5664,-145.3612 144.166,-139.1726 138.4297,-135.1606"/>
</g>
<!-- Node8&#45;&gt;Node9 -->
<g id="edge2" class="edge">
<title>Node8&#45;&gt;Node9</title>
<path fill="none" stroke="#191970" d="M92.9244,-59.1096C99.6541,-49.3516 106.8959,-38.8509 112.5868,-30.5991"/>
<polygon fill="#191970" stroke="#191970" points="89.9904,-57.1991 87.1943,-67.4183 95.7529,-61.1733 89.9904,-57.1991"/>
</g>
</g>
</svg>
