<?xml version="1.0" encoding="UTF-8" standalone="no"?>
<!DOCTYPE svg PUBLIC "-//W3C//DTD SVG 1.1//EN"
 "http://www.w3.org/Graphics/SVG/1.1/DTD/svg11.dtd">
<!-- Generated by graphviz version 2.40.1 (20161225.0304)
 -->
<!-- Title: drake/solvers/fbstab/components/mpc_feasibility.h Pages: 1 -->
<svg width="353pt" height="240pt"
 viewBox="0.00 0.00 352.98 240.00" xmlns="http://www.w3.org/2000/svg" xmlns:xlink="http://www.w3.org/1999/xlink">
<g id="graph0" class="graph" transform="scale(1 1) rotate(0) translate(4 236)">
<title>drake/solvers/fbstab/components/mpc_feasibility.h</title>
<polygon fill="#ffffff" stroke="transparent" points="-4,4 -4,-236 348.9785,-236 348.9785,4 -4,4"/>
<!-- Node0 -->
<g id="node1" class="node">
<title>Node0</title>
<g id="a_node1"><a xlink:title=" ">
<polygon fill="#bfbfbf" stroke="#000000" points="97,-201.5 97,-231.5 264,-231.5 264,-201.5 97,-201.5"/>
<text text-anchor="start" x="105" y="-219.5" font-family="Helvetica,sans-Serif" font-size="10.00" fill="#000000">drake/solvers/fbstab</text>
<text text-anchor="middle" x="180.5" y="-208.5" font-family="Helvetica,sans-Serif" font-size="10.00" fill="#000000">/components/mpc_feasibility.h</text>
</a>
</g>
</g>
<!-- Node1 -->
<g id="node2" class="node">
<title>Node1</title>
<g id="a_node2"><a xlink:title=" ">
<polygon fill="#ffffff" stroke="#bfbfbf" points="0,-6 0,-25 77,-25 77,-6 0,-6"/>
<text text-anchor="middle" x="38.5" y="-13" font-family="Helvetica,sans-Serif" font-size="10.00" fill="#000000">Eigen/Dense</text>
</a>
</g>
</g>
<!-- Node0&#45;&gt;Node1 -->
<g id="edge1" class="edge">
<title>Node0&#45;&gt;Node1</title>
<path fill="none" stroke="#191970" d="M149.8028,-201.4394C115.373,-182.624 61.3635,-146.8586 38.5,-98 29.2375,-78.2064 31.0161,-52.7009 33.9648,-35.3235"/>
<polygon fill="#191970" stroke="#191970" points="37.4564,-35.7091 35.9673,-25.2195 30.59,-34.3482 37.4564,-35.7091"/>
</g>
<!-- Node2 -->
<g id="node3" class="node">
<title>Node2</title>
<g id="a_node3"><a xlink:href="drake__copyable_8h.html" target="_top" xlink:title="Provides careful macros to selectively enable or disable the special member functions for copy&#45;constr...">
<polygon fill="#ffffff" stroke="#000000" points="176,-.5 176,-30.5 297,-30.5 297,-.5 176,-.5"/>
<text text-anchor="start" x="184" y="-18.5" font-family="Helvetica,sans-Serif" font-size="10.00" fill="#000000">drake/common/drake</text>
<text text-anchor="middle" x="236.5" y="-7.5" font-family="Helvetica,sans-Serif" font-size="10.00" fill="#000000">_copyable.h</text>
</a>
</g>
</g>
<!-- Node0&#45;&gt;Node2 -->
<g id="edge2" class="edge">
<title>Node0&#45;&gt;Node2</title>
<path fill="none" stroke="#191970" d="M241.054,-201.4446C274.7034,-191.8016 311.881,-178.5843 322.5,-165 349.3928,-130.5973 351.6703,-104.6197 329.5,-67 321.4289,-53.3045 308.2611,-42.995 294.3399,-35.3433"/>
<polygon fill="#191970" stroke="#191970" points="295.6327,-32.0752 285.1288,-30.69 292.4763,-38.3232 295.6327,-32.0752"/>
</g>
<!-- Node3 -->
<g id="node4" class="node">
<title>Node3</title>
<g id="a_node4"><a xlink:href="mpc__data_8h.html" target="_top" xlink:title=" ">
<polygon fill="#ffffff" stroke="#000000" points="66.5,-67.5 66.5,-97.5 206.5,-97.5 206.5,-67.5 66.5,-67.5"/>
<text text-anchor="start" x="74.5" y="-85.5" font-family="Helvetica,sans-Serif" font-size="10.00" fill="#000000">drake/solvers/fbstab</text>
<text text-anchor="middle" x="136.5" y="-74.5" font-family="Helvetica,sans-Serif" font-size="10.00" fill="#000000">/components/mpc_data.h</text>
</a>
</g>
</g>
<!-- Node0&#45;&gt;Node3 -->
<g id="edge3" class="edge">
<title>Node0&#45;&gt;Node3</title>
<path fill="none" stroke="#191970" d="M167.7291,-201.3001C160.2639,-191.5521 151.3767,-178.2747 146.5,-165 139.7251,-146.5585 137.3283,-124.3933 136.5688,-107.6837"/>
<polygon fill="#191970" stroke="#191970" points="140.0644,-107.4794 136.2765,-97.5848 133.0673,-107.6819 140.0644,-107.4794"/>
</g>
<!-- Node5 -->
<g id="node6" class="node">
<title>Node5</title>
<g id="a_node6"><a xlink:href="mpc__variable_8h.html" target="_top" xlink:title=" ">
<polygon fill="#ffffff" stroke="#000000" points="155.5,-134.5 155.5,-164.5 313.5,-164.5 313.5,-134.5 155.5,-134.5"/>
<text text-anchor="start" x="163.5" y="-152.5" font-family="Helvetica,sans-Serif" font-size="10.00" fill="#000000">drake/solvers/fbstab</text>
<text text-anchor="middle" x="234.5" y="-141.5" font-family="Helvetica,sans-Serif" font-size="10.00" fill="#000000">/components/mpc_variable.h</text>
</a>
</g>
</g>
<!-- Node0&#45;&gt;Node5 -->
<g id="edge7" class="edge">
<title>Node0&#45;&gt;Node5</title>
<path fill="none" stroke="#191970" d="M192.7534,-201.2967C199.5886,-192.816 208.2427,-182.0785 215.8969,-172.5817"/>
<polygon fill="#191970" stroke="#191970" points="218.7449,-174.6255 222.2951,-164.6432 213.2947,-170.2328 218.7449,-174.6255"/>
</g>
<!-- Node3&#45;&gt;Node1 -->
<g id="edge5" class="edge">
<title>Node3&#45;&gt;Node1</title>
<path fill="none" stroke="#191970" d="M114.2623,-67.2967C98.2522,-56.351 76.7437,-41.6462 60.7344,-30.701"/>
<polygon fill="#191970" stroke="#191970" points="62.7064,-27.8095 52.4759,-25.055 58.7557,-33.5881 62.7064,-27.8095"/>
</g>
<!-- Node3&#45;&gt;Node2 -->
<g id="edge6" class="edge">
<title>Node3&#45;&gt;Node2</title>
<path fill="none" stroke="#191970" d="M159.1915,-67.2967C172.8722,-58.1306 190.4874,-46.3285 205.447,-36.3055"/>
<polygon fill="#191970" stroke="#191970" points="207.5387,-39.1171 213.8983,-30.6432 203.6424,-33.3017 207.5387,-39.1171"/>
</g>
<!-- Node4 -->
<g id="node5" class="node">
<title>Node4</title>
<g id="a_node5"><a xlink:title=" ">
<polygon fill="#ffffff" stroke="#bfbfbf" points="111,-6 111,-25 158,-25 158,-6 111,-6"/>
<text text-anchor="middle" x="134.5" y="-13" font-family="Helvetica,sans-Serif" font-size="10.00" fill="#000000">vector</text>
</a>
</g>
</g>
<!-- Node3&#45;&gt;Node4 -->
<g id="edge4" class="edge">
<title>Node3&#45;&gt;Node4</title>
<path fill="none" stroke="#191970" d="M136.0462,-67.2967C135.7618,-57.7699 135.3924,-45.3954 135.086,-35.1306"/>
<polygon fill="#191970" stroke="#191970" points="138.5821,-34.9461 134.7852,-25.055 131.5853,-35.155 138.5821,-34.9461"/>
</g>
<!-- Node5&#45;&gt;Node1 -->
<g id="edge9" class="edge">
<title>Node5&#45;&gt;Node1</title>
<path fill="none" stroke="#191970" d="M155.1162,-134.593C114.7831,-125.4614 71.4013,-112.714 57.5,-98 41.6182,-81.1897 38.0816,-53.878 37.7144,-35.324"/>
<polygon fill="#191970" stroke="#191970" points="41.2165,-35.1088 37.8133,-25.0755 34.2169,-35.0412 41.2165,-35.1088"/>
</g>
<!-- Node5&#45;&gt;Node2 -->
<g id="edge10" class="edge">
<title>Node5&#45;&gt;Node2</title>
<path fill="none" stroke="#191970" d="M234.7255,-134.389C235.0646,-111.6691 235.7099,-68.438 236.1218,-40.8405"/>
<polygon fill="#191970" stroke="#191970" points="239.6225,-40.8126 236.2722,-30.7614 232.6233,-40.708 239.6225,-40.8126"/>
</g>
<!-- Node5&#45;&gt;Node3 -->
<g id="edge11" class="edge">
<title>Node5&#45;&gt;Node3</title>
<path fill="none" stroke="#191970" d="M212.2623,-134.2967C198.8553,-125.1306 181.5924,-113.3285 166.932,-103.3055"/>
<polygon fill="#191970" stroke="#191970" points="168.8802,-100.3977 158.6497,-97.6432 164.9295,-106.1763 168.8802,-100.3977"/>
</g>
<!-- Node6 -->
<g id="node7" class="node">
<title>Node6</title>
<g id="a_node7"><a xlink:title=" ">
<polygon fill="#ffffff" stroke="#bfbfbf" points="262.5,-73 262.5,-92 320.5,-92 320.5,-73 262.5,-73"/>
<text text-anchor="middle" x="291.5" y="-80" font-family="Helvetica,sans-Serif" font-size="10.00" fill="#000000">memory</text>
</a>
</g>
</g>
<!-- Node5&#45;&gt;Node6 -->
<g id="edge8" class="edge">
<title>Node5&#45;&gt;Node6</title>
<path fill="none" stroke="#191970" d="M247.4342,-134.2967C256.1426,-124.0605 267.648,-110.5366 276.7186,-99.8746"/>
<polygon fill="#191970" stroke="#191970" points="279.5571,-101.9395 283.3711,-92.055 274.2255,-97.4036 279.5571,-101.9395"/>
</g>
</g>
</svg>
