<?xml version="1.0" encoding="UTF-8" standalone="no"?>
<!DOCTYPE svg PUBLIC "-//W3C//DTD SVG 1.1//EN"
 "http://www.w3.org/Graphics/SVG/1.1/DTD/svg11.dtd">
<!-- Generated by graphviz version 2.40.1 (20161225.0304)
 -->
<!-- Title: drake/multibody/topology/multibody_graph.h Pages: 1 -->
<!--zoomable 430 -->
<svg id="main" version="1.1" xmlns="http://www.w3.org/2000/svg" xmlns:xlink="http://www.w3.org/1999/xlink" xml:space="preserve" onload="init(evt)">
<style type="text/css"><![CDATA[
.edge:hover path { stroke: red; }
.edge:hover polygon { stroke: red; fill: red; }
]]></style>
<script type="text/javascript"><![CDATA[
var edges = document.getElementsByTagName('g');
if (edges && edges.length) {
  for (var i=0;i<edges.length;i++) {
    if (edges[i].id.substr(0,4)=='edge') {
      edges[i].setAttribute('class','edge');
    }
  }
}
]]></script>
        <defs>
                <circle id="rim" cx="0" cy="0" r="7"/>
                <circle id="rim2" cx="0" cy="0" r="3.5"/>
                <g id="zoomPlus">
                        <use xlink:href="#rim" fill="#404040">
                                <set attributeName="fill" to="#808080" begin="zoomplus.mouseover" end="zoomplus.mouseout"/>
                        </use>
                        <path d="M-4,0h8M0,-4v8" fill="none" stroke="white" stroke-width="1.5" pointer-events="none"/>
                </g>
                <g id="zoomMin">
                        <use xlink:href="#rim" fill="#404040">
                                <set attributeName="fill" to="#808080" begin="zoomminus.mouseover" end="zoomminus.mouseout"/>
                        </use>
                        <path d="M-4,0h8" fill="none" stroke="white" stroke-width="1.5" pointer-events="none"/>
                </g>
                <g id="dirArrow">
                        <path fill="none" stroke="white" stroke-width="1.5" d="M0,-3.0v7 M-2.5,-0.5L0,-3.0L2.5,-0.5"/>
                </g>
               <g id="resetDef">
                       <use xlink:href="#rim2" fill="#404040">
                               <set attributeName="fill" to="#808080" begin="reset.mouseover" end="reset.mouseout"/>
                       </use>
               </g>
        </defs>

<script type="text/javascript">
var viewWidth = 1247;
var viewHeight = 430;
var sectionId = 'dynsection-0';
</script>
<script xlink:href="svgpan.js"/>
<svg id="graph" class="graph">
<g id="viewport">
<title>drake/multibody/topology/multibody_graph.h</title>
<polygon fill="#ffffff" stroke="transparent" points="-4,4 -4,-426 1242.5,-426 1242.5,4 -4,4"/>
<!-- Node0 -->
<g id="node1" class="node">
<title>Node0</title>
<g id="a_node1"><a xlink:title=" ">
<polygon fill="#bfbfbf" stroke="#000000" points="353.5,-391.5 353.5,-421.5 496.5,-421.5 496.5,-391.5 353.5,-391.5"/>
<text text-anchor="start" x="361.5" y="-409.5" font-family="Helvetica,sans-Serif" font-size="10.00" fill="#000000">drake/multibody/topology</text>
<text text-anchor="middle" x="425" y="-398.5" font-family="Helvetica,sans-Serif" font-size="10.00" fill="#000000">/multibody_graph.h</text>
</a>
</g>
</g>
<!-- Node1 -->
<g id="node2" class="node">
<title>Node1</title>
<g id="a_node2"><a xlink:title=" ">
<polygon fill="#ffffff" stroke="#bfbfbf" points="485,-129 485,-148 517,-148 517,-129 485,-129"/>
<text text-anchor="middle" x="501" y="-136" font-family="Helvetica,sans-Serif" font-size="10.00" fill="#000000">set</text>
</a>
</g>
</g>
<!-- Node0&#45;&gt;Node1 -->
<g id="edge1" class="edge">
<title>Node0&#45;&gt;Node1</title>
<path fill="none" stroke="#191970" d="M437.8425,-391.2384C445.4129,-381.4672 454.548,-368.1871 460,-355 488.3352,-286.4643 497.2674,-197.5734 499.9342,-158.4597"/>
<polygon fill="#191970" stroke="#191970" points="503.4324,-158.5953 500.5534,-148.3992 496.4456,-158.1652 503.4324,-158.5953"/>
</g>
<!-- Node2 -->
<g id="node3" class="node">
<title>Node2</title>
<g id="a_node3"><a xlink:title=" ">
<polygon fill="#ffffff" stroke="#bfbfbf" points="423,-129 423,-148 467,-148 467,-129 423,-129"/>
<text text-anchor="middle" x="445" y="-136" font-family="Helvetica,sans-Serif" font-size="10.00" fill="#000000">string</text>
</a>
</g>
</g>
<!-- Node0&#45;&gt;Node2 -->
<g id="edge2" class="edge">
<title>Node0&#45;&gt;Node2</title>
<path fill="none" stroke="#191970" d="M431.8813,-391.0778C435.989,-381.027 440.8185,-367.5027 443,-355 455.4713,-283.5225 450.2723,-196.7441 446.9601,-158.3787"/>
<polygon fill="#191970" stroke="#191970" points="450.4157,-157.7343 446.0145,-148.0969 443.4452,-158.3755 450.4157,-157.7343"/>
</g>
<!-- Node3 -->
<g id="node4" class="node">
<title>Node3</title>
<g id="a_node4"><a xlink:title=" ">
<polygon fill="#ffffff" stroke="#bfbfbf" points="341.5,-330 341.5,-349 434.5,-349 434.5,-330 341.5,-330"/>
<text text-anchor="middle" x="388" y="-337" font-family="Helvetica,sans-Serif" font-size="10.00" fill="#000000">unordered_map</text>
</a>
</g>
</g>
<!-- Node0&#45;&gt;Node3 -->
<g id="edge3" class="edge">
<title>Node0&#45;&gt;Node3</title>
<path fill="none" stroke="#191970" d="M416.6041,-391.2967C411.1192,-381.3645 403.9249,-368.3371 398.1237,-357.8321"/>
<polygon fill="#191970" stroke="#191970" points="401.1748,-356.1169 393.2766,-349.055 395.047,-359.5009 401.1748,-356.1169"/>
</g>
<!-- Node4 -->
<g id="node5" class="node">
<title>Node4</title>
<g id="a_node5"><a xlink:title=" ">
<polygon fill="#ffffff" stroke="#bfbfbf" points="357.5,-129 357.5,-148 404.5,-148 404.5,-129 357.5,-129"/>
<text text-anchor="middle" x="381" y="-136" font-family="Helvetica,sans-Serif" font-size="10.00" fill="#000000">vector</text>
</a>
</g>
</g>
<!-- Node0&#45;&gt;Node4 -->
<g id="edge4" class="edge">
<title>Node0&#45;&gt;Node4</title>
<path fill="none" stroke="#191970" d="M376.3712,-391.31C359.2522,-383.3591 341.839,-371.6954 332,-355 293.3996,-289.5008 343.3921,-196.3799 368.3565,-157.1076"/>
<polygon fill="#191970" stroke="#191970" points="371.5508,-158.6178 374.0949,-148.3329 365.6924,-154.7864 371.5508,-158.6178"/>
</g>
<!-- Node5 -->
<g id="node6" class="node">
<title>Node5</title>
<g id="a_node6"><a xlink:href="drake__copyable_8h.html" target="_top" xlink:title="Provides careful macros to selectively enable or disable the special member functions for copy&#45;constr...">
<polygon fill="#ffffff" stroke="#000000" points="7.5,-56.5 7.5,-86.5 128.5,-86.5 128.5,-56.5 7.5,-56.5"/>
<text text-anchor="start" x="15.5" y="-74.5" font-family="Helvetica,sans-Serif" font-size="10.00" fill="#000000">drake/common/drake</text>
<text text-anchor="middle" x="68" y="-63.5" font-family="Helvetica,sans-Serif" font-size="10.00" fill="#000000">_copyable.h</text>
</a>
</g>
</g>
<!-- Node0&#45;&gt;Node5 -->
<g id="edge5" class="edge">
<title>Node0&#45;&gt;Node5</title>
<path fill="none" stroke="#191970" d="M353.3851,-398.8515C232.2634,-383.9076 0,-345.7069 0,-272.5 0,-272.5 0,-272.5 0,-205.5 0,-167.8735 1.1778,-156.1379 19,-123 24.7872,-112.2396 33.4263,-102.0998 41.8462,-93.7098"/>
<polygon fill="#191970" stroke="#191970" points="44.2668,-96.2378 49.1118,-86.8156 39.4486,-91.1599 44.2668,-96.2378"/>
</g>
<!-- Node6 -->
<g id="node7" class="node">
<title>Node6</title>
<g id="a_node7"><a xlink:href="multibody__tree__indexes_8h.html" target="_top" xlink:title=" ">
<polygon fill="#ffffff" stroke="#000000" points="541,-324.5 541,-354.5 687,-354.5 687,-324.5 541,-324.5"/>
<text text-anchor="start" x="549" y="-342.5" font-family="Helvetica,sans-Serif" font-size="10.00" fill="#000000">drake/multibody/tree</text>
<text text-anchor="middle" x="614" y="-331.5" font-family="Helvetica,sans-Serif" font-size="10.00" fill="#000000">/multibody_tree_indexes.h</text>
</a>
</g>
</g>
<!-- Node0&#45;&gt;Node6 -->
<g id="edge6" class="edge">
<title>Node0&#45;&gt;Node6</title>
<path fill="none" stroke="#191970" d="M467.4153,-391.4639C495.283,-381.5849 531.9389,-368.5905 561.623,-358.0675"/>
<polygon fill="#191970" stroke="#191970" points="563.1439,-361.2418 571.3997,-354.6017 560.805,-354.6441 563.1439,-361.2418"/>
</g>
<!-- Node7 -->
<g id="node8" class="node">
<title>Node7</title>
<g id="a_node8"><a xlink:href="type__safe__index_8h.html" target="_top" xlink:title=" ">
<polygon fill="#ffffff" stroke="#000000" points="549.5,-257.5 549.5,-287.5 690.5,-287.5 690.5,-257.5 549.5,-257.5"/>
<text text-anchor="start" x="557.5" y="-275.5" font-family="Helvetica,sans-Serif" font-size="10.00" fill="#000000">drake/common/type_safe</text>
<text text-anchor="middle" x="620" y="-264.5" font-family="Helvetica,sans-Serif" font-size="10.00" fill="#000000">_index.h</text>
</a>
</g>
</g>
<!-- Node6&#45;&gt;Node7 -->
<g id="edge7" class="edge">
<title>Node6&#45;&gt;Node7</title>
<path fill="none" stroke="#191970" d="M615.3615,-324.2967C616.0673,-316.4156 616.9476,-306.5857 617.751,-297.6135"/>
<polygon fill="#191970" stroke="#191970" points="621.2379,-297.9155 618.6439,-287.6432 614.2658,-297.2911 621.2379,-297.9155"/>
</g>
<!-- Node7&#45;&gt;Node2 -->
<g id="edge10" class="edge">
<title>Node7&#45;&gt;Node2</title>
<path fill="none" stroke="#191970" d="M600.2655,-257.389C566.9507,-231.8794 499.8667,-180.5122 465.8285,-154.4487"/>
<polygon fill="#191970" stroke="#191970" points="467.6103,-151.4048 457.5428,-148.1042 463.3546,-156.9627 467.6103,-151.4048"/>
</g>
<!-- Node8 -->
<g id="node9" class="node">
<title>Node8</title>
<g id="a_node9"><a xlink:title=" ">
<polygon fill="#ffffff" stroke="#bfbfbf" points="535.5,-129 535.5,-148 600.5,-148 600.5,-129 535.5,-129"/>
<text text-anchor="middle" x="568" y="-136" font-family="Helvetica,sans-Serif" font-size="10.00" fill="#000000">functional</text>
</a>
</g>
</g>
<!-- Node7&#45;&gt;Node8 -->
<g id="edge8" class="edge">
<title>Node7&#45;&gt;Node8</title>
<path fill="none" stroke="#191970" d="M612.4171,-257.3678C607.4577,-247.2066 600.9965,-233.4501 596,-221 587.4971,-199.8127 579.2872,-174.9302 573.9807,-158.0751"/>
<polygon fill="#191970" stroke="#191970" points="577.2466,-156.7902 570.9389,-148.2776 570.5614,-158.8658 577.2466,-156.7902"/>
</g>
<!-- Node9 -->
<g id="node10" class="node">
<title>Node9</title>
<g id="a_node10"><a xlink:title=" ">
<polygon fill="#ffffff" stroke="#bfbfbf" points="605,-196 605,-215 649,-215 649,-196 605,-196"/>
<text text-anchor="middle" x="627" y="-203" font-family="Helvetica,sans-Serif" font-size="10.00" fill="#000000">limits</text>
</a>
</g>
</g>
<!-- Node7&#45;&gt;Node9 -->
<g id="edge9" class="edge">
<title>Node7&#45;&gt;Node9</title>
<path fill="none" stroke="#191970" d="M621.5884,-257.2967C622.5837,-247.7699 623.8766,-235.3954 624.949,-225.1306"/>
<polygon fill="#191970" stroke="#191970" points="628.4436,-225.3646 626.0017,-215.055 621.4815,-224.6371 628.4436,-225.3646"/>
</g>
<!-- Node10 -->
<g id="node11" class="node">
<title>Node10</title>
<g id="a_node11"><a xlink:href="drake__assert_8h.html" target="_top" xlink:title="Provides Drake&#39;s assertion implementation.">
<polygon fill="#ffffff" stroke="#000000" points="950.5,-56.5 950.5,-86.5 1071.5,-86.5 1071.5,-56.5 950.5,-56.5"/>
<text text-anchor="start" x="958.5" y="-74.5" font-family="Helvetica,sans-Serif" font-size="10.00" fill="#000000">drake/common/drake</text>
<text text-anchor="middle" x="1011" y="-63.5" font-family="Helvetica,sans-Serif" font-size="10.00" fill="#000000">_assert.h</text>
</a>
</g>
</g>
<!-- Node7&#45;&gt;Node10 -->
<g id="edge11" class="edge">
<title>Node7&#45;&gt;Node10</title>
<path fill="none" stroke="#191970" d="M690.8613,-264.2939C805.6139,-249.3856 1023.9485,-213.7484 1070,-154 1085.7276,-133.5947 1064.2066,-109.5662 1042.8764,-92.7209"/>
<polygon fill="#191970" stroke="#191970" points="1044.8848,-89.852 1034.7888,-86.6391 1040.6776,-95.4467 1044.8848,-89.852"/>
</g>
<!-- Node12 -->
<g id="node13" class="node">
<title>Node12</title>
<g id="a_node13"><a xlink:href="drake__throw_8h.html" target="_top" xlink:title="Provides a convenient wrapper to throw an exception when a condition is unmet.">
<polygon fill="#ffffff" stroke="#000000" points="1117.5,-123.5 1117.5,-153.5 1238.5,-153.5 1238.5,-123.5 1117.5,-123.5"/>
<text text-anchor="start" x="1125.5" y="-141.5" font-family="Helvetica,sans-Serif" font-size="10.00" fill="#000000">drake/common/drake</text>
<text text-anchor="middle" x="1178" y="-130.5" font-family="Helvetica,sans-Serif" font-size="10.00" fill="#000000">_throw.h</text>
</a>
</g>
</g>
<!-- Node7&#45;&gt;Node12 -->
<g id="edge13" class="edge">
<title>Node7&#45;&gt;Node12</title>
<path fill="none" stroke="#191970" d="M690.5606,-271.0827C806.773,-267.7435 1032.5934,-256.729 1103,-221 1128.9286,-207.8421 1150.2511,-181.7215 1163.4459,-162.3803"/>
<polygon fill="#191970" stroke="#191970" points="1166.5295,-164.0605 1169.0893,-153.7795 1160.677,-160.2202 1166.5295,-164.0605"/>
</g>
<!-- Node13 -->
<g id="node14" class="node">
<title>Node13</title>
<g id="a_node14"><a xlink:href="hash_8h.html" target="_top" xlink:title=" ">
<polygon fill="#ffffff" stroke="#000000" points="667.5,-196 667.5,-215 792.5,-215 792.5,-196 667.5,-196"/>
<text text-anchor="middle" x="730" y="-203" font-family="Helvetica,sans-Serif" font-size="10.00" fill="#000000">drake/common/hash.h</text>
</a>
</g>
</g>
<!-- Node7&#45;&gt;Node13 -->
<g id="edge16" class="edge">
<title>Node7&#45;&gt;Node13</title>
<path fill="none" stroke="#191970" d="M644.6861,-257.4639C662.8102,-246.4247 687.3209,-231.4954 705.42,-220.4715"/>
<polygon fill="#191970" stroke="#191970" points="707.5126,-223.2951 714.2324,-215.1039 703.8712,-217.3167 707.5126,-223.2951"/>
</g>
<!-- Node20 -->
<g id="node21" class="node">
<title>Node20</title>
<g id="a_node21"><a xlink:href="nice__type__name_8h.html" target="_top" xlink:title=" ">
<polygon fill="#ffffff" stroke="#000000" points="163,-190.5 163,-220.5 303,-220.5 303,-190.5 163,-190.5"/>
<text text-anchor="start" x="171" y="-208.5" font-family="Helvetica,sans-Serif" font-size="10.00" fill="#000000">drake/common/nice_type</text>
<text text-anchor="middle" x="233" y="-197.5" font-family="Helvetica,sans-Serif" font-size="10.00" fill="#000000">_name.h</text>
</a>
</g>
</g>
<!-- Node7&#45;&gt;Node20 -->
<g id="edge30" class="edge">
<title>Node7&#45;&gt;Node20</title>
<path fill="none" stroke="#191970" d="M549.4682,-260.2891C482.7656,-248.7411 382.7757,-231.4302 313.0994,-219.3673"/>
<polygon fill="#191970" stroke="#191970" points="313.4974,-215.8843 303.0469,-217.627 312.3032,-222.7816 313.4974,-215.8843"/>
</g>
<!-- Node11 -->
<g id="node12" class="node">
<title>Node11</title>
<g id="a_node12"><a xlink:title=" ">
<polygon fill="#ffffff" stroke="#bfbfbf" points="791.5,-.5 791.5,-19.5 860.5,-19.5 860.5,-.5 791.5,-.5"/>
<text text-anchor="middle" x="826" y="-7.5" font-family="Helvetica,sans-Serif" font-size="10.00" fill="#000000">type_traits</text>
</a>
</g>
</g>
<!-- Node10&#45;&gt;Node11 -->
<g id="edge12" class="edge">
<title>Node10&#45;&gt;Node11</title>
<path fill="none" stroke="#191970" d="M965.7439,-56.4554C934.6054,-46.104 893.7031,-32.5067 864.2045,-22.7004"/>
<polygon fill="#191970" stroke="#191970" points="865.262,-19.3637 854.6684,-19.5303 863.0537,-26.0063 865.262,-19.3637"/>
</g>
<!-- Node12&#45;&gt;Node10 -->
<g id="edge15" class="edge">
<title>Node12&#45;&gt;Node10</title>
<path fill="none" stroke="#191970" d="M1140.5219,-123.4639C1116.1122,-113.6708 1084.0717,-100.8162 1057.9658,-90.3426"/>
<polygon fill="#191970" stroke="#191970" points="1059.2257,-87.0769 1048.6415,-86.6017 1056.6192,-93.5736 1059.2257,-87.0769"/>
</g>
<!-- Node12&#45;&gt;Node11 -->
<g id="edge14" class="edge">
<title>Node12&#45;&gt;Node11</title>
<path fill="none" stroke="#191970" d="M1164.9263,-123.2618C1147.7186,-104.2761 1115.5764,-72.3469 1081,-56 1044.498,-38.7427 933.808,-23.0697 870.9184,-15.2443"/>
<polygon fill="#191970" stroke="#191970" points="871.2328,-11.7567 860.8806,-14.0114 870.3793,-18.7045 871.2328,-11.7567"/>
</g>
<!-- Node13&#45;&gt;Node1 -->
<g id="edge23" class="edge">
<title>Node13&#45;&gt;Node1</title>
<path fill="none" stroke="#191970" d="M685.6288,-195.9744C634.691,-184.7458 554.4998,-166.0878 526,-154 525.2948,-153.7009 524.5864,-153.3836 523.8776,-153.0513"/>
<polygon fill="#191970" stroke="#191970" points="525.3243,-149.8538 514.8685,-148.143 521.9753,-156.0008 525.3243,-149.8538"/>
</g>
<!-- Node13&#45;&gt;Node2 -->
<g id="edge24" class="edge">
<title>Node13&#45;&gt;Node2</title>
<path fill="none" stroke="#191970" d="M686.2383,-195.9564C676.9236,-193.9594 667.1411,-191.8879 658,-190 577.248,-173.3227 554.0213,-180.6776 476,-154 474.3951,-153.4513 472.7678,-152.8354 471.1425,-152.174"/>
<polygon fill="#191970" stroke="#191970" points="472.5778,-148.9818 462.0253,-148.0354 469.6844,-155.3559 472.5778,-148.9818"/>
</g>
<!-- Node13&#45;&gt;Node4 -->
<g id="edge27" class="edge">
<title>Node13&#45;&gt;Node4</title>
<path fill="none" stroke="#191970" d="M687.8321,-195.9381C678.0615,-193.8572 667.6877,-191.7555 658,-190 550.1382,-170.4546 518.953,-185.6395 414,-154 412.091,-153.4245 410.1522,-152.756 408.2197,-152.026"/>
<polygon fill="#191970" stroke="#191970" points="409.3509,-148.7037 398.7787,-148.0104 406.611,-155.1452 409.3509,-148.7037"/>
</g>
<!-- Node13&#45;&gt;Node8 -->
<g id="edge19" class="edge">
<title>Node13&#45;&gt;Node8</title>
<path fill="none" stroke="#191970" d="M706.7893,-195.9005C679.0006,-184.4077 632.2772,-165.0838 600.8062,-152.068"/>
<polygon fill="#191970" stroke="#191970" points="601.7461,-148.6693 591.1676,-148.0817 599.0708,-155.1379 601.7461,-148.6693"/>
</g>
<!-- Node13&#45;&gt;Node10 -->
<g id="edge28" class="edge">
<title>Node13&#45;&gt;Node10</title>
<path fill="none" stroke="#191970" d="M792.7812,-197.7726C853.1429,-189.3015 939.0697,-174.183 966,-154 985.0569,-139.7177 997.012,-114.9005 1003.7682,-96.2056"/>
<polygon fill="#191970" stroke="#191970" points="1007.1433,-97.1491 1006.999,-86.5552 1000.5054,-94.9268 1007.1433,-97.1491"/>
</g>
<!-- Node13&#45;&gt;Node11 -->
<g id="edge25" class="edge">
<title>Node13&#45;&gt;Node11</title>
<path fill="none" stroke="#191970" d="M718.0109,-195.943C707.3006,-186.5699 692.3511,-171.2109 686,-154 681.2302,-141.0742 680.0586,-135.4309 686,-123 708.5925,-75.731 761.6796,-41.894 795.6027,-24.1796"/>
<polygon fill="#191970" stroke="#191970" points="797.281,-27.253 804.6214,-19.613 794.1187,-21.0079 797.281,-27.253"/>
</g>
<!-- Node13&#45;&gt;Node12 -->
<g id="edge29" class="edge">
<title>Node13&#45;&gt;Node12</title>
<path fill="none" stroke="#191970" d="M792.7642,-196.1134C875.5758,-183.7286 1020.9314,-161.9902 1107.4584,-149.0498"/>
<polygon fill="#191970" stroke="#191970" points="1108.0797,-152.4958 1117.452,-147.5552 1107.0443,-145.5728 1108.0797,-152.4958"/>
</g>
<!-- Node14 -->
<g id="node15" class="node">
<title>Node14</title>
<g id="a_node15"><a xlink:title=" ">
<polygon fill="#ffffff" stroke="#bfbfbf" points="1013.5,-129 1013.5,-148 1060.5,-148 1060.5,-129 1013.5,-129"/>
<text text-anchor="middle" x="1037" y="-136" font-family="Helvetica,sans-Serif" font-size="10.00" fill="#000000">cmath</text>
</a>
</g>
</g>
<!-- Node13&#45;&gt;Node14 -->
<g id="edge17" class="edge">
<title>Node13&#45;&gt;Node14</title>
<path fill="none" stroke="#191970" d="M792.5351,-197.1198C847.5964,-188.8952 929.5921,-174.5783 999,-154 1001.3055,-153.3165 1003.6635,-152.5438 1006.0202,-151.7173"/>
<polygon fill="#191970" stroke="#191970" points="1007.4476,-154.9194 1015.5624,-148.1076 1004.9709,-148.3722 1007.4476,-154.9194"/>
</g>
<!-- Node15 -->
<g id="node16" class="node">
<title>Node15</title>
<g id="a_node16"><a xlink:title=" ">
<polygon fill="#ffffff" stroke="#bfbfbf" points="695.5,-129 695.5,-148 748.5,-148 748.5,-129 695.5,-129"/>
<text text-anchor="middle" x="722" y="-136" font-family="Helvetica,sans-Serif" font-size="10.00" fill="#000000">cstddef</text>
</a>
</g>
</g>
<!-- Node13&#45;&gt;Node15 -->
<g id="edge18" class="edge">
<title>Node13&#45;&gt;Node15</title>
<path fill="none" stroke="#191970" d="M728.8538,-195.9005C727.6894,-186.149 725.8519,-170.7597 724.3725,-158.3695"/>
<polygon fill="#191970" stroke="#191970" points="727.8051,-157.5961 723.1441,-148.0817 720.8545,-158.4261 727.8051,-157.5961"/>
</g>
<!-- Node16 -->
<g id="node17" class="node">
<title>Node16</title>
<g id="a_node17"><a xlink:title=" ">
<polygon fill="#ffffff" stroke="#bfbfbf" points="767,-129 767,-148 827,-148 827,-129 767,-129"/>
<text text-anchor="middle" x="797" y="-136" font-family="Helvetica,sans-Serif" font-size="10.00" fill="#000000">iostream</text>
</a>
</g>
</g>
<!-- Node13&#45;&gt;Node16 -->
<g id="edge20" class="edge">
<title>Node13&#45;&gt;Node16</title>
<path fill="none" stroke="#191970" d="M739.5995,-195.9005C750.147,-185.353 767.2904,-168.2096 780.1002,-155.3998"/>
<polygon fill="#191970" stroke="#191970" points="782.8221,-157.6276 787.4183,-148.0817 777.8724,-152.6779 782.8221,-157.6276"/>
</g>
<!-- Node17 -->
<g id="node18" class="node">
<title>Node17</title>
<g id="a_node18"><a xlink:title=" ">
<polygon fill="#ffffff" stroke="#bfbfbf" points="845,-129 845,-148 883,-148 883,-129 845,-129"/>
<text text-anchor="middle" x="864" y="-136" font-family="Helvetica,sans-Serif" font-size="10.00" fill="#000000">map</text>
</a>
</g>
</g>
<!-- Node13&#45;&gt;Node17 -->
<g id="edge21" class="edge">
<title>Node13&#45;&gt;Node17</title>
<path fill="none" stroke="#191970" d="M750.4814,-195.9465C771.9499,-185.84 806.5842,-169.2739 836,-154 836.6657,-153.6543 837.3391,-153.302 838.0174,-152.9447"/>
<polygon fill="#191970" stroke="#191970" points="839.7604,-155.9813 846.9011,-148.1544 836.438,-149.82 839.7604,-155.9813"/>
</g>
<!-- Node18 -->
<g id="node19" class="node">
<title>Node18</title>
<g id="a_node19"><a xlink:title=" ">
<polygon fill="#ffffff" stroke="#bfbfbf" points="901,-129 901,-148 957,-148 957,-129 901,-129"/>
<text text-anchor="middle" x="929" y="-136" font-family="Helvetica,sans-Serif" font-size="10.00" fill="#000000">optional</text>
</a>
</g>
</g>
<!-- Node13&#45;&gt;Node18 -->
<g id="edge22" class="edge">
<title>Node13&#45;&gt;Node18</title>
<path fill="none" stroke="#191970" d="M762.8696,-195.9864C795.8051,-186.2353 847.8187,-170.2403 892,-154 893.863,-153.3152 895.7698,-152.5908 897.6875,-151.844"/>
<polygon fill="#191970" stroke="#191970" points="899.2482,-154.9886 907.2151,-148.0044 896.6316,-148.496 899.2482,-154.9886"/>
</g>
<!-- Node19 -->
<g id="node20" class="node">
<title>Node19</title>
<g id="a_node20"><a xlink:title=" ">
<polygon fill="#ffffff" stroke="#bfbfbf" points="311.5,-62 311.5,-81 356.5,-81 356.5,-62 311.5,-62"/>
<text text-anchor="middle" x="334" y="-69" font-family="Helvetica,sans-Serif" font-size="10.00" fill="#000000">utility</text>
</a>
</g>
</g>
<!-- Node13&#45;&gt;Node19 -->
<g id="edge26" class="edge">
<title>Node13&#45;&gt;Node19</title>
<path fill="none" stroke="#191970" d="M715.4539,-195.9226C699.9187,-185.6588 674.6115,-168.8371 653,-154 633.2787,-140.4605 631.0385,-132.3034 609,-123 526.3168,-88.0958 419.7307,-76.7482 366.8187,-73.1357"/>
<polygon fill="#191970" stroke="#191970" points="366.8735,-69.6323 356.6725,-72.4941 366.4316,-76.6183 366.8735,-69.6323"/>
</g>
<!-- Node20&#45;&gt;Node2 -->
<g id="edge32" class="edge">
<title>Node20&#45;&gt;Node2</title>
<path fill="none" stroke="#191970" d="M295.5113,-190.4521C330.5386,-181.3179 374.7411,-168.6138 413,-154 414.4056,-153.4631 415.8337,-152.8879 417.2671,-152.2866"/>
<polygon fill="#191970" stroke="#191970" points="418.9473,-155.3685 426.6256,-148.0682 416.0706,-148.9868 418.9473,-155.3685"/>
</g>
<!-- Node20&#45;&gt;Node4 -->
<g id="edge35" class="edge">
<title>Node20&#45;&gt;Node4</title>
<path fill="none" stroke="#191970" d="M266.2141,-190.4639C291.494,-179.0196 326.0092,-163.3945 350.5739,-152.274"/>
<polygon fill="#191970" stroke="#191970" points="352.1188,-155.4166 359.7854,-148.1039 349.2319,-149.0396 352.1188,-155.4166"/>
</g>
<!-- Node20&#45;&gt;Node19 -->
<g id="edge34" class="edge">
<title>Node20&#45;&gt;Node19</title>
<path fill="none" stroke="#191970" d="M264.9555,-190.3787C280.2508,-181.6794 297.6588,-169.4009 309,-154 322.7511,-135.3264 329.0148,-109.033 331.8171,-91.1855"/>
<polygon fill="#191970" stroke="#191970" points="335.3127,-91.4521 333.1768,-81.0748 328.3751,-90.5191 335.3127,-91.4521"/>
</g>
<!-- Node21 -->
<g id="node22" class="node">
<title>Node21</title>
<g id="a_node22"><a xlink:title=" ">
<polygon fill="#ffffff" stroke="#bfbfbf" points="28,-129 28,-148 86,-148 86,-129 28,-129"/>
<text text-anchor="middle" x="57" y="-136" font-family="Helvetica,sans-Serif" font-size="10.00" fill="#000000">memory</text>
</a>
</g>
</g>
<!-- Node20&#45;&gt;Node21 -->
<g id="edge31" class="edge">
<title>Node20&#45;&gt;Node21</title>
<path fill="none" stroke="#191970" d="M191.8155,-190.4988C164.319,-180.393 127.3966,-166.6489 95,-154 93.3573,-153.3586 91.6771,-152.6964 89.982,-152.0234"/>
<polygon fill="#191970" stroke="#191970" points="90.8512,-148.6007 80.2673,-148.1199 88.2413,-155.096 90.8512,-148.6007"/>
</g>
<!-- Node22 -->
<g id="node23" class="node">
<title>Node22</title>
<g id="a_node23"><a xlink:title=" ">
<polygon fill="#ffffff" stroke="#bfbfbf" points="104.5,-129 104.5,-148 161.5,-148 161.5,-129 104.5,-129"/>
<text text-anchor="middle" x="133" y="-136" font-family="Helvetica,sans-Serif" font-size="10.00" fill="#000000">typeinfo</text>
</a>
</g>
</g>
<!-- Node20&#45;&gt;Node22 -->
<g id="edge33" class="edge">
<title>Node20&#45;&gt;Node22</title>
<path fill="none" stroke="#191970" d="M210.3085,-190.2967C193.9717,-179.351 172.0241,-164.6462 155.6881,-153.701"/>
<polygon fill="#191970" stroke="#191970" points="157.517,-150.7135 147.2612,-148.055 153.6207,-156.5289 157.517,-150.7135"/>
</g>
<!-- Node23 -->
<g id="node24" class="node">
<title>Node23</title>
<g id="a_node24"><a xlink:href="never__destroyed_8h.html" target="_top" xlink:title=" ">
<polygon fill="#ffffff" stroke="#000000" points="179.5,-123.5 179.5,-153.5 300.5,-153.5 300.5,-123.5 179.5,-123.5"/>
<text text-anchor="start" x="187.5" y="-141.5" font-family="Helvetica,sans-Serif" font-size="10.00" fill="#000000">drake/common/never</text>
<text text-anchor="middle" x="240" y="-130.5" font-family="Helvetica,sans-Serif" font-size="10.00" fill="#000000">_destroyed.h</text>
</a>
</g>
</g>
<!-- Node20&#45;&gt;Node23 -->
<g id="edge36" class="edge">
<title>Node20&#45;&gt;Node23</title>
<path fill="none" stroke="#191970" d="M234.5884,-190.2967C235.4118,-182.4156 236.4388,-172.5857 237.3762,-163.6135"/>
<polygon fill="#191970" stroke="#191970" points="240.8597,-163.9528 238.4179,-153.6432 233.8976,-163.2253 240.8597,-163.9528"/>
</g>
<!-- Node23&#45;&gt;Node5 -->
<g id="edge40" class="edge">
<title>Node23&#45;&gt;Node5</title>
<path fill="none" stroke="#191970" d="M201.3998,-123.4639C176.2593,-113.6708 143.2595,-100.8162 116.372,-90.3426"/>
<polygon fill="#191970" stroke="#191970" points="117.3569,-86.9701 106.7685,-86.6017 114.8161,-93.4927 117.3569,-86.9701"/>
</g>
<!-- Node23&#45;&gt;Node11 -->
<g id="edge38" class="edge">
<title>Node23&#45;&gt;Node11</title>
<path fill="none" stroke="#191970" d="M246.6196,-123.1878C255.8978,-103.8093 274.7458,-71.1357 302,-56 343.4129,-33.0012 661.9158,-17.0656 781.1418,-11.8519"/>
<polygon fill="#191970" stroke="#191970" points="781.5398,-15.338 791.3793,-11.4092 781.2374,-8.3446 781.5398,-15.338"/>
</g>
<!-- Node23&#45;&gt;Node19 -->
<g id="edge39" class="edge">
<title>Node23&#45;&gt;Node19</title>
<path fill="none" stroke="#191970" d="M261.3301,-123.2967C276.5445,-112.4524 296.9357,-97.9182 312.2453,-87.006"/>
<polygon fill="#191970" stroke="#191970" points="314.4828,-89.7093 320.5945,-81.055 310.4198,-84.0091 314.4828,-89.7093"/>
</g>
<!-- Node24 -->
<g id="node25" class="node">
<title>Node24</title>
<g id="a_node25"><a xlink:title=" ">
<polygon fill="#ffffff" stroke="#bfbfbf" points="217.5,-62 217.5,-81 254.5,-81 254.5,-62 217.5,-62"/>
<text text-anchor="middle" x="236" y="-69" font-family="Helvetica,sans-Serif" font-size="10.00" fill="#000000">new</text>
</a>
</g>
</g>
<!-- Node23&#45;&gt;Node24 -->
<g id="edge37" class="edge">
<title>Node23&#45;&gt;Node24</title>
<path fill="none" stroke="#191970" d="M239.0923,-123.2967C238.5236,-113.7699 237.7848,-101.3954 237.172,-91.1306"/>
<polygon fill="#191970" stroke="#191970" points="240.6603,-90.8286 236.5704,-81.055 233.6727,-91.2458 240.6603,-90.8286"/>
</g>
</g>
</svg>
        <g id="navigator" transform="translate(0 0)" fill="#404254">
                <rect fill="#f2f5e9" fill-opacity="0.5" stroke="#606060" stroke-width=".5" x="0" y="0" width="60" height="60"/>
                <use id="zoomplus" xlink:href="#zoomPlus" x="17" y="9" onmousedown="handleZoom(evt,'in')"/>
                <use id="zoomminus" xlink:href="#zoomMin" x="42" y="9" onmousedown="handleZoom(evt,'out')"/>
                <use id="reset" xlink:href="#resetDef" x="30" y="36" onmousedown="handleReset()"/>
                <g id="arrowUp" xlink:href="#dirArrow" transform="translate(30 24)" onmousedown="handlePan(0,-1)">
                  <use xlink:href="#rim" fill="#404040">
                        <set attributeName="fill" to="#808080" begin="arrowUp.mouseover" end="arrowUp.mouseout"/>
                  </use>
                  <path fill="none" stroke="white" stroke-width="1.5" d="M0,-3.0v7 M-2.5,-0.5L0,-3.0L2.5,-0.5"/>
                </g>
                <g id="arrowRight" xlink:href="#dirArrow" transform="rotate(90) translate(36 -43)" onmousedown="handlePan(1,0)">
                  <use xlink:href="#rim" fill="#404040">
                        <set attributeName="fill" to="#808080" begin="arrowRight.mouseover" end="arrowRight.mouseout"/>
                  </use>
                  <path fill="none" stroke="white" stroke-width="1.5" d="M0,-3.0v7 M-2.5,-0.5L0,-3.0L2.5,-0.5"/>
                </g>
                <g id="arrowDown" xlink:href="#dirArrow" transform="rotate(180) translate(-30 -48)" onmousedown="handlePan(0,1)">
                  <use xlink:href="#rim" fill="#404040">
                        <set attributeName="fill" to="#808080" begin="arrowDown.mouseover" end="arrowDown.mouseout"/>
                  </use>
                  <path fill="none" stroke="white" stroke-width="1.5" d="M0,-3.0v7 M-2.5,-0.5L0,-3.0L2.5,-0.5"/>
                </g>
                <g id="arrowLeft" xlink:href="#dirArrow" transform="rotate(270) translate(-36 17)" onmousedown="handlePan(-1,0)">
                  <use xlink:href="#rim" fill="#404040">
                        <set attributeName="fill" to="#808080" begin="arrowLeft.mouseover" end="arrowLeft.mouseout"/>
                  </use>
                  <path fill="none" stroke="white" stroke-width="1.5" d="M0,-3.0v7 M-2.5,-0.5L0,-3.0L2.5,-0.5"/>
                </g>
        </g>
        <svg viewBox="0 0 15 15" width="100%" height="30px" preserveAspectRatio="xMaxYMin meet">
         <g id="arrow_out" transform="scale(0.3 0.3)">
          <a xlink:href="multibody__graph_8h__incl_org.svg" target="_base">
           <rect id="button" ry="5" rx="5" y="6" x="6" height="38" width="38"
                fill="#f2f5e9" fill-opacity="0.5" stroke="#606060" stroke-width="1.0"/>
           <path id="arrow"
             d="M 11.500037,31.436501 C 11.940474,20.09759 22.043105,11.32322 32.158766,21.979434 L 37.068811,17.246167 C 37.068811,17.246167 37.088388,32 37.088388,32 L 22.160133,31.978069 C 22.160133,31.978069 26.997745,27.140456 26.997745,27.140456 C 18.528582,18.264221 13.291696,25.230495 11.500037,31.436501 z"
             style="fill:#404040;"/>
          </a>
         </g>
        </svg>
</svg>
