<?xml version="1.0" encoding="UTF-8" standalone="no"?>
<!DOCTYPE svg PUBLIC "-//W3C//DTD SVG 1.1//EN"
 "http://www.w3.org/Graphics/SVG/1.1/DTD/svg11.dtd">
<!-- Generated by graphviz version 2.40.1 (20161225.0304)
 -->
<!-- Title: drake/systems/trajectory_optimization/multiple_shooting.h Pages: 1 -->
<svg width="398pt" height="117pt"
 viewBox="0.00 0.00 398.00 117.00" xmlns="http://www.w3.org/2000/svg" xmlns:xlink="http://www.w3.org/1999/xlink">
<g id="graph0" class="graph" transform="scale(1 1) rotate(0) translate(4 113)">
<title>drake/systems/trajectory_optimization/multiple_shooting.h</title>
<polygon fill="#ffffff" stroke="transparent" points="-4,4 -4,-113 394,-113 394,4 -4,4"/>
<!-- Node104 -->
<g id="node1" class="node">
<title>Node104</title>
<g id="a_node1"><a xlink:title=" ">
<polygon fill="#bfbfbf" stroke="#000000" points="123.5,-67.5 123.5,-108.5 262.5,-108.5 262.5,-67.5 123.5,-67.5"/>
<text text-anchor="start" x="131.5" y="-96.5" font-family="Helvetica,sans-Serif" font-size="10.00" fill="#000000">drake/systems/trajectory</text>
<text text-anchor="start" x="131.5" y="-85.5" font-family="Helvetica,sans-Serif" font-size="10.00" fill="#000000">_optimization/multiple</text>
<text text-anchor="middle" x="193" y="-74.5" font-family="Helvetica,sans-Serif" font-size="10.00" fill="#000000">_shooting.h</text>
</a>
</g>
</g>
<!-- Node105 -->
<g id="node2" class="node">
<title>Node105</title>
<g id="a_node2"><a xlink:href="direct__collocation_8h.html" target="_top" xlink:title=" ">
<polygon fill="#ffffff" stroke="#000000" points="0,-.5 0,-30.5 182,-30.5 182,-.5 0,-.5"/>
<text text-anchor="start" x="8" y="-18.5" font-family="Helvetica,sans-Serif" font-size="10.00" fill="#000000">drake/systems/trajectory</text>
<text text-anchor="middle" x="91" y="-7.5" font-family="Helvetica,sans-Serif" font-size="10.00" fill="#000000">_optimization/direct_collocation.h</text>
</a>
</g>
</g>
<!-- Node104&#45;&gt;Node105 -->
<g id="edge1" class="edge">
<title>Node104&#45;&gt;Node105</title>
<path fill="none" stroke="#191970" d="M155.6596,-61.459C141.034,-51.0634 124.7905,-39.5177 112.2429,-30.5991"/>
<polygon fill="#191970" stroke="#191970" points="153.8652,-64.4776 164.0437,-67.4183 157.9206,-58.772 153.8652,-64.4776"/>
</g>
<!-- Node106 -->
<g id="node3" class="node">
<title>Node106</title>
<g id="a_node3"><a xlink:href="direct__transcription_8h.html" target="_top" xlink:title=" ">
<polygon fill="#ffffff" stroke="#000000" points="200,-.5 200,-30.5 390,-30.5 390,-.5 200,-.5"/>
<text text-anchor="start" x="208" y="-18.5" font-family="Helvetica,sans-Serif" font-size="10.00" fill="#000000">drake/systems/trajectory</text>
<text text-anchor="middle" x="295" y="-7.5" font-family="Helvetica,sans-Serif" font-size="10.00" fill="#000000">_optimization/direct_transcription.h</text>
</a>
</g>
</g>
<!-- Node104&#45;&gt;Node106 -->
<g id="edge2" class="edge">
<title>Node104&#45;&gt;Node106</title>
<path fill="none" stroke="#191970" d="M230.3404,-61.459C244.966,-51.0634 261.2095,-39.5177 273.7571,-30.5991"/>
<polygon fill="#191970" stroke="#191970" points="228.0794,-58.772 221.9563,-67.4183 232.1348,-64.4776 228.0794,-58.772"/>
</g>
</g>
</svg>
