<?xml version="1.0" encoding="UTF-8" standalone="no"?>
<!DOCTYPE svg PUBLIC "-//W3C//DTD SVG 1.1//EN"
 "http://www.w3.org/Graphics/SVG/1.1/DTD/svg11.dtd">
<!-- Generated by graphviz version 2.40.1 (20161225.0304)
 -->
<!-- Title: drake/multibody/tree/multibody_tree_topology.h Pages: 1 -->
<!--zoomable 430 -->
<svg id="main" version="1.1" xmlns="http://www.w3.org/2000/svg" xmlns:xlink="http://www.w3.org/1999/xlink" xml:space="preserve" onload="init(evt)">
<style type="text/css"><![CDATA[
.edge:hover path { stroke: red; }
.edge:hover polygon { stroke: red; fill: red; }
]]></style>
<script type="text/javascript"><![CDATA[
var edges = document.getElementsByTagName('g');
if (edges && edges.length) {
  for (var i=0;i<edges.length;i++) {
    if (edges[i].id.substr(0,4)=='edge') {
      edges[i].setAttribute('class','edge');
    }
  }
}
]]></script>
        <defs>
                <circle id="rim" cx="0" cy="0" r="7"/>
                <circle id="rim2" cx="0" cy="0" r="3.5"/>
                <g id="zoomPlus">
                        <use xlink:href="#rim" fill="#404040">
                                <set attributeName="fill" to="#808080" begin="zoomplus.mouseover" end="zoomplus.mouseout"/>
                        </use>
                        <path d="M-4,0h8M0,-4v8" fill="none" stroke="white" stroke-width="1.5" pointer-events="none"/>
                </g>
                <g id="zoomMin">
                        <use xlink:href="#rim" fill="#404040">
                                <set attributeName="fill" to="#808080" begin="zoomminus.mouseover" end="zoomminus.mouseout"/>
                        </use>
                        <path d="M-4,0h8" fill="none" stroke="white" stroke-width="1.5" pointer-events="none"/>
                </g>
                <g id="dirArrow">
                        <path fill="none" stroke="white" stroke-width="1.5" d="M0,-3.0v7 M-2.5,-0.5L0,-3.0L2.5,-0.5"/>
                </g>
               <g id="resetDef">
                       <use xlink:href="#rim2" fill="#404040">
                               <set attributeName="fill" to="#808080" begin="reset.mouseover" end="reset.mouseout"/>
                       </use>
               </g>
        </defs>

<script type="text/javascript">
var viewWidth = 1443;
var viewHeight = 430;
var sectionId = 'dynsection-0';
</script>
<script xlink:href="svgpan.js"/>
<svg id="graph" class="graph">
<g id="viewport">
<title>drake/multibody/tree/multibody_tree_topology.h</title>
<polygon fill="#ffffff" stroke="transparent" points="-4,4 -4,-426 1438.5,-426 1438.5,4 -4,4"/>
<!-- Node0 -->
<g id="node1" class="node">
<title>Node0</title>
<g id="a_node1"><a xlink:title="This file defines the topological structures which represent the logical connectivities between multi...">
<polygon fill="#bfbfbf" stroke="#000000" points="275.5,-391.5 275.5,-421.5 426.5,-421.5 426.5,-391.5 275.5,-391.5"/>
<text text-anchor="start" x="283.5" y="-409.5" font-family="Helvetica,sans-Serif" font-size="10.00" fill="#000000">drake/multibody/tree</text>
<text text-anchor="middle" x="351" y="-398.5" font-family="Helvetica,sans-Serif" font-size="10.00" fill="#000000">/multibody_tree_topology.h</text>
</a>
</g>
</g>
<!-- Node1 -->
<g id="node2" class="node">
<title>Node1</title>
<g id="a_node2"><a xlink:title=" ">
<polygon fill="#ffffff" stroke="#bfbfbf" points="0,-330 0,-349 64,-349 64,-330 0,-330"/>
<text text-anchor="middle" x="32" y="-337" font-family="Helvetica,sans-Serif" font-size="10.00" fill="#000000">algorithm</text>
</a>
</g>
</g>
<!-- Node0&#45;&gt;Node1 -->
<g id="edge1" class="edge">
<title>Node0&#45;&gt;Node1</title>
<path fill="none" stroke="#191970" d="M275.2457,-396.2005C218.8752,-387.6385 140.3689,-373.8124 73,-355 70.2515,-354.2325 67.4285,-353.3573 64.6117,-352.4223"/>
<polygon fill="#191970" stroke="#191970" points="65.7713,-349.12 55.1765,-349.0833 63.436,-355.719 65.7713,-349.12"/>
</g>
<!-- Node2 -->
<g id="node3" class="node">
<title>Node2</title>
<g id="a_node3"><a xlink:title=" ">
<polygon fill="#ffffff" stroke="#bfbfbf" points="82.5,-330 82.5,-349 129.5,-349 129.5,-330 82.5,-330"/>
<text text-anchor="middle" x="106" y="-337" font-family="Helvetica,sans-Serif" font-size="10.00" fill="#000000">queue</text>
</a>
</g>
</g>
<!-- Node0&#45;&gt;Node2 -->
<g id="edge2" class="edge">
<title>Node0&#45;&gt;Node2</title>
<path fill="none" stroke="#191970" d="M279.8683,-391.4588C239.5996,-382.2846 188.5335,-369.5392 144,-355 141.8538,-354.2993 139.6567,-353.5346 137.4541,-352.7324"/>
<polygon fill="#191970" stroke="#191970" points="138.4941,-349.3825 127.9042,-349.0585 135.9806,-355.9157 138.4941,-349.3825"/>
</g>
<!-- Node3 -->
<g id="node4" class="node">
<title>Node3</title>
<g id="a_node4"><a xlink:title=" ">
<polygon fill="#ffffff" stroke="#bfbfbf" points="275,-129 275,-148 307,-148 307,-129 275,-129"/>
<text text-anchor="middle" x="291" y="-136" font-family="Helvetica,sans-Serif" font-size="10.00" fill="#000000">set</text>
</a>
</g>
</g>
<!-- Node0&#45;&gt;Node3 -->
<g id="edge3" class="edge">
<title>Node0&#45;&gt;Node3</title>
<path fill="none" stroke="#191970" d="M342.1127,-391.2114C336.6748,-381.2139 330.0133,-367.6989 326,-355 303.8523,-284.9202 295.205,-197.4317 292.291,-158.6324"/>
<polygon fill="#191970" stroke="#191970" points="295.7525,-157.9584 291.5622,-148.2275 288.7696,-158.4476 295.7525,-157.9584"/>
</g>
<!-- Node4 -->
<g id="node5" class="node">
<title>Node4</title>
<g id="a_node5"><a xlink:title=" ">
<polygon fill="#ffffff" stroke="#bfbfbf" points="868,-129 868,-148 912,-148 912,-129 868,-129"/>
<text text-anchor="middle" x="890" y="-136" font-family="Helvetica,sans-Serif" font-size="10.00" fill="#000000">string</text>
</a>
</g>
</g>
<!-- Node0&#45;&gt;Node4 -->
<g id="edge4" class="edge">
<title>Node0&#45;&gt;Node4</title>
<path fill="none" stroke="#191970" d="M396.409,-391.4984C423.8867,-381.9737 459.4099,-368.8616 490,-355 636.7442,-288.5044 803.6542,-190.4847 865.3785,-153.4252"/>
<polygon fill="#191970" stroke="#191970" points="867.2744,-156.3692 874.0357,-148.2123 863.6634,-150.3724 867.2744,-156.3692"/>
</g>
<!-- Node5 -->
<g id="node6" class="node">
<title>Node5</title>
<g id="a_node6"><a xlink:title=" ">
<polygon fill="#ffffff" stroke="#bfbfbf" points="1026.5,-62 1026.5,-81 1071.5,-81 1071.5,-62 1026.5,-62"/>
<text text-anchor="middle" x="1049" y="-69" font-family="Helvetica,sans-Serif" font-size="10.00" fill="#000000">utility</text>
</a>
</g>
</g>
<!-- Node0&#45;&gt;Node5 -->
<g id="edge5" class="edge">
<title>Node0&#45;&gt;Node5</title>
<path fill="none" stroke="#191970" d="M426.7318,-402.4125C634.1379,-390.2145 1196,-350.0165 1196,-272.5 1196,-272.5 1196,-272.5 1196,-205.5 1196,-167.8735 1201.9739,-151.1435 1177,-123 1145.6474,-87.6684 1120.0234,-106.5011 1077,-87 1076.1587,-86.6187 1075.3085,-86.2215 1074.4543,-85.8121"/>
<polygon fill="#191970" stroke="#191970" points="1075.8504,-82.5943 1065.3576,-81.1273 1072.6454,-88.8175 1075.8504,-82.5943"/>
</g>
<!-- Node6 -->
<g id="node7" class="node">
<title>Node6</title>
<g id="a_node7"><a xlink:title=" ">
<polygon fill="#ffffff" stroke="#bfbfbf" points="930.5,-129 930.5,-148 977.5,-148 977.5,-129 930.5,-129"/>
<text text-anchor="middle" x="954" y="-136" font-family="Helvetica,sans-Serif" font-size="10.00" fill="#000000">vector</text>
</a>
</g>
</g>
<!-- Node0&#45;&gt;Node6 -->
<g id="edge6" class="edge">
<title>Node0&#45;&gt;Node6</title>
<path fill="none" stroke="#191970" d="M416.7204,-391.4006C452.2785,-382.4135 496.6469,-369.866 535,-355 691.854,-294.2019 866.8144,-191.5458 929.7906,-153.3775"/>
<polygon fill="#191970" stroke="#191970" points="931.8641,-156.2128 938.5863,-148.0236 928.2245,-150.2334 931.8641,-156.2128"/>
</g>
<!-- Node7 -->
<g id="node8" class="node">
<title>Node7</title>
<g id="a_node8"><a xlink:href="drake__assert_8h.html" target="_top" xlink:title="Provides Drake&#39;s assertion implementation.">
<polygon fill="#ffffff" stroke="#000000" points="186.5,-56.5 186.5,-86.5 307.5,-86.5 307.5,-56.5 186.5,-56.5"/>
<text text-anchor="start" x="194.5" y="-74.5" font-family="Helvetica,sans-Serif" font-size="10.00" fill="#000000">drake/common/drake</text>
<text text-anchor="middle" x="247" y="-63.5" font-family="Helvetica,sans-Serif" font-size="10.00" fill="#000000">_assert.h</text>
</a>
</g>
</g>
<!-- Node0&#45;&gt;Node7 -->
<g id="edge7" class="edge">
<title>Node0&#45;&gt;Node7</title>
<path fill="none" stroke="#191970" d="M324.1841,-391.2442C267.5934,-357.2891 137.1373,-269.2932 88,-154 82.5981,-141.3253 79.8965,-134.1427 88,-123 99.0054,-107.867 139.2793,-94.9104 176.5368,-85.7784"/>
<polygon fill="#191970" stroke="#191970" points="177.5123,-89.144 186.4297,-83.423 175.891,-82.3344 177.5123,-89.144"/>
</g>
<!-- Node9 -->
<g id="node10" class="node">
<title>Node9</title>
<g id="a_node10"><a xlink:href="drake__copyable_8h.html" target="_top" xlink:title="Provides careful macros to selectively enable or disable the special member functions for copy&#45;constr...">
<polygon fill="#ffffff" stroke="#000000" points="1313.5,-56.5 1313.5,-86.5 1434.5,-86.5 1434.5,-56.5 1313.5,-56.5"/>
<text text-anchor="start" x="1321.5" y="-74.5" font-family="Helvetica,sans-Serif" font-size="10.00" fill="#000000">drake/common/drake</text>
<text text-anchor="middle" x="1374" y="-63.5" font-family="Helvetica,sans-Serif" font-size="10.00" fill="#000000">_copyable.h</text>
</a>
</g>
</g>
<!-- Node0&#45;&gt;Node9 -->
<g id="edge9" class="edge">
<title>Node0&#45;&gt;Node9</title>
<path fill="none" stroke="#191970" d="M426.6391,-404.5392C663.3058,-397.4108 1374,-368.05 1374,-272.5 1374,-272.5 1374,-272.5 1374,-205.5 1374,-167.6735 1374,-123.8406 1374,-96.8908"/>
<polygon fill="#191970" stroke="#191970" points="1377.5001,-96.7729 1374,-86.7729 1370.5001,-96.773 1377.5001,-96.7729"/>
</g>
<!-- Node10 -->
<g id="node11" class="node">
<title>Node10</title>
<g id="a_node11"><a xlink:href="drake__throw_8h.html" target="_top" xlink:title="Provides a convenient wrapper to throw an exception when a condition is unmet.">
<polygon fill="#ffffff" stroke="#000000" points="97.5,-123.5 97.5,-153.5 218.5,-153.5 218.5,-123.5 97.5,-123.5"/>
<text text-anchor="start" x="105.5" y="-141.5" font-family="Helvetica,sans-Serif" font-size="10.00" fill="#000000">drake/common/drake</text>
<text text-anchor="middle" x="158" y="-130.5" font-family="Helvetica,sans-Serif" font-size="10.00" fill="#000000">_throw.h</text>
</a>
</g>
</g>
<!-- Node0&#45;&gt;Node10 -->
<g id="edge10" class="edge">
<title>Node0&#45;&gt;Node10</title>
<path fill="none" stroke="#191970" d="M335.6169,-391.2962C305.6052,-361.0218 238.3911,-290.1467 195,-221 183.53,-202.7218 173.7093,-180.2846 167.0741,-163.4257"/>
<polygon fill="#191970" stroke="#191970" points="170.2097,-161.8262 163.3681,-153.7365 163.6716,-164.327 170.2097,-161.8262"/>
</g>
<!-- Node11 -->
<g id="node12" class="node">
<title>Node11</title>
<g id="a_node12"><a xlink:href="multibody__tree__indexes_8h.html" target="_top" xlink:title=" ">
<polygon fill="#ffffff" stroke="#000000" points="335,-324.5 335,-354.5 481,-354.5 481,-324.5 335,-324.5"/>
<text text-anchor="start" x="343" y="-342.5" font-family="Helvetica,sans-Serif" font-size="10.00" fill="#000000">drake/multibody/tree</text>
<text text-anchor="middle" x="408" y="-331.5" font-family="Helvetica,sans-Serif" font-size="10.00" fill="#000000">/multibody_tree_indexes.h</text>
</a>
</g>
</g>
<!-- Node0&#45;&gt;Node11 -->
<g id="edge13" class="edge">
<title>Node0&#45;&gt;Node11</title>
<path fill="none" stroke="#191970" d="M363.9342,-391.2967C371.222,-382.7303 380.4687,-371.8614 388.6079,-362.2943"/>
<polygon fill="#191970" stroke="#191970" points="391.303,-364.5277 395.117,-354.6432 385.9714,-359.9918 391.303,-364.5277"/>
</g>
<!-- Node8 -->
<g id="node9" class="node">
<title>Node8</title>
<g id="a_node9"><a xlink:title=" ">
<polygon fill="#ffffff" stroke="#bfbfbf" points="317.5,-.5 317.5,-19.5 386.5,-19.5 386.5,-.5 317.5,-.5"/>
<text text-anchor="middle" x="352" y="-7.5" font-family="Helvetica,sans-Serif" font-size="10.00" fill="#000000">type_traits</text>
</a>
</g>
</g>
<!-- Node7&#45;&gt;Node8 -->
<g id="edge8" class="edge">
<title>Node7&#45;&gt;Node8</title>
<path fill="none" stroke="#191970" d="M272.6859,-56.4554C289.1297,-46.8241 310.3708,-34.3828 326.7323,-24.7996"/>
<polygon fill="#191970" stroke="#191970" points="328.8688,-27.6045 335.7287,-19.5303 325.331,-21.5643 328.8688,-27.6045"/>
</g>
<!-- Node10&#45;&gt;Node7 -->
<g id="edge12" class="edge">
<title>Node10&#45;&gt;Node7</title>
<path fill="none" stroke="#191970" d="M178.1955,-123.2967C190.1436,-114.302 205.4639,-102.7687 218.6138,-92.8694"/>
<polygon fill="#191970" stroke="#191970" points="221.0002,-95.4538 226.8844,-86.6432 216.7902,-89.8613 221.0002,-95.4538"/>
</g>
<!-- Node10&#45;&gt;Node8 -->
<g id="edge11" class="edge">
<title>Node10&#45;&gt;Node8</title>
<path fill="none" stroke="#191970" d="M157.1061,-123.2215C156.9033,-104.7914 159.5028,-74.0425 177,-56 194.9429,-37.4978 261.7827,-23.8155 307.464,-16.3757"/>
<polygon fill="#191970" stroke="#191970" points="308.1064,-19.8177 317.4353,-14.7955 307.0107,-12.904 308.1064,-19.8177"/>
</g>
<!-- Node12 -->
<g id="node13" class="node">
<title>Node12</title>
<g id="a_node13"><a xlink:href="type__safe__index_8h.html" target="_top" xlink:title=" ">
<polygon fill="#ffffff" stroke="#000000" points="343.5,-257.5 343.5,-287.5 484.5,-287.5 484.5,-257.5 343.5,-257.5"/>
<text text-anchor="start" x="351.5" y="-275.5" font-family="Helvetica,sans-Serif" font-size="10.00" fill="#000000">drake/common/type_safe</text>
<text text-anchor="middle" x="414" y="-264.5" font-family="Helvetica,sans-Serif" font-size="10.00" fill="#000000">_index.h</text>
</a>
</g>
</g>
<!-- Node11&#45;&gt;Node12 -->
<g id="edge14" class="edge">
<title>Node11&#45;&gt;Node12</title>
<path fill="none" stroke="#191970" d="M409.3615,-324.2967C410.0673,-316.4156 410.9476,-306.5857 411.751,-297.6135"/>
<polygon fill="#191970" stroke="#191970" points="415.2379,-297.9155 412.6439,-287.6432 408.2658,-297.2911 415.2379,-297.9155"/>
</g>
<!-- Node12&#45;&gt;Node4 -->
<g id="edge17" class="edge">
<title>Node12&#45;&gt;Node4</title>
<path fill="none" stroke="#191970" d="M483.8196,-257.3967C514.6973,-249.1182 550.7772,-237.187 581,-221 600.2137,-210.7094 599.082,-198.8507 619,-190 715.559,-147.0932 752.4314,-183.1282 854,-154 856.179,-153.3751 858.4005,-152.6504 860.6165,-151.8624"/>
<polygon fill="#191970" stroke="#191970" points="862.1216,-155.0315 870.1482,-148.116 859.5609,-148.5167 862.1216,-155.0315"/>
</g>
<!-- Node12&#45;&gt;Node7 -->
<g id="edge18" class="edge">
<title>Node12&#45;&gt;Node7</title>
<path fill="none" stroke="#191970" d="M385.194,-257.4066C351.2672,-238.0894 295.7709,-201.38 266,-154 255.2234,-136.8492 250.5434,-114.2556 248.519,-97.0494"/>
<polygon fill="#191970" stroke="#191970" points="251.9599,-96.2583 247.5348,-86.6319 244.991,-96.9168 251.9599,-96.2583"/>
</g>
<!-- Node12&#45;&gt;Node10 -->
<g id="edge19" class="edge">
<title>Node12&#45;&gt;Node10</title>
<path fill="none" stroke="#191970" d="M343.2367,-261.8331C308.1714,-254.2692 266.3184,-241.6619 233,-221 208.5736,-205.8524 187.2512,-180.5219 173.6496,-161.9169"/>
<polygon fill="#191970" stroke="#191970" points="176.4267,-159.7825 167.7865,-153.6507 170.717,-163.8322 176.4267,-159.7825"/>
</g>
<!-- Node13 -->
<g id="node14" class="node">
<title>Node13</title>
<g id="a_node14"><a xlink:title=" ">
<polygon fill="#ffffff" stroke="#bfbfbf" points="325.5,-129 325.5,-148 390.5,-148 390.5,-129 325.5,-129"/>
<text text-anchor="middle" x="358" y="-136" font-family="Helvetica,sans-Serif" font-size="10.00" fill="#000000">functional</text>
</a>
</g>
</g>
<!-- Node12&#45;&gt;Node13 -->
<g id="edge15" class="edge">
<title>Node12&#45;&gt;Node13</title>
<path fill="none" stroke="#191970" d="M407.6849,-257.389C397.4325,-232.8564 377.1858,-184.4088 365.9619,-157.5517"/>
<polygon fill="#191970" stroke="#191970" points="369.099,-155.9813 362.0137,-148.1042 362.6403,-158.6805 369.099,-155.9813"/>
</g>
<!-- Node14 -->
<g id="node15" class="node">
<title>Node14</title>
<g id="a_node15"><a xlink:title=" ">
<polygon fill="#ffffff" stroke="#bfbfbf" points="628,-196 628,-215 672,-215 672,-196 628,-196"/>
<text text-anchor="middle" x="650" y="-203" font-family="Helvetica,sans-Serif" font-size="10.00" fill="#000000">limits</text>
</a>
</g>
</g>
<!-- Node12&#45;&gt;Node14 -->
<g id="edge16" class="edge">
<title>Node12&#45;&gt;Node14</title>
<path fill="none" stroke="#191970" d="M483.2714,-257.4486C522.1325,-248.3133 571.2502,-235.6093 614,-221 615.8834,-220.3564 617.8064,-219.6575 619.7354,-218.9243"/>
<polygon fill="#191970" stroke="#191970" points="621.3132,-222.0618 629.2741,-215.0707 618.6911,-215.5714 621.3132,-222.0618"/>
</g>
<!-- Node15 -->
<g id="node16" class="node">
<title>Node15</title>
<g id="a_node16"><a xlink:href="hash_8h.html" target="_top" xlink:title=" ">
<polygon fill="#ffffff" stroke="#000000" points="446.5,-196 446.5,-215 571.5,-215 571.5,-196 446.5,-196"/>
<text text-anchor="middle" x="509" y="-203" font-family="Helvetica,sans-Serif" font-size="10.00" fill="#000000">drake/common/hash.h</text>
</a>
</g>
</g>
<!-- Node12&#45;&gt;Node15 -->
<g id="edge20" class="edge">
<title>Node12&#45;&gt;Node15</title>
<path fill="none" stroke="#191970" d="M435.557,-257.2967C450.9332,-246.4524 471.5414,-231.9182 487.0138,-221.006"/>
<polygon fill="#191970" stroke="#191970" points="489.297,-223.6787 495.4519,-215.055 485.2626,-217.9582 489.297,-223.6787"/>
</g>
<!-- Node21 -->
<g id="node22" class="node">
<title>Node21</title>
<g id="a_node22"><a xlink:href="nice__type__name_8h.html" target="_top" xlink:title=" ">
<polygon fill="#ffffff" stroke="#000000" points="936,-190.5 936,-220.5 1076,-220.5 1076,-190.5 936,-190.5"/>
<text text-anchor="start" x="944" y="-208.5" font-family="Helvetica,sans-Serif" font-size="10.00" fill="#000000">drake/common/nice_type</text>
<text text-anchor="middle" x="1006" y="-197.5" font-family="Helvetica,sans-Serif" font-size="10.00" fill="#000000">_name.h</text>
</a>
</g>
</g>
<!-- Node12&#45;&gt;Node21 -->
<g id="edge34" class="edge">
<title>Node12&#45;&gt;Node21</title>
<path fill="none" stroke="#191970" d="M484.5277,-264.518C595.2389,-251.9882 809.1742,-227.7759 925.6611,-214.5924"/>
<polygon fill="#191970" stroke="#191970" points="926.3935,-218.032 935.9364,-213.4295 925.6062,-211.0764 926.3935,-218.032"/>
</g>
<!-- Node15&#45;&gt;Node3 -->
<g id="edge27" class="edge">
<title>Node15&#45;&gt;Node3</title>
<path fill="none" stroke="#191970" d="M456.8226,-195.9275C417.1777,-187.6275 361.8415,-173.8087 316,-154 315.2968,-153.6961 314.5902,-153.3747 313.883,-153.0387"/>
<polygon fill="#191970" stroke="#191970" points="315.3355,-149.8436 304.8839,-148.1071 311.9714,-155.9823 315.3355,-149.8436"/>
</g>
<!-- Node15&#45;&gt;Node4 -->
<g id="edge28" class="edge">
<title>Node15&#45;&gt;Node4</title>
<path fill="none" stroke="#191970" d="M553.6969,-195.9903C564.2643,-193.8842 575.5101,-191.7584 586,-190 704.5272,-170.1312 738.1747,-186.0616 854,-154 856.324,-153.3567 858.6945,-152.5945 861.0539,-151.7586"/>
<polygon fill="#191970" stroke="#191970" points="862.521,-154.9426 870.5446,-148.0236 859.9575,-148.4289 862.521,-154.9426"/>
</g>
<!-- Node15&#45;&gt;Node5 -->
<g id="edge30" class="edge">
<title>Node15&#45;&gt;Node5</title>
<path fill="none" stroke="#191970" d="M548.445,-195.9637C557.7783,-193.8587 567.7172,-191.7401 577,-190 684.7419,-169.8039 720.7036,-198.2361 821,-154 840.9424,-145.2043 839.612,-132.9583 859,-123 910.5179,-96.5387 977.0872,-82.5432 1016.2059,-76.1048"/>
<polygon fill="#191970" stroke="#191970" points="1016.9087,-79.5373 1026.2406,-74.5208 1015.8172,-72.6229 1016.9087,-79.5373"/>
</g>
<!-- Node15&#45;&gt;Node6 -->
<g id="edge31" class="edge">
<title>Node15&#45;&gt;Node6</title>
<path fill="none" stroke="#191970" d="M571.5034,-196.4568C587.0144,-194.2777 603.6045,-192.0021 619,-190 753.0438,-172.5687 791.0499,-191.21 921,-154 922.9168,-153.4511 924.8615,-152.8027 926.7983,-152.0874"/>
<polygon fill="#191970" stroke="#191970" points="928.3923,-155.2139 936.2495,-148.1066 925.675,-148.7628 928.3923,-155.2139"/>
</g>
<!-- Node15&#45;&gt;Node7 -->
<g id="edge32" class="edge">
<title>Node15&#45;&gt;Node7</title>
<path fill="none" stroke="#191970" d="M496.631,-195.8749C470.1474,-175.3177 409.506,-128.5377 399,-123 372.7672,-109.1728 342.0747,-97.9414 315.1648,-89.5373"/>
<polygon fill="#191970" stroke="#191970" points="316.0232,-86.1399 305.437,-86.5694 313.9804,-92.8353 316.0232,-86.1399"/>
</g>
<!-- Node15&#45;&gt;Node8 -->
<g id="edge29" class="edge">
<title>Node15&#45;&gt;Node8</title>
<path fill="none" stroke="#191970" d="M501.2143,-195.8051C476.3121,-164.7963 398.3589,-67.7272 366.1458,-27.6146"/>
<polygon fill="#191970" stroke="#191970" points="368.8232,-25.3589 359.8326,-19.7534 363.3653,-29.742 368.8232,-25.3589"/>
</g>
<!-- Node15&#45;&gt;Node10 -->
<g id="edge33" class="edge">
<title>Node15&#45;&gt;Node10</title>
<path fill="none" stroke="#191970" d="M459.083,-195.9717C398.7408,-184.4534 296.8032,-164.9952 228.4706,-151.9517"/>
<polygon fill="#191970" stroke="#191970" points="229.1204,-148.5126 218.6415,-150.0754 227.8079,-155.3884 229.1204,-148.5126"/>
</g>
<!-- Node15&#45;&gt;Node13 -->
<g id="edge23" class="edge">
<title>Node15&#45;&gt;Node13</title>
<path fill="none" stroke="#191970" d="M487.3654,-195.9005C461.5757,-184.4574 418.2894,-165.2509 388.9603,-152.2374"/>
<polygon fill="#191970" stroke="#191970" points="390.1546,-148.9383 379.5945,-148.0817 387.3156,-155.3367 390.1546,-148.9383"/>
</g>
<!-- Node16 -->
<g id="node17" class="node">
<title>Node16</title>
<g id="a_node17"><a xlink:title=" ">
<polygon fill="#ffffff" stroke="#bfbfbf" points="485.5,-129 485.5,-148 532.5,-148 532.5,-129 485.5,-129"/>
<text text-anchor="middle" x="509" y="-136" font-family="Helvetica,sans-Serif" font-size="10.00" fill="#000000">cmath</text>
</a>
</g>
</g>
<!-- Node15&#45;&gt;Node16 -->
<g id="edge21" class="edge">
<title>Node15&#45;&gt;Node16</title>
<path fill="none" stroke="#191970" d="M509,-195.9005C509,-186.149 509,-170.7597 509,-158.3695"/>
<polygon fill="#191970" stroke="#191970" points="512.5001,-158.0816 509,-148.0817 505.5001,-158.0817 512.5001,-158.0816"/>
</g>
<!-- Node17 -->
<g id="node18" class="node">
<title>Node17</title>
<g id="a_node18"><a xlink:title=" ">
<polygon fill="#ffffff" stroke="#bfbfbf" points="550.5,-129 550.5,-148 603.5,-148 603.5,-129 550.5,-129"/>
<text text-anchor="middle" x="577" y="-136" font-family="Helvetica,sans-Serif" font-size="10.00" fill="#000000">cstddef</text>
</a>
</g>
</g>
<!-- Node15&#45;&gt;Node17 -->
<g id="edge22" class="edge">
<title>Node15&#45;&gt;Node17</title>
<path fill="none" stroke="#191970" d="M518.7427,-195.9005C529.4477,-185.353 546.847,-168.2096 559.8479,-155.3998"/>
<polygon fill="#191970" stroke="#191970" points="562.6085,-157.5933 567.2753,-148.0817 557.6956,-152.607 562.6085,-157.5933"/>
</g>
<!-- Node18 -->
<g id="node19" class="node">
<title>Node18</title>
<g id="a_node19"><a xlink:title=" ">
<polygon fill="#ffffff" stroke="#bfbfbf" points="622,-129 622,-148 682,-148 682,-129 622,-129"/>
<text text-anchor="middle" x="652" y="-136" font-family="Helvetica,sans-Serif" font-size="10.00" fill="#000000">iostream</text>
</a>
</g>
</g>
<!-- Node15&#45;&gt;Node18 -->
<g id="edge24" class="edge">
<title>Node15&#45;&gt;Node18</title>
<path fill="none" stroke="#191970" d="M529.4884,-195.9005C553.8056,-184.5072 594.5486,-165.4178 622.3169,-152.4075"/>
<polygon fill="#191970" stroke="#191970" points="623.9792,-155.4938 631.5496,-148.0817 621.0093,-149.1551 623.9792,-155.4938"/>
</g>
<!-- Node19 -->
<g id="node20" class="node">
<title>Node19</title>
<g id="a_node20"><a xlink:title=" ">
<polygon fill="#ffffff" stroke="#bfbfbf" points="700,-129 700,-148 738,-148 738,-129 700,-129"/>
<text text-anchor="middle" x="719" y="-136" font-family="Helvetica,sans-Serif" font-size="10.00" fill="#000000">map</text>
</a>
</g>
</g>
<!-- Node15&#45;&gt;Node19 -->
<g id="edge25" class="edge">
<title>Node15&#45;&gt;Node19</title>
<path fill="none" stroke="#191970" d="M553.3441,-195.971C590.7979,-187.2146 645.4545,-172.7574 691,-154 692.0275,-153.5768 693.0654,-153.1252 694.1057,-152.6521"/>
<polygon fill="#191970" stroke="#191970" points="695.9688,-155.6325 703.3221,-148.0049 692.8171,-149.3821 695.9688,-155.6325"/>
</g>
<!-- Node20 -->
<g id="node21" class="node">
<title>Node20</title>
<g id="a_node21"><a xlink:title=" ">
<polygon fill="#ffffff" stroke="#bfbfbf" points="756,-129 756,-148 812,-148 812,-129 756,-129"/>
<text text-anchor="middle" x="784" y="-136" font-family="Helvetica,sans-Serif" font-size="10.00" fill="#000000">optional</text>
</a>
</g>
</g>
<!-- Node15&#45;&gt;Node20 -->
<g id="edge26" class="edge">
<title>Node15&#45;&gt;Node20</title>
<path fill="none" stroke="#191970" d="M555.2091,-195.9777C619.1739,-182.7233 728.9038,-159.6952 747,-154 749.1591,-153.3205 751.3663,-152.5637 753.5746,-151.7602"/>
<polygon fill="#191970" stroke="#191970" points="755.0759,-154.9314 763.1175,-148.0333 752.5294,-148.411 755.0759,-154.9314"/>
</g>
<!-- Node21&#45;&gt;Node4 -->
<g id="edge36" class="edge">
<title>Node21&#45;&gt;Node4</title>
<path fill="none" stroke="#191970" d="M979.9673,-190.4639C960.6794,-179.3234 934.5322,-164.2212 915.3972,-153.1691"/>
<polygon fill="#191970" stroke="#191970" points="917.0376,-150.0747 906.6277,-148.1039 913.5365,-156.1363 917.0376,-150.0747"/>
</g>
<!-- Node21&#45;&gt;Node5 -->
<g id="edge38" class="edge">
<title>Node21&#45;&gt;Node5</title>
<path fill="none" stroke="#191970" d="M1008.506,-190.331C1011.5001,-173.5763 1017.1134,-145.9332 1025,-123 1028.8569,-111.7845 1034.385,-99.7439 1039.1637,-90.1273"/>
<polygon fill="#191970" stroke="#191970" points="1042.3333,-91.6162 1043.7708,-81.1193 1036.1011,-88.4287 1042.3333,-91.6162"/>
</g>
<!-- Node21&#45;&gt;Node6 -->
<g id="edge39" class="edge">
<title>Node21&#45;&gt;Node6</title>
<path fill="none" stroke="#191970" d="M994.2004,-190.2967C986.3345,-180.1618 975.9673,-166.804 967.7312,-156.1921"/>
<polygon fill="#191970" stroke="#191970" points="970.312,-153.8089 961.4158,-148.055 964.7821,-158.1008 970.312,-153.8089"/>
</g>
<!-- Node22 -->
<g id="node23" class="node">
<title>Node22</title>
<g id="a_node23"><a xlink:title=" ">
<polygon fill="#ffffff" stroke="#bfbfbf" points="1034,-129 1034,-148 1092,-148 1092,-129 1034,-129"/>
<text text-anchor="middle" x="1063" y="-136" font-family="Helvetica,sans-Serif" font-size="10.00" fill="#000000">memory</text>
</a>
</g>
</g>
<!-- Node21&#45;&gt;Node22 -->
<g id="edge35" class="edge">
<title>Node21&#45;&gt;Node22</title>
<path fill="none" stroke="#191970" d="M1018.9342,-190.2967C1027.6426,-180.0605 1039.148,-166.5366 1048.2186,-155.8746"/>
<polygon fill="#191970" stroke="#191970" points="1051.0571,-157.9395 1054.8711,-148.055 1045.7255,-153.4036 1051.0571,-157.9395"/>
</g>
<!-- Node23 -->
<g id="node24" class="node">
<title>Node23</title>
<g id="a_node24"><a xlink:title=" ">
<polygon fill="#ffffff" stroke="#bfbfbf" points="1110.5,-129 1110.5,-148 1167.5,-148 1167.5,-129 1110.5,-129"/>
<text text-anchor="middle" x="1139" y="-136" font-family="Helvetica,sans-Serif" font-size="10.00" fill="#000000">typeinfo</text>
</a>
</g>
</g>
<!-- Node21&#45;&gt;Node23 -->
<g id="edge37" class="edge">
<title>Node21&#45;&gt;Node23</title>
<path fill="none" stroke="#191970" d="M1035.8478,-190.4639C1058.264,-179.1715 1088.7606,-163.8086 1110.7738,-152.7192"/>
<polygon fill="#191970" stroke="#191970" points="1112.5793,-155.7287 1119.9355,-148.1039 1109.43,-149.4772 1112.5793,-155.7287"/>
</g>
<!-- Node24 -->
<g id="node25" class="node">
<title>Node24</title>
<g id="a_node25"><a xlink:href="never__destroyed_8h.html" target="_top" xlink:title=" ">
<polygon fill="#ffffff" stroke="#000000" points="1224.5,-123.5 1224.5,-153.5 1345.5,-153.5 1345.5,-123.5 1224.5,-123.5"/>
<text text-anchor="start" x="1232.5" y="-141.5" font-family="Helvetica,sans-Serif" font-size="10.00" fill="#000000">drake/common/never</text>
<text text-anchor="middle" x="1285" y="-130.5" font-family="Helvetica,sans-Serif" font-size="10.00" fill="#000000">_destroyed.h</text>
</a>
</g>
</g>
<!-- Node21&#45;&gt;Node24 -->
<g id="edge40" class="edge">
<title>Node21&#45;&gt;Node24</title>
<path fill="none" stroke="#191970" d="M1068.613,-190.4639C1111.7794,-180.0978 1169.2297,-166.3015 1214.0853,-155.5297"/>
<polygon fill="#191970" stroke="#191970" points="1215.1287,-158.8787 1224.0349,-153.1404 1213.4941,-152.0722 1215.1287,-158.8787"/>
</g>
<!-- Node24&#45;&gt;Node5 -->
<g id="edge43" class="edge">
<title>Node24&#45;&gt;Node5</title>
<path fill="none" stroke="#191970" d="M1232.037,-123.4639C1185.7541,-110.3243 1120.0585,-91.6734 1081.2534,-80.6567"/>
<polygon fill="#191970" stroke="#191970" points="1082.1033,-77.2597 1071.5276,-77.8955 1080.1916,-83.9936 1082.1033,-77.2597"/>
</g>
<!-- Node24&#45;&gt;Node8 -->
<g id="edge42" class="edge">
<title>Node24&#45;&gt;Node8</title>
<path fill="none" stroke="#191970" d="M1256.2341,-123.4023C1217.5826,-103.936 1146.1904,-70.8286 1081,-56 949.6377,-26.1196 534.1848,-14.1522 396.6806,-10.9461"/>
<polygon fill="#191970" stroke="#191970" points="396.5872,-7.4431 386.5097,-10.7132 396.4269,-14.4413 396.5872,-7.4431"/>
</g>
<!-- Node24&#45;&gt;Node9 -->
<g id="edge44" class="edge">
<title>Node24&#45;&gt;Node9</title>
<path fill="none" stroke="#191970" d="M1305.1955,-123.2967C1317.1436,-114.302 1332.4639,-102.7687 1345.6138,-92.8694"/>
<polygon fill="#191970" stroke="#191970" points="1348.0002,-95.4538 1353.8844,-86.6432 1343.7902,-89.8613 1348.0002,-95.4538"/>
</g>
<!-- Node25 -->
<g id="node26" class="node">
<title>Node25</title>
<g id="a_node26"><a xlink:title=" ">
<polygon fill="#ffffff" stroke="#bfbfbf" points="1258.5,-62 1258.5,-81 1295.5,-81 1295.5,-62 1258.5,-62"/>
<text text-anchor="middle" x="1277" y="-69" font-family="Helvetica,sans-Serif" font-size="10.00" fill="#000000">new</text>
</a>
</g>
</g>
<!-- Node24&#45;&gt;Node25 -->
<g id="edge41" class="edge">
<title>Node24&#45;&gt;Node25</title>
<path fill="none" stroke="#191970" d="M1283.1847,-123.2967C1282.0472,-113.7699 1280.5696,-101.3954 1279.344,-91.1306"/>
<polygon fill="#191970" stroke="#191970" points="1282.8019,-90.5694 1278.1409,-81.055 1275.8513,-91.3994 1282.8019,-90.5694"/>
</g>
</g>
</svg>
        <g id="navigator" transform="translate(0 0)" fill="#404254">
                <rect fill="#f2f5e9" fill-opacity="0.5" stroke="#606060" stroke-width=".5" x="0" y="0" width="60" height="60"/>
                <use id="zoomplus" xlink:href="#zoomPlus" x="17" y="9" onmousedown="handleZoom(evt,'in')"/>
                <use id="zoomminus" xlink:href="#zoomMin" x="42" y="9" onmousedown="handleZoom(evt,'out')"/>
                <use id="reset" xlink:href="#resetDef" x="30" y="36" onmousedown="handleReset()"/>
                <g id="arrowUp" xlink:href="#dirArrow" transform="translate(30 24)" onmousedown="handlePan(0,-1)">
                  <use xlink:href="#rim" fill="#404040">
                        <set attributeName="fill" to="#808080" begin="arrowUp.mouseover" end="arrowUp.mouseout"/>
                  </use>
                  <path fill="none" stroke="white" stroke-width="1.5" d="M0,-3.0v7 M-2.5,-0.5L0,-3.0L2.5,-0.5"/>
                </g>
                <g id="arrowRight" xlink:href="#dirArrow" transform="rotate(90) translate(36 -43)" onmousedown="handlePan(1,0)">
                  <use xlink:href="#rim" fill="#404040">
                        <set attributeName="fill" to="#808080" begin="arrowRight.mouseover" end="arrowRight.mouseout"/>
                  </use>
                  <path fill="none" stroke="white" stroke-width="1.5" d="M0,-3.0v7 M-2.5,-0.5L0,-3.0L2.5,-0.5"/>
                </g>
                <g id="arrowDown" xlink:href="#dirArrow" transform="rotate(180) translate(-30 -48)" onmousedown="handlePan(0,1)">
                  <use xlink:href="#rim" fill="#404040">
                        <set attributeName="fill" to="#808080" begin="arrowDown.mouseover" end="arrowDown.mouseout"/>
                  </use>
                  <path fill="none" stroke="white" stroke-width="1.5" d="M0,-3.0v7 M-2.5,-0.5L0,-3.0L2.5,-0.5"/>
                </g>
                <g id="arrowLeft" xlink:href="#dirArrow" transform="rotate(270) translate(-36 17)" onmousedown="handlePan(-1,0)">
                  <use xlink:href="#rim" fill="#404040">
                        <set attributeName="fill" to="#808080" begin="arrowLeft.mouseover" end="arrowLeft.mouseout"/>
                  </use>
                  <path fill="none" stroke="white" stroke-width="1.5" d="M0,-3.0v7 M-2.5,-0.5L0,-3.0L2.5,-0.5"/>
                </g>
        </g>
        <svg viewBox="0 0 15 15" width="100%" height="30px" preserveAspectRatio="xMaxYMin meet">
         <g id="arrow_out" transform="scale(0.3 0.3)">
          <a xlink:href="multibody__tree__topology_8h__incl_org.svg" target="_base">
           <rect id="button" ry="5" rx="5" y="6" x="6" height="38" width="38"
                fill="#f2f5e9" fill-opacity="0.5" stroke="#606060" stroke-width="1.0"/>
           <path id="arrow"
             d="M 11.500037,31.436501 C 11.940474,20.09759 22.043105,11.32322 32.158766,21.979434 L 37.068811,17.246167 C 37.068811,17.246167 37.088388,32 37.088388,32 L 22.160133,31.978069 C 22.160133,31.978069 26.997745,27.140456 26.997745,27.140456 C 18.528582,18.264221 13.291696,25.230495 11.500037,31.436501 z"
             style="fill:#404040;"/>
          </a>
         </g>
        </svg>
</svg>
