<?xml version="1.0" encoding="UTF-8" standalone="no"?>
<!DOCTYPE svg PUBLIC "-//W3C//DTD SVG 1.1//EN"
 "http://www.w3.org/Graphics/SVG/1.1/DTD/svg11.dtd">
<!-- Generated by graphviz version 2.40.1 (20161225.0304)
 -->
<!-- Title: drake/common/name_value.h Pages: 1 -->
<svg width="547pt" height="229pt"
 viewBox="0.00 0.00 547.38 229.00" xmlns="http://www.w3.org/2000/svg" xmlns:xlink="http://www.w3.org/1999/xlink">
<g id="graph0" class="graph" transform="scale(1 1) rotate(0) translate(4 225)">
<title>drake/common/name_value.h</title>
<polygon fill="#ffffff" stroke="transparent" points="-4,4 -4,-225 543.3838,-225 543.3838,4 -4,4"/>
<!-- Node4 -->
<g id="node1" class="node">
<title>Node4</title>
<g id="a_node1"><a xlink:title=" ">
<polygon fill="#bfbfbf" stroke="#000000" points="64.3838,-201.5 64.3838,-220.5 226.3838,-220.5 226.3838,-201.5 64.3838,-201.5"/>
<text text-anchor="middle" x="145.3838" y="-208.5" font-family="Helvetica,sans-Serif" font-size="10.00" fill="#000000">drake/common/name_value.h</text>
</a>
</g>
</g>
<!-- Node5 -->
<g id="node2" class="node">
<title>Node5</title>
<g id="a_node2"><a xlink:href="rotation_8h.html" target="_top" xlink:title=" ">
<polygon fill="#ffffff" stroke="#000000" points="13.8838,-67.5 13.8838,-97.5 144.8838,-97.5 144.8838,-67.5 13.8838,-67.5"/>
<text text-anchor="start" x="21.8838" y="-85.5" font-family="Helvetica,sans-Serif" font-size="10.00" fill="#000000">drake/common/schema</text>
<text text-anchor="middle" x="79.3838" y="-74.5" font-family="Helvetica,sans-Serif" font-size="10.00" fill="#000000">/rotation.h</text>
</a>
</g>
</g>
<!-- Node4&#45;&gt;Node5 -->
<g id="edge1" class="edge">
<title>Node4&#45;&gt;Node5</title>
<path fill="none" stroke="#191970" d="M107.3567,-197.1435C93.1253,-189.8855 78.4627,-179.4324 70.3838,-165 58.5607,-143.8787 66.1314,-114.9493 72.7333,-97.5562"/>
<polygon fill="#191970" stroke="#191970" points="106.0326,-200.3882 116.573,-201.4613 109.0024,-194.0494 106.0326,-200.3882"/>
</g>
<!-- Node6 -->
<g id="node3" class="node">
<title>Node6</title>
<g id="a_node3"><a xlink:href="transform_8h.html" target="_top" xlink:title=" ">
<polygon fill="#ffffff" stroke="#000000" points="13.8838,-.5 13.8838,-30.5 144.8838,-30.5 144.8838,-.5 13.8838,-.5"/>
<text text-anchor="start" x="21.8838" y="-18.5" font-family="Helvetica,sans-Serif" font-size="10.00" fill="#000000">drake/common/schema</text>
<text text-anchor="middle" x="79.3838" y="-7.5" font-family="Helvetica,sans-Serif" font-size="10.00" fill="#000000">/transform.h</text>
</a>
</g>
</g>
<!-- Node4&#45;&gt;Node6 -->
<g id="edge6" class="edge">
<title>Node4&#45;&gt;Node6</title>
<path fill="none" stroke="#191970" d="M112.3371,-197.2603C76.5585,-180.1749 22.2127,-147.1317 4.3838,-98 -.316,-85.0486 -2.0339,-79.1918 4.3838,-67 12.8447,-50.9266 28.8388,-38.9016 43.8906,-30.5313"/>
<polygon fill="#191970" stroke="#191970" points="110.8978,-200.4508 121.4447,-201.4585 113.8282,-194.0937 110.8978,-200.4508"/>
</g>
<!-- Node7 -->
<g id="node4" class="node">
<title>Node7</title>
<g id="a_node4"><a xlink:href="stochastic_8h.html" target="_top" xlink:title=" ">
<polygon fill="#ffffff" stroke="#000000" points="79.8838,-134.5 79.8838,-164.5 210.8838,-164.5 210.8838,-134.5 79.8838,-134.5"/>
<text text-anchor="start" x="87.8838" y="-152.5" font-family="Helvetica,sans-Serif" font-size="10.00" fill="#000000">drake/common/schema</text>
<text text-anchor="middle" x="145.3838" y="-141.5" font-family="Helvetica,sans-Serif" font-size="10.00" fill="#000000">/stochastic.h</text>
</a>
</g>
</g>
<!-- Node4&#45;&gt;Node7 -->
<g id="edge3" class="edge">
<title>Node4&#45;&gt;Node7</title>
<path fill="none" stroke="#191970" d="M145.3838,-191.3693C145.3838,-182.681 145.3838,-172.6241 145.3838,-164.5446"/>
<polygon fill="#191970" stroke="#191970" points="141.8839,-191.3906 145.3838,-201.3906 148.8839,-191.3907 141.8839,-191.3906"/>
</g>
<!-- Node8 -->
<g id="node5" class="node">
<title>Node8</title>
<g id="a_node5"><a xlink:href="yaml__read__archive_8h.html" target="_top" xlink:title=" ">
<polygon fill="#ffffff" stroke="#000000" points="229.3838,-134.5 229.3838,-164.5 375.3838,-164.5 375.3838,-134.5 229.3838,-134.5"/>
<text text-anchor="start" x="237.3838" y="-152.5" font-family="Helvetica,sans-Serif" font-size="10.00" fill="#000000">drake/common/yaml/yaml</text>
<text text-anchor="middle" x="302.3838" y="-141.5" font-family="Helvetica,sans-Serif" font-size="10.00" fill="#000000">_read_archive.h</text>
</a>
</g>
</g>
<!-- Node4&#45;&gt;Node8 -->
<g id="edge7" class="edge">
<title>Node4&#45;&gt;Node8</title>
<path fill="none" stroke="#191970" d="M179.3205,-197.7063C204.226,-187.9503 238.0805,-174.6889 263.9773,-164.5446"/>
<polygon fill="#191970" stroke="#191970" points="177.9496,-194.4843 169.915,-201.3906 180.5028,-201.0021 177.9496,-194.4843"/>
</g>
<!-- Node9 -->
<g id="node6" class="node">
<title>Node9</title>
<g id="a_node6"><a xlink:href="yaml__write__archive_8h.html" target="_top" xlink:title=" ">
<polygon fill="#ffffff" stroke="#000000" points="393.3838,-134.5 393.3838,-164.5 539.3838,-164.5 539.3838,-134.5 393.3838,-134.5"/>
<text text-anchor="start" x="401.3838" y="-152.5" font-family="Helvetica,sans-Serif" font-size="10.00" fill="#000000">drake/common/yaml/yaml</text>
<text text-anchor="middle" x="466.3838" y="-141.5" font-family="Helvetica,sans-Serif" font-size="10.00" fill="#000000">_write_archive.h</text>
</a>
</g>
</g>
<!-- Node4&#45;&gt;Node9 -->
<g id="edge8" class="edge">
<title>Node4&#45;&gt;Node9</title>
<path fill="none" stroke="#191970" d="M205.149,-199.5497C258.3282,-189.3611 336.2733,-174.4277 393.1776,-163.5255"/>
<polygon fill="#191970" stroke="#191970" points="204.3506,-196.1389 195.1878,-201.4581 205.6678,-203.0138 204.3506,-196.1389"/>
</g>
<!-- Node5&#45;&gt;Node6 -->
<g id="edge2" class="edge">
<title>Node5&#45;&gt;Node6</title>
<path fill="none" stroke="#191970" d="M79.3838,-57.0249C79.3838,-48.128 79.3838,-38.4287 79.3838,-30.6432"/>
<polygon fill="#191970" stroke="#191970" points="75.8839,-57.2966 79.3838,-67.2967 82.8839,-57.2967 75.8839,-57.2966"/>
</g>
<!-- Node7&#45;&gt;Node5 -->
<g id="edge4" class="edge">
<title>Node7&#45;&gt;Node5</title>
<path fill="none" stroke="#191970" d="M123.146,-126.9253C113.6475,-117.2828 102.8131,-106.2843 94.3009,-97.6432"/>
<polygon fill="#191970" stroke="#191970" points="120.8962,-129.6288 130.4074,-134.2967 125.8831,-124.7164 120.8962,-129.6288"/>
</g>
<!-- Node7&#45;&gt;Node6 -->
<g id="edge5" class="edge">
<title>Node7&#45;&gt;Node6</title>
<path fill="none" stroke="#191970" d="M155.2281,-124.3988C160.292,-107.2904 163.6651,-84.632 154.3838,-67 145.9229,-50.9266 129.9288,-38.9016 114.8769,-30.5313"/>
<polygon fill="#191970" stroke="#191970" points="151.79,-123.6458 151.9546,-134.2393 158.4322,-125.8553 151.79,-123.6458"/>
</g>
</g>
</svg>
