<?xml version="1.0" encoding="UTF-8" standalone="no"?>
<!DOCTYPE svg PUBLIC "-//W3C//DTD SVG 1.1//EN"
 "http://www.w3.org/Graphics/SVG/1.1/DTD/svg11.dtd">
<!-- Generated by graphviz version 2.40.1 (20161225.0304)
 -->
<!-- Title: drake/common/name_value.h Pages: 1 -->
<svg width="268pt" height="151pt"
 viewBox="0.00 0.00 268.00 151.00" xmlns="http://www.w3.org/2000/svg" xmlns:xlink="http://www.w3.org/1999/xlink">
<g id="graph0" class="graph" transform="scale(1 1) rotate(0) translate(4 147)">
<title>drake/common/name_value.h</title>
<polygon fill="#ffffff" stroke="transparent" points="-4,4 -4,-147 264,-147 264,4 -4,4"/>
<!-- Node0 -->
<g id="node1" class="node">
<title>Node0</title>
<g id="a_node1"><a xlink:title=" ">
<polygon fill="#bfbfbf" stroke="#000000" points="48.5,-123.5 48.5,-142.5 210.5,-142.5 210.5,-123.5 48.5,-123.5"/>
<text text-anchor="middle" x="129.5" y="-130.5" font-family="Helvetica,sans-Serif" font-size="10.00" fill="#000000">drake/common/name_value.h</text>
</a>
</g>
</g>
<!-- Node1 -->
<g id="node2" class="node">
<title>Node1</title>
<g id="a_node2"><a xlink:href="drake__assert_8h.html" target="_top" xlink:title="Provides Drake&#39;s assertion implementation.">
<polygon fill="#ffffff" stroke="#000000" points="0,-56.5 0,-86.5 121,-86.5 121,-56.5 0,-56.5"/>
<text text-anchor="start" x="8" y="-74.5" font-family="Helvetica,sans-Serif" font-size="10.00" fill="#000000">drake/common/drake</text>
<text text-anchor="middle" x="60.5" y="-63.5" font-family="Helvetica,sans-Serif" font-size="10.00" fill="#000000">_assert.h</text>
</a>
</g>
</g>
<!-- Node0&#45;&gt;Node1 -->
<g id="edge1" class="edge">
<title>Node0&#45;&gt;Node1</title>
<path fill="none" stroke="#191970" d="M118.7188,-123.3906C109.7263,-115.3756 96.5669,-103.6466 85.0333,-93.3666"/>
<polygon fill="#191970" stroke="#191970" points="87.1733,-90.5855 77.3793,-86.5446 82.5156,-95.8111 87.1733,-90.5855"/>
</g>
<!-- Node3 -->
<g id="node4" class="node">
<title>Node3</title>
<g id="a_node4"><a xlink:href="drake__copyable_8h.html" target="_top" xlink:title="Provides careful macros to selectively enable or disable the special member functions for copy&#45;constr...">
<polygon fill="#ffffff" stroke="#000000" points="139,-56.5 139,-86.5 260,-86.5 260,-56.5 139,-56.5"/>
<text text-anchor="start" x="147" y="-74.5" font-family="Helvetica,sans-Serif" font-size="10.00" fill="#000000">drake/common/drake</text>
<text text-anchor="middle" x="199.5" y="-63.5" font-family="Helvetica,sans-Serif" font-size="10.00" fill="#000000">_copyable.h</text>
</a>
</g>
</g>
<!-- Node0&#45;&gt;Node3 -->
<g id="edge3" class="edge">
<title>Node0&#45;&gt;Node3</title>
<path fill="none" stroke="#191970" d="M140.4375,-123.3906C149.5603,-115.3756 162.9103,-103.6466 174.6112,-93.3666"/>
<polygon fill="#191970" stroke="#191970" points="177.1737,-95.7742 182.3761,-86.5446 172.5535,-90.5155 177.1737,-95.7742"/>
</g>
<!-- Node2 -->
<g id="node3" class="node">
<title>Node2</title>
<g id="a_node3"><a xlink:title=" ">
<polygon fill="#ffffff" stroke="#bfbfbf" points="26,-.5 26,-19.5 95,-19.5 95,-.5 26,-.5"/>
<text text-anchor="middle" x="60.5" y="-7.5" font-family="Helvetica,sans-Serif" font-size="10.00" fill="#000000">type_traits</text>
</a>
</g>
</g>
<!-- Node1&#45;&gt;Node2 -->
<g id="edge2" class="edge">
<title>Node1&#45;&gt;Node2</title>
<path fill="none" stroke="#191970" d="M60.5,-56.2977C60.5,-48.3834 60.5,-38.6043 60.5,-30.0759"/>
<polygon fill="#191970" stroke="#191970" points="64.0001,-29.8469 60.5,-19.8469 57.0001,-29.847 64.0001,-29.8469"/>
</g>
</g>
</svg>
