<?xml version="1.0" encoding="UTF-8" standalone="no"?>
<!DOCTYPE svg PUBLIC "-//W3C//DTD SVG 1.1//EN"
 "http://www.w3.org/Graphics/SVG/1.1/DTD/svg11.dtd">
<!-- Generated by graphviz version 2.40.1 (20161225.0304)
 -->
<!-- Title: drake/common/nice_type_name_override.h Pages: 1 -->
<svg width="211pt" height="95pt"
 viewBox="0.00 0.00 211.00 95.00" xmlns="http://www.w3.org/2000/svg" xmlns:xlink="http://www.w3.org/1999/xlink">
<g id="graph0" class="graph" transform="scale(1 1) rotate(0) translate(4 91)">
<title>drake/common/nice_type_name_override.h</title>
<polygon fill="#ffffff" stroke="transparent" points="-4,4 -4,-91 207,-91 207,4 -4,4"/>
<!-- Node0 -->
<g id="node1" class="node">
<title>Node0</title>
<g id="a_node1"><a xlink:title="(Advanced) Provides the ability to override NiceTypeName::Get(T*) so that Python objects can have hum...">
<polygon fill="#bfbfbf" stroke="#000000" points="35.5,-56.5 35.5,-86.5 175.5,-86.5 175.5,-56.5 35.5,-56.5"/>
<text text-anchor="start" x="43.5" y="-74.5" font-family="Helvetica,sans-Serif" font-size="10.00" fill="#000000">drake/common/nice_type</text>
<text text-anchor="middle" x="105.5" y="-63.5" font-family="Helvetica,sans-Serif" font-size="10.00" fill="#000000">_name_override.h</text>
</a>
</g>
</g>
<!-- Node1 -->
<g id="node2" class="node">
<title>Node1</title>
<g id="a_node2"><a xlink:title=" ">
<polygon fill="#ffffff" stroke="#bfbfbf" points="0,-.5 0,-19.5 65,-19.5 65,-.5 0,-.5"/>
<text text-anchor="middle" x="32.5" y="-7.5" font-family="Helvetica,sans-Serif" font-size="10.00" fill="#000000">functional</text>
</a>
</g>
</g>
<!-- Node0&#45;&gt;Node1 -->
<g id="edge1" class="edge">
<title>Node0&#45;&gt;Node1</title>
<path fill="none" stroke="#191970" d="M87.4551,-56.2977C76.6886,-47.2274 63.0149,-35.7077 52.0005,-26.4285"/>
<polygon fill="#191970" stroke="#191970" points="54.0911,-23.6132 44.1882,-19.8469 49.5809,-28.9667 54.0911,-23.6132"/>
</g>
<!-- Node2 -->
<g id="node3" class="node">
<title>Node2</title>
<g id="a_node3"><a xlink:title=" ">
<polygon fill="#ffffff" stroke="#bfbfbf" points="83.5,-.5 83.5,-19.5 127.5,-19.5 127.5,-.5 83.5,-.5"/>
<text text-anchor="middle" x="105.5" y="-7.5" font-family="Helvetica,sans-Serif" font-size="10.00" fill="#000000">string</text>
</a>
</g>
</g>
<!-- Node0&#45;&gt;Node2 -->
<g id="edge2" class="edge">
<title>Node0&#45;&gt;Node2</title>
<path fill="none" stroke="#191970" d="M105.5,-56.2977C105.5,-48.3834 105.5,-38.6043 105.5,-30.0759"/>
<polygon fill="#191970" stroke="#191970" points="109.0001,-29.8469 105.5,-19.8469 102.0001,-29.847 109.0001,-29.8469"/>
</g>
<!-- Node3 -->
<g id="node4" class="node">
<title>Node3</title>
<g id="a_node4"><a xlink:title=" ">
<polygon fill="#ffffff" stroke="#bfbfbf" points="146,-.5 146,-19.5 203,-19.5 203,-.5 146,-.5"/>
<text text-anchor="middle" x="174.5" y="-7.5" font-family="Helvetica,sans-Serif" font-size="10.00" fill="#000000">typeinfo</text>
</a>
</g>
</g>
<!-- Node0&#45;&gt;Node3 -->
<g id="edge3" class="edge">
<title>Node0&#45;&gt;Node3</title>
<path fill="none" stroke="#191970" d="M122.5562,-56.2977C132.6329,-47.3163 145.404,-35.9334 155.7611,-26.702"/>
<polygon fill="#191970" stroke="#191970" points="158.3159,-29.1135 163.4522,-19.8469 153.6583,-23.8879 158.3159,-29.1135"/>
</g>
</g>
</svg>
