<?xml version="1.0" encoding="UTF-8" standalone="no"?>
<!DOCTYPE svg PUBLIC "-//W3C//DTD SVG 1.1//EN"
 "http://www.w3.org/Graphics/SVG/1.1/DTD/svg11.dtd">
<!-- Generated by graphviz version 2.40.1 (20161225.0304)
 -->
<!-- Title: drake/geometry/render/gl_renderer/opengl_includes.h Pages: 1 -->
<svg width="730pt" height="173pt"
 viewBox="0.00 0.00 729.50 173.00" xmlns="http://www.w3.org/2000/svg" xmlns:xlink="http://www.w3.org/1999/xlink">
<g id="graph0" class="graph" transform="scale(1 1) rotate(0) translate(4 169)">
<title>drake/geometry/render/gl_renderer/opengl_includes.h</title>
<polygon fill="#ffffff" stroke="transparent" points="-4,4 -4,-169 725.5,-169 725.5,4 -4,4"/>
<!-- Node3 -->
<g id="node1" class="node">
<title>Node3</title>
<g id="a_node1"><a xlink:title="Provides a one&#45;stop shop for pulling in the OpenGl symbols with the required extensions.">
<polygon fill="#bfbfbf" stroke="#000000" points="282.5,-134.5 282.5,-164.5 448.5,-164.5 448.5,-134.5 282.5,-134.5"/>
<text text-anchor="start" x="290.5" y="-152.5" font-family="Helvetica,sans-Serif" font-size="10.00" fill="#000000">drake/geometry/render</text>
<text text-anchor="middle" x="365.5" y="-141.5" font-family="Helvetica,sans-Serif" font-size="10.00" fill="#000000">/gl_renderer/opengl_includes.h</text>
</a>
</g>
</g>
<!-- Node4 -->
<g id="node2" class="node">
<title>Node4</title>
<g id="a_node2"><a xlink:href="opengl__context_8h.html" target="_top" xlink:title=" ">
<polygon fill="#ffffff" stroke="#000000" points="4.5,-67.5 4.5,-97.5 166.5,-97.5 166.5,-67.5 4.5,-67.5"/>
<text text-anchor="start" x="12.5" y="-85.5" font-family="Helvetica,sans-Serif" font-size="10.00" fill="#000000">drake/geometry/render</text>
<text text-anchor="middle" x="85.5" y="-74.5" font-family="Helvetica,sans-Serif" font-size="10.00" fill="#000000">/gl_renderer/opengl_context.h</text>
</a>
</g>
</g>
<!-- Node3&#45;&gt;Node4 -->
<g id="edge1" class="edge">
<title>Node3&#45;&gt;Node4</title>
<path fill="none" stroke="#191970" d="M292.7414,-132.0899C248.0592,-121.3981 191.3925,-107.8386 148.6115,-97.6017"/>
<polygon fill="#191970" stroke="#191970" points="292.1226,-135.5406 302.6625,-134.4639 293.7516,-128.7327 292.1226,-135.5406"/>
</g>
<!-- Node6 -->
<g id="node4" class="node">
<title>Node6</title>
<g id="a_node4"><a xlink:href="opengl__geometry_8h.html" target="_top" xlink:title=" ">
<polygon fill="#ffffff" stroke="#000000" points="185,-67.5 185,-97.5 358,-97.5 358,-67.5 185,-67.5"/>
<text text-anchor="start" x="193" y="-85.5" font-family="Helvetica,sans-Serif" font-size="10.00" fill="#000000">drake/geometry/render</text>
<text text-anchor="middle" x="271.5" y="-74.5" font-family="Helvetica,sans-Serif" font-size="10.00" fill="#000000">/gl_renderer/opengl_geometry.h</text>
</a>
</g>
</g>
<!-- Node3&#45;&gt;Node6 -->
<g id="edge3" class="edge">
<title>Node3&#45;&gt;Node6</title>
<path fill="none" stroke="#191970" d="M335.8225,-128.3469C321.8357,-118.3776 305.4692,-106.7121 292.7456,-97.6432"/>
<polygon fill="#191970" stroke="#191970" points="333.9953,-131.3426 344.1699,-134.2967 338.0582,-125.6423 333.9953,-131.3426"/>
</g>
<!-- Node7 -->
<g id="node5" class="node">
<title>Node7</title>
<g id="a_node5"><a xlink:href="shader__program_8h.html" target="_top" xlink:title=" ">
<polygon fill="#ffffff" stroke="#000000" points="376,-67.5 376,-97.5 543,-97.5 543,-67.5 376,-67.5"/>
<text text-anchor="start" x="384" y="-85.5" font-family="Helvetica,sans-Serif" font-size="10.00" fill="#000000">drake/geometry/render</text>
<text text-anchor="middle" x="459.5" y="-74.5" font-family="Helvetica,sans-Serif" font-size="10.00" fill="#000000">/gl_renderer/shader_program.h</text>
</a>
</g>
</g>
<!-- Node3&#45;&gt;Node7 -->
<g id="edge4" class="edge">
<title>Node3&#45;&gt;Node7</title>
<path fill="none" stroke="#191970" d="M395.1775,-128.3469C409.1643,-118.3776 425.5308,-106.7121 438.2544,-97.6432"/>
<polygon fill="#191970" stroke="#191970" points="392.9418,-125.6423 386.8301,-134.2967 397.0047,-131.3426 392.9418,-125.6423"/>
</g>
<!-- Node8 -->
<g id="node6" class="node">
<title>Node8</title>
<g id="a_node6"><a xlink:href="shape__meshes_8h.html" target="_top" xlink:title=" ">
<polygon fill="#ffffff" stroke="#000000" points="561.5,-67.5 561.5,-97.5 721.5,-97.5 721.5,-67.5 561.5,-67.5"/>
<text text-anchor="start" x="569.5" y="-85.5" font-family="Helvetica,sans-Serif" font-size="10.00" fill="#000000">drake/geometry/render</text>
<text text-anchor="middle" x="641.5" y="-74.5" font-family="Helvetica,sans-Serif" font-size="10.00" fill="#000000">/gl_renderer/shape_meshes.h</text>
</a>
</g>
</g>
<!-- Node3&#45;&gt;Node8 -->
<g id="edge5" class="edge">
<title>Node3&#45;&gt;Node8</title>
<path fill="none" stroke="#191970" d="M437.2192,-132.0899C481.2631,-121.3981 537.1203,-107.8386 579.2901,-97.6017"/>
<polygon fill="#191970" stroke="#191970" points="436.3319,-128.7036 427.4398,-134.4639 437.9832,-135.506 436.3319,-128.7036"/>
</g>
<!-- Node5 -->
<g id="node3" class="node">
<title>Node5</title>
<g id="a_node3"><a xlink:href="render__engine__gl_8h.html" target="_top" xlink:title=" ">
<polygon fill="#ffffff" stroke="#000000" points="0,-.5 0,-30.5 171,-30.5 171,-.5 0,-.5"/>
<text text-anchor="start" x="8" y="-18.5" font-family="Helvetica,sans-Serif" font-size="10.00" fill="#000000">drake/geometry/render</text>
<text text-anchor="middle" x="85.5" y="-7.5" font-family="Helvetica,sans-Serif" font-size="10.00" fill="#000000">/gl_renderer/render_engine_gl.h</text>
</a>
</g>
</g>
<!-- Node4&#45;&gt;Node5 -->
<g id="edge2" class="edge">
<title>Node4&#45;&gt;Node5</title>
<path fill="none" stroke="#191970" d="M85.5,-57.0249C85.5,-48.128 85.5,-38.4287 85.5,-30.6432"/>
<polygon fill="#191970" stroke="#191970" points="82.0001,-57.2966 85.5,-67.2967 89.0001,-57.2967 82.0001,-57.2966"/>
</g>
</g>
</svg>
