<?xml version="1.0" encoding="UTF-8" standalone="no"?>
<!DOCTYPE svg PUBLIC "-//W3C//DTD SVG 1.1//EN"
 "http://www.w3.org/Graphics/SVG/1.1/DTD/svg11.dtd">
<!-- Generated by graphviz version 2.40.1 (20161225.0304)
 -->
<!-- Title: drake/multibody/parsing/package_map.h Pages: 1 -->
<!--zoomable 184 -->
<svg id="main" version="1.1" xmlns="http://www.w3.org/2000/svg" xmlns:xlink="http://www.w3.org/1999/xlink" xml:space="preserve" onload="init(evt)">
<style type="text/css"><![CDATA[
.edge:hover path { stroke: red; }
.edge:hover polygon { stroke: red; fill: red; }
]]></style>
<script type="text/javascript"><![CDATA[
var edges = document.getElementsByTagName('g');
if (edges && edges.length) {
  for (var i=0;i<edges.length;i++) {
    if (edges[i].id.substr(0,4)=='edge') {
      edges[i].setAttribute('class','edge');
    }
  }
}
]]></script>
        <defs>
                <circle id="rim" cx="0" cy="0" r="7"/>
                <circle id="rim2" cx="0" cy="0" r="3.5"/>
                <g id="zoomPlus">
                        <use xlink:href="#rim" fill="#404040">
                                <set attributeName="fill" to="#808080" begin="zoomplus.mouseover" end="zoomplus.mouseout"/>
                        </use>
                        <path d="M-4,0h8M0,-4v8" fill="none" stroke="white" stroke-width="1.5" pointer-events="none"/>
                </g>
                <g id="zoomMin">
                        <use xlink:href="#rim" fill="#404040">
                                <set attributeName="fill" to="#808080" begin="zoomminus.mouseover" end="zoomminus.mouseout"/>
                        </use>
                        <path d="M-4,0h8" fill="none" stroke="white" stroke-width="1.5" pointer-events="none"/>
                </g>
                <g id="dirArrow">
                        <path fill="none" stroke="white" stroke-width="1.5" d="M0,-3.0v7 M-2.5,-0.5L0,-3.0L2.5,-0.5"/>
                </g>
               <g id="resetDef">
                       <use xlink:href="#rim2" fill="#404040">
                               <set attributeName="fill" to="#808080" begin="reset.mouseover" end="reset.mouseout"/>
                       </use>
               </g>
        </defs>

<script type="text/javascript">
var viewWidth = 914;
var viewHeight = 184;
var sectionId = 'dynsection-1';
</script>
<script xlink:href="svgpan.js"/>
<svg id="graph" class="graph">
<g id="viewport">
<title>drake/multibody/parsing/package_map.h</title>
<polygon fill="#ffffff" stroke="transparent" points="-4,4 -4,-180 910,-180 910,4 -4,4"/>
<!-- Node4 -->
<g id="node1" class="node">
<title>Node4</title>
<g id="a_node1"><a xlink:title=" ">
<polygon fill="#bfbfbf" stroke="#000000" points="385,-145.5 385,-175.5 521,-175.5 521,-145.5 385,-145.5"/>
<text text-anchor="start" x="393" y="-163.5" font-family="Helvetica,sans-Serif" font-size="10.00" fill="#000000">drake/multibody/parsing</text>
<text text-anchor="middle" x="453" y="-152.5" font-family="Helvetica,sans-Serif" font-size="10.00" fill="#000000">/package_map.h</text>
</a>
</g>
</g>
<!-- Node5 -->
<g id="node2" class="node">
<title>Node5</title>
<g id="a_node2"><a xlink:href="detail__path__utils_8h.html" target="_top" xlink:title=" ">
<polygon fill="#ffffff" stroke="#000000" points="0,-78.5 0,-108.5 136,-108.5 136,-78.5 0,-78.5"/>
<text text-anchor="start" x="8" y="-96.5" font-family="Helvetica,sans-Serif" font-size="10.00" fill="#000000">drake/multibody/parsing</text>
<text text-anchor="middle" x="68" y="-85.5" font-family="Helvetica,sans-Serif" font-size="10.00" fill="#000000">/detail_path_utils.h</text>
</a>
</g>
</g>
<!-- Node4&#45;&gt;Node5 -->
<g id="edge1" class="edge">
<title>Node4&#45;&gt;Node5</title>
<path fill="none" stroke="#191970" d="M374.8383,-148.1605C312.5068,-138.1444 223.0316,-123.3735 145,-109 142.1838,-108.4812 139.3114,-107.9433 136.4112,-107.3928"/>
<polygon fill="#191970" stroke="#191970" points="374.5612,-151.6607 384.9893,-149.7883 375.6696,-144.749 374.5612,-151.6607"/>
</g>
<!-- Node6 -->
<g id="node3" class="node">
<title>Node6</title>
<g id="a_node3"><a xlink:href="detail__scene__graph_8h.html" target="_top" xlink:title=" ">
<polygon fill="#ffffff" stroke="#000000" points="154,-78.5 154,-108.5 290,-108.5 290,-78.5 154,-78.5"/>
<text text-anchor="start" x="162" y="-96.5" font-family="Helvetica,sans-Serif" font-size="10.00" fill="#000000">drake/multibody/parsing</text>
<text text-anchor="middle" x="222" y="-85.5" font-family="Helvetica,sans-Serif" font-size="10.00" fill="#000000">/detail_scene_graph.h</text>
</a>
</g>
</g>
<!-- Node4&#45;&gt;Node6 -->
<g id="edge2" class="edge">
<title>Node4&#45;&gt;Node6</title>
<path fill="none" stroke="#191970" d="M391.1072,-142.5484C354.5431,-131.9432 308.7681,-118.6665 274.067,-108.6017"/>
<polygon fill="#191970" stroke="#191970" points="390.5799,-146.0397 401.1591,-145.4639 392.5299,-139.3167 390.5799,-146.0397"/>
</g>
<!-- Node7 -->
<g id="node4" class="node">
<title>Node7</title>
<g id="a_node4"><a xlink:href="detail__sdf__parser_8h.html" target="_top" xlink:title=" ">
<polygon fill="#ffffff" stroke="#000000" points="308,-78.5 308,-108.5 444,-108.5 444,-78.5 308,-78.5"/>
<text text-anchor="start" x="316" y="-96.5" font-family="Helvetica,sans-Serif" font-size="10.00" fill="#000000">drake/multibody/parsing</text>
<text text-anchor="middle" x="376" y="-85.5" font-family="Helvetica,sans-Serif" font-size="10.00" fill="#000000">/detail_sdf_parser.h</text>
</a>
</g>
</g>
<!-- Node4&#45;&gt;Node7 -->
<g id="edge3" class="edge">
<title>Node4&#45;&gt;Node7</title>
<path fill="none" stroke="#191970" d="M427.7124,-138.4965C416.476,-128.7193 403.5308,-117.4554 393.4033,-108.6432"/>
<polygon fill="#191970" stroke="#191970" points="425.6861,-141.3728 435.5275,-145.2967 430.281,-136.092 425.6861,-141.3728"/>
</g>
<!-- Node8 -->
<g id="node5" class="node">
<title>Node8</title>
<g id="a_node5"><a xlink:href="detail__urdf__geometry_8h.html" target="_top" xlink:title=" ">
<polygon fill="#ffffff" stroke="#000000" points="462,-78.5 462,-108.5 598,-108.5 598,-78.5 462,-78.5"/>
<text text-anchor="start" x="470" y="-96.5" font-family="Helvetica,sans-Serif" font-size="10.00" fill="#000000">drake/multibody/parsing</text>
<text text-anchor="middle" x="530" y="-85.5" font-family="Helvetica,sans-Serif" font-size="10.00" fill="#000000">/detail_urdf_geometry.h</text>
</a>
</g>
</g>
<!-- Node4&#45;&gt;Node8 -->
<g id="edge4" class="edge">
<title>Node4&#45;&gt;Node8</title>
<path fill="none" stroke="#191970" d="M478.2876,-138.4965C489.524,-128.7193 502.4692,-117.4554 512.5967,-108.6432"/>
<polygon fill="#191970" stroke="#191970" points="475.719,-136.092 470.4725,-145.2967 480.3139,-141.3728 475.719,-136.092"/>
</g>
<!-- Node9 -->
<g id="node6" class="node">
<title>Node9</title>
<g id="a_node6"><a xlink:href="detail__urdf__parser_8h.html" target="_top" xlink:title=" ">
<polygon fill="#ffffff" stroke="#000000" points="616,-78.5 616,-108.5 752,-108.5 752,-78.5 616,-78.5"/>
<text text-anchor="start" x="624" y="-96.5" font-family="Helvetica,sans-Serif" font-size="10.00" fill="#000000">drake/multibody/parsing</text>
<text text-anchor="middle" x="684" y="-85.5" font-family="Helvetica,sans-Serif" font-size="10.00" fill="#000000">/detail_urdf_parser.h</text>
</a>
</g>
</g>
<!-- Node4&#45;&gt;Node9 -->
<g id="edge5" class="edge">
<title>Node4&#45;&gt;Node9</title>
<path fill="none" stroke="#191970" d="M514.8928,-142.5484C551.4569,-131.9432 597.2319,-118.6665 631.933,-108.6017"/>
<polygon fill="#191970" stroke="#191970" points="513.4701,-139.3167 504.8409,-145.4639 515.4201,-146.0397 513.4701,-139.3167"/>
</g>
<!-- Node10 -->
<g id="node7" class="node">
<title>Node10</title>
<g id="a_node7"><a xlink:href="parser_8h.html" target="_top" xlink:title=" ">
<polygon fill="#ffffff" stroke="#000000" points="770,-78.5 770,-108.5 906,-108.5 906,-78.5 770,-78.5"/>
<text text-anchor="start" x="778" y="-96.5" font-family="Helvetica,sans-Serif" font-size="10.00" fill="#000000">drake/multibody/parsing</text>
<text text-anchor="middle" x="838" y="-85.5" font-family="Helvetica,sans-Serif" font-size="10.00" fill="#000000">/parser.h</text>
</a>
</g>
</g>
<!-- Node4&#45;&gt;Node10 -->
<g id="edge6" class="edge">
<title>Node4&#45;&gt;Node10</title>
<path fill="none" stroke="#191970" d="M531.1617,-148.1605C593.4932,-138.1444 682.9684,-123.3735 761,-109 763.8162,-108.4812 766.6886,-107.9433 769.5888,-107.3928"/>
<polygon fill="#191970" stroke="#191970" points="530.3304,-144.749 521.0107,-149.7883 531.4388,-151.6607 530.3304,-144.749"/>
</g>
<!-- Node11 -->
<g id="node8" class="node">
<title>Node11</title>
<g id="a_node8"><a xlink:href="add__fixed__objects__to__plant_8h.html" target="_top" xlink:title=" ">
<polygon fill="#ffffff" stroke="#000000" points="778.5,-.5 778.5,-41.5 897.5,-41.5 897.5,-.5 778.5,-.5"/>
<text text-anchor="start" x="786.5" y="-29.5" font-family="Helvetica,sans-Serif" font-size="10.00" fill="#000000">drake/multibody/test</text>
<text text-anchor="start" x="786.5" y="-18.5" font-family="Helvetica,sans-Serif" font-size="10.00" fill="#000000">_utilities/add_fixed</text>
<text text-anchor="middle" x="838" y="-7.5" font-family="Helvetica,sans-Serif" font-size="10.00" fill="#000000">_objects_to_plant.h</text>
</a>
</g>
</g>
<!-- Node10&#45;&gt;Node11 -->
<g id="edge7" class="edge">
<title>Node10&#45;&gt;Node11</title>
<path fill="none" stroke="#191970" d="M838,-68.4016C838,-59.6173 838,-49.8652 838,-41.5015"/>
<polygon fill="#191970" stroke="#191970" points="834.5001,-68.4779 838,-78.478 841.5001,-68.478 834.5001,-68.4779"/>
</g>
</g>
</svg>
        <g id="navigator" transform="translate(0 0)" fill="#404254">
                <rect fill="#f2f5e9" fill-opacity="0.5" stroke="#606060" stroke-width=".5" x="0" y="0" width="60" height="60"/>
                <use id="zoomplus" xlink:href="#zoomPlus" x="17" y="9" onmousedown="handleZoom(evt,'in')"/>
                <use id="zoomminus" xlink:href="#zoomMin" x="42" y="9" onmousedown="handleZoom(evt,'out')"/>
                <use id="reset" xlink:href="#resetDef" x="30" y="36" onmousedown="handleReset()"/>
                <g id="arrowUp" xlink:href="#dirArrow" transform="translate(30 24)" onmousedown="handlePan(0,-1)">
                  <use xlink:href="#rim" fill="#404040">
                        <set attributeName="fill" to="#808080" begin="arrowUp.mouseover" end="arrowUp.mouseout"/>
                  </use>
                  <path fill="none" stroke="white" stroke-width="1.5" d="M0,-3.0v7 M-2.5,-0.5L0,-3.0L2.5,-0.5"/>
                </g>
                <g id="arrowRight" xlink:href="#dirArrow" transform="rotate(90) translate(36 -43)" onmousedown="handlePan(1,0)">
                  <use xlink:href="#rim" fill="#404040">
                        <set attributeName="fill" to="#808080" begin="arrowRight.mouseover" end="arrowRight.mouseout"/>
                  </use>
                  <path fill="none" stroke="white" stroke-width="1.5" d="M0,-3.0v7 M-2.5,-0.5L0,-3.0L2.5,-0.5"/>
                </g>
                <g id="arrowDown" xlink:href="#dirArrow" transform="rotate(180) translate(-30 -48)" onmousedown="handlePan(0,1)">
                  <use xlink:href="#rim" fill="#404040">
                        <set attributeName="fill" to="#808080" begin="arrowDown.mouseover" end="arrowDown.mouseout"/>
                  </use>
                  <path fill="none" stroke="white" stroke-width="1.5" d="M0,-3.0v7 M-2.5,-0.5L0,-3.0L2.5,-0.5"/>
                </g>
                <g id="arrowLeft" xlink:href="#dirArrow" transform="rotate(270) translate(-36 17)" onmousedown="handlePan(-1,0)">
                  <use xlink:href="#rim" fill="#404040">
                        <set attributeName="fill" to="#808080" begin="arrowLeft.mouseover" end="arrowLeft.mouseout"/>
                  </use>
                  <path fill="none" stroke="white" stroke-width="1.5" d="M0,-3.0v7 M-2.5,-0.5L0,-3.0L2.5,-0.5"/>
                </g>
        </g>
        <svg viewBox="0 0 15 15" width="100%" height="30px" preserveAspectRatio="xMaxYMin meet">
         <g id="arrow_out" transform="scale(0.3 0.3)">
          <a xlink:href="package__map_8h__dep__incl_org.svg" target="_base">
           <rect id="button" ry="5" rx="5" y="6" x="6" height="38" width="38"
                fill="#f2f5e9" fill-opacity="0.5" stroke="#606060" stroke-width="1.0"/>
           <path id="arrow"
             d="M 11.500037,31.436501 C 11.940474,20.09759 22.043105,11.32322 32.158766,21.979434 L 37.068811,17.246167 C 37.068811,17.246167 37.088388,32 37.088388,32 L 22.160133,31.978069 C 22.160133,31.978069 26.997745,27.140456 26.997745,27.140456 C 18.528582,18.264221 13.291696,25.230495 11.500037,31.436501 z"
             style="fill:#404040;"/>
          </a>
         </g>
        </svg>
</svg>
