<?xml version="1.0" encoding="UTF-8" standalone="no"?>
<!DOCTYPE svg PUBLIC "-//W3C//DTD SVG 1.1//EN"
 "http://www.w3.org/Graphics/SVG/1.1/DTD/svg11.dtd">
<!-- Generated by graphviz version 2.40.1 (20161225.0304)
 -->
<!-- Title: drake/systems/framework/test_utilities/pack_value.h Pages: 1 -->
<svg width="1392pt" height="352pt"
 viewBox="0.00 0.00 1392.50 352.00" xmlns="http://www.w3.org/2000/svg" xmlns:xlink="http://www.w3.org/1999/xlink">
<g id="graph0" class="graph" transform="scale(1 1) rotate(0) translate(4 348)">
<title>drake/systems/framework/test_utilities/pack_value.h</title>
<polygon fill="#ffffff" stroke="transparent" points="-4,4 -4,-348 1388.4963,-348 1388.4963,4 -4,4"/>
<!-- Node0 -->
<g id="node1" class="node">
<title>Node0</title>
<g id="a_node1"><a xlink:title=" ">
<polygon fill="#bfbfbf" stroke="#000000" points="372.5,-313.5 372.5,-343.5 520.5,-343.5 520.5,-313.5 372.5,-313.5"/>
<text text-anchor="start" x="380.5" y="-331.5" font-family="Helvetica,sans-Serif" font-size="10.00" fill="#000000">drake/systems/framework</text>
<text text-anchor="middle" x="446.5" y="-320.5" font-family="Helvetica,sans-Serif" font-size="10.00" fill="#000000">/test_utilities/pack_value.h</text>
</a>
</g>
</g>
<!-- Node1 -->
<g id="node2" class="node">
<title>Node1</title>
<g id="a_node2"><a xlink:title=" ">
<polygon fill="#ffffff" stroke="#bfbfbf" points="307.5,-129 307.5,-148 365.5,-148 365.5,-129 307.5,-129"/>
<text text-anchor="middle" x="336.5" y="-136" font-family="Helvetica,sans-Serif" font-size="10.00" fill="#000000">memory</text>
</a>
</g>
</g>
<!-- Node0&#45;&gt;Node1 -->
<g id="edge1" class="edge">
<title>Node0&#45;&gt;Node1</title>
<path fill="none" stroke="#191970" d="M372.2674,-314.3585C285.8761,-296.2156 151.2148,-262.1269 121.5,-221 113.4311,-209.8322 112.9675,-200.8177 121.5,-190 126.9911,-183.0382 236.6017,-159.2887 297.1406,-146.6179"/>
<polygon fill="#191970" stroke="#191970" points="298.0503,-150.0036 307.125,-144.5355 296.6211,-143.1511 298.0503,-150.0036"/>
</g>
<!-- Node2 -->
<g id="node3" class="node">
<title>Node2</title>
<g id="a_node3"><a xlink:href="drake__assert_8h.html" target="_top" xlink:title="Provides Drake&#39;s assertion implementation.">
<polygon fill="#ffffff" stroke="#000000" points="1135,-56.5 1135,-86.5 1256,-86.5 1256,-56.5 1135,-56.5"/>
<text text-anchor="start" x="1143" y="-74.5" font-family="Helvetica,sans-Serif" font-size="10.00" fill="#000000">drake/common/drake</text>
<text text-anchor="middle" x="1195.5" y="-63.5" font-family="Helvetica,sans-Serif" font-size="10.00" fill="#000000">_assert.h</text>
</a>
</g>
</g>
<!-- Node0&#45;&gt;Node2 -->
<g id="edge2" class="edge">
<title>Node0&#45;&gt;Node2</title>
<path fill="none" stroke="#191970" d="M520.7466,-326.1007C720.0138,-317.9469 1258.7903,-284.0598 1366.5,-154 1399.7089,-113.9001 1326.8353,-91.8763 1266.1457,-80.8884"/>
<polygon fill="#191970" stroke="#191970" points="1266.5945,-77.4141 1256.1436,-79.1548 1265.399,-84.3113 1266.5945,-77.4141"/>
</g>
<!-- Node4 -->
<g id="node5" class="node">
<title>Node4</title>
<g id="a_node5"><a xlink:href="value_8h.html" target="_top" xlink:title=" ">
<polygon fill="#ffffff" stroke="#000000" points="382,-257.5 382,-276.5 511,-276.5 511,-257.5 382,-257.5"/>
<text text-anchor="middle" x="446.5" y="-264.5" font-family="Helvetica,sans-Serif" font-size="10.00" fill="#000000">drake/common/value.h</text>
</a>
</g>
</g>
<!-- Node0&#45;&gt;Node4 -->
<g id="edge4" class="edge">
<title>Node0&#45;&gt;Node4</title>
<path fill="none" stroke="#191970" d="M446.5,-313.2977C446.5,-305.3834 446.5,-295.6043 446.5,-287.0759"/>
<polygon fill="#191970" stroke="#191970" points="450.0001,-286.8469 446.5,-276.8469 443.0001,-286.847 450.0001,-286.8469"/>
</g>
<!-- Node3 -->
<g id="node4" class="node">
<title>Node3</title>
<g id="a_node4"><a xlink:title=" ">
<polygon fill="#ffffff" stroke="#bfbfbf" points="949,-.5 949,-19.5 1018,-19.5 1018,-.5 949,-.5"/>
<text text-anchor="middle" x="983.5" y="-7.5" font-family="Helvetica,sans-Serif" font-size="10.00" fill="#000000">type_traits</text>
</a>
</g>
</g>
<!-- Node2&#45;&gt;Node3 -->
<g id="edge3" class="edge">
<title>Node2&#45;&gt;Node3</title>
<path fill="none" stroke="#191970" d="M1143.639,-56.4554C1107.4905,-45.9689 1059.8595,-32.1515 1025.9643,-22.3187"/>
<polygon fill="#191970" stroke="#191970" points="1026.9317,-18.9551 1016.3525,-19.5303 1024.9814,-25.6779 1026.9317,-18.9551"/>
</g>
<!-- Node4&#45;&gt;Node1 -->
<g id="edge5" class="edge">
<title>Node4&#45;&gt;Node1</title>
<path fill="none" stroke="#191970" d="M404.0274,-257.4427C383.7592,-250.6665 361.0318,-239.3968 347.5,-221 334.1703,-202.878 332.9853,-176.2852 334.1033,-158.2271"/>
<polygon fill="#191970" stroke="#191970" points="337.5916,-158.5136 335.009,-148.2384 330.6202,-157.8815 337.5916,-158.5136"/>
</g>
<!-- Node4&#45;&gt;Node3 -->
<g id="edge8" class="edge">
<title>Node4&#45;&gt;Node3</title>
<path fill="none" stroke="#191970" d="M511.3197,-264.0282C711.7256,-254.1703 1311.2106,-219.4022 1366.5,-154 1461.9909,-41.0432 1148.7833,-16.5718 1028.5315,-11.3718"/>
<polygon fill="#191970" stroke="#191970" points="1028.3212,-7.8604 1018.1874,-10.9517 1028.0371,-14.8547 1028.3212,-7.8604"/>
</g>
<!-- Node5 -->
<g id="node6" class="node">
<title>Node5</title>
<g id="a_node6"><a xlink:title=" ">
<polygon fill="#ffffff" stroke="#bfbfbf" points="585,-196 585,-215 650,-215 650,-196 585,-196"/>
<text text-anchor="middle" x="617.5" y="-203" font-family="Helvetica,sans-Serif" font-size="10.00" fill="#000000">stdexcept</text>
</a>
</g>
</g>
<!-- Node4&#45;&gt;Node5 -->
<g id="edge6" class="edge">
<title>Node4&#45;&gt;Node5</title>
<path fill="none" stroke="#191970" d="M473.2188,-257.3906C502.3321,-246.92 549.0692,-230.1111 581.4247,-218.4745"/>
<polygon fill="#191970" stroke="#191970" points="582.7435,-221.7197 590.9689,-215.0419 580.3744,-215.1328 582.7435,-221.7197"/>
</g>
<!-- Node6 -->
<g id="node7" class="node">
<title>Node6</title>
<g id="a_node7"><a xlink:title=" ">
<polygon fill="#ffffff" stroke="#bfbfbf" points="383.5,-129 383.5,-148 427.5,-148 427.5,-129 383.5,-129"/>
<text text-anchor="middle" x="405.5" y="-136" font-family="Helvetica,sans-Serif" font-size="10.00" fill="#000000">string</text>
</a>
</g>
</g>
<!-- Node4&#45;&gt;Node6 -->
<g id="edge7" class="edge">
<title>Node4&#45;&gt;Node6</title>
<path fill="none" stroke="#191970" d="M407.523,-257.3933C388.6381,-250.5635 367.6742,-239.2604 356.5,-221 342.5007,-198.1229 365.4905,-171.3902 384.4811,-154.7"/>
<polygon fill="#191970" stroke="#191970" points="386.827,-157.3009 392.2556,-148.2024 382.338,-151.9297 386.827,-157.3009"/>
</g>
<!-- Node7 -->
<g id="node8" class="node">
<title>Node7</title>
<g id="a_node8"><a xlink:title=" ">
<polygon fill="#ffffff" stroke="#bfbfbf" points="55,-129 55,-148 112,-148 112,-129 55,-129"/>
<text text-anchor="middle" x="83.5" y="-136" font-family="Helvetica,sans-Serif" font-size="10.00" fill="#000000">typeinfo</text>
</a>
</g>
</g>
<!-- Node4&#45;&gt;Node7 -->
<g id="edge9" class="edge">
<title>Node4&#45;&gt;Node7</title>
<path fill="none" stroke="#191970" d="M381.8471,-265.0565C299.0762,-261.3667 161.5554,-250.8156 121.5,-221 101.1974,-205.8876 91.4157,-177.2964 86.943,-158.0679"/>
<polygon fill="#191970" stroke="#191970" points="90.3169,-157.0966 84.8837,-148.0009 83.4589,-158.4995 90.3169,-157.0966"/>
</g>
<!-- Node8 -->
<g id="node9" class="node">
<title>Node8</title>
<g id="a_node9"><a xlink:title=" ">
<polygon fill="#ffffff" stroke="#bfbfbf" points="484,-62 484,-81 529,-81 529,-62 484,-62"/>
<text text-anchor="middle" x="506.5" y="-69" font-family="Helvetica,sans-Serif" font-size="10.00" fill="#000000">utility</text>
</a>
</g>
</g>
<!-- Node4&#45;&gt;Node8 -->
<g id="edge10" class="edge">
<title>Node4&#45;&gt;Node8</title>
<path fill="none" stroke="#191970" d="M486.3672,-257.3369C505.3355,-250.5199 526.2789,-239.2455 537.5,-221 544.7177,-209.2641 540.202,-203.5102 537.5,-190 534.1007,-173.0033 527.5092,-170.5937 522.5,-154 516.1965,-133.119 511.7987,-108.4907 509.2305,-91.6131"/>
<polygon fill="#191970" stroke="#191970" points="512.636,-90.7059 507.7439,-81.3082 505.7077,-91.7055 512.636,-90.7059"/>
</g>
<!-- Node9 -->
<g id="node10" class="node">
<title>Node9</title>
<g id="a_node10"><a xlink:href="copyable__unique__ptr_8h.html" target="_top" xlink:title=" ">
<polygon fill="#ffffff" stroke="#000000" points="668,-190.5 668,-220.5 805,-220.5 805,-190.5 668,-190.5"/>
<text text-anchor="start" x="676" y="-208.5" font-family="Helvetica,sans-Serif" font-size="10.00" fill="#000000">drake/common/copyable</text>
<text text-anchor="middle" x="736.5" y="-197.5" font-family="Helvetica,sans-Serif" font-size="10.00" fill="#000000">_unique_ptr.h</text>
</a>
</g>
</g>
<!-- Node4&#45;&gt;Node9 -->
<g id="edge11" class="edge">
<title>Node4&#45;&gt;Node9</title>
<path fill="none" stroke="#191970" d="M491.4943,-257.4581C535.9015,-248.0407 604.7079,-233.449 658.1119,-222.1237"/>
<polygon fill="#191970" stroke="#191970" points="658.8386,-225.5475 667.895,-220.049 657.3864,-218.6998 658.8386,-225.5475"/>
</g>
<!-- Node12 -->
<g id="node13" class="node">
<title>Node12</title>
<g id="a_node13"><a xlink:href="drake__copyable_8h.html" target="_top" xlink:title="Provides careful macros to selectively enable or disable the special member functions for copy&#45;constr...">
<polygon fill="#ffffff" stroke="#000000" points="0,-56.5 0,-86.5 121,-86.5 121,-56.5 0,-56.5"/>
<text text-anchor="start" x="8" y="-74.5" font-family="Helvetica,sans-Serif" font-size="10.00" fill="#000000">drake/common/drake</text>
<text text-anchor="middle" x="60.5" y="-63.5" font-family="Helvetica,sans-Serif" font-size="10.00" fill="#000000">_copyable.h</text>
</a>
</g>
</g>
<!-- Node4&#45;&gt;Node12 -->
<g id="edge17" class="edge">
<title>Node4&#45;&gt;Node12</title>
<path fill="none" stroke="#191970" d="M381.895,-264.593C293.8648,-260.3021 141.7631,-248.9879 94.5,-221 62.7567,-202.2025 56.9551,-189.0681 45.5,-154 39.3235,-135.0915 44.0138,-112.8643 49.7302,-96.2481"/>
<polygon fill="#191970" stroke="#191970" points="53.0746,-97.2987 53.3341,-86.707 46.5262,-94.8252 53.0746,-97.2987"/>
</g>
<!-- Node13 -->
<g id="node14" class="node">
<title>Node13</title>
<g id="a_node14"><a xlink:href="hash_8h.html" target="_top" xlink:title=" ">
<polygon fill="#ffffff" stroke="#000000" points="835,-196 835,-215 960,-215 960,-196 835,-196"/>
<text text-anchor="middle" x="897.5" y="-203" font-family="Helvetica,sans-Serif" font-size="10.00" fill="#000000">drake/common/hash.h</text>
</a>
</g>
</g>
<!-- Node4&#45;&gt;Node13 -->
<g id="edge18" class="edge">
<title>Node4&#45;&gt;Node13</title>
<path fill="none" stroke="#191970" d="M511.1468,-260.1127C584.7676,-251.9925 708.5739,-237.4957 814.5,-221 822.532,-219.7492 830.9788,-218.313 839.2838,-216.8304"/>
<polygon fill="#191970" stroke="#191970" points="840.0937,-220.2406 849.3064,-215.0083 838.8416,-213.3535 840.0937,-220.2406"/>
</g>
<!-- Node21 -->
<g id="node22" class="node">
<title>Node21</title>
<g id="a_node22"><a xlink:href="is__cloneable_8h.html" target="_top" xlink:title=" ">
<polygon fill="#ffffff" stroke="#000000" points="365,-196 365,-215 528,-215 528,-196 365,-196"/>
<text text-anchor="middle" x="446.5" y="-203" font-family="Helvetica,sans-Serif" font-size="10.00" fill="#000000">drake/common/is_cloneable.h</text>
</a>
</g>
</g>
<!-- Node4&#45;&gt;Node21 -->
<g id="edge34" class="edge">
<title>Node4&#45;&gt;Node21</title>
<path fill="none" stroke="#191970" d="M446.5,-257.3906C446.5,-248.8657 446.5,-236.1392 446.5,-225.4235"/>
<polygon fill="#191970" stroke="#191970" points="450.0001,-225.2448 446.5,-215.2449 443.0001,-225.2449 450.0001,-225.2448"/>
</g>
<!-- Node22 -->
<g id="node23" class="node">
<title>Node22</title>
<g id="a_node23"><a xlink:href="nice__type__name_8h.html" target="_top" xlink:title=" ">
<polygon fill="#ffffff" stroke="#000000" points="130.5,-190.5 130.5,-220.5 270.5,-220.5 270.5,-190.5 130.5,-190.5"/>
<text text-anchor="start" x="138.5" y="-208.5" font-family="Helvetica,sans-Serif" font-size="10.00" fill="#000000">drake/common/nice_type</text>
<text text-anchor="middle" x="200.5" y="-197.5" font-family="Helvetica,sans-Serif" font-size="10.00" fill="#000000">_name.h</text>
</a>
</g>
</g>
<!-- Node4&#45;&gt;Node22 -->
<g id="edge37" class="edge">
<title>Node4&#45;&gt;Node22</title>
<path fill="none" stroke="#191970" d="M408.3324,-257.4581C371.6964,-248.2991 315.4832,-234.2458 270.7523,-223.0631"/>
<polygon fill="#191970" stroke="#191970" points="271.364,-219.6084 260.8137,-220.5784 269.6662,-226.3994 271.364,-219.6084"/>
</g>
<!-- Node9&#45;&gt;Node1 -->
<g id="edge14" class="edge">
<title>Node9&#45;&gt;Node1</title>
<path fill="none" stroke="#191970" d="M667.6985,-191.3916C664.9324,-190.9064 662.1915,-190.4403 659.5,-190 533.5015,-169.3887 497.9971,-186.3868 374.5,-154 371.8768,-153.3121 369.1936,-152.4861 366.5262,-151.5782"/>
<polygon fill="#191970" stroke="#191970" points="367.6633,-148.2667 357.071,-148.0327 365.2054,-154.821 367.6633,-148.2667"/>
</g>
<!-- Node9&#45;&gt;Node2 -->
<g id="edge16" class="edge">
<title>Node9&#45;&gt;Node2</title>
<path fill="none" stroke="#191970" d="M757.2826,-190.366C784.2793,-171.4903 833.5276,-139.6774 880.5,-123 961.4199,-94.2697 1059.7931,-81.4513 1124.841,-75.8083"/>
<polygon fill="#191970" stroke="#191970" points="1125.312,-79.2812 1134.9868,-74.9629 1124.7307,-72.3054 1125.312,-79.2812"/>
</g>
<!-- Node9&#45;&gt;Node8 -->
<g id="edge15" class="edge">
<title>Node9&#45;&gt;Node8</title>
<path fill="none" stroke="#191970" d="M673.1421,-190.4458C623.5332,-178.2315 561.3207,-161.8041 551.5,-154 531.0106,-137.7179 518.5303,-109.4486 512.0667,-90.6074"/>
<polygon fill="#191970" stroke="#191970" points="515.3789,-89.4735 509.0116,-81.0055 508.7085,-91.596 515.3789,-89.4735"/>
</g>
<!-- Node10 -->
<g id="node11" class="node">
<title>Node10</title>
<g id="a_node11"><a xlink:title=" ">
<polygon fill="#ffffff" stroke="#bfbfbf" points="704,-129 704,-148 757,-148 757,-129 704,-129"/>
<text text-anchor="middle" x="730.5" y="-136" font-family="Helvetica,sans-Serif" font-size="10.00" fill="#000000">cstddef</text>
</a>
</g>
</g>
<!-- Node9&#45;&gt;Node10 -->
<g id="edge12" class="edge">
<title>Node9&#45;&gt;Node10</title>
<path fill="none" stroke="#191970" d="M735.1385,-190.2967C734.2854,-180.7699 733.1772,-168.3954 732.258,-158.1306"/>
<polygon fill="#191970" stroke="#191970" points="735.7338,-157.7029 731.3557,-148.055 728.7617,-158.3273 735.7338,-157.7029"/>
</g>
<!-- Node11 -->
<g id="node12" class="node">
<title>Node11</title>
<g id="a_node12"><a xlink:title=" ">
<polygon fill="#ffffff" stroke="#bfbfbf" points="625.5,-129 625.5,-148 685.5,-148 685.5,-129 625.5,-129"/>
<text text-anchor="middle" x="655.5" y="-136" font-family="Helvetica,sans-Serif" font-size="10.00" fill="#000000">iostream</text>
</a>
</g>
</g>
<!-- Node9&#45;&gt;Node11 -->
<g id="edge13" class="edge">
<title>Node9&#45;&gt;Node11</title>
<path fill="none" stroke="#191970" d="M718.1198,-190.2967C705.2546,-179.6551 688.0937,-165.4602 674.9904,-154.6217"/>
<polygon fill="#191970" stroke="#191970" points="676.9879,-151.7318 667.0515,-148.055 672.5263,-157.1257 676.9879,-151.7318"/>
</g>
<!-- Node13&#45;&gt;Node2 -->
<g id="edge30" class="edge">
<title>Node13&#45;&gt;Node2</title>
<path fill="none" stroke="#191970" d="M960.0241,-202.8978C1077.807,-197.3508 1323.0853,-182.482 1348.5,-154 1379.0002,-119.8187 1319.5308,-97.1661 1266.0669,-84.3886"/>
<polygon fill="#191970" stroke="#191970" points="1266.7066,-80.9444 1256.1769,-82.1171 1265.1396,-87.7668 1266.7066,-80.9444"/>
</g>
<!-- Node13&#45;&gt;Node3 -->
<g id="edge27" class="edge">
<title>Node13&#45;&gt;Node3</title>
<path fill="none" stroke="#191970" d="M891.9158,-195.5474C883.815,-179.7334 870.7806,-148.0911 880.5,-123 896.7107,-81.1515 936.4331,-45.293 961.542,-25.7649"/>
<polygon fill="#191970" stroke="#191970" points="963.8872,-28.3795 969.7513,-19.5556 959.6644,-22.7966 963.8872,-28.3795"/>
</g>
<!-- Node13&#45;&gt;Node6 -->
<g id="edge26" class="edge">
<title>Node13&#45;&gt;Node6</title>
<path fill="none" stroke="#191970" d="M849.3052,-195.9991C837.915,-193.8927 825.7969,-191.7645 814.5,-190 674.8913,-168.1944 507.3484,-149.3907 438.0001,-141.9288"/>
<polygon fill="#191970" stroke="#191970" points="438.0483,-138.414 427.7326,-140.8298 437.3033,-145.3743 438.0483,-138.414"/>
</g>
<!-- Node13&#45;&gt;Node8 -->
<g id="edge28" class="edge">
<title>Node13&#45;&gt;Node8</title>
<path fill="none" stroke="#191970" d="M885.6774,-195.9165C863.643,-178.5642 814.1968,-141.9835 766.5,-123 688.4664,-91.9423 589.5415,-78.9924 539.1799,-74.1169"/>
<polygon fill="#191970" stroke="#191970" points="539.4748,-70.6294 529.1954,-73.1955 538.8315,-77.5997 539.4748,-70.6294"/>
</g>
<!-- Node13&#45;&gt;Node10 -->
<g id="edge20" class="edge">
<title>Node13&#45;&gt;Node10</title>
<path fill="none" stroke="#191970" d="M873.573,-195.9005C844.8025,-184.3579 796.3436,-164.9163 763.8983,-151.8993"/>
<polygon fill="#191970" stroke="#191970" points="764.9668,-148.5569 754.3826,-148.0817 762.3603,-155.0535 764.9668,-148.5569"/>
</g>
<!-- Node13&#45;&gt;Node11 -->
<g id="edge22" class="edge">
<title>Node13&#45;&gt;Node11</title>
<path fill="none" stroke="#191970" d="M853.7274,-195.9402C812.5205,-186.5651 749.2731,-171.2047 695.5,-154 693.2257,-153.2723 690.8936,-152.4838 688.5539,-151.6611"/>
<polygon fill="#191970" stroke="#191970" points="689.6149,-148.3221 679.0214,-148.1546 687.1983,-154.8918 689.6149,-148.3221"/>
</g>
<!-- Node14 -->
<g id="node15" class="node">
<title>Node14</title>
<g id="a_node15"><a xlink:title=" ">
<polygon fill="#ffffff" stroke="#bfbfbf" points="1070,-129 1070,-148 1117,-148 1117,-129 1070,-129"/>
<text text-anchor="middle" x="1093.5" y="-136" font-family="Helvetica,sans-Serif" font-size="10.00" fill="#000000">cmath</text>
</a>
</g>
</g>
<!-- Node13&#45;&gt;Node14 -->
<g id="edge19" class="edge">
<title>Node13&#45;&gt;Node14</title>
<path fill="none" stroke="#191970" d="M932.3064,-195.9607C965.6285,-186.4878 1017.1029,-170.9605 1060.5,-154 1061.9002,-153.4528 1063.3246,-152.8737 1064.7566,-152.2734"/>
<polygon fill="#191970" stroke="#191970" points="1066.4178,-155.3656 1074.1438,-148.1157 1063.583,-148.9653 1066.4178,-155.3656"/>
</g>
<!-- Node15 -->
<g id="node16" class="node">
<title>Node15</title>
<g id="a_node16"><a xlink:title=" ">
<polygon fill="#ffffff" stroke="#bfbfbf" points="1274,-129 1274,-148 1339,-148 1339,-129 1274,-129"/>
<text text-anchor="middle" x="1306.5" y="-136" font-family="Helvetica,sans-Serif" font-size="10.00" fill="#000000">functional</text>
</a>
</g>
</g>
<!-- Node13&#45;&gt;Node15 -->
<g id="edge21" class="edge">
<title>Node13&#45;&gt;Node15</title>
<path fill="none" stroke="#191970" d="M960.1754,-200.9977C1034.0775,-194.7129 1160.1839,-180.9187 1265.5,-154 1268.3339,-153.2757 1271.2411,-152.4194 1274.1357,-151.4872"/>
<polygon fill="#191970" stroke="#191970" points="1275.5196,-154.7111 1283.8037,-148.1063 1273.2089,-148.1035 1275.5196,-154.7111"/>
</g>
<!-- Node16 -->
<g id="node17" class="node">
<title>Node16</title>
<g id="a_node17"><a xlink:title=" ">
<polygon fill="#ffffff" stroke="#bfbfbf" points="889.5,-129 889.5,-148 927.5,-148 927.5,-129 889.5,-129"/>
<text text-anchor="middle" x="908.5" y="-136" font-family="Helvetica,sans-Serif" font-size="10.00" fill="#000000">map</text>
</a>
</g>
</g>
<!-- Node13&#45;&gt;Node16 -->
<g id="edge23" class="edge">
<title>Node13&#45;&gt;Node16</title>
<path fill="none" stroke="#191970" d="M899.076,-195.9005C900.6934,-186.0495 903.2553,-170.4451 905.3,-157.9912"/>
<polygon fill="#191970" stroke="#191970" points="908.7605,-158.5166 906.9269,-148.0817 901.8529,-157.3825 908.7605,-158.5166"/>
</g>
<!-- Node17 -->
<g id="node18" class="node">
<title>Node17</title>
<g id="a_node18"><a xlink:title=" ">
<polygon fill="#ffffff" stroke="#bfbfbf" points="945.5,-129 945.5,-148 1001.5,-148 1001.5,-129 945.5,-129"/>
<text text-anchor="middle" x="973.5" y="-136" font-family="Helvetica,sans-Serif" font-size="10.00" fill="#000000">optional</text>
</a>
</g>
</g>
<!-- Node13&#45;&gt;Node17 -->
<g id="edge24" class="edge">
<title>Node13&#45;&gt;Node17</title>
<path fill="none" stroke="#191970" d="M908.3889,-195.9005C920.4662,-185.2535 940.1671,-167.8856 954.74,-155.0385"/>
<polygon fill="#191970" stroke="#191970" points="957.4445,-157.3201 962.6313,-148.0817 952.8154,-152.0692 957.4445,-157.3201"/>
</g>
<!-- Node18 -->
<g id="node19" class="node">
<title>Node18</title>
<g id="a_node19"><a xlink:title=" ">
<polygon fill="#ffffff" stroke="#bfbfbf" points="1019.5,-129 1019.5,-148 1051.5,-148 1051.5,-129 1019.5,-129"/>
<text text-anchor="middle" x="1035.5" y="-136" font-family="Helvetica,sans-Serif" font-size="10.00" fill="#000000">set</text>
</a>
</g>
</g>
<!-- Node13&#45;&gt;Node18 -->
<g id="edge25" class="edge">
<title>Node13&#45;&gt;Node18</title>
<path fill="none" stroke="#191970" d="M920.8578,-195.8872C944.0047,-186.1222 980.2753,-170.1725 1010.5,-154 1010.9165,-153.7771 1011.3355,-153.5501 1011.7564,-153.3196"/>
<polygon fill="#191970" stroke="#191970" points="1013.7333,-156.2186 1020.6115,-148.16 1010.2091,-150.1704 1013.7333,-156.2186"/>
</g>
<!-- Node19 -->
<g id="node20" class="node">
<title>Node19</title>
<g id="a_node20"><a xlink:title=" ">
<polygon fill="#ffffff" stroke="#bfbfbf" points="560,-129 560,-148 607,-148 607,-129 560,-129"/>
<text text-anchor="middle" x="583.5" y="-136" font-family="Helvetica,sans-Serif" font-size="10.00" fill="#000000">vector</text>
</a>
</g>
</g>
<!-- Node13&#45;&gt;Node19 -->
<g id="edge29" class="edge">
<title>Node13&#45;&gt;Node19</title>
<path fill="none" stroke="#191970" d="M846.5896,-195.953C835.9861,-193.9757 824.8796,-191.9128 814.5,-190 726.5384,-173.7903 701.6934,-181.2412 616.5,-154 614.6461,-153.4072 612.7614,-152.7332 610.8802,-152.006"/>
<polygon fill="#191970" stroke="#191970" points="612.2303,-148.7768 601.66,-148.057 609.4743,-155.2115 612.2303,-148.7768"/>
</g>
<!-- Node20 -->
<g id="node21" class="node">
<title>Node20</title>
<g id="a_node21"><a xlink:href="drake__throw_8h.html" target="_top" xlink:title="Provides a convenient wrapper to throw an exception when a condition is unmet.">
<polygon fill="#ffffff" stroke="#000000" points="1135,-123.5 1135,-153.5 1256,-153.5 1256,-123.5 1135,-123.5"/>
<text text-anchor="start" x="1143" y="-141.5" font-family="Helvetica,sans-Serif" font-size="10.00" fill="#000000">drake/common/drake</text>
<text text-anchor="middle" x="1195.5" y="-130.5" font-family="Helvetica,sans-Serif" font-size="10.00" fill="#000000">_throw.h</text>
</a>
</g>
</g>
<!-- Node13&#45;&gt;Node20 -->
<g id="edge31" class="edge">
<title>Node13&#45;&gt;Node20</title>
<path fill="none" stroke="#191970" d="M939.8797,-195.9717C988.1082,-185.1284 1067.6334,-167.2485 1125.1898,-154.308"/>
<polygon fill="#191970" stroke="#191970" points="1125.9594,-157.7224 1134.948,-152.114 1124.4238,-150.8929 1125.9594,-157.7224"/>
</g>
<!-- Node20&#45;&gt;Node2 -->
<g id="edge33" class="edge">
<title>Node20&#45;&gt;Node2</title>
<path fill="none" stroke="#191970" d="M1195.5,-123.2967C1195.5,-115.5013 1195.5,-105.7991 1195.5,-96.9064"/>
<polygon fill="#191970" stroke="#191970" points="1199.0001,-96.6431 1195.5,-86.6432 1192.0001,-96.6432 1199.0001,-96.6431"/>
</g>
<!-- Node20&#45;&gt;Node3 -->
<g id="edge32" class="edge">
<title>Node20&#45;&gt;Node3</title>
<path fill="none" stroke="#191970" d="M1170.3483,-123.2548C1129.3412,-98.399 1048.5894,-49.4528 1008.0047,-24.8531"/>
<polygon fill="#191970" stroke="#191970" points="1009.6556,-21.761 999.2896,-19.5706 1006.0271,-27.7472 1009.6556,-21.761"/>
</g>
<!-- Node21&#45;&gt;Node1 -->
<g id="edge35" class="edge">
<title>Node21&#45;&gt;Node1</title>
<path fill="none" stroke="#191970" d="M430.7397,-195.9005C412.5243,-184.8057 382.327,-166.4128 361.0323,-153.4424"/>
<polygon fill="#191970" stroke="#191970" points="362.5923,-150.2945 352.2311,-148.0817 358.9509,-156.2728 362.5923,-150.2945"/>
</g>
<!-- Node21&#45;&gt;Node3 -->
<g id="edge36" class="edge">
<title>Node21&#45;&gt;Node3</title>
<path fill="none" stroke="#191970" d="M444.9276,-195.9788C441.1161,-169.2468 434.4995,-93.0443 475.5,-56 509.5042,-25.2769 820.6669,-14.1628 938.5323,-11.0339"/>
<polygon fill="#191970" stroke="#191970" points="938.7569,-14.5293 948.6631,-10.7721 938.576,-7.5317 938.7569,-14.5293"/>
</g>
<!-- Node22&#45;&gt;Node1 -->
<g id="edge38" class="edge">
<title>Node22&#45;&gt;Node1</title>
<path fill="none" stroke="#191970" d="M231.0211,-190.4639C254.0457,-179.1209 285.4072,-163.6707 307.9394,-152.5703"/>
<polygon fill="#191970" stroke="#191970" points="309.5817,-155.6629 317.0055,-148.1039 306.4882,-149.3836 309.5817,-155.6629"/>
</g>
<!-- Node22&#45;&gt;Node6 -->
<g id="edge39" class="edge">
<title>Node22&#45;&gt;Node6</title>
<path fill="none" stroke="#191970" d="M260.9722,-190.4144C294.8458,-181.2685 337.574,-168.5651 374.5,-154 375.8644,-153.4618 377.25,-152.8856 378.6404,-152.2835"/>
<polygon fill="#191970" stroke="#191970" points="380.1223,-155.4544 387.7123,-148.0623 377.1692,-149.1078 380.1223,-155.4544"/>
</g>
<!-- Node22&#45;&gt;Node7 -->
<g id="edge40" class="edge">
<title>Node22&#45;&gt;Node7</title>
<path fill="none" stroke="#191970" d="M174.2429,-190.4639C154.7887,-179.3234 128.4161,-164.2212 109.1161,-153.1691"/>
<polygon fill="#191970" stroke="#191970" points="110.6882,-150.0361 100.271,-148.1039 107.2096,-156.1106 110.6882,-150.0361"/>
</g>
<!-- Node22&#45;&gt;Node8 -->
<g id="edge41" class="edge">
<title>Node22&#45;&gt;Node8</title>
<path fill="none" stroke="#191970" d="M217.6501,-190.3275C243.2515,-167.792 289.4341,-127.6191 298.5,-123 356.1007,-93.6519 431.3432,-80.4172 473.736,-74.943"/>
<polygon fill="#191970" stroke="#191970" points="474.275,-78.4032 483.7753,-73.7133 473.424,-71.4551 474.275,-78.4032"/>
</g>
<!-- Node22&#45;&gt;Node19 -->
<g id="edge42" class="edge">
<title>Node22&#45;&gt;Node19</title>
<path fill="none" stroke="#191970" d="M270.7481,-193.2112C353.4267,-178.7478 487.3306,-155.3234 549.6226,-144.4263"/>
<polygon fill="#191970" stroke="#191970" points="550.4436,-147.836 559.6909,-142.665 549.2373,-140.9407 550.4436,-147.836"/>
</g>
<!-- Node23 -->
<g id="node24" class="node">
<title>Node23</title>
<g id="a_node24"><a xlink:href="never__destroyed_8h.html" target="_top" xlink:title=" ">
<polygon fill="#ffffff" stroke="#000000" points="130,-123.5 130,-153.5 251,-153.5 251,-123.5 130,-123.5"/>
<text text-anchor="start" x="138" y="-141.5" font-family="Helvetica,sans-Serif" font-size="10.00" fill="#000000">drake/common/never</text>
<text text-anchor="middle" x="190.5" y="-130.5" font-family="Helvetica,sans-Serif" font-size="10.00" fill="#000000">_destroyed.h</text>
</a>
</g>
</g>
<!-- Node22&#45;&gt;Node23 -->
<g id="edge43" class="edge">
<title>Node22&#45;&gt;Node23</title>
<path fill="none" stroke="#191970" d="M198.2308,-190.2967C197.0546,-182.4156 195.5874,-172.5857 194.2483,-163.6135"/>
<polygon fill="#191970" stroke="#191970" points="197.6981,-163.0169 192.7602,-153.6432 190.7748,-164.0503 197.6981,-163.0169"/>
</g>
<!-- Node23&#45;&gt;Node3 -->
<g id="edge45" class="edge">
<title>Node23&#45;&gt;Node3</title>
<path fill="none" stroke="#191970" d="M227.1886,-123.4365C275.4442,-104.3269 363.2951,-71.9437 441.5,-56 536.2948,-36.6741 826.5379,-18.8173 938.6512,-12.4575"/>
<polygon fill="#191970" stroke="#191970" points="939.145,-15.9353 948.9323,-11.8782 938.7512,-8.9464 939.145,-15.9353"/>
</g>
<!-- Node23&#45;&gt;Node8 -->
<g id="edge46" class="edge">
<title>Node23&#45;&gt;Node8</title>
<path fill="none" stroke="#191970" d="M251.0541,-125.661C317.2798,-111.6195 420.9787,-89.6327 473.558,-78.4845"/>
<polygon fill="#191970" stroke="#191970" points="474.6118,-81.839 483.6683,-76.3409 473.1598,-74.9912 474.6118,-81.839"/>
</g>
<!-- Node23&#45;&gt;Node12 -->
<g id="edge47" class="edge">
<title>Node23&#45;&gt;Node12</title>
<path fill="none" stroke="#191970" d="M161.3255,-123.4639C142.9719,-114.0047 119.0765,-101.6894 99.155,-91.4222"/>
<polygon fill="#191970" stroke="#191970" points="100.5193,-88.1879 90.027,-86.7177 97.3124,-94.4101 100.5193,-88.1879"/>
</g>
<!-- Node24 -->
<g id="node25" class="node">
<title>Node24</title>
<g id="a_node25"><a xlink:title=" ">
<polygon fill="#ffffff" stroke="#bfbfbf" points="172,-62 172,-81 209,-81 209,-62 172,-62"/>
<text text-anchor="middle" x="190.5" y="-69" font-family="Helvetica,sans-Serif" font-size="10.00" fill="#000000">new</text>
</a>
</g>
</g>
<!-- Node23&#45;&gt;Node24 -->
<g id="edge44" class="edge">
<title>Node23&#45;&gt;Node24</title>
<path fill="none" stroke="#191970" d="M190.5,-123.2967C190.5,-113.7699 190.5,-101.3954 190.5,-91.1306"/>
<polygon fill="#191970" stroke="#191970" points="194.0001,-91.0549 190.5,-81.055 187.0001,-91.055 194.0001,-91.0549"/>
</g>
</g>
</svg>
