<?xml version="1.0" encoding="UTF-8" standalone="no"?>
<!DOCTYPE svg PUBLIC "-//W3C//DTD SVG 1.1//EN"
 "http://www.w3.org/Graphics/SVG/1.1/DTD/svg11.dtd">
<!-- Generated by graphviz version 2.40.1 (20161225.0304)
 -->
<!-- Title: drake/systems/controllers/pid_controller.h Pages: 1 -->
<svg width="491pt" height="117pt"
 viewBox="0.00 0.00 490.50 117.00" xmlns="http://www.w3.org/2000/svg" xmlns:xlink="http://www.w3.org/1999/xlink">
<g id="graph0" class="graph" transform="scale(1 1) rotate(0) translate(4 113)">
<title>drake/systems/controllers/pid_controller.h</title>
<polygon fill="#ffffff" stroke="transparent" points="-4,4 -4,-113 486.5,-113 486.5,4 -4,4"/>
<!-- Node119 -->
<g id="node1" class="node">
<title>Node119</title>
<g id="a_node1"><a xlink:title=" ">
<polygon fill="#bfbfbf" stroke="#000000" points="165.5,-78.5 165.5,-108.5 308.5,-108.5 308.5,-78.5 165.5,-78.5"/>
<text text-anchor="start" x="173.5" y="-96.5" font-family="Helvetica,sans-Serif" font-size="10.00" fill="#000000">drake/systems/controllers</text>
<text text-anchor="middle" x="237" y="-85.5" font-family="Helvetica,sans-Serif" font-size="10.00" fill="#000000">/pid_controller.h</text>
</a>
</g>
</g>
<!-- Node120 -->
<g id="node2" class="node">
<title>Node120</title>
<g id="a_node2"><a xlink:href="controlled__spring__mass__system_8h.html" target="_top" xlink:title=" ">
<polygon fill="#ffffff" stroke="#000000" points="0,-.5 0,-41.5 134,-41.5 134,-.5 0,-.5"/>
<text text-anchor="start" x="8" y="-29.5" font-family="Helvetica,sans-Serif" font-size="10.00" fill="#000000">drake/systems/analysis</text>
<text text-anchor="start" x="8" y="-18.5" font-family="Helvetica,sans-Serif" font-size="10.00" fill="#000000">/test_utilities/controlled</text>
<text text-anchor="middle" x="67" y="-7.5" font-family="Helvetica,sans-Serif" font-size="10.00" fill="#000000">_spring_mass_system.h</text>
</a>
</g>
</g>
<!-- Node119&#45;&gt;Node120 -->
<g id="edge1" class="edge">
<title>Node119&#45;&gt;Node120</title>
<path fill="none" stroke="#191970" d="M192.2949,-74.4346C168.538,-64.303 139.3175,-51.8413 115.0725,-41.5015"/>
<polygon fill="#191970" stroke="#191970" points="191.2044,-77.7745 201.7759,-78.478 193.9505,-71.3356 191.2044,-77.7745"/>
</g>
<!-- Node121 -->
<g id="node3" class="node">
<title>Node121</title>
<g id="a_node3"><a xlink:href="inverse__dynamics__controller_8h.html" target="_top" xlink:title=" ">
<polygon fill="#ffffff" stroke="#000000" points="152.5,-6 152.5,-36 321.5,-36 321.5,-6 152.5,-6"/>
<text text-anchor="start" x="160.5" y="-24" font-family="Helvetica,sans-Serif" font-size="10.00" fill="#000000">drake/systems/controllers</text>
<text text-anchor="middle" x="237" y="-13" font-family="Helvetica,sans-Serif" font-size="10.00" fill="#000000">/inverse_dynamics_controller.h</text>
</a>
</g>
</g>
<!-- Node119&#45;&gt;Node121 -->
<g id="edge2" class="edge">
<title>Node119&#45;&gt;Node121</title>
<path fill="none" stroke="#191970" d="M237,-68.3409C237,-57.5601 237,-45.3309 237,-36.0028"/>
<polygon fill="#191970" stroke="#191970" points="233.5001,-68.4779 237,-78.478 240.5001,-68.478 233.5001,-68.4779"/>
</g>
<!-- Node122 -->
<g id="node4" class="node">
<title>Node122</title>
<g id="a_node4"><a xlink:href="pid__controlled__system_8h.html" target="_top" xlink:title=" ">
<polygon fill="#ffffff" stroke="#000000" points="339.5,-6 339.5,-36 482.5,-36 482.5,-6 339.5,-6"/>
<text text-anchor="start" x="347.5" y="-24" font-family="Helvetica,sans-Serif" font-size="10.00" fill="#000000">drake/systems/controllers</text>
<text text-anchor="middle" x="411" y="-13" font-family="Helvetica,sans-Serif" font-size="10.00" fill="#000000">/pid_controlled_system.h</text>
</a>
</g>
</g>
<!-- Node119&#45;&gt;Node122 -->
<g id="edge3" class="edge">
<title>Node119&#45;&gt;Node122</title>
<path fill="none" stroke="#191970" d="M282.5084,-74.5382C311.3654,-62.5144 348.175,-47.1771 374.9933,-36.0028"/>
<polygon fill="#191970" stroke="#191970" points="280.9375,-71.401 273.0529,-78.478 283.6299,-77.8625 280.9375,-71.401"/>
</g>
</g>
</svg>
