<?xml version="1.0" encoding="UTF-8" standalone="no"?>
<!DOCTYPE svg PUBLIC "-//W3C//DTD SVG 1.1//EN"
 "http://www.w3.org/Graphics/SVG/1.1/DTD/svg11.dtd">
<!-- Generated by graphviz version 2.40.1 (20161225.0304)
 -->
<!-- Title: drake/perception/point_cloud_flags.h Pages: 1 -->
<svg width="146pt" height="173pt"
 viewBox="0.00 0.00 146.00 173.00" xmlns="http://www.w3.org/2000/svg" xmlns:xlink="http://www.w3.org/1999/xlink">
<g id="graph0" class="graph" transform="scale(1 1) rotate(0) translate(4 169)">
<title>drake/perception/point_cloud_flags.h</title>
<polygon fill="#ffffff" stroke="transparent" points="-4,4 -4,-169 142,-169 142,4 -4,4"/>
<!-- Node7 -->
<g id="node1" class="node">
<title>Node7</title>
<g id="a_node1"><a xlink:title=" ">
<polygon fill="#bfbfbf" stroke="#000000" points="5.5,-134.5 5.5,-164.5 132.5,-164.5 132.5,-134.5 5.5,-134.5"/>
<text text-anchor="start" x="13.5" y="-152.5" font-family="Helvetica,sans-Serif" font-size="10.00" fill="#000000">drake/perception/point</text>
<text text-anchor="middle" x="69" y="-141.5" font-family="Helvetica,sans-Serif" font-size="10.00" fill="#000000">_cloud_flags.h</text>
</a>
</g>
</g>
<!-- Node8 -->
<g id="node2" class="node">
<title>Node8</title>
<g id="a_node2"><a xlink:href="point__cloud_8h.html" target="_top" xlink:title=" ">
<polygon fill="#ffffff" stroke="#000000" points="5.5,-67.5 5.5,-97.5 132.5,-97.5 132.5,-67.5 5.5,-67.5"/>
<text text-anchor="start" x="13.5" y="-85.5" font-family="Helvetica,sans-Serif" font-size="10.00" fill="#000000">drake/perception/point</text>
<text text-anchor="middle" x="69" y="-74.5" font-family="Helvetica,sans-Serif" font-size="10.00" fill="#000000">_cloud.h</text>
</a>
</g>
</g>
<!-- Node7&#45;&gt;Node8 -->
<g id="edge1" class="edge">
<title>Node7&#45;&gt;Node8</title>
<path fill="none" stroke="#191970" d="M69,-124.0249C69,-115.128 69,-105.4287 69,-97.6432"/>
<polygon fill="#191970" stroke="#191970" points="65.5001,-124.2966 69,-134.2967 72.5001,-124.2967 65.5001,-124.2966"/>
</g>
<!-- Node9 -->
<g id="node3" class="node">
<title>Node9</title>
<g id="a_node3"><a xlink:href="depth__image__to__point__cloud_8h.html" target="_top" xlink:title=" ">
<polygon fill="#ffffff" stroke="#000000" points="0,-.5 0,-30.5 138,-30.5 138,-.5 0,-.5"/>
<text text-anchor="start" x="8" y="-18.5" font-family="Helvetica,sans-Serif" font-size="10.00" fill="#000000">drake/perception/depth</text>
<text text-anchor="middle" x="69" y="-7.5" font-family="Helvetica,sans-Serif" font-size="10.00" fill="#000000">_image_to_point_cloud.h</text>
</a>
</g>
</g>
<!-- Node8&#45;&gt;Node9 -->
<g id="edge2" class="edge">
<title>Node8&#45;&gt;Node9</title>
<path fill="none" stroke="#191970" d="M69,-57.0249C69,-48.128 69,-38.4287 69,-30.6432"/>
<polygon fill="#191970" stroke="#191970" points="65.5001,-57.2966 69,-67.2967 72.5001,-57.2967 65.5001,-57.2966"/>
</g>
</g>
</svg>
