<?xml version="1.0" encoding="UTF-8" standalone="no"?>
<!DOCTYPE svg PUBLIC "-//W3C//DTD SVG 1.1//EN"
 "http://www.w3.org/Graphics/SVG/1.1/DTD/svg11.dtd">
<!-- Generated by graphviz version 2.40.1 (20161225.0304)
 -->
<!-- Title: drake/perception/point_cloud.h Pages: 1 -->
<!--zoomable 229 -->
<svg id="main" version="1.1" xmlns="http://www.w3.org/2000/svg" xmlns:xlink="http://www.w3.org/1999/xlink" xml:space="preserve" onload="init(evt)">
<style type="text/css"><![CDATA[
.edge:hover path { stroke: red; }
.edge:hover polygon { stroke: red; fill: red; }
]]></style>
<script type="text/javascript"><![CDATA[
var edges = document.getElementsByTagName('g');
if (edges && edges.length) {
  for (var i=0;i<edges.length;i++) {
    if (edges[i].id.substr(0,4)=='edge') {
      edges[i].setAttribute('class','edge');
    }
  }
}
]]></script>
        <defs>
                <circle id="rim" cx="0" cy="0" r="7"/>
                <circle id="rim2" cx="0" cy="0" r="3.5"/>
                <g id="zoomPlus">
                        <use xlink:href="#rim" fill="#404040">
                                <set attributeName="fill" to="#808080" begin="zoomplus.mouseover" end="zoomplus.mouseout"/>
                        </use>
                        <path d="M-4,0h8M0,-4v8" fill="none" stroke="white" stroke-width="1.5" pointer-events="none"/>
                </g>
                <g id="zoomMin">
                        <use xlink:href="#rim" fill="#404040">
                                <set attributeName="fill" to="#808080" begin="zoomminus.mouseover" end="zoomminus.mouseout"/>
                        </use>
                        <path d="M-4,0h8" fill="none" stroke="white" stroke-width="1.5" pointer-events="none"/>
                </g>
                <g id="dirArrow">
                        <path fill="none" stroke="white" stroke-width="1.5" d="M0,-3.0v7 M-2.5,-0.5L0,-3.0L2.5,-0.5"/>
                </g>
               <g id="resetDef">
                       <use xlink:href="#rim2" fill="#404040">
                               <set attributeName="fill" to="#808080" begin="reset.mouseover" end="reset.mouseout"/>
                       </use>
               </g>
        </defs>

<script type="text/javascript">
var viewWidth = 818;
var viewHeight = 229;
var sectionId = 'dynsection-0';
</script>
<script xlink:href="svgpan.js"/>
<svg id="graph" class="graph">
<g id="viewport">
<title>drake/perception/point_cloud.h</title>
<polygon fill="#ffffff" stroke="transparent" points="-4,4 -4,-225 813.5,-225 813.5,4 -4,4"/>
<!-- Node0 -->
<g id="node1" class="node">
<title>Node0</title>
<g id="a_node1"><a xlink:title=" ">
<polygon fill="#bfbfbf" stroke="#000000" points="232,-190.5 232,-220.5 359,-220.5 359,-190.5 232,-190.5"/>
<text text-anchor="start" x="240" y="-208.5" font-family="Helvetica,sans-Serif" font-size="10.00" fill="#000000">drake/perception/point</text>
<text text-anchor="middle" x="295.5" y="-197.5" font-family="Helvetica,sans-Serif" font-size="10.00" fill="#000000">_cloud.h</text>
</a>
</g>
</g>
<!-- Node1 -->
<g id="node2" class="node">
<title>Node1</title>
<g id="a_node2"><a xlink:title=" ">
<polygon fill="#ffffff" stroke="#bfbfbf" points="14,-129 14,-148 61,-148 61,-129 14,-129"/>
<text text-anchor="middle" x="37.5" y="-136" font-family="Helvetica,sans-Serif" font-size="10.00" fill="#000000">cmath</text>
</a>
</g>
</g>
<!-- Node0&#45;&gt;Node1 -->
<g id="edge1" class="edge">
<title>Node0&#45;&gt;Node1</title>
<path fill="none" stroke="#191970" d="M231.9308,-194.7183C186.3013,-186.0742 123.7264,-172.3541 70.5,-154 68.8544,-153.4326 67.1816,-152.8082 65.5064,-152.1456"/>
<polygon fill="#191970" stroke="#191970" points="66.6263,-148.8168 56.0582,-148.0643 63.8504,-155.2429 66.6263,-148.8168"/>
</g>
<!-- Node2 -->
<g id="node3" class="node">
<title>Node2</title>
<g id="a_node3"><a xlink:title=" ">
<polygon fill="#ffffff" stroke="#bfbfbf" points="79.5,-129 79.5,-148 129.5,-148 129.5,-129 79.5,-129"/>
<text text-anchor="middle" x="104.5" y="-136" font-family="Helvetica,sans-Serif" font-size="10.00" fill="#000000">cstdint</text>
</a>
</g>
</g>
<!-- Node0&#45;&gt;Node2 -->
<g id="edge2" class="edge">
<title>Node0&#45;&gt;Node2</title>
<path fill="none" stroke="#191970" d="M244.7957,-190.4336C213.7945,-180.8365 173.5035,-167.6713 138.5,-154 136.9213,-153.3834 135.3108,-152.7313 133.6913,-152.0572"/>
<polygon fill="#191970" stroke="#191970" points="135.0445,-148.8291 124.4782,-148.0526 132.254,-155.2489 135.0445,-148.8291"/>
</g>
<!-- Node3 -->
<g id="node4" class="node">
<title>Node3</title>
<g id="a_node4"><a xlink:title=" ">
<polygon fill="#ffffff" stroke="#bfbfbf" points="147.5,-129 147.5,-148 191.5,-148 191.5,-129 147.5,-129"/>
<text text-anchor="middle" x="169.5" y="-136" font-family="Helvetica,sans-Serif" font-size="10.00" fill="#000000">limits</text>
</a>
</g>
</g>
<!-- Node0&#45;&gt;Node3 -->
<g id="edge3" class="edge">
<title>Node0&#45;&gt;Node3</title>
<path fill="none" stroke="#191970" d="M267.2231,-190.4639C246.082,-179.2222 217.3542,-163.9463 196.5216,-152.8686"/>
<polygon fill="#191970" stroke="#191970" points="198.0337,-149.7087 187.5611,-148.1039 194.7472,-155.8892 198.0337,-149.7087"/>
</g>
<!-- Node4 -->
<g id="node5" class="node">
<title>Node4</title>
<g id="a_node5"><a xlink:title=" ">
<polygon fill="#ffffff" stroke="#bfbfbf" points="209.5,-129 209.5,-148 267.5,-148 267.5,-129 209.5,-129"/>
<text text-anchor="middle" x="238.5" y="-136" font-family="Helvetica,sans-Serif" font-size="10.00" fill="#000000">memory</text>
</a>
</g>
</g>
<!-- Node0&#45;&gt;Node4 -->
<g id="edge4" class="edge">
<title>Node0&#45;&gt;Node4</title>
<path fill="none" stroke="#191970" d="M282.5658,-190.2967C273.8574,-180.0605 262.352,-166.5366 253.2814,-155.8746"/>
<polygon fill="#191970" stroke="#191970" points="255.7745,-153.4036 246.6289,-148.055 250.4429,-157.9395 255.7745,-153.4036"/>
</g>
<!-- Node5 -->
<g id="node6" class="node">
<title>Node5</title>
<g id="a_node6"><a xlink:title=" ">
<polygon fill="#ffffff" stroke="#bfbfbf" points="765.5,-62 765.5,-81 809.5,-81 809.5,-62 765.5,-62"/>
<text text-anchor="middle" x="787.5" y="-69" font-family="Helvetica,sans-Serif" font-size="10.00" fill="#000000">string</text>
</a>
</g>
</g>
<!-- Node0&#45;&gt;Node5 -->
<g id="edge5" class="edge">
<title>Node0&#45;&gt;Node5</title>
<path fill="none" stroke="#191970" d="M359.0881,-198.469C434.9345,-189.4291 556.7213,-172.6563 598.5,-154 618.7178,-144.9717 617.8876,-133.2775 637.5,-123 686.4431,-97.3523 705.1592,-107.4293 756.5,-87 757.8628,-86.4577 759.2471,-85.8782 760.6364,-85.2734"/>
<polygon fill="#191970" stroke="#191970" points="762.1219,-88.4426 769.7048,-81.0433 759.1627,-82.0989 762.1219,-88.4426"/>
</g>
<!-- Node6 -->
<g id="node7" class="node">
<title>Node6</title>
<g id="a_node7"><a xlink:title=" ">
<polygon fill="#ffffff" stroke="#bfbfbf" points="646,-129 646,-148 693,-148 693,-129 646,-129"/>
<text text-anchor="middle" x="669.5" y="-136" font-family="Helvetica,sans-Serif" font-size="10.00" fill="#000000">vector</text>
</a>
</g>
</g>
<!-- Node0&#45;&gt;Node6 -->
<g id="edge6" class="edge">
<title>Node0&#45;&gt;Node6</title>
<path fill="none" stroke="#191970" d="M359.2887,-200.2262C427.5774,-193.5425 538.6412,-179.6686 631.5,-154 633.9637,-153.319 636.4831,-152.5244 638.9943,-151.6616"/>
<polygon fill="#191970" stroke="#191970" points="640.3721,-154.8828 648.5032,-148.0905 637.9111,-148.3297 640.3721,-154.8828"/>
</g>
<!-- Node7 -->
<g id="node8" class="node">
<title>Node7</title>
<g id="a_node8"><a xlink:title=" ">
<polygon fill="#ffffff" stroke="#bfbfbf" points="0,-62 0,-81 77,-81 77,-62 0,-62"/>
<text text-anchor="middle" x="38.5" y="-69" font-family="Helvetica,sans-Serif" font-size="10.00" fill="#000000">Eigen/Dense</text>
</a>
</g>
</g>
<!-- Node0&#45;&gt;Node7 -->
<g id="edge7" class="edge">
<title>Node0&#45;&gt;Node7</title>
<path fill="none" stroke="#191970" d="M296.5939,-190.3388C297.0405,-171.7356 294.7303,-140.5143 276.5,-123 214.2064,-63.1532 169.146,-108.5746 85.5,-87 82.1539,-86.137 78.6992,-85.1625 75.2525,-84.133"/>
<polygon fill="#191970" stroke="#191970" points="76.246,-80.7766 65.6571,-81.1324 74.1567,-87.4576 76.246,-80.7766"/>
</g>
<!-- Node8 -->
<g id="node9" class="node">
<title>Node8</title>
<g id="a_node9"><a xlink:href="eigen__types_8h.html" target="_top" xlink:title="This file contains abbreviated definitions for certain specializations of Eigen::Matrix that are comm...">
<polygon fill="#ffffff" stroke="#000000" points="323.5,-123.5 323.5,-153.5 443.5,-153.5 443.5,-123.5 323.5,-123.5"/>
<text text-anchor="start" x="331.5" y="-141.5" font-family="Helvetica,sans-Serif" font-size="10.00" fill="#000000">drake/common/eigen</text>
<text text-anchor="middle" x="383.5" y="-130.5" font-family="Helvetica,sans-Serif" font-size="10.00" fill="#000000">_types.h</text>
</a>
</g>
</g>
<!-- Node0&#45;&gt;Node8 -->
<g id="edge8" class="edge">
<title>Node0&#45;&gt;Node8</title>
<path fill="none" stroke="#191970" d="M315.4686,-190.2967C327.2825,-181.302 342.4306,-169.7687 355.4327,-159.8694"/>
<polygon fill="#191970" stroke="#191970" points="357.7743,-162.4857 363.6105,-153.6432 353.5338,-156.9162 357.7743,-162.4857"/>
</g>
<!-- Node14 -->
<g id="node15" class="node">
<title>Node14</title>
<g id="a_node15"><a xlink:href="point__cloud__flags_8h.html" target="_top" xlink:title=" ">
<polygon fill="#ffffff" stroke="#000000" points="462,-123.5 462,-153.5 589,-153.5 589,-123.5 462,-123.5"/>
<text text-anchor="start" x="470" y="-141.5" font-family="Helvetica,sans-Serif" font-size="10.00" fill="#000000">drake/perception/point</text>
<text text-anchor="middle" x="525.5" y="-130.5" font-family="Helvetica,sans-Serif" font-size="10.00" fill="#000000">_cloud_flags.h</text>
</a>
</g>
</g>
<!-- Node0&#45;&gt;Node14 -->
<g id="edge15" class="edge">
<title>Node0&#45;&gt;Node14</title>
<path fill="none" stroke="#191970" d="M347.1165,-190.4639C381.6193,-180.4131 427.1921,-167.1375 463.6377,-156.5208"/>
<polygon fill="#191970" stroke="#191970" points="465.0363,-159.7589 473.6584,-153.6017 463.0785,-153.0382 465.0363,-159.7589"/>
</g>
<!-- Node8&#45;&gt;Node7 -->
<g id="edge10" class="edge">
<title>Node8&#45;&gt;Node7</title>
<path fill="none" stroke="#191970" d="M323.3714,-125.6583C318.6829,-124.7325 314.0175,-123.8356 309.5,-123 210.349,-104.659 183.468,-110.8658 85.5,-87 82.0565,-86.1611 78.5024,-85.1902 74.9628,-84.1515"/>
<polygon fill="#191970" stroke="#191970" points="75.7176,-80.721 65.1295,-81.0982 73.6418,-87.4062 75.7176,-80.721"/>
</g>
<!-- Node9 -->
<g id="node10" class="node">
<title>Node9</title>
<g id="a_node10"><a xlink:title=" ">
<polygon fill="#ffffff" stroke="#bfbfbf" points="95,-62 95,-81 140,-81 140,-62 95,-62"/>
<text text-anchor="middle" x="117.5" y="-69" font-family="Helvetica,sans-Serif" font-size="10.00" fill="#000000">utility</text>
</a>
</g>
</g>
<!-- Node8&#45;&gt;Node9 -->
<g id="edge9" class="edge">
<title>Node8&#45;&gt;Node9</title>
<path fill="none" stroke="#191970" d="M323.3733,-125.6331C256.828,-111.3375 157.79,-89.8752 149.5,-87 147.8962,-86.4437 146.2676,-85.8281 144.6382,-85.1723"/>
<polygon fill="#191970" stroke="#191970" points="146.0232,-81.9579 135.4623,-81.1104 143.1897,-88.3588 146.0232,-81.9579"/>
</g>
<!-- Node10 -->
<g id="node11" class="node">
<title>Node10</title>
<g id="a_node11"><a xlink:href="constants_8h.html" target="_top" xlink:title=" ">
<polygon fill="#ffffff" stroke="#000000" points="158,-62 158,-81 307,-81 307,-62 158,-62"/>
<text text-anchor="middle" x="232.5" y="-69" font-family="Helvetica,sans-Serif" font-size="10.00" fill="#000000">drake/common/constants.h</text>
</a>
</g>
</g>
<!-- Node8&#45;&gt;Node10 -->
<g id="edge11" class="edge">
<title>Node8&#45;&gt;Node10</title>
<path fill="none" stroke="#191970" d="M349.6127,-123.4639C323.8203,-112.0196 288.6055,-96.3945 263.5429,-85.274"/>
<polygon fill="#191970" stroke="#191970" points="264.7048,-81.9605 254.1447,-81.1039 261.8657,-88.359 264.7048,-81.9605"/>
</g>
<!-- Node11 -->
<g id="node12" class="node">
<title>Node11</title>
<g id="a_node12"><a xlink:href="drake__assert_8h.html" target="_top" xlink:title="Provides Drake&#39;s assertion implementation.">
<polygon fill="#ffffff" stroke="#000000" points="464,-56.5 464,-86.5 585,-86.5 585,-56.5 464,-56.5"/>
<text text-anchor="start" x="472" y="-74.5" font-family="Helvetica,sans-Serif" font-size="10.00" fill="#000000">drake/common/drake</text>
<text text-anchor="middle" x="524.5" y="-63.5" font-family="Helvetica,sans-Serif" font-size="10.00" fill="#000000">_assert.h</text>
</a>
</g>
</g>
<!-- Node8&#45;&gt;Node11 -->
<g id="edge12" class="edge">
<title>Node8&#45;&gt;Node11</title>
<path fill="none" stroke="#191970" d="M415.1432,-123.4639C435.2299,-113.9191 461.4367,-101.4663 483.1597,-91.144"/>
<polygon fill="#191970" stroke="#191970" points="484.9446,-94.1709 492.4746,-86.7177 481.9403,-87.8484 484.9446,-94.1709"/>
</g>
<!-- Node13 -->
<g id="node14" class="node">
<title>Node13</title>
<g id="a_node14"><a xlink:href="drake__copyable_8h.html" target="_top" xlink:title="Provides careful macros to selectively enable or disable the special member functions for copy&#45;constr...">
<polygon fill="#ffffff" stroke="#000000" points="325,-56.5 325,-86.5 446,-86.5 446,-56.5 325,-56.5"/>
<text text-anchor="start" x="333" y="-74.5" font-family="Helvetica,sans-Serif" font-size="10.00" fill="#000000">drake/common/drake</text>
<text text-anchor="middle" x="385.5" y="-63.5" font-family="Helvetica,sans-Serif" font-size="10.00" fill="#000000">_copyable.h</text>
</a>
</g>
</g>
<!-- Node8&#45;&gt;Node13 -->
<g id="edge14" class="edge">
<title>Node8&#45;&gt;Node13</title>
<path fill="none" stroke="#191970" d="M383.9538,-123.2967C384.1865,-115.5013 384.4761,-105.7991 384.7416,-96.9064"/>
<polygon fill="#191970" stroke="#191970" points="388.2479,-96.7432 385.048,-86.6432 381.2511,-96.5343 388.2479,-96.7432"/>
</g>
<!-- Node12 -->
<g id="node13" class="node">
<title>Node12</title>
<g id="a_node13"><a xlink:title=" ">
<polygon fill="#ffffff" stroke="#bfbfbf" points="490,-.5 490,-19.5 559,-19.5 559,-.5 490,-.5"/>
<text text-anchor="middle" x="524.5" y="-7.5" font-family="Helvetica,sans-Serif" font-size="10.00" fill="#000000">type_traits</text>
</a>
</g>
</g>
<!-- Node11&#45;&gt;Node12 -->
<g id="edge13" class="edge">
<title>Node11&#45;&gt;Node12</title>
<path fill="none" stroke="#191970" d="M524.5,-56.2977C524.5,-48.3834 524.5,-38.6043 524.5,-30.0759"/>
<polygon fill="#191970" stroke="#191970" points="528.0001,-29.8469 524.5,-19.8469 521.0001,-29.847 528.0001,-29.8469"/>
</g>
<!-- Node14&#45;&gt;Node5 -->
<g id="edge18" class="edge">
<title>Node14&#45;&gt;Node5</title>
<path fill="none" stroke="#191970" d="M589.1402,-125.1457C651.9347,-111.8343 740.7716,-92.5903 756.5,-87 757.9174,-86.4962 759.3537,-85.943 760.7915,-85.3548"/>
<polygon fill="#191970" stroke="#191970" points="762.4628,-88.4399 770.1215,-81.1191 759.5691,-82.066 762.4628,-88.4399"/>
</g>
<!-- Node14&#45;&gt;Node11 -->
<g id="edge19" class="edge">
<title>Node14&#45;&gt;Node11</title>
<path fill="none" stroke="#191970" d="M525.2731,-123.2967C525.1567,-115.5013 525.0119,-105.7991 524.8792,-96.9064"/>
<polygon fill="#191970" stroke="#191970" points="528.375,-96.5898 524.726,-86.6432 521.3757,-96.6943 528.375,-96.5898"/>
</g>
<!-- Node14&#45;&gt;Node13 -->
<g id="edge20" class="edge">
<title>Node14&#45;&gt;Node13</title>
<path fill="none" stroke="#191970" d="M494.0813,-123.4639C474.137,-113.9191 448.1161,-101.4663 426.5471,-91.144"/>
<polygon fill="#191970" stroke="#191970" points="427.8294,-87.8775 417.2983,-86.7177 424.8076,-94.1917 427.8294,-87.8775"/>
</g>
<!-- Node15 -->
<g id="node16" class="node">
<title>Node15</title>
<g id="a_node16"><a xlink:title=" ">
<polygon fill="#ffffff" stroke="#bfbfbf" points="603.5,-62 603.5,-81 663.5,-81 663.5,-62 603.5,-62"/>
<text text-anchor="middle" x="633.5" y="-69" font-family="Helvetica,sans-Serif" font-size="10.00" fill="#000000">iostream</text>
</a>
</g>
</g>
<!-- Node14&#45;&gt;Node15 -->
<g id="edge16" class="edge">
<title>Node14&#45;&gt;Node15</title>
<path fill="none" stroke="#191970" d="M549.7373,-123.4639C567.5318,-112.4247 591.5969,-97.4954 609.3669,-86.4715"/>
<polygon fill="#191970" stroke="#191970" points="611.3665,-89.3498 618.0191,-81.1039 607.6763,-83.4015 611.3665,-89.3498"/>
</g>
<!-- Node16 -->
<g id="node17" class="node">
<title>Node16</title>
<g id="a_node17"><a xlink:title=" ">
<polygon fill="#ffffff" stroke="#bfbfbf" points="682,-62 682,-81 747,-81 747,-62 682,-62"/>
<text text-anchor="middle" x="714.5" y="-69" font-family="Helvetica,sans-Serif" font-size="10.00" fill="#000000">stdexcept</text>
</a>
</g>
</g>
<!-- Node14&#45;&gt;Node16 -->
<g id="edge17" class="edge">
<title>Node14&#45;&gt;Node16</title>
<path fill="none" stroke="#191970" d="M568.9841,-123.4775C598.2799,-113.3047 637.7663,-99.4925 672.5,-87 674.7215,-86.201 677.0072,-85.3734 679.3105,-84.5352"/>
<polygon fill="#191970" stroke="#191970" points="680.5718,-87.8007 688.7591,-81.0762 678.1653,-81.2273 680.5718,-87.8007"/>
</g>
</g>
</svg>
        <g id="navigator" transform="translate(0 0)" fill="#404254">
                <rect fill="#f2f5e9" fill-opacity="0.5" stroke="#606060" stroke-width=".5" x="0" y="0" width="60" height="60"/>
                <use id="zoomplus" xlink:href="#zoomPlus" x="17" y="9" onmousedown="handleZoom(evt,'in')"/>
                <use id="zoomminus" xlink:href="#zoomMin" x="42" y="9" onmousedown="handleZoom(evt,'out')"/>
                <use id="reset" xlink:href="#resetDef" x="30" y="36" onmousedown="handleReset()"/>
                <g id="arrowUp" xlink:href="#dirArrow" transform="translate(30 24)" onmousedown="handlePan(0,-1)">
                  <use xlink:href="#rim" fill="#404040">
                        <set attributeName="fill" to="#808080" begin="arrowUp.mouseover" end="arrowUp.mouseout"/>
                  </use>
                  <path fill="none" stroke="white" stroke-width="1.5" d="M0,-3.0v7 M-2.5,-0.5L0,-3.0L2.5,-0.5"/>
                </g>
                <g id="arrowRight" xlink:href="#dirArrow" transform="rotate(90) translate(36 -43)" onmousedown="handlePan(1,0)">
                  <use xlink:href="#rim" fill="#404040">
                        <set attributeName="fill" to="#808080" begin="arrowRight.mouseover" end="arrowRight.mouseout"/>
                  </use>
                  <path fill="none" stroke="white" stroke-width="1.5" d="M0,-3.0v7 M-2.5,-0.5L0,-3.0L2.5,-0.5"/>
                </g>
                <g id="arrowDown" xlink:href="#dirArrow" transform="rotate(180) translate(-30 -48)" onmousedown="handlePan(0,1)">
                  <use xlink:href="#rim" fill="#404040">
                        <set attributeName="fill" to="#808080" begin="arrowDown.mouseover" end="arrowDown.mouseout"/>
                  </use>
                  <path fill="none" stroke="white" stroke-width="1.5" d="M0,-3.0v7 M-2.5,-0.5L0,-3.0L2.5,-0.5"/>
                </g>
                <g id="arrowLeft" xlink:href="#dirArrow" transform="rotate(270) translate(-36 17)" onmousedown="handlePan(-1,0)">
                  <use xlink:href="#rim" fill="#404040">
                        <set attributeName="fill" to="#808080" begin="arrowLeft.mouseover" end="arrowLeft.mouseout"/>
                  </use>
                  <path fill="none" stroke="white" stroke-width="1.5" d="M0,-3.0v7 M-2.5,-0.5L0,-3.0L2.5,-0.5"/>
                </g>
        </g>
        <svg viewBox="0 0 15 15" width="100%" height="30px" preserveAspectRatio="xMaxYMin meet">
         <g id="arrow_out" transform="scale(0.3 0.3)">
          <a xlink:href="point__cloud_8h__incl_org.svg" target="_base">
           <rect id="button" ry="5" rx="5" y="6" x="6" height="38" width="38"
                fill="#f2f5e9" fill-opacity="0.5" stroke="#606060" stroke-width="1.0"/>
           <path id="arrow"
             d="M 11.500037,31.436501 C 11.940474,20.09759 22.043105,11.32322 32.158766,21.979434 L 37.068811,17.246167 C 37.068811,17.246167 37.088388,32 37.088388,32 L 22.160133,31.978069 C 22.160133,31.978069 26.997745,27.140456 26.997745,27.140456 C 18.528582,18.264221 13.291696,25.230495 11.500037,31.436501 z"
             style="fill:#404040;"/>
          </a>
         </g>
        </svg>
</svg>
