<?xml version="1.0" encoding="UTF-8" standalone="no"?>
<!DOCTYPE svg PUBLIC "-//W3C//DTD SVG 1.1//EN"
 "http://www.w3.org/Graphics/SVG/1.1/DTD/svg11.dtd">
<!-- Generated by graphviz version 2.40.1 (20161225.0304)
 -->
<!-- Title: drake/geometry/proximity/posed_half_space.h Pages: 1 -->
<svg width="683pt" height="296pt"
 viewBox="0.00 0.00 683.00 296.00" xmlns="http://www.w3.org/2000/svg" xmlns:xlink="http://www.w3.org/1999/xlink">
<g id="graph0" class="graph" transform="scale(1 1) rotate(0) translate(4 292)">
<title>drake/geometry/proximity/posed_half_space.h</title>
<polygon fill="#ffffff" stroke="transparent" points="-4,4 -4,-292 679,-292 679,4 -4,4"/>
<!-- Node0 -->
<g id="node1" class="node">
<title>Node0</title>
<g id="a_node1"><a xlink:title=" ">
<polygon fill="#bfbfbf" stroke="#000000" points="245,-257.5 245,-287.5 390,-287.5 390,-257.5 245,-257.5"/>
<text text-anchor="start" x="253" y="-275.5" font-family="Helvetica,sans-Serif" font-size="10.00" fill="#000000">drake/geometry/proximity</text>
<text text-anchor="middle" x="317.5" y="-264.5" font-family="Helvetica,sans-Serif" font-size="10.00" fill="#000000">/posed_half_space.h</text>
</a>
</g>
</g>
<!-- Node1 -->
<g id="node2" class="node">
<title>Node1</title>
<g id="a_node2"><a xlink:title=" ">
<polygon fill="#ffffff" stroke="#bfbfbf" points="139.5,-129 139.5,-148 183.5,-148 183.5,-129 139.5,-129"/>
<text text-anchor="middle" x="161.5" y="-136" font-family="Helvetica,sans-Serif" font-size="10.00" fill="#000000">limits</text>
</a>
</g>
</g>
<!-- Node0&#45;&gt;Node1 -->
<g id="edge1" class="edge">
<title>Node0&#45;&gt;Node1</title>
<path fill="none" stroke="#191970" d="M289.9942,-257.4918C273.7027,-248.0128 253.0739,-234.9503 236.5,-221 212.9174,-201.1506 189.6535,-174.0734 175.4366,-156.4408"/>
<polygon fill="#191970" stroke="#191970" points="177.8307,-153.8271 168.873,-148.1693 172.3473,-158.1783 177.8307,-153.8271"/>
</g>
<!-- Node2 -->
<g id="node3" class="node">
<title>Node2</title>
<g id="a_node3"><a xlink:href="drake__copyable_8h.html" target="_top" xlink:title="Provides careful macros to selectively enable or disable the special member functions for copy&#45;constr...">
<polygon fill="#ffffff" stroke="#000000" points="554,-56.5 554,-86.5 675,-86.5 675,-56.5 554,-56.5"/>
<text text-anchor="start" x="562" y="-74.5" font-family="Helvetica,sans-Serif" font-size="10.00" fill="#000000">drake/common/drake</text>
<text text-anchor="middle" x="614.5" y="-63.5" font-family="Helvetica,sans-Serif" font-size="10.00" fill="#000000">_copyable.h</text>
</a>
</g>
</g>
<!-- Node0&#45;&gt;Node2 -->
<g id="edge2" class="edge">
<title>Node0&#45;&gt;Node2</title>
<path fill="none" stroke="#191970" d="M368.6336,-257.4836C422.1583,-239.73 506.2294,-205.8728 563.5,-154 581.4015,-137.7857 595.2534,-113.8412 603.9737,-95.9194"/>
<polygon fill="#191970" stroke="#191970" points="607.2325,-97.2124 608.2835,-86.6698 600.8875,-94.2559 607.2325,-97.2124"/>
</g>
<!-- Node3 -->
<g id="node4" class="node">
<title>Node3</title>
<g id="a_node4"><a xlink:href="drake__throw_8h.html" target="_top" xlink:title="Provides a convenient wrapper to throw an exception when a condition is unmet.">
<polygon fill="#ffffff" stroke="#000000" points="0,-123.5 0,-153.5 121,-153.5 121,-123.5 0,-123.5"/>
<text text-anchor="start" x="8" y="-141.5" font-family="Helvetica,sans-Serif" font-size="10.00" fill="#000000">drake/common/drake</text>
<text text-anchor="middle" x="60.5" y="-130.5" font-family="Helvetica,sans-Serif" font-size="10.00" fill="#000000">_throw.h</text>
</a>
</g>
</g>
<!-- Node0&#45;&gt;Node3 -->
<g id="edge3" class="edge">
<title>Node0&#45;&gt;Node3</title>
<path fill="none" stroke="#191970" d="M280.6978,-257.4046C257.6435,-247.6442 227.482,-234.3162 201.5,-221 163.466,-201.5069 121.3527,-176.3768 93.1412,-159.0002"/>
<polygon fill="#191970" stroke="#191970" points="94.8381,-155.9343 84.4929,-153.6478 91.1543,-161.8866 94.8381,-155.9343"/>
</g>
<!-- Node6 -->
<g id="node7" class="node">
<title>Node6</title>
<g id="a_node7"><a xlink:href="eigen__types_8h.html" target="_top" xlink:title="This file contains abbreviated definitions for certain specializations of Eigen::Matrix that are comm...">
<polygon fill="#ffffff" stroke="#000000" points="402.5,-123.5 402.5,-153.5 522.5,-153.5 522.5,-123.5 402.5,-123.5"/>
<text text-anchor="start" x="410.5" y="-141.5" font-family="Helvetica,sans-Serif" font-size="10.00" fill="#000000">drake/common/eigen</text>
<text text-anchor="middle" x="462.5" y="-130.5" font-family="Helvetica,sans-Serif" font-size="10.00" fill="#000000">_types.h</text>
</a>
</g>
</g>
<!-- Node0&#45;&gt;Node6 -->
<g id="edge7" class="edge">
<title>Node0&#45;&gt;Node6</title>
<path fill="none" stroke="#191970" d="M346.9671,-257.4111C363.4254,-248.1784 383.7296,-235.3914 399.5,-221 418.5443,-203.6211 435.9781,-179.9014 447.654,-162.3554"/>
<polygon fill="#191970" stroke="#191970" points="450.6943,-164.1001 453.2128,-153.8089 444.8264,-160.2834 450.6943,-164.1001"/>
</g>
<!-- Node10 -->
<g id="node11" class="node">
<title>Node10</title>
<g id="a_node11"><a xlink:href="plane_8h.html" target="_top" xlink:title=" ">
<polygon fill="#ffffff" stroke="#000000" points="245,-190.5 245,-220.5 390,-220.5 390,-190.5 245,-190.5"/>
<text text-anchor="start" x="253" y="-208.5" font-family="Helvetica,sans-Serif" font-size="10.00" fill="#000000">drake/geometry/proximity</text>
<text text-anchor="middle" x="317.5" y="-197.5" font-family="Helvetica,sans-Serif" font-size="10.00" fill="#000000">/plane.h</text>
</a>
</g>
</g>
<!-- Node0&#45;&gt;Node10 -->
<g id="edge13" class="edge">
<title>Node0&#45;&gt;Node10</title>
<path fill="none" stroke="#191970" d="M317.5,-257.2967C317.5,-249.5013 317.5,-239.7991 317.5,-230.9064"/>
<polygon fill="#191970" stroke="#191970" points="321.0001,-230.6431 317.5,-220.6432 314.0001,-230.6432 321.0001,-230.6431"/>
</g>
<!-- Node4 -->
<g id="node5" class="node">
<title>Node4</title>
<g id="a_node5"><a xlink:title=" ">
<polygon fill="#ffffff" stroke="#bfbfbf" points="70,-.5 70,-19.5 139,-19.5 139,-.5 70,-.5"/>
<text text-anchor="middle" x="104.5" y="-7.5" font-family="Helvetica,sans-Serif" font-size="10.00" fill="#000000">type_traits</text>
</a>
</g>
</g>
<!-- Node3&#45;&gt;Node4 -->
<g id="edge4" class="edge">
<title>Node3&#45;&gt;Node4</title>
<path fill="none" stroke="#191970" d="M62.7391,-123.2346C65.4997,-106.3955 70.9094,-78.679 79.5,-56 83.1101,-46.4694 88.3537,-36.463 93.1073,-28.226"/>
<polygon fill="#191970" stroke="#191970" points="96.1963,-29.8802 98.3354,-19.5036 90.1922,-26.2815 96.1963,-29.8802"/>
</g>
<!-- Node5 -->
<g id="node6" class="node">
<title>Node5</title>
<g id="a_node6"><a xlink:href="drake__assert_8h.html" target="_top" xlink:title="Provides Drake&#39;s assertion implementation.">
<polygon fill="#ffffff" stroke="#000000" points="89,-56.5 89,-86.5 210,-86.5 210,-56.5 89,-56.5"/>
<text text-anchor="start" x="97" y="-74.5" font-family="Helvetica,sans-Serif" font-size="10.00" fill="#000000">drake/common/drake</text>
<text text-anchor="middle" x="149.5" y="-63.5" font-family="Helvetica,sans-Serif" font-size="10.00" fill="#000000">_assert.h</text>
</a>
</g>
</g>
<!-- Node3&#45;&gt;Node5 -->
<g id="edge5" class="edge">
<title>Node3&#45;&gt;Node5</title>
<path fill="none" stroke="#191970" d="M80.6955,-123.2967C92.6436,-114.302 107.9639,-102.7687 121.1138,-92.8694"/>
<polygon fill="#191970" stroke="#191970" points="123.5002,-95.4538 129.3844,-86.6432 119.2902,-89.8613 123.5002,-95.4538"/>
</g>
<!-- Node5&#45;&gt;Node4 -->
<g id="edge6" class="edge">
<title>Node5&#45;&gt;Node4</title>
<path fill="none" stroke="#191970" d="M138.3764,-56.2977C132.1299,-47.7609 124.296,-37.0545 117.7353,-28.0883"/>
<polygon fill="#191970" stroke="#191970" points="120.4348,-25.8505 111.7051,-19.8469 114.7856,-29.984 120.4348,-25.8505"/>
</g>
<!-- Node6&#45;&gt;Node2 -->
<g id="edge12" class="edge">
<title>Node6&#45;&gt;Node2</title>
<path fill="none" stroke="#191970" d="M496.6118,-123.4639C518.5367,-113.7996 547.2254,-101.154 570.8119,-90.7572"/>
<polygon fill="#191970" stroke="#191970" points="572.5007,-93.8379 580.2395,-86.6017 569.6772,-87.4325 572.5007,-93.8379"/>
</g>
<!-- Node6&#45;&gt;Node5 -->
<g id="edge11" class="edge">
<title>Node6&#45;&gt;Node5</title>
<path fill="none" stroke="#191970" d="M402.4449,-124.7422C399.7609,-124.149 397.103,-123.5659 394.5,-123 317.3313,-106.2238 297.7448,-103.422 220.5,-87 220.3959,-86.9779 220.2917,-86.9557 220.1874,-86.9335"/>
<polygon fill="#191970" stroke="#191970" points="220.8094,-83.4875 210.2985,-84.8186 219.3453,-90.3327 220.8094,-83.4875"/>
</g>
<!-- Node7 -->
<g id="node8" class="node">
<title>Node7</title>
<g id="a_node8"><a xlink:title=" ">
<polygon fill="#ffffff" stroke="#bfbfbf" points="229,-62 229,-81 274,-81 274,-62 229,-62"/>
<text text-anchor="middle" x="251.5" y="-69" font-family="Helvetica,sans-Serif" font-size="10.00" fill="#000000">utility</text>
</a>
</g>
</g>
<!-- Node6&#45;&gt;Node7 -->
<g id="edge8" class="edge">
<title>Node6&#45;&gt;Node7</title>
<path fill="none" stroke="#191970" d="M402.4025,-123.9559C367.2554,-114.7736 322.3067,-101.8559 283.5,-87 282.0948,-86.4621 280.6671,-85.886 279.2338,-85.2841"/>
<polygon fill="#191970" stroke="#191970" points="280.431,-81.9845 269.8763,-81.0634 277.5528,-88.3655 280.431,-81.9845"/>
</g>
<!-- Node8 -->
<g id="node9" class="node">
<title>Node8</title>
<g id="a_node9"><a xlink:title=" ">
<polygon fill="#ffffff" stroke="#bfbfbf" points="292,-62 292,-81 369,-81 369,-62 292,-62"/>
<text text-anchor="middle" x="330.5" y="-69" font-family="Helvetica,sans-Serif" font-size="10.00" fill="#000000">Eigen/Dense</text>
</a>
</g>
</g>
<!-- Node6&#45;&gt;Node8 -->
<g id="edge9" class="edge">
<title>Node6&#45;&gt;Node8</title>
<path fill="none" stroke="#191970" d="M432.8766,-123.4639C410.6289,-112.1715 380.3616,-96.8086 358.5139,-85.7192"/>
<polygon fill="#191970" stroke="#191970" points="359.9224,-82.5091 349.4212,-81.1039 356.7541,-88.7511 359.9224,-82.5091"/>
</g>
<!-- Node9 -->
<g id="node10" class="node">
<title>Node9</title>
<g id="a_node10"><a xlink:href="constants_8h.html" target="_top" xlink:title=" ">
<polygon fill="#ffffff" stroke="#000000" points="387,-62 387,-81 536,-81 536,-62 387,-62"/>
<text text-anchor="middle" x="461.5" y="-69" font-family="Helvetica,sans-Serif" font-size="10.00" fill="#000000">drake/common/constants.h</text>
</a>
</g>
</g>
<!-- Node6&#45;&gt;Node9 -->
<g id="edge10" class="edge">
<title>Node6&#45;&gt;Node9</title>
<path fill="none" stroke="#191970" d="M462.2731,-123.2967C462.1309,-113.7699 461.9462,-101.3954 461.793,-91.1306"/>
<polygon fill="#191970" stroke="#191970" points="465.2916,-91.0016 461.6426,-81.055 458.2923,-91.1061 465.2916,-91.0016"/>
</g>
<!-- Node10&#45;&gt;Node1 -->
<g id="edge14" class="edge">
<title>Node10&#45;&gt;Node1</title>
<path fill="none" stroke="#191970" d="M278.8941,-190.4383C254.0309,-180.5313 221.1243,-167.0318 192.5,-154 191.4869,-153.5388 190.4583,-153.0632 189.4218,-152.5779"/>
<polygon fill="#191970" stroke="#191970" points="190.6087,-149.2643 180.0819,-148.0658 187.5637,-155.5674 190.6087,-149.2643"/>
</g>
<!-- Node10&#45;&gt;Node2 -->
<g id="edge17" class="edge">
<title>Node10&#45;&gt;Node2</title>
<path fill="none" stroke="#191970" d="M390.4709,-197.9551C433.6193,-191.1218 488.1265,-178.2198 531.5,-154 557.9587,-139.2254 581.7616,-113.6611 597.0215,-94.8956"/>
<polygon fill="#191970" stroke="#191970" points="599.9537,-96.8303 603.4106,-86.8152 594.4628,-92.4886 599.9537,-96.8303"/>
</g>
<!-- Node10&#45;&gt;Node3 -->
<g id="edge18" class="edge">
<title>Node10&#45;&gt;Node3</title>
<path fill="none" stroke="#191970" d="M259.8242,-190.4639C220.8591,-180.3057 169.2589,-166.8535 128.3227,-156.1814"/>
<polygon fill="#191970" stroke="#191970" points="128.9869,-152.7376 118.4274,-153.6017 127.221,-159.5112 128.9869,-152.7376"/>
</g>
<!-- Node10&#45;&gt;Node6 -->
<g id="edge19" class="edge">
<title>Node10&#45;&gt;Node6</title>
<path fill="none" stroke="#191970" d="M350.0408,-190.4639C370.8631,-180.8426 398.0804,-168.2663 420.5236,-157.896"/>
<polygon fill="#191970" stroke="#191970" points="422.2076,-160.9735 429.8172,-153.6017 419.2714,-154.6191 422.2076,-160.9735"/>
</g>
<!-- Node11 -->
<g id="node12" class="node">
<title>Node11</title>
<g id="a_node12"><a xlink:title=" ">
<polygon fill="#ffffff" stroke="#bfbfbf" points="306,-129 306,-148 385,-148 385,-129 306,-129"/>
<text text-anchor="middle" x="345.5" y="-136" font-family="Helvetica,sans-Serif" font-size="10.00" fill="#000000">fmt/format.h</text>
</a>
</g>
</g>
<!-- Node10&#45;&gt;Node11 -->
<g id="edge15" class="edge">
<title>Node10&#45;&gt;Node11</title>
<path fill="none" stroke="#191970" d="M323.8536,-190.2967C327.9197,-180.5672 333.227,-167.8675 337.5687,-157.4784"/>
<polygon fill="#191970" stroke="#191970" points="340.8802,-158.6313 341.5069,-148.055 334.4215,-155.9321 340.8802,-158.6313"/>
</g>
<!-- Node12 -->
<g id="node13" class="node">
<title>Node12</title>
<g id="a_node13"><a xlink:title=" ">
<polygon fill="#ffffff" stroke="#bfbfbf" points="201.5,-129 201.5,-148 287.5,-148 287.5,-129 201.5,-129"/>
<text text-anchor="middle" x="244.5" y="-136" font-family="Helvetica,sans-Serif" font-size="10.00" fill="#000000">fmt/ostream.h</text>
</a>
</g>
</g>
<!-- Node10&#45;&gt;Node12 -->
<g id="edge16" class="edge">
<title>Node10&#45;&gt;Node12</title>
<path fill="none" stroke="#191970" d="M300.9352,-190.2967C289.451,-179.7564 274.1688,-165.7303 262.4038,-154.9323"/>
<polygon fill="#191970" stroke="#191970" points="264.6447,-152.2382 254.9106,-148.055 259.9114,-157.3954 264.6447,-152.2382"/>
</g>
</g>
</svg>
