<?xml version="1.0" encoding="UTF-8" standalone="no"?>
<!DOCTYPE svg PUBLIC "-//W3C//DTD SVG 1.1//EN"
 "http://www.w3.org/Graphics/SVG/1.1/DTD/svg11.dtd">
<!-- Generated by graphviz version 2.40.1 (20161225.0304)
 -->
<!-- Title: drake/geometry/proximity/posed_half_space.h Pages: 1 -->
<svg width="348pt" height="173pt"
 viewBox="0.00 0.00 347.50 173.00" xmlns="http://www.w3.org/2000/svg" xmlns:xlink="http://www.w3.org/1999/xlink">
<g id="graph0" class="graph" transform="scale(1 1) rotate(0) translate(4 169)">
<title>drake/geometry/proximity/posed_half_space.h</title>
<polygon fill="#ffffff" stroke="transparent" points="-4,4 -4,-169 343.5,-169 343.5,4 -4,4"/>
<!-- Node13 -->
<g id="node1" class="node">
<title>Node13</title>
<g id="a_node1"><a xlink:title=" ">
<polygon fill="#bfbfbf" stroke="#000000" points="104.5,-134.5 104.5,-164.5 249.5,-164.5 249.5,-134.5 104.5,-134.5"/>
<text text-anchor="start" x="112.5" y="-152.5" font-family="Helvetica,sans-Serif" font-size="10.00" fill="#000000">drake/geometry/proximity</text>
<text text-anchor="middle" x="177" y="-141.5" font-family="Helvetica,sans-Serif" font-size="10.00" fill="#000000">/posed_half_space.h</text>
</a>
</g>
</g>
<!-- Node14 -->
<g id="node2" class="node">
<title>Node14</title>
<g id="a_node2"><a xlink:href="mesh__half__space__intersection_8h.html" target="_top" xlink:title=" ">
<polygon fill="#ffffff" stroke="#000000" points="0,-67.5 0,-97.5 176,-97.5 176,-67.5 0,-67.5"/>
<text text-anchor="start" x="8" y="-85.5" font-family="Helvetica,sans-Serif" font-size="10.00" fill="#000000">drake/geometry/proximity</text>
<text text-anchor="middle" x="88" y="-74.5" font-family="Helvetica,sans-Serif" font-size="10.00" fill="#000000">/mesh_half_space_intersection.h</text>
</a>
</g>
</g>
<!-- Node13&#45;&gt;Node14 -->
<g id="edge1" class="edge">
<title>Node13&#45;&gt;Node14</title>
<path fill="none" stroke="#191970" d="M148.5257,-128.0643C135.3662,-118.1577 120.0487,-106.6265 108.1156,-97.6432"/>
<polygon fill="#191970" stroke="#191970" points="146.7103,-131.0785 156.8045,-134.2967 150.9203,-125.486 146.7103,-131.0785"/>
</g>
<!-- Node16 -->
<g id="node4" class="node">
<title>Node16</title>
<g id="a_node4"><a xlink:href="mesh__intersection_8h.html" target="_top" xlink:title=" ">
<polygon fill="#ffffff" stroke="#000000" points="194.5,-67.5 194.5,-97.5 339.5,-97.5 339.5,-67.5 194.5,-67.5"/>
<text text-anchor="start" x="202.5" y="-85.5" font-family="Helvetica,sans-Serif" font-size="10.00" fill="#000000">drake/geometry/proximity</text>
<text text-anchor="middle" x="267" y="-74.5" font-family="Helvetica,sans-Serif" font-size="10.00" fill="#000000">/mesh_intersection.h</text>
</a>
</g>
</g>
<!-- Node13&#45;&gt;Node16 -->
<g id="edge3" class="edge">
<title>Node13&#45;&gt;Node16</title>
<path fill="none" stroke="#191970" d="M205.7942,-128.0643C219.1016,-118.1577 234.5913,-106.6265 246.6584,-97.6432"/>
<polygon fill="#191970" stroke="#191970" points="203.3537,-125.5177 197.4224,-134.2967 207.5338,-131.1327 203.3537,-125.5177"/>
</g>
<!-- Node15 -->
<g id="node3" class="node">
<title>Node15</title>
<g id="a_node3"><a xlink:href="hydroelastic__callback_8h.html" target="_top" xlink:title=" ">
<polygon fill="#ffffff" stroke="#000000" points="104.5,-.5 104.5,-30.5 249.5,-30.5 249.5,-.5 104.5,-.5"/>
<text text-anchor="start" x="112.5" y="-18.5" font-family="Helvetica,sans-Serif" font-size="10.00" fill="#000000">drake/geometry/proximity</text>
<text text-anchor="middle" x="177" y="-7.5" font-family="Helvetica,sans-Serif" font-size="10.00" fill="#000000">/hydroelastic_callback.h</text>
</a>
</g>
</g>
<!-- Node14&#45;&gt;Node15 -->
<g id="edge2" class="edge">
<title>Node14&#45;&gt;Node15</title>
<path fill="none" stroke="#191970" d="M116.4743,-61.0643C129.6338,-51.1577 144.9513,-39.6265 156.8844,-30.6432"/>
<polygon fill="#191970" stroke="#191970" points="114.0797,-58.486 108.1955,-67.2967 118.2897,-64.0785 114.0797,-58.486"/>
</g>
<!-- Node16&#45;&gt;Node15 -->
<g id="edge4" class="edge">
<title>Node16&#45;&gt;Node15</title>
<path fill="none" stroke="#191970" d="M238.2058,-61.0643C224.8984,-51.1577 209.4087,-39.6265 197.3416,-30.6432"/>
<polygon fill="#191970" stroke="#191970" points="236.4662,-64.1327 246.5776,-67.2967 240.6463,-58.5177 236.4662,-64.1327"/>
</g>
</g>
</svg>
