<?xml version="1.0" encoding="UTF-8" standalone="no"?>
<!DOCTYPE svg PUBLIC "-//W3C//DTD SVG 1.1//EN"
 "http://www.w3.org/Graphics/SVG/1.1/DTD/svg11.dtd">
<!-- Generated by graphviz version 2.40.1 (20161225.0304)
 -->
<!-- Title: drake/systems/rendering/pose_vector.h Pages: 1 -->
<svg width="447pt" height="117pt"
 viewBox="0.00 0.00 446.50 117.00" xmlns="http://www.w3.org/2000/svg" xmlns:xlink="http://www.w3.org/1999/xlink">
<g id="graph0" class="graph" transform="scale(1 1) rotate(0) translate(4 113)">
<title>drake/systems/rendering/pose_vector.h</title>
<polygon fill="#ffffff" stroke="transparent" points="-4,4 -4,-113 442.5,-113 442.5,4 -4,4"/>
<!-- Node72 -->
<g id="node1" class="node">
<title>Node72</title>
<g id="a_node1"><a xlink:title=" ">
<polygon fill="#bfbfbf" stroke="#000000" points="149,-78.5 149,-108.5 287,-108.5 287,-78.5 149,-78.5"/>
<text text-anchor="start" x="157" y="-96.5" font-family="Helvetica,sans-Serif" font-size="10.00" fill="#000000">drake/systems/rendering</text>
<text text-anchor="middle" x="218" y="-85.5" font-family="Helvetica,sans-Serif" font-size="10.00" fill="#000000">/pose_vector.h</text>
</a>
</g>
</g>
<!-- Node73 -->
<g id="node2" class="node">
<title>Node73</title>
<g id="a_node2"><a xlink:href="rod2d_8h.html" target="_top" xlink:title=" ">
<polygon fill="#ffffff" stroke="#000000" points="0,-6 0,-36 126,-36 126,-6 0,-6"/>
<text text-anchor="start" x="8" y="-24" font-family="Helvetica,sans-Serif" font-size="10.00" fill="#000000">drake/examples/rod2d</text>
<text text-anchor="middle" x="63" y="-13" font-family="Helvetica,sans-Serif" font-size="10.00" fill="#000000">/rod2d.h</text>
</a>
</g>
</g>
<!-- Node72&#45;&gt;Node73 -->
<g id="edge1" class="edge">
<title>Node72&#45;&gt;Node73</title>
<path fill="none" stroke="#191970" d="M176.7887,-74.2237C151.1853,-62.248 118.7571,-47.0799 95.075,-36.0028"/>
<polygon fill="#191970" stroke="#191970" points="175.3429,-77.4114 185.8839,-78.478 178.3087,-71.0707 175.3429,-77.4114"/>
</g>
<!-- Node74 -->
<g id="node3" class="node">
<title>Node74</title>
<g id="a_node3"><a xlink:href="render__pose__to__geometry__pose_8h.html" target="_top" xlink:title=" ">
<polygon fill="#ffffff" stroke="#000000" points="144.5,-.5 144.5,-41.5 291.5,-41.5 291.5,-.5 144.5,-.5"/>
<text text-anchor="start" x="152.5" y="-29.5" font-family="Helvetica,sans-Serif" font-size="10.00" fill="#000000">drake/systems/rendering</text>
<text text-anchor="start" x="152.5" y="-18.5" font-family="Helvetica,sans-Serif" font-size="10.00" fill="#000000">/render_pose_to_geometry</text>
<text text-anchor="middle" x="218" y="-7.5" font-family="Helvetica,sans-Serif" font-size="10.00" fill="#000000">_pose.h</text>
</a>
</g>
</g>
<!-- Node72&#45;&gt;Node74 -->
<g id="edge2" class="edge">
<title>Node72&#45;&gt;Node74</title>
<path fill="none" stroke="#191970" d="M218,-68.4016C218,-59.6173 218,-49.8652 218,-41.5015"/>
<polygon fill="#191970" stroke="#191970" points="214.5001,-68.4779 218,-78.478 221.5001,-68.478 214.5001,-68.4779"/>
</g>
<!-- Node75 -->
<g id="node4" class="node">
<title>Node75</title>
<g id="a_node4"><a xlink:href="rgbd__sensor_8h.html" target="_top" xlink:title=" ">
<polygon fill="#ffffff" stroke="#000000" points="309.5,-6 309.5,-36 438.5,-36 438.5,-6 309.5,-6"/>
<text text-anchor="start" x="317.5" y="-24" font-family="Helvetica,sans-Serif" font-size="10.00" fill="#000000">drake/systems/sensors</text>
<text text-anchor="middle" x="374" y="-13" font-family="Helvetica,sans-Serif" font-size="10.00" fill="#000000">/rgbd_sensor.h</text>
</a>
</g>
</g>
<!-- Node72&#45;&gt;Node75 -->
<g id="edge3" class="edge">
<title>Node72&#45;&gt;Node75</title>
<path fill="none" stroke="#191970" d="M259.4772,-74.2237C285.2457,-62.248 317.8832,-47.0799 341.7181,-36.0028"/>
<polygon fill="#191970" stroke="#191970" points="257.9167,-71.0894 250.3233,-78.478 260.8669,-77.4373 257.9167,-71.0894"/>
</g>
</g>
</svg>
