<?xml version="1.0" encoding="UTF-8" standalone="no"?>
<!DOCTYPE svg PUBLIC "-//W3C//DTD SVG 1.1//EN"
 "http://www.w3.org/Graphics/SVG/1.1/DTD/svg11.dtd">
<!-- Generated by graphviz version 2.40.1 (20161225.0304)
 -->
<!-- Title: drake/solvers/program_attribute.h Pages: 1 -->
<svg width="875pt" height="285pt"
 viewBox="0.00 0.00 874.50 285.00" xmlns="http://www.w3.org/2000/svg" xmlns:xlink="http://www.w3.org/1999/xlink">
<g id="graph0" class="graph" transform="scale(1 1) rotate(0) translate(4 281)">
<title>drake/solvers/program_attribute.h</title>
<polygon fill="#ffffff" stroke="transparent" points="-4,4 -4,-281 870.5,-281 870.5,4 -4,4"/>
<!-- Node0 -->
<g id="node1" class="node">
<title>Node0</title>
<g id="a_node1"><a xlink:title=" ">
<polygon fill="#bfbfbf" stroke="#000000" points="74.5,-246.5 74.5,-276.5 201.5,-276.5 201.5,-246.5 74.5,-246.5"/>
<text text-anchor="start" x="82.5" y="-264.5" font-family="Helvetica,sans-Serif" font-size="10.00" fill="#000000">drake/solvers/program</text>
<text text-anchor="middle" x="138" y="-253.5" font-family="Helvetica,sans-Serif" font-size="10.00" fill="#000000">_attribute.h</text>
</a>
</g>
</g>
<!-- Node1 -->
<g id="node2" class="node">
<title>Node1</title>
<g id="a_node2"><a xlink:title=" ">
<polygon fill="#ffffff" stroke="#bfbfbf" points="17.5,-190.5 17.5,-209.5 74.5,-209.5 74.5,-190.5 17.5,-190.5"/>
<text text-anchor="middle" x="46" y="-197.5" font-family="Helvetica,sans-Serif" font-size="10.00" fill="#000000">ostream</text>
</a>
</g>
</g>
<!-- Node0&#45;&gt;Node1 -->
<g id="edge1" class="edge">
<title>Node0&#45;&gt;Node1</title>
<path fill="none" stroke="#191970" d="M115.2584,-246.2977C101.2033,-236.9022 83.217,-224.8787 69.0964,-215.4395"/>
<polygon fill="#191970" stroke="#191970" points="70.7143,-212.311 60.4556,-209.6633 66.8241,-218.1305 70.7143,-212.311"/>
</g>
<!-- Node2 -->
<g id="node3" class="node">
<title>Node2</title>
<g id="a_node3"><a xlink:title=" ">
<polygon fill="#ffffff" stroke="#bfbfbf" points="0,-129 0,-148 44,-148 44,-129 0,-129"/>
<text text-anchor="middle" x="22" y="-136" font-family="Helvetica,sans-Serif" font-size="10.00" fill="#000000">string</text>
</a>
</g>
</g>
<!-- Node0&#45;&gt;Node2 -->
<g id="edge2" class="edge">
<title>Node0&#45;&gt;Node2</title>
<path fill="none" stroke="#191970" d="M127.7043,-246.2375C117.2532,-231.2247 100.2028,-208.0032 83,-190 70.5523,-176.9732 55.0166,-163.8963 42.7389,-154.1794"/>
<polygon fill="#191970" stroke="#191970" points="44.8792,-151.41 34.8376,-148.031 40.5803,-156.9345 44.8792,-151.41"/>
</g>
<!-- Node3 -->
<g id="node4" class="node">
<title>Node3</title>
<g id="a_node4"><a xlink:title=" ">
<polygon fill="#ffffff" stroke="#bfbfbf" points="131,-190.5 131,-209.5 217,-209.5 217,-190.5 131,-190.5"/>
<text text-anchor="middle" x="174" y="-197.5" font-family="Helvetica,sans-Serif" font-size="10.00" fill="#000000">unordered_set</text>
</a>
</g>
</g>
<!-- Node0&#45;&gt;Node3 -->
<g id="edge3" class="edge">
<title>Node0&#45;&gt;Node3</title>
<path fill="none" stroke="#191970" d="M146.8989,-246.2977C151.7919,-237.9388 157.9026,-227.4997 163.0824,-218.6509"/>
<polygon fill="#191970" stroke="#191970" points="166.2047,-220.2452 168.2359,-209.8469 160.1635,-216.7089 166.2047,-220.2452"/>
</g>
<!-- Node4 -->
<g id="node5" class="node">
<title>Node4</title>
<g id="a_node5"><a xlink:href="hash_8h.html" target="_top" xlink:title=" ">
<polygon fill="#ffffff" stroke="#000000" points="348.5,-190.5 348.5,-209.5 473.5,-209.5 473.5,-190.5 348.5,-190.5"/>
<text text-anchor="middle" x="411" y="-197.5" font-family="Helvetica,sans-Serif" font-size="10.00" fill="#000000">drake/common/hash.h</text>
</a>
</g>
</g>
<!-- Node0&#45;&gt;Node4 -->
<g id="edge4" class="edge">
<title>Node0&#45;&gt;Node4</title>
<path fill="none" stroke="#191970" d="M201.6618,-247.1586C249.414,-236.4012 313.9854,-221.8549 358.7312,-211.7748"/>
<polygon fill="#191970" stroke="#191970" points="359.5412,-215.1802 368.5275,-209.568 358.0028,-208.3513 359.5412,-215.1802"/>
</g>
<!-- Node4&#45;&gt;Node2 -->
<g id="edge12" class="edge">
<title>Node4&#45;&gt;Node2</title>
<path fill="none" stroke="#191970" d="M348.2468,-194.4887C260.7316,-186.3666 106.7245,-170.3673 53,-154 51.338,-153.4937 49.6565,-152.9043 47.981,-152.2572"/>
<polygon fill="#191970" stroke="#191970" points="49.1886,-148.9637 38.6295,-148.0939 46.3415,-155.3586 49.1886,-148.9637"/>
</g>
<!-- Node5 -->
<g id="node6" class="node">
<title>Node5</title>
<g id="a_node6"><a xlink:title=" ">
<polygon fill="#ffffff" stroke="#bfbfbf" points="62.5,-129 62.5,-148 109.5,-148 109.5,-129 62.5,-129"/>
<text text-anchor="middle" x="86" y="-136" font-family="Helvetica,sans-Serif" font-size="10.00" fill="#000000">cmath</text>
</a>
</g>
</g>
<!-- Node4&#45;&gt;Node5 -->
<g id="edge5" class="edge">
<title>Node4&#45;&gt;Node5</title>
<path fill="none" stroke="#191970" d="M348.3356,-195.5452C288.1665,-190.0193 195.2717,-178.1909 118,-154 116.3395,-153.4801 114.6566,-152.8869 112.9766,-152.2426"/>
<polygon fill="#191970" stroke="#191970" points="114.1253,-148.9257 103.5588,-148.152 111.3365,-155.3462 114.1253,-148.9257"/>
</g>
<!-- Node6 -->
<g id="node7" class="node">
<title>Node6</title>
<g id="a_node7"><a xlink:title=" ">
<polygon fill="#ffffff" stroke="#bfbfbf" points="127.5,-129 127.5,-148 180.5,-148 180.5,-129 127.5,-129"/>
<text text-anchor="middle" x="154" y="-136" font-family="Helvetica,sans-Serif" font-size="10.00" fill="#000000">cstddef</text>
</a>
</g>
</g>
<!-- Node4&#45;&gt;Node6 -->
<g id="edge6" class="edge">
<title>Node4&#45;&gt;Node6</title>
<path fill="none" stroke="#191970" d="M348.3628,-190.68C303.3821,-183.1073 241.655,-170.9021 189,-154 187.1017,-153.3907 185.1677,-152.7113 183.2324,-151.9866"/>
<polygon fill="#191970" stroke="#191970" points="184.2858,-148.6364 173.7045,-148.101 181.6424,-155.1181 184.2858,-148.6364"/>
</g>
<!-- Node7 -->
<g id="node8" class="node">
<title>Node7</title>
<g id="a_node8"><a xlink:title=" ">
<polygon fill="#ffffff" stroke="#bfbfbf" points="198.5,-129 198.5,-148 263.5,-148 263.5,-129 198.5,-129"/>
<text text-anchor="middle" x="231" y="-136" font-family="Helvetica,sans-Serif" font-size="10.00" fill="#000000">functional</text>
</a>
</g>
</g>
<!-- Node4&#45;&gt;Node7 -->
<g id="edge7" class="edge">
<title>Node4&#45;&gt;Node7</title>
<path fill="none" stroke="#191970" d="M381.5645,-190.4883C353.5619,-181.3687 310.2914,-167.0927 273,-154 270.7724,-153.2179 268.4822,-152.4032 266.1755,-151.5747"/>
<polygon fill="#191970" stroke="#191970" points="267.3129,-148.2641 256.7188,-148.1384 264.9222,-154.8432 267.3129,-148.2641"/>
</g>
<!-- Node8 -->
<g id="node9" class="node">
<title>Node8</title>
<g id="a_node9"><a xlink:title=" ">
<polygon fill="#ffffff" stroke="#bfbfbf" points="282,-129 282,-148 342,-148 342,-129 282,-129"/>
<text text-anchor="middle" x="312" y="-136" font-family="Helvetica,sans-Serif" font-size="10.00" fill="#000000">iostream</text>
</a>
</g>
</g>
<!-- Node4&#45;&gt;Node8 -->
<g id="edge8" class="edge">
<title>Node4&#45;&gt;Node8</title>
<path fill="none" stroke="#191970" d="M395.5313,-190.3906C379.5479,-180.4616 354.3897,-164.833 335.8567,-153.3201"/>
<polygon fill="#191970" stroke="#191970" points="337.7015,-150.3457 327.3601,-148.0419 334.0076,-156.2918 337.7015,-150.3457"/>
</g>
<!-- Node9 -->
<g id="node10" class="node">
<title>Node9</title>
<g id="a_node10"><a xlink:title=" ">
<polygon fill="#ffffff" stroke="#bfbfbf" points="360,-129 360,-148 398,-148 398,-129 360,-129"/>
<text text-anchor="middle" x="379" y="-136" font-family="Helvetica,sans-Serif" font-size="10.00" fill="#000000">map</text>
</a>
</g>
</g>
<!-- Node4&#45;&gt;Node9 -->
<g id="edge9" class="edge">
<title>Node4&#45;&gt;Node9</title>
<path fill="none" stroke="#191970" d="M406,-190.3906C401.4242,-181.5965 394.5219,-168.3312 388.8417,-157.4145"/>
<polygon fill="#191970" stroke="#191970" points="391.7912,-155.5003 384.0705,-148.2449 385.5815,-158.7314 391.7912,-155.5003"/>
</g>
<!-- Node10 -->
<g id="node11" class="node">
<title>Node10</title>
<g id="a_node11"><a xlink:title=" ">
<polygon fill="#ffffff" stroke="#bfbfbf" points="416,-129 416,-148 472,-148 472,-129 416,-129"/>
<text text-anchor="middle" x="444" y="-136" font-family="Helvetica,sans-Serif" font-size="10.00" fill="#000000">optional</text>
</a>
</g>
</g>
<!-- Node4&#45;&gt;Node10 -->
<g id="edge10" class="edge">
<title>Node4&#45;&gt;Node10</title>
<path fill="none" stroke="#191970" d="M416.1563,-190.3906C420.9232,-181.5068 428.1385,-168.0601 434.0297,-157.0811"/>
<polygon fill="#191970" stroke="#191970" points="437.1269,-158.7114 438.7711,-148.2449 430.9588,-155.4016 437.1269,-158.7114"/>
</g>
<!-- Node11 -->
<g id="node12" class="node">
<title>Node11</title>
<g id="a_node12"><a xlink:title=" ">
<polygon fill="#ffffff" stroke="#bfbfbf" points="490,-129 490,-148 522,-148 522,-129 490,-129"/>
<text text-anchor="middle" x="506" y="-136" font-family="Helvetica,sans-Serif" font-size="10.00" fill="#000000">set</text>
</a>
</g>
</g>
<!-- Node4&#45;&gt;Node11 -->
<g id="edge11" class="edge">
<title>Node4&#45;&gt;Node11</title>
<path fill="none" stroke="#191970" d="M425.8438,-190.3906C441.0418,-180.5519 464.8848,-165.1167 482.6206,-153.6351"/>
<polygon fill="#191970" stroke="#191970" points="484.768,-156.4144 491.2605,-148.0419 480.9639,-150.5382 484.768,-156.4144"/>
</g>
<!-- Node12 -->
<g id="node13" class="node">
<title>Node12</title>
<g id="a_node13"><a xlink:title=" ">
<polygon fill="#ffffff" stroke="#bfbfbf" points="682.5,-.5 682.5,-19.5 751.5,-19.5 751.5,-.5 682.5,-.5"/>
<text text-anchor="middle" x="717" y="-7.5" font-family="Helvetica,sans-Serif" font-size="10.00" fill="#000000">type_traits</text>
</a>
</g>
</g>
<!-- Node4&#45;&gt;Node12 -->
<g id="edge13" class="edge">
<title>Node4&#45;&gt;Node12</title>
<path fill="none" stroke="#191970" d="M444.7074,-190.4306C469.5475,-182.5968 503.6287,-170.1762 531,-154 538.2629,-149.7077 640.2404,-61.0479 647,-56 661.6737,-45.0421 678.8507,-33.7331 692.5169,-25.0704"/>
<polygon fill="#191970" stroke="#191970" points="694.7326,-27.8122 701.3433,-19.5328 691.0123,-21.8826 694.7326,-27.8122"/>
</g>
<!-- Node13 -->
<g id="node14" class="node">
<title>Node13</title>
<g id="a_node14"><a xlink:title=" ">
<polygon fill="#ffffff" stroke="#bfbfbf" points="578.5,-129 578.5,-148 623.5,-148 623.5,-129 578.5,-129"/>
<text text-anchor="middle" x="601" y="-136" font-family="Helvetica,sans-Serif" font-size="10.00" fill="#000000">utility</text>
</a>
</g>
</g>
<!-- Node4&#45;&gt;Node13 -->
<g id="edge14" class="edge">
<title>Node4&#45;&gt;Node13</title>
<path fill="none" stroke="#191970" d="M446.5879,-190.4404C477.8176,-181.7819 524.3152,-168.234 564,-154 565.8683,-153.3299 567.7793,-152.6168 569.7001,-151.8788"/>
<polygon fill="#191970" stroke="#191970" points="571.2525,-155.0275 579.2362,-148.0624 568.6516,-148.5286 571.2525,-155.0275"/>
</g>
<!-- Node14 -->
<g id="node15" class="node">
<title>Node14</title>
<g id="a_node15"><a xlink:title=" ">
<polygon fill="#ffffff" stroke="#bfbfbf" points="641.5,-129 641.5,-148 688.5,-148 688.5,-129 641.5,-129"/>
<text text-anchor="middle" x="665" y="-136" font-family="Helvetica,sans-Serif" font-size="10.00" fill="#000000">vector</text>
</a>
</g>
</g>
<!-- Node4&#45;&gt;Node14 -->
<g id="edge15" class="edge">
<title>Node4&#45;&gt;Node14</title>
<path fill="none" stroke="#191970" d="M473.9492,-190.9254C518.7403,-183.5005 579.9562,-171.3718 632,-154 633.6511,-153.4489 635.3283,-152.8373 637.0069,-152.1846"/>
<polygon fill="#191970" stroke="#191970" points="638.6517,-155.2877 646.4646,-148.1316 635.8944,-148.8535 638.6517,-155.2877"/>
</g>
<!-- Node15 -->
<g id="node16" class="node">
<title>Node15</title>
<g id="a_node16"><a xlink:href="drake__assert_8h.html" target="_top" xlink:title="Provides Drake&#39;s assertion implementation.">
<polygon fill="#ffffff" stroke="#000000" points="656.5,-56.5 656.5,-86.5 777.5,-86.5 777.5,-56.5 656.5,-56.5"/>
<text text-anchor="start" x="664.5" y="-74.5" font-family="Helvetica,sans-Serif" font-size="10.00" fill="#000000">drake/common/drake</text>
<text text-anchor="middle" x="717" y="-63.5" font-family="Helvetica,sans-Serif" font-size="10.00" fill="#000000">_assert.h</text>
</a>
</g>
</g>
<!-- Node4&#45;&gt;Node15 -->
<g id="edge16" class="edge">
<title>Node4&#45;&gt;Node15</title>
<path fill="none" stroke="#191970" d="M473.5601,-197.8421C547.7409,-193.9711 665.3353,-183.2757 697,-154 712.5591,-139.6147 716.9498,-115.364 717.8093,-96.8674"/>
<polygon fill="#191970" stroke="#191970" points="721.3104,-96.8127 717.9651,-86.7599 714.3113,-96.7047 721.3104,-96.8127"/>
</g>
<!-- Node16 -->
<g id="node17" class="node">
<title>Node16</title>
<g id="a_node17"><a xlink:href="drake__throw_8h.html" target="_top" xlink:title="Provides a convenient wrapper to throw an exception when a condition is unmet.">
<polygon fill="#ffffff" stroke="#000000" points="745.5,-123.5 745.5,-153.5 866.5,-153.5 866.5,-123.5 745.5,-123.5"/>
<text text-anchor="start" x="753.5" y="-141.5" font-family="Helvetica,sans-Serif" font-size="10.00" fill="#000000">drake/common/drake</text>
<text text-anchor="middle" x="806" y="-130.5" font-family="Helvetica,sans-Serif" font-size="10.00" fill="#000000">_throw.h</text>
</a>
</g>
</g>
<!-- Node4&#45;&gt;Node16 -->
<g id="edge18" class="edge">
<title>Node4&#45;&gt;Node16</title>
<path fill="none" stroke="#191970" d="M473.7228,-192.1342C538.3701,-183.7577 641.9895,-169.5804 731,-154 732.4734,-153.7421 733.9621,-153.4769 735.462,-153.2056"/>
<polygon fill="#191970" stroke="#191970" points="736.2894,-156.6118 745.4785,-151.3382 735.0064,-149.7303 736.2894,-156.6118"/>
</g>
<!-- Node15&#45;&gt;Node12 -->
<g id="edge17" class="edge">
<title>Node15&#45;&gt;Node12</title>
<path fill="none" stroke="#191970" d="M717,-56.2977C717,-48.3834 717,-38.6043 717,-30.0759"/>
<polygon fill="#191970" stroke="#191970" points="720.5001,-29.8469 717,-19.8469 713.5001,-29.847 720.5001,-29.8469"/>
</g>
<!-- Node16&#45;&gt;Node12 -->
<g id="edge19" class="edge">
<title>Node16&#45;&gt;Node12</title>
<path fill="none" stroke="#191970" d="M805.5863,-123.4633C804.4185,-105.8267 800.2748,-76.4104 786,-56 776.6141,-42.5798 761.9462,-32.0037 748.5433,-24.394"/>
<polygon fill="#191970" stroke="#191970" points="750.0184,-21.2141 739.547,-19.601 746.727,-27.392 750.0184,-21.2141"/>
</g>
<!-- Node16&#45;&gt;Node15 -->
<g id="edge20" class="edge">
<title>Node16&#45;&gt;Node15</title>
<path fill="none" stroke="#191970" d="M785.8045,-123.2967C773.8564,-114.302 758.5361,-102.7687 745.3862,-92.8694"/>
<polygon fill="#191970" stroke="#191970" points="747.2098,-89.8613 737.1156,-86.6432 742.9998,-95.4538 747.2098,-89.8613"/>
</g>
</g>
</svg>
