<?xml version="1.0" encoding="UTF-8" standalone="no"?>
<!DOCTYPE svg PUBLIC "-//W3C//DTD SVG 1.1//EN"
 "http://www.w3.org/Graphics/SVG/1.1/DTD/svg11.dtd">
<!-- Generated by graphviz version 2.40.1 (20161225.0304)
 -->
<!-- Title: drake/bindings/pydrake/pydrake_pybind.h Pages: 1 -->
<svg width="1939pt" height="340pt"
 viewBox="0.00 0.00 1938.50 340.00" xmlns="http://www.w3.org/2000/svg" xmlns:xlink="http://www.w3.org/1999/xlink">
<g id="graph0" class="graph" transform="scale(1 1) rotate(0) translate(4 336)">
<title>drake/bindings/pydrake/pydrake_pybind.h</title>
<polygon fill="#ffffff" stroke="transparent" points="-4,4 -4,-336 1934.5,-336 1934.5,4 -4,4"/>
<!-- Node3 -->
<g id="node1" class="node">
<title>Node3</title>
<g id="a_node1"><a xlink:title=" ">
<polygon fill="#bfbfbf" stroke="#000000" points="755,-301.5 755,-331.5 886,-331.5 886,-301.5 755,-301.5"/>
<text text-anchor="start" x="763" y="-319.5" font-family="Helvetica,sans-Serif" font-size="10.00" fill="#000000">drake/bindings/pydrake</text>
<text text-anchor="middle" x="820.5" y="-308.5" font-family="Helvetica,sans-Serif" font-size="10.00" fill="#000000">/pydrake_pybind.h</text>
</a>
</g>
</g>
<!-- Node4 -->
<g id="node2" class="node">
<title>Node4</title>
<g id="a_node2"><a xlink:href="autodiff__types__pybind_8h.html" target="_top" xlink:title=" ">
<polygon fill="#ffffff" stroke="#000000" points="0,-78.5 0,-108.5 137,-108.5 137,-78.5 0,-78.5"/>
<text text-anchor="start" x="8" y="-96.5" font-family="Helvetica,sans-Serif" font-size="10.00" fill="#000000">drake/bindings/pydrake</text>
<text text-anchor="middle" x="68.5" y="-85.5" font-family="Helvetica,sans-Serif" font-size="10.00" fill="#000000">/autodiff_types_pybind.h</text>
</a>
</g>
</g>
<!-- Node3&#45;&gt;Node4 -->
<g id="edge1" class="edge">
<title>Node3&#45;&gt;Node4</title>
<path fill="none" stroke="#191970" d="M744.8175,-315.174C599.4823,-311.8407 286.7482,-300.6394 185.5,-265 127.2451,-244.4942 100.0055,-241.2545 70.5,-187 57.0804,-162.3241 60.8848,-128.2996 64.7625,-108.8307"/>
<polygon fill="#191970" stroke="#191970" points="744.9116,-318.6769 754.9872,-315.4007 745.0677,-311.6786 744.9116,-318.6769"/>
</g>
<!-- Node5 -->
<g id="node3" class="node">
<title>Node5</title>
<g id="a_node3"><a xlink:href="default__scalars__pybind_8h.html" target="_top" xlink:title="Helpers for defining scalars and values.">
<polygon fill="#ffffff" stroke="#000000" points="152.5,-.5 152.5,-41.5 292.5,-41.5 292.5,-.5 152.5,-.5"/>
<text text-anchor="start" x="160.5" y="-29.5" font-family="Helvetica,sans-Serif" font-size="10.00" fill="#000000">drake/bindings/pydrake</text>
<text text-anchor="start" x="160.5" y="-18.5" font-family="Helvetica,sans-Serif" font-size="10.00" fill="#000000">/common/default_scalars</text>
<text text-anchor="middle" x="222.5" y="-7.5" font-family="Helvetica,sans-Serif" font-size="10.00" fill="#000000">_pybind.h</text>
</a>
</g>
</g>
<!-- Node3&#45;&gt;Node5 -->
<g id="edge10" class="edge">
<title>Node3&#45;&gt;Node5</title>
<path fill="none" stroke="#191970" d="M744.78,-313.7738C607.0426,-308.142 326.5076,-293.3157 292.5,-265 257.5322,-235.8848 233.4304,-94.9773 225.4172,-41.5743"/>
<polygon fill="#191970" stroke="#191970" points="744.7134,-317.2739 754.8462,-314.1794 744.9953,-310.2796 744.7134,-317.2739"/>
</g>
<!-- Node6 -->
<g id="node4" class="node">
<title>Node6</title>
<g id="a_node4"><a xlink:href="cpp__param__pybind_8h.html" target="_top" xlink:title="Provides a mechanism to map C++ types to canonical Python types.">
<polygon fill="#ffffff" stroke="#000000" points="717,-151 717,-181 884,-181 884,-151 717,-151"/>
<text text-anchor="start" x="725" y="-169" font-family="Helvetica,sans-Serif" font-size="10.00" fill="#000000">drake/bindings/pydrake</text>
<text text-anchor="middle" x="800.5" y="-158" font-family="Helvetica,sans-Serif" font-size="10.00" fill="#000000">/common/cpp_param_pybind.h</text>
</a>
</g>
</g>
<!-- Node3&#45;&gt;Node6 -->
<g id="edge3" class="edge">
<title>Node3&#45;&gt;Node6</title>
<path fill="none" stroke="#191970" d="M896.2984,-311.7133C963.6697,-305.6901 1054.9006,-292.5773 1077.5,-265 1089.3318,-250.5621 1089.2944,-237.4685 1077.5,-223 1053.4191,-193.4593 956.6718,-178.785 884.2508,-171.8102"/>
<polygon fill="#191970" stroke="#191970" points="895.7884,-308.2441 886.1241,-312.5859 896.3866,-315.2185 895.7884,-308.2441"/>
</g>
<!-- Node7 -->
<g id="node5" class="node">
<title>Node7</title>
<g id="a_node5"><a xlink:href="cpp__template__pybind_8h.html" target="_top" xlink:title=" ">
<polygon fill="#ffffff" stroke="#000000" points="318,-78.5 318,-108.5 497,-108.5 497,-78.5 318,-78.5"/>
<text text-anchor="start" x="326" y="-96.5" font-family="Helvetica,sans-Serif" font-size="10.00" fill="#000000">drake/bindings/pydrake</text>
<text text-anchor="middle" x="407.5" y="-85.5" font-family="Helvetica,sans-Serif" font-size="10.00" fill="#000000">/common/cpp_template_pybind.h</text>
</a>
</g>
</g>
<!-- Node3&#45;&gt;Node7 -->
<g id="edge9" class="edge">
<title>Node3&#45;&gt;Node7</title>
<path fill="none" stroke="#191970" d="M744.8952,-313.7028C618.0243,-308.2243 373.5126,-293.9986 347.5,-265 305.7949,-218.5076 364.4947,-141.3409 393.2338,-108.7612"/>
<polygon fill="#191970" stroke="#191970" points="744.7977,-317.2017 754.9371,-314.1288 745.0945,-310.208 744.7977,-317.2017"/>
</g>
<!-- Node8 -->
<g id="node6" class="node">
<title>Node8</title>
<g id="a_node6"><a xlink:href="value__pybind_8h.html" target="_top" xlink:title="Helpers for defining instantiations of drake::Value&lt;&gt;.">
<polygon fill="#ffffff" stroke="#000000" points="475.5,-6 475.5,-36 615.5,-36 615.5,-6 475.5,-6"/>
<text text-anchor="start" x="483.5" y="-24" font-family="Helvetica,sans-Serif" font-size="10.00" fill="#000000">drake/bindings/pydrake</text>
<text text-anchor="middle" x="545.5" y="-13" font-family="Helvetica,sans-Serif" font-size="10.00" fill="#000000">/common/value_pybind.h</text>
</a>
</g>
</g>
<!-- Node3&#45;&gt;Node8 -->
<g id="edge15" class="edge">
<title>Node3&#45;&gt;Node8</title>
<path fill="none" stroke="#191970" d="M896.2272,-315.8766C1054.5437,-313.7841 1408.9626,-304.6719 1445.5,-265 1458.1457,-251.2694 1457.1648,-237.5731 1445.5,-223 1341.1145,-92.5888 809.1486,-40.5784 615.8337,-25.7946"/>
<polygon fill="#191970" stroke="#191970" points="896.0432,-312.3785 886.0882,-316.0045 896.1316,-319.3779 896.0432,-312.3785"/>
</g>
<!-- Node9 -->
<g id="node7" class="node">
<title>Node9</title>
<g id="a_node7"><a xlink:href="lcm__pybind_8h.html" target="_top" xlink:title="Helpers for defining C++ LCM type serializers.">
<polygon fill="#ffffff" stroke="#000000" points="321,-6 321,-36 452,-36 452,-6 321,-6"/>
<text text-anchor="start" x="329" y="-24" font-family="Helvetica,sans-Serif" font-size="10.00" fill="#000000">drake/bindings/pydrake</text>
<text text-anchor="middle" x="386.5" y="-13" font-family="Helvetica,sans-Serif" font-size="10.00" fill="#000000">/systems/lcm_pybind.h</text>
</a>
</g>
</g>
<!-- Node3&#45;&gt;Node9 -->
<g id="edge27" class="edge">
<title>Node3&#45;&gt;Node9</title>
<path fill="none" stroke="#191970" d="M744.2614,-313.6649C613.4731,-308.057 357.5299,-293.5434 328.5,-265 268.9319,-206.4303 271.9064,-152.6022 309.5,-78 318.7811,-59.5823 337.1368,-45.6334 353.5985,-36.1454"/>
<polygon fill="#191970" stroke="#191970" points="744.4662,-317.1766 754.6048,-314.101 744.7612,-310.1828 744.4662,-317.1766"/>
</g>
<!-- Node10 -->
<g id="node8" class="node">
<title>Node10</title>
<g id="a_node8"><a xlink:href="deprecation__pybind_8h.html" target="_top" xlink:title="Provides access to Python deprecation utilities from C++.">
<polygon fill="#ffffff" stroke="#000000" points="511.5,-229 511.5,-259 681.5,-259 681.5,-229 511.5,-229"/>
<text text-anchor="start" x="519.5" y="-247" font-family="Helvetica,sans-Serif" font-size="10.00" fill="#000000">drake/bindings/pydrake</text>
<text text-anchor="middle" x="596.5" y="-236" font-family="Helvetica,sans-Serif" font-size="10.00" fill="#000000">/common/deprecation_pybind.h</text>
</a>
</g>
</g>
<!-- Node3&#45;&gt;Node10 -->
<g id="edge11" class="edge">
<title>Node3&#45;&gt;Node10</title>
<path fill="none" stroke="#191970" d="M764.3225,-298.3175C726.8316,-286.1832 678.1287,-270.42 642.8535,-259.0028"/>
<polygon fill="#191970" stroke="#191970" points="763.4952,-301.7285 774.0871,-301.478 765.6508,-295.0686 763.4952,-301.7285"/>
</g>
<!-- Node11 -->
<g id="node9" class="node">
<title>Node11</title>
<g id="a_node9"><a xlink:href="eigen__geometry__pybind_8h.html" target="_top" xlink:title="Provides pybind11 type_casters for Eigen geometric types.">
<polygon fill="#ffffff" stroke="#000000" points="554,-145.5 554,-186.5 699,-186.5 699,-145.5 554,-145.5"/>
<text text-anchor="start" x="562" y="-174.5" font-family="Helvetica,sans-Serif" font-size="10.00" fill="#000000">drake/bindings/pydrake</text>
<text text-anchor="start" x="562" y="-163.5" font-family="Helvetica,sans-Serif" font-size="10.00" fill="#000000">/common/eigen_geometry</text>
<text text-anchor="middle" x="626.5" y="-152.5" font-family="Helvetica,sans-Serif" font-size="10.00" fill="#000000">_pybind.h</text>
</a>
</g>
</g>
<!-- Node3&#45;&gt;Node11 -->
<g id="edge12" class="edge">
<title>Node3&#45;&gt;Node11</title>
<path fill="none" stroke="#191970" d="M778.462,-296.6711C762.1121,-288.0336 743.6975,-277.1107 728.5,-265 708.8133,-249.312 708.3695,-240.7302 690.5,-223 677.8254,-210.4243 662.9708,-197.1139 650.7648,-186.5208"/>
<polygon fill="#191970" stroke="#191970" points="777.317,-300.0183 787.81,-301.4843 780.5215,-293.7948 777.317,-300.0183"/>
</g>
<!-- Node12 -->
<g id="node10" class="node">
<title>Node12</title>
<g id="a_node10"><a xlink:href="sorted__pair__pybind_8h.html" target="_top" xlink:title=" ">
<polygon fill="#ffffff" stroke="#000000" points="737,-229 737,-259 904,-259 904,-229 737,-229"/>
<text text-anchor="start" x="745" y="-247" font-family="Helvetica,sans-Serif" font-size="10.00" fill="#000000">drake/bindings/pydrake</text>
<text text-anchor="middle" x="820.5" y="-236" font-family="Helvetica,sans-Serif" font-size="10.00" fill="#000000">/common/sorted_pair_pybind.h</text>
</a>
</g>
</g>
<!-- Node3&#45;&gt;Node12 -->
<g id="edge13" class="edge">
<title>Node3&#45;&gt;Node12</title>
<path fill="none" stroke="#191970" d="M820.5,-291.3409C820.5,-280.5601 820.5,-268.3309 820.5,-259.0028"/>
<polygon fill="#191970" stroke="#191970" points="817.0001,-291.4779 820.5,-301.478 824.0001,-291.478 817.0001,-291.4779"/>
</g>
<!-- Node13 -->
<g id="node11" class="node">
<title>Node13</title>
<g id="a_node11"><a xlink:href="type__safe__index__pybind_8h.html" target="_top" xlink:title=" ">
<polygon fill="#ffffff" stroke="#000000" points="922.5,-223.5 922.5,-264.5 1068.5,-264.5 1068.5,-223.5 922.5,-223.5"/>
<text text-anchor="start" x="930.5" y="-252.5" font-family="Helvetica,sans-Serif" font-size="10.00" fill="#000000">drake/bindings/pydrake</text>
<text text-anchor="start" x="930.5" y="-241.5" font-family="Helvetica,sans-Serif" font-size="10.00" fill="#000000">/common/type_safe_index</text>
<text text-anchor="middle" x="995.5" y="-230.5" font-family="Helvetica,sans-Serif" font-size="10.00" fill="#000000">_pybind.h</text>
</a>
</g>
</g>
<!-- Node3&#45;&gt;Node13 -->
<g id="edge14" class="edge">
<title>Node3&#45;&gt;Node13</title>
<path fill="none" stroke="#191970" d="M866.1943,-297.5695C890.7081,-287.4138 920.9446,-274.8872 946.0136,-264.5015"/>
<polygon fill="#191970" stroke="#191970" points="864.6591,-294.417 856.7601,-301.478 867.3383,-300.884 864.6591,-294.417"/>
</g>
<!-- Node14 -->
<g id="node12" class="node">
<title>Node14</title>
<g id="a_node12"><a xlink:href="wrap__pybind_8h.html" target="_top" xlink:title="Defines convenience utilities to wrap pybind11 methods and classes.">
<polygon fill="#ffffff" stroke="#000000" points="356,-229 356,-259 493,-259 493,-229 356,-229"/>
<text text-anchor="start" x="364" y="-247" font-family="Helvetica,sans-Serif" font-size="10.00" fill="#000000">drake/bindings/pydrake</text>
<text text-anchor="middle" x="424.5" y="-236" font-family="Helvetica,sans-Serif" font-size="10.00" fill="#000000">/common/wrap_pybind.h</text>
</a>
</g>
</g>
<!-- Node3&#45;&gt;Node14 -->
<g id="edge16" class="edge">
<title>Node3&#45;&gt;Node14</title>
<path fill="none" stroke="#191970" d="M744.8563,-306.4751C680.1693,-297.3721 584.764,-282.6867 502.5,-265 494.4108,-263.2608 485.9071,-261.2079 477.6098,-259.0781"/>
<polygon fill="#191970" stroke="#191970" points="744.5796,-309.9703 754.9678,-307.8877 745.5482,-303.0377 744.5796,-309.9703"/>
</g>
<!-- Node15 -->
<g id="node13" class="node">
<title>Node15</title>
<g id="a_node13"><a xlink:href="polynomial__types__pybind_8h.html" target="_top" xlink:title=" ">
<polygon fill="#ffffff" stroke="#000000" points="1124.5,-229 1124.5,-259 1278.5,-259 1278.5,-229 1124.5,-229"/>
<text text-anchor="start" x="1132.5" y="-247" font-family="Helvetica,sans-Serif" font-size="10.00" fill="#000000">drake/bindings/pydrake</text>
<text text-anchor="middle" x="1201.5" y="-236" font-family="Helvetica,sans-Serif" font-size="10.00" fill="#000000">/polynomial_types_pybind.h</text>
</a>
</g>
</g>
<!-- Node3&#45;&gt;Node15 -->
<g id="edge20" class="edge">
<title>Node3&#45;&gt;Node15</title>
<path fill="none" stroke="#191970" d="M895.9673,-304.1835C954.6137,-294.3503 1037.9167,-279.8098 1110.5,-265 1119.3964,-263.1848 1128.7552,-261.1588 1137.9483,-259.1012"/>
<polygon fill="#191970" stroke="#191970" points="895.3296,-300.7415 886.0434,-305.842 896.4835,-307.6457 895.3296,-300.7415"/>
</g>
<!-- Node16 -->
<g id="node14" class="node">
<title>Node16</title>
<g id="a_node14"><a xlink:href="solvers__pybind_8h.html" target="_top" xlink:title="Helper methods for binding solvers.">
<polygon fill="#ffffff" stroke="#000000" points="1296.5,-229 1296.5,-259 1436.5,-259 1436.5,-229 1296.5,-229"/>
<text text-anchor="start" x="1304.5" y="-247" font-family="Helvetica,sans-Serif" font-size="10.00" fill="#000000">drake/bindings/pydrake</text>
<text text-anchor="middle" x="1366.5" y="-236" font-family="Helvetica,sans-Serif" font-size="10.00" fill="#000000">/solvers/solvers_pybind.h</text>
</a>
</g>
</g>
<!-- Node3&#45;&gt;Node16 -->
<g id="edge21" class="edge">
<title>Node3&#45;&gt;Node16</title>
<path fill="none" stroke="#191970" d="M896.4562,-311.6399C989.2941,-304.8932 1150.9048,-290.5376 1287.5,-265 1296.2884,-263.3569 1305.5357,-261.2508 1314.4837,-259.0089"/>
<polygon fill="#191970" stroke="#191970" points="896.0347,-308.161 886.3104,-312.3667 896.535,-315.1431 896.0347,-308.161"/>
</g>
<!-- Node17 -->
<g id="node15" class="node">
<title>Node17</title>
<g id="a_node15"><a xlink:href="symbolic__types__pybind_8h.html" target="_top" xlink:title=" ">
<polygon fill="#ffffff" stroke="#000000" points="80,-151 80,-181 223,-181 223,-151 80,-151"/>
<text text-anchor="start" x="88" y="-169" font-family="Helvetica,sans-Serif" font-size="10.00" fill="#000000">drake/bindings/pydrake</text>
<text text-anchor="middle" x="151.5" y="-158" font-family="Helvetica,sans-Serif" font-size="10.00" fill="#000000">/symbolic_types_pybind.h</text>
</a>
</g>
</g>
<!-- Node3&#45;&gt;Node17 -->
<g id="edge22" class="edge">
<title>Node3&#45;&gt;Node17</title>
<path fill="none" stroke="#191970" d="M744.6411,-312.964C597.0137,-305.6233 281.6378,-287.5222 237.5,-265 200.5916,-246.1667 172.6952,-204.0742 159.6515,-181.3132"/>
<polygon fill="#191970" stroke="#191970" points="744.814,-316.4767 754.9743,-313.4738 745.159,-309.4852 744.814,-316.4767"/>
</g>
<!-- Node18 -->
<g id="node16" class="node">
<title>Node18</title>
<g id="a_node16"><a xlink:href="framework__py__semantics_8h.html" target="_top" xlink:title="Provides the semantics portion of Python bindings for the systems framework.">
<polygon fill="#ffffff" stroke="#000000" points="1492.5,-223.5 1492.5,-264.5 1626.5,-264.5 1626.5,-223.5 1492.5,-223.5"/>
<text text-anchor="start" x="1500.5" y="-252.5" font-family="Helvetica,sans-Serif" font-size="10.00" fill="#000000">drake/bindings/pydrake</text>
<text text-anchor="start" x="1500.5" y="-241.5" font-family="Helvetica,sans-Serif" font-size="10.00" fill="#000000">/systems/framework_py</text>
<text text-anchor="middle" x="1559.5" y="-230.5" font-family="Helvetica,sans-Serif" font-size="10.00" fill="#000000">_semantics.h</text>
</a>
</g>
</g>
<!-- Node3&#45;&gt;Node18 -->
<g id="edge24" class="edge">
<title>Node3&#45;&gt;Node18</title>
<path fill="none" stroke="#191970" d="M896.409,-314.8796C1019.4301,-311.2879 1269.6478,-299.9681 1478.5,-265 1482.9417,-264.2563 1487.4954,-263.3848 1492.0689,-262.4274"/>
<polygon fill="#191970" stroke="#191970" points="896.236,-311.383 886.339,-315.1645 896.4341,-318.3802 896.236,-311.383"/>
</g>
<!-- Node19 -->
<g id="node17" class="node">
<title>Node19</title>
<g id="a_node17"><a xlink:href="framework__py__systems_8h.html" target="_top" xlink:title="Provides the Python bindings for the core system classes of the systems framework.">
<polygon fill="#ffffff" stroke="#000000" points="1644.5,-223.5 1644.5,-264.5 1778.5,-264.5 1778.5,-223.5 1644.5,-223.5"/>
<text text-anchor="start" x="1652.5" y="-252.5" font-family="Helvetica,sans-Serif" font-size="10.00" fill="#000000">drake/bindings/pydrake</text>
<text text-anchor="start" x="1652.5" y="-241.5" font-family="Helvetica,sans-Serif" font-size="10.00" fill="#000000">/systems/framework_py</text>
<text text-anchor="middle" x="1711.5" y="-230.5" font-family="Helvetica,sans-Serif" font-size="10.00" fill="#000000">_systems.h</text>
</a>
</g>
</g>
<!-- Node3&#45;&gt;Node19 -->
<g id="edge25" class="edge">
<title>Node3&#45;&gt;Node19</title>
<path fill="none" stroke="#191970" d="M896.1505,-313.7182C1070.1371,-306.9965 1494.557,-288.6642 1635.5,-265 1638.335,-264.524 1641.2163,-263.9848 1644.1172,-263.3959"/>
<polygon fill="#191970" stroke="#191970" points="895.9135,-310.2247 886.0552,-314.1061 896.1823,-317.2195 895.9135,-310.2247"/>
</g>
<!-- Node20 -->
<g id="node18" class="node">
<title>Node20</title>
<g id="a_node18"><a xlink:href="framework__py__values_8h.html" target="_top" xlink:title="Provides the values portion of Python bindings for the systems framework.">
<polygon fill="#ffffff" stroke="#000000" points="1796.5,-223.5 1796.5,-264.5 1930.5,-264.5 1930.5,-223.5 1796.5,-223.5"/>
<text text-anchor="start" x="1804.5" y="-252.5" font-family="Helvetica,sans-Serif" font-size="10.00" fill="#000000">drake/bindings/pydrake</text>
<text text-anchor="start" x="1804.5" y="-241.5" font-family="Helvetica,sans-Serif" font-size="10.00" fill="#000000">/systems/framework_py</text>
<text text-anchor="middle" x="1863.5" y="-230.5" font-family="Helvetica,sans-Serif" font-size="10.00" fill="#000000">_values.h</text>
</a>
</g>
</g>
<!-- Node3&#45;&gt;Node20 -->
<g id="edge26" class="edge">
<title>Node3&#45;&gt;Node20</title>
<path fill="none" stroke="#191970" d="M896.3106,-314.5822C1093.0186,-309.2664 1616.331,-292.8688 1787.5,-265 1790.3373,-264.538 1793.2205,-264.0106 1796.123,-263.4314"/>
<polygon fill="#191970" stroke="#191970" points="895.9718,-311.0899 886.0693,-314.8569 896.1596,-318.0874 895.9718,-311.0899"/>
</g>
<!-- Node4&#45;&gt;Node5 -->
<g id="edge2" class="edge">
<title>Node4&#45;&gt;Node5</title>
<path fill="none" stroke="#191970" d="M109.5727,-74.1638C130.9887,-64.0816 157.1841,-51.7494 178.952,-41.5015"/>
<polygon fill="#191970" stroke="#191970" points="107.9656,-71.0519 100.4089,-78.478 110.9472,-77.3851 107.9656,-71.0519"/>
</g>
<!-- Node6&#45;&gt;Node7 -->
<g id="edge4" class="edge">
<title>Node6&#45;&gt;Node7</title>
<path fill="none" stroke="#191970" d="M726.9643,-148.8369C720.7276,-147.4961 714.5098,-146.1991 708.5,-145 637.7915,-130.8921 557.2606,-117.2392 497.2994,-107.5394"/>
<polygon fill="#191970" stroke="#191970" points="726.2369,-152.2604 736.7531,-150.972 727.7287,-145.4212 726.2369,-152.2604"/>
</g>
<!-- Node6&#45;&gt;Node8 -->
<g id="edge8" class="edge">
<title>Node6&#45;&gt;Node8</title>
<path fill="none" stroke="#191970" d="M764.8423,-145.7241C713.0068,-116.249 618.0168,-62.2351 571.9483,-36.0392"/>
<polygon fill="#191970" stroke="#191970" points="763.2695,-148.856 773.6925,-150.7565 766.7297,-142.7709 763.2695,-148.856"/>
</g>
<!-- Node7&#45;&gt;Node5 -->
<g id="edge5" class="edge">
<title>Node7&#45;&gt;Node5</title>
<path fill="none" stroke="#191970" d="M359.5383,-74.7042C333.563,-64.5247 301.433,-51.9332 274.8142,-41.5015"/>
<polygon fill="#191970" stroke="#191970" points="358.5802,-78.0879 369.1679,-78.478 361.1344,-71.5705 358.5802,-78.0879"/>
</g>
<!-- Node7&#45;&gt;Node8 -->
<g id="edge6" class="edge">
<title>Node7&#45;&gt;Node8</title>
<path fill="none" stroke="#191970" d="M445.0943,-73.7494C467.745,-61.8495 496.1356,-46.9342 516.9429,-36.0028"/>
<polygon fill="#191970" stroke="#191970" points="443.3185,-70.7286 436.0937,-78.478 446.5742,-76.9255 443.3185,-70.7286"/>
</g>
<!-- Node7&#45;&gt;Node9 -->
<g id="edge7" class="edge">
<title>Node7&#45;&gt;Node9</title>
<path fill="none" stroke="#191970" d="M400.31,-68.6774C397.1637,-57.8151 393.5757,-45.4281 390.8456,-36.0028"/>
<polygon fill="#191970" stroke="#191970" points="397.0047,-69.8466 403.1488,-78.478 403.7283,-67.899 397.0047,-69.8466"/>
</g>
<!-- Node14&#45;&gt;Node6 -->
<g id="edge17" class="edge">
<title>Node14&#45;&gt;Node6</title>
<path fill="none" stroke="#191970" d="M488.0496,-226.385C492.9268,-225.188 497.7848,-224.0445 502.5,-223 593.2433,-202.8983 617.3859,-205.3477 708.5,-187 717.494,-185.1889 726.9554,-183.1652 736.2494,-181.1087"/>
<polygon fill="#191970" stroke="#191970" points="486.894,-223.0666 478.0512,-228.9024 488.6032,-229.8548 486.894,-223.0666"/>
</g>
<!-- Node14&#45;&gt;Node8 -->
<g id="edge19" class="edge">
<title>Node14&#45;&gt;Node8</title>
<path fill="none" stroke="#191970" d="M440.1215,-220.3894C457.3723,-193.8552 485.4834,-149.2208 506.5,-109 519.5017,-84.1178 532.2346,-53.995 539.4521,-36.2258"/>
<polygon fill="#191970" stroke="#191970" points="437.0456,-218.6981 434.502,-228.9831 442.9042,-222.5292 437.0456,-218.6981"/>
</g>
<!-- Node14&#45;&gt;Node11 -->
<g id="edge18" class="edge">
<title>Node14&#45;&gt;Node11</title>
<path fill="none" stroke="#191970" d="M472.9312,-225.2988C503.147,-213.6314 542.0656,-198.6034 573.1626,-186.5956"/>
<polygon fill="#191970" stroke="#191970" points="471.5155,-222.0935 463.4476,-228.9608 474.0371,-228.6236 471.5155,-222.0935"/>
</g>
<!-- Node17&#45;&gt;Node5 -->
<g id="edge23" class="edge">
<title>Node17&#45;&gt;Node5</title>
<path fill="none" stroke="#191970" d="M163.4367,-141.6222C177.1778,-113.5595 199.5073,-67.9569 212.4146,-41.597"/>
<polygon fill="#191970" stroke="#191970" points="160.2184,-140.2362 158.9641,-150.7565 166.5052,-143.3146 160.2184,-140.2362"/>
</g>
</g>
</svg>
