<?xml version="1.0" encoding="UTF-8" standalone="no"?>
<!DOCTYPE svg PUBLIC "-//W3C//DTD SVG 1.1//EN"
 "http://www.w3.org/Graphics/SVG/1.1/DTD/svg11.dtd">
<!-- Generated by graphviz version 2.40.1 (20161225.0304)
 -->
<!-- Title: drake/multibody/tree/revolute_joint.h Pages: 1 -->
<!--zoomable 195 -->
<svg id="main" version="1.1" xmlns="http://www.w3.org/2000/svg" xmlns:xlink="http://www.w3.org/1999/xlink" xml:space="preserve" onload="init(evt)">
<style type="text/css"><![CDATA[
.edge:hover path { stroke: red; }
.edge:hover polygon { stroke: red; fill: red; }
]]></style>
<script type="text/javascript"><![CDATA[
var edges = document.getElementsByTagName('g');
if (edges && edges.length) {
  for (var i=0;i<edges.length;i++) {
    if (edges[i].id.substr(0,4)=='edge') {
      edges[i].setAttribute('class','edge');
    }
  }
}
]]></script>
        <defs>
                <circle id="rim" cx="0" cy="0" r="7"/>
                <circle id="rim2" cx="0" cy="0" r="3.5"/>
                <g id="zoomPlus">
                        <use xlink:href="#rim" fill="#404040">
                                <set attributeName="fill" to="#808080" begin="zoomplus.mouseover" end="zoomplus.mouseout"/>
                        </use>
                        <path d="M-4,0h8M0,-4v8" fill="none" stroke="white" stroke-width="1.5" pointer-events="none"/>
                </g>
                <g id="zoomMin">
                        <use xlink:href="#rim" fill="#404040">
                                <set attributeName="fill" to="#808080" begin="zoomminus.mouseover" end="zoomminus.mouseout"/>
                        </use>
                        <path d="M-4,0h8" fill="none" stroke="white" stroke-width="1.5" pointer-events="none"/>
                </g>
                <g id="dirArrow">
                        <path fill="none" stroke="white" stroke-width="1.5" d="M0,-3.0v7 M-2.5,-0.5L0,-3.0L2.5,-0.5"/>
                </g>
               <g id="resetDef">
                       <use xlink:href="#rim2" fill="#404040">
                               <set attributeName="fill" to="#808080" begin="reset.mouseover" end="reset.mouseout"/>
                       </use>
               </g>
        </defs>

<script type="text/javascript">
var viewWidth = 845;
var viewHeight = 195;
var sectionId = 'dynsection-1';
</script>
<script xlink:href="svgpan.js"/>
<svg id="graph" class="graph">
<g id="viewport">
<title>drake/multibody/tree/revolute_joint.h</title>
<polygon fill="#ffffff" stroke="transparent" points="-4,4 -4,-191 840.5,-191 840.5,4 -4,4"/>
<!-- Node159 -->
<g id="node1" class="node">
<title>Node159</title>
<g id="a_node1"><a xlink:title=" ">
<polygon fill="#bfbfbf" stroke="#000000" points="333.5,-156.5 333.5,-186.5 452.5,-186.5 452.5,-156.5 333.5,-156.5"/>
<text text-anchor="start" x="341.5" y="-174.5" font-family="Helvetica,sans-Serif" font-size="10.00" fill="#000000">drake/multibody/tree</text>
<text text-anchor="middle" x="393" y="-163.5" font-family="Helvetica,sans-Serif" font-size="10.00" fill="#000000">/revolute_joint.h</text>
</a>
</g>
</g>
<!-- Node160 -->
<g id="node2" class="node">
<title>Node160</title>
<g id="a_node2"><a xlink:href="make__acrobot__plant_8h.html" target="_top" xlink:title=" ">
<polygon fill="#ffffff" stroke="#000000" points="0,-84 0,-114 168,-114 168,-84 0,-84"/>
<text text-anchor="start" x="8" y="-102" font-family="Helvetica,sans-Serif" font-size="10.00" fill="#000000">drake/multibody/benchmarks</text>
<text text-anchor="middle" x="84" y="-91" font-family="Helvetica,sans-Serif" font-size="10.00" fill="#000000">/acrobot/make_acrobot_plant.h</text>
</a>
</g>
</g>
<!-- Node159&#45;&gt;Node160 -->
<g id="edge1" class="edge">
<title>Node159&#45;&gt;Node160</title>
<path fill="none" stroke="#191970" d="M323.5111,-155.196C270.9713,-142.8687 199.3861,-126.0728 148.1891,-114.0606"/>
<polygon fill="#191970" stroke="#191970" points="322.8866,-158.6444 333.4217,-157.5213 324.4856,-151.8295 322.8866,-158.6444"/>
</g>
<!-- Node161 -->
<g id="node3" class="node">
<title>Node161</title>
<g id="a_node3"><a xlink:href="drake__kuka__iiwa__robot_8h.html" target="_top" xlink:title=" ">
<polygon fill="#ffffff" stroke="#000000" points="170,-.5 170,-41.5 330,-41.5 330,-.5 170,-.5"/>
<text text-anchor="start" x="178" y="-29.5" font-family="Helvetica,sans-Serif" font-size="10.00" fill="#000000">drake/multibody/benchmarks</text>
<text text-anchor="start" x="178" y="-18.5" font-family="Helvetica,sans-Serif" font-size="10.00" fill="#000000">/kuka_iiwa_robot/drake_kuka</text>
<text text-anchor="middle" x="250" y="-7.5" font-family="Helvetica,sans-Serif" font-size="10.00" fill="#000000">_iiwa_robot.h</text>
</a>
</g>
</g>
<!-- Node159&#45;&gt;Node161 -->
<g id="edge2" class="edge">
<title>Node159&#45;&gt;Node161</title>
<path fill="none" stroke="#191970" d="M323.4089,-160.1704C279.4054,-151.4256 228.3882,-137.8109 215,-120 197.255,-96.3931 215.9843,-63.0189 232.1312,-41.6927"/>
<polygon fill="#191970" stroke="#191970" points="322.771,-163.6118 333.2532,-162.0706 324.0978,-156.7386 322.771,-163.6118"/>
</g>
<!-- Node162 -->
<g id="node4" class="node">
<title>Node162</title>
<g id="a_node4"><a xlink:href="make__kuka__iiwa__model_8h.html" target="_top" xlink:title=" ">
<polygon fill="#ffffff" stroke="#000000" points="224,-78.5 224,-119.5 384,-119.5 384,-78.5 224,-78.5"/>
<text text-anchor="start" x="232" y="-107.5" font-family="Helvetica,sans-Serif" font-size="10.00" fill="#000000">drake/multibody/benchmarks</text>
<text text-anchor="start" x="232" y="-96.5" font-family="Helvetica,sans-Serif" font-size="10.00" fill="#000000">/kuka_iiwa_robot/make_kuka</text>
<text text-anchor="middle" x="304" y="-85.5" font-family="Helvetica,sans-Serif" font-size="10.00" fill="#000000">_iiwa_model.h</text>
</a>
</g>
</g>
<!-- Node159&#45;&gt;Node162 -->
<g id="edge3" class="edge">
<title>Node159&#45;&gt;Node162</title>
<path fill="none" stroke="#191970" d="M366.7298,-150.1001C354.8613,-140.432 340.9013,-129.06 329.1674,-119.5015"/>
<polygon fill="#191970" stroke="#191970" points="364.5955,-152.8758 374.5591,-156.478 369.0165,-147.4486 364.5955,-152.8758"/>
</g>
<!-- Node163 -->
<g id="node5" class="node">
<title>Node163</title>
<g id="a_node5"><a xlink:href="make__pendulum__plant_8h.html" target="_top" xlink:title=" ">
<polygon fill="#ffffff" stroke="#000000" points="402,-78.5 402,-119.5 562,-119.5 562,-78.5 402,-78.5"/>
<text text-anchor="start" x="410" y="-107.5" font-family="Helvetica,sans-Serif" font-size="10.00" fill="#000000">drake/multibody/benchmarks</text>
<text text-anchor="start" x="410" y="-96.5" font-family="Helvetica,sans-Serif" font-size="10.00" fill="#000000">/pendulum/make_pendulum</text>
<text text-anchor="middle" x="482" y="-85.5" font-family="Helvetica,sans-Serif" font-size="10.00" fill="#000000">_plant.h</text>
</a>
</g>
</g>
<!-- Node159&#45;&gt;Node163 -->
<g id="edge5" class="edge">
<title>Node159&#45;&gt;Node163</title>
<path fill="none" stroke="#191970" d="M419.2702,-150.1001C431.1387,-140.432 445.0987,-129.06 456.8326,-119.5015"/>
<polygon fill="#191970" stroke="#191970" points="416.9835,-147.4486 411.4409,-156.478 421.4045,-152.8758 416.9835,-147.4486"/>
</g>
<!-- Node164 -->
<g id="node6" class="node">
<title>Node164</title>
<g id="a_node6"><a xlink:href="door__hinge_8h.html" target="_top" xlink:title=" ">
<polygon fill="#ffffff" stroke="#000000" points="580.5,-84 580.5,-114 699.5,-114 699.5,-84 580.5,-84"/>
<text text-anchor="start" x="588.5" y="-102" font-family="Helvetica,sans-Serif" font-size="10.00" fill="#000000">drake/multibody/tree</text>
<text text-anchor="middle" x="640" y="-91" font-family="Helvetica,sans-Serif" font-size="10.00" fill="#000000">/door_hinge.h</text>
</a>
</g>
</g>
<!-- Node159&#45;&gt;Node164 -->
<g id="edge6" class="edge">
<title>Node159&#45;&gt;Node164</title>
<path fill="none" stroke="#191970" d="M455.4734,-153.6531C489.637,-143.8361 532.6851,-131.3727 571,-120 577.3621,-118.1116 584.0474,-116.105 590.6494,-114.1101"/>
<polygon fill="#191970" stroke="#191970" points="454.2749,-150.3557 445.629,-156.4793 456.2066,-157.0839 454.2749,-150.3557"/>
</g>
<!-- Node165 -->
<g id="node7" class="node">
<title>Node165</title>
<g id="a_node7"><a xlink:href="revolute__spring_8h.html" target="_top" xlink:title=" ">
<polygon fill="#ffffff" stroke="#000000" points="717.5,-84 717.5,-114 836.5,-114 836.5,-84 717.5,-84"/>
<text text-anchor="start" x="725.5" y="-102" font-family="Helvetica,sans-Serif" font-size="10.00" fill="#000000">drake/multibody/tree</text>
<text text-anchor="middle" x="777" y="-91" font-family="Helvetica,sans-Serif" font-size="10.00" fill="#000000">/revolute_spring.h</text>
</a>
</g>
</g>
<!-- Node159&#45;&gt;Node165 -->
<g id="edge7" class="edge">
<title>Node159&#45;&gt;Node165</title>
<path fill="none" stroke="#191970" d="M462.6315,-162.9633C527.0232,-154.4064 625.1445,-139.6822 709,-120 716.2173,-118.306 723.7868,-116.2525 731.147,-114.101"/>
<polygon fill="#191970" stroke="#191970" points="462.0522,-159.5092 452.594,-164.2835 462.9651,-166.4495 462.0522,-159.5092"/>
</g>
<!-- Node162&#45;&gt;Node161 -->
<g id="edge4" class="edge">
<title>Node162&#45;&gt;Node161</title>
<path fill="none" stroke="#191970" d="M283.7878,-69.8046C277.3152,-60.4552 270.286,-50.302 264.3237,-41.6898"/>
<polygon fill="#191970" stroke="#191970" points="280.9592,-71.8677 289.529,-78.0974 286.7145,-67.8832 280.9592,-71.8677"/>
</g>
</g>
</svg>
        <g id="navigator" transform="translate(0 0)" fill="#404254">
                <rect fill="#f2f5e9" fill-opacity="0.5" stroke="#606060" stroke-width=".5" x="0" y="0" width="60" height="60"/>
                <use id="zoomplus" xlink:href="#zoomPlus" x="17" y="9" onmousedown="handleZoom(evt,'in')"/>
                <use id="zoomminus" xlink:href="#zoomMin" x="42" y="9" onmousedown="handleZoom(evt,'out')"/>
                <use id="reset" xlink:href="#resetDef" x="30" y="36" onmousedown="handleReset()"/>
                <g id="arrowUp" xlink:href="#dirArrow" transform="translate(30 24)" onmousedown="handlePan(0,-1)">
                  <use xlink:href="#rim" fill="#404040">
                        <set attributeName="fill" to="#808080" begin="arrowUp.mouseover" end="arrowUp.mouseout"/>
                  </use>
                  <path fill="none" stroke="white" stroke-width="1.5" d="M0,-3.0v7 M-2.5,-0.5L0,-3.0L2.5,-0.5"/>
                </g>
                <g id="arrowRight" xlink:href="#dirArrow" transform="rotate(90) translate(36 -43)" onmousedown="handlePan(1,0)">
                  <use xlink:href="#rim" fill="#404040">
                        <set attributeName="fill" to="#808080" begin="arrowRight.mouseover" end="arrowRight.mouseout"/>
                  </use>
                  <path fill="none" stroke="white" stroke-width="1.5" d="M0,-3.0v7 M-2.5,-0.5L0,-3.0L2.5,-0.5"/>
                </g>
                <g id="arrowDown" xlink:href="#dirArrow" transform="rotate(180) translate(-30 -48)" onmousedown="handlePan(0,1)">
                  <use xlink:href="#rim" fill="#404040">
                        <set attributeName="fill" to="#808080" begin="arrowDown.mouseover" end="arrowDown.mouseout"/>
                  </use>
                  <path fill="none" stroke="white" stroke-width="1.5" d="M0,-3.0v7 M-2.5,-0.5L0,-3.0L2.5,-0.5"/>
                </g>
                <g id="arrowLeft" xlink:href="#dirArrow" transform="rotate(270) translate(-36 17)" onmousedown="handlePan(-1,0)">
                  <use xlink:href="#rim" fill="#404040">
                        <set attributeName="fill" to="#808080" begin="arrowLeft.mouseover" end="arrowLeft.mouseout"/>
                  </use>
                  <path fill="none" stroke="white" stroke-width="1.5" d="M0,-3.0v7 M-2.5,-0.5L0,-3.0L2.5,-0.5"/>
                </g>
        </g>
        <svg viewBox="0 0 15 15" width="100%" height="30px" preserveAspectRatio="xMaxYMin meet">
         <g id="arrow_out" transform="scale(0.3 0.3)">
          <a xlink:href="revolute__joint_8h__dep__incl_org.svg" target="_base">
           <rect id="button" ry="5" rx="5" y="6" x="6" height="38" width="38"
                fill="#f2f5e9" fill-opacity="0.5" stroke="#606060" stroke-width="1.0"/>
           <path id="arrow"
             d="M 11.500037,31.436501 C 11.940474,20.09759 22.043105,11.32322 32.158766,21.979434 L 37.068811,17.246167 C 37.068811,17.246167 37.088388,32 37.088388,32 L 22.160133,31.978069 C 22.160133,31.978069 26.997745,27.140456 26.997745,27.140456 C 18.528582,18.264221 13.291696,25.230495 11.500037,31.436501 z"
             style="fill:#404040;"/>
          </a>
         </g>
        </svg>
</svg>
