<?xml version="1.0" encoding="UTF-8" standalone="no"?>
<!DOCTYPE svg PUBLIC "-//W3C//DTD SVG 1.1//EN"
 "http://www.w3.org/Graphics/SVG/1.1/DTD/svg11.dtd">
<!-- Generated by graphviz version 2.40.1 (20161225.0304)
 -->
<!-- Title: drake/manipulation/planner/robot_plan_interpolator.h Pages: 1 -->
<svg width="193pt" height="117pt"
 viewBox="0.00 0.00 193.00 117.00" xmlns="http://www.w3.org/2000/svg" xmlns:xlink="http://www.w3.org/1999/xlink">
<g id="graph0" class="graph" transform="scale(1 1) rotate(0) translate(4 113)">
<title>drake/manipulation/planner/robot_plan_interpolator.h</title>
<polygon fill="#ffffff" stroke="transparent" points="-4,4 -4,-113 189,-113 189,4 -4,4"/>
<!-- Node228 -->
<g id="node1" class="node">
<title>Node228</title>
<g id="a_node1"><a xlink:title=" ">
<polygon fill="#bfbfbf" stroke="#000000" points="36.5,-67.5 36.5,-108.5 148.5,-108.5 148.5,-67.5 36.5,-67.5"/>
<text text-anchor="start" x="44.5" y="-96.5" font-family="Helvetica,sans-Serif" font-size="10.00" fill="#000000">drake/manipulation</text>
<text text-anchor="start" x="44.5" y="-85.5" font-family="Helvetica,sans-Serif" font-size="10.00" fill="#000000">/planner/robot_plan</text>
<text text-anchor="middle" x="92.5" y="-74.5" font-family="Helvetica,sans-Serif" font-size="10.00" fill="#000000">_interpolator.h</text>
</a>
</g>
</g>
<!-- Node229 -->
<g id="node2" class="node">
<title>Node229</title>
<g id="a_node2"><a xlink:href="lcm__plan__interpolator_8h.html" target="_top" xlink:title=" ">
<polygon fill="#ffffff" stroke="#000000" points="0,-.5 0,-30.5 185,-30.5 185,-.5 0,-.5"/>
<text text-anchor="start" x="8" y="-18.5" font-family="Helvetica,sans-Serif" font-size="10.00" fill="#000000">drake/examples/kuka</text>
<text text-anchor="middle" x="92.5" y="-7.5" font-family="Helvetica,sans-Serif" font-size="10.00" fill="#000000">_iiwa_arm/lcm_plan_interpolator.h</text>
</a>
</g>
</g>
<!-- Node228&#45;&gt;Node229 -->
<g id="edge1" class="edge">
<title>Node228&#45;&gt;Node229</title>
<path fill="none" stroke="#191970" d="M92.5,-57.3279C92.5,-48.0871 92.5,-38.3508 92.5,-30.5991"/>
<polygon fill="#191970" stroke="#191970" points="89.0001,-57.4183 92.5,-67.4183 96.0001,-57.4184 89.0001,-57.4183"/>
</g>
</g>
</svg>
