<?xml version="1.0" encoding="UTF-8" standalone="no"?>
<!DOCTYPE svg PUBLIC "-//W3C//DTD SVG 1.1//EN"
 "http://www.w3.org/Graphics/SVG/1.1/DTD/svg11.dtd">
<!-- Generated by graphviz version 2.40.1 (20161225.0304)
 -->
<!-- Title: drake/math/saturate.h Pages: 1 -->
<!--zoomable 341 -->
<svg id="main" version="1.1" xmlns="http://www.w3.org/2000/svg" xmlns:xlink="http://www.w3.org/1999/xlink" xml:space="preserve" onload="init(evt)">
<style type="text/css"><![CDATA[
.edge:hover path { stroke: red; }
.edge:hover polygon { stroke: red; fill: red; }
]]></style>
<script type="text/javascript"><![CDATA[
var edges = document.getElementsByTagName('g');
if (edges && edges.length) {
  for (var i=0;i<edges.length;i++) {
    if (edges[i].id.substr(0,4)=='edge') {
      edges[i].setAttribute('class','edge');
    }
  }
}
]]></script>
        <defs>
                <circle id="rim" cx="0" cy="0" r="7"/>
                <circle id="rim2" cx="0" cy="0" r="3.5"/>
                <g id="zoomPlus">
                        <use xlink:href="#rim" fill="#404040">
                                <set attributeName="fill" to="#808080" begin="zoomplus.mouseover" end="zoomplus.mouseout"/>
                        </use>
                        <path d="M-4,0h8M0,-4v8" fill="none" stroke="white" stroke-width="1.5" pointer-events="none"/>
                </g>
                <g id="zoomMin">
                        <use xlink:href="#rim" fill="#404040">
                                <set attributeName="fill" to="#808080" begin="zoomminus.mouseover" end="zoomminus.mouseout"/>
                        </use>
                        <path d="M-4,0h8" fill="none" stroke="white" stroke-width="1.5" pointer-events="none"/>
                </g>
                <g id="dirArrow">
                        <path fill="none" stroke="white" stroke-width="1.5" d="M0,-3.0v7 M-2.5,-0.5L0,-3.0L2.5,-0.5"/>
                </g>
               <g id="resetDef">
                       <use xlink:href="#rim2" fill="#404040">
                               <set attributeName="fill" to="#808080" begin="reset.mouseover" end="reset.mouseout"/>
                       </use>
               </g>
        </defs>

<script type="text/javascript">
var viewWidth = 1095;
var viewHeight = 341;
var sectionId = 'dynsection-0';
</script>
<script xlink:href="svgpan.js"/>
<svg id="graph" class="graph">
<g id="viewport">
<title>drake/math/saturate.h</title>
<polygon fill="#ffffff" stroke="transparent" points="-4,4 -4,-337 1090.5,-337 1090.5,4 -4,4"/>
<!-- Node0 -->
<g id="node1" class="node">
<title>Node0</title>
<g id="a_node1"><a xlink:title=" ">
<polygon fill="#bfbfbf" stroke="#000000" points="756,-313.5 756,-332.5 881,-332.5 881,-313.5 756,-313.5"/>
<text text-anchor="middle" x="818.5" y="-320.5" font-family="Helvetica,sans-Serif" font-size="10.00" fill="#000000">drake/math/saturate.h</text>
</a>
</g>
</g>
<!-- Node1 -->
<g id="node2" class="node">
<title>Node1</title>
<g id="a_node2"><a xlink:href="common_2autodiff_8h.html" target="_top" xlink:title=" ">
<polygon fill="#ffffff" stroke="#000000" points="323.5,-257.5 323.5,-276.5 463.5,-276.5 463.5,-257.5 323.5,-257.5"/>
<text text-anchor="middle" x="393.5" y="-264.5" font-family="Helvetica,sans-Serif" font-size="10.00" fill="#000000">drake/common/autodiff.h</text>
</a>
</g>
</g>
<!-- Node0&#45;&gt;Node1 -->
<g id="edge1" class="edge">
<title>Node0&#45;&gt;Node1</title>
<path fill="none" stroke="#191970" d="M755.7898,-314.737C680.8704,-304.8653 555.4095,-288.334 473.5541,-277.5483"/>
<polygon fill="#191970" stroke="#191970" points="473.9177,-274.066 463.5461,-276.2296 473.0032,-281.0061 473.9177,-274.066"/>
</g>
<!-- Node10 -->
<g id="node11" class="node">
<title>Node10</title>
<g id="a_node11"><a xlink:href="drake__assert_8h.html" target="_top" xlink:title="Provides Drake&#39;s assertion implementation.">
<polygon fill="#ffffff" stroke="#000000" points="637,-56.5 637,-86.5 758,-86.5 758,-56.5 637,-56.5"/>
<text text-anchor="start" x="645" y="-74.5" font-family="Helvetica,sans-Serif" font-size="10.00" fill="#000000">drake/common/drake</text>
<text text-anchor="middle" x="697.5" y="-63.5" font-family="Helvetica,sans-Serif" font-size="10.00" fill="#000000">_assert.h</text>
</a>
</g>
</g>
<!-- Node0&#45;&gt;Node10 -->
<g id="edge29" class="edge">
<title>Node0&#45;&gt;Node10</title>
<path fill="none" stroke="#191970" d="M820.5462,-313.1617C826.4332,-282.0708 840.4354,-184.3674 798.5,-123 788.9359,-109.004 774.3755,-98.5964 759.2632,-90.9467"/>
<polygon fill="#191970" stroke="#191970" points="760.3633,-87.5975 749.8221,-86.5327 757.3986,-93.9387 760.3633,-87.5975"/>
</g>
<!-- Node17 -->
<g id="node18" class="node">
<title>Node17</title>
<g id="a_node18"><a xlink:href="cond_8h.html" target="_top" xlink:title=" ">
<polygon fill="#ffffff" stroke="#000000" points="847,-129 847,-148 972,-148 972,-129 847,-129"/>
<text text-anchor="middle" x="909.5" y="-136" font-family="Helvetica,sans-Serif" font-size="10.00" fill="#000000">drake/common/cond.h</text>
</a>
</g>
</g>
<!-- Node0&#45;&gt;Node17 -->
<g id="edge28" class="edge">
<title>Node0&#45;&gt;Node17</title>
<path fill="none" stroke="#191970" d="M823.2644,-313.3402C837.6997,-284.0732 881.1325,-196.0142 900.2718,-157.2099"/>
<polygon fill="#191970" stroke="#191970" points="903.4982,-158.5808 904.7827,-148.0641 897.2203,-155.4844 903.4982,-158.5808"/>
</g>
<!-- Node2 -->
<g id="node3" class="node">
<title>Node2</title>
<g id="a_node3"><a xlink:title=" ">
<polygon fill="#ffffff" stroke="#bfbfbf" points="0,-196 0,-215 69,-215 69,-196 0,-196"/>
<text text-anchor="middle" x="34.5" y="-203" font-family="Helvetica,sans-Serif" font-size="10.00" fill="#000000">Eigen/Core</text>
</a>
</g>
</g>
<!-- Node1&#45;&gt;Node2 -->
<g id="edge2" class="edge">
<title>Node1&#45;&gt;Node2</title>
<path fill="none" stroke="#191970" d="M323.364,-260.8806C258.802,-254.2867 160.7249,-241.8312 77.5,-221 74.3438,-220.21 71.0957,-219.2755 67.8659,-218.263"/>
<polygon fill="#191970" stroke="#191970" points="68.9365,-214.9305 58.3424,-215.0581 66.7039,-221.5649 68.9365,-214.9305"/>
</g>
<!-- Node3 -->
<g id="node4" class="node">
<title>Node3</title>
<g id="a_node4"><a xlink:title=" ">
<polygon fill="#ffffff" stroke="#bfbfbf" points="87,-196 87,-215 238,-215 238,-196 87,-196"/>
<text text-anchor="middle" x="162.5" y="-203" font-family="Helvetica,sans-Serif" font-size="10.00" fill="#000000">unsupported/Eigen/AutoDiff</text>
</a>
</g>
</g>
<!-- Node1&#45;&gt;Node3 -->
<g id="edge3" class="edge">
<title>Node1&#45;&gt;Node3</title>
<path fill="none" stroke="#191970" d="M357.6597,-257.4581C317.4515,-246.7533 252.1309,-229.3628 208.2631,-217.6837"/>
<polygon fill="#191970" stroke="#191970" points="208.9882,-214.2549 198.4244,-215.0643 207.1873,-221.0193 208.9882,-214.2549"/>
</g>
<!-- Node4 -->
<g id="node5" class="node">
<title>Node4</title>
<g id="a_node5"><a xlink:href="eigen__autodiff__types_8h.html" target="_top" xlink:title="This file contains abbreviated definitions for certain uses of AutoDiffScalar that are commonly used ...">
<polygon fill="#ffffff" stroke="#000000" points="256.5,-190.5 256.5,-220.5 376.5,-220.5 376.5,-190.5 256.5,-190.5"/>
<text text-anchor="start" x="264.5" y="-208.5" font-family="Helvetica,sans-Serif" font-size="10.00" fill="#000000">drake/common/eigen</text>
<text text-anchor="middle" x="316.5" y="-197.5" font-family="Helvetica,sans-Serif" font-size="10.00" fill="#000000">_autodiff_types.h</text>
</a>
</g>
</g>
<!-- Node1&#45;&gt;Node4 -->
<g id="edge4" class="edge">
<title>Node1&#45;&gt;Node4</title>
<path fill="none" stroke="#191970" d="M381.4688,-257.3906C371.3372,-249.2986 356.4658,-237.4207 343.5069,-227.0705"/>
<polygon fill="#191970" stroke="#191970" points="345.3343,-224.0506 335.3363,-220.5446 340.9657,-229.5202 345.3343,-224.0506"/>
</g>
<!-- Node12 -->
<g id="node13" class="node">
<title>Node12</title>
<g id="a_node13"><a xlink:href="autodiffxd_8h.html" target="_top" xlink:title=" ">
<polygon fill="#ffffff" stroke="#000000" points="394.5,-196 394.5,-215 546.5,-215 546.5,-196 394.5,-196"/>
<text text-anchor="middle" x="470.5" y="-203" font-family="Helvetica,sans-Serif" font-size="10.00" fill="#000000">drake/common/autodiffxd.h</text>
</a>
</g>
</g>
<!-- Node1&#45;&gt;Node12 -->
<g id="edge14" class="edge">
<title>Node1&#45;&gt;Node12</title>
<path fill="none" stroke="#191970" d="M405.5313,-257.3906C417.5107,-247.8227 436.1166,-232.9621 450.3525,-221.5919"/>
<polygon fill="#191970" stroke="#191970" points="452.9239,-224.0175 458.5532,-215.0419 448.5553,-218.5479 452.9239,-224.0175"/>
</g>
<!-- Node15 -->
<g id="node16" class="node">
<title>Node15</title>
<g id="a_node16"><a xlink:href="autodiff__overloads_8h.html" target="_top" xlink:title="Overloads for STL mathematical operations on AutoDiffScalar.">
<polygon fill="#ffffff" stroke="#000000" points="565,-190.5 565,-220.5 696,-220.5 696,-190.5 565,-190.5"/>
<text text-anchor="start" x="573" y="-208.5" font-family="Helvetica,sans-Serif" font-size="10.00" fill="#000000">drake/common/autodiff</text>
<text text-anchor="middle" x="630.5" y="-197.5" font-family="Helvetica,sans-Serif" font-size="10.00" fill="#000000">_overloads.h</text>
</a>
</g>
</g>
<!-- Node1&#45;&gt;Node15 -->
<g id="edge18" class="edge">
<title>Node1&#45;&gt;Node15</title>
<path fill="none" stroke="#191970" d="M430.2712,-257.4581C465.4927,-248.3183 519.496,-234.3048 562.5462,-223.1336"/>
<polygon fill="#191970" stroke="#191970" points="563.5926,-226.478 572.3929,-220.5784 561.8344,-219.7024 563.5926,-226.478"/>
</g>
<!-- Node5 -->
<g id="node6" class="node">
<title>Node5</title>
<g id="a_node6"><a xlink:title=" ">
<polygon fill="#ffffff" stroke="#bfbfbf" points="663,-.5 663,-19.5 732,-19.5 732,-.5 663,-.5"/>
<text text-anchor="middle" x="697.5" y="-7.5" font-family="Helvetica,sans-Serif" font-size="10.00" fill="#000000">type_traits</text>
</a>
</g>
</g>
<!-- Node4&#45;&gt;Node5 -->
<g id="edge5" class="edge">
<title>Node4&#45;&gt;Node5</title>
<path fill="none" stroke="#191970" d="M279.8579,-190.3484C220.937,-163.9563 116.2965,-107.4446 163.5,-56 196.2804,-20.2744 529.6502,-12.2301 652.4242,-10.474"/>
<polygon fill="#191970" stroke="#191970" points="652.6582,-13.9713 662.6098,-10.336 652.5633,-6.9719 652.6582,-13.9713"/>
</g>
<!-- Node6 -->
<g id="node7" class="node">
<title>Node6</title>
<g id="a_node7"><a xlink:title=" ">
<polygon fill="#ffffff" stroke="#bfbfbf" points="173,-62 173,-81 250,-81 250,-62 173,-62"/>
<text text-anchor="middle" x="211.5" y="-69" font-family="Helvetica,sans-Serif" font-size="10.00" fill="#000000">Eigen/Dense</text>
</a>
</g>
</g>
<!-- Node4&#45;&gt;Node6 -->
<g id="edge6" class="edge">
<title>Node4&#45;&gt;Node6</title>
<path fill="none" stroke="#191970" d="M292.3352,-190.3128C279.0284,-181.0484 262.9419,-168.2623 251.5,-154 236.075,-134.7727 224.6747,-108.6183 218.0742,-90.9533"/>
<polygon fill="#191970" stroke="#191970" points="221.2478,-89.4323 214.5917,-81.1892 214.6546,-91.7839 221.2478,-89.4323"/>
</g>
<!-- Node7 -->
<g id="node8" class="node">
<title>Node7</title>
<g id="a_node8"><a xlink:href="eigen__types_8h.html" target="_top" xlink:title="This file contains abbreviated definitions for certain specializations of Eigen::Matrix that are comm...">
<polygon fill="#ffffff" stroke="#000000" points="299.5,-123.5 299.5,-153.5 419.5,-153.5 419.5,-123.5 299.5,-123.5"/>
<text text-anchor="start" x="307.5" y="-141.5" font-family="Helvetica,sans-Serif" font-size="10.00" fill="#000000">drake/common/eigen</text>
<text text-anchor="middle" x="359.5" y="-130.5" font-family="Helvetica,sans-Serif" font-size="10.00" fill="#000000">_types.h</text>
</a>
</g>
</g>
<!-- Node4&#45;&gt;Node7 -->
<g id="edge7" class="edge">
<title>Node4&#45;&gt;Node7</title>
<path fill="none" stroke="#191970" d="M326.2574,-190.2967C331.5903,-181.9873 338.3135,-171.5115 344.316,-162.1587"/>
<polygon fill="#191970" stroke="#191970" points="347.3255,-163.9495 349.7812,-153.6432 341.4344,-160.1686 347.3255,-163.9495"/>
</g>
<!-- Node7&#45;&gt;Node6 -->
<g id="edge9" class="edge">
<title>Node7&#45;&gt;Node6</title>
<path fill="none" stroke="#191970" d="M326.2859,-123.4639C301.006,-112.0196 266.4908,-96.3945 241.9261,-85.274"/>
<polygon fill="#191970" stroke="#191970" points="243.2681,-82.0396 232.7146,-81.1039 240.3812,-88.4166 243.2681,-82.0396"/>
</g>
<!-- Node8 -->
<g id="node9" class="node">
<title>Node8</title>
<g id="a_node9"><a xlink:title=" ">
<polygon fill="#ffffff" stroke="#bfbfbf" points="268,-62 268,-81 313,-81 313,-62 268,-62"/>
<text text-anchor="middle" x="290.5" y="-69" font-family="Helvetica,sans-Serif" font-size="10.00" fill="#000000">utility</text>
</a>
</g>
</g>
<!-- Node7&#45;&gt;Node8 -->
<g id="edge8" class="edge">
<title>Node7&#45;&gt;Node8</title>
<path fill="none" stroke="#191970" d="M343.8428,-123.2967C333.0923,-112.8578 318.8206,-98.9997 307.7445,-88.2446"/>
<polygon fill="#191970" stroke="#191970" points="309.9527,-85.5103 300.3402,-81.055 305.0763,-90.5323 309.9527,-85.5103"/>
</g>
<!-- Node9 -->
<g id="node10" class="node">
<title>Node9</title>
<g id="a_node10"><a xlink:href="constants_8h.html" target="_top" xlink:title=" ">
<polygon fill="#ffffff" stroke="#000000" points="331,-62 331,-81 480,-81 480,-62 331,-62"/>
<text text-anchor="middle" x="405.5" y="-69" font-family="Helvetica,sans-Serif" font-size="10.00" fill="#000000">drake/common/constants.h</text>
</a>
</g>
</g>
<!-- Node7&#45;&gt;Node9 -->
<g id="edge10" class="edge">
<title>Node7&#45;&gt;Node9</title>
<path fill="none" stroke="#191970" d="M369.9381,-123.2967C376.8268,-113.2631 385.8842,-100.0709 393.134,-89.5113"/>
<polygon fill="#191970" stroke="#191970" points="396.1652,-91.28 398.9399,-81.055 390.3944,-87.318 396.1652,-91.28"/>
</g>
<!-- Node7&#45;&gt;Node10 -->
<g id="edge11" class="edge">
<title>Node7&#45;&gt;Node10</title>
<path fill="none" stroke="#191970" d="M419.6269,-125.6007C423.9807,-124.7074 428.3062,-123.8322 432.5,-123 515.9066,-106.4492 539.4904,-104.6415 626.9956,-87.0598"/>
<polygon fill="#191970" stroke="#191970" points="627.7133,-90.4856 636.8215,-85.0736 626.3263,-83.6243 627.7133,-90.4856"/>
</g>
<!-- Node11 -->
<g id="node12" class="node">
<title>Node11</title>
<g id="a_node12"><a xlink:href="drake__copyable_8h.html" target="_top" xlink:title="Provides careful macros to selectively enable or disable the special member functions for copy&#45;constr...">
<polygon fill="#ffffff" stroke="#000000" points="498,-56.5 498,-86.5 619,-86.5 619,-56.5 498,-56.5"/>
<text text-anchor="start" x="506" y="-74.5" font-family="Helvetica,sans-Serif" font-size="10.00" fill="#000000">drake/common/drake</text>
<text text-anchor="middle" x="558.5" y="-63.5" font-family="Helvetica,sans-Serif" font-size="10.00" fill="#000000">_copyable.h</text>
</a>
</g>
</g>
<!-- Node7&#45;&gt;Node11 -->
<g id="edge13" class="edge">
<title>Node7&#45;&gt;Node11</title>
<path fill="none" stroke="#191970" d="M404.1595,-123.4639C433.7568,-113.499 472.7689,-100.3642 504.1654,-89.7936"/>
<polygon fill="#191970" stroke="#191970" points="505.2853,-93.1096 513.6457,-86.6017 503.0516,-86.4755 505.2853,-93.1096"/>
</g>
<!-- Node10&#45;&gt;Node5 -->
<g id="edge12" class="edge">
<title>Node10&#45;&gt;Node5</title>
<path fill="none" stroke="#191970" d="M697.5,-56.2977C697.5,-48.3834 697.5,-38.6043 697.5,-30.0759"/>
<polygon fill="#191970" stroke="#191970" points="701.0001,-29.8469 697.5,-19.8469 694.0001,-29.847 701.0001,-29.8469"/>
</g>
<!-- Node12&#45;&gt;Node6 -->
<g id="edge17" class="edge">
<title>Node12&#45;&gt;Node6</title>
<path fill="none" stroke="#191970" d="M427.5536,-195.9516C382.0125,-185.3481 313.53,-167.8948 290.5,-154 262.7755,-137.2729 238.2792,-108.3215 224.1718,-89.5444"/>
<polygon fill="#191970" stroke="#191970" points="226.8348,-87.2561 218.1123,-81.242 221.1805,-91.3828 226.8348,-87.2561"/>
</g>
<!-- Node13 -->
<g id="node14" class="node">
<title>Node13</title>
<g id="a_node14"><a xlink:title=" ">
<polygon fill="#ffffff" stroke="#bfbfbf" points="517,-129 517,-148 564,-148 564,-129 517,-129"/>
<text text-anchor="middle" x="540.5" y="-136" font-family="Helvetica,sans-Serif" font-size="10.00" fill="#000000">cmath</text>
</a>
</g>
</g>
<!-- Node12&#45;&gt;Node13 -->
<g id="edge15" class="edge">
<title>Node12&#45;&gt;Node13</title>
<path fill="none" stroke="#191970" d="M480.5293,-195.9005C491.6531,-185.2535 509.7987,-167.8856 523.221,-155.0385"/>
<polygon fill="#191970" stroke="#191970" points="525.6852,-157.5247 530.4893,-148.0817 520.845,-152.4678 525.6852,-157.5247"/>
</g>
<!-- Node14 -->
<g id="node15" class="node">
<title>Node14</title>
<g id="a_node15"><a xlink:title=" ">
<polygon fill="#ffffff" stroke="#bfbfbf" points="442,-129 442,-148 499,-148 499,-129 442,-129"/>
<text text-anchor="middle" x="470.5" y="-136" font-family="Helvetica,sans-Serif" font-size="10.00" fill="#000000">ostream</text>
</a>
</g>
</g>
<!-- Node12&#45;&gt;Node14 -->
<g id="edge16" class="edge">
<title>Node12&#45;&gt;Node14</title>
<path fill="none" stroke="#191970" d="M470.5,-195.9005C470.5,-186.149 470.5,-170.7597 470.5,-158.3695"/>
<polygon fill="#191970" stroke="#191970" points="474.0001,-158.0816 470.5,-148.0817 467.0001,-158.0817 474.0001,-158.0816"/>
</g>
<!-- Node15&#45;&gt;Node10 -->
<g id="edge25" class="edge">
<title>Node15&#45;&gt;Node10</title>
<path fill="none" stroke="#191970" d="M622.3655,-190.2298C614.3372,-172.894 604.821,-144.2652 616.5,-123 623.7999,-109.7083 636.145,-99.3587 649.0261,-91.5391"/>
<polygon fill="#191970" stroke="#191970" points="650.9615,-94.4666 657.9741,-86.5246 647.5394,-88.3601 650.9615,-94.4666"/>
</g>
<!-- Node15&#45;&gt;Node13 -->
<g id="edge19" class="edge">
<title>Node15&#45;&gt;Node13</title>
<path fill="none" stroke="#191970" d="M610.0776,-190.2967C595.6468,-179.5537 576.3516,-165.1895 561.7412,-154.3129"/>
<polygon fill="#191970" stroke="#191970" points="563.4464,-151.219 553.335,-148.055 559.2664,-156.8339 563.4464,-151.219"/>
</g>
<!-- Node16 -->
<g id="node17" class="node">
<title>Node16</title>
<g id="a_node17"><a xlink:title=" ">
<polygon fill="#ffffff" stroke="#bfbfbf" points="776.5,-62 776.5,-81 820.5,-81 820.5,-62 776.5,-62"/>
<text text-anchor="middle" x="798.5" y="-69" font-family="Helvetica,sans-Serif" font-size="10.00" fill="#000000">limits</text>
</a>
</g>
</g>
<!-- Node15&#45;&gt;Node16 -->
<g id="edge20" class="edge">
<title>Node15&#45;&gt;Node16</title>
<path fill="none" stroke="#191970" d="M629.731,-190.3401C629.6541,-172.0297 632.3805,-141.4013 649.5,-123 686.5584,-83.1669 715.8706,-106.9165 766.5,-87 767.9002,-86.4492 769.3239,-85.8627 770.7539,-85.2524"/>
<polygon fill="#191970" stroke="#191970" points="772.4454,-88.3282 780.1005,-81.0036 769.5486,-81.9557 772.4454,-88.3282"/>
</g>
<!-- Node15&#45;&gt;Node17 -->
<g id="edge21" class="edge">
<title>Node15&#45;&gt;Node17</title>
<path fill="none" stroke="#191970" d="M693.113,-190.4639C743.5547,-178.3507 813.5007,-161.5536 860.0633,-150.3719"/>
<polygon fill="#191970" stroke="#191970" points="861.012,-153.7437 869.9183,-148.0053 859.3774,-146.9372 861.012,-153.7437"/>
</g>
<!-- Node20 -->
<g id="node21" class="node">
<title>Node20</title>
<g id="a_node21"><a xlink:href="dummy__value_8h.html" target="_top" xlink:title=" ">
<polygon fill="#ffffff" stroke="#000000" points="659,-123.5 659,-153.5 790,-153.5 790,-123.5 659,-123.5"/>
<text text-anchor="start" x="667" y="-141.5" font-family="Helvetica,sans-Serif" font-size="10.00" fill="#000000">drake/common/dummy</text>
<text text-anchor="middle" x="724.5" y="-130.5" font-family="Helvetica,sans-Serif" font-size="10.00" fill="#000000">_value.h</text>
</a>
</g>
</g>
<!-- Node15&#45;&gt;Node20 -->
<g id="edge26" class="edge">
<title>Node15&#45;&gt;Node20</title>
<path fill="none" stroke="#191970" d="M651.8301,-190.2967C664.5697,-181.2163 680.9389,-169.5488 694.9152,-159.587"/>
<polygon fill="#191970" stroke="#191970" points="697.1426,-162.2975 703.2544,-153.6432 693.0797,-156.5973 697.1426,-162.2975"/>
</g>
<!-- Node17&#45;&gt;Node5 -->
<g id="edge23" class="edge">
<title>Node17&#45;&gt;Node5</title>
<path fill="none" stroke="#191970" d="M902.6613,-128.9433C890.0436,-111.96 861.4538,-76.3937 829.5,-56 802.7441,-38.9237 768.8727,-27.2891 742.1403,-19.9931"/>
<polygon fill="#191970" stroke="#191970" points="742.8348,-16.5569 732.2741,-17.4069 741.0599,-23.3282 742.8348,-16.5569"/>
</g>
<!-- Node18 -->
<g id="node19" class="node">
<title>Node18</title>
<g id="a_node19"><a xlink:title=" ">
<polygon fill="#ffffff" stroke="#bfbfbf" points="877,-62 877,-81 942,-81 942,-62 877,-62"/>
<text text-anchor="middle" x="909.5" y="-69" font-family="Helvetica,sans-Serif" font-size="10.00" fill="#000000">functional</text>
</a>
</g>
</g>
<!-- Node17&#45;&gt;Node18 -->
<g id="edge22" class="edge">
<title>Node17&#45;&gt;Node18</title>
<path fill="none" stroke="#191970" d="M909.5,-128.9005C909.5,-119.149 909.5,-103.7597 909.5,-91.3695"/>
<polygon fill="#191970" stroke="#191970" points="913.0001,-91.0816 909.5,-81.0817 906.0001,-91.0817 913.0001,-91.0816"/>
</g>
<!-- Node19 -->
<g id="node20" class="node">
<title>Node19</title>
<g id="a_node20"><a xlink:href="double__overloads_8h.html" target="_top" xlink:title="Provides necessary operations on double to have it as a ScalarType in drake.">
<polygon fill="#ffffff" stroke="#000000" points="960.5,-56.5 960.5,-86.5 1086.5,-86.5 1086.5,-56.5 960.5,-56.5"/>
<text text-anchor="start" x="968.5" y="-74.5" font-family="Helvetica,sans-Serif" font-size="10.00" fill="#000000">drake/common/double</text>
<text text-anchor="middle" x="1023.5" y="-63.5" font-family="Helvetica,sans-Serif" font-size="10.00" fill="#000000">_overloads.h</text>
</a>
</g>
</g>
<!-- Node17&#45;&gt;Node19 -->
<g id="edge24" class="edge">
<title>Node17&#45;&gt;Node19</title>
<path fill="none" stroke="#191970" d="M925.8334,-128.9005C942.3178,-119.2123 968.2707,-103.9593 989.2808,-91.6113"/>
<polygon fill="#191970" stroke="#191970" points="991.0927,-94.6062 997.9406,-86.5218 987.5459,-88.5713 991.0927,-94.6062"/>
</g>
<!-- Node20&#45;&gt;Node16 -->
<g id="edge27" class="edge">
<title>Node20&#45;&gt;Node16</title>
<path fill="none" stroke="#191970" d="M741.2917,-123.2967C752.9332,-112.7564 768.4248,-98.7303 780.3509,-87.9323"/>
<polygon fill="#191970" stroke="#191970" points="782.8829,-90.3613 787.9467,-81.055 778.1846,-85.1722 782.8829,-90.3613"/>
</g>
</g>
</svg>
        <g id="navigator" transform="translate(0 0)" fill="#404254">
                <rect fill="#f2f5e9" fill-opacity="0.5" stroke="#606060" stroke-width=".5" x="0" y="0" width="60" height="60"/>
                <use id="zoomplus" xlink:href="#zoomPlus" x="17" y="9" onmousedown="handleZoom(evt,'in')"/>
                <use id="zoomminus" xlink:href="#zoomMin" x="42" y="9" onmousedown="handleZoom(evt,'out')"/>
                <use id="reset" xlink:href="#resetDef" x="30" y="36" onmousedown="handleReset()"/>
                <g id="arrowUp" xlink:href="#dirArrow" transform="translate(30 24)" onmousedown="handlePan(0,-1)">
                  <use xlink:href="#rim" fill="#404040">
                        <set attributeName="fill" to="#808080" begin="arrowUp.mouseover" end="arrowUp.mouseout"/>
                  </use>
                  <path fill="none" stroke="white" stroke-width="1.5" d="M0,-3.0v7 M-2.5,-0.5L0,-3.0L2.5,-0.5"/>
                </g>
                <g id="arrowRight" xlink:href="#dirArrow" transform="rotate(90) translate(36 -43)" onmousedown="handlePan(1,0)">
                  <use xlink:href="#rim" fill="#404040">
                        <set attributeName="fill" to="#808080" begin="arrowRight.mouseover" end="arrowRight.mouseout"/>
                  </use>
                  <path fill="none" stroke="white" stroke-width="1.5" d="M0,-3.0v7 M-2.5,-0.5L0,-3.0L2.5,-0.5"/>
                </g>
                <g id="arrowDown" xlink:href="#dirArrow" transform="rotate(180) translate(-30 -48)" onmousedown="handlePan(0,1)">
                  <use xlink:href="#rim" fill="#404040">
                        <set attributeName="fill" to="#808080" begin="arrowDown.mouseover" end="arrowDown.mouseout"/>
                  </use>
                  <path fill="none" stroke="white" stroke-width="1.5" d="M0,-3.0v7 M-2.5,-0.5L0,-3.0L2.5,-0.5"/>
                </g>
                <g id="arrowLeft" xlink:href="#dirArrow" transform="rotate(270) translate(-36 17)" onmousedown="handlePan(-1,0)">
                  <use xlink:href="#rim" fill="#404040">
                        <set attributeName="fill" to="#808080" begin="arrowLeft.mouseover" end="arrowLeft.mouseout"/>
                  </use>
                  <path fill="none" stroke="white" stroke-width="1.5" d="M0,-3.0v7 M-2.5,-0.5L0,-3.0L2.5,-0.5"/>
                </g>
        </g>
        <svg viewBox="0 0 15 15" width="100%" height="30px" preserveAspectRatio="xMaxYMin meet">
         <g id="arrow_out" transform="scale(0.3 0.3)">
          <a xlink:href="saturate_8h__incl_org.svg" target="_base">
           <rect id="button" ry="5" rx="5" y="6" x="6" height="38" width="38"
                fill="#f2f5e9" fill-opacity="0.5" stroke="#606060" stroke-width="1.0"/>
           <path id="arrow"
             d="M 11.500037,31.436501 C 11.940474,20.09759 22.043105,11.32322 32.158766,21.979434 L 37.068811,17.246167 C 37.068811,17.246167 37.088388,32 37.088388,32 L 22.160133,31.978069 C 22.160133,31.978069 26.997745,27.140456 26.997745,27.140456 C 18.528582,18.264221 13.291696,25.230495 11.500037,31.436501 z"
             style="fill:#404040;"/>
          </a>
         </g>
        </svg>
</svg>
