<?xml version="1.0" encoding="UTF-8" standalone="no"?>
<!DOCTYPE svg PUBLIC "-//W3C//DTD SVG 1.1//EN"
 "http://www.w3.org/Graphics/SVG/1.1/DTD/svg11.dtd">
<!-- Generated by graphviz version 2.40.1 (20161225.0304)
 -->
<!-- Title: drake/common/scope_exit.h Pages: 1 -->
<svg width="458pt" height="229pt"
 viewBox="0.00 0.00 458.00 229.00" xmlns="http://www.w3.org/2000/svg" xmlns:xlink="http://www.w3.org/1999/xlink">
<g id="graph0" class="graph" transform="scale(1 1) rotate(0) translate(4 225)">
<title>drake/common/scope_exit.h</title>
<polygon fill="#ffffff" stroke="transparent" points="-4,4 -4,-225 454,-225 454,4 -4,4"/>
<!-- Node0 -->
<g id="node1" class="node">
<title>Node0</title>
<g id="a_node1"><a xlink:title=" ">
<polygon fill="#bfbfbf" stroke="#000000" points="94.5,-190.5 94.5,-220.5 216.5,-220.5 216.5,-190.5 94.5,-190.5"/>
<text text-anchor="start" x="102.5" y="-208.5" font-family="Helvetica,sans-Serif" font-size="10.00" fill="#000000">drake/common/scope</text>
<text text-anchor="middle" x="155.5" y="-197.5" font-family="Helvetica,sans-Serif" font-size="10.00" fill="#000000">_exit.h</text>
</a>
</g>
</g>
<!-- Node1 -->
<g id="node2" class="node">
<title>Node1</title>
<g id="a_node2"><a xlink:title=" ">
<polygon fill="#ffffff" stroke="#bfbfbf" points="0,-129 0,-148 65,-148 65,-129 0,-129"/>
<text text-anchor="middle" x="32.5" y="-136" font-family="Helvetica,sans-Serif" font-size="10.00" fill="#000000">functional</text>
</a>
</g>
</g>
<!-- Node0&#45;&gt;Node1 -->
<g id="edge1" class="edge">
<title>Node0&#45;&gt;Node1</title>
<path fill="none" stroke="#191970" d="M127.8964,-190.4639C107.3515,-179.2728 79.4673,-164.0838 59.1535,-153.0186"/>
<polygon fill="#191970" stroke="#191970" points="60.587,-149.8139 50.1311,-148.1039 57.2385,-155.9611 60.587,-149.8139"/>
</g>
<!-- Node2 -->
<g id="node3" class="node">
<title>Node2</title>
<g id="a_node3"><a xlink:title=" ">
<polygon fill="#ffffff" stroke="#bfbfbf" points="83,-129 83,-148 128,-148 128,-129 83,-129"/>
<text text-anchor="middle" x="105.5" y="-136" font-family="Helvetica,sans-Serif" font-size="10.00" fill="#000000">utility</text>
</a>
</g>
</g>
<!-- Node0&#45;&gt;Node2 -->
<g id="edge2" class="edge">
<title>Node0&#45;&gt;Node2</title>
<path fill="none" stroke="#191970" d="M144.1542,-190.2967C136.5909,-180.1618 126.6224,-166.804 118.7031,-156.1921"/>
<polygon fill="#191970" stroke="#191970" points="121.4165,-153.976 112.6306,-148.055 115.8064,-158.1626 121.4165,-153.976"/>
</g>
<!-- Node3 -->
<g id="node4" class="node">
<title>Node3</title>
<g id="a_node4"><a xlink:href="drake__copyable_8h.html" target="_top" xlink:title="Provides careful macros to selectively enable or disable the special member functions for copy&#45;constr...">
<polygon fill="#ffffff" stroke="#000000" points="146,-123.5 146,-153.5 267,-153.5 267,-123.5 146,-123.5"/>
<text text-anchor="start" x="154" y="-141.5" font-family="Helvetica,sans-Serif" font-size="10.00" fill="#000000">drake/common/drake</text>
<text text-anchor="middle" x="206.5" y="-130.5" font-family="Helvetica,sans-Serif" font-size="10.00" fill="#000000">_copyable.h</text>
</a>
</g>
</g>
<!-- Node0&#45;&gt;Node3 -->
<g id="edge3" class="edge">
<title>Node0&#45;&gt;Node3</title>
<path fill="none" stroke="#191970" d="M167.0727,-190.2967C173.4629,-181.9016 181.5365,-171.2952 188.711,-161.8698"/>
<polygon fill="#191970" stroke="#191970" points="191.7012,-163.7201 194.9731,-153.6432 186.1312,-159.4803 191.7012,-163.7201"/>
</g>
<!-- Node4 -->
<g id="node5" class="node">
<title>Node4</title>
<g id="a_node5"><a xlink:href="drake__throw_8h.html" target="_top" xlink:title="Provides a convenient wrapper to throw an exception when a condition is unmet.">
<polygon fill="#ffffff" stroke="#000000" points="285,-123.5 285,-153.5 406,-153.5 406,-123.5 285,-123.5"/>
<text text-anchor="start" x="293" y="-141.5" font-family="Helvetica,sans-Serif" font-size="10.00" fill="#000000">drake/common/drake</text>
<text text-anchor="middle" x="345.5" y="-130.5" font-family="Helvetica,sans-Serif" font-size="10.00" fill="#000000">_throw.h</text>
</a>
</g>
</g>
<!-- Node0&#45;&gt;Node4 -->
<g id="edge4" class="edge">
<title>Node0&#45;&gt;Node4</title>
<path fill="none" stroke="#191970" d="M198.1397,-190.4639C226.2767,-180.5419 263.3253,-167.4774 293.2347,-156.9304"/>
<polygon fill="#191970" stroke="#191970" points="294.4075,-160.2281 302.6743,-153.6017 292.0795,-153.6266 294.4075,-160.2281"/>
</g>
<!-- Node5 -->
<g id="node6" class="node">
<title>Node5</title>
<g id="a_node6"><a xlink:title=" ">
<polygon fill="#ffffff" stroke="#bfbfbf" points="310,-.5 310,-19.5 379,-19.5 379,-.5 310,-.5"/>
<text text-anchor="middle" x="344.5" y="-7.5" font-family="Helvetica,sans-Serif" font-size="10.00" fill="#000000">type_traits</text>
</a>
</g>
</g>
<!-- Node4&#45;&gt;Node5 -->
<g id="edge5" class="edge">
<title>Node4&#45;&gt;Node5</title>
<path fill="none" stroke="#191970" d="M335.5316,-123.4548C329.5868,-113.5545 322.6089,-100.0561 319.5,-87 316.3085,-73.597 316.1059,-69.3532 319.5,-56 321.9785,-46.2493 326.9873,-36.3309 331.8751,-28.2128"/>
<polygon fill="#191970" stroke="#191970" points="334.9313,-29.9312 337.3985,-19.6276 329.0444,-26.1437 334.9313,-29.9312"/>
</g>
<!-- Node6 -->
<g id="node7" class="node">
<title>Node6</title>
<g id="a_node7"><a xlink:href="drake__assert_8h.html" target="_top" xlink:title="Provides Drake&#39;s assertion implementation.">
<polygon fill="#ffffff" stroke="#000000" points="329,-56.5 329,-86.5 450,-86.5 450,-56.5 329,-56.5"/>
<text text-anchor="start" x="337" y="-74.5" font-family="Helvetica,sans-Serif" font-size="10.00" fill="#000000">drake/common/drake</text>
<text text-anchor="middle" x="389.5" y="-63.5" font-family="Helvetica,sans-Serif" font-size="10.00" fill="#000000">_assert.h</text>
</a>
</g>
</g>
<!-- Node4&#45;&gt;Node6 -->
<g id="edge6" class="edge">
<title>Node4&#45;&gt;Node6</title>
<path fill="none" stroke="#191970" d="M355.4843,-123.2967C360.9412,-114.9873 367.8208,-104.5115 373.9629,-95.1587"/>
<polygon fill="#191970" stroke="#191970" points="376.9914,-96.9231 379.5552,-86.6432 371.1404,-93.0806 376.9914,-96.9231"/>
</g>
<!-- Node6&#45;&gt;Node5 -->
<g id="edge7" class="edge">
<title>Node6&#45;&gt;Node5</title>
<path fill="none" stroke="#191970" d="M378.3764,-56.2977C372.1299,-47.7609 364.296,-37.0545 357.7353,-28.0883"/>
<polygon fill="#191970" stroke="#191970" points="360.4348,-25.8505 351.7051,-19.8469 354.7856,-29.984 360.4348,-25.8505"/>
</g>
</g>
</svg>
