<?xml version="1.0" encoding="UTF-8" standalone="no"?>
<!DOCTYPE svg PUBLIC "-//W3C//DTD SVG 1.1//EN"
 "http://www.w3.org/Graphics/SVG/1.1/DTD/svg11.dtd">
<!-- Generated by graphviz version 2.40.1 (20161225.0304)
 -->
<!-- Title: drake/solvers/sdpa_free_format.h Pages: 1 -->
<svg width="158pt" height="173pt"
 viewBox="0.00 0.00 157.50 173.00" xmlns="http://www.w3.org/2000/svg" xmlns:xlink="http://www.w3.org/1999/xlink">
<g id="graph0" class="graph" transform="scale(1 1) rotate(0) translate(4 169)">
<title>drake/solvers/sdpa_free_format.h</title>
<polygon fill="#ffffff" stroke="transparent" points="-4,4 -4,-169 153.5,-169 153.5,4 -4,4"/>
<!-- Node93 -->
<g id="node1" class="node">
<title>Node93</title>
<g id="a_node1"><a xlink:title=" ">
<polygon fill="#bfbfbf" stroke="#000000" points="40.5,-134.5 40.5,-164.5 149.5,-164.5 149.5,-134.5 40.5,-134.5"/>
<text text-anchor="start" x="48.5" y="-152.5" font-family="Helvetica,sans-Serif" font-size="10.00" fill="#000000">drake/solvers/sdpa</text>
<text text-anchor="middle" x="95" y="-141.5" font-family="Helvetica,sans-Serif" font-size="10.00" fill="#000000">_free_format.h</text>
</a>
</g>
</g>
<!-- Node94 -->
<g id="node2" class="node">
<title>Node94</title>
<g id="a_node2"><a xlink:href="csdp__solver_8h.html" target="_top" xlink:title=" ">
<polygon fill="#ffffff" stroke="#000000" points="0,-67.5 0,-97.5 108,-97.5 108,-67.5 0,-67.5"/>
<text text-anchor="start" x="8" y="-85.5" font-family="Helvetica,sans-Serif" font-size="10.00" fill="#000000">drake/solvers/csdp</text>
<text text-anchor="middle" x="54" y="-74.5" font-family="Helvetica,sans-Serif" font-size="10.00" fill="#000000">_solver.h</text>
</a>
</g>
</g>
<!-- Node93&#45;&gt;Node94 -->
<g id="edge1" class="edge">
<title>Node93&#45;&gt;Node94</title>
<path fill="none" stroke="#191970" d="M80.3035,-125.4837C74.6222,-116.1996 68.2928,-105.8565 63.2667,-97.6432"/>
<polygon fill="#191970" stroke="#191970" points="77.4914,-127.5939 85.6965,-134.2967 83.4622,-123.9401 77.4914,-127.5939"/>
</g>
<!-- Node95 -->
<g id="node3" class="node">
<title>Node95</title>
<g id="a_node3"><a xlink:href="csdp__solver__internal_8h.html" target="_top" xlink:title=" ">
<polygon fill="#ffffff" stroke="#000000" points="41,-.5 41,-30.5 149,-30.5 149,-.5 41,-.5"/>
<text text-anchor="start" x="49" y="-18.5" font-family="Helvetica,sans-Serif" font-size="10.00" fill="#000000">drake/solvers/csdp</text>
<text text-anchor="middle" x="95" y="-7.5" font-family="Helvetica,sans-Serif" font-size="10.00" fill="#000000">_solver_internal.h</text>
</a>
</g>
</g>
<!-- Node93&#45;&gt;Node95 -->
<g id="edge3" class="edge">
<title>Node93&#45;&gt;Node95</title>
<path fill="none" stroke="#191970" d="M107.8098,-125.0922C111.5439,-116.7345 115.1226,-107.174 117,-98 119.7623,-84.502 119.7623,-80.498 117,-67 114.3879,-54.2362 108.4827,-40.7242 103.4474,-30.7444"/>
<polygon fill="#191970" stroke="#191970" points="104.5857,-123.7221 103.4474,-134.2556 110.906,-126.731 104.5857,-123.7221"/>
</g>
<!-- Node94&#45;&gt;Node95 -->
<g id="edge2" class="edge">
<title>Node94&#45;&gt;Node95</title>
<path fill="none" stroke="#191970" d="M68.6965,-58.4837C74.3778,-49.1996 80.7072,-38.8565 85.7333,-30.6432"/>
<polygon fill="#191970" stroke="#191970" points="65.5378,-56.9401 63.3035,-67.2967 71.5086,-60.5939 65.5378,-56.9401"/>
</g>
</g>
</svg>
