<?xml version="1.0" encoding="UTF-8" standalone="no"?>
<!DOCTYPE svg PUBLIC "-//W3C//DTD SVG 1.1//EN"
 "http://www.w3.org/Graphics/SVG/1.1/DTD/svg11.dtd">
<!-- Generated by graphviz version 2.40.1 (20161225.0304)
 -->
<!-- Title: drake/systems/lcm/serializer.h Pages: 1 -->
<svg width="827pt" height="240pt"
 viewBox="0.00 0.00 826.50 240.00" xmlns="http://www.w3.org/2000/svg" xmlns:xlink="http://www.w3.org/1999/xlink">
<g id="graph0" class="graph" transform="scale(1 1) rotate(0) translate(4 236)">
<title>drake/systems/lcm/serializer.h</title>
<polygon fill="#ffffff" stroke="transparent" points="-4,4 -4,-236 822.5,-236 822.5,4 -4,4"/>
<!-- Node26 -->
<g id="node1" class="node">
<title>Node26</title>
<g id="a_node1"><a xlink:title=" ">
<polygon fill="#bfbfbf" stroke="#000000" points="232,-212.5 232,-231.5 399,-231.5 399,-212.5 232,-212.5"/>
<text text-anchor="middle" x="315.5" y="-219.5" font-family="Helvetica,sans-Serif" font-size="10.00" fill="#000000">drake/systems/lcm/serializer.h</text>
</a>
</g>
</g>
<!-- Node27 -->
<g id="node2" class="node">
<title>Node27</title>
<g id="a_node2"><a xlink:href="lcm__pybind_8h.html" target="_top" xlink:title="Helpers for defining C++ LCM type serializers.">
<polygon fill="#ffffff" stroke="#000000" points="101,-145.5 101,-175.5 232,-175.5 232,-145.5 101,-145.5"/>
<text text-anchor="start" x="109" y="-163.5" font-family="Helvetica,sans-Serif" font-size="10.00" fill="#000000">drake/bindings/pydrake</text>
<text text-anchor="middle" x="166.5" y="-152.5" font-family="Helvetica,sans-Serif" font-size="10.00" fill="#000000">/systems/lcm_pybind.h</text>
</a>
</g>
</g>
<!-- Node26&#45;&gt;Node27 -->
<g id="edge1" class="edge">
<title>Node26&#45;&gt;Node27</title>
<path fill="none" stroke="#191970" d="M282.663,-208.4465C259.088,-198.7159 227.3092,-185.5991 202.9495,-175.5446"/>
<polygon fill="#191970" stroke="#191970" points="281.6398,-211.8105 292.2188,-212.3906 284.3106,-205.34 281.6398,-211.8105"/>
</g>
<!-- Node28 -->
<g id="node3" class="node">
<title>Node28</title>
<g id="a_node3"><a xlink:href="lcm__publisher__system_8h.html" target="_top" xlink:title=" ">
<polygon fill="#ffffff" stroke="#000000" points="250,-145.5 250,-175.5 381,-175.5 381,-145.5 250,-145.5"/>
<text text-anchor="start" x="258" y="-163.5" font-family="Helvetica,sans-Serif" font-size="10.00" fill="#000000">drake/systems/lcm/lcm</text>
<text text-anchor="middle" x="315.5" y="-152.5" font-family="Helvetica,sans-Serif" font-size="10.00" fill="#000000">_publisher_system.h</text>
</a>
</g>
</g>
<!-- Node26&#45;&gt;Node28 -->
<g id="edge2" class="edge">
<title>Node26&#45;&gt;Node28</title>
<path fill="none" stroke="#191970" d="M315.5,-202.3693C315.5,-193.681 315.5,-183.6241 315.5,-175.5446"/>
<polygon fill="#191970" stroke="#191970" points="312.0001,-202.3906 315.5,-212.3906 319.0001,-202.3907 312.0001,-202.3906"/>
</g>
<!-- Node32 -->
<g id="node7" class="node">
<title>Node32</title>
<g id="a_node7"><a xlink:href="lcm__subscriber__system_8h.html" target="_top" xlink:title=" ">
<polygon fill="#ffffff" stroke="#000000" points="507,-145.5 507,-175.5 638,-175.5 638,-145.5 507,-145.5"/>
<text text-anchor="start" x="515" y="-163.5" font-family="Helvetica,sans-Serif" font-size="10.00" fill="#000000">drake/systems/lcm/lcm</text>
<text text-anchor="middle" x="572.5" y="-152.5" font-family="Helvetica,sans-Serif" font-size="10.00" fill="#000000">_subscriber_system.h</text>
</a>
</g>
</g>
<!-- Node26&#45;&gt;Node32 -->
<g id="edge6" class="edge">
<title>Node26&#45;&gt;Node32</title>
<path fill="none" stroke="#191970" d="M365.176,-210.1125C406.3229,-200.2661 465.0402,-186.2151 509.4894,-175.5784"/>
<polygon fill="#191970" stroke="#191970" points="364.2851,-206.7268 355.3743,-212.4581 365.9143,-213.5346 364.2851,-206.7268"/>
</g>
<!-- Node29 -->
<g id="node4" class="node">
<title>Node29</title>
<g id="a_node4"><a xlink:href="geometry__visualization_8h.html" target="_top" xlink:title="Provides a set of functions to facilitate visualization operations based on SceneGraph system state.">
<polygon fill="#ffffff" stroke="#000000" points="0,-73 0,-103 145,-103 145,-73 0,-73"/>
<text text-anchor="start" x="8" y="-91" font-family="Helvetica,sans-Serif" font-size="10.00" fill="#000000">drake/geometry/geometry</text>
<text text-anchor="middle" x="72.5" y="-80" font-family="Helvetica,sans-Serif" font-size="10.00" fill="#000000">_visualization.h</text>
</a>
</g>
</g>
<!-- Node28&#45;&gt;Node29 -->
<g id="edge3" class="edge">
<title>Node28&#45;&gt;Node29</title>
<path fill="none" stroke="#191970" d="M255.3347,-142.5495C214.5615,-130.3846 161.2969,-114.4929 122.7853,-103.0028"/>
<polygon fill="#191970" stroke="#191970" points="254.567,-145.9728 265.1502,-145.478 256.5683,-139.265 254.567,-145.9728"/>
</g>
<!-- Node30 -->
<g id="node5" class="node">
<title>Node30</title>
<g id="a_node5"><a xlink:href="contact__results__to__lcm_8h.html" target="_top" xlink:title=" ">
<polygon fill="#ffffff" stroke="#000000" points="163,-73 163,-103 304,-103 304,-73 163,-73"/>
<text text-anchor="start" x="171" y="-91" font-family="Helvetica,sans-Serif" font-size="10.00" fill="#000000">drake/multibody/plant</text>
<text text-anchor="middle" x="233.5" y="-80" font-family="Helvetica,sans-Serif" font-size="10.00" fill="#000000">/contact_results_to_lcm.h</text>
</a>
</g>
</g>
<!-- Node28&#45;&gt;Node30 -->
<g id="edge4" class="edge">
<title>Node28&#45;&gt;Node30</title>
<path fill="none" stroke="#191970" d="M290.7958,-138.6579C277.7679,-127.1393 262.1181,-113.3026 250.4687,-103.0028"/>
<polygon fill="#191970" stroke="#191970" points="288.6995,-141.4763 298.5095,-145.478 293.3361,-136.232 288.6995,-141.4763"/>
</g>
<!-- Node31 -->
<g id="node6" class="node">
<title>Node31</title>
<g id="a_node6"><a xlink:href="connect__lcm__scope_8h.html" target="_top" xlink:title=" ">
<polygon fill="#ffffff" stroke="#000000" points="322,-73 322,-103 473,-103 473,-73 322,-73"/>
<text text-anchor="start" x="330" y="-91" font-family="Helvetica,sans-Serif" font-size="10.00" fill="#000000">drake/systems/lcm/connect</text>
<text text-anchor="middle" x="397.5" y="-80" font-family="Helvetica,sans-Serif" font-size="10.00" fill="#000000">_lcm_scope.h</text>
</a>
</g>
</g>
<!-- Node28&#45;&gt;Node31 -->
<g id="edge5" class="edge">
<title>Node28&#45;&gt;Node31</title>
<path fill="none" stroke="#191970" d="M340.2042,-138.6579C353.2321,-127.1393 368.8819,-113.3026 380.5313,-103.0028"/>
<polygon fill="#191970" stroke="#191970" points="337.6639,-136.232 332.4905,-145.478 342.3005,-141.4763 337.6639,-136.232"/>
</g>
<!-- Node33 -->
<g id="node8" class="node">
<title>Node33</title>
<g id="a_node8"><a xlink:href="manipulation__station__hardware__interface_8h.html" target="_top" xlink:title=" ">
<polygon fill="#ffffff" stroke="#000000" points="491,-67.5 491,-108.5 654,-108.5 654,-67.5 491,-67.5"/>
<text text-anchor="start" x="499" y="-96.5" font-family="Helvetica,sans-Serif" font-size="10.00" fill="#000000">drake/examples/manipulation</text>
<text text-anchor="start" x="499" y="-85.5" font-family="Helvetica,sans-Serif" font-size="10.00" fill="#000000">_station/manipulation_station</text>
<text text-anchor="middle" x="572.5" y="-74.5" font-family="Helvetica,sans-Serif" font-size="10.00" fill="#000000">_hardware_interface.h</text>
</a>
</g>
</g>
<!-- Node32&#45;&gt;Node33 -->
<g id="edge7" class="edge">
<title>Node32&#45;&gt;Node33</title>
<path fill="none" stroke="#191970" d="M572.5,-135.4016C572.5,-126.6173 572.5,-116.8652 572.5,-108.5015"/>
<polygon fill="#191970" stroke="#191970" points="569.0001,-135.4779 572.5,-145.478 576.0001,-135.478 569.0001,-135.4779"/>
</g>
<!-- Node34 -->
<g id="node9" class="node">
<title>Node34</title>
<g id="a_node9"><a xlink:href="iiwa__command__receiver_8h.html" target="_top" xlink:title=" ">
<polygon fill="#ffffff" stroke="#000000" points="672.5,-67.5 672.5,-108.5 818.5,-108.5 818.5,-67.5 672.5,-67.5"/>
<text text-anchor="start" x="680.5" y="-96.5" font-family="Helvetica,sans-Serif" font-size="10.00" fill="#000000">drake/manipulation</text>
<text text-anchor="start" x="680.5" y="-85.5" font-family="Helvetica,sans-Serif" font-size="10.00" fill="#000000">/kuka_iiwa/iiwa_command</text>
<text text-anchor="middle" x="745.5" y="-74.5" font-family="Helvetica,sans-Serif" font-size="10.00" fill="#000000">_receiver.h</text>
</a>
</g>
</g>
<!-- Node32&#45;&gt;Node34 -->
<g id="edge8" class="edge">
<title>Node32&#45;&gt;Node34</title>
<path fill="none" stroke="#191970" d="M617.672,-141.5695C641.9057,-131.4138 671.7967,-118.8872 696.5792,-108.5015"/>
<polygon fill="#191970" stroke="#191970" points="616.2158,-138.3848 608.3457,-145.478 618.9214,-144.8408 616.2158,-138.3848"/>
</g>
<!-- Node35 -->
<g id="node10" class="node">
<title>Node35</title>
<g id="a_node10"><a xlink:href="iiwa__lcm_8h.html" target="_top" xlink:title=" ">
<polygon fill="#ffffff" stroke="#000000" points="684.5,-.5 684.5,-30.5 806.5,-30.5 806.5,-.5 684.5,-.5"/>
<text text-anchor="start" x="692.5" y="-18.5" font-family="Helvetica,sans-Serif" font-size="10.00" fill="#000000">drake/examples/kuka</text>
<text text-anchor="middle" x="745.5" y="-7.5" font-family="Helvetica,sans-Serif" font-size="10.00" fill="#000000">_iiwa_arm/iiwa_lcm.h</text>
</a>
</g>
</g>
<!-- Node34&#45;&gt;Node35 -->
<g id="edge9" class="edge">
<title>Node34&#45;&gt;Node35</title>
<path fill="none" stroke="#191970" d="M745.5,-57.3279C745.5,-48.0871 745.5,-38.3508 745.5,-30.5991"/>
<polygon fill="#191970" stroke="#191970" points="742.0001,-57.4183 745.5,-67.4183 749.0001,-57.4184 742.0001,-57.4183"/>
</g>
</g>
</svg>
