<?xml version="1.0" encoding="UTF-8" standalone="no"?>
<!DOCTYPE svg PUBLIC "-//W3C//DTD SVG 1.1//EN"
 "http://www.w3.org/Graphics/SVG/1.1/DTD/svg11.dtd">
<!-- Generated by graphviz version 2.40.1 (20161225.0304)
 -->
<!-- Title: drake/geometry/render/gl_renderer/shader_program.h Pages: 1 -->
<svg width="376pt" height="162pt"
 viewBox="0.00 0.00 376.00 162.00" xmlns="http://www.w3.org/2000/svg" xmlns:xlink="http://www.w3.org/1999/xlink">
<g id="graph0" class="graph" transform="scale(1 1) rotate(0) translate(4 158)">
<title>drake/geometry/render/gl_renderer/shader_program.h</title>
<polygon fill="#ffffff" stroke="transparent" points="-4,4 -4,-158 372,-158 372,4 -4,4"/>
<!-- Node0 -->
<g id="node1" class="node">
<title>Node0</title>
<g id="a_node1"><a xlink:title=" ">
<polygon fill="#bfbfbf" stroke="#000000" points="39.5,-123.5 39.5,-153.5 206.5,-153.5 206.5,-123.5 39.5,-123.5"/>
<text text-anchor="start" x="47.5" y="-141.5" font-family="Helvetica,sans-Serif" font-size="10.00" fill="#000000">drake/geometry/render</text>
<text text-anchor="middle" x="123" y="-130.5" font-family="Helvetica,sans-Serif" font-size="10.00" fill="#000000">/gl_renderer/shader_program.h</text>
</a>
</g>
</g>
<!-- Node1 -->
<g id="node2" class="node">
<title>Node1</title>
<g id="a_node2"><a xlink:title=" ">
<polygon fill="#ffffff" stroke="#bfbfbf" points="0,-62 0,-81 44,-81 44,-62 0,-62"/>
<text text-anchor="middle" x="22" y="-69" font-family="Helvetica,sans-Serif" font-size="10.00" fill="#000000">string</text>
</a>
</g>
</g>
<!-- Node0&#45;&gt;Node1 -->
<g id="edge1" class="edge">
<title>Node0&#45;&gt;Node1</title>
<path fill="none" stroke="#191970" d="M100.3336,-123.4639C83.8451,-112.526 61.5996,-97.769 45.0278,-86.7759"/>
<polygon fill="#191970" stroke="#191970" points="46.7455,-83.7153 36.4776,-81.1039 42.8759,-89.5485 46.7455,-83.7153"/>
</g>
<!-- Node2 -->
<g id="node3" class="node">
<title>Node2</title>
<g id="a_node3"><a xlink:href="drake__copyable_8h.html" target="_top" xlink:title="Provides careful macros to selectively enable or disable the special member functions for copy&#45;constr...">
<polygon fill="#ffffff" stroke="#000000" points="62.5,-56.5 62.5,-86.5 183.5,-86.5 183.5,-56.5 62.5,-56.5"/>
<text text-anchor="start" x="70.5" y="-74.5" font-family="Helvetica,sans-Serif" font-size="10.00" fill="#000000">drake/common/drake</text>
<text text-anchor="middle" x="123" y="-63.5" font-family="Helvetica,sans-Serif" font-size="10.00" fill="#000000">_copyable.h</text>
</a>
</g>
</g>
<!-- Node0&#45;&gt;Node2 -->
<g id="edge2" class="edge">
<title>Node0&#45;&gt;Node2</title>
<path fill="none" stroke="#191970" d="M123,-123.2967C123,-115.5013 123,-105.7991 123,-96.9064"/>
<polygon fill="#191970" stroke="#191970" points="126.5001,-96.6431 123,-86.6432 119.5001,-96.6432 126.5001,-96.6431"/>
</g>
<!-- Node3 -->
<g id="node4" class="node">
<title>Node3</title>
<g id="a_node4"><a xlink:href="opengl__includes_8h.html" target="_top" xlink:title="Provides a one&#45;stop shop for pulling in the OpenGl symbols with the required extensions.">
<polygon fill="#ffffff" stroke="#000000" points="202,-56.5 202,-86.5 368,-86.5 368,-56.5 202,-56.5"/>
<text text-anchor="start" x="210" y="-74.5" font-family="Helvetica,sans-Serif" font-size="10.00" fill="#000000">drake/geometry/render</text>
<text text-anchor="middle" x="285" y="-63.5" font-family="Helvetica,sans-Serif" font-size="10.00" fill="#000000">/gl_renderer/opengl_includes.h</text>
</a>
</g>
</g>
<!-- Node0&#45;&gt;Node3 -->
<g id="edge3" class="edge">
<title>Node0&#45;&gt;Node3</title>
<path fill="none" stroke="#191970" d="M159.356,-123.4639C182.931,-113.7137 213.8435,-100.9289 239.1068,-90.4805"/>
<polygon fill="#191970" stroke="#191970" points="240.5823,-93.6579 248.4855,-86.6017 237.9069,-87.1893 240.5823,-93.6579"/>
</g>
<!-- Node4 -->
<g id="node5" class="node">
<title>Node4</title>
<g id="a_node5"><a xlink:title=" ">
<polygon fill="#ffffff" stroke="#bfbfbf" points="222,-.5 222,-19.5 272,-19.5 272,-.5 222,-.5"/>
<text text-anchor="middle" x="247" y="-7.5" font-family="Helvetica,sans-Serif" font-size="10.00" fill="#000000">GL/gl.h</text>
</a>
</g>
</g>
<!-- Node3&#45;&gt;Node4 -->
<g id="edge4" class="edge">
<title>Node3&#45;&gt;Node4</title>
<path fill="none" stroke="#191970" d="M275.6067,-56.2977C270.3869,-47.8498 263.8543,-37.2773 258.35,-28.369"/>
<polygon fill="#191970" stroke="#191970" points="261.3182,-26.5143 253.0843,-19.8469 255.3632,-30.1938 261.3182,-26.5143"/>
</g>
<!-- Node5 -->
<g id="node6" class="node">
<title>Node5</title>
<g id="a_node6"><a xlink:title=" ">
<polygon fill="#ffffff" stroke="#bfbfbf" points="290,-.5 290,-19.5 356,-19.5 356,-.5 290,-.5"/>
<text text-anchor="middle" x="323" y="-7.5" font-family="Helvetica,sans-Serif" font-size="10.00" fill="#000000">GL/glext.h</text>
</a>
</g>
</g>
<!-- Node3&#45;&gt;Node5 -->
<g id="edge5" class="edge">
<title>Node3&#45;&gt;Node5</title>
<path fill="none" stroke="#191970" d="M294.3933,-56.2977C299.6131,-47.8498 306.1457,-37.2773 311.65,-28.369"/>
<polygon fill="#191970" stroke="#191970" points="314.6368,-30.1938 316.9157,-19.8469 308.6818,-26.5143 314.6368,-30.1938"/>
</g>
</g>
</svg>
