<?xml version="1.0" encoding="UTF-8" standalone="no"?>
<!DOCTYPE svg PUBLIC "-//W3C//DTD SVG 1.1//EN"
 "http://www.w3.org/Graphics/SVG/1.1/DTD/svg11.dtd">
<!-- Generated by graphviz version 2.40.1 (20161225.0304)
 -->
<!-- Title: drake/geometry/render/gl_renderer/shape_meshes.h Pages: 1 -->
<svg width="467pt" height="162pt"
 viewBox="0.00 0.00 467.00 162.00" xmlns="http://www.w3.org/2000/svg" xmlns:xlink="http://www.w3.org/1999/xlink">
<g id="graph0" class="graph" transform="scale(1 1) rotate(0) translate(4 158)">
<title>drake/geometry/render/gl_renderer/shape_meshes.h</title>
<polygon fill="#ffffff" stroke="transparent" points="-4,4 -4,-158 463,-158 463,4 -4,4"/>
<!-- Node0 -->
<g id="node1" class="node">
<title>Node0</title>
<g id="a_node1"><a xlink:title=" ">
<polygon fill="#bfbfbf" stroke="#000000" points="77,-123.5 77,-153.5 237,-153.5 237,-123.5 77,-123.5"/>
<text text-anchor="start" x="85" y="-141.5" font-family="Helvetica,sans-Serif" font-size="10.00" fill="#000000">drake/geometry/render</text>
<text text-anchor="middle" x="157" y="-130.5" font-family="Helvetica,sans-Serif" font-size="10.00" fill="#000000">/gl_renderer/shape_meshes.h</text>
</a>
</g>
</g>
<!-- Node1 -->
<g id="node2" class="node">
<title>Node1</title>
<g id="a_node2"><a xlink:title=" ">
<polygon fill="#ffffff" stroke="#bfbfbf" points="0,-62 0,-81 54,-81 54,-62 0,-62"/>
<text text-anchor="middle" x="27" y="-69" font-family="Helvetica,sans-Serif" font-size="10.00" fill="#000000">istream</text>
</a>
</g>
</g>
<!-- Node0&#45;&gt;Node1 -->
<g id="edge1" class="edge">
<title>Node0&#45;&gt;Node1</title>
<path fill="none" stroke="#191970" d="M127.8255,-123.4639C105.9149,-112.1715 76.1062,-96.8086 54.5895,-85.7192"/>
<polygon fill="#191970" stroke="#191970" points="56.1268,-82.5741 45.6345,-81.1039 52.9199,-88.7963 56.1268,-82.5741"/>
</g>
<!-- Node2 -->
<g id="node3" class="node">
<title>Node2</title>
<g id="a_node3"><a xlink:title=" ">
<polygon fill="#ffffff" stroke="#bfbfbf" points="72,-62 72,-81 116,-81 116,-62 72,-62"/>
<text text-anchor="middle" x="94" y="-69" font-family="Helvetica,sans-Serif" font-size="10.00" fill="#000000">string</text>
</a>
</g>
</g>
<!-- Node0&#45;&gt;Node2 -->
<g id="edge2" class="edge">
<title>Node0&#45;&gt;Node2</title>
<path fill="none" stroke="#191970" d="M142.7043,-123.2967C132.9839,-112.9591 120.1106,-99.2684 110.0403,-88.5588"/>
<polygon fill="#191970" stroke="#191970" points="112.3846,-85.9426 102.9845,-81.055 107.285,-90.7378 112.3846,-85.9426"/>
</g>
<!-- Node3 -->
<g id="node4" class="node">
<title>Node3</title>
<g id="a_node4"><a xlink:title=" ">
<polygon fill="#ffffff" stroke="#bfbfbf" points="134.5,-62 134.5,-81 179.5,-81 179.5,-62 134.5,-62"/>
<text text-anchor="middle" x="157" y="-69" font-family="Helvetica,sans-Serif" font-size="10.00" fill="#000000">utility</text>
</a>
</g>
</g>
<!-- Node0&#45;&gt;Node3 -->
<g id="edge3" class="edge">
<title>Node0&#45;&gt;Node3</title>
<path fill="none" stroke="#191970" d="M157,-123.2967C157,-113.7699 157,-101.3954 157,-91.1306"/>
<polygon fill="#191970" stroke="#191970" points="160.5001,-91.0549 157,-81.055 153.5001,-91.055 160.5001,-91.0549"/>
</g>
<!-- Node4 -->
<g id="node5" class="node">
<title>Node4</title>
<g id="a_node5"><a xlink:title=" ">
<polygon fill="#ffffff" stroke="#bfbfbf" points="197.5,-62 197.5,-81 274.5,-81 274.5,-62 197.5,-62"/>
<text text-anchor="middle" x="236" y="-69" font-family="Helvetica,sans-Serif" font-size="10.00" fill="#000000">Eigen/Dense</text>
</a>
</g>
</g>
<!-- Node0&#45;&gt;Node4 -->
<g id="edge4" class="edge">
<title>Node0&#45;&gt;Node4</title>
<path fill="none" stroke="#191970" d="M174.9263,-123.2967C187.4739,-112.6551 204.2111,-98.4602 216.9909,-87.6217"/>
<polygon fill="#191970" stroke="#191970" points="219.371,-90.1924 224.7337,-81.055 214.8433,-84.8538 219.371,-90.1924"/>
</g>
<!-- Node5 -->
<g id="node6" class="node">
<title>Node5</title>
<g id="a_node6"><a xlink:href="opengl__includes_8h.html" target="_top" xlink:title="Provides a one&#45;stop shop for pulling in the OpenGl symbols with the required extensions.">
<polygon fill="#ffffff" stroke="#000000" points="293,-56.5 293,-86.5 459,-86.5 459,-56.5 293,-56.5"/>
<text text-anchor="start" x="301" y="-74.5" font-family="Helvetica,sans-Serif" font-size="10.00" fill="#000000">drake/geometry/render</text>
<text text-anchor="middle" x="376" y="-63.5" font-family="Helvetica,sans-Serif" font-size="10.00" fill="#000000">/gl_renderer/opengl_includes.h</text>
</a>
</g>
</g>
<!-- Node0&#45;&gt;Node5 -->
<g id="edge5" class="edge">
<title>Node0&#45;&gt;Node5</title>
<path fill="none" stroke="#191970" d="M206.1479,-123.4639C238.8602,-113.456 282.023,-100.2509 316.6509,-89.657"/>
<polygon fill="#191970" stroke="#191970" points="318.0992,-92.8741 326.6378,-86.6017 316.0513,-86.1804 318.0992,-92.8741"/>
</g>
<!-- Node6 -->
<g id="node7" class="node">
<title>Node6</title>
<g id="a_node7"><a xlink:title=" ">
<polygon fill="#ffffff" stroke="#bfbfbf" points="313,-.5 313,-19.5 363,-19.5 363,-.5 313,-.5"/>
<text text-anchor="middle" x="338" y="-7.5" font-family="Helvetica,sans-Serif" font-size="10.00" fill="#000000">GL/gl.h</text>
</a>
</g>
</g>
<!-- Node5&#45;&gt;Node6 -->
<g id="edge6" class="edge">
<title>Node5&#45;&gt;Node6</title>
<path fill="none" stroke="#191970" d="M366.6067,-56.2977C361.3869,-47.8498 354.8543,-37.2773 349.35,-28.369"/>
<polygon fill="#191970" stroke="#191970" points="352.3182,-26.5143 344.0843,-19.8469 346.3632,-30.1938 352.3182,-26.5143"/>
</g>
<!-- Node7 -->
<g id="node8" class="node">
<title>Node7</title>
<g id="a_node8"><a xlink:title=" ">
<polygon fill="#ffffff" stroke="#bfbfbf" points="381,-.5 381,-19.5 447,-19.5 447,-.5 381,-.5"/>
<text text-anchor="middle" x="414" y="-7.5" font-family="Helvetica,sans-Serif" font-size="10.00" fill="#000000">GL/glext.h</text>
</a>
</g>
</g>
<!-- Node5&#45;&gt;Node7 -->
<g id="edge7" class="edge">
<title>Node5&#45;&gt;Node7</title>
<path fill="none" stroke="#191970" d="M385.3933,-56.2977C390.6131,-47.8498 397.1457,-37.2773 402.65,-28.369"/>
<polygon fill="#191970" stroke="#191970" points="405.6368,-30.1938 407.9157,-19.8469 399.6818,-26.5143 405.6368,-30.1938"/>
</g>
</g>
</svg>
