<?xml version="1.0" encoding="UTF-8" standalone="no"?>
<!DOCTYPE svg PUBLIC "-//W3C//DTD SVG 1.1//EN"
 "http://www.w3.org/Graphics/SVG/1.1/DTD/svg11.dtd">
<!-- Generated by graphviz version 2.40.1 (20161225.0304)
 -->
<!-- Title: drake/geometry/query_results/signed_distance_to_point.h Pages: 1 -->
<svg width="1409pt" height="430pt"
 viewBox="0.00 0.00 1409.00 430.00" xmlns="http://www.w3.org/2000/svg" xmlns:xlink="http://www.w3.org/1999/xlink">
<g id="graph0" class="graph" transform="scale(1 1) rotate(0) translate(4 426)">
<title>drake/geometry/query_results/signed_distance_to_point.h</title>
<polygon fill="#ffffff" stroke="transparent" points="-4,4 -4,-426 1405,-426 1405,4 -4,4"/>
<!-- Node0 -->
<g id="node1" class="node">
<title>Node0</title>
<g id="a_node1"><a xlink:title=" ">
<polygon fill="#bfbfbf" stroke="#000000" points="330,-380.5 330,-421.5 467,-421.5 467,-380.5 330,-380.5"/>
<text text-anchor="start" x="338" y="-409.5" font-family="Helvetica,sans-Serif" font-size="10.00" fill="#000000">drake/geometry/query</text>
<text text-anchor="start" x="338" y="-398.5" font-family="Helvetica,sans-Serif" font-size="10.00" fill="#000000">_results/signed_distance</text>
<text text-anchor="middle" x="398.5" y="-387.5" font-family="Helvetica,sans-Serif" font-size="10.00" fill="#000000">_to_point.h</text>
</a>
</g>
</g>
<!-- Node1 -->
<g id="node2" class="node">
<title>Node1</title>
<g id="a_node2"><a xlink:title=" ">
<polygon fill="#ffffff" stroke="#bfbfbf" points="882,-129 882,-148 929,-148 929,-129 882,-129"/>
<text text-anchor="middle" x="905.5" y="-136" font-family="Helvetica,sans-Serif" font-size="10.00" fill="#000000">cmath</text>
</a>
</g>
</g>
<!-- Node0&#45;&gt;Node1 -->
<g id="edge1" class="edge">
<title>Node0&#45;&gt;Node1</title>
<path fill="none" stroke="#191970" d="M467.2166,-387.8957C544.5688,-370.9595 671.9058,-336.3612 767.5,-277 821.3336,-243.5708 870.0399,-185.2433 892.4682,-156.1093"/>
<polygon fill="#191970" stroke="#191970" points="895.3135,-158.1495 898.5616,-148.0648 889.7336,-153.9229 895.3135,-158.1495"/>
</g>
<!-- Node2 -->
<g id="node3" class="node">
<title>Node2</title>
<g id="a_node3"><a xlink:href="drake__copyable_8h.html" target="_top" xlink:title="Provides careful macros to selectively enable or disable the special member functions for copy&#45;constr...">
<polygon fill="#ffffff" stroke="#000000" points="301,-123.5 301,-153.5 422,-153.5 422,-123.5 301,-123.5"/>
<text text-anchor="start" x="309" y="-141.5" font-family="Helvetica,sans-Serif" font-size="10.00" fill="#000000">drake/common/drake</text>
<text text-anchor="middle" x="361.5" y="-130.5" font-family="Helvetica,sans-Serif" font-size="10.00" fill="#000000">_copyable.h</text>
</a>
</g>
</g>
<!-- Node0&#45;&gt;Node2 -->
<g id="edge2" class="edge">
<title>Node0&#45;&gt;Node2</title>
<path fill="none" stroke="#191970" d="M384.2072,-380.3543C377.8211,-369.946 370.9641,-356.833 367.5,-344 350.4528,-280.8473 354.7386,-202.7958 358.5498,-163.5438"/>
<polygon fill="#191970" stroke="#191970" points="362.0362,-163.8557 359.594,-153.5462 355.074,-163.1285 362.0362,-163.8557"/>
</g>
<!-- Node3 -->
<g id="node4" class="node">
<title>Node3</title>
<g id="a_node4"><a xlink:href="eigen__types_8h.html" target="_top" xlink:title="This file contains abbreviated definitions for certain specializations of Eigen::Matrix that are comm...">
<polygon fill="#ffffff" stroke="#000000" points="200.5,-190.5 200.5,-220.5 320.5,-220.5 320.5,-190.5 200.5,-190.5"/>
<text text-anchor="start" x="208.5" y="-208.5" font-family="Helvetica,sans-Serif" font-size="10.00" fill="#000000">drake/common/eigen</text>
<text text-anchor="middle" x="260.5" y="-197.5" font-family="Helvetica,sans-Serif" font-size="10.00" fill="#000000">_types.h</text>
</a>
</g>
</g>
<!-- Node0&#45;&gt;Node3 -->
<g id="edge3" class="edge">
<title>Node0&#45;&gt;Node3</title>
<path fill="none" stroke="#191970" d="M371.2746,-380.4085C359.0746,-370.3121 345.0846,-357.4442 334.5,-344 305.9886,-307.7856 282.8609,-258.9977 270.4412,-230.0387"/>
<polygon fill="#191970" stroke="#191970" points="273.6065,-228.5367 266.5035,-220.6755 267.1539,-231.2504 273.6065,-228.5367"/>
</g>
<!-- Node9 -->
<g id="node10" class="node">
<title>Node9</title>
<g id="a_node10"><a xlink:href="geometry__ids_8h.html" target="_top" xlink:title=" ">
<polygon fill="#ffffff" stroke="#000000" points="377,-313.5 377,-343.5 522,-343.5 522,-313.5 377,-313.5"/>
<text text-anchor="start" x="385" y="-331.5" font-family="Helvetica,sans-Serif" font-size="10.00" fill="#000000">drake/geometry/geometry</text>
<text text-anchor="middle" x="449.5" y="-320.5" font-family="Helvetica,sans-Serif" font-size="10.00" fill="#000000">_ids.h</text>
</a>
</g>
</g>
<!-- Node0&#45;&gt;Node9 -->
<g id="edge10" class="edge">
<title>Node0&#45;&gt;Node9</title>
<path fill="none" stroke="#191970" d="M412.9781,-380.4183C419.2268,-371.5354 426.5689,-361.0981 433.0249,-351.9205"/>
<polygon fill="#191970" stroke="#191970" points="435.9877,-353.7919 438.8786,-343.5991 430.2623,-349.7644 435.9877,-353.7919"/>
</g>
<!-- Node3&#45;&gt;Node2 -->
<g id="edge9" class="edge">
<title>Node3&#45;&gt;Node2</title>
<path fill="none" stroke="#191970" d="M283.1664,-190.4639C296.974,-181.3044 314.8189,-169.4667 329.9882,-159.4038"/>
<polygon fill="#191970" stroke="#191970" points="332.1614,-162.1623 338.5598,-153.7177 328.2918,-156.3291 332.1614,-162.1623"/>
</g>
<!-- Node4 -->
<g id="node5" class="node">
<title>Node4</title>
<g id="a_node5"><a xlink:title=" ">
<polygon fill="#ffffff" stroke="#bfbfbf" points="440,-129 440,-148 485,-148 485,-129 440,-129"/>
<text text-anchor="middle" x="462.5" y="-136" font-family="Helvetica,sans-Serif" font-size="10.00" fill="#000000">utility</text>
</a>
</g>
</g>
<!-- Node3&#45;&gt;Node4 -->
<g id="edge4" class="edge">
<title>Node3&#45;&gt;Node4</title>
<path fill="none" stroke="#191970" d="M318.3173,-190.4187C351.5674,-181.1446 393.879,-168.314 430.5,-154 431.9014,-153.4522 433.3261,-152.8683 434.7568,-152.2599"/>
<polygon fill="#191970" stroke="#191970" points="436.4459,-155.337 444.1061,-148.0177 433.5534,-148.9625 436.4459,-155.337"/>
</g>
<!-- Node5 -->
<g id="node6" class="node">
<title>Node5</title>
<g id="a_node6"><a xlink:title=" ">
<polygon fill="#ffffff" stroke="#bfbfbf" points="167,-129 167,-148 244,-148 244,-129 167,-129"/>
<text text-anchor="middle" x="205.5" y="-136" font-family="Helvetica,sans-Serif" font-size="10.00" fill="#000000">Eigen/Dense</text>
</a>
</g>
</g>
<!-- Node3&#45;&gt;Node5 -->
<g id="edge5" class="edge">
<title>Node3&#45;&gt;Node5</title>
<path fill="none" stroke="#191970" d="M248.0196,-190.2967C239.6168,-180.0605 228.5151,-166.5366 219.7627,-155.8746"/>
<polygon fill="#191970" stroke="#191970" points="222.3939,-153.5635 213.3436,-148.055 216.9833,-158.005 222.3939,-153.5635"/>
</g>
<!-- Node6 -->
<g id="node7" class="node">
<title>Node6</title>
<g id="a_node7"><a xlink:href="constants_8h.html" target="_top" xlink:title=" ">
<polygon fill="#ffffff" stroke="#000000" points="0,-129 0,-148 149,-148 149,-129 0,-129"/>
<text text-anchor="middle" x="74.5" y="-136" font-family="Helvetica,sans-Serif" font-size="10.00" fill="#000000">drake/common/constants.h</text>
</a>
</g>
</g>
<!-- Node3&#45;&gt;Node6 -->
<g id="edge6" class="edge">
<title>Node3&#45;&gt;Node6</title>
<path fill="none" stroke="#191970" d="M218.758,-190.4639C186.1877,-178.7316 141.4194,-162.6054 110.4316,-151.4431"/>
<polygon fill="#191970" stroke="#191970" points="111.4822,-148.1015 100.8878,-148.0053 109.1099,-154.6872 111.4822,-148.1015"/>
</g>
<!-- Node7 -->
<g id="node8" class="node">
<title>Node7</title>
<g id="a_node8"><a xlink:href="drake__assert_8h.html" target="_top" xlink:title="Provides Drake&#39;s assertion implementation.">
<polygon fill="#ffffff" stroke="#000000" points="641,-56.5 641,-86.5 762,-86.5 762,-56.5 641,-56.5"/>
<text text-anchor="start" x="649" y="-74.5" font-family="Helvetica,sans-Serif" font-size="10.00" fill="#000000">drake/common/drake</text>
<text text-anchor="middle" x="701.5" y="-63.5" font-family="Helvetica,sans-Serif" font-size="10.00" fill="#000000">_assert.h</text>
</a>
</g>
</g>
<!-- Node3&#45;&gt;Node7 -->
<g id="edge7" class="edge">
<title>Node3&#45;&gt;Node7</title>
<path fill="none" stroke="#191970" d="M261.6105,-190.2783C263.8696,-171.3101 270.7218,-139.3994 291.5,-123 317.5755,-102.4196 520.5389,-84.661 630.7815,-76.4141"/>
<polygon fill="#191970" stroke="#191970" points="631.113,-79.8992 640.827,-75.6697 630.5957,-72.9184 631.113,-79.8992"/>
</g>
<!-- Node8 -->
<g id="node9" class="node">
<title>Node8</title>
<g id="a_node9"><a xlink:title=" ">
<polygon fill="#ffffff" stroke="#bfbfbf" points="622,-.5 622,-19.5 691,-19.5 691,-.5 622,-.5"/>
<text text-anchor="middle" x="656.5" y="-7.5" font-family="Helvetica,sans-Serif" font-size="10.00" fill="#000000">type_traits</text>
</a>
</g>
</g>
<!-- Node7&#45;&gt;Node8 -->
<g id="edge8" class="edge">
<title>Node7&#45;&gt;Node8</title>
<path fill="none" stroke="#191970" d="M690.3764,-56.2977C684.1299,-47.7609 676.296,-37.0545 669.7353,-28.0883"/>
<polygon fill="#191970" stroke="#191970" points="672.4348,-25.8505 663.7051,-19.8469 666.7856,-29.984 672.4348,-25.8505"/>
</g>
<!-- Node9&#45;&gt;Node2 -->
<g id="edge11" class="edge">
<title>Node9&#45;&gt;Node2</title>
<path fill="none" stroke="#191970" d="M442.4473,-313.2727C427.2198,-280.395 391.1562,-202.5305 372.742,-162.7725"/>
<polygon fill="#191970" stroke="#191970" points="375.8427,-161.1391 368.4641,-153.5361 369.4909,-164.0811 375.8427,-161.1391"/>
</g>
<!-- Node10 -->
<g id="node11" class="node">
<title>Node10</title>
<g id="a_node11"><a xlink:href="identifier_8h.html" target="_top" xlink:title=" ">
<polygon fill="#ffffff" stroke="#000000" points="612.5,-257.5 612.5,-276.5 758.5,-276.5 758.5,-257.5 612.5,-257.5"/>
<text text-anchor="middle" x="685.5" y="-264.5" font-family="Helvetica,sans-Serif" font-size="10.00" fill="#000000">drake/common/identifier.h</text>
</a>
</g>
</g>
<!-- Node9&#45;&gt;Node10 -->
<g id="edge12" class="edge">
<title>Node9&#45;&gt;Node10</title>
<path fill="none" stroke="#191970" d="M507.2321,-313.4554C547.8183,-302.8789 601.4073,-288.914 639.1967,-279.0663"/>
<polygon fill="#191970" stroke="#191970" points="640.1342,-282.439 648.9284,-276.5303 638.3689,-275.6652 640.1342,-282.439"/>
</g>
<!-- Node10&#45;&gt;Node2 -->
<g id="edge17" class="edge">
<title>Node10&#45;&gt;Node2</title>
<path fill="none" stroke="#191970" d="M612.3737,-257.831C552.4636,-249.4467 473.0848,-236.0816 444.5,-221 417.4202,-206.7125 393.4604,-180.6574 378.3313,-161.6402"/>
<polygon fill="#191970" stroke="#191970" points="381.0967,-159.4948 372.2134,-153.7209 375.5572,-163.7743 381.0967,-159.4948"/>
</g>
<!-- Node11 -->
<g id="node12" class="node">
<title>Node11</title>
<g id="a_node12"><a xlink:title=" ">
<polygon fill="#ffffff" stroke="#bfbfbf" points="592.5,-196 592.5,-215 642.5,-215 642.5,-196 592.5,-196"/>
<text text-anchor="middle" x="617.5" y="-203" font-family="Helvetica,sans-Serif" font-size="10.00" fill="#000000">atomic</text>
</a>
</g>
</g>
<!-- Node10&#45;&gt;Node11 -->
<g id="edge13" class="edge">
<title>Node10&#45;&gt;Node11</title>
<path fill="none" stroke="#191970" d="M674.875,-257.3906C664.4569,-247.9683 648.3636,-233.4134 635.8696,-222.1137"/>
<polygon fill="#191970" stroke="#191970" points="638.0392,-219.3568 628.2748,-215.2449 633.3438,-224.5484 638.0392,-219.3568"/>
</g>
<!-- Node12 -->
<g id="node13" class="node">
<title>Node12</title>
<g id="a_node13"><a xlink:title=" ">
<polygon fill="#ffffff" stroke="#bfbfbf" points="660.5,-196 660.5,-215 710.5,-215 710.5,-196 660.5,-196"/>
<text text-anchor="middle" x="685.5" y="-203" font-family="Helvetica,sans-Serif" font-size="10.00" fill="#000000">cstdint</text>
</a>
</g>
</g>
<!-- Node10&#45;&gt;Node12 -->
<g id="edge14" class="edge">
<title>Node10&#45;&gt;Node12</title>
<path fill="none" stroke="#191970" d="M685.5,-257.3906C685.5,-248.8657 685.5,-236.1392 685.5,-225.4235"/>
<polygon fill="#191970" stroke="#191970" points="689.0001,-225.2448 685.5,-215.2449 682.0001,-225.2449 689.0001,-225.2448"/>
</g>
<!-- Node13 -->
<g id="node14" class="node">
<title>Node13</title>
<g id="a_node14"><a xlink:title=" ">
<polygon fill="#ffffff" stroke="#bfbfbf" points="736,-129 736,-148 801,-148 801,-129 736,-129"/>
<text text-anchor="middle" x="768.5" y="-136" font-family="Helvetica,sans-Serif" font-size="10.00" fill="#000000">functional</text>
</a>
</g>
</g>
<!-- Node10&#45;&gt;Node13 -->
<g id="edge15" class="edge">
<title>Node10&#45;&gt;Node13</title>
<path fill="none" stroke="#191970" d="M698.6336,-257.281C709.4462,-248.723 724.5607,-235.4062 734.5,-221 748.1237,-201.2536 757.7065,-175.2081 763.1519,-157.7102"/>
<polygon fill="#191970" stroke="#191970" points="766.5283,-158.6346 766.0069,-148.0526 759.8155,-156.6501 766.5283,-158.6346"/>
</g>
<!-- Node14 -->
<g id="node15" class="node">
<title>Node14</title>
<g id="a_node15"><a xlink:title=" ">
<polygon fill="#ffffff" stroke="#bfbfbf" points="819.5,-129 819.5,-148 863.5,-148 863.5,-129 819.5,-129"/>
<text text-anchor="middle" x="841.5" y="-136" font-family="Helvetica,sans-Serif" font-size="10.00" fill="#000000">string</text>
</a>
</g>
</g>
<!-- Node10&#45;&gt;Node14 -->
<g id="edge16" class="edge">
<title>Node10&#45;&gt;Node14</title>
<path fill="none" stroke="#191970" d="M702.1961,-257.4524C716.9959,-248.6979 738.9237,-235.0017 756.5,-221 782.3489,-200.408 809.2403,-173.1587 825.6791,-155.7249"/>
<polygon fill="#191970" stroke="#191970" points="828.5977,-157.7272 832.8591,-148.0271 823.4788,-152.9526 828.5977,-157.7272"/>
</g>
<!-- Node15 -->
<g id="node16" class="node">
<title>Node15</title>
<g id="a_node16"><a xlink:href="drake__throw_8h.html" target="_top" xlink:title="Provides a convenient wrapper to throw an exception when a condition is unmet.">
<polygon fill="#ffffff" stroke="#000000" points="597,-123.5 597,-153.5 718,-153.5 718,-123.5 597,-123.5"/>
<text text-anchor="start" x="605" y="-141.5" font-family="Helvetica,sans-Serif" font-size="10.00" fill="#000000">drake/common/drake</text>
<text text-anchor="middle" x="657.5" y="-130.5" font-family="Helvetica,sans-Serif" font-size="10.00" fill="#000000">_throw.h</text>
</a>
</g>
</g>
<!-- Node10&#45;&gt;Node15 -->
<g id="edge18" class="edge">
<title>Node10&#45;&gt;Node15</title>
<path fill="none" stroke="#191970" d="M695.4362,-257.4913C703.676,-248.8654 714.7767,-235.3368 719.5,-221 723.8112,-207.9141 725.3538,-202.4724 719.5,-190 713.8237,-177.9059 703.7575,-167.6694 693.3654,-159.5873"/>
<polygon fill="#191970" stroke="#191970" points="695.1948,-156.5911 685.0389,-153.5731 691.096,-162.2657 695.1948,-156.5911"/>
</g>
<!-- Node16 -->
<g id="node17" class="node">
<title>Node16</title>
<g id="a_node17"><a xlink:href="hash_8h.html" target="_top" xlink:title=" ">
<polygon fill="#ffffff" stroke="#000000" points="906,-196 906,-215 1031,-215 1031,-196 906,-196"/>
<text text-anchor="middle" x="968.5" y="-203" font-family="Helvetica,sans-Serif" font-size="10.00" fill="#000000">drake/common/hash.h</text>
</a>
</g>
</g>
<!-- Node10&#45;&gt;Node16 -->
<g id="edge21" class="edge">
<title>Node10&#45;&gt;Node16</title>
<path fill="none" stroke="#191970" d="M729.4082,-257.4581C779.2899,-246.6181 860.719,-228.9224 914.4591,-217.2439"/>
<polygon fill="#191970" stroke="#191970" points="915.4601,-220.6081 924.4887,-215.0643 913.9735,-213.7678 915.4601,-220.6081"/>
</g>
<!-- Node23 -->
<g id="node24" class="node">
<title>Node23</title>
<g id="a_node24"><a xlink:href="never__destroyed_8h.html" target="_top" xlink:title=" ">
<polygon fill="#ffffff" stroke="#000000" points="453,-190.5 453,-220.5 574,-220.5 574,-190.5 453,-190.5"/>
<text text-anchor="start" x="461" y="-208.5" font-family="Helvetica,sans-Serif" font-size="10.00" fill="#000000">drake/common/never</text>
<text text-anchor="middle" x="513.5" y="-197.5" font-family="Helvetica,sans-Serif" font-size="10.00" fill="#000000">_destroyed.h</text>
</a>
</g>
</g>
<!-- Node10&#45;&gt;Node23 -->
<g id="edge35" class="edge">
<title>Node10&#45;&gt;Node23</title>
<path fill="none" stroke="#191970" d="M658.625,-257.3906C633.7304,-248.4893 596.0245,-235.0073 565.2861,-224.0165"/>
<polygon fill="#191970" stroke="#191970" points="566.1705,-220.6158 555.5759,-220.5446 563.8137,-227.2072 566.1705,-220.6158"/>
</g>
<!-- Node15&#45;&gt;Node7 -->
<g id="edge20" class="edge">
<title>Node15&#45;&gt;Node7</title>
<path fill="none" stroke="#191970" d="M667.4843,-123.2967C672.9412,-114.9873 679.8208,-104.5115 685.9629,-95.1587"/>
<polygon fill="#191970" stroke="#191970" points="688.9914,-96.9231 691.5552,-86.6432 683.1404,-93.0806 688.9914,-96.9231"/>
</g>
<!-- Node15&#45;&gt;Node8 -->
<g id="edge19" class="edge">
<title>Node15&#45;&gt;Node8</title>
<path fill="none" stroke="#191970" d="M647.9113,-123.4025C642.1936,-113.4813 635.4838,-99.9794 632.5,-87 629.4131,-73.5725 629.219,-69.3814 632.5,-56 634.8743,-46.3164 639.6821,-36.4071 644.3753,-28.2776"/>
<polygon fill="#191970" stroke="#191970" points="647.4119,-30.0214 649.6792,-19.672 641.4528,-26.3486 647.4119,-30.0214"/>
</g>
<!-- Node16&#45;&gt;Node1 -->
<g id="edge22" class="edge">
<title>Node16&#45;&gt;Node1</title>
<path fill="none" stroke="#191970" d="M959.4736,-195.9005C949.5558,-185.353 933.4359,-168.2096 921.3909,-155.3998"/>
<polygon fill="#191970" stroke="#191970" points="923.9097,-152.9693 914.5096,-148.0817 918.8101,-157.7645 923.9097,-152.9693"/>
</g>
<!-- Node16&#45;&gt;Node4 -->
<g id="edge31" class="edge">
<title>Node16&#45;&gt;Node4</title>
<path fill="none" stroke="#191970" d="M905.9184,-200.0164C821.1598,-192.1511 665.3089,-176.1363 533.5,-154 520.8933,-151.8828 507.1439,-149.0135 495.1311,-146.3191"/>
<polygon fill="#191970" stroke="#191970" points="495.6229,-142.8412 485.0938,-144.0196 494.0597,-149.6644 495.6229,-142.8412"/>
</g>
<!-- Node16&#45;&gt;Node7 -->
<g id="edge33" class="edge">
<title>Node16&#45;&gt;Node7</title>
<path fill="none" stroke="#191970" d="M967.92,-195.9487C966.3324,-178.6489 960.4229,-142.1504 938.5,-123 914.0314,-101.6258 832.9389,-87.3065 772.3824,-79.3036"/>
<polygon fill="#191970" stroke="#191970" points="772.4591,-75.7847 762.0938,-77.978 771.5645,-82.7273 772.4591,-75.7847"/>
</g>
<!-- Node16&#45;&gt;Node8 -->
<g id="edge30" class="edge">
<title>Node16&#45;&gt;Node8</title>
<path fill="none" stroke="#191970" d="M1031.3565,-200.13C1122.7134,-191.6808 1283.232,-174.1532 1300.5,-154 1309.4646,-143.5376 1309.3606,-133.5507 1300.5,-123 1223.3818,-31.1721 834.9082,-13.9487 701.5336,-10.7335"/>
<polygon fill="#191970" stroke="#191970" points="701.3467,-7.2285 691.2703,-10.5019 701.1887,-14.2267 701.3467,-7.2285"/>
</g>
<!-- Node16&#45;&gt;Node13 -->
<g id="edge24" class="edge">
<title>Node16&#45;&gt;Node13</title>
<path fill="none" stroke="#191970" d="M938.0944,-195.9716C906.1946,-185.8856 854.6508,-169.336 810.5,-154 808.123,-153.1743 805.6755,-152.3096 803.2134,-151.4289"/>
<polygon fill="#191970" stroke="#191970" points="804.3566,-148.1205 793.7625,-148.0018 801.9702,-154.7012 804.3566,-148.1205"/>
</g>
<!-- Node16&#45;&gt;Node14 -->
<g id="edge29" class="edge">
<title>Node16&#45;&gt;Node14</title>
<path fill="none" stroke="#191970" d="M950.304,-195.9005C928.8962,-184.6067 893.1542,-165.7506 868.5107,-152.7497"/>
<polygon fill="#191970" stroke="#191970" points="870.1401,-149.6522 859.6622,-148.0817 866.8738,-155.8434 870.1401,-149.6522"/>
</g>
<!-- Node16&#45;&gt;Node15 -->
<g id="edge34" class="edge">
<title>Node16&#45;&gt;Node15</title>
<path fill="none" stroke="#191970" d="M923.1722,-195.918C876.798,-186.0915 802.384,-170.2593 728.1899,-154.1417"/>
<polygon fill="#191970" stroke="#191970" points="728.7157,-150.6743 718.2003,-151.9695 727.2283,-157.5145 728.7157,-150.6743"/>
</g>
<!-- Node17 -->
<g id="node18" class="node">
<title>Node17</title>
<g id="a_node18"><a xlink:title=" ">
<polygon fill="#ffffff" stroke="#bfbfbf" points="1348,-129 1348,-148 1401,-148 1401,-129 1348,-129"/>
<text text-anchor="middle" x="1374.5" y="-136" font-family="Helvetica,sans-Serif" font-size="10.00" fill="#000000">cstddef</text>
</a>
</g>
</g>
<!-- Node16&#45;&gt;Node17 -->
<g id="edge23" class="edge">
<title>Node16&#45;&gt;Node17</title>
<path fill="none" stroke="#191970" d="M1031.3178,-200.8863C1104.7052,-194.5238 1229.351,-180.683 1333.5,-154 1336.3335,-153.2741 1339.2404,-152.4167 1342.1348,-151.4837"/>
<polygon fill="#191970" stroke="#191970" points="1343.5192,-154.7074 1351.8025,-148.1015 1341.2077,-148.1001 1343.5192,-154.7074"/>
</g>
<!-- Node18 -->
<g id="node19" class="node">
<title>Node18</title>
<g id="a_node19"><a xlink:title=" ">
<polygon fill="#ffffff" stroke="#bfbfbf" points="985.5,-129 985.5,-148 1045.5,-148 1045.5,-129 985.5,-129"/>
<text text-anchor="middle" x="1015.5" y="-136" font-family="Helvetica,sans-Serif" font-size="10.00" fill="#000000">iostream</text>
</a>
</g>
</g>
<!-- Node16&#45;&gt;Node18 -->
<g id="edge25" class="edge">
<title>Node16&#45;&gt;Node18</title>
<path fill="none" stroke="#191970" d="M975.234,-195.9005C982.4236,-185.6515 993.9819,-169.1747 1002.8748,-156.4976"/>
<polygon fill="#191970" stroke="#191970" points="1005.901,-158.2783 1008.7785,-148.0817 1000.1704,-154.2582 1005.901,-158.2783"/>
</g>
<!-- Node19 -->
<g id="node20" class="node">
<title>Node19</title>
<g id="a_node20"><a xlink:title=" ">
<polygon fill="#ffffff" stroke="#bfbfbf" points="1063.5,-129 1063.5,-148 1101.5,-148 1101.5,-129 1063.5,-129"/>
<text text-anchor="middle" x="1082.5" y="-136" font-family="Helvetica,sans-Serif" font-size="10.00" fill="#000000">map</text>
</a>
</g>
</g>
<!-- Node16&#45;&gt;Node19 -->
<g id="edge26" class="edge">
<title>Node16&#45;&gt;Node19</title>
<path fill="none" stroke="#191970" d="M984.8334,-195.9005C1003.7959,-184.7559 1035.2875,-166.2477 1057.372,-153.2682"/>
<polygon fill="#191970" stroke="#191970" points="1059.349,-156.1661 1066.1969,-148.0817 1055.8021,-150.1311 1059.349,-156.1661"/>
</g>
<!-- Node20 -->
<g id="node21" class="node">
<title>Node20</title>
<g id="a_node21"><a xlink:title=" ">
<polygon fill="#ffffff" stroke="#bfbfbf" points="1119.5,-129 1119.5,-148 1175.5,-148 1175.5,-129 1119.5,-129"/>
<text text-anchor="middle" x="1147.5" y="-136" font-family="Helvetica,sans-Serif" font-size="10.00" fill="#000000">optional</text>
</a>
</g>
</g>
<!-- Node16&#45;&gt;Node20 -->
<g id="edge27" class="edge">
<title>Node16&#45;&gt;Node20</title>
<path fill="none" stroke="#191970" d="M996.1363,-195.9262C1024.861,-185.8705 1071.0498,-169.4065 1110.5,-154 1112.3002,-153.297 1114.1449,-152.5642 1116.0033,-151.8164"/>
<polygon fill="#191970" stroke="#191970" points="1117.3405,-155.051 1125.2667,-148.0206 1114.6863,-148.5737 1117.3405,-155.051"/>
</g>
<!-- Node21 -->
<g id="node22" class="node">
<title>Node21</title>
<g id="a_node22"><a xlink:title=" ">
<polygon fill="#ffffff" stroke="#bfbfbf" points="1193.5,-129 1193.5,-148 1225.5,-148 1225.5,-129 1193.5,-129"/>
<text text-anchor="middle" x="1209.5" y="-136" font-family="Helvetica,sans-Serif" font-size="10.00" fill="#000000">set</text>
</a>
</g>
</g>
<!-- Node16&#45;&gt;Node21 -->
<g id="edge28" class="edge">
<title>Node16&#45;&gt;Node21</title>
<path fill="none" stroke="#191970" d="M1031.1391,-196.0535C1075.174,-188.1062 1134.8525,-174.671 1184.5,-154 1185.3457,-153.6479 1186.1956,-153.2691 1187.0449,-152.8689"/>
<polygon fill="#191970" stroke="#191970" points="1188.8179,-155.8885 1195.9096,-148.0171 1185.4571,-149.7481 1188.8179,-155.8885"/>
</g>
<!-- Node22 -->
<g id="node23" class="node">
<title>Node22</title>
<g id="a_node23"><a xlink:title=" ">
<polygon fill="#ffffff" stroke="#bfbfbf" points="1244,-129 1244,-148 1291,-148 1291,-129 1244,-129"/>
<text text-anchor="middle" x="1267.5" y="-136" font-family="Helvetica,sans-Serif" font-size="10.00" fill="#000000">vector</text>
</a>
</g>
</g>
<!-- Node16&#45;&gt;Node22 -->
<g id="edge32" class="edge">
<title>Node16&#45;&gt;Node22</title>
<path fill="none" stroke="#191970" d="M1031.1457,-197.8426C1085.7606,-190.1174 1166.6358,-176.1269 1234.5,-154 1236.3505,-153.3967 1238.2326,-152.7146 1240.1119,-151.9815"/>
<polygon fill="#191970" stroke="#191970" points="1241.5239,-155.1843 1249.3274,-148.018 1238.7582,-148.7538 1241.5239,-155.1843"/>
</g>
<!-- Node23&#45;&gt;Node2 -->
<g id="edge39" class="edge">
<title>Node23&#45;&gt;Node2</title>
<path fill="none" stroke="#191970" d="M479.3882,-190.4639C457.4633,-180.7996 428.7746,-168.154 405.1881,-157.7572"/>
<polygon fill="#191970" stroke="#191970" points="406.3228,-154.4325 395.7605,-153.6017 403.4993,-160.8379 406.3228,-154.4325"/>
</g>
<!-- Node23&#45;&gt;Node4 -->
<g id="edge38" class="edge">
<title>Node23&#45;&gt;Node4</title>
<path fill="none" stroke="#191970" d="M501.9273,-190.2967C494.2127,-180.1618 484.0449,-166.804 475.9671,-156.1921"/>
<polygon fill="#191970" stroke="#191970" points="478.6151,-153.8921 469.7732,-148.055 473.0451,-158.1319 478.6151,-153.8921"/>
</g>
<!-- Node23&#45;&gt;Node8 -->
<g id="edge37" class="edge">
<title>Node23&#45;&gt;Node8</title>
<path fill="none" stroke="#191970" d="M514.5382,-190.2064C516.2965,-172.8492 520.9985,-144.2007 533.5,-123 558.4865,-80.6264 604.3693,-44.7911 632.4822,-25.4357"/>
<polygon fill="#191970" stroke="#191970" points="634.5963,-28.2317 640.9363,-19.7432 630.6866,-22.4253 634.5963,-28.2317"/>
</g>
<!-- Node24 -->
<g id="node25" class="node">
<title>Node24</title>
<g id="a_node25"><a xlink:title=" ">
<polygon fill="#ffffff" stroke="#bfbfbf" points="542,-129 542,-148 579,-148 579,-129 542,-129"/>
<text text-anchor="middle" x="560.5" y="-136" font-family="Helvetica,sans-Serif" font-size="10.00" fill="#000000">new</text>
</a>
</g>
</g>
<!-- Node23&#45;&gt;Node24 -->
<g id="edge36" class="edge">
<title>Node23&#45;&gt;Node24</title>
<path fill="none" stroke="#191970" d="M524.165,-190.2967C531.2035,-180.2631 540.4577,-167.0709 547.8652,-156.5113"/>
<polygon fill="#191970" stroke="#191970" points="550.9197,-158.2516 553.7973,-148.055 545.1891,-154.2316 550.9197,-158.2516"/>
</g>
</g>
</svg>
