<?xml version="1.0" encoding="UTF-8" standalone="no"?>
<!DOCTYPE svg PUBLIC "-//W3C//DTD SVG 1.1//EN"
 "http://www.w3.org/Graphics/SVG/1.1/DTD/svg11.dtd">
<!-- Generated by graphviz version 2.40.1 (20161225.0304)
 -->
<!-- Title: drake/geometry/query_results/signed_distance_to_point_with_gradient.h Pages: 1 -->
<svg width="1409pt" height="430pt"
 viewBox="0.00 0.00 1409.00 430.00" xmlns="http://www.w3.org/2000/svg" xmlns:xlink="http://www.w3.org/1999/xlink">
<g id="graph0" class="graph" transform="scale(1 1) rotate(0) translate(4 426)">
<title>drake/geometry/query_results/signed_distance_to_point_with_gradient.h</title>
<polygon fill="#ffffff" stroke="transparent" points="-4,4 -4,-426 1405,-426 1405,4 -4,4"/>
<!-- Node0 -->
<g id="node1" class="node">
<title>Node0</title>
<g id="a_node1"><a xlink:title=" ">
<polygon fill="#bfbfbf" stroke="#000000" points="365,-380.5 365,-421.5 508,-421.5 508,-380.5 365,-380.5"/>
<text text-anchor="start" x="373" y="-409.5" font-family="Helvetica,sans-Serif" font-size="10.00" fill="#000000">drake/geometry/query</text>
<text text-anchor="start" x="373" y="-398.5" font-family="Helvetica,sans-Serif" font-size="10.00" fill="#000000">_results/signed_distance</text>
<text text-anchor="middle" x="436.5" y="-387.5" font-family="Helvetica,sans-Serif" font-size="10.00" fill="#000000">_to_point_with_gradient.h</text>
</a>
</g>
</g>
<!-- Node1 -->
<g id="node2" class="node">
<title>Node1</title>
<g id="a_node2"><a xlink:title=" ">
<polygon fill="#ffffff" stroke="#bfbfbf" points="1354,-129 1354,-148 1401,-148 1401,-129 1354,-129"/>
<text text-anchor="middle" x="1377.5" y="-136" font-family="Helvetica,sans-Serif" font-size="10.00" fill="#000000">cmath</text>
</a>
</g>
</g>
<!-- Node0&#45;&gt;Node1 -->
<g id="edge1" class="edge">
<title>Node0&#45;&gt;Node1</title>
<path fill="none" stroke="#191970" d="M508.0496,-386.3148C663.3675,-353.4114 1041.8693,-267.6623 1345.5,-154 1346.9092,-153.4725 1348.3401,-152.9049 1349.7759,-152.3097"/>
<polygon fill="#191970" stroke="#191970" points="1351.4482,-155.3957 1359.1421,-148.1118 1348.5852,-149.0079 1351.4482,-155.3957"/>
</g>
<!-- Node2 -->
<g id="node3" class="node">
<title>Node2</title>
<g id="a_node3"><a xlink:title=" ">
<polygon fill="#ffffff" stroke="#bfbfbf" points="440,-129 440,-148 485,-148 485,-129 440,-129"/>
<text text-anchor="middle" x="462.5" y="-136" font-family="Helvetica,sans-Serif" font-size="10.00" fill="#000000">utility</text>
</a>
</g>
</g>
<!-- Node0&#45;&gt;Node2 -->
<g id="edge2" class="edge">
<title>Node0&#45;&gt;Node2</title>
<path fill="none" stroke="#191970" d="M438.5402,-380.4021C443.4277,-331.0573 455.7554,-206.5945 460.55,-158.188"/>
<polygon fill="#191970" stroke="#191970" points="464.0473,-158.3865 461.5501,-148.0902 457.0814,-157.6965 464.0473,-158.3865"/>
</g>
<!-- Node3 -->
<g id="node4" class="node">
<title>Node3</title>
<g id="a_node4"><a xlink:href="drake__copyable_8h.html" target="_top" xlink:title="Provides careful macros to selectively enable or disable the special member functions for copy&#45;constr...">
<polygon fill="#ffffff" stroke="#000000" points="301,-123.5 301,-153.5 422,-153.5 422,-123.5 301,-123.5"/>
<text text-anchor="start" x="309" y="-141.5" font-family="Helvetica,sans-Serif" font-size="10.00" fill="#000000">drake/common/drake</text>
<text text-anchor="middle" x="361.5" y="-130.5" font-family="Helvetica,sans-Serif" font-size="10.00" fill="#000000">_copyable.h</text>
</a>
</g>
</g>
<!-- Node0&#45;&gt;Node3 -->
<g id="edge3" class="edge">
<title>Node0&#45;&gt;Node3</title>
<path fill="none" stroke="#191970" d="M430.6149,-380.4021C416.9815,-332.6852 383.2785,-214.7248 368.5633,-163.2216"/>
<polygon fill="#191970" stroke="#191970" points="371.9177,-162.2216 365.8051,-153.5679 365.1871,-164.1447 371.9177,-162.2216"/>
</g>
<!-- Node4 -->
<g id="node5" class="node">
<title>Node4</title>
<g id="a_node5"><a xlink:href="eigen__types_8h.html" target="_top" xlink:title="This file contains abbreviated definitions for certain specializations of Eigen::Matrix that are comm...">
<polygon fill="#ffffff" stroke="#000000" points="212.5,-190.5 212.5,-220.5 332.5,-220.5 332.5,-190.5 212.5,-190.5"/>
<text text-anchor="start" x="220.5" y="-208.5" font-family="Helvetica,sans-Serif" font-size="10.00" fill="#000000">drake/common/eigen</text>
<text text-anchor="middle" x="272.5" y="-197.5" font-family="Helvetica,sans-Serif" font-size="10.00" fill="#000000">_types.h</text>
</a>
</g>
</g>
<!-- Node0&#45;&gt;Node4 -->
<g id="edge4" class="edge">
<title>Node0&#45;&gt;Node4</title>
<path fill="none" stroke="#191970" d="M394.2116,-380.2859C377.8995,-370.8374 359.9672,-358.5006 346.5,-344 314.9684,-310.0489 292.6876,-260.1312 281.2726,-230.4125"/>
<polygon fill="#191970" stroke="#191970" points="284.4629,-228.9503 277.6908,-220.8024 277.9037,-231.3951 284.4629,-228.9503"/>
</g>
<!-- Node9 -->
<g id="node10" class="node">
<title>Node9</title>
<g id="a_node10"><a xlink:href="geometry__ids_8h.html" target="_top" xlink:title=" ">
<polygon fill="#ffffff" stroke="#000000" points="465,-313.5 465,-343.5 610,-343.5 610,-313.5 465,-313.5"/>
<text text-anchor="start" x="473" y="-331.5" font-family="Helvetica,sans-Serif" font-size="10.00" fill="#000000">drake/geometry/geometry</text>
<text text-anchor="middle" x="537.5" y="-320.5" font-family="Helvetica,sans-Serif" font-size="10.00" fill="#000000">_ids.h</text>
</a>
</g>
</g>
<!-- Node0&#45;&gt;Node9 -->
<g id="edge11" class="edge">
<title>Node0&#45;&gt;Node9</title>
<path fill="none" stroke="#191970" d="M465.1724,-380.4183C478.5678,-370.8028 494.5006,-359.3659 507.9983,-349.677"/>
<polygon fill="#191970" stroke="#191970" points="510.3826,-352.2738 516.4654,-343.5991 506.3006,-346.5872 510.3826,-352.2738"/>
</g>
<!-- Node4&#45;&gt;Node2 -->
<g id="edge5" class="edge">
<title>Node4&#45;&gt;Node2</title>
<path fill="none" stroke="#191970" d="M324.7266,-190.4324C355.821,-180.98 395.8461,-167.9651 430.5,-154 431.8598,-153.452 433.2427,-152.8723 434.6328,-152.2714"/>
<polygon fill="#191970" stroke="#191970" points="436.098,-155.4501 443.7402,-148.112 433.1899,-149.0827 436.098,-155.4501"/>
</g>
<!-- Node4&#45;&gt;Node3 -->
<g id="edge10" class="edge">
<title>Node4&#45;&gt;Node3</title>
<path fill="none" stroke="#191970" d="M292.6955,-190.2967C304.6436,-181.302 319.9639,-169.7687 333.1138,-159.8694"/>
<polygon fill="#191970" stroke="#191970" points="335.5002,-162.4538 341.3844,-153.6432 331.2902,-156.8613 335.5002,-162.4538"/>
</g>
<!-- Node5 -->
<g id="node6" class="node">
<title>Node5</title>
<g id="a_node6"><a xlink:title=" ">
<polygon fill="#ffffff" stroke="#bfbfbf" points="167,-129 167,-148 244,-148 244,-129 167,-129"/>
<text text-anchor="middle" x="205.5" y="-136" font-family="Helvetica,sans-Serif" font-size="10.00" fill="#000000">Eigen/Dense</text>
</a>
</g>
</g>
<!-- Node4&#45;&gt;Node5 -->
<g id="edge6" class="edge">
<title>Node4&#45;&gt;Node5</title>
<path fill="none" stroke="#191970" d="M257.2967,-190.2967C246.8578,-179.8578 232.9997,-165.9997 222.2446,-155.2446"/>
<polygon fill="#191970" stroke="#191970" points="224.601,-152.6512 215.055,-148.055 219.6512,-157.601 224.601,-152.6512"/>
</g>
<!-- Node6 -->
<g id="node7" class="node">
<title>Node6</title>
<g id="a_node7"><a xlink:href="constants_8h.html" target="_top" xlink:title=" ">
<polygon fill="#ffffff" stroke="#000000" points="0,-129 0,-148 149,-148 149,-129 0,-129"/>
<text text-anchor="middle" x="74.5" y="-136" font-family="Helvetica,sans-Serif" font-size="10.00" fill="#000000">drake/common/constants.h</text>
</a>
</g>
</g>
<!-- Node4&#45;&gt;Node6 -->
<g id="edge7" class="edge">
<title>Node4&#45;&gt;Node6</title>
<path fill="none" stroke="#191970" d="M228.0649,-190.4639C193.2433,-178.6808 145.3239,-162.4657 112.3222,-151.2984"/>
<polygon fill="#191970" stroke="#191970" points="113.1845,-147.8953 102.5902,-148.0053 110.9408,-154.526 113.1845,-147.8953"/>
</g>
<!-- Node7 -->
<g id="node8" class="node">
<title>Node7</title>
<g id="a_node8"><a xlink:href="drake__assert_8h.html" target="_top" xlink:title="Provides Drake&#39;s assertion implementation.">
<polygon fill="#ffffff" stroke="#000000" points="692,-56.5 692,-86.5 813,-86.5 813,-56.5 692,-56.5"/>
<text text-anchor="start" x="700" y="-74.5" font-family="Helvetica,sans-Serif" font-size="10.00" fill="#000000">drake/common/drake</text>
<text text-anchor="middle" x="752.5" y="-63.5" font-family="Helvetica,sans-Serif" font-size="10.00" fill="#000000">_assert.h</text>
</a>
</g>
</g>
<!-- Node4&#45;&gt;Node7 -->
<g id="edge8" class="edge">
<title>Node4&#45;&gt;Node7</title>
<path fill="none" stroke="#191970" d="M271.2099,-190.4412C270.513,-171.645 272.5158,-139.9158 291.5,-123 320.0467,-97.5636 559.94,-81.5249 681.899,-74.939"/>
<polygon fill="#191970" stroke="#191970" points="682.0983,-78.4334 691.8978,-74.406 681.7256,-71.4433 682.0983,-78.4334"/>
</g>
<!-- Node8 -->
<g id="node9" class="node">
<title>Node8</title>
<g id="a_node9"><a xlink:title=" ">
<polygon fill="#ffffff" stroke="#bfbfbf" points="762,-.5 762,-19.5 831,-19.5 831,-.5 762,-.5"/>
<text text-anchor="middle" x="796.5" y="-7.5" font-family="Helvetica,sans-Serif" font-size="10.00" fill="#000000">type_traits</text>
</a>
</g>
</g>
<!-- Node7&#45;&gt;Node8 -->
<g id="edge9" class="edge">
<title>Node7&#45;&gt;Node8</title>
<path fill="none" stroke="#191970" d="M763.3764,-56.2977C769.4841,-47.7609 777.1439,-37.0545 783.5588,-28.0883"/>
<polygon fill="#191970" stroke="#191970" points="786.4829,-30.0163 789.455,-19.8469 780.7899,-25.9433 786.4829,-30.0163"/>
</g>
<!-- Node9&#45;&gt;Node3 -->
<g id="edge12" class="edge">
<title>Node9&#45;&gt;Node3</title>
<path fill="none" stroke="#191970" d="M522.4389,-313.426C501.9842,-292.8428 464.4247,-254.6516 433.5,-221 415.2602,-201.1519 395.1368,-177.9804 380.8123,-161.2565"/>
<polygon fill="#191970" stroke="#191970" points="383.4355,-158.9387 374.2797,-153.6073 378.1125,-163.4846 383.4355,-158.9387"/>
</g>
<!-- Node10 -->
<g id="node11" class="node">
<title>Node10</title>
<g id="a_node11"><a xlink:href="identifier_8h.html" target="_top" xlink:title=" ">
<polygon fill="#ffffff" stroke="#000000" points="629.5,-257.5 629.5,-276.5 775.5,-276.5 775.5,-257.5 629.5,-257.5"/>
<text text-anchor="middle" x="702.5" y="-264.5" font-family="Helvetica,sans-Serif" font-size="10.00" fill="#000000">drake/common/identifier.h</text>
</a>
</g>
</g>
<!-- Node9&#45;&gt;Node10 -->
<g id="edge13" class="edge">
<title>Node9&#45;&gt;Node10</title>
<path fill="none" stroke="#191970" d="M577.8635,-313.4554C605.2735,-303.239 641.1659,-289.8609 667.391,-280.0861"/>
<polygon fill="#191970" stroke="#191970" points="668.783,-283.3025 676.9309,-276.5303 666.3382,-276.7433 668.783,-283.3025"/>
</g>
<!-- Node10&#45;&gt;Node3 -->
<g id="edge18" class="edge">
<title>Node10&#45;&gt;Node3</title>
<path fill="none" stroke="#191970" d="M631.8666,-257.4634C590.7547,-250.4312 538.5196,-238.9111 494.5,-221 455.6073,-205.175 415.2065,-178.3939 389.2899,-159.65"/>
<polygon fill="#191970" stroke="#191970" points="391.2131,-156.7201 381.0792,-153.629 387.0736,-162.365 391.2131,-156.7201"/>
</g>
<!-- Node11 -->
<g id="node12" class="node">
<title>Node11</title>
<g id="a_node12"><a xlink:title=" ">
<polygon fill="#ffffff" stroke="#bfbfbf" points="970.5,-196 970.5,-215 1020.5,-215 1020.5,-196 970.5,-196"/>
<text text-anchor="middle" x="995.5" y="-203" font-family="Helvetica,sans-Serif" font-size="10.00" fill="#000000">atomic</text>
</a>
</g>
</g>
<!-- Node10&#45;&gt;Node11 -->
<g id="edge14" class="edge">
<title>Node10&#45;&gt;Node11</title>
<path fill="none" stroke="#191970" d="M775.6776,-259.0036C828.2033,-252.063 900.2343,-240.0695 961.5,-221 963.4047,-220.4071 965.3424,-219.7331 967.2776,-219.0059"/>
<polygon fill="#191970" stroke="#191970" points="968.8814,-222.1295 976.7698,-215.0568 966.1925,-215.6665 968.8814,-222.1295"/>
</g>
<!-- Node12 -->
<g id="node13" class="node">
<title>Node12</title>
<g id="a_node13"><a xlink:title=" ">
<polygon fill="#ffffff" stroke="#bfbfbf" points="1038.5,-196 1038.5,-215 1088.5,-215 1088.5,-196 1038.5,-196"/>
<text text-anchor="middle" x="1063.5" y="-203" font-family="Helvetica,sans-Serif" font-size="10.00" fill="#000000">cstdint</text>
</a>
</g>
</g>
<!-- Node10&#45;&gt;Node12 -->
<g id="edge15" class="edge">
<title>Node10&#45;&gt;Node12</title>
<path fill="none" stroke="#191970" d="M775.5241,-262.7604C842.6396,-257.4552 944.3296,-245.8368 1029.5,-221 1031.4618,-220.4279 1033.4555,-219.762 1035.4437,-219.0339"/>
<polygon fill="#191970" stroke="#191970" points="1037.2554,-222.0726 1045.1642,-215.0227 1034.5852,-215.6019 1037.2554,-222.0726"/>
</g>
<!-- Node13 -->
<g id="node14" class="node">
<title>Node13</title>
<g id="a_node14"><a xlink:title=" ">
<polygon fill="#ffffff" stroke="#bfbfbf" points="597,-129 597,-148 662,-148 662,-129 597,-129"/>
<text text-anchor="middle" x="629.5" y="-136" font-family="Helvetica,sans-Serif" font-size="10.00" fill="#000000">functional</text>
</a>
</g>
</g>
<!-- Node10&#45;&gt;Node13 -->
<g id="edge16" class="edge">
<title>Node10&#45;&gt;Node13</title>
<path fill="none" stroke="#191970" d="M697.0131,-257.3416C684.9114,-236.0393 655.7575,-184.7203 640.0111,-157.0025"/>
<polygon fill="#191970" stroke="#191970" points="643.0333,-155.2365 635.0505,-148.2705 636.9469,-158.6942 643.0333,-155.2365"/>
</g>
<!-- Node14 -->
<g id="node15" class="node">
<title>Node14</title>
<g id="a_node15"><a xlink:title=" ">
<polygon fill="#ffffff" stroke="#bfbfbf" points="680.5,-129 680.5,-148 724.5,-148 724.5,-129 680.5,-129"/>
<text text-anchor="middle" x="702.5" y="-136" font-family="Helvetica,sans-Serif" font-size="10.00" fill="#000000">string</text>
</a>
</g>
</g>
<!-- Node10&#45;&gt;Node14 -->
<g id="edge17" class="edge">
<title>Node10&#45;&gt;Node14</title>
<path fill="none" stroke="#191970" d="M702.5,-257.3416C702.5,-236.4114 702.5,-186.504 702.5,-158.4762"/>
<polygon fill="#191970" stroke="#191970" points="706.0001,-158.2704 702.5,-148.2705 699.0001,-158.2705 706.0001,-158.2704"/>
</g>
<!-- Node15 -->
<g id="node16" class="node">
<title>Node15</title>
<g id="a_node16"><a xlink:href="drake__throw_8h.html" target="_top" xlink:title="Provides a convenient wrapper to throw an exception when a condition is unmet.">
<polygon fill="#ffffff" stroke="#000000" points="781,-123.5 781,-153.5 902,-153.5 902,-123.5 781,-123.5"/>
<text text-anchor="start" x="789" y="-141.5" font-family="Helvetica,sans-Serif" font-size="10.00" fill="#000000">drake/common/drake</text>
<text text-anchor="middle" x="841.5" y="-130.5" font-family="Helvetica,sans-Serif" font-size="10.00" fill="#000000">_throw.h</text>
</a>
</g>
</g>
<!-- Node10&#45;&gt;Node15 -->
<g id="edge19" class="edge">
<title>Node10&#45;&gt;Node15</title>
<path fill="none" stroke="#191970" d="M712.9476,-257.3416C734.9715,-236.9814 786.6564,-189.2007 817.363,-160.8137"/>
<polygon fill="#191970" stroke="#191970" points="820.0891,-163.06 825.0562,-153.7016 815.3373,-157.9199 820.0891,-163.06"/>
</g>
<!-- Node16 -->
<g id="node17" class="node">
<title>Node16</title>
<g id="a_node17"><a xlink:href="hash_8h.html" target="_top" xlink:title=" ">
<polygon fill="#ffffff" stroke="#000000" points="827,-196 827,-215 952,-215 952,-196 827,-196"/>
<text text-anchor="middle" x="889.5" y="-203" font-family="Helvetica,sans-Serif" font-size="10.00" fill="#000000">drake/common/hash.h</text>
</a>
</g>
</g>
<!-- Node10&#45;&gt;Node16 -->
<g id="edge22" class="edge">
<title>Node10&#45;&gt;Node16</title>
<path fill="none" stroke="#191970" d="M731.7188,-257.3906C763.8307,-246.8298 815.549,-229.8208 850.9608,-218.1747"/>
<polygon fill="#191970" stroke="#191970" points="852.0804,-221.4909 860.4864,-215.0419 849.8935,-214.8413 852.0804,-221.4909"/>
</g>
<!-- Node23 -->
<g id="node24" class="node">
<title>Node23</title>
<g id="a_node24"><a xlink:href="never__destroyed_8h.html" target="_top" xlink:title=" ">
<polygon fill="#ffffff" stroke="#000000" points="503,-190.5 503,-220.5 624,-220.5 624,-190.5 503,-190.5"/>
<text text-anchor="start" x="511" y="-208.5" font-family="Helvetica,sans-Serif" font-size="10.00" fill="#000000">drake/common/never</text>
<text text-anchor="middle" x="563.5" y="-197.5" font-family="Helvetica,sans-Serif" font-size="10.00" fill="#000000">_destroyed.h</text>
</a>
</g>
</g>
<!-- Node10&#45;&gt;Node23 -->
<g id="edge36" class="edge">
<title>Node10&#45;&gt;Node23</title>
<path fill="none" stroke="#191970" d="M680.7813,-257.3906C661.0984,-248.682 631.5056,-235.5888 606.9712,-224.7336"/>
<polygon fill="#191970" stroke="#191970" points="608.0643,-221.3901 597.5032,-220.5446 605.232,-227.7915 608.0643,-221.3901"/>
</g>
<!-- Node15&#45;&gt;Node7 -->
<g id="edge21" class="edge">
<title>Node15&#45;&gt;Node7</title>
<path fill="none" stroke="#191970" d="M821.3045,-123.2967C809.3564,-114.302 794.0361,-102.7687 780.8862,-92.8694"/>
<polygon fill="#191970" stroke="#191970" points="782.7098,-89.8613 772.6156,-86.6432 778.4998,-95.4538 782.7098,-89.8613"/>
</g>
<!-- Node15&#45;&gt;Node8 -->
<g id="edge20" class="edge">
<title>Node15&#45;&gt;Node8</title>
<path fill="none" stroke="#191970" d="M839.3322,-123.2072C836.6342,-106.3442 831.2788,-78.6067 822.5,-56 818.8244,-46.5347 813.4666,-36.6549 808.5685,-28.4886"/>
<polygon fill="#191970" stroke="#191970" points="811.4208,-26.4482 803.158,-19.8167 805.4819,-30.1535 811.4208,-26.4482"/>
</g>
<!-- Node16&#45;&gt;Node1 -->
<g id="edge23" class="edge">
<title>Node16&#45;&gt;Node1</title>
<path fill="none" stroke="#191970" d="M929.7088,-195.9633C940.026,-193.7591 951.1373,-191.5954 961.5,-190 1130.9189,-163.9165 1180.3995,-200.0972 1345.5,-154 1347.4174,-153.4646 1349.3596,-152.8182 1351.2899,-152.0971"/>
<polygon fill="#191970" stroke="#191970" points="1352.8834,-155.2213 1360.672,-148.0389 1350.1043,-148.7966 1352.8834,-155.2213"/>
</g>
<!-- Node16&#45;&gt;Node2 -->
<g id="edge32" class="edge">
<title>Node16&#45;&gt;Node2</title>
<path fill="none" stroke="#191970" d="M826.8445,-199.9196C731.4207,-190.9868 554.334,-172.5842 493.5,-154 491.8383,-153.4924 490.1571,-152.9021 488.4819,-152.2542"/>
<polygon fill="#191970" stroke="#191970" points="489.69,-148.9608 479.1311,-148.0889 486.8416,-155.3551 489.69,-148.9608"/>
</g>
<!-- Node16&#45;&gt;Node7 -->
<g id="edge34" class="edge">
<title>Node16&#45;&gt;Node7</title>
<path fill="none" stroke="#191970" d="M844.3867,-195.9992C819.7567,-188.5564 790.6638,-175.697 772.5,-154 759.1187,-138.0158 754.4187,-114.5093 752.8919,-96.6726"/>
<polygon fill="#191970" stroke="#191970" points="756.385,-96.4515 752.3098,-86.6718 749.3969,-96.8583 756.385,-96.4515"/>
</g>
<!-- Node16&#45;&gt;Node8 -->
<g id="edge31" class="edge">
<title>Node16&#45;&gt;Node8</title>
<path fill="none" stroke="#191970" d="M930.8877,-195.9872C940.8799,-193.8577 951.5467,-191.7223 961.5,-190 1085.0299,-168.6248 1312.3074,-222.0816 1235.5,-123 1186.9031,-60.3099 942.6507,-26.2838 840.9962,-14.6498"/>
<polygon fill="#191970" stroke="#191970" points="841.3695,-11.1698 831.041,-13.5301 840.5871,-18.1259 841.3695,-11.1698"/>
</g>
<!-- Node16&#45;&gt;Node13 -->
<g id="edge25" class="edge">
<title>Node16&#45;&gt;Node13</title>
<path fill="none" stroke="#191970" d="M841.8564,-195.9898C797.3935,-186.7043 729.3993,-171.4523 671.5,-154 668.8698,-153.2072 666.1654,-152.3379 663.4572,-151.4282"/>
<polygon fill="#191970" stroke="#191970" points="664.355,-148.034 653.7601,-148.0224 662.0353,-154.6385 664.355,-148.034"/>
</g>
<!-- Node16&#45;&gt;Node14 -->
<g id="edge30" class="edge">
<title>Node16&#45;&gt;Node14</title>
<path fill="none" stroke="#191970" d="M859.1696,-195.9245C828.5012,-186.0629 779.8557,-169.9276 738.5,-154 736.8847,-153.3779 735.235,-152.7264 733.5736,-152.0574"/>
<polygon fill="#191970" stroke="#191970" points="734.6674,-148.7219 724.0898,-148.1192 731.9829,-155.1867 734.6674,-148.7219"/>
</g>
<!-- Node16&#45;&gt;Node15 -->
<g id="edge35" class="edge">
<title>Node16&#45;&gt;Node15</title>
<path fill="none" stroke="#191970" d="M882.6228,-195.9005C876.3017,-187.0773 866.674,-173.6387 858.3231,-161.9822"/>
<polygon fill="#191970" stroke="#191970" points="860.931,-159.6125 852.2619,-153.5218 855.2406,-163.6893 860.931,-159.6125"/>
</g>
<!-- Node17 -->
<g id="node18" class="node">
<title>Node17</title>
<g id="a_node18"><a xlink:title=" ">
<polygon fill="#ffffff" stroke="#bfbfbf" points="1283,-129 1283,-148 1336,-148 1336,-129 1283,-129"/>
<text text-anchor="middle" x="1309.5" y="-136" font-family="Helvetica,sans-Serif" font-size="10.00" fill="#000000">cstddef</text>
</a>
</g>
</g>
<!-- Node16&#45;&gt;Node17 -->
<g id="edge24" class="edge">
<title>Node16&#45;&gt;Node17</title>
<path fill="none" stroke="#191970" d="M930.4918,-195.9686C940.5934,-193.8154 951.4088,-191.674 961.5,-190 1097.0273,-167.5183 1135.0284,-186.5334 1268.5,-154 1271.5081,-153.2668 1274.5958,-152.3751 1277.6616,-151.3938"/>
<polygon fill="#191970" stroke="#191970" points="1278.9722,-154.6434 1287.2564,-148.0387 1276.6615,-148.0358 1278.9722,-154.6434"/>
</g>
<!-- Node18 -->
<g id="node19" class="node">
<title>Node18</title>
<g id="a_node19"><a xlink:title=" ">
<polygon fill="#ffffff" stroke="#bfbfbf" points="920.5,-129 920.5,-148 980.5,-148 980.5,-129 920.5,-129"/>
<text text-anchor="middle" x="950.5" y="-136" font-family="Helvetica,sans-Serif" font-size="10.00" fill="#000000">iostream</text>
</a>
</g>
</g>
<!-- Node16&#45;&gt;Node18 -->
<g id="edge26" class="edge">
<title>Node16&#45;&gt;Node18</title>
<path fill="none" stroke="#191970" d="M898.2398,-195.9005C907.7522,-185.4525 923.157,-168.5325 934.7825,-155.7635"/>
<polygon fill="#191970" stroke="#191970" points="937.6322,-157.8324 941.7764,-148.0817 932.4561,-153.1198 937.6322,-157.8324"/>
</g>
<!-- Node19 -->
<g id="node20" class="node">
<title>Node19</title>
<g id="a_node20"><a xlink:title=" ">
<polygon fill="#ffffff" stroke="#bfbfbf" points="998.5,-129 998.5,-148 1036.5,-148 1036.5,-129 998.5,-129"/>
<text text-anchor="middle" x="1017.5" y="-136" font-family="Helvetica,sans-Serif" font-size="10.00" fill="#000000">map</text>
</a>
</g>
</g>
<!-- Node16&#45;&gt;Node19 -->
<g id="edge27" class="edge">
<title>Node16&#45;&gt;Node19</title>
<path fill="none" stroke="#191970" d="M908.3871,-195.9858C928.5594,-185.7747 961.4232,-168.9967 989.5,-154 990.1616,-153.6466 990.8313,-153.2874 991.5064,-152.9239"/>
<polygon fill="#191970" stroke="#191970" points="993.2646,-155.9518 1000.3674,-148.0904 989.9125,-149.8066 993.2646,-155.9518"/>
</g>
<!-- Node20 -->
<g id="node21" class="node">
<title>Node20</title>
<g id="a_node21"><a xlink:title=" ">
<polygon fill="#ffffff" stroke="#bfbfbf" points="1054.5,-129 1054.5,-148 1110.5,-148 1110.5,-129 1054.5,-129"/>
<text text-anchor="middle" x="1082.5" y="-136" font-family="Helvetica,sans-Serif" font-size="10.00" fill="#000000">optional</text>
</a>
</g>
</g>
<!-- Node16&#45;&gt;Node20 -->
<g id="edge28" class="edge">
<title>Node16&#45;&gt;Node20</title>
<path fill="none" stroke="#191970" d="M920.8268,-195.947C952.5046,-186.1029 1002.7562,-169.9809 1045.5,-154 1047.3103,-153.3232 1049.1628,-152.611 1051.0272,-151.879"/>
<polygon fill="#191970" stroke="#191970" points="1052.3484,-155.1201 1060.3072,-148.1267 1049.7244,-148.6306 1052.3484,-155.1201"/>
</g>
<!-- Node21 -->
<g id="node22" class="node">
<title>Node21</title>
<g id="a_node22"><a xlink:title=" ">
<polygon fill="#ffffff" stroke="#bfbfbf" points="1128.5,-129 1128.5,-148 1160.5,-148 1160.5,-129 1128.5,-129"/>
<text text-anchor="middle" x="1144.5" y="-136" font-family="Helvetica,sans-Serif" font-size="10.00" fill="#000000">set</text>
</a>
</g>
</g>
<!-- Node16&#45;&gt;Node21 -->
<g id="edge29" class="edge">
<title>Node16&#45;&gt;Node21</title>
<path fill="none" stroke="#191970" d="M933.8835,-195.9603C998.2681,-182.0641 1110.8816,-157.5189 1119.5,-154 1120.3481,-153.6537 1121.2,-153.2799 1122.0512,-152.8841"/>
<polygon fill="#191970" stroke="#191970" points="1123.8149,-155.909 1130.9249,-148.0541 1120.4684,-149.7607 1123.8149,-155.909"/>
</g>
<!-- Node22 -->
<g id="node23" class="node">
<title>Node22</title>
<g id="a_node23"><a xlink:title=" ">
<polygon fill="#ffffff" stroke="#bfbfbf" points="1179,-129 1179,-148 1226,-148 1226,-129 1179,-129"/>
<text text-anchor="middle" x="1202.5" y="-136" font-family="Helvetica,sans-Serif" font-size="10.00" fill="#000000">vector</text>
</a>
</g>
</g>
<!-- Node16&#45;&gt;Node22 -->
<g id="edge33" class="edge">
<title>Node16&#45;&gt;Node22</title>
<path fill="none" stroke="#191970" d="M932.4634,-195.9519C942.0081,-193.9142 952.0859,-191.8272 961.5,-190 1053.6001,-172.1239 1080.0181,-182.1952 1169.5,-154 1171.3564,-153.4151 1173.243,-152.747 1175.1256,-152.0242"/>
<polygon fill="#191970" stroke="#191970" points="1176.5268,-155.2317 1184.3493,-148.0861 1173.7781,-148.794 1176.5268,-155.2317"/>
</g>
<!-- Node23&#45;&gt;Node2 -->
<g id="edge39" class="edge">
<title>Node23&#45;&gt;Node2</title>
<path fill="none" stroke="#191970" d="M540.8336,-190.4639C524.3451,-179.526 502.0996,-164.769 485.5278,-153.7759"/>
<polygon fill="#191970" stroke="#191970" points="487.2455,-150.7153 476.9776,-148.1039 483.3759,-156.5485 487.2455,-150.7153"/>
</g>
<!-- Node23&#45;&gt;Node3 -->
<g id="edge40" class="edge">
<title>Node23&#45;&gt;Node3</title>
<path fill="none" stroke="#191970" d="M518.1673,-190.4639C488.1237,-180.499 448.5235,-167.3642 416.6538,-156.7936"/>
<polygon fill="#191970" stroke="#191970" points="417.6239,-153.4279 407.0305,-153.6017 415.4201,-160.072 417.6239,-153.4279"/>
</g>
<!-- Node23&#45;&gt;Node8 -->
<g id="edge38" class="edge">
<title>Node23&#45;&gt;Node8</title>
<path fill="none" stroke="#191970" d="M565.0693,-190.4963C567.5409,-172.8915 573.6933,-143.5057 588.5,-123 628.3675,-67.7879 703.777,-36.7061 752.0095,-21.6496"/>
<polygon fill="#191970" stroke="#191970" points="753.3031,-24.9153 761.8667,-18.6771 751.282,-18.2134 753.3031,-24.9153"/>
</g>
<!-- Node24 -->
<g id="node25" class="node">
<title>Node24</title>
<g id="a_node25"><a xlink:title=" ">
<polygon fill="#ffffff" stroke="#bfbfbf" points="503,-129 503,-148 540,-148 540,-129 503,-129"/>
<text text-anchor="middle" x="521.5" y="-136" font-family="Helvetica,sans-Serif" font-size="10.00" fill="#000000">new</text>
</a>
</g>
</g>
<!-- Node23&#45;&gt;Node24 -->
<g id="edge37" class="edge">
<title>Node23&#45;&gt;Node24</title>
<path fill="none" stroke="#191970" d="M553.9695,-190.2967C547.7434,-180.3645 539.577,-167.3371 532.9918,-156.8321"/>
<polygon fill="#191970" stroke="#191970" points="535.7666,-154.6689 527.4897,-148.055 529.8356,-158.3868 535.7666,-154.6689"/>
</g>
</g>
</svg>
