<?xml version="1.0" encoding="UTF-8" standalone="no"?>
<!DOCTYPE svg PUBLIC "-//W3C//DTD SVG 1.1//EN"
 "http://www.w3.org/Graphics/SVG/1.1/DTD/svg11.dtd">
<!-- Generated by graphviz version 2.40.1 (20161225.0304)
 -->
<!-- Title: drake/systems/primitives/signal_log.h Pages: 1 -->
<svg width="593pt" height="229pt"
 viewBox="0.00 0.00 593.00 229.00" xmlns="http://www.w3.org/2000/svg" xmlns:xlink="http://www.w3.org/1999/xlink">
<g id="graph0" class="graph" transform="scale(1 1) rotate(0) translate(4 225)">
<title>drake/systems/primitives/signal_log.h</title>
<polygon fill="#ffffff" stroke="transparent" points="-4,4 -4,-225 589,-225 589,4 -4,4"/>
<!-- Node0 -->
<g id="node1" class="node">
<title>Node0</title>
<g id="a_node1"><a xlink:title=" ">
<polygon fill="#bfbfbf" stroke="#000000" points="46,-190.5 46,-220.5 187,-220.5 187,-190.5 46,-190.5"/>
<text text-anchor="start" x="54" y="-208.5" font-family="Helvetica,sans-Serif" font-size="10.00" fill="#000000">drake/systems/primitives</text>
<text text-anchor="middle" x="116.5" y="-197.5" font-family="Helvetica,sans-Serif" font-size="10.00" fill="#000000">/signal_log.h</text>
</a>
</g>
</g>
<!-- Node1 -->
<g id="node2" class="node">
<title>Node1</title>
<g id="a_node2"><a xlink:href="drake__copyable_8h.html" target="_top" xlink:title="Provides careful macros to selectively enable or disable the special member functions for copy&#45;constr...">
<polygon fill="#ffffff" stroke="#000000" points="0,-56.5 0,-86.5 121,-86.5 121,-56.5 0,-56.5"/>
<text text-anchor="start" x="8" y="-74.5" font-family="Helvetica,sans-Serif" font-size="10.00" fill="#000000">drake/common/drake</text>
<text text-anchor="middle" x="60.5" y="-63.5" font-family="Helvetica,sans-Serif" font-size="10.00" fill="#000000">_copyable.h</text>
</a>
</g>
</g>
<!-- Node0&#45;&gt;Node1 -->
<g id="edge1" class="edge">
<title>Node0&#45;&gt;Node1</title>
<path fill="none" stroke="#191970" d="M110.1849,-190.389C100.6061,-167.4681 82.3029,-123.6712 70.7854,-96.1116"/>
<polygon fill="#191970" stroke="#191970" points="73.9632,-94.6385 66.8779,-86.7614 67.5045,-97.3377 73.9632,-94.6385"/>
</g>
<!-- Node2 -->
<g id="node3" class="node">
<title>Node2</title>
<g id="a_node3"><a xlink:href="eigen__types_8h.html" target="_top" xlink:title="This file contains abbreviated definitions for certain specializations of Eigen::Matrix that are comm...">
<polygon fill="#ffffff" stroke="#000000" points="140.5,-123.5 140.5,-153.5 260.5,-153.5 260.5,-123.5 140.5,-123.5"/>
<text text-anchor="start" x="148.5" y="-141.5" font-family="Helvetica,sans-Serif" font-size="10.00" fill="#000000">drake/common/eigen</text>
<text text-anchor="middle" x="200.5" y="-130.5" font-family="Helvetica,sans-Serif" font-size="10.00" fill="#000000">_types.h</text>
</a>
</g>
</g>
<!-- Node0&#45;&gt;Node2 -->
<g id="edge2" class="edge">
<title>Node0&#45;&gt;Node2</title>
<path fill="none" stroke="#191970" d="M135.5609,-190.2967C146.7304,-181.3876 161.0223,-169.9882 173.3533,-160.1527"/>
<polygon fill="#191970" stroke="#191970" points="175.8792,-162.615 181.5145,-153.6432 171.5143,-157.1426 175.8792,-162.615"/>
</g>
<!-- Node2&#45;&gt;Node1 -->
<g id="edge8" class="edge">
<title>Node2&#45;&gt;Node1</title>
<path fill="none" stroke="#191970" d="M169.0813,-123.4639C149.137,-113.9191 123.1161,-101.4663 101.5471,-91.144"/>
<polygon fill="#191970" stroke="#191970" points="102.8294,-87.8775 92.2983,-86.7177 99.8076,-94.1917 102.8294,-87.8775"/>
</g>
<!-- Node3 -->
<g id="node4" class="node">
<title>Node3</title>
<g id="a_node4"><a xlink:title=" ">
<polygon fill="#ffffff" stroke="#bfbfbf" points="139,-62 139,-81 184,-81 184,-62 139,-62"/>
<text text-anchor="middle" x="161.5" y="-69" font-family="Helvetica,sans-Serif" font-size="10.00" fill="#000000">utility</text>
</a>
</g>
</g>
<!-- Node2&#45;&gt;Node3 -->
<g id="edge3" class="edge">
<title>Node2&#45;&gt;Node3</title>
<path fill="none" stroke="#191970" d="M191.6503,-123.2967C185.8689,-113.3645 178.2858,-100.3371 172.1709,-89.8321"/>
<polygon fill="#191970" stroke="#191970" points="175.1175,-87.9367 167.0618,-81.055 169.0677,-91.4582 175.1175,-87.9367"/>
</g>
<!-- Node4 -->
<g id="node5" class="node">
<title>Node4</title>
<g id="a_node5"><a xlink:title=" ">
<polygon fill="#ffffff" stroke="#bfbfbf" points="202,-62 202,-81 279,-81 279,-62 202,-62"/>
<text text-anchor="middle" x="240.5" y="-69" font-family="Helvetica,sans-Serif" font-size="10.00" fill="#000000">Eigen/Dense</text>
</a>
</g>
</g>
<!-- Node2&#45;&gt;Node4 -->
<g id="edge4" class="edge">
<title>Node2&#45;&gt;Node4</title>
<path fill="none" stroke="#191970" d="M209.5766,-123.2967C215.5063,-113.3645 223.2838,-100.3371 229.5555,-89.8321"/>
<polygon fill="#191970" stroke="#191970" points="232.6746,-91.4354 234.7955,-81.055 226.6642,-87.8471 232.6746,-91.4354"/>
</g>
<!-- Node5 -->
<g id="node6" class="node">
<title>Node5</title>
<g id="a_node6"><a xlink:href="constants_8h.html" target="_top" xlink:title=" ">
<polygon fill="#ffffff" stroke="#000000" points="297,-62 297,-81 446,-81 446,-62 297,-62"/>
<text text-anchor="middle" x="371.5" y="-69" font-family="Helvetica,sans-Serif" font-size="10.00" fill="#000000">drake/common/constants.h</text>
</a>
</g>
</g>
<!-- Node2&#45;&gt;Node5 -->
<g id="edge5" class="edge">
<title>Node2&#45;&gt;Node5</title>
<path fill="none" stroke="#191970" d="M238.8757,-123.4639C268.472,-111.8677 309.024,-95.9789 337.4696,-84.8335"/>
<polygon fill="#191970" stroke="#191970" points="338.9545,-88.0109 346.9885,-81.1039 336.4008,-81.4933 338.9545,-88.0109"/>
</g>
<!-- Node6 -->
<g id="node7" class="node">
<title>Node6</title>
<g id="a_node7"><a xlink:href="drake__assert_8h.html" target="_top" xlink:title="Provides Drake&#39;s assertion implementation.">
<polygon fill="#ffffff" stroke="#000000" points="464,-56.5 464,-86.5 585,-86.5 585,-56.5 464,-56.5"/>
<text text-anchor="start" x="472" y="-74.5" font-family="Helvetica,sans-Serif" font-size="10.00" fill="#000000">drake/common/drake</text>
<text text-anchor="middle" x="524.5" y="-63.5" font-family="Helvetica,sans-Serif" font-size="10.00" fill="#000000">_assert.h</text>
</a>
</g>
</g>
<!-- Node2&#45;&gt;Node6 -->
<g id="edge6" class="edge">
<title>Node2&#45;&gt;Node6</title>
<path fill="none" stroke="#191970" d="M260.6,-126.7441C309.9984,-116.9943 382.0809,-102.5688 453.8167,-87.3375"/>
<polygon fill="#191970" stroke="#191970" points="454.8823,-90.6892 463.9342,-85.1834 453.4245,-83.8426 454.8823,-90.6892"/>
</g>
<!-- Node7 -->
<g id="node8" class="node">
<title>Node7</title>
<g id="a_node8"><a xlink:title=" ">
<polygon fill="#ffffff" stroke="#bfbfbf" points="490,-.5 490,-19.5 559,-19.5 559,-.5 490,-.5"/>
<text text-anchor="middle" x="524.5" y="-7.5" font-family="Helvetica,sans-Serif" font-size="10.00" fill="#000000">type_traits</text>
</a>
</g>
</g>
<!-- Node6&#45;&gt;Node7 -->
<g id="edge7" class="edge">
<title>Node6&#45;&gt;Node7</title>
<path fill="none" stroke="#191970" d="M524.5,-56.2977C524.5,-48.3834 524.5,-38.6043 524.5,-30.0759"/>
<polygon fill="#191970" stroke="#191970" points="528.0001,-29.8469 524.5,-19.8469 521.0001,-29.847 528.0001,-29.8469"/>
</g>
</g>
</svg>
