<?xml version="1.0" encoding="UTF-8" standalone="no"?>
<!DOCTYPE svg PUBLIC "-//W3C//DTD SVG 1.1//EN"
 "http://www.w3.org/Graphics/SVG/1.1/DTD/svg11.dtd">
<!-- Generated by graphviz version 2.40.1 (20161225.0304)
 -->
<!-- Title: drake/systems/analysis/simulator_status.h Pages: 1 -->
<svg width="752pt" height="173pt"
 viewBox="0.00 0.00 751.50 173.00" xmlns="http://www.w3.org/2000/svg" xmlns:xlink="http://www.w3.org/1999/xlink">
<g id="graph0" class="graph" transform="scale(1 1) rotate(0) translate(4 169)">
<title>drake/systems/analysis/simulator_status.h</title>
<polygon fill="#ffffff" stroke="transparent" points="-4,4 -4,-169 747.5,-169 747.5,4 -4,4"/>
<!-- Node89 -->
<g id="node1" class="node">
<title>Node89</title>
<g id="a_node1"><a xlink:title=" ">
<polygon fill="#bfbfbf" stroke="#000000" points="300,-134.5 300,-164.5 432,-164.5 432,-134.5 300,-134.5"/>
<text text-anchor="start" x="308" y="-152.5" font-family="Helvetica,sans-Serif" font-size="10.00" fill="#000000">drake/systems/analysis</text>
<text text-anchor="middle" x="366" y="-141.5" font-family="Helvetica,sans-Serif" font-size="10.00" fill="#000000">/simulator_status.h</text>
</a>
</g>
</g>
<!-- Node90 -->
<g id="node2" class="node">
<title>Node90</title>
<g id="a_node2"><a xlink:href="simulator_8h.html" target="_top" xlink:title=" ">
<polygon fill="#ffffff" stroke="#000000" points="300,-67.5 300,-97.5 432,-97.5 432,-67.5 300,-67.5"/>
<text text-anchor="start" x="308" y="-85.5" font-family="Helvetica,sans-Serif" font-size="10.00" fill="#000000">drake/systems/analysis</text>
<text text-anchor="middle" x="366" y="-74.5" font-family="Helvetica,sans-Serif" font-size="10.00" fill="#000000">/simulator.h</text>
</a>
</g>
</g>
<!-- Node89&#45;&gt;Node90 -->
<g id="edge1" class="edge">
<title>Node89&#45;&gt;Node90</title>
<path fill="none" stroke="#191970" d="M366,-124.0249C366,-115.128 366,-105.4287 366,-97.6432"/>
<polygon fill="#191970" stroke="#191970" points="362.5001,-124.2966 366,-134.2967 369.5001,-124.2967 362.5001,-124.2966"/>
</g>
<!-- Node91 -->
<g id="node3" class="node">
<title>Node91</title>
<g id="a_node3"><a xlink:href="monte__carlo_8h.html" target="_top" xlink:title=" ">
<polygon fill="#ffffff" stroke="#000000" points="0,-.5 0,-30.5 132,-30.5 132,-.5 0,-.5"/>
<text text-anchor="start" x="8" y="-18.5" font-family="Helvetica,sans-Serif" font-size="10.00" fill="#000000">drake/systems/analysis</text>
<text text-anchor="middle" x="66" y="-7.5" font-family="Helvetica,sans-Serif" font-size="10.00" fill="#000000">/monte_carlo.h</text>
</a>
</g>
</g>
<!-- Node90&#45;&gt;Node91 -->
<g id="edge2" class="edge">
<title>Node90&#45;&gt;Node91</title>
<path fill="none" stroke="#191970" d="M289.933,-65.5117C241.2271,-54.6341 178.6535,-40.6593 132.0386,-30.2486"/>
<polygon fill="#191970" stroke="#191970" points="289.2699,-68.9498 299.7923,-67.7136 290.7957,-62.1181 289.2699,-68.9498"/>
</g>
<!-- Node92 -->
<g id="node4" class="node">
<title>Node92</title>
<g id="a_node4"><a xlink:href="simulator__flags_8h.html" target="_top" xlink:title=" ">
<polygon fill="#ffffff" stroke="#000000" points="150,-.5 150,-30.5 282,-30.5 282,-.5 150,-.5"/>
<text text-anchor="start" x="158" y="-18.5" font-family="Helvetica,sans-Serif" font-size="10.00" fill="#000000">drake/systems/analysis</text>
<text text-anchor="middle" x="216" y="-7.5" font-family="Helvetica,sans-Serif" font-size="10.00" fill="#000000">/simulator_flags.h</text>
</a>
</g>
</g>
<!-- Node90&#45;&gt;Node92 -->
<g id="edge3" class="edge">
<title>Node90&#45;&gt;Node92</title>
<path fill="none" stroke="#191970" d="M323.0445,-63.3132C299.7911,-52.9267 271.4763,-40.2794 249.8097,-30.6017"/>
<polygon fill="#191970" stroke="#191970" points="321.7791,-66.5812 332.3371,-67.4639 324.6339,-60.1898 321.7791,-66.5812"/>
</g>
<!-- Node93 -->
<g id="node5" class="node">
<title>Node93</title>
<g id="a_node5"><a xlink:href="simulator__gflags_8h.html" target="_top" xlink:title="This file defines gflags settings to control Simulator settings.">
<polygon fill="#ffffff" stroke="#000000" points="300,-.5 300,-30.5 432,-30.5 432,-.5 300,-.5"/>
<text text-anchor="start" x="308" y="-18.5" font-family="Helvetica,sans-Serif" font-size="10.00" fill="#000000">drake/systems/analysis</text>
<text text-anchor="middle" x="366" y="-7.5" font-family="Helvetica,sans-Serif" font-size="10.00" fill="#000000">/simulator_gflags.h</text>
</a>
</g>
</g>
<!-- Node90&#45;&gt;Node93 -->
<g id="edge4" class="edge">
<title>Node90&#45;&gt;Node93</title>
<path fill="none" stroke="#191970" d="M366,-57.0249C366,-48.128 366,-38.4287 366,-30.6432"/>
<polygon fill="#191970" stroke="#191970" points="362.5001,-57.2966 366,-67.2967 369.5001,-57.2967 362.5001,-57.2966"/>
</g>
<!-- Node94 -->
<g id="node6" class="node">
<title>Node94</title>
<g id="a_node6"><a xlink:href="simulator__print__stats_8h.html" target="_top" xlink:title=" ">
<polygon fill="#ffffff" stroke="#000000" points="450,-.5 450,-30.5 582,-30.5 582,-.5 450,-.5"/>
<text text-anchor="start" x="458" y="-18.5" font-family="Helvetica,sans-Serif" font-size="10.00" fill="#000000">drake/systems/analysis</text>
<text text-anchor="middle" x="516" y="-7.5" font-family="Helvetica,sans-Serif" font-size="10.00" fill="#000000">/simulator_print_stats.h</text>
</a>
</g>
</g>
<!-- Node90&#45;&gt;Node94 -->
<g id="edge5" class="edge">
<title>Node90&#45;&gt;Node94</title>
<path fill="none" stroke="#191970" d="M408.9555,-63.3132C432.2089,-52.9267 460.5237,-40.2794 482.1903,-30.6017"/>
<polygon fill="#191970" stroke="#191970" points="407.3661,-60.1898 399.6629,-67.4639 410.2209,-66.5812 407.3661,-60.1898"/>
</g>
<!-- Node95 -->
<g id="node7" class="node">
<title>Node95</title>
<g id="a_node7"><a xlink:href="dynamic__programming_8h.html" target="_top" xlink:title=" ">
<polygon fill="#ffffff" stroke="#000000" points="600.5,-.5 600.5,-30.5 743.5,-30.5 743.5,-.5 600.5,-.5"/>
<text text-anchor="start" x="608.5" y="-18.5" font-family="Helvetica,sans-Serif" font-size="10.00" fill="#000000">drake/systems/controllers</text>
<text text-anchor="middle" x="672" y="-7.5" font-family="Helvetica,sans-Serif" font-size="10.00" fill="#000000">/dynamic_programming.h</text>
</a>
</g>
</g>
<!-- Node90&#45;&gt;Node95 -->
<g id="edge6" class="edge">
<title>Node90&#45;&gt;Node95</title>
<path fill="none" stroke="#191970" d="M442.0316,-65.8526C491.517,-55.0175 555.528,-41.002 603.4467,-30.51"/>
<polygon fill="#191970" stroke="#191970" points="441.0407,-62.4865 432.0207,-68.0445 442.5379,-69.3245 441.0407,-62.4865"/>
</g>
</g>
</svg>
