<?xml version="1.0" encoding="UTF-8" standalone="no"?>
<!DOCTYPE svg PUBLIC "-//W3C//DTD SVG 1.1//EN"
 "http://www.w3.org/Graphics/SVG/1.1/DTD/svg11.dtd">
<!-- Generated by graphviz version 2.40.1 (20161225.0304)
 -->
<!-- Title: drake/systems/framework/single_output_vector_source.h Pages: 1 -->
<svg width="385pt" height="195pt"
 viewBox="0.00 0.00 384.50 195.00" xmlns="http://www.w3.org/2000/svg" xmlns:xlink="http://www.w3.org/1999/xlink">
<g id="graph0" class="graph" transform="scale(1 1) rotate(0) translate(4 191)">
<title>drake/systems/framework/single_output_vector_source.h</title>
<polygon fill="#ffffff" stroke="transparent" points="-4,4 -4,-191 380.5,-191 380.5,4 -4,4"/>
<!-- Node118 -->
<g id="node1" class="node">
<title>Node118</title>
<g id="a_node1"><a xlink:title=" ">
<polygon fill="#bfbfbf" stroke="#000000" points="152.5,-145.5 152.5,-186.5 297.5,-186.5 297.5,-145.5 152.5,-145.5"/>
<text text-anchor="start" x="160.5" y="-174.5" font-family="Helvetica,sans-Serif" font-size="10.00" fill="#000000">drake/systems/framework</text>
<text text-anchor="start" x="160.5" y="-163.5" font-family="Helvetica,sans-Serif" font-size="10.00" fill="#000000">/single_output_vector</text>
<text text-anchor="middle" x="225" y="-152.5" font-family="Helvetica,sans-Serif" font-size="10.00" fill="#000000">_source.h</text>
</a>
</g>
</g>
<!-- Node119 -->
<g id="node2" class="node">
<title>Node119</title>
<g id="a_node2"><a xlink:href="constant__vector__source_8h.html" target="_top" xlink:title=" ">
<polygon fill="#ffffff" stroke="#000000" points="73,-78.5 73,-108.5 217,-108.5 217,-78.5 73,-78.5"/>
<text text-anchor="start" x="81" y="-96.5" font-family="Helvetica,sans-Serif" font-size="10.00" fill="#000000">drake/systems/primitives</text>
<text text-anchor="middle" x="145" y="-85.5" font-family="Helvetica,sans-Serif" font-size="10.00" fill="#000000">/constant_vector_source.h</text>
</a>
</g>
</g>
<!-- Node118&#45;&gt;Node119 -->
<g id="edge1" class="edge">
<title>Node118&#45;&gt;Node119</title>
<path fill="none" stroke="#191970" d="M194.7456,-138.582C183.5302,-128.418 171.2264,-117.2677 161.6611,-108.5991"/>
<polygon fill="#191970" stroke="#191970" points="192.529,-141.2966 202.2892,-145.4183 197.2296,-136.1096 192.529,-141.2966"/>
</g>
<!-- Node122 -->
<g id="node5" class="node">
<title>Node122</title>
<g id="a_node5"><a xlink:href="trajectory__source_8h.html" target="_top" xlink:title=" ">
<polygon fill="#ffffff" stroke="#000000" points="235.5,-78.5 235.5,-108.5 376.5,-108.5 376.5,-78.5 235.5,-78.5"/>
<text text-anchor="start" x="243.5" y="-96.5" font-family="Helvetica,sans-Serif" font-size="10.00" fill="#000000">drake/systems/primitives</text>
<text text-anchor="middle" x="306" y="-85.5" font-family="Helvetica,sans-Serif" font-size="10.00" fill="#000000">/trajectory_source.h</text>
</a>
</g>
</g>
<!-- Node118&#45;&gt;Node122 -->
<g id="edge4" class="edge">
<title>Node118&#45;&gt;Node122</title>
<path fill="none" stroke="#191970" d="M255.6325,-138.582C266.9881,-128.418 279.4458,-117.2677 289.1307,-108.5991"/>
<polygon fill="#191970" stroke="#191970" points="253.1117,-136.1411 247.9947,-145.4183 257.7802,-141.3569 253.1117,-136.1411"/>
</g>
<!-- Node120 -->
<g id="node3" class="node">
<title>Node120</title>
<g id="a_node3"><a xlink:href="controlled__spring__mass__system_8h.html" target="_top" xlink:title=" ">
<polygon fill="#ffffff" stroke="#000000" points="0,-.5 0,-41.5 134,-41.5 134,-.5 0,-.5"/>
<text text-anchor="start" x="8" y="-29.5" font-family="Helvetica,sans-Serif" font-size="10.00" fill="#000000">drake/systems/analysis</text>
<text text-anchor="start" x="8" y="-18.5" font-family="Helvetica,sans-Serif" font-size="10.00" fill="#000000">/test_utilities/controlled</text>
<text text-anchor="middle" x="67" y="-7.5" font-family="Helvetica,sans-Serif" font-size="10.00" fill="#000000">_spring_mass_system.h</text>
</a>
</g>
</g>
<!-- Node119&#45;&gt;Node120 -->
<g id="edge2" class="edge">
<title>Node119&#45;&gt;Node120</title>
<path fill="none" stroke="#191970" d="M121.3746,-71.5405C111.1053,-61.9953 99.1427,-50.8762 89.0568,-41.5015"/>
<polygon fill="#191970" stroke="#191970" points="119.1309,-74.2334 128.8383,-78.478 123.8966,-69.1062 119.1309,-74.2334"/>
</g>
<!-- Node121 -->
<g id="node4" class="node">
<title>Node121</title>
<g id="a_node4"><a xlink:href="pid__controlled__system_8h.html" target="_top" xlink:title=" ">
<polygon fill="#ffffff" stroke="#000000" points="152.5,-6 152.5,-36 295.5,-36 295.5,-6 152.5,-6"/>
<text text-anchor="start" x="160.5" y="-24" font-family="Helvetica,sans-Serif" font-size="10.00" fill="#000000">drake/systems/controllers</text>
<text text-anchor="middle" x="224" y="-13" font-family="Helvetica,sans-Serif" font-size="10.00" fill="#000000">/pid_controlled_system.h</text>
</a>
</g>
</g>
<!-- Node119&#45;&gt;Node121 -->
<g id="edge3" class="edge">
<title>Node119&#45;&gt;Node121</title>
<path fill="none" stroke="#191970" d="M168.8004,-71.6579C181.3517,-60.1393 196.4289,-46.3026 207.6521,-36.0028"/>
<polygon fill="#191970" stroke="#191970" points="166.37,-69.1378 161.3689,-78.478 171.1031,-74.2951 166.37,-69.1378"/>
</g>
</g>
</svg>
