<?xml version="1.0" encoding="UTF-8" standalone="no"?>
<!DOCTYPE svg PUBLIC "-//W3C//DTD SVG 1.1//EN"
 "http://www.w3.org/Graphics/SVG/1.1/DTD/svg11.dtd">
<!-- Generated by graphviz version 2.40.1 (20161225.0304)
 -->
<!-- Title: drake/solvers/solver_interface.h Pages: 1 -->
<svg width="1768pt" height="307pt"
 viewBox="0.00 0.00 1768.00 307.00" xmlns="http://www.w3.org/2000/svg" xmlns:xlink="http://www.w3.org/1999/xlink">
<g id="graph0" class="graph" transform="scale(1 1) rotate(0) translate(4 303)">
<title>drake/solvers/solver_interface.h</title>
<polygon fill="#ffffff" stroke="transparent" points="-4,4 -4,-303 1764,-303 1764,4 -4,4"/>
<!-- Node99 -->
<g id="node1" class="node">
<title>Node99</title>
<g id="a_node1"><a xlink:title=" ">
<polygon fill="#bfbfbf" stroke="#000000" points="736,-268.5 736,-298.5 852,-298.5 852,-268.5 736,-268.5"/>
<text text-anchor="start" x="744" y="-286.5" font-family="Helvetica,sans-Serif" font-size="10.00" fill="#000000">drake/solvers/solver</text>
<text text-anchor="middle" x="794" y="-275.5" font-family="Helvetica,sans-Serif" font-size="10.00" fill="#000000">_interface.h</text>
</a>
</g>
</g>
<!-- Node100 -->
<g id="node2" class="node">
<title>Node100</title>
<g id="a_node2"><a xlink:href="choose__best__solver_8h.html" target="_top" xlink:title=" ">
<polygon fill="#ffffff" stroke="#000000" points="666,-201.5 666,-231.5 786,-231.5 786,-201.5 666,-201.5"/>
<text text-anchor="start" x="674" y="-219.5" font-family="Helvetica,sans-Serif" font-size="10.00" fill="#000000">drake/solvers/choose</text>
<text text-anchor="middle" x="726" y="-208.5" font-family="Helvetica,sans-Serif" font-size="10.00" fill="#000000">_best_solver.h</text>
</a>
</g>
</g>
<!-- Node99&#45;&gt;Node100 -->
<g id="edge1" class="edge">
<title>Node99&#45;&gt;Node100</title>
<path fill="none" stroke="#191970" d="M771.3786,-261.2113C761.5233,-251.5009 750.2261,-240.3698 741.3692,-231.6432"/>
<polygon fill="#191970" stroke="#191970" points="768.99,-263.7713 778.5697,-268.2967 773.903,-258.785 768.99,-263.7713"/>
</g>
<!-- Node101 -->
<g id="node3" class="node">
<title>Node101</title>
<g id="a_node3"><a xlink:href="solver__base_8h.html" target="_top" xlink:title=" ">
<polygon fill="#ffffff" stroke="#000000" points="804,-201.5 804,-231.5 920,-231.5 920,-201.5 804,-201.5"/>
<text text-anchor="start" x="812" y="-219.5" font-family="Helvetica,sans-Serif" font-size="10.00" fill="#000000">drake/solvers/solver</text>
<text text-anchor="middle" x="862" y="-208.5" font-family="Helvetica,sans-Serif" font-size="10.00" fill="#000000">_base.h</text>
</a>
</g>
</g>
<!-- Node99&#45;&gt;Node101 -->
<g id="edge2" class="edge">
<title>Node99&#45;&gt;Node101</title>
<path fill="none" stroke="#191970" d="M816.6214,-261.2113C826.4767,-251.5009 837.7739,-240.3698 846.6308,-231.6432"/>
<polygon fill="#191970" stroke="#191970" points="814.097,-258.785 809.4303,-268.2967 819.01,-263.7713 814.097,-258.785"/>
</g>
<!-- Node102 -->
<g id="node4" class="node">
<title>Node102</title>
<g id="a_node4"><a xlink:href="csdp__solver_8h.html" target="_top" xlink:title=" ">
<polygon fill="#ffffff" stroke="#000000" points="0,-134.5 0,-164.5 108,-164.5 108,-134.5 0,-134.5"/>
<text text-anchor="start" x="8" y="-152.5" font-family="Helvetica,sans-Serif" font-size="10.00" fill="#000000">drake/solvers/csdp</text>
<text text-anchor="middle" x="54" y="-141.5" font-family="Helvetica,sans-Serif" font-size="10.00" fill="#000000">_solver.h</text>
</a>
</g>
</g>
<!-- Node101&#45;&gt;Node102 -->
<g id="edge3" class="edge">
<title>Node101&#45;&gt;Node102</title>
<path fill="none" stroke="#191970" d="M793.3738,-200.9382C494.3626,-159.9536 412.1447,-208.7449 117,-165 114.1031,-164.5706 111.1448,-164.0686 108.1674,-163.5131"/>
<polygon fill="#191970" stroke="#191970" points="793.2595,-204.456 803.6469,-202.3697 794.2257,-197.523 793.2595,-204.456"/>
</g>
<!-- Node104 -->
<g id="node6" class="node">
<title>Node104</title>
<g id="a_node6"><a xlink:href="dreal__solver_8h.html" target="_top" xlink:title=" ">
<polygon fill="#ffffff" stroke="#000000" points="126,-134.5 126,-164.5 236,-164.5 236,-134.5 126,-134.5"/>
<text text-anchor="start" x="134" y="-152.5" font-family="Helvetica,sans-Serif" font-size="10.00" fill="#000000">drake/solvers/dreal</text>
<text text-anchor="middle" x="181" y="-141.5" font-family="Helvetica,sans-Serif" font-size="10.00" fill="#000000">_solver.h</text>
</a>
</g>
</g>
<!-- Node101&#45;&gt;Node104 -->
<g id="edge5" class="edge">
<title>Node101&#45;&gt;Node104</title>
<path fill="none" stroke="#191970" d="M793.4493,-200.9306C550.8275,-166.2657 483.8513,-201.4622 245,-165 242.0616,-164.5514 239.06,-164.0341 236.0382,-163.4666"/>
<polygon fill="#191970" stroke="#191970" points="793.241,-204.437 803.6407,-202.4127 794.2485,-197.5099 793.241,-204.437"/>
</g>
<!-- Node105 -->
<g id="node7" class="node">
<title>Node105</title>
<g id="a_node7"><a xlink:href="equality__constrained__qp__solver_8h.html" target="_top" xlink:title=" ">
<polygon fill="#ffffff" stroke="#000000" points="254,-134.5 254,-164.5 394,-164.5 394,-134.5 254,-134.5"/>
<text text-anchor="start" x="262" y="-152.5" font-family="Helvetica,sans-Serif" font-size="10.00" fill="#000000">drake/solvers/equality</text>
<text text-anchor="middle" x="324" y="-141.5" font-family="Helvetica,sans-Serif" font-size="10.00" fill="#000000">_constrained_qp_solver.h</text>
</a>
</g>
</g>
<!-- Node101&#45;&gt;Node105 -->
<g id="edge6" class="edge">
<title>Node101&#45;&gt;Node105</title>
<path fill="none" stroke="#191970" d="M794.0133,-200.9853C620.5103,-173.8232 572.9648,-189.4131 403,-165 400.0947,-164.5827 397.1344,-164.1295 394.1478,-163.6493"/>
<polygon fill="#191970" stroke="#191970" points="793.5648,-204.4579 803.9905,-202.5723 794.6644,-197.5448 793.5648,-204.4579"/>
</g>
<!-- Node106 -->
<g id="node8" class="node">
<title>Node106</title>
<g id="a_node8"><a xlink:href="gurobi__solver_8h.html" target="_top" xlink:title=" ">
<polygon fill="#ffffff" stroke="#000000" points="412,-134.5 412,-164.5 528,-164.5 528,-134.5 412,-134.5"/>
<text text-anchor="start" x="420" y="-152.5" font-family="Helvetica,sans-Serif" font-size="10.00" fill="#000000">drake/solvers/gurobi</text>
<text text-anchor="middle" x="470" y="-141.5" font-family="Helvetica,sans-Serif" font-size="10.00" fill="#000000">_solver.h</text>
</a>
</g>
</g>
<!-- Node101&#45;&gt;Node106 -->
<g id="edge7" class="edge">
<title>Node101&#45;&gt;Node106</title>
<path fill="none" stroke="#191970" d="M794.0912,-200.934C679.4354,-180.247 647.7316,-185.4922 537,-165 534.065,-164.4569 531.0644,-163.872 528.0388,-163.2587"/>
<polygon fill="#191970" stroke="#191970" points="793.4943,-204.3828 803.9612,-202.7413 794.7552,-197.4973 793.4943,-204.3828"/>
</g>
<!-- Node107 -->
<g id="node9" class="node">
<title>Node107</title>
<g id="a_node9"><a xlink:href="ipopt__solver_8h.html" target="_top" xlink:title=" ">
<polygon fill="#ffffff" stroke="#000000" points="546,-134.5 546,-164.5 656,-164.5 656,-134.5 546,-134.5"/>
<text text-anchor="start" x="554" y="-152.5" font-family="Helvetica,sans-Serif" font-size="10.00" fill="#000000">drake/solvers/ipopt</text>
<text text-anchor="middle" x="601" y="-141.5" font-family="Helvetica,sans-Serif" font-size="10.00" fill="#000000">_solver.h</text>
</a>
</g>
</g>
<!-- Node101&#45;&gt;Node107 -->
<g id="edge8" class="edge">
<title>Node101&#45;&gt;Node107</title>
<path fill="none" stroke="#191970" d="M793.9694,-199.0362C751.1414,-188.0421 696.5654,-174.0321 656.3894,-163.7187"/>
<polygon fill="#191970" stroke="#191970" points="793.1951,-202.4509 803.7514,-201.5473 794.9357,-195.6707 793.1951,-202.4509"/>
</g>
<!-- Node108 -->
<g id="node10" class="node">
<title>Node108</title>
<g id="a_node10"><a xlink:href="linear__system__solver_8h.html" target="_top" xlink:title=" ">
<polygon fill="#ffffff" stroke="#000000" points="674.5,-134.5 674.5,-164.5 787.5,-164.5 787.5,-134.5 674.5,-134.5"/>
<text text-anchor="start" x="682.5" y="-152.5" font-family="Helvetica,sans-Serif" font-size="10.00" fill="#000000">drake/solvers/linear</text>
<text text-anchor="middle" x="731" y="-141.5" font-family="Helvetica,sans-Serif" font-size="10.00" fill="#000000">_system_solver.h</text>
</a>
</g>
</g>
<!-- Node101&#45;&gt;Node108 -->
<g id="edge9" class="edge">
<title>Node101&#45;&gt;Node108</title>
<path fill="none" stroke="#191970" d="M823.4318,-196.7743C803.4087,-186.5335 779.3198,-174.2132 760.7541,-164.7177"/>
<polygon fill="#191970" stroke="#191970" points="822.1042,-200.0264 832.601,-201.4639 825.2917,-193.7942 822.1042,-200.0264"/>
</g>
<!-- Node109 -->
<g id="node11" class="node">
<title>Node109</title>
<g id="a_node11"><a xlink:href="moby__lcp__solver_8h.html" target="_top" xlink:title=" ">
<polygon fill="#ffffff" stroke="#000000" points="805.5,-134.5 805.5,-164.5 918.5,-164.5 918.5,-134.5 805.5,-134.5"/>
<text text-anchor="start" x="813.5" y="-152.5" font-family="Helvetica,sans-Serif" font-size="10.00" fill="#000000">drake/solvers/moby</text>
<text text-anchor="middle" x="862" y="-141.5" font-family="Helvetica,sans-Serif" font-size="10.00" fill="#000000">_lcp_solver.h</text>
</a>
</g>
</g>
<!-- Node101&#45;&gt;Node109 -->
<g id="edge10" class="edge">
<title>Node101&#45;&gt;Node109</title>
<path fill="none" stroke="#191970" d="M862,-191.0249C862,-182.128 862,-172.4287 862,-164.6432"/>
<polygon fill="#191970" stroke="#191970" points="858.5001,-191.2966 862,-201.2967 865.5001,-191.2967 858.5001,-191.2966"/>
</g>
<!-- Node112 -->
<g id="node14" class="node">
<title>Node112</title>
<g id="a_node14"><a xlink:href="mosek__solver_8h.html" target="_top" xlink:title=" ">
<polygon fill="#ffffff" stroke="#000000" points="936.5,-134.5 936.5,-164.5 1055.5,-164.5 1055.5,-134.5 936.5,-134.5"/>
<text text-anchor="start" x="944.5" y="-152.5" font-family="Helvetica,sans-Serif" font-size="10.00" fill="#000000">drake/solvers/mosek</text>
<text text-anchor="middle" x="996" y="-141.5" font-family="Helvetica,sans-Serif" font-size="10.00" fill="#000000">_solver.h</text>
</a>
</g>
</g>
<!-- Node101&#45;&gt;Node112 -->
<g id="edge14" class="edge">
<title>Node101&#45;&gt;Node112</title>
<path fill="none" stroke="#191970" d="M901.1736,-196.9132C921.7099,-186.645 946.4877,-174.2561 965.5645,-164.7177"/>
<polygon fill="#191970" stroke="#191970" points="899.4512,-193.8612 892.0722,-201.4639 902.5818,-200.1222 899.4512,-193.8612"/>
</g>
<!-- Node113 -->
<g id="node15" class="node">
<title>Node113</title>
<g id="a_node15"><a xlink:href="nlopt__solver_8h.html" target="_top" xlink:title=" ">
<polygon fill="#ffffff" stroke="#000000" points="1074,-134.5 1074,-164.5 1184,-164.5 1184,-134.5 1074,-134.5"/>
<text text-anchor="start" x="1082" y="-152.5" font-family="Helvetica,sans-Serif" font-size="10.00" fill="#000000">drake/solvers/nlopt</text>
<text text-anchor="middle" x="1129" y="-141.5" font-family="Helvetica,sans-Serif" font-size="10.00" fill="#000000">_solver.h</text>
</a>
</g>
</g>
<!-- Node101&#45;&gt;Node113 -->
<g id="edge15" class="edge">
<title>Node101&#45;&gt;Node113</title>
<path fill="none" stroke="#191970" d="M930.1224,-199.4056C974.5976,-188.2452 1031.9269,-173.8592 1073.5983,-163.4023"/>
<polygon fill="#191970" stroke="#191970" points="929.1117,-196.0506 920.2644,-201.8794 930.8155,-202.8401 929.1117,-196.0506"/>
</g>
<!-- Node114 -->
<g id="node16" class="node">
<title>Node114</title>
<g id="a_node16"><a xlink:href="osqp__solver_8h.html" target="_top" xlink:title=" ">
<polygon fill="#ffffff" stroke="#000000" points="1202.5,-134.5 1202.5,-164.5 1311.5,-164.5 1311.5,-134.5 1202.5,-134.5"/>
<text text-anchor="start" x="1210.5" y="-152.5" font-family="Helvetica,sans-Serif" font-size="10.00" fill="#000000">drake/solvers/osqp</text>
<text text-anchor="middle" x="1257" y="-141.5" font-family="Helvetica,sans-Serif" font-size="10.00" fill="#000000">_solver.h</text>
</a>
</g>
</g>
<!-- Node101&#45;&gt;Node114 -->
<g id="edge16" class="edge">
<title>Node101&#45;&gt;Node114</title>
<path fill="none" stroke="#191970" d="M930.2867,-207.5679C997.4189,-198.3892 1102.6603,-182.9352 1193,-165 1196.0276,-164.3989 1199.1285,-163.7522 1202.2536,-163.0762"/>
<polygon fill="#191970" stroke="#191970" points="929.6939,-204.1162 920.2565,-208.9314 930.6369,-211.0525 929.6939,-204.1162"/>
</g>
<!-- Node115 -->
<g id="node17" class="node">
<title>Node115</title>
<g id="a_node17"><a xlink:href="scs__solver_8h.html" target="_top" xlink:title=" ">
<polygon fill="#ffffff" stroke="#000000" points="1330,-140 1330,-159 1476,-159 1476,-140 1330,-140"/>
<text text-anchor="middle" x="1403" y="-147" font-family="Helvetica,sans-Serif" font-size="10.00" fill="#000000">drake/solvers/scs_solver.h</text>
</a>
</g>
</g>
<!-- Node101&#45;&gt;Node115 -->
<g id="edge17" class="edge">
<title>Node101&#45;&gt;Node115</title>
<path fill="none" stroke="#191970" d="M930.204,-210.461C1020.0345,-202.1383 1182.8008,-185.7845 1321,-165 1332.3184,-163.2978 1344.4601,-161.1701 1355.8391,-159.0416"/>
<polygon fill="#191970" stroke="#191970" points="929.7852,-206.9847 920.1485,-211.3873 930.4274,-213.9552 929.7852,-206.9847"/>
</g>
<!-- Node116 -->
<g id="node18" class="node">
<title>Node116</title>
<g id="a_node18"><a xlink:href="snopt__solver_8h.html" target="_top" xlink:title=" ">
<polygon fill="#ffffff" stroke="#000000" points="1494.5,-134.5 1494.5,-164.5 1607.5,-164.5 1607.5,-134.5 1494.5,-134.5"/>
<text text-anchor="start" x="1502.5" y="-152.5" font-family="Helvetica,sans-Serif" font-size="10.00" fill="#000000">drake/solvers/snopt</text>
<text text-anchor="middle" x="1551" y="-141.5" font-family="Helvetica,sans-Serif" font-size="10.00" fill="#000000">_solver.h</text>
</a>
</g>
</g>
<!-- Node101&#45;&gt;Node116 -->
<g id="edge18" class="edge">
<title>Node101&#45;&gt;Node116</title>
<path fill="none" stroke="#191970" d="M930.3959,-214.1613C1045.4944,-209.4863 1284.9439,-196.5818 1485,-165 1488.0228,-164.5228 1491.1124,-163.9827 1494.224,-163.3973"/>
<polygon fill="#191970" stroke="#191970" points="930.1717,-210.6673 920.3189,-214.5624 930.4502,-217.6618 930.1717,-210.6673"/>
</g>
<!-- Node117 -->
<g id="node19" class="node">
<title>Node117</title>
<g id="a_node19"><a xlink:href="unrevised__lemke__solver_8h.html" target="_top" xlink:title=" ">
<polygon fill="#ffffff" stroke="#000000" points="1626,-134.5 1626,-164.5 1760,-164.5 1760,-134.5 1626,-134.5"/>
<text text-anchor="start" x="1634" y="-152.5" font-family="Helvetica,sans-Serif" font-size="10.00" fill="#000000">drake/solvers/unrevised</text>
<text text-anchor="middle" x="1693" y="-141.5" font-family="Helvetica,sans-Serif" font-size="10.00" fill="#000000">_lemke_solver.h</text>
</a>
</g>
</g>
<!-- Node101&#45;&gt;Node117 -->
<g id="edge19" class="edge">
<title>Node101&#45;&gt;Node117</title>
<path fill="none" stroke="#191970" d="M930.0665,-214.8899C1062.7676,-211.0818 1365.131,-199.1199 1617,-165 1619.9357,-164.6023 1622.9281,-164.1585 1625.9458,-163.6794"/>
<polygon fill="#191970" stroke="#191970" points="929.9422,-211.392 920.0444,-215.1712 930.1387,-218.3892 929.9422,-211.392"/>
</g>
<!-- Node103 -->
<g id="node5" class="node">
<title>Node103</title>
<g id="a_node5"><a xlink:href="csdp__solver__internal_8h.html" target="_top" xlink:title=" ">
<polygon fill="#ffffff" stroke="#000000" points="0,-67.5 0,-97.5 108,-97.5 108,-67.5 0,-67.5"/>
<text text-anchor="start" x="8" y="-85.5" font-family="Helvetica,sans-Serif" font-size="10.00" fill="#000000">drake/solvers/csdp</text>
<text text-anchor="middle" x="54" y="-74.5" font-family="Helvetica,sans-Serif" font-size="10.00" fill="#000000">_solver_internal.h</text>
</a>
</g>
</g>
<!-- Node102&#45;&gt;Node103 -->
<g id="edge4" class="edge">
<title>Node102&#45;&gt;Node103</title>
<path fill="none" stroke="#191970" d="M54,-124.0249C54,-115.128 54,-105.4287 54,-97.6432"/>
<polygon fill="#191970" stroke="#191970" points="50.5001,-124.2966 54,-134.2967 57.5001,-124.2967 50.5001,-124.2966"/>
</g>
<!-- Node110 -->
<g id="node12" class="node">
<title>Node110</title>
<g id="a_node12"><a xlink:href="rod2d_8h.html" target="_top" xlink:title=" ">
<polygon fill="#ffffff" stroke="#000000" points="799,-.5 799,-30.5 925,-30.5 925,-.5 799,-.5"/>
<text text-anchor="start" x="807" y="-18.5" font-family="Helvetica,sans-Serif" font-size="10.00" fill="#000000">drake/examples/rod2d</text>
<text text-anchor="middle" x="862" y="-7.5" font-family="Helvetica,sans-Serif" font-size="10.00" fill="#000000">/rod2d.h</text>
</a>
</g>
</g>
<!-- Node109&#45;&gt;Node110 -->
<g id="edge11" class="edge">
<title>Node109&#45;&gt;Node110</title>
<path fill="none" stroke="#191970" d="M843.1428,-126.2678C837.4433,-117.8686 831.9243,-107.9839 829,-98 825.1272,-84.7777 825.1272,-80.2223 829,-67 832.9401,-53.548 841.5907,-40.2761 849.0465,-30.5751"/>
<polygon fill="#191970" stroke="#191970" points="840.3481,-128.376 849.0465,-134.4249 846.0188,-124.2719 840.3481,-128.376"/>
</g>
<!-- Node111 -->
<g id="node13" class="node">
<title>Node111</title>
<g id="a_node13"><a xlink:href="constraint__solver_8h.html" target="_top" xlink:title=" ">
<polygon fill="#ffffff" stroke="#000000" points="838.5,-67.5 838.5,-97.5 987.5,-97.5 987.5,-67.5 838.5,-67.5"/>
<text text-anchor="start" x="846.5" y="-85.5" font-family="Helvetica,sans-Serif" font-size="10.00" fill="#000000">drake/multibody/constraint</text>
<text text-anchor="middle" x="913" y="-74.5" font-family="Helvetica,sans-Serif" font-size="10.00" fill="#000000">/constraint_solver.h</text>
</a>
</g>
</g>
<!-- Node109&#45;&gt;Node111 -->
<g id="edge12" class="edge">
<title>Node109&#45;&gt;Node111</title>
<path fill="none" stroke="#191970" d="M879.8404,-126.0626C887.0193,-116.6315 895.0909,-106.0276 901.4731,-97.6432"/>
<polygon fill="#191970" stroke="#191970" points="876.8446,-124.2197 873.5727,-134.2967 882.4146,-128.4595 876.8446,-124.2197"/>
</g>
<!-- Node111&#45;&gt;Node110 -->
<g id="edge13" class="edge">
<title>Node111&#45;&gt;Node110</title>
<path fill="none" stroke="#191970" d="M895.1596,-59.0626C887.9807,-49.6315 879.9091,-39.0276 873.5269,-30.6432"/>
<polygon fill="#191970" stroke="#191970" points="892.5854,-61.4595 901.4273,-67.2967 898.1554,-57.2197 892.5854,-61.4595"/>
</g>
</g>
</svg>
