<?xml version="1.0" encoding="UTF-8" standalone="no"?>
<!DOCTYPE svg PUBLIC "-//W3C//DTD SVG 1.1//EN"
 "http://www.w3.org/Graphics/SVG/1.1/DTD/svg11.dtd">
<!-- Generated by graphviz version 2.40.1 (20161225.0304)
 -->
<!-- Title: drake/solvers/solver_options.h Pages: 1 -->
<svg width="1138pt" height="352pt"
 viewBox="0.00 0.00 1138.08 352.00" xmlns="http://www.w3.org/2000/svg" xmlns:xlink="http://www.w3.org/1999/xlink">
<g id="graph0" class="graph" transform="scale(1 1) rotate(0) translate(4 348)">
<title>drake/solvers/solver_options.h</title>
<polygon fill="#ffffff" stroke="transparent" points="-4,4 -4,-348 1134.0843,-348 1134.0843,4 -4,4"/>
<!-- Node0 -->
<g id="node1" class="node">
<title>Node0</title>
<g id="a_node1"><a xlink:title=" ">
<polygon fill="#bfbfbf" stroke="#000000" points="713.5843,-313.5 713.5843,-343.5 829.5843,-343.5 829.5843,-313.5 713.5843,-313.5"/>
<text text-anchor="start" x="721.5843" y="-331.5" font-family="Helvetica,sans-Serif" font-size="10.00" fill="#000000">drake/solvers/solver</text>
<text text-anchor="middle" x="771.5843" y="-320.5" font-family="Helvetica,sans-Serif" font-size="10.00" fill="#000000">_options.h</text>
</a>
</g>
</g>
<!-- Node1 -->
<g id="node2" class="node">
<title>Node1</title>
<g id="a_node2"><a xlink:title=" ">
<polygon fill="#ffffff" stroke="#bfbfbf" points="279.0843,-196 279.0843,-215 336.0843,-215 336.0843,-196 279.0843,-196"/>
<text text-anchor="middle" x="307.5843" y="-203" font-family="Helvetica,sans-Serif" font-size="10.00" fill="#000000">ostream</text>
</a>
</g>
</g>
<!-- Node0&#45;&gt;Node1 -->
<g id="edge1" class="edge">
<title>Node0&#45;&gt;Node1</title>
<path fill="none" stroke="#191970" d="M713.3736,-318.9006C661.3717,-309.8152 583.3223,-294.9197 516.5843,-277 441.3851,-256.8084 424.1017,-246.6477 350.5843,-221 348.3084,-220.206 345.9672,-219.3822 343.6083,-218.5469"/>
<polygon fill="#191970" stroke="#191970" points="344.5274,-215.1588 333.9327,-215.0947 342.175,-221.7517 344.5274,-215.1588"/>
</g>
<!-- Node2 -->
<g id="node3" class="node">
<title>Node2</title>
<g id="a_node3"><a xlink:title=" ">
<polygon fill="#ffffff" stroke="#bfbfbf" points="838.5843,-129 838.5843,-148 882.5843,-148 882.5843,-129 838.5843,-129"/>
<text text-anchor="middle" x="860.5843" y="-136" font-family="Helvetica,sans-Serif" font-size="10.00" fill="#000000">string</text>
</a>
</g>
</g>
<!-- Node0&#45;&gt;Node2 -->
<g id="edge2" class="edge">
<title>Node0&#45;&gt;Node2</title>
<path fill="none" stroke="#191970" d="M783.6157,-313.3973C798.9851,-293.3903 825.4071,-256.4778 840.5843,-221 849.381,-200.4369 854.7766,-175.2617 857.7121,-158.1688"/>
<polygon fill="#191970" stroke="#191970" points="861.178,-158.6596 859.297,-148.2331 854.2654,-157.5569 861.178,-158.6596"/>
</g>
<!-- Node3 -->
<g id="node4" class="node">
<title>Node3</title>
<g id="a_node4"><a xlink:title=" ">
<polygon fill="#ffffff" stroke="#bfbfbf" points="863.0843,-257.5 863.0843,-276.5 956.0843,-276.5 956.0843,-257.5 863.0843,-257.5"/>
<text text-anchor="middle" x="909.5843" y="-264.5" font-family="Helvetica,sans-Serif" font-size="10.00" fill="#000000">unordered_map</text>
</a>
</g>
</g>
<!-- Node0&#45;&gt;Node3 -->
<g id="edge3" class="edge">
<title>Node0&#45;&gt;Node3</title>
<path fill="none" stroke="#191970" d="M805.3429,-313.4554C827.8636,-303.419 857.2309,-290.3314 879.0534,-280.6061"/>
<polygon fill="#191970" stroke="#191970" points="880.4899,-283.7979 888.1992,-276.5303 877.6404,-277.4041 880.4899,-283.7979"/>
</g>
<!-- Node4 -->
<g id="node5" class="node">
<title>Node4</title>
<g id="a_node5"><a xlink:title=" ">
<polygon fill="#ffffff" stroke="#bfbfbf" points="974.5843,-257.5 974.5843,-276.5 1060.5843,-276.5 1060.5843,-257.5 974.5843,-257.5"/>
<text text-anchor="middle" x="1017.5843" y="-264.5" font-family="Helvetica,sans-Serif" font-size="10.00" fill="#000000">unordered_set</text>
</a>
</g>
</g>
<!-- Node0&#45;&gt;Node4 -->
<g id="edge4" class="edge">
<title>Node0&#45;&gt;Node4</title>
<path fill="none" stroke="#191970" d="M829.8828,-313.9254C872.4517,-303.2831 929.4746,-289.0274 969.4584,-279.0315"/>
<polygon fill="#191970" stroke="#191970" points="970.385,-282.4076 979.2375,-276.5867 968.6872,-275.6166 970.385,-282.4076"/>
</g>
<!-- Node5 -->
<g id="node6" class="node">
<title>Node5</title>
<g id="a_node6"><a xlink:title=" ">
<polygon fill="#ffffff" stroke="#bfbfbf" points="1079.0843,-257.5 1079.0843,-276.5 1130.0843,-276.5 1130.0843,-257.5 1079.0843,-257.5"/>
<text text-anchor="middle" x="1104.5843" y="-264.5" font-family="Helvetica,sans-Serif" font-size="10.00" fill="#000000">variant</text>
</a>
</g>
</g>
<!-- Node0&#45;&gt;Node5 -->
<g id="edge5" class="edge">
<title>Node0&#45;&gt;Node5</title>
<path fill="none" stroke="#191970" d="M829.6345,-320.3519C887.7788,-311.7671 979.9643,-297.0092 1069.0484,-276.9187"/>
<polygon fill="#191970" stroke="#191970" points="1070.0807,-280.2732 1079.0519,-274.6369 1068.5239,-273.4485 1070.0807,-280.2732"/>
</g>
<!-- Node6 -->
<g id="node7" class="node">
<title>Node6</title>
<g id="a_node7"><a xlink:href="drake__assert_8h.html" target="_top" xlink:title="Provides Drake&#39;s assertion implementation.">
<polygon fill="#ffffff" stroke="#000000" points="508.0843,-56.5 508.0843,-86.5 629.0843,-86.5 629.0843,-56.5 508.0843,-56.5"/>
<text text-anchor="start" x="516.0843" y="-74.5" font-family="Helvetica,sans-Serif" font-size="10.00" fill="#000000">drake/common/drake</text>
<text text-anchor="middle" x="568.5843" y="-63.5" font-family="Helvetica,sans-Serif" font-size="10.00" fill="#000000">_assert.h</text>
</a>
</g>
</g>
<!-- Node0&#45;&gt;Node6 -->
<g id="edge6" class="edge">
<title>Node0&#45;&gt;Node6</title>
<path fill="none" stroke="#191970" d="M713.3613,-325.0497C564.7585,-315.401 175.3562,-284.583 64.5843,-221 30.1725,-201.2477 19.5987,-191.1203 5.5843,-154 .7179,-141.1103 -3.7038,-133.1764 5.5843,-123 38.1749,-87.292 354.0702,-76.043 497.8953,-72.7551"/>
<polygon fill="#191970" stroke="#191970" points="498.0273,-76.2531 507.9471,-72.5319 497.8718,-69.2548 498.0273,-76.2531"/>
</g>
<!-- Node8 -->
<g id="node9" class="node">
<title>Node8</title>
<g id="a_node9"><a xlink:href="drake__copyable_8h.html" target="_top" xlink:title="Provides careful macros to selectively enable or disable the special member functions for copy&#45;constr...">
<polygon fill="#ffffff" stroke="#000000" points="711.0843,-190.5 711.0843,-220.5 832.0843,-220.5 832.0843,-190.5 711.0843,-190.5"/>
<text text-anchor="start" x="719.0843" y="-208.5" font-family="Helvetica,sans-Serif" font-size="10.00" fill="#000000">drake/common/drake</text>
<text text-anchor="middle" x="771.5843" y="-197.5" font-family="Helvetica,sans-Serif" font-size="10.00" fill="#000000">_copyable.h</text>
</a>
</g>
</g>
<!-- Node0&#45;&gt;Node8 -->
<g id="edge8" class="edge">
<title>Node0&#45;&gt;Node8</title>
<path fill="none" stroke="#191970" d="M771.5843,-313.4178C771.5843,-292.8539 771.5843,-255.7363 771.5843,-230.8546"/>
<polygon fill="#191970" stroke="#191970" points="775.0844,-230.7055 771.5843,-220.7056 768.0844,-230.7056 775.0844,-230.7055"/>
</g>
<!-- Node9 -->
<g id="node10" class="node">
<title>Node9</title>
<g id="a_node10"><a xlink:href="common__solver__option_8h.html" target="_top" xlink:title=" ">
<polygon fill="#ffffff" stroke="#000000" points="73.5843,-190.5 73.5843,-220.5 201.5843,-220.5 201.5843,-190.5 73.5843,-190.5"/>
<text text-anchor="start" x="81.5843" y="-208.5" font-family="Helvetica,sans-Serif" font-size="10.00" fill="#000000">drake/solvers/common</text>
<text text-anchor="middle" x="137.5843" y="-197.5" font-family="Helvetica,sans-Serif" font-size="10.00" fill="#000000">_solver_option.h</text>
</a>
</g>
</g>
<!-- Node0&#45;&gt;Node9 -->
<g id="edge9" class="edge">
<title>Node0&#45;&gt;Node9</title>
<path fill="none" stroke="#191970" d="M713.3182,-320.4252C648.4777,-311.1571 540.6959,-294.9102 448.5843,-277 365.2156,-260.7897 270.1718,-238.3545 207.3307,-222.9624"/>
<polygon fill="#191970" stroke="#191970" points="208.0745,-219.5412 197.5283,-220.5546 206.4047,-226.3391 208.0745,-219.5412"/>
</g>
<!-- Node11 -->
<g id="node12" class="node">
<title>Node11</title>
<g id="a_node12"><a xlink:href="solver__id_8h.html" target="_top" xlink:title=" ">
<polygon fill="#ffffff" stroke="#000000" points="526.0843,-257.5 526.0843,-276.5 665.0843,-276.5 665.0843,-257.5 526.0843,-257.5"/>
<text text-anchor="middle" x="595.5843" y="-264.5" font-family="Helvetica,sans-Serif" font-size="10.00" fill="#000000">drake/solvers/solver_id.h</text>
</a>
</g>
</g>
<!-- Node0&#45;&gt;Node11 -->
<g id="edge11" class="edge">
<title>Node0&#45;&gt;Node11</title>
<path fill="none" stroke="#191970" d="M728.5298,-313.4554C699.1638,-303.194 660.6698,-289.7429 632.6647,-279.9571"/>
<polygon fill="#191970" stroke="#191970" points="633.4529,-276.525 622.858,-276.5303 631.1437,-283.1332 633.4529,-276.525"/>
</g>
<!-- Node7 -->
<g id="node8" class="node">
<title>Node7</title>
<g id="a_node8"><a xlink:title=" ">
<polygon fill="#ffffff" stroke="#bfbfbf" points="623.0843,-.5 623.0843,-19.5 692.0843,-19.5 692.0843,-.5 623.0843,-.5"/>
<text text-anchor="middle" x="657.5843" y="-7.5" font-family="Helvetica,sans-Serif" font-size="10.00" fill="#000000">type_traits</text>
</a>
</g>
</g>
<!-- Node6&#45;&gt;Node7 -->
<g id="edge7" class="edge">
<title>Node6&#45;&gt;Node7</title>
<path fill="none" stroke="#191970" d="M590.5843,-56.2977C604.181,-46.9022 621.5809,-34.8787 635.241,-25.4395"/>
<polygon fill="#191970" stroke="#191970" points="637.3628,-28.2276 643.6,-19.6633 633.3834,-22.4688 637.3628,-28.2276"/>
</g>
<!-- Node10 -->
<g id="node11" class="node">
<title>Node10</title>
<g id="a_node11"><a xlink:title=" ">
<polygon fill="#ffffff" stroke="#bfbfbf" points="14.5843,-129 14.5843,-148 74.5843,-148 74.5843,-129 14.5843,-129"/>
<text text-anchor="middle" x="44.5843" y="-136" font-family="Helvetica,sans-Serif" font-size="10.00" fill="#000000">iostream</text>
</a>
</g>
</g>
<!-- Node9&#45;&gt;Node10 -->
<g id="edge10" class="edge">
<title>Node9&#45;&gt;Node10</title>
<path fill="none" stroke="#191970" d="M116.4811,-190.2967C101.4286,-179.4524 81.2542,-164.9182 66.1076,-154.006"/>
<polygon fill="#191970" stroke="#191970" points="68.0067,-151.0606 57.8471,-148.055 63.915,-156.7402 68.0067,-151.0606"/>
</g>
<!-- Node11&#45;&gt;Node1 -->
<g id="edge13" class="edge">
<title>Node11&#45;&gt;Node1</title>
<path fill="none" stroke="#191970" d="M529.1624,-257.4851C479.5047,-249.6603 410.1943,-237.2271 350.5843,-221 347.6172,-220.1923 344.5632,-219.274 341.5165,-218.2971"/>
<polygon fill="#191970" stroke="#191970" points="342.5198,-214.9415 331.9254,-215.0406 340.2692,-221.5699 342.5198,-214.9415"/>
</g>
<!-- Node11&#45;&gt;Node2 -->
<g id="edge14" class="edge">
<title>Node11&#45;&gt;Node2</title>
<path fill="none" stroke="#191970" d="M610.7084,-257.3263C624.6688,-248.267 645.858,-234.185 663.5843,-221 681.0728,-207.9919 682.254,-200.0699 701.5843,-190 753.6158,-162.8948 773.7524,-174.8673 828.5843,-154 829.9905,-153.4648 831.4191,-152.891 832.853,-152.2908"/>
<polygon fill="#191970" stroke="#191970" points="834.5317,-155.3735 842.2129,-148.0762 831.6576,-148.9907 834.5317,-155.3735"/>
</g>
<!-- Node11&#45;&gt;Node8 -->
<g id="edge15" class="edge">
<title>Node11&#45;&gt;Node8</title>
<path fill="none" stroke="#191970" d="M623.0843,-257.3906C648.6681,-248.4508 687.4749,-234.8905 719.002,-223.8739"/>
<polygon fill="#191970" stroke="#191970" points="720.2441,-227.1475 728.5298,-220.5446 717.935,-220.5393 720.2441,-227.1475"/>
</g>
<!-- Node12 -->
<g id="node13" class="node">
<title>Node12</title>
<g id="a_node13"><a xlink:title=" ">
<polygon fill="#ffffff" stroke="#bfbfbf" points="93.0843,-129 93.0843,-148 158.0843,-148 158.0843,-129 93.0843,-129"/>
<text text-anchor="middle" x="125.5843" y="-136" font-family="Helvetica,sans-Serif" font-size="10.00" fill="#000000">functional</text>
</a>
</g>
</g>
<!-- Node11&#45;&gt;Node12 -->
<g id="edge12" class="edge">
<title>Node11&#45;&gt;Node12</title>
<path fill="none" stroke="#191970" d="M525.6848,-259.9947C483.0511,-253.7705 428.3368,-242.213 383.5843,-221 363.5761,-211.516 364.6588,-199.3426 344.5843,-190 271.4079,-155.9443 244.1427,-176.3441 166.5843,-154 163.8421,-153.21 161.0236,-152.3189 158.2099,-151.3732"/>
<polygon fill="#191970" stroke="#191970" points="159.3747,-148.0727 148.7801,-148.0153 157.0265,-154.6671 159.3747,-148.0727"/>
</g>
<!-- Node13 -->
<g id="node14" class="node">
<title>Node13</title>
<g id="a_node14"><a xlink:href="hash_8h.html" target="_top" xlink:title=" ">
<polygon fill="#ffffff" stroke="#000000" points="393.0843,-196 393.0843,-215 518.0843,-215 518.0843,-196 393.0843,-196"/>
<text text-anchor="middle" x="455.5843" y="-203" font-family="Helvetica,sans-Serif" font-size="10.00" fill="#000000">drake/common/hash.h</text>
</a>
</g>
</g>
<!-- Node11&#45;&gt;Node13 -->
<g id="edge16" class="edge">
<title>Node11&#45;&gt;Node13</title>
<path fill="none" stroke="#191970" d="M573.7093,-257.3906C550.2847,-247.1005 512.9246,-230.6888 486.5001,-219.0809"/>
<polygon fill="#191970" stroke="#191970" points="487.8689,-215.8594 477.3057,-215.0419 485.0535,-222.2683 487.8689,-215.8594"/>
</g>
<!-- Node22 -->
<g id="node23" class="node">
<title>Node22</title>
<g id="a_node23"><a xlink:href="reset__after__move_8h.html" target="_top" xlink:title=" ">
<polygon fill="#ffffff" stroke="#000000" points="536.5843,-190.5 536.5843,-220.5 654.5843,-220.5 654.5843,-190.5 536.5843,-190.5"/>
<text text-anchor="start" x="544.5843" y="-208.5" font-family="Helvetica,sans-Serif" font-size="10.00" fill="#000000">drake/common/reset</text>
<text text-anchor="middle" x="595.5843" y="-197.5" font-family="Helvetica,sans-Serif" font-size="10.00" fill="#000000">_after_move.h</text>
</a>
</g>
</g>
<!-- Node11&#45;&gt;Node22 -->
<g id="edge32" class="edge">
<title>Node11&#45;&gt;Node22</title>
<path fill="none" stroke="#191970" d="M595.5843,-257.3906C595.5843,-250.2234 595.5843,-240.0862 595.5843,-230.671"/>
<polygon fill="#191970" stroke="#191970" points="599.0844,-230.5446 595.5843,-220.5446 592.0844,-230.5446 599.0844,-230.5446"/>
</g>
<!-- Node13&#45;&gt;Node2 -->
<g id="edge24" class="edge">
<title>Node13&#45;&gt;Node2</title>
<path fill="none" stroke="#191970" d="M496.5788,-195.9851C506.6803,-193.8314 517.495,-191.6856 527.5843,-190 660.4736,-167.7985 699.2899,-191.8875 828.5843,-154 830.2948,-153.4988 832.0265,-152.9134 833.753,-152.2693"/>
<polygon fill="#191970" stroke="#191970" points="835.5989,-155.2851 843.398,-148.114 832.8292,-148.8563 835.5989,-155.2851"/>
</g>
<!-- Node13&#45;&gt;Node6 -->
<g id="edge28" class="edge">
<title>Node13&#45;&gt;Node6</title>
<path fill="none" stroke="#191970" d="M486.3575,-195.8446C506.9481,-187.83 533.0292,-174.4002 548.5843,-154 561.0907,-137.5981 565.9002,-114.4729 567.6907,-96.8775"/>
<polygon fill="#191970" stroke="#191970" points="571.1927,-96.9816 568.4572,-86.7461 564.2127,-96.4535 571.1927,-96.9816"/>
</g>
<!-- Node13&#45;&gt;Node7 -->
<g id="edge25" class="edge">
<title>Node13&#45;&gt;Node7</title>
<path fill="none" stroke="#191970" d="M498.9402,-195.9237C508.3708,-193.9087 518.3026,-191.8381 527.5843,-190 571.6682,-181.2699 697.7738,-188.49 726.5843,-154 760.0285,-113.9627 707.0186,-54.9757 676.5862,-26.5331"/>
<polygon fill="#191970" stroke="#191970" points="678.7991,-23.8147 669.0464,-19.6752 674.0891,-28.993 678.7991,-23.8147"/>
</g>
<!-- Node13&#45;&gt;Node10 -->
<g id="edge20" class="edge">
<title>Node13&#45;&gt;Node10</title>
<path fill="none" stroke="#191970" d="M393.0663,-196.7513C377.2482,-194.5429 360.2918,-192.18 344.5843,-190 228.5977,-173.9028 196.8164,-183.8411 83.5843,-154 80.9664,-153.3101 78.287,-152.4939 75.6189,-151.6027"/>
<polygon fill="#191970" stroke="#191970" points="76.7305,-148.2826 66.1366,-148.1378 74.3279,-154.8574 76.7305,-148.2826"/>
</g>
<!-- Node13&#45;&gt;Node12 -->
<g id="edge19" class="edge">
<title>Node13&#45;&gt;Node12</title>
<path fill="none" stroke="#191970" d="M409.2103,-195.9275C399.1253,-193.9122 388.5058,-191.8405 378.5843,-190 284.6164,-172.568 258.8236,-179.0147 166.5843,-154 163.8301,-153.2531 161.003,-152.3924 158.1836,-151.4673"/>
<polygon fill="#191970" stroke="#191970" points="159.3385,-148.1634 148.7436,-148.1456 157.0149,-154.7665 159.3385,-148.1634"/>
</g>
<!-- Node14 -->
<g id="node15" class="node">
<title>Node14</title>
<g id="a_node15"><a xlink:title=" ">
<polygon fill="#ffffff" stroke="#bfbfbf" points="176.0843,-129 176.0843,-148 223.0843,-148 223.0843,-129 176.0843,-129"/>
<text text-anchor="middle" x="199.5843" y="-136" font-family="Helvetica,sans-Serif" font-size="10.00" fill="#000000">cmath</text>
</a>
</g>
</g>
<!-- Node13&#45;&gt;Node14 -->
<g id="edge17" class="edge">
<title>Node13&#45;&gt;Node14</title>
<path fill="none" stroke="#191970" d="M408.5421,-195.9848C352.8994,-184.5024 263.7654,-165.3303 231.5843,-154 229.983,-153.4362 228.3566,-152.8147 226.7287,-152.1544"/>
<polygon fill="#191970" stroke="#191970" points="228.1171,-148.9414 217.5574,-148.0795 225.2748,-155.3384 228.1171,-148.9414"/>
</g>
<!-- Node15 -->
<g id="node16" class="node">
<title>Node15</title>
<g id="a_node16"><a xlink:title=" ">
<polygon fill="#ffffff" stroke="#bfbfbf" points="241.0843,-129 241.0843,-148 294.0843,-148 294.0843,-129 241.0843,-129"/>
<text text-anchor="middle" x="267.5843" y="-136" font-family="Helvetica,sans-Serif" font-size="10.00" fill="#000000">cstddef</text>
</a>
</g>
</g>
<!-- Node13&#45;&gt;Node15 -->
<g id="edge18" class="edge">
<title>Node13&#45;&gt;Node15</title>
<path fill="none" stroke="#191970" d="M425.0478,-195.9468C394.1722,-186.1024 345.2015,-169.9803 303.5843,-154 301.9683,-153.3795 300.3181,-152.7293 298.6564,-152.0614"/>
<polygon fill="#191970" stroke="#191970" points="299.7492,-148.7256 289.1713,-148.1264 297.0667,-155.1912 299.7492,-148.7256"/>
</g>
<!-- Node16 -->
<g id="node17" class="node">
<title>Node16</title>
<g id="a_node17"><a xlink:title=" ">
<polygon fill="#ffffff" stroke="#bfbfbf" points="312.5843,-129 312.5843,-148 350.5843,-148 350.5843,-129 312.5843,-129"/>
<text text-anchor="middle" x="331.5843" y="-136" font-family="Helvetica,sans-Serif" font-size="10.00" fill="#000000">map</text>
</a>
</g>
</g>
<!-- Node13&#45;&gt;Node16 -->
<g id="edge21" class="edge">
<title>Node13&#45;&gt;Node16</title>
<path fill="none" stroke="#191970" d="M437.4986,-195.8892C418.1717,-185.5974 386.6542,-168.7527 359.5843,-154 358.9256,-153.6411 358.2586,-153.2769 357.5859,-152.909"/>
<polygon fill="#191970" stroke="#191970" points="359.1905,-149.7971 348.7416,-148.0445 355.817,-155.9306 359.1905,-149.7971"/>
</g>
<!-- Node17 -->
<g id="node18" class="node">
<title>Node17</title>
<g id="a_node18"><a xlink:title=" ">
<polygon fill="#ffffff" stroke="#bfbfbf" points="368.5843,-129 368.5843,-148 424.5843,-148 424.5843,-129 368.5843,-129"/>
<text text-anchor="middle" x="396.5843" y="-136" font-family="Helvetica,sans-Serif" font-size="10.00" fill="#000000">optional</text>
</a>
</g>
</g>
<!-- Node13&#45;&gt;Node17 -->
<g id="edge22" class="edge">
<title>Node13&#45;&gt;Node17</title>
<path fill="none" stroke="#191970" d="M447.131,-195.9005C437.9305,-185.4525 423.0308,-168.5325 411.7865,-155.7635"/>
<polygon fill="#191970" stroke="#191970" points="414.2574,-153.2735 405.0218,-148.0817 409.004,-157.8997 414.2574,-153.2735"/>
</g>
<!-- Node18 -->
<g id="node19" class="node">
<title>Node18</title>
<g id="a_node19"><a xlink:title=" ">
<polygon fill="#ffffff" stroke="#bfbfbf" points="442.5843,-129 442.5843,-148 474.5843,-148 474.5843,-129 442.5843,-129"/>
<text text-anchor="middle" x="458.5843" y="-136" font-family="Helvetica,sans-Serif" font-size="10.00" fill="#000000">set</text>
</a>
</g>
</g>
<!-- Node13&#45;&gt;Node18 -->
<g id="edge23" class="edge">
<title>Node13&#45;&gt;Node18</title>
<path fill="none" stroke="#191970" d="M456.0141,-195.9005C456.4507,-186.149 457.1398,-170.7597 457.6946,-158.3695"/>
<polygon fill="#191970" stroke="#191970" points="461.2043,-158.2282 458.1552,-148.0817 454.2113,-157.9151 461.2043,-158.2282"/>
</g>
<!-- Node19 -->
<g id="node20" class="node">
<title>Node19</title>
<g id="a_node20"><a xlink:title=" ">
<polygon fill="#ffffff" stroke="#bfbfbf" points="775.0843,-129 775.0843,-148 820.0843,-148 820.0843,-129 775.0843,-129"/>
<text text-anchor="middle" x="797.5843" y="-136" font-family="Helvetica,sans-Serif" font-size="10.00" fill="#000000">utility</text>
</a>
</g>
</g>
<!-- Node13&#45;&gt;Node19 -->
<g id="edge26" class="edge">
<title>Node13&#45;&gt;Node19</title>
<path fill="none" stroke="#191970" d="M497.761,-195.9865C507.5312,-193.9033 517.9026,-191.7885 527.5843,-190 630.6252,-170.9655 659.7372,-182.454 760.5843,-154 762.903,-153.3458 765.2707,-152.5853 767.6318,-151.7593"/>
<polygon fill="#191970" stroke="#191970" points="769.0792,-154.9527 777.1584,-148.0986 766.5684,-148.4185 769.0792,-154.9527"/>
</g>
<!-- Node20 -->
<g id="node21" class="node">
<title>Node20</title>
<g id="a_node21"><a xlink:title=" ">
<polygon fill="#ffffff" stroke="#bfbfbf" points="493.0843,-129 493.0843,-148 540.0843,-148 540.0843,-129 493.0843,-129"/>
<text text-anchor="middle" x="516.5843" y="-136" font-family="Helvetica,sans-Serif" font-size="10.00" fill="#000000">vector</text>
</a>
</g>
</g>
<!-- Node13&#45;&gt;Node20 -->
<g id="edge27" class="edge">
<title>Node13&#45;&gt;Node20</title>
<path fill="none" stroke="#191970" d="M464.3241,-195.9005C473.8365,-185.4525 489.2413,-168.5325 500.8667,-155.7635"/>
<polygon fill="#191970" stroke="#191970" points="503.7165,-157.8324 507.8607,-148.0817 498.5404,-153.1198 503.7165,-157.8324"/>
</g>
<!-- Node21 -->
<g id="node22" class="node">
<title>Node21</title>
<g id="a_node22"><a xlink:href="drake__throw_8h.html" target="_top" xlink:title="Provides a convenient wrapper to throw an exception when a condition is unmet.">
<polygon fill="#ffffff" stroke="#000000" points="597.0843,-123.5 597.0843,-153.5 718.0843,-153.5 718.0843,-123.5 597.0843,-123.5"/>
<text text-anchor="start" x="605.0843" y="-141.5" font-family="Helvetica,sans-Serif" font-size="10.00" fill="#000000">drake/common/drake</text>
<text text-anchor="middle" x="657.5843" y="-130.5" font-family="Helvetica,sans-Serif" font-size="10.00" fill="#000000">_throw.h</text>
</a>
</g>
</g>
<!-- Node13&#45;&gt;Node21 -->
<g id="edge29" class="edge">
<title>Node13&#45;&gt;Node21</title>
<path fill="none" stroke="#191970" d="M484.5259,-195.9005C515.1695,-185.7366 564.2788,-169.4479 602.3685,-156.8141"/>
<polygon fill="#191970" stroke="#191970" points="603.9051,-159.992 612.2948,-153.5218 601.7014,-153.348 603.9051,-159.992"/>
</g>
<!-- Node21&#45;&gt;Node6 -->
<g id="edge31" class="edge">
<title>Node21&#45;&gt;Node6</title>
<path fill="none" stroke="#191970" d="M637.3888,-123.2967C625.4406,-114.302 610.1204,-102.7687 596.9705,-92.8694"/>
<polygon fill="#191970" stroke="#191970" points="598.7941,-89.8613 588.6998,-86.6432 594.584,-95.4538 598.7941,-89.8613"/>
</g>
<!-- Node21&#45;&gt;Node7 -->
<g id="edge30" class="edge">
<title>Node21&#45;&gt;Node7</title>
<path fill="none" stroke="#191970" d="M657.5843,-123.2548C657.5843,-99.9744 657.5843,-55.5607 657.5843,-29.8117"/>
<polygon fill="#191970" stroke="#191970" points="661.0844,-29.7358 657.5843,-19.7358 654.0844,-29.7358 661.0844,-29.7358"/>
</g>
<!-- Node22&#45;&gt;Node19 -->
<g id="edge33" class="edge">
<title>Node22&#45;&gt;Node19</title>
<path fill="none" stroke="#191970" d="M648.3955,-190.397C680.9872,-180.7364 723.5101,-167.5173 760.5843,-154 762.4491,-153.3201 764.3572,-152.5995 766.276,-151.8556"/>
<polygon fill="#191970" stroke="#191970" points="767.8339,-155.0016 775.8064,-148.0238 765.2226,-148.5069 767.8339,-155.0016"/>
</g>
</g>
</svg>
