<?xml version="1.0" encoding="UTF-8" standalone="no"?>
<!DOCTYPE svg PUBLIC "-//W3C//DTD SVG 1.1//EN"
 "http://www.w3.org/Graphics/SVG/1.1/DTD/svg11.dtd">
<!-- Generated by graphviz version 2.40.1 (20161225.0304)
 -->
<!-- Title: drake/solvers/solver_type_converter.h Pages: 1 -->
<svg width="875pt" height="363pt"
 viewBox="0.00 0.00 874.50 363.00" xmlns="http://www.w3.org/2000/svg" xmlns:xlink="http://www.w3.org/1999/xlink">
<g id="graph0" class="graph" transform="scale(1 1) rotate(0) translate(4 359)">
<title>drake/solvers/solver_type_converter.h</title>
<polygon fill="#ffffff" stroke="transparent" points="-4,4 -4,-359 870.5,-359 870.5,4 -4,4"/>
<!-- Node0 -->
<g id="node1" class="node">
<title>Node0</title>
<g id="a_node1"><a xlink:title=" ">
<polygon fill="#bfbfbf" stroke="#000000" points="275,-324.5 275,-354.5 391,-354.5 391,-324.5 275,-324.5"/>
<text text-anchor="start" x="283" y="-342.5" font-family="Helvetica,sans-Serif" font-size="10.00" fill="#000000">drake/solvers/solver</text>
<text text-anchor="middle" x="333" y="-331.5" font-family="Helvetica,sans-Serif" font-size="10.00" fill="#000000">_type_converter.h</text>
</a>
</g>
</g>
<!-- Node1 -->
<g id="node2" class="node">
<title>Node1</title>
<g id="a_node2"><a xlink:title=" ">
<polygon fill="#ffffff" stroke="#bfbfbf" points="0,-129 0,-148 56,-148 56,-129 0,-129"/>
<text text-anchor="middle" x="28" y="-136" font-family="Helvetica,sans-Serif" font-size="10.00" fill="#000000">optional</text>
</a>
</g>
</g>
<!-- Node0&#45;&gt;Node1 -->
<g id="edge1" class="edge">
<title>Node0&#45;&gt;Node1</title>
<path fill="none" stroke="#191970" d="M310.0754,-324.3923C253.5145,-287.1177 107.7984,-191.0885 51.0773,-153.7083"/>
<polygon fill="#191970" stroke="#191970" points="52.7383,-150.6113 42.4625,-148.031 48.8864,-156.4562 52.7383,-150.6113"/>
</g>
<!-- Node2 -->
<g id="node3" class="node">
<title>Node2</title>
<g id="a_node3"><a xlink:href="drake__copyable_8h.html" target="_top" xlink:title="Provides careful macros to selectively enable or disable the special member functions for copy&#45;constr...">
<polygon fill="#ffffff" stroke="#000000" points="203.5,-190.5 203.5,-220.5 324.5,-220.5 324.5,-190.5 203.5,-190.5"/>
<text text-anchor="start" x="211.5" y="-208.5" font-family="Helvetica,sans-Serif" font-size="10.00" fill="#000000">drake/common/drake</text>
<text text-anchor="middle" x="264" y="-197.5" font-family="Helvetica,sans-Serif" font-size="10.00" fill="#000000">_copyable.h</text>
</a>
</g>
</g>
<!-- Node0&#45;&gt;Node2 -->
<g id="edge2" class="edge">
<title>Node0&#45;&gt;Node2</title>
<path fill="none" stroke="#191970" d="M325.2189,-324.389C313.3646,-301.3676 290.6663,-257.2866 276.4869,-229.7499"/>
<polygon fill="#191970" stroke="#191970" points="279.5482,-228.0497 271.8585,-220.7614 273.3248,-231.2543 279.5482,-228.0497"/>
</g>
<!-- Node3 -->
<g id="node4" class="node">
<title>Node3</title>
<g id="a_node4"><a xlink:href="solver__id_8h.html" target="_top" xlink:title=" ">
<polygon fill="#ffffff" stroke="#000000" points="353.5,-263 353.5,-282 492.5,-282 492.5,-263 353.5,-263"/>
<text text-anchor="middle" x="423" y="-270" font-family="Helvetica,sans-Serif" font-size="10.00" fill="#000000">drake/solvers/solver_id.h</text>
</a>
</g>
</g>
<!-- Node0&#45;&gt;Node3 -->
<g id="edge3" class="edge">
<title>Node0&#45;&gt;Node3</title>
<path fill="none" stroke="#191970" d="M353.4224,-324.2967C367.8532,-313.5537 387.1484,-299.1895 401.7588,-288.3129"/>
<polygon fill="#191970" stroke="#191970" points="404.2336,-290.8339 410.165,-282.055 400.0536,-285.219 404.2336,-290.8339"/>
</g>
<!-- Node19 -->
<g id="node20" class="node">
<title>Node19</title>
<g id="a_node20"><a xlink:href="solver__type_8h.html" target="_top" xlink:title=" ">
<polygon fill="#ffffff" stroke="#000000" points="511,-257.5 511,-287.5 627,-287.5 627,-257.5 511,-257.5"/>
<text text-anchor="start" x="519" y="-275.5" font-family="Helvetica,sans-Serif" font-size="10.00" fill="#000000">drake/solvers/solver</text>
<text text-anchor="middle" x="569" y="-264.5" font-family="Helvetica,sans-Serif" font-size="10.00" fill="#000000">_type.h</text>
</a>
</g>
</g>
<!-- Node0&#45;&gt;Node19 -->
<g id="edge27" class="edge">
<title>Node0&#45;&gt;Node19</title>
<path fill="none" stroke="#191970" d="M385.963,-324.4639C421.5172,-314.3701 468.5274,-301.024 506.0028,-290.3848"/>
<polygon fill="#191970" stroke="#191970" points="507.142,-293.6998 515.806,-287.6017 505.2303,-286.9659 507.142,-293.6998"/>
</g>
<!-- Node3&#45;&gt;Node2 -->
<g id="edge7" class="edge">
<title>Node3&#45;&gt;Node2</title>
<path fill="none" stroke="#191970" d="M400.2192,-262.9005C376.5093,-252.9096 338.7551,-237.0006 309.0003,-224.4624"/>
<polygon fill="#191970" stroke="#191970" points="310.2231,-221.1796 299.6487,-220.5218 307.5048,-227.6303 310.2231,-221.1796"/>
</g>
<!-- Node4 -->
<g id="node5" class="node">
<title>Node4</title>
<g id="a_node5"><a xlink:title=" ">
<polygon fill="#ffffff" stroke="#bfbfbf" points="74.5,-129 74.5,-148 139.5,-148 139.5,-129 74.5,-129"/>
<text text-anchor="middle" x="107" y="-136" font-family="Helvetica,sans-Serif" font-size="10.00" fill="#000000">functional</text>
</a>
</g>
</g>
<!-- Node3&#45;&gt;Node4 -->
<g id="edge4" class="edge">
<title>Node3&#45;&gt;Node4</title>
<path fill="none" stroke="#191970" d="M413.8328,-262.8717C394.8889,-243.188 351.6422,-199.401 333,-190 258.2074,-152.2832 228.5756,-176.8924 148,-154 145.255,-153.2201 142.4344,-152.3361 139.6193,-151.3952"/>
<polygon fill="#191970" stroke="#191970" points="140.7818,-148.094 130.1871,-148.0459 138.4394,-154.6904 140.7818,-148.094"/>
</g>
<!-- Node5 -->
<g id="node6" class="node">
<title>Node5</title>
<g id="a_node6"><a xlink:title=" ">
<polygon fill="#ffffff" stroke="#bfbfbf" points="524.5,-196 524.5,-215 581.5,-215 581.5,-196 524.5,-196"/>
<text text-anchor="middle" x="553" y="-203" font-family="Helvetica,sans-Serif" font-size="10.00" fill="#000000">ostream</text>
</a>
</g>
</g>
<!-- Node3&#45;&gt;Node5 -->
<g id="edge5" class="edge">
<title>Node3&#45;&gt;Node5</title>
<path fill="none" stroke="#191970" d="M441.6258,-262.9005C463.5393,-251.6067 500.1256,-232.7506 525.3513,-219.7497"/>
<polygon fill="#191970" stroke="#191970" points="527.1232,-222.774 534.4087,-215.0817 523.9164,-216.5518 527.1232,-222.774"/>
</g>
<!-- Node6 -->
<g id="node7" class="node">
<title>Node6</title>
<g id="a_node7"><a xlink:title=" ">
<polygon fill="#ffffff" stroke="#bfbfbf" points="759,-129 759,-148 803,-148 803,-129 759,-129"/>
<text text-anchor="middle" x="781" y="-136" font-family="Helvetica,sans-Serif" font-size="10.00" fill="#000000">string</text>
</a>
</g>
</g>
<!-- Node3&#45;&gt;Node6 -->
<g id="edge6" class="edge">
<title>Node3&#45;&gt;Node6</title>
<path fill="none" stroke="#191970" d="M457.5467,-262.9128C491.5462,-253.2282 544.7907,-237.3925 590,-221 662.4769,-194.7205 679.9275,-186.1457 750,-154 751.0118,-153.5358 752.0392,-153.0578 753.0748,-152.5704"/>
<polygon fill="#191970" stroke="#191970" points="754.9363,-155.5577 762.41,-148.0481 751.8845,-149.258 754.9363,-155.5577"/>
</g>
<!-- Node7 -->
<g id="node8" class="node">
<title>Node7</title>
<g id="a_node8"><a xlink:href="hash_8h.html" target="_top" xlink:title=" ">
<polygon fill="#ffffff" stroke="#000000" points="381.5,-196 381.5,-215 506.5,-215 506.5,-196 381.5,-196"/>
<text text-anchor="middle" x="444" y="-203" font-family="Helvetica,sans-Serif" font-size="10.00" fill="#000000">drake/common/hash.h</text>
</a>
</g>
</g>
<!-- Node3&#45;&gt;Node7 -->
<g id="edge8" class="edge">
<title>Node3&#45;&gt;Node7</title>
<path fill="none" stroke="#191970" d="M426.0088,-262.9005C429.0964,-253.0495 433.9874,-237.4451 437.8908,-224.9912"/>
<polygon fill="#191970" stroke="#191970" points="441.3457,-225.6707 440.9968,-215.0817 434.6661,-223.5771 441.3457,-225.6707"/>
</g>
<!-- Node18 -->
<g id="node19" class="node">
<title>Node18</title>
<g id="a_node19"><a xlink:href="reset__after__move_8h.html" target="_top" xlink:title=" ">
<polygon fill="#ffffff" stroke="#000000" points="748,-190.5 748,-220.5 866,-220.5 866,-190.5 748,-190.5"/>
<text text-anchor="start" x="756" y="-208.5" font-family="Helvetica,sans-Serif" font-size="10.00" fill="#000000">drake/common/reset</text>
<text text-anchor="middle" x="807" y="-197.5" font-family="Helvetica,sans-Serif" font-size="10.00" fill="#000000">_after_move.h</text>
</a>
</g>
</g>
<!-- Node3&#45;&gt;Node18 -->
<g id="edge25" class="edge">
<title>Node3&#45;&gt;Node18</title>
<path fill="none" stroke="#191970" d="M470.5852,-262.9522C480.9317,-260.9353 491.8252,-258.8568 502,-257 582.8187,-242.251 675.9645,-226.7383 737.8427,-216.6418"/>
<polygon fill="#191970" stroke="#191970" points="738.5716,-220.0693 747.8787,-215.007 737.4461,-213.1603 738.5716,-220.0693"/>
</g>
<!-- Node7&#45;&gt;Node1 -->
<g id="edge14" class="edge">
<title>Node7&#45;&gt;Node1</title>
<path fill="none" stroke="#191970" d="M381.4874,-196.7126C365.6692,-194.505 348.7114,-192.1522 333,-190 213.931,-173.6896 180.982,-185.4903 65,-154 62.53,-153.3294 60.0066,-152.5318 57.4962,-151.6577"/>
<polygon fill="#191970" stroke="#191970" points="58.6075,-148.3353 48.0176,-148.0128 56.095,-154.8688 58.6075,-148.3353"/>
</g>
<!-- Node7&#45;&gt;Node4 -->
<g id="edge11" class="edge">
<title>Node7&#45;&gt;Node4</title>
<path fill="none" stroke="#191970" d="M398.042,-195.9693C387.8351,-193.9306 377.0605,-191.8389 367,-190 269.9679,-172.2644 243.2688,-179.5664 148,-154 145.175,-153.2419 142.274,-152.362 139.3835,-151.414"/>
<polygon fill="#191970" stroke="#191970" points="140.3172,-148.032 129.7224,-148.0064 137.9888,-154.6334 140.3172,-148.032"/>
</g>
<!-- Node7&#45;&gt;Node6 -->
<g id="edge16" class="edge">
<title>Node7&#45;&gt;Node6</title>
<path fill="none" stroke="#191970" d="M485.5842,-195.9629C495.2191,-193.8809 505.4482,-191.7724 515,-190 618.8894,-170.7222 649.304,-186.0148 750,-154 751.6558,-153.4736 753.3325,-152.8687 755.0042,-152.2098"/>
<polygon fill="#191970" stroke="#191970" points="756.6573,-155.3042 764.3458,-148.0147 753.7896,-148.9185 756.6573,-155.3042"/>
</g>
<!-- Node8 -->
<g id="node9" class="node">
<title>Node8</title>
<g id="a_node9"><a xlink:title=" ">
<polygon fill="#ffffff" stroke="#bfbfbf" points="157.5,-129 157.5,-148 204.5,-148 204.5,-129 157.5,-129"/>
<text text-anchor="middle" x="181" y="-136" font-family="Helvetica,sans-Serif" font-size="10.00" fill="#000000">cmath</text>
</a>
</g>
</g>
<!-- Node7&#45;&gt;Node8 -->
<g id="edge9" class="edge">
<title>Node7&#45;&gt;Node8</title>
<path fill="none" stroke="#191970" d="M398.5891,-195.967C336.3829,-182.8175 230.3638,-160.0488 213,-154 211.3969,-153.4416 209.769,-152.8242 208.14,-152.1671"/>
<polygon fill="#191970" stroke="#191970" points="209.526,-148.953 198.9654,-148.1014 206.6899,-155.3528 209.526,-148.953"/>
</g>
<!-- Node9 -->
<g id="node10" class="node">
<title>Node9</title>
<g id="a_node10"><a xlink:title=" ">
<polygon fill="#ffffff" stroke="#bfbfbf" points="222.5,-129 222.5,-148 275.5,-148 275.5,-129 222.5,-129"/>
<text text-anchor="middle" x="249" y="-136" font-family="Helvetica,sans-Serif" font-size="10.00" fill="#000000">cstddef</text>
</a>
</g>
</g>
<!-- Node7&#45;&gt;Node9 -->
<g id="edge10" class="edge">
<title>Node7&#45;&gt;Node9</title>
<path fill="none" stroke="#191970" d="M411.4141,-195.9198C379.0575,-186.1795 328.1797,-170.2481 285,-154 283.1849,-153.317 281.3278,-152.594 279.4605,-151.8483"/>
<polygon fill="#191970" stroke="#191970" points="280.765,-148.6003 270.1865,-148.0115 278.0889,-155.0686 280.765,-148.6003"/>
</g>
<!-- Node10 -->
<g id="node11" class="node">
<title>Node10</title>
<g id="a_node11"><a xlink:title=" ">
<polygon fill="#ffffff" stroke="#bfbfbf" points="294,-129 294,-148 354,-148 354,-129 294,-129"/>
<text text-anchor="middle" x="324" y="-136" font-family="Helvetica,sans-Serif" font-size="10.00" fill="#000000">iostream</text>
</a>
</g>
</g>
<!-- Node7&#45;&gt;Node10 -->
<g id="edge12" class="edge">
<title>Node7&#45;&gt;Node10</title>
<path fill="none" stroke="#191970" d="M426.8069,-195.9005C406.7573,-184.7062 373.4012,-166.0823 350.1398,-153.0947"/>
<polygon fill="#191970" stroke="#191970" points="351.5987,-149.9007 341.1612,-148.0817 348.1862,-156.0126 351.5987,-149.9007"/>
</g>
<!-- Node11 -->
<g id="node12" class="node">
<title>Node11</title>
<g id="a_node12"><a xlink:title=" ">
<polygon fill="#ffffff" stroke="#bfbfbf" points="372,-129 372,-148 410,-148 410,-129 372,-129"/>
<text text-anchor="middle" x="391" y="-136" font-family="Helvetica,sans-Serif" font-size="10.00" fill="#000000">map</text>
</a>
</g>
</g>
<!-- Node7&#45;&gt;Node11 -->
<g id="edge13" class="edge">
<title>Node7&#45;&gt;Node11</title>
<path fill="none" stroke="#191970" d="M436.4064,-195.9005C428.2202,-185.552 415.0115,-168.8542 404.9457,-156.1295"/>
<polygon fill="#191970" stroke="#191970" points="407.5286,-153.7531 398.5795,-148.0817 402.0386,-158.0959 407.5286,-153.7531"/>
</g>
<!-- Node12 -->
<g id="node13" class="node">
<title>Node12</title>
<g id="a_node13"><a xlink:title=" ">
<polygon fill="#ffffff" stroke="#bfbfbf" points="428,-129 428,-148 460,-148 460,-129 428,-129"/>
<text text-anchor="middle" x="444" y="-136" font-family="Helvetica,sans-Serif" font-size="10.00" fill="#000000">set</text>
</a>
</g>
</g>
<!-- Node7&#45;&gt;Node12 -->
<g id="edge15" class="edge">
<title>Node7&#45;&gt;Node12</title>
<path fill="none" stroke="#191970" d="M444,-195.9005C444,-186.149 444,-170.7597 444,-158.3695"/>
<polygon fill="#191970" stroke="#191970" points="447.5001,-158.0816 444,-148.0817 440.5001,-158.0817 447.5001,-158.0816"/>
</g>
<!-- Node13 -->
<g id="node14" class="node">
<title>Node13</title>
<g id="a_node14"><a xlink:title=" ">
<polygon fill="#ffffff" stroke="#bfbfbf" points="542.5,-.5 542.5,-19.5 611.5,-19.5 611.5,-.5 542.5,-.5"/>
<text text-anchor="middle" x="577" y="-7.5" font-family="Helvetica,sans-Serif" font-size="10.00" fill="#000000">type_traits</text>
</a>
</g>
</g>
<!-- Node7&#45;&gt;Node13 -->
<g id="edge17" class="edge">
<title>Node7&#45;&gt;Node13</title>
<path fill="none" stroke="#191970" d="M449.0353,-195.7388C454.2656,-185.463 462.5685,-168.7605 469,-154 487.6605,-111.1735 477.638,-92.3345 507,-56 517.6196,-42.8586 533.0187,-32.1705 546.6713,-24.4157"/>
<polygon fill="#191970" stroke="#191970" points="548.6174,-27.3431 555.764,-19.5215 545.2996,-21.1792 548.6174,-27.3431"/>
</g>
<!-- Node14 -->
<g id="node15" class="node">
<title>Node14</title>
<g id="a_node15"><a xlink:title=" ">
<polygon fill="#ffffff" stroke="#bfbfbf" points="821.5,-129 821.5,-148 866.5,-148 866.5,-129 821.5,-129"/>
<text text-anchor="middle" x="844" y="-136" font-family="Helvetica,sans-Serif" font-size="10.00" fill="#000000">utility</text>
</a>
</g>
</g>
<!-- Node7&#45;&gt;Node14 -->
<g id="edge18" class="edge">
<title>Node7&#45;&gt;Node14</title>
<path fill="none" stroke="#191970" d="M484.4216,-195.985C494.3829,-193.8313 505.0484,-191.6855 515,-190 646.099,-167.7954 684.4292,-191.4924 812,-154 813.7101,-153.4974 815.4416,-152.911 817.1678,-152.2661"/>
<polygon fill="#191970" stroke="#191970" points="819.0146,-155.2814 826.8122,-148.1087 816.2435,-148.8532 819.0146,-155.2814"/>
</g>
<!-- Node15 -->
<g id="node16" class="node">
<title>Node15</title>
<g id="a_node16"><a xlink:title=" ">
<polygon fill="#ffffff" stroke="#bfbfbf" points="693.5,-129 693.5,-148 740.5,-148 740.5,-129 693.5,-129"/>
<text text-anchor="middle" x="717" y="-136" font-family="Helvetica,sans-Serif" font-size="10.00" fill="#000000">vector</text>
</a>
</g>
</g>
<!-- Node7&#45;&gt;Node15 -->
<g id="edge19" class="edge">
<title>Node7&#45;&gt;Node15</title>
<path fill="none" stroke="#191970" d="M487.5484,-195.9565C496.619,-193.979 506.1201,-191.9151 515,-190 590.0704,-173.8101 611.2116,-178.4851 684,-154 685.6498,-153.445 687.326,-152.8304 689.0038,-152.1754"/>
<polygon fill="#191970" stroke="#191970" points="690.6512,-155.2771 698.4593,-148.1157 687.8896,-148.8449 690.6512,-155.2771"/>
</g>
<!-- Node16 -->
<g id="node17" class="node">
<title>Node16</title>
<g id="a_node17"><a xlink:href="drake__assert_8h.html" target="_top" xlink:title="Provides Drake&#39;s assertion implementation.">
<polygon fill="#ffffff" stroke="#000000" points="516.5,-56.5 516.5,-86.5 637.5,-86.5 637.5,-56.5 516.5,-56.5"/>
<text text-anchor="start" x="524.5" y="-74.5" font-family="Helvetica,sans-Serif" font-size="10.00" fill="#000000">drake/common/drake</text>
<text text-anchor="middle" x="577" y="-63.5" font-family="Helvetica,sans-Serif" font-size="10.00" fill="#000000">_assert.h</text>
</a>
</g>
</g>
<!-- Node7&#45;&gt;Node16 -->
<g id="edge20" class="edge">
<title>Node7&#45;&gt;Node16</title>
<path fill="none" stroke="#191970" d="M455.4413,-195.9712C467.3795,-185.8849 486.4844,-169.335 502,-154 521.6399,-134.5888 542.6807,-111.1928 557.4624,-94.2808"/>
<polygon fill="#191970" stroke="#191970" points="560.2665,-96.3898 564.1825,-86.5453 554.982,-91.7991 560.2665,-96.3898"/>
</g>
<!-- Node17 -->
<g id="node18" class="node">
<title>Node17</title>
<g id="a_node18"><a xlink:href="drake__throw_8h.html" target="_top" xlink:title="Provides a convenient wrapper to throw an exception when a condition is unmet.">
<polygon fill="#ffffff" stroke="#000000" points="554.5,-123.5 554.5,-153.5 675.5,-153.5 675.5,-123.5 554.5,-123.5"/>
<text text-anchor="start" x="562.5" y="-141.5" font-family="Helvetica,sans-Serif" font-size="10.00" fill="#000000">drake/common/drake</text>
<text text-anchor="middle" x="615" y="-130.5" font-family="Helvetica,sans-Serif" font-size="10.00" fill="#000000">_throw.h</text>
</a>
</g>
</g>
<!-- Node7&#45;&gt;Node17 -->
<g id="edge22" class="edge">
<title>Node7&#45;&gt;Node17</title>
<path fill="none" stroke="#191970" d="M468.5001,-195.9005C494.1098,-185.8663 534.9548,-169.8627 567.0186,-157.2997"/>
<polygon fill="#191970" stroke="#191970" points="568.6269,-160.4287 576.6609,-153.5218 566.0732,-153.9111 568.6269,-160.4287"/>
</g>
<!-- Node16&#45;&gt;Node13 -->
<g id="edge21" class="edge">
<title>Node16&#45;&gt;Node13</title>
<path fill="none" stroke="#191970" d="M577,-56.2977C577,-48.3834 577,-38.6043 577,-30.0759"/>
<polygon fill="#191970" stroke="#191970" points="580.5001,-29.8469 577,-19.8469 573.5001,-29.847 580.5001,-29.8469"/>
</g>
<!-- Node17&#45;&gt;Node13 -->
<g id="edge23" class="edge">
<title>Node17&#45;&gt;Node13</title>
<path fill="none" stroke="#191970" d="M628.2443,-123.3828C641.3922,-106.4345 657.9848,-78.3938 646,-56 638.5485,-42.0767 624.8151,-31.6399 611.551,-24.258"/>
<polygon fill="#191970" stroke="#191970" points="613.0215,-21.0787 602.5262,-19.6302 609.8274,-27.3075 613.0215,-21.0787"/>
</g>
<!-- Node17&#45;&gt;Node16 -->
<g id="edge24" class="edge">
<title>Node17&#45;&gt;Node16</title>
<path fill="none" stroke="#191970" d="M606.3772,-123.2967C601.713,-115.0729 595.8453,-104.7272 590.5826,-95.4483"/>
<polygon fill="#191970" stroke="#191970" points="593.5665,-93.6148 585.5887,-86.6432 587.4777,-97.0683 593.5665,-93.6148"/>
</g>
<!-- Node18&#45;&gt;Node14 -->
<g id="edge26" class="edge">
<title>Node18&#45;&gt;Node14</title>
<path fill="none" stroke="#191970" d="M815.3959,-190.2967C820.8808,-180.3645 828.0751,-167.3371 833.8763,-156.8321"/>
<polygon fill="#191970" stroke="#191970" points="836.953,-158.5009 838.7234,-148.055 830.8252,-155.1169 836.953,-158.5009"/>
</g>
</g>
</svg>
