<?xml version="1.0" encoding="UTF-8" standalone="no"?>
<!DOCTYPE svg PUBLIC "-//W3C//DTD SVG 1.1//EN"
 "http://www.w3.org/Graphics/SVG/1.1/DTD/svg11.dtd">
<!-- Generated by graphviz version 2.40.1 (20161225.0304)
 -->
<!-- Title: drake/bindings/pydrake/solvers/solvers_pybind.h Pages: 1 -->
<svg width="411pt" height="173pt"
 viewBox="0.00 0.00 410.50 173.00" xmlns="http://www.w3.org/2000/svg" xmlns:xlink="http://www.w3.org/1999/xlink">
<g id="graph0" class="graph" transform="scale(1 1) rotate(0) translate(4 169)">
<title>drake/bindings/pydrake/solvers/solvers_pybind.h</title>
<polygon fill="#ffffff" stroke="transparent" points="-4,4 -4,-169 406.5,-169 406.5,4 -4,4"/>
<!-- Node0 -->
<g id="node1" class="node">
<title>Node0</title>
<g id="a_node1"><a xlink:title="Helper methods for binding solvers.">
<polygon fill="#bfbfbf" stroke="#000000" points="28,-134.5 28,-164.5 168,-164.5 168,-134.5 28,-134.5"/>
<text text-anchor="start" x="36" y="-152.5" font-family="Helvetica,sans-Serif" font-size="10.00" fill="#000000">drake/bindings/pydrake</text>
<text text-anchor="middle" x="98" y="-141.5" font-family="Helvetica,sans-Serif" font-size="10.00" fill="#000000">/solvers/solvers_pybind.h</text>
</a>
</g>
</g>
<!-- Node1 -->
<g id="node2" class="node">
<title>Node1</title>
<g id="a_node2"><a xlink:title=" ">
<polygon fill="#ffffff" stroke="#bfbfbf" points="0,-73 0,-92 58,-92 58,-73 0,-73"/>
<text text-anchor="middle" x="29" y="-80" font-family="Helvetica,sans-Serif" font-size="10.00" fill="#000000">memory</text>
</a>
</g>
</g>
<!-- Node0&#45;&gt;Node1 -->
<g id="edge1" class="edge">
<title>Node0&#45;&gt;Node1</title>
<path fill="none" stroke="#191970" d="M82.3428,-134.2967C71.5923,-123.8578 57.3206,-109.9997 46.2445,-99.2446"/>
<polygon fill="#191970" stroke="#191970" points="48.4527,-96.5103 38.8402,-92.055 43.5763,-101.5323 48.4527,-96.5103"/>
</g>
<!-- Node2 -->
<g id="node3" class="node">
<title>Node2</title>
<g id="a_node3"><a xlink:title=" ">
<polygon fill="#ffffff" stroke="#bfbfbf" points="76,-73 76,-92 120,-92 120,-73 76,-73"/>
<text text-anchor="middle" x="98" y="-80" font-family="Helvetica,sans-Serif" font-size="10.00" fill="#000000">string</text>
</a>
</g>
</g>
<!-- Node0&#45;&gt;Node2 -->
<g id="edge2" class="edge">
<title>Node0&#45;&gt;Node2</title>
<path fill="none" stroke="#191970" d="M98,-134.2967C98,-124.7699 98,-112.3954 98,-102.1306"/>
<polygon fill="#191970" stroke="#191970" points="101.5001,-102.0549 98,-92.055 94.5001,-102.055 101.5001,-102.0549"/>
</g>
<!-- Node3 -->
<g id="node4" class="node">
<title>Node3</title>
<g id="a_node4"><a xlink:href="pydrake__pybind_8h.html" target="_top" xlink:title=" ">
<polygon fill="#ffffff" stroke="#000000" points="138.5,-67.5 138.5,-97.5 269.5,-97.5 269.5,-67.5 138.5,-67.5"/>
<text text-anchor="start" x="146.5" y="-85.5" font-family="Helvetica,sans-Serif" font-size="10.00" fill="#000000">drake/bindings/pydrake</text>
<text text-anchor="middle" x="204" y="-74.5" font-family="Helvetica,sans-Serif" font-size="10.00" fill="#000000">/pydrake_pybind.h</text>
</a>
</g>
</g>
<!-- Node0&#45;&gt;Node3 -->
<g id="edge3" class="edge">
<title>Node0&#45;&gt;Node3</title>
<path fill="none" stroke="#191970" d="M121.7885,-134.4639C136.4151,-125.2188 155.3583,-113.2452 171.3739,-103.1222"/>
<polygon fill="#191970" stroke="#191970" points="173.3412,-106.0193 179.9242,-97.7177 169.6011,-100.1022 173.3412,-106.0193"/>
</g>
<!-- Node4 -->
<g id="node5" class="node">
<title>Node4</title>
<g id="a_node5"><a xlink:title=" ">
<polygon fill="#ffffff" stroke="#bfbfbf" points="81.5,-6 81.5,-25 126.5,-25 126.5,-6 81.5,-6"/>
<text text-anchor="middle" x="104" y="-13" font-family="Helvetica,sans-Serif" font-size="10.00" fill="#000000">utility</text>
</a>
</g>
</g>
<!-- Node3&#45;&gt;Node4 -->
<g id="edge4" class="edge">
<title>Node3&#45;&gt;Node4</title>
<path fill="none" stroke="#191970" d="M181.3085,-67.2967C164.9717,-56.351 143.0241,-41.6462 126.6881,-30.701"/>
<polygon fill="#191970" stroke="#191970" points="128.517,-27.7135 118.2612,-25.055 124.6207,-33.5289 128.517,-27.7135"/>
</g>
<!-- Node5 -->
<g id="node6" class="node">
<title>Node5</title>
<g id="a_node6"><a xlink:title=" ">
<polygon fill="#ffffff" stroke="#bfbfbf" points="144.5,-6 144.5,-25 263.5,-25 263.5,-6 144.5,-6"/>
<text text-anchor="middle" x="204" y="-13" font-family="Helvetica,sans-Serif" font-size="10.00" fill="#000000">pybind11/pybind11.h</text>
</a>
</g>
</g>
<!-- Node3&#45;&gt;Node5 -->
<g id="edge5" class="edge">
<title>Node3&#45;&gt;Node5</title>
<path fill="none" stroke="#191970" d="M204,-67.2967C204,-57.7699 204,-45.3954 204,-35.1306"/>
<polygon fill="#191970" stroke="#191970" points="207.5001,-35.0549 204,-25.055 200.5001,-35.055 207.5001,-35.0549"/>
</g>
<!-- Node6 -->
<g id="node7" class="node">
<title>Node6</title>
<g id="a_node7"><a xlink:href="drake__deprecated_8h.html" target="_top" xlink:title="Provides a portable macro for use in generating compile&#45;time warnings for use of code that is permitt...">
<polygon fill="#ffffff" stroke="#000000" points="281.5,-.5 281.5,-30.5 402.5,-30.5 402.5,-.5 281.5,-.5"/>
<text text-anchor="start" x="289.5" y="-18.5" font-family="Helvetica,sans-Serif" font-size="10.00" fill="#000000">drake/common/drake</text>
<text text-anchor="middle" x="342" y="-7.5" font-family="Helvetica,sans-Serif" font-size="10.00" fill="#000000">_deprecated.h</text>
</a>
</g>
</g>
<!-- Node3&#45;&gt;Node6 -->
<g id="edge6" class="edge">
<title>Node3&#45;&gt;Node6</title>
<path fill="none" stroke="#191970" d="M234.9699,-67.4639C254.6292,-57.9191 280.2784,-45.4663 301.5393,-35.144"/>
<polygon fill="#191970" stroke="#191970" points="303.1888,-38.2339 310.656,-30.7177 300.1315,-31.9368 303.1888,-38.2339"/>
</g>
</g>
</svg>
