<?xml version="1.0" encoding="UTF-8" standalone="no"?>
<!DOCTYPE svg PUBLIC "-//W3C//DTD SVG 1.1//EN"
 "http://www.w3.org/Graphics/SVG/1.1/DTD/svg11.dtd">
<!-- Generated by graphviz version 2.40.1 (20161225.0304)
 -->
<!-- Title: drake/geometry/proximity/sorted_triplet.h Pages: 1 -->
<svg width="604pt" height="162pt"
 viewBox="0.00 0.00 603.50 162.00" xmlns="http://www.w3.org/2000/svg" xmlns:xlink="http://www.w3.org/1999/xlink">
<g id="graph0" class="graph" transform="scale(1 1) rotate(0) translate(4 158)">
<title>drake/geometry/proximity/sorted_triplet.h</title>
<polygon fill="#ffffff" stroke="transparent" points="-4,4 -4,-158 599.5,-158 599.5,4 -4,4"/>
<!-- Node0 -->
<g id="node1" class="node">
<title>Node0</title>
<g id="a_node1"><a xlink:title=" ">
<polygon fill="#bfbfbf" stroke="#000000" points="120.5,-123.5 120.5,-153.5 265.5,-153.5 265.5,-123.5 120.5,-123.5"/>
<text text-anchor="start" x="128.5" y="-141.5" font-family="Helvetica,sans-Serif" font-size="10.00" fill="#000000">drake/geometry/proximity</text>
<text text-anchor="middle" x="193" y="-130.5" font-family="Helvetica,sans-Serif" font-size="10.00" fill="#000000">/sorted_triplet.h</text>
</a>
</g>
</g>
<!-- Node1 -->
<g id="node2" class="node">
<title>Node1</title>
<g id="a_node2"><a xlink:title=" ">
<polygon fill="#ffffff" stroke="#bfbfbf" points="0,-62 0,-81 64,-81 64,-62 0,-62"/>
<text text-anchor="middle" x="32" y="-69" font-family="Helvetica,sans-Serif" font-size="10.00" fill="#000000">algorithm</text>
</a>
</g>
</g>
<!-- Node0&#45;&gt;Node1 -->
<g id="edge1" class="edge">
<title>Node0&#45;&gt;Node1</title>
<path fill="none" stroke="#191970" d="M156.8685,-123.4639C129.1246,-111.9183 91.1557,-96.1176 64.3918,-84.9798"/>
<polygon fill="#191970" stroke="#191970" points="65.6553,-81.7147 55.0781,-81.1039 62.9658,-88.1774 65.6553,-81.7147"/>
</g>
<!-- Node2 -->
<g id="node3" class="node">
<title>Node2</title>
<g id="a_node3"><a xlink:title=" ">
<polygon fill="#ffffff" stroke="#bfbfbf" points="82,-62 82,-81 124,-81 124,-62 82,-62"/>
<text text-anchor="middle" x="103" y="-69" font-family="Helvetica,sans-Serif" font-size="10.00" fill="#000000">array</text>
</a>
</g>
</g>
<!-- Node0&#45;&gt;Node2 -->
<g id="edge2" class="edge">
<title>Node0&#45;&gt;Node2</title>
<path fill="none" stroke="#191970" d="M172.5776,-123.2967C158.1468,-112.5537 138.8516,-98.1895 124.2412,-87.3129"/>
<polygon fill="#191970" stroke="#191970" points="125.9464,-84.219 115.835,-81.055 121.7664,-89.8339 125.9464,-84.219"/>
</g>
<!-- Node3 -->
<g id="node4" class="node">
<title>Node3</title>
<g id="a_node4"><a xlink:title=" ">
<polygon fill="#ffffff" stroke="#bfbfbf" points="142.5,-62 142.5,-81 183.5,-81 183.5,-62 142.5,-62"/>
<text text-anchor="middle" x="163" y="-69" font-family="Helvetica,sans-Serif" font-size="10.00" fill="#000000">tuple</text>
</a>
</g>
</g>
<!-- Node0&#45;&gt;Node3 -->
<g id="edge3" class="edge">
<title>Node0&#45;&gt;Node3</title>
<path fill="none" stroke="#191970" d="M186.1925,-123.2967C181.8361,-113.5672 176.1496,-100.8675 171.4978,-90.4784"/>
<polygon fill="#191970" stroke="#191970" points="174.5594,-88.7515 167.2783,-81.055 168.1707,-91.6122 174.5594,-88.7515"/>
</g>
<!-- Node4 -->
<g id="node5" class="node">
<title>Node4</title>
<g id="a_node5"><a xlink:title=" ">
<polygon fill="#ffffff" stroke="#bfbfbf" points="201.5,-62 201.5,-81 246.5,-81 246.5,-62 201.5,-62"/>
<text text-anchor="middle" x="224" y="-69" font-family="Helvetica,sans-Serif" font-size="10.00" fill="#000000">utility</text>
</a>
</g>
</g>
<!-- Node0&#45;&gt;Node4 -->
<g id="edge4" class="edge">
<title>Node0&#45;&gt;Node4</title>
<path fill="none" stroke="#191970" d="M200.0344,-123.2967C204.583,-113.4658 210.5346,-100.6026 215.3688,-90.1545"/>
<polygon fill="#191970" stroke="#191970" points="218.5563,-91.6003 219.579,-81.055 212.2033,-88.6609 218.5563,-91.6003"/>
</g>
<!-- Node5 -->
<g id="node6" class="node">
<title>Node5</title>
<g id="a_node6"><a xlink:href="drake__copyable_8h.html" target="_top" xlink:title="Provides careful macros to selectively enable or disable the special member functions for copy&#45;constr...">
<polygon fill="#ffffff" stroke="#000000" points="264.5,-56.5 264.5,-86.5 385.5,-86.5 385.5,-56.5 264.5,-56.5"/>
<text text-anchor="start" x="272.5" y="-74.5" font-family="Helvetica,sans-Serif" font-size="10.00" fill="#000000">drake/common/drake</text>
<text text-anchor="middle" x="325" y="-63.5" font-family="Helvetica,sans-Serif" font-size="10.00" fill="#000000">_copyable.h</text>
</a>
</g>
</g>
<!-- Node0&#45;&gt;Node5 -->
<g id="edge5" class="edge">
<title>Node0&#45;&gt;Node5</title>
<path fill="none" stroke="#191970" d="M222.6234,-123.4639C241.3436,-113.9619 265.7421,-101.5779 286.0246,-91.283"/>
<polygon fill="#191970" stroke="#191970" points="287.6858,-94.3649 295.0188,-86.7177 284.5175,-88.1229 287.6858,-94.3649"/>
</g>
<!-- Node6 -->
<g id="node7" class="node">
<title>Node6</title>
<g id="a_node7"><a xlink:href="is__less__than__comparable_8h.html" target="_top" xlink:title=" ">
<polygon fill="#ffffff" stroke="#000000" points="404,-56.5 404,-86.5 530,-86.5 530,-56.5 404,-56.5"/>
<text text-anchor="start" x="412" y="-74.5" font-family="Helvetica,sans-Serif" font-size="10.00" fill="#000000">drake/common/is_less</text>
<text text-anchor="middle" x="467" y="-63.5" font-family="Helvetica,sans-Serif" font-size="10.00" fill="#000000">_than_comparable.h</text>
</a>
</g>
</g>
<!-- Node0&#45;&gt;Node6 -->
<g id="edge6" class="edge">
<title>Node0&#45;&gt;Node6</title>
<path fill="none" stroke="#191970" d="M254.4909,-123.4639C296.297,-113.2412 351.7453,-99.6827 395.52,-88.9787"/>
<polygon fill="#191970" stroke="#191970" points="396.3584,-92.3769 405.2409,-86.6017 394.6957,-85.5772 396.3584,-92.3769"/>
</g>
<!-- Node7 -->
<g id="node8" class="node">
<title>Node7</title>
<g id="a_node8"><a xlink:title=" ">
<polygon fill="#ffffff" stroke="#bfbfbf" points="371.5,-.5 371.5,-19.5 440.5,-19.5 440.5,-.5 371.5,-.5"/>
<text text-anchor="middle" x="406" y="-7.5" font-family="Helvetica,sans-Serif" font-size="10.00" fill="#000000">type_traits</text>
</a>
</g>
</g>
<!-- Node6&#45;&gt;Node7 -->
<g id="edge7" class="edge">
<title>Node6&#45;&gt;Node7</title>
<path fill="none" stroke="#191970" d="M451.9213,-56.2977C443.1011,-47.4052 431.9459,-36.1586 422.8388,-26.9769"/>
<polygon fill="#191970" stroke="#191970" points="425.294,-24.4821 415.7669,-19.8469 420.3241,-29.4116 425.294,-24.4821"/>
</g>
<!-- Node8 -->
<g id="node9" class="node">
<title>Node8</title>
<g id="a_node9"><a xlink:href="unused_8h.html" target="_top" xlink:title=" ">
<polygon fill="#ffffff" stroke="#000000" points="458.5,-.5 458.5,-19.5 595.5,-19.5 595.5,-.5 458.5,-.5"/>
<text text-anchor="middle" x="527" y="-7.5" font-family="Helvetica,sans-Serif" font-size="10.00" fill="#000000">drake/common/unused.h</text>
</a>
</g>
</g>
<!-- Node6&#45;&gt;Node8 -->
<g id="edge8" class="edge">
<title>Node6&#45;&gt;Node8</title>
<path fill="none" stroke="#191970" d="M481.8315,-56.2977C490.4204,-47.4941 501.2602,-36.3833 510.1679,-27.2529"/>
<polygon fill="#191970" stroke="#191970" points="512.9152,-29.4489 517.3932,-19.8469 507.9047,-24.5606 512.9152,-29.4489"/>
</g>
</g>
</svg>
