<?xml version="1.0" encoding="UTF-8" standalone="no"?>
<!DOCTYPE svg PUBLIC "-//W3C//DTD SVG 1.1//EN"
 "http://www.w3.org/Graphics/SVG/1.1/DTD/svg11.dtd">
<!-- Generated by graphviz version 2.40.1 (20161225.0304)
 -->
<!-- Title: drake/bindings/pydrake/common/sorted_pair_pybind.h Pages: 1 -->
<svg width="1134pt" height="363pt"
 viewBox="0.00 0.00 1134.00 363.00" xmlns="http://www.w3.org/2000/svg" xmlns:xlink="http://www.w3.org/1999/xlink">
<g id="graph0" class="graph" transform="scale(1 1) rotate(0) translate(4 359)">
<title>drake/bindings/pydrake/common/sorted_pair_pybind.h</title>
<polygon fill="#ffffff" stroke="transparent" points="-4,4 -4,-359 1130,-359 1130,4 -4,4"/>
<!-- Node0 -->
<g id="node1" class="node">
<title>Node0</title>
<g id="a_node1"><a xlink:title=" ">
<polygon fill="#bfbfbf" stroke="#000000" points="67,-324.5 67,-354.5 234,-354.5 234,-324.5 67,-324.5"/>
<text text-anchor="start" x="75" y="-342.5" font-family="Helvetica,sans-Serif" font-size="10.00" fill="#000000">drake/bindings/pydrake</text>
<text text-anchor="middle" x="150.5" y="-331.5" font-family="Helvetica,sans-Serif" font-size="10.00" fill="#000000">/common/sorted_pair_pybind.h</text>
</a>
</g>
</g>
<!-- Node1 -->
<g id="node2" class="node">
<title>Node1</title>
<g id="a_node2"><a xlink:title=" ">
<polygon fill="#ffffff" stroke="#bfbfbf" points="0,-196 0,-215 119,-215 119,-196 0,-196"/>
<text text-anchor="middle" x="59.5" y="-203" font-family="Helvetica,sans-Serif" font-size="10.00" fill="#000000">pybind11/pybind11.h</text>
</a>
</g>
</g>
<!-- Node0&#45;&gt;Node1 -->
<g id="edge1" class="edge">
<title>Node0&#45;&gt;Node1</title>
<path fill="none" stroke="#191970" d="M117.5231,-324.3266C102.4522,-315.7464 85.7191,-303.5869 75.5,-288 63.1046,-269.0938 59.8528,-242.8493 59.2169,-225.0767"/>
<polygon fill="#191970" stroke="#191970" points="62.7161,-224.975 59.1037,-215.015 55.7165,-225.0538 62.7161,-224.975"/>
</g>
<!-- Node2 -->
<g id="node3" class="node">
<title>Node2</title>
<g id="a_node3"><a xlink:href="pydrake__pybind_8h.html" target="_top" xlink:title=" ">
<polygon fill="#ffffff" stroke="#000000" points="85,-257.5 85,-287.5 216,-287.5 216,-257.5 85,-257.5"/>
<text text-anchor="start" x="93" y="-275.5" font-family="Helvetica,sans-Serif" font-size="10.00" fill="#000000">drake/bindings/pydrake</text>
<text text-anchor="middle" x="150.5" y="-264.5" font-family="Helvetica,sans-Serif" font-size="10.00" fill="#000000">/pydrake_pybind.h</text>
</a>
</g>
</g>
<!-- Node0&#45;&gt;Node2 -->
<g id="edge2" class="edge">
<title>Node0&#45;&gt;Node2</title>
<path fill="none" stroke="#191970" d="M150.5,-324.2967C150.5,-316.5013 150.5,-306.7991 150.5,-297.9064"/>
<polygon fill="#191970" stroke="#191970" points="154.0001,-297.6431 150.5,-287.6432 147.0001,-297.6432 154.0001,-297.6431"/>
</g>
<!-- Node4 -->
<g id="node5" class="node">
<title>Node4</title>
<g id="a_node5"><a xlink:href="sorted__pair_8h.html" target="_top" xlink:title="Provides drake::MakeSortedPair and drake::SortedPair for storing two values of a certain type in sort...">
<polygon fill="#ffffff" stroke="#000000" points="635.5,-257.5 635.5,-287.5 759.5,-287.5 759.5,-257.5 635.5,-257.5"/>
<text text-anchor="start" x="643.5" y="-275.5" font-family="Helvetica,sans-Serif" font-size="10.00" fill="#000000">drake/common/sorted</text>
<text text-anchor="middle" x="697.5" y="-264.5" font-family="Helvetica,sans-Serif" font-size="10.00" fill="#000000">_pair.h</text>
</a>
</g>
</g>
<!-- Node0&#45;&gt;Node4 -->
<g id="edge5" class="edge">
<title>Node0&#45;&gt;Node4</title>
<path fill="none" stroke="#191970" d="M234.173,-329.2512C340.9403,-316.1737 523.8645,-293.768 624.9826,-281.3824"/>
<polygon fill="#191970" stroke="#191970" points="625.6047,-284.8324 635.105,-280.1425 624.7536,-277.8844 625.6047,-284.8324"/>
</g>
<!-- Node2&#45;&gt;Node1 -->
<g id="edge4" class="edge">
<title>Node2&#45;&gt;Node1</title>
<path fill="none" stroke="#191970" d="M129.8507,-257.2967C115.1219,-246.4524 95.3814,-231.9182 80.5604,-221.006"/>
<polygon fill="#191970" stroke="#191970" points="82.6056,-218.1655 72.4776,-215.055 78.4553,-223.8025 82.6056,-218.1655"/>
</g>
<!-- Node3 -->
<g id="node4" class="node">
<title>Node3</title>
<g id="a_node4"><a xlink:title=" ">
<polygon fill="#ffffff" stroke="#bfbfbf" points="43,-129 43,-148 88,-148 88,-129 43,-129"/>
<text text-anchor="middle" x="65.5" y="-136" font-family="Helvetica,sans-Serif" font-size="10.00" fill="#000000">utility</text>
</a>
</g>
</g>
<!-- Node2&#45;&gt;Node3 -->
<g id="edge3" class="edge">
<title>Node2&#45;&gt;Node3</title>
<path fill="none" stroke="#191970" d="M149.0292,-257.3889C146.7416,-239.9441 141.0801,-210.9663 127.5,-190 118.0434,-175.4001 103.1512,-162.8356 90.3323,-153.7725"/>
<polygon fill="#191970" stroke="#191970" points="92.1294,-150.763 81.8811,-148.0754 88.2166,-156.5673 92.1294,-150.763"/>
</g>
<!-- Node4&#45;&gt;Node3 -->
<g id="edge8" class="edge">
<title>Node4&#45;&gt;Node3</title>
<path fill="none" stroke="#191970" d="M635.4179,-266.1282C524.6533,-253.482 286.7429,-220.5027 96.5,-154 95.08,-153.5036 93.6416,-152.9563 92.2021,-152.3729"/>
<polygon fill="#191970" stroke="#191970" points="93.4206,-149.0827 82.8666,-148.1526 90.537,-155.4612 93.4206,-149.0827"/>
</g>
<!-- Node5 -->
<g id="node6" class="node">
<title>Node5</title>
<g id="a_node6"><a xlink:title=" ">
<polygon fill="#ffffff" stroke="#bfbfbf" points="665.5,-196 665.5,-215 729.5,-215 729.5,-196 665.5,-196"/>
<text text-anchor="middle" x="697.5" y="-203" font-family="Helvetica,sans-Serif" font-size="10.00" fill="#000000">algorithm</text>
</a>
</g>
</g>
<!-- Node4&#45;&gt;Node5 -->
<g id="edge6" class="edge">
<title>Node4&#45;&gt;Node5</title>
<path fill="none" stroke="#191970" d="M697.5,-257.2967C697.5,-247.7699 697.5,-235.3954 697.5,-225.1306"/>
<polygon fill="#191970" stroke="#191970" points="701.0001,-225.0549 697.5,-215.055 694.0001,-225.055 701.0001,-225.0549"/>
</g>
<!-- Node6 -->
<g id="node7" class="node">
<title>Node6</title>
<g id="a_node7"><a xlink:title=" ">
<polygon fill="#ffffff" stroke="#bfbfbf" points="848.5,-129 848.5,-148 908.5,-148 908.5,-129 848.5,-129"/>
<text text-anchor="middle" x="878.5" y="-136" font-family="Helvetica,sans-Serif" font-size="10.00" fill="#000000">iostream</text>
</a>
</g>
</g>
<!-- Node4&#45;&gt;Node6 -->
<g id="edge7" class="edge">
<title>Node4&#45;&gt;Node6</title>
<path fill="none" stroke="#191970" d="M717.9112,-257.389C752.5147,-231.7709 822.3433,-180.0746 857.4049,-154.1174"/>
<polygon fill="#191970" stroke="#191970" points="859.5726,-156.8674 865.5272,-148.1042 855.4075,-151.2413 859.5726,-156.8674"/>
</g>
<!-- Node7 -->
<g id="node8" class="node">
<title>Node7</title>
<g id="a_node8"><a xlink:href="drake__copyable_8h.html" target="_top" xlink:title="Provides careful macros to selectively enable or disable the special member functions for copy&#45;constr...">
<polygon fill="#ffffff" stroke="#000000" points="1005,-190.5 1005,-220.5 1126,-220.5 1126,-190.5 1005,-190.5"/>
<text text-anchor="start" x="1013" y="-208.5" font-family="Helvetica,sans-Serif" font-size="10.00" fill="#000000">drake/common/drake</text>
<text text-anchor="middle" x="1065.5" y="-197.5" font-family="Helvetica,sans-Serif" font-size="10.00" fill="#000000">_copyable.h</text>
</a>
</g>
</g>
<!-- Node4&#45;&gt;Node7 -->
<g id="edge9" class="edge">
<title>Node4&#45;&gt;Node7</title>
<path fill="none" stroke="#191970" d="M759.5811,-262.6399C817.7881,-253.1978 907.4704,-238.1459 994.9974,-221.0475"/>
<polygon fill="#191970" stroke="#191970" points="995.6922,-224.478 1004.8301,-219.1162 994.3429,-217.6093 995.6922,-224.478"/>
</g>
<!-- Node8 -->
<g id="node9" class="node">
<title>Node8</title>
<g id="a_node9"><a xlink:href="hash_8h.html" target="_top" xlink:title=" ">
<polygon fill="#ffffff" stroke="#000000" points="422,-196 422,-215 547,-215 547,-196 422,-196"/>
<text text-anchor="middle" x="484.5" y="-203" font-family="Helvetica,sans-Serif" font-size="10.00" fill="#000000">drake/common/hash.h</text>
</a>
</g>
</g>
<!-- Node4&#45;&gt;Node8 -->
<g id="edge10" class="edge">
<title>Node4&#45;&gt;Node8</title>
<path fill="none" stroke="#191970" d="M649.6986,-257.4639C611.916,-245.5792 559.7996,-229.1858 524.273,-218.0108"/>
<polygon fill="#191970" stroke="#191970" points="525.3077,-214.6672 514.7183,-215.0053 523.2073,-221.3447 525.3077,-214.6672"/>
</g>
<!-- Node20 -->
<g id="node21" class="node">
<title>Node20</title>
<g id="a_node21"><a xlink:href="is__less__than__comparable_8h.html" target="_top" xlink:title=" ">
<polygon fill="#ffffff" stroke="#000000" points="860.5,-190.5 860.5,-220.5 986.5,-220.5 986.5,-190.5 860.5,-190.5"/>
<text text-anchor="start" x="868.5" y="-208.5" font-family="Helvetica,sans-Serif" font-size="10.00" fill="#000000">drake/common/is_less</text>
<text text-anchor="middle" x="923.5" y="-197.5" font-family="Helvetica,sans-Serif" font-size="10.00" fill="#000000">_than_comparable.h</text>
</a>
</g>
</g>
<!-- Node4&#45;&gt;Node20 -->
<g id="edge27" class="edge">
<title>Node4&#45;&gt;Node20</title>
<path fill="none" stroke="#191970" d="M748.2188,-257.4639C782.1216,-247.4131 826.9018,-234.1375 862.7135,-223.5208"/>
<polygon fill="#191970" stroke="#191970" points="863.9673,-226.7997 872.56,-220.6017 861.9776,-220.0884 863.9673,-226.7997"/>
</g>
<!-- Node8&#45;&gt;Node3 -->
<g id="edge20" class="edge">
<title>Node8&#45;&gt;Node3</title>
<path fill="none" stroke="#191970" d="M421.7521,-198.3243C319.9017,-186.5044 126.8692,-163.3213 96.5,-154 94.839,-153.4902 93.1583,-152.8982 91.4835,-152.249"/>
<polygon fill="#191970" stroke="#191970" points="92.6923,-148.9559 82.1337,-148.0802 89.8417,-155.3492 92.6923,-148.9559"/>
</g>
<!-- Node8&#45;&gt;Node6 -->
<g id="edge14" class="edge">
<title>Node8&#45;&gt;Node6</title>
<path fill="none" stroke="#191970" d="M547.0586,-200.6869C618.4689,-194.2098 738.3427,-180.3306 838.5,-154 841.2686,-153.2722 844.1076,-152.4134 846.9333,-151.4796"/>
<polygon fill="#191970" stroke="#191970" points="848.1371,-154.7662 856.3686,-148.0959 845.7741,-148.1771 848.1371,-154.7662"/>
</g>
<!-- Node9 -->
<g id="node10" class="node">
<title>Node9</title>
<g id="a_node10"><a xlink:title=" ">
<polygon fill="#ffffff" stroke="#bfbfbf" points="106,-129 106,-148 153,-148 153,-129 106,-129"/>
<text text-anchor="middle" x="129.5" y="-136" font-family="Helvetica,sans-Serif" font-size="10.00" fill="#000000">cmath</text>
</a>
</g>
</g>
<!-- Node8&#45;&gt;Node9 -->
<g id="edge11" class="edge">
<title>Node8&#45;&gt;Node9</title>
<path fill="none" stroke="#191970" d="M421.8473,-197.7265C342.0517,-187.4425 208.8318,-168.8799 161.5,-154 159.8401,-153.4782 158.1578,-152.8833 156.4781,-152.2379"/>
<polygon fill="#191970" stroke="#191970" points="157.6276,-148.9212 147.0613,-148.144 154.8366,-155.3408 157.6276,-148.9212"/>
</g>
<!-- Node10 -->
<g id="node11" class="node">
<title>Node10</title>
<g id="a_node11"><a xlink:title=" ">
<polygon fill="#ffffff" stroke="#bfbfbf" points="171,-129 171,-148 224,-148 224,-129 171,-129"/>
<text text-anchor="middle" x="197.5" y="-136" font-family="Helvetica,sans-Serif" font-size="10.00" fill="#000000">cstddef</text>
</a>
</g>
</g>
<!-- Node8&#45;&gt;Node10 -->
<g id="edge12" class="edge">
<title>Node8&#45;&gt;Node10</title>
<path fill="none" stroke="#191970" d="M421.9258,-196.559C370.3452,-188.2783 295.666,-174.1812 232.5,-154 230.6009,-153.3932 228.6662,-152.7158 226.7305,-151.9927"/>
<polygon fill="#191970" stroke="#191970" points="227.7828,-148.6422 217.2013,-148.1107 225.1419,-155.1249 227.7828,-148.6422"/>
</g>
<!-- Node11 -->
<g id="node12" class="node">
<title>Node11</title>
<g id="a_node12"><a xlink:title=" ">
<polygon fill="#ffffff" stroke="#bfbfbf" points="242,-129 242,-148 307,-148 307,-129 242,-129"/>
<text text-anchor="middle" x="274.5" y="-136" font-family="Helvetica,sans-Serif" font-size="10.00" fill="#000000">functional</text>
</a>
</g>
</g>
<!-- Node8&#45;&gt;Node11 -->
<g id="edge13" class="edge">
<title>Node8&#45;&gt;Node11</title>
<path fill="none" stroke="#191970" d="M451.4902,-195.9761C417.4865,-186.0263 363.0362,-169.7061 316.5,-154 314.1158,-153.1953 311.663,-152.3463 309.1969,-151.477"/>
<polygon fill="#191970" stroke="#191970" points="310.332,-148.1658 299.7375,-148.0745 307.9627,-154.7526 310.332,-148.1658"/>
</g>
<!-- Node12 -->
<g id="node13" class="node">
<title>Node12</title>
<g id="a_node13"><a xlink:title=" ">
<polygon fill="#ffffff" stroke="#bfbfbf" points="325.5,-129 325.5,-148 363.5,-148 363.5,-129 325.5,-129"/>
<text text-anchor="middle" x="344.5" y="-136" font-family="Helvetica,sans-Serif" font-size="10.00" fill="#000000">map</text>
</a>
</g>
</g>
<!-- Node8&#45;&gt;Node12 -->
<g id="edge15" class="edge">
<title>Node8&#45;&gt;Node12</title>
<path fill="none" stroke="#191970" d="M462.379,-195.9125C439.6187,-185.9121 403.2471,-169.5522 372.5,-154 371.8121,-153.652 371.1165,-153.2963 370.416,-152.9345"/>
<polygon fill="#191970" stroke="#191970" points="371.7401,-149.6738 361.2705,-148.0494 368.442,-155.8482 371.7401,-149.6738"/>
</g>
<!-- Node13 -->
<g id="node14" class="node">
<title>Node13</title>
<g id="a_node14"><a xlink:title=" ">
<polygon fill="#ffffff" stroke="#bfbfbf" points="381.5,-129 381.5,-148 437.5,-148 437.5,-129 381.5,-129"/>
<text text-anchor="middle" x="409.5" y="-136" font-family="Helvetica,sans-Serif" font-size="10.00" fill="#000000">optional</text>
</a>
</g>
</g>
<!-- Node8&#45;&gt;Node13 -->
<g id="edge16" class="edge">
<title>Node8&#45;&gt;Node13</title>
<path fill="none" stroke="#191970" d="M473.7543,-195.9005C461.836,-185.2535 442.3943,-167.8856 428.0132,-155.0385"/>
<polygon fill="#191970" stroke="#191970" points="430.0151,-152.1337 420.2257,-148.0817 425.3516,-157.354 430.0151,-152.1337"/>
</g>
<!-- Node14 -->
<g id="node15" class="node">
<title>Node14</title>
<g id="a_node15"><a xlink:title=" ">
<polygon fill="#ffffff" stroke="#bfbfbf" points="455.5,-129 455.5,-148 487.5,-148 487.5,-129 455.5,-129"/>
<text text-anchor="middle" x="471.5" y="-136" font-family="Helvetica,sans-Serif" font-size="10.00" fill="#000000">set</text>
</a>
</g>
</g>
<!-- Node8&#45;&gt;Node14 -->
<g id="edge17" class="edge">
<title>Node8&#45;&gt;Node14</title>
<path fill="none" stroke="#191970" d="M482.6374,-195.9005C480.726,-186.0495 477.6983,-170.4451 475.2819,-157.9912"/>
<polygon fill="#191970" stroke="#191970" points="478.6999,-157.2319 473.3591,-148.0817 471.8281,-158.5653 478.6999,-157.2319"/>
</g>
<!-- Node15 -->
<g id="node16" class="node">
<title>Node15</title>
<g id="a_node16"><a xlink:title=" ">
<polygon fill="#ffffff" stroke="#bfbfbf" points="505.5,-129 505.5,-148 549.5,-148 549.5,-129 505.5,-129"/>
<text text-anchor="middle" x="527.5" y="-136" font-family="Helvetica,sans-Serif" font-size="10.00" fill="#000000">string</text>
</a>
</g>
</g>
<!-- Node8&#45;&gt;Node15 -->
<g id="edge18" class="edge">
<title>Node8&#45;&gt;Node15</title>
<path fill="none" stroke="#191970" d="M490.6609,-195.9005C497.2386,-185.6515 507.8133,-169.1747 515.9493,-156.4976"/>
<polygon fill="#191970" stroke="#191970" points="518.8949,-158.388 521.3506,-148.0817 513.0037,-154.6071 518.8949,-158.388"/>
</g>
<!-- Node16 -->
<g id="node17" class="node">
<title>Node16</title>
<g id="a_node17"><a xlink:title=" ">
<polygon fill="#ffffff" stroke="#bfbfbf" points="676,-.5 676,-19.5 745,-19.5 745,-.5 676,-.5"/>
<text text-anchor="middle" x="710.5" y="-7.5" font-family="Helvetica,sans-Serif" font-size="10.00" fill="#000000">type_traits</text>
</a>
</g>
</g>
<!-- Node8&#45;&gt;Node16 -->
<g id="edge19" class="edge">
<title>Node8&#45;&gt;Node16</title>
<path fill="none" stroke="#191970" d="M504.2616,-195.9922C520.7701,-187.1582 543.8908,-172.5789 558.5,-154 587.3758,-117.2779 563.693,-89.2569 596.5,-56 615.1882,-37.0555 642.7159,-25.6527 666.0389,-18.9393"/>
<polygon fill="#191970" stroke="#191970" points="666.9852,-22.3093 675.739,-16.3409 665.1739,-15.5477 666.9852,-22.3093"/>
</g>
<!-- Node17 -->
<g id="node18" class="node">
<title>Node17</title>
<g id="a_node18"><a xlink:title=" ">
<polygon fill="#ffffff" stroke="#bfbfbf" points="783,-129 783,-148 830,-148 830,-129 783,-129"/>
<text text-anchor="middle" x="806.5" y="-136" font-family="Helvetica,sans-Serif" font-size="10.00" fill="#000000">vector</text>
</a>
</g>
</g>
<!-- Node8&#45;&gt;Node17 -->
<g id="edge21" class="edge">
<title>Node8&#45;&gt;Node17</title>
<path fill="none" stroke="#191970" d="M547.0884,-199.1566C606.4069,-192.0263 697.4881,-178.1587 773.5,-154 775.3549,-153.4104 777.2404,-152.7389 779.1222,-152.0135"/>
<polygon fill="#191970" stroke="#191970" points="780.5262,-155.2198 788.3439,-148.069 777.7732,-148.7839 780.5262,-155.2198"/>
</g>
<!-- Node18 -->
<g id="node19" class="node">
<title>Node18</title>
<g id="a_node19"><a xlink:href="drake__assert_8h.html" target="_top" xlink:title="Provides Drake&#39;s assertion implementation.">
<polygon fill="#ffffff" stroke="#000000" points="606,-56.5 606,-86.5 727,-86.5 727,-56.5 606,-56.5"/>
<text text-anchor="start" x="614" y="-74.5" font-family="Helvetica,sans-Serif" font-size="10.00" fill="#000000">drake/common/drake</text>
<text text-anchor="middle" x="666.5" y="-63.5" font-family="Helvetica,sans-Serif" font-size="10.00" fill="#000000">_assert.h</text>
</a>
</g>
</g>
<!-- Node8&#45;&gt;Node18 -->
<g id="edge22" class="edge">
<title>Node8&#45;&gt;Node18</title>
<path fill="none" stroke="#191970" d="M511.5925,-195.832C534.2355,-186.9908 566.7103,-172.4871 591.5,-154 614.1694,-137.0941 635.3905,-112.6157 649.4334,-94.7136"/>
<polygon fill="#191970" stroke="#191970" points="652.4134,-96.5794 655.7255,-86.5156 646.8605,-92.3174 652.4134,-96.5794"/>
</g>
<!-- Node19 -->
<g id="node20" class="node">
<title>Node19</title>
<g id="a_node20"><a xlink:href="drake__throw_8h.html" target="_top" xlink:title="Provides a convenient wrapper to throw an exception when a condition is unmet.">
<polygon fill="#ffffff" stroke="#000000" points="644,-123.5 644,-153.5 765,-153.5 765,-123.5 644,-123.5"/>
<text text-anchor="start" x="652" y="-141.5" font-family="Helvetica,sans-Serif" font-size="10.00" fill="#000000">drake/common/drake</text>
<text text-anchor="middle" x="704.5" y="-130.5" font-family="Helvetica,sans-Serif" font-size="10.00" fill="#000000">_throw.h</text>
</a>
</g>
</g>
<!-- Node8&#45;&gt;Node19 -->
<g id="edge24" class="edge">
<title>Node8&#45;&gt;Node19</title>
<path fill="none" stroke="#191970" d="M516.0206,-195.9005C549.6789,-185.6501 603.792,-169.1702 645.4206,-156.4924"/>
<polygon fill="#191970" stroke="#191970" points="646.6283,-159.7834 655.1748,-153.5218 644.5889,-153.087 646.6283,-159.7834"/>
</g>
<!-- Node18&#45;&gt;Node16 -->
<g id="edge23" class="edge">
<title>Node18&#45;&gt;Node16</title>
<path fill="none" stroke="#191970" d="M677.3764,-56.2977C683.4841,-47.7609 691.1439,-37.0545 697.5588,-28.0883"/>
<polygon fill="#191970" stroke="#191970" points="700.4829,-30.0163 703.455,-19.8469 694.7899,-25.9433 700.4829,-30.0163"/>
</g>
<!-- Node19&#45;&gt;Node16 -->
<g id="edge25" class="edge">
<title>Node19&#45;&gt;Node16</title>
<path fill="none" stroke="#191970" d="M716.6789,-123.2988C723.6867,-113.5503 731.8134,-100.2728 735.5,-87 739.1872,-73.7248 738.8941,-69.3532 735.5,-56 733.0215,-46.2493 728.0127,-36.3309 723.1249,-28.2128"/>
<polygon fill="#191970" stroke="#191970" points="725.9556,-26.1437 717.6015,-19.6276 720.0687,-29.9312 725.9556,-26.1437"/>
</g>
<!-- Node19&#45;&gt;Node18 -->
<g id="edge26" class="edge">
<title>Node19&#45;&gt;Node18</title>
<path fill="none" stroke="#191970" d="M695.8772,-123.2967C691.213,-115.0729 685.3453,-104.7272 680.0826,-95.4483"/>
<polygon fill="#191970" stroke="#191970" points="683.0665,-93.6148 675.0887,-86.6432 676.9777,-97.0683 683.0665,-93.6148"/>
</g>
<!-- Node20&#45;&gt;Node16 -->
<g id="edge28" class="edge">
<title>Node20&#45;&gt;Node16</title>
<path fill="none" stroke="#191970" d="M926.443,-190.4626C929.0422,-172.8253 930.6346,-143.4083 917.5,-123 880.4966,-65.5047 803.6855,-34.936 754.7477,-20.63"/>
<polygon fill="#191970" stroke="#191970" points="755.6265,-17.2414 745.0523,-17.9013 753.7301,-23.9796 755.6265,-17.2414"/>
</g>
<!-- Node21 -->
<g id="node22" class="node">
<title>Node21</title>
<g id="a_node22"><a xlink:href="unused_8h.html" target="_top" xlink:title=" ">
<polygon fill="#ffffff" stroke="#000000" points="965,-129 965,-148 1102,-148 1102,-129 965,-129"/>
<text text-anchor="middle" x="1033.5" y="-136" font-family="Helvetica,sans-Serif" font-size="10.00" fill="#000000">drake/common/unused.h</text>
</a>
</g>
</g>
<!-- Node20&#45;&gt;Node21 -->
<g id="edge29" class="edge">
<title>Node20&#45;&gt;Node21</title>
<path fill="none" stroke="#191970" d="M948.1861,-190.4639C966.3102,-179.4247 990.8209,-164.4954 1008.92,-153.4715"/>
<polygon fill="#191970" stroke="#191970" points="1011.0126,-156.2951 1017.7324,-148.1039 1007.3712,-150.3167 1011.0126,-156.2951"/>
</g>
</g>
</svg>
