<?xml version="1.0" encoding="UTF-8" standalone="no"?>
<!DOCTYPE svg PUBLIC "-//W3C//DTD SVG 1.1//EN"
 "http://www.w3.org/Graphics/SVG/1.1/DTD/svg11.dtd">
<!-- Generated by graphviz version 2.40.1 (20161225.0304)
 -->
<!-- Title: drake/bindings/pydrake/common/sorted_pair_pybind.h Pages: 1 -->
<svg width="1168pt" height="363pt"
 viewBox="0.00 0.00 1168.00 363.00" xmlns="http://www.w3.org/2000/svg" xmlns:xlink="http://www.w3.org/1999/xlink">
<g id="graph0" class="graph" transform="scale(1 1) rotate(0) translate(4 359)">
<title>drake/bindings/pydrake/common/sorted_pair_pybind.h</title>
<polygon fill="#ffffff" stroke="transparent" points="-4,4 -4,-359 1164,-359 1164,4 -4,4"/>
<!-- Node0 -->
<g id="node1" class="node">
<title>Node0</title>
<g id="a_node1"><a xlink:title=" ">
<polygon fill="#bfbfbf" stroke="#000000" points="70,-324.5 70,-354.5 237,-354.5 237,-324.5 70,-324.5"/>
<text text-anchor="start" x="78" y="-342.5" font-family="Helvetica,sans-Serif" font-size="10.00" fill="#000000">drake/bindings/pydrake</text>
<text text-anchor="middle" x="153.5" y="-331.5" font-family="Helvetica,sans-Serif" font-size="10.00" fill="#000000">/common/sorted_pair_pybind.h</text>
</a>
</g>
</g>
<!-- Node1 -->
<g id="node2" class="node">
<title>Node1</title>
<g id="a_node2"><a xlink:title=" ">
<polygon fill="#ffffff" stroke="#bfbfbf" points="0,-196 0,-215 119,-215 119,-196 0,-196"/>
<text text-anchor="middle" x="59.5" y="-203" font-family="Helvetica,sans-Serif" font-size="10.00" fill="#000000">pybind11/pybind11.h</text>
</a>
</g>
</g>
<!-- Node0&#45;&gt;Node1 -->
<g id="edge1" class="edge">
<title>Node0&#45;&gt;Node1</title>
<path fill="none" stroke="#191970" d="M121.1395,-324.3879C106.0273,-315.7579 89.0776,-303.5373 78.5,-288 65.6834,-269.1738 61.4211,-242.9125 60.0532,-225.1142"/>
<polygon fill="#191970" stroke="#191970" points="63.5435,-224.8359 59.5181,-215.0356 56.5533,-225.2072 63.5435,-224.8359"/>
</g>
<!-- Node2 -->
<g id="node3" class="node">
<title>Node2</title>
<g id="a_node3"><a xlink:href="pydrake__pybind_8h.html" target="_top" xlink:title=" ">
<polygon fill="#ffffff" stroke="#000000" points="88,-257.5 88,-287.5 219,-287.5 219,-257.5 88,-257.5"/>
<text text-anchor="start" x="96" y="-275.5" font-family="Helvetica,sans-Serif" font-size="10.00" fill="#000000">drake/bindings/pydrake</text>
<text text-anchor="middle" x="153.5" y="-264.5" font-family="Helvetica,sans-Serif" font-size="10.00" fill="#000000">/pydrake_pybind.h</text>
</a>
</g>
</g>
<!-- Node0&#45;&gt;Node2 -->
<g id="edge2" class="edge">
<title>Node0&#45;&gt;Node2</title>
<path fill="none" stroke="#191970" d="M153.5,-324.2967C153.5,-316.5013 153.5,-306.7991 153.5,-297.9064"/>
<polygon fill="#191970" stroke="#191970" points="157.0001,-297.6431 153.5,-287.6432 150.0001,-297.6432 157.0001,-297.6431"/>
</g>
<!-- Node5 -->
<g id="node6" class="node">
<title>Node5</title>
<g id="a_node6"><a xlink:href="sorted__pair_8h.html" target="_top" xlink:title="Provides drake::MakeSortedPair and drake::SortedPair for storing two values of a certain type in sort...">
<polygon fill="#ffffff" stroke="#000000" points="669.5,-257.5 669.5,-287.5 793.5,-287.5 793.5,-257.5 669.5,-257.5"/>
<text text-anchor="start" x="677.5" y="-275.5" font-family="Helvetica,sans-Serif" font-size="10.00" fill="#000000">drake/common/sorted</text>
<text text-anchor="middle" x="731.5" y="-264.5" font-family="Helvetica,sans-Serif" font-size="10.00" fill="#000000">_pair.h</text>
</a>
</g>
</g>
<!-- Node0&#45;&gt;Node5 -->
<g id="edge6" class="edge">
<title>Node0&#45;&gt;Node5</title>
<path fill="none" stroke="#191970" d="M237.2373,-329.7934C350.8952,-316.6185 552.0956,-293.296 659.39,-280.8588"/>
<polygon fill="#191970" stroke="#191970" points="659.9436,-284.3181 669.4741,-279.6899 659.1375,-277.3647 659.9436,-284.3181"/>
</g>
<!-- Node2&#45;&gt;Node1 -->
<g id="edge4" class="edge">
<title>Node2&#45;&gt;Node1</title>
<path fill="none" stroke="#191970" d="M132.1699,-257.2967C116.9555,-246.4524 96.5643,-231.9182 81.2547,-221.006"/>
<polygon fill="#191970" stroke="#191970" points="83.0802,-218.0091 72.9055,-215.055 79.0172,-223.7093 83.0802,-218.0091"/>
</g>
<!-- Node3 -->
<g id="node4" class="node">
<title>Node3</title>
<g id="a_node4"><a xlink:title=" ">
<polygon fill="#ffffff" stroke="#bfbfbf" points="77,-129 77,-148 122,-148 122,-129 77,-129"/>
<text text-anchor="middle" x="99.5" y="-136" font-family="Helvetica,sans-Serif" font-size="10.00" fill="#000000">utility</text>
</a>
</g>
</g>
<!-- Node2&#45;&gt;Node3 -->
<g id="edge3" class="edge">
<title>Node2&#45;&gt;Node3</title>
<path fill="none" stroke="#191970" d="M149.6517,-257.283C145.1876,-240.4864 137.1867,-212.8068 127.5,-190 122.6661,-178.6189 116.1135,-166.4404 110.5625,-156.785"/>
<polygon fill="#191970" stroke="#191970" points="113.5354,-154.9358 105.4461,-148.0937 107.503,-158.4869 113.5354,-154.9358"/>
</g>
<!-- Node4 -->
<g id="node5" class="node">
<title>Node4</title>
<g id="a_node5"><a xlink:href="drake__deprecated_8h.html" target="_top" xlink:title="Provides a portable macro for use in generating compile&#45;time warnings for use of code that is permitt...">
<polygon fill="#ffffff" stroke="#000000" points="176,-190.5 176,-220.5 297,-220.5 297,-190.5 176,-190.5"/>
<text text-anchor="start" x="184" y="-208.5" font-family="Helvetica,sans-Serif" font-size="10.00" fill="#000000">drake/common/drake</text>
<text text-anchor="middle" x="236.5" y="-197.5" font-family="Helvetica,sans-Serif" font-size="10.00" fill="#000000">_deprecated.h</text>
</a>
</g>
</g>
<!-- Node2&#45;&gt;Node4 -->
<g id="edge5" class="edge">
<title>Node2&#45;&gt;Node4</title>
<path fill="none" stroke="#191970" d="M172.334,-257.2967C183.3705,-248.3876 197.4922,-236.9882 209.6765,-227.1527"/>
<polygon fill="#191970" stroke="#191970" points="212.1578,-229.6478 217.7405,-220.6432 207.7609,-224.201 212.1578,-229.6478"/>
</g>
<!-- Node5&#45;&gt;Node3 -->
<g id="edge9" class="edge">
<title>Node5&#45;&gt;Node3</title>
<path fill="none" stroke="#191970" d="M669.3834,-261.9691C611.5627,-252.0022 523.0416,-236.3241 446.5,-221 383.5851,-208.4041 368.2584,-203.3535 305.5,-190 227.8322,-173.4742 205.5374,-179.9763 130.5,-154 128.8972,-153.4452 127.2716,-152.8246 125.6475,-152.1595"/>
<polygon fill="#191970" stroke="#191970" points="127.0852,-148.9684 116.5337,-148.0109 124.1851,-155.3394 127.0852,-148.9684"/>
</g>
<!-- Node6 -->
<g id="node7" class="node">
<title>Node6</title>
<g id="a_node7"><a xlink:title=" ">
<polygon fill="#ffffff" stroke="#bfbfbf" points="699.5,-196 699.5,-215 763.5,-215 763.5,-196 699.5,-196"/>
<text text-anchor="middle" x="731.5" y="-203" font-family="Helvetica,sans-Serif" font-size="10.00" fill="#000000">algorithm</text>
</a>
</g>
</g>
<!-- Node5&#45;&gt;Node6 -->
<g id="edge7" class="edge">
<title>Node5&#45;&gt;Node6</title>
<path fill="none" stroke="#191970" d="M731.5,-257.2967C731.5,-247.7699 731.5,-235.3954 731.5,-225.1306"/>
<polygon fill="#191970" stroke="#191970" points="735.0001,-225.0549 731.5,-215.055 728.0001,-225.055 735.0001,-225.0549"/>
</g>
<!-- Node7 -->
<g id="node8" class="node">
<title>Node7</title>
<g id="a_node8"><a xlink:title=" ">
<polygon fill="#ffffff" stroke="#bfbfbf" points="882.5,-129 882.5,-148 942.5,-148 942.5,-129 882.5,-129"/>
<text text-anchor="middle" x="912.5" y="-136" font-family="Helvetica,sans-Serif" font-size="10.00" fill="#000000">iostream</text>
</a>
</g>
</g>
<!-- Node5&#45;&gt;Node7 -->
<g id="edge8" class="edge">
<title>Node5&#45;&gt;Node7</title>
<path fill="none" stroke="#191970" d="M751.9112,-257.389C786.5147,-231.7709 856.3433,-180.0746 891.4049,-154.1174"/>
<polygon fill="#191970" stroke="#191970" points="893.5726,-156.8674 899.5272,-148.1042 889.4075,-151.2413 893.5726,-156.8674"/>
</g>
<!-- Node8 -->
<g id="node9" class="node">
<title>Node8</title>
<g id="a_node9"><a xlink:href="drake__copyable_8h.html" target="_top" xlink:title="Provides careful macros to selectively enable or disable the special member functions for copy&#45;constr...">
<polygon fill="#ffffff" stroke="#000000" points="1039,-190.5 1039,-220.5 1160,-220.5 1160,-190.5 1039,-190.5"/>
<text text-anchor="start" x="1047" y="-208.5" font-family="Helvetica,sans-Serif" font-size="10.00" fill="#000000">drake/common/drake</text>
<text text-anchor="middle" x="1099.5" y="-197.5" font-family="Helvetica,sans-Serif" font-size="10.00" fill="#000000">_copyable.h</text>
</a>
</g>
</g>
<!-- Node5&#45;&gt;Node8 -->
<g id="edge10" class="edge">
<title>Node5&#45;&gt;Node8</title>
<path fill="none" stroke="#191970" d="M793.5811,-262.6399C851.7881,-253.1978 941.4704,-238.1459 1028.9974,-221.0475"/>
<polygon fill="#191970" stroke="#191970" points="1029.6922,-224.478 1038.8301,-219.1162 1028.3429,-217.6093 1029.6922,-224.478"/>
</g>
<!-- Node9 -->
<g id="node10" class="node">
<title>Node9</title>
<g id="a_node10"><a xlink:href="hash_8h.html" target="_top" xlink:title=" ">
<polygon fill="#ffffff" stroke="#000000" points="456,-196 456,-215 581,-215 581,-196 456,-196"/>
<text text-anchor="middle" x="518.5" y="-203" font-family="Helvetica,sans-Serif" font-size="10.00" fill="#000000">drake/common/hash.h</text>
</a>
</g>
</g>
<!-- Node5&#45;&gt;Node9 -->
<g id="edge11" class="edge">
<title>Node5&#45;&gt;Node9</title>
<path fill="none" stroke="#191970" d="M683.6986,-257.4639C645.916,-245.5792 593.7996,-229.1858 558.273,-218.0108"/>
<polygon fill="#191970" stroke="#191970" points="559.3077,-214.6672 548.7183,-215.0053 557.2073,-221.3447 559.3077,-214.6672"/>
</g>
<!-- Node21 -->
<g id="node22" class="node">
<title>Node21</title>
<g id="a_node22"><a xlink:href="is__less__than__comparable_8h.html" target="_top" xlink:title=" ">
<polygon fill="#ffffff" stroke="#000000" points="894.5,-190.5 894.5,-220.5 1020.5,-220.5 1020.5,-190.5 894.5,-190.5"/>
<text text-anchor="start" x="902.5" y="-208.5" font-family="Helvetica,sans-Serif" font-size="10.00" fill="#000000">drake/common/is_less</text>
<text text-anchor="middle" x="957.5" y="-197.5" font-family="Helvetica,sans-Serif" font-size="10.00" fill="#000000">_than_comparable.h</text>
</a>
</g>
</g>
<!-- Node5&#45;&gt;Node21 -->
<g id="edge28" class="edge">
<title>Node5&#45;&gt;Node21</title>
<path fill="none" stroke="#191970" d="M782.2188,-257.4639C816.1216,-247.4131 860.9018,-234.1375 896.7135,-223.5208"/>
<polygon fill="#191970" stroke="#191970" points="897.9673,-226.7997 906.56,-220.6017 895.9776,-220.0884 897.9673,-226.7997"/>
</g>
<!-- Node9&#45;&gt;Node3 -->
<g id="edge21" class="edge">
<title>Node9&#45;&gt;Node3</title>
<path fill="none" stroke="#191970" d="M455.9938,-196.6656C440.1754,-194.4591 423.216,-192.1185 407.5,-190 284.4663,-173.4152 249.2314,-190.2658 130.5,-154 128.8383,-153.4925 127.1571,-152.9022 125.4819,-152.2544"/>
<polygon fill="#191970" stroke="#191970" points="126.6899,-148.961 116.131,-148.0891 123.8416,-155.3553 126.6899,-148.961"/>
</g>
<!-- Node9&#45;&gt;Node7 -->
<g id="edge15" class="edge">
<title>Node9&#45;&gt;Node7</title>
<path fill="none" stroke="#191970" d="M581.0586,-200.6869C652.4689,-194.2098 772.3427,-180.3306 872.5,-154 875.2686,-153.2722 878.1076,-152.4134 880.9333,-151.4796"/>
<polygon fill="#191970" stroke="#191970" points="882.1371,-154.7662 890.3686,-148.0959 879.7741,-148.1771 882.1371,-154.7662"/>
</g>
<!-- Node10 -->
<g id="node11" class="node">
<title>Node10</title>
<g id="a_node11"><a xlink:title=" ">
<polygon fill="#ffffff" stroke="#bfbfbf" points="140,-129 140,-148 187,-148 187,-129 140,-129"/>
<text text-anchor="middle" x="163.5" y="-136" font-family="Helvetica,sans-Serif" font-size="10.00" fill="#000000">cmath</text>
</a>
</g>
</g>
<!-- Node9&#45;&gt;Node10 -->
<g id="edge12" class="edge">
<title>Node9&#45;&gt;Node10</title>
<path fill="none" stroke="#191970" d="M455.7207,-196.4993C368.8289,-183.8869 219.8092,-161.6422 195.5,-154 193.8401,-153.4782 192.1578,-152.8833 190.4781,-152.2379"/>
<polygon fill="#191970" stroke="#191970" points="191.6276,-148.9212 181.0613,-148.144 188.8366,-155.3408 191.6276,-148.9212"/>
</g>
<!-- Node11 -->
<g id="node12" class="node">
<title>Node11</title>
<g id="a_node12"><a xlink:title=" ">
<polygon fill="#ffffff" stroke="#bfbfbf" points="205,-129 205,-148 258,-148 258,-129 205,-129"/>
<text text-anchor="middle" x="231.5" y="-136" font-family="Helvetica,sans-Serif" font-size="10.00" fill="#000000">cstddef</text>
</a>
</g>
</g>
<!-- Node9&#45;&gt;Node11 -->
<g id="edge13" class="edge">
<title>Node9&#45;&gt;Node11</title>
<path fill="none" stroke="#191970" d="M455.9258,-196.559C404.3452,-188.2783 329.666,-174.1812 266.5,-154 264.6009,-153.3932 262.6662,-152.7158 260.7305,-151.9927"/>
<polygon fill="#191970" stroke="#191970" points="261.7828,-148.6422 251.2013,-148.1107 259.1419,-155.1249 261.7828,-148.6422"/>
</g>
<!-- Node12 -->
<g id="node13" class="node">
<title>Node12</title>
<g id="a_node13"><a xlink:title=" ">
<polygon fill="#ffffff" stroke="#bfbfbf" points="276,-129 276,-148 341,-148 341,-129 276,-129"/>
<text text-anchor="middle" x="308.5" y="-136" font-family="Helvetica,sans-Serif" font-size="10.00" fill="#000000">functional</text>
</a>
</g>
</g>
<!-- Node9&#45;&gt;Node12 -->
<g id="edge14" class="edge">
<title>Node9&#45;&gt;Node12</title>
<path fill="none" stroke="#191970" d="M485.4902,-195.9761C451.4865,-186.0263 397.0362,-169.7061 350.5,-154 348.1158,-153.1953 345.663,-152.3463 343.1969,-151.477"/>
<polygon fill="#191970" stroke="#191970" points="344.332,-148.1658 333.7375,-148.0745 341.9627,-154.7526 344.332,-148.1658"/>
</g>
<!-- Node13 -->
<g id="node14" class="node">
<title>Node13</title>
<g id="a_node14"><a xlink:title=" ">
<polygon fill="#ffffff" stroke="#bfbfbf" points="359.5,-129 359.5,-148 397.5,-148 397.5,-129 359.5,-129"/>
<text text-anchor="middle" x="378.5" y="-136" font-family="Helvetica,sans-Serif" font-size="10.00" fill="#000000">map</text>
</a>
</g>
</g>
<!-- Node9&#45;&gt;Node13 -->
<g id="edge16" class="edge">
<title>Node9&#45;&gt;Node13</title>
<path fill="none" stroke="#191970" d="M496.379,-195.9125C473.6187,-185.9121 437.2471,-169.5522 406.5,-154 405.8121,-153.652 405.1165,-153.2963 404.416,-152.9345"/>
<polygon fill="#191970" stroke="#191970" points="405.7401,-149.6738 395.2705,-148.0494 402.442,-155.8482 405.7401,-149.6738"/>
</g>
<!-- Node14 -->
<g id="node15" class="node">
<title>Node14</title>
<g id="a_node15"><a xlink:title=" ">
<polygon fill="#ffffff" stroke="#bfbfbf" points="415.5,-129 415.5,-148 471.5,-148 471.5,-129 415.5,-129"/>
<text text-anchor="middle" x="443.5" y="-136" font-family="Helvetica,sans-Serif" font-size="10.00" fill="#000000">optional</text>
</a>
</g>
</g>
<!-- Node9&#45;&gt;Node14 -->
<g id="edge17" class="edge">
<title>Node9&#45;&gt;Node14</title>
<path fill="none" stroke="#191970" d="M507.7543,-195.9005C495.836,-185.2535 476.3943,-167.8856 462.0132,-155.0385"/>
<polygon fill="#191970" stroke="#191970" points="464.0151,-152.1337 454.2257,-148.0817 459.3516,-157.354 464.0151,-152.1337"/>
</g>
<!-- Node15 -->
<g id="node16" class="node">
<title>Node15</title>
<g id="a_node16"><a xlink:title=" ">
<polygon fill="#ffffff" stroke="#bfbfbf" points="489.5,-129 489.5,-148 521.5,-148 521.5,-129 489.5,-129"/>
<text text-anchor="middle" x="505.5" y="-136" font-family="Helvetica,sans-Serif" font-size="10.00" fill="#000000">set</text>
</a>
</g>
</g>
<!-- Node9&#45;&gt;Node15 -->
<g id="edge18" class="edge">
<title>Node9&#45;&gt;Node15</title>
<path fill="none" stroke="#191970" d="M516.6374,-195.9005C514.726,-186.0495 511.6983,-170.4451 509.2819,-157.9912"/>
<polygon fill="#191970" stroke="#191970" points="512.6999,-157.2319 507.3591,-148.0817 505.8281,-158.5653 512.6999,-157.2319"/>
</g>
<!-- Node16 -->
<g id="node17" class="node">
<title>Node16</title>
<g id="a_node17"><a xlink:title=" ">
<polygon fill="#ffffff" stroke="#bfbfbf" points="539.5,-129 539.5,-148 583.5,-148 583.5,-129 539.5,-129"/>
<text text-anchor="middle" x="561.5" y="-136" font-family="Helvetica,sans-Serif" font-size="10.00" fill="#000000">string</text>
</a>
</g>
</g>
<!-- Node9&#45;&gt;Node16 -->
<g id="edge19" class="edge">
<title>Node9&#45;&gt;Node16</title>
<path fill="none" stroke="#191970" d="M524.6609,-195.9005C531.2386,-185.6515 541.8133,-169.1747 549.9493,-156.4976"/>
<polygon fill="#191970" stroke="#191970" points="552.8949,-158.388 555.3506,-148.0817 547.0037,-154.6071 552.8949,-158.388"/>
</g>
<!-- Node17 -->
<g id="node18" class="node">
<title>Node17</title>
<g id="a_node18"><a xlink:title=" ">
<polygon fill="#ffffff" stroke="#bfbfbf" points="710,-.5 710,-19.5 779,-19.5 779,-.5 710,-.5"/>
<text text-anchor="middle" x="744.5" y="-7.5" font-family="Helvetica,sans-Serif" font-size="10.00" fill="#000000">type_traits</text>
</a>
</g>
</g>
<!-- Node9&#45;&gt;Node17 -->
<g id="edge20" class="edge">
<title>Node9&#45;&gt;Node17</title>
<path fill="none" stroke="#191970" d="M538.2616,-195.9922C554.7701,-187.1582 577.8908,-172.5789 592.5,-154 621.3758,-117.2779 597.693,-89.2569 630.5,-56 649.1882,-37.0555 676.7159,-25.6527 700.0389,-18.9393"/>
<polygon fill="#191970" stroke="#191970" points="700.9852,-22.3093 709.739,-16.3409 699.1739,-15.5477 700.9852,-22.3093"/>
</g>
<!-- Node18 -->
<g id="node19" class="node">
<title>Node18</title>
<g id="a_node19"><a xlink:title=" ">
<polygon fill="#ffffff" stroke="#bfbfbf" points="817,-129 817,-148 864,-148 864,-129 817,-129"/>
<text text-anchor="middle" x="840.5" y="-136" font-family="Helvetica,sans-Serif" font-size="10.00" fill="#000000">vector</text>
</a>
</g>
</g>
<!-- Node9&#45;&gt;Node18 -->
<g id="edge22" class="edge">
<title>Node9&#45;&gt;Node18</title>
<path fill="none" stroke="#191970" d="M581.0884,-199.1566C640.4069,-192.0263 731.4881,-178.1587 807.5,-154 809.3549,-153.4104 811.2404,-152.7389 813.1222,-152.0135"/>
<polygon fill="#191970" stroke="#191970" points="814.5262,-155.2198 822.3439,-148.069 811.7732,-148.7839 814.5262,-155.2198"/>
</g>
<!-- Node19 -->
<g id="node20" class="node">
<title>Node19</title>
<g id="a_node20"><a xlink:href="drake__assert_8h.html" target="_top" xlink:title="Provides Drake&#39;s assertion implementation.">
<polygon fill="#ffffff" stroke="#000000" points="640,-56.5 640,-86.5 761,-86.5 761,-56.5 640,-56.5"/>
<text text-anchor="start" x="648" y="-74.5" font-family="Helvetica,sans-Serif" font-size="10.00" fill="#000000">drake/common/drake</text>
<text text-anchor="middle" x="700.5" y="-63.5" font-family="Helvetica,sans-Serif" font-size="10.00" fill="#000000">_assert.h</text>
</a>
</g>
</g>
<!-- Node9&#45;&gt;Node19 -->
<g id="edge23" class="edge">
<title>Node9&#45;&gt;Node19</title>
<path fill="none" stroke="#191970" d="M545.5925,-195.832C568.2355,-186.9908 600.7103,-172.4871 625.5,-154 648.1694,-137.0941 669.3905,-112.6157 683.4334,-94.7136"/>
<polygon fill="#191970" stroke="#191970" points="686.4134,-96.5794 689.7255,-86.5156 680.8605,-92.3174 686.4134,-96.5794"/>
</g>
<!-- Node20 -->
<g id="node21" class="node">
<title>Node20</title>
<g id="a_node21"><a xlink:href="drake__throw_8h.html" target="_top" xlink:title="Provides a convenient wrapper to throw an exception when a condition is unmet.">
<polygon fill="#ffffff" stroke="#000000" points="678,-123.5 678,-153.5 799,-153.5 799,-123.5 678,-123.5"/>
<text text-anchor="start" x="686" y="-141.5" font-family="Helvetica,sans-Serif" font-size="10.00" fill="#000000">drake/common/drake</text>
<text text-anchor="middle" x="738.5" y="-130.5" font-family="Helvetica,sans-Serif" font-size="10.00" fill="#000000">_throw.h</text>
</a>
</g>
</g>
<!-- Node9&#45;&gt;Node20 -->
<g id="edge25" class="edge">
<title>Node9&#45;&gt;Node20</title>
<path fill="none" stroke="#191970" d="M550.0206,-195.9005C583.6789,-185.6501 637.792,-169.1702 679.4206,-156.4924"/>
<polygon fill="#191970" stroke="#191970" points="680.6283,-159.7834 689.1748,-153.5218 678.5889,-153.087 680.6283,-159.7834"/>
</g>
<!-- Node19&#45;&gt;Node17 -->
<g id="edge24" class="edge">
<title>Node19&#45;&gt;Node17</title>
<path fill="none" stroke="#191970" d="M711.3764,-56.2977C717.4841,-47.7609 725.1439,-37.0545 731.5588,-28.0883"/>
<polygon fill="#191970" stroke="#191970" points="734.4829,-30.0163 737.455,-19.8469 728.7899,-25.9433 734.4829,-30.0163"/>
</g>
<!-- Node20&#45;&gt;Node17 -->
<g id="edge26" class="edge">
<title>Node20&#45;&gt;Node17</title>
<path fill="none" stroke="#191970" d="M750.6789,-123.2988C757.6867,-113.5503 765.8134,-100.2728 769.5,-87 773.1872,-73.7248 772.8941,-69.3532 769.5,-56 767.0215,-46.2493 762.0127,-36.3309 757.1249,-28.2128"/>
<polygon fill="#191970" stroke="#191970" points="759.9556,-26.1437 751.6015,-19.6276 754.0687,-29.9312 759.9556,-26.1437"/>
</g>
<!-- Node20&#45;&gt;Node19 -->
<g id="edge27" class="edge">
<title>Node20&#45;&gt;Node19</title>
<path fill="none" stroke="#191970" d="M729.8772,-123.2967C725.213,-115.0729 719.3453,-104.7272 714.0826,-95.4483"/>
<polygon fill="#191970" stroke="#191970" points="717.0665,-93.6148 709.0887,-86.6432 710.9777,-97.0683 717.0665,-93.6148"/>
</g>
<!-- Node21&#45;&gt;Node17 -->
<g id="edge29" class="edge">
<title>Node21&#45;&gt;Node17</title>
<path fill="none" stroke="#191970" d="M960.443,-190.4626C963.0422,-172.8253 964.6346,-143.4083 951.5,-123 914.4966,-65.5047 837.6855,-34.936 788.7477,-20.63"/>
<polygon fill="#191970" stroke="#191970" points="789.6265,-17.2414 779.0523,-17.9013 787.7301,-23.9796 789.6265,-17.2414"/>
</g>
<!-- Node22 -->
<g id="node23" class="node">
<title>Node22</title>
<g id="a_node23"><a xlink:href="unused_8h.html" target="_top" xlink:title=" ">
<polygon fill="#ffffff" stroke="#000000" points="999,-129 999,-148 1136,-148 1136,-129 999,-129"/>
<text text-anchor="middle" x="1067.5" y="-136" font-family="Helvetica,sans-Serif" font-size="10.00" fill="#000000">drake/common/unused.h</text>
</a>
</g>
</g>
<!-- Node21&#45;&gt;Node22 -->
<g id="edge30" class="edge">
<title>Node21&#45;&gt;Node22</title>
<path fill="none" stroke="#191970" d="M982.1861,-190.4639C1000.3102,-179.4247 1024.8209,-164.4954 1042.92,-153.4715"/>
<polygon fill="#191970" stroke="#191970" points="1045.0126,-156.2951 1051.7324,-148.1039 1041.3712,-150.3167 1045.0126,-156.2951"/>
</g>
</g>
</svg>
