<?xml version="1.0" encoding="UTF-8" standalone="no"?>
<!DOCTYPE svg PUBLIC "-//W3C//DTD SVG 1.1//EN"
 "http://www.w3.org/Graphics/SVG/1.1/DTD/svg11.dtd">
<!-- Generated by graphviz version 2.40.1 (20161225.0304)
 -->
<!-- Title: drake/common/sorted_vectors_have_intersection.h Pages: 1 -->
<svg width="706pt" height="251pt"
 viewBox="0.00 0.00 705.50 251.00" xmlns="http://www.w3.org/2000/svg" xmlns:xlink="http://www.w3.org/1999/xlink">
<g id="graph0" class="graph" transform="scale(1 1) rotate(0) translate(4 247)">
<title>drake/common/sorted_vectors_have_intersection.h</title>
<polygon fill="#ffffff" stroke="transparent" points="-4,4 -4,-247 701.5,-247 701.5,4 -4,4"/>
<!-- Node5 -->
<g id="node1" class="node">
<title>Node5</title>
<g id="a_node1"><a xlink:title=" ">
<polygon fill="#bfbfbf" stroke="#000000" points="343,-212.5 343,-242.5 502,-242.5 502,-212.5 343,-212.5"/>
<text text-anchor="start" x="351" y="-230.5" font-family="Helvetica,sans-Serif" font-size="10.00" fill="#000000">drake/common/sorted</text>
<text text-anchor="middle" x="422.5" y="-219.5" font-family="Helvetica,sans-Serif" font-size="10.00" fill="#000000">_vectors_have_intersection.h</text>
</a>
</g>
</g>
<!-- Node6 -->
<g id="node2" class="node">
<title>Node6</title>
<g id="a_node2"><a xlink:href="collision__filter__legacy_8h.html" target="_top" xlink:title=" ">
<polygon fill="#ffffff" stroke="#000000" points="350,-145.5 350,-175.5 495,-175.5 495,-145.5 350,-145.5"/>
<text text-anchor="start" x="358" y="-163.5" font-family="Helvetica,sans-Serif" font-size="10.00" fill="#000000">drake/geometry/proximity</text>
<text text-anchor="middle" x="422.5" y="-152.5" font-family="Helvetica,sans-Serif" font-size="10.00" fill="#000000">/collision_filter_legacy.h</text>
</a>
</g>
</g>
<!-- Node5&#45;&gt;Node6 -->
<g id="edge1" class="edge">
<title>Node5&#45;&gt;Node6</title>
<path fill="none" stroke="#191970" d="M422.5,-202.0249C422.5,-193.128 422.5,-183.4287 422.5,-175.6432"/>
<polygon fill="#191970" stroke="#191970" points="419.0001,-202.2966 422.5,-212.2967 426.0001,-202.2967 419.0001,-202.2966"/>
</g>
<!-- Node7 -->
<g id="node3" class="node">
<title>Node7</title>
<g id="a_node3"><a xlink:href="collisions__exist__callback_8h.html" target="_top" xlink:title=" ">
<polygon fill="#ffffff" stroke="#000000" points="0,-73 0,-103 149,-103 149,-73 0,-73"/>
<text text-anchor="start" x="8" y="-91" font-family="Helvetica,sans-Serif" font-size="10.00" fill="#000000">drake/geometry/proximity</text>
<text text-anchor="middle" x="74.5" y="-80" font-family="Helvetica,sans-Serif" font-size="10.00" fill="#000000">/collisions_exist_callback.h</text>
</a>
</g>
</g>
<!-- Node6&#45;&gt;Node7 -->
<g id="edge2" class="edge">
<title>Node6&#45;&gt;Node7</title>
<path fill="none" stroke="#191970" d="M339.8612,-145.5285C287.7021,-135.7951 218.9886,-122.4513 158.5,-109 150.2827,-107.1727 141.641,-105.1399 133.1537,-103.079"/>
<polygon fill="#191970" stroke="#191970" points="339.2616,-148.977 349.733,-147.3645 340.5416,-142.095 339.2616,-148.977"/>
</g>
<!-- Node8 -->
<g id="node4" class="node">
<title>Node8</title>
<g id="a_node4"><a xlink:href="distance__to__shape__callback_8h.html" target="_top" xlink:title=" ">
<polygon fill="#ffffff" stroke="#000000" points="167,-73 167,-103 332,-103 332,-73 167,-73"/>
<text text-anchor="start" x="175" y="-91" font-family="Helvetica,sans-Serif" font-size="10.00" fill="#000000">drake/geometry/proximity</text>
<text text-anchor="middle" x="249.5" y="-80" font-family="Helvetica,sans-Serif" font-size="10.00" fill="#000000">/distance_to_shape_callback.h</text>
</a>
</g>
</g>
<!-- Node6&#45;&gt;Node8 -->
<g id="edge3" class="edge">
<title>Node6&#45;&gt;Node8</title>
<path fill="none" stroke="#191970" d="M377.2531,-141.5382C348.5619,-129.5144 311.964,-114.1771 285.2998,-103.0028"/>
<polygon fill="#191970" stroke="#191970" points="376.0786,-144.8408 386.6543,-145.478 378.7842,-138.3848 376.0786,-144.8408"/>
</g>
<!-- Node9 -->
<g id="node5" class="node">
<title>Node9</title>
<g id="a_node5"><a xlink:href="find__collision__candidates__callback_8h.html" target="_top" xlink:title=" ">
<polygon fill="#ffffff" stroke="#000000" points="350,-67.5 350,-108.5 495,-108.5 495,-67.5 350,-67.5"/>
<text text-anchor="start" x="358" y="-96.5" font-family="Helvetica,sans-Serif" font-size="10.00" fill="#000000">drake/geometry/proximity</text>
<text text-anchor="start" x="358" y="-85.5" font-family="Helvetica,sans-Serif" font-size="10.00" fill="#000000">/find_collision_candidates</text>
<text text-anchor="middle" x="422.5" y="-74.5" font-family="Helvetica,sans-Serif" font-size="10.00" fill="#000000">_callback.h</text>
</a>
</g>
</g>
<!-- Node6&#45;&gt;Node9 -->
<g id="edge4" class="edge">
<title>Node6&#45;&gt;Node9</title>
<path fill="none" stroke="#191970" d="M422.5,-135.4016C422.5,-126.6173 422.5,-116.8652 422.5,-108.5015"/>
<polygon fill="#191970" stroke="#191970" points="419.0001,-135.4779 422.5,-145.478 426.0001,-135.478 419.0001,-135.4779"/>
</g>
<!-- Node10 -->
<g id="node6" class="node">
<title>Node10</title>
<g id="a_node6"><a xlink:href="hydroelastic__callback_8h.html" target="_top" xlink:title=" ">
<polygon fill="#ffffff" stroke="#000000" points="501,-.5 501,-30.5 646,-30.5 646,-.5 501,-.5"/>
<text text-anchor="start" x="509" y="-18.5" font-family="Helvetica,sans-Serif" font-size="10.00" fill="#000000">drake/geometry/proximity</text>
<text text-anchor="middle" x="573.5" y="-7.5" font-family="Helvetica,sans-Serif" font-size="10.00" fill="#000000">/hydroelastic_callback.h</text>
</a>
</g>
</g>
<!-- Node6&#45;&gt;Node10 -->
<g id="edge5" class="edge">
<title>Node6&#45;&gt;Node10</title>
<path fill="none" stroke="#191970" d="M461.1976,-140.2531C475.641,-131.6906 491.6404,-120.9299 504.5,-109 530.2344,-85.126 552.8624,-50.511 564.7181,-30.7853"/>
<polygon fill="#191970" stroke="#191970" points="459.3673,-137.2682 452.4476,-145.2913 462.8602,-143.3345 459.3673,-137.2682"/>
</g>
<!-- Node11 -->
<g id="node7" class="node">
<title>Node11</title>
<g id="a_node7"><a xlink:href="penetration__as__point__pair__callback_8h.html" target="_top" xlink:title=" ">
<polygon fill="#ffffff" stroke="#000000" points="551.5,-67.5 551.5,-108.5 697.5,-108.5 697.5,-67.5 551.5,-67.5"/>
<text text-anchor="start" x="559.5" y="-96.5" font-family="Helvetica,sans-Serif" font-size="10.00" fill="#000000">drake/geometry/proximity</text>
<text text-anchor="start" x="559.5" y="-85.5" font-family="Helvetica,sans-Serif" font-size="10.00" fill="#000000">/penetration_as_point_pair</text>
<text text-anchor="middle" x="624.5" y="-74.5" font-family="Helvetica,sans-Serif" font-size="10.00" fill="#000000">_callback.h</text>
</a>
</g>
</g>
<!-- Node6&#45;&gt;Node11 -->
<g id="edge6" class="edge">
<title>Node6&#45;&gt;Node11</title>
<path fill="none" stroke="#191970" d="M474.1209,-141.9727C502.6125,-131.7467 538.0577,-119.0251 567.3786,-108.5015"/>
<polygon fill="#191970" stroke="#191970" points="472.5843,-138.8055 464.3545,-145.478 474.949,-145.394 472.5843,-138.8055"/>
</g>
<!-- Node11&#45;&gt;Node10 -->
<g id="edge7" class="edge">
<title>Node11&#45;&gt;Node10</title>
<path fill="none" stroke="#191970" d="M604.1771,-59.1096C597.3129,-49.3516 589.9262,-38.8509 584.1214,-30.5991"/>
<polygon fill="#191970" stroke="#191970" points="601.4056,-61.253 610.0219,-67.4183 607.131,-57.2255 601.4056,-61.253"/>
</g>
</g>
</svg>
