<?xml version="1.0" encoding="UTF-8" standalone="no"?>
<!DOCTYPE svg PUBLIC "-//W3C//DTD SVG 1.1//EN"
 "http://www.w3.org/Graphics/SVG/1.1/DTD/svg11.dtd">
<!-- Generated by graphviz version 2.40.1 (20161225.0304)
 -->
<!-- Title: drake/multibody/tree/space_xyz_mobilizer.h Pages: 1 -->
<svg width="139pt" height="106pt"
 viewBox="0.00 0.00 139.00 106.00" xmlns="http://www.w3.org/2000/svg" xmlns:xlink="http://www.w3.org/1999/xlink">
<g id="graph0" class="graph" transform="scale(1 1) rotate(0) translate(4 102)">
<title>drake/multibody/tree/space_xyz_mobilizer.h</title>
<polygon fill="#ffffff" stroke="transparent" points="-4,4 -4,-102 135,-102 135,4 -4,4"/>
<!-- Node155 -->
<g id="node1" class="node">
<title>Node155</title>
<g id="a_node1"><a xlink:title=" ">
<polygon fill="#bfbfbf" stroke="#000000" points="0,-67.5 0,-97.5 131,-97.5 131,-67.5 0,-67.5"/>
<text text-anchor="start" x="8" y="-85.5" font-family="Helvetica,sans-Serif" font-size="10.00" fill="#000000">drake/multibody/tree</text>
<text text-anchor="middle" x="65.5" y="-74.5" font-family="Helvetica,sans-Serif" font-size="10.00" fill="#000000">/space_xyz_mobilizer.h</text>
</a>
</g>
</g>
<!-- Node156 -->
<g id="node2" class="node">
<title>Node156</title>
<g id="a_node2"><a xlink:href="ball__rpy__joint_8h.html" target="_top" xlink:title=" ">
<polygon fill="#ffffff" stroke="#000000" points="6,-.5 6,-30.5 125,-30.5 125,-.5 6,-.5"/>
<text text-anchor="start" x="14" y="-18.5" font-family="Helvetica,sans-Serif" font-size="10.00" fill="#000000">drake/multibody/tree</text>
<text text-anchor="middle" x="65.5" y="-7.5" font-family="Helvetica,sans-Serif" font-size="10.00" fill="#000000">/ball_rpy_joint.h</text>
</a>
</g>
</g>
<!-- Node155&#45;&gt;Node156 -->
<g id="edge1" class="edge">
<title>Node155&#45;&gt;Node156</title>
<path fill="none" stroke="#191970" d="M65.5,-57.0249C65.5,-48.128 65.5,-38.4287 65.5,-30.6432"/>
<polygon fill="#191970" stroke="#191970" points="62.0001,-57.2966 65.5,-67.2967 69.0001,-57.2967 62.0001,-57.2966"/>
</g>
</g>
</svg>
