<?xml version="1.0" encoding="UTF-8" standalone="no"?>
<!DOCTYPE svg PUBLIC "-//W3C//DTD SVG 1.1//EN"
 "http://www.w3.org/Graphics/SVG/1.1/DTD/svg11.dtd">
<!-- Generated by graphviz version 2.40.1 (20161225.0304)
 -->
<!-- Title: drake/systems/plants/spring_mass_system/spring_mass_system.h Pages: 1 -->
<!--zoomable 284 -->
<svg id="main" version="1.1" xmlns="http://www.w3.org/2000/svg" xmlns:xlink="http://www.w3.org/1999/xlink" xml:space="preserve" onload="init(evt)">
<style type="text/css"><![CDATA[
.edge:hover path { stroke: red; }
.edge:hover polygon { stroke: red; fill: red; }
]]></style>
<script type="text/javascript"><![CDATA[
var edges = document.getElementsByTagName('g');
if (edges && edges.length) {
  for (var i=0;i<edges.length;i++) {
    if (edges[i].id.substr(0,4)=='edge') {
      edges[i].setAttribute('class','edge');
    }
  }
}
]]></script>
        <defs>
                <circle id="rim" cx="0" cy="0" r="7"/>
                <circle id="rim2" cx="0" cy="0" r="3.5"/>
                <g id="zoomPlus">
                        <use xlink:href="#rim" fill="#404040">
                                <set attributeName="fill" to="#808080" begin="zoomplus.mouseover" end="zoomplus.mouseout"/>
                        </use>
                        <path d="M-4,0h8M0,-4v8" fill="none" stroke="white" stroke-width="1.5" pointer-events="none"/>
                </g>
                <g id="zoomMin">
                        <use xlink:href="#rim" fill="#404040">
                                <set attributeName="fill" to="#808080" begin="zoomminus.mouseover" end="zoomminus.mouseout"/>
                        </use>
                        <path d="M-4,0h8" fill="none" stroke="white" stroke-width="1.5" pointer-events="none"/>
                </g>
                <g id="dirArrow">
                        <path fill="none" stroke="white" stroke-width="1.5" d="M0,-3.0v7 M-2.5,-0.5L0,-3.0L2.5,-0.5"/>
                </g>
               <g id="resetDef">
                       <use xlink:href="#rim2" fill="#404040">
                               <set attributeName="fill" to="#808080" begin="reset.mouseover" end="reset.mouseout"/>
                       </use>
               </g>
        </defs>

<script type="text/javascript">
var viewWidth = 614;
var viewHeight = 284;
var sectionId = 'dynsection-1';
</script>
<script xlink:href="svgpan.js"/>
<svg id="graph" class="graph">
<g id="viewport">
<title>drake/systems/plants/spring_mass_system/spring_mass_system.h</title>
<polygon fill="#ffffff" stroke="transparent" points="-4,4 -4,-280 610,-280 610,4 -4,4"/>
<!-- Node117 -->
<g id="node1" class="node">
<title>Node117</title>
<g id="a_node1"><a xlink:title=" ">
<polygon fill="#bfbfbf" stroke="#000000" points="131.5,-234.5 131.5,-275.5 286.5,-275.5 286.5,-234.5 131.5,-234.5"/>
<text text-anchor="start" x="139.5" y="-263.5" font-family="Helvetica,sans-Serif" font-size="10.00" fill="#000000">drake/systems/plants</text>
<text text-anchor="start" x="139.5" y="-252.5" font-family="Helvetica,sans-Serif" font-size="10.00" fill="#000000">/spring_mass_system/spring</text>
<text text-anchor="middle" x="209" y="-241.5" font-family="Helvetica,sans-Serif" font-size="10.00" fill="#000000">_mass_system.h</text>
</a>
</g>
</g>
<!-- Node118 -->
<g id="node2" class="node">
<title>Node118</title>
<g id="a_node2"><a xlink:href="controlled__spring__mass__system_8h.html" target="_top" xlink:title=" ">
<polygon fill="#ffffff" stroke="#000000" points="0,-156.5 0,-197.5 134,-197.5 134,-156.5 0,-156.5"/>
<text text-anchor="start" x="8" y="-185.5" font-family="Helvetica,sans-Serif" font-size="10.00" fill="#000000">drake/systems/analysis</text>
<text text-anchor="start" x="8" y="-174.5" font-family="Helvetica,sans-Serif" font-size="10.00" fill="#000000">/test_utilities/controlled</text>
<text text-anchor="middle" x="67" y="-163.5" font-family="Helvetica,sans-Serif" font-size="10.00" fill="#000000">_spring_mass_system.h</text>
</a>
</g>
</g>
<!-- Node117&#45;&gt;Node118 -->
<g id="edge1" class="edge">
<title>Node117&#45;&gt;Node118</title>
<path fill="none" stroke="#191970" d="M162.3216,-229.3597C143.5131,-219.0283 122.1146,-207.2742 104.3639,-197.5239"/>
<polygon fill="#191970" stroke="#191970" points="160.8696,-232.5554 171.3194,-234.3022 164.2397,-226.42 160.8696,-232.5554"/>
</g>
<!-- Node119 -->
<g id="node3" class="node">
<title>Node119</title>
<g id="a_node3"><a xlink:href="implicit__integrator__test_8h.html" target="_top" xlink:title=" ">
<polygon fill="#ffffff" stroke="#000000" points="336,-.5 336,-41.5 468,-41.5 468,-.5 336,-.5"/>
<text text-anchor="start" x="344" y="-29.5" font-family="Helvetica,sans-Serif" font-size="10.00" fill="#000000">drake/systems/analysis</text>
<text text-anchor="start" x="344" y="-18.5" font-family="Helvetica,sans-Serif" font-size="10.00" fill="#000000">/test_utilities/implicit</text>
<text text-anchor="middle" x="402" y="-7.5" font-family="Helvetica,sans-Serif" font-size="10.00" fill="#000000">_integrator_test.h</text>
</a>
</g>
</g>
<!-- Node117&#45;&gt;Node119 -->
<g id="edge2" class="edge">
<title>Node117&#45;&gt;Node119</title>
<path fill="none" stroke="#191970" d="M191.9412,-225.1755C172.6304,-187.0104 147.8876,-120.7363 181,-78 199.9295,-53.5688 277.8543,-37.7469 335.8447,-29.1139"/>
<polygon fill="#191970" stroke="#191970" points="188.9514,-227.0106 196.6952,-234.2414 195.1508,-223.7598 188.9514,-227.0106"/>
</g>
<!-- Node120 -->
<g id="node4" class="node">
<title>Node120</title>
<g id="a_node4"><a xlink:href="my__spring__mass__system_8h.html" target="_top" xlink:title=" ">
<polygon fill="#ffffff" stroke="#000000" points="190,-156.5 190,-197.5 324,-197.5 324,-156.5 190,-156.5"/>
<text text-anchor="start" x="198" y="-185.5" font-family="Helvetica,sans-Serif" font-size="10.00" fill="#000000">drake/systems/analysis</text>
<text text-anchor="start" x="198" y="-174.5" font-family="Helvetica,sans-Serif" font-size="10.00" fill="#000000">/test_utilities/my_spring</text>
<text text-anchor="middle" x="257" y="-163.5" font-family="Helvetica,sans-Serif" font-size="10.00" fill="#000000">_mass_system.h</text>
</a>
</g>
</g>
<!-- Node117&#45;&gt;Node120 -->
<g id="edge3" class="edge">
<title>Node117&#45;&gt;Node120</title>
<path fill="none" stroke="#191970" d="M227.1427,-225.5181C232.8473,-216.2482 239.0221,-206.2141 244.2678,-197.6898"/>
<polygon fill="#191970" stroke="#191970" points="224.1233,-223.7465 221.8631,-234.0974 230.0849,-227.4152 224.1233,-223.7465"/>
</g>
<!-- Node122 -->
<g id="node6" class="node">
<title>Node122</title>
<g id="a_node6"><a xlink:href="spring__mass__damper__system_8h.html" target="_top" xlink:title=" ">
<polygon fill="#ffffff" stroke="#000000" points="342.5,-156.5 342.5,-197.5 483.5,-197.5 483.5,-156.5 342.5,-156.5"/>
<text text-anchor="start" x="350.5" y="-185.5" font-family="Helvetica,sans-Serif" font-size="10.00" fill="#000000">drake/systems/analysis</text>
<text text-anchor="start" x="350.5" y="-174.5" font-family="Helvetica,sans-Serif" font-size="10.00" fill="#000000">/test_utilities/spring</text>
<text text-anchor="middle" x="413" y="-163.5" font-family="Helvetica,sans-Serif" font-size="10.00" fill="#000000">_mass_damper_system.h</text>
</a>
</g>
</g>
<!-- Node117&#45;&gt;Node122 -->
<g id="edge5" class="edge">
<title>Node117&#45;&gt;Node122</title>
<path fill="none" stroke="#191970" d="M272.4976,-230.7215C300.3038,-220.0897 332.5841,-207.7473 359.1867,-197.5757"/>
<polygon fill="#191970" stroke="#191970" points="270.956,-227.5638 262.8654,-234.4044 273.456,-234.1021 270.956,-227.5638"/>
</g>
<!-- Node121 -->
<g id="node5" class="node">
<title>Node121</title>
<g id="a_node5"><a xlink:href="explicit__error__controlled__integrator__test_8h.html" target="_top" xlink:title=" ">
<polygon fill="#ffffff" stroke="#000000" points="189.5,-78.5 189.5,-119.5 374.5,-119.5 374.5,-78.5 189.5,-78.5"/>
<text text-anchor="start" x="197.5" y="-107.5" font-family="Helvetica,sans-Serif" font-size="10.00" fill="#000000">drake/systems/analysis</text>
<text text-anchor="start" x="197.5" y="-96.5" font-family="Helvetica,sans-Serif" font-size="10.00" fill="#000000">/test_utilities/explicit</text>
<text text-anchor="middle" x="282" y="-85.5" font-family="Helvetica,sans-Serif" font-size="10.00" fill="#000000">_error_controlled_integrator_test.h</text>
</a>
</g>
</g>
<!-- Node120&#45;&gt;Node121 -->
<g id="edge4" class="edge">
<title>Node120&#45;&gt;Node121</title>
<path fill="none" stroke="#191970" d="M266.8181,-146.3676C269.6849,-137.4232 272.7492,-127.8626 275.3687,-119.6898"/>
<polygon fill="#191970" stroke="#191970" points="263.4188,-145.5063 263.6995,-156.0974 270.0848,-147.6429 263.4188,-145.5063"/>
</g>
<!-- Node122&#45;&gt;Node119 -->
<g id="edge8" class="edge">
<title>Node122&#45;&gt;Node119</title>
<path fill="none" stroke="#191970" d="M410.8191,-146.0704C408.6404,-115.1728 405.3518,-68.5341 403.4668,-41.8013"/>
<polygon fill="#191970" stroke="#191970" points="407.3445,-146.5554 411.5393,-156.2844 414.3271,-146.063 407.3445,-146.5554"/>
</g>
<!-- Node123 -->
<g id="node7" class="node">
<title>Node123</title>
<g id="a_node7"><a xlink:href="discontinuous__spring__mass__damper__system_8h.html" target="_top" xlink:title=" ">
<polygon fill="#ffffff" stroke="#000000" points="430,-78.5 430,-119.5 606,-119.5 606,-78.5 430,-78.5"/>
<text text-anchor="start" x="438" y="-107.5" font-family="Helvetica,sans-Serif" font-size="10.00" fill="#000000">drake/systems/analysis</text>
<text text-anchor="start" x="438" y="-96.5" font-family="Helvetica,sans-Serif" font-size="10.00" fill="#000000">/test_utilities/discontinuous</text>
<text text-anchor="middle" x="518" y="-85.5" font-family="Helvetica,sans-Serif" font-size="10.00" fill="#000000">_spring_mass_damper_system.h</text>
</a>
</g>
</g>
<!-- Node122&#45;&gt;Node123 -->
<g id="edge6" class="edge">
<title>Node122&#45;&gt;Node123</title>
<path fill="none" stroke="#191970" d="M449.0403,-150.2272C462.5706,-140.1761 477.7236,-128.9196 490.3717,-119.5239"/>
<polygon fill="#191970" stroke="#191970" points="446.8027,-147.5293 440.8624,-156.3022 450.977,-153.1485 446.8027,-147.5293"/>
</g>
<!-- Node123&#45;&gt;Node119 -->
<g id="edge7" class="edge">
<title>Node123&#45;&gt;Node119</title>
<path fill="none" stroke="#191970" d="M478.6066,-72.5113C463.5524,-62.3887 446.6277,-51.0083 432.5227,-41.5239"/>
<polygon fill="#191970" stroke="#191970" points="476.9672,-75.6267 487.2187,-78.3022 480.8732,-69.8177 476.9672,-75.6267"/>
</g>
</g>
</svg>
        <g id="navigator" transform="translate(0 0)" fill="#404254">
                <rect fill="#f2f5e9" fill-opacity="0.5" stroke="#606060" stroke-width=".5" x="0" y="0" width="60" height="60"/>
                <use id="zoomplus" xlink:href="#zoomPlus" x="17" y="9" onmousedown="handleZoom(evt,'in')"/>
                <use id="zoomminus" xlink:href="#zoomMin" x="42" y="9" onmousedown="handleZoom(evt,'out')"/>
                <use id="reset" xlink:href="#resetDef" x="30" y="36" onmousedown="handleReset()"/>
                <g id="arrowUp" xlink:href="#dirArrow" transform="translate(30 24)" onmousedown="handlePan(0,-1)">
                  <use xlink:href="#rim" fill="#404040">
                        <set attributeName="fill" to="#808080" begin="arrowUp.mouseover" end="arrowUp.mouseout"/>
                  </use>
                  <path fill="none" stroke="white" stroke-width="1.5" d="M0,-3.0v7 M-2.5,-0.5L0,-3.0L2.5,-0.5"/>
                </g>
                <g id="arrowRight" xlink:href="#dirArrow" transform="rotate(90) translate(36 -43)" onmousedown="handlePan(1,0)">
                  <use xlink:href="#rim" fill="#404040">
                        <set attributeName="fill" to="#808080" begin="arrowRight.mouseover" end="arrowRight.mouseout"/>
                  </use>
                  <path fill="none" stroke="white" stroke-width="1.5" d="M0,-3.0v7 M-2.5,-0.5L0,-3.0L2.5,-0.5"/>
                </g>
                <g id="arrowDown" xlink:href="#dirArrow" transform="rotate(180) translate(-30 -48)" onmousedown="handlePan(0,1)">
                  <use xlink:href="#rim" fill="#404040">
                        <set attributeName="fill" to="#808080" begin="arrowDown.mouseover" end="arrowDown.mouseout"/>
                  </use>
                  <path fill="none" stroke="white" stroke-width="1.5" d="M0,-3.0v7 M-2.5,-0.5L0,-3.0L2.5,-0.5"/>
                </g>
                <g id="arrowLeft" xlink:href="#dirArrow" transform="rotate(270) translate(-36 17)" onmousedown="handlePan(-1,0)">
                  <use xlink:href="#rim" fill="#404040">
                        <set attributeName="fill" to="#808080" begin="arrowLeft.mouseover" end="arrowLeft.mouseout"/>
                  </use>
                  <path fill="none" stroke="white" stroke-width="1.5" d="M0,-3.0v7 M-2.5,-0.5L0,-3.0L2.5,-0.5"/>
                </g>
        </g>
        <svg viewBox="0 0 15 15" width="100%" height="30px" preserveAspectRatio="xMaxYMin meet">
         <g id="arrow_out" transform="scale(0.3 0.3)">
          <a xlink:href="spring__mass__system_8h__dep__incl_org.svg" target="_base">
           <rect id="button" ry="5" rx="5" y="6" x="6" height="38" width="38"
                fill="#f2f5e9" fill-opacity="0.5" stroke="#606060" stroke-width="1.0"/>
           <path id="arrow"
             d="M 11.500037,31.436501 C 11.940474,20.09759 22.043105,11.32322 32.158766,21.979434 L 37.068811,17.246167 C 37.068811,17.246167 37.088388,32 37.088388,32 L 22.160133,31.978069 C 22.160133,31.978069 26.997745,27.140456 26.997745,27.140456 C 18.528582,18.264221 13.291696,25.230495 11.500037,31.436501 z"
             style="fill:#404040;"/>
          </a>
         </g>
        </svg>
</svg>
