<?xml version="1.0" encoding="UTF-8" standalone="no"?>
<!DOCTYPE svg PUBLIC "-//W3C//DTD SVG 1.1//EN"
 "http://www.w3.org/Graphics/SVG/1.1/DTD/svg11.dtd">
<!-- Generated by graphviz version 2.40.1 (20161225.0304)
 -->
<!-- Title: drake/systems/analysis/test_utilities/spring_mass_damper_system.h Pages: 1 -->
<svg width="225pt" height="206pt"
 viewBox="0.00 0.00 224.50 206.00" xmlns="http://www.w3.org/2000/svg" xmlns:xlink="http://www.w3.org/1999/xlink">
<g id="graph0" class="graph" transform="scale(1 1) rotate(0) translate(4 202)">
<title>drake/systems/analysis/test_utilities/spring_mass_damper_system.h</title>
<polygon fill="#ffffff" stroke="transparent" points="-4,4 -4,-202 220.5,-202 220.5,4 -4,4"/>
<!-- Node119 -->
<g id="node1" class="node">
<title>Node119</title>
<g id="a_node1"><a xlink:title=" ">
<polygon fill="#bfbfbf" stroke="#000000" points="75.5,-156.5 75.5,-197.5 216.5,-197.5 216.5,-156.5 75.5,-156.5"/>
<text text-anchor="start" x="83.5" y="-185.5" font-family="Helvetica,sans-Serif" font-size="10.00" fill="#000000">drake/systems/analysis</text>
<text text-anchor="start" x="83.5" y="-174.5" font-family="Helvetica,sans-Serif" font-size="10.00" fill="#000000">/test_utilities/spring</text>
<text text-anchor="middle" x="146" y="-163.5" font-family="Helvetica,sans-Serif" font-size="10.00" fill="#000000">_mass_damper_system.h</text>
</a>
</g>
</g>
<!-- Node120 -->
<g id="node2" class="node">
<title>Node120</title>
<g id="a_node2"><a xlink:href="discontinuous__spring__mass__damper__system_8h.html" target="_top" xlink:title=" ">
<polygon fill="#ffffff" stroke="#000000" points="0,-78.5 0,-119.5 176,-119.5 176,-78.5 0,-78.5"/>
<text text-anchor="start" x="8" y="-107.5" font-family="Helvetica,sans-Serif" font-size="10.00" fill="#000000">drake/systems/analysis</text>
<text text-anchor="start" x="8" y="-96.5" font-family="Helvetica,sans-Serif" font-size="10.00" fill="#000000">/test_utilities/discontinuous</text>
<text text-anchor="middle" x="88" y="-85.5" font-family="Helvetica,sans-Serif" font-size="10.00" fill="#000000">_spring_mass_damper_system.h</text>
</a>
</g>
</g>
<!-- Node119&#45;&gt;Node120 -->
<g id="edge1" class="edge">
<title>Node119&#45;&gt;Node120</title>
<path fill="none" stroke="#191970" d="M124.2906,-147.8046C117.3385,-138.4552 109.7887,-128.302 103.3847,-119.6898"/>
<polygon fill="#191970" stroke="#191970" points="121.6814,-150.1613 130.4571,-156.0974 127.2986,-145.9843 121.6814,-150.1613"/>
</g>
<!-- Node121 -->
<g id="node3" class="node">
<title>Node121</title>
<g id="a_node3"><a xlink:href="implicit__integrator__test_8h.html" target="_top" xlink:title=" ">
<polygon fill="#ffffff" stroke="#000000" points="80,-.5 80,-41.5 212,-41.5 212,-.5 80,-.5"/>
<text text-anchor="start" x="88" y="-29.5" font-family="Helvetica,sans-Serif" font-size="10.00" fill="#000000">drake/systems/analysis</text>
<text text-anchor="start" x="88" y="-18.5" font-family="Helvetica,sans-Serif" font-size="10.00" fill="#000000">/test_utilities/implicit</text>
<text text-anchor="middle" x="146" y="-7.5" font-family="Helvetica,sans-Serif" font-size="10.00" fill="#000000">_integrator_test.h</text>
</a>
</g>
</g>
<!-- Node119&#45;&gt;Node121 -->
<g id="edge3" class="edge">
<title>Node119&#45;&gt;Node121</title>
<path fill="none" stroke="#191970" d="M170.5179,-148.3043C176.4252,-139.741 181.917,-129.9657 185,-120 190.5168,-102.1672 190.5168,-95.8328 185,-78 180.8893,-64.7124 172.4963,-51.7633 164.546,-41.5742"/>
<polygon fill="#191970" stroke="#191970" points="167.6503,-146.296 164.546,-156.4258 173.2898,-150.4429 167.6503,-146.296"/>
</g>
<!-- Node120&#45;&gt;Node121 -->
<g id="edge2" class="edge">
<title>Node120&#45;&gt;Node121</title>
<path fill="none" stroke="#191970" d="M109.7094,-69.8046C116.6615,-60.4552 124.2113,-50.302 130.6153,-41.6898"/>
<polygon fill="#191970" stroke="#191970" points="106.7014,-67.9843 103.5429,-78.0974 112.3186,-72.1613 106.7014,-67.9843"/>
</g>
</g>
</svg>
