<?xml version="1.0" encoding="UTF-8" standalone="no"?>
<!DOCTYPE svg PUBLIC "-//W3C//DTD SVG 1.1//EN"
 "http://www.w3.org/Graphics/SVG/1.1/DTD/svg11.dtd">
<!-- Generated by graphviz version 2.40.1 (20161225.0304)
 -->
<!-- Title: drake/systems/analysis/test_utilities/stationary_system.h Pages: 1 -->
<svg width="141pt" height="128pt"
 viewBox="0.00 0.00 141.00 128.00" xmlns="http://www.w3.org/2000/svg" xmlns:xlink="http://www.w3.org/1999/xlink">
<g id="graph0" class="graph" transform="scale(1 1) rotate(0) translate(4 124)">
<title>drake/systems/analysis/test_utilities/stationary_system.h</title>
<polygon fill="#ffffff" stroke="transparent" points="-4,4 -4,-124 137,-124 137,4 -4,4"/>
<!-- Node118 -->
<g id="node1" class="node">
<title>Node118</title>
<g id="a_node1"><a xlink:title=" ">
<polygon fill="#bfbfbf" stroke="#000000" points="0,-78.5 0,-119.5 133,-119.5 133,-78.5 0,-78.5"/>
<text text-anchor="start" x="8" y="-107.5" font-family="Helvetica,sans-Serif" font-size="10.00" fill="#000000">drake/systems/analysis</text>
<text text-anchor="start" x="8" y="-96.5" font-family="Helvetica,sans-Serif" font-size="10.00" fill="#000000">/test_utilities/stationary</text>
<text text-anchor="middle" x="66.5" y="-85.5" font-family="Helvetica,sans-Serif" font-size="10.00" fill="#000000">_system.h</text>
</a>
</g>
</g>
<!-- Node119 -->
<g id="node2" class="node">
<title>Node119</title>
<g id="a_node2"><a xlink:href="implicit__integrator__test_8h.html" target="_top" xlink:title=" ">
<polygon fill="#ffffff" stroke="#000000" points=".5,-.5 .5,-41.5 132.5,-41.5 132.5,-.5 .5,-.5"/>
<text text-anchor="start" x="8.5" y="-29.5" font-family="Helvetica,sans-Serif" font-size="10.00" fill="#000000">drake/systems/analysis</text>
<text text-anchor="start" x="8.5" y="-18.5" font-family="Helvetica,sans-Serif" font-size="10.00" fill="#000000">/test_utilities/implicit</text>
<text text-anchor="middle" x="66.5" y="-7.5" font-family="Helvetica,sans-Serif" font-size="10.00" fill="#000000">_integrator_test.h</text>
</a>
</g>
</g>
<!-- Node118&#45;&gt;Node119 -->
<g id="edge1" class="edge">
<title>Node118&#45;&gt;Node119</title>
<path fill="none" stroke="#191970" d="M66.5,-68.0789C66.5,-59.2178 66.5,-49.7747 66.5,-41.6898"/>
<polygon fill="#191970" stroke="#191970" points="63.0001,-68.0974 66.5,-78.0974 70.0001,-68.0975 63.0001,-68.0974"/>
</g>
</g>
</svg>
