<?xml version="1.0" encoding="UTF-8" standalone="no"?>
<!DOCTYPE svg PUBLIC "-//W3C//DTD SVG 1.1//EN"
 "http://www.w3.org/Graphics/SVG/1.1/DTD/svg11.dtd">
<!-- Generated by graphviz version 2.40.1 (20161225.0304)
 -->
<!-- Title: drake/multibody/optimization/static_friction_cone_complementarity_constraint.h Pages: 1 -->
<svg width="370pt" height="128pt"
 viewBox="0.00 0.00 369.50 128.00" xmlns="http://www.w3.org/2000/svg" xmlns:xlink="http://www.w3.org/1999/xlink">
<g id="graph0" class="graph" transform="scale(1 1) rotate(0) translate(4 124)">
<title>drake/multibody/optimization/static_friction_cone_complementarity_constraint.h</title>
<polygon fill="#ffffff" stroke="transparent" points="-4,4 -4,-124 365.5,-124 365.5,4 -4,4"/>
<!-- Node246 -->
<g id="node1" class="node">
<title>Node246</title>
<g id="a_node1"><a xlink:title=" ">
<polygon fill="#bfbfbf" stroke="#000000" points="83.5,-78.5 83.5,-119.5 287.5,-119.5 287.5,-78.5 83.5,-78.5"/>
<text text-anchor="start" x="91.5" y="-107.5" font-family="Helvetica,sans-Serif" font-size="10.00" fill="#000000">drake/multibody/optimization</text>
<text text-anchor="start" x="91.5" y="-96.5" font-family="Helvetica,sans-Serif" font-size="10.00" fill="#000000">/static_friction_cone_complementarity</text>
<text text-anchor="middle" x="185.5" y="-85.5" font-family="Helvetica,sans-Serif" font-size="10.00" fill="#000000">_constraint.h</text>
</a>
</g>
</g>
<!-- Node247 -->
<g id="node2" class="node">
<title>Node247</title>
<g id="a_node2"><a xlink:href="sliding__friction__complementarity__constraint_8h.html" target="_top" xlink:title=" ">
<polygon fill="#ffffff" stroke="#000000" points="0,-.5 0,-41.5 181,-41.5 181,-.5 0,-.5"/>
<text text-anchor="start" x="8" y="-29.5" font-family="Helvetica,sans-Serif" font-size="10.00" fill="#000000">drake/multibody/optimization</text>
<text text-anchor="start" x="8" y="-18.5" font-family="Helvetica,sans-Serif" font-size="10.00" fill="#000000">/sliding_friction_complementarity</text>
<text text-anchor="middle" x="90.5" y="-7.5" font-family="Helvetica,sans-Serif" font-size="10.00" fill="#000000">_constraint.h</text>
</a>
</g>
</g>
<!-- Node246&#45;&gt;Node247 -->
<g id="edge1" class="edge">
<title>Node246&#45;&gt;Node247</title>
<path fill="none" stroke="#191970" d="M152.0213,-71.5122C140.0757,-61.7043 126.8306,-50.8293 115.6991,-41.6898"/>
<polygon fill="#191970" stroke="#191970" points="150.092,-74.4568 160.0417,-78.0974 154.534,-69.0467 150.092,-74.4568"/>
</g>
<!-- Node248 -->
<g id="node3" class="node">
<title>Node248</title>
<g id="a_node3"><a xlink:href="static__equilibrium__problem_8h.html" target="_top" xlink:title=" ">
<polygon fill="#ffffff" stroke="#000000" points="199.5,-6 199.5,-36 361.5,-36 361.5,-6 199.5,-6"/>
<text text-anchor="start" x="207.5" y="-24" font-family="Helvetica,sans-Serif" font-size="10.00" fill="#000000">drake/multibody/optimization</text>
<text text-anchor="middle" x="280.5" y="-13" font-family="Helvetica,sans-Serif" font-size="10.00" fill="#000000">/static_equilibrium_problem.h</text>
</a>
</g>
</g>
<!-- Node246&#45;&gt;Node248 -->
<g id="edge2" class="edge">
<title>Node246&#45;&gt;Node248</title>
<path fill="none" stroke="#191970" d="M218.8134,-71.648C233.387,-59.6823 249.9222,-46.106 262.2024,-36.0233"/>
<polygon fill="#191970" stroke="#191970" points="216.466,-69.0467 210.9583,-78.0974 220.908,-74.4568 216.466,-69.0467"/>
</g>
</g>
</svg>
