<?xml version="1.0" encoding="UTF-8" standalone="no"?>
<!DOCTYPE svg PUBLIC "-//W3C//DTD SVG 1.1//EN"
 "http://www.w3.org/Graphics/SVG/1.1/DTD/svg11.dtd">
<!-- Generated by graphviz version 2.40.1 (20161225.0304)
 -->
<!-- Title: drake/common/symbolic_formula_cell.h Pages: 1 -->
<svg width="4159pt" height="430pt"
 viewBox="0.00 0.00 4159.00 430.00" xmlns="http://www.w3.org/2000/svg" xmlns:xlink="http://www.w3.org/1999/xlink">
<g id="graph0" class="graph" transform="scale(1 1) rotate(0) translate(4 426)">
<title>drake/common/symbolic_formula_cell.h</title>
<polygon fill="#ffffff" stroke="transparent" points="-4,4 -4,-426 4155,-426 4155,4 -4,4"/>
<!-- Node0 -->
<g id="node1" class="node">
<title>Node0</title>
<g id="a_node1"><a xlink:title="Provides implementation&#45;details of symbolic formulas.">
<polygon fill="#bfbfbf" stroke="#000000" points="2577.5,-391.5 2577.5,-421.5 2714.5,-421.5 2714.5,-391.5 2577.5,-391.5"/>
<text text-anchor="start" x="2585.5" y="-409.5" font-family="Helvetica,sans-Serif" font-size="10.00" fill="#000000">drake/common/symbolic</text>
<text text-anchor="middle" x="2646" y="-398.5" font-family="Helvetica,sans-Serif" font-size="10.00" fill="#000000">_formula_cell.h</text>
</a>
</g>
</g>
<!-- Node1 -->
<g id="node2" class="node">
<title>Node1</title>
<g id="a_node2"><a xlink:title=" ">
<polygon fill="#ffffff" stroke="#bfbfbf" points="1444.5,-140 1444.5,-159 1509.5,-159 1509.5,-140 1444.5,-140"/>
<text text-anchor="middle" x="1477" y="-147" font-family="Helvetica,sans-Serif" font-size="10.00" fill="#000000">functional</text>
</a>
</g>
</g>
<!-- Node0&#45;&gt;Node1 -->
<g id="edge1" class="edge">
<title>Node0&#45;&gt;Node1</title>
<path fill="none" stroke="#191970" d="M2577.2499,-405.9284C2202.8998,-402.4885 424.0351,-381.8138 345,-299 299.1893,-250.9991 376.4253,-217.8448 416,-201 492.0499,-168.6297 1076.445,-169.0119 1159,-165 1257.6381,-160.2065 1373.4853,-154.5542 1434.4768,-151.5766"/>
<polygon fill="#191970" stroke="#191970" points="1434.68,-155.0709 1444.4974,-151.0874 1434.3386,-148.0793 1434.68,-155.0709"/>
</g>
<!-- Node2 -->
<g id="node3" class="node">
<title>Node2</title>
<g id="a_node3"><a xlink:title=" ">
<polygon fill="#ffffff" stroke="#bfbfbf" points="968,-73 968,-92 1026,-92 1026,-73 968,-73"/>
<text text-anchor="middle" x="997" y="-80" font-family="Helvetica,sans-Serif" font-size="10.00" fill="#000000">memory</text>
</a>
</g>
</g>
<!-- Node0&#45;&gt;Node2 -->
<g id="edge2" class="edge">
<title>Node0&#45;&gt;Node2</title>
<path fill="none" stroke="#191970" d="M2577.4949,-405.8849C2236.2257,-402.6804 727.8201,-386.8135 521,-355 493.4913,-350.7686 99.2106,-237.5986 95,-232 35.2154,-152.5068 8.2645,-189.2836 398,-134 644.9308,-98.9731 714.6766,-152.7302 958,-98 960.8656,-97.3555 963.7957,-96.5295 966.6991,-95.5954"/>
<polygon fill="#191970" stroke="#191970" points="968.1221,-98.8026 976.3342,-92.1085 965.7399,-92.2204 968.1221,-98.8026"/>
</g>
<!-- Node3 -->
<g id="node4" class="node">
<title>Node3</title>
<g id="a_node4"><a xlink:title=" ">
<polygon fill="#ffffff" stroke="#bfbfbf" points="2582.5,-207 2582.5,-226 2639.5,-226 2639.5,-207 2582.5,-207"/>
<text text-anchor="middle" x="2611" y="-214" font-family="Helvetica,sans-Serif" font-size="10.00" fill="#000000">ostream</text>
</a>
</g>
</g>
<!-- Node0&#45;&gt;Node3 -->
<g id="edge3" class="edge">
<title>Node0&#45;&gt;Node3</title>
<path fill="none" stroke="#191970" d="M2647.8328,-391.1582C2650.4122,-365.1994 2653.5111,-311.2193 2641,-268 2637.5473,-256.0729 2630.7397,-244.0115 2624.4811,-234.5625"/>
<polygon fill="#191970" stroke="#191970" points="2627.1508,-232.2728 2618.5501,-226.0859 2621.4154,-236.286 2627.1508,-232.2728"/>
</g>
<!-- Node4 -->
<g id="node5" class="node">
<title>Node4</title>
<g id="a_node5"><a xlink:title=" ">
<polygon fill="#ffffff" stroke="#bfbfbf" points="3535,-140 3535,-159 3567,-159 3567,-140 3535,-140"/>
<text text-anchor="middle" x="3551" y="-147" font-family="Helvetica,sans-Serif" font-size="10.00" fill="#000000">set</text>
</a>
</g>
</g>
<!-- Node0&#45;&gt;Node4 -->
<g id="edge4" class="edge">
<title>Node0&#45;&gt;Node4</title>
<path fill="none" stroke="#191970" d="M2714.7511,-402.9228C2977.6296,-388.5417 3908.5979,-330.9091 3992,-232 4000.8816,-221.467 4001.1599,-211.2919 3992,-201 3964.2661,-169.8389 3668.1099,-154.5532 3577.3125,-150.5756"/>
<polygon fill="#191970" stroke="#191970" points="3577.198,-147.0676 3567.0575,-150.1366 3576.8986,-154.0612 3577.198,-147.0676"/>
</g>
<!-- Node5 -->
<g id="node6" class="node">
<title>Node5</title>
<g id="a_node6"><a xlink:title=" ">
<polygon fill="#ffffff" stroke="#bfbfbf" points="3205,-73 3205,-92 3249,-92 3249,-73 3205,-73"/>
<text text-anchor="middle" x="3227" y="-80" font-family="Helvetica,sans-Serif" font-size="10.00" fill="#000000">string</text>
</a>
</g>
</g>
<!-- Node0&#45;&gt;Node5 -->
<g id="edge5" class="edge">
<title>Node0&#45;&gt;Node5</title>
<path fill="none" stroke="#191970" d="M2714.6732,-404.798C2932.5925,-399.192 3606.9325,-380.2151 3824,-355 3971.7733,-337.8343 4151,-432.2669 4151,-283.5 4151,-283.5 4151,-283.5 4151,-216.5 4151,-124.4977 3424.2723,-90.2885 3259.8129,-83.7249"/>
<polygon fill="#191970" stroke="#191970" points="3259.5122,-80.2105 3249.3827,-83.3158 3259.2379,-87.2051 3259.5122,-80.2105"/>
</g>
<!-- Node6 -->
<g id="node7" class="node">
<title>Node6</title>
<g id="a_node7"><a xlink:title=" ">
<polygon fill="#ffffff" stroke="#bfbfbf" points="754.5,-6 754.5,-25 799.5,-25 799.5,-6 754.5,-6"/>
<text text-anchor="middle" x="777" y="-13" font-family="Helvetica,sans-Serif" font-size="10.00" fill="#000000">utility</text>
</a>
</g>
</g>
<!-- Node0&#45;&gt;Node6 -->
<g id="edge6" class="edge">
<title>Node0&#45;&gt;Node6</title>
<path fill="none" stroke="#191970" d="M2577.3609,-406.164C2252.9751,-404.3821 871.4851,-394.5677 442,-355 243.8411,-336.744 0,-482.4981 0,-283.5 0,-283.5 0,-283.5 0,-149.5 0,-54.1667 105.439,-89.8232 198,-67 302.9131,-41.1311 637.456,-22.5045 744.0433,-17.1052"/>
<polygon fill="#191970" stroke="#191970" points="744.3877,-20.5925 754.1998,-16.596 744.0371,-13.6013 744.3877,-20.5925"/>
</g>
<!-- Node7 -->
<g id="node8" class="node">
<title>Node7</title>
<g id="a_node8"><a xlink:href="drake__assert_8h.html" target="_top" xlink:title="Provides Drake&#39;s assertion implementation.">
<polygon fill="#ffffff" stroke="#000000" points="2073.5,-67.5 2073.5,-97.5 2194.5,-97.5 2194.5,-67.5 2073.5,-67.5"/>
<text text-anchor="start" x="2081.5" y="-85.5" font-family="Helvetica,sans-Serif" font-size="10.00" fill="#000000">drake/common/drake</text>
<text text-anchor="middle" x="2134" y="-74.5" font-family="Helvetica,sans-Serif" font-size="10.00" fill="#000000">_assert.h</text>
</a>
</g>
</g>
<!-- Node0&#45;&gt;Node7 -->
<g id="edge7" class="edge">
<title>Node0&#45;&gt;Node7</title>
<path fill="none" stroke="#191970" d="M2714.7888,-404.3842C3004.8202,-395.0188 4113,-354.5835 4113,-283.5 4113,-283.5 4113,-283.5 4113,-216.5 4113,-118.8088 2557.6658,-89.015 2204.6699,-83.5111"/>
<polygon fill="#191970" stroke="#191970" points="2204.6325,-80.0102 2194.5797,-83.3553 2204.5244,-87.0093 2204.6325,-80.0102"/>
</g>
<!-- Node9 -->
<g id="node10" class="node">
<title>Node9</title>
<g id="a_node10"><a xlink:href="hash_8h.html" target="_top" xlink:title=" ">
<polygon fill="#ffffff" stroke="#000000" points="2362.5,-207 2362.5,-226 2487.5,-226 2487.5,-207 2362.5,-207"/>
<text text-anchor="middle" x="2425" y="-214" font-family="Helvetica,sans-Serif" font-size="10.00" fill="#000000">drake/common/hash.h</text>
</a>
</g>
</g>
<!-- Node0&#45;&gt;Node9 -->
<g id="edge9" class="edge">
<title>Node0&#45;&gt;Node9</title>
<path fill="none" stroke="#191970" d="M2646.2611,-391.2224C2645.8838,-362.8742 2640.8927,-301.936 2607,-268 2590.4424,-251.4212 2535.7884,-237.3225 2490.6569,-228.0907"/>
<polygon fill="#191970" stroke="#191970" points="2491.093,-224.6087 2480.6009,-226.0806 2489.7209,-231.4729 2491.093,-224.6087"/>
</g>
<!-- Node17 -->
<g id="node18" class="node">
<title>Node17</title>
<g id="a_node18"><a xlink:href="random_8h.html" target="_top" xlink:title=" ">
<polygon fill="#ffffff" stroke="#000000" points="2769,-207 2769,-226 2909,-226 2909,-207 2769,-207"/>
<text text-anchor="middle" x="2839" y="-214" font-family="Helvetica,sans-Serif" font-size="10.00" fill="#000000">drake/common/random.h</text>
</a>
</g>
</g>
<!-- Node0&#45;&gt;Node17 -->
<g id="edge25" class="edge">
<title>Node0&#45;&gt;Node17</title>
<path fill="none" stroke="#191970" d="M2656.4688,-391.1062C2675.2925,-364.1256 2717.0106,-307.4219 2761,-268 2776.8599,-253.7868 2796.9586,-240.6113 2812.7815,-231.1452"/>
<polygon fill="#191970" stroke="#191970" points="2814.676,-234.0918 2821.5393,-226.0204 2811.1407,-228.0501 2814.676,-234.0918"/>
</g>
<!-- Node20 -->
<g id="node21" class="node">
<title>Node20</title>
<g id="a_node21"><a xlink:href="symbolic_8h.html" target="_top" xlink:title="Provides public header files of Drake&#39;s symbolic library.">
<polygon fill="#ffffff" stroke="#000000" points="2147,-335.5 2147,-354.5 2293,-354.5 2293,-335.5 2147,-335.5"/>
<text text-anchor="middle" x="2220" y="-342.5" font-family="Helvetica,sans-Serif" font-size="10.00" fill="#000000">drake/common/symbolic.h</text>
</a>
</g>
</g>
<!-- Node0&#45;&gt;Node20 -->
<g id="edge28" class="edge">
<title>Node0&#45;&gt;Node20</title>
<path fill="none" stroke="#191970" d="M2577.0823,-396.5506C2500.0762,-385.4335 2375.7708,-367.488 2295.9996,-355.9718"/>
<polygon fill="#191970" stroke="#191970" points="2296.4133,-352.4953 2286.0158,-354.5304 2295.4131,-359.4235 2296.4133,-352.4953"/>
</g>
<!-- Node8 -->
<g id="node9" class="node">
<title>Node8</title>
<g id="a_node9"><a xlink:title=" ">
<polygon fill="#ffffff" stroke="#bfbfbf" points="1736.5,-6 1736.5,-25 1805.5,-25 1805.5,-6 1736.5,-6"/>
<text text-anchor="middle" x="1771" y="-13" font-family="Helvetica,sans-Serif" font-size="10.00" fill="#000000">type_traits</text>
</a>
</g>
</g>
<!-- Node7&#45;&gt;Node8 -->
<g id="edge8" class="edge">
<title>Node7&#45;&gt;Node8</title>
<path fill="none" stroke="#191970" d="M2073.4457,-69.8401C2068.5614,-68.8633 2063.7001,-67.9057 2059,-67 1973.0759,-50.4418 1872.371,-32.8466 1815.6918,-23.1089"/>
<polygon fill="#191970" stroke="#191970" points="1816.0821,-19.6248 1805.6344,-21.3841 1814.8989,-26.5241 1816.0821,-19.6248"/>
</g>
<!-- Node9&#45;&gt;Node1 -->
<g id="edge12" class="edge">
<title>Node9&#45;&gt;Node1</title>
<path fill="none" stroke="#191970" d="M2362.2714,-212.7393C2309.1968,-209.5692 2231.1211,-204.9339 2163,-201 1879.0228,-184.6006 1803.4693,-217.9993 1524,-165 1520.0298,-164.2471 1515.9321,-163.2477 1511.8877,-162.1177"/>
<polygon fill="#191970" stroke="#191970" points="1512.6336,-158.6858 1502.0471,-159.1062 1510.5851,-165.3794 1512.6336,-158.6858"/>
</g>
<!-- Node9&#45;&gt;Node4 -->
<g id="edge16" class="edge">
<title>Node9&#45;&gt;Node4</title>
<path fill="none" stroke="#191970" d="M2487.5613,-207.1073C2504.543,-204.8204 2522.9492,-202.5806 2540,-201 2930.7653,-164.7762 3409.033,-152.5625 3524.8501,-150.0332"/>
<polygon fill="#191970" stroke="#191970" points="3524.9888,-153.5311 3534.9117,-149.8181 3524.8391,-146.5327 3524.9888,-153.5311"/>
</g>
<!-- Node9&#45;&gt;Node5 -->
<g id="edge17" class="edge">
<title>Node9&#45;&gt;Node5</title>
<path fill="none" stroke="#191970" d="M2461.6784,-206.9977C2527.7247,-190.1794 2671.2184,-154.9715 2794,-134 2942.7012,-108.6014 3122.2621,-91.5391 3194.5411,-85.2244"/>
<polygon fill="#191970" stroke="#191970" points="3195.1441,-88.6854 3204.8056,-84.3372 3194.5413,-81.7114 3195.1441,-88.6854"/>
</g>
<!-- Node9&#45;&gt;Node6 -->
<g id="edge19" class="edge">
<title>Node9&#45;&gt;Node6</title>
<path fill="none" stroke="#191970" d="M2396.4634,-206.9906C2370.6907,-197.8636 2332.1441,-182.8534 2301,-165 2281.1809,-153.6387 2281.3766,-142.057 2260,-134 2114.1506,-79.0283 1015.5904,-50.8934 861,-31 844.0304,-28.8163 825.2949,-25.4526 809.832,-22.4161"/>
<polygon fill="#191970" stroke="#191970" points="810.205,-18.9212 799.7117,-20.3847 808.8273,-25.7843 810.205,-18.9212"/>
</g>
<!-- Node9&#45;&gt;Node7 -->
<g id="edge21" class="edge">
<title>Node9&#45;&gt;Node7</title>
<path fill="none" stroke="#191970" d="M2451.2072,-206.9631C2487.3254,-192.438 2545.1382,-163.3493 2519,-134 2472.8759,-82.2096 2277.4693,-109.0288 2209,-98 2207.7078,-97.7919 2206.4041,-97.5768 2205.0917,-97.3557"/>
<polygon fill="#191970" stroke="#191970" points="2205.3622,-93.8493 2194.9057,-95.5555 2204.1439,-100.7425 2205.3622,-93.8493"/>
</g>
<!-- Node9&#45;&gt;Node8 -->
<g id="edge18" class="edge">
<title>Node9&#45;&gt;Node8</title>
<path fill="none" stroke="#191970" d="M2458.8685,-206.9978C2500.8986,-193.543 2563.9378,-166.8782 2537,-134 2490.7823,-77.5903 1973.6173,-31.7472 1816.1968,-19.0215"/>
<polygon fill="#191970" stroke="#191970" points="1816.1735,-15.5084 1805.9255,-18.197 1815.6133,-22.486 1816.1735,-15.5084"/>
</g>
<!-- Node10 -->
<g id="node11" class="node">
<title>Node10</title>
<g id="a_node11"><a xlink:title=" ">
<polygon fill="#ffffff" stroke="#bfbfbf" points="2310.5,-140 2310.5,-159 2357.5,-159 2357.5,-140 2310.5,-140"/>
<text text-anchor="middle" x="2334" y="-147" font-family="Helvetica,sans-Serif" font-size="10.00" fill="#000000">cmath</text>
</a>
</g>
</g>
<!-- Node9&#45;&gt;Node10 -->
<g id="edge10" class="edge">
<title>Node9&#45;&gt;Node10</title>
<path fill="none" stroke="#191970" d="M2411.9619,-206.9005C2397.2307,-196.0544 2373.0267,-178.2339 2355.4908,-165.3229"/>
<polygon fill="#191970" stroke="#191970" points="2357.1418,-162.1922 2347.0139,-159.0817 2352.9915,-167.8291 2357.1418,-162.1922"/>
</g>
<!-- Node11 -->
<g id="node12" class="node">
<title>Node11</title>
<g id="a_node12"><a xlink:title=" ">
<polygon fill="#ffffff" stroke="#bfbfbf" points="2162.5,-140 2162.5,-159 2215.5,-159 2215.5,-140 2162.5,-140"/>
<text text-anchor="middle" x="2189" y="-147" font-family="Helvetica,sans-Serif" font-size="10.00" fill="#000000">cstddef</text>
</a>
</g>
</g>
<!-- Node9&#45;&gt;Node11 -->
<g id="edge11" class="edge">
<title>Node9&#45;&gt;Node11</title>
<path fill="none" stroke="#191970" d="M2383.9364,-206.962C2344.228,-197.4326 2282.5227,-181.8143 2230,-165 2227.5902,-164.2286 2225.1148,-163.396 2222.6314,-162.5313"/>
<polygon fill="#191970" stroke="#191970" points="2223.73,-159.2068 2213.1357,-159.0976 2221.3495,-165.7896 2223.73,-159.2068"/>
</g>
<!-- Node12 -->
<g id="node13" class="node">
<title>Node12</title>
<g id="a_node13"><a xlink:title=" ">
<polygon fill="#ffffff" stroke="#bfbfbf" points="2376,-140 2376,-159 2436,-159 2436,-140 2376,-140"/>
<text text-anchor="middle" x="2406" y="-147" font-family="Helvetica,sans-Serif" font-size="10.00" fill="#000000">iostream</text>
</a>
</g>
</g>
<!-- Node9&#45;&gt;Node12 -->
<g id="edge13" class="edge">
<title>Node9&#45;&gt;Node12</title>
<path fill="none" stroke="#191970" d="M2422.2778,-206.9005C2419.4842,-197.0495 2415.059,-181.4451 2411.5273,-168.9912"/>
<polygon fill="#191970" stroke="#191970" points="2414.8127,-167.7474 2408.7172,-159.0817 2408.0783,-169.6572 2414.8127,-167.7474"/>
</g>
<!-- Node13 -->
<g id="node14" class="node">
<title>Node13</title>
<g id="a_node14"><a xlink:title=" ">
<polygon fill="#ffffff" stroke="#bfbfbf" points="1533,-140 1533,-159 1571,-159 1571,-140 1533,-140"/>
<text text-anchor="middle" x="1552" y="-147" font-family="Helvetica,sans-Serif" font-size="10.00" fill="#000000">map</text>
</a>
</g>
</g>
<!-- Node9&#45;&gt;Node13 -->
<g id="edge14" class="edge">
<title>Node9&#45;&gt;Node13</title>
<path fill="none" stroke="#191970" d="M2362.4815,-212.7424C2236.9838,-205.0472 1945.4732,-186.4051 1701,-165 1659.4654,-161.3634 1611.5197,-156.2031 1581.4804,-152.8535"/>
<polygon fill="#191970" stroke="#191970" points="1581.5964,-149.3446 1571.2685,-151.7075 1580.8158,-156.301 1581.5964,-149.3446"/>
</g>
<!-- Node14 -->
<g id="node15" class="node">
<title>Node14</title>
<g id="a_node15"><a xlink:title=" ">
<polygon fill="#ffffff" stroke="#bfbfbf" points="2454,-140 2454,-159 2510,-159 2510,-140 2454,-140"/>
<text text-anchor="middle" x="2482" y="-147" font-family="Helvetica,sans-Serif" font-size="10.00" fill="#000000">optional</text>
</a>
</g>
</g>
<!-- Node9&#45;&gt;Node14 -->
<g id="edge15" class="edge">
<title>Node9&#45;&gt;Node14</title>
<path fill="none" stroke="#191970" d="M2433.1667,-206.9005C2442.0554,-196.4525 2456.45,-179.5325 2467.3131,-166.7635"/>
<polygon fill="#191970" stroke="#191970" points="2470.0344,-168.9662 2473.8484,-159.0817 2464.7028,-164.4303 2470.0344,-168.9662"/>
</g>
<!-- Node15 -->
<g id="node16" class="node">
<title>Node15</title>
<g id="a_node16"><a xlink:title=" ">
<polygon fill="#ffffff" stroke="#bfbfbf" points="1140.5,-73 1140.5,-92 1187.5,-92 1187.5,-73 1140.5,-73"/>
<text text-anchor="middle" x="1164" y="-80" font-family="Helvetica,sans-Serif" font-size="10.00" fill="#000000">vector</text>
</a>
</g>
</g>
<!-- Node9&#45;&gt;Node15 -->
<g id="edge20" class="edge">
<title>Node9&#45;&gt;Node15</title>
<path fill="none" stroke="#191970" d="M2385.3355,-206.9957C2352.8006,-198.3839 2306.0685,-184.1162 2268,-165 2246.6222,-154.2651 2246.6219,-141.7779 2224,-134 2125.066,-99.9845 1367.2917,-85.7887 1197.6299,-83.0194"/>
<polygon fill="#191970" stroke="#191970" points="1197.5929,-79.5185 1187.5378,-82.8569 1197.4802,-86.5175 1197.5929,-79.5185"/>
</g>
<!-- Node16 -->
<g id="node17" class="node">
<title>Node16</title>
<g id="a_node17"><a xlink:href="drake__throw_8h.html" target="_top" xlink:title="Provides a convenient wrapper to throw an exception when a condition is unmet.">
<polygon fill="#ffffff" stroke="#000000" points="1710.5,-134.5 1710.5,-164.5 1831.5,-164.5 1831.5,-134.5 1710.5,-134.5"/>
<text text-anchor="start" x="1718.5" y="-152.5" font-family="Helvetica,sans-Serif" font-size="10.00" fill="#000000">drake/common/drake</text>
<text text-anchor="middle" x="1771" y="-141.5" font-family="Helvetica,sans-Serif" font-size="10.00" fill="#000000">_throw.h</text>
</a>
</g>
</g>
<!-- Node9&#45;&gt;Node16 -->
<g id="edge22" class="edge">
<title>Node9&#45;&gt;Node16</title>
<path fill="none" stroke="#191970" d="M2362.4251,-210.2525C2266.5341,-200.657 2077.4749,-181.6526 1917,-165 1892.4863,-162.4562 1865.6632,-159.6229 1841.7719,-157.0816"/>
<polygon fill="#191970" stroke="#191970" points="1842.042,-153.5907 1831.7275,-156.0121 1841.3007,-160.5513 1842.042,-153.5907"/>
</g>
<!-- Node16&#45;&gt;Node7 -->
<g id="edge24" class="edge">
<title>Node16&#45;&gt;Node7</title>
<path fill="none" stroke="#191970" d="M1831.5543,-136.8401C1836.4386,-135.8633 1841.2999,-134.9057 1846,-134 1920.0222,-119.7354 2005.014,-104.7012 2063.3773,-94.584"/>
<polygon fill="#191970" stroke="#191970" points="2063.9751,-98.0327 2073.2318,-92.8786 2062.7814,-91.1352 2063.9751,-98.0327"/>
</g>
<!-- Node16&#45;&gt;Node8 -->
<g id="edge23" class="edge">
<title>Node16&#45;&gt;Node8</title>
<path fill="none" stroke="#191970" d="M1771,-134.389C1771,-110.0735 1771,-62.2644 1771,-35.2698"/>
<polygon fill="#191970" stroke="#191970" points="1774.5001,-35.1041 1771,-25.1042 1767.5001,-35.1042 1774.5001,-35.1041"/>
</g>
<!-- Node18 -->
<g id="node19" class="node">
<title>Node18</title>
<g id="a_node19"><a xlink:title=" ">
<polygon fill="#ffffff" stroke="#bfbfbf" points="1926,-140 1926,-159 1980,-159 1980,-140 1926,-140"/>
<text text-anchor="middle" x="1953" y="-147" font-family="Helvetica,sans-Serif" font-size="10.00" fill="#000000">random</text>
</a>
</g>
</g>
<!-- Node17&#45;&gt;Node18 -->
<g id="edge26" class="edge">
<title>Node17&#45;&gt;Node18</title>
<path fill="none" stroke="#191970" d="M2795.5819,-206.9227C2783.7683,-204.6361 2770.9382,-202.4427 2759,-201 2435.626,-161.9226 2350.0698,-206.5171 2027,-165 2014.9168,-163.4472 2001.8684,-160.983 1990.1429,-158.4723"/>
<polygon fill="#191970" stroke="#191970" points="1990.7573,-155.0236 1980.2368,-156.2758 1989.2419,-161.8576 1990.7573,-155.0236"/>
</g>
<!-- Node19 -->
<g id="node20" class="node">
<title>Node19</title>
<g id="a_node20"><a xlink:href="drake__copyable_8h.html" target="_top" xlink:title="Provides careful macros to selectively enable or disable the special member functions for copy&#45;constr...">
<polygon fill="#ffffff" stroke="#000000" points="2416.5,-.5 2416.5,-30.5 2537.5,-30.5 2537.5,-.5 2416.5,-.5"/>
<text text-anchor="start" x="2424.5" y="-18.5" font-family="Helvetica,sans-Serif" font-size="10.00" fill="#000000">drake/common/drake</text>
<text text-anchor="middle" x="2477" y="-7.5" font-family="Helvetica,sans-Serif" font-size="10.00" fill="#000000">_copyable.h</text>
</a>
</g>
</g>
<!-- Node17&#45;&gt;Node19 -->
<g id="edge27" class="edge">
<title>Node17&#45;&gt;Node19</title>
<path fill="none" stroke="#191970" d="M2821.54,-206.8054C2765.4896,-175.6834 2589.3226,-77.867 2512.9279,-35.4489"/>
<polygon fill="#191970" stroke="#191970" points="2514.5627,-32.3533 2504.1209,-30.5588 2511.1646,-38.4732 2514.5627,-32.3533"/>
</g>
<!-- Node21 -->
<g id="node22" class="node">
<title>Node21</title>
<g id="a_node22"><a xlink:href="symbolic__variable_8h.html" target="_top" xlink:title=" ">
<polygon fill="#ffffff" stroke="#000000" points="2151.5,-268.5 2151.5,-298.5 2288.5,-298.5 2288.5,-268.5 2151.5,-268.5"/>
<text text-anchor="start" x="2159.5" y="-286.5" font-family="Helvetica,sans-Serif" font-size="10.00" fill="#000000">drake/common/symbolic</text>
<text text-anchor="middle" x="2220" y="-275.5" font-family="Helvetica,sans-Serif" font-size="10.00" fill="#000000">_variable.h</text>
</a>
</g>
</g>
<!-- Node20&#45;&gt;Node21 -->
<g id="edge29" class="edge">
<title>Node20&#45;&gt;Node21</title>
<path fill="none" stroke="#191970" d="M2220,-335.3906C2220,-328.2234 2220,-318.0862 2220,-308.671"/>
<polygon fill="#191970" stroke="#191970" points="2223.5001,-308.5446 2220,-298.5446 2216.5001,-308.5446 2223.5001,-308.5446"/>
</g>
<!-- Node26 -->
<g id="node27" class="node">
<title>Node26</title>
<g id="a_node27"><a xlink:href="symbolic__variables_8h.html" target="_top" xlink:title=" ">
<polygon fill="#ffffff" stroke="#000000" points="3455.5,-268.5 3455.5,-298.5 3592.5,-298.5 3592.5,-268.5 3455.5,-268.5"/>
<text text-anchor="start" x="3463.5" y="-286.5" font-family="Helvetica,sans-Serif" font-size="10.00" fill="#000000">drake/common/symbolic</text>
<text text-anchor="middle" x="3524" y="-275.5" font-family="Helvetica,sans-Serif" font-size="10.00" fill="#000000">_variables.h</text>
</a>
</g>
</g>
<!-- Node20&#45;&gt;Node26 -->
<g id="edge44" class="edge">
<title>Node20&#45;&gt;Node26</title>
<path fill="none" stroke="#191970" d="M2293.099,-342.158C2464.1813,-335.637 2903.5831,-318.6403 3271,-299 3329.1924,-295.8893 3395.1456,-291.6571 3445.1868,-288.401"/>
<polygon fill="#191970" stroke="#191970" points="3445.5437,-291.8853 3455.295,-287.7426 3445.0887,-284.9001 3445.5437,-291.8853"/>
</g>
<!-- Node28 -->
<g id="node29" class="node">
<title>Node28</title>
<g id="a_node29"><a xlink:href="symbolic__environment_8h.html" target="_top" xlink:title=" ">
<polygon fill="#ffffff" stroke="#000000" points="2770.5,-268.5 2770.5,-298.5 2907.5,-298.5 2907.5,-268.5 2770.5,-268.5"/>
<text text-anchor="start" x="2778.5" y="-286.5" font-family="Helvetica,sans-Serif" font-size="10.00" fill="#000000">drake/common/symbolic</text>
<text text-anchor="middle" x="2839" y="-275.5" font-family="Helvetica,sans-Serif" font-size="10.00" fill="#000000">_environment.h</text>
</a>
</g>
</g>
<!-- Node20&#45;&gt;Node28 -->
<g id="edge54" class="edge">
<title>Node20&#45;&gt;Node28</title>
<path fill="none" stroke="#191970" d="M2293.1115,-337.2733C2410.3483,-325.3456 2639.2704,-302.604 2760.0822,-290.8861"/>
<polygon fill="#191970" stroke="#191970" points="2760.7487,-294.338 2770.3647,-289.8901 2760.0738,-287.3706 2760.7487,-294.338"/>
</g>
<!-- Node30 -->
<g id="node31" class="node">
<title>Node30</title>
<g id="a_node31"><a xlink:href="symbolic__expression_8h.html" target="_top" xlink:title=" ">
<polygon fill="#ffffff" stroke="#000000" points="1388.5,-268.5 1388.5,-298.5 1525.5,-298.5 1525.5,-268.5 1388.5,-268.5"/>
<text text-anchor="start" x="1396.5" y="-286.5" font-family="Helvetica,sans-Serif" font-size="10.00" fill="#000000">drake/common/symbolic</text>
<text text-anchor="middle" x="1457" y="-275.5" font-family="Helvetica,sans-Serif" font-size="10.00" fill="#000000">_expression.h</text>
</a>
</g>
</g>
<!-- Node20&#45;&gt;Node30 -->
<g id="edge63" class="edge">
<title>Node20&#45;&gt;Node30</title>
<path fill="none" stroke="#191970" d="M2146.8629,-339.4338C2002.9872,-328.1148 1684.5084,-302.4533 1536.0153,-290.2242"/>
<polygon fill="#191970" stroke="#191970" points="1535.8761,-286.7009 1525.6223,-289.3673 1535.3009,-293.6772 1535.8761,-286.7009"/>
</g>
<!-- Node43 -->
<g id="node44" class="node">
<title>Node43</title>
<g id="a_node44"><a xlink:href="symbolic__expression__visitor_8h.html" target="_top" xlink:title=" ">
<polygon fill="#ffffff" stroke="#000000" points="104.5,-201.5 104.5,-231.5 241.5,-231.5 241.5,-201.5 104.5,-201.5"/>
<text text-anchor="start" x="112.5" y="-219.5" font-family="Helvetica,sans-Serif" font-size="10.00" fill="#000000">drake/common/symbolic</text>
<text text-anchor="middle" x="173" y="-208.5" font-family="Helvetica,sans-Serif" font-size="10.00" fill="#000000">_expression_visitor.h</text>
</a>
</g>
</g>
<!-- Node20&#45;&gt;Node43 -->
<g id="edge105" class="edge">
<title>Node20&#45;&gt;Node43</title>
<path fill="none" stroke="#191970" d="M2146.8906,-344.103C1810.5649,-339.7817 425.1927,-320.4381 336,-299 284.4175,-286.6018 230.0436,-257.4174 198.7733,-237.3085"/>
<polygon fill="#191970" stroke="#191970" points="200.4842,-234.2437 190.2133,-231.6437 196.621,-240.0812 200.4842,-234.2437"/>
</g>
<!-- Node44 -->
<g id="node45" class="node">
<title>Node44</title>
<g id="a_node45"><a xlink:href="symbolic__ldlt_8h.html" target="_top" xlink:title="Eigen::LDLT is specialized for drake::symbolic::Expression, for certain matrix sizes.">
<polygon fill="#ffffff" stroke="#000000" points="1996.5,-268.5 1996.5,-298.5 2133.5,-298.5 2133.5,-268.5 1996.5,-268.5"/>
<text text-anchor="start" x="2004.5" y="-286.5" font-family="Helvetica,sans-Serif" font-size="10.00" fill="#000000">drake/common/symbolic</text>
<text text-anchor="middle" x="2065" y="-275.5" font-family="Helvetica,sans-Serif" font-size="10.00" fill="#000000">_ldlt.h</text>
</a>
</g>
</g>
<!-- Node20&#45;&gt;Node44 -->
<g id="edge110" class="edge">
<title>Node20&#45;&gt;Node44</title>
<path fill="none" stroke="#191970" d="M2195.7813,-335.3906C2173.5414,-326.5664 2139.9555,-313.2404 2112.3886,-302.3026"/>
<polygon fill="#191970" stroke="#191970" points="2113.5032,-298.9794 2102.9173,-298.5446 2110.9215,-305.486 2113.5032,-298.9794"/>
</g>
<!-- Node45 -->
<g id="node46" class="node">
<title>Node45</title>
<g id="a_node46"><a xlink:href="symbolic__monomial_8h.html" target="_top" xlink:title=" ">
<polygon fill="#ffffff" stroke="#000000" points="1841.5,-268.5 1841.5,-298.5 1978.5,-298.5 1978.5,-268.5 1841.5,-268.5"/>
<text text-anchor="start" x="1849.5" y="-286.5" font-family="Helvetica,sans-Serif" font-size="10.00" fill="#000000">drake/common/symbolic</text>
<text text-anchor="middle" x="1910" y="-275.5" font-family="Helvetica,sans-Serif" font-size="10.00" fill="#000000">_monomial.h</text>
</a>
</g>
</g>
<!-- Node20&#45;&gt;Node45 -->
<g id="edge112" class="edge">
<title>Node20&#45;&gt;Node45</title>
<path fill="none" stroke="#191970" d="M2164.4429,-335.4495C2117.7035,-326.6528 2049.0912,-313.1545 1985.7038,-300.5343"/>
<polygon fill="#191970" stroke="#191970" points="1986.0707,-297.0386 1975.5796,-298.5172 1984.7029,-303.9037 1986.0707,-297.0386"/>
</g>
<!-- Node46 -->
<g id="node47" class="node">
<title>Node46</title>
<g id="a_node47"><a xlink:href="symbolic__monomial__util_8h.html" target="_top" xlink:title=" ">
<polygon fill="#ffffff" stroke="#000000" points="2306.5,-268.5 2306.5,-298.5 2443.5,-298.5 2443.5,-268.5 2306.5,-268.5"/>
<text text-anchor="start" x="2314.5" y="-286.5" font-family="Helvetica,sans-Serif" font-size="10.00" fill="#000000">drake/common/symbolic</text>
<text text-anchor="middle" x="2375" y="-275.5" font-family="Helvetica,sans-Serif" font-size="10.00" fill="#000000">_monomial_util.h</text>
</a>
</g>
</g>
<!-- Node20&#45;&gt;Node46 -->
<g id="edge121" class="edge">
<title>Node20&#45;&gt;Node46</title>
<path fill="none" stroke="#191970" d="M2239.1563,-335.3906C2259.7639,-326.5279 2293.146,-313.1239 2321.7092,-302.1594"/>
<polygon fill="#191970" stroke="#191970" points="2323.0897,-305.3788 2331.1857,-298.5446 2320.5949,-298.8385 2323.0897,-305.3788"/>
</g>
<!-- Node47 -->
<g id="node48" class="node">
<title>Node47</title>
<g id="a_node48"><a xlink:href="symbolic__polynomial_8h.html" target="_top" xlink:title=" ">
<polygon fill="#ffffff" stroke="#000000" points="509.5,-268.5 509.5,-298.5 646.5,-298.5 646.5,-268.5 509.5,-268.5"/>
<text text-anchor="start" x="517.5" y="-286.5" font-family="Helvetica,sans-Serif" font-size="10.00" fill="#000000">drake/common/symbolic</text>
<text text-anchor="middle" x="578" y="-275.5" font-family="Helvetica,sans-Serif" font-size="10.00" fill="#000000">_polynomial.h</text>
</a>
</g>
</g>
<!-- Node20&#45;&gt;Node47 -->
<g id="edge131" class="edge">
<title>Node20&#45;&gt;Node47</title>
<path fill="none" stroke="#191970" d="M2146.76,-342.3673C1876.3985,-332.4283 936.1096,-297.213 656.7901,-286.5693"/>
<polygon fill="#191970" stroke="#191970" points="656.8662,-283.0697 646.7401,-286.186 656.5994,-290.0647 656.8662,-283.0697"/>
</g>
<!-- Node48 -->
<g id="node49" class="node">
<title>Node48</title>
<g id="a_node49"><a xlink:href="symbolic__rational__function_8h.html" target="_top" xlink:title=" ">
<polygon fill="#ffffff" stroke="#000000" points="2461.5,-268.5 2461.5,-298.5 2598.5,-298.5 2598.5,-268.5 2461.5,-268.5"/>
<text text-anchor="start" x="2469.5" y="-286.5" font-family="Helvetica,sans-Serif" font-size="10.00" fill="#000000">drake/common/symbolic</text>
<text text-anchor="middle" x="2530" y="-275.5" font-family="Helvetica,sans-Serif" font-size="10.00" fill="#000000">_rational_function.h</text>
</a>
</g>
</g>
<!-- Node20&#45;&gt;Node48 -->
<g id="edge140" class="edge">
<title>Node20&#45;&gt;Node48</title>
<path fill="none" stroke="#191970" d="M2261.1046,-335.4912C2305.905,-326.1934 2379.3638,-311.6316 2443,-299 2445.7931,-298.4456 2448.6424,-297.8799 2451.5255,-297.3083"/>
<polygon fill="#191970" stroke="#191970" points="2452.2944,-300.7241 2461.4253,-295.3504 2450.9362,-293.8572 2452.2944,-300.7241"/>
</g>
<!-- Node49 -->
<g id="node50" class="node">
<title>Node49</title>
<g id="a_node50"><a xlink:href="symbolic__formula_8h.html" target="_top" xlink:title=" ">
<polygon fill="#ffffff" stroke="#000000" points="2979.5,-268.5 2979.5,-298.5 3116.5,-298.5 3116.5,-268.5 2979.5,-268.5"/>
<text text-anchor="start" x="2987.5" y="-286.5" font-family="Helvetica,sans-Serif" font-size="10.00" fill="#000000">drake/common/symbolic</text>
<text text-anchor="middle" x="3048" y="-275.5" font-family="Helvetica,sans-Serif" font-size="10.00" fill="#000000">_formula.h</text>
</a>
</g>
</g>
<!-- Node20&#45;&gt;Node49 -->
<g id="edge143" class="edge">
<title>Node20&#45;&gt;Node49</title>
<path fill="none" stroke="#191970" d="M2293.0639,-341.1091C2418.7084,-334.4305 2683.4544,-319.4987 2907,-299 2927.0499,-297.1615 2948.7674,-294.7755 2969.0427,-292.4288"/>
<polygon fill="#191970" stroke="#191970" points="2969.6539,-295.8814 2979.1807,-291.2457 2968.8424,-288.9286 2969.6539,-295.8814"/>
</g>
<!-- Node51 -->
<g id="node52" class="node">
<title>Node51</title>
<g id="a_node52"><a xlink:href="symbolic__formula__visitor_8h.html" target="_top" xlink:title=" ">
<polygon fill="#ffffff" stroke="#000000" points="1686.5,-268.5 1686.5,-298.5 1823.5,-298.5 1823.5,-268.5 1686.5,-268.5"/>
<text text-anchor="start" x="1694.5" y="-286.5" font-family="Helvetica,sans-Serif" font-size="10.00" fill="#000000">drake/common/symbolic</text>
<text text-anchor="middle" x="1755" y="-275.5" font-family="Helvetica,sans-Serif" font-size="10.00" fill="#000000">_formula_visitor.h</text>
</a>
</g>
</g>
<!-- Node20&#45;&gt;Node51 -->
<g id="edge160" class="edge">
<title>Node20&#45;&gt;Node51</title>
<path fill="none" stroke="#191970" d="M2146.6981,-338.7312C2069.0239,-331.3027 1942.8587,-317.7382 1830.3072,-300.1428"/>
<polygon fill="#191970" stroke="#191970" points="1830.5791,-296.6424 1820.1554,-298.5387 1829.4865,-303.5567 1830.5791,-296.6424"/>
</g>
<!-- Node52 -->
<g id="node53" class="node">
<title>Node52</title>
<g id="a_node53"><a xlink:href="symbolic__simplification_8h.html" target="_top" xlink:title=" ">
<polygon fill="#ffffff" stroke="#000000" points="354.5,-268.5 354.5,-298.5 491.5,-298.5 491.5,-268.5 354.5,-268.5"/>
<text text-anchor="start" x="362.5" y="-286.5" font-family="Helvetica,sans-Serif" font-size="10.00" fill="#000000">drake/common/symbolic</text>
<text text-anchor="middle" x="423" y="-275.5" font-family="Helvetica,sans-Serif" font-size="10.00" fill="#000000">_simplification.h</text>
</a>
</g>
</g>
<!-- Node20&#45;&gt;Node52 -->
<g id="edge164" class="edge">
<title>Node20&#45;&gt;Node52</title>
<path fill="none" stroke="#191970" d="M2146.5528,-344.7326C1863.0291,-343.428 839.3941,-336.223 497.0768,-299.6253"/>
<polygon fill="#191970" stroke="#191970" points="497.2265,-296.1207 486.9037,-298.5061 496.461,-303.0787 497.2265,-296.1207"/>
</g>
<!-- Node53 -->
<g id="node54" class="node">
<title>Node53</title>
<g id="a_node54"><a xlink:href="symbolic__codegen_8h.html" target="_top" xlink:title=" ">
<polygon fill="#ffffff" stroke="#000000" points="3134.5,-268.5 3134.5,-298.5 3271.5,-298.5 3271.5,-268.5 3134.5,-268.5"/>
<text text-anchor="start" x="3142.5" y="-286.5" font-family="Helvetica,sans-Serif" font-size="10.00" fill="#000000">drake/common/symbolic</text>
<text text-anchor="middle" x="3203" y="-275.5" font-family="Helvetica,sans-Serif" font-size="10.00" fill="#000000">_codegen.h</text>
</a>
</g>
</g>
<!-- Node20&#45;&gt;Node53 -->
<g id="edge168" class="edge">
<title>Node20&#45;&gt;Node53</title>
<path fill="none" stroke="#191970" d="M2293.0322,-342.5119C2477.2109,-336.2178 2956.8519,-318.7511 3116,-299 3118.6696,-298.6687 3121.3847,-298.298 3124.1268,-297.8959"/>
<polygon fill="#191970" stroke="#191970" points="3124.8085,-301.3317 3134.1411,-296.3165 3123.7179,-294.4172 3124.8085,-301.3317"/>
</g>
<!-- Node21&#45;&gt;Node1 -->
<g id="edge31" class="edge">
<title>Node21&#45;&gt;Node1</title>
<path fill="none" stroke="#191970" d="M2151.1665,-269.3971C2148.0734,-268.8973 2145.0071,-268.4282 2142,-268 1959.1503,-241.9619 1908.9377,-269.0614 1728,-232 1647.4506,-215.5011 1556.6432,-181.6595 1509.4342,-162.8508"/>
<polygon fill="#191970" stroke="#191970" points="1510.6254,-159.5575 1500.0415,-159.077 1508.0157,-166.0529 1510.6254,-159.5575"/>
</g>
<!-- Node21&#45;&gt;Node2 -->
<g id="edge32" class="edge">
<title>Node21&#45;&gt;Node2</title>
<path fill="none" stroke="#191970" d="M2153.7404,-268.4148C2108.6943,-258.1559 2047.7489,-244.2694 1994,-232 1863.7666,-202.2713 1830.8241,-196.4681 1701,-165 1647.0477,-151.9225 1634.757,-143.1406 1580,-134 1382.5364,-101.0373 1330.2435,-117.5048 1131,-98 1099.1068,-94.8778 1063.0238,-90.6649 1036.342,-87.4193"/>
<polygon fill="#191970" stroke="#191970" points="1036.5966,-83.9244 1026.2453,-86.1828 1035.7456,-90.8725 1036.5966,-83.9244"/>
</g>
<!-- Node21&#45;&gt;Node3 -->
<g id="edge33" class="edge">
<title>Node21&#45;&gt;Node3</title>
<path fill="none" stroke="#191970" d="M2288.8233,-269.518C2291.5835,-268.9978 2294.3171,-268.4899 2297,-268 2395.9428,-249.9336 2512.9734,-231.5157 2572.3171,-222.3845"/>
<polygon fill="#191970" stroke="#191970" points="2573.0127,-225.8188 2582.366,-220.8422 2571.9508,-218.8998 2573.0127,-225.8188"/>
</g>
<!-- Node21&#45;&gt;Node5 -->
<g id="edge34" class="edge">
<title>Node21&#45;&gt;Node5</title>
<path fill="none" stroke="#191970" d="M2216.6539,-268.2691C2212.3749,-250.9694 2203.8187,-222.3736 2190,-201 2177.5429,-181.7324 2161.9252,-186.1367 2153,-165 2147.6404,-152.3074 2143.4938,-143.9729 2153,-134 2189.8613,-95.3288 3019.86,-84.6357 3194.8098,-82.8081"/>
<polygon fill="#191970" stroke="#191970" points="3194.9603,-86.3068 3204.924,-82.7048 3194.8887,-79.3072 3194.9603,-86.3068"/>
</g>
<!-- Node21&#45;&gt;Node9 -->
<g id="edge43" class="edge">
<title>Node21&#45;&gt;Node9</title>
<path fill="none" stroke="#191970" d="M2266.006,-268.4639C2302.2141,-256.63 2352.1001,-240.3258 2386.2816,-229.1543"/>
<polygon fill="#191970" stroke="#191970" points="2387.4988,-232.4388 2395.9167,-226.0053 2385.3241,-225.7851 2387.4988,-232.4388"/>
</g>
<!-- Node21&#45;&gt;Node11 -->
<g id="edge30" class="edge">
<title>Node21&#45;&gt;Node11</title>
<path fill="none" stroke="#191970" d="M2227.1166,-268.4511C2234.072,-251.564 2242.4745,-223.5779 2234,-201 2228.9801,-187.6259 2218.7394,-175.4478 2209.2938,-166.2954"/>
<polygon fill="#191970" stroke="#191970" points="2211.4285,-163.5055 2201.6787,-159.3593 2206.7148,-168.6806 2211.4285,-163.5055"/>
</g>
<!-- Node21&#45;&gt;Node19 -->
<g id="edge36" class="edge">
<title>Node21&#45;&gt;Node19</title>
<path fill="none" stroke="#191970" d="M2160.3888,-268.4551C2123.3431,-258.2136 2080.0075,-244.3315 2065,-232 2028.9065,-202.3423 1996.4319,-169.3258 2027,-134 2063.4398,-91.8886 2221.2691,-112.6363 2275,-98 2333.369,-82.1003 2397.5227,-53.9329 2437.5298,-34.9907"/>
<polygon fill="#191970" stroke="#191970" points="2439.1562,-38.0927 2446.6707,-30.624 2436.1388,-31.7764 2439.1562,-38.0927"/>
</g>
<!-- Node22 -->
<g id="node23" class="node">
<title>Node22</title>
<g id="a_node23"><a xlink:title=" ">
<polygon fill="#ffffff" stroke="#bfbfbf" points="2036.5,-140 2036.5,-159 2105.5,-159 2105.5,-140 2036.5,-140"/>
<text text-anchor="middle" x="2071" y="-147" font-family="Helvetica,sans-Serif" font-size="10.00" fill="#000000">Eigen/Core</text>
</a>
</g>
</g>
<!-- Node21&#45;&gt;Node22 -->
<g id="edge35" class="edge">
<title>Node21&#45;&gt;Node22</title>
<path fill="none" stroke="#191970" d="M2212.2649,-268.252C2202.6317,-250.4122 2184.7611,-220.8005 2163,-201 2145.7064,-185.2645 2122.7659,-172.4102 2104.1191,-163.4795"/>
<polygon fill="#191970" stroke="#191970" points="2105.3574,-160.196 2094.8121,-159.1725 2102.4175,-166.5487 2105.3574,-160.196"/>
</g>
<!-- Node23 -->
<g id="node24" class="node">
<title>Node23</title>
<g id="a_node24"><a xlink:href="eigen__types_8h.html" target="_top" xlink:title="This file contains abbreviated definitions for certain specializations of Eigen::Matrix that are comm...">
<polygon fill="#ffffff" stroke="#000000" points="3003,-201.5 3003,-231.5 3123,-231.5 3123,-201.5 3003,-201.5"/>
<text text-anchor="start" x="3011" y="-219.5" font-family="Helvetica,sans-Serif" font-size="10.00" fill="#000000">drake/common/eigen</text>
<text text-anchor="middle" x="3063" y="-208.5" font-family="Helvetica,sans-Serif" font-size="10.00" fill="#000000">_types.h</text>
</a>
</g>
</g>
<!-- Node21&#45;&gt;Node23 -->
<g id="edge37" class="edge">
<title>Node21&#45;&gt;Node23</title>
<path fill="none" stroke="#191970" d="M2288.7674,-269.1585C2291.543,-268.7378 2294.2952,-268.3489 2297,-268 2571.192,-232.6338 2642.4701,-254.6995 2918,-232 2942.3958,-229.9902 2969.0474,-227.2875 2992.7709,-224.702"/>
<polygon fill="#191970" stroke="#191970" points="2993.1871,-228.1774 3002.7437,-223.6035 2992.4206,-221.2195 2993.1871,-228.1774"/>
</g>
<!-- Node23&#45;&gt;Node6 -->
<g id="edge38" class="edge">
<title>Node23&#45;&gt;Node6</title>
<path fill="none" stroke="#191970" d="M3002.9453,-204.1072C2997.225,-203.0184 2991.5069,-201.9649 2986,-201 2879.3257,-182.3081 2851.8538,-182.6368 2745,-165 2503.473,-125.1348 2446.5013,-92.1326 2203,-67 1609.4939,-5.7422 1454.3951,-93.3236 861,-31 843.984,-29.2128 825.244,-25.8883 809.7901,-22.7751"/>
<polygon fill="#191970" stroke="#191970" points="810.1806,-19.2816 799.6778,-20.675 808.7572,-26.1353 810.1806,-19.2816"/>
</g>
<!-- Node23&#45;&gt;Node7 -->
<g id="edge41" class="edge">
<title>Node23&#45;&gt;Node7</title>
<path fill="none" stroke="#191970" d="M3066.9613,-201.2465C3070.7971,-182.548 3073.7328,-151.2285 3056,-134 3025.5778,-104.443 2415.1966,-88.5564 2204.6629,-83.9397"/>
<polygon fill="#191970" stroke="#191970" points="2204.7188,-80.4402 2194.6451,-83.7219 2204.5666,-87.4385 2204.7188,-80.4402"/>
</g>
<!-- Node23&#45;&gt;Node19 -->
<g id="edge42" class="edge">
<title>Node23&#45;&gt;Node19</title>
<path fill="none" stroke="#191970" d="M3002.9054,-204.3228C2997.1934,-203.1895 2991.4881,-202.0668 2986,-201 2900.7749,-184.4331 2874.7961,-196.777 2794,-165 2770.018,-155.5679 2767.4229,-146.7009 2745,-134 2687.4091,-101.379 2672.5551,-93.7194 2612,-67 2585.0358,-55.1023 2554.3866,-43.2779 2529.1143,-33.9655"/>
<polygon fill="#191970" stroke="#191970" points="2530.3044,-30.6741 2519.7106,-30.5245 2527.8989,-37.2478 2530.3044,-30.6741"/>
</g>
<!-- Node24 -->
<g id="node25" class="node">
<title>Node24</title>
<g id="a_node25"><a xlink:title=" ">
<polygon fill="#ffffff" stroke="#bfbfbf" points="2803.5,-140 2803.5,-159 2880.5,-159 2880.5,-140 2803.5,-140"/>
<text text-anchor="middle" x="2842" y="-147" font-family="Helvetica,sans-Serif" font-size="10.00" fill="#000000">Eigen/Dense</text>
</a>
</g>
</g>
<!-- Node23&#45;&gt;Node24 -->
<g id="edge39" class="edge">
<title>Node23&#45;&gt;Node24</title>
<path fill="none" stroke="#191970" d="M3010.7176,-201.4812C2976.1008,-191.4251 2929.7409,-177.7438 2889,-165 2886.2324,-164.1343 2883.3777,-163.2275 2880.5069,-162.3054"/>
<polygon fill="#191970" stroke="#191970" points="2881.3798,-158.909 2870.7877,-159.1492 2879.2177,-165.5667 2881.3798,-158.909"/>
</g>
<!-- Node25 -->
<g id="node26" class="node">
<title>Node25</title>
<g id="a_node26"><a xlink:href="constants_8h.html" target="_top" xlink:title=" ">
<polygon fill="#ffffff" stroke="#000000" points="2898.5,-140 2898.5,-159 3047.5,-159 3047.5,-140 2898.5,-140"/>
<text text-anchor="middle" x="2973" y="-147" font-family="Helvetica,sans-Serif" font-size="10.00" fill="#000000">drake/common/constants.h</text>
</a>
</g>
</g>
<!-- Node23&#45;&gt;Node25 -->
<g id="edge40" class="edge">
<title>Node23&#45;&gt;Node25</title>
<path fill="none" stroke="#191970" d="M3042.5776,-201.2967C3028.1468,-190.5537 3008.8516,-176.1895 2994.2412,-165.3129"/>
<polygon fill="#191970" stroke="#191970" points="2995.9464,-162.219 2985.835,-159.055 2991.7664,-167.8339 2995.9464,-162.219"/>
</g>
<!-- Node26&#45;&gt;Node1 -->
<g id="edge46" class="edge">
<title>Node26&#45;&gt;Node1</title>
<path fill="none" stroke="#191970" d="M3592.9104,-279.0128C3696.8671,-271.5332 3883.879,-255.0319 3904,-232 3913.0646,-221.624 3913.6684,-210.8158 3904,-201 3857.6019,-153.8948 1589.2006,-175.9802 1524,-165 1519.806,-164.2937 1515.4767,-163.281 1511.2212,-162.1069"/>
<polygon fill="#191970" stroke="#191970" points="1512.1104,-158.7189 1501.524,-159.1423 1510.0638,-165.413 1512.1104,-158.7189"/>
</g>
<!-- Node26&#45;&gt;Node3 -->
<g id="edge48" class="edge">
<title>Node26&#45;&gt;Node3</title>
<path fill="none" stroke="#191970" d="M3455.3814,-279.0208C3406.4894,-275.8587 3339.2116,-271.5671 3280,-268 2999.1649,-251.0817 2922.139,-295.2645 2648,-232 2645.3555,-231.3897 2642.6588,-230.6061 2639.987,-229.716"/>
<polygon fill="#191970" stroke="#191970" points="2641.1494,-226.4137 2630.5579,-226.1458 2638.6706,-232.9601 2641.1494,-226.4137"/>
</g>
<!-- Node26&#45;&gt;Node4 -->
<g id="edge49" class="edge">
<title>Node26&#45;&gt;Node4</title>
<path fill="none" stroke="#191970" d="M3592.5572,-280.6108C3712.4739,-274.8482 3950.0116,-260.0042 3975,-232 3984.1731,-221.7198 3984.1362,-211.313 3975,-201 3948.5078,-171.0953 3666.133,-155.0428 3577.4753,-150.7131"/>
<polygon fill="#191970" stroke="#191970" points="3577.5813,-147.2142 3567.4254,-150.2324 3577.2467,-154.2063 3577.5813,-147.2142"/>
</g>
<!-- Node26&#45;&gt;Node5 -->
<g id="edge50" class="edge">
<title>Node26&#45;&gt;Node5</title>
<path fill="none" stroke="#191970" d="M3592.6986,-280.9112C3716.3099,-275.5421 3965.8517,-261.1836 3992,-232 4001.1941,-221.7386 4000.5468,-211.8065 3992,-201 3945.4824,-142.1836 3398.6229,-95.8536 3259.1927,-84.9427"/>
<polygon fill="#191970" stroke="#191970" points="3259.3819,-81.447 3249.141,-84.1625 3258.8401,-88.426 3259.3819,-81.447"/>
</g>
<!-- Node26&#45;&gt;Node9 -->
<g id="edge52" class="edge">
<title>Node26&#45;&gt;Node9</title>
<path fill="none" stroke="#191970" d="M3455.3879,-278.9105C3406.4989,-275.6967 3339.2221,-271.3887 3280,-268 2965.8845,-250.0264 2886.6822,-256.3946 2573,-232 2548.4341,-230.0895 2521.6303,-227.4512 2497.6658,-224.8925"/>
<polygon fill="#191970" stroke="#191970" points="2497.9021,-221.3978 2487.5839,-223.8032 2497.15,-228.3572 2497.9021,-221.3978"/>
</g>
<!-- Node26&#45;&gt;Node11 -->
<g id="edge45" class="edge">
<title>Node26&#45;&gt;Node11</title>
<path fill="none" stroke="#191970" d="M3592.516,-279.838C3704.0144,-273.1714 3914.6106,-257.3547 3937,-232 3946.1197,-221.6725 3946.6346,-210.8489 3937,-201 3905.2137,-168.5065 2346.3109,-168.6217 2301,-165 2275.7764,-162.9839 2247.5571,-159.0681 2225.7545,-155.6769"/>
<polygon fill="#191970" stroke="#191970" points="2226.0335,-152.1774 2215.6082,-154.065 2224.9351,-159.0907 2226.0335,-152.1774"/>
</g>
<!-- Node26&#45;&gt;Node20 -->
<g id="edge53" class="edge">
<title>Node26&#45;&gt;Node20</title>
<path fill="none" stroke="#191970" d="M3455.3946,-288.7454C3408.5515,-291.9512 3345.1614,-295.9979 3289,-299 2922.039,-318.6159 2483.2716,-335.5948 2303.218,-342.1337"/>
<polygon fill="#191970" stroke="#191970" points="2302.8937,-338.6431 2293.0269,-342.5027 2303.1471,-345.6385 2302.8937,-338.6431"/>
</g>
<!-- Node26&#45;&gt;Node23 -->
<g id="edge51" class="edge">
<title>Node26&#45;&gt;Node23</title>
<path fill="none" stroke="#191970" d="M3455.4814,-273.5418C3368.8661,-260.9534 3220.5471,-239.3973 3133.1604,-226.6968"/>
<polygon fill="#191970" stroke="#191970" points="3133.4741,-223.2057 3123.0746,-225.231 3132.4672,-230.133 3133.4741,-223.2057"/>
</g>
<!-- Node27 -->
<g id="node28" class="node">
<title>Node27</title>
<g id="a_node28"><a xlink:title=" ">
<polygon fill="#ffffff" stroke="#bfbfbf" points="3661.5,-207 3661.5,-226 3744.5,-226 3744.5,-207 3661.5,-207"/>
<text text-anchor="middle" x="3703" y="-214" font-family="Helvetica,sans-Serif" font-size="10.00" fill="#000000">initializer_list</text>
</a>
</g>
</g>
<!-- Node26&#45;&gt;Node27 -->
<g id="edge47" class="edge">
<title>Node26&#45;&gt;Node27</title>
<path fill="none" stroke="#191970" d="M3564.1711,-268.4639C3595.3799,-256.7824 3638.2263,-240.7449 3668.0326,-229.5884"/>
<polygon fill="#191970" stroke="#191970" points="3669.4668,-232.7888 3677.6053,-226.0053 3667.0129,-226.2329 3669.4668,-232.7888"/>
</g>
<!-- Node28&#45;&gt;Node3 -->
<g id="edge56" class="edge">
<title>Node28&#45;&gt;Node3</title>
<path fill="none" stroke="#191970" d="M2774.6908,-268.435C2737.3377,-259.1217 2689.5877,-246.2467 2648,-232 2645.9122,-231.2848 2643.7744,-230.5092 2641.6309,-229.699"/>
<polygon fill="#191970" stroke="#191970" points="2642.9206,-226.4453 2632.3348,-226.0067 2640.3365,-232.951 2642.9206,-226.4453"/>
</g>
<!-- Node28&#45;&gt;Node5 -->
<g id="edge57" class="edge">
<title>Node28&#45;&gt;Node5</title>
<path fill="none" stroke="#191970" d="M2907.7807,-274.3732C3000.4245,-261.828 3154.9566,-239.9109 3165,-232 3206.2676,-199.495 3220.3267,-134.7326 3224.9085,-102.1642"/>
<polygon fill="#191970" stroke="#191970" points="3228.4,-102.4486 3226.1629,-92.0927 3221.4537,-101.5834 3228.4,-102.4486"/>
</g>
<!-- Node28&#45;&gt;Node17 -->
<g id="edge61" class="edge">
<title>Node28&#45;&gt;Node17</title>
<path fill="none" stroke="#191970" d="M2839,-268.2967C2839,-258.7699 2839,-246.3954 2839,-236.1306"/>
<polygon fill="#191970" stroke="#191970" points="2842.5001,-236.0549 2839,-226.055 2835.5001,-236.055 2842.5001,-236.0549"/>
</g>
<!-- Node28&#45;&gt;Node19 -->
<g id="edge59" class="edge">
<title>Node28&#45;&gt;Node19</title>
<path fill="none" stroke="#191970" d="M2907.7039,-273.6814C2992.014,-261.3032 3124.777,-240.6033 3132,-232 3140.859,-221.448 3136.6424,-213.9721 3132,-201 3119.0187,-164.727 3110.0595,-153.7817 3077,-134 2988.1668,-80.8453 2686.5498,-39.9143 2547.8439,-23.4251"/>
<polygon fill="#191970" stroke="#191970" points="2548.0837,-19.9292 2537.7425,-22.2333 2547.2634,-26.881 2548.0837,-19.9292"/>
</g>
<!-- Node28&#45;&gt;Node20 -->
<g id="edge62" class="edge">
<title>Node28&#45;&gt;Node20</title>
<path fill="none" stroke="#191970" d="M2770.3237,-290.7752C2655.8506,-302.4358 2426.6382,-325.2132 2303.1965,-337.1987"/>
<polygon fill="#191970" stroke="#191970" points="2302.6569,-333.7345 2293.0415,-338.1834 2303.3326,-340.7018 2302.6569,-333.7345"/>
</g>
<!-- Node28&#45;&gt;Node23 -->
<g id="edge60" class="edge">
<title>Node28&#45;&gt;Node23</title>
<path fill="none" stroke="#191970" d="M2889.27,-268.4639C2922.8728,-258.4131 2967.2566,-245.1375 3002.7515,-234.5208"/>
<polygon fill="#191970" stroke="#191970" points="3003.9332,-237.8206 3012.5108,-231.6017 3001.9272,-231.1142 3003.9332,-237.8206"/>
</g>
<!-- Node28&#45;&gt;Node27 -->
<g id="edge55" class="edge">
<title>Node28&#45;&gt;Node27</title>
<path fill="none" stroke="#191970" d="M2907.6025,-274.759C2927.6912,-272.3684 2949.7074,-269.9123 2970,-268 3225.1523,-243.9555 3531.2453,-225.9336 3651.1988,-219.2891"/>
<polygon fill="#191970" stroke="#191970" points="3651.4149,-222.7826 3661.207,-218.7373 3651.0295,-215.7932 3651.4149,-222.7826"/>
</g>
<!-- Node29 -->
<g id="node30" class="node">
<title>Node29</title>
<g id="a_node30"><a xlink:title=" ">
<polygon fill="#ffffff" stroke="#bfbfbf" points="2657.5,-207 2657.5,-226 2750.5,-226 2750.5,-207 2657.5,-207"/>
<text text-anchor="middle" x="2704" y="-214" font-family="Helvetica,sans-Serif" font-size="10.00" fill="#000000">unordered_map</text>
</a>
</g>
</g>
<!-- Node28&#45;&gt;Node29 -->
<g id="edge58" class="edge">
<title>Node28&#45;&gt;Node29</title>
<path fill="none" stroke="#191970" d="M2808.7034,-268.4639C2785.848,-257.1209 2754.7171,-241.6707 2732.3506,-230.5703"/>
<polygon fill="#191970" stroke="#191970" points="2733.8647,-227.4144 2723.3512,-226.1039 2730.7527,-233.6847 2733.8647,-227.4144"/>
</g>
<!-- Node30&#45;&gt;Node1 -->
<g id="edge66" class="edge">
<title>Node30&#45;&gt;Node1</title>
<path fill="none" stroke="#191970" d="M1456.9103,-268.4802C1457.0424,-251.8562 1457.9483,-224.3269 1462,-201 1463.8758,-190.2006 1467.1976,-178.445 1470.2392,-168.8954"/>
<polygon fill="#191970" stroke="#191970" points="1473.6225,-169.8131 1473.4623,-159.2195 1466.9813,-167.6009 1473.6225,-169.8131"/>
</g>
<!-- Node30&#45;&gt;Node2 -->
<g id="edge69" class="edge">
<title>Node30&#45;&gt;Node2</title>
<path fill="none" stroke="#191970" d="M1388.4438,-282.7968C1237.0899,-280.5319 884.905,-271.0748 849,-232 817.3572,-197.5636 881.1753,-146.085 895,-134 906.3232,-124.1017 940.0166,-107.8617 965.608,-96.2649"/>
<polygon fill="#191970" stroke="#191970" points="967.265,-99.3577 974.9559,-92.0706 964.3994,-92.9711 967.265,-99.3577"/>
</g>
<!-- Node30&#45;&gt;Node3 -->
<g id="edge70" class="edge">
<title>Node30&#45;&gt;Node3</title>
<path fill="none" stroke="#191970" d="M1525.8379,-278.1812C1569.1952,-274.9474 1626.3497,-270.897 1677,-268 2040.757,-247.1948 2133.089,-264.3669 2496,-232 2521.4644,-229.7289 2549.9418,-225.9006 2572.1877,-222.617"/>
<polygon fill="#191970" stroke="#191970" points="2572.8818,-226.0521 2582.2513,-221.1063 2571.8425,-219.1297 2572.8818,-226.0521"/>
</g>
<!-- Node30&#45;&gt;Node5 -->
<g id="edge72" class="edge">
<title>Node30&#45;&gt;Node5</title>
<path fill="none" stroke="#191970" d="M1447.7755,-268.3297C1430.7752,-238.227 1399.3499,-170.6894 1435,-134 1450.9625,-117.5721 2954.117,-87.7855 3194.6905,-83.1215"/>
<polygon fill="#191970" stroke="#191970" points="3194.9478,-86.6173 3204.8781,-82.9244 3194.8123,-79.6186 3194.9478,-86.6173"/>
</g>
<!-- Node30&#45;&gt;Node6 -->
<g id="edge75" class="edge">
<title>Node30&#45;&gt;Node6</title>
<path fill="none" stroke="#191970" d="M1388.196,-281.7149C1195.4538,-276.3818 662.5722,-259.2287 637,-232 574.7377,-165.7046 699.5066,-68.2592 753.6348,-30.8756"/>
<polygon fill="#191970" stroke="#191970" points="755.6716,-33.7231 761.9735,-25.2063 751.7359,-27.9343 755.6716,-33.7231"/>
</g>
<!-- Node30&#45;&gt;Node7 -->
<g id="edge83" class="edge">
<title>Node30&#45;&gt;Node7</title>
<path fill="none" stroke="#191970" d="M1424.0944,-268.4761C1409.6206,-259.9924 1394.0946,-247.8713 1386,-232 1376.5109,-213.3946 1380.6382,-145.1366 1392,-134 1415.7603,-110.7107 1882.2964,-91.5377 2063.1847,-84.9508"/>
<polygon fill="#191970" stroke="#191970" points="2063.5241,-88.4409 2073.391,-84.5815 2063.271,-81.4455 2063.5241,-88.4409"/>
</g>
<!-- Node30&#45;&gt;Node8 -->
<g id="edge73" class="edge">
<title>Node30&#45;&gt;Node8</title>
<path fill="none" stroke="#191970" d="M1388.3592,-276.9266C1330.125,-269.7625 1253.0762,-255.9837 1234,-232 1198.6146,-187.5112 1179.9737,-146.0769 1278,-67 1312.5055,-39.1647 1610.8964,-22.7723 1725.9866,-17.4366"/>
<polygon fill="#191970" stroke="#191970" points="1726.3861,-20.9221 1736.2159,-16.9692 1726.0665,-13.9294 1726.3861,-20.9221"/>
</g>
<!-- Node30&#45;&gt;Node9 -->
<g id="edge102" class="edge">
<title>Node30&#45;&gt;Node9</title>
<path fill="none" stroke="#191970" d="M1525.8658,-278.6197C1569.2336,-275.5535 1626.3895,-271.5251 1677,-268 1924.7351,-250.7447 2218.6482,-230.6061 2352.3271,-221.4649"/>
<polygon fill="#191970" stroke="#191970" points="2352.7072,-224.9471 2362.4451,-220.773 2352.2296,-217.9634 2352.7072,-224.9471"/>
</g>
<!-- Node30&#45;&gt;Node11 -->
<g id="edge65" class="edge">
<title>Node30&#45;&gt;Node11</title>
<path fill="none" stroke="#191970" d="M1525.6806,-271.7029C1645.3495,-251.0157 1899.7855,-206.447 2114,-165 2126.544,-162.5729 2140.2383,-159.784 2152.4519,-157.2468"/>
<polygon fill="#191970" stroke="#191970" points="2153.2324,-160.6594 2162.3052,-155.1883 2151.8008,-153.8074 2153.2324,-160.6594"/>
</g>
<!-- Node30&#45;&gt;Node13 -->
<g id="edge68" class="edge">
<title>Node30&#45;&gt;Node13</title>
<path fill="none" stroke="#191970" d="M1467.713,-268.389C1485.3364,-243.5307 1520.3676,-194.1184 1539.2433,-167.4937"/>
<polygon fill="#191970" stroke="#191970" points="1542.2627,-169.2863 1545.1911,-159.1042 1536.5522,-165.2378 1542.2627,-169.2863"/>
</g>
<!-- Node30&#45;&gt;Node15 -->
<g id="edge76" class="edge">
<title>Node30&#45;&gt;Node15</title>
<path fill="none" stroke="#191970" d="M1388.309,-278.4672C1278.779,-269.9111 1074.0876,-251.5469 1047,-232 1009.845,-205.1883 988.4148,-171.3173 1015,-134 1028.6228,-114.8779 1090.9077,-98.2556 1130.5118,-89.3709"/>
<polygon fill="#191970" stroke="#191970" points="1131.2714,-92.7876 1140.2916,-87.2301 1129.7744,-85.9495 1131.2714,-92.7876"/>
</g>
<!-- Node30&#45;&gt;Node16 -->
<g id="edge85" class="edge">
<title>Node30&#45;&gt;Node16</title>
<path fill="none" stroke="#191970" d="M1482.4693,-268.4192C1513.007,-250.7401 1566.0789,-221.283 1614,-201 1644.3796,-188.1416 1679.1473,-176.4431 1708.23,-167.4572"/>
<polygon fill="#191970" stroke="#191970" points="1709.3188,-170.7843 1717.8604,-164.516 1707.2741,-164.0896 1709.3188,-170.7843"/>
</g>
<!-- Node30&#45;&gt;Node17 -->
<g id="edge103" class="edge">
<title>Node30&#45;&gt;Node17</title>
<path fill="none" stroke="#191970" d="M1525.8277,-277.9925C1569.181,-274.6866 1626.335,-270.6267 1677,-268 2157.5096,-243.0879 2280.8768,-285.9293 2759,-232 2767.8862,-230.9977 2777.2616,-229.5453 2786.3427,-227.9263"/>
<polygon fill="#191970" stroke="#191970" points="2787.2414,-231.3191 2796.4289,-226.0427 2785.9563,-224.4381 2787.2414,-231.3191"/>
</g>
<!-- Node30&#45;&gt;Node18 -->
<g id="edge71" class="edge">
<title>Node30&#45;&gt;Node18</title>
<path fill="none" stroke="#191970" d="M1504.4944,-268.4176C1532.2326,-259.0531 1567.6399,-246.1325 1598,-232 1623.0886,-220.3214 1625.9599,-210.3668 1652,-201 1676.5377,-192.1736 1841.1455,-166.4955 1916.0314,-155.0814"/>
<polygon fill="#191970" stroke="#191970" points="1916.6186,-158.5324 1925.9787,-153.5687 1915.5662,-151.6119 1916.6186,-158.5324"/>
</g>
<!-- Node30&#45;&gt;Node19 -->
<g id="edge84" class="edge">
<title>Node30&#45;&gt;Node19</title>
<path fill="none" stroke="#191970" d="M1417.949,-268.3629C1402.2799,-260.128 1385.8599,-248.2406 1377,-232 1368.4277,-216.2866 1363.5422,-150.7075 1379,-134 1448.9246,-58.4223 2174.5716,-26.2451 2406.291,-17.8467"/>
<polygon fill="#191970" stroke="#191970" points="2406.4261,-21.3442 2416.2941,-17.4878 2406.175,-14.3487 2406.4261,-21.3442"/>
</g>
<!-- Node30&#45;&gt;Node20 -->
<g id="edge104" class="edge">
<title>Node30&#45;&gt;Node20</title>
<path fill="none" stroke="#191970" d="M1525.6444,-288.7129C1665.9494,-299.7381 1984.8723,-325.43 2136.718,-337.9246"/>
<polygon fill="#191970" stroke="#191970" points="2136.6625,-341.4318 2146.9161,-338.7646 2137.2372,-334.4554 2136.6625,-341.4318"/>
</g>
<!-- Node30&#45;&gt;Node22 -->
<g id="edge77" class="edge">
<title>Node30&#45;&gt;Node22</title>
<path fill="none" stroke="#191970" d="M1525.5011,-268.7753C1560.2754,-260.1444 1602.7251,-247.8077 1639,-232 1663.317,-221.4033 1664.9316,-209.6706 1690,-201 1816.496,-157.2482 1856.7215,-185.4417 1989,-165 2001.1929,-163.1158 2014.3474,-160.77 2026.4746,-158.4782"/>
<polygon fill="#191970" stroke="#191970" points="2027.2155,-161.9 2036.3762,-156.5772 2025.8956,-155.0256 2027.2155,-161.9"/>
</g>
<!-- Node30&#45;&gt;Node23 -->
<g id="edge88" class="edge">
<title>Node30&#45;&gt;Node23</title>
<path fill="none" stroke="#191970" d="M1525.8238,-277.9172C1569.1757,-274.5825 1626.3295,-270.5189 1677,-268 2228.1071,-240.6042 2367.4782,-269.3531 2918,-232 2942.4223,-230.3429 2969.0804,-227.7266 2992.8017,-225.1119"/>
<polygon fill="#191970" stroke="#191970" points="2993.2252,-228.5864 3002.7731,-223.9942 2992.4454,-221.63 2993.2252,-228.5864"/>
</g>
<!-- Node30&#45;&gt;Node29 -->
<g id="edge74" class="edge">
<title>Node30&#45;&gt;Node29</title>
<path fill="none" stroke="#191970" d="M1525.8312,-278.0597C1569.1859,-274.7795 1626.34,-270.723 1677,-268 2108.2296,-244.8214 2221.2284,-298.0472 2648,-232 2653.483,-231.1515 2659.1949,-229.9521 2664.7842,-228.5918"/>
<polygon fill="#191970" stroke="#191970" points="2665.8502,-231.9307 2674.6366,-226.0104 2664.076,-225.1592 2665.8502,-231.9307"/>
</g>
<!-- Node31 -->
<g id="node32" class="node">
<title>Node31</title>
<g id="a_node32"><a xlink:title=" ">
<polygon fill="#ffffff" stroke="#bfbfbf" points="526,-207 526,-226 590,-226 590,-207 526,-207"/>
<text text-anchor="middle" x="558" y="-214" font-family="Helvetica,sans-Serif" font-size="10.00" fill="#000000">algorithm</text>
</a>
</g>
</g>
<!-- Node30&#45;&gt;Node31 -->
<g id="edge64" class="edge">
<title>Node30&#45;&gt;Node31</title>
<path fill="none" stroke="#191970" d="M1388.3019,-281.6949C1213.2465,-276.7197 753.7106,-261.2047 604,-232 600.1099,-231.2411 596.0965,-230.238 592.1365,-229.1058"/>
<polygon fill="#191970" stroke="#191970" points="593.0924,-225.7376 582.5035,-226.0918 591.0021,-232.4183 593.0924,-225.7376"/>
</g>
<!-- Node32 -->
<g id="node33" class="node">
<title>Node32</title>
<g id="a_node33"><a xlink:title=" ">
<polygon fill="#ffffff" stroke="#bfbfbf" points="904,-140 904,-159 948,-159 948,-140 904,-140"/>
<text text-anchor="middle" x="926" y="-147" font-family="Helvetica,sans-Serif" font-size="10.00" fill="#000000">limits</text>
</a>
</g>
</g>
<!-- Node30&#45;&gt;Node32 -->
<g id="edge67" class="edge">
<title>Node30&#45;&gt;Node32</title>
<path fill="none" stroke="#191970" d="M1388.45,-282.6915C1238.9701,-280.2163 894.2036,-270.3656 859,-232 838.2657,-209.4033 872.6986,-181.3718 899.4031,-164.4882"/>
<polygon fill="#191970" stroke="#191970" points="901.3484,-167.4016 908.0723,-159.2138 897.71,-161.4214 901.3484,-167.4016"/>
</g>
<!-- Node33 -->
<g id="node34" class="node">
<title>Node33</title>
<g id="a_node34"><a xlink:title=" ">
<polygon fill="#ffffff" stroke="#bfbfbf" points="2074,-207 2074,-226 2154,-226 2154,-207 2074,-207"/>
<text text-anchor="middle" x="2114" y="-214" font-family="Helvetica,sans-Serif" font-size="10.00" fill="#000000">Eigen/Sparse</text>
</a>
</g>
</g>
<!-- Node30&#45;&gt;Node33 -->
<g id="edge78" class="edge">
<title>Node30&#45;&gt;Node33</title>
<path fill="none" stroke="#191970" d="M1525.7597,-276.488C1658.4784,-262.9535 1947.1303,-233.5172 2063.6848,-221.6311"/>
<polygon fill="#191970" stroke="#191970" points="2064.1655,-225.1003 2073.7588,-220.6037 2063.4552,-218.1364 2064.1655,-225.1003"/>
</g>
<!-- Node34 -->
<g id="node35" class="node">
<title>Node34</title>
<g id="a_node35"><a xlink:href="cond_8h.html" target="_top" xlink:title=" ">
<polygon fill="#ffffff" stroke="#000000" points="1056.5,-207 1056.5,-226 1181.5,-226 1181.5,-207 1056.5,-207"/>
<text text-anchor="middle" x="1119" y="-214" font-family="Helvetica,sans-Serif" font-size="10.00" fill="#000000">drake/common/cond.h</text>
</a>
</g>
</g>
<!-- Node30&#45;&gt;Node34 -->
<g id="edge79" class="edge">
<title>Node30&#45;&gt;Node34</title>
<path fill="none" stroke="#191970" d="M1388.2949,-270.0178C1335.6541,-259.6698 1261.2252,-244.9999 1196,-232 1189.6812,-230.7406 1183.0718,-229.4181 1176.4943,-228.0986"/>
<polygon fill="#191970" stroke="#191970" points="1176.7245,-224.575 1166.231,-226.0373 1175.346,-231.438 1176.7245,-224.575"/>
</g>
<!-- Node36 -->
<g id="node37" class="node">
<title>Node36</title>
<g id="a_node37"><a xlink:href="dummy__value_8h.html" target="_top" xlink:title=" ">
<polygon fill="#ffffff" stroke="#000000" points="868.5,-201.5 868.5,-231.5 999.5,-231.5 999.5,-201.5 868.5,-201.5"/>
<text text-anchor="start" x="876.5" y="-219.5" font-family="Helvetica,sans-Serif" font-size="10.00" fill="#000000">drake/common/dummy</text>
<text text-anchor="middle" x="934" y="-208.5" font-family="Helvetica,sans-Serif" font-size="10.00" fill="#000000">_value.h</text>
</a>
</g>
</g>
<!-- Node30&#45;&gt;Node36 -->
<g id="edge86" class="edge">
<title>Node30&#45;&gt;Node36</title>
<path fill="none" stroke="#191970" d="M1388.482,-277.1574C1301.2453,-268.7099 1145.9912,-252.4289 1014,-232 1012.7024,-231.7992 1011.3938,-231.5925 1010.0766,-231.3808"/>
<polygon fill="#191970" stroke="#191970" points="1010.293,-227.8683 999.8521,-229.6682 1009.1365,-234.7721 1010.293,-227.8683"/>
</g>
<!-- Node37 -->
<g id="node38" class="node">
<title>Node37</title>
<g id="a_node38"><a xlink:href="extract__double_8h.html" target="_top" xlink:title=" ">
<polygon fill="#ffffff" stroke="#000000" points="646,-201.5 646,-231.5 774,-231.5 774,-201.5 646,-201.5"/>
<text text-anchor="start" x="654" y="-219.5" font-family="Helvetica,sans-Serif" font-size="10.00" fill="#000000">drake/common/extract</text>
<text text-anchor="middle" x="710" y="-208.5" font-family="Helvetica,sans-Serif" font-size="10.00" fill="#000000">_double.h</text>
</a>
</g>
</g>
<!-- Node30&#45;&gt;Node37 -->
<g id="edge89" class="edge">
<title>Node30&#45;&gt;Node37</title>
<path fill="none" stroke="#191970" d="M1388.3342,-280.9199C1266.8154,-275.7519 1006.1173,-261.9584 788,-232 786.7305,-231.8256 785.4505,-231.6435 784.1625,-231.4545"/>
<polygon fill="#191970" stroke="#191970" points="784.5931,-227.9793 774.1707,-229.8824 783.5051,-234.8942 784.5931,-227.9793"/>
</g>
<!-- Node34&#45;&gt;Node1 -->
<g id="edge80" class="edge">
<title>Node34&#45;&gt;Node1</title>
<path fill="none" stroke="#191970" d="M1169.9125,-206.9717C1240.826,-193.7002 1368.062,-169.8878 1434.2961,-157.4921"/>
<polygon fill="#191970" stroke="#191970" points="1435.1991,-160.8839 1444.3846,-155.604 1433.9114,-154.0034 1435.1991,-160.8839"/>
</g>
<!-- Node34&#45;&gt;Node8 -->
<g id="edge81" class="edge">
<title>Node34&#45;&gt;Node8</title>
<path fill="none" stroke="#191970" d="M1126.7087,-206.5514C1152.1228,-173.8097 1232.0971,-71.2512 1240,-67 1282.3601,-44.2133 1605.6093,-24.497 1726.0024,-17.872"/>
<polygon fill="#191970" stroke="#191970" points="1726.5412,-21.3479 1736.3356,-17.3082 1726.1597,-14.3583 1726.5412,-21.3479"/>
</g>
<!-- Node35 -->
<g id="node36" class="node">
<title>Node35</title>
<g id="a_node36"><a xlink:href="double__overloads_8h.html" target="_top" xlink:title="Provides necessary operations on double to have it as a ScalarType in drake.">
<polygon fill="#ffffff" stroke="#000000" points="1024,-134.5 1024,-164.5 1150,-164.5 1150,-134.5 1024,-134.5"/>
<text text-anchor="start" x="1032" y="-152.5" font-family="Helvetica,sans-Serif" font-size="10.00" fill="#000000">drake/common/double</text>
<text text-anchor="middle" x="1087" y="-141.5" font-family="Helvetica,sans-Serif" font-size="10.00" fill="#000000">_overloads.h</text>
</a>
</g>
</g>
<!-- Node34&#45;&gt;Node35 -->
<g id="edge82" class="edge">
<title>Node34&#45;&gt;Node35</title>
<path fill="none" stroke="#191970" d="M1114.4152,-206.9005C1110.2837,-198.2503 1104.0335,-185.164 1098.5438,-173.6699"/>
<polygon fill="#191970" stroke="#191970" points="1101.6427,-172.0369 1094.1746,-164.5218 1095.3261,-175.0538 1101.6427,-172.0369"/>
</g>
<!-- Node36&#45;&gt;Node32 -->
<g id="edge87" class="edge">
<title>Node36&#45;&gt;Node32</title>
<path fill="none" stroke="#191970" d="M932.1847,-201.2967C931.0472,-191.7699 929.5696,-179.3954 928.344,-169.1306"/>
<polygon fill="#191970" stroke="#191970" points="931.8019,-168.5694 927.1409,-159.055 924.8513,-169.3994 931.8019,-168.5694"/>
</g>
<!-- Node38 -->
<g id="node39" class="node">
<title>Node38</title>
<g id="a_node39"><a xlink:title=" ">
<polygon fill="#ffffff" stroke="#bfbfbf" points="487.5,-140 487.5,-159 552.5,-159 552.5,-140 487.5,-140"/>
<text text-anchor="middle" x="520" y="-147" font-family="Helvetica,sans-Serif" font-size="10.00" fill="#000000">stdexcept</text>
</a>
</g>
</g>
<!-- Node37&#45;&gt;Node38 -->
<g id="edge90" class="edge">
<title>Node37&#45;&gt;Node38</title>
<path fill="none" stroke="#191970" d="M667.3603,-201.4639C634.0896,-189.7316 588.3585,-173.6054 556.7044,-162.4431"/>
<polygon fill="#191970" stroke="#191970" points="557.5501,-159.0302 546.9553,-159.0053 555.2221,-165.6317 557.5501,-159.0302"/>
</g>
<!-- Node39 -->
<g id="node40" class="node">
<title>Node39</title>
<g id="a_node40"><a xlink:href="nice__type__name_8h.html" target="_top" xlink:title=" ">
<polygon fill="#ffffff" stroke="#000000" points="692,-134.5 692,-164.5 832,-164.5 832,-134.5 692,-134.5"/>
<text text-anchor="start" x="700" y="-152.5" font-family="Helvetica,sans-Serif" font-size="10.00" fill="#000000">drake/common/nice_type</text>
<text text-anchor="middle" x="762" y="-141.5" font-family="Helvetica,sans-Serif" font-size="10.00" fill="#000000">_name.h</text>
</a>
</g>
</g>
<!-- Node37&#45;&gt;Node39 -->
<g id="edge91" class="edge">
<title>Node37&#45;&gt;Node39</title>
<path fill="none" stroke="#191970" d="M721.7996,-201.2967C728.3816,-192.816 736.7152,-182.0785 744.0859,-172.5817"/>
<polygon fill="#191970" stroke="#191970" points="746.8808,-174.689 750.2471,-164.6432 741.3509,-170.3971 746.8808,-174.689"/>
</g>
<!-- Node39&#45;&gt;Node2 -->
<g id="edge92" class="edge">
<title>Node39&#45;&gt;Node2</title>
<path fill="none" stroke="#191970" d="M827.4655,-134.4078C865.8356,-125.04 915.0514,-112.1194 958,-98 960.137,-97.2975 962.3259,-96.5389 964.5229,-95.7481"/>
<polygon fill="#191970" stroke="#191970" points="965.9503,-98.9505 974.0728,-92.148 963.481,-92.4005 965.9503,-98.9505"/>
</g>
<!-- Node39&#45;&gt;Node5 -->
<g id="edge93" class="edge">
<title>Node39&#45;&gt;Node5</title>
<path fill="none" stroke="#191970" d="M832.2899,-140.059C852.4984,-137.684 874.5918,-135.4114 895,-134 1134.4564,-117.4394 2930.563,-87.3811 3194.6222,-83.0305"/>
<polygon fill="#191970" stroke="#191970" points="3194.7705,-86.5286 3204.7116,-82.8645 3194.6553,-79.5296 3194.7705,-86.5286"/>
</g>
<!-- Node39&#45;&gt;Node6 -->
<g id="edge95" class="edge">
<title>Node39&#45;&gt;Node6</title>
<path fill="none" stroke="#191970" d="M754.2162,-134.4372C746.6437,-117.7755 737.2007,-90.2135 744,-67 747.574,-54.798 755.0237,-42.7442 761.9418,-33.3692"/>
<polygon fill="#191970" stroke="#191970" points="764.8621,-35.3167 768.268,-25.2842 759.3491,-31.003 764.8621,-35.3167"/>
</g>
<!-- Node39&#45;&gt;Node15 -->
<g id="edge96" class="edge">
<title>Node39&#45;&gt;Node15</title>
<path fill="none" stroke="#191970" d="M832.0231,-137.8295C919.1768,-123.3039 1064.5211,-99.0798 1130.0861,-88.1523"/>
<polygon fill="#191970" stroke="#191970" points="1130.982,-91.5514 1140.2705,-86.4549 1129.8312,-84.6466 1130.982,-91.5514"/>
</g>
<!-- Node40 -->
<g id="node41" class="node">
<title>Node40</title>
<g id="a_node41"><a xlink:title=" ">
<polygon fill="#ffffff" stroke="#bfbfbf" points="753.5,-73 753.5,-92 810.5,-92 810.5,-73 753.5,-73"/>
<text text-anchor="middle" x="782" y="-80" font-family="Helvetica,sans-Serif" font-size="10.00" fill="#000000">typeinfo</text>
</a>
</g>
</g>
<!-- Node39&#45;&gt;Node40 -->
<g id="edge94" class="edge">
<title>Node39&#45;&gt;Node40</title>
<path fill="none" stroke="#191970" d="M766.5383,-134.2967C769.4124,-124.6685 773.1547,-112.1318 776.2377,-101.8038"/>
<polygon fill="#191970" stroke="#191970" points="779.6411,-102.6383 779.1478,-92.055 772.9336,-100.636 779.6411,-102.6383"/>
</g>
<!-- Node41 -->
<g id="node42" class="node">
<title>Node41</title>
<g id="a_node42"><a xlink:href="never__destroyed_8h.html" target="_top" xlink:title=" ">
<polygon fill="#ffffff" stroke="#000000" points="828.5,-67.5 828.5,-97.5 949.5,-97.5 949.5,-67.5 828.5,-67.5"/>
<text text-anchor="start" x="836.5" y="-85.5" font-family="Helvetica,sans-Serif" font-size="10.00" fill="#000000">drake/common/never</text>
<text text-anchor="middle" x="889" y="-74.5" font-family="Helvetica,sans-Serif" font-size="10.00" fill="#000000">_destroyed.h</text>
</a>
</g>
</g>
<!-- Node39&#45;&gt;Node41 -->
<g id="edge97" class="edge">
<title>Node39&#45;&gt;Node41</title>
<path fill="none" stroke="#191970" d="M790.5013,-134.4639C808.4313,-125.0047 831.7753,-112.6894 851.237,-102.4222"/>
<polygon fill="#191970" stroke="#191970" points="852.9429,-105.4795 860.1544,-97.7177 849.6766,-99.2882 852.9429,-105.4795"/>
</g>
<!-- Node41&#45;&gt;Node6 -->
<g id="edge100" class="edge">
<title>Node41&#45;&gt;Node6</title>
<path fill="none" stroke="#191970" d="M863.865,-67.4639C845.3268,-56.3741 820.226,-41.3584 801.7738,-30.32"/>
<polygon fill="#191970" stroke="#191970" points="803.4328,-27.2341 793.0543,-25.1039 799.8392,-33.2412 803.4328,-27.2341"/>
</g>
<!-- Node41&#45;&gt;Node8 -->
<g id="edge99" class="edge">
<title>Node41&#45;&gt;Node8</title>
<path fill="none" stroke="#191970" d="M949.6016,-68.48C952.7721,-67.9349 955.9189,-67.4362 959,-67 1249.4866,-25.8787 1603.105,-17.5831 1726.2084,-15.9166"/>
<polygon fill="#191970" stroke="#191970" points="1726.4228,-19.4143 1736.3774,-15.7871 1726.3337,-12.4148 1726.4228,-19.4143"/>
</g>
<!-- Node41&#45;&gt;Node19 -->
<g id="edge101" class="edge">
<title>Node41&#45;&gt;Node19</title>
<path fill="none" stroke="#191970" d="M949.5868,-68.3691C952.7611,-67.8531 955.9128,-67.3908 959,-67 1103.3071,-48.7332 2126.5536,-23.6965 2406.4076,-17.13"/>
<polygon fill="#191970" stroke="#191970" points="2406.5238,-20.6283 2416.4391,-16.8951 2406.3599,-13.6303 2406.5238,-20.6283"/>
</g>
<!-- Node42 -->
<g id="node43" class="node">
<title>Node42</title>
<g id="a_node43"><a xlink:title=" ">
<polygon fill="#ffffff" stroke="#bfbfbf" points="870.5,-6 870.5,-25 907.5,-25 907.5,-6 870.5,-6"/>
<text text-anchor="middle" x="889" y="-13" font-family="Helvetica,sans-Serif" font-size="10.00" fill="#000000">new</text>
</a>
</g>
</g>
<!-- Node41&#45;&gt;Node42 -->
<g id="edge98" class="edge">
<title>Node41&#45;&gt;Node42</title>
<path fill="none" stroke="#191970" d="M889,-67.2967C889,-57.7699 889,-45.3954 889,-35.1306"/>
<polygon fill="#191970" stroke="#191970" points="892.5001,-35.0549 889,-25.055 885.5001,-35.055 892.5001,-35.0549"/>
</g>
<!-- Node43&#45;&gt;Node6 -->
<g id="edge107" class="edge">
<title>Node43&#45;&gt;Node6</title>
<path fill="none" stroke="#191970" d="M183.6565,-201.3492C206.6408,-170.027 264.3057,-98.4497 332,-67 405.5383,-32.8353 654.5261,-20.1586 744.3491,-16.6317"/>
<polygon fill="#191970" stroke="#191970" points="744.6318,-20.1236 754.4916,-16.2461 744.3658,-13.1286 744.6318,-20.1236"/>
</g>
<!-- Node43&#45;&gt;Node7 -->
<g id="edge108" class="edge">
<title>Node43&#45;&gt;Node7</title>
<path fill="none" stroke="#191970" d="M241.6146,-203.4831C286.534,-194.3049 346.2759,-180.85 398,-165 434.4583,-153.8279 440.6314,-141.59 478,-134 634.5271,-102.2074 1766.075,-86.8147 2062.8729,-83.2969"/>
<polygon fill="#191970" stroke="#191970" points="2063.1177,-86.7944 2073.0758,-83.1768 2063.0353,-79.7949 2063.1177,-86.7944"/>
</g>
<!-- Node43&#45;&gt;Node20 -->
<g id="edge109" class="edge">
<title>Node43&#45;&gt;Node20</title>
<path fill="none" stroke="#191970" d="M202.3642,-231.6437C237.2816,-251.4921 297.3256,-285.3779 354,-299 441.8073,-320.1051 1785.8414,-339.1803 2136.7498,-343.8908"/>
<polygon fill="#191970" stroke="#191970" points="2136.7937,-347.3916 2146.8397,-344.026 2136.8876,-340.3922 2136.7937,-347.3916"/>
</g>
<!-- Node43&#45;&gt;Node38 -->
<g id="edge106" class="edge">
<title>Node43&#45;&gt;Node38</title>
<path fill="none" stroke="#191970" d="M241.8378,-203.6186C246.6301,-202.7299 251.3868,-201.8501 256,-201 343.9616,-184.7903 366.4349,-183.2304 454,-165 461.5314,-163.432 469.5191,-161.6543 477.2394,-159.8763"/>
<polygon fill="#191970" stroke="#191970" points="478.2315,-163.2388 487.1734,-157.5561 476.6394,-156.4223 478.2315,-163.2388"/>
</g>
<!-- Node44&#45;&gt;Node22 -->
<g id="edge111" class="edge">
<title>Node44&#45;&gt;Node22</title>
<path fill="none" stroke="#191970" d="M2064.4725,-268.2793C2064.0215,-251.7128 2063.6386,-224.4501 2065,-201 2065.6075,-190.5366 2066.9036,-178.9374 2068.1362,-169.4002"/>
<polygon fill="#191970" stroke="#191970" points="2071.6243,-169.7247 2069.5091,-159.3432 2064.6886,-168.7779 2071.6243,-169.7247"/>
</g>
<!-- Node45&#45;&gt;Node3 -->
<g id="edge115" class="edge">
<title>Node45&#45;&gt;Node3</title>
<path fill="none" stroke="#191970" d="M1978.7732,-269.2023C1981.5472,-268.7695 1984.2974,-268.3661 1987,-268 2211.7352,-237.5605 2270.3982,-255.1582 2496,-232 2521.4319,-229.3894 2549.909,-225.5582 2572.1628,-222.358"/>
<polygon fill="#191970" stroke="#191970" points="2572.8393,-225.7965 2582.2308,-220.8924 2571.8309,-218.8695 2572.8393,-225.7965"/>
</g>
<!-- Node45&#45;&gt;Node6 -->
<g id="edge116" class="edge">
<title>Node45&#45;&gt;Node6</title>
<path fill="none" stroke="#191970" d="M1841.1201,-269.6833C1838.0396,-269.1061 1834.9886,-268.5424 1832,-268 1734.946,-250.3848 1709.5457,-252.2164 1613,-232 1377.2981,-182.6448 1310.7698,-189.4599 1088,-98 1062.7557,-87.6358 1060.5095,-76.6932 1035,-67 1024.4626,-62.9959 876.7176,-34.5353 809.6728,-21.7235"/>
<polygon fill="#191970" stroke="#191970" points="810.1177,-18.2453 799.6387,-19.8078 808.8049,-25.1211 810.1177,-18.2453"/>
</g>
<!-- Node45&#45;&gt;Node9 -->
<g id="edge119" class="edge">
<title>Node45&#45;&gt;Node9</title>
<path fill="none" stroke="#191970" d="M1978.7967,-269.362C1981.5642,-268.885 1984.3067,-268.4287 1987,-268 2115.0116,-247.6247 2265.2654,-231.6755 2352.3586,-223.2092"/>
<polygon fill="#191970" stroke="#191970" points="2352.7843,-226.6844 2362.4014,-222.2389 2352.1111,-219.7169 2352.7843,-226.6844"/>
</g>
<!-- Node45&#45;&gt;Node11 -->
<g id="edge113" class="edge">
<title>Node45&#45;&gt;Node11</title>
<path fill="none" stroke="#191970" d="M1937.5677,-268.4184C1975.1154,-247.9481 2040.4693,-212.59 2065,-201 2094.7707,-186.9342 2129.4391,-172.7118 2154.5372,-162.7877"/>
<polygon fill="#191970" stroke="#191970" points="2155.9646,-165.9874 2163.9923,-159.0732 2153.405,-159.4721 2155.9646,-165.9874"/>
</g>
<!-- Node45&#45;&gt;Node13 -->
<g id="edge114" class="edge">
<title>Node45&#45;&gt;Node13</title>
<path fill="none" stroke="#191970" d="M1867.0535,-268.4502C1838.3736,-258.3239 1799.8485,-244.5752 1766,-232 1699.2769,-207.2115 1621.3906,-176.8148 1580.4655,-160.729"/>
<polygon fill="#191970" stroke="#191970" points="1581.7103,-157.4576 1571.1232,-157.0531 1579.1473,-163.9715 1581.7103,-157.4576"/>
</g>
<!-- Node45&#45;&gt;Node19 -->
<g id="edge118" class="edge">
<title>Node45&#45;&gt;Node19</title>
<path fill="none" stroke="#191970" d="M1905.1443,-268.4174C1896.547,-238.4724 1882.6048,-171.2043 1917,-134 1960.4846,-86.9639 2141.194,-114.8322 2203,-98 2236.6157,-88.8451 2242.0185,-78.227 2275,-67 2317.7723,-52.4402 2366.8672,-39.8333 2405.9458,-30.7372"/>
<polygon fill="#191970" stroke="#191970" points="2407.2104,-34.0377 2416.1706,-28.3839 2405.6403,-27.2161 2407.2104,-34.0377"/>
</g>
<!-- Node45&#45;&gt;Node20 -->
<g id="edge120" class="edge">
<title>Node45&#45;&gt;Node20</title>
<path fill="none" stroke="#191970" d="M1978.6479,-295.5379C1984.537,-296.7107 1990.3833,-297.8803 1996,-299 2055.2094,-310.804 2122.9135,-324.154 2168.3399,-333.4197"/>
<polygon fill="#191970" stroke="#191970" points="2167.7523,-336.8719 2178.2512,-335.4495 2169.1568,-330.0142 2167.7523,-336.8719"/>
</g>
<!-- Node45&#45;&gt;Node22 -->
<g id="edge117" class="edge">
<title>Node45&#45;&gt;Node22</title>
<path fill="none" stroke="#191970" d="M1928.1558,-268.389C1958.6749,-242.988 2019.9979,-191.9489 2051.4363,-165.7828"/>
<polygon fill="#191970" stroke="#191970" points="2054.0135,-168.1915 2059.4607,-159.1042 2049.5355,-162.8112 2054.0135,-168.1915"/>
</g>
<!-- Node46&#45;&gt;Node1 -->
<g id="edge123" class="edge">
<title>Node46&#45;&gt;Node1</title>
<path fill="none" stroke="#191970" d="M2306.167,-269.3932C2303.0738,-268.8945 2300.0073,-268.4267 2297,-268 2111.9449,-241.7451 2063.1728,-257.4117 1878,-232 1798.6802,-221.1147 1601.5184,-185.0254 1524,-165 1520.6542,-164.1357 1517.1997,-163.1604 1513.7532,-162.1303"/>
<polygon fill="#191970" stroke="#191970" points="1514.7469,-158.774 1504.158,-159.1289 1512.6571,-165.4547 1514.7469,-158.774"/>
</g>
<!-- Node46&#45;&gt;Node4 -->
<g id="edge125" class="edge">
<title>Node46&#45;&gt;Node4</title>
<path fill="none" stroke="#191970" d="M2434.1052,-268.4564C2463.753,-259.7769 2499.7041,-247.4927 2530,-232 2550.9761,-221.2733 2550.7781,-208.8263 2573,-201 2619.1546,-184.7449 3373.3576,-156.072 3524.6836,-150.4658"/>
<polygon fill="#191970" stroke="#191970" points="3525.0273,-153.9556 3534.8912,-150.0888 3524.7688,-146.9603 3525.0273,-153.9556"/>
</g>
<!-- Node46&#45;&gt;Node7 -->
<g id="edge128" class="edge">
<title>Node46&#45;&gt;Node7</title>
<path fill="none" stroke="#191970" d="M2429.3216,-268.4757C2451.7464,-260.3316 2476.9015,-248.4829 2496,-232 2531.7429,-201.1523 2568.1975,-169.438 2537,-134 2515.4471,-109.5176 2314.6373,-93.5274 2204.8709,-86.5393"/>
<polygon fill="#191970" stroke="#191970" points="2205.0648,-83.0446 2194.8651,-85.9111 2204.6261,-90.0309 2205.0648,-83.0446"/>
</g>
<!-- Node46&#45;&gt;Node9 -->
<g id="edge129" class="edge">
<title>Node46&#45;&gt;Node9</title>
<path fill="none" stroke="#191970" d="M2386.3458,-268.2967C2393.9091,-258.1618 2403.8776,-244.804 2411.7969,-234.1921"/>
<polygon fill="#191970" stroke="#191970" points="2414.6936,-236.1626 2417.8694,-226.055 2409.0835,-231.976 2414.6936,-236.1626"/>
</g>
<!-- Node46&#45;&gt;Node11 -->
<g id="edge122" class="edge">
<title>Node46&#45;&gt;Node11</title>
<path fill="none" stroke="#191970" d="M2366.2581,-268.2C2355.2065,-250.0337 2334.622,-219.8323 2310,-201 2302.6346,-195.3665 2255.8857,-176.142 2222.7069,-162.8456"/>
<polygon fill="#191970" stroke="#191970" points="2223.9139,-159.5589 2213.329,-159.1001 2221.3175,-166.0596 2223.9139,-159.5589"/>
</g>
<!-- Node46&#45;&gt;Node13 -->
<g id="edge124" class="edge">
<title>Node46&#45;&gt;Node13</title>
<path fill="none" stroke="#191970" d="M2306.1262,-269.6497C2303.044,-269.0815 2299.991,-268.529 2297,-268 2194.2496,-249.8272 2168.0666,-248.2839 2065,-232 1880.7607,-202.8912 1659.4652,-166.9825 1581.1727,-154.2492"/>
<polygon fill="#191970" stroke="#191970" points="1581.5254,-150.7607 1571.0931,-152.6094 1580.4013,-157.6698 1581.5254,-150.7607"/>
</g>
<!-- Node46&#45;&gt;Node20 -->
<g id="edge130" class="edge">
<title>Node46&#45;&gt;Node20</title>
<path fill="none" stroke="#191970" d="M2342.9798,-298.5446C2318.5132,-308.7338 2284.8259,-322.0678 2258.8318,-331.8356"/>
<polygon fill="#191970" stroke="#191970" points="2257.4321,-328.6219 2249.2813,-335.3906 2259.874,-335.1822 2257.4321,-328.6219"/>
</g>
<!-- Node46&#45;&gt;Node22 -->
<g id="edge127" class="edge">
<title>Node46&#45;&gt;Node22</title>
<path fill="none" stroke="#191970" d="M2341.6284,-268.4851C2304.621,-251.8654 2243.1245,-224.3399 2190,-201 2160.4737,-188.0278 2126.7269,-173.4462 2102.7301,-163.1191"/>
<polygon fill="#191970" stroke="#191970" points="2103.9725,-159.8435 2093.4032,-159.1081 2101.2071,-166.2741 2103.9725,-159.8435"/>
</g>
<!-- Node46&#45;&gt;Node29 -->
<g id="edge126" class="edge">
<title>Node46&#45;&gt;Node29</title>
<path fill="none" stroke="#191970" d="M2443.8356,-269.5832C2446.5923,-269.045 2449.3219,-268.5155 2452,-268 2538.972,-251.2604 2561.6807,-251.8324 2648,-232 2652.4334,-230.9814 2657.0426,-229.8407 2661.6279,-228.6525"/>
<polygon fill="#191970" stroke="#191970" points="2662.7912,-231.9647 2671.5507,-226.0046 2660.9863,-225.2013 2662.7912,-231.9647"/>
</g>
<!-- Node47&#45;&gt;Node1 -->
<g id="edge133" class="edge">
<title>Node47&#45;&gt;Node1</title>
<path fill="none" stroke="#191970" d="M516.3272,-268.4511C469.5316,-254.2658 417.6879,-230.7616 446,-201 447.0838,-199.8607 1239.9818,-161.0734 1434.3661,-151.5807"/>
<polygon fill="#191970" stroke="#191970" points="1434.6615,-155.0705 1444.4789,-151.0869 1434.3201,-148.0789 1434.6615,-155.0705"/>
</g>
<!-- Node47&#45;&gt;Node3 -->
<g id="edge135" class="edge">
<title>Node47&#45;&gt;Node3</title>
<path fill="none" stroke="#191970" d="M646.5449,-282.096C966.9238,-275.4748 2309.0776,-247.0629 2496,-232 2521.4829,-229.9465 2549.9605,-226.1201 2572.2018,-222.783"/>
<polygon fill="#191970" stroke="#191970" points="2572.9075,-226.2159 2582.263,-221.2434 2571.8486,-219.2964 2572.9075,-226.2159"/>
</g>
<!-- Node47&#45;&gt;Node6 -->
<g id="edge136" class="edge">
<title>Node47&#45;&gt;Node6</title>
<path fill="none" stroke="#191970" d="M509.344,-268.6166C450.4869,-255.5298 374.4637,-237.7037 370,-232 361.5087,-221.1499 363.3009,-213.0395 370,-201 447.4067,-61.8869 661.8573,-26.6191 744.209,-18.0891"/>
<polygon fill="#191970" stroke="#191970" points="744.6386,-21.5639 754.2541,-17.115 743.9629,-14.5966 744.6386,-21.5639"/>
</g>
<!-- Node47&#45;&gt;Node13 -->
<g id="edge134" class="edge">
<title>Node47&#45;&gt;Node13</title>
<path fill="none" stroke="#191970" d="M539.0713,-268.3855C503.4252,-252.456 459.639,-226.2239 484,-201 523.9306,-159.655 1462.0511,-178.175 1518,-165 1520.3443,-164.448 1522.7236,-163.7301 1525.0786,-162.906"/>
<polygon fill="#191970" stroke="#191970" points="1526.5334,-166.0927 1534.47,-159.074 1523.8888,-159.6114 1526.5334,-166.0927"/>
</g>
<!-- Node47&#45;&gt;Node19 -->
<g id="edge138" class="edge">
<title>Node47&#45;&gt;Node19</title>
<path fill="none" stroke="#191970" d="M509.0079,-270.0019C460.4325,-257.2753 408.2857,-235.0166 434,-201 469.3785,-154.199 506.6029,-186.9757 561,-165 646.5446,-130.4412 654.8556,-90.7795 744,-67 784.796,-56.1176 2086.0799,-24.7326 2406.3293,-17.1592"/>
<polygon fill="#191970" stroke="#191970" points="2406.4975,-20.6563 2416.412,-16.9209 2406.3321,-13.6582 2406.4975,-20.6563"/>
</g>
<!-- Node47&#45;&gt;Node20 -->
<g id="edge139" class="edge">
<title>Node47&#45;&gt;Node20</title>
<path fill="none" stroke="#191970" d="M646.7774,-285.9687C909.648,-295.6251 1850.007,-330.8409 2136.5588,-341.7535"/>
<polygon fill="#191970" stroke="#191970" points="2136.7542,-345.2634 2146.8803,-342.1469 2137.0208,-338.2685 2136.7542,-345.2634"/>
</g>
<!-- Node47&#45;&gt;Node22 -->
<g id="edge137" class="edge">
<title>Node47&#45;&gt;Node22</title>
<path fill="none" stroke="#191970" d="M553.4748,-268.2389C528.5129,-250.9115 496.224,-222.2903 517,-201 545.5657,-171.7271 1948.3269,-169.3126 1989,-165 2001.2688,-163.6991 2014.4488,-161.5486 2026.5761,-159.2577"/>
<polygon fill="#191970" stroke="#191970" points="2027.3334,-162.6759 2036.4724,-157.3158 2025.9855,-155.8069 2027.3334,-162.6759"/>
</g>
<!-- Node47&#45;&gt;Node31 -->
<g id="edge132" class="edge">
<title>Node47&#45;&gt;Node31</title>
<path fill="none" stroke="#191970" d="M573.4617,-268.2967C570.5876,-258.6685 566.8453,-246.1318 563.7623,-235.8038"/>
<polygon fill="#191970" stroke="#191970" points="567.0664,-234.636 560.8522,-226.055 560.3589,-236.6383 567.0664,-234.636"/>
</g>
<!-- Node48&#45;&gt;Node3 -->
<g id="edge141" class="edge">
<title>Node48&#45;&gt;Node3</title>
<path fill="none" stroke="#191970" d="M2548.3802,-268.2967C2561.2454,-257.6551 2578.4063,-243.4602 2591.5096,-232.6217"/>
<polygon fill="#191970" stroke="#191970" points="2593.9737,-235.1257 2599.4485,-226.055 2589.5121,-229.7318 2593.9737,-235.1257"/>
</g>
<!-- Node48&#45;&gt;Node20 -->
<g id="edge142" class="edge">
<title>Node48&#45;&gt;Node20</title>
<path fill="none" stroke="#191970" d="M2463.4511,-298.5134C2462.6298,-298.6765 2461.8125,-298.8387 2461,-299 2401.5896,-310.7928 2333.6179,-324.2679 2284.9541,-333.5714"/>
<polygon fill="#191970" stroke="#191970" points="2284.0415,-330.1822 2274.8728,-335.4912 2285.351,-337.0586 2284.0415,-330.1822"/>
</g>
<!-- Node49&#45;&gt;Node1 -->
<g id="edge144" class="edge">
<title>Node49&#45;&gt;Node1</title>
<path fill="none" stroke="#191970" d="M3014.3853,-268.4019C2995.097,-259.0776 2970.847,-246.2026 2951,-232 2934.6354,-220.2894 2936.6121,-208.6504 2918,-201 2774.6934,-142.095 1676.6493,-191.5472 1524,-165 1519.8099,-164.2713 1515.4829,-163.2449 1511.2287,-162.0631"/>
<polygon fill="#191970" stroke="#191970" points="1512.1195,-158.6755 1501.5328,-159.0908 1510.0678,-165.3681 1512.1195,-158.6755"/>
</g>
<!-- Node49&#45;&gt;Node2 -->
<g id="edge145" class="edge">
<title>Node49&#45;&gt;Node2</title>
<path fill="none" stroke="#191970" d="M3116.8083,-269.4325C3119.5726,-268.936 3122.3112,-268.4563 3125,-268 3242.6483,-248.033 3460.4925,-293.4158 3385,-201 3290.5963,-85.4336 3204.3249,-150.3518 3056,-134 2630.7239,-87.1163 1557.8946,-126.6146 1131,-98 1099.0261,-95.8568 1062.9486,-91.5763 1036.2895,-88.0557"/>
<polygon fill="#191970" stroke="#191970" points="1036.5796,-84.5633 1026.2026,-86.7006 1035.6475,-91.5009 1036.5796,-84.5633"/>
</g>
<!-- Node49&#45;&gt;Node3 -->
<g id="edge146" class="edge">
<title>Node49&#45;&gt;Node3</title>
<path fill="none" stroke="#191970" d="M2979.4913,-275.164C2869.4037,-261.6998 2663.7854,-236.2395 2648,-232 2645.5281,-231.3361 2643.0035,-230.5435 2640.4921,-229.6726"/>
<polygon fill="#191970" stroke="#191970" points="2641.602,-226.3497 2631.0119,-226.0338 2639.0936,-232.8848 2641.602,-226.3497"/>
</g>
<!-- Node49&#45;&gt;Node4 -->
<g id="edge147" class="edge">
<title>Node49&#45;&gt;Node4</title>
<path fill="none" stroke="#191970" d="M3116.7815,-269.2622C3119.5532,-268.8128 3122.3007,-268.3895 3125,-268 3215.0857,-254.9993 3464.6913,-292.1528 3533,-232 3550.5664,-216.531 3553.2226,-188.2663 3552.7342,-169.1841"/>
<polygon fill="#191970" stroke="#191970" points="3556.2275,-168.9641 3552.1722,-159.1761 3549.2385,-169.3566 3556.2275,-168.9641"/>
</g>
<!-- Node49&#45;&gt;Node5 -->
<g id="edge148" class="edge">
<title>Node49&#45;&gt;Node5</title>
<path fill="none" stroke="#191970" d="M3116.7993,-269.3785C3119.5661,-268.8969 3122.3077,-268.4352 3125,-268 3189.978,-257.4977 3375.3773,-281.29 3419,-232 3474.9261,-168.8081 3326.6885,-113.2122 3258.84,-91.83"/>
<polygon fill="#191970" stroke="#191970" points="3259.6526,-88.4179 3249.0651,-88.8111 3257.587,-95.1062 3259.6526,-88.4179"/>
</g>
<!-- Node49&#45;&gt;Node6 -->
<g id="edge149" class="edge">
<title>Node49&#45;&gt;Node6</title>
<path fill="none" stroke="#191970" d="M3116.7949,-269.3508C3119.5629,-268.8769 3122.306,-268.4243 3125,-268 3194.5977,-257.0383 3393.094,-284.5721 3440,-232 3467.9341,-200.6916 3411.9258,-143.9944 3401,-134 3349.2129,-86.6278 3326.3916,-82.7675 3258,-67 2998.4452,-7.1605 1126.0658,-57.2592 861,-31 843.9738,-29.3133 825.2327,-25.9986 809.7808,-22.866"/>
<polygon fill="#191970" stroke="#191970" points="810.1754,-19.3728 799.6703,-20.7486 808.7405,-26.2241 810.1754,-19.3728"/>
</g>
<!-- Node49&#45;&gt;Node7 -->
<g id="edge151" class="edge">
<title>Node49&#45;&gt;Node7</title>
<path fill="none" stroke="#191970" d="M3116.7792,-269.2461C3119.5516,-268.8012 3122.2998,-268.3832 3125,-268 3220.1576,-254.4942 3481.3888,-292.5851 3556,-232 3590.5091,-203.9782 3606.8672,-165.9893 3576,-134 3551.9449,-109.0705 2492.2305,-88.7621 2205.1068,-83.7102"/>
<polygon fill="#191970" stroke="#191970" points="2204.8792,-80.2057 2194.8194,-83.5299 2204.7565,-87.2047 2204.8792,-80.2057"/>
</g>
<!-- Node49&#45;&gt;Node9 -->
<g id="edge157" class="edge">
<title>Node49&#45;&gt;Node9</title>
<path fill="none" stroke="#191970" d="M2979.1673,-275.254C2958.8324,-272.8621 2936.5249,-270.2814 2916,-268 2905.7259,-266.858 2631.9481,-238.1747 2497.7624,-224.1202"/>
<polygon fill="#191970" stroke="#191970" points="2497.8765,-220.6131 2487.5663,-223.0523 2497.1473,-227.575 2497.8765,-220.6131"/>
</g>
<!-- Node49&#45;&gt;Node17 -->
<g id="edge158" class="edge">
<title>Node49&#45;&gt;Node17</title>
<path fill="none" stroke="#191970" d="M3001.0963,-268.4639C2964.1817,-256.63 2913.3223,-240.3258 2878.4739,-229.1543"/>
<polygon fill="#191970" stroke="#191970" points="2879.242,-225.7251 2868.6508,-226.0053 2877.105,-232.391 2879.242,-225.7251"/>
</g>
<!-- Node49&#45;&gt;Node19 -->
<g id="edge155" class="edge">
<title>Node49&#45;&gt;Node19</title>
<path fill="none" stroke="#191970" d="M3116.7861,-269.2931C3119.5565,-268.8352 3122.3025,-268.4017 3125,-268 3165.8548,-261.9166 3467.243,-262.5888 3495,-232 3509.6805,-215.8218 3538.0973,-120.0336 3483,-67 3449.3573,-34.6174 2771.4381,-20.4191 2547.8495,-16.6049"/>
<polygon fill="#191970" stroke="#191970" points="2547.6079,-13.1004 2537.5502,-16.4311 2547.4897,-20.0994 2547.6079,-13.1004"/>
</g>
<!-- Node49&#45;&gt;Node20 -->
<g id="edge159" class="edge">
<title>Node49&#45;&gt;Node20</title>
<path fill="none" stroke="#191970" d="M2979.3476,-293.2571C2961.6843,-295.3289 2942.6928,-297.3776 2925,-299 2700.8132,-319.5575 2435.1893,-334.5161 2303.0926,-341.1663"/>
<polygon fill="#191970" stroke="#191970" points="2302.856,-337.6737 2293.0434,-341.6691 2303.2059,-344.665 2302.856,-337.6737"/>
</g>
<!-- Node49&#45;&gt;Node22 -->
<g id="edge150" class="edge">
<title>Node49&#45;&gt;Node22</title>
<path fill="none" stroke="#191970" d="M3032.6954,-268.2926C3010.3983,-246.5343 2969.6174,-208.327 2951,-201 2785.8181,-135.9919 2329.3217,-185.5368 2153,-165 2140.7452,-163.5726 2127.57,-161.3798 2115.4427,-159.0887"/>
<polygon fill="#191970" stroke="#191970" points="2116.0309,-155.6375 2105.5455,-157.1557 2114.6891,-162.5077 2116.0309,-155.6375"/>
</g>
<!-- Node49&#45;&gt;Node23 -->
<g id="edge156" class="edge">
<title>Node49&#45;&gt;Node23</title>
<path fill="none" stroke="#191970" d="M3051.4037,-268.2967C3053.1681,-260.4156 3055.3689,-250.5857 3057.3776,-241.6135"/>
<polygon fill="#191970" stroke="#191970" points="3060.8404,-242.1663 3059.6097,-231.6432 3054.0095,-240.6369 3060.8404,-242.1663"/>
</g>
<!-- Node50 -->
<g id="node51" class="node">
<title>Node50</title>
<g id="a_node51"><a xlink:href="drake__bool_8h.html" target="_top" xlink:title=" ">
<polygon fill="#ffffff" stroke="#000000" points="3255.5,-201.5 3255.5,-231.5 3376.5,-231.5 3376.5,-201.5 3255.5,-201.5"/>
<text text-anchor="start" x="3263.5" y="-219.5" font-family="Helvetica,sans-Serif" font-size="10.00" fill="#000000">drake/common/drake</text>
<text text-anchor="middle" x="3316" y="-208.5" font-family="Helvetica,sans-Serif" font-size="10.00" fill="#000000">_bool.h</text>
</a>
</g>
</g>
<!-- Node49&#45;&gt;Node50 -->
<g id="edge152" class="edge">
<title>Node49&#45;&gt;Node50</title>
<path fill="none" stroke="#191970" d="M3108.1444,-268.4639C3148.9491,-258.2627 3203.0413,-244.7397 3245.8153,-234.0462"/>
<polygon fill="#191970" stroke="#191970" points="3246.7407,-237.4226 3255.5932,-231.6017 3245.0429,-230.6316 3246.7407,-237.4226"/>
</g>
<!-- Node50&#45;&gt;Node8 -->
<g id="edge153" class="edge">
<title>Node50&#45;&gt;Node8</title>
<path fill="none" stroke="#191970" d="M3315.3024,-201.399C3312.9552,-170.171 3302.7108,-98.7621 3258,-67 3242.9081,-56.2789 2061.5366,-23.4374 1815.5597,-16.7112"/>
<polygon fill="#191970" stroke="#191970" points="1815.6375,-13.2121 1805.5456,-16.4377 1815.4463,-20.2095 1815.6375,-13.2121"/>
</g>
<!-- Node50&#45;&gt;Node22 -->
<g id="edge154" class="edge">
<title>Node50&#45;&gt;Node22</title>
<path fill="none" stroke="#191970" d="M3255.4302,-207.0321C3238.5007,-204.7019 3220.0662,-202.4592 3203,-201 2737.7566,-161.2206 2617.0907,-216.5135 2153,-165 2140.7377,-163.6389 2127.56,-161.4682 2115.4326,-159.1772"/>
<polygon fill="#191970" stroke="#191970" points="2116.0221,-155.7262 2105.5359,-157.2396 2114.6771,-162.5958 2116.0221,-155.7262"/>
</g>
<!-- Node51&#45;&gt;Node6 -->
<g id="edge161" class="edge">
<title>Node51&#45;&gt;Node6</title>
<path fill="none" stroke="#191970" d="M1686.2001,-270.9328C1568.1745,-247.6795 1321.4369,-191.5929 1131,-98 1109.8558,-87.6084 1109.782,-75.978 1088,-67 993.558,-28.0734 961.6794,-48.2694 861,-31 844.1367,-28.1075 825.4117,-24.6739 809.9283,-21.7744"/>
<polygon fill="#191970" stroke="#191970" points="810.2645,-18.2763 799.7896,-19.8657 808.9694,-25.1555 810.2645,-18.2763"/>
</g>
<!-- Node51&#45;&gt;Node7 -->
<g id="edge162" class="edge">
<title>Node51&#45;&gt;Node7</title>
<path fill="none" stroke="#191970" d="M1763.3888,-268.3201C1781.2236,-237.5842 1826.0609,-168.0267 1884,-134 1913.817,-116.489 2000.1884,-101.1889 2063.0801,-91.9118"/>
<polygon fill="#191970" stroke="#191970" points="2063.9589,-95.3209 2073.3516,-90.419 2062.9521,-88.3937 2063.9589,-95.3209"/>
</g>
<!-- Node51&#45;&gt;Node20 -->
<g id="edge163" class="edge">
<title>Node51&#45;&gt;Node20</title>
<path fill="none" stroke="#191970" d="M1823.5664,-295.9923C1829.472,-297.0731 1835.3444,-298.097 1841,-299 1942.4481,-315.1973 2059.6597,-328.3296 2136.6138,-336.3544"/>
<polygon fill="#191970" stroke="#191970" points="2136.4226,-339.8533 2146.7305,-337.4043 2137.1452,-332.8907 2136.4226,-339.8533"/>
</g>
<!-- Node52&#45;&gt;Node1 -->
<g id="edge165" class="edge">
<title>Node52&#45;&gt;Node1</title>
<path fill="none" stroke="#191970" d="M419.9178,-268.4443C417.0478,-249.6514 415.6038,-217.9257 434,-201 434.5856,-200.4612 1237.9751,-161.1778 1434.1688,-151.5921"/>
<polygon fill="#191970" stroke="#191970" points="1434.5553,-155.0774 1444.3726,-151.0935 1434.2137,-148.0858 1434.5553,-155.0774"/>
</g>
<!-- Node52&#45;&gt;Node6 -->
<g id="edge166" class="edge">
<title>Node52&#45;&gt;Node6</title>
<path fill="none" stroke="#191970" d="M354.4651,-277.4628C263.3073,-268.7287 111.6485,-251.4664 95,-232 86.045,-221.5293 88.7048,-213.2555 95,-201 141.7171,-110.0504 186.4061,-103.2786 282,-67 367.1604,-34.681 647.8225,-20.6642 744.1811,-16.725"/>
<polygon fill="#191970" stroke="#191970" points="744.3684,-20.2204 754.2207,-16.3241 744.089,-13.226 744.3684,-20.2204"/>
</g>
<!-- Node52&#45;&gt;Node20 -->
<g id="edge167" class="edge">
<title>Node52&#45;&gt;Node20</title>
<path fill="none" stroke="#191970" d="M491.9152,-296.6043C497.6936,-297.5464 503.4446,-298.3713 509,-299 830.3958,-335.3725 1838.8543,-343.1253 2136.5306,-344.6509"/>
<polygon fill="#191970" stroke="#191970" points="2136.8003,-348.1522 2146.8178,-344.7025 2136.8355,-341.1522 2136.8003,-348.1522"/>
</g>
<!-- Node53&#45;&gt;Node5 -->
<g id="edge170" class="edge">
<title>Node53&#45;&gt;Node5</title>
<path fill="none" stroke="#191970" d="M3271.738,-278.2679C3417.4904,-267.0137 3744.9734,-240.8133 3753,-232 3812.5631,-166.5991 3734.9614,-165.3966 3647,-134 3575.3423,-108.4228 3344.668,-90.5191 3259.2267,-84.6167"/>
<polygon fill="#191970" stroke="#191970" points="3259.2994,-81.1137 3249.0845,-83.9256 3258.8234,-88.0975 3259.2994,-81.1137"/>
</g>
<!-- Node53&#45;&gt;Node15 -->
<g id="edge172" class="edge">
<title>Node53&#45;&gt;Node15</title>
<path fill="none" stroke="#191970" d="M3271.8849,-277.435C3368.5018,-268.3324 3534.8859,-250.2509 3556,-232 3589.6307,-202.9299 3607.0959,-165.767 3576,-134 3565.1072,-122.8721 1490.7695,-87.9398 1198.1546,-83.0666"/>
<polygon fill="#191970" stroke="#191970" points="1197.8156,-79.5606 1187.7588,-82.8936 1197.6991,-86.5596 1197.8156,-79.5606"/>
</g>
<!-- Node53&#45;&gt;Node19 -->
<g id="edge175" class="edge">
<title>Node53&#45;&gt;Node19</title>
<path fill="none" stroke="#191970" d="M3271.6076,-278.5515C3422.1016,-267.537 3768.5503,-241.2417 3777,-232 3786.2969,-221.8317 3782.3196,-213.7094 3777,-201 3725.4291,-77.7895 3639.2683,-91.6784 3508,-67 3323.3019,-32.2769 2749.2524,-19.8823 2547.7697,-16.5361"/>
<polygon fill="#191970" stroke="#191970" points="2547.658,-13.0339 2537.602,-16.3697 2547.5434,-20.0329 2547.658,-13.0339"/>
</g>
<!-- Node53&#45;&gt;Node20 -->
<g id="edge176" class="edge">
<title>Node53&#45;&gt;Node20</title>
<path fill="none" stroke="#191970" d="M3137.7259,-298.5165C3136.4759,-298.6855 3135.2331,-298.847 3134,-299 2975.2529,-318.7013 2497.6258,-336.1298 2303.4068,-342.4641"/>
<polygon fill="#191970" stroke="#191970" points="2303.1384,-338.9709 2293.2572,-342.7934 2303.3654,-345.9672 2303.1384,-338.9709"/>
</g>
<!-- Node53&#45;&gt;Node22 -->
<g id="edge173" class="edge">
<title>Node53&#45;&gt;Node22</title>
<path fill="none" stroke="#191970" d="M3195.1238,-268.255C3184.0356,-248.6257 3161.7991,-215.3383 3132,-201 3033.9127,-153.8038 2261.1719,-177.1429 2153,-165 2140.7394,-163.6237 2127.5622,-161.4479 2115.4349,-159.1569"/>
<polygon fill="#191970" stroke="#191970" points="2116.0241,-155.7058 2105.5381,-157.2203 2114.6798,-162.5756 2116.0241,-155.7058"/>
</g>
<!-- Node53&#45;&gt;Node29 -->
<g id="edge171" class="edge">
<title>Node53&#45;&gt;Node29</title>
<path fill="none" stroke="#191970" d="M3134.1601,-269.4407C3131.0688,-268.9291 3128.0046,-268.4456 3125,-268 2963.7544,-244.0856 2920.2527,-261.8518 2760,-232 2754.9841,-231.0656 2749.7642,-229.8954 2744.6169,-228.6191"/>
<polygon fill="#191970" stroke="#191970" points="2745.4408,-225.2169 2734.8802,-226.0678 2743.6664,-231.9883 2745.4408,-225.2169"/>
</g>
<!-- Node53&#45;&gt;Node33 -->
<g id="edge174" class="edge">
<title>Node53&#45;&gt;Node33</title>
<path fill="none" stroke="#191970" d="M3134.1865,-269.2456C3131.088,-268.7868 3128.0151,-268.3678 3125,-268 2784.0432,-226.4101 2695.9516,-251.1155 2353,-232 2287.8279,-228.3674 2212.714,-223.3615 2164.3575,-220.0325"/>
<polygon fill="#191970" stroke="#191970" points="2164.3771,-216.5256 2154.1597,-219.328 2163.8946,-223.509 2164.3771,-216.5256"/>
</g>
<!-- Node54 -->
<g id="node55" class="node">
<title>Node54</title>
<g id="a_node55"><a xlink:title=" ">
<polygon fill="#ffffff" stroke="#bfbfbf" points="3839,-207 3839,-226 3895,-226 3895,-207 3839,-207"/>
<text text-anchor="middle" x="3867" y="-214" font-family="Helvetica,sans-Serif" font-size="10.00" fill="#000000">sstream</text>
</a>
</g>
</g>
<!-- Node53&#45;&gt;Node54 -->
<g id="edge169" class="edge">
<title>Node53&#45;&gt;Node54</title>
<path fill="none" stroke="#191970" d="M3271.6761,-278.8678C3422.2199,-268.5612 3772.1054,-243.7214 3825,-232 3828.263,-231.2769 3831.6147,-230.3595 3834.9334,-229.3333"/>
<polygon fill="#191970" stroke="#191970" points="3836.3328,-232.5541 3844.6684,-226.0144 3834.0739,-225.9286 3836.3328,-232.5541"/>
</g>
</g>
</svg>
