<?xml version="1.0" encoding="UTF-8" standalone="no"?>
<!DOCTYPE svg PUBLIC "-//W3C//DTD SVG 1.1//EN"
 "http://www.w3.org/Graphics/SVG/1.1/DTD/svg11.dtd">
<!-- Generated by graphviz version 2.40.1 (20161225.0304)
 -->
<!-- Title: drake/common/symbolic_rational_function.h Pages: 1 -->
<svg width="3919pt" height="430pt"
 viewBox="0.00 0.00 3919.34 430.00" xmlns="http://www.w3.org/2000/svg" xmlns:xlink="http://www.w3.org/1999/xlink">
<g id="graph0" class="graph" transform="scale(1 1) rotate(0) translate(4 426)">
<title>drake/common/symbolic_rational_function.h</title>
<polygon fill="#ffffff" stroke="transparent" points="-4,4 -4,-426 3915.3427,-426 3915.3427,4 -4,4"/>
<!-- Node0 -->
<g id="node1" class="node">
<title>Node0</title>
<g id="a_node1"><a xlink:title=" ">
<polygon fill="#bfbfbf" stroke="#000000" points="2168.3427,-391.5 2168.3427,-421.5 2305.3427,-421.5 2305.3427,-391.5 2168.3427,-391.5"/>
<text text-anchor="start" x="2176.3427" y="-409.5" font-family="Helvetica,sans-Serif" font-size="10.00" fill="#000000">drake/common/symbolic</text>
<text text-anchor="middle" x="2236.8427" y="-398.5" font-family="Helvetica,sans-Serif" font-size="10.00" fill="#000000">_rational_function.h</text>
</a>
</g>
</g>
<!-- Node1 -->
<g id="node2" class="node">
<title>Node1</title>
<g id="a_node2"><a xlink:title=" ">
<polygon fill="#ffffff" stroke="#bfbfbf" points="647.3427,-207 647.3427,-226 704.3427,-226 704.3427,-207 647.3427,-207"/>
<text text-anchor="middle" x="675.8427" y="-214" font-family="Helvetica,sans-Serif" font-size="10.00" fill="#000000">ostream</text>
</a>
</g>
</g>
<!-- Node0&#45;&gt;Node1 -->
<g id="edge1" class="edge">
<title>Node0&#45;&gt;Node1</title>
<path fill="none" stroke="#191970" d="M2168.0232,-405.0673C1976.1186,-400.1324 1419.3096,-379.4053 964.8427,-299 853.2597,-279.2585 826.8967,-266.1293 718.8427,-232 716.2368,-231.1769 713.5539,-230.2948 710.8618,-229.3844"/>
<polygon fill="#191970" stroke="#191970" points="711.7888,-226.0012 701.194,-226.0188 709.4873,-232.612 711.7888,-226.0012"/>
</g>
<!-- Node2 -->
<g id="node3" class="node">
<title>Node2</title>
<g id="a_node3"><a xlink:href="symbolic_8h.html" target="_top" xlink:title="Provides public header files of Drake&#39;s symbolic library.">
<polygon fill="#ffffff" stroke="#000000" points="2163.8427,-335.5 2163.8427,-354.5 2309.8427,-354.5 2309.8427,-335.5 2163.8427,-335.5"/>
<text text-anchor="middle" x="2236.8427" y="-342.5" font-family="Helvetica,sans-Serif" font-size="10.00" fill="#000000">drake/common/symbolic.h</text>
</a>
</g>
</g>
<!-- Node0&#45;&gt;Node2 -->
<g id="edge2" class="edge">
<title>Node0&#45;&gt;Node2</title>
<path fill="none" stroke="#191970" d="M2230.9269,-391.2977C2229.9873,-383.2945 2229.8414,-373.3843 2230.4892,-364.7889"/>
<polygon fill="#191970" stroke="#191970" points="2233.9645,-365.2044 2231.7343,-354.8469 2227.0187,-364.3345 2233.9645,-365.2044"/>
</g>
<!-- Node2&#45;&gt;Node0 -->
<g id="edge132" class="edge">
<title>Node2&#45;&gt;Node0</title>
<path fill="none" stroke="#191970" d="M2241.951,-354.8469C2243.313,-361.9883 2243.8276,-371.9858 2243.4945,-381.2849"/>
<polygon fill="#191970" stroke="#191970" points="2240.0011,-381.068 2242.7584,-391.2977 2246.9823,-381.5813 2240.0011,-381.068"/>
</g>
<!-- Node3 -->
<g id="node4" class="node">
<title>Node3</title>
<g id="a_node4"><a xlink:href="symbolic__variable_8h.html" target="_top" xlink:title=" ">
<polygon fill="#ffffff" stroke="#000000" points="512.3427,-268.5 512.3427,-298.5 649.3427,-298.5 649.3427,-268.5 512.3427,-268.5"/>
<text text-anchor="start" x="520.3427" y="-286.5" font-family="Helvetica,sans-Serif" font-size="10.00" fill="#000000">drake/common/symbolic</text>
<text text-anchor="middle" x="580.8427" y="-275.5" font-family="Helvetica,sans-Serif" font-size="10.00" fill="#000000">_variable.h</text>
</a>
</g>
</g>
<!-- Node2&#45;&gt;Node3 -->
<g id="edge3" class="edge">
<title>Node2&#45;&gt;Node3</title>
<path fill="none" stroke="#191970" d="M2163.7069,-342.4626C1968.8318,-335.6782 1420.8279,-316.4478 964.8427,-299 859.2415,-294.9593 737.3185,-289.9853 659.6942,-286.7796"/>
<polygon fill="#191970" stroke="#191970" points="659.6481,-283.2748 649.5121,-286.3587 659.359,-290.2688 659.6481,-283.2748"/>
</g>
<!-- Node24 -->
<g id="node25" class="node">
<title>Node24</title>
<g id="a_node25"><a xlink:href="symbolic__variables_8h.html" target="_top" xlink:title=" ">
<polygon fill="#ffffff" stroke="#000000" points="357.3427,-268.5 357.3427,-298.5 494.3427,-298.5 494.3427,-268.5 357.3427,-268.5"/>
<text text-anchor="start" x="365.3427" y="-286.5" font-family="Helvetica,sans-Serif" font-size="10.00" fill="#000000">drake/common/symbolic</text>
<text text-anchor="middle" x="425.8427" y="-275.5" font-family="Helvetica,sans-Serif" font-size="10.00" fill="#000000">_variables.h</text>
</a>
</g>
</g>
<!-- Node2&#45;&gt;Node24 -->
<g id="edge34" class="edge">
<title>Node2&#45;&gt;Node24</title>
<path fill="none" stroke="#191970" d="M2163.8019,-344.752C1879.3346,-343.5163 844.9785,-336.5234 499.7575,-299.6075"/>
<polygon fill="#191970" stroke="#191970" points="500.069,-296.1207 489.7463,-298.5065 499.3038,-303.0787 500.069,-296.1207"/>
</g>
<!-- Node26 -->
<g id="node27" class="node">
<title>Node26</title>
<g id="a_node27"><a xlink:href="symbolic__environment_8h.html" target="_top" xlink:title=" ">
<polygon fill="#ffffff" stroke="#000000" points="202.3427,-268.5 202.3427,-298.5 339.3427,-298.5 339.3427,-268.5 202.3427,-268.5"/>
<text text-anchor="start" x="210.3427" y="-286.5" font-family="Helvetica,sans-Serif" font-size="10.00" fill="#000000">drake/common/symbolic</text>
<text text-anchor="middle" x="270.8427" y="-275.5" font-family="Helvetica,sans-Serif" font-size="10.00" fill="#000000">_environment.h</text>
</a>
</g>
</g>
<!-- Node2&#45;&gt;Node26 -->
<g id="edge44" class="edge">
<title>Node2&#45;&gt;Node26</title>
<path fill="none" stroke="#191970" d="M2163.7332,-344.0163C1842.7517,-339.5048 565.2726,-320.1492 344.9887,-299.5546"/>
<polygon fill="#191970" stroke="#191970" points="345.0493,-296.0427 334.7459,-298.5106 344.3394,-303.0067 345.0493,-296.0427"/>
</g>
<!-- Node30 -->
<g id="node31" class="node">
<title>Node30</title>
<g id="a_node31"><a xlink:href="symbolic__expression_8h.html" target="_top" xlink:title=" ">
<polygon fill="#ffffff" stroke="#000000" points="2168.3427,-268.5 2168.3427,-298.5 2305.3427,-298.5 2305.3427,-268.5 2168.3427,-268.5"/>
<text text-anchor="start" x="2176.3427" y="-286.5" font-family="Helvetica,sans-Serif" font-size="10.00" fill="#000000">drake/common/symbolic</text>
<text text-anchor="middle" x="2236.8427" y="-275.5" font-family="Helvetica,sans-Serif" font-size="10.00" fill="#000000">_expression.h</text>
</a>
</g>
</g>
<!-- Node2&#45;&gt;Node30 -->
<g id="edge55" class="edge">
<title>Node2&#45;&gt;Node30</title>
<path fill="none" stroke="#191970" d="M2231.7802,-335.3906C2230.3817,-328.2234 2229.8524,-318.0862 2230.1924,-308.671"/>
<polygon fill="#191970" stroke="#191970" points="2233.6941,-308.7767 2230.9456,-298.5446 2226.7134,-308.2574 2233.6941,-308.7767"/>
</g>
<!-- Node43 -->
<g id="node44" class="node">
<title>Node43</title>
<g id="a_node44"><a xlink:href="symbolic__expression__visitor_8h.html" target="_top" xlink:title=" ">
<polygon fill="#ffffff" stroke="#000000" points="3680.3427,-201.5 3680.3427,-231.5 3817.3427,-231.5 3817.3427,-201.5 3680.3427,-201.5"/>
<text text-anchor="start" x="3688.3427" y="-219.5" font-family="Helvetica,sans-Serif" font-size="10.00" fill="#000000">drake/common/symbolic</text>
<text text-anchor="middle" x="3748.8427" y="-208.5" font-family="Helvetica,sans-Serif" font-size="10.00" fill="#000000">_expression_visitor.h</text>
</a>
</g>
</g>
<!-- Node2&#45;&gt;Node43 -->
<g id="edge97" class="edge">
<title>Node2&#45;&gt;Node43</title>
<path fill="none" stroke="#191970" d="M2310.2242,-344.5182C2596.3885,-342.4354 3624.1455,-332.7269 3684.8427,-299 3707.4721,-286.4258 3722.4948,-260.1535 3732.8631,-240.6169"/>
<polygon fill="#191970" stroke="#191970" points="3736.0198,-242.1344 3737.5921,-231.6568 3729.8291,-238.867 3736.0198,-242.1344"/>
</g>
<!-- Node44 -->
<g id="node45" class="node">
<title>Node44</title>
<g id="a_node45"><a xlink:href="symbolic__ldlt_8h.html" target="_top" xlink:title="Eigen::LDLT is specialized for drake::symbolic::Expression, for certain matrix sizes.">
<polygon fill="#ffffff" stroke="#000000" points="3392.3427,-268.5 3392.3427,-298.5 3529.3427,-298.5 3529.3427,-268.5 3392.3427,-268.5"/>
<text text-anchor="start" x="3400.3427" y="-286.5" font-family="Helvetica,sans-Serif" font-size="10.00" fill="#000000">drake/common/symbolic</text>
<text text-anchor="middle" x="3460.8427" y="-275.5" font-family="Helvetica,sans-Serif" font-size="10.00" fill="#000000">_ldlt.h</text>
</a>
</g>
</g>
<!-- Node2&#45;&gt;Node44 -->
<g id="edge102" class="edge">
<title>Node2&#45;&gt;Node44</title>
<path fill="none" stroke="#191970" d="M2310.1869,-343.5804C2525.6511,-339.1726 3155.2633,-324.5339 3381.9207,-299.0841"/>
<polygon fill="#191970" stroke="#191970" points="3382.5539,-302.5341 3392.0829,-297.903 3381.7457,-295.5809 3382.5539,-302.5341"/>
</g>
<!-- Node45 -->
<g id="node46" class="node">
<title>Node45</title>
<g id="a_node46"><a xlink:href="symbolic__monomial_8h.html" target="_top" xlink:title=" ">
<polygon fill="#ffffff" stroke="#000000" points="1562.3427,-268.5 1562.3427,-298.5 1699.3427,-298.5 1699.3427,-268.5 1562.3427,-268.5"/>
<text text-anchor="start" x="1570.3427" y="-286.5" font-family="Helvetica,sans-Serif" font-size="10.00" fill="#000000">drake/common/symbolic</text>
<text text-anchor="middle" x="1630.8427" y="-275.5" font-family="Helvetica,sans-Serif" font-size="10.00" fill="#000000">_monomial.h</text>
</a>
</g>
</g>
<!-- Node2&#45;&gt;Node45 -->
<g id="edge104" class="edge">
<title>Node2&#45;&gt;Node45</title>
<path fill="none" stroke="#191970" d="M2163.6816,-340.5468C2062.5417,-333.6961 1874.7606,-319.2132 1715.8427,-299 1713.7597,-298.7351 1711.6521,-298.4583 1709.5286,-298.1715"/>
<polygon fill="#191970" stroke="#191970" points="1709.8971,-294.689 1699.5073,-296.7631 1708.9229,-301.6208 1709.8971,-294.689"/>
</g>
<!-- Node46 -->
<g id="node47" class="node">
<title>Node46</title>
<g id="a_node47"><a xlink:href="symbolic__monomial__util_8h.html" target="_top" xlink:title=" ">
<polygon fill="#ffffff" stroke="#000000" points="1734.3427,-268.5 1734.3427,-298.5 1871.3427,-298.5 1871.3427,-268.5 1734.3427,-268.5"/>
<text text-anchor="start" x="1742.3427" y="-286.5" font-family="Helvetica,sans-Serif" font-size="10.00" fill="#000000">drake/common/symbolic</text>
<text text-anchor="middle" x="1802.8427" y="-275.5" font-family="Helvetica,sans-Serif" font-size="10.00" fill="#000000">_monomial_util.h</text>
</a>
</g>
</g>
<!-- Node2&#45;&gt;Node46 -->
<g id="edge113" class="edge">
<title>Node2&#45;&gt;Node46</title>
<path fill="none" stroke="#191970" d="M2164.4571,-335.4581C2086.3087,-324.6839 1962.3404,-307.137 1881.7505,-295.4573"/>
<polygon fill="#191970" stroke="#191970" points="1882.0542,-291.9648 1871.6551,-293.9919 1881.0486,-298.8922 1882.0542,-291.9648"/>
</g>
<!-- Node47 -->
<g id="node48" class="node">
<title>Node47</title>
<g id="a_node48"><a xlink:href="symbolic__polynomial_8h.html" target="_top" xlink:title=" ">
<polygon fill="#ffffff" stroke="#000000" points="3082.3427,-268.5 3082.3427,-298.5 3219.3427,-298.5 3219.3427,-268.5 3082.3427,-268.5"/>
<text text-anchor="start" x="3090.3427" y="-286.5" font-family="Helvetica,sans-Serif" font-size="10.00" fill="#000000">drake/common/symbolic</text>
<text text-anchor="middle" x="3150.8427" y="-275.5" font-family="Helvetica,sans-Serif" font-size="10.00" fill="#000000">_polynomial.h</text>
</a>
</g>
</g>
<!-- Node2&#45;&gt;Node47 -->
<g id="edge123" class="edge">
<title>Node2&#45;&gt;Node47</title>
<path fill="none" stroke="#191970" d="M2310.0192,-339.8095C2479.4016,-328.1613 2897.0365,-300.0611 3071.9013,-288.5482"/>
<polygon fill="#191970" stroke="#191970" points="3072.3097,-292.0289 3082.0585,-287.8801 3071.8503,-285.044 3072.3097,-292.0289"/>
</g>
<!-- Node48 -->
<g id="node49" class="node">
<title>Node48</title>
<g id="a_node49"><a xlink:href="symbolic__formula_8h.html" target="_top" xlink:title=" ">
<polygon fill="#ffffff" stroke="#000000" points="974.3427,-268.5 974.3427,-298.5 1111.3427,-298.5 1111.3427,-268.5 974.3427,-268.5"/>
<text text-anchor="start" x="982.3427" y="-286.5" font-family="Helvetica,sans-Serif" font-size="10.00" fill="#000000">drake/common/symbolic</text>
<text text-anchor="middle" x="1042.8427" y="-275.5" font-family="Helvetica,sans-Serif" font-size="10.00" fill="#000000">_formula.h</text>
</a>
</g>
</g>
<!-- Node2&#45;&gt;Node48 -->
<g id="edge133" class="edge">
<title>Node2&#45;&gt;Node48</title>
<path fill="none" stroke="#191970" d="M2163.6643,-341.4051C1951.9362,-330.7262 1340.2378,-299.2235 1121.6254,-287.7453"/>
<polygon fill="#191970" stroke="#191970" points="1121.6855,-284.2437 1111.5155,-287.214 1121.3181,-291.2341 1121.6855,-284.2437"/>
</g>
<!-- Node50 -->
<g id="node51" class="node">
<title>Node50</title>
<g id="a_node51"><a xlink:href="symbolic__formula__visitor_8h.html" target="_top" xlink:title=" ">
<polygon fill="#ffffff" stroke="#000000" points="3774.3427,-268.5 3774.3427,-298.5 3911.3427,-298.5 3911.3427,-268.5 3774.3427,-268.5"/>
<text text-anchor="start" x="3782.3427" y="-286.5" font-family="Helvetica,sans-Serif" font-size="10.00" fill="#000000">drake/common/symbolic</text>
<text text-anchor="middle" x="3842.8427" y="-275.5" font-family="Helvetica,sans-Serif" font-size="10.00" fill="#000000">_formula_visitor.h</text>
</a>
</g>
</g>
<!-- Node2&#45;&gt;Node50 -->
<g id="edge150" class="edge">
<title>Node2&#45;&gt;Node50</title>
<path fill="none" stroke="#191970" d="M2310.2749,-344.1347C2572.5316,-340.8963 3461.9206,-328.153 3745.8427,-299 3751.6754,-298.4011 3757.7041,-297.6412 3763.7727,-296.7808"/>
<polygon fill="#191970" stroke="#191970" points="3764.625,-300.1922 3773.9959,-295.2488 3763.5876,-293.2695 3764.625,-300.1922"/>
</g>
<!-- Node51 -->
<g id="node52" class="node">
<title>Node51</title>
<g id="a_node52"><a xlink:href="symbolic__simplification_8h.html" target="_top" xlink:title=" ">
<polygon fill="#ffffff" stroke="#000000" points="3547.3427,-268.5 3547.3427,-298.5 3684.3427,-298.5 3684.3427,-268.5 3547.3427,-268.5"/>
<text text-anchor="start" x="3555.3427" y="-286.5" font-family="Helvetica,sans-Serif" font-size="10.00" fill="#000000">drake/common/symbolic</text>
<text text-anchor="middle" x="3615.8427" y="-275.5" font-family="Helvetica,sans-Serif" font-size="10.00" fill="#000000">_simplification.h</text>
</a>
</g>
</g>
<!-- Node2&#45;&gt;Node51 -->
<g id="edge154" class="edge">
<title>Node2&#45;&gt;Node51</title>
<path fill="none" stroke="#191970" d="M2310.2214,-343.9285C2547.2586,-340.3048 3290.464,-327.1309 3529.8427,-299 3532.1852,-298.7247 3534.5627,-298.4159 3536.9625,-298.0793"/>
<polygon fill="#191970" stroke="#191970" points="3537.5668,-301.5276 3546.9216,-296.5539 3536.507,-294.6083 3537.5668,-301.5276"/>
</g>
<!-- Node52 -->
<g id="node53" class="node">
<title>Node52</title>
<g id="a_node53"><a xlink:href="symbolic__codegen_8h.html" target="_top" xlink:title=" ">
<polygon fill="#ffffff" stroke="#000000" points="3237.3427,-268.5 3237.3427,-298.5 3374.3427,-298.5 3374.3427,-268.5 3237.3427,-268.5"/>
<text text-anchor="start" x="3245.3427" y="-286.5" font-family="Helvetica,sans-Serif" font-size="10.00" fill="#000000">drake/common/symbolic</text>
<text text-anchor="middle" x="3305.8427" y="-275.5" font-family="Helvetica,sans-Serif" font-size="10.00" fill="#000000">_codegen.h</text>
</a>
</g>
</g>
<!-- Node2&#45;&gt;Node52 -->
<g id="edge158" class="edge">
<title>Node2&#45;&gt;Node52</title>
<path fill="none" stroke="#191970" d="M2310.03,-342.935C2506.7048,-337.3219 3043.2729,-320.737 3219.8427,-299 3222.3296,-298.6938 3224.8561,-298.3518 3227.4072,-297.9806"/>
<polygon fill="#191970" stroke="#191970" points="3228.002,-301.4301 3237.3365,-296.4183 3226.914,-294.5152 3228.002,-301.4301"/>
</g>
<!-- Node3&#45;&gt;Node1 -->
<g id="edge7" class="edge">
<title>Node3&#45;&gt;Node1</title>
<path fill="none" stroke="#191970" d="M602.3996,-268.2967C617.7759,-257.4524 638.3841,-242.9182 653.8565,-232.006"/>
<polygon fill="#191970" stroke="#191970" points="656.1397,-234.6787 662.2946,-226.055 652.1053,-228.9582 656.1397,-234.6787"/>
</g>
<!-- Node4 -->
<g id="node5" class="node">
<title>Node4</title>
<g id="a_node5"><a xlink:title=" ">
<polygon fill="#ffffff" stroke="#bfbfbf" points="1555.3427,-140 1555.3427,-159 1608.3427,-159 1608.3427,-140 1555.3427,-140"/>
<text text-anchor="middle" x="1581.8427" y="-147" font-family="Helvetica,sans-Serif" font-size="10.00" fill="#000000">cstddef</text>
</a>
</g>
</g>
<!-- Node3&#45;&gt;Node4 -->
<g id="edge4" class="edge">
<title>Node3&#45;&gt;Node4</title>
<path fill="none" stroke="#191970" d="M571.5555,-268.1891C561.681,-249.7263 549.6632,-218.9445 566.8427,-201 598.6068,-167.8213 1347.0005,-167.8777 1392.8427,-165 1445.8531,-161.6723 1507.1114,-156.383 1545.1684,-152.926"/>
<polygon fill="#191970" stroke="#191970" points="1545.6215,-156.3993 1555.2611,-152.0027 1544.9838,-149.4284 1545.6215,-156.3993"/>
</g>
<!-- Node5 -->
<g id="node6" class="node">
<title>Node5</title>
<g id="a_node6"><a xlink:title=" ">
<polygon fill="#ffffff" stroke="#bfbfbf" points="1877.3427,-140 1877.3427,-159 1942.3427,-159 1942.3427,-140 1877.3427,-140"/>
<text text-anchor="middle" x="1909.8427" y="-147" font-family="Helvetica,sans-Serif" font-size="10.00" fill="#000000">functional</text>
</a>
</g>
</g>
<!-- Node3&#45;&gt;Node5 -->
<g id="edge5" class="edge">
<title>Node3&#45;&gt;Node5</title>
<path fill="none" stroke="#191970" d="M580.3341,-268.4181C580.605,-249.2885 584.3154,-216.8837 604.8427,-201 658.6457,-159.3679 1761.2188,-172.4166 1828.8427,-165 1841.4071,-163.622 1854.9385,-161.3511 1867.2757,-158.9671"/>
<polygon fill="#191970" stroke="#191970" points="1868.1939,-162.3527 1877.3107,-156.955 1866.8177,-155.4893 1868.1939,-162.3527"/>
</g>
<!-- Node6 -->
<g id="node7" class="node">
<title>Node6</title>
<g id="a_node7"><a xlink:title=" ">
<polygon fill="#ffffff" stroke="#bfbfbf" points="1627.8427,-73 1627.8427,-92 1685.8427,-92 1685.8427,-73 1627.8427,-73"/>
<text text-anchor="middle" x="1656.8427" y="-80" font-family="Helvetica,sans-Serif" font-size="10.00" fill="#000000">memory</text>
</a>
</g>
</g>
<!-- Node3&#45;&gt;Node6 -->
<g id="edge6" class="edge">
<title>Node3&#45;&gt;Node6</title>
<path fill="none" stroke="#191970" d="M568.2963,-268.1887C555.2297,-250.2879 538.7413,-220.6177 554.8427,-201 603.2843,-141.9794 816.1497,-144.0296 891.8427,-134 1167.9684,-97.4123 1503.801,-86.229 1617.2501,-83.3646"/>
<polygon fill="#191970" stroke="#191970" points="1617.6141,-86.8569 1627.5253,-83.1129 1617.4426,-79.859 1617.6141,-86.8569"/>
</g>
<!-- Node7 -->
<g id="node8" class="node">
<title>Node7</title>
<g id="a_node8"><a xlink:title=" ">
<polygon fill="#ffffff" stroke="#bfbfbf" points="761.8427,-73 761.8427,-92 805.8427,-92 805.8427,-73 761.8427,-73"/>
<text text-anchor="middle" x="783.8427" y="-80" font-family="Helvetica,sans-Serif" font-size="10.00" fill="#000000">string</text>
</a>
</g>
</g>
<!-- Node3&#45;&gt;Node7 -->
<g id="edge8" class="edge">
<title>Node3&#45;&gt;Node7</title>
<path fill="none" stroke="#191970" d="M534.6885,-268.4044C517.8142,-260.3939 500.506,-248.6632 490.8427,-232 483.9308,-220.0814 483.1403,-212.4237 490.8427,-201 498.6065,-189.4853 677.3785,-122.0561 751.7929,-94.3639"/>
<polygon fill="#191970" stroke="#191970" points="753.4173,-97.4942 761.5719,-90.73 750.979,-90.9325 753.4173,-97.4942"/>
</g>
<!-- Node8 -->
<g id="node9" class="node">
<title>Node8</title>
<g id="a_node9"><a xlink:title=" ">
<polygon fill="#ffffff" stroke="#bfbfbf" points="2017.3427,-140 2017.3427,-159 2086.3427,-159 2086.3427,-140 2017.3427,-140"/>
<text text-anchor="middle" x="2051.8427" y="-147" font-family="Helvetica,sans-Serif" font-size="10.00" fill="#000000">Eigen/Core</text>
</a>
</g>
</g>
<!-- Node3&#45;&gt;Node8 -->
<g id="edge9" class="edge">
<title>Node3&#45;&gt;Node8</title>
<path fill="none" stroke="#191970" d="M586.3045,-268.3052C594.2529,-248.7314 611.0516,-215.5053 637.8427,-201 704.7965,-164.7496 1932.9695,-178.8169 2007.8427,-165 2011.5661,-164.3129 2015.3969,-163.3598 2019.1718,-162.2609"/>
<polygon fill="#191970" stroke="#191970" points="2020.4919,-165.5121 2028.9212,-159.0935 2018.329,-158.8546 2020.4919,-165.5121"/>
</g>
<!-- Node9 -->
<g id="node10" class="node">
<title>Node9</title>
<g id="a_node10"><a xlink:href="drake__copyable_8h.html" target="_top" xlink:title="Provides careful macros to selectively enable or disable the special member functions for copy&#45;constr...">
<polygon fill="#ffffff" stroke="#000000" points="894.3427,-.5 894.3427,-30.5 1015.3427,-30.5 1015.3427,-.5 894.3427,-.5"/>
<text text-anchor="start" x="902.3427" y="-18.5" font-family="Helvetica,sans-Serif" font-size="10.00" fill="#000000">drake/common/drake</text>
<text text-anchor="middle" x="954.8427" y="-7.5" font-family="Helvetica,sans-Serif" font-size="10.00" fill="#000000">_copyable.h</text>
</a>
</g>
</g>
<!-- Node3&#45;&gt;Node9 -->
<g id="edge10" class="edge">
<title>Node3&#45;&gt;Node9</title>
<path fill="none" stroke="#191970" d="M511.9922,-269.51C508.9037,-268.9796 505.843,-268.4733 502.8427,-268 434.9919,-257.2975 241.4977,-283.3215 195.8427,-232 186.6852,-221.7059 190.9763,-213.8897 195.8427,-201 225.4804,-122.4978 251.8511,-100.3658 328.8427,-67 378.7251,-45.3825 730.7525,-26.1936 883.9284,-18.7673"/>
<polygon fill="#191970" stroke="#191970" points="884.346,-22.2513 894.166,-18.2741 884.0091,-15.2594 884.346,-22.2513"/>
</g>
<!-- Node10 -->
<g id="node11" class="node">
<title>Node10</title>
<g id="a_node11"><a xlink:href="eigen__types_8h.html" target="_top" xlink:title="This file contains abbreviated definitions for certain specializations of Eigen::Matrix that are comm...">
<polygon fill="#ffffff" stroke="#000000" points="204.8427,-201.5 204.8427,-231.5 324.8427,-231.5 324.8427,-201.5 204.8427,-201.5"/>
<text text-anchor="start" x="212.8427" y="-219.5" font-family="Helvetica,sans-Serif" font-size="10.00" fill="#000000">drake/common/eigen</text>
<text text-anchor="middle" x="264.8427" y="-208.5" font-family="Helvetica,sans-Serif" font-size="10.00" fill="#000000">_types.h</text>
</a>
</g>
</g>
<!-- Node3&#45;&gt;Node10 -->
<g id="edge11" class="edge">
<title>Node3&#45;&gt;Node10</title>
<path fill="none" stroke="#191970" d="M512.2754,-268.962C459.8376,-257.8439 387.8035,-242.5708 334.9799,-231.3709"/>
<polygon fill="#191970" stroke="#191970" points="335.5249,-227.9087 325.0164,-229.2583 334.0729,-234.7565 335.5249,-227.9087"/>
</g>
<!-- Node16 -->
<g id="node17" class="node">
<title>Node16</title>
<g id="a_node17"><a xlink:href="hash_8h.html" target="_top" xlink:title=" ">
<polygon fill="#ffffff" stroke="#000000" points="1325.3427,-207 1325.3427,-226 1450.3427,-226 1450.3427,-207 1325.3427,-207"/>
<text text-anchor="middle" x="1387.8427" y="-214" font-family="Helvetica,sans-Serif" font-size="10.00" fill="#000000">drake/common/hash.h</text>
</a>
</g>
</g>
<!-- Node3&#45;&gt;Node16 -->
<g id="edge18" class="edge">
<title>Node3&#45;&gt;Node16</title>
<path fill="none" stroke="#191970" d="M649.6337,-279.8935C774.7067,-273.0063 1047.63,-256.4578 1276.8427,-232 1289.2088,-230.6805 1302.319,-229.0537 1315.031,-227.3553"/>
<polygon fill="#191970" stroke="#191970" points="1315.6819,-230.7991 1325.1185,-225.9824 1314.7378,-223.863 1315.6819,-230.7991"/>
</g>
<!-- Node10&#45;&gt;Node9 -->
<g id="edge17" class="edge">
<title>Node10&#45;&gt;Node9</title>
<path fill="none" stroke="#191970" d="M260.9421,-201.2798C257.2315,-182.9086 254.3773,-152.2189 270.8427,-134 351.8915,-44.3197 725.8954,-22.4241 883.9854,-17.1472"/>
<polygon fill="#191970" stroke="#191970" points="884.1983,-20.6422 894.0808,-16.8231 883.9736,-13.6458 884.1983,-20.6422"/>
</g>
<!-- Node11 -->
<g id="node12" class="node">
<title>Node11</title>
<g id="a_node12"><a xlink:title=" ">
<polygon fill="#ffffff" stroke="#bfbfbf" points="2919.3427,-6 2919.3427,-25 2964.3427,-25 2964.3427,-6 2919.3427,-6"/>
<text text-anchor="middle" x="2941.8427" y="-13" font-family="Helvetica,sans-Serif" font-size="10.00" fill="#000000">utility</text>
</a>
</g>
</g>
<!-- Node10&#45;&gt;Node11 -->
<g id="edge12" class="edge">
<title>Node10&#45;&gt;Node11</title>
<path fill="none" stroke="#191970" d="M324.932,-206.6649C391.6656,-195.4398 494.9831,-177.0771 532.8427,-165 564.4863,-154.9058 570.5345,-147.5876 600.8427,-134 668.2098,-103.7983 680.7391,-82.8602 752.8427,-67 971.5391,-18.8946 2544.2367,-42.9418 2767.8427,-31 2817.1075,-28.369 2874.0207,-22.8231 2908.97,-19.1291"/>
<polygon fill="#191970" stroke="#191970" points="2909.5076,-22.5916 2919.0784,-18.0474 2908.7627,-15.6313 2909.5076,-22.5916"/>
</g>
<!-- Node12 -->
<g id="node13" class="node">
<title>Node12</title>
<g id="a_node13"><a xlink:title=" ">
<polygon fill="#ffffff" stroke="#bfbfbf" points="447.3427,-140 447.3427,-159 524.3427,-159 524.3427,-140 447.3427,-140"/>
<text text-anchor="middle" x="485.8427" y="-147" font-family="Helvetica,sans-Serif" font-size="10.00" fill="#000000">Eigen/Dense</text>
</a>
</g>
</g>
<!-- Node10&#45;&gt;Node12 -->
<g id="edge13" class="edge">
<title>Node10&#45;&gt;Node12</title>
<path fill="none" stroke="#191970" d="M316.4122,-201.4856C350.8569,-191.3743 397.1381,-177.6289 437.8427,-165 440.8,-164.0825 443.8562,-163.1227 446.9274,-162.1498"/>
<polygon fill="#191970" stroke="#191970" points="448.2243,-165.4099 456.6857,-159.0337 446.0949,-158.7416 448.2243,-165.4099"/>
</g>
<!-- Node13 -->
<g id="node14" class="node">
<title>Node13</title>
<g id="a_node14"><a xlink:href="constants_8h.html" target="_top" xlink:title=" ">
<polygon fill="#ffffff" stroke="#000000" points="280.3427,-140 280.3427,-159 429.3427,-159 429.3427,-140 280.3427,-140"/>
<text text-anchor="middle" x="354.8427" y="-147" font-family="Helvetica,sans-Serif" font-size="10.00" fill="#000000">drake/common/constants.h</text>
</a>
</g>
</g>
<!-- Node10&#45;&gt;Node13 -->
<g id="edge14" class="edge">
<title>Node10&#45;&gt;Node13</title>
<path fill="none" stroke="#191970" d="M285.2651,-201.2967C299.6959,-190.5537 318.9911,-176.1895 333.6014,-165.3129"/>
<polygon fill="#191970" stroke="#191970" points="336.0763,-167.8339 342.0076,-159.055 331.8963,-162.219 336.0763,-167.8339"/>
</g>
<!-- Node14 -->
<g id="node15" class="node">
<title>Node14</title>
<g id="a_node15"><a xlink:href="drake__assert_8h.html" target="_top" xlink:title="Provides Drake&#39;s assertion implementation.">
<polygon fill="#ffffff" stroke="#000000" points="1972.3427,-67.5 1972.3427,-97.5 2093.3427,-97.5 2093.3427,-67.5 1972.3427,-67.5"/>
<text text-anchor="start" x="1980.3427" y="-85.5" font-family="Helvetica,sans-Serif" font-size="10.00" fill="#000000">drake/common/drake</text>
<text text-anchor="middle" x="2032.8427" y="-74.5" font-family="Helvetica,sans-Serif" font-size="10.00" fill="#000000">_assert.h</text>
</a>
</g>
</g>
<!-- Node10&#45;&gt;Node14 -->
<g id="edge15" class="edge">
<title>Node10&#45;&gt;Node14</title>
<path fill="none" stroke="#191970" d="M325.2686,-206.3382C434.0341,-188.4805 670.1464,-151.6891 870.8427,-134 1235.9986,-101.8156 1328.638,-114.3963 1694.8427,-98 1787.082,-93.8701 1893.4735,-88.9684 1961.866,-85.7996"/>
<polygon fill="#191970" stroke="#191970" points="1962.2641,-89.285 1972.0913,-85.3256 1961.9399,-82.2925 1962.2641,-89.285"/>
</g>
<!-- Node15 -->
<g id="node16" class="node">
<title>Node15</title>
<g id="a_node16"><a xlink:title=" ">
<polygon fill="#ffffff" stroke="#bfbfbf" points="1998.3427,-6 1998.3427,-25 2067.3427,-25 2067.3427,-6 1998.3427,-6"/>
<text text-anchor="middle" x="2032.8427" y="-13" font-family="Helvetica,sans-Serif" font-size="10.00" fill="#000000">type_traits</text>
</a>
</g>
</g>
<!-- Node14&#45;&gt;Node15 -->
<g id="edge16" class="edge">
<title>Node14&#45;&gt;Node15</title>
<path fill="none" stroke="#191970" d="M2032.8427,-67.2967C2032.8427,-57.7699 2032.8427,-45.3954 2032.8427,-35.1306"/>
<polygon fill="#191970" stroke="#191970" points="2036.3428,-35.0549 2032.8427,-25.055 2029.3428,-35.055 2036.3428,-35.0549"/>
</g>
<!-- Node16&#45;&gt;Node4 -->
<g id="edge20" class="edge">
<title>Node16&#45;&gt;Node4</title>
<path fill="none" stroke="#191970" d="M1417.2844,-206.9459C1448.1733,-196.8391 1498.0848,-180.2726 1540.8427,-165 1542.9388,-164.2513 1545.0912,-163.4713 1547.2596,-162.677"/>
<polygon fill="#191970" stroke="#191970" points="1548.5882,-165.9172 1556.7445,-159.1552 1546.1515,-159.355 1548.5882,-165.9172"/>
</g>
<!-- Node16&#45;&gt;Node5 -->
<g id="edge21" class="edge">
<title>Node16&#45;&gt;Node5</title>
<path fill="none" stroke="#191970" d="M1431.281,-206.966C1442.1994,-204.7877 1453.9191,-202.6354 1464.8427,-201 1625.6178,-176.9294 1667.9541,-188.3009 1828.8427,-165 1841.352,-163.1883 1854.8662,-160.7829 1867.2047,-158.4086"/>
<polygon fill="#191970" stroke="#191970" points="1868.1073,-161.7983 1877.2446,-156.4353 1866.7573,-154.9297 1868.1073,-161.7983"/>
</g>
<!-- Node16&#45;&gt;Node7 -->
<g id="edge26" class="edge">
<title>Node16&#45;&gt;Node7</title>
<path fill="none" stroke="#191970" d="M1346.3897,-206.9416C1278.867,-191.4086 1140.9029,-159.8244 1023.8427,-134 949.5237,-117.6046 862.0972,-99.0213 816.0195,-89.2818"/>
<polygon fill="#191970" stroke="#191970" points="816.5377,-85.8141 806.0302,-87.172 815.0911,-92.663 816.5377,-85.8141"/>
</g>
<!-- Node16&#45;&gt;Node11 -->
<g id="edge28" class="edge">
<title>Node16&#45;&gt;Node11</title>
<path fill="none" stroke="#191970" d="M1394.6903,-206.8959C1407.0434,-190.1521 1434.6008,-155.3678 1464.8427,-134 1525.8029,-90.9279 1546.014,-83.3504 1618.8427,-67 1868.097,-11.0412 2512.845,-46.3397 2767.8427,-31 2817.0887,-28.0376 2874.007,-22.5814 2908.9625,-18.9969"/>
<polygon fill="#191970" stroke="#191970" points="2909.4868,-22.4614 2919.0728,-17.9494 2908.7653,-15.4987 2909.4868,-22.4614"/>
</g>
<!-- Node16&#45;&gt;Node14 -->
<g id="edge30" class="edge">
<title>Node16&#45;&gt;Node14</title>
<path fill="none" stroke="#191970" d="M1402.2464,-206.8635C1434.4612,-185.3283 1509.7643,-135.0925 1512.8427,-134 1593.8166,-105.2613 1839.665,-90.8556 1962.0591,-85.3065"/>
<polygon fill="#191970" stroke="#191970" points="1962.2483,-88.8017 1972.0824,-84.8594 1961.9363,-81.8086 1962.2483,-88.8017"/>
</g>
<!-- Node16&#45;&gt;Node15 -->
<g id="edge27" class="edge">
<title>Node16&#45;&gt;Node15</title>
<path fill="none" stroke="#191970" d="M1389.596,-206.7924C1395.2624,-176.5646 1414.0447,-85.0668 1436.8427,-67 1479.7869,-32.9679 1856.9471,-20.0475 1988.1148,-16.5586"/>
<polygon fill="#191970" stroke="#191970" points="1988.313,-20.0547 1998.2186,-16.2956 1988.1309,-13.0571 1988.313,-20.0547"/>
</g>
<!-- Node17 -->
<g id="node18" class="node">
<title>Node17</title>
<g id="a_node18"><a xlink:title=" ">
<polygon fill="#ffffff" stroke="#bfbfbf" points="1337.3427,-140 1337.3427,-159 1384.3427,-159 1384.3427,-140 1337.3427,-140"/>
<text text-anchor="middle" x="1360.8427" y="-147" font-family="Helvetica,sans-Serif" font-size="10.00" fill="#000000">cmath</text>
</a>
</g>
</g>
<!-- Node16&#45;&gt;Node17 -->
<g id="edge19" class="edge">
<title>Node16&#45;&gt;Node17</title>
<path fill="none" stroke="#191970" d="M1383.9742,-206.9005C1379.9643,-196.95 1373.5888,-181.1292 1368.5456,-168.6147"/>
<polygon fill="#191970" stroke="#191970" points="1371.6881,-167.0486 1364.7039,-159.0817 1365.1954,-169.6651 1371.6881,-167.0486"/>
</g>
<!-- Node18 -->
<g id="node19" class="node">
<title>Node18</title>
<g id="a_node19"><a xlink:title=" ">
<polygon fill="#ffffff" stroke="#bfbfbf" points="1258.8427,-140 1258.8427,-159 1318.8427,-159 1318.8427,-140 1258.8427,-140"/>
<text text-anchor="middle" x="1288.8427" y="-147" font-family="Helvetica,sans-Serif" font-size="10.00" fill="#000000">iostream</text>
</a>
</g>
</g>
<!-- Node16&#45;&gt;Node18 -->
<g id="edge22" class="edge">
<title>Node16&#45;&gt;Node18</title>
<path fill="none" stroke="#191970" d="M1373.6584,-206.9005C1357.4115,-195.9052 1330.5736,-177.7422 1311.4393,-164.7927"/>
<polygon fill="#191970" stroke="#191970" points="1313.244,-161.7879 1303.0006,-159.0817 1309.3207,-167.5851 1313.244,-161.7879"/>
</g>
<!-- Node19 -->
<g id="node20" class="node">
<title>Node19</title>
<g id="a_node20"><a xlink:title=" ">
<polygon fill="#ffffff" stroke="#bfbfbf" points="1960.8427,-140 1960.8427,-159 1998.8427,-159 1998.8427,-140 1960.8427,-140"/>
<text text-anchor="middle" x="1979.8427" y="-147" font-family="Helvetica,sans-Serif" font-size="10.00" fill="#000000">map</text>
</a>
</g>
</g>
<!-- Node16&#45;&gt;Node19 -->
<g id="edge23" class="edge">
<title>Node16&#45;&gt;Node19</title>
<path fill="none" stroke="#191970" d="M1450.5716,-211.4346C1592.3733,-199.8923 1927.1752,-172.0894 1950.8427,-165 1952.3124,-164.5598 1953.7931,-164.0411 1955.2664,-163.4654"/>
<polygon fill="#191970" stroke="#191970" points="1957.1065,-166.4688 1964.6839,-159.0639 1954.1426,-160.1273 1957.1065,-166.4688"/>
</g>
<!-- Node20 -->
<g id="node21" class="node">
<title>Node20</title>
<g id="a_node21"><a xlink:title=" ">
<polygon fill="#ffffff" stroke="#bfbfbf" points="1184.8427,-140 1184.8427,-159 1240.8427,-159 1240.8427,-140 1184.8427,-140"/>
<text text-anchor="middle" x="1212.8427" y="-147" font-family="Helvetica,sans-Serif" font-size="10.00" fill="#000000">optional</text>
</a>
</g>
</g>
<!-- Node16&#45;&gt;Node20 -->
<g id="edge24" class="edge">
<title>Node16&#45;&gt;Node20</title>
<path fill="none" stroke="#191970" d="M1361.2683,-206.9362C1333.3922,-196.8214 1288.3613,-180.2486 1249.8427,-165 1248.24,-164.3655 1246.6013,-163.7089 1244.9487,-163.0402"/>
<polygon fill="#191970" stroke="#191970" points="1246.0628,-159.7141 1235.4829,-159.1509 1243.4024,-166.1889 1246.0628,-159.7141"/>
</g>
<!-- Node21 -->
<g id="node22" class="node">
<title>Node21</title>
<g id="a_node22"><a xlink:title=" ">
<polygon fill="#ffffff" stroke="#bfbfbf" points="982.8427,-140 982.8427,-159 1014.8427,-159 1014.8427,-140 982.8427,-140"/>
<text text-anchor="middle" x="998.8427" y="-147" font-family="Helvetica,sans-Serif" font-size="10.00" fill="#000000">set</text>
</a>
</g>
</g>
<!-- Node16&#45;&gt;Node21 -->
<g id="edge25" class="edge">
<title>Node16&#45;&gt;Node21</title>
<path fill="none" stroke="#191970" d="M1332.5216,-206.9717C1247.4566,-192.3204 1087.8052,-164.8226 1025.09,-154.0207"/>
<polygon fill="#191970" stroke="#191970" points="1025.661,-150.5676 1015.212,-152.3194 1024.4728,-157.4661 1025.661,-150.5676"/>
</g>
<!-- Node22 -->
<g id="node23" class="node">
<title>Node22</title>
<g id="a_node23"><a xlink:title=" ">
<polygon fill="#ffffff" stroke="#bfbfbf" points="2614.3427,-73 2614.3427,-92 2661.3427,-92 2661.3427,-73 2614.3427,-73"/>
<text text-anchor="middle" x="2637.8427" y="-80" font-family="Helvetica,sans-Serif" font-size="10.00" fill="#000000">vector</text>
</a>
</g>
</g>
<!-- Node16&#45;&gt;Node22 -->
<g id="edge29" class="edge">
<title>Node16&#45;&gt;Node22</title>
<path fill="none" stroke="#191970" d="M1414.2562,-206.9113C1438.5459,-197.6253 1475.1803,-182.4204 1504.8427,-165 1524.5414,-153.4312 1524.3617,-141.7745 1545.8427,-134 1596.78,-115.5645 2425.5909,-89.0448 2604.1263,-83.5284"/>
<polygon fill="#191970" stroke="#191970" points="2604.3542,-87.0231 2614.2417,-83.2169 2604.1386,-80.0265 2604.3542,-87.0231"/>
</g>
<!-- Node23 -->
<g id="node24" class="node">
<title>Node23</title>
<g id="a_node24"><a xlink:href="drake__throw_8h.html" target="_top" xlink:title="Provides a convenient wrapper to throw an exception when a condition is unmet.">
<polygon fill="#ffffff" stroke="#000000" points="1699.3427,-134.5 1699.3427,-164.5 1820.3427,-164.5 1820.3427,-134.5 1699.3427,-134.5"/>
<text text-anchor="start" x="1707.3427" y="-152.5" font-family="Helvetica,sans-Serif" font-size="10.00" fill="#000000">drake/common/drake</text>
<text text-anchor="middle" x="1759.8427" y="-141.5" font-family="Helvetica,sans-Serif" font-size="10.00" fill="#000000">_throw.h</text>
</a>
</g>
</g>
<!-- Node16&#45;&gt;Node23 -->
<g id="edge31" class="edge">
<title>Node16&#45;&gt;Node23</title>
<path fill="none" stroke="#191970" d="M1433.7949,-206.9371C1444.002,-204.9003 1454.7783,-202.8174 1464.8427,-201 1561.3884,-183.5663 1588.6724,-183.9144 1689.218,-165.0495"/>
<polygon fill="#191970" stroke="#191970" points="1690.0076,-168.4623 1699.1817,-163.1627 1688.7051,-161.5845 1690.0076,-168.4623"/>
</g>
<!-- Node23&#45;&gt;Node14 -->
<g id="edge33" class="edge">
<title>Node23&#45;&gt;Node14</title>
<path fill="none" stroke="#191970" d="M1820.4302,-134.6305C1862.3439,-124.344 1918.2594,-110.6212 1962.2001,-99.8372"/>
<polygon fill="#191970" stroke="#191970" points="1963.0755,-103.2263 1971.9531,-97.4436 1961.407,-96.428 1963.0755,-103.2263"/>
</g>
<!-- Node23&#45;&gt;Node15 -->
<g id="edge32" class="edge">
<title>Node23&#45;&gt;Node15</title>
<path fill="none" stroke="#191970" d="M1790.6286,-134.389C1843.8158,-108.2824 1952.178,-55.0936 2003.9924,-29.661"/>
<polygon fill="#191970" stroke="#191970" points="2005.8413,-32.6524 2013.276,-25.1042 2002.7569,-26.3685 2005.8413,-32.6524"/>
</g>
<!-- Node24&#45;&gt;Node1 -->
<g id="edge38" class="edge">
<title>Node24&#45;&gt;Node1</title>
<path fill="none" stroke="#191970" d="M481.9476,-268.4639C529.294,-255.775 595.8181,-237.9466 637.3466,-226.8169"/>
<polygon fill="#191970" stroke="#191970" points="638.3314,-230.1766 647.0844,-224.2072 636.5193,-223.4152 638.3314,-230.1766"/>
</g>
<!-- Node24&#45;&gt;Node2 -->
<g id="edge43" class="edge">
<title>Node24&#45;&gt;Node2</title>
<path fill="none" stroke="#191970" d="M494.7578,-296.6055C500.5362,-297.5474 506.2872,-298.3719 511.8427,-299 836.0415,-335.6543 1853.6822,-343.2143 2153.1781,-344.6719"/>
<polygon fill="#191970" stroke="#191970" points="2153.5102,-348.1735 2163.5268,-344.7213 2153.5436,-341.1735 2153.5102,-348.1735"/>
</g>
<!-- Node24&#45;&gt;Node4 -->
<g id="edge35" class="edge">
<title>Node24&#45;&gt;Node4</title>
<path fill="none" stroke="#191970" d="M417.4959,-268.4616C408.4894,-249.985 397.5949,-218.8943 414.8427,-201 452.5744,-161.8538 1338.5681,-168.2228 1392.8427,-165 1445.8641,-161.8516 1507.1195,-156.5155 1545.1729,-152.9996"/>
<polygon fill="#191970" stroke="#191970" points="1545.6323,-156.472 1555.2645,-152.0595 1544.983,-149.5022 1545.6323,-156.472"/>
</g>
<!-- Node24&#45;&gt;Node5 -->
<g id="edge36" class="edge">
<title>Node24&#45;&gt;Node5</title>
<path fill="none" stroke="#191970" d="M446.7484,-268.3909C475.5196,-248.5818 529.7008,-214.7403 581.8427,-201 849.9177,-130.3577 1553.2603,-195.1487 1828.8427,-165 1841.4075,-163.6254 1854.939,-161.3556 1867.2762,-158.9715"/>
<polygon fill="#191970" stroke="#191970" points="1868.1945,-162.3571 1877.3111,-156.9591 1866.8181,-155.4937 1868.1945,-162.3571"/>
</g>
<!-- Node24&#45;&gt;Node7 -->
<g id="edge40" class="edge">
<title>Node24&#45;&gt;Node7</title>
<path fill="none" stroke="#191970" d="M357.2505,-269.2067C290.4136,-255.1203 198.4405,-235.2438 195.8427,-232 187.2302,-221.2458 190.2141,-213.5756 195.8427,-201 214.1026,-160.2029 229.9322,-152.0045 270.8427,-134 357.7062,-95.7717 652.6469,-85.539 751.3556,-83.1523"/>
<polygon fill="#191970" stroke="#191970" points="751.6914,-86.6456 761.608,-82.9159 751.53,-79.6475 751.6914,-86.6456"/>
</g>
<!-- Node24&#45;&gt;Node10 -->
<g id="edge41" class="edge">
<title>Node24&#45;&gt;Node10</title>
<path fill="none" stroke="#191970" d="M389.7111,-268.4639C366.2816,-258.7137 335.5599,-245.9289 310.4526,-235.4805"/>
<polygon fill="#191970" stroke="#191970" points="311.709,-232.2125 301.1318,-231.6017 309.0195,-238.6752 311.709,-232.2125"/>
</g>
<!-- Node24&#45;&gt;Node16 -->
<g id="edge42" class="edge">
<title>Node24&#45;&gt;Node16</title>
<path fill="none" stroke="#191970" d="M494.6051,-269.1191C497.3821,-268.7093 500.1359,-268.3334 502.8427,-268 844.6314,-225.899 933.9465,-263.8468 1276.8427,-232 1289.8886,-230.7883 1303.7512,-229.1417 1317.0981,-227.3728"/>
<polygon fill="#191970" stroke="#191970" points="1317.745,-230.8171 1327.1821,-226.0014 1316.8016,-223.881 1317.745,-230.8171"/>
</g>
<!-- Node24&#45;&gt;Node21 -->
<g id="edge39" class="edge">
<title>Node24&#45;&gt;Node21</title>
<path fill="none" stroke="#191970" d="M405.7336,-268.2555C384.9133,-250.6853 357.8871,-221.5899 376.8427,-201 397.3718,-178.7009 857.2991,-156.0344 972.7418,-150.6822"/>
<polygon fill="#191970" stroke="#191970" points="972.9834,-154.1749 982.812,-150.2189 972.6616,-147.1823 972.9834,-154.1749"/>
</g>
<!-- Node25 -->
<g id="node26" class="node">
<title>Node25</title>
<g id="a_node26"><a xlink:title=" ">
<polygon fill="#ffffff" stroke="#bfbfbf" points="27.3427,-207 27.3427,-226 110.3427,-226 110.3427,-207 27.3427,-207"/>
<text text-anchor="middle" x="68.8427" y="-214" font-family="Helvetica,sans-Serif" font-size="10.00" fill="#000000">initializer_list</text>
</a>
</g>
</g>
<!-- Node24&#45;&gt;Node25 -->
<g id="edge37" class="edge">
<title>Node24&#45;&gt;Node25</title>
<path fill="none" stroke="#191970" d="M356.9648,-269.6726C353.8837,-269.0982 350.832,-268.5381 347.8427,-268 249.0366,-250.2133 222.9247,-253.4228 124.8427,-232 120.2199,-230.9903 115.4111,-229.8302 110.6396,-228.6088"/>
<polygon fill="#191970" stroke="#191970" points="111.5327,-225.2247 100.9696,-226.044 109.7381,-231.9908 111.5327,-225.2247"/>
</g>
<!-- Node26&#45;&gt;Node1 -->
<g id="edge46" class="edge">
<title>Node26&#45;&gt;Node1</title>
<path fill="none" stroke="#191970" d="M339.6618,-269.4947C342.4231,-268.9809 345.1581,-268.4807 347.8427,-268 452.1659,-249.3188 575.8295,-230.9064 637.2389,-222.0131"/>
<polygon fill="#191970" stroke="#191970" points="637.8586,-225.46 647.2559,-220.567 636.8583,-218.5318 637.8586,-225.46"/>
</g>
<!-- Node26&#45;&gt;Node2 -->
<g id="edge54" class="edge">
<title>Node26&#45;&gt;Node2</title>
<path fill="none" stroke="#191970" d="M339.7563,-296.6183C345.5351,-297.5576 351.2865,-298.3779 356.8427,-299 536.9262,-319.1621 1813.3425,-338.7877 2153.6651,-343.7833"/>
<polygon fill="#191970" stroke="#191970" points="2153.6486,-347.2833 2163.6989,-343.9303 2153.7513,-340.2841 2153.6486,-347.2833"/>
</g>
<!-- Node26&#45;&gt;Node7 -->
<g id="edge47" class="edge">
<title>Node26&#45;&gt;Node7</title>
<path fill="none" stroke="#191970" d="M202.2312,-279.0869C135.439,-273.1908 40.7425,-260.0308 17.8427,-232 9.1259,-221.3302 9.8207,-212.2015 17.8427,-201 71.6888,-125.8117 124.3753,-153.1923 214.8427,-134 318.7466,-111.9572 647.0444,-90.7514 751.5554,-84.41"/>
<polygon fill="#191970" stroke="#191970" points="752.0191,-87.8885 761.7904,-83.7933 751.5979,-80.9012 752.0191,-87.8885"/>
</g>
<!-- Node26&#45;&gt;Node9 -->
<g id="edge49" class="edge">
<title>Node26&#45;&gt;Node9</title>
<path fill="none" stroke="#191970" d="M202.1142,-279.6897C132.5899,-274.2285 32.016,-261.366 7.8427,-232 -21.2454,-196.6635 42.8598,-140.7709 51.8427,-134 131.7685,-73.7552 168.5259,-85.7455 266.8427,-67 383.6562,-44.7279 733.168,-26.0229 884.124,-18.7506"/>
<polygon fill="#191970" stroke="#191970" points="884.3888,-22.2421 894.2098,-18.2675 884.0538,-15.2501 884.3888,-22.2421"/>
</g>
<!-- Node26&#45;&gt;Node10 -->
<g id="edge50" class="edge">
<title>Node26&#45;&gt;Node10</title>
<path fill="none" stroke="#191970" d="M269.4812,-268.2967C268.7754,-260.4156 267.8951,-250.5857 267.0916,-241.6135"/>
<polygon fill="#191970" stroke="#191970" points="270.5769,-241.2911 266.1988,-231.6432 263.6048,-241.9155 270.5769,-241.2911"/>
</g>
<!-- Node26&#45;&gt;Node25 -->
<g id="edge45" class="edge">
<title>Node26&#45;&gt;Node25</title>
<path fill="none" stroke="#191970" d="M225.5099,-268.4639C189.8317,-256.63 140.6757,-240.3258 106.9945,-229.1543"/>
<polygon fill="#191970" stroke="#191970" points="108.0938,-225.8315 97.5004,-226.0053 105.89,-232.4756 108.0938,-225.8315"/>
</g>
<!-- Node27 -->
<g id="node28" class="node">
<title>Node27</title>
<g id="a_node28"><a xlink:title=" ">
<polygon fill="#ffffff" stroke="#bfbfbf" points="1887.3427,-207 1887.3427,-226 1980.3427,-226 1980.3427,-207 1887.3427,-207"/>
<text text-anchor="middle" x="1933.8427" y="-214" font-family="Helvetica,sans-Serif" font-size="10.00" fill="#000000">unordered_map</text>
</a>
</g>
</g>
<!-- Node26&#45;&gt;Node27 -->
<g id="edge48" class="edge">
<title>Node26&#45;&gt;Node27</title>
<path fill="none" stroke="#191970" d="M339.5993,-269.0705C342.3779,-268.6742 345.1336,-268.3143 347.8427,-268 838.587,-211.0567 965.0667,-248.0563 1458.8427,-232 1609.9564,-227.0862 1788.1111,-221.2653 1877.1689,-218.3535"/>
<polygon fill="#191970" stroke="#191970" points="1877.4409,-221.8466 1887.3211,-218.0216 1877.2121,-214.8503 1877.4409,-221.8466"/>
</g>
<!-- Node28 -->
<g id="node29" class="node">
<title>Node28</title>
<g id="a_node29"><a xlink:href="random_8h.html" target="_top" xlink:title=" ">
<polygon fill="#ffffff" stroke="#000000" points="874.8427,-207 874.8427,-226 1014.8427,-226 1014.8427,-207 874.8427,-207"/>
<text text-anchor="middle" x="944.8427" y="-214" font-family="Helvetica,sans-Serif" font-size="10.00" fill="#000000">drake/common/random.h</text>
</a>
</g>
</g>
<!-- Node26&#45;&gt;Node28 -->
<g id="edge51" class="edge">
<title>Node26&#45;&gt;Node28</title>
<path fill="none" stroke="#191970" d="M339.6233,-269.2555C342.3952,-268.808 345.143,-268.3869 347.8427,-268 445.356,-254.0247 725.3206,-232.5417 864.4184,-222.3077"/>
<polygon fill="#191970" stroke="#191970" points="864.8746,-225.7837 874.5915,-221.5608 864.362,-218.8025 864.8746,-225.7837"/>
</g>
<!-- Node28&#45;&gt;Node9 -->
<g id="edge53" class="edge">
<title>Node28&#45;&gt;Node9</title>
<path fill="none" stroke="#191970" d="M945.325,-206.8054C946.8136,-176.8853 951.3689,-85.3224 953.5937,-40.604"/>
<polygon fill="#191970" stroke="#191970" points="957.0922,-40.7204 954.0935,-30.5588 950.1008,-40.3725 957.0922,-40.7204"/>
</g>
<!-- Node29 -->
<g id="node30" class="node">
<title>Node29</title>
<g id="a_node30"><a xlink:title=" ">
<polygon fill="#ffffff" stroke="#bfbfbf" points="1626.8427,-140 1626.8427,-159 1680.8427,-159 1680.8427,-140 1626.8427,-140"/>
<text text-anchor="middle" x="1653.8427" y="-147" font-family="Helvetica,sans-Serif" font-size="10.00" fill="#000000">random</text>
</a>
</g>
</g>
<!-- Node28&#45;&gt;Node29 -->
<g id="edge52" class="edge">
<title>Node28&#45;&gt;Node29</title>
<path fill="none" stroke="#191970" d="M1014.9671,-210.7813C1051.5817,-207.8174 1097.1235,-204.1652 1137.8427,-201 1350.6899,-184.4547 1409.2642,-214.8885 1616.8427,-165 1619.4815,-164.3658 1622.1743,-163.5655 1624.8435,-162.6644"/>
<polygon fill="#191970" stroke="#191970" points="1626.1682,-165.9052 1634.2683,-159.0759 1623.6773,-159.3634 1626.1682,-165.9052"/>
</g>
<!-- Node30&#45;&gt;Node1 -->
<g id="edge62" class="edge">
<title>Node30&#45;&gt;Node1</title>
<path fill="none" stroke="#191970" d="M2168.0771,-280.353C2096.193,-277.1012 1980.1104,-271.9565 1879.8427,-268 1429.2427,-250.2195 1316.0234,-258.3401 865.8427,-232 813.4459,-228.9343 753.0516,-223.7185 714.6768,-220.1931"/>
<polygon fill="#191970" stroke="#191970" points="714.7423,-216.6842 704.462,-219.2467 714.0965,-223.6544 714.7423,-216.6842"/>
</g>
<!-- Node30&#45;&gt;Node2 -->
<g id="edge96" class="edge">
<title>Node30&#45;&gt;Node2</title>
<path fill="none" stroke="#191970" d="M2242.7398,-298.5446C2243.7019,-306.6241 2243.85,-316.681 2243.1841,-325.3693"/>
<polygon fill="#191970" stroke="#191970" points="2239.6993,-325.028 2241.9052,-335.3906 2246.643,-325.9142 2239.6993,-325.028"/>
</g>
<!-- Node30&#45;&gt;Node4 -->
<g id="edge57" class="edge">
<title>Node30&#45;&gt;Node4</title>
<path fill="none" stroke="#191970" d="M2168.1812,-275.9084C2124.591,-268.9814 2068.0783,-255.9958 2022.8427,-232 2004.7777,-222.4172 2007.5313,-209.3011 1988.8427,-201 1837.4428,-133.751 1778.2881,-206.2505 1617.8427,-165 1615.5072,-164.3996 1613.1285,-163.6683 1610.7633,-162.854"/>
<polygon fill="#191970" stroke="#191970" points="1611.8501,-159.5214 1601.2614,-159.1612 1609.3143,-166.046 1611.8501,-159.5214"/>
</g>
<!-- Node30&#45;&gt;Node5 -->
<g id="edge58" class="edge">
<title>Node30&#45;&gt;Node5</title>
<path fill="none" stroke="#191970" d="M2203.4475,-268.4633C2183.5341,-258.9742 2158.0785,-245.9111 2136.8427,-232 2118.6104,-220.0565 2118.3513,-210.7198 2098.8427,-201 2038.6374,-171.0038 2016.1646,-184.6758 1951.8427,-165 1949.2831,-164.217 1946.6522,-163.3643 1944.0154,-162.4746"/>
<polygon fill="#191970" stroke="#191970" points="1945.1526,-159.1645 1934.5578,-159.1501 1942.8312,-165.7683 1945.1526,-159.1645"/>
</g>
<!-- Node30&#45;&gt;Node6 -->
<g id="edge61" class="edge">
<title>Node30&#45;&gt;Node6</title>
<path fill="none" stroke="#191970" d="M2305.5848,-280.4492C2423.8188,-274.4912 2655.4163,-259.4305 2679.8427,-232 2708.5088,-199.8083 2653.5991,-141.7855 2640.8427,-134 2638.2743,-132.4325 1879.1597,-93.79 1696.1801,-84.4963"/>
<polygon fill="#191970" stroke="#191970" points="1696.1061,-80.9882 1685.9415,-83.9764 1695.751,-87.9792 1696.1061,-80.9882"/>
</g>
<!-- Node30&#45;&gt;Node7 -->
<g id="edge64" class="edge">
<title>Node30&#45;&gt;Node7</title>
<path fill="none" stroke="#191970" d="M2233.819,-268.2998C2229.6407,-250.5059 2220.6393,-220.9384 2203.8427,-201 2167.206,-157.5105 2149.2475,-150.5438 2094.8427,-134 1969.1821,-95.7881 1005.7607,-84.6268 816.1719,-82.7909"/>
<polygon fill="#191970" stroke="#191970" points="816.0501,-79.2897 806.0172,-82.6944 815.9835,-86.2894 816.0501,-79.2897"/>
</g>
<!-- Node30&#45;&gt;Node8 -->
<g id="edge69" class="edge">
<title>Node30&#45;&gt;Node8</title>
<path fill="none" stroke="#191970" d="M2228.8722,-268.4782C2218.5608,-250.3069 2199.0193,-219.8188 2174.8427,-201 2151.5383,-182.8601 2120.9173,-170.0108 2096.0583,-161.6836"/>
<polygon fill="#191970" stroke="#191970" points="2097.0853,-158.3374 2086.4938,-158.6048 2094.9403,-165.0007 2097.0853,-158.3374"/>
</g>
<!-- Node30&#45;&gt;Node9 -->
<g id="edge76" class="edge">
<title>Node30&#45;&gt;Node9</title>
<path fill="none" stroke="#191970" d="M2252.5116,-268.3979C2261.2154,-258.8856 2271.2,-245.8211 2275.8427,-232 2282.1496,-213.2245 2279.3437,-144.3421 2271.8427,-134 2259.9223,-117.5648 2121.699,-71.2353 2101.8427,-67 1997.0327,-44.6444 1258.8932,-23.5057 1025.4449,-17.3154"/>
<polygon fill="#191970" stroke="#191970" points="1025.4607,-13.8147 1015.3717,-17.0493 1025.2758,-20.8122 1025.4607,-13.8147"/>
</g>
<!-- Node30&#45;&gt;Node10 -->
<g id="edge80" class="edge">
<title>Node30&#45;&gt;Node10</title>
<path fill="none" stroke="#191970" d="M2168.0821,-280.2203C2096.2021,-276.8608 1980.1227,-271.6301 1879.8427,-268 1327.9723,-248.0225 1189.7314,-251.4645 637.8427,-232 532.3665,-228.28 410.1535,-223.0209 335.1738,-219.686"/>
<polygon fill="#191970" stroke="#191970" points="335.06,-216.1776 324.914,-219.2286 334.7481,-223.1706 335.06,-216.1776"/>
</g>
<!-- Node30&#45;&gt;Node11 -->
<g id="edge67" class="edge">
<title>Node30&#45;&gt;Node11</title>
<path fill="none" stroke="#191970" d="M2305.5679,-283.0305C2470.3586,-281.2516 2877.7099,-272.737 2922.8427,-232 2978.7554,-181.533 2959.0221,-78.1286 2947.6191,-35.0322"/>
<polygon fill="#191970" stroke="#191970" points="2950.9418,-33.9169 2944.886,-25.2234 2944.1986,-35.7959 2950.9418,-33.9169"/>
</g>
<!-- Node30&#45;&gt;Node14 -->
<g id="edge75" class="edge">
<title>Node30&#45;&gt;Node14</title>
<path fill="none" stroke="#191970" d="M2244.4304,-268.4193C2258.0031,-239.0645 2282.2241,-173.6587 2250.8427,-134 2232.6026,-110.9488 2159.8849,-97.1632 2103.3906,-89.7385"/>
<polygon fill="#191970" stroke="#191970" points="2103.7669,-86.2582 2093.4054,-88.4692 2102.8842,-93.2023 2103.7669,-86.2582"/>
</g>
<!-- Node30&#45;&gt;Node15 -->
<g id="edge65" class="edge">
<title>Node30&#45;&gt;Node15</title>
<path fill="none" stroke="#191970" d="M2282.9969,-268.4044C2299.8711,-260.3939 2317.1793,-248.6632 2326.8427,-232 2348.6931,-194.3218 2350.0606,-170.8512 2326.8427,-134 2299.1752,-90.0865 2152.663,-46.5509 2077.4633,-26.6776"/>
<polygon fill="#191970" stroke="#191970" points="2077.9055,-23.1757 2067.3454,-24.0329 2076.1352,-29.9482 2077.9055,-23.1757"/>
</g>
<!-- Node30&#45;&gt;Node16 -->
<g id="edge94" class="edge">
<title>Node30&#45;&gt;Node16</title>
<path fill="none" stroke="#191970" d="M2168.0846,-278.0739C2010.1927,-265.6136 1622.841,-235.0452 1460.8863,-222.2643"/>
<polygon fill="#191970" stroke="#191970" points="1460.7938,-218.7462 1450.5494,-221.4486 1460.243,-225.7245 1460.7938,-218.7462"/>
</g>
<!-- Node30&#45;&gt;Node19 -->
<g id="edge60" class="edge">
<title>Node30&#45;&gt;Node19</title>
<path fill="none" stroke="#191970" d="M2218.2996,-268.1213C2189.7057,-244.4181 2137.9962,-201.602 2136.8427,-201 2084.0719,-173.4617 2062.9227,-187.5678 2007.8427,-165 2006.8144,-164.5787 2005.7759,-164.1286 2004.735,-163.6568"/>
<polygon fill="#191970" stroke="#191970" points="2006.022,-160.3862 1995.5162,-159.0154 2002.8741,-166.6385 2006.022,-160.3862"/>
</g>
<!-- Node30&#45;&gt;Node22 -->
<g id="edge68" class="edge">
<title>Node30&#45;&gt;Node22</title>
<path fill="none" stroke="#191970" d="M2305.4696,-281.3899C2435.1275,-276.6924 2705.6861,-263.2249 2733.8427,-232 2763.0108,-199.6533 2756.2064,-171.3758 2733.8427,-134 2729.9987,-127.5757 2694.1874,-109.3981 2667.4217,-96.4631"/>
<polygon fill="#191970" stroke="#191970" points="2668.9289,-93.3043 2658.3989,-92.1344 2665.901,-99.6156 2668.9289,-93.3043"/>
</g>
<!-- Node30&#45;&gt;Node23 -->
<g id="edge77" class="edge">
<title>Node30&#45;&gt;Node23</title>
<path fill="none" stroke="#191970" d="M2184.581,-268.4831C2157.9814,-259.7417 2125.6838,-247.3945 2098.8427,-232 2079.9358,-221.1561 2080.6827,-210.0241 2060.8427,-201 2040.2273,-191.6232 1913.0308,-171.8197 1830.7178,-159.686"/>
<polygon fill="#191970" stroke="#191970" points="1831.0659,-156.1997 1820.6634,-158.2091 1830.0486,-163.1254 1831.0659,-156.1997"/>
</g>
<!-- Node30&#45;&gt;Node27 -->
<g id="edge66" class="edge">
<title>Node30&#45;&gt;Node27</title>
<path fill="none" stroke="#191970" d="M2168.0989,-269.6175C2119.5746,-259.636 2053.0921,-245.5931 1994.8427,-232 1990.1673,-230.909 1985.2999,-229.7358 1980.4442,-228.541"/>
<polygon fill="#191970" stroke="#191970" points="1981.1083,-225.0995 1970.5587,-226.0771 1979.4153,-231.8917 1981.1083,-225.0995"/>
</g>
<!-- Node30&#45;&gt;Node28 -->
<g id="edge95" class="edge">
<title>Node30&#45;&gt;Node28</title>
<path fill="none" stroke="#191970" d="M2168.0151,-280.4086C1943.3685,-270.2999 1240.1239,-238.5018 1137.8427,-232 1100.7449,-229.6418 1059.6841,-226.4286 1025.0064,-223.5392"/>
<polygon fill="#191970" stroke="#191970" points="1025.1912,-220.0425 1014.9336,-222.6942 1024.6059,-227.018 1025.1912,-220.0425"/>
</g>
<!-- Node30&#45;&gt;Node29 -->
<g id="edge63" class="edge">
<title>Node30&#45;&gt;Node29</title>
<path fill="none" stroke="#191970" d="M2167.9571,-270.0957C2134.4165,-261.91 2094.2276,-249.5711 2060.8427,-232 2041.5551,-221.8486 2042.9519,-209.4072 2022.8427,-201 1885.5001,-143.5802 1833.8111,-202.8563 1689.8427,-165 1687.5105,-164.3868 1685.1342,-163.6463 1682.7707,-162.8256"/>
<polygon fill="#191970" stroke="#191970" points="1683.8603,-159.4938 1673.272,-159.1202 1681.3163,-166.0152 1683.8603,-159.4938"/>
</g>
<!-- Node31 -->
<g id="node32" class="node">
<title>Node31</title>
<g id="a_node32"><a xlink:title=" ">
<polygon fill="#ffffff" stroke="#bfbfbf" points="2969.8427,-207 2969.8427,-226 3033.8427,-226 3033.8427,-207 2969.8427,-207"/>
<text text-anchor="middle" x="3001.8427" y="-214" font-family="Helvetica,sans-Serif" font-size="10.00" fill="#000000">algorithm</text>
</a>
</g>
</g>
<!-- Node30&#45;&gt;Node31 -->
<g id="edge56" class="edge">
<title>Node30&#45;&gt;Node31</title>
<path fill="none" stroke="#191970" d="M2305.3585,-280.8083C2460.0802,-274.3706 2832.6111,-256.7567 2955.8427,-232 2959.7285,-231.2194 2963.7391,-230.2024 2967.6975,-229.0623"/>
<polygon fill="#191970" stroke="#191970" points="2968.836,-232.3734 2977.3288,-226.0391 2966.7395,-225.6947 2968.836,-232.3734"/>
</g>
<!-- Node32 -->
<g id="node33" class="node">
<title>Node32</title>
<g id="a_node33"><a xlink:title=" ">
<polygon fill="#ffffff" stroke="#bfbfbf" points="2587.8427,-140 2587.8427,-159 2631.8427,-159 2631.8427,-140 2587.8427,-140"/>
<text text-anchor="middle" x="2609.8427" y="-147" font-family="Helvetica,sans-Serif" font-size="10.00" fill="#000000">limits</text>
</a>
</g>
</g>
<!-- Node30&#45;&gt;Node32 -->
<g id="edge59" class="edge">
<title>Node30&#45;&gt;Node32</title>
<path fill="none" stroke="#191970" d="M2305.6734,-280.101C2420.1773,-273.7352 2639.5867,-258.2368 2662.8427,-232 2681.567,-210.8757 2653.7994,-182.5045 2631.9117,-165.1368"/>
<polygon fill="#191970" stroke="#191970" points="2633.9981,-162.3263 2623.9202,-159.0573 2629.7599,-167.8975 2633.9981,-162.3263"/>
</g>
<!-- Node33 -->
<g id="node34" class="node">
<title>Node33</title>
<g id="a_node34"><a xlink:title=" ">
<polygon fill="#ffffff" stroke="#bfbfbf" points="3051.8427,-207 3051.8427,-226 3131.8427,-226 3131.8427,-207 3051.8427,-207"/>
<text text-anchor="middle" x="3091.8427" y="-214" font-family="Helvetica,sans-Serif" font-size="10.00" fill="#000000">Eigen/Sparse</text>
</a>
</g>
</g>
<!-- Node30&#45;&gt;Node33 -->
<g id="edge70" class="edge">
<title>Node30&#45;&gt;Node33</title>
<path fill="none" stroke="#191970" d="M2305.3893,-281.2573C2473.3902,-275.4166 2902.1791,-258.3366 3042.8427,-232 3047.0852,-231.2057 3051.474,-230.1581 3055.8023,-228.9813"/>
<polygon fill="#191970" stroke="#191970" points="3057.0958,-232.2488 3065.6947,-226.0594 3055.1128,-225.5355 3057.0958,-232.2488"/>
</g>
<!-- Node34 -->
<g id="node35" class="node">
<title>Node34</title>
<g id="a_node35"><a xlink:href="cond_8h.html" target="_top" xlink:title=" ">
<polygon fill="#ffffff" stroke="#000000" points="2379.3427,-207 2379.3427,-226 2504.3427,-226 2504.3427,-207 2379.3427,-207"/>
<text text-anchor="middle" x="2441.8427" y="-214" font-family="Helvetica,sans-Serif" font-size="10.00" fill="#000000">drake/common/cond.h</text>
</a>
</g>
</g>
<!-- Node30&#45;&gt;Node34 -->
<g id="edge71" class="edge">
<title>Node30&#45;&gt;Node34</title>
<path fill="none" stroke="#191970" d="M2282.8487,-268.4639C2319.0568,-256.63 2368.9428,-240.3258 2403.1243,-229.1543"/>
<polygon fill="#191970" stroke="#191970" points="2404.3414,-232.4388 2412.7593,-226.0053 2402.1668,-225.7851 2404.3414,-232.4388"/>
</g>
<!-- Node36 -->
<g id="node37" class="node">
<title>Node36</title>
<g id="a_node37"><a xlink:href="dummy__value_8h.html" target="_top" xlink:title=" ">
<polygon fill="#ffffff" stroke="#000000" points="2522.3427,-201.5 2522.3427,-231.5 2653.3427,-231.5 2653.3427,-201.5 2522.3427,-201.5"/>
<text text-anchor="start" x="2530.3427" y="-219.5" font-family="Helvetica,sans-Serif" font-size="10.00" fill="#000000">drake/common/dummy</text>
<text text-anchor="middle" x="2587.8427" y="-208.5" font-family="Helvetica,sans-Serif" font-size="10.00" fill="#000000">_value.h</text>
</a>
</g>
</g>
<!-- Node30&#45;&gt;Node36 -->
<g id="edge78" class="edge">
<title>Node30&#45;&gt;Node36</title>
<path fill="none" stroke="#191970" d="M2305.5347,-271.0633C2359.0175,-261.2925 2435.392,-247.1491 2511.7275,-232.1992"/>
<polygon fill="#191970" stroke="#191970" points="2512.8687,-235.542 2522.0071,-230.181 2511.5201,-228.6732 2512.8687,-235.542"/>
</g>
<!-- Node37 -->
<g id="node38" class="node">
<title>Node37</title>
<g id="a_node38"><a xlink:href="extract__double_8h.html" target="_top" xlink:title=" ">
<polygon fill="#ffffff" stroke="#000000" points="2785.8427,-201.5 2785.8427,-231.5 2913.8427,-231.5 2913.8427,-201.5 2785.8427,-201.5"/>
<text text-anchor="start" x="2793.8427" y="-219.5" font-family="Helvetica,sans-Serif" font-size="10.00" fill="#000000">drake/common/extract</text>
<text text-anchor="middle" x="2849.8427" y="-208.5" font-family="Helvetica,sans-Serif" font-size="10.00" fill="#000000">_double.h</text>
</a>
</g>
</g>
<!-- Node30&#45;&gt;Node37 -->
<g id="edge81" class="edge">
<title>Node30&#45;&gt;Node37</title>
<path fill="none" stroke="#191970" d="M2305.5154,-279.1005C2407.5877,-272.0618 2605.2093,-256.5138 2771.8427,-232 2773.1104,-231.8135 2774.3888,-231.6201 2775.6753,-231.4207"/>
<polygon fill="#191970" stroke="#191970" points="2776.356,-234.8559 2785.658,-229.7842 2775.2235,-227.9481 2776.356,-234.8559"/>
</g>
<!-- Node34&#45;&gt;Node5 -->
<g id="edge72" class="edge">
<title>Node34&#45;&gt;Node5</title>
<path fill="none" stroke="#191970" d="M2379.1383,-214.8839C2285.1365,-211.3491 2102.6201,-200.1651 1951.8427,-165 1948.6636,-164.2586 1945.3972,-163.3432 1942.1576,-162.3309"/>
<polygon fill="#191970" stroke="#191970" points="1943.2283,-158.9982 1932.6338,-159.0805 1940.9672,-165.623 1943.2283,-158.9982"/>
</g>
<!-- Node34&#45;&gt;Node15 -->
<g id="edge73" class="edge">
<title>Node34&#45;&gt;Node15</title>
<path fill="none" stroke="#191970" d="M2434.8132,-206.9344C2427.5519,-196.8181 2416.1407,-180.244 2407.8427,-165 2385.1022,-123.2245 2402.5456,-95.9968 2364.8427,-67 2320.7044,-33.0539 2157.7339,-21.0965 2077.7352,-17.2109"/>
<polygon fill="#191970" stroke="#191970" points="2077.6314,-13.7024 2067.4799,-16.7351 2077.3069,-20.6949 2077.6314,-13.7024"/>
</g>
<!-- Node35 -->
<g id="node36" class="node">
<title>Node35</title>
<g id="a_node36"><a xlink:href="double__overloads_8h.html" target="_top" xlink:title="Provides necessary operations on double to have it as a ScalarType in drake.">
<polygon fill="#ffffff" stroke="#000000" points="2416.8427,-134.5 2416.8427,-164.5 2542.8427,-164.5 2542.8427,-134.5 2416.8427,-134.5"/>
<text text-anchor="start" x="2424.8427" y="-152.5" font-family="Helvetica,sans-Serif" font-size="10.00" fill="#000000">drake/common/double</text>
<text text-anchor="middle" x="2479.8427" y="-141.5" font-family="Helvetica,sans-Serif" font-size="10.00" fill="#000000">_overloads.h</text>
</a>
</g>
</g>
<!-- Node34&#45;&gt;Node35 -->
<g id="edge74" class="edge">
<title>Node34&#45;&gt;Node35</title>
<path fill="none" stroke="#191970" d="M2447.2871,-206.9005C2452.2423,-198.1638 2459.7641,-184.9018 2466.3297,-173.3256"/>
<polygon fill="#191970" stroke="#191970" points="2469.4338,-174.9468 2471.3229,-164.5218 2463.345,-171.4934 2469.4338,-174.9468"/>
</g>
<!-- Node36&#45;&gt;Node32 -->
<g id="edge79" class="edge">
<title>Node36&#45;&gt;Node32</title>
<path fill="none" stroke="#191970" d="M2592.8348,-201.2967C2595.9963,-191.6685 2600.1128,-179.1318 2603.5041,-168.8038"/>
<polygon fill="#191970" stroke="#191970" points="2606.9108,-169.6478 2606.7052,-159.055 2600.2601,-167.464 2606.9108,-169.6478"/>
</g>
<!-- Node38 -->
<g id="node39" class="node">
<title>Node38</title>
<g id="a_node39"><a xlink:title=" ">
<polygon fill="#ffffff" stroke="#bfbfbf" points="3045.3427,-140 3045.3427,-159 3110.3427,-159 3110.3427,-140 3045.3427,-140"/>
<text text-anchor="middle" x="3077.8427" y="-147" font-family="Helvetica,sans-Serif" font-size="10.00" fill="#000000">stdexcept</text>
</a>
</g>
</g>
<!-- Node37&#45;&gt;Node38 -->
<g id="edge82" class="edge">
<title>Node37&#45;&gt;Node38</title>
<path fill="none" stroke="#191970" d="M2901.0103,-201.4639C2941.6265,-189.5284 2997.7174,-173.0456 3035.7553,-161.8678"/>
<polygon fill="#191970" stroke="#191970" points="3036.8888,-165.1828 3045.4963,-159.0053 3034.9152,-158.4667 3036.8888,-165.1828"/>
</g>
<!-- Node39 -->
<g id="node40" class="node">
<title>Node39</title>
<g id="a_node40"><a xlink:href="nice__type__name_8h.html" target="_top" xlink:title=" ">
<polygon fill="#ffffff" stroke="#000000" points="2785.8427,-134.5 2785.8427,-164.5 2925.8427,-164.5 2925.8427,-134.5 2785.8427,-134.5"/>
<text text-anchor="start" x="2793.8427" y="-152.5" font-family="Helvetica,sans-Serif" font-size="10.00" fill="#000000">drake/common/nice_type</text>
<text text-anchor="middle" x="2855.8427" y="-141.5" font-family="Helvetica,sans-Serif" font-size="10.00" fill="#000000">_name.h</text>
</a>
</g>
</g>
<!-- Node37&#45;&gt;Node39 -->
<g id="edge83" class="edge">
<title>Node37&#45;&gt;Node39</title>
<path fill="none" stroke="#191970" d="M2851.2042,-201.2967C2851.9099,-193.4156 2852.7902,-183.5857 2853.5937,-174.6135"/>
<polygon fill="#191970" stroke="#191970" points="2857.0806,-174.9155 2854.4866,-164.6432 2850.1085,-174.2911 2857.0806,-174.9155"/>
</g>
<!-- Node39&#45;&gt;Node6 -->
<g id="edge84" class="edge">
<title>Node39&#45;&gt;Node6</title>
<path fill="none" stroke="#191970" d="M2785.6255,-139.6074C2768.6976,-137.4914 2750.6467,-135.4574 2733.8427,-134 2392.0857,-104.3588 2305.4771,-114.677 1962.8427,-98 1867.0599,-93.338 1754.4291,-87.5553 1696.1801,-84.5424"/>
<polygon fill="#191970" stroke="#191970" points="1696.1206,-81.0347 1685.953,-84.0129 1695.7586,-88.0253 1696.1206,-81.0347"/>
</g>
<!-- Node39&#45;&gt;Node7 -->
<g id="edge85" class="edge">
<title>Node39&#45;&gt;Node7</title>
<path fill="none" stroke="#191970" d="M2785.8315,-141.6519C2757.875,-138.7968 2725.3686,-135.8256 2695.8427,-134 2308.5975,-110.0567 1035.1869,-86.9137 816.0801,-83.0602"/>
<polygon fill="#191970" stroke="#191970" points="815.9539,-79.5575 805.8941,-82.8816 815.8312,-86.5564 815.9539,-79.5575"/>
</g>
<!-- Node39&#45;&gt;Node11 -->
<g id="edge87" class="edge">
<title>Node39&#45;&gt;Node11</title>
<path fill="none" stroke="#191970" d="M2865.5408,-134.389C2881.4249,-109.6393 2912.9303,-60.5495 2930.0698,-33.8438"/>
<polygon fill="#191970" stroke="#191970" points="2933.2231,-35.4105 2935.6788,-25.1042 2927.332,-31.6296 2933.2231,-35.4105"/>
</g>
<!-- Node39&#45;&gt;Node22 -->
<g id="edge88" class="edge">
<title>Node39&#45;&gt;Node22</title>
<path fill="none" stroke="#191970" d="M2791.6429,-134.4519C2755.6577,-125.3177 2710.2264,-112.6136 2670.8427,-98 2669.2515,-97.4096 2667.6317,-96.7728 2666.0066,-96.1059"/>
<polygon fill="#191970" stroke="#191970" points="2667.3691,-92.8817 2656.8054,-92.069 2664.5566,-99.2919 2667.3691,-92.8817"/>
</g>
<!-- Node40 -->
<g id="node41" class="node">
<title>Node40</title>
<g id="a_node41"><a xlink:title=" ">
<polygon fill="#ffffff" stroke="#bfbfbf" points="2818.3427,-73 2818.3427,-92 2875.3427,-92 2875.3427,-73 2818.3427,-73"/>
<text text-anchor="middle" x="2846.8427" y="-80" font-family="Helvetica,sans-Serif" font-size="10.00" fill="#000000">typeinfo</text>
</a>
</g>
</g>
<!-- Node39&#45;&gt;Node40 -->
<g id="edge86" class="edge">
<title>Node39&#45;&gt;Node40</title>
<path fill="none" stroke="#191970" d="M2853.8004,-134.2967C2852.5207,-124.7699 2850.8585,-112.3954 2849.4796,-102.1306"/>
<polygon fill="#191970" stroke="#191970" points="2852.9264,-101.5 2848.1262,-92.055 2845.9887,-102.4319 2852.9264,-101.5"/>
</g>
<!-- Node41 -->
<g id="node42" class="node">
<title>Node41</title>
<g id="a_node42"><a xlink:href="never__destroyed_8h.html" target="_top" xlink:title=" ">
<polygon fill="#ffffff" stroke="#000000" points="2679.3427,-67.5 2679.3427,-97.5 2800.3427,-97.5 2800.3427,-67.5 2679.3427,-67.5"/>
<text text-anchor="start" x="2687.3427" y="-85.5" font-family="Helvetica,sans-Serif" font-size="10.00" fill="#000000">drake/common/never</text>
<text text-anchor="middle" x="2739.8427" y="-74.5" font-family="Helvetica,sans-Serif" font-size="10.00" fill="#000000">_destroyed.h</text>
</a>
</g>
</g>
<!-- Node39&#45;&gt;Node41 -->
<g id="edge89" class="edge">
<title>Node39&#45;&gt;Node41</title>
<path fill="none" stroke="#191970" d="M2829.81,-134.4639C2813.6553,-125.1332 2792.6889,-113.0232 2775.0607,-102.8415"/>
<polygon fill="#191970" stroke="#191970" points="2776.5997,-99.6885 2766.1898,-97.7177 2773.0986,-105.7501 2776.5997,-99.6885"/>
</g>
<!-- Node41&#45;&gt;Node9 -->
<g id="edge93" class="edge">
<title>Node41&#45;&gt;Node9</title>
<path fill="none" stroke="#191970" d="M2679.001,-68.1711C2676.2514,-67.7325 2673.5225,-67.3381 2670.8427,-67 2506.1826,-46.2283 1329.0466,-22.6164 1025.8993,-16.8306"/>
<polygon fill="#191970" stroke="#191970" points="1025.5521,-13.3235 1015.4872,-16.6324 1025.4187,-20.3222 1025.5521,-13.3235"/>
</g>
<!-- Node41&#45;&gt;Node11 -->
<g id="edge92" class="edge">
<title>Node41&#45;&gt;Node11</title>
<path fill="none" stroke="#191970" d="M2785.1754,-67.4639C2822.9143,-54.9465 2875.7326,-37.4276 2909.3663,-26.2719"/>
<polygon fill="#191970" stroke="#191970" points="2910.7608,-29.4969 2919.1504,-23.0266 2908.557,-22.8528 2910.7608,-29.4969"/>
</g>
<!-- Node41&#45;&gt;Node15 -->
<g id="edge91" class="edge">
<title>Node41&#45;&gt;Node15</title>
<path fill="none" stroke="#191970" d="M2678.9774,-68.3406C2676.2342,-67.8561 2673.5131,-67.4057 2670.8427,-67 2449.9136,-33.4385 2182.399,-20.8258 2077.8101,-16.9593"/>
<polygon fill="#191970" stroke="#191970" points="2077.739,-13.4546 2067.6192,-16.5914 2077.4864,-20.45 2077.739,-13.4546"/>
</g>
<!-- Node42 -->
<g id="node43" class="node">
<title>Node42</title>
<g id="a_node43"><a xlink:title=" ">
<polygon fill="#ffffff" stroke="#bfbfbf" points="2721.3427,-6 2721.3427,-25 2758.3427,-25 2758.3427,-6 2721.3427,-6"/>
<text text-anchor="middle" x="2739.8427" y="-13" font-family="Helvetica,sans-Serif" font-size="10.00" fill="#000000">new</text>
</a>
</g>
</g>
<!-- Node41&#45;&gt;Node42 -->
<g id="edge90" class="edge">
<title>Node41&#45;&gt;Node42</title>
<path fill="none" stroke="#191970" d="M2739.8427,-67.2967C2739.8427,-57.7699 2739.8427,-45.3954 2739.8427,-35.1306"/>
<polygon fill="#191970" stroke="#191970" points="2743.3428,-35.0549 2739.8427,-25.055 2736.3428,-35.055 2743.3428,-35.0549"/>
</g>
<!-- Node43&#45;&gt;Node2 -->
<g id="edge101" class="edge">
<title>Node43&#45;&gt;Node2</title>
<path fill="none" stroke="#191970" d="M3749.8421,-231.6568C3745.2077,-251.1885 3729.1751,-284.3682 3702.8427,-299 3642.3785,-332.5974 2622.2664,-342.3605 2320.337,-344.4938"/>
<polygon fill="#191970" stroke="#191970" points="2319.8775,-340.9969 2309.9021,-344.5665 2319.9263,-347.9967 2319.8775,-340.9969"/>
</g>
<!-- Node43&#45;&gt;Node11 -->
<g id="edge99" class="edge">
<title>Node43&#45;&gt;Node11</title>
<path fill="none" stroke="#191970" d="M3745.5072,-201.347C3737.7248,-170.0206 3715.1581,-98.4358 3665.8427,-67 3607.0011,-29.4918 3107.968,-18.3358 2974.5373,-16.0102"/>
<polygon fill="#191970" stroke="#191970" points="2974.5752,-12.5105 2964.5173,-15.8404 2974.4565,-19.5094 2974.5752,-12.5105"/>
</g>
<!-- Node43&#45;&gt;Node14 -->
<g id="edge100" class="edge">
<title>Node43&#45;&gt;Node14</title>
<path fill="none" stroke="#191970" d="M3680.1736,-205.5912C3564.7632,-187.6852 3324.4368,-152.2322 3119.8427,-134 2737.2237,-99.9032 2276.6918,-87.4814 2103.3705,-83.8132"/>
<polygon fill="#191970" stroke="#191970" points="2103.4283,-80.3137 2093.3575,-83.6043 2103.2823,-87.3122 2103.4283,-80.3137"/>
</g>
<!-- Node43&#45;&gt;Node38 -->
<g id="edge98" class="edge">
<title>Node43&#45;&gt;Node38</title>
<path fill="none" stroke="#191970" d="M3680.103,-207.282C3663.0404,-205.1077 3644.7877,-202.8781 3627.8427,-201 3438.9995,-180.0695 3213.0479,-160.6913 3120.5212,-152.9981"/>
<polygon fill="#191970" stroke="#191970" points="3120.6827,-149.4996 3110.4277,-152.1613 3120.1043,-156.4756 3120.6827,-149.4996"/>
</g>
<!-- Node44&#45;&gt;Node8 -->
<g id="edge103" class="edge">
<title>Node44&#45;&gt;Node8</title>
<path fill="none" stroke="#191970" d="M3500.5262,-268.4924C3536.8714,-252.6491 3581.5422,-226.4855 3556.8427,-201 3512.3963,-155.1392 2471.6626,-167.389 2407.8427,-165 2295.9078,-160.8098 2164.2245,-154.7931 2096.7228,-151.6297"/>
<polygon fill="#191970" stroke="#191970" points="2096.6064,-148.1205 2086.4532,-151.1472 2096.2779,-155.1128 2096.6064,-148.1205"/>
</g>
<!-- Node45&#45;&gt;Node1 -->
<g id="edge107" class="edge">
<title>Node45&#45;&gt;Node1</title>
<path fill="none" stroke="#191970" d="M1562.2451,-279.2093C1428.3265,-270.7603 1122.7057,-251.1224 865.8427,-232 813.5011,-228.1034 753.0936,-223.0862 714.7008,-219.8322"/>
<polygon fill="#191970" stroke="#191970" points="714.7414,-216.3231 704.4809,-218.9635 714.1485,-223.2979 714.7414,-216.3231"/>
</g>
<!-- Node45&#45;&gt;Node2 -->
<g id="edge112" class="edge">
<title>Node45&#45;&gt;Node2</title>
<path fill="none" stroke="#191970" d="M1699.5044,-294.0442C1710.9976,-295.8479 1722.7675,-297.5913 1733.8427,-299 1881.2784,-317.7527 2053.5572,-331.5733 2153.4907,-338.9431"/>
<polygon fill="#191970" stroke="#191970" points="2153.2976,-342.4382 2163.5269,-339.6795 2153.8099,-335.457 2153.2976,-342.4382"/>
</g>
<!-- Node45&#45;&gt;Node4 -->
<g id="edge105" class="edge">
<title>Node45&#45;&gt;Node4</title>
<path fill="none" stroke="#191970" d="M1584.6885,-268.4044C1567.8142,-260.3939 1550.506,-248.6632 1540.8427,-232 1528.0862,-210.0031 1546.987,-183.509 1563.1447,-166.5874"/>
<polygon fill="#191970" stroke="#191970" points="1566.0558,-168.631 1570.7055,-159.111 1561.1339,-163.6535 1566.0558,-168.631"/>
</g>
<!-- Node45&#45;&gt;Node8 -->
<g id="edge109" class="edge">
<title>Node45&#45;&gt;Node8</title>
<path fill="none" stroke="#191970" d="M1659.52,-268.3726C1695.5543,-249.9506 1759.7298,-219.0639 1817.8427,-201 1899.9159,-175.4883 1924.8506,-187.3424 2007.8427,-165 2010.9709,-164.1578 2014.1958,-163.2004 2017.4107,-162.1844"/>
<polygon fill="#191970" stroke="#191970" points="2018.5381,-165.498 2026.9192,-159.0167 2016.3256,-158.8568 2018.5381,-165.498"/>
</g>
<!-- Node45&#45;&gt;Node9 -->
<g id="edge110" class="edge">
<title>Node45&#45;&gt;Node9</title>
<path fill="none" stroke="#191970" d="M1562.3128,-276.386C1483.3209,-267.4745 1358.8479,-251.0418 1315.8427,-232 1295.5965,-223.0354 1296.1994,-211.7513 1276.8427,-201 1235.1823,-177.8607 1218.3611,-186.5219 1175.8427,-165 1101.181,-127.2079 1021.8417,-68.3074 981.6052,-36.9085"/>
<polygon fill="#191970" stroke="#191970" points="983.6546,-34.0677 973.6284,-30.6432 979.3308,-39.5726 983.6546,-34.0677"/>
</g>
<!-- Node45&#45;&gt;Node11 -->
<g id="edge108" class="edge">
<title>Node45&#45;&gt;Node11</title>
<path fill="none" stroke="#191970" d="M1653.3042,-268.2798C1678.751,-251.2391 1721.6547,-223.1159 1759.8427,-201 1789.7751,-183.6652 1799.8388,-183.8472 1828.8427,-165 1847.4091,-152.9352 1847.3696,-142.4335 1867.8427,-134 1917.3771,-113.5953 2733.8985,-35.23 2908.9634,-18.6093"/>
<polygon fill="#191970" stroke="#191970" points="2909.4782,-22.0763 2919.103,-17.6476 2908.8172,-15.1076 2909.4782,-22.0763"/>
</g>
<!-- Node45&#45;&gt;Node16 -->
<g id="edge111" class="edge">
<title>Node45&#45;&gt;Node16</title>
<path fill="none" stroke="#191970" d="M1576.3087,-268.4639C1532.8362,-256.4776 1472.7303,-239.9052 1432.1824,-228.7254"/>
<polygon fill="#191970" stroke="#191970" points="1432.8877,-225.2893 1422.3171,-226.0053 1431.027,-232.0375 1432.8877,-225.2893"/>
</g>
<!-- Node45&#45;&gt;Node19 -->
<g id="edge106" class="edge">
<title>Node45&#45;&gt;Node19</title>
<path fill="none" stroke="#191970" d="M1644.3804,-268.1807C1662.1831,-249.1094 1695.3859,-217.0899 1730.8427,-201 1821.0659,-160.0578 1856.9995,-196.7797 1950.8427,-165 1952.262,-164.5193 1953.6952,-163.9743 1955.1245,-163.3831"/>
<polygon fill="#191970" stroke="#191970" points="1956.7894,-166.4668 1964.3116,-159.0057 1953.7784,-160.1475 1956.7894,-166.4668"/>
</g>
<!-- Node46&#45;&gt;Node2 -->
<g id="edge122" class="edge">
<title>Node46&#45;&gt;Node2</title>
<path fill="none" stroke="#191970" d="M1871.3907,-292.5132C1951.3357,-303.5192 2082.7834,-322.1282 2164.369,-333.9761"/>
<polygon fill="#191970" stroke="#191970" points="2164.1559,-337.4819 2174.5556,-335.4581 2165.1637,-330.5548 2164.1559,-337.4819"/>
</g>
<!-- Node46&#45;&gt;Node4 -->
<g id="edge114" class="edge">
<title>Node46&#45;&gt;Node4</title>
<path fill="none" stroke="#191970" d="M1777.9208,-268.389C1735.2224,-242.4995 1648.5985,-189.9764 1606.2536,-164.3012"/>
<polygon fill="#191970" stroke="#191970" points="1608.048,-161.2961 1597.6824,-159.1042 1604.4187,-167.2818 1608.048,-161.2961"/>
</g>
<!-- Node46&#45;&gt;Node5 -->
<g id="edge115" class="edge">
<title>Node46&#45;&gt;Node5</title>
<path fill="none" stroke="#191970" d="M1787.9956,-268.2064C1773.0021,-250.8491 1754.0157,-222.2006 1768.8427,-201 1771.9559,-196.5485 1830.8375,-176.0455 1871.5147,-162.2907"/>
<polygon fill="#191970" stroke="#191970" points="1872.8053,-165.5493 1881.1638,-159.0388 1870.5697,-158.9158 1872.8053,-165.5493"/>
</g>
<!-- Node46&#45;&gt;Node8 -->
<g id="edge119" class="edge">
<title>Node46&#45;&gt;Node8</title>
<path fill="none" stroke="#191970" d="M1806.2904,-268.4733C1811.4037,-249.711 1822.8538,-218.0176 1844.8427,-201 1903.5144,-155.5927 1936.5015,-185.3627 2007.8427,-165 2010.7851,-164.1602 2013.8173,-163.2306 2016.8488,-162.2561"/>
<polygon fill="#191970" stroke="#191970" points="2018.051,-165.5446 2026.4182,-159.0453 2015.8243,-158.9082 2018.051,-165.5446"/>
</g>
<!-- Node46&#45;&gt;Node14 -->
<g id="edge120" class="edge">
<title>Node46&#45;&gt;Node14</title>
<path fill="none" stroke="#191970" d="M1814.703,-268.2069C1831.6798,-246.734 1862.5432,-209.3321 1877.8427,-201 1963.6987,-154.2424 2031.6235,-239.5712 2094.8427,-165 2111.9718,-144.795 2088.6379,-120.4117 2065.8639,-103.415"/>
<polygon fill="#191970" stroke="#191970" points="2067.7499,-100.4613 2057.5748,-97.5087 2063.6878,-106.1621 2067.7499,-100.4613"/>
</g>
<!-- Node46&#45;&gt;Node16 -->
<g id="edge121" class="edge">
<title>Node46&#45;&gt;Node16</title>
<path fill="none" stroke="#191970" d="M1734.0932,-272.2649C1725.2601,-270.8267 1716.3381,-269.3767 1707.8427,-268 1621.5052,-254.0092 1522.0419,-238.0224 1457.2202,-227.6211"/>
<polygon fill="#191970" stroke="#191970" points="1457.5497,-224.1293 1447.1215,-226.0008 1456.4407,-231.0409 1457.5497,-224.1293"/>
</g>
<!-- Node46&#45;&gt;Node19 -->
<g id="edge116" class="edge">
<title>Node46&#45;&gt;Node19</title>
<path fill="none" stroke="#191970" d="M1798.6584,-268.2045C1794.6894,-250.0426 1791.3794,-219.8455 1806.8427,-201 1848.6888,-150.0009 1889.2877,-188.7274 1950.8427,-165 1952.0412,-164.538 1953.253,-164.0375 1954.4666,-163.5088"/>
<polygon fill="#191970" stroke="#191970" points="1956.1395,-166.5875 1963.6112,-159.0759 1953.086,-160.2886 1956.1395,-166.5875"/>
</g>
<!-- Node46&#45;&gt;Node21 -->
<g id="edge117" class="edge">
<title>Node46&#45;&gt;Node21</title>
<path fill="none" stroke="#191970" d="M1734.2014,-271.4775C1725.3504,-270.1696 1716.3946,-268.9653 1707.8427,-268 1581.7246,-253.7639 1259.1171,-269.4295 1137.8427,-232 1091.5492,-217.7122 1044.4777,-185.1741 1018.7321,-165.4997"/>
<polygon fill="#191970" stroke="#191970" points="1020.5913,-162.5114 1010.5512,-159.128 1016.2901,-168.034 1020.5913,-162.5114"/>
</g>
<!-- Node46&#45;&gt;Node27 -->
<g id="edge118" class="edge">
<title>Node46&#45;&gt;Node27</title>
<path fill="none" stroke="#191970" d="M1832.2416,-268.4639C1854.3208,-257.1715 1884.3588,-241.8086 1906.041,-230.7192"/>
<polygon fill="#191970" stroke="#191970" points="1907.7555,-233.7736 1915.0649,-226.1039 1904.568,-227.5414 1907.7555,-233.7736"/>
</g>
<!-- Node47&#45;&gt;Node1 -->
<g id="edge127" class="edge">
<title>Node47&#45;&gt;Node1</title>
<path fill="none" stroke="#191970" d="M3082.3375,-282.1969C2725.9501,-275.3857 1091.5907,-243.7419 865.8427,-232 813.4271,-229.2737 753.0373,-223.9768 714.6687,-220.3405"/>
<polygon fill="#191970" stroke="#191970" points="714.7438,-216.8318 704.4556,-219.3624 714.0764,-223.7999 714.7438,-216.8318"/>
</g>
<!-- Node47&#45;&gt;Node2 -->
<g id="edge131" class="edge">
<title>Node47&#45;&gt;Node2</title>
<path fill="none" stroke="#191970" d="M3082.208,-288.378C2917.2528,-299.7331 2499.2569,-327.862 2320.2344,-339.6587"/>
<polygon fill="#191970" stroke="#191970" points="2319.8308,-336.1776 2310.0823,-340.327 2320.2906,-343.1625 2319.8308,-336.1776"/>
</g>
<!-- Node47&#45;&gt;Node5 -->
<g id="edge125" class="edge">
<title>Node47&#45;&gt;Node5</title>
<path fill="none" stroke="#191970" d="M3154.1822,-268.4155C3157.3592,-249.5921 3159.2711,-217.8343 3140.8427,-201 3092.0502,-156.4284 2016.7153,-177.6045 1951.8427,-165 1948.3807,-164.3274 1944.8265,-163.4062 1941.3215,-162.3458"/>
<polygon fill="#191970" stroke="#191970" points="1942.2857,-158.977 1931.6914,-159.0791 1940.037,-165.606 1942.2857,-158.977"/>
</g>
<!-- Node47&#45;&gt;Node8 -->
<g id="edge129" class="edge">
<title>Node47&#45;&gt;Node8</title>
<path fill="none" stroke="#191970" d="M3175.2906,-268.3135C3200.1816,-251.0546 3232.4056,-222.4961 3211.8427,-201 3211.2284,-200.3579 2310.121,-160.8211 2096.7497,-151.4679"/>
<polygon fill="#191970" stroke="#191970" points="2096.6828,-147.9617 2086.5391,-151.0203 2096.3762,-154.9549 2096.6828,-147.9617"/>
</g>
<!-- Node47&#45;&gt;Node9 -->
<g id="edge130" class="edge">
<title>Node47&#45;&gt;Node9</title>
<path fill="none" stroke="#191970" d="M3188.5339,-268.3598C3203.9388,-260.0741 3220.1545,-248.1476 3228.8427,-232 3235.3708,-219.867 3235.5666,-213.0256 3228.8427,-201 3148.7679,-57.7872 3047.0246,-91.8777 2884.8427,-67 2698.6884,-38.4451 1351.8622,-20.3348 1025.7903,-16.3385"/>
<polygon fill="#191970" stroke="#191970" points="1025.5738,-12.8357 1015.5318,-16.2133 1025.4884,-19.8352 1025.5738,-12.8357"/>
</g>
<!-- Node47&#45;&gt;Node11 -->
<g id="edge128" class="edge">
<title>Node47&#45;&gt;Node11</title>
<path fill="none" stroke="#191970" d="M3210.1582,-268.4422C3242.7159,-258.8483 3278.3682,-245.6834 3287.8427,-232 3295.6859,-220.6726 3291.8579,-214.1797 3287.8427,-201 3247.5297,-68.6754 3053.6699,-29.5723 2975.0612,-19.0487"/>
<polygon fill="#191970" stroke="#191970" points="2975.1221,-15.5286 2964.762,-17.7467 2974.2441,-22.4734 2975.1221,-15.5286"/>
</g>
<!-- Node47&#45;&gt;Node19 -->
<g id="edge126" class="edge">
<title>Node47&#45;&gt;Node19</title>
<path fill="none" stroke="#191970" d="M3162.6196,-268.2915C3175.334,-249.9321 3191.5421,-219.2543 3173.8427,-201 3128.7287,-154.4716 2070.334,-182.1755 2007.8427,-165 2006.3693,-164.5951 2004.8894,-164.0983 2003.4214,-163.534"/>
<polygon fill="#191970" stroke="#191970" points="2004.6332,-160.2343 1994.1003,-159.0904 2001.6208,-166.5531 2004.6332,-160.2343"/>
</g>
<!-- Node47&#45;&gt;Node31 -->
<g id="edge124" class="edge">
<title>Node47&#45;&gt;Node31</title>
<path fill="none" stroke="#191970" d="M3117.4042,-268.4639C3091.9534,-257.0196 3057.205,-241.3945 3032.4744,-230.274"/>
<polygon fill="#191970" stroke="#191970" points="3033.7564,-227.013 3023.2006,-226.1039 3030.8856,-233.3972 3033.7564,-227.013"/>
</g>
<!-- Node48&#45;&gt;Node1 -->
<g id="edge136" class="edge">
<title>Node48&#45;&gt;Node1</title>
<path fill="none" stroke="#191970" d="M974.125,-276.3838C908.0099,-268.6469 805.5819,-254.3145 718.8427,-232 715.6917,-231.1894 712.4471,-230.2409 709.2197,-229.2194"/>
<polygon fill="#191970" stroke="#191970" points="710.2939,-225.888 699.6996,-226.001 708.052,-232.5193 710.2939,-225.888"/>
</g>
<!-- Node48&#45;&gt;Node2 -->
<g id="edge149" class="edge">
<title>Node48&#45;&gt;Node2</title>
<path fill="none" stroke="#191970" d="M1111.4951,-286.8667C1317.4309,-297.2441 1929.1775,-328.7461 2153.3528,-340.5076"/>
<polygon fill="#191970" stroke="#191970" points="2153.2417,-344.0065 2163.4115,-341.0358 2153.6088,-337.0162 2153.2417,-344.0065"/>
</g>
<!-- Node48&#45;&gt;Node5 -->
<g id="edge134" class="edge">
<title>Node48&#45;&gt;Node5</title>
<path fill="none" stroke="#191970" d="M1111.3599,-277.7633C1194.161,-270.1999 1337.486,-255.0863 1458.8427,-232 1512.9564,-221.7057 1524.8337,-211.8308 1578.8427,-201 1688.9085,-178.9278 1718.1294,-183.5542 1828.8427,-165 1841.3086,-162.9109 1854.8094,-160.4193 1867.1489,-158.0514"/>
<polygon fill="#191970" stroke="#191970" points="1868.0422,-161.4434 1877.1926,-156.1029 1866.7091,-154.5715 1868.0422,-161.4434"/>
</g>
<!-- Node48&#45;&gt;Node6 -->
<g id="edge135" class="edge">
<title>Node48&#45;&gt;Node6</title>
<path fill="none" stroke="#191970" d="M1051.0828,-268.3271C1069.0332,-236.963 1114.989,-165.3108 1175.8427,-134 1214.7793,-113.9661 1509.5075,-92.3944 1617.4149,-85.0867"/>
<polygon fill="#191970" stroke="#191970" points="1617.8143,-88.5678 1627.5569,-84.4047 1617.3446,-81.5836 1617.8143,-88.5678"/>
</g>
<!-- Node48&#45;&gt;Node7 -->
<g id="edge138" class="edge">
<title>Node48&#45;&gt;Node7</title>
<path fill="none" stroke="#191970" d="M974.1572,-278.3653C909.1101,-271.9576 818.0326,-258.4539 794.8427,-232 762.9227,-195.5873 771.5913,-133.1315 778.71,-101.7242"/>
<polygon fill="#191970" stroke="#191970" points="782.1113,-102.5493 781.0943,-92.0034 775.3128,-100.8818 782.1113,-102.5493"/>
</g>
<!-- Node48&#45;&gt;Node8 -->
<g id="edge140" class="edge">
<title>Node48&#45;&gt;Node8</title>
<path fill="none" stroke="#191970" d="M1111.5338,-277.3035C1206.4234,-268.5106 1382.8936,-251.3185 1532.8427,-232 1623.3627,-220.338 1645.4875,-213.8771 1735.8427,-201 1856.5659,-183.7949 1889.2553,-193.4106 2007.8427,-165 2011.0719,-164.2264 2014.3953,-163.303 2017.7,-162.2976"/>
<polygon fill="#191970" stroke="#191970" points="2019.0324,-165.5442 2027.4447,-159.1035 2016.852,-158.8924 2019.0324,-165.5442"/>
</g>
<!-- Node48&#45;&gt;Node9 -->
<g id="edge145" class="edge">
<title>Node48&#45;&gt;Node9</title>
<path fill="none" stroke="#191970" d="M974.1966,-274.4357C899.4719,-263.9305 788.7008,-246.2392 774.8427,-232 723.2435,-178.982 707.4489,-125.419 752.8427,-67 769.0549,-46.1359 832.4889,-32.3182 884.0023,-24.2963"/>
<polygon fill="#191970" stroke="#191970" points="884.7625,-27.7213 894.1286,-22.7689 883.7183,-20.7996 884.7625,-27.7213"/>
</g>
<!-- Node48&#45;&gt;Node10 -->
<g id="edge146" class="edge">
<title>Node48&#45;&gt;Node10</title>
<path fill="none" stroke="#191970" d="M974.1416,-277.5836C827.1827,-264.9277 483.6333,-235.3419 335.2053,-222.5595"/>
<polygon fill="#191970" stroke="#191970" points="335.1246,-219.0397 324.8611,-221.6687 334.5239,-226.0139 335.1246,-219.0397"/>
</g>
<!-- Node48&#45;&gt;Node11 -->
<g id="edge139" class="edge">
<title>Node48&#45;&gt;Node11</title>
<path fill="none" stroke="#191970" d="M974.1016,-273.3113C927.2915,-264.8052 871.297,-251.0003 856.8427,-232 832.7386,-200.315 886.1128,-137.9026 891.8427,-134 1046.3027,-28.7977 2268.5731,-60.4062 2767.8427,-31 2817.0924,-28.0993 2874.0097,-22.6264 2908.9639,-19.0215"/>
<polygon fill="#191970" stroke="#191970" points="2909.4907,-22.4857 2919.0739,-17.9677 2908.7649,-15.5234 2909.4907,-22.4857"/>
</g>
<!-- Node48&#45;&gt;Node14 -->
<g id="edge141" class="edge">
<title>Node48&#45;&gt;Node14</title>
<path fill="none" stroke="#191970" d="M974.2907,-277.1897C914.0246,-268.4574 839.6733,-248.0308 865.8427,-201 893.3079,-151.6403 919.9114,-150.7969 973.8427,-134 979.7582,-132.1576 1725.6089,-96.9482 1961.9038,-85.8326"/>
<polygon fill="#191970" stroke="#191970" points="1962.2757,-89.3191 1972.1002,-85.3531 1961.9468,-82.3268 1962.2757,-89.3191"/>
</g>
<!-- Node48&#45;&gt;Node16 -->
<g id="edge147" class="edge">
<title>Node48&#45;&gt;Node16</title>
<path fill="none" stroke="#191970" d="M1111.4161,-270.1828C1174.9467,-257.845 1268.4614,-239.6842 1328.7633,-227.9734"/>
<polygon fill="#191970" stroke="#191970" points="1329.7339,-231.3504 1338.8833,-226.0081 1328.3994,-224.4787 1329.7339,-231.3504"/>
</g>
<!-- Node48&#45;&gt;Node21 -->
<g id="edge137" class="edge">
<title>Node48&#45;&gt;Node21</title>
<path fill="none" stroke="#191970" d="M1040.4054,-268.307C1037.4715,-251.5314 1031.9106,-223.8701 1023.8427,-201 1019.8672,-189.7309 1014.1114,-177.687 1009.1245,-168.082"/>
<polygon fill="#191970" stroke="#191970" points="1012.1169,-166.2557 1004.3128,-159.09 1005.945,-169.5584 1012.1169,-166.2557"/>
</g>
<!-- Node48&#45;&gt;Node28 -->
<g id="edge148" class="edge">
<title>Node48&#45;&gt;Node28</title>
<path fill="none" stroke="#191970" d="M1020.605,-268.2967C1004.5949,-257.351 983.0863,-242.6462 967.077,-231.701"/>
<polygon fill="#191970" stroke="#191970" points="969.0491,-228.8095 958.8186,-226.055 965.0984,-234.5881 969.0491,-228.8095"/>
</g>
<!-- Node49 -->
<g id="node50" class="node">
<title>Node49</title>
<g id="a_node50"><a xlink:href="drake__bool_8h.html" target="_top" xlink:title=" ">
<polygon fill="#ffffff" stroke="#000000" points="1147.3427,-201.5 1147.3427,-231.5 1268.3427,-231.5 1268.3427,-201.5 1147.3427,-201.5"/>
<text text-anchor="start" x="1155.3427" y="-219.5" font-family="Helvetica,sans-Serif" font-size="10.00" fill="#000000">drake/common/drake</text>
<text text-anchor="middle" x="1207.8427" y="-208.5" font-family="Helvetica,sans-Serif" font-size="10.00" fill="#000000">_bool.h</text>
</a>
</g>
</g>
<!-- Node48&#45;&gt;Node49 -->
<g id="edge142" class="edge">
<title>Node48&#45;&gt;Node49</title>
<path fill="none" stroke="#191970" d="M1079.8719,-268.4639C1103.8835,-258.7137 1135.3685,-245.9289 1161.0996,-235.4805"/>
<polygon fill="#191970" stroke="#191970" points="1162.7035,-238.6069 1170.6519,-231.6017 1160.0699,-232.1212 1162.7035,-238.6069"/>
</g>
<!-- Node49&#45;&gt;Node8 -->
<g id="edge144" class="edge">
<title>Node49&#45;&gt;Node8</title>
<path fill="none" stroke="#191970" d="M1268.5569,-206.8023C1283.9499,-204.6147 1300.4778,-202.4991 1315.8427,-201 1622.3586,-171.0937 1705.7281,-224.7764 2007.8427,-165 2011.4725,-164.2818 2015.2082,-163.3263 2018.8963,-162.241"/>
<polygon fill="#191970" stroke="#191970" points="2020.0135,-165.5582 2028.4424,-159.1391 2017.8502,-158.9008 2020.0135,-165.5582"/>
</g>
<!-- Node49&#45;&gt;Node15 -->
<g id="edge143" class="edge">
<title>Node49&#45;&gt;Node15</title>
<path fill="none" stroke="#191970" d="M1193.5668,-201.244C1178.8958,-183.6631 1160.2381,-154.5575 1175.8427,-134 1242.8007,-45.7893 1306.8425,-86.5821 1415.8427,-67 1627.6122,-28.9552 1885.4301,-18.9194 1987.8171,-16.3515"/>
<polygon fill="#191970" stroke="#191970" points="1988.1808,-19.8439 1998.0944,-16.106 1988.0136,-12.8459 1988.1808,-19.8439"/>
</g>
<!-- Node50&#45;&gt;Node2 -->
<g id="edge153" class="edge">
<title>Node50&#45;&gt;Node2</title>
<path fill="none" stroke="#191970" d="M3774.1846,-297.8025C3770.6991,-298.2482 3767.2377,-298.6514 3763.8427,-299 3480.9356,-328.0488 2596.8825,-340.8049 2320.3403,-344.0996"/>
<polygon fill="#191970" stroke="#191970" points="2319.9343,-340.6041 2309.9764,-344.222 2320.017,-347.6036 2319.9343,-340.6041"/>
</g>
<!-- Node50&#45;&gt;Node11 -->
<g id="edge151" class="edge">
<title>Node50&#45;&gt;Node11</title>
<path fill="none" stroke="#191970" d="M3847.824,-268.4324C3852.5964,-251.2825 3857.7396,-222.8239 3847.8427,-201 3810.5099,-118.6767 3778.317,-101.6829 3694.8427,-67 3627.6882,-39.0979 3110.7917,-20.8613 2974.6292,-16.5081"/>
<polygon fill="#191970" stroke="#191970" points="2974.5267,-13.0032 2964.421,-16.185 2974.3052,-19.9997 2974.5267,-13.0032"/>
</g>
<!-- Node50&#45;&gt;Node14 -->
<g id="edge152" class="edge">
<title>Node50&#45;&gt;Node14</title>
<path fill="none" stroke="#191970" d="M3844.7428,-268.1993C3846.1291,-249.452 3845.2256,-218.0821 3826.8427,-201 3641.926,-29.1678 3514.4637,-154.1836 3262.8427,-134 3035.1883,-115.7389 2330.4089,-92.0754 2103.7968,-84.7564"/>
<polygon fill="#191970" stroke="#191970" points="2103.7981,-81.2547 2093.6904,-84.4306 2103.5724,-88.2511 2103.7981,-81.2547"/>
</g>
<!-- Node51&#45;&gt;Node2 -->
<g id="edge157" class="edge">
<title>Node51&#45;&gt;Node2</title>
<path fill="none" stroke="#191970" d="M3551.5251,-298.5438C3550.2899,-298.7044 3549.0615,-298.8568 3547.8427,-299 3309.2441,-327.0392 2570.0975,-340.2188 2320.2701,-343.8928"/>
<polygon fill="#191970" stroke="#191970" points="2320.1138,-340.3946 2310.1659,-344.0401 2320.2159,-347.3939 2320.1138,-340.3946"/>
</g>
<!-- Node51&#45;&gt;Node5 -->
<g id="edge155" class="edge">
<title>Node51&#45;&gt;Node5</title>
<path fill="none" stroke="#191970" d="M3610.043,-268.2732C3601.6539,-248.6642 3584.0869,-215.399 3556.8427,-201 3477.9893,-159.3246 2039.4605,-181.6676 1951.8427,-165 1948.3781,-164.3409 1944.8222,-163.4285 1941.3162,-162.3734"/>
<polygon fill="#191970" stroke="#191970" points="1942.2791,-159.0043 1931.6848,-159.1131 1940.0347,-165.6347 1942.2791,-159.0043"/>
</g>
<!-- Node51&#45;&gt;Node11 -->
<g id="edge156" class="edge">
<title>Node51&#45;&gt;Node11</title>
<path fill="none" stroke="#191970" d="M3613.4296,-268.3186C3609.954,-250.5427 3602.0812,-220.9926 3585.8427,-201 3550.23,-157.1542 3530.0126,-155.6567 3477.8427,-134 3296.5728,-58.7515 3060.0758,-27.8838 2974.5178,-18.6893"/>
<polygon fill="#191970" stroke="#191970" points="2974.6949,-15.1888 2964.3844,-17.6267 2973.9648,-22.1506 2974.6949,-15.1888"/>
</g>
<!-- Node52&#45;&gt;Node2 -->
<g id="edge166" class="edge">
<title>Node52&#45;&gt;Node2</title>
<path fill="none" stroke="#191970" d="M3241.5229,-298.5251C3240.2883,-298.6915 3239.0607,-298.85 3237.8427,-299 3061.7853,-320.6739 2527.8159,-337.2256 2320.4024,-342.8858"/>
<polygon fill="#191970" stroke="#191970" points="2320.0817,-339.3931 2310.1803,-343.1631 2320.2716,-346.3906 2320.0817,-339.3931"/>
</g>
<!-- Node52&#45;&gt;Node7 -->
<g id="edge160" class="edge">
<title>Node52&#45;&gt;Node7</title>
<path fill="none" stroke="#191970" d="M3302.4756,-268.275C3297.3299,-248.9907 3285.5075,-216.4189 3261.8427,-201 3171.2927,-142.0021 2883.7179,-181.0544 2776.8427,-165 2715.5357,-155.7907 2702.3467,-141.7857 2640.8427,-134 2453.0437,-110.2268 1047.8834,-86.7439 816.1533,-83.0132"/>
<polygon fill="#191970" stroke="#191970" points="816.0699,-79.5115 806.015,-82.8505 815.9576,-86.5106 816.0699,-79.5115"/>
</g>
<!-- Node52&#45;&gt;Node8 -->
<g id="edge163" class="edge">
<title>Node52&#45;&gt;Node8</title>
<path fill="none" stroke="#191970" d="M3296.9471,-268.2582C3284.5301,-248.6325 3259.9819,-215.3489 3228.8427,-201 3228.8427,-201 2312.0596,-160.8859 2096.7286,-151.464"/>
<polygon fill="#191970" stroke="#191970" points="2096.5741,-147.954 2086.4306,-151.0134 2096.268,-154.9473 2096.5741,-147.954"/>
</g>
<!-- Node52&#45;&gt;Node9 -->
<g id="edge165" class="edge">
<title>Node52&#45;&gt;Node9</title>
<path fill="none" stroke="#191970" d="M3340.8751,-268.3603C3355.7288,-259.9673 3371.5083,-247.9543 3379.8427,-232 3386.222,-219.7881 3387.0506,-212.7419 3379.8427,-201 3289.2179,-53.3706 3185.0733,-93.2181 3013.8427,-67 2913.6534,-51.6595 1375.3975,-23.0874 1025.353,-16.7614"/>
<polygon fill="#191970" stroke="#191970" points="1025.4075,-13.2619 1015.3459,-16.5808 1025.2811,-20.2608 1025.4075,-13.2619"/>
</g>
<!-- Node52&#45;&gt;Node22 -->
<g id="edge162" class="edge">
<title>Node52&#45;&gt;Node22</title>
<path fill="none" stroke="#191970" d="M3329.2583,-268.3461C3352.2006,-251.6047 3381.358,-223.9732 3363.8427,-201 3288.6085,-102.3225 2748.9613,-118.7444 2670.8427,-98 2668.8697,-97.4761 2666.8702,-96.8382 2664.882,-96.1233"/>
<polygon fill="#191970" stroke="#191970" points="2665.7882,-92.7086 2655.2121,-92.0793 2663.0874,-99.1666 2665.7882,-92.7086"/>
</g>
<!-- Node52&#45;&gt;Node27 -->
<g id="edge161" class="edge">
<title>Node52&#45;&gt;Node27</title>
<path fill="none" stroke="#191970" d="M3237.0831,-269.0959C3234.3053,-268.6925 3231.5506,-268.3243 3228.8427,-268 3166.6545,-260.5521 2232.7423,-227.0921 1990.7551,-218.5106"/>
<polygon fill="#191970" stroke="#191970" points="1990.5444,-215.0011 1980.4267,-218.1446 1990.2964,-221.9967 1990.5444,-215.0011"/>
</g>
<!-- Node52&#45;&gt;Node33 -->
<g id="edge164" class="edge">
<title>Node52&#45;&gt;Node33</title>
<path fill="none" stroke="#191970" d="M3257.8169,-268.4639C3219.8569,-256.5792 3167.4958,-240.1858 3131.8024,-229.0108"/>
<polygon fill="#191970" stroke="#191970" points="3132.7918,-225.6531 3122.2028,-226.0053 3130.7003,-232.3333 3132.7918,-225.6531"/>
</g>
<!-- Node53 -->
<g id="node54" class="node">
<title>Node53</title>
<g id="a_node54"><a xlink:title=" ">
<polygon fill="#ffffff" stroke="#bfbfbf" points="3491.8427,-207 3491.8427,-226 3547.8427,-226 3547.8427,-207 3491.8427,-207"/>
<text text-anchor="middle" x="3519.8427" y="-214" font-family="Helvetica,sans-Serif" font-size="10.00" fill="#000000">sstream</text>
</a>
</g>
</g>
<!-- Node52&#45;&gt;Node53 -->
<g id="edge159" class="edge">
<title>Node52&#45;&gt;Node53</title>
<path fill="none" stroke="#191970" d="M3359.189,-268.4612C3393.2926,-258.6172 3438.3713,-245.1783 3477.8427,-232 3480.2295,-231.2031 3482.6843,-230.3599 3485.1518,-229.4948"/>
<polygon fill="#191970" stroke="#191970" points="3486.3826,-232.7717 3494.6142,-226.1015 3484.0197,-226.1826 3486.3826,-232.7717"/>
</g>
</g>
</svg>
