<?xml version="1.0" encoding="UTF-8" standalone="no"?>
<!DOCTYPE svg PUBLIC "-//W3C//DTD SVG 1.1//EN"
 "http://www.w3.org/Graphics/SVG/1.1/DTD/svg11.dtd">
<!-- Generated by graphviz version 2.40.1 (20161225.0304)
 -->
<!-- Title: drake/bindings/pydrake/symbolic_types_pybind.h Pages: 1 -->
<svg width="4092pt" height="441pt"
 viewBox="0.00 0.00 4092.00 441.00" xmlns="http://www.w3.org/2000/svg" xmlns:xlink="http://www.w3.org/1999/xlink">
<g id="graph0" class="graph" transform="scale(1 1) rotate(0) translate(4 437)">
<title>drake/bindings/pydrake/symbolic_types_pybind.h</title>
<polygon fill="#ffffff" stroke="transparent" points="-4,4 -4,-437 4088,-437 4088,4 -4,4"/>
<!-- Node0 -->
<g id="node1" class="node">
<title>Node0</title>
<g id="a_node1"><a xlink:title=" ">
<polygon fill="#bfbfbf" stroke="#000000" points="105,-402.5 105,-432.5 248,-432.5 248,-402.5 105,-402.5"/>
<text text-anchor="start" x="113" y="-420.5" font-family="Helvetica,sans-Serif" font-size="10.00" fill="#000000">drake/bindings/pydrake</text>
<text text-anchor="middle" x="176.5" y="-409.5" font-family="Helvetica,sans-Serif" font-size="10.00" fill="#000000">/symbolic_types_pybind.h</text>
</a>
</g>
</g>
<!-- Node1 -->
<g id="node2" class="node">
<title>Node1</title>
<g id="a_node2"><a xlink:title=" ">
<polygon fill="#ffffff" stroke="#bfbfbf" points="0,-341 0,-360 101,-360 101,-341 0,-341"/>
<text text-anchor="middle" x="50.5" y="-348" font-family="Helvetica,sans-Serif" font-size="10.00" fill="#000000">pybind11/eigen.h</text>
</a>
</g>
</g>
<!-- Node0&#45;&gt;Node1 -->
<g id="edge1" class="edge">
<title>Node0&#45;&gt;Node1</title>
<path fill="none" stroke="#191970" d="M148.2231,-402.4639C127.082,-391.2222 98.3542,-375.9463 77.5216,-364.8686"/>
<polygon fill="#191970" stroke="#191970" points="79.0337,-361.7087 68.5611,-360.1039 75.7472,-367.8892 79.0337,-361.7087"/>
</g>
<!-- Node2 -->
<g id="node3" class="node">
<title>Node2</title>
<g id="a_node3"><a xlink:title=" ">
<polygon fill="#ffffff" stroke="#bfbfbf" points="73,-274 73,-293 192,-293 192,-274 73,-274"/>
<text text-anchor="middle" x="132.5" y="-281" font-family="Helvetica,sans-Serif" font-size="10.00" fill="#000000">pybind11/pybind11.h</text>
</a>
</g>
</g>
<!-- Node0&#45;&gt;Node2 -->
<g id="edge2" class="edge">
<title>Node0&#45;&gt;Node2</title>
<path fill="none" stroke="#191970" d="M166.624,-402.3039C160.5647,-392.3434 153.1091,-378.8347 148.5,-366 141.128,-345.4718 136.9097,-320.7843 134.6757,-303.7963"/>
<polygon fill="#191970" stroke="#191970" points="138.0964,-302.924 133.4318,-293.4112 131.146,-303.7565 138.0964,-302.924"/>
</g>
<!-- Node3 -->
<g id="node4" class="node">
<title>Node3</title>
<g id="a_node4"><a xlink:href="pydrake__pybind_8h.html" target="_top" xlink:title=" ">
<polygon fill="#ffffff" stroke="#000000" points="158,-335.5 158,-365.5 289,-365.5 289,-335.5 158,-335.5"/>
<text text-anchor="start" x="166" y="-353.5" font-family="Helvetica,sans-Serif" font-size="10.00" fill="#000000">drake/bindings/pydrake</text>
<text text-anchor="middle" x="223.5" y="-342.5" font-family="Helvetica,sans-Serif" font-size="10.00" fill="#000000">/pydrake_pybind.h</text>
</a>
</g>
</g>
<!-- Node0&#45;&gt;Node3 -->
<g id="edge3" class="edge">
<title>Node0&#45;&gt;Node3</title>
<path fill="none" stroke="#191970" d="M187.165,-402.2967C193.0541,-393.9016 200.4944,-383.2952 207.1062,-373.8698"/>
<polygon fill="#191970" stroke="#191970" points="209.9996,-375.8398 212.8772,-365.6432 204.269,-371.8198 209.9996,-375.8398"/>
</g>
<!-- Node5 -->
<g id="node6" class="node">
<title>Node5</title>
<g id="a_node6"><a xlink:href="symbolic_8h.html" target="_top" xlink:title="Provides public header files of Drake&#39;s symbolic library.">
<polygon fill="#ffffff" stroke="#000000" points="2401.5,-341 2401.5,-360 2547.5,-360 2547.5,-341 2401.5,-341"/>
<text text-anchor="middle" x="2474.5" y="-348" font-family="Helvetica,sans-Serif" font-size="10.00" fill="#000000">drake/common/symbolic.h</text>
</a>
</g>
</g>
<!-- Node0&#45;&gt;Node5 -->
<g id="edge6" class="edge">
<title>Node0&#45;&gt;Node5</title>
<path fill="none" stroke="#191970" d="M248.1124,-415.4121C586.9353,-405.5334 2027.7242,-363.5261 2391.0466,-352.9331"/>
<polygon fill="#191970" stroke="#191970" points="2391.3301,-356.4265 2401.2238,-352.6364 2391.126,-349.4294 2391.3301,-356.4265"/>
</g>
<!-- Node3&#45;&gt;Node2 -->
<g id="edge5" class="edge">
<title>Node3&#45;&gt;Node2</title>
<path fill="none" stroke="#191970" d="M202.8507,-335.2967C188.1219,-324.4524 168.3814,-309.9182 153.5604,-299.006"/>
<polygon fill="#191970" stroke="#191970" points="155.6056,-296.1655 145.4776,-293.055 151.4553,-301.8025 155.6056,-296.1655"/>
</g>
<!-- Node4 -->
<g id="node5" class="node">
<title>Node4</title>
<g id="a_node5"><a xlink:title=" ">
<polygon fill="#ffffff" stroke="#bfbfbf" points="1246,-6 1246,-25 1291,-25 1291,-6 1246,-6"/>
<text text-anchor="middle" x="1268.5" y="-13" font-family="Helvetica,sans-Serif" font-size="10.00" fill="#000000">utility</text>
</a>
</g>
</g>
<!-- Node3&#45;&gt;Node4 -->
<g id="edge4" class="edge">
<title>Node3&#45;&gt;Node4</title>
<path fill="none" stroke="#191970" d="M223.1238,-335.2282C222.5445,-310.3545 221.5,-259.543 221.5,-216.5 221.5,-216.5 221.5,-216.5 221.5,-149.5 221.5,-89.8016 271.4589,-87.5741 327.5,-67 504.976,-1.8441 989.4933,-50.9123 1177.5,-31 1196.9008,-28.9452 1218.4278,-25.3397 1235.6718,-22.1229"/>
<polygon fill="#191970" stroke="#191970" points="1236.6327,-25.5027 1245.7979,-20.1876 1235.3186,-18.6272 1236.6327,-25.5027"/>
</g>
<!-- Node6 -->
<g id="node7" class="node">
<title>Node6</title>
<g id="a_node7"><a xlink:href="symbolic__variable_8h.html" target="_top" xlink:title=" ">
<polygon fill="#ffffff" stroke="#000000" points="3637,-268.5 3637,-298.5 3774,-298.5 3774,-268.5 3637,-268.5"/>
<text text-anchor="start" x="3645" y="-286.5" font-family="Helvetica,sans-Serif" font-size="10.00" fill="#000000">drake/common/symbolic</text>
<text text-anchor="middle" x="3705.5" y="-275.5" font-family="Helvetica,sans-Serif" font-size="10.00" fill="#000000">_variable.h</text>
</a>
</g>
</g>
<!-- Node5&#45;&gt;Node6 -->
<g id="edge7" class="edge">
<title>Node5&#45;&gt;Node6</title>
<path fill="none" stroke="#191970" d="M2547.8181,-346.5095C2764.8509,-334.697 3402.8477,-299.9725 3626.7449,-287.7864"/>
<polygon fill="#191970" stroke="#191970" points="3626.9769,-291.2791 3636.7718,-287.2407 3626.5964,-284.2894 3626.9769,-291.2791"/>
</g>
<!-- Node27 -->
<g id="node28" class="node">
<title>Node27</title>
<g id="a_node28"><a xlink:href="symbolic__variables_8h.html" target="_top" xlink:title=" ">
<polygon fill="#ffffff" stroke="#000000" points="2716,-268.5 2716,-298.5 2853,-298.5 2853,-268.5 2716,-268.5"/>
<text text-anchor="start" x="2724" y="-286.5" font-family="Helvetica,sans-Serif" font-size="10.00" fill="#000000">drake/common/symbolic</text>
<text text-anchor="middle" x="2784.5" y="-275.5" font-family="Helvetica,sans-Serif" font-size="10.00" fill="#000000">_variables.h</text>
</a>
</g>
</g>
<!-- Node5&#45;&gt;Node27 -->
<g id="edge38" class="edge">
<title>Node5&#45;&gt;Node27</title>
<path fill="none" stroke="#191970" d="M2513.6995,-340.9717C2561.8553,-330.106 2644.5092,-312.1746 2705.9067,-299.2279"/>
<polygon fill="#191970" stroke="#191970" points="2706.8883,-302.598 2715.9534,-297.114 2705.447,-295.748 2706.8883,-302.598"/>
</g>
<!-- Node29 -->
<g id="node30" class="node">
<title>Node29</title>
<g id="a_node30"><a xlink:href="symbolic__environment_8h.html" target="_top" xlink:title=" ">
<polygon fill="#ffffff" stroke="#000000" points="2871,-268.5 2871,-298.5 3008,-298.5 3008,-268.5 2871,-268.5"/>
<text text-anchor="start" x="2879" y="-286.5" font-family="Helvetica,sans-Serif" font-size="10.00" fill="#000000">drake/common/symbolic</text>
<text text-anchor="middle" x="2939.5" y="-275.5" font-family="Helvetica,sans-Serif" font-size="10.00" fill="#000000">_environment.h</text>
</a>
</g>
</g>
<!-- Node5&#45;&gt;Node29 -->
<g id="edge48" class="edge">
<title>Node5&#45;&gt;Node29</title>
<path fill="none" stroke="#191970" d="M2547.5242,-341.3786C2623.8065,-332.0717 2746.6817,-316.5365 2852.5,-299 2855.3093,-298.5344 2858.1722,-298.0433 2861.0665,-297.5337"/>
<polygon fill="#191970" stroke="#191970" points="2861.7775,-300.962 2870.9963,-295.7404 2860.5334,-294.0734 2861.7775,-300.962"/>
</g>
<!-- Node33 -->
<g id="node34" class="node">
<title>Node33</title>
<g id="a_node34"><a xlink:href="symbolic__expression_8h.html" target="_top" xlink:title=" ">
<polygon fill="#ffffff" stroke="#000000" points="1224,-268.5 1224,-298.5 1361,-298.5 1361,-268.5 1224,-268.5"/>
<text text-anchor="start" x="1232" y="-286.5" font-family="Helvetica,sans-Serif" font-size="10.00" fill="#000000">drake/common/symbolic</text>
<text text-anchor="middle" x="1292.5" y="-275.5" font-family="Helvetica,sans-Serif" font-size="10.00" fill="#000000">_expression.h</text>
</a>
</g>
</g>
<!-- Node5&#45;&gt;Node33 -->
<g id="edge59" class="edge">
<title>Node5&#45;&gt;Node33</title>
<path fill="none" stroke="#191970" d="M2401.1338,-346.5343C2190.8649,-334.8636 1587.6318,-300.6749 1371.0508,-288.1594"/>
<polygon fill="#191970" stroke="#191970" points="1371.2183,-284.6634 1361.0328,-287.58 1370.814,-291.6517 1371.2183,-284.6634"/>
</g>
<!-- Node46 -->
<g id="node47" class="node">
<title>Node46</title>
<g id="a_node47"><a xlink:href="symbolic__expression__visitor_8h.html" target="_top" xlink:title=" ">
<polygon fill="#ffffff" stroke="#000000" points="250,-201.5 250,-231.5 387,-231.5 387,-201.5 250,-201.5"/>
<text text-anchor="start" x="258" y="-219.5" font-family="Helvetica,sans-Serif" font-size="10.00" fill="#000000">drake/common/symbolic</text>
<text text-anchor="middle" x="318.5" y="-208.5" font-family="Helvetica,sans-Serif" font-size="10.00" fill="#000000">_expression_visitor.h</text>
</a>
</g>
</g>
<!-- Node5&#45;&gt;Node46 -->
<g id="edge101" class="edge">
<title>Node5&#45;&gt;Node46</title>
<path fill="none" stroke="#191970" d="M2401.0189,-350.0784C2110.6977,-348.1184 1043.608,-338.2511 708.5,-299 590.4991,-285.1786 455.5855,-253.9809 379.2874,-234.1572"/>
<polygon fill="#191970" stroke="#191970" points="379.9325,-230.7082 369.3718,-231.5585 378.1577,-237.4795 379.9325,-230.7082"/>
</g>
<!-- Node47 -->
<g id="node48" class="node">
<title>Node47</title>
<g id="a_node48"><a xlink:href="symbolic__ldlt_8h.html" target="_top" xlink:title="Eigen::LDLT is specialized for drake::symbolic::Expression, for certain matrix sizes.">
<polygon fill="#ffffff" stroke="#000000" points="3792,-268.5 3792,-298.5 3929,-298.5 3929,-268.5 3792,-268.5"/>
<text text-anchor="start" x="3800" y="-286.5" font-family="Helvetica,sans-Serif" font-size="10.00" fill="#000000">drake/common/symbolic</text>
<text text-anchor="middle" x="3860.5" y="-275.5" font-family="Helvetica,sans-Serif" font-size="10.00" fill="#000000">_ldlt.h</text>
</a>
</g>
</g>
<!-- Node5&#45;&gt;Node47 -->
<g id="edge106" class="edge">
<title>Node5&#45;&gt;Node47</title>
<path fill="none" stroke="#191970" d="M2547.8106,-349.128C2783.4595,-344.4827 3520.8025,-328.0597 3781.4989,-298.9551"/>
<polygon fill="#191970" stroke="#191970" points="3782.1558,-302.4027 3791.6898,-297.7818 3781.3551,-295.4486 3782.1558,-302.4027"/>
</g>
<!-- Node48 -->
<g id="node49" class="node">
<title>Node48</title>
<g id="a_node49"><a xlink:href="symbolic__monomial_8h.html" target="_top" xlink:title=" ">
<polygon fill="#ffffff" stroke="#000000" points="2251,-268.5 2251,-298.5 2388,-298.5 2388,-268.5 2251,-268.5"/>
<text text-anchor="start" x="2259" y="-286.5" font-family="Helvetica,sans-Serif" font-size="10.00" fill="#000000">drake/common/symbolic</text>
<text text-anchor="middle" x="2319.5" y="-275.5" font-family="Helvetica,sans-Serif" font-size="10.00" fill="#000000">_monomial.h</text>
</a>
</g>
</g>
<!-- Node5&#45;&gt;Node48 -->
<g id="edge108" class="edge">
<title>Node5&#45;&gt;Node48</title>
<path fill="none" stroke="#191970" d="M2447.3917,-340.9005C2422.5599,-330.9961 2385.7658,-315.2756 2357.9451,-302.7888"/>
<polygon fill="#191970" stroke="#191970" points="2359.0667,-299.4548 2348.5131,-298.5218 2356.1814,-305.8325 2359.0667,-299.4548"/>
</g>
<!-- Node49 -->
<g id="node50" class="node">
<title>Node49</title>
<g id="a_node50"><a xlink:href="symbolic__monomial__util_8h.html" target="_top" xlink:title=" ">
<polygon fill="#ffffff" stroke="#000000" points="2096,-268.5 2096,-298.5 2233,-298.5 2233,-268.5 2096,-268.5"/>
<text text-anchor="start" x="2104" y="-286.5" font-family="Helvetica,sans-Serif" font-size="10.00" fill="#000000">drake/common/symbolic</text>
<text text-anchor="middle" x="2164.5" y="-275.5" font-family="Helvetica,sans-Serif" font-size="10.00" fill="#000000">_monomial_util.h</text>
</a>
</g>
</g>
<!-- Node5&#45;&gt;Node49 -->
<g id="edge117" class="edge">
<title>Node5&#45;&gt;Node49</title>
<path fill="none" stroke="#191970" d="M2425.527,-340.9717C2375.1361,-330.5211 2296.175,-313.5345 2238.2487,-300.733"/>
<polygon fill="#191970" stroke="#191970" points="2238.9365,-297.3006 2228.4162,-298.5553 2237.4228,-304.135 2238.9365,-297.3006"/>
</g>
<!-- Node50 -->
<g id="node51" class="node">
<title>Node50</title>
<g id="a_node51"><a xlink:href="symbolic__polynomial_8h.html" target="_top" xlink:title=" ">
<polygon fill="#ffffff" stroke="#000000" points="1667,-268.5 1667,-298.5 1804,-298.5 1804,-268.5 1667,-268.5"/>
<text text-anchor="start" x="1675" y="-286.5" font-family="Helvetica,sans-Serif" font-size="10.00" fill="#000000">drake/common/symbolic</text>
<text text-anchor="middle" x="1735.5" y="-275.5" font-family="Helvetica,sans-Serif" font-size="10.00" fill="#000000">_polynomial.h</text>
</a>
</g>
</g>
<!-- Node5&#45;&gt;Node50 -->
<g id="edge127" class="edge">
<title>Node5&#45;&gt;Node50</title>
<path fill="none" stroke="#191970" d="M2401.1709,-344.2269C2261.4063,-331.8611 1958.2259,-304.3836 1814.3079,-291.0495"/>
<polygon fill="#191970" stroke="#191970" points="1814.506,-287.5529 1804.2255,-290.1143 1813.8595,-294.523 1814.506,-287.5529"/>
</g>
<!-- Node51 -->
<g id="node52" class="node">
<title>Node51</title>
<g id="a_node52"><a xlink:href="symbolic__rational__function_8h.html" target="_top" xlink:title=" ">
<polygon fill="#ffffff" stroke="#000000" points="2406,-268.5 2406,-298.5 2543,-298.5 2543,-268.5 2406,-268.5"/>
<text text-anchor="start" x="2414" y="-286.5" font-family="Helvetica,sans-Serif" font-size="10.00" fill="#000000">drake/common/symbolic</text>
<text text-anchor="middle" x="2474.5" y="-275.5" font-family="Helvetica,sans-Serif" font-size="10.00" fill="#000000">_rational_function.h</text>
</a>
</g>
</g>
<!-- Node5&#45;&gt;Node51 -->
<g id="edge136" class="edge">
<title>Node5&#45;&gt;Node51</title>
<path fill="none" stroke="#191970" d="M2469.5994,-340.9005C2467.9742,-332.5099 2467.4201,-319.9451 2467.9372,-308.7085"/>
<polygon fill="#191970" stroke="#191970" points="2471.4435,-308.7714 2468.7612,-298.5218 2464.4663,-308.207 2471.4435,-308.7714"/>
</g>
<!-- Node52 -->
<g id="node53" class="node">
<title>Node52</title>
<g id="a_node53"><a xlink:href="symbolic__formula_8h.html" target="_top" xlink:title=" ">
<polygon fill="#ffffff" stroke="#000000" points="2561,-268.5 2561,-298.5 2698,-298.5 2698,-268.5 2561,-268.5"/>
<text text-anchor="start" x="2569" y="-286.5" font-family="Helvetica,sans-Serif" font-size="10.00" fill="#000000">drake/common/symbolic</text>
<text text-anchor="middle" x="2629.5" y="-275.5" font-family="Helvetica,sans-Serif" font-size="10.00" fill="#000000">_formula.h</text>
</a>
</g>
</g>
<!-- Node5&#45;&gt;Node52 -->
<g id="edge139" class="edge">
<title>Node5&#45;&gt;Node52</title>
<path fill="none" stroke="#191970" d="M2491.8071,-340.9005C2512.9854,-330.9096 2549.3732,-315.0006 2579.4818,-302.4624"/>
<polygon fill="#191970" stroke="#191970" points="2581.1063,-305.5781 2589.0094,-298.5218 2578.4309,-299.1095 2581.1063,-305.5781"/>
</g>
<!-- Node54 -->
<g id="node55" class="node">
<title>Node54</title>
<g id="a_node55"><a xlink:href="symbolic__formula__visitor_8h.html" target="_top" xlink:title=" ">
<polygon fill="#ffffff" stroke="#000000" points="727,-268.5 727,-298.5 864,-298.5 864,-268.5 727,-268.5"/>
<text text-anchor="start" x="735" y="-286.5" font-family="Helvetica,sans-Serif" font-size="10.00" fill="#000000">drake/common/symbolic</text>
<text text-anchor="middle" x="795.5" y="-275.5" font-family="Helvetica,sans-Serif" font-size="10.00" fill="#000000">_formula_visitor.h</text>
</a>
</g>
</g>
<!-- Node5&#45;&gt;Node54 -->
<g id="edge156" class="edge">
<title>Node5&#45;&gt;Node54</title>
<path fill="none" stroke="#191970" d="M2401.309,-347.6958C2126.6024,-336.9347 1158.6102,-298.3101 874.4476,-286.7752"/>
<polygon fill="#191970" stroke="#191970" points="874.3624,-283.269 864.2286,-286.3601 874.0782,-290.2632 874.3624,-283.269"/>
</g>
<!-- Node55 -->
<g id="node56" class="node">
<title>Node55</title>
<g id="a_node56"><a xlink:href="symbolic__simplification_8h.html" target="_top" xlink:title=" ">
<polygon fill="#ffffff" stroke="#000000" points="3947,-268.5 3947,-298.5 4084,-298.5 4084,-268.5 3947,-268.5"/>
<text text-anchor="start" x="3955" y="-286.5" font-family="Helvetica,sans-Serif" font-size="10.00" fill="#000000">drake/common/symbolic</text>
<text text-anchor="middle" x="4015.5" y="-275.5" font-family="Helvetica,sans-Serif" font-size="10.00" fill="#000000">_simplification.h</text>
</a>
</g>
</g>
<!-- Node5&#45;&gt;Node55 -->
<g id="edge160" class="edge">
<title>Node5&#45;&gt;Node55</title>
<path fill="none" stroke="#191970" d="M2547.8155,-349.4277C2803.7435,-345.5291 3656.1675,-330.6433 3928.5,-299 3931.1721,-298.6895 3933.8893,-298.3365 3936.6333,-297.9492"/>
<polygon fill="#191970" stroke="#191970" points="3937.2991,-301.3881 3946.6526,-296.4119 3936.2374,-294.4691 3937.2991,-301.3881"/>
</g>
<!-- Node56 -->
<g id="node57" class="node">
<title>Node56</title>
<g id="a_node57"><a xlink:href="symbolic__codegen_8h.html" target="_top" xlink:title=" ">
<polygon fill="#ffffff" stroke="#000000" points="3193,-268.5 3193,-298.5 3330,-298.5 3330,-268.5 3193,-268.5"/>
<text text-anchor="start" x="3201" y="-286.5" font-family="Helvetica,sans-Serif" font-size="10.00" fill="#000000">drake/common/symbolic</text>
<text text-anchor="middle" x="3261.5" y="-275.5" font-family="Helvetica,sans-Serif" font-size="10.00" fill="#000000">_codegen.h</text>
</a>
</g>
</g>
<!-- Node5&#45;&gt;Node56 -->
<g id="edge164" class="edge">
<title>Node5&#45;&gt;Node56</title>
<path fill="none" stroke="#191970" d="M2547.5345,-343.9231C2695.5758,-331.031 3029.6807,-302.5891 3182.5426,-289.8675"/>
<polygon fill="#191970" stroke="#191970" points="3183.1124,-293.3323 3192.7881,-289.0158 3182.5325,-286.3563 3183.1124,-293.3323"/>
</g>
<!-- Node7 -->
<g id="node8" class="node">
<title>Node7</title>
<g id="a_node8"><a xlink:title=" ">
<polygon fill="#ffffff" stroke="#bfbfbf" points="1904,-140 1904,-159 1957,-159 1957,-140 1904,-140"/>
<text text-anchor="middle" x="1930.5" y="-147" font-family="Helvetica,sans-Serif" font-size="10.00" fill="#000000">cstddef</text>
</a>
</g>
</g>
<!-- Node6&#45;&gt;Node7 -->
<g id="edge8" class="edge">
<title>Node6&#45;&gt;Node7</title>
<path fill="none" stroke="#191970" d="M3722.7024,-268.4116C3741.1803,-250.4537 3765.4923,-220.4574 3746.5,-201 3717.6201,-171.4129 2299.8191,-166.4759 2258.5,-165 2152.8916,-161.2277 2028.2475,-154.7914 1967.5083,-151.5271"/>
<polygon fill="#191970" stroke="#191970" points="1967.451,-148.019 1957.2768,-150.9747 1967.0735,-155.0088 1967.451,-148.019"/>
</g>
<!-- Node8 -->
<g id="node9" class="node">
<title>Node8</title>
<g id="a_node9"><a xlink:title=" ">
<polygon fill="#ffffff" stroke="#bfbfbf" points="2412,-140 2412,-159 2477,-159 2477,-140 2412,-140"/>
<text text-anchor="middle" x="2444.5" y="-147" font-family="Helvetica,sans-Serif" font-size="10.00" fill="#000000">functional</text>
</a>
</g>
</g>
<!-- Node6&#45;&gt;Node8 -->
<g id="edge9" class="edge">
<title>Node6&#45;&gt;Node8</title>
<path fill="none" stroke="#191970" d="M3754.2662,-268.3636C3795.522,-253.2025 3844.0298,-228.2571 3817.5,-201 3765.9062,-147.9919 2559.1362,-178.9913 2486.5,-165 2483.0369,-164.3329 2479.482,-163.4154 2475.9766,-162.3571"/>
<polygon fill="#191970" stroke="#191970" points="2476.9403,-158.9882 2466.346,-159.0931 2474.6934,-165.6178 2476.9403,-158.9882"/>
</g>
<!-- Node9 -->
<g id="node10" class="node">
<title>Node9</title>
<g id="a_node10"><a xlink:title=" ">
<polygon fill="#ffffff" stroke="#bfbfbf" points="2083.5,-73 2083.5,-92 2141.5,-92 2141.5,-73 2083.5,-73"/>
<text text-anchor="middle" x="2112.5" y="-80" font-family="Helvetica,sans-Serif" font-size="10.00" fill="#000000">memory</text>
</a>
</g>
</g>
<!-- Node6&#45;&gt;Node9 -->
<g id="edge10" class="edge">
<title>Node6&#45;&gt;Node9</title>
<path fill="none" stroke="#191970" d="M3767.2121,-268.4867C3812.6901,-256.8009 3867.7682,-241.0889 3874.5,-232 3882.7004,-220.9284 3882.8649,-211.9479 3874.5,-201 3874.5,-201 3628.5,-134 3628.5,-134 3331.4476,-89.1253 2359.7083,-83.3319 2151.8536,-82.6026"/>
<polygon fill="#191970" stroke="#191970" points="2151.7237,-79.1022 2141.7121,-82.569 2151.7004,-86.1022 2151.7237,-79.1022"/>
</g>
<!-- Node10 -->
<g id="node11" class="node">
<title>Node10</title>
<g id="a_node11"><a xlink:title=" ">
<polygon fill="#ffffff" stroke="#bfbfbf" points="2506,-207 2506,-226 2563,-226 2563,-207 2506,-207"/>
<text text-anchor="middle" x="2534.5" y="-214" font-family="Helvetica,sans-Serif" font-size="10.00" fill="#000000">ostream</text>
</a>
</g>
</g>
<!-- Node6&#45;&gt;Node10 -->
<g id="edge11" class="edge">
<title>Node6&#45;&gt;Node10</title>
<path fill="none" stroke="#191970" d="M3636.8118,-279.6232C3485.6483,-271.0844 3112.76,-249.9825 2800.5,-232 2719.7052,-227.3472 2625.1117,-221.8149 2573.312,-218.7782"/>
<polygon fill="#191970" stroke="#191970" points="2573.4216,-215.2787 2563.2338,-218.1872 2573.0118,-222.2667 2573.4216,-215.2787"/>
</g>
<!-- Node11 -->
<g id="node12" class="node">
<title>Node11</title>
<g id="a_node12"><a xlink:title=" ">
<polygon fill="#ffffff" stroke="#bfbfbf" points="3357.5,-73 3357.5,-92 3401.5,-92 3401.5,-73 3357.5,-73"/>
<text text-anchor="middle" x="3379.5" y="-80" font-family="Helvetica,sans-Serif" font-size="10.00" fill="#000000">string</text>
</a>
</g>
</g>
<!-- Node6&#45;&gt;Node11 -->
<g id="edge12" class="edge">
<title>Node6&#45;&gt;Node11</title>
<path fill="none" stroke="#191970" d="M3774.3412,-269.6124C3777.0964,-269.066 3779.8241,-268.5269 3782.5,-268 3869.1214,-250.944 4022.3573,-271.7126 3969.5,-201 3906.5202,-116.7455 3845.2928,-156.3364 3742.5,-134 3621.9625,-107.8078 3475.9055,-91.7588 3412.0368,-85.5055"/>
<polygon fill="#191970" stroke="#191970" points="3412.0879,-81.9943 3401.7982,-84.5185 3411.4161,-88.962 3412.0879,-81.9943"/>
</g>
<!-- Node12 -->
<g id="node13" class="node">
<title>Node12</title>
<g id="a_node13"><a xlink:title=" ">
<polygon fill="#ffffff" stroke="#bfbfbf" points="2696,-140 2696,-159 2765,-159 2765,-140 2696,-140"/>
<text text-anchor="middle" x="2730.5" y="-147" font-family="Helvetica,sans-Serif" font-size="10.00" fill="#000000">Eigen/Core</text>
</a>
</g>
</g>
<!-- Node6&#45;&gt;Node12 -->
<g id="edge13" class="edge">
<title>Node6&#45;&gt;Node12</title>
<path fill="none" stroke="#191970" d="M3774.0608,-270.1496C3827.1964,-256.9273 3886.9101,-233.8809 3855.5,-201 3836.5112,-181.1221 2982.1415,-156.4105 2775.2597,-150.7108"/>
<polygon fill="#191970" stroke="#191970" points="2775.1559,-147.2067 2765.0636,-150.4309 2774.9637,-154.2041 2775.1559,-147.2067"/>
</g>
<!-- Node13 -->
<g id="node14" class="node">
<title>Node13</title>
<g id="a_node14"><a xlink:href="drake__copyable_8h.html" target="_top" xlink:title="Provides careful macros to selectively enable or disable the special member functions for copy&#45;constr...">
<polygon fill="#ffffff" stroke="#000000" points="2869,-.5 2869,-30.5 2990,-30.5 2990,-.5 2869,-.5"/>
<text text-anchor="start" x="2877" y="-18.5" font-family="Helvetica,sans-Serif" font-size="10.00" fill="#000000">drake/common/drake</text>
<text text-anchor="middle" x="2929.5" y="-7.5" font-family="Helvetica,sans-Serif" font-size="10.00" fill="#000000">_copyable.h</text>
</a>
</g>
</g>
<!-- Node6&#45;&gt;Node13 -->
<g id="edge14" class="edge">
<title>Node6&#45;&gt;Node13</title>
<path fill="none" stroke="#191970" d="M3745.0259,-268.4754C3760.8885,-260.2614 3777.5155,-248.3591 3786.5,-232 3800.4782,-206.5483 3769.8101,-136.6239 3767.5,-134 3717.3677,-77.0579 3684.2021,-84.9906 3610.5,-67 3496.2838,-39.12 3150.3412,-23.5295 3000.2446,-17.9192"/>
<polygon fill="#191970" stroke="#191970" points="3000.3362,-14.4203 2990.2137,-17.5483 3000.0775,-21.4155 3000.3362,-14.4203"/>
</g>
<!-- Node14 -->
<g id="node15" class="node">
<title>Node14</title>
<g id="a_node15"><a xlink:href="eigen__types_8h.html" target="_top" xlink:title="This file contains abbreviated definitions for certain specializations of Eigen::Matrix that are comm...">
<polygon fill="#ffffff" stroke="#000000" points="3289.5,-201.5 3289.5,-231.5 3409.5,-231.5 3409.5,-201.5 3289.5,-201.5"/>
<text text-anchor="start" x="3297.5" y="-219.5" font-family="Helvetica,sans-Serif" font-size="10.00" fill="#000000">drake/common/eigen</text>
<text text-anchor="middle" x="3349.5" y="-208.5" font-family="Helvetica,sans-Serif" font-size="10.00" fill="#000000">_types.h</text>
</a>
</g>
</g>
<!-- Node6&#45;&gt;Node14 -->
<g id="edge15" class="edge">
<title>Node6&#45;&gt;Node14</title>
<path fill="none" stroke="#191970" d="M3636.8596,-270.5817C3574.3363,-258.8147 3482.4221,-241.5162 3419.4825,-229.6709"/>
<polygon fill="#191970" stroke="#191970" points="3420.1137,-226.2283 3409.6388,-227.8183 3418.8189,-233.1075 3420.1137,-226.2283"/>
</g>
<!-- Node19 -->
<g id="node20" class="node">
<title>Node19</title>
<g id="a_node20"><a xlink:href="hash_8h.html" target="_top" xlink:title=" ">
<polygon fill="#ffffff" stroke="#000000" points="2210,-207 2210,-226 2335,-226 2335,-207 2210,-207"/>
<text text-anchor="middle" x="2272.5" y="-214" font-family="Helvetica,sans-Serif" font-size="10.00" fill="#000000">drake/common/hash.h</text>
</a>
</g>
</g>
<!-- Node6&#45;&gt;Node19 -->
<g id="edge22" class="edge">
<title>Node6&#45;&gt;Node19</title>
<path fill="none" stroke="#191970" d="M3636.6851,-280.5933C3384.651,-269.9446 2525.1288,-233.6 2496.5,-232 2445.9481,-229.1748 2389.0321,-225.2265 2345.2223,-222.022"/>
<polygon fill="#191970" stroke="#191970" points="2345.4621,-218.5303 2335.2324,-221.2876 2344.9488,-225.5114 2345.4621,-218.5303"/>
</g>
<!-- Node14&#45;&gt;Node4 -->
<g id="edge16" class="edge">
<title>Node14&#45;&gt;Node4</title>
<path fill="none" stroke="#191970" d="M3302.3193,-201.459C3245.413,-183.684 3146.6501,-154.002 3060.5,-134 2896.8592,-96.0065 2855.5287,-84.9785 2688.5,-67 2406.6844,-36.6662 1486.6192,-19.2934 1301.2267,-16.0548"/>
<polygon fill="#191970" stroke="#191970" points="1301.0922,-12.552 1291.033,-15.8781 1300.9708,-19.551 1301.0922,-12.552"/>
</g>
<!-- Node14&#45;&gt;Node13 -->
<g id="edge21" class="edge">
<title>Node14&#45;&gt;Node13</title>
<path fill="none" stroke="#191970" d="M3409.9516,-208.3097C3462.3477,-198.2066 3526.5609,-176.8155 3504.5,-134 3481.0013,-88.394 3458.4617,-85.2148 3410.5,-67 3337.2405,-39.1777 3115.184,-24.5516 3000.1995,-18.6672"/>
<polygon fill="#191970" stroke="#191970" points="3000.2515,-15.1655 2990.0881,-18.1582 2999.8995,-22.1566 3000.2515,-15.1655"/>
</g>
<!-- Node15 -->
<g id="node16" class="node">
<title>Node15</title>
<g id="a_node16"><a xlink:title=" ">
<polygon fill="#ffffff" stroke="#bfbfbf" points="3252,-140 3252,-159 3329,-159 3329,-140 3252,-140"/>
<text text-anchor="middle" x="3290.5" y="-147" font-family="Helvetica,sans-Serif" font-size="10.00" fill="#000000">Eigen/Dense</text>
</a>
</g>
</g>
<!-- Node14&#45;&gt;Node15 -->
<g id="edge17" class="edge">
<title>Node14&#45;&gt;Node15</title>
<path fill="none" stroke="#191970" d="M3336.112,-201.2967C3327.098,-191.0605 3315.1889,-177.5366 3305.8,-166.8746"/>
<polygon fill="#191970" stroke="#191970" points="3308.1496,-164.2468 3298.9141,-159.055 3302.8962,-168.873 3308.1496,-164.2468"/>
</g>
<!-- Node16 -->
<g id="node17" class="node">
<title>Node16</title>
<g id="a_node17"><a xlink:href="constants_8h.html" target="_top" xlink:title=" ">
<polygon fill="#ffffff" stroke="#000000" points="3347,-140 3347,-159 3496,-159 3496,-140 3347,-140"/>
<text text-anchor="middle" x="3421.5" y="-147" font-family="Helvetica,sans-Serif" font-size="10.00" fill="#000000">drake/common/constants.h</text>
</a>
</g>
</g>
<!-- Node14&#45;&gt;Node16 -->
<g id="edge18" class="edge">
<title>Node14&#45;&gt;Node16</title>
<path fill="none" stroke="#191970" d="M3365.8379,-201.2967C3377.1648,-190.7564 3392.2376,-176.7303 3403.8414,-165.9323"/>
<polygon fill="#191970" stroke="#191970" points="3406.2956,-168.4296 3411.232,-159.055 3401.5269,-163.3051 3406.2956,-168.4296"/>
</g>
<!-- Node17 -->
<g id="node18" class="node">
<title>Node17</title>
<g id="a_node18"><a xlink:href="drake__assert_8h.html" target="_top" xlink:title="Provides Drake&#39;s assertion implementation.">
<polygon fill="#ffffff" stroke="#000000" points="1074,-67.5 1074,-97.5 1195,-97.5 1195,-67.5 1074,-67.5"/>
<text text-anchor="start" x="1082" y="-85.5" font-family="Helvetica,sans-Serif" font-size="10.00" fill="#000000">drake/common/drake</text>
<text text-anchor="middle" x="1134.5" y="-74.5" font-family="Helvetica,sans-Serif" font-size="10.00" fill="#000000">_assert.h</text>
</a>
</g>
</g>
<!-- Node14&#45;&gt;Node17 -->
<g id="edge19" class="edge">
<title>Node14&#45;&gt;Node17</title>
<path fill="none" stroke="#191970" d="M3289.2305,-205.4578C3184.6885,-186.8459 2962.7666,-149.7235 2773.5,-134 2095.2041,-77.6499 1920.7879,-154.4463 1242.5,-98 1230.4807,-96.9998 1217.7593,-95.5383 1205.4286,-93.9068"/>
<polygon fill="#191970" stroke="#191970" points="1205.5693,-90.3934 1195.1866,-92.5028 1204.6186,-97.3286 1205.5693,-90.3934"/>
</g>
<!-- Node18 -->
<g id="node19" class="node">
<title>Node18</title>
<g id="a_node19"><a xlink:title=" ">
<polygon fill="#ffffff" stroke="#bfbfbf" points="1100,-6 1100,-25 1169,-25 1169,-6 1100,-6"/>
<text text-anchor="middle" x="1134.5" y="-13" font-family="Helvetica,sans-Serif" font-size="10.00" fill="#000000">type_traits</text>
</a>
</g>
</g>
<!-- Node17&#45;&gt;Node18 -->
<g id="edge20" class="edge">
<title>Node17&#45;&gt;Node18</title>
<path fill="none" stroke="#191970" d="M1134.5,-67.2967C1134.5,-57.7699 1134.5,-45.3954 1134.5,-35.1306"/>
<polygon fill="#191970" stroke="#191970" points="1138.0001,-35.0549 1134.5,-25.055 1131.0001,-35.055 1138.0001,-35.0549"/>
</g>
<!-- Node19&#45;&gt;Node4 -->
<g id="edge32" class="edge">
<title>Node19&#45;&gt;Node4</title>
<path fill="none" stroke="#191970" d="M2268.1666,-206.854C2255.1094,-179.103 2213.1479,-99.0071 2150.5,-67 2073.7941,-27.8106 1452.6233,-17.7438 1301.5333,-15.8651"/>
<polygon fill="#191970" stroke="#191970" points="1301.1308,-12.36 1291.0893,-15.7391 1301.0463,-19.3595 1301.1308,-12.36"/>
</g>
<!-- Node19&#45;&gt;Node7 -->
<g id="edge24" class="edge">
<title>Node19&#45;&gt;Node7</title>
<path fill="none" stroke="#191970" d="M2229.9389,-206.924C2220.2805,-204.8662 2210.0536,-202.7778 2200.5,-201 2099.2111,-182.1512 2071.0997,-191.3555 1971.5,-165 1968.6723,-164.2518 1965.7695,-163.3788 1962.8778,-162.4354"/>
<polygon fill="#191970" stroke="#191970" points="1963.8095,-159.0529 1953.2146,-159.0356 1961.4862,-165.6562 1963.8095,-159.0529"/>
</g>
<!-- Node19&#45;&gt;Node8 -->
<g id="edge25" class="edge">
<title>Node19&#45;&gt;Node8</title>
<path fill="none" stroke="#191970" d="M2297.1434,-206.9005C2326.9029,-195.3082 2377.1156,-175.7486 2410.533,-162.7313"/>
<polygon fill="#191970" stroke="#191970" points="2411.8547,-165.9727 2419.9023,-159.0817 2409.3139,-159.4501 2411.8547,-165.9727"/>
</g>
<!-- Node19&#45;&gt;Node11 -->
<g id="edge30" class="edge">
<title>Node19&#45;&gt;Node11</title>
<path fill="none" stroke="#191970" d="M2311.7322,-206.9682C2320.8247,-204.8859 2330.48,-202.776 2339.5,-201 2437.1421,-181.7745 2469.7498,-205.8411 2560.5,-165 2580.3759,-156.0551 2578.2193,-141.9847 2598.5,-134 2668.9004,-106.2828 3207.9359,-87.8134 3346.9015,-83.4796"/>
<polygon fill="#191970" stroke="#191970" points="3347.407,-86.9657 3357.2941,-83.1587 3347.1909,-79.9691 3347.407,-86.9657"/>
</g>
<!-- Node19&#45;&gt;Node17 -->
<g id="edge34" class="edge">
<title>Node19&#45;&gt;Node17</title>
<path fill="none" stroke="#191970" d="M2229.5285,-206.9931C2219.9843,-204.9531 2209.9087,-202.8547 2200.5,-201 2111.4587,-183.4474 2080.8915,-205.1482 1999.5,-165 1981.1605,-155.9536 1984.3784,-141.8599 1965.5,-134 1816.9914,-72.1697 1402.6227,-113.4431 1242.5,-98 1230.4949,-96.8422 1217.7806,-95.3014 1205.4526,-93.6399"/>
<polygon fill="#191970" stroke="#191970" points="1205.5975,-90.1266 1195.2119,-92.2216 1204.6371,-97.0605 1205.5975,-90.1266"/>
</g>
<!-- Node19&#45;&gt;Node18 -->
<g id="edge31" class="edge">
<title>Node19&#45;&gt;Node18</title>
<path fill="none" stroke="#191970" d="M2252.477,-206.9772C2214.9486,-189.5569 2131.0786,-152.6384 2056.5,-134 1700.1517,-44.9426 1600.3223,-81.4846 1236.5,-31 1217.8131,-28.407 1197.2365,-25.3238 1179.4885,-22.5928"/>
<polygon fill="#191970" stroke="#191970" points="1179.819,-19.1024 1169.4013,-21.0319 1178.7485,-26.02 1179.819,-19.1024"/>
</g>
<!-- Node20 -->
<g id="node21" class="node">
<title>Node20</title>
<g id="a_node21"><a xlink:title=" ">
<polygon fill="#ffffff" stroke="#bfbfbf" points="2268,-140 2268,-159 2315,-159 2315,-140 2268,-140"/>
<text text-anchor="middle" x="2291.5" y="-147" font-family="Helvetica,sans-Serif" font-size="10.00" fill="#000000">cmath</text>
</a>
</g>
</g>
<!-- Node19&#45;&gt;Node20 -->
<g id="edge23" class="edge">
<title>Node19&#45;&gt;Node20</title>
<path fill="none" stroke="#191970" d="M2275.2222,-206.9005C2278.0158,-197.0495 2282.441,-181.4451 2285.9727,-168.9912"/>
<polygon fill="#191970" stroke="#191970" points="2289.4217,-169.6572 2288.7828,-159.0817 2282.6873,-167.7474 2289.4217,-169.6572"/>
</g>
<!-- Node21 -->
<g id="node22" class="node">
<title>Node21</title>
<g id="a_node22"><a xlink:title=" ">
<polygon fill="#ffffff" stroke="#bfbfbf" points="2333.5,-140 2333.5,-159 2393.5,-159 2393.5,-140 2333.5,-140"/>
<text text-anchor="middle" x="2363.5" y="-147" font-family="Helvetica,sans-Serif" font-size="10.00" fill="#000000">iostream</text>
</a>
</g>
</g>
<!-- Node19&#45;&gt;Node21 -->
<g id="edge26" class="edge">
<title>Node19&#45;&gt;Node21</title>
<path fill="none" stroke="#191970" d="M2285.5381,-206.9005C2300.2693,-196.0544 2324.4733,-178.2339 2342.0092,-165.3229"/>
<polygon fill="#191970" stroke="#191970" points="2344.5085,-167.8291 2350.4861,-159.0817 2340.3582,-162.1922 2344.5085,-167.8291"/>
</g>
<!-- Node22 -->
<g id="node23" class="node">
<title>Node22</title>
<g id="a_node23"><a xlink:title=" ">
<polygon fill="#ffffff" stroke="#bfbfbf" points="1602.5,-140 1602.5,-159 1640.5,-159 1640.5,-140 1602.5,-140"/>
<text text-anchor="middle" x="1621.5" y="-147" font-family="Helvetica,sans-Serif" font-size="10.00" fill="#000000">map</text>
</a>
</g>
</g>
<!-- Node19&#45;&gt;Node22 -->
<g id="edge27" class="edge">
<title>Node19&#45;&gt;Node22</title>
<path fill="none" stroke="#191970" d="M2232.2964,-206.9291C2221.9792,-204.7255 2210.8665,-202.5707 2200.5,-201 1991.1604,-169.2806 1736.0592,-154.962 1650.8079,-150.8271"/>
<polygon fill="#191970" stroke="#191970" points="1650.7496,-147.3205 1640.5946,-150.3415 1650.4171,-154.3126 1650.7496,-147.3205"/>
</g>
<!-- Node23 -->
<g id="node24" class="node">
<title>Node23</title>
<g id="a_node24"><a xlink:title=" ">
<polygon fill="#ffffff" stroke="#bfbfbf" points="2495.5,-140 2495.5,-159 2551.5,-159 2551.5,-140 2495.5,-140"/>
<text text-anchor="middle" x="2523.5" y="-147" font-family="Helvetica,sans-Serif" font-size="10.00" fill="#000000">optional</text>
</a>
</g>
</g>
<!-- Node19&#45;&gt;Node23 -->
<g id="edge28" class="edge">
<title>Node19&#45;&gt;Node23</title>
<path fill="none" stroke="#191970" d="M2320.8679,-206.9714C2364.4168,-197.8825 2429.9255,-182.9408 2485.5,-165 2487.6485,-164.3064 2489.8474,-163.547 2492.0512,-162.7488"/>
<polygon fill="#191970" stroke="#191970" points="2493.5213,-165.9336 2501.604,-159.0838 2491.0139,-159.3981 2493.5213,-165.9336"/>
</g>
<!-- Node24 -->
<g id="node25" class="node">
<title>Node24</title>
<g id="a_node25"><a xlink:title=" ">
<polygon fill="#ffffff" stroke="#bfbfbf" points="2607.5,-140 2607.5,-159 2639.5,-159 2639.5,-140 2607.5,-140"/>
<text text-anchor="middle" x="2623.5" y="-147" font-family="Helvetica,sans-Serif" font-size="10.00" fill="#000000">set</text>
</a>
</g>
</g>
<!-- Node19&#45;&gt;Node24 -->
<g id="edge29" class="edge">
<title>Node19&#45;&gt;Node24</title>
<path fill="none" stroke="#191970" d="M2318.0279,-206.9264C2328.3564,-204.8685 2339.2904,-202.7795 2349.5,-201 2457.4903,-182.1775 2489.1633,-198.6162 2593.5,-165 2594.9647,-164.5281 2596.4445,-163.99 2597.9209,-163.4042"/>
<polygon fill="#191970" stroke="#191970" points="2599.7905,-166.3971 2607.4179,-159.0436 2596.8696,-160.0356 2599.7905,-166.3971"/>
</g>
<!-- Node25 -->
<g id="node26" class="node">
<title>Node25</title>
<g id="a_node26"><a xlink:title=" ">
<polygon fill="#ffffff" stroke="#bfbfbf" points="1252,-73 1252,-92 1299,-92 1299,-73 1252,-73"/>
<text text-anchor="middle" x="1275.5" y="-80" font-family="Helvetica,sans-Serif" font-size="10.00" fill="#000000">vector</text>
</a>
</g>
</g>
<!-- Node19&#45;&gt;Node25 -->
<g id="edge33" class="edge">
<title>Node19&#45;&gt;Node25</title>
<path fill="none" stroke="#191970" d="M2234.6405,-206.9902C2196.6858,-197.2421 2136.693,-181.2492 2085.5,-165 2046.7744,-152.708 2039.2498,-142.4096 1999.5,-134 1864.884,-105.52 1433.0698,-88.153 1309.0801,-83.6642"/>
<polygon fill="#191970" stroke="#191970" points="1309.1571,-80.1648 1299.0382,-83.3046 1308.9065,-87.1604 1309.1571,-80.1648"/>
</g>
<!-- Node26 -->
<g id="node27" class="node">
<title>Node26</title>
<g id="a_node27"><a xlink:href="drake__throw_8h.html" target="_top" xlink:title="Provides a convenient wrapper to throw an exception when a condition is unmet.">
<polygon fill="#ffffff" stroke="#000000" points="1133,-134.5 1133,-164.5 1254,-164.5 1254,-134.5 1133,-134.5"/>
<text text-anchor="start" x="1141" y="-152.5" font-family="Helvetica,sans-Serif" font-size="10.00" fill="#000000">drake/common/drake</text>
<text text-anchor="middle" x="1193.5" y="-141.5" font-family="Helvetica,sans-Serif" font-size="10.00" fill="#000000">_throw.h</text>
</a>
</g>
</g>
<!-- Node19&#45;&gt;Node26 -->
<g id="edge35" class="edge">
<title>Node19&#45;&gt;Node26</title>
<path fill="none" stroke="#191970" d="M2233.8404,-206.9688C2223.1053,-204.653 2211.4025,-202.4334 2200.5,-201 1879.3132,-158.7717 1796.0054,-181.9849 1472.5,-165 1401.6953,-161.2826 1320.7998,-156.7577 1264.4135,-153.559"/>
<polygon fill="#191970" stroke="#191970" points="1264.3605,-150.0505 1254.1781,-152.9777 1263.9635,-157.0392 1264.3605,-150.0505"/>
</g>
<!-- Node26&#45;&gt;Node17 -->
<g id="edge37" class="edge">
<title>Node26&#45;&gt;Node17</title>
<path fill="none" stroke="#191970" d="M1180.112,-134.2967C1172.5685,-125.7303 1162.9973,-114.8614 1154.5726,-105.2943"/>
<polygon fill="#191970" stroke="#191970" points="1157.0706,-102.835 1147.835,-97.6432 1151.8171,-107.4612 1157.0706,-102.835"/>
</g>
<!-- Node26&#45;&gt;Node18 -->
<g id="edge36" class="edge">
<title>Node26&#45;&gt;Node18</title>
<path fill="none" stroke="#191970" d="M1200.2017,-134.3288C1206.7541,-117.0838 1214.3003,-88.5381 1203.5,-67 1195.4752,-50.9968 1179.8569,-38.6956 1165.5066,-30.135"/>
<polygon fill="#191970" stroke="#191970" points="1166.7933,-26.846 1156.3521,-25.0484 1163.3934,-32.9649 1166.7933,-26.846"/>
</g>
<!-- Node27&#45;&gt;Node5 -->
<g id="edge47" class="edge">
<title>Node27&#45;&gt;Node5</title>
<path fill="none" stroke="#191970" d="M2720.5838,-298.5553C2665.6003,-310.7606 2587.0076,-327.7118 2533.4941,-338.886"/>
<polygon fill="#191970" stroke="#191970" points="2532.55,-335.5074 2523.473,-340.9717 2533.9764,-342.3606 2532.55,-335.5074"/>
</g>
<!-- Node27&#45;&gt;Node7 -->
<g id="edge39" class="edge">
<title>Node27&#45;&gt;Node7</title>
<path fill="none" stroke="#191970" d="M2753.9923,-268.4305C2713.4187,-249.1562 2638.9579,-216.4289 2571.5,-201 2455.0269,-174.3604 2085.2257,-156.266 1967.1295,-151.0501"/>
<polygon fill="#191970" stroke="#191970" points="1967.2818,-147.5535 1957.1384,-150.6131 1966.9758,-154.5468 1967.2818,-147.5535"/>
</g>
<!-- Node27&#45;&gt;Node8 -->
<g id="edge40" class="edge">
<title>Node27&#45;&gt;Node8</title>
<path fill="none" stroke="#191970" d="M2784.1497,-268.3611C2782.8336,-249.4802 2777.5531,-217.6618 2757.5,-201 2710.7733,-162.1757 2545.4693,-179.6062 2486.5,-165 2483.5035,-164.2578 2480.4257,-163.3728 2477.3642,-162.4071"/>
<polygon fill="#191970" stroke="#191970" points="2478.3536,-159.0466 2467.7591,-159.1242 2476.0897,-165.6704 2478.3536,-159.0466"/>
</g>
<!-- Node27&#45;&gt;Node10 -->
<g id="edge42" class="edge">
<title>Node27&#45;&gt;Node10</title>
<path fill="none" stroke="#191970" d="M2728.3951,-268.4639C2681.0486,-255.775 2614.5246,-237.9466 2572.9961,-226.8169"/>
<polygon fill="#191970" stroke="#191970" points="2573.8234,-223.4152 2563.2582,-224.2072 2572.0113,-230.1766 2573.8234,-223.4152"/>
</g>
<!-- Node27&#45;&gt;Node11 -->
<g id="edge44" class="edge">
<title>Node27&#45;&gt;Node11</title>
<path fill="none" stroke="#191970" d="M2853.2704,-269.1814C2856.0452,-268.7544 2858.7963,-268.3579 2861.5,-268 2984.4636,-251.7248 3303.0571,-277.3639 3418.5,-232 3438.7859,-224.0286 3439.3336,-214.4305 3456.5,-201 3477.5026,-184.5682 3492.5743,-188.8514 3504.5,-165 3510.6616,-152.6768 3512.1654,-145.4486 3504.5,-134 3483.9414,-103.2947 3441.3928,-90.8784 3411.6771,-85.8691"/>
<polygon fill="#191970" stroke="#191970" points="3412.1657,-82.4033 3401.7585,-84.3883 3411.1321,-89.3266 3412.1657,-82.4033"/>
</g>
<!-- Node27&#45;&gt;Node14 -->
<g id="edge45" class="edge">
<title>Node27&#45;&gt;Node14</title>
<path fill="none" stroke="#191970" d="M2853.2853,-269.2878C2856.0559,-268.8314 2858.8022,-268.3996 2861.5,-268 3027.5636,-243.403 3070.7624,-251.511 3237.5,-232 3251.0708,-230.412 3265.5418,-228.5417 3279.4202,-226.6599"/>
<polygon fill="#191970" stroke="#191970" points="3279.9679,-230.1177 3289.3998,-225.2916 3279.017,-223.1825 3279.9679,-230.1177"/>
</g>
<!-- Node27&#45;&gt;Node19 -->
<g id="edge46" class="edge">
<title>Node27&#45;&gt;Node19</title>
<path fill="none" stroke="#191970" d="M2715.6487,-269.5152C2712.5604,-268.9834 2709.5,-268.4753 2706.5,-268 2579.9876,-247.955 2431.6011,-231.9517 2345.2045,-223.3763"/>
<polygon fill="#191970" stroke="#191970" points="2345.5343,-219.8919 2335.2389,-222.3928 2344.8468,-226.8581 2345.5343,-219.8919"/>
</g>
<!-- Node27&#45;&gt;Node24 -->
<g id="edge43" class="edge">
<title>Node27&#45;&gt;Node24</title>
<path fill="none" stroke="#191970" d="M2844.0698,-268.4948C2888.4461,-254.4843 2937.2602,-231.2095 2911.5,-201 2878.6449,-162.4702 2736.1271,-175.0572 2686.5,-165 2674.2447,-162.5164 2660.771,-159.272 2649.4403,-156.3936"/>
<polygon fill="#191970" stroke="#191970" points="2650.2911,-152.9986 2639.7334,-153.8855 2648.5398,-159.776 2650.2911,-152.9986"/>
</g>
<!-- Node28 -->
<g id="node29" class="node">
<title>Node28</title>
<g id="a_node29"><a xlink:title=" ">
<polygon fill="#ffffff" stroke="#bfbfbf" points="3466,-207 3466,-226 3549,-226 3549,-207 3466,-207"/>
<text text-anchor="middle" x="3507.5" y="-214" font-family="Helvetica,sans-Serif" font-size="10.00" fill="#000000">initializer_list</text>
</a>
</g>
</g>
<!-- Node27&#45;&gt;Node28 -->
<g id="edge41" class="edge">
<title>Node27&#45;&gt;Node28</title>
<path fill="none" stroke="#191970" d="M2853.2687,-269.169C2856.044,-268.7454 2858.7957,-268.353 2861.5,-268 3122.0002,-233.9978 3192.379,-275.276 3451.5,-232 3456.7144,-231.1291 3462.1407,-229.9653 3467.4736,-228.6649"/>
<polygon fill="#191970" stroke="#191970" points="3468.7429,-231.9508 3477.5337,-226.0369 3466.9737,-225.1781 3468.7429,-231.9508"/>
</g>
<!-- Node29&#45;&gt;Node5 -->
<g id="edge58" class="edge">
<title>Node29&#45;&gt;Node5</title>
<path fill="none" stroke="#191970" d="M2873.3776,-298.5174C2872.4131,-298.681 2871.4534,-298.842 2870.5,-299 2763.0903,-316.8002 2638.1068,-332.5385 2557.6679,-341.7943"/>
<polygon fill="#191970" stroke="#191970" points="2557.1337,-338.3325 2547.5961,-342.946 2557.929,-345.2871 2557.1337,-338.3325"/>
</g>
<!-- Node29&#45;&gt;Node10 -->
<g id="edge50" class="edge">
<title>Node29&#45;&gt;Node10</title>
<path fill="none" stroke="#191970" d="M2870.6247,-269.6582C2867.5429,-269.0877 2864.4904,-268.5324 2861.5,-268 2757.7359,-249.5267 2634.8271,-231.0918 2573.4531,-222.1205"/>
<polygon fill="#191970" stroke="#191970" points="2573.8352,-218.6392 2563.4349,-220.6603 2572.8255,-225.5661 2573.8352,-218.6392"/>
</g>
<!-- Node29&#45;&gt;Node11 -->
<g id="edge51" class="edge">
<title>Node29&#45;&gt;Node11</title>
<path fill="none" stroke="#191970" d="M3008.2769,-278.9866C3167.4281,-268.3824 3548.2793,-242.0211 3557.5,-232 3576.8472,-210.9735 3550.5305,-147.3604 3537.5,-134 3519.8582,-115.9115 3452.3922,-98.4665 3411.5406,-89.2523"/>
<polygon fill="#191970" stroke="#191970" points="3412.2945,-85.8345 3401.7746,-87.0916 3410.7824,-92.6692 3412.2945,-85.8345"/>
</g>
<!-- Node29&#45;&gt;Node13 -->
<g id="edge53" class="edge">
<title>Node29&#45;&gt;Node13</title>
<path fill="none" stroke="#191970" d="M3008.1672,-279.1589C3170.6662,-268.726 3565.9594,-242.3444 3575.5,-232 3636.4487,-165.9165 3539.1891,-106.6365 3458.5,-67 3418.3425,-47.2737 3135.4033,-27.8776 3000.5975,-19.6336"/>
<polygon fill="#191970" stroke="#191970" points="3000.564,-16.1252 2990.3701,-19.0122 3000.1394,-23.1124 3000.564,-16.1252"/>
</g>
<!-- Node29&#45;&gt;Node14 -->
<g id="edge54" class="edge">
<title>Node29&#45;&gt;Node14</title>
<path fill="none" stroke="#191970" d="M3008.1248,-272.2857C3083.3926,-259.9858 3203.5492,-240.3505 3279.3982,-227.9557"/>
<polygon fill="#191970" stroke="#191970" points="3280.034,-231.3983 3289.3386,-226.3313 3278.905,-224.4899 3280.034,-231.3983"/>
</g>
<!-- Node29&#45;&gt;Node28 -->
<g id="edge49" class="edge">
<title>Node29&#45;&gt;Node28</title>
<path fill="none" stroke="#191970" d="M3008.3501,-280.292C3107.1496,-274.8494 3294.5383,-261.3961 3451.5,-232 3456.515,-231.0608 3461.7343,-229.8877 3466.8814,-228.6097"/>
<polygon fill="#191970" stroke="#191970" points="3467.8324,-231.9787 3476.6178,-226.0569 3466.0571,-225.2076 3467.8324,-231.9787"/>
</g>
<!-- Node30 -->
<g id="node31" class="node">
<title>Node30</title>
<g id="a_node31"><a xlink:title=" ">
<polygon fill="#ffffff" stroke="#bfbfbf" points="2810,-207 2810,-226 2903,-226 2903,-207 2810,-207"/>
<text text-anchor="middle" x="2856.5" y="-214" font-family="Helvetica,sans-Serif" font-size="10.00" fill="#000000">unordered_map</text>
</a>
</g>
</g>
<!-- Node29&#45;&gt;Node30 -->
<g id="edge52" class="edge">
<title>Node29&#45;&gt;Node30</title>
<path fill="none" stroke="#191970" d="M2920.666,-268.2967C2907.4831,-257.6551 2889.8985,-243.4602 2876.4716,-232.6217"/>
<polygon fill="#191970" stroke="#191970" points="2878.3164,-229.6128 2868.3368,-226.055 2873.9195,-235.0596 2878.3164,-229.6128"/>
</g>
<!-- Node31 -->
<g id="node32" class="node">
<title>Node31</title>
<g id="a_node32"><a xlink:href="random_8h.html" target="_top" xlink:title=" ">
<polygon fill="#ffffff" stroke="#000000" points="2051.5,-207 2051.5,-226 2191.5,-226 2191.5,-207 2051.5,-207"/>
<text text-anchor="middle" x="2121.5" y="-214" font-family="Helvetica,sans-Serif" font-size="10.00" fill="#000000">drake/common/random.h</text>
</a>
</g>
</g>
<!-- Node29&#45;&gt;Node31 -->
<g id="edge55" class="edge">
<title>Node29&#45;&gt;Node31</title>
<path fill="none" stroke="#191970" d="M2870.6829,-269.2751C2867.5853,-268.8083 2864.5136,-268.3796 2861.5,-268 2569.5929,-231.2356 2492.4514,-268.411 2200.5,-232 2192.0267,-230.9432 2183.0984,-229.5081 2174.4149,-227.9354"/>
<polygon fill="#191970" stroke="#191970" points="2174.8512,-224.456 2164.3755,-226.0403 2173.5528,-231.3345 2174.8512,-224.456"/>
</g>
<!-- Node31&#45;&gt;Node13 -->
<g id="edge57" class="edge">
<title>Node31&#45;&gt;Node13</title>
<path fill="none" stroke="#191970" d="M2133.9069,-206.8427C2157.0201,-189.3706 2208.8399,-152.6023 2258.5,-134 2467.8033,-55.5964 2733.6545,-28.3755 2858.5758,-19.4942"/>
<polygon fill="#191970" stroke="#191970" points="2859.0386,-22.9706 2868.7728,-18.7879 2858.5548,-15.9873 2859.0386,-22.9706"/>
</g>
<!-- Node32 -->
<g id="node33" class="node">
<title>Node32</title>
<g id="a_node33"><a xlink:title=" ">
<polygon fill="#ffffff" stroke="#bfbfbf" points="1481.5,-140 1481.5,-159 1535.5,-159 1535.5,-140 1481.5,-140"/>
<text text-anchor="middle" x="1508.5" y="-147" font-family="Helvetica,sans-Serif" font-size="10.00" fill="#000000">random</text>
</a>
</g>
</g>
<!-- Node31&#45;&gt;Node32 -->
<g id="edge56" class="edge">
<title>Node31&#45;&gt;Node32</title>
<path fill="none" stroke="#191970" d="M2051.2464,-211.516C1949.8638,-203.9001 1756.7765,-187.8096 1593.5,-165 1577.6876,-162.791 1560.3303,-159.7395 1545.4462,-156.9279"/>
<polygon fill="#191970" stroke="#191970" points="1546.0671,-153.4832 1535.5863,-155.033 1544.746,-160.3574 1546.0671,-153.4832"/>
</g>
<!-- Node33&#45;&gt;Node4 -->
<g id="edge71" class="edge">
<title>Node33&#45;&gt;Node4</title>
<path fill="none" stroke="#191970" d="M1223.9718,-279.5868C1154.9832,-274.0461 1055.4386,-261.1237 1031.5,-232 984.9344,-175.3483 985.4791,-124.0952 1031.5,-67 1037.9454,-59.0037 1172.2687,-33.2748 1235.7744,-21.4928"/>
<polygon fill="#191970" stroke="#191970" points="1236.4906,-24.9198 1245.6878,-19.6602 1235.2181,-18.0364 1236.4906,-24.9198"/>
</g>
<!-- Node33&#45;&gt;Node5 -->
<g id="edge100" class="edge">
<title>Node33&#45;&gt;Node5</title>
<path fill="none" stroke="#191970" d="M1361.1531,-287.2043C1565.465,-298.5335 2168.8251,-332.7258 2391.1043,-345.5607"/>
<polygon fill="#191970" stroke="#191970" points="2391.2125,-349.0727 2401.3978,-346.1556 2391.6165,-342.0844 2391.2125,-349.0727"/>
</g>
<!-- Node33&#45;&gt;Node7 -->
<g id="edge61" class="edge">
<title>Node33&#45;&gt;Node7</title>
<path fill="none" stroke="#191970" d="M1305.0581,-268.4126C1323.394,-246.8074 1357.091,-208.793 1373.5,-201 1420.3404,-178.7545 1776.7312,-157.7807 1893.549,-151.441"/>
<polygon fill="#191970" stroke="#191970" points="1893.9752,-154.9232 1903.7725,-150.8904 1893.5987,-147.9333 1893.9752,-154.9232"/>
</g>
<!-- Node33&#45;&gt;Node8 -->
<g id="edge62" class="edge">
<title>Node33&#45;&gt;Node8</title>
<path fill="none" stroke="#191970" d="M1316.3161,-268.3368C1331.9003,-258.2776 1352.6133,-244.6476 1370.5,-232 1389.1527,-218.8108 1389.9773,-208.6582 1411.5,-201 1619.116,-127.1257 2186.3059,-207.6839 2402.5,-165 2405.9599,-164.3169 2409.5128,-163.389 2413.017,-162.3245"/>
<polygon fill="#191970" stroke="#191970" points="2414.3037,-165.5839 2422.6462,-159.0529 2412.0518,-158.956 2414.3037,-165.5839"/>
</g>
<!-- Node33&#45;&gt;Node9 -->
<g id="edge65" class="edge">
<title>Node33&#45;&gt;Node9</title>
<path fill="none" stroke="#191970" d="M1259.5944,-268.4761C1245.1206,-259.9924 1229.5946,-247.8713 1221.5,-232 1215.2402,-219.7263 1213.7699,-212.405 1221.5,-201 1232.7751,-184.3646 1369.9115,-138.4894 1389.5,-134 1521.3317,-103.786 1941.5268,-88.0016 2072.873,-83.7169"/>
<polygon fill="#191970" stroke="#191970" points="2073.3706,-87.2028 2083.2528,-83.3828 2073.1453,-80.2065 2073.3706,-87.2028"/>
</g>
<!-- Node33&#45;&gt;Node10 -->
<g id="edge66" class="edge">
<title>Node33&#45;&gt;Node10</title>
<path fill="none" stroke="#191970" d="M1361.0378,-280.4293C1562.601,-271.353 2151.2887,-244.5052 2343.5,-232 2396.1495,-228.5746 2456.8672,-223.4448 2495.4514,-220.0369"/>
<polygon fill="#191970" stroke="#191970" points="2496.0712,-223.4957 2505.7221,-219.1242 2495.4516,-216.5232 2496.0712,-223.4957"/>
</g>
<!-- Node33&#45;&gt;Node11 -->
<g id="edge68" class="edge">
<title>Node33&#45;&gt;Node11</title>
<path fill="none" stroke="#191970" d="M1284.9398,-268.2875C1277.2842,-250.4817 1268.4144,-220.9028 1282.5,-201 1295.4316,-182.7278 1450.4886,-138.0739 1472.5,-134 1663.8449,-98.5861 3111.0957,-84.7908 3347.0293,-82.7674"/>
<polygon fill="#191970" stroke="#191970" points="3347.3688,-86.2648 3357.3388,-82.6799 3347.3094,-79.265 3347.3688,-86.2648"/>
</g>
<!-- Node33&#45;&gt;Node12 -->
<g id="edge73" class="edge">
<title>Node33&#45;&gt;Node12</title>
<path fill="none" stroke="#191970" d="M1331.6135,-268.4525C1353.9388,-259.1895 1382.0601,-246.3588 1405.5,-232 1424.3811,-220.4339 1423.706,-208.608 1444.5,-201 1570.189,-155.0133 2515.4474,-179.4737 2648.5,-165 2660.7653,-163.6658 2673.944,-161.5041 2686.0713,-159.2131"/>
<polygon fill="#191970" stroke="#191970" points="2686.8277,-162.6315 2695.9678,-157.2736 2685.4814,-155.7622 2686.8277,-162.6315"/>
</g>
<!-- Node33&#45;&gt;Node13 -->
<g id="edge80" class="edge">
<title>Node33&#45;&gt;Node13</title>
<path fill="none" stroke="#191970" d="M1223.976,-272.8424C1175.5265,-263.9524 1116.1741,-249.8695 1098.5,-232 1045.8478,-178.7659 1012.2919,-120.6697 1064.5,-67 1096.363,-34.245 2521.9907,-19.2135 2858.7509,-16.1162"/>
<polygon fill="#191970" stroke="#191970" points="2858.8966,-19.6151 2868.8642,-16.0237 2858.8326,-12.6154 2858.8966,-19.6151"/>
</g>
<!-- Node33&#45;&gt;Node14 -->
<g id="edge84" class="edge">
<title>Node33&#45;&gt;Node14</title>
<path fill="none" stroke="#191970" d="M1361.1036,-280.2189C1434.4529,-276.7969 1554.1749,-271.4588 1657.5,-268 2310.6634,-246.1353 2474.6954,-262.7671 3127.5,-232 3178.2343,-229.6089 3235.4043,-225.5861 3279.0217,-222.2381"/>
<polygon fill="#191970" stroke="#191970" points="3279.5403,-225.7085 3289.2403,-221.447 3279,-218.7294 3279.5403,-225.7085"/>
</g>
<!-- Node33&#45;&gt;Node17 -->
<g id="edge79" class="edge">
<title>Node33&#45;&gt;Node17</title>
<path fill="none" stroke="#191970" d="M1223.9608,-280.9776C1042.2364,-274.0077 560.1131,-253.5699 533.5,-232 509.4542,-212.5109 518.7628,-195.657 514.5,-165 512.6025,-151.3535 505.168,-144.1362 514.5,-134 547.349,-98.3201 901.1687,-102.0246 949.5,-98 987.2115,-94.8597 1029.2452,-91.3396 1063.7041,-88.4485"/>
<polygon fill="#191970" stroke="#191970" points="1064.0036,-91.9358 1073.6758,-87.6118 1063.4182,-84.9603 1064.0036,-91.9358"/>
</g>
<!-- Node33&#45;&gt;Node18 -->
<g id="edge69" class="edge">
<title>Node33&#45;&gt;Node18</title>
<path fill="none" stroke="#191970" d="M1223.7702,-280.6791C991.5516,-271.08 250.0208,-239.8438 240.5,-232 193.1615,-192.9995 214.8871,-158.8885 207.5,-98 205.8406,-84.3225 198.0317,-77.0089 207.5,-67 211.3392,-62.9416 904.5055,-27.2507 1089.54,-17.7921"/>
<polygon fill="#191970" stroke="#191970" points="1089.9245,-21.2771 1099.7328,-17.2714 1089.5672,-14.2863 1089.9245,-21.2771"/>
</g>
<!-- Node33&#45;&gt;Node19 -->
<g id="edge98" class="edge">
<title>Node33&#45;&gt;Node19</title>
<path fill="none" stroke="#191970" d="M1361.253,-280.2186C1558.6438,-270.7108 2118.2558,-243.1164 2200.5,-232 2207.9888,-230.9878 2215.8574,-229.6168 2223.5311,-228.1067"/>
<polygon fill="#191970" stroke="#191970" points="2224.3714,-231.5071 2233.4586,-226.0597 2222.9578,-224.6513 2224.3714,-231.5071"/>
</g>
<!-- Node33&#45;&gt;Node22 -->
<g id="edge64" class="edge">
<title>Node33&#45;&gt;Node22</title>
<path fill="none" stroke="#191970" d="M1296.0114,-268.3013C1301.227,-249.3573 1312.9292,-217.4722 1335.5,-201 1411.6371,-145.4349 1451.8448,-182.302 1544.5,-165 1560.3561,-162.0391 1577.9989,-158.5051 1592.392,-155.5599"/>
<polygon fill="#191970" stroke="#191970" points="1593.1369,-158.98 1602.226,-153.5359 1591.7257,-152.1237 1593.1369,-158.98"/>
</g>
<!-- Node33&#45;&gt;Node25 -->
<g id="edge72" class="edge">
<title>Node33&#45;&gt;Node25</title>
<path fill="none" stroke="#191970" d="M1231.1617,-268.4253C1212.6452,-260.697 1194.3647,-249.1497 1183.5,-232 1176.1266,-220.3613 1176.0464,-212.5876 1183.5,-201 1204.3738,-168.5489 1239.1566,-195.7225 1262.5,-165 1276.2298,-146.9301 1278.0304,-120.1175 1277.3565,-102.007"/>
<polygon fill="#191970" stroke="#191970" points="1280.848,-101.7609 1276.7016,-92.0112 1273.8629,-102.2186 1280.848,-101.7609"/>
</g>
<!-- Node33&#45;&gt;Node26 -->
<g id="edge81" class="edge">
<title>Node33&#45;&gt;Node26</title>
<path fill="none" stroke="#191970" d="M1223.6336,-273.1713C1177.173,-264.6329 1121.8186,-250.8491 1107.5,-232 1099.1658,-221.0288 1100.7066,-212.9865 1107.5,-201 1115.1725,-187.4624 1127.9767,-177.0988 1141.3919,-169.3436"/>
<polygon fill="#191970" stroke="#191970" points="1143.074,-172.4132 1150.2481,-164.6168 1139.778,-166.2377 1143.074,-172.4132"/>
</g>
<!-- Node33&#45;&gt;Node30 -->
<g id="edge70" class="edge">
<title>Node33&#45;&gt;Node30</title>
<path fill="none" stroke="#191970" d="M1361.1149,-280.5233C1434.4737,-277.3555 1554.2035,-272.2276 1657.5,-268 2063.6972,-251.3758 2165.4089,-251.0392 2571.5,-232 2650.5995,-228.2915 2742.0011,-223.1731 2799.5235,-219.8501"/>
<polygon fill="#191970" stroke="#191970" points="2800.0786,-223.3239 2809.8593,-219.2512 2799.6736,-216.3356 2800.0786,-223.3239"/>
</g>
<!-- Node33&#45;&gt;Node31 -->
<g id="edge99" class="edge">
<title>Node33&#45;&gt;Node31</title>
<path fill="none" stroke="#191970" d="M1361.0458,-277.9601C1513.167,-265.6656 1878.3524,-236.1513 2040.9964,-223.0063"/>
<polygon fill="#191970" stroke="#191970" points="2041.7266,-226.4588 2051.4122,-222.1645 2041.1627,-219.4816 2041.7266,-226.4588"/>
</g>
<!-- Node33&#45;&gt;Node32 -->
<g id="edge67" class="edge">
<title>Node33&#45;&gt;Node32</title>
<path fill="none" stroke="#191970" d="M1288.5847,-268.4821C1284.8224,-250.3148 1281.7686,-219.8306 1297.5,-201 1308.6517,-187.6513 1413.3426,-166.7908 1470.94,-156.1817"/>
<polygon fill="#191970" stroke="#191970" points="1471.9048,-159.5635 1481.1135,-154.3241 1470.6474,-152.6773 1471.9048,-159.5635"/>
</g>
<!-- Node34 -->
<g id="node35" class="node">
<title>Node34</title>
<g id="a_node35"><a xlink:title=" ">
<polygon fill="#ffffff" stroke="#bfbfbf" points="1453.5,-207 1453.5,-226 1517.5,-226 1517.5,-207 1453.5,-207"/>
<text text-anchor="middle" x="1485.5" y="-214" font-family="Helvetica,sans-Serif" font-size="10.00" fill="#000000">algorithm</text>
</a>
</g>
</g>
<!-- Node33&#45;&gt;Node34 -->
<g id="edge60" class="edge">
<title>Node33&#45;&gt;Node34</title>
<path fill="none" stroke="#191970" d="M1335.813,-268.4639C1369.7553,-256.6808 1416.4645,-240.4657 1448.6329,-229.2984"/>
<polygon fill="#191970" stroke="#191970" points="1449.82,-232.5913 1458.1191,-226.0053 1447.5243,-225.9784 1449.82,-232.5913"/>
</g>
<!-- Node35 -->
<g id="node36" class="node">
<title>Node35</title>
<g id="a_node36"><a xlink:title=" ">
<polygon fill="#ffffff" stroke="#bfbfbf" points="523.5,-140 523.5,-159 567.5,-159 567.5,-140 523.5,-140"/>
<text text-anchor="middle" x="545.5" y="-147" font-family="Helvetica,sans-Serif" font-size="10.00" fill="#000000">limits</text>
</a>
</g>
</g>
<!-- Node33&#45;&gt;Node35 -->
<g id="edge63" class="edge">
<title>Node33&#45;&gt;Node35</title>
<path fill="none" stroke="#191970" d="M1223.7228,-281.2079C1043.8638,-274.8879 571.7982,-256.0743 548.5,-232 532.6694,-215.642 535.3273,-187.8255 539.626,-169.0653"/>
<polygon fill="#191970" stroke="#191970" points="543.0563,-169.7829 542.2192,-159.2212 536.2872,-167.9997 543.0563,-169.7829"/>
</g>
<!-- Node36 -->
<g id="node37" class="node">
<title>Node36</title>
<g id="a_node37"><a xlink:title=" ">
<polygon fill="#ffffff" stroke="#bfbfbf" points="1763.5,-207 1763.5,-226 1843.5,-226 1843.5,-207 1763.5,-207"/>
<text text-anchor="middle" x="1803.5" y="-214" font-family="Helvetica,sans-Serif" font-size="10.00" fill="#000000">Eigen/Sparse</text>
</a>
</g>
</g>
<!-- Node33&#45;&gt;Node36 -->
<g id="edge74" class="edge">
<title>Node33&#45;&gt;Node36</title>
<path fill="none" stroke="#191970" d="M1361.1504,-274.4989C1465.3316,-260.8391 1660.9532,-235.1901 1753.0807,-223.1107"/>
<polygon fill="#191970" stroke="#191970" points="1753.7999,-226.5465 1763.26,-221.7761 1752.8899,-219.6059 1753.7999,-226.5465"/>
</g>
<!-- Node37 -->
<g id="node38" class="node">
<title>Node37</title>
<g id="a_node38"><a xlink:href="cond_8h.html" target="_top" xlink:title=" ">
<polygon fill="#ffffff" stroke="#000000" points="854,-207 854,-226 979,-226 979,-207 854,-207"/>
<text text-anchor="middle" x="916.5" y="-214" font-family="Helvetica,sans-Serif" font-size="10.00" fill="#000000">drake/common/cond.h</text>
</a>
</g>
</g>
<!-- Node33&#45;&gt;Node37 -->
<g id="edge75" class="edge">
<title>Node33&#45;&gt;Node37</title>
<path fill="none" stroke="#191970" d="M1223.821,-272.2336C1163.1546,-262.1474 1072.3337,-246.7207 993.5,-232 986.8354,-230.7555 979.8552,-229.4098 972.9333,-228.0491"/>
<polygon fill="#191970" stroke="#191970" points="973.3671,-224.567 962.8772,-226.0548 972.0053,-231.4333 973.3671,-224.567"/>
</g>
<!-- Node39 -->
<g id="node40" class="node">
<title>Node39</title>
<g id="a_node40"><a xlink:href="dummy__value_8h.html" target="_top" xlink:title=" ">
<polygon fill="#ffffff" stroke="#000000" points="558,-201.5 558,-231.5 689,-231.5 689,-201.5 558,-201.5"/>
<text text-anchor="start" x="566" y="-219.5" font-family="Helvetica,sans-Serif" font-size="10.00" fill="#000000">drake/common/dummy</text>
<text text-anchor="middle" x="623.5" y="-208.5" font-family="Helvetica,sans-Serif" font-size="10.00" fill="#000000">_value.h</text>
</a>
</g>
</g>
<!-- Node33&#45;&gt;Node39 -->
<g id="edge82" class="edge">
<title>Node33&#45;&gt;Node39</title>
<path fill="none" stroke="#191970" d="M1223.5981,-280.1561C1114.4867,-274.2812 895.1325,-260.1167 699.4572,-232.0259"/>
<polygon fill="#191970" stroke="#191970" points="699.6717,-228.5204 689.2727,-230.548 698.6664,-235.4479 699.6717,-228.5204"/>
</g>
<!-- Node40 -->
<g id="node41" class="node">
<title>Node40</title>
<g id="a_node41"><a xlink:href="extract__double_8h.html" target="_top" xlink:title=" ">
<polygon fill="#ffffff" stroke="#000000" points="707.5,-201.5 707.5,-231.5 835.5,-231.5 835.5,-201.5 707.5,-201.5"/>
<text text-anchor="start" x="715.5" y="-219.5" font-family="Helvetica,sans-Serif" font-size="10.00" fill="#000000">drake/common/extract</text>
<text text-anchor="middle" x="771.5" y="-208.5" font-family="Helvetica,sans-Serif" font-size="10.00" fill="#000000">_double.h</text>
</a>
</g>
</g>
<!-- Node33&#45;&gt;Node40 -->
<g id="edge85" class="edge">
<title>Node33&#45;&gt;Node40</title>
<path fill="none" stroke="#191970" d="M1223.9123,-277.6519C1137.8364,-269.8576 985.5212,-254.5624 845.5825,-232.0847"/>
<polygon fill="#191970" stroke="#191970" points="845.9608,-228.6004 835.5294,-230.4539 844.8399,-235.5101 845.9608,-228.6004"/>
</g>
<!-- Node37&#45;&gt;Node8 -->
<g id="edge76" class="edge">
<title>Node37&#45;&gt;Node8</title>
<path fill="none" stroke="#191970" d="M979.1976,-214.3603C1261.1396,-204.7341 2398.0624,-165.8723 2402.5,-165 2405.9605,-164.3198 2409.5137,-163.3937 2413.0182,-162.3304"/>
<polygon fill="#191970" stroke="#191970" points="2414.3042,-165.59 2422.6476,-159.0601 2412.0532,-158.9618 2414.3042,-165.59"/>
</g>
<!-- Node37&#45;&gt;Node18 -->
<g id="edge77" class="edge">
<title>Node37&#45;&gt;Node18</title>
<path fill="none" stroke="#191970" d="M872.2319,-206.9475C805.8248,-192.568 687.9688,-166.834 686.5,-165 677.8875,-154.2458 682.2219,-147.0968 686.5,-134 697.9551,-98.9319 703.7418,-85.7724 735.5,-67 794.6257,-32.0505 998.3947,-20.4053 1089.6685,-16.8847"/>
<polygon fill="#191970" stroke="#191970" points="1089.8419,-20.3808 1099.7054,-16.513 1089.5827,-13.3856 1089.8419,-20.3808"/>
</g>
<!-- Node38 -->
<g id="node39" class="node">
<title>Node38</title>
<g id="a_node39"><a xlink:href="double__overloads_8h.html" target="_top" xlink:title="Provides necessary operations on double to have it as a ScalarType in drake.">
<polygon fill="#ffffff" stroke="#000000" points="853.5,-134.5 853.5,-164.5 979.5,-164.5 979.5,-134.5 853.5,-134.5"/>
<text text-anchor="start" x="861.5" y="-152.5" font-family="Helvetica,sans-Serif" font-size="10.00" fill="#000000">drake/common/double</text>
<text text-anchor="middle" x="916.5" y="-141.5" font-family="Helvetica,sans-Serif" font-size="10.00" fill="#000000">_overloads.h</text>
</a>
</g>
</g>
<!-- Node37&#45;&gt;Node38 -->
<g id="edge78" class="edge">
<title>Node37&#45;&gt;Node38</title>
<path fill="none" stroke="#191970" d="M916.5,-206.9005C916.5,-198.5099 916.5,-185.9451 916.5,-174.7085"/>
<polygon fill="#191970" stroke="#191970" points="920.0001,-174.5217 916.5,-164.5218 913.0001,-174.5218 920.0001,-174.5217"/>
</g>
<!-- Node39&#45;&gt;Node35 -->
<g id="edge83" class="edge">
<title>Node39&#45;&gt;Node35</title>
<path fill="none" stroke="#191970" d="M605.8006,-201.2967C593.4119,-190.6551 576.8865,-176.4602 564.2685,-165.6217"/>
<polygon fill="#191970" stroke="#191970" points="566.49,-162.9159 556.6237,-159.055 561.9288,-168.2259 566.49,-162.9159"/>
</g>
<!-- Node41 -->
<g id="node42" class="node">
<title>Node41</title>
<g id="a_node42"><a xlink:title=" ">
<polygon fill="#ffffff" stroke="#bfbfbf" points="326,-140 326,-159 391,-159 391,-140 326,-140"/>
<text text-anchor="middle" x="358.5" y="-147" font-family="Helvetica,sans-Serif" font-size="10.00" fill="#000000">stdexcept</text>
</a>
</g>
</g>
<!-- Node40&#45;&gt;Node41 -->
<g id="edge86" class="edge">
<title>Node40&#45;&gt;Node41</title>
<path fill="none" stroke="#191970" d="M707.3674,-202.8387C704.0336,-202.2 700.7293,-201.583 697.5,-201 591.5083,-181.8639 466.0072,-164.0527 401.5154,-155.252"/>
<polygon fill="#191970" stroke="#191970" points="401.7059,-151.7458 391.3257,-153.8673 400.7633,-158.6821 401.7059,-151.7458"/>
</g>
<!-- Node42 -->
<g id="node43" class="node">
<title>Node42</title>
<g id="a_node43"><a xlink:href="nice__type__name_8h.html" target="_top" xlink:title=" ">
<polygon fill="#ffffff" stroke="#000000" points="695.5,-134.5 695.5,-164.5 835.5,-164.5 835.5,-134.5 695.5,-134.5"/>
<text text-anchor="start" x="703.5" y="-152.5" font-family="Helvetica,sans-Serif" font-size="10.00" fill="#000000">drake/common/nice_type</text>
<text text-anchor="middle" x="765.5" y="-141.5" font-family="Helvetica,sans-Serif" font-size="10.00" fill="#000000">_name.h</text>
</a>
</g>
</g>
<!-- Node40&#45;&gt;Node42 -->
<g id="edge87" class="edge">
<title>Node40&#45;&gt;Node42</title>
<path fill="none" stroke="#191970" d="M770.1385,-201.2967C769.4327,-193.4156 768.5524,-183.5857 767.749,-174.6135"/>
<polygon fill="#191970" stroke="#191970" points="771.2342,-174.2911 766.8561,-164.6432 764.2621,-174.9155 771.2342,-174.2911"/>
</g>
<!-- Node42&#45;&gt;Node4 -->
<g id="edge91" class="edge">
<title>Node42&#45;&gt;Node4</title>
<path fill="none" stroke="#191970" d="M835.6687,-135.7964C870.8647,-127.4585 913.5418,-115.0753 949.5,-98 971.109,-87.7386 971.4615,-76.3034 993.5,-67 1004.6465,-62.2946 1165.0646,-33.7103 1235.6144,-21.2729"/>
<polygon fill="#191970" stroke="#191970" points="1236.495,-24.6718 1245.7365,-19.4905 1235.2811,-17.7778 1236.495,-24.6718"/>
</g>
<!-- Node42&#45;&gt;Node9 -->
<g id="edge88" class="edge">
<title>Node42&#45;&gt;Node9</title>
<path fill="none" stroke="#191970" d="M835.6233,-135.1632C838.6166,-134.7342 841.585,-134.3431 844.5,-134 1091.2053,-104.9612 1887.1262,-87.1214 2073.2924,-83.2824"/>
<polygon fill="#191970" stroke="#191970" points="2073.5103,-86.7788 2083.4365,-83.0747 2073.3669,-79.7802 2073.5103,-86.7788"/>
</g>
<!-- Node42&#45;&gt;Node11 -->
<g id="edge89" class="edge">
<title>Node42&#45;&gt;Node11</title>
<path fill="none" stroke="#191970" d="M835.6149,-135.0884C838.6105,-134.6799 841.5817,-134.3135 844.5,-134 974.9462,-119.9852 3061.4496,-87.4018 3347.1741,-82.9962"/>
<polygon fill="#191970" stroke="#191970" points="3347.35,-86.494 3357.2948,-82.8403 3347.2421,-79.4948 3347.35,-86.494"/>
</g>
<!-- Node42&#45;&gt;Node25 -->
<g id="edge92" class="edge">
<title>Node42&#45;&gt;Node25</title>
<path fill="none" stroke="#191970" d="M835.6523,-135.3815C838.6377,-134.8928 841.5965,-134.4295 844.5,-134 1003.13,-110.5374 1045.0913,-122.9131 1203.5,-98 1216.1025,-96.018 1229.8182,-93.2265 1241.8651,-90.5576"/>
<polygon fill="#191970" stroke="#191970" points="1242.9755,-93.8946 1251.9523,-88.2672 1241.4255,-87.0684 1242.9755,-93.8946"/>
</g>
<!-- Node43 -->
<g id="node44" class="node">
<title>Node43</title>
<g id="a_node44"><a xlink:title=" ">
<polygon fill="#ffffff" stroke="#bfbfbf" points="884,-73 884,-92 941,-92 941,-73 884,-73"/>
<text text-anchor="middle" x="912.5" y="-80" font-family="Helvetica,sans-Serif" font-size="10.00" fill="#000000">typeinfo</text>
</a>
</g>
</g>
<!-- Node42&#45;&gt;Node43 -->
<g id="edge90" class="edge">
<title>Node42&#45;&gt;Node43</title>
<path fill="none" stroke="#191970" d="M798.4897,-134.4639C823.5988,-123.0196 857.8808,-107.3945 882.2795,-96.274"/>
<polygon fill="#191970" stroke="#191970" points="883.7809,-99.4361 891.4287,-92.1039 880.8777,-93.0665 883.7809,-99.4361"/>
</g>
<!-- Node44 -->
<g id="node45" class="node">
<title>Node44</title>
<g id="a_node45"><a xlink:href="never__destroyed_8h.html" target="_top" xlink:title=" ">
<polygon fill="#ffffff" stroke="#000000" points="745,-67.5 745,-97.5 866,-97.5 866,-67.5 745,-67.5"/>
<text text-anchor="start" x="753" y="-85.5" font-family="Helvetica,sans-Serif" font-size="10.00" fill="#000000">drake/common/never</text>
<text text-anchor="middle" x="805.5" y="-74.5" font-family="Helvetica,sans-Serif" font-size="10.00" fill="#000000">_destroyed.h</text>
</a>
</g>
</g>
<!-- Node42&#45;&gt;Node44 -->
<g id="edge93" class="edge">
<title>Node42&#45;&gt;Node44</title>
<path fill="none" stroke="#191970" d="M774.5766,-134.2967C779.4863,-126.0729 785.6629,-115.7272 791.2025,-106.4483"/>
<polygon fill="#191970" stroke="#191970" points="794.3383,-108.0236 796.4593,-97.6432 788.328,-104.4352 794.3383,-108.0236"/>
</g>
<!-- Node44&#45;&gt;Node4 -->
<g id="edge96" class="edge">
<title>Node44&#45;&gt;Node4</title>
<path fill="none" stroke="#191970" d="M866.0122,-68.5375C868.8765,-67.9928 871.7167,-67.4767 874.5,-67 1008.1678,-44.1082 1043.2798,-50.3917 1177.5,-31 1196.8089,-28.2103 1218.3313,-24.5688 1235.5959,-21.5165"/>
<polygon fill="#191970" stroke="#191970" points="1236.5088,-24.9089 1245.7375,-19.705 1235.2778,-18.018 1236.5088,-24.9089"/>
</g>
<!-- Node44&#45;&gt;Node13 -->
<g id="edge97" class="edge">
<title>Node44&#45;&gt;Node13</title>
<path fill="none" stroke="#191970" d="M866.3396,-68.1545C869.0898,-67.7204 871.8193,-67.3314 874.5,-67 1074.4255,-42.2818 2520.2385,-21.1044 2858.7352,-16.4499"/>
<polygon fill="#191970" stroke="#191970" points="2858.9456,-19.9474 2868.8966,-16.3105 2858.8495,-12.9481 2858.9456,-19.9474"/>
</g>
<!-- Node44&#45;&gt;Node18 -->
<g id="edge95" class="edge">
<title>Node44&#45;&gt;Node18</title>
<path fill="none" stroke="#191970" d="M866.0631,-68.8038C868.9138,-68.1879 871.7371,-67.5839 874.5,-67 950.0519,-51.0343 1038.2754,-33.8704 1090.0928,-23.9398"/>
<polygon fill="#191970" stroke="#191970" points="1090.7922,-27.3696 1099.9563,-22.0526 1089.4767,-20.4943 1090.7922,-27.3696"/>
</g>
<!-- Node45 -->
<g id="node46" class="node">
<title>Node45</title>
<g id="a_node46"><a xlink:title=" ">
<polygon fill="#ffffff" stroke="#bfbfbf" points="787,-6 787,-25 824,-25 824,-6 787,-6"/>
<text text-anchor="middle" x="805.5" y="-13" font-family="Helvetica,sans-Serif" font-size="10.00" fill="#000000">new</text>
</a>
</g>
</g>
<!-- Node44&#45;&gt;Node45 -->
<g id="edge94" class="edge">
<title>Node44&#45;&gt;Node45</title>
<path fill="none" stroke="#191970" d="M805.5,-67.2967C805.5,-57.7699 805.5,-45.3954 805.5,-35.1306"/>
<polygon fill="#191970" stroke="#191970" points="809.0001,-35.0549 805.5,-25.055 802.0001,-35.055 809.0001,-35.0549"/>
</g>
<!-- Node46&#45;&gt;Node4 -->
<g id="edge103" class="edge">
<title>Node46&#45;&gt;Node4</title>
<path fill="none" stroke="#191970" d="M309.8305,-201.2847C301.2308,-183.9994 290.8822,-155.4167 302.5,-134 328.5398,-85.9974 353.5201,-83.7456 405.5,-67 568.9686,-14.3376 1006.7523,-49.4531 1177.5,-31 1196.8964,-28.9038 1218.4231,-25.2963 1235.6682,-22.0888"/>
<polygon fill="#191970" stroke="#191970" points="1236.6262,-25.4693 1245.795,-20.1604 1235.3168,-18.5928 1236.6262,-25.4693"/>
</g>
<!-- Node46&#45;&gt;Node5 -->
<g id="edge105" class="edge">
<title>Node46&#45;&gt;Node5</title>
<path fill="none" stroke="#191970" d="M381.5724,-231.5585C461.4367,-251.1445 603.2011,-284.558 726.5,-299 1055.2471,-337.506 2088.4517,-347.7332 2390.7053,-349.9581"/>
<polygon fill="#191970" stroke="#191970" points="2391.1216,-353.4611 2401.1467,-350.0339 2391.1724,-346.4613 2391.1216,-353.4611"/>
</g>
<!-- Node46&#45;&gt;Node17 -->
<g id="edge104" class="edge">
<title>Node46&#45;&gt;Node17</title>
<path fill="none" stroke="#191970" d="M312.5292,-201.4676C306.2971,-182.9971 299.5769,-151.9129 316.5,-134 364.8787,-82.7918 879.2265,-102.9413 949.5,-98 987.2488,-95.3457 1029.2856,-91.8657 1063.737,-88.8758"/>
<polygon fill="#191970" stroke="#191970" points="1064.0482,-92.362 1073.7061,-88.006 1063.4397,-85.3885 1064.0482,-92.362"/>
</g>
<!-- Node46&#45;&gt;Node41 -->
<g id="edge102" class="edge">
<title>Node46&#45;&gt;Node41</title>
<path fill="none" stroke="#191970" d="M327.5766,-201.2967C333.5063,-191.3645 341.2838,-178.3371 347.5555,-167.8321"/>
<polygon fill="#191970" stroke="#191970" points="350.6746,-169.4354 352.7955,-159.055 344.6642,-165.8471 350.6746,-169.4354"/>
</g>
<!-- Node47&#45;&gt;Node12 -->
<g id="edge107" class="edge">
<title>Node47&#45;&gt;Node12</title>
<path fill="none" stroke="#191970" d="M3869.7829,-268.1931C3879.6532,-249.7345 3891.6666,-218.9568 3874.5,-201 3864.8211,-190.8756 2984.9848,-158.6434 2775.0899,-151.0932"/>
<polygon fill="#191970" stroke="#191970" points="2775.1591,-147.5936 2765.0399,-150.7322 2774.9078,-154.589 2775.1591,-147.5936"/>
</g>
<!-- Node48&#45;&gt;Node4 -->
<g id="edge112" class="edge">
<title>Node48&#45;&gt;Node4</title>
<path fill="none" stroke="#191970" d="M2250.6414,-269.5605C2247.5551,-269.0165 2244.4971,-268.4934 2241.5,-268 2119.8722,-247.9765 2086.9148,-258.3544 1966.5,-232 1962.192,-231.0571 1438.3132,-68.2744 1301.0924,-25.6295"/>
<polygon fill="#191970" stroke="#191970" points="1301.7593,-22.1717 1291.1711,-22.5462 1299.6818,-28.8563 1301.7593,-22.1717"/>
</g>
<!-- Node48&#45;&gt;Node5 -->
<g id="edge116" class="edge">
<title>Node48&#45;&gt;Node5</title>
<path fill="none" stroke="#191970" d="M2359.9906,-298.5218C2387.7481,-309.9177 2423.6694,-325.4653 2447.8968,-336.5809"/>
<polygon fill="#191970" stroke="#191970" points="2446.6492,-339.8606 2457.1929,-340.9005 2449.599,-333.5124 2446.6492,-339.8606"/>
</g>
<!-- Node48&#45;&gt;Node7 -->
<g id="edge109" class="edge">
<title>Node48&#45;&gt;Node7</title>
<path fill="none" stroke="#191970" d="M2250.6262,-269.6497C2247.544,-269.0815 2244.491,-268.529 2241.5,-268 2138.7496,-249.8272 2102.0292,-280.2312 2009.5,-232 1980.3528,-216.8069 1955.8317,-186.7032 1942.1649,-167.366"/>
<polygon fill="#191970" stroke="#191970" points="1945.0433,-165.3746 1936.5131,-159.0908 1939.2628,-169.3226 1945.0433,-165.3746"/>
</g>
<!-- Node48&#45;&gt;Node10 -->
<g id="edge111" class="edge">
<title>Node48&#45;&gt;Node10</title>
<path fill="none" stroke="#191970" d="M2372.4296,-268.4694C2406.5647,-258.5748 2451.831,-245.0775 2491.5,-232 2493.9399,-231.1956 2496.4505,-230.3468 2498.9747,-229.4777"/>
<polygon fill="#191970" stroke="#191970" points="2500.3836,-232.6925 2508.6581,-226.0756 2498.0633,-226.0882 2500.3836,-232.6925"/>
</g>
<!-- Node48&#45;&gt;Node12 -->
<g id="edge113" class="edge">
<title>Node48&#45;&gt;Node12</title>
<path fill="none" stroke="#191970" d="M2367.3284,-268.4873C2393.507,-259.4462 2426.0974,-246.8203 2453.5,-232 2474.2231,-220.7922 2474.9939,-210.6204 2496.5,-201 2513.6302,-193.3371 2622.8807,-170.8879 2685.8689,-158.3057"/>
<polygon fill="#191970" stroke="#191970" points="2686.8112,-161.6868 2695.9346,-156.3003 2685.4434,-154.8217 2686.8112,-161.6868"/>
</g>
<!-- Node48&#45;&gt;Node13 -->
<g id="edge114" class="edge">
<title>Node48&#45;&gt;Node13</title>
<path fill="none" stroke="#191970" d="M2250.609,-269.7434C2247.5314,-269.1499 2244.4841,-268.5664 2241.5,-268 2197.3482,-259.6201 2071.3105,-266.49 2042.5,-232 2009.1051,-192.0217 1971.9557,-153.0692 2074.5,-67 2104.3607,-41.9368 2659.1479,-23.3743 2858.7259,-17.4828"/>
<polygon fill="#191970" stroke="#191970" points="2858.9163,-20.9789 2868.8093,-17.1871 2858.711,-13.9819 2858.9163,-20.9789"/>
</g>
<!-- Node48&#45;&gt;Node19 -->
<g id="edge115" class="edge">
<title>Node48&#45;&gt;Node19</title>
<path fill="none" stroke="#191970" d="M2308.835,-268.2967C2301.7965,-258.2631 2292.5423,-245.0709 2285.1348,-234.5113"/>
<polygon fill="#191970" stroke="#191970" points="2287.8109,-232.2316 2279.2027,-226.055 2282.0803,-236.2516 2287.8109,-232.2316"/>
</g>
<!-- Node48&#45;&gt;Node22 -->
<g id="edge110" class="edge">
<title>Node48&#45;&gt;Node22</title>
<path fill="none" stroke="#191970" d="M2250.6733,-269.3482C2247.5783,-268.8617 2244.5098,-268.4087 2241.5,-268 2026.439,-238.7945 1960.8897,-299.1379 1754.5,-232 1709.8903,-217.4886 1664.9604,-185.0285 1640.4309,-165.4285"/>
<polygon fill="#191970" stroke="#191970" points="1642.6033,-162.6839 1632.6392,-159.0826 1638.1827,-168.1115 1642.6033,-162.6839"/>
</g>
<!-- Node49&#45;&gt;Node5 -->
<g id="edge126" class="edge">
<title>Node49&#45;&gt;Node5</title>
<path fill="none" stroke="#191970" d="M2233.0466,-297.114C2291.2977,-309.3411 2373.4096,-327.1076 2425.3341,-338.7321"/>
<polygon fill="#191970" stroke="#191970" points="2424.7765,-342.194 2435.3005,-340.9717 2426.3112,-335.3643 2424.7765,-342.194"/>
</g>
<!-- Node49&#45;&gt;Node7 -->
<g id="edge118" class="edge">
<title>Node49&#45;&gt;Node7</title>
<path fill="none" stroke="#191970" d="M2095.9667,-277.3764C2035.5528,-270.4165 1954.0295,-256.6777 1933.5,-232 1919.086,-214.6735 1921.2483,-187.5035 1925.061,-169.1211"/>
<polygon fill="#191970" stroke="#191970" points="1928.5077,-169.7576 1927.449,-159.2158 1921.7027,-168.1169 1928.5077,-169.7576"/>
</g>
<!-- Node49&#45;&gt;Node8 -->
<g id="edge119" class="edge">
<title>Node49&#45;&gt;Node8</title>
<path fill="none" stroke="#191970" d="M2108.8215,-268.4092C2065.2737,-253.9645 2016.1643,-230.1006 2042.5,-201 2096.4482,-141.388 2324.1564,-183.0633 2402.5,-165 2405.6809,-164.2666 2408.9486,-163.3566 2412.189,-162.3478"/>
<polygon fill="#191970" stroke="#191970" points="2413.3772,-165.6406 2421.7139,-159.1022 2411.1195,-159.0146 2413.3772,-165.6406"/>
</g>
<!-- Node49&#45;&gt;Node12 -->
<g id="edge123" class="edge">
<title>Node49&#45;&gt;Node12</title>
<path fill="none" stroke="#191970" d="M2233.3269,-269.5824C2306.9101,-254.6731 2413.3998,-232.9973 2415.5,-232 2435.1888,-222.6506 2433.7195,-210.1539 2453.5,-201 2533.4819,-163.9863 2561.8676,-181.1846 2648.5,-165 2660.6278,-162.7343 2673.7605,-160.2608 2685.8876,-157.9686"/>
<polygon fill="#191970" stroke="#191970" points="2686.6188,-161.3924 2695.7938,-156.0942 2685.3174,-154.5144 2686.6188,-161.3924"/>
</g>
<!-- Node49&#45;&gt;Node17 -->
<g id="edge124" class="edge">
<title>Node49&#45;&gt;Node17</title>
<path fill="none" stroke="#191970" d="M2095.9304,-281.6614C1967.5367,-277.5401 1682.3408,-265.1744 1444.5,-232 1300.1562,-211.8667 1215.4256,-278.0936 1123.5,-165 1110.427,-148.9166 1115.457,-124.9564 1122.4078,-106.9954"/>
<polygon fill="#191970" stroke="#191970" points="1125.6591,-108.2937 1126.3642,-97.7223 1119.2206,-105.5466 1125.6591,-108.2937"/>
</g>
<!-- Node49&#45;&gt;Node19 -->
<g id="edge125" class="edge">
<title>Node49&#45;&gt;Node19</title>
<path fill="none" stroke="#191970" d="M2188.7373,-268.4639C2206.5318,-257.4247 2230.5969,-242.4954 2248.3669,-231.4715"/>
<polygon fill="#191970" stroke="#191970" points="2250.3665,-234.3498 2257.0191,-226.1039 2246.6763,-228.4015 2250.3665,-234.3498"/>
</g>
<!-- Node49&#45;&gt;Node22 -->
<g id="edge120" class="edge">
<title>Node49&#45;&gt;Node22</title>
<path fill="none" stroke="#191970" d="M2095.9164,-279.1858C1971.5895,-270.9226 1718.5539,-251.9077 1683.5,-232 1658.0274,-217.5337 1639.8022,-187.894 1629.9572,-168.3633"/>
<polygon fill="#191970" stroke="#191970" points="1633.05,-166.7176 1625.5789,-159.2054 1626.7346,-169.737 1633.05,-166.7176"/>
</g>
<!-- Node49&#45;&gt;Node24 -->
<g id="edge121" class="edge">
<title>Node49&#45;&gt;Node24</title>
<path fill="none" stroke="#191970" d="M2221.2947,-268.4301C2256.6679,-258.731 2302.9927,-245.4593 2343.5,-232 2380.4742,-219.7146 2388.1237,-212.0018 2425.5,-201 2498.7541,-179.4375 2521.6119,-190.7529 2593.5,-165 2594.9487,-164.481 2596.4158,-163.9055 2597.8822,-163.2905"/>
<polygon fill="#191970" stroke="#191970" points="2599.7881,-166.262 2607.3485,-158.8396 2596.8096,-159.9272 2599.7881,-166.262"/>
</g>
<!-- Node49&#45;&gt;Node30 -->
<g id="edge122" class="edge">
<title>Node49&#45;&gt;Node30</title>
<path fill="none" stroke="#191970" d="M2233.2793,-269.2468C2236.0516,-268.8017 2238.7999,-268.3835 2241.5,-268 2445.7451,-238.9894 2690.6451,-224.4852 2799.5126,-219.077"/>
<polygon fill="#191970" stroke="#191970" points="2799.8009,-222.5671 2809.6176,-218.5818 2799.4582,-215.5755 2799.8009,-222.5671"/>
</g>
<!-- Node50&#45;&gt;Node4 -->
<g id="edge132" class="edge">
<title>Node50&#45;&gt;Node4</title>
<path fill="none" stroke="#191970" d="M1690.4454,-268.4164C1663.1754,-258.8623 1627.9085,-245.7479 1597.5,-232 1540.0644,-206.0329 1525.8301,-198.6012 1472.5,-165 1402.2924,-120.7649 1324.5684,-60.3674 1288.6866,-31.7771"/>
<polygon fill="#191970" stroke="#191970" points="1290.4904,-28.7379 1280.4956,-25.2229 1286.1169,-34.2035 1290.4904,-28.7379"/>
</g>
<!-- Node50&#45;&gt;Node5 -->
<g id="edge135" class="edge">
<title>Node50&#45;&gt;Node5</title>
<path fill="none" stroke="#191970" d="M1804.2256,-289.366C1940.4153,-301.4009 2243.8586,-328.8959 2391.1582,-342.5306"/>
<polygon fill="#191970" stroke="#191970" points="2391.2092,-346.0503 2401.4895,-343.488 2391.8551,-339.0801 2391.2092,-346.0503"/>
</g>
<!-- Node50&#45;&gt;Node8 -->
<g id="edge129" class="edge">
<title>Node50&#45;&gt;Node8</title>
<path fill="none" stroke="#191970" d="M1734.0635,-268.2723C1733.212,-249.2976 1735.0516,-217.3801 1754.5,-201 1809.655,-154.5465 2331.8919,-179.6456 2402.5,-165 2405.7725,-164.3212 2409.1306,-163.4332 2412.4532,-162.4253"/>
<polygon fill="#191970" stroke="#191970" points="2413.8416,-165.6505 2422.1935,-159.1316 2411.5993,-159.0194 2413.8416,-165.6505"/>
</g>
<!-- Node50&#45;&gt;Node10 -->
<g id="edge131" class="edge">
<title>Node50&#45;&gt;Node10</title>
<path fill="none" stroke="#191970" d="M1804.138,-279.5298C1926.9486,-272.1524 2192.3229,-254.9689 2415.5,-232 2442.2787,-229.244 2472.3409,-225.3214 2495.5501,-222.1119"/>
<polygon fill="#191970" stroke="#191970" points="2496.2758,-225.5446 2505.6952,-220.6943 2495.307,-218.612 2496.2758,-225.5446"/>
</g>
<!-- Node50&#45;&gt;Node12 -->
<g id="edge133" class="edge">
<title>Node50&#45;&gt;Node12</title>
<path fill="none" stroke="#191970" d="M1804.2298,-280.4604C1941.0562,-273.9529 2242.9915,-257.1865 2343.5,-232 2377.2951,-223.5313 2382.0161,-210.6259 2415.5,-201 2516.2055,-172.0493 2545.2272,-182.7336 2648.5,-165 2660.6596,-162.912 2673.803,-160.498 2685.9302,-158.206"/>
<polygon fill="#191970" stroke="#191970" points="2686.6658,-161.6289 2695.8341,-156.3192 2685.3557,-154.7525 2686.6658,-161.6289"/>
</g>
<!-- Node50&#45;&gt;Node13 -->
<g id="edge134" class="edge">
<title>Node50&#45;&gt;Node13</title>
<path fill="none" stroke="#191970" d="M1730.3734,-268.4133C1725.3662,-250.7286 1720.2506,-221.2661 1733.5,-201 1814.7427,-76.7322 1895.1219,-101.6098 2039.5,-67 2194.6015,-29.8196 2676.835,-19.1256 2858.9253,-16.3693"/>
<polygon fill="#191970" stroke="#191970" points="2858.9796,-19.869 2868.9267,-16.2214 2858.876,-12.8698 2858.9796,-19.869"/>
</g>
<!-- Node50&#45;&gt;Node22 -->
<g id="edge130" class="edge">
<title>Node50&#45;&gt;Node22</title>
<path fill="none" stroke="#191970" d="M1666.7806,-271.8814C1644.0494,-264.4131 1621.1101,-252.1463 1607.5,-232 1594.6596,-212.9929 1602.9836,-186.049 1611.2497,-168.1887"/>
<polygon fill="#191970" stroke="#191970" points="1614.464,-169.587 1615.8251,-159.08 1608.2088,-166.4449 1614.464,-169.587"/>
</g>
<!-- Node50&#45;&gt;Node34 -->
<g id="edge128" class="edge">
<title>Node50&#45;&gt;Node34</title>
<path fill="none" stroke="#191970" d="M1670.3791,-268.4259C1630.1481,-258.776 1577.581,-245.558 1531.5,-232 1528.5238,-231.1244 1525.4524,-230.18 1522.3747,-229.2049"/>
<polygon fill="#191970" stroke="#191970" points="1523.2239,-225.8006 1512.6316,-226.0316 1521.0561,-232.4565 1523.2239,-225.8006"/>
</g>
<!-- Node51&#45;&gt;Node5 -->
<g id="edge138" class="edge">
<title>Node51&#45;&gt;Node5</title>
<path fill="none" stroke="#191970" d="M2480.2388,-298.5218C2481.4034,-308.0437 2481.562,-320.4641 2480.7148,-330.7758"/>
<polygon fill="#191970" stroke="#191970" points="2477.217,-330.5332 2479.4006,-340.9005 2484.1588,-331.4343 2477.217,-330.5332"/>
</g>
<!-- Node51&#45;&gt;Node10 -->
<g id="edge137" class="edge">
<title>Node51&#45;&gt;Node10</title>
<path fill="none" stroke="#191970" d="M2488.1149,-268.2967C2497.3724,-257.9591 2509.6327,-244.2684 2519.2235,-233.5588"/>
<polygon fill="#191970" stroke="#191970" points="2521.8794,-235.8394 2525.9433,-226.055 2516.6647,-231.1696 2521.8794,-235.8394"/>
</g>
<!-- Node52&#45;&gt;Node4 -->
<g id="edge145" class="edge">
<title>Node52&#45;&gt;Node4</title>
<path fill="none" stroke="#191970" d="M2698.2802,-269.2529C2701.0523,-268.8061 2703.8002,-268.3859 2706.5,-268 2752.9761,-261.3569 3095.7481,-266.5829 3127.5,-232 3136.8181,-221.8511 3135.4956,-212.2204 3127.5,-201 3016.8528,-45.7267 1541.1322,-19.1948 1301.3259,-15.9015"/>
<polygon fill="#191970" stroke="#191970" points="1301.2001,-12.3996 1291.1542,-15.7657 1301.1066,-19.399 1301.2001,-12.3996"/>
</g>
<!-- Node52&#45;&gt;Node5 -->
<g id="edge155" class="edge">
<title>Node52&#45;&gt;Node5</title>
<path fill="none" stroke="#191970" d="M2600.4869,-298.5218C2575.1841,-310.0696 2538.5394,-325.8806 2511.2151,-337.0231"/>
<polygon fill="#191970" stroke="#191970" points="2509.5715,-333.9121 2501.6083,-340.9005 2512.1915,-340.4034 2509.5715,-333.9121"/>
</g>
<!-- Node52&#45;&gt;Node8 -->
<g id="edge140" class="edge">
<title>Node52&#45;&gt;Node8</title>
<path fill="none" stroke="#191970" d="M2622.3148,-268.4159C2612.9418,-250.1818 2594.9364,-219.6304 2571.5,-201 2563.9242,-194.9778 2514.6784,-175.8078 2479.7902,-162.6351"/>
<polygon fill="#191970" stroke="#191970" points="2480.9692,-159.3392 2470.3772,-159.0946 2478.5048,-165.8911 2480.9692,-159.3392"/>
</g>
<!-- Node52&#45;&gt;Node9 -->
<g id="edge141" class="edge">
<title>Node52&#45;&gt;Node9</title>
<path fill="none" stroke="#191970" d="M2698.3305,-269.5565C2701.0886,-269.0257 2703.8199,-268.505 2706.5,-268 2800.6962,-250.2512 2962.3679,-282.2429 2911.5,-201 2799.8581,-22.6927 2513.4014,-141.4619 2187.5,-98 2175.6757,-96.4231 2162.9275,-94.0477 2151.3553,-91.6272"/>
<polygon fill="#191970" stroke="#191970" points="2152.0549,-88.1977 2141.5413,-89.5074 2150.5769,-95.0399 2152.0549,-88.1977"/>
</g>
<!-- Node52&#45;&gt;Node10 -->
<g id="edge142" class="edge">
<title>Node52&#45;&gt;Node10</title>
<path fill="none" stroke="#191970" d="M2607.943,-268.2967C2592.5668,-257.4524 2571.9586,-242.9182 2556.4862,-232.006"/>
<polygon fill="#191970" stroke="#191970" points="2558.2374,-228.9582 2548.0481,-226.055 2554.203,-234.6787 2558.2374,-228.9582"/>
</g>
<!-- Node52&#45;&gt;Node11 -->
<g id="edge144" class="edge">
<title>Node52&#45;&gt;Node11</title>
<path fill="none" stroke="#191970" d="M2698.2742,-269.2102C2701.0479,-268.7752 2703.7979,-268.3691 2706.5,-268 2760.9182,-260.566 3154.6431,-263.6933 3199.5,-232 3238.346,-204.5536 3207.973,-166.714 3242.5,-134 3271.5395,-106.4853 3316.6762,-93.3352 3347.1277,-87.2879"/>
<polygon fill="#191970" stroke="#191970" points="3348.0317,-90.6805 3357.2359,-85.4332 3346.7684,-83.7955 3348.0317,-90.6805"/>
</g>
<!-- Node52&#45;&gt;Node12 -->
<g id="edge146" class="edge">
<title>Node52&#45;&gt;Node12</title>
<path fill="none" stroke="#191970" d="M2647.015,-268.2601C2657.6734,-258.497 2671.176,-245.2178 2681.5,-232 2697.444,-211.587 2712.0959,-185.5369 2721.1438,-168.2273"/>
<polygon fill="#191970" stroke="#191970" points="2724.3472,-169.6505 2725.7908,-159.1544 2718.1169,-166.4593 2724.3472,-169.6505"/>
</g>
<!-- Node52&#45;&gt;Node13 -->
<g id="edge151" class="edge">
<title>Node52&#45;&gt;Node13</title>
<path fill="none" stroke="#191970" d="M2698.2771,-269.2311C2701.05,-268.7903 2703.799,-268.3773 2706.5,-268 2756.7258,-260.9835 3127.0834,-269.2473 3161.5,-232 3233.4834,-154.0962 3065.9674,-70.9145 2978.4819,-34.458"/>
<polygon fill="#191970" stroke="#191970" points="2979.577,-31.124 2968.9973,-30.5578 2976.9147,-37.598 2979.577,-31.124"/>
</g>
<!-- Node52&#45;&gt;Node14 -->
<g id="edge152" class="edge">
<title>Node52&#45;&gt;Node14</title>
<path fill="none" stroke="#191970" d="M2698.2718,-269.1923C2701.0462,-268.7622 2703.7969,-268.3621 2706.5,-268 2940.9475,-236.5931 3002.2023,-256.2281 3237.5,-232 3251.0915,-230.6005 3265.572,-228.8162 3279.4532,-226.9597"/>
<polygon fill="#191970" stroke="#191970" points="3279.9978,-230.4179 3289.4336,-225.5997 3279.0526,-223.482 3279.9978,-230.4179"/>
</g>
<!-- Node52&#45;&gt;Node17 -->
<g id="edge147" class="edge">
<title>Node52&#45;&gt;Node17</title>
<path fill="none" stroke="#191970" d="M2638.288,-268.3034C2654.4469,-238.1533 2684.1112,-170.5347 2648.5,-134 2621.2303,-106.0232 1281.4304,-101.2807 1242.5,-98 1230.4818,-96.9872 1217.7609,-95.5194 1205.4304,-93.8855"/>
<polygon fill="#191970" stroke="#191970" points="1205.5715,-90.3722 1195.1885,-92.4804 1204.6199,-97.3072 1205.5715,-90.3722"/>
</g>
<!-- Node52&#45;&gt;Node19 -->
<g id="edge153" class="edge">
<title>Node52&#45;&gt;Node19</title>
<path fill="none" stroke="#191970" d="M2560.6065,-269.7567C2557.5296,-269.1596 2554.4831,-268.5717 2551.5,-268 2477.2283,-253.7663 2391.6923,-238.0819 2335.1172,-227.8065"/>
<polygon fill="#191970" stroke="#191970" points="2335.7128,-224.3575 2325.2486,-226.0156 2334.4629,-231.245 2335.7128,-224.3575"/>
</g>
<!-- Node52&#45;&gt;Node24 -->
<g id="edge143" class="edge">
<title>Node52&#45;&gt;Node24</title>
<path fill="none" stroke="#191970" d="M2628.8234,-268.389C2627.7346,-244.0735 2625.5939,-196.2644 2624.3852,-169.2698"/>
<polygon fill="#191970" stroke="#191970" points="2627.8739,-168.9376 2623.93,-159.1042 2620.8809,-169.2507 2627.8739,-168.9376"/>
</g>
<!-- Node52&#45;&gt;Node31 -->
<g id="edge154" class="edge">
<title>Node52&#45;&gt;Node31</title>
<path fill="none" stroke="#191970" d="M2560.658,-269.4553C2557.5672,-268.9398 2554.5037,-268.4515 2551.5,-268 2396.4235,-244.6918 2355.6046,-255.1205 2200.5,-232 2192.724,-230.8409 2184.5511,-229.4428 2176.5311,-227.9667"/>
<polygon fill="#191970" stroke="#191970" points="2176.9721,-224.4881 2166.4956,-226.0675 2175.6703,-231.366 2176.9721,-224.4881"/>
</g>
<!-- Node53 -->
<g id="node54" class="node">
<title>Node53</title>
<g id="a_node54"><a xlink:href="drake__bool_8h.html" target="_top" xlink:title=" ">
<polygon fill="#ffffff" stroke="#000000" points="2998,-201.5 2998,-231.5 3119,-231.5 3119,-201.5 2998,-201.5"/>
<text text-anchor="start" x="3006" y="-219.5" font-family="Helvetica,sans-Serif" font-size="10.00" fill="#000000">drake/common/drake</text>
<text text-anchor="middle" x="3058.5" y="-208.5" font-family="Helvetica,sans-Serif" font-size="10.00" fill="#000000">_bool.h</text>
</a>
</g>
</g>
<!-- Node52&#45;&gt;Node53 -->
<g id="edge148" class="edge">
<title>Node52&#45;&gt;Node53</title>
<path fill="none" stroke="#191970" d="M2698.3128,-269.4588C2701.0758,-268.955 2703.813,-268.4667 2706.5,-268 2759.1068,-258.8635 2901.2248,-238.5758 2987.9434,-226.3678"/>
<polygon fill="#191970" stroke="#191970" points="2988.5594,-229.8157 2997.9744,-224.9569 2987.5843,-222.884 2988.5594,-229.8157"/>
</g>
<!-- Node53&#45;&gt;Node12 -->
<g id="edge150" class="edge">
<title>Node53&#45;&gt;Node12</title>
<path fill="none" stroke="#191970" d="M2997.921,-203.9642C2993.0423,-202.9595 2988.1889,-201.9618 2983.5,-201 2910.5829,-186.0439 2825.8085,-168.8211 2775.2413,-158.5655"/>
<polygon fill="#191970" stroke="#191970" points="2775.7883,-155.1052 2765.2922,-156.548 2774.3972,-161.9656 2775.7883,-155.1052"/>
</g>
<!-- Node53&#45;&gt;Node18 -->
<g id="edge149" class="edge">
<title>Node53&#45;&gt;Node18</title>
<path fill="none" stroke="#191970" d="M3032.8542,-201.4459C2998.681,-182.1884 2935.7396,-149.4795 2877.5,-134 2720.7037,-92.3251 2312.3909,-77.6407 2150.5,-67 1744.8381,-40.3367 1641.2007,-69.5982 1236.5,-31 1217.7192,-29.2088 1197.126,-26.2677 1179.391,-23.4261"/>
<polygon fill="#191970" stroke="#191970" points="1179.7491,-19.9381 1169.3145,-21.7739 1178.6164,-26.8459 1179.7491,-19.9381"/>
</g>
<!-- Node54&#45;&gt;Node4 -->
<g id="edge157" class="edge">
<title>Node54&#45;&gt;Node4</title>
<path fill="none" stroke="#191970" d="M726.7178,-276.5317C641.0936,-267.1681 504.1285,-249.6521 488.5,-232 459.614,-199.3739 458.9735,-168.5718 485.5,-134 564.2268,-31.3962 1119.0559,-38.3432 1177.5,-31 1196.8571,-28.5679 1218.382,-24.9439 1235.6358,-21.8116"/>
<polygon fill="#191970" stroke="#191970" points="1236.5713,-25.198 1245.7692,-19.9398 1235.2998,-18.3145 1236.5713,-25.198"/>
</g>
<!-- Node54&#45;&gt;Node5 -->
<g id="edge159" class="edge">
<title>Node54&#45;&gt;Node5</title>
<path fill="none" stroke="#191970" d="M864.139,-286.126C1131.191,-296.5792 2100.0723,-335.2372 2391.2277,-347.0493"/>
<polygon fill="#191970" stroke="#191970" points="2391.163,-350.5494 2401.2968,-347.4581 2391.4471,-343.5552 2391.163,-350.5494"/>
</g>
<!-- Node54&#45;&gt;Node17 -->
<g id="edge158" class="edge">
<title>Node54&#45;&gt;Node17</title>
<path fill="none" stroke="#191970" d="M726.6872,-275.3635C647.6202,-265.3438 526.854,-247.7186 512.5,-232 483.0744,-199.7769 476.9199,-166.0814 506.5,-134 539.976,-97.6932 900.2828,-102.0616 949.5,-98 987.2138,-94.8877 1029.2477,-91.3699 1063.7062,-88.4732"/>
<polygon fill="#191970" stroke="#191970" points="1064.0063,-91.9604 1073.6777,-87.6345 1063.4195,-84.985 1064.0063,-91.9604"/>
</g>
<!-- Node55&#45;&gt;Node4 -->
<g id="edge162" class="edge">
<title>Node55&#45;&gt;Node4</title>
<path fill="none" stroke="#191970" d="M4003.9288,-268.0691C3979.5835,-236.8702 3919.6594,-166.5035 3851.5,-134 3672.5562,-48.6663 3607.9923,-84.3062 3410.5,-67 2975.5213,-28.883 1536.9326,-17.3657 1301.2855,-15.7174"/>
<polygon fill="#191970" stroke="#191970" points="1301.3047,-12.2176 1291.2807,-15.6484 1301.2563,-19.2174 1301.3047,-12.2176"/>
</g>
<!-- Node55&#45;&gt;Node5 -->
<g id="edge163" class="edge">
<title>Node55&#45;&gt;Node5</title>
<path fill="none" stroke="#191970" d="M3950.2291,-298.5433C3948.9782,-298.7041 3947.7343,-298.8566 3946.5,-299 3675.1324,-330.5312 2827.7765,-345.4234 2557.8976,-349.3859"/>
<polygon fill="#191970" stroke="#191970" points="2557.7237,-345.888 2547.7758,-349.5333 2557.8257,-352.8872 2557.7237,-345.888"/>
</g>
<!-- Node55&#45;&gt;Node8 -->
<g id="edge161" class="edge">
<title>Node55&#45;&gt;Node8</title>
<path fill="none" stroke="#191970" d="M3991.0175,-268.3757C3957.4112,-248.5493 3894.4329,-214.6882 3835.5,-201 3543.3914,-133.1526 2780.9816,-221.6686 2486.5,-165 2483.0368,-164.3336 2479.4818,-163.4164 2475.9764,-162.3584"/>
<polygon fill="#191970" stroke="#191970" points="2476.94,-158.9895 2466.3457,-159.0947 2474.6933,-165.6191 2476.94,-158.9895"/>
</g>
<!-- Node56&#45;&gt;Node5 -->
<g id="edge172" class="edge">
<title>Node56&#45;&gt;Node5</title>
<path fill="none" stroke="#191970" d="M3192.9266,-289.6882C3048.5673,-302.273 2714.0316,-330.7572 2557.7161,-343.778"/>
<polygon fill="#191970" stroke="#191970" points="2557.3568,-340.2957 2547.6815,-344.6129 2557.9373,-347.2716 2557.3568,-340.2957"/>
</g>
<!-- Node56&#45;&gt;Node11 -->
<g id="edge166" class="edge">
<title>Node56&#45;&gt;Node11</title>
<path fill="none" stroke="#191970" d="M3330.1971,-281.1972C3457.391,-276.2221 3719.1785,-262.3762 3746.5,-232 3845.5803,-121.8418 3518.2506,-91.2241 3411.8104,-84.2785"/>
<polygon fill="#191970" stroke="#191970" points="3411.8503,-80.7743 3401.6517,-83.6444 3411.4142,-87.7607 3411.8503,-80.7743"/>
</g>
<!-- Node56&#45;&gt;Node12 -->
<g id="edge169" class="edge">
<title>Node56&#45;&gt;Node12</title>
<path fill="none" stroke="#191970" d="M3242.8755,-268.3539C3218.154,-249.1548 3172.3771,-216.6752 3127.5,-201 3001.5545,-157.0084 2961.6434,-183.3206 2829.5,-165 2811.8048,-162.5467 2792.3765,-159.5676 2775.4525,-156.8793"/>
<polygon fill="#191970" stroke="#191970" points="2775.704,-153.3751 2765.2765,-155.2503 2774.5975,-160.287 2775.704,-153.3751"/>
</g>
<!-- Node56&#45;&gt;Node13 -->
<g id="edge171" class="edge">
<title>Node56&#45;&gt;Node13</title>
<path fill="none" stroke="#191970" d="M3330.1093,-281.5569C3462.0162,-277.1101 3740.58,-264.0001 3769.5,-232 3778.738,-221.7781 3772.1229,-214.5258 3769.5,-201 3763.3882,-169.4823 3766.4356,-155.3963 3742.5,-134 3659.615,-59.9083 3610.8677,-86.9555 3501.5,-67 3322.8576,-34.4045 3108.8924,-22.122 3000.2791,-17.7476"/>
<polygon fill="#191970" stroke="#191970" points="3000.2313,-14.2432 2990.1018,-17.3486 2999.9569,-21.2378 3000.2313,-14.2432"/>
</g>
<!-- Node56&#45;&gt;Node25 -->
<g id="edge168" class="edge">
<title>Node56&#45;&gt;Node25</title>
<path fill="none" stroke="#191970" d="M3330.2997,-281.4219C3408.5084,-277.4399 3529.0463,-265.8317 3557.5,-232 3591.4516,-191.6313 3518.8477,-141.15 3504.5,-134 3491.6595,-127.601 1588.8812,-88.8445 1309.5689,-83.1885"/>
<polygon fill="#191970" stroke="#191970" points="1309.3208,-79.6828 1299.252,-82.9797 1309.1791,-86.6814 1309.3208,-79.6828"/>
</g>
<!-- Node56&#45;&gt;Node30 -->
<g id="edge167" class="edge">
<title>Node56&#45;&gt;Node30</title>
<path fill="none" stroke="#191970" d="M3192.7973,-272.1344C3114.0166,-259.1015 2986.3333,-237.9786 2913.0522,-225.8555"/>
<polygon fill="#191970" stroke="#191970" points="2913.5209,-222.3856 2903.0837,-224.2064 2912.3783,-229.2917 2913.5209,-222.3856"/>
</g>
<!-- Node56&#45;&gt;Node36 -->
<g id="edge170" class="edge">
<title>Node56&#45;&gt;Node36</title>
<path fill="none" stroke="#191970" d="M3192.8833,-278.6758C3143.7788,-275.3416 3076.0929,-270.9859 3016.5,-268 2583.8582,-246.3227 2475.1245,-254.0195 2042.5,-232 1977.3111,-228.6821 1902.2011,-223.6049 1853.85,-220.1737"/>
<polygon fill="#191970" stroke="#191970" points="1853.8771,-216.6668 1843.6533,-219.4463 1853.3789,-223.6491 1853.8771,-216.6668"/>
</g>
<!-- Node57 -->
<g id="node58" class="node">
<title>Node57</title>
<g id="a_node58"><a xlink:title=" ">
<polygon fill="#ffffff" stroke="#bfbfbf" points="3681.5,-207 3681.5,-226 3737.5,-226 3737.5,-207 3681.5,-207"/>
<text text-anchor="middle" x="3709.5" y="-214" font-family="Helvetica,sans-Serif" font-size="10.00" fill="#000000">sstream</text>
</a>
</g>
</g>
<!-- Node56&#45;&gt;Node57 -->
<g id="edge165" class="edge">
<title>Node56&#45;&gt;Node57</title>
<path fill="none" stroke="#191970" d="M3330.2491,-279.557C3411.6978,-273.7932 3551.0341,-260.4836 3667.5,-232 3670.4987,-231.2666 3673.5779,-230.3877 3676.6405,-229.426"/>
<polygon fill="#191970" stroke="#191970" points="3677.9124,-232.6903 3686.2471,-226.1495 3675.6526,-226.065 3677.9124,-232.6903"/>
</g>
</g>
</svg>
