<?xml version="1.0" encoding="UTF-8" standalone="no"?>
<!DOCTYPE svg PUBLIC "-//W3C//DTD SVG 1.1//EN"
 "http://www.w3.org/Graphics/SVG/1.1/DTD/svg11.dtd">
<!-- Generated by graphviz version 2.40.1 (20161225.0304)
 -->
<!-- Title: drake/common/symbolic_variables.h Pages: 1 -->
<!--zoomable 430 -->
<svg id="main" version="1.1" xmlns="http://www.w3.org/2000/svg" xmlns:xlink="http://www.w3.org/1999/xlink" xml:space="preserve" onload="init(evt)">
<style type="text/css"><![CDATA[
.edge:hover path { stroke: red; }
.edge:hover polygon { stroke: red; fill: red; }
]]></style>
<script type="text/javascript"><![CDATA[
var edges = document.getElementsByTagName('g');
if (edges && edges.length) {
  for (var i=0;i<edges.length;i++) {
    if (edges[i].id.substr(0,4)=='edge') {
      edges[i].setAttribute('class','edge');
    }
  }
}
]]></script>
        <defs>
                <circle id="rim" cx="0" cy="0" r="7"/>
                <circle id="rim2" cx="0" cy="0" r="3.5"/>
                <g id="zoomPlus">
                        <use xlink:href="#rim" fill="#404040">
                                <set attributeName="fill" to="#808080" begin="zoomplus.mouseover" end="zoomplus.mouseout"/>
                        </use>
                        <path d="M-4,0h8M0,-4v8" fill="none" stroke="white" stroke-width="1.5" pointer-events="none"/>
                </g>
                <g id="zoomMin">
                        <use xlink:href="#rim" fill="#404040">
                                <set attributeName="fill" to="#808080" begin="zoomminus.mouseover" end="zoomminus.mouseout"/>
                        </use>
                        <path d="M-4,0h8" fill="none" stroke="white" stroke-width="1.5" pointer-events="none"/>
                </g>
                <g id="dirArrow">
                        <path fill="none" stroke="white" stroke-width="1.5" d="M0,-3.0v7 M-2.5,-0.5L0,-3.0L2.5,-0.5"/>
                </g>
               <g id="resetDef">
                       <use xlink:href="#rim2" fill="#404040">
                               <set attributeName="fill" to="#808080" begin="reset.mouseover" end="reset.mouseout"/>
                       </use>
               </g>
        </defs>

<script type="text/javascript">
var viewWidth = 3823;
var viewHeight = 430;
var sectionId = 'dynsection-0';
</script>
<script xlink:href="svgpan.js"/>
<svg id="graph" class="graph">
<g id="viewport">
<title>drake/common/symbolic_variables.h</title>
<polygon fill="#ffffff" stroke="transparent" points="-4,4 -4,-426 3818.5818,-426 3818.5818,4 -4,4"/>
<!-- Node0 -->
<g id="node1" class="node">
<title>Node0</title>
<g id="a_node1"><a xlink:title=" ">
<polygon fill="#bfbfbf" stroke="#000000" points="2122,-391.5 2122,-421.5 2259,-421.5 2259,-391.5 2122,-391.5"/>
<text text-anchor="start" x="2130" y="-409.5" font-family="Helvetica,sans-Serif" font-size="10.00" fill="#000000">drake/common/symbolic</text>
<text text-anchor="middle" x="2190.5" y="-398.5" font-family="Helvetica,sans-Serif" font-size="10.00" fill="#000000">_variables.h</text>
</a>
</g>
</g>
<!-- Node1 -->
<g id="node2" class="node">
<title>Node1</title>
<g id="a_node2"><a xlink:title=" ">
<polygon fill="#ffffff" stroke="#bfbfbf" points="1838,-140 1838,-159 1891,-159 1891,-140 1838,-140"/>
<text text-anchor="middle" x="1864.5" y="-147" font-family="Helvetica,sans-Serif" font-size="10.00" fill="#000000">cstddef</text>
</a>
</g>
</g>
<!-- Node0&#45;&gt;Node1 -->
<g id="edge1" class="edge">
<title>Node0&#45;&gt;Node1</title>
<path fill="none" stroke="#191970" d="M2121.8608,-399.6066C1968.4726,-383.4965 1608.6311,-341.5119 1574.5,-299 1501.3422,-207.8785 1734.4213,-166.5327 1827.6802,-153.9132"/>
<polygon fill="#191970" stroke="#191970" points="1828.3556,-157.3546 1837.8141,-152.5809 1827.4432,-150.4143 1828.3556,-157.3546"/>
</g>
<!-- Node2 -->
<g id="node3" class="node">
<title>Node2</title>
<g id="a_node3"><a xlink:title=" ">
<polygon fill="#ffffff" stroke="#bfbfbf" points="1352,-140 1352,-159 1417,-159 1417,-140 1352,-140"/>
<text text-anchor="middle" x="1384.5" y="-147" font-family="Helvetica,sans-Serif" font-size="10.00" fill="#000000">functional</text>
</a>
</g>
</g>
<!-- Node0&#45;&gt;Node2 -->
<g id="edge2" class="edge">
<title>Node0&#45;&gt;Node2</title>
<path fill="none" stroke="#191970" d="M2121.7112,-403.4923C1855.643,-391.5329 906.5928,-345.7249 863.5,-299 795.1829,-224.9248 1205.8248,-170.1569 1341.844,-154.2368"/>
<polygon fill="#191970" stroke="#191970" points="1342.3713,-157.6992 1351.9022,-153.072 1341.566,-150.7457 1342.3713,-157.6992"/>
</g>
<!-- Node3 -->
<g id="node4" class="node">
<title>Node3</title>
<g id="a_node4"><a xlink:title=" ">
<polygon fill="#ffffff" stroke="#bfbfbf" points="3670,-207 3670,-226 3753,-226 3753,-207 3670,-207"/>
<text text-anchor="middle" x="3711.5" y="-214" font-family="Helvetica,sans-Serif" font-size="10.00" fill="#000000">initializer_list</text>
</a>
</g>
</g>
<!-- Node0&#45;&gt;Node3 -->
<g id="edge3" class="edge">
<title>Node0&#45;&gt;Node3</title>
<path fill="none" stroke="#191970" d="M2259.2411,-406.1821C2538.4658,-404.2775 3578.2156,-391.0142 3689.5,-299 3707.7402,-283.9183 3711.7857,-255.5578 3712.2475,-236.3487"/>
<polygon fill="#191970" stroke="#191970" points="3715.747,-236.244 3712.1854,-226.2657 3708.7471,-236.2871 3715.747,-236.244"/>
</g>
<!-- Node4 -->
<g id="node5" class="node">
<title>Node4</title>
<g id="a_node5"><a xlink:title=" ">
<polygon fill="#ffffff" stroke="#bfbfbf" points="1726,-207 1726,-226 1783,-226 1783,-207 1726,-207"/>
<text text-anchor="middle" x="1754.5" y="-214" font-family="Helvetica,sans-Serif" font-size="10.00" fill="#000000">ostream</text>
</a>
</g>
</g>
<!-- Node0&#45;&gt;Node4 -->
<g id="edge4" class="edge">
<title>Node0&#45;&gt;Node4</title>
<path fill="none" stroke="#191970" d="M2121.59,-398.1226C2014.542,-383.6577 1815.6675,-350.5043 1768.5,-299 1752.9892,-282.063 1751.2962,-254.5839 1752.2703,-236.0413"/>
<polygon fill="#191970" stroke="#191970" points="1755.7592,-236.3184 1753.0945,-226.0641 1748.783,-235.742 1755.7592,-236.3184"/>
</g>
<!-- Node5 -->
<g id="node6" class="node">
<title>Node5</title>
<g id="a_node6"><a xlink:title=" ">
<polygon fill="#ffffff" stroke="#bfbfbf" points="3229.5,-140 3229.5,-159 3261.5,-159 3261.5,-140 3229.5,-140"/>
<text text-anchor="middle" x="3245.5" y="-147" font-family="Helvetica,sans-Serif" font-size="10.00" fill="#000000">set</text>
</a>
</g>
</g>
<!-- Node0&#45;&gt;Node5 -->
<g id="edge5" class="edge">
<title>Node0&#45;&gt;Node5</title>
<path fill="none" stroke="#191970" d="M2259.259,-404.9558C2516.0267,-399.0401 3410.4527,-377.0456 3536.5,-355 3656.1281,-334.0772 3733.6102,-344.0267 3780.5,-232 3785.8196,-219.2906 3789.7639,-211.1984 3780.5,-201 3745.9574,-162.9726 3374.924,-152.2597 3271.8993,-150.0082"/>
<polygon fill="#191970" stroke="#191970" points="3271.8055,-146.5056 3261.7342,-149.7949 3271.6586,-153.504 3271.8055,-146.5056"/>
</g>
<!-- Node6 -->
<g id="node7" class="node">
<title>Node6</title>
<g id="a_node7"><a xlink:title=" ">
<polygon fill="#ffffff" stroke="#bfbfbf" points="2189.5,-73 2189.5,-92 2233.5,-92 2233.5,-73 2189.5,-73"/>
<text text-anchor="middle" x="2211.5" y="-80" font-family="Helvetica,sans-Serif" font-size="10.00" fill="#000000">string</text>
</a>
</g>
</g>
<!-- Node0&#45;&gt;Node6 -->
<g id="edge6" class="edge">
<title>Node0&#45;&gt;Node6</title>
<path fill="none" stroke="#191970" d="M2259.4027,-405.288C2525.4452,-400.4325 3477.4859,-381.3676 3610.5,-355 3715.7754,-334.1311 3866.5526,-282.3083 3796.5,-201 3665.0905,-48.4763 3548.8818,-153.4696 3348.5,-134 2912.3898,-91.6264 2378.713,-84.0203 2243.6999,-82.7435"/>
<polygon fill="#191970" stroke="#191970" points="2243.6489,-79.243 2233.6179,-82.6531 2243.5861,-86.2427 2243.6489,-79.243"/>
</g>
<!-- Node7 -->
<g id="node8" class="node">
<title>Node7</title>
<g id="a_node8"><a xlink:href="eigen__types_8h.html" target="_top" xlink:title="This file contains abbreviated definitions for certain specializations of Eigen::Matrix that are comm...">
<polygon fill="#ffffff" stroke="#000000" points="2851.5,-201.5 2851.5,-231.5 2971.5,-231.5 2971.5,-201.5 2851.5,-201.5"/>
<text text-anchor="start" x="2859.5" y="-219.5" font-family="Helvetica,sans-Serif" font-size="10.00" fill="#000000">drake/common/eigen</text>
<text text-anchor="middle" x="2911.5" y="-208.5" font-family="Helvetica,sans-Serif" font-size="10.00" fill="#000000">_types.h</text>
</a>
</g>
</g>
<!-- Node0&#45;&gt;Node7 -->
<g id="edge7" class="edge">
<title>Node0&#45;&gt;Node7</title>
<path fill="none" stroke="#191970" d="M2250.0985,-391.4541C2331.2501,-370.9028 2481.0127,-332.7475 2608.5,-299 2691.0004,-277.1611 2785.8976,-251.1836 2847.1848,-234.2942"/>
<polygon fill="#191970" stroke="#191970" points="2848.3901,-237.5925 2857.1,-231.5602 2846.5294,-230.8444 2848.3901,-237.5925"/>
</g>
<!-- Node14 -->
<g id="node15" class="node">
<title>Node14</title>
<g id="a_node15"><a xlink:href="hash_8h.html" target="_top" xlink:title=" ">
<polygon fill="#ffffff" stroke="#000000" points="2144,-207 2144,-226 2269,-226 2269,-207 2144,-207"/>
<text text-anchor="middle" x="2206.5" y="-214" font-family="Helvetica,sans-Serif" font-size="10.00" fill="#000000">drake/common/hash.h</text>
</a>
</g>
</g>
<!-- Node0&#45;&gt;Node14 -->
<g id="edge14" class="edge">
<title>Node0&#45;&gt;Node14</title>
<path fill="none" stroke="#191970" d="M2198.6925,-391.3982C2209.1965,-371.0933 2226.8479,-333.5418 2233.5,-299 2236.1055,-285.4708 2236.7943,-281.3782 2233.5,-268 2230.6035,-256.2371 2224.4898,-244.186 2218.8116,-234.7015"/>
<polygon fill="#191970" stroke="#191970" points="2221.721,-232.7539 2213.4137,-226.1783 2215.8072,-236.4992 2221.721,-232.7539"/>
</g>
<!-- Node21 -->
<g id="node22" class="node">
<title>Node21</title>
<g id="a_node22"><a xlink:href="symbolic_8h.html" target="_top" xlink:title="Provides public header files of Drake&#39;s symbolic library.">
<polygon fill="#ffffff" stroke="#000000" points="1991.5,-335.5 1991.5,-354.5 2137.5,-354.5 2137.5,-335.5 1991.5,-335.5"/>
<text text-anchor="middle" x="2064.5" y="-342.5" font-family="Helvetica,sans-Serif" font-size="10.00" fill="#000000">drake/common/symbolic.h</text>
</a>
</g>
</g>
<!-- Node0&#45;&gt;Node21 -->
<g id="edge30" class="edge">
<title>Node0&#45;&gt;Node21</title>
<path fill="none" stroke="#191970" d="M2153.7798,-391.4554C2132.5101,-381.644 2106.4667,-368.9167 2087.9255,-359.2653"/>
<polygon fill="#191970" stroke="#191970" points="2089.4543,-356.1145 2078.9785,-354.5303 2086.1799,-362.3015 2089.4543,-356.1145"/>
</g>
<!-- Node8 -->
<g id="node9" class="node">
<title>Node8</title>
<g id="a_node9"><a xlink:title=" ">
<polygon fill="#ffffff" stroke="#bfbfbf" points="633,-6 633,-25 678,-25 678,-6 633,-6"/>
<text text-anchor="middle" x="655.5" y="-13" font-family="Helvetica,sans-Serif" font-size="10.00" fill="#000000">utility</text>
</a>
</g>
</g>
<!-- Node7&#45;&gt;Node8 -->
<g id="edge8" class="edge">
<title>Node7&#45;&gt;Node8</title>
<path fill="none" stroke="#191970" d="M2859.4411,-201.431C2829,-192.071 2790.0778,-179.1505 2756.5,-165 2728.8402,-153.3435 2724.5481,-144.6884 2696.5,-134 2584.5893,-91.3537 2554.1535,-83.2503 2435.5,-67 1678.3999,36.6894 1473.7264,-133.7631 716.5,-31 707.1384,-29.7295 697.1422,-27.5492 688.008,-25.2185"/>
<polygon fill="#191970" stroke="#191970" points="688.7071,-21.7822 678.1412,-22.5637 686.8883,-28.5418 688.7071,-21.7822"/>
</g>
<!-- Node9 -->
<g id="node10" class="node">
<title>Node9</title>
<g id="a_node10"><a xlink:title=" ">
<polygon fill="#ffffff" stroke="#bfbfbf" points="2766,-140 2766,-159 2843,-159 2843,-140 2766,-140"/>
<text text-anchor="middle" x="2804.5" y="-147" font-family="Helvetica,sans-Serif" font-size="10.00" fill="#000000">Eigen/Dense</text>
</a>
</g>
</g>
<!-- Node7&#45;&gt;Node9 -->
<g id="edge9" class="edge">
<title>Node7&#45;&gt;Node9</title>
<path fill="none" stroke="#191970" d="M2887.4871,-201.4639C2869.8574,-190.4247 2846.0151,-175.4954 2828.4097,-164.4715"/>
<polygon fill="#191970" stroke="#191970" points="2830.1707,-161.4446 2819.8376,-159.1039 2826.4556,-167.3775 2830.1707,-161.4446"/>
</g>
<!-- Node10 -->
<g id="node11" class="node">
<title>Node10</title>
<g id="a_node11"><a xlink:href="constants_8h.html" target="_top" xlink:title=" ">
<polygon fill="#ffffff" stroke="#000000" points="2861,-140 2861,-159 3010,-159 3010,-140 2861,-140"/>
<text text-anchor="middle" x="2935.5" y="-147" font-family="Helvetica,sans-Serif" font-size="10.00" fill="#000000">drake/common/constants.h</text>
</a>
</g>
</g>
<!-- Node7&#45;&gt;Node10 -->
<g id="edge10" class="edge">
<title>Node7&#45;&gt;Node10</title>
<path fill="none" stroke="#191970" d="M2916.946,-201.2967C2920.4312,-191.5672 2924.9803,-178.8675 2928.7018,-168.4784"/>
<polygon fill="#191970" stroke="#191970" points="2932,-169.6495 2932.0773,-159.055 2925.41,-167.2889 2932,-169.6495"/>
</g>
<!-- Node11 -->
<g id="node12" class="node">
<title>Node11</title>
<g id="a_node12"><a xlink:href="drake__assert_8h.html" target="_top" xlink:title="Provides Drake&#39;s assertion implementation.">
<polygon fill="#ffffff" stroke="#000000" points="1630,-67.5 1630,-97.5 1751,-97.5 1751,-67.5 1630,-67.5"/>
<text text-anchor="start" x="1638" y="-85.5" font-family="Helvetica,sans-Serif" font-size="10.00" fill="#000000">drake/common/drake</text>
<text text-anchor="middle" x="1690.5" y="-74.5" font-family="Helvetica,sans-Serif" font-size="10.00" fill="#000000">_assert.h</text>
</a>
</g>
</g>
<!-- Node7&#45;&gt;Node11 -->
<g id="edge11" class="edge">
<title>Node7&#45;&gt;Node11</title>
<path fill="none" stroke="#191970" d="M2851.3824,-201.5708C2814.2682,-191.9747 2765.8199,-178.7623 2723.5,-165 2686.4481,-152.9509 2679.6239,-142.037 2641.5,-134 2556.2799,-116.0345 1967.1643,-92.7568 1761.3102,-85.0801"/>
<polygon fill="#191970" stroke="#191970" points="1761.3398,-81.5789 1751.2166,-84.7048 1761.0796,-88.5741 1761.3398,-81.5789"/>
</g>
<!-- Node13 -->
<g id="node14" class="node">
<title>Node13</title>
<g id="a_node14"><a xlink:href="drake__copyable_8h.html" target="_top" xlink:title="Provides careful macros to selectively enable or disable the special member functions for copy&#45;constr...">
<polygon fill="#ffffff" stroke="#000000" points="2361,-.5 2361,-30.5 2482,-30.5 2482,-.5 2361,-.5"/>
<text text-anchor="start" x="2369" y="-18.5" font-family="Helvetica,sans-Serif" font-size="10.00" fill="#000000">drake/common/drake</text>
<text text-anchor="middle" x="2421.5" y="-7.5" font-family="Helvetica,sans-Serif" font-size="10.00" fill="#000000">_copyable.h</text>
</a>
</g>
</g>
<!-- Node7&#45;&gt;Node13 -->
<g id="edge13" class="edge">
<title>Node7&#45;&gt;Node13</title>
<path fill="none" stroke="#191970" d="M2958.7255,-201.3733C2997.194,-186.5739 3041.6455,-162.1913 3018.5,-134 2952.5698,-53.697 2635.6385,-26.8413 2492.2423,-18.7055"/>
<polygon fill="#191970" stroke="#191970" points="2492.4016,-15.2091 2482.2236,-18.1516 2492.0151,-22.1984 2492.4016,-15.2091"/>
</g>
<!-- Node12 -->
<g id="node13" class="node">
<title>Node12</title>
<g id="a_node13"><a xlink:title=" ">
<polygon fill="#ffffff" stroke="#bfbfbf" points="1491,-6 1491,-25 1560,-25 1560,-6 1491,-6"/>
<text text-anchor="middle" x="1525.5" y="-13" font-family="Helvetica,sans-Serif" font-size="10.00" fill="#000000">type_traits</text>
</a>
</g>
</g>
<!-- Node11&#45;&gt;Node12 -->
<g id="edge12" class="edge">
<title>Node11&#45;&gt;Node12</title>
<path fill="none" stroke="#191970" d="M1653.4708,-67.4639C1625.0377,-55.9183 1586.1254,-40.1176 1558.6966,-28.9798"/>
<polygon fill="#191970" stroke="#191970" points="1559.7335,-25.6234 1549.1514,-25.1039 1557.0999,-32.1091 1559.7335,-25.6234"/>
</g>
<!-- Node14&#45;&gt;Node1 -->
<g id="edge16" class="edge">
<title>Node14&#45;&gt;Node1</title>
<path fill="none" stroke="#191970" d="M2143.9676,-207.7829C2068.1541,-196.899 1945.0042,-178.1185 1900.5,-165 1898.3257,-164.3591 1896.1077,-163.6225 1893.8941,-162.826"/>
<polygon fill="#191970" stroke="#191970" points="1894.9542,-159.4816 1884.3677,-159.0614 1892.3815,-165.9917 1894.9542,-159.4816"/>
</g>
<!-- Node14&#45;&gt;Node2 -->
<g id="edge17" class="edge">
<title>Node14&#45;&gt;Node2</title>
<path fill="none" stroke="#191970" d="M2143.7644,-213.1264C2020.6266,-206.2359 1738.7087,-189.1332 1502.5,-165 1477.5685,-162.4528 1449.7731,-158.8398 1427.4243,-155.7428"/>
<polygon fill="#191970" stroke="#191970" points="1427.6379,-152.2386 1417.2489,-154.3165 1426.6662,-159.1709 1427.6379,-152.2386"/>
</g>
<!-- Node14&#45;&gt;Node5 -->
<g id="edge21" class="edge">
<title>Node14&#45;&gt;Node5</title>
<path fill="none" stroke="#191970" d="M2267.1909,-206.9654C2283.1942,-204.7209 2300.4698,-202.5374 2316.5,-201 2627.4831,-171.1753 2706.6467,-183.6419 3018.5,-165 3091.2284,-160.6525 3176.9929,-154.5236 3219.2555,-151.437"/>
<polygon fill="#191970" stroke="#191970" points="3219.5487,-154.925 3229.2661,-150.7033 3219.037,-147.9437 3219.5487,-154.925"/>
</g>
<!-- Node14&#45;&gt;Node6 -->
<g id="edge22" class="edge">
<title>Node14&#45;&gt;Node6</title>
<path fill="none" stroke="#191970" d="M2168.0384,-206.8957C2146.4904,-199.3324 2121.4207,-186.3861 2108.5,-165 2101.3753,-153.2074 2101.2566,-145.7201 2108.5,-134 2123.8588,-109.1489 2155.2428,-95.8885 2179.3534,-89.0836"/>
<polygon fill="#191970" stroke="#191970" points="2180.3663,-92.4369 2189.1734,-86.5475 2178.6158,-85.6593 2180.3663,-92.4369"/>
</g>
<!-- Node14&#45;&gt;Node8 -->
<g id="edge24" class="edge">
<title>Node14&#45;&gt;Node8</title>
<path fill="none" stroke="#191970" d="M2149.9756,-206.9515C2113.4444,-199.1971 2065.7583,-186.0252 2027.5,-165 2009.289,-154.992 2011.5931,-142.201 1992.5,-134 1907.4455,-97.4669 1669.5446,-107.8354 1577.5,-98 1468.8026,-86.3851 1442.3506,-77.0784 1333.5,-67 1059.9813,-41.675 987.9564,-73.0146 716.5,-31 707.1637,-29.555 697.1758,-27.318 688.0414,-24.9888"/>
<polygon fill="#191970" stroke="#191970" points="688.7353,-21.5517 678.1712,-22.3573 686.9319,-28.3154 688.7353,-21.5517"/>
</g>
<!-- Node14&#45;&gt;Node11 -->
<g id="edge26" class="edge">
<title>Node14&#45;&gt;Node11</title>
<path fill="none" stroke="#191970" d="M2242.8876,-206.8945C2288.0005,-193.3227 2355.4945,-166.5257 2325.5,-134 2306.5955,-113.5003 1923.3034,-93.3344 1761.544,-85.7016"/>
<polygon fill="#191970" stroke="#191970" points="1761.3688,-82.1896 1751.2157,-85.2171 1761.0407,-89.1819 1761.3688,-82.1896"/>
</g>
<!-- Node14&#45;&gt;Node12 -->
<g id="edge23" class="edge">
<title>Node14&#45;&gt;Node12</title>
<path fill="none" stroke="#191970" d="M2186.6015,-206.8594C2143.4873,-186.0395 2043.9925,-138.3882 2027.5,-134 1852.0106,-87.3068 1787.6428,-168.9935 1620.5,-98 1602.7846,-90.4754 1564.4427,-54.2174 1542.2661,-32.3499"/>
<polygon fill="#191970" stroke="#191970" points="1544.7171,-29.8513 1535.1564,-25.2859 1539.7834,-34.817 1544.7171,-29.8513"/>
</g>
<!-- Node15 -->
<g id="node16" class="node">
<title>Node15</title>
<g id="a_node16"><a xlink:title=" ">
<polygon fill="#ffffff" stroke="#bfbfbf" points="2270,-140 2270,-159 2317,-159 2317,-140 2270,-140"/>
<text text-anchor="middle" x="2293.5" y="-147" font-family="Helvetica,sans-Serif" font-size="10.00" fill="#000000">cmath</text>
</a>
</g>
</g>
<!-- Node14&#45;&gt;Node15 -->
<g id="edge15" class="edge">
<title>Node14&#45;&gt;Node15</title>
<path fill="none" stroke="#191970" d="M2218.965,-206.9005C2233.0487,-196.0544 2256.1888,-178.2339 2272.9539,-165.3229"/>
<polygon fill="#191970" stroke="#191970" points="2275.2708,-167.9562 2281.0581,-159.0817 2270.9997,-162.4102 2275.2708,-167.9562"/>
</g>
<!-- Node16 -->
<g id="node17" class="node">
<title>Node16</title>
<g id="a_node17"><a xlink:title=" ">
<polygon fill="#ffffff" stroke="#bfbfbf" points="2117.5,-140 2117.5,-159 2177.5,-159 2177.5,-140 2117.5,-140"/>
<text text-anchor="middle" x="2147.5" y="-147" font-family="Helvetica,sans-Serif" font-size="10.00" fill="#000000">iostream</text>
</a>
</g>
</g>
<!-- Node14&#45;&gt;Node16 -->
<g id="edge18" class="edge">
<title>Node14&#45;&gt;Node16</title>
<path fill="none" stroke="#191970" d="M2198.0467,-206.9005C2188.8462,-196.4525 2173.9465,-179.5325 2162.7022,-166.7635"/>
<polygon fill="#191970" stroke="#191970" points="2165.1731,-164.2735 2155.9376,-159.0817 2159.9197,-168.8997 2165.1731,-164.2735"/>
</g>
<!-- Node17 -->
<g id="node18" class="node">
<title>Node17</title>
<g id="a_node18"><a xlink:title=" ">
<polygon fill="#ffffff" stroke="#bfbfbf" points="1909.5,-140 1909.5,-159 1947.5,-159 1947.5,-140 1909.5,-140"/>
<text text-anchor="middle" x="1928.5" y="-147" font-family="Helvetica,sans-Serif" font-size="10.00" fill="#000000">map</text>
</a>
</g>
</g>
<!-- Node14&#45;&gt;Node17 -->
<g id="edge19" class="edge">
<title>Node14&#45;&gt;Node17</title>
<path fill="none" stroke="#191970" d="M2159.8345,-206.9806C2091.411,-192.981 1970.9021,-168.1487 1961.5,-165 1959.8494,-164.4472 1958.1727,-163.8344 1956.4944,-163.1807"/>
<polygon fill="#191970" stroke="#191970" points="1957.6076,-159.8499 1947.0376,-159.1249 1954.8485,-166.2832 1957.6076,-159.8499"/>
</g>
<!-- Node18 -->
<g id="node19" class="node">
<title>Node18</title>
<g id="a_node19"><a xlink:title=" ">
<polygon fill="#ffffff" stroke="#bfbfbf" points="2195.5,-140 2195.5,-159 2251.5,-159 2251.5,-140 2195.5,-140"/>
<text text-anchor="middle" x="2223.5" y="-147" font-family="Helvetica,sans-Serif" font-size="10.00" fill="#000000">optional</text>
</a>
</g>
</g>
<!-- Node14&#45;&gt;Node18 -->
<g id="edge20" class="edge">
<title>Node14&#45;&gt;Node18</title>
<path fill="none" stroke="#191970" d="M2208.9357,-206.9005C2211.4352,-197.0495 2215.3945,-181.4451 2218.5545,-168.9912"/>
<polygon fill="#191970" stroke="#191970" points="2222.0019,-169.6353 2221.0688,-159.0817 2215.2169,-167.9137 2222.0019,-169.6353"/>
</g>
<!-- Node19 -->
<g id="node20" class="node">
<title>Node19</title>
<g id="a_node20"><a xlink:title=" ">
<polygon fill="#ffffff" stroke="#bfbfbf" points="1278,-73 1278,-92 1325,-92 1325,-73 1278,-73"/>
<text text-anchor="middle" x="1301.5" y="-80" font-family="Helvetica,sans-Serif" font-size="10.00" fill="#000000">vector</text>
</a>
</g>
</g>
<!-- Node14&#45;&gt;Node19 -->
<g id="edge25" class="edge">
<title>Node14&#45;&gt;Node19</title>
<path fill="none" stroke="#191970" d="M2159.4763,-206.9694C2107.5715,-196.0693 2027.6367,-178.0487 1999.5,-165 1978.1268,-155.0879 1978.6188,-142.1129 1956.5,-134 1927.0743,-123.2071 1465.2385,-92.9774 1335.2865,-84.6484"/>
<polygon fill="#191970" stroke="#191970" points="1335.3336,-81.1444 1325.1306,-83.9988 1334.8867,-88.1301 1335.3336,-81.1444"/>
</g>
<!-- Node20 -->
<g id="node21" class="node">
<title>Node20</title>
<g id="a_node21"><a xlink:href="drake__throw_8h.html" target="_top" xlink:title="Provides a convenient wrapper to throw an exception when a condition is unmet.">
<polygon fill="#ffffff" stroke="#000000" points="1512,-134.5 1512,-164.5 1633,-164.5 1633,-134.5 1512,-134.5"/>
<text text-anchor="start" x="1520" y="-152.5" font-family="Helvetica,sans-Serif" font-size="10.00" fill="#000000">drake/common/drake</text>
<text text-anchor="middle" x="1572.5" y="-141.5" font-family="Helvetica,sans-Serif" font-size="10.00" fill="#000000">_throw.h</text>
</a>
</g>
</g>
<!-- Node14&#45;&gt;Node20 -->
<g id="edge27" class="edge">
<title>Node14&#45;&gt;Node20</title>
<path fill="none" stroke="#191970" d="M2143.6504,-211.2663C2044.8993,-202.8357 1847.4324,-185.1407 1680.5,-165 1668.526,-163.5553 1655.8274,-161.8704 1643.5053,-160.1542"/>
<polygon fill="#191970" stroke="#191970" points="1643.6584,-156.6412 1633.2674,-158.7098 1642.6804,-163.5726 1643.6584,-156.6412"/>
</g>
<!-- Node20&#45;&gt;Node11 -->
<g id="edge29" class="edge">
<title>Node20&#45;&gt;Node11</title>
<path fill="none" stroke="#191970" d="M1598.9815,-134.4639C1615.4148,-125.1332 1636.7427,-113.0232 1654.6747,-102.8415"/>
<polygon fill="#191970" stroke="#191970" points="1656.7308,-105.699 1663.6986,-97.7177 1653.2744,-99.6117 1656.7308,-105.699"/>
</g>
<!-- Node20&#45;&gt;Node12 -->
<g id="edge28" class="edge">
<title>Node20&#45;&gt;Node12</title>
<path fill="none" stroke="#191970" d="M1567.1999,-134.389C1558.5952,-109.8564 1541.6023,-61.4088 1532.1823,-34.5517"/>
<polygon fill="#191970" stroke="#191970" points="1535.4812,-33.3821 1528.8686,-25.1042 1528.8757,-35.699 1535.4812,-33.3821"/>
</g>
<!-- Node21&#45;&gt;Node0 -->
<g id="edge41" class="edge">
<title>Node21&#45;&gt;Node0</title>
<path fill="none" stroke="#191970" d="M2089.0725,-354.5303C2108.3597,-363.12 2135.224,-376.0211 2156.5254,-386.8201"/>
<polygon fill="#191970" stroke="#191970" points="2155.0781,-390.0112 2165.574,-391.4554 2158.2696,-383.781 2155.0781,-390.0112"/>
</g>
<!-- Node22 -->
<g id="node23" class="node">
<title>Node22</title>
<g id="a_node23"><a xlink:href="symbolic__variable_8h.html" target="_top" xlink:title=" ">
<polygon fill="#ffffff" stroke="#000000" points="1933,-268.5 1933,-298.5 2070,-298.5 2070,-268.5 1933,-268.5"/>
<text text-anchor="start" x="1941" y="-286.5" font-family="Helvetica,sans-Serif" font-size="10.00" fill="#000000">drake/common/symbolic</text>
<text text-anchor="middle" x="2001.5" y="-275.5" font-family="Helvetica,sans-Serif" font-size="10.00" fill="#000000">_variable.h</text>
</a>
</g>
</g>
<!-- Node21&#45;&gt;Node22 -->
<g id="edge31" class="edge">
<title>Node21&#45;&gt;Node22</title>
<path fill="none" stroke="#191970" d="M2054.6563,-335.3906C2046.5247,-327.4527 2034.6614,-315.8718 2024.2041,-305.6635"/>
<polygon fill="#191970" stroke="#191970" points="2026.5122,-303.0255 2016.9115,-298.5446 2021.6224,-308.0345 2026.5122,-303.0255"/>
</g>
<!-- Node25 -->
<g id="node26" class="node">
<title>Node25</title>
<g id="a_node26"><a xlink:href="symbolic__environment_8h.html" target="_top" xlink:title=" ">
<polygon fill="#ffffff" stroke="#000000" points="3196,-268.5 3196,-298.5 3333,-298.5 3333,-268.5 3196,-268.5"/>
<text text-anchor="start" x="3204" y="-286.5" font-family="Helvetica,sans-Serif" font-size="10.00" fill="#000000">drake/common/symbolic</text>
<text text-anchor="middle" x="3264.5" y="-275.5" font-family="Helvetica,sans-Serif" font-size="10.00" fill="#000000">_environment.h</text>
</a>
</g>
</g>
<!-- Node21&#45;&gt;Node25 -->
<g id="edge42" class="edge">
<title>Node21&#45;&gt;Node25</title>
<path fill="none" stroke="#191970" d="M2137.5852,-343.3979C2351.6735,-338.6009 2974.5971,-323.1713 3177.5,-299 3180.1712,-298.6818 3182.8877,-298.3222 3185.6309,-297.9294"/>
<polygon fill="#191970" stroke="#191970" points="3186.3027,-301.3672 3195.6484,-296.3765 3185.2302,-294.4498 3186.3027,-301.3672"/>
</g>
<!-- Node29 -->
<g id="node30" class="node">
<title>Node29</title>
<g id="a_node30"><a xlink:href="symbolic__expression_8h.html" target="_top" xlink:title=" ">
<polygon fill="#ffffff" stroke="#000000" points="1183,-268.5 1183,-298.5 1320,-298.5 1320,-268.5 1183,-268.5"/>
<text text-anchor="start" x="1191" y="-286.5" font-family="Helvetica,sans-Serif" font-size="10.00" fill="#000000">drake/common/symbolic</text>
<text text-anchor="middle" x="1251.5" y="-275.5" font-family="Helvetica,sans-Serif" font-size="10.00" fill="#000000">_expression.h</text>
</a>
</g>
</g>
<!-- Node21&#45;&gt;Node29 -->
<g id="edge53" class="edge">
<title>Node21&#45;&gt;Node29</title>
<path fill="none" stroke="#191970" d="M1991.2043,-339.7565C1838.4444,-328.4724 1487.4135,-301.9261 1330.1452,-289.7734"/>
<polygon fill="#191970" stroke="#191970" points="1330.3108,-286.2758 1320.0706,-288.9941 1329.7708,-293.255 1330.3108,-286.2758"/>
</g>
<!-- Node42 -->
<g id="node43" class="node">
<title>Node42</title>
<g id="a_node43"><a xlink:href="symbolic__expression__visitor_8h.html" target="_top" xlink:title=" ">
<polygon fill="#ffffff" stroke="#000000" points="0,-201.5 0,-231.5 137,-231.5 137,-201.5 0,-201.5"/>
<text text-anchor="start" x="8" y="-219.5" font-family="Helvetica,sans-Serif" font-size="10.00" fill="#000000">drake/common/symbolic</text>
<text text-anchor="middle" x="68.5" y="-208.5" font-family="Helvetica,sans-Serif" font-size="10.00" fill="#000000">_expression_visitor.h</text>
</a>
</g>
</g>
<!-- Node21&#45;&gt;Node42 -->
<g id="edge95" class="edge">
<title>Node21&#45;&gt;Node42</title>
<path fill="none" stroke="#191970" d="M1991.4466,-343.7024C1802.8474,-339.9445 1284.7032,-327.4579 854.5,-299 540.7576,-278.2459 459.0149,-276.1513 147.4547,-232.667"/>
<polygon fill="#191970" stroke="#191970" points="147.6117,-229.155 137.2233,-231.2357 146.6419,-236.0875 147.6117,-229.155"/>
</g>
<!-- Node43 -->
<g id="node44" class="node">
<title>Node43</title>
<g id="a_node44"><a xlink:href="symbolic__ldlt_8h.html" target="_top" xlink:title="Eigen::LDLT is specialized for drake::symbolic::Expression, for certain matrix sizes.">
<polygon fill="#ffffff" stroke="#000000" points="3543,-268.5 3543,-298.5 3680,-298.5 3680,-268.5 3543,-268.5"/>
<text text-anchor="start" x="3551" y="-286.5" font-family="Helvetica,sans-Serif" font-size="10.00" fill="#000000">drake/common/symbolic</text>
<text text-anchor="middle" x="3611.5" y="-275.5" font-family="Helvetica,sans-Serif" font-size="10.00" fill="#000000">_ldlt.h</text>
</a>
</g>
</g>
<!-- Node21&#45;&gt;Node43 -->
<g id="edge100" class="edge">
<title>Node21&#45;&gt;Node43</title>
<path fill="none" stroke="#191970" d="M2137.5288,-344.2334C2394.4721,-341.2978 3256.0512,-329.3728 3530.5,-299 3531.2471,-298.9173 3531.9977,-298.8315 3532.7512,-298.7427"/>
<polygon fill="#191970" stroke="#191970" points="3533.2199,-302.2113 3542.677,-297.4349 3532.3054,-295.2713 3533.2199,-302.2113"/>
</g>
<!-- Node44 -->
<g id="node45" class="node">
<title>Node44</title>
<g id="a_node45"><a xlink:href="symbolic__monomial_8h.html" target="_top" xlink:title=" ">
<polygon fill="#ffffff" stroke="#000000" points="2088,-268.5 2088,-298.5 2225,-298.5 2225,-268.5 2088,-268.5"/>
<text text-anchor="start" x="2096" y="-286.5" font-family="Helvetica,sans-Serif" font-size="10.00" fill="#000000">drake/common/symbolic</text>
<text text-anchor="middle" x="2156.5" y="-275.5" font-family="Helvetica,sans-Serif" font-size="10.00" fill="#000000">_monomial.h</text>
</a>
</g>
</g>
<!-- Node21&#45;&gt;Node44 -->
<g id="edge102" class="edge">
<title>Node21&#45;&gt;Node44</title>
<path fill="none" stroke="#191970" d="M2073.8125,-335.3906C2084.7398,-326.9903 2102.964,-314.5103 2119.5935,-303.8945"/>
<polygon fill="#191970" stroke="#191970" points="2121.4967,-306.8322 2128.0972,-298.5446 2117.7691,-300.9073 2121.4967,-306.8322"/>
</g>
<!-- Node45 -->
<g id="node46" class="node">
<title>Node45</title>
<g id="a_node46"><a xlink:href="symbolic__monomial__util_8h.html" target="_top" xlink:title=" ">
<polygon fill="#ffffff" stroke="#000000" points="3384,-268.5 3384,-298.5 3521,-298.5 3521,-268.5 3384,-268.5"/>
<text text-anchor="start" x="3392" y="-286.5" font-family="Helvetica,sans-Serif" font-size="10.00" fill="#000000">drake/common/symbolic</text>
<text text-anchor="middle" x="3452.5" y="-275.5" font-family="Helvetica,sans-Serif" font-size="10.00" fill="#000000">_monomial_util.h</text>
</a>
</g>
</g>
<!-- Node21&#45;&gt;Node45 -->
<g id="edge111" class="edge">
<title>Node21&#45;&gt;Node45</title>
<path fill="none" stroke="#191970" d="M2137.6278,-343.2817C2371.3551,-337.782 3098.2411,-319.7523 3333.5,-299 3346.4361,-297.8589 3360.1774,-296.2457 3373.5691,-294.4877"/>
<polygon fill="#191970" stroke="#191970" points="3374.279,-297.9238 3383.7225,-293.1206 3373.3449,-290.9864 3374.279,-297.9238"/>
</g>
<!-- Node46 -->
<g id="node47" class="node">
<title>Node46</title>
<g id="a_node47"><a xlink:href="symbolic__polynomial_8h.html" target="_top" xlink:title=" ">
<polygon fill="#ffffff" stroke="#000000" points="1584,-268.5 1584,-298.5 1721,-298.5 1721,-268.5 1584,-268.5"/>
<text text-anchor="start" x="1592" y="-286.5" font-family="Helvetica,sans-Serif" font-size="10.00" fill="#000000">drake/common/symbolic</text>
<text text-anchor="middle" x="1652.5" y="-275.5" font-family="Helvetica,sans-Serif" font-size="10.00" fill="#000000">_polynomial.h</text>
</a>
</g>
</g>
<!-- Node21&#45;&gt;Node46 -->
<g id="edge121" class="edge">
<title>Node21&#45;&gt;Node46</title>
<path fill="none" stroke="#191970" d="M1995.5278,-335.4581C1922.4981,-324.8673 1807.5361,-307.7324 1731.0677,-296.0587"/>
<polygon fill="#191970" stroke="#191970" points="1731.4222,-292.5723 1721.008,-294.5205 1730.364,-299.4919 1731.4222,-292.5723"/>
</g>
<!-- Node47 -->
<g id="node48" class="node">
<title>Node47</title>
<g id="a_node48"><a xlink:href="symbolic__rational__function_8h.html" target="_top" xlink:title=" ">
<polygon fill="#ffffff" stroke="#000000" points="1778,-268.5 1778,-298.5 1915,-298.5 1915,-268.5 1778,-268.5"/>
<text text-anchor="start" x="1786" y="-286.5" font-family="Helvetica,sans-Serif" font-size="10.00" fill="#000000">drake/common/symbolic</text>
<text text-anchor="middle" x="1846.5" y="-275.5" font-family="Helvetica,sans-Serif" font-size="10.00" fill="#000000">_rational_function.h</text>
</a>
</g>
</g>
<!-- Node21&#45;&gt;Node47 -->
<g id="edge130" class="edge">
<title>Node21&#45;&gt;Node47</title>
<path fill="none" stroke="#191970" d="M2025.6274,-335.4581C1991.7945,-326.4146 1942.4384,-312.5993 1904.0557,-301.4873"/>
<polygon fill="#191970" stroke="#191970" points="1904.6271,-298.0086 1894.0476,-298.5784 1902.6733,-304.7304 1904.6271,-298.0086"/>
</g>
<!-- Node48 -->
<g id="node49" class="node">
<title>Node48</title>
<g id="a_node49"><a xlink:href="symbolic__formula_8h.html" target="_top" xlink:title=" ">
<polygon fill="#ffffff" stroke="#000000" points="2463,-268.5 2463,-298.5 2600,-298.5 2600,-268.5 2463,-268.5"/>
<text text-anchor="start" x="2471" y="-286.5" font-family="Helvetica,sans-Serif" font-size="10.00" fill="#000000">drake/common/symbolic</text>
<text text-anchor="middle" x="2531.5" y="-275.5" font-family="Helvetica,sans-Serif" font-size="10.00" fill="#000000">_formula.h</text>
</a>
</g>
</g>
<!-- Node21&#45;&gt;Node48 -->
<g id="edge133" class="edge">
<title>Node21&#45;&gt;Node48</title>
<path fill="none" stroke="#191970" d="M2131.9071,-335.4581C2216.8556,-323.9741 2362.4761,-304.7955 2452.5393,-293.2287"/>
<polygon fill="#191970" stroke="#191970" points="2453.2244,-296.6696 2462.6981,-291.9262 2452.3341,-289.7265 2453.2244,-296.6696"/>
</g>
<!-- Node50 -->
<g id="node51" class="node">
<title>Node50</title>
<g id="a_node51"><a xlink:href="symbolic__formula__visitor_8h.html" target="_top" xlink:title=" ">
<polygon fill="#ffffff" stroke="#000000" points="873,-268.5 873,-298.5 1010,-298.5 1010,-268.5 873,-268.5"/>
<text text-anchor="start" x="881" y="-286.5" font-family="Helvetica,sans-Serif" font-size="10.00" fill="#000000">drake/common/symbolic</text>
<text text-anchor="middle" x="941.5" y="-275.5" font-family="Helvetica,sans-Serif" font-size="10.00" fill="#000000">_formula_visitor.h</text>
</a>
</g>
</g>
<!-- Node21&#45;&gt;Node50 -->
<g id="edge150" class="edge">
<title>Node21&#45;&gt;Node50</title>
<path fill="none" stroke="#191970" d="M1991.487,-343.3599C1788.3534,-338.4327 1218.8556,-322.6972 1015.787,-299.7"/>
<polygon fill="#191970" stroke="#191970" points="1016.1594,-296.2198 1005.8193,-298.5292 1015.3427,-303.172 1016.1594,-296.2198"/>
</g>
<!-- Node51 -->
<g id="node52" class="node">
<title>Node51</title>
<g id="a_node52"><a xlink:href="symbolic__simplification_8h.html" target="_top" xlink:title=" ">
<polygon fill="#ffffff" stroke="#000000" points="1028,-268.5 1028,-298.5 1165,-298.5 1165,-268.5 1028,-268.5"/>
<text text-anchor="start" x="1036" y="-286.5" font-family="Helvetica,sans-Serif" font-size="10.00" fill="#000000">drake/common/symbolic</text>
<text text-anchor="middle" x="1096.5" y="-275.5" font-family="Helvetica,sans-Serif" font-size="10.00" fill="#000000">_simplification.h</text>
</a>
</g>
</g>
<!-- Node21&#45;&gt;Node51 -->
<g id="edge154" class="edge">
<title>Node21&#45;&gt;Node51</title>
<path fill="none" stroke="#191970" d="M1991.3027,-342.7551C1809.8997,-336.7917 1342.4899,-319.673 1170.9579,-299.7412"/>
<polygon fill="#191970" stroke="#191970" points="1171.1686,-296.2412 1160.8209,-298.5162 1170.3288,-303.1907 1171.1686,-296.2412"/>
</g>
<!-- Node52 -->
<g id="node53" class="node">
<title>Node52</title>
<g id="a_node53"><a xlink:href="symbolic__codegen_8h.html" target="_top" xlink:title=" ">
<polygon fill="#ffffff" stroke="#000000" points="3041,-268.5 3041,-298.5 3178,-298.5 3178,-268.5 3041,-268.5"/>
<text text-anchor="start" x="3049" y="-286.5" font-family="Helvetica,sans-Serif" font-size="10.00" fill="#000000">drake/common/symbolic</text>
<text text-anchor="middle" x="3109.5" y="-275.5" font-family="Helvetica,sans-Serif" font-size="10.00" fill="#000000">_codegen.h</text>
</a>
</g>
</g>
<!-- Node21&#45;&gt;Node52 -->
<g id="edge158" class="edge">
<title>Node21&#45;&gt;Node52</title>
<path fill="none" stroke="#191970" d="M2137.6031,-340.4778C2327.3685,-329.0728 2834.2359,-299.2434 3030.4499,-287.9341"/>
<polygon fill="#191970" stroke="#191970" points="3030.898,-291.4142 3040.6803,-287.345 3030.4956,-284.4257 3030.898,-291.4142"/>
</g>
<!-- Node22&#45;&gt;Node1 -->
<g id="edge32" class="edge">
<title>Node22&#45;&gt;Node1</title>
<path fill="none" stroke="#191970" d="M2010.2889,-268.2466C2019.28,-250.4015 2030.038,-220.7847 2015.5,-201 1983.787,-157.8418 1950.718,-183.6145 1900.5,-165 1898.6816,-164.326 1896.8218,-163.6099 1894.9525,-162.8695"/>
<polygon fill="#191970" stroke="#191970" points="1896.2526,-159.6198 1885.6733,-159.0469 1893.5863,-166.0921 1896.2526,-159.6198"/>
</g>
<!-- Node22&#45;&gt;Node2 -->
<g id="edge33" class="edge">
<title>Node22&#45;&gt;Node2</title>
<path fill="none" stroke="#191970" d="M1936.6438,-268.4435C1905.2122,-259.891 1867.4474,-247.7209 1835.5,-232 1814.0363,-221.438 1813.9158,-209.3535 1791.5,-201 1640.8246,-144.849 1588.7951,-198.3803 1431.5,-165 1427.639,-164.1806 1423.6503,-163.1563 1419.704,-162.0268"/>
<polygon fill="#191970" stroke="#191970" points="1420.6662,-158.6609 1410.0789,-159.0597 1418.604,-165.3503 1420.6662,-158.6609"/>
</g>
<!-- Node22&#45;&gt;Node4 -->
<g id="edge35" class="edge">
<title>Node22&#45;&gt;Node4</title>
<path fill="none" stroke="#191970" d="M1934.8937,-268.4407C1894.809,-258.9436 1842.9124,-245.88 1797.5,-232 1794.8866,-231.2012 1792.1981,-230.3369 1789.5022,-229.439"/>
<polygon fill="#191970" stroke="#191970" points="1790.4213,-226.0537 1779.8266,-226.0983 1788.1367,-232.6704 1790.4213,-226.0537"/>
</g>
<!-- Node22&#45;&gt;Node6 -->
<g id="edge36" class="edge">
<title>Node22&#45;&gt;Node6</title>
<path fill="none" stroke="#191970" d="M2001.4369,-268.4052C2000.5105,-249.8704 1996.0547,-218.7197 1977.5,-201 1928.2306,-153.9478 1870.6387,-218.5324 1828.5,-165 1819.9781,-154.1739 1819.43,-144.3712 1828.5,-134 1851.5276,-107.6687 2091.2186,-90.0607 2179.2789,-84.438"/>
<polygon fill="#191970" stroke="#191970" points="2179.7186,-87.9174 2189.4795,-83.7973 2179.2797,-80.9312 2179.7186,-87.9174"/>
</g>
<!-- Node22&#45;&gt;Node7 -->
<g id="edge39" class="edge">
<title>Node22&#45;&gt;Node7</title>
<path fill="none" stroke="#191970" d="M2070.2627,-269.1214C2073.0396,-268.711 2075.7933,-268.3343 2078.5,-268 2412.1376,-226.7897 2503.2159,-275.8836 2841.2151,-231.8475"/>
<polygon fill="#191970" stroke="#191970" points="2841.8319,-235.2965 2851.2876,-230.5173 2840.9154,-228.3567 2841.8319,-235.2965"/>
</g>
<!-- Node22&#45;&gt;Node13 -->
<g id="edge38" class="edge">
<title>Node22&#45;&gt;Node13</title>
<path fill="none" stroke="#191970" d="M1980.3903,-268.4219C1956.4847,-251.5087 1916.2087,-223.4992 1880.5,-201 1853.5412,-184.0138 1834.3979,-192.6146 1818.5,-165 1811.6258,-153.0596 1809.7472,-144.6403 1818.5,-134 1885.2689,-52.8328 2206.4265,-26.4122 2350.8623,-18.5465"/>
<polygon fill="#191970" stroke="#191970" points="2351.1497,-22.0363 2360.9503,-18.0117 2350.779,-15.0461 2351.1497,-22.0363"/>
</g>
<!-- Node22&#45;&gt;Node14 -->
<g id="edge40" class="edge">
<title>Node22&#45;&gt;Node14</title>
<path fill="none" stroke="#191970" d="M2047.506,-268.4639C2083.7141,-256.63 2133.6001,-240.3258 2167.7816,-229.1543"/>
<polygon fill="#191970" stroke="#191970" points="2168.9988,-232.4388 2177.4167,-226.0053 2166.8241,-225.7851 2168.9988,-232.4388"/>
</g>
<!-- Node23 -->
<g id="node24" class="node">
<title>Node23</title>
<g id="a_node24"><a xlink:title=" ">
<polygon fill="#ffffff" stroke="#bfbfbf" points="1075.5,-73 1075.5,-92 1133.5,-92 1133.5,-73 1075.5,-73"/>
<text text-anchor="middle" x="1104.5" y="-80" font-family="Helvetica,sans-Serif" font-size="10.00" fill="#000000">memory</text>
</a>
</g>
</g>
<!-- Node22&#45;&gt;Node23 -->
<g id="edge34" class="edge">
<title>Node22&#45;&gt;Node23</title>
<path fill="none" stroke="#191970" d="M1976.9113,-268.4959C1944.1311,-249.2932 1883.7019,-216.6441 1827.5,-201 1673.4434,-158.1175 1619.3311,-220.8836 1469.5,-165 1447.0866,-156.6403 1447.6578,-143.0156 1425.5,-134 1399.764,-123.5285 1223.705,-98.6968 1143.7991,-87.7912"/>
<polygon fill="#191970" stroke="#191970" points="1144.0207,-84.2892 1133.6401,-86.4091 1143.077,-91.2253 1144.0207,-84.2892"/>
</g>
<!-- Node24 -->
<g id="node25" class="node">
<title>Node24</title>
<g id="a_node25"><a xlink:title=" ">
<polygon fill="#ffffff" stroke="#bfbfbf" points="2564,-140 2564,-159 2633,-159 2633,-140 2564,-140"/>
<text text-anchor="middle" x="2598.5" y="-147" font-family="Helvetica,sans-Serif" font-size="10.00" fill="#000000">Eigen/Core</text>
</a>
</g>
</g>
<!-- Node22&#45;&gt;Node24 -->
<g id="edge37" class="edge">
<title>Node22&#45;&gt;Node24</title>
<path fill="none" stroke="#191970" d="M2070.2829,-269.2713C2073.0542,-268.8194 2075.8012,-268.3931 2078.5,-268 2253.3801,-242.5253 2307.8242,-290.7467 2474.5,-232 2516.2346,-217.2902 2557.5849,-185.3786 2580.4137,-165.8378"/>
<polygon fill="#191970" stroke="#191970" points="2582.9925,-168.2323 2588.2184,-159.016 2578.3857,-162.9618 2582.9925,-168.2323"/>
</g>
<!-- Node25&#45;&gt;Node3 -->
<g id="edge43" class="edge">
<title>Node25&#45;&gt;Node3</title>
<path fill="none" stroke="#191970" d="M3333.1698,-273.7922C3347.172,-271.8461 3361.8075,-269.8362 3375.5,-268 3499.8556,-251.3237 3532.5061,-256.7974 3655.5,-232 3660.2559,-231.0411 3665.2013,-229.8955 3670.0971,-228.6671"/>
<polygon fill="#191970" stroke="#191970" points="3671.2193,-231.9911 3680.0003,-226.0628 3669.439,-225.2213 3671.2193,-231.9911"/>
</g>
<!-- Node25&#45;&gt;Node4 -->
<g id="edge44" class="edge">
<title>Node25&#45;&gt;Node4</title>
<path fill="none" stroke="#191970" d="M3195.6921,-269.1987C3192.592,-268.7527 3189.5173,-268.3491 3186.5,-268 2721.7708,-214.2322 2602.0006,-249.5334 2134.5,-232 2009.8661,-227.3257 1862.2678,-221.1104 1793.4517,-218.1732"/>
<polygon fill="#191970" stroke="#191970" points="1793.2395,-214.661 1783.0991,-217.7307 1792.9405,-221.6547 1793.2395,-214.661"/>
</g>
<!-- Node25&#45;&gt;Node6 -->
<g id="edge45" class="edge">
<title>Node25&#45;&gt;Node6</title>
<path fill="none" stroke="#191970" d="M3333.1627,-275.056C3391.2429,-264.8308 3460.8539,-243.4098 3432.5,-201 3389.1953,-136.2279 3346.5305,-151.0319 3270.5,-134 3168.2292,-111.0899 2409.7604,-88.1828 2243.6065,-83.4061"/>
<polygon fill="#191970" stroke="#191970" points="2243.6281,-79.9054 2233.5321,-83.1179 2243.4278,-86.9025 2243.6281,-79.9054"/>
</g>
<!-- Node25&#45;&gt;Node7 -->
<g id="edge48" class="edge">
<title>Node25&#45;&gt;Node7</title>
<path fill="none" stroke="#191970" d="M3195.6046,-269.7664C3192.5282,-269.1667 3189.4824,-268.5756 3186.5,-268 3116.9073,-254.5694 3037.3042,-239.7176 2981.7124,-229.4282"/>
<polygon fill="#191970" stroke="#191970" points="2982.0892,-225.9386 2971.6194,-227.5614 2980.8161,-232.8218 2982.0892,-225.9386"/>
</g>
<!-- Node25&#45;&gt;Node13 -->
<g id="edge47" class="edge">
<title>Node25&#45;&gt;Node13</title>
<path fill="none" stroke="#191970" d="M3333.3664,-273.1713C3379.827,-264.6329 3435.1814,-250.8491 3449.5,-232 3457.8342,-221.0288 3456.015,-213.1401 3449.5,-201 3424.0278,-153.5353 3397.4747,-156.4322 3348.5,-134 3248.2033,-88.0605 3218.1511,-86.1003 3109.5,-67 2992.3782,-46.4105 2643.0363,-26.778 2492.1721,-19.0047"/>
<polygon fill="#191970" stroke="#191970" points="2492.2586,-15.5047 2482.0925,-18.4878 2491.9001,-22.4955 2492.2586,-15.5047"/>
</g>
<!-- Node25&#45;&gt;Node21 -->
<g id="edge52" class="edge">
<title>Node25&#45;&gt;Node21</title>
<path fill="none" stroke="#191970" d="M3199.2279,-298.5334C3197.9774,-298.6972 3196.7339,-298.853 3195.5,-299 2993.2852,-323.0894 2373.8935,-338.4962 2147.9947,-343.3487"/>
<polygon fill="#191970" stroke="#191970" points="2147.7837,-339.8524 2137.8607,-343.565 2147.9331,-346.8508 2147.7837,-339.8524"/>
</g>
<!-- Node26 -->
<g id="node27" class="node">
<title>Node26</title>
<g id="a_node27"><a xlink:title=" ">
<polygon fill="#ffffff" stroke="#bfbfbf" points="3330,-207 3330,-226 3423,-226 3423,-207 3330,-207"/>
<text text-anchor="middle" x="3376.5" y="-214" font-family="Helvetica,sans-Serif" font-size="10.00" fill="#000000">unordered_map</text>
</a>
</g>
</g>
<!-- Node25&#45;&gt;Node26 -->
<g id="edge46" class="edge">
<title>Node25&#45;&gt;Node26</title>
<path fill="none" stroke="#191970" d="M3289.635,-268.4639C3308.1732,-257.3741 3333.274,-242.3584 3351.7262,-231.32"/>
<polygon fill="#191970" stroke="#191970" points="3353.6608,-234.2412 3360.4457,-226.1039 3350.0672,-228.2341 3353.6608,-234.2412"/>
</g>
<!-- Node27 -->
<g id="node28" class="node">
<title>Node27</title>
<g id="a_node28"><a xlink:href="random_8h.html" target="_top" xlink:title=" ">
<polygon fill="#ffffff" stroke="#000000" points="2325.5,-207 2325.5,-226 2465.5,-226 2465.5,-207 2325.5,-207"/>
<text text-anchor="middle" x="2395.5" y="-214" font-family="Helvetica,sans-Serif" font-size="10.00" fill="#000000">drake/common/random.h</text>
</a>
</g>
</g>
<!-- Node25&#45;&gt;Node27 -->
<g id="edge49" class="edge">
<title>Node25&#45;&gt;Node27</title>
<path fill="none" stroke="#191970" d="M3195.6777,-269.3151C3192.5816,-268.8375 3189.5116,-268.3955 3186.5,-268 3050.7965,-250.1772 2648.4244,-228.9589 2475.7165,-220.3819"/>
<polygon fill="#191970" stroke="#191970" points="2475.8336,-216.8835 2465.6727,-219.8845 2475.4873,-223.8749 2475.8336,-216.8835"/>
</g>
<!-- Node27&#45;&gt;Node13 -->
<g id="edge51" class="edge">
<title>Node27&#45;&gt;Node13</title>
<path fill="none" stroke="#191970" d="M2396.754,-206.8054C2400.6243,-176.8853 2412.4682,-85.3224 2418.2527,-40.604"/>
<polygon fill="#191970" stroke="#191970" points="2421.7402,-40.9252 2419.5521,-30.5588 2414.7981,-40.0272 2421.7402,-40.9252"/>
</g>
<!-- Node28 -->
<g id="node29" class="node">
<title>Node28</title>
<g id="a_node29"><a xlink:title=" ">
<polygon fill="#ffffff" stroke="#bfbfbf" points="1689.5,-140 1689.5,-159 1743.5,-159 1743.5,-140 1689.5,-140"/>
<text text-anchor="middle" x="1716.5" y="-147" font-family="Helvetica,sans-Serif" font-size="10.00" fill="#000000">random</text>
</a>
</g>
</g>
<!-- Node27&#45;&gt;Node28 -->
<g id="edge50" class="edge">
<title>Node27&#45;&gt;Node28</title>
<path fill="none" stroke="#191970" d="M2327.5557,-206.9778C2311.1838,-204.8486 2293.7326,-202.7158 2277.5,-201 2078.4131,-179.9568 2027.513,-186.731 1828.5,-165 1803.5132,-162.2716 1775.5019,-158.3948 1753.7429,-155.2009"/>
<polygon fill="#191970" stroke="#191970" points="1754.0097,-151.7023 1743.6041,-153.696 1752.9818,-158.6264 1754.0097,-151.7023"/>
</g>
<!-- Node29&#45;&gt;Node1 -->
<g id="edge55" class="edge">
<title>Node29&#45;&gt;Node1</title>
<path fill="none" stroke="#191970" d="M1242.2911,-268.2631C1232.4956,-249.8749 1220.5574,-219.1683 1237.5,-201 1276.6212,-159.0487 1695.446,-170.9352 1752.5,-165 1777.6682,-162.3818 1805.8879,-158.4703 1827.7045,-155.2318"/>
<polygon fill="#191970" stroke="#191970" points="1828.4905,-158.653 1837.8587,-153.7046 1827.4494,-151.7309 1828.4905,-158.653"/>
</g>
<!-- Node29&#45;&gt;Node2 -->
<g id="edge56" class="edge">
<title>Node29&#45;&gt;Node2</title>
<path fill="none" stroke="#191970" d="M1190.4424,-268.3988C1146.2707,-254.5408 1098.4022,-231.534 1123.5,-201 1150.6423,-167.9787 1274.9813,-155.7853 1341.7737,-151.5641"/>
<polygon fill="#191970" stroke="#191970" points="1342.2028,-155.0448 1351.9757,-150.9531 1341.7843,-148.0573 1342.2028,-155.0448"/>
</g>
<!-- Node29&#45;&gt;Node4 -->
<g id="edge60" class="edge">
<title>Node29&#45;&gt;Node4</title>
<path fill="none" stroke="#191970" d="M1320.1226,-274.3594C1427.352,-260.0764 1631.1303,-232.9329 1715.952,-221.6346"/>
<polygon fill="#191970" stroke="#191970" points="1716.4787,-225.0955 1725.929,-220.3057 1715.5544,-218.1568 1716.4787,-225.0955"/>
</g>
<!-- Node29&#45;&gt;Node6 -->
<g id="edge62" class="edge">
<title>Node29&#45;&gt;Node6</title>
<path fill="none" stroke="#191970" d="M1182.9494,-268.823C1137.0536,-255.7078 1089.1454,-233.5012 1113.5,-201 1177.0911,-116.1378 1238.0187,-152.1408 1342.5,-134 1508.1382,-105.2407 2042.1832,-87.5729 2179.2161,-83.4387"/>
<polygon fill="#191970" stroke="#191970" points="2179.5695,-86.9298 2189.4605,-83.1326 2179.3604,-79.9329 2179.5695,-86.9298"/>
</g>
<!-- Node29&#45;&gt;Node7 -->
<g id="edge78" class="edge">
<title>Node29&#45;&gt;Node7</title>
<path fill="none" stroke="#191970" d="M1320.1637,-279.8154C1385.5397,-276.3996 1486.7035,-271.3536 1574.5,-268 1852.6655,-257.3749 2545.4757,-266.3861 2840.9548,-231.8376"/>
<polygon fill="#191970" stroke="#191970" points="2841.7881,-235.2625 2851.2969,-230.5901 2840.9497,-228.3129 2841.7881,-235.2625"/>
</g>
<!-- Node29&#45;&gt;Node8 -->
<g id="edge65" class="edge">
<title>Node29&#45;&gt;Node8</title>
<path fill="none" stroke="#191970" d="M1182.6898,-269.2184C1179.5904,-268.767 1176.5164,-268.3569 1173.5,-268 1123.0901,-262.0348 295.6797,-268.5942 260.5,-232 205.6471,-174.9416 261.6747,-110.9491 327.5,-67 375.5907,-34.8916 549.7661,-21.479 622.8573,-17.1792"/>
<polygon fill="#191970" stroke="#191970" points="623.0953,-20.6714 632.8807,-16.6098 622.6982,-13.6827 623.0953,-20.6714"/>
</g>
<!-- Node29&#45;&gt;Node11 -->
<g id="edge73" class="edge">
<title>Node29&#45;&gt;Node11</title>
<path fill="none" stroke="#191970" d="M1183.6042,-268.4472C1125.9549,-255.3423 1051.856,-237.5924 1047.5,-232 1020.735,-197.6384 1017.9566,-166.0043 1047.5,-134 1066.6863,-113.2155 1456.1808,-93.1568 1619.4539,-85.6271"/>
<polygon fill="#191970" stroke="#191970" points="1620.0458,-89.1037 1629.875,-85.1494 1619.7251,-82.1111 1620.0458,-89.1037"/>
</g>
<!-- Node29&#45;&gt;Node12 -->
<g id="edge63" class="edge">
<title>Node29&#45;&gt;Node12</title>
<path fill="none" stroke="#191970" d="M1182.6295,-269.6307C1179.5464,-269.0677 1176.4923,-268.5214 1173.5,-268 1120.3706,-258.7418 968.6924,-272.8649 933.5,-232 905.0775,-198.9962 910.6571,-171.0849 933.5,-134 991.1789,-40.3595 1352.0933,-20.6119 1480.3437,-16.5352"/>
<polygon fill="#191970" stroke="#191970" points="1480.7061,-20.026 1490.5965,-16.2272 1480.4959,-13.0291 1480.7061,-20.026"/>
</g>
<!-- Node29&#45;&gt;Node13 -->
<g id="edge74" class="edge">
<title>Node29&#45;&gt;Node13</title>
<path fill="none" stroke="#191970" d="M1182.8935,-268.8479C1117.6499,-254.7566 1029.0405,-235.1394 1026.5,-232 999.0992,-198.1403 996.4743,-166.4776 1025.5,-134 1028.2708,-130.8997 1616.3581,-67.3661 1620.5,-67 1889.8155,-43.1929 2210.9996,-25.8907 2350.7373,-18.9081"/>
<polygon fill="#191970" stroke="#191970" points="2351.0698,-22.396 2360.8835,-18.4033 2350.722,-15.4046 2351.0698,-22.396"/>
</g>
<!-- Node29&#45;&gt;Node14 -->
<g id="edge92" class="edge">
<title>Node29&#45;&gt;Node14</title>
<path fill="none" stroke="#191970" d="M1320.1812,-278.6815C1494.8135,-266.4298 1954.6186,-234.1713 2133.673,-221.6093"/>
<polygon fill="#191970" stroke="#191970" points="2134.0488,-225.0917 2143.7793,-220.9003 2133.5588,-218.1088 2134.0488,-225.0917"/>
</g>
<!-- Node29&#45;&gt;Node17 -->
<g id="edge58" class="edge">
<title>Node29&#45;&gt;Node17</title>
<path fill="none" stroke="#191970" d="M1251.0674,-268.1773C1251.4513,-249.1023 1255.3156,-217.0789 1275.5,-201 1329.8202,-157.7285 1832.6466,-183.8078 1899.5,-165 1901.1624,-164.5323 1902.8368,-163.9588 1904.4972,-163.3108"/>
<polygon fill="#191970" stroke="#191970" points="1906.1054,-166.4225 1913.6724,-159.0068 1903.1326,-160.0851 1906.1054,-166.4225"/>
</g>
<!-- Node29&#45;&gt;Node19 -->
<g id="edge66" class="edge">
<title>Node29&#45;&gt;Node19</title>
<path fill="none" stroke="#191970" d="M1182.6825,-269.2776C1179.5851,-268.8102 1176.5135,-268.3806 1173.5,-268 1101.4068,-258.8958 570.4482,-284.7777 520.5,-232 511.0296,-221.9931 515.2754,-213.7487 520.5,-201 536.3505,-162.3229 548.485,-151.3787 586.5,-134 699.1054,-82.522 1019.0908,-108.0078 1142.5,-98 1185.7158,-94.4954 1235.4429,-89.4911 1267.6137,-86.1255"/>
<polygon fill="#191970" stroke="#191970" points="1268.2375,-89.5793 1277.816,-85.0515 1267.5045,-82.6177 1268.2375,-89.5793"/>
</g>
<!-- Node29&#45;&gt;Node20 -->
<g id="edge75" class="edge">
<title>Node29&#45;&gt;Node20</title>
<path fill="none" stroke="#191970" d="M1214.1879,-268.4195C1180.3378,-252.621 1138.919,-226.587 1161.5,-201 1167.086,-194.6703 1385.7318,-169.9046 1501.7798,-157.164"/>
<polygon fill="#191970" stroke="#191970" points="1502.439,-160.6128 1511.9982,-156.0441 1501.6763,-153.6544 1502.439,-160.6128"/>
</g>
<!-- Node29&#45;&gt;Node21 -->
<g id="edge94" class="edge">
<title>Node29&#45;&gt;Node21</title>
<path fill="none" stroke="#191970" d="M1320.0414,-288.3925C1468.6724,-299.3586 1819.932,-325.9168 1981.1072,-338.3599"/>
<polygon fill="#191970" stroke="#191970" points="1981.2045,-341.8778 1991.4445,-339.1588 1981.7439,-334.8986 1981.2045,-341.8778"/>
</g>
<!-- Node29&#45;&gt;Node23 -->
<g id="edge59" class="edge">
<title>Node29&#45;&gt;Node23</title>
<path fill="none" stroke="#191970" d="M1182.6829,-269.2748C1179.5853,-268.8081 1176.5136,-268.3794 1173.5,-268 1100.4128,-258.798 562.1545,-285.484 511.5,-232 488.7324,-207.9606 522.1285,-144.9717 536.5,-134 557.5302,-117.9449 939.4975,-92.7927 1064.946,-84.9313"/>
<polygon fill="#191970" stroke="#191970" points="1065.4833,-88.4047 1075.2459,-84.2886 1065.0473,-81.4182 1065.4833,-88.4047"/>
</g>
<!-- Node29&#45;&gt;Node24 -->
<g id="edge67" class="edge">
<title>Node29&#45;&gt;Node24</title>
<path fill="none" stroke="#191970" d="M1256.9818,-268.3418C1264.9522,-248.8086 1281.7753,-215.6272 1308.5,-201 1358.093,-173.8563 2269.0245,-167.6025 2325.5,-165 2405.7466,-161.3021 2499.1888,-155.7204 2553.3192,-152.3611"/>
<polygon fill="#191970" stroke="#191970" points="2553.8426,-155.8353 2563.6055,-151.7201 2553.4071,-148.8489 2553.8426,-155.8353"/>
</g>
<!-- Node29&#45;&gt;Node26 -->
<g id="edge64" class="edge">
<title>Node29&#45;&gt;Node26</title>
<path fill="none" stroke="#191970" d="M1320.1587,-279.6791C1385.5312,-276.1657 1486.6925,-271.0527 1574.5,-268 2316.4464,-242.2054 2503.8833,-283.3485 3244.5,-232 3269.2637,-230.2831 3296.5251,-227.2719 3319.8118,-224.3575"/>
<polygon fill="#191970" stroke="#191970" points="3320.3911,-227.812 3329.8677,-223.0745 3319.5051,-220.8683 3320.3911,-227.812"/>
</g>
<!-- Node29&#45;&gt;Node27 -->
<g id="edge93" class="edge">
<title>Node29&#45;&gt;Node27</title>
<path fill="none" stroke="#191970" d="M1320.28,-280.2002C1542.5467,-269.5168 2229.903,-236.3136 2277.5,-232 2291.3265,-230.7469 2306.0239,-229.0839 2320.1825,-227.3124"/>
<polygon fill="#191970" stroke="#191970" points="2320.902,-230.7489 2330.3767,-226.0076 2320.0133,-223.8055 2320.902,-230.7489"/>
</g>
<!-- Node29&#45;&gt;Node28 -->
<g id="edge61" class="edge">
<title>Node29&#45;&gt;Node28</title>
<path fill="none" stroke="#191970" d="M1230.4565,-268.37C1208.6403,-250.9075 1180.2211,-221.913 1199.5,-201 1232.8977,-164.7716 1592.7259,-171.9994 1641.5,-165 1653.817,-163.2324 1667.1517,-160.6858 1679.1139,-158.1658"/>
<polygon fill="#191970" stroke="#191970" points="1680.1803,-161.5161 1689.2127,-155.9785 1678.6984,-154.6747 1680.1803,-161.5161"/>
</g>
<!-- Node30 -->
<g id="node31" class="node">
<title>Node30</title>
<g id="a_node31"><a xlink:title=" ">
<polygon fill="#ffffff" stroke="#bfbfbf" points="1317.5,-207 1317.5,-226 1381.5,-226 1381.5,-207 1317.5,-207"/>
<text text-anchor="middle" x="1349.5" y="-214" font-family="Helvetica,sans-Serif" font-size="10.00" fill="#000000">algorithm</text>
</a>
</g>
</g>
<!-- Node29&#45;&gt;Node30 -->
<g id="edge54" class="edge">
<title>Node29&#45;&gt;Node30</title>
<path fill="none" stroke="#191970" d="M1273.7377,-268.2967C1289.7478,-257.351 1311.2563,-242.6462 1327.2656,-231.701"/>
<polygon fill="#191970" stroke="#191970" points="1329.2443,-234.5881 1335.5241,-226.055 1325.2936,-228.8095 1329.2443,-234.5881"/>
</g>
<!-- Node31 -->
<g id="node32" class="node">
<title>Node31</title>
<g id="a_node32"><a xlink:title=" ">
<polygon fill="#ffffff" stroke="#bfbfbf" points="595.5,-140 595.5,-159 639.5,-159 639.5,-140 595.5,-140"/>
<text text-anchor="middle" x="617.5" y="-147" font-family="Helvetica,sans-Serif" font-size="10.00" fill="#000000">limits</text>
</a>
</g>
</g>
<!-- Node29&#45;&gt;Node31 -->
<g id="edge57" class="edge">
<title>Node29&#45;&gt;Node31</title>
<path fill="none" stroke="#191970" d="M1182.6715,-269.3614C1179.577,-268.8713 1176.5091,-268.414 1173.5,-268 1070.8245,-253.8747 803.6822,-273.0138 708.5,-232 699.7025,-228.2092 658.4221,-189.0947 634.5928,-166.1118"/>
<polygon fill="#191970" stroke="#191970" points="636.8733,-163.4483 627.2527,-159.0104 632.006,-168.4791 636.8733,-163.4483"/>
</g>
<!-- Node32 -->
<g id="node33" class="node">
<title>Node32</title>
<g id="a_node33"><a xlink:title=" ">
<polygon fill="#ffffff" stroke="#bfbfbf" points="1437.5,-207 1437.5,-226 1517.5,-226 1517.5,-207 1437.5,-207"/>
<text text-anchor="middle" x="1477.5" y="-214" font-family="Helvetica,sans-Serif" font-size="10.00" fill="#000000">Eigen/Sparse</text>
</a>
</g>
</g>
<!-- Node29&#45;&gt;Node32 -->
<g id="edge68" class="edge">
<title>Node29&#45;&gt;Node32</title>
<path fill="none" stroke="#191970" d="M1302.2188,-268.4639C1342.4787,-256.5284 1398.0776,-240.0456 1435.7818,-228.8678"/>
<polygon fill="#191970" stroke="#191970" points="1436.8447,-232.2033 1445.4374,-226.0053 1434.855,-225.492 1436.8447,-232.2033"/>
</g>
<!-- Node33 -->
<g id="node34" class="node">
<title>Node33</title>
<g id="a_node34"><a xlink:href="cond_8h.html" target="_top" xlink:title=" ">
<polygon fill="#ffffff" stroke="#000000" points="718,-207 718,-226 843,-226 843,-207 718,-207"/>
<text text-anchor="middle" x="780.5" y="-214" font-family="Helvetica,sans-Serif" font-size="10.00" fill="#000000">drake/common/cond.h</text>
</a>
</g>
</g>
<!-- Node29&#45;&gt;Node33 -->
<g id="edge69" class="edge">
<title>Node29&#45;&gt;Node33</title>
<path fill="none" stroke="#191970" d="M1182.6515,-269.4976C1179.5624,-268.9706 1176.5011,-268.4683 1173.5,-268 1033.8373,-246.206 997.1355,-253.9672 857.5,-232 850.007,-230.8212 842.1349,-229.4229 834.4021,-227.9561"/>
<polygon fill="#191970" stroke="#191970" points="834.8451,-224.4767 824.3605,-226.0011 833.5073,-231.3477 834.8451,-224.4767"/>
</g>
<!-- Node35 -->
<g id="node36" class="node">
<title>Node35</title>
<g id="a_node36"><a xlink:href="dummy__value_8h.html" target="_top" xlink:title=" ">
<polygon fill="#ffffff" stroke="#000000" points="530,-201.5 530,-231.5 661,-231.5 661,-201.5 530,-201.5"/>
<text text-anchor="start" x="538" y="-219.5" font-family="Helvetica,sans-Serif" font-size="10.00" fill="#000000">drake/common/dummy</text>
<text text-anchor="middle" x="595.5" y="-208.5" font-family="Helvetica,sans-Serif" font-size="10.00" fill="#000000">_value.h</text>
</a>
</g>
</g>
<!-- Node29&#45;&gt;Node35 -->
<g id="edge76" class="edge">
<title>Node29&#45;&gt;Node35</title>
<path fill="none" stroke="#191970" d="M1182.6741,-269.3421C1179.5789,-268.8572 1176.5101,-268.4063 1173.5,-268 953.5833,-238.317 895.4871,-261.1569 675.5,-232 674.1983,-231.8275 672.8859,-231.6471 671.5652,-231.4596"/>
<polygon fill="#191970" stroke="#191970" points="671.7326,-227.9448 661.3192,-229.8974 670.6774,-234.8648 671.7326,-227.9448"/>
</g>
<!-- Node36 -->
<g id="node37" class="node">
<title>Node36</title>
<g id="a_node37"><a xlink:href="extract__double_8h.html" target="_top" xlink:title=" ">
<polygon fill="#ffffff" stroke="#000000" points="269.5,-201.5 269.5,-231.5 397.5,-231.5 397.5,-201.5 269.5,-201.5"/>
<text text-anchor="start" x="277.5" y="-219.5" font-family="Helvetica,sans-Serif" font-size="10.00" fill="#000000">drake/common/extract</text>
<text text-anchor="middle" x="333.5" y="-208.5" font-family="Helvetica,sans-Serif" font-size="10.00" fill="#000000">_double.h</text>
</a>
</g>
</g>
<!-- Node29&#45;&gt;Node36 -->
<g id="edge79" class="edge">
<title>Node29&#45;&gt;Node36</title>
<path fill="none" stroke="#191970" d="M1182.6862,-269.2479C1179.5878,-268.7885 1176.515,-268.3687 1173.5,-268 836.9627,-226.8449 748.0373,-273.1551 411.5,-232 410.2281,-231.8445 408.9458,-231.6798 407.6557,-231.5069"/>
<polygon fill="#191970" stroke="#191970" points="408.0539,-228.0279 397.6509,-230.0348 407.0348,-234.9534 408.0539,-228.0279"/>
</g>
<!-- Node33&#45;&gt;Node2 -->
<g id="edge70" class="edge">
<title>Node33&#45;&gt;Node2</title>
<path fill="none" stroke="#191970" d="M843.1268,-207.7231C860.1084,-205.435 878.4981,-203.0406 895.5,-201 1060.261,-181.2247 1256.7605,-161.7868 1341.7959,-153.5765"/>
<polygon fill="#191970" stroke="#191970" points="1342.2257,-157.0513 1351.844,-152.6085 1341.5544,-150.0836 1342.2257,-157.0513"/>
</g>
<!-- Node33&#45;&gt;Node12 -->
<g id="edge71" class="edge">
<title>Node33&#45;&gt;Node12</title>
<path fill="none" stroke="#191970" d="M787.5295,-206.9344C794.7907,-196.8181 806.2019,-180.244 814.5,-165 837.2405,-123.2245 818.7096,-94.525 857.5,-67 908.1684,-31.0465 1339.5443,-19.2341 1480.8715,-16.31"/>
<polygon fill="#191970" stroke="#191970" points="1480.999,-19.8082 1490.9262,-16.1069 1480.8575,-12.8096 1480.999,-19.8082"/>
</g>
<!-- Node34 -->
<g id="node35" class="node">
<title>Node34</title>
<g id="a_node35"><a xlink:href="double__overloads_8h.html" target="_top" xlink:title="Provides necessary operations on double to have it as a ScalarType in drake.">
<polygon fill="#ffffff" stroke="#000000" points="679.5,-134.5 679.5,-164.5 805.5,-164.5 805.5,-134.5 679.5,-134.5"/>
<text text-anchor="start" x="687.5" y="-152.5" font-family="Helvetica,sans-Serif" font-size="10.00" fill="#000000">drake/common/double</text>
<text text-anchor="middle" x="742.5" y="-141.5" font-family="Helvetica,sans-Serif" font-size="10.00" fill="#000000">_overloads.h</text>
</a>
</g>
</g>
<!-- Node33&#45;&gt;Node34 -->
<g id="edge72" class="edge">
<title>Node33&#45;&gt;Node34</title>
<path fill="none" stroke="#191970" d="M775.0555,-206.9005C770.1004,-198.1638 762.5786,-184.9018 756.013,-173.3256"/>
<polygon fill="#191970" stroke="#191970" points="758.9977,-171.4934 751.0198,-164.5218 752.9088,-174.9468 758.9977,-171.4934"/>
</g>
<!-- Node35&#45;&gt;Node31 -->
<g id="edge77" class="edge">
<title>Node35&#45;&gt;Node31</title>
<path fill="none" stroke="#191970" d="M600.4921,-201.2967C603.6536,-191.6685 607.7702,-179.1318 611.1615,-168.8038"/>
<polygon fill="#191970" stroke="#191970" points="614.5681,-169.6478 614.3625,-159.055 607.9175,-167.464 614.5681,-169.6478"/>
</g>
<!-- Node37 -->
<g id="node38" class="node">
<title>Node37</title>
<g id="a_node38"><a xlink:title=" ">
<polygon fill="#ffffff" stroke="#bfbfbf" points="72,-140 72,-159 137,-159 137,-140 72,-140"/>
<text text-anchor="middle" x="104.5" y="-147" font-family="Helvetica,sans-Serif" font-size="10.00" fill="#000000">stdexcept</text>
</a>
</g>
</g>
<!-- Node36&#45;&gt;Node37 -->
<g id="edge80" class="edge">
<title>Node36&#45;&gt;Node37</title>
<path fill="none" stroke="#191970" d="M282.1079,-201.4639C241.3136,-189.5284 184.9767,-173.0456 146.7719,-161.8678"/>
<polygon fill="#191970" stroke="#191970" points="147.5687,-158.4542 136.9882,-159.0053 145.603,-165.1726 147.5687,-158.4542"/>
</g>
<!-- Node38 -->
<g id="node39" class="node">
<title>Node38</title>
<g id="a_node39"><a xlink:href="nice__type__name_8h.html" target="_top" xlink:title=" ">
<polygon fill="#ffffff" stroke="#000000" points="295.5,-134.5 295.5,-164.5 435.5,-164.5 435.5,-134.5 295.5,-134.5"/>
<text text-anchor="start" x="303.5" y="-152.5" font-family="Helvetica,sans-Serif" font-size="10.00" fill="#000000">drake/common/nice_type</text>
<text text-anchor="middle" x="365.5" y="-141.5" font-family="Helvetica,sans-Serif" font-size="10.00" fill="#000000">_name.h</text>
</a>
</g>
</g>
<!-- Node36&#45;&gt;Node38 -->
<g id="edge81" class="edge">
<title>Node36&#45;&gt;Node38</title>
<path fill="none" stroke="#191970" d="M340.7613,-201.2967C344.6481,-193.1586 349.5274,-182.9425 353.9233,-173.7386"/>
<polygon fill="#191970" stroke="#191970" points="357.1159,-175.1752 358.2674,-164.6432 350.7993,-172.1584 357.1159,-175.1752"/>
</g>
<!-- Node38&#45;&gt;Node6 -->
<g id="edge83" class="edge">
<title>Node38&#45;&gt;Node6</title>
<path fill="none" stroke="#191970" d="M435.6271,-143.874C479.0546,-140.5658 535.9862,-136.5456 586.5,-134 1107.4178,-107.7491 1238.1963,-114.9378 1759.5,-98 1916.9505,-92.8842 2105.2336,-86.2667 2179.3117,-83.6436"/>
<polygon fill="#191970" stroke="#191970" points="2179.5256,-87.1383 2189.3954,-83.2862 2179.2776,-80.1427 2179.5256,-87.1383"/>
</g>
<!-- Node38&#45;&gt;Node8 -->
<g id="edge85" class="edge">
<title>Node38&#45;&gt;Node8</title>
<path fill="none" stroke="#191970" d="M398.203,-134.389C454.9372,-108.1738 570.7705,-54.6509 625.5366,-29.3451"/>
<polygon fill="#191970" stroke="#191970" points="627.1052,-32.476 634.7149,-25.1042 624.169,-26.1216 627.1052,-32.476"/>
</g>
<!-- Node38&#45;&gt;Node19 -->
<g id="edge86" class="edge">
<title>Node38&#45;&gt;Node19</title>
<path fill="none" stroke="#191970" d="M435.726,-139.7067C452.6536,-137.5873 470.7021,-135.5267 487.5,-134 777.8537,-107.6102 851.792,-120.1487 1142.5,-98 1185.7323,-94.7062 1235.4558,-89.6552 1267.6213,-86.2213"/>
<polygon fill="#191970" stroke="#191970" points="1268.2536,-89.6736 1277.8217,-85.1237 1267.5046,-82.7138 1268.2536,-89.6736"/>
</g>
<!-- Node38&#45;&gt;Node23 -->
<g id="edge82" class="edge">
<title>Node38&#45;&gt;Node23</title>
<path fill="none" stroke="#191970" d="M435.54,-136.0128C440.256,-135.2786 444.9419,-134.5981 449.5,-134 681.8893,-103.5074 963.2056,-88.7859 1065.1905,-84.1629"/>
<polygon fill="#191970" stroke="#191970" points="1065.5003,-87.6526 1075.3341,-83.7097 1065.1878,-80.6596 1065.5003,-87.6526"/>
</g>
<!-- Node39 -->
<g id="node40" class="node">
<title>Node39</title>
<g id="a_node40"><a xlink:title=" ">
<polygon fill="#ffffff" stroke="#bfbfbf" points="337,-73 337,-92 394,-92 394,-73 337,-73"/>
<text text-anchor="middle" x="365.5" y="-80" font-family="Helvetica,sans-Serif" font-size="10.00" fill="#000000">typeinfo</text>
</a>
</g>
</g>
<!-- Node38&#45;&gt;Node39 -->
<g id="edge84" class="edge">
<title>Node38&#45;&gt;Node39</title>
<path fill="none" stroke="#191970" d="M365.5,-134.2967C365.5,-124.7699 365.5,-112.3954 365.5,-102.1306"/>
<polygon fill="#191970" stroke="#191970" points="369.0001,-102.0549 365.5,-92.055 362.0001,-102.055 369.0001,-102.0549"/>
</g>
<!-- Node40 -->
<g id="node41" class="node">
<title>Node40</title>
<g id="a_node41"><a xlink:href="never__destroyed_8h.html" target="_top" xlink:title=" ">
<polygon fill="#ffffff" stroke="#000000" points="684,-67.5 684,-97.5 805,-97.5 805,-67.5 684,-67.5"/>
<text text-anchor="start" x="692" y="-85.5" font-family="Helvetica,sans-Serif" font-size="10.00" fill="#000000">drake/common/never</text>
<text text-anchor="middle" x="744.5" y="-74.5" font-family="Helvetica,sans-Serif" font-size="10.00" fill="#000000">_destroyed.h</text>
</a>
</g>
</g>
<!-- Node38&#45;&gt;Node40 -->
<g id="edge87" class="edge">
<title>Node38&#45;&gt;Node40</title>
<path fill="none" stroke="#191970" d="M435.6172,-136.5095C440.3145,-135.6553 444.9752,-134.8124 449.5,-134 526.0505,-120.2557 613.8702,-104.9886 673.6485,-94.6718"/>
<polygon fill="#191970" stroke="#191970" points="674.4745,-98.0811 683.7341,-92.9323 673.2847,-91.183 674.4745,-98.0811"/>
</g>
<!-- Node40&#45;&gt;Node8 -->
<g id="edge90" class="edge">
<title>Node40&#45;&gt;Node8</title>
<path fill="none" stroke="#191970" d="M724.3045,-67.2967C710.034,-56.5537 690.9532,-42.1895 676.5052,-31.3129"/>
<polygon fill="#191970" stroke="#191970" points="678.2867,-28.2731 668.1924,-25.055 674.0766,-33.8656 678.2867,-28.2731"/>
</g>
<!-- Node40&#45;&gt;Node12 -->
<g id="edge89" class="edge">
<title>Node40&#45;&gt;Node12</title>
<path fill="none" stroke="#191970" d="M805.3726,-69.2244C810.1401,-68.3974 814.8908,-67.6416 819.5,-67 1067.7169,-32.4492 1368.4632,-20.2647 1480.5528,-16.7371"/>
<polygon fill="#191970" stroke="#191970" points="1480.9153,-20.2278 1490.8031,-16.4223 1480.7004,-13.231 1480.9153,-20.2278"/>
</g>
<!-- Node40&#45;&gt;Node13 -->
<g id="edge91" class="edge">
<title>Node40&#45;&gt;Node13</title>
<path fill="none" stroke="#191970" d="M805.0255,-79.4037C869.737,-76.1361 975.3575,-70.9256 1066.5,-67 1557.7477,-45.8415 2149.3816,-24.9266 2350.5792,-17.9426"/>
<polygon fill="#191970" stroke="#191970" points="2350.8446,-21.4356 2360.7172,-17.591 2350.6019,-14.4398 2350.8446,-21.4356"/>
</g>
<!-- Node41 -->
<g id="node42" class="node">
<title>Node41</title>
<g id="a_node42"><a xlink:title=" ">
<polygon fill="#ffffff" stroke="#bfbfbf" points="726,-6 726,-25 763,-25 763,-6 726,-6"/>
<text text-anchor="middle" x="744.5" y="-13" font-family="Helvetica,sans-Serif" font-size="10.00" fill="#000000">new</text>
</a>
</g>
</g>
<!-- Node40&#45;&gt;Node41 -->
<g id="edge88" class="edge">
<title>Node40&#45;&gt;Node41</title>
<path fill="none" stroke="#191970" d="M744.5,-67.2967C744.5,-57.7699 744.5,-45.3954 744.5,-35.1306"/>
<polygon fill="#191970" stroke="#191970" points="748.0001,-35.0549 744.5,-25.055 741.0001,-35.055 748.0001,-35.0549"/>
</g>
<!-- Node42&#45;&gt;Node8 -->
<g id="edge97" class="edge">
<title>Node42&#45;&gt;Node8</title>
<path fill="none" stroke="#191970" d="M58.6736,-201.3635C48.8511,-184.1504 36.7643,-155.634 48.5,-134 74.5398,-85.9974 100.0023,-85.1745 151.5,-67 239.1397,-36.0703 525.5369,-21.1109 622.8211,-16.8318"/>
<polygon fill="#191970" stroke="#191970" points="623.1042,-20.323 632.9442,-16.3953 622.8026,-13.3295 623.1042,-20.323"/>
</g>
<!-- Node42&#45;&gt;Node11 -->
<g id="edge98" class="edge">
<title>Node42&#45;&gt;Node11</title>
<path fill="none" stroke="#191970" d="M61.4249,-201.4025C53.9099,-182.8649 45.2832,-151.7114 62.5,-134 87.1187,-108.6741 1298.203,-99.2661 1333.5,-98 1432.7738,-94.4392 1547.5295,-89.2687 1619.5602,-85.8953"/>
<polygon fill="#191970" stroke="#191970" points="1620.046,-89.3765 1629.8707,-85.4111 1619.7175,-82.3842 1620.046,-89.3765"/>
</g>
<!-- Node42&#45;&gt;Node21 -->
<g id="edge99" class="edge">
<title>Node42&#45;&gt;Node21</title>
<path fill="none" stroke="#191970" d="M137.1614,-228.3261C145.0445,-229.6746 152.9512,-230.9422 160.5,-232 475.267,-276.108 555.3507,-278.0206 872.5,-299 1288.4933,-326.518 1786.7141,-339.1022 1981.137,-343.3012"/>
<polygon fill="#191970" stroke="#191970" points="1981.2065,-346.8034 1991.2793,-343.5186 1981.3566,-339.805 1981.2065,-346.8034"/>
</g>
<!-- Node42&#45;&gt;Node37 -->
<g id="edge96" class="edge">
<title>Node42&#45;&gt;Node37</title>
<path fill="none" stroke="#191970" d="M76.669,-201.2967C81.9512,-191.4658 88.8628,-178.6026 94.4767,-168.1545"/>
<polygon fill="#191970" stroke="#191970" points="97.7159,-169.5205 99.366,-159.055 91.5496,-166.2073 97.7159,-169.5205"/>
</g>
<!-- Node43&#45;&gt;Node24 -->
<g id="edge101" class="edge">
<title>Node43&#45;&gt;Node24</title>
<path fill="none" stroke="#191970" d="M3680.0496,-270.284C3733.707,-257.0863 3794.3392,-233.9989 3762.5,-201 3723.6688,-160.7544 2812.3,-168.7318 2756.5,-165 2718.3265,-162.447 2675.0974,-158.1055 2643.5183,-154.6657"/>
<polygon fill="#191970" stroke="#191970" points="2643.6028,-151.1539 2633.2796,-153.5376 2642.8361,-158.1118 2643.6028,-151.1539"/>
</g>
<!-- Node44&#45;&gt;Node1 -->
<g id="edge103" class="edge">
<title>Node44&#45;&gt;Node1</title>
<path fill="none" stroke="#191970" d="M2138.0573,-268.2843C2114.9499,-249.9175 2073.5105,-219.2324 2033.5,-201 1977.7748,-175.6065 1958.3249,-185.1595 1900.5,-165 1898.6206,-164.3448 1896.7006,-163.6369 1894.774,-162.897"/>
<polygon fill="#191970" stroke="#191970" points="1895.8235,-159.5457 1885.2414,-159.0258 1893.1896,-166.0313 1895.8235,-159.5457"/>
</g>
<!-- Node44&#45;&gt;Node4 -->
<g id="edge105" class="edge">
<title>Node44&#45;&gt;Node4</title>
<path fill="none" stroke="#191970" d="M2087.6237,-269.6635C2084.5422,-269.0916 2081.49,-268.5345 2078.5,-268 1975.6778,-249.6189 1853.9009,-231.1441 1793.0933,-222.1427"/>
<polygon fill="#191970" stroke="#191970" points="1793.5715,-218.6755 1783.1676,-220.6775 1792.5492,-225.6004 1793.5715,-218.6755"/>
</g>
<!-- Node44&#45;&gt;Node8 -->
<g id="edge106" class="edge">
<title>Node44&#45;&gt;Node8</title>
<path fill="none" stroke="#191970" d="M2115.5169,-268.4957C2062.1642,-249.6049 1965.6639,-217.6178 1880.5,-201 1714.8636,-168.6799 1659.7681,-226.2106 1502.5,-165 1481.211,-156.7141 1482.3972,-143.2295 1461.5,-134 1381.6812,-98.7468 1353.7886,-116.4306 1268.5,-98 1212.1312,-85.8188 1199.4077,-76.3458 1142.5,-67 955.0034,-36.2081 903.8784,-62.5034 716.5,-31 707.1833,-29.4336 697.2018,-27.1572 688.0671,-24.8291"/>
<polygon fill="#191970" stroke="#191970" points="688.7572,-21.3913 678.1943,-22.2137 686.9646,-28.1579 688.7572,-21.3913"/>
</g>
<!-- Node44&#45;&gt;Node13 -->
<g id="edge108" class="edge">
<title>Node44&#45;&gt;Node13</title>
<path fill="none" stroke="#191970" d="M2203.4892,-268.3917C2226.85,-259.6957 2254.8524,-247.4163 2277.5,-232 2349.1407,-183.2341 2394.3148,-85.8531 2412.4285,-40.1975"/>
<polygon fill="#191970" stroke="#191970" points="2415.7318,-41.359 2416.0737,-30.7697 2409.2029,-38.8346 2415.7318,-41.359"/>
</g>
<!-- Node44&#45;&gt;Node14 -->
<g id="edge109" class="edge">
<title>Node44&#45;&gt;Node14</title>
<path fill="none" stroke="#191970" d="M2167.8458,-268.2967C2175.4091,-258.1618 2185.3776,-244.804 2193.2969,-234.1921"/>
<polygon fill="#191970" stroke="#191970" points="2196.1936,-236.1626 2199.3694,-226.055 2190.5835,-231.976 2196.1936,-236.1626"/>
</g>
<!-- Node44&#45;&gt;Node17 -->
<g id="edge104" class="edge">
<title>Node44&#45;&gt;Node17</title>
<path fill="none" stroke="#191970" d="M2148.5332,-268.291C2137.9808,-249.6384 2117.6162,-218.3663 2091.5,-201 2041.5775,-167.8034 2017.7217,-185.8182 1961.5,-165 1959.9085,-164.4107 1958.2883,-163.7748 1956.663,-163.1085"/>
<polygon fill="#191970" stroke="#191970" points="1958.0249,-159.884 1947.4611,-159.0735 1955.2138,-166.2948 1958.0249,-159.884"/>
</g>
<!-- Node44&#45;&gt;Node21 -->
<g id="edge110" class="edge">
<title>Node44&#45;&gt;Node21</title>
<path fill="none" stroke="#191970" d="M2139.8914,-298.5446C2126.6658,-308.1502 2108.1086,-320.5508 2092.631,-330.1236"/>
<polygon fill="#191970" stroke="#191970" points="2090.6766,-327.2154 2083.9375,-335.3906 2094.3039,-333.2023 2090.6766,-327.2154"/>
</g>
<!-- Node44&#45;&gt;Node24 -->
<g id="edge107" class="edge">
<title>Node44&#45;&gt;Node24</title>
<path fill="none" stroke="#191970" d="M2225.0153,-279.6508C2339.0635,-272.6012 2557.9194,-256.0943 2583.5,-232 2600.3408,-216.1378 2602.0533,-188.1771 2600.9303,-169.2514"/>
<polygon fill="#191970" stroke="#191970" points="2604.3956,-168.7099 2600.0046,-159.0679 2597.4243,-169.3437 2604.3956,-168.7099"/>
</g>
<!-- Node45&#45;&gt;Node1 -->
<g id="edge112" class="edge">
<title>Node45&#45;&gt;Node1</title>
<path fill="none" stroke="#191970" d="M3461.4106,-268.4429C3471.0706,-249.947 3482.9309,-218.8364 3465.5,-201 3404.7159,-138.8016 1985.4692,-183.5358 1900.5,-165 1897.849,-164.4217 1895.1504,-163.6475 1892.4834,-162.7524"/>
<polygon fill="#191970" stroke="#191970" points="1893.693,-159.4676 1883.104,-159.1156 1891.1623,-165.9942 1893.693,-159.4676"/>
</g>
<!-- Node45&#45;&gt;Node2 -->
<g id="edge113" class="edge">
<title>Node45&#45;&gt;Node2</title>
<path fill="none" stroke="#191970" d="M3453.8168,-268.4664C3454.5567,-249.3891 3452.5073,-217.0408 3432.5,-201 3390.6652,-167.459 1555.9712,-168.9979 1502.5,-165 1477.5085,-163.1314 1449.71,-159.5541 1427.3744,-156.3066"/>
<polygon fill="#191970" stroke="#191970" points="1427.6121,-152.8036 1417.2064,-154.7966 1426.5838,-159.7276 1427.6121,-152.8036"/>
</g>
<!-- Node45&#45;&gt;Node5 -->
<g id="edge115" class="edge">
<title>Node45&#45;&gt;Node5</title>
<path fill="none" stroke="#191970" d="M3521.3727,-270.3251C3525.8125,-269.5241 3530.2175,-268.7427 3534.5,-268 3638.5648,-249.9532 3833.3852,-279.2972 3762.5,-201 3745.8167,-182.5722 3374.429,-157.6888 3271.6521,-151.1361"/>
<polygon fill="#191970" stroke="#191970" points="3271.7187,-147.6334 3261.5174,-150.494 3271.276,-154.6193 3271.7187,-147.6334"/>
</g>
<!-- Node45&#45;&gt;Node11 -->
<g id="edge118" class="edge">
<title>Node45&#45;&gt;Node11</title>
<path fill="none" stroke="#191970" d="M3521.3616,-270.2599C3525.8042,-269.4749 3530.2127,-268.7148 3534.5,-268 3647.5426,-249.1534 3859.1073,-287.1241 3783.5,-201 3764.5379,-179.4004 3299.1473,-136.332 3270.5,-134 3251.4294,-132.4476 2065.7061,-94.4905 1761.1711,-84.7574"/>
<polygon fill="#191970" stroke="#191970" points="1761.2451,-81.258 1751.1384,-84.4367 1761.0214,-88.2545 1761.2451,-81.258"/>
</g>
<!-- Node45&#45;&gt;Node14 -->
<g id="edge119" class="edge">
<title>Node45&#45;&gt;Node14</title>
<path fill="none" stroke="#191970" d="M3383.9737,-272.7119C3370.2667,-270.8738 3355.9484,-269.1802 3342.5,-268 2887.9662,-228.1126 2771.0338,-271.8874 2316.5,-232 2303.3337,-230.8446 2289.3337,-229.197 2275.8899,-227.4036"/>
<polygon fill="#191970" stroke="#191970" points="2276.1241,-223.9029 2265.7408,-226.0094 2275.1714,-230.8378 2276.1241,-223.9029"/>
</g>
<!-- Node45&#45;&gt;Node17 -->
<g id="edge114" class="edge">
<title>Node45&#45;&gt;Node17</title>
<path fill="none" stroke="#191970" d="M3473.0486,-268.4529C3494.7733,-250.8063 3523.3612,-221.3803 3503.5,-201 3476.4464,-173.2392 2147.2025,-167.1638 2108.5,-165 2055.286,-162.0249 1993.4111,-156.1704 1957.8174,-152.5697"/>
<polygon fill="#191970" stroke="#191970" points="1957.9578,-149.0659 1947.6536,-151.5303 1957.2456,-156.0296 1957.9578,-149.0659"/>
</g>
<!-- Node45&#45;&gt;Node21 -->
<g id="edge120" class="edge">
<title>Node45&#45;&gt;Node21</title>
<path fill="none" stroke="#191970" d="M3383.7069,-295.475C3372.9678,-296.8436 3361.9701,-298.0764 3351.5,-299 3117.1196,-319.6748 2394.7768,-337.6473 2148.0505,-343.2196"/>
<polygon fill="#191970" stroke="#191970" points="2147.6349,-339.728 2137.7161,-343.452 2147.7923,-346.7262 2147.6349,-339.728"/>
</g>
<!-- Node45&#45;&gt;Node24 -->
<g id="edge117" class="edge">
<title>Node45&#45;&gt;Node24</title>
<path fill="none" stroke="#191970" d="M3488.9081,-268.431C3522.9136,-252.326 3565.148,-225.7573 3541.5,-201 3511.3453,-169.4307 2800.0444,-168.1322 2756.5,-165 2718.3398,-162.2551 2675.1096,-157.9298 2643.5267,-154.545"/>
<polygon fill="#191970" stroke="#191970" points="2643.6052,-151.0331 2633.2866,-153.4368 2642.852,-157.9925 2643.6052,-151.0331"/>
</g>
<!-- Node45&#45;&gt;Node26 -->
<g id="edge116" class="edge">
<title>Node45&#45;&gt;Node26</title>
<path fill="none" stroke="#191970" d="M3435.2544,-268.2967C3423.2983,-257.7564 3407.3881,-243.7303 3395.1396,-232.9323"/>
<polygon fill="#191970" stroke="#191970" points="3397.1543,-230.0425 3387.3385,-226.055 3392.5252,-235.2934 3397.1543,-230.0425"/>
</g>
<!-- Node46&#45;&gt;Node2 -->
<g id="edge123" class="edge">
<title>Node46&#45;&gt;Node2</title>
<path fill="none" stroke="#191970" d="M1632.4272,-268.2409C1608.2727,-250.3903 1566.0198,-220.7684 1526.5,-201 1507.9562,-191.7241 1458.1399,-174.2574 1422.7612,-162.2582"/>
<polygon fill="#191970" stroke="#191970" points="1423.7977,-158.9141 1413.2035,-159.0301 1421.5577,-165.546 1423.7977,-158.9141"/>
</g>
<!-- Node46&#45;&gt;Node4 -->
<g id="edge125" class="edge">
<title>Node46&#45;&gt;Node4</title>
<path fill="none" stroke="#191970" d="M1675.3908,-268.4639C1692.0425,-257.526 1714.5083,-242.769 1731.2442,-231.7759"/>
<polygon fill="#191970" stroke="#191970" points="1733.4425,-234.5195 1739.8791,-226.1039 1729.5994,-228.6688 1733.4425,-234.5195"/>
</g>
<!-- Node46&#45;&gt;Node8 -->
<g id="edge126" class="edge">
<title>Node46&#45;&gt;Node8</title>
<path fill="none" stroke="#191970" d="M1583.8722,-276.0012C1538.0804,-269.0431 1477.513,-255.9874 1428.5,-232 1408.9229,-222.4188 1410.4582,-209.7597 1390.5,-201 1353.7011,-184.849 704.0777,-125.2061 674.5,-98 657.3089,-82.1873 654.1395,-54.2147 654.208,-35.2728"/>
<polygon fill="#191970" stroke="#191970" points="657.7127,-35.1932 654.5566,-25.0794 650.7168,-34.9539 657.7127,-35.1932"/>
</g>
<!-- Node46&#45;&gt;Node13 -->
<g id="edge128" class="edge">
<title>Node46&#45;&gt;Node13</title>
<path fill="none" stroke="#191970" d="M1650.4202,-268.3907C1647.211,-238.3974 1644.7376,-171.047 1680.5,-134 1696.0471,-117.8945 1848.6355,-71.8 1870.5,-67 1960.2686,-47.2927 2223.6043,-28.2779 2350.9429,-19.9274"/>
<polygon fill="#191970" stroke="#191970" points="2351.232,-23.4161 2360.983,-19.2726 2350.7764,-16.4309 2351.232,-23.4161"/>
</g>
<!-- Node46&#45;&gt;Node17 -->
<g id="edge124" class="edge">
<title>Node46&#45;&gt;Node17</title>
<path fill="none" stroke="#191970" d="M1653.7157,-268.409C1656.086,-249.5787 1663.0556,-217.8136 1683.5,-201 1758.6689,-139.1806 1807.3643,-196.353 1899.5,-165 1900.7464,-164.5759 1902.0036,-164.1024 1903.2595,-163.5918"/>
<polygon fill="#191970" stroke="#191970" points="1905.1101,-166.5888 1912.662,-159.1578 1902.1243,-160.2575 1905.1101,-166.5888"/>
</g>
<!-- Node46&#45;&gt;Node21 -->
<g id="edge129" class="edge">
<title>Node46&#45;&gt;Node21</title>
<path fill="none" stroke="#191970" d="M1721.2777,-293.0137C1797.4579,-304.0605 1919.4377,-322.2545 1995.6466,-333.9266"/>
<polygon fill="#191970" stroke="#191970" points="1995.2111,-337.4007 2005.6263,-335.4581 1996.273,-330.4817 1995.2111,-337.4007"/>
</g>
<!-- Node46&#45;&gt;Node24 -->
<g id="edge127" class="edge">
<title>Node46&#45;&gt;Node24</title>
<path fill="none" stroke="#191970" d="M1662.0231,-268.3741C1676.0014,-246.7198 1701.9841,-208.6435 1716.5,-201 1718.843,-199.7663 2374.2959,-162.2911 2553.615,-152.0592"/>
<polygon fill="#191970" stroke="#191970" points="2553.9711,-155.5447 2563.7555,-151.4807 2553.5723,-148.5561 2553.9711,-155.5447"/>
</g>
<!-- Node46&#45;&gt;Node30 -->
<g id="edge122" class="edge">
<title>Node46&#45;&gt;Node30</title>
<path fill="none" stroke="#191970" d="M1583.7736,-272.181C1531.6956,-263.0134 1458.5817,-248.8749 1395.5,-232 1392.325,-231.1507 1389.0498,-230.2004 1385.7786,-229.1996"/>
<polygon fill="#191970" stroke="#191970" points="1386.6722,-225.8108 1376.0812,-226.0963 1384.5386,-232.4777 1386.6722,-225.8108"/>
</g>
<!-- Node47&#45;&gt;Node4 -->
<g id="edge131" class="edge">
<title>Node47&#45;&gt;Node4</title>
<path fill="none" stroke="#191970" d="M1825.6238,-268.2967C1810.7331,-257.4524 1790.7757,-242.9182 1775.7919,-232.006"/>
<polygon fill="#191970" stroke="#191970" points="1777.7643,-229.1127 1767.6203,-226.055 1773.6434,-234.7712 1777.7643,-229.1127"/>
</g>
<!-- Node47&#45;&gt;Node21 -->
<g id="edge132" class="edge">
<title>Node47&#45;&gt;Node21</title>
<path fill="none" stroke="#191970" d="M1905.7259,-298.5446C1943.8792,-308.9582 1992.3243,-322.6567 2025.6657,-332.4758"/>
<polygon fill="#191970" stroke="#191970" points="2024.9176,-335.9045 2035.5,-335.3906 2026.9069,-329.1931 2024.9176,-335.9045"/>
</g>
<!-- Node48&#45;&gt;Node2 -->
<g id="edge134" class="edge">
<title>Node48&#45;&gt;Node2</title>
<path fill="none" stroke="#191970" d="M2462.5668,-275.275C2336.5255,-260.2688 2060.4186,-227.5474 1827.5,-201 1683.107,-184.5425 1646.7747,-182.4644 1502.5,-165 1477.5318,-161.9776 1449.6298,-158.3251 1427.2288,-155.3251"/>
<polygon fill="#191970" stroke="#191970" points="1427.4105,-151.8181 1417.0332,-153.9539 1426.4774,-158.7556 1427.4105,-151.8181"/>
</g>
<!-- Node48&#45;&gt;Node4 -->
<g id="edge136" class="edge">
<title>Node48&#45;&gt;Node4</title>
<path fill="none" stroke="#191970" d="M2462.7159,-279.285C2342.8666,-271.6799 2088.0458,-254.3536 1873.5,-232 1846.7248,-229.2103 1816.6626,-225.288 1793.4525,-222.0871"/>
<polygon fill="#191970" stroke="#191970" points="1793.6942,-218.5871 1783.3069,-220.6739 1792.7284,-225.5202 1793.6942,-218.5871"/>
</g>
<!-- Node48&#45;&gt;Node5 -->
<g id="edge137" class="edge">
<title>Node48&#45;&gt;Node5</title>
<path fill="none" stroke="#191970" d="M2600.2401,-279.2852C2721.3619,-271.4274 2967.8945,-253.3839 3051.5,-232 3114.9714,-215.7659 3184.5321,-181.8981 3220.6335,-162.9941"/>
<polygon fill="#191970" stroke="#191970" points="3222.2829,-166.0812 3229.482,-158.3079 3219.0067,-159.8951 3222.2829,-166.0812"/>
</g>
<!-- Node48&#45;&gt;Node6 -->
<g id="edge138" class="edge">
<title>Node48&#45;&gt;Node6</title>
<path fill="none" stroke="#191970" d="M2530.6067,-268.1377C2527.897,-237.0654 2517.0166,-166.92 2473.5,-134 2437.591,-106.8351 2305.3125,-91.2423 2243.599,-85.3013"/>
<polygon fill="#191970" stroke="#191970" points="2243.9122,-81.8154 2233.6292,-84.3668 2243.2589,-88.7849 2243.9122,-81.8154"/>
</g>
<!-- Node48&#45;&gt;Node7 -->
<g id="edge146" class="edge">
<title>Node48&#45;&gt;Node7</title>
<path fill="none" stroke="#191970" d="M2600.0264,-273.1893C2660.6932,-263.8159 2751.8678,-249.1324 2841.1788,-231.9999"/>
<polygon fill="#191970" stroke="#191970" points="2842.058,-235.3949 2851.2134,-230.063 2840.7313,-228.5218 2842.058,-235.3949"/>
</g>
<!-- Node48&#45;&gt;Node8 -->
<g id="edge139" class="edge">
<title>Node48&#45;&gt;Node8</title>
<path fill="none" stroke="#191970" d="M2533.0012,-268.1945C2533.9281,-257.9602 2535.0274,-244.1872 2535.5,-232 2537.2864,-185.9322 2537.43,-162.8872 2501.5,-134 2455.1675,-96.7493 2301.382,-75.1994 2242.5,-67 1570.5725,26.5673 1388.6274,-123.1205 716.5,-31 707.1401,-29.7171 697.1445,-27.5328 688.0102,-25.2022"/>
<polygon fill="#191970" stroke="#191970" points="688.709,-21.7658 678.1432,-22.549 686.8913,-28.5257 688.709,-21.7658"/>
</g>
<!-- Node48&#45;&gt;Node11 -->
<g id="edge141" class="edge">
<title>Node48&#45;&gt;Node11</title>
<path fill="none" stroke="#191970" d="M2600.377,-279.0323C2718.3664,-270.8758 2949.5001,-252.5117 2980.5,-232 3019.4591,-206.2219 3050.8864,-167.6667 3018.5,-134 3013.0003,-128.2829 2035.7874,-94.3443 1761.4024,-84.9239"/>
<polygon fill="#191970" stroke="#191970" points="1761.2842,-81.4179 1751.17,-84.5728 1761.0441,-88.4138 1761.2842,-81.4179"/>
</g>
<!-- Node48&#45;&gt;Node13 -->
<g id="edge145" class="edge">
<title>Node48&#45;&gt;Node13</title>
<path fill="none" stroke="#191970" d="M2600.2273,-280.1537C2725.4342,-273.4769 2980.7797,-256.9629 3012.5,-232 3047.7391,-204.2679 3058.1388,-173.2763 3036.5,-134 3009.6061,-85.1851 2983.185,-85.1787 2930.5,-67 2851.3637,-39.6944 2612.7852,-24.6779 2492.4842,-18.6577"/>
<polygon fill="#191970" stroke="#191970" points="2492.434,-15.1511 2482.2737,-18.1542 2492.0891,-22.1426 2492.434,-15.1511"/>
</g>
<!-- Node48&#45;&gt;Node14 -->
<g id="edge147" class="edge">
<title>Node48&#45;&gt;Node14</title>
<path fill="none" stroke="#191970" d="M2462.973,-269.3729C2403.5392,-257.1204 2318.5523,-239.6 2262.9587,-228.1392"/>
<polygon fill="#191970" stroke="#191970" points="2263.4338,-224.6636 2252.933,-226.0723 2262.0203,-231.5194 2263.4338,-224.6636"/>
</g>
<!-- Node48&#45;&gt;Node21 -->
<g id="edge149" class="edge">
<title>Node48&#45;&gt;Node21</title>
<path fill="none" stroke="#191970" d="M2462.8951,-293.2038C2379.1258,-304.5238 2237.6582,-323.1586 2147.7497,-334.7201"/>
<polygon fill="#191970" stroke="#191970" points="2147.0635,-331.2794 2137.5906,-336.0245 2147.955,-338.2224 2147.0635,-331.2794"/>
</g>
<!-- Node48&#45;&gt;Node23 -->
<g id="edge135" class="edge">
<title>Node48&#45;&gt;Node23</title>
<path fill="none" stroke="#191970" d="M2524.2236,-268.2359C2514.9159,-250.105 2497.2424,-219.9385 2474.5,-201 2418.7037,-154.5363 2396.225,-150.4338 2325.5,-134 2096.5738,-80.8063 1503.0418,-113.0639 1268.5,-98 1225.8785,-95.2626 1177.1747,-90.4443 1143.9888,-86.9044"/>
<polygon fill="#191970" stroke="#191970" points="1144.1044,-83.3967 1133.7868,-85.8043 1143.3539,-90.3563 1144.1044,-83.3967"/>
</g>
<!-- Node48&#45;&gt;Node24 -->
<g id="edge140" class="edge">
<title>Node48&#45;&gt;Node24</title>
<path fill="none" stroke="#191970" d="M2600.2194,-271.8814C2622.9506,-264.4131 2645.8899,-252.1463 2659.5,-232 2675.6808,-208.0484 2646.8398,-181.3137 2623.5513,-164.9475"/>
<polygon fill="#191970" stroke="#191970" points="2625.2568,-161.877 2615.0031,-159.2101 2621.3557,-167.6892 2625.2568,-161.877"/>
</g>
<!-- Node48&#45;&gt;Node27 -->
<g id="edge148" class="edge">
<title>Node48&#45;&gt;Node27</title>
<path fill="none" stroke="#191970" d="M2500.9789,-268.4639C2477.9543,-257.1209 2446.5928,-241.6707 2424.0606,-230.5703"/>
<polygon fill="#191970" stroke="#191970" points="2425.5118,-227.3836 2414.9945,-226.1039 2422.4183,-233.6629 2425.5118,-227.3836"/>
</g>
<!-- Node49 -->
<g id="node50" class="node">
<title>Node49</title>
<g id="a_node50"><a xlink:href="drake__bool_8h.html" target="_top" xlink:title=" ">
<polygon fill="#ffffff" stroke="#000000" points="2712,-201.5 2712,-231.5 2833,-231.5 2833,-201.5 2712,-201.5"/>
<text text-anchor="start" x="2720" y="-219.5" font-family="Helvetica,sans-Serif" font-size="10.00" fill="#000000">drake/common/drake</text>
<text text-anchor="middle" x="2772.5" y="-208.5" font-family="Helvetica,sans-Serif" font-size="10.00" fill="#000000">_bool.h</text>
</a>
</g>
</g>
<!-- Node48&#45;&gt;Node49 -->
<g id="edge142" class="edge">
<title>Node48&#45;&gt;Node49</title>
<path fill="none" stroke="#191970" d="M2585.5851,-268.4639C2621.8926,-258.3701 2669.8987,-245.024 2708.1681,-234.3848"/>
<polygon fill="#191970" stroke="#191970" points="2709.4819,-237.6524 2718.179,-231.6017 2707.6069,-230.9081 2709.4819,-237.6524"/>
</g>
<!-- Node49&#45;&gt;Node12 -->
<g id="edge143" class="edge">
<title>Node49&#45;&gt;Node12</title>
<path fill="none" stroke="#191970" d="M2752.0889,-201.3884C2727.0662,-183.4077 2682.8737,-153.3889 2641.5,-134 2554.3217,-93.1457 2530.1248,-84.7563 2435.5,-67 2266.7454,-35.3333 1730.164,-20.3464 1570.6455,-16.5161"/>
<polygon fill="#191970" stroke="#191970" points="1570.3361,-13.0079 1560.2559,-16.2697 1570.1701,-20.006 1570.3361,-13.0079"/>
</g>
<!-- Node49&#45;&gt;Node24 -->
<g id="edge144" class="edge">
<title>Node49&#45;&gt;Node24</title>
<path fill="none" stroke="#191970" d="M2733.451,-201.4639C2703.2458,-189.8332 2661.8264,-173.8843 2632.8693,-162.7342"/>
<polygon fill="#191970" stroke="#191970" points="2633.7752,-159.3325 2623.1854,-159.0053 2631.2597,-165.865 2633.7752,-159.3325"/>
</g>
<!-- Node50&#45;&gt;Node8 -->
<g id="edge151" class="edge">
<title>Node50&#45;&gt;Node8</title>
<path fill="none" stroke="#191970" d="M872.7139,-279.403C688.1146,-268.3293 195.3055,-238.2167 189.5,-232 139.4483,-178.4033 140.5763,-121.6283 189.5,-67 218.3817,-34.7506 521.0972,-20.5348 622.5621,-16.6518"/>
<polygon fill="#191970" stroke="#191970" points="622.9665,-20.1392 632.8288,-16.2681 622.705,-13.1441 622.9665,-20.1392"/>
</g>
<!-- Node50&#45;&gt;Node11 -->
<g id="edge152" class="edge">
<title>Node50&#45;&gt;Node11</title>
<path fill="none" stroke="#191970" d="M872.5702,-279.989C759.1591,-273.5001 543.4076,-257.8806 520.5,-232 511.3682,-221.6831 515.2754,-213.7487 520.5,-201 536.3505,-162.3229 548.3298,-151.0351 586.5,-134 592.4243,-131.356 1377.1405,-96.3851 1619.8203,-85.6271"/>
<polygon fill="#191970" stroke="#191970" points="1620.1029,-89.1181 1629.9381,-85.1787 1619.7929,-82.1249 1620.1029,-89.1181"/>
</g>
<!-- Node50&#45;&gt;Node21 -->
<g id="edge153" class="edge">
<title>Node50&#45;&gt;Node21</title>
<path fill="none" stroke="#191970" d="M1010.0044,-296.4325C1015.9226,-297.4242 1021.8149,-298.307 1027.5,-299 1211.909,-321.4785 1768.68,-337.387 1981.045,-342.8867"/>
<polygon fill="#191970" stroke="#191970" points="1981.1116,-346.3895 1991.1985,-343.1485 1981.2921,-339.3918 1981.1116,-346.3895"/>
</g>
<!-- Node51&#45;&gt;Node2 -->
<g id="edge155" class="edge">
<title>Node51&#45;&gt;Node2</title>
<path fill="none" stroke="#191970" d="M1095.0009,-268.3821C1094.0643,-249.8235 1095.5776,-218.6482 1113.5,-201 1145.1622,-169.8223 1273.3229,-156.7839 1341.4427,-151.9696"/>
<polygon fill="#191970" stroke="#191970" points="1342.0953,-155.4336 1351.836,-151.2661 1341.6224,-148.4495 1342.0953,-155.4336"/>
</g>
<!-- Node51&#45;&gt;Node8 -->
<g id="edge156" class="edge">
<title>Node51&#45;&gt;Node8</title>
<path fill="none" stroke="#191970" d="M1027.687,-269.2414C1024.5884,-268.7837 1021.5153,-268.3661 1018.5,-268 974.8308,-262.698 257.8902,-263.8048 227.5,-232 176.838,-178.9798 178.8414,-121.8645 227.5,-67 253.6795,-37.4815 527.136,-21.6494 622.7307,-16.9849"/>
<polygon fill="#191970" stroke="#191970" points="623.1451,-20.4692 632.9664,-16.4953 622.8105,-13.4772 623.1451,-20.4692"/>
</g>
<!-- Node51&#45;&gt;Node21 -->
<g id="edge157" class="edge">
<title>Node51&#45;&gt;Node21</title>
<path fill="none" stroke="#191970" d="M1165.0101,-296.387C1170.9271,-297.3879 1176.8176,-298.2853 1182.5,-299 1335.9529,-318.2997 1792.1914,-335.481 1981.1685,-342.1045"/>
<polygon fill="#191970" stroke="#191970" points="1981.2083,-345.6079 1991.3244,-342.4593 1981.4527,-338.6122 1981.2083,-345.6079"/>
</g>
<!-- Node52&#45;&gt;Node6 -->
<g id="edge160" class="edge">
<title>Node52&#45;&gt;Node6</title>
<path fill="none" stroke="#191970" d="M3112.9181,-268.4668C3118.8565,-238.0016 3127.1167,-168.9172 3089.5,-134 3057.909,-104.6761 2398.8062,-87.0117 2243.8928,-83.2554"/>
<polygon fill="#191970" stroke="#191970" points="2243.7071,-79.75 2233.626,-83.009 2243.5391,-86.748 2243.7071,-79.75"/>
</g>
<!-- Node52&#45;&gt;Node13 -->
<g id="edge165" class="edge">
<title>Node52&#45;&gt;Node13</title>
<path fill="none" stroke="#191970" d="M3175.764,-268.4048C3211.2712,-258.9428 3250.0327,-245.9275 3261.5,-232 3289.3017,-198.2339 3297.6861,-168.2637 3270.5,-134 3222.1933,-73.1173 2687.4544,-32.6936 2492.2709,-19.877"/>
<polygon fill="#191970" stroke="#191970" points="2492.3312,-16.3736 2482.1247,-19.2156 2491.8758,-23.3588 2492.3312,-16.3736"/>
</g>
<!-- Node52&#45;&gt;Node19 -->
<g id="edge162" class="edge">
<title>Node52&#45;&gt;Node19</title>
<path fill="none" stroke="#191970" d="M3105.4817,-268.1175C3096.2651,-236.3567 3070.3007,-163.9955 3018.5,-134 2951.2661,-95.0679 1698.1388,-100.8855 1620.5,-98 1516.436,-94.1324 1393.3697,-87.5972 1335.192,-84.3901"/>
<polygon fill="#191970" stroke="#191970" points="1335.2815,-80.8898 1325.1033,-83.8314 1334.8944,-87.8791 1335.2815,-80.8898"/>
</g>
<!-- Node52&#45;&gt;Node21 -->
<g id="edge166" class="edge">
<title>Node52&#45;&gt;Node21</title>
<path fill="none" stroke="#191970" d="M3040.7665,-287.7595C2855.9355,-298.8778 2348.9956,-328.7151 2148.0673,-340.3055"/>
<polygon fill="#191970" stroke="#191970" points="2147.6496,-336.8236 2137.8675,-340.8933 2148.0524,-343.812 2147.6496,-336.8236"/>
</g>
<!-- Node52&#45;&gt;Node24 -->
<g id="edge163" class="edge">
<title>Node52&#45;&gt;Node24</title>
<path fill="none" stroke="#191970" d="M3173.7203,-268.4457C3221.0313,-254.4763 3272.635,-231.287 3244.5,-201 3207.4961,-161.1658 2810.67,-169.6545 2756.5,-165 2718.3817,-161.7248 2675.1479,-157.4443 2643.553,-154.2116"/>
<polygon fill="#191970" stroke="#191970" points="2643.6141,-150.6995 2633.3086,-153.1584 2642.8982,-157.6628 2643.6141,-150.6995"/>
</g>
<!-- Node52&#45;&gt;Node26 -->
<g id="edge161" class="edge">
<title>Node52&#45;&gt;Node26</title>
<path fill="none" stroke="#191970" d="M3169.9085,-268.4629C3210.9738,-258.2248 3266.5272,-244.3435 3315.5,-232 3319.9104,-230.8884 3324.4992,-229.7285 3329.0919,-228.5653"/>
<polygon fill="#191970" stroke="#191970" points="3330.2515,-231.8821 3339.0844,-226.0315 3328.5309,-225.0969 3330.2515,-231.8821"/>
</g>
<!-- Node52&#45;&gt;Node32 -->
<g id="edge164" class="edge">
<title>Node52&#45;&gt;Node32</title>
<path fill="none" stroke="#191970" d="M3040.62,-281.2078C2797.3001,-273.0709 1978.7365,-245.3484 1716.5,-232 1651.3112,-228.6817 1576.2011,-223.6047 1527.85,-220.1736"/>
<polygon fill="#191970" stroke="#191970" points="1527.8771,-216.6667 1517.6534,-219.4462 1527.3789,-223.649 1527.8771,-216.6667"/>
</g>
<!-- Node53 -->
<g id="node54" class="node">
<title>Node53</title>
<g id="a_node54"><a xlink:title=" ">
<polygon fill="#ffffff" stroke="#bfbfbf" points="3179.5,-207 3179.5,-226 3235.5,-226 3235.5,-207 3179.5,-207"/>
<text text-anchor="middle" x="3207.5" y="-214" font-family="Helvetica,sans-Serif" font-size="10.00" fill="#000000">sstream</text>
</a>
</g>
</g>
<!-- Node52&#45;&gt;Node53 -->
<g id="edge159" class="edge">
<title>Node52&#45;&gt;Node53</title>
<path fill="none" stroke="#191970" d="M3131.7377,-268.2967C3147.7478,-257.351 3169.2563,-242.6462 3185.2656,-231.701"/>
<polygon fill="#191970" stroke="#191970" points="3187.2443,-234.5881 3193.5241,-226.055 3183.2936,-228.8095 3187.2443,-234.5881"/>
</g>
</g>
</svg>
        <g id="navigator" transform="translate(0 0)" fill="#404254">
                <rect fill="#f2f5e9" fill-opacity="0.5" stroke="#606060" stroke-width=".5" x="0" y="0" width="60" height="60"/>
                <use id="zoomplus" xlink:href="#zoomPlus" x="17" y="9" onmousedown="handleZoom(evt,'in')"/>
                <use id="zoomminus" xlink:href="#zoomMin" x="42" y="9" onmousedown="handleZoom(evt,'out')"/>
                <use id="reset" xlink:href="#resetDef" x="30" y="36" onmousedown="handleReset()"/>
                <g id="arrowUp" xlink:href="#dirArrow" transform="translate(30 24)" onmousedown="handlePan(0,-1)">
                  <use xlink:href="#rim" fill="#404040">
                        <set attributeName="fill" to="#808080" begin="arrowUp.mouseover" end="arrowUp.mouseout"/>
                  </use>
                  <path fill="none" stroke="white" stroke-width="1.5" d="M0,-3.0v7 M-2.5,-0.5L0,-3.0L2.5,-0.5"/>
                </g>
                <g id="arrowRight" xlink:href="#dirArrow" transform="rotate(90) translate(36 -43)" onmousedown="handlePan(1,0)">
                  <use xlink:href="#rim" fill="#404040">
                        <set attributeName="fill" to="#808080" begin="arrowRight.mouseover" end="arrowRight.mouseout"/>
                  </use>
                  <path fill="none" stroke="white" stroke-width="1.5" d="M0,-3.0v7 M-2.5,-0.5L0,-3.0L2.5,-0.5"/>
                </g>
                <g id="arrowDown" xlink:href="#dirArrow" transform="rotate(180) translate(-30 -48)" onmousedown="handlePan(0,1)">
                  <use xlink:href="#rim" fill="#404040">
                        <set attributeName="fill" to="#808080" begin="arrowDown.mouseover" end="arrowDown.mouseout"/>
                  </use>
                  <path fill="none" stroke="white" stroke-width="1.5" d="M0,-3.0v7 M-2.5,-0.5L0,-3.0L2.5,-0.5"/>
                </g>
                <g id="arrowLeft" xlink:href="#dirArrow" transform="rotate(270) translate(-36 17)" onmousedown="handlePan(-1,0)">
                  <use xlink:href="#rim" fill="#404040">
                        <set attributeName="fill" to="#808080" begin="arrowLeft.mouseover" end="arrowLeft.mouseout"/>
                  </use>
                  <path fill="none" stroke="white" stroke-width="1.5" d="M0,-3.0v7 M-2.5,-0.5L0,-3.0L2.5,-0.5"/>
                </g>
        </g>
        <svg viewBox="0 0 15 15" width="100%" height="30px" preserveAspectRatio="xMaxYMin meet">
         <g id="arrow_out" transform="scale(0.3 0.3)">
          <a xlink:href="symbolic__variables_8h__incl_org.svg" target="_base">
           <rect id="button" ry="5" rx="5" y="6" x="6" height="38" width="38"
                fill="#f2f5e9" fill-opacity="0.5" stroke="#606060" stroke-width="1.0"/>
           <path id="arrow"
             d="M 11.500037,31.436501 C 11.940474,20.09759 22.043105,11.32322 32.158766,21.979434 L 37.068811,17.246167 C 37.068811,17.246167 37.088388,32 37.088388,32 L 22.160133,31.978069 C 22.160133,31.978069 26.997745,27.140456 26.997745,27.140456 C 18.528582,18.264221 13.291696,25.230495 11.500037,31.436501 z"
             style="fill:#404040;"/>
          </a>
         </g>
        </svg>
</svg>
