<?xml version="1.0" encoding="UTF-8" standalone="no"?>
<!DOCTYPE svg PUBLIC "-//W3C//DTD SVG 1.1//EN"
 "http://www.w3.org/Graphics/SVG/1.1/DTD/svg11.dtd">
<!-- Generated by graphviz version 2.40.1 (20161225.0304)
 -->
<!-- Title: drake/common/symbolic_codegen.h Pages: 1 -->
<svg width="4080pt" height="430pt"
 viewBox="0.00 0.00 4079.96 430.00" xmlns="http://www.w3.org/2000/svg" xmlns:xlink="http://www.w3.org/1999/xlink">
<g id="graph0" class="graph" transform="scale(1 1) rotate(0) translate(4 426)">
<title>drake/common/symbolic_codegen.h</title>
<polygon fill="#ffffff" stroke="transparent" points="-4,4 -4,-426 4075.9634,-426 4075.9634,4 -4,4"/>
<!-- Node0 -->
<g id="node1" class="node">
<title>Node0</title>
<g id="a_node1"><a xlink:title=" ">
<polygon fill="#bfbfbf" stroke="#000000" points="167.5,-391.5 167.5,-421.5 304.5,-421.5 304.5,-391.5 167.5,-391.5"/>
<text text-anchor="start" x="175.5" y="-409.5" font-family="Helvetica,sans-Serif" font-size="10.00" fill="#000000">drake/common/symbolic</text>
<text text-anchor="middle" x="236" y="-398.5" font-family="Helvetica,sans-Serif" font-size="10.00" fill="#000000">_codegen.h</text>
</a>
</g>
</g>
<!-- Node1 -->
<g id="node2" class="node">
<title>Node1</title>
<g id="a_node2"><a xlink:title=" ">
<polygon fill="#ffffff" stroke="#bfbfbf" points="0,-335.5 0,-354.5 56,-354.5 56,-335.5 0,-335.5"/>
<text text-anchor="middle" x="28" y="-342.5" font-family="Helvetica,sans-Serif" font-size="10.00" fill="#000000">sstream</text>
</a>
</g>
</g>
<!-- Node0&#45;&gt;Node1 -->
<g id="edge1" class="edge">
<title>Node0&#45;&gt;Node1</title>
<path fill="none" stroke="#191970" d="M185.1175,-391.4554C148.2774,-380.5628 99.2817,-366.0761 65.861,-356.1945"/>
<polygon fill="#191970" stroke="#191970" points="66.6017,-352.7638 56.0197,-353.2847 64.6169,-359.4765 66.6017,-352.7638"/>
</g>
<!-- Node2 -->
<g id="node3" class="node">
<title>Node2</title>
<g id="a_node3"><a xlink:title=" ">
<polygon fill="#ffffff" stroke="#bfbfbf" points="1698,-73 1698,-92 1742,-92 1742,-73 1698,-73"/>
<text text-anchor="middle" x="1720" y="-80" font-family="Helvetica,sans-Serif" font-size="10.00" fill="#000000">string</text>
</a>
</g>
</g>
<!-- Node0&#45;&gt;Node2 -->
<g id="edge2" class="edge">
<title>Node0&#45;&gt;Node2</title>
<path fill="none" stroke="#191970" d="M245.8018,-391.3065C255.5122,-376.5478 271.0556,-353.6933 286,-335 311.1464,-303.5455 317.0139,-294.8805 347,-268 453.9257,-172.1483 499.8245,-160.2704 641,-134 849.1867,-95.26 1529.7333,-84.7923 1687.2483,-82.8631"/>
<polygon fill="#191970" stroke="#191970" points="1687.7144,-86.3579 1697.6718,-82.7387 1687.6307,-79.3584 1687.7144,-86.3579"/>
</g>
<!-- Node3 -->
<g id="node4" class="node">
<title>Node3</title>
<g id="a_node4"><a xlink:title=" ">
<polygon fill="#ffffff" stroke="#bfbfbf" points="2466.5,-207 2466.5,-226 2559.5,-226 2559.5,-207 2466.5,-207"/>
<text text-anchor="middle" x="2513" y="-214" font-family="Helvetica,sans-Serif" font-size="10.00" fill="#000000">unordered_map</text>
</a>
</g>
</g>
<!-- Node0&#45;&gt;Node3 -->
<g id="edge3" class="edge">
<title>Node0&#45;&gt;Node3</title>
<path fill="none" stroke="#191970" d="M304.6035,-405.9929C522.9766,-404.0029 1221.4396,-394.7417 1798,-355 2035.6289,-338.6205 2101.1305,-361.4164 2331,-299 2389.7568,-283.0458 2453.4879,-250.1934 2487.7589,-231.1099"/>
<polygon fill="#191970" stroke="#191970" points="2489.6223,-234.0773 2496.6152,-226.118 2486.1851,-227.9793 2489.6223,-234.0773"/>
</g>
<!-- Node4 -->
<g id="node5" class="node">
<title>Node4</title>
<g id="a_node5"><a xlink:title=" ">
<polygon fill="#ffffff" stroke="#bfbfbf" points="910.5,-73 910.5,-92 957.5,-92 957.5,-73 910.5,-73"/>
<text text-anchor="middle" x="934" y="-80" font-family="Helvetica,sans-Serif" font-size="10.00" fill="#000000">vector</text>
</a>
</g>
</g>
<!-- Node0&#45;&gt;Node4 -->
<g id="edge4" class="edge">
<title>Node0&#45;&gt;Node4</title>
<path fill="none" stroke="#191970" d="M213.8886,-391.3604C202.6544,-382.2809 190.1134,-369.6588 184,-355 145.6381,-263.0152 137.7473,-187.2384 222,-134 279.7618,-97.5009 766.3636,-85.6684 900.1048,-83.09"/>
<polygon fill="#191970" stroke="#191970" points="900.2461,-86.5881 910.1785,-82.9006 900.1144,-79.5893 900.2461,-86.5881"/>
</g>
<!-- Node5 -->
<g id="node6" class="node">
<title>Node5</title>
<g id="a_node6"><a xlink:title=" ">
<polygon fill="#ffffff" stroke="#bfbfbf" points="650.5,-140 650.5,-159 719.5,-159 719.5,-140 650.5,-140"/>
<text text-anchor="middle" x="685" y="-147" font-family="Helvetica,sans-Serif" font-size="10.00" fill="#000000">Eigen/Core</text>
</a>
</g>
</g>
<!-- Node0&#45;&gt;Node5 -->
<g id="edge5" class="edge">
<title>Node0&#45;&gt;Node5</title>
<path fill="none" stroke="#191970" d="M250.3996,-391.2414C287.1994,-353.1622 389.2042,-253.2619 494,-201 541.2159,-177.4533 600.5469,-163.6211 640.4487,-156.3237"/>
<polygon fill="#191970" stroke="#191970" points="641.1678,-159.751 650.4064,-154.5645 639.9499,-152.8577 641.1678,-159.751"/>
</g>
<!-- Node6 -->
<g id="node7" class="node">
<title>Node6</title>
<g id="a_node7"><a xlink:title=" ">
<polygon fill="#ffffff" stroke="#bfbfbf" points="2578,-207 2578,-226 2658,-226 2658,-207 2578,-207"/>
<text text-anchor="middle" x="2618" y="-214" font-family="Helvetica,sans-Serif" font-size="10.00" fill="#000000">Eigen/Sparse</text>
</a>
</g>
</g>
<!-- Node0&#45;&gt;Node6 -->
<g id="edge6" class="edge">
<title>Node0&#45;&gt;Node6</title>
<path fill="none" stroke="#191970" d="M304.5813,-403.3428C563.8401,-391.0995 1475.5539,-345.144 1597,-299 1618.3551,-290.886 1616.4864,-275.6838 1638,-268 1832.7712,-198.435 2364.1476,-266.9188 2568,-232 2572.5572,-231.2194 2577.2778,-230.1369 2581.9168,-228.9033"/>
<polygon fill="#191970" stroke="#191970" points="2583.2197,-232.1696 2591.8471,-226.02 2581.2678,-225.4473 2583.2197,-232.1696"/>
</g>
<!-- Node7 -->
<g id="node8" class="node">
<title>Node7</title>
<g id="a_node8"><a xlink:href="drake__copyable_8h.html" target="_top" xlink:title="Provides careful macros to selectively enable or disable the special member functions for copy&#45;constr...">
<polygon fill="#ffffff" stroke="#000000" points="1871.5,-.5 1871.5,-30.5 1992.5,-30.5 1992.5,-.5 1871.5,-.5"/>
<text text-anchor="start" x="1879.5" y="-18.5" font-family="Helvetica,sans-Serif" font-size="10.00" fill="#000000">drake/common/drake</text>
<text text-anchor="middle" x="1932" y="-7.5" font-family="Helvetica,sans-Serif" font-size="10.00" fill="#000000">_copyable.h</text>
</a>
</g>
</g>
<!-- Node0&#45;&gt;Node7 -->
<g id="edge7" class="edge">
<title>Node0&#45;&gt;Node7</title>
<path fill="none" stroke="#191970" d="M189.9825,-391.3379C145.245,-373.3551 84,-338.6633 84,-283.5 84,-283.5 84,-283.5 84,-149.5 84,-67.9081 168.911,-87.0539 248,-67 405.7016,-27.0129 1561.2417,-17.6317 1861.0846,-15.8608"/>
<polygon fill="#191970" stroke="#191970" points="1861.4074,-19.3591 1871.3869,-15.801 1861.3667,-12.3592 1861.4074,-19.3591"/>
</g>
<!-- Node8 -->
<g id="node9" class="node">
<title>Node8</title>
<g id="a_node9"><a xlink:href="symbolic_8h.html" target="_top" xlink:title="Provides public header files of Drake&#39;s symbolic library.">
<polygon fill="#ffffff" stroke="#000000" points="1643,-335.5 1643,-354.5 1789,-354.5 1789,-335.5 1643,-335.5"/>
<text text-anchor="middle" x="1716" y="-342.5" font-family="Helvetica,sans-Serif" font-size="10.00" fill="#000000">drake/common/symbolic.h</text>
</a>
</g>
</g>
<!-- Node0&#45;&gt;Node8 -->
<g id="edge8" class="edge">
<title>Node0&#45;&gt;Node8</title>
<path fill="none" stroke="#191970" d="M304.5176,-405.7976C506.3503,-403.3708 1115.6569,-393.2504 1620,-355 1624.1785,-354.6831 1628.4657,-354.3185 1632.8011,-353.9202"/>
<polygon fill="#191970" stroke="#191970" points="1633.3591,-357.3826 1642.9757,-352.9361 1632.6852,-350.4151 1633.3591,-357.3826"/>
</g>
<!-- Node8&#45;&gt;Node0 -->
<g id="edge174" class="edge">
<title>Node8&#45;&gt;Node0</title>
<path fill="none" stroke="#191970" d="M1643.9763,-354.5212C1641.9658,-354.6905 1639.9708,-354.8505 1638,-355 1135.2544,-393.1292 528.2091,-403.3064 314.7458,-405.7743"/>
<polygon fill="#191970" stroke="#191970" points="314.5366,-402.2763 304.5769,-405.8894 314.6159,-409.2759 314.5366,-402.2763"/>
</g>
<!-- Node9 -->
<g id="node10" class="node">
<title>Node9</title>
<g id="a_node10"><a xlink:href="symbolic__variable_8h.html" target="_top" xlink:title=" ">
<polygon fill="#ffffff" stroke="#000000" points="1262.5,-268.5 1262.5,-298.5 1399.5,-298.5 1399.5,-268.5 1262.5,-268.5"/>
<text text-anchor="start" x="1270.5" y="-286.5" font-family="Helvetica,sans-Serif" font-size="10.00" fill="#000000">drake/common/symbolic</text>
<text text-anchor="middle" x="1331" y="-275.5" font-family="Helvetica,sans-Serif" font-size="10.00" fill="#000000">_variable.h</text>
</a>
</g>
</g>
<!-- Node8&#45;&gt;Node9 -->
<g id="edge9" class="edge">
<title>Node8&#45;&gt;Node9</title>
<path fill="none" stroke="#191970" d="M1656.2662,-335.4581C1590.0006,-324.8728 1482.8103,-307.7502 1409.7337,-296.0769"/>
<polygon fill="#191970" stroke="#191970" points="1410.0834,-292.5885 1399.6564,-294.4672 1408.9791,-299.5009 1410.0834,-292.5885"/>
</g>
<!-- Node27 -->
<g id="node28" class="node">
<title>Node27</title>
<g id="a_node28"><a xlink:href="symbolic__variables_8h.html" target="_top" xlink:title=" ">
<polygon fill="#ffffff" stroke="#000000" points="1451.5,-268.5 1451.5,-298.5 1588.5,-298.5 1588.5,-268.5 1451.5,-268.5"/>
<text text-anchor="start" x="1459.5" y="-286.5" font-family="Helvetica,sans-Serif" font-size="10.00" fill="#000000">drake/common/symbolic</text>
<text text-anchor="middle" x="1520" y="-275.5" font-family="Helvetica,sans-Serif" font-size="10.00" fill="#000000">_variables.h</text>
</a>
</g>
</g>
<!-- Node8&#45;&gt;Node27 -->
<g id="edge40" class="edge">
<title>Node8&#45;&gt;Node27</title>
<path fill="none" stroke="#191970" d="M1680.3125,-335.3906C1649.9467,-326.4123 1606.0922,-312.7735 1571.878,-301.7316"/>
<polygon fill="#191970" stroke="#191970" points="1572.6419,-298.3 1562.0499,-298.5446 1570.4826,-304.9586 1572.6419,-298.3"/>
</g>
<!-- Node29 -->
<g id="node30" class="node">
<title>Node29</title>
<g id="a_node30"><a xlink:href="symbolic__environment_8h.html" target="_top" xlink:title=" ">
<polygon fill="#ffffff" stroke="#000000" points="2185.5,-268.5 2185.5,-298.5 2322.5,-298.5 2322.5,-268.5 2185.5,-268.5"/>
<text text-anchor="start" x="2193.5" y="-286.5" font-family="Helvetica,sans-Serif" font-size="10.00" fill="#000000">drake/common/symbolic</text>
<text text-anchor="middle" x="2254" y="-275.5" font-family="Helvetica,sans-Serif" font-size="10.00" fill="#000000">_environment.h</text>
</a>
</g>
</g>
<!-- Node8&#45;&gt;Node29 -->
<g id="edge50" class="edge">
<title>Node8&#45;&gt;Node29</title>
<path fill="none" stroke="#191970" d="M1789.0211,-336.0902C1889.9816,-324.2668 2071.3325,-303.5399 2175.241,-291.9518"/>
<polygon fill="#191970" stroke="#191970" points="2175.8068,-295.4105 2185.358,-290.8252 2175.032,-288.4535 2175.8068,-295.4105"/>
</g>
<!-- Node32 -->
<g id="node33" class="node">
<title>Node32</title>
<g id="a_node33"><a xlink:href="symbolic__expression_8h.html" target="_top" xlink:title=" ">
<polygon fill="#ffffff" stroke="#000000" points="2788.5,-268.5 2788.5,-298.5 2925.5,-298.5 2925.5,-268.5 2788.5,-268.5"/>
<text text-anchor="start" x="2796.5" y="-286.5" font-family="Helvetica,sans-Serif" font-size="10.00" fill="#000000">drake/common/symbolic</text>
<text text-anchor="middle" x="2857" y="-275.5" font-family="Helvetica,sans-Serif" font-size="10.00" fill="#000000">_expression.h</text>
</a>
</g>
</g>
<!-- Node8&#45;&gt;Node32 -->
<g id="edge61" class="edge">
<title>Node8&#45;&gt;Node32</title>
<path fill="none" stroke="#191970" d="M1789.0402,-340.8693C1993.0221,-329.6475 2567.2906,-298.6949 2778.1378,-287.5583"/>
<polygon fill="#191970" stroke="#191970" points="2778.3997,-291.0495 2788.2014,-287.0273 2778.0308,-284.0592 2778.3997,-291.0495"/>
</g>
<!-- Node44 -->
<g id="node45" class="node">
<title>Node44</title>
<g id="a_node45"><a xlink:href="symbolic__expression__visitor_8h.html" target="_top" xlink:title=" ">
<polygon fill="#ffffff" stroke="#000000" points="3919.5,-201.5 3919.5,-231.5 4056.5,-231.5 4056.5,-201.5 3919.5,-201.5"/>
<text text-anchor="start" x="3927.5" y="-219.5" font-family="Helvetica,sans-Serif" font-size="10.00" fill="#000000">drake/common/symbolic</text>
<text text-anchor="middle" x="3988" y="-208.5" font-family="Helvetica,sans-Serif" font-size="10.00" fill="#000000">_expression_visitor.h</text>
</a>
</g>
</g>
<!-- Node8&#45;&gt;Node44 -->
<g id="edge103" class="edge">
<title>Node8&#45;&gt;Node44</title>
<path fill="none" stroke="#191970" d="M1789.0722,-344.5763C2082.0608,-342.6832 3171.9497,-333.5106 3516,-299 3655.328,-285.0244 3815.7718,-252.748 3909.2149,-232.9634"/>
<polygon fill="#191970" stroke="#191970" points="3910.1033,-236.3529 3919.1581,-230.852 3908.6492,-229.5055 3910.1033,-236.3529"/>
</g>
<!-- Node45 -->
<g id="node46" class="node">
<title>Node45</title>
<g id="a_node46"><a xlink:href="symbolic__ldlt_8h.html" target="_top" xlink:title="Eigen::LDLT is specialized for drake::symbolic::Expression, for certain matrix sizes.">
<polygon fill="#ffffff" stroke="#000000" points="417.5,-268.5 417.5,-298.5 554.5,-298.5 554.5,-268.5 417.5,-268.5"/>
<text text-anchor="start" x="425.5" y="-286.5" font-family="Helvetica,sans-Serif" font-size="10.00" fill="#000000">drake/common/symbolic</text>
<text text-anchor="middle" x="486" y="-275.5" font-family="Helvetica,sans-Serif" font-size="10.00" fill="#000000">_ldlt.h</text>
</a>
</g>
</g>
<!-- Node8&#45;&gt;Node45 -->
<g id="edge108" class="edge">
<title>Node8&#45;&gt;Node45</title>
<path fill="none" stroke="#191970" d="M1642.9565,-343.1258C1426.6197,-337.4008 791.4528,-319.2926 585,-299 578.3695,-298.3483 571.5072,-297.5447 564.631,-296.6492"/>
<polygon fill="#191970" stroke="#191970" points="564.9528,-293.1608 554.5718,-295.2785 564.0076,-300.0967 564.9528,-293.1608"/>
</g>
<!-- Node46 -->
<g id="node47" class="node">
<title>Node46</title>
<g id="a_node47"><a xlink:href="symbolic__monomial_8h.html" target="_top" xlink:title=" ">
<polygon fill="#ffffff" stroke="#000000" points="797.5,-268.5 797.5,-298.5 934.5,-298.5 934.5,-268.5 797.5,-268.5"/>
<text text-anchor="start" x="805.5" y="-286.5" font-family="Helvetica,sans-Serif" font-size="10.00" fill="#000000">drake/common/symbolic</text>
<text text-anchor="middle" x="866" y="-275.5" font-family="Helvetica,sans-Serif" font-size="10.00" fill="#000000">_monomial.h</text>
</a>
</g>
</g>
<!-- Node8&#45;&gt;Node46 -->
<g id="edge110" class="edge">
<title>Node8&#45;&gt;Node46</title>
<path fill="none" stroke="#191970" d="M1642.9071,-344.1277C1505.7624,-341.7278 1200.8454,-332.8351 940.349,-299.7896"/>
<polygon fill="#191970" stroke="#191970" points="940.6868,-296.3043 930.3226,-298.5028 939.7957,-303.2474 940.6868,-296.3043"/>
</g>
<!-- Node47 -->
<g id="node48" class="node">
<title>Node47</title>
<g id="a_node48"><a xlink:href="symbolic__monomial__util_8h.html" target="_top" xlink:title=" ">
<polygon fill="#ffffff" stroke="#000000" points="1107.5,-268.5 1107.5,-298.5 1244.5,-298.5 1244.5,-268.5 1107.5,-268.5"/>
<text text-anchor="start" x="1115.5" y="-286.5" font-family="Helvetica,sans-Serif" font-size="10.00" fill="#000000">drake/common/symbolic</text>
<text text-anchor="middle" x="1176" y="-275.5" font-family="Helvetica,sans-Serif" font-size="10.00" fill="#000000">_monomial_util.h</text>
</a>
</g>
</g>
<!-- Node8&#45;&gt;Node47 -->
<g id="edge119" class="edge">
<title>Node8&#45;&gt;Node47</title>
<path fill="none" stroke="#191970" d="M1642.9353,-340.451C1551.9529,-333.9945 1391.919,-320.6656 1250.8639,-300.0007"/>
<polygon fill="#191970" stroke="#191970" points="1251.1472,-296.5045 1240.742,-298.5001 1250.1206,-303.4288 1251.1472,-296.5045"/>
</g>
<!-- Node48 -->
<g id="node49" class="node">
<title>Node48</title>
<g id="a_node49"><a xlink:href="symbolic__polynomial_8h.html" target="_top" xlink:title=" ">
<polygon fill="#ffffff" stroke="#000000" points="952.5,-268.5 952.5,-298.5 1089.5,-298.5 1089.5,-268.5 952.5,-268.5"/>
<text text-anchor="start" x="960.5" y="-286.5" font-family="Helvetica,sans-Serif" font-size="10.00" fill="#000000">drake/common/symbolic</text>
<text text-anchor="middle" x="1021" y="-275.5" font-family="Helvetica,sans-Serif" font-size="10.00" fill="#000000">_polynomial.h</text>
</a>
</g>
</g>
<!-- Node8&#45;&gt;Node48 -->
<g id="edge129" class="edge">
<title>Node8&#45;&gt;Node48</title>
<path fill="none" stroke="#191970" d="M1642.991,-342.7236C1527.5146,-338.3418 1295.9064,-326.7289 1095.8413,-299.909"/>
<polygon fill="#191970" stroke="#191970" points="1096.1165,-296.4144 1085.7366,-298.5377 1095.1751,-303.3508 1096.1165,-296.4144"/>
</g>
<!-- Node49 -->
<g id="node50" class="node">
<title>Node49</title>
<g id="a_node50"><a xlink:href="symbolic__chebyshev__polynomial_8h.html" target="_top" xlink:title=" ">
<polygon fill="#ffffff" stroke="#000000" points="594.5,-268.5 594.5,-298.5 737.5,-298.5 737.5,-268.5 594.5,-268.5"/>
<text text-anchor="start" x="602.5" y="-286.5" font-family="Helvetica,sans-Serif" font-size="10.00" fill="#000000">drake/common/symbolic</text>
<text text-anchor="middle" x="666" y="-275.5" font-family="Helvetica,sans-Serif" font-size="10.00" fill="#000000">_chebyshev_polynomial.h</text>
</a>
</g>
</g>
<!-- Node8&#45;&gt;Node49 -->
<g id="edge138" class="edge">
<title>Node8&#45;&gt;Node49</title>
<path fill="none" stroke="#191970" d="M1642.7458,-343.4052C1484.5601,-339.4284 1099.7683,-327.2846 779,-299 768.8461,-298.1046 758.2363,-297.0042 747.7522,-295.8062"/>
<polygon fill="#191970" stroke="#191970" points="748.0982,-292.3229 737.758,-294.6313 747.2809,-299.275 748.0982,-292.3229"/>
</g>
<!-- Node50 -->
<g id="node51" class="node">
<title>Node50</title>
<g id="a_node51"><a xlink:href="symbolic__rational__function_8h.html" target="_top" xlink:title=" ">
<polygon fill="#ffffff" stroke="#000000" points="1647.5,-268.5 1647.5,-298.5 1784.5,-298.5 1784.5,-268.5 1647.5,-268.5"/>
<text text-anchor="start" x="1655.5" y="-286.5" font-family="Helvetica,sans-Serif" font-size="10.00" fill="#000000">drake/common/symbolic</text>
<text text-anchor="middle" x="1716" y="-275.5" font-family="Helvetica,sans-Serif" font-size="10.00" fill="#000000">_rational_function.h</text>
</a>
</g>
</g>
<!-- Node8&#45;&gt;Node50 -->
<g id="edge146" class="edge">
<title>Node8&#45;&gt;Node50</title>
<path fill="none" stroke="#191970" d="M1710.9375,-335.3906C1709.539,-328.2234 1709.0098,-318.0862 1709.3497,-308.671"/>
<polygon fill="#191970" stroke="#191970" points="1712.8515,-308.7767 1710.1029,-298.5446 1705.8707,-308.2574 1712.8515,-308.7767"/>
</g>
<!-- Node51 -->
<g id="node52" class="node">
<title>Node51</title>
<g id="a_node52"><a xlink:href="symbolic__formula_8h.html" target="_top" xlink:title=" ">
<polygon fill="#ffffff" stroke="#000000" points="1863.5,-268.5 1863.5,-298.5 2000.5,-298.5 2000.5,-268.5 1863.5,-268.5"/>
<text text-anchor="start" x="1871.5" y="-286.5" font-family="Helvetica,sans-Serif" font-size="10.00" fill="#000000">drake/common/symbolic</text>
<text text-anchor="middle" x="1932" y="-275.5" font-family="Helvetica,sans-Serif" font-size="10.00" fill="#000000">_formula.h</text>
</a>
</g>
</g>
<!-- Node8&#45;&gt;Node51 -->
<g id="edge149" class="edge">
<title>Node8&#45;&gt;Node51</title>
<path fill="none" stroke="#191970" d="M1744.6875,-335.3906C1774.9167,-326.2774 1823.415,-312.3627 1863.5273,-301.2358"/>
<polygon fill="#191970" stroke="#191970" points="1864.5573,-304.5824 1873.2634,-298.5446 1862.6923,-297.8354 1864.5573,-304.5824"/>
</g>
<!-- Node53 -->
<g id="node54" class="node">
<title>Node53</title>
<g id="a_node54"><a xlink:href="symbolic__formula__visitor_8h.html" target="_top" xlink:title=" ">
<polygon fill="#ffffff" stroke="#000000" points="3378.5,-268.5 3378.5,-298.5 3515.5,-298.5 3515.5,-268.5 3378.5,-268.5"/>
<text text-anchor="start" x="3386.5" y="-286.5" font-family="Helvetica,sans-Serif" font-size="10.00" fill="#000000">drake/common/symbolic</text>
<text text-anchor="middle" x="3447" y="-275.5" font-family="Helvetica,sans-Serif" font-size="10.00" fill="#000000">_formula_visitor.h</text>
</a>
</g>
</g>
<!-- Node8&#45;&gt;Node53 -->
<g id="edge166" class="edge">
<title>Node8&#45;&gt;Node53</title>
<path fill="none" stroke="#191970" d="M1789.1218,-342.9156C1997.1817,-337.0824 2609.8728,-319.6609 3119,-299 3203.9731,-295.5517 3301.6329,-290.6716 3368.2116,-287.3131"/>
<polygon fill="#191970" stroke="#191970" points="3368.4026,-290.808 3378.2134,-286.8083 3368.0497,-283.8169 3368.4026,-290.808"/>
</g>
<!-- Node54 -->
<g id="node55" class="node">
<title>Node54</title>
<g id="a_node55"><a xlink:href="symbolic__simplification_8h.html" target="_top" xlink:title=" ">
<polygon fill="#ffffff" stroke="#000000" points="2982.5,-268.5 2982.5,-298.5 3119.5,-298.5 3119.5,-268.5 2982.5,-268.5"/>
<text text-anchor="start" x="2990.5" y="-286.5" font-family="Helvetica,sans-Serif" font-size="10.00" fill="#000000">drake/common/symbolic</text>
<text text-anchor="middle" x="3051" y="-275.5" font-family="Helvetica,sans-Serif" font-size="10.00" fill="#000000">_simplification.h</text>
</a>
</g>
</g>
<!-- Node8&#45;&gt;Node54 -->
<g id="edge170" class="edge">
<title>Node8&#45;&gt;Node54</title>
<path fill="none" stroke="#191970" d="M1789.0061,-344.5964C1977.451,-343.0427 2495.1297,-335.5104 2925,-299 2940.2406,-297.7056 2956.5412,-295.8481 2972.2111,-293.866"/>
<polygon fill="#191970" stroke="#191970" points="2972.9305,-297.3023 2982.3998,-292.5502 2972.0338,-290.3599 2972.9305,-297.3023"/>
</g>
<!-- Node9&#45;&gt;Node2 -->
<g id="edge14" class="edge">
<title>Node9&#45;&gt;Node2</title>
<path fill="none" stroke="#191970" d="M1321.8709,-268.2149C1312.514,-250.3393 1301.2534,-220.6933 1316,-201 1318.8996,-197.1278 1593.4948,-118.5623 1688.2656,-91.5378"/>
<polygon fill="#191970" stroke="#191970" points="1689.2296,-94.9025 1697.887,-88.7951 1687.3106,-88.1707 1689.2296,-94.9025"/>
</g>
<!-- Node9&#45;&gt;Node5 -->
<g id="edge15" class="edge">
<title>Node9&#45;&gt;Node5</title>
<path fill="none" stroke="#191970" d="M1262.1675,-269.3901C1259.0741,-268.8922 1256.0075,-268.4255 1253,-268 1066.1805,-241.5716 1008.2536,-293.8519 830,-232 806.3593,-223.797 804.5465,-213.7248 783,-201 760.1022,-187.4771 733.3292,-173.5282 713.5584,-163.5638"/>
<polygon fill="#191970" stroke="#191970" points="714.9719,-160.3574 704.4628,-159.0117 711.8389,-166.6172 714.9719,-160.3574"/>
</g>
<!-- Node9&#45;&gt;Node7 -->
<g id="edge16" class="edge">
<title>Node9&#45;&gt;Node7</title>
<path fill="none" stroke="#191970" d="M1262.1581,-269.4542C1259.0673,-268.939 1256.0037,-268.451 1253,-268 1175.2414,-256.3243 953.6957,-290.3599 901,-232 851.8541,-177.5715 850.4555,-120.1322 901,-67 934.0746,-32.232 1633.6526,-19.5905 1861.1846,-16.3896"/>
<polygon fill="#191970" stroke="#191970" points="1861.3866,-19.8873 1871.337,-16.2487 1861.2893,-12.8879 1861.3866,-19.8873"/>
</g>
<!-- Node10 -->
<g id="node11" class="node">
<title>Node10</title>
<g id="a_node11"><a xlink:title=" ">
<polygon fill="#ffffff" stroke="#bfbfbf" points="1318.5,-140 1318.5,-159 1371.5,-159 1371.5,-140 1318.5,-140"/>
<text text-anchor="middle" x="1345" y="-147" font-family="Helvetica,sans-Serif" font-size="10.00" fill="#000000">cstddef</text>
</a>
</g>
</g>
<!-- Node9&#45;&gt;Node10 -->
<g id="edge10" class="edge">
<title>Node9&#45;&gt;Node10</title>
<path fill="none" stroke="#191970" d="M1283.8683,-268.2977C1266.9605,-260.3094 1249.6928,-248.6228 1240,-232 1233.0598,-220.0978 1232.7118,-212.6923 1240,-201 1244.2699,-194.1499 1283.7515,-175.9378 1313.0511,-163.1228"/>
<polygon fill="#191970" stroke="#191970" points="1314.752,-166.2001 1322.5316,-159.0079 1311.9649,-159.7788 1314.752,-166.2001"/>
</g>
<!-- Node11 -->
<g id="node12" class="node">
<title>Node11</title>
<g id="a_node12"><a xlink:title=" ">
<polygon fill="#ffffff" stroke="#bfbfbf" points="1624.5,-140 1624.5,-159 1689.5,-159 1689.5,-140 1624.5,-140"/>
<text text-anchor="middle" x="1657" y="-147" font-family="Helvetica,sans-Serif" font-size="10.00" fill="#000000">functional</text>
</a>
</g>
</g>
<!-- Node9&#45;&gt;Node11 -->
<g id="edge11" class="edge">
<title>Node9&#45;&gt;Node11</title>
<path fill="none" stroke="#191970" d="M1343.6018,-268.326C1360.2058,-249.4082 1391.2785,-217.5506 1425,-201 1500.1958,-164.0936 1528.9521,-186.1595 1610,-165 1613.3435,-164.1271 1616.7965,-163.1459 1620.2421,-162.112"/>
<polygon fill="#191970" stroke="#191970" points="1621.3404,-165.4357 1629.8357,-159.1047 1619.2466,-158.7562 1621.3404,-165.4357"/>
</g>
<!-- Node12 -->
<g id="node13" class="node">
<title>Node12</title>
<g id="a_node13"><a xlink:title=" ">
<polygon fill="#ffffff" stroke="#bfbfbf" points="3009,-73 3009,-92 3067,-92 3067,-73 3009,-73"/>
<text text-anchor="middle" x="3038" y="-80" font-family="Helvetica,sans-Serif" font-size="10.00" fill="#000000">memory</text>
</a>
</g>
</g>
<!-- Node9&#45;&gt;Node12 -->
<g id="edge12" class="edge">
<title>Node9&#45;&gt;Node12</title>
<path fill="none" stroke="#191970" d="M1335.457,-268.327C1341.7064,-249.7115 1354.8614,-218.4776 1377,-201 1382.3907,-196.7443 1608.2126,-135.0494 1615,-134 1859.1177,-96.2555 2479.1893,-108.1287 2726,-98 2824.1478,-93.9722 2939.5948,-87.8848 2998.7307,-84.6685"/>
<polygon fill="#191970" stroke="#191970" points="2998.9632,-88.1611 3008.7576,-84.1213 2998.5817,-81.1715 2998.9632,-88.1611"/>
</g>
<!-- Node13 -->
<g id="node14" class="node">
<title>Node13</title>
<g id="a_node14"><a xlink:title=" ">
<polygon fill="#ffffff" stroke="#bfbfbf" points="1434.5,-207 1434.5,-226 1491.5,-226 1491.5,-207 1434.5,-207"/>
<text text-anchor="middle" x="1463" y="-214" font-family="Helvetica,sans-Serif" font-size="10.00" fill="#000000">ostream</text>
</a>
</g>
</g>
<!-- Node9&#45;&gt;Node13 -->
<g id="edge13" class="edge">
<title>Node9&#45;&gt;Node13</title>
<path fill="none" stroke="#191970" d="M1360.6234,-268.4639C1382.8711,-257.1715 1413.1384,-241.8086 1434.9861,-230.7192"/>
<polygon fill="#191970" stroke="#191970" points="1436.7459,-233.7511 1444.0788,-226.1039 1433.5776,-227.5091 1436.7459,-233.7511"/>
</g>
<!-- Node14 -->
<g id="node15" class="node">
<title>Node14</title>
<g id="a_node15"><a xlink:href="eigen__types_8h.html" target="_top" xlink:title="This file contains abbreviated definitions for certain specializations of Eigen::Matrix that are comm...">
<polygon fill="#ffffff" stroke="#000000" points="2074,-201.5 2074,-231.5 2194,-231.5 2194,-201.5 2074,-201.5"/>
<text text-anchor="start" x="2082" y="-219.5" font-family="Helvetica,sans-Serif" font-size="10.00" fill="#000000">drake/common/eigen</text>
<text text-anchor="middle" x="2134" y="-208.5" font-family="Helvetica,sans-Serif" font-size="10.00" fill="#000000">_types.h</text>
</a>
</g>
</g>
<!-- Node9&#45;&gt;Node14 -->
<g id="edge17" class="edge">
<title>Node9&#45;&gt;Node14</title>
<path fill="none" stroke="#191970" d="M1399.6004,-273.2165C1413.608,-271.315 1428.2632,-269.4687 1442,-268 1561.0739,-255.2688 1912.5442,-231.2522 2063.645,-221.1566"/>
<polygon fill="#191970" stroke="#191970" points="2063.9932,-224.6412 2073.7379,-220.483 2063.527,-217.6567 2063.9932,-224.6412"/>
</g>
<!-- Node20 -->
<g id="node21" class="node">
<title>Node20</title>
<g id="a_node21"><a xlink:href="hash_8h.html" target="_top" xlink:title=" ">
<polygon fill="#ffffff" stroke="#000000" points="910.5,-207 910.5,-226 1035.5,-226 1035.5,-207 910.5,-207"/>
<text text-anchor="middle" x="973" y="-214" font-family="Helvetica,sans-Serif" font-size="10.00" fill="#000000">drake/common/hash.h</text>
</a>
</g>
</g>
<!-- Node9&#45;&gt;Node20 -->
<g id="edge24" class="edge">
<title>Node9&#45;&gt;Node20</title>
<path fill="none" stroke="#191970" d="M1262.1069,-269.7543C1259.0299,-269.1579 1255.9833,-268.5707 1253,-268 1178.4663,-253.7407 1092.6229,-238.0615 1035.8437,-227.7942"/>
<polygon fill="#191970" stroke="#191970" points="1036.4024,-224.3386 1025.9394,-226.0048 1035.1578,-231.227 1036.4024,-224.3386"/>
</g>
<!-- Node14&#45;&gt;Node7 -->
<g id="edge23" class="edge">
<title>Node14&#45;&gt;Node7</title>
<path fill="none" stroke="#191970" d="M2118.8172,-201.3923C2083.4891,-166.2392 1995.644,-78.829 1954.2491,-37.639"/>
<polygon fill="#191970" stroke="#191970" points="1956.6408,-35.0813 1947.0835,-30.5088 1951.7033,-40.0433 1956.6408,-35.0813"/>
</g>
<!-- Node15 -->
<g id="node16" class="node">
<title>Node15</title>
<g id="a_node16"><a xlink:title=" ">
<polygon fill="#ffffff" stroke="#bfbfbf" points="2307.5,-6 2307.5,-25 2352.5,-25 2352.5,-6 2307.5,-6"/>
<text text-anchor="middle" x="2330" y="-13" font-family="Helvetica,sans-Serif" font-size="10.00" fill="#000000">utility</text>
</a>
</g>
</g>
<!-- Node14&#45;&gt;Node15 -->
<g id="edge18" class="edge">
<title>Node14&#45;&gt;Node15</title>
<path fill="none" stroke="#191970" d="M2120.5628,-201.4427C2106.9839,-184.3024 2089.7568,-155.8524 2103,-134 2145.6807,-63.5733 2245.4473,-33.0223 2297.3398,-21.5138"/>
<polygon fill="#191970" stroke="#191970" points="2298.2883,-24.8907 2307.349,-19.3995 2296.8415,-18.0419 2298.2883,-24.8907"/>
</g>
<!-- Node16 -->
<g id="node17" class="node">
<title>Node16</title>
<g id="a_node17"><a xlink:title=" ">
<polygon fill="#ffffff" stroke="#bfbfbf" points="2112.5,-140 2112.5,-159 2189.5,-159 2189.5,-140 2112.5,-140"/>
<text text-anchor="middle" x="2151" y="-147" font-family="Helvetica,sans-Serif" font-size="10.00" fill="#000000">Eigen/Dense</text>
</a>
</g>
</g>
<!-- Node14&#45;&gt;Node16 -->
<g id="edge19" class="edge">
<title>Node14&#45;&gt;Node16</title>
<path fill="none" stroke="#191970" d="M2137.8576,-201.2967C2140.3005,-191.6685 2143.4815,-179.1318 2146.102,-168.8038"/>
<polygon fill="#191970" stroke="#191970" points="2149.5086,-169.6086 2148.5756,-159.055 2142.7236,-167.887 2149.5086,-169.6086"/>
</g>
<!-- Node17 -->
<g id="node18" class="node">
<title>Node17</title>
<g id="a_node18"><a xlink:href="constants_8h.html" target="_top" xlink:title=" ">
<polygon fill="#ffffff" stroke="#000000" points="2207.5,-140 2207.5,-159 2356.5,-159 2356.5,-140 2207.5,-140"/>
<text text-anchor="middle" x="2282" y="-147" font-family="Helvetica,sans-Serif" font-size="10.00" fill="#000000">drake/common/constants.h</text>
</a>
</g>
</g>
<!-- Node14&#45;&gt;Node17 -->
<g id="edge20" class="edge">
<title>Node14&#45;&gt;Node17</title>
<path fill="none" stroke="#191970" d="M2167.2141,-201.4639C2192.494,-190.0196 2227.0092,-174.3945 2251.5739,-163.274"/>
<polygon fill="#191970" stroke="#191970" points="2253.1188,-166.4166 2260.7854,-159.1039 2250.2319,-160.0396 2253.1188,-166.4166"/>
</g>
<!-- Node18 -->
<g id="node19" class="node">
<title>Node18</title>
<g id="a_node19"><a xlink:href="drake__assert_8h.html" target="_top" xlink:title="Provides Drake&#39;s assertion implementation.">
<polygon fill="#ffffff" stroke="#000000" points="2596.5,-67.5 2596.5,-97.5 2717.5,-97.5 2717.5,-67.5 2596.5,-67.5"/>
<text text-anchor="start" x="2604.5" y="-85.5" font-family="Helvetica,sans-Serif" font-size="10.00" fill="#000000">drake/common/drake</text>
<text text-anchor="middle" x="2657" y="-74.5" font-family="Helvetica,sans-Serif" font-size="10.00" fill="#000000">_assert.h</text>
</a>
</g>
</g>
<!-- Node14&#45;&gt;Node18 -->
<g id="edge21" class="edge">
<title>Node14&#45;&gt;Node18</title>
<path fill="none" stroke="#191970" d="M2194.1199,-202.495C2197.1158,-201.9541 2200.0881,-201.4513 2203,-201 2294.4766,-186.8236 2542.0134,-217.8676 2618,-165 2637.0926,-151.7164 2647.1131,-126.5355 2652.1876,-107.4721"/>
<polygon fill="#191970" stroke="#191970" points="2655.6208,-108.163 2654.5242,-97.6251 2648.8099,-106.5468 2655.6208,-108.163"/>
</g>
<!-- Node19 -->
<g id="node20" class="node">
<title>Node19</title>
<g id="a_node20"><a xlink:title=" ">
<polygon fill="#ffffff" stroke="#bfbfbf" points="2622.5,-6 2622.5,-25 2691.5,-25 2691.5,-6 2622.5,-6"/>
<text text-anchor="middle" x="2657" y="-13" font-family="Helvetica,sans-Serif" font-size="10.00" fill="#000000">type_traits</text>
</a>
</g>
</g>
<!-- Node18&#45;&gt;Node19 -->
<g id="edge22" class="edge">
<title>Node18&#45;&gt;Node19</title>
<path fill="none" stroke="#191970" d="M2657,-67.2967C2657,-57.7699 2657,-45.3954 2657,-35.1306"/>
<polygon fill="#191970" stroke="#191970" points="2660.5001,-35.0549 2657,-25.055 2653.5001,-35.055 2660.5001,-35.0549"/>
</g>
<!-- Node20&#45;&gt;Node2 -->
<g id="edge32" class="edge">
<title>Node20&#45;&gt;Node2</title>
<path fill="none" stroke="#191970" d="M1014.552,-206.9556C1023.5895,-204.9385 1033.1067,-202.8591 1042,-201 1124.4192,-183.7707 1149.8781,-196.4125 1228,-165 1251.5622,-155.5257 1252.0961,-142.5758 1276,-134 1352.1546,-106.6787 1598.833,-89.6969 1687.7094,-84.3378"/>
<polygon fill="#191970" stroke="#191970" points="1687.9688,-87.8287 1697.7437,-83.742 1687.5538,-80.841 1687.9688,-87.8287"/>
</g>
<!-- Node20&#45;&gt;Node4 -->
<g id="edge35" class="edge">
<title>Node20&#45;&gt;Node4</title>
<path fill="none" stroke="#191970" d="M964.2224,-206.6965C956.053,-196.9115 944.3573,-181.0576 939,-165 932.2108,-144.6506 931.646,-119.9331 932.351,-102.8891"/>
<polygon fill="#191970" stroke="#191970" points="935.8714,-102.6564 932.9811,-92.4634 928.8841,-102.234 935.8714,-102.6564"/>
</g>
<!-- Node20&#45;&gt;Node10 -->
<g id="edge26" class="edge">
<title>Node20&#45;&gt;Node10</title>
<path fill="none" stroke="#191970" d="M1018.113,-206.9645C1028.5614,-204.8824 1039.651,-202.7735 1050,-201 1162.3789,-181.7419 1193.559,-193.3317 1304,-165 1306.8332,-164.2732 1309.74,-163.4152 1312.6343,-162.4818"/>
<polygon fill="#191970" stroke="#191970" points="1314.019,-165.7054 1322.3019,-159.0989 1311.707,-159.0982 1314.019,-165.7054"/>
</g>
<!-- Node20&#45;&gt;Node11 -->
<g id="edge27" class="edge">
<title>Node20&#45;&gt;Node11</title>
<path fill="none" stroke="#191970" d="M1035.5237,-210.1049C1063.2389,-207.2858 1096.2436,-203.9502 1126,-201 1307.527,-183.0022 1524.034,-162.2151 1614.2538,-153.5832"/>
<polygon fill="#191970" stroke="#191970" points="1614.7451,-157.0523 1624.3664,-152.616 1614.0785,-150.0841 1614.7451,-157.0523"/>
</g>
<!-- Node20&#45;&gt;Node15 -->
<g id="edge34" class="edge">
<title>Node20&#45;&gt;Node15</title>
<path fill="none" stroke="#191970" d="M1014.1878,-206.9456C1065.0171,-194.8531 1146.1052,-174.4617 1157,-165 1192.9117,-133.8123 1160.7738,-93.9003 1200,-67 1236.7365,-41.8071 1956.5022,-33.0481 2001,-31 2109.3546,-26.0126 2237.7725,-19.9059 2297.0266,-17.0771"/>
<polygon fill="#191970" stroke="#191970" points="2297.4437,-20.5613 2307.2653,-16.5881 2297.1097,-13.5692 2297.4437,-20.5613"/>
</g>
<!-- Node20&#45;&gt;Node18 -->
<g id="edge36" class="edge">
<title>Node20&#45;&gt;Node18</title>
<path fill="none" stroke="#191970" d="M1013.4119,-206.9842C1022.7753,-204.9012 1032.7166,-202.7869 1042,-201 1141.0154,-181.9409 1172.8152,-203.5214 1266,-165 1287.7727,-155.9994 1286.7223,-141.6658 1309,-134 1369.7418,-113.0986 2316.7212,-90.1915 2586.0479,-84.0731"/>
<polygon fill="#191970" stroke="#191970" points="2586.1798,-87.5711 2596.0979,-83.8455 2586.0212,-80.5729 2586.1798,-87.5711"/>
</g>
<!-- Node20&#45;&gt;Node19 -->
<g id="edge33" class="edge">
<title>Node20&#45;&gt;Node19</title>
<path fill="none" stroke="#191970" d="M1014.7283,-206.8942C1070.7084,-193.8886 1164.8772,-171.5484 1180,-165 1203.3046,-154.9087 1204.2223,-142.9197 1228,-134 1421.8508,-61.2811 1482.967,-87.4099 1689,-67 1700.6469,-65.8462 2423.5576,-27.7801 2612.3167,-17.8499"/>
<polygon fill="#191970" stroke="#191970" points="2612.639,-21.3379 2622.4413,-17.3173 2612.2712,-14.3475 2612.639,-21.3379"/>
</g>
<!-- Node21 -->
<g id="node22" class="node">
<title>Node21</title>
<g id="a_node22"><a xlink:title=" ">
<polygon fill="#ffffff" stroke="#bfbfbf" points="948.5,-140 948.5,-159 995.5,-159 995.5,-140 948.5,-140"/>
<text text-anchor="middle" x="972" y="-147" font-family="Helvetica,sans-Serif" font-size="10.00" fill="#000000">cmath</text>
</a>
</g>
</g>
<!-- Node20&#45;&gt;Node21 -->
<g id="edge25" class="edge">
<title>Node20&#45;&gt;Node21</title>
<path fill="none" stroke="#191970" d="M972.8567,-206.9005C972.7112,-197.149 972.4815,-181.7597 972.2966,-169.3695"/>
<polygon fill="#191970" stroke="#191970" points="975.792,-169.0283 972.143,-159.0817 968.7927,-169.1328 975.792,-169.0283"/>
</g>
<!-- Node22 -->
<g id="node23" class="node">
<title>Node22</title>
<g id="a_node23"><a xlink:title=" ">
<polygon fill="#ffffff" stroke="#bfbfbf" points="1014,-140 1014,-159 1074,-159 1074,-140 1014,-140"/>
<text text-anchor="middle" x="1044" y="-147" font-family="Helvetica,sans-Serif" font-size="10.00" fill="#000000">iostream</text>
</a>
</g>
</g>
<!-- Node20&#45;&gt;Node22 -->
<g id="edge28" class="edge">
<title>Node20&#45;&gt;Node22</title>
<path fill="none" stroke="#191970" d="M983.1726,-206.9005C994.4553,-196.2535 1012.8601,-178.8856 1026.4742,-166.0385"/>
<polygon fill="#191970" stroke="#191970" points="1028.9754,-168.4905 1033.8463,-159.0817 1024.1712,-163.3994 1028.9754,-168.4905"/>
</g>
<!-- Node23 -->
<g id="node24" class="node">
<title>Node23</title>
<g id="a_node24"><a xlink:title=" ">
<polygon fill="#ffffff" stroke="#bfbfbf" points="749,-140 749,-159 787,-159 787,-140 749,-140"/>
<text text-anchor="middle" x="768" y="-147" font-family="Helvetica,sans-Serif" font-size="10.00" fill="#000000">map</text>
</a>
</g>
</g>
<!-- Node20&#45;&gt;Node23 -->
<g id="edge29" class="edge">
<title>Node20&#45;&gt;Node23</title>
<path fill="none" stroke="#191970" d="M943.6285,-206.9005C904.501,-194.1125 835.7085,-171.6291 796.8478,-158.9283"/>
<polygon fill="#191970" stroke="#191970" points="797.782,-155.5515 787.1895,-155.7717 795.6073,-162.2052 797.782,-155.5515"/>
</g>
<!-- Node24 -->
<g id="node25" class="node">
<title>Node24</title>
<g id="a_node25"><a xlink:title=" ">
<polygon fill="#ffffff" stroke="#bfbfbf" points="1092,-140 1092,-159 1148,-159 1148,-140 1092,-140"/>
<text text-anchor="middle" x="1120" y="-147" font-family="Helvetica,sans-Serif" font-size="10.00" fill="#000000">optional</text>
</a>
</g>
</g>
<!-- Node20&#45;&gt;Node24 -->
<g id="edge30" class="edge">
<title>Node20&#45;&gt;Node24</title>
<path fill="none" stroke="#191970" d="M994.0615,-206.9005C1019.1681,-195.4574 1061.3077,-176.2509 1089.8598,-163.2374"/>
<polygon fill="#191970" stroke="#191970" points="1091.3297,-166.4139 1098.9776,-159.0817 1088.4265,-160.0443 1091.3297,-166.4139"/>
</g>
<!-- Node25 -->
<g id="node26" class="node">
<title>Node25</title>
<g id="a_node26"><a xlink:title=" ">
<polygon fill="#ffffff" stroke="#bfbfbf" points="1390,-140 1390,-159 1422,-159 1422,-140 1390,-140"/>
<text text-anchor="middle" x="1406" y="-147" font-family="Helvetica,sans-Serif" font-size="10.00" fill="#000000">set</text>
</a>
</g>
</g>
<!-- Node20&#45;&gt;Node25 -->
<g id="edge31" class="edge">
<title>Node20&#45;&gt;Node25</title>
<path fill="none" stroke="#191970" d="M1035.5037,-210.0159C1141.506,-198.8074 1348.1818,-175.96 1380,-165 1381.0434,-164.6406 1382.0906,-164.2358 1383.1339,-163.7956"/>
<polygon fill="#191970" stroke="#191970" points="1384.9106,-166.818 1392.2131,-159.1418 1381.7175,-160.5887 1384.9106,-166.818"/>
</g>
<!-- Node26 -->
<g id="node27" class="node">
<title>Node26</title>
<g id="a_node27"><a xlink:href="drake__throw_8h.html" target="_top" xlink:title="Provides a convenient wrapper to throw an exception when a condition is unmet.">
<polygon fill="#ffffff" stroke="#000000" points="2488.5,-134.5 2488.5,-164.5 2609.5,-164.5 2609.5,-134.5 2488.5,-134.5"/>
<text text-anchor="start" x="2496.5" y="-152.5" font-family="Helvetica,sans-Serif" font-size="10.00" fill="#000000">drake/common/drake</text>
<text text-anchor="middle" x="2549" y="-141.5" font-family="Helvetica,sans-Serif" font-size="10.00" fill="#000000">_throw.h</text>
</a>
</g>
</g>
<!-- Node20&#45;&gt;Node26 -->
<g id="edge37" class="edge">
<title>Node20&#45;&gt;Node26</title>
<path fill="none" stroke="#191970" d="M1035.6028,-214.358C1289.0091,-205.6636 2231.4815,-173.0891 2365,-165 2402.2637,-162.7424 2443.7003,-159.3313 2477.8024,-156.2834"/>
<polygon fill="#191970" stroke="#191970" points="2478.4926,-159.7354 2488.1376,-155.3508 2477.8634,-152.7637 2478.4926,-159.7354"/>
</g>
<!-- Node26&#45;&gt;Node18 -->
<g id="edge39" class="edge">
<title>Node26&#45;&gt;Node18</title>
<path fill="none" stroke="#191970" d="M2573.2373,-134.4639C2588.1399,-125.2188 2607.4406,-113.2452 2623.7583,-103.1222"/>
<polygon fill="#191970" stroke="#191970" points="2625.8174,-105.9636 2632.4699,-97.7177 2622.1272,-100.0153 2625.8174,-105.9636"/>
</g>
<!-- Node26&#45;&gt;Node19 -->
<g id="edge38" class="edge">
<title>Node26&#45;&gt;Node19</title>
<path fill="none" stroke="#191970" d="M2553.4488,-134.2349C2559.1247,-116.6454 2570.2581,-87.5318 2587,-67 2598.9666,-52.3245 2616.0248,-39.6603 2630.3058,-30.5626"/>
<polygon fill="#191970" stroke="#191970" points="2632.506,-33.3195 2639.208,-25.1138 2628.8516,-27.3491 2632.506,-33.3195"/>
</g>
<!-- Node27&#45;&gt;Node2 -->
<g id="edge46" class="edge">
<title>Node27&#45;&gt;Node2</title>
<path fill="none" stroke="#191970" d="M1526.1974,-268.4442C1538.9169,-239.1331 1570.5582,-173.8004 1615,-134 1636.2483,-114.9708 1665.7961,-101.3179 1688.1356,-92.871"/>
<polygon fill="#191970" stroke="#191970" points="1689.6274,-96.0533 1697.8368,-89.3558 1687.2426,-89.472 1689.6274,-96.0533"/>
</g>
<!-- Node27&#45;&gt;Node8 -->
<g id="edge49" class="edge">
<title>Node27&#45;&gt;Node8</title>
<path fill="none" stroke="#191970" d="M1573.8441,-298.5446C1607.9755,-308.8684 1651.0669,-322.4207 1680.8714,-332.221"/>
<polygon fill="#191970" stroke="#191970" points="1679.8441,-335.5677 1690.4375,-335.3906 1682.0459,-328.9229 1679.8441,-335.5677"/>
</g>
<!-- Node27&#45;&gt;Node10 -->
<g id="edge41" class="edge">
<title>Node27&#45;&gt;Node10</title>
<path fill="none" stroke="#191970" d="M1486.4056,-268.4145C1467.5139,-259.183 1443.9852,-246.3959 1425,-232 1399.3155,-212.5242 1374.1868,-184.7719 1359.1423,-166.9467"/>
<polygon fill="#191970" stroke="#191970" points="1361.6881,-164.5337 1352.6087,-159.0734 1356.3013,-169.0039 1361.6881,-164.5337"/>
</g>
<!-- Node27&#45;&gt;Node11 -->
<g id="edge42" class="edge">
<title>Node27&#45;&gt;Node11</title>
<path fill="none" stroke="#191970" d="M1535.4493,-268.389C1561.308,-243.0965 1613.1552,-192.3847 1640.0083,-166.1196"/>
<polygon fill="#191970" stroke="#191970" points="1642.4792,-168.5987 1647.1808,-159.1042 1637.5845,-163.5944 1642.4792,-168.5987"/>
</g>
<!-- Node27&#45;&gt;Node13 -->
<g id="edge44" class="edge">
<title>Node27&#45;&gt;Node13</title>
<path fill="none" stroke="#191970" d="M1507.0658,-268.2967C1498.3574,-258.0605 1486.852,-244.5366 1477.7814,-233.8746"/>
<polygon fill="#191970" stroke="#191970" points="1480.2745,-231.4036 1471.1289,-226.055 1474.9429,-235.9395 1480.2745,-231.4036"/>
</g>
<!-- Node27&#45;&gt;Node14 -->
<g id="edge47" class="edge">
<title>Node27&#45;&gt;Node14</title>
<path fill="none" stroke="#191970" d="M1588.7657,-270.1764C1593.5752,-269.393 1598.3555,-268.6576 1603,-268 1767.2436,-244.7452 1961.5727,-228.8222 2063.5026,-221.3543"/>
<polygon fill="#191970" stroke="#191970" points="2063.9527,-224.8309 2073.6726,-220.6148 2063.445,-217.8493 2063.9527,-224.8309"/>
</g>
<!-- Node27&#45;&gt;Node20 -->
<g id="edge48" class="edge">
<title>Node27&#45;&gt;Node20</title>
<path fill="none" stroke="#191970" d="M1451.3205,-273.7777C1437.0108,-271.8131 1422.0184,-269.7997 1408,-268 1280.6635,-251.6526 1132.1049,-234.4702 1045.6867,-224.6629"/>
<polygon fill="#191970" stroke="#191970" points="1046.0498,-221.1817 1035.7192,-223.5331 1045.2614,-228.1372 1046.0498,-221.1817"/>
</g>
<!-- Node27&#45;&gt;Node25 -->
<g id="edge45" class="edge">
<title>Node27&#45;&gt;Node25</title>
<path fill="none" stroke="#191970" d="M1519.8884,-268.2421C1519.0112,-250.3927 1515.1468,-220.7719 1500,-201 1482.9039,-178.6836 1453.2496,-164.7713 1431.8129,-157.1158"/>
<polygon fill="#191970" stroke="#191970" points="1432.9228,-153.7965 1422.3289,-153.9408 1430.7005,-160.4344 1432.9228,-153.7965"/>
</g>
<!-- Node28 -->
<g id="node29" class="node">
<title>Node28</title>
<g id="a_node29"><a xlink:title=" ">
<polygon fill="#ffffff" stroke="#bfbfbf" points="2212.5,-207 2212.5,-226 2295.5,-226 2295.5,-207 2212.5,-207"/>
<text text-anchor="middle" x="2254" y="-214" font-family="Helvetica,sans-Serif" font-size="10.00" fill="#000000">initializer_list</text>
</a>
</g>
</g>
<!-- Node27&#45;&gt;Node28 -->
<g id="edge43" class="edge">
<title>Node27&#45;&gt;Node28</title>
<path fill="none" stroke="#191970" d="M1588.7398,-269.9801C1593.5555,-269.2434 1598.3442,-268.5721 1603,-268 1868.1517,-235.4162 1940.0506,-279.1671 2203,-232 2207.5287,-231.1877 2212.222,-230.1062 2216.8452,-228.8908"/>
<polygon fill="#191970" stroke="#191970" points="2218.1026,-232.172 2226.7628,-226.0686 2216.1867,-225.4393 2218.1026,-232.172"/>
</g>
<!-- Node29&#45;&gt;Node2 -->
<g id="edge53" class="edge">
<title>Node29&#45;&gt;Node2</title>
<path fill="none" stroke="#191970" d="M2279.586,-268.473C2324.0492,-240.5753 2406.9958,-179.4827 2365,-134 2343.9888,-111.2443 1880.3583,-89.4697 1752.434,-83.8786"/>
<polygon fill="#191970" stroke="#191970" points="1752.2657,-80.3681 1742.1234,-83.4313 1751.9623,-87.3615 1752.2657,-80.3681"/>
</g>
<!-- Node29&#45;&gt;Node3 -->
<g id="edge54" class="edge">
<title>Node29&#45;&gt;Node3</title>
<path fill="none" stroke="#191970" d="M2312.1247,-268.4639C2358.7541,-256.4015 2423.3382,-239.6944 2466.5623,-228.5128"/>
<polygon fill="#191970" stroke="#191970" points="2467.4509,-231.8983 2476.2557,-226.0053 2465.6978,-225.1213 2467.4509,-231.8983"/>
</g>
<!-- Node29&#45;&gt;Node7 -->
<g id="edge55" class="edge">
<title>Node29&#45;&gt;Node7</title>
<path fill="none" stroke="#191970" d="M2284.9016,-268.4797C2324.0697,-250.0218 2394.0775,-218.9504 2457,-201 2548.0618,-175.022 2584.3229,-211.1693 2667,-165 2711.3878,-140.2126 2760.7663,-104.0944 2726,-67 2713.6891,-53.8647 2194.65,-27.9596 2002.5386,-18.8021"/>
<polygon fill="#191970" stroke="#191970" points="2002.7002,-15.3059 1992.5452,-18.3268 2002.3676,-22.298 2002.7002,-15.3059"/>
</g>
<!-- Node29&#45;&gt;Node8 -->
<g id="edge60" class="edge">
<title>Node29&#45;&gt;Node8</title>
<path fill="none" stroke="#191970" d="M2185.293,-291.9042C2086.6259,-303.4739 1905.1994,-324.2175 1799.1171,-336.0619"/>
<polygon fill="#191970" stroke="#191970" points="1798.6421,-332.5931 1789.0916,-337.1798 1799.4179,-339.55 1798.6421,-332.5931"/>
</g>
<!-- Node29&#45;&gt;Node13 -->
<g id="edge52" class="edge">
<title>Node29&#45;&gt;Node13</title>
<path fill="none" stroke="#191970" d="M2185.4006,-278.4508C2068.3452,-269.7276 1822.5413,-250.9431 1615,-232 1576.4833,-228.4844 1532.5327,-223.9453 1501.8331,-220.689"/>
<polygon fill="#191970" stroke="#191970" points="1501.872,-217.1734 1491.5575,-219.5945 1501.1305,-224.1341 1501.872,-217.1734"/>
</g>
<!-- Node29&#45;&gt;Node14 -->
<g id="edge56" class="edge">
<title>Node29&#45;&gt;Node14</title>
<path fill="none" stroke="#191970" d="M2227.0697,-268.4639C2210.2812,-259.0903 2188.4694,-246.9121 2170.1817,-236.7015"/>
<polygon fill="#191970" stroke="#191970" points="2171.6932,-233.5368 2161.2556,-231.7177 2168.2807,-239.6487 2171.6932,-233.5368"/>
</g>
<!-- Node29&#45;&gt;Node28 -->
<g id="edge51" class="edge">
<title>Node29&#45;&gt;Node28</title>
<path fill="none" stroke="#191970" d="M2254,-268.2967C2254,-258.7699 2254,-246.3954 2254,-236.1306"/>
<polygon fill="#191970" stroke="#191970" points="2257.5001,-236.0549 2254,-226.055 2250.5001,-236.055 2257.5001,-236.0549"/>
</g>
<!-- Node30 -->
<g id="node31" class="node">
<title>Node30</title>
<g id="a_node31"><a xlink:href="random_8h.html" target="_top" xlink:title=" ">
<polygon fill="#ffffff" stroke="#000000" points="2904,-207 2904,-226 3044,-226 3044,-207 2904,-207"/>
<text text-anchor="middle" x="2974" y="-214" font-family="Helvetica,sans-Serif" font-size="10.00" fill="#000000">drake/common/random.h</text>
</a>
</g>
</g>
<!-- Node29&#45;&gt;Node30 -->
<g id="edge57" class="edge">
<title>Node29&#45;&gt;Node30</title>
<path fill="none" stroke="#191970" d="M2322.7105,-277.1061C2456.4965,-264.6566 2751.2928,-237.2241 2893.779,-223.965"/>
<polygon fill="#191970" stroke="#191970" points="2894.1378,-227.4468 2903.7705,-223.0352 2893.4892,-220.4769 2894.1378,-227.4468"/>
</g>
<!-- Node30&#45;&gt;Node7 -->
<g id="edge59" class="edge">
<title>Node30&#45;&gt;Node7</title>
<path fill="none" stroke="#191970" d="M2964.7867,-206.7912C2937.5789,-178.8699 2853.9668,-98.3584 2766,-67 2730.3208,-54.2811 2197.5892,-28.0298 2002.7168,-18.7984"/>
<polygon fill="#191970" stroke="#191970" points="2002.7399,-15.2956 1992.5857,-18.3194 2002.4092,-22.2878 2002.7399,-15.2956"/>
</g>
<!-- Node31 -->
<g id="node32" class="node">
<title>Node31</title>
<g id="a_node32"><a xlink:title=" ">
<polygon fill="#ffffff" stroke="#bfbfbf" points="3012,-140 3012,-159 3066,-159 3066,-140 3012,-140"/>
<text text-anchor="middle" x="3039" y="-147" font-family="Helvetica,sans-Serif" font-size="10.00" fill="#000000">random</text>
</a>
</g>
</g>
<!-- Node30&#45;&gt;Node31 -->
<g id="edge58" class="edge">
<title>Node30&#45;&gt;Node31</title>
<path fill="none" stroke="#191970" d="M2983.3129,-206.9005C2993.5456,-196.353 3010.1772,-179.2096 3022.6046,-166.3998"/>
<polygon fill="#191970" stroke="#191970" points="3025.2533,-168.6962 3029.7044,-159.0817 3020.2291,-163.822 3025.2533,-168.6962"/>
</g>
<!-- Node32&#45;&gt;Node2 -->
<g id="edge70" class="edge">
<title>Node32&#45;&gt;Node2</title>
<path fill="none" stroke="#191970" d="M2861.2737,-268.4183C2865.5037,-249.8971 2869.1377,-218.7604 2852,-201 2794.1763,-141.0752 2560.4897,-182.1464 2479,-165 2435.9516,-155.9421 2428.1322,-142.6501 2385,-134 2261.5512,-109.2426 1867.9818,-89.3846 1752.2819,-83.9668"/>
<polygon fill="#191970" stroke="#191970" points="1752.4267,-80.4698 1742.275,-83.5019 1752.1018,-87.4623 1752.4267,-80.4698"/>
</g>
<!-- Node32&#45;&gt;Node3 -->
<g id="edge72" class="edge">
<title>Node32&#45;&gt;Node3</title>
<path fill="none" stroke="#191970" d="M2788.2651,-273.0552C2729.6895,-263.7141 2643.4187,-248.9142 2569,-232 2564.5642,-230.9918 2559.9535,-229.8579 2555.3672,-228.6738"/>
<polygon fill="#191970" stroke="#191970" points="2556.0073,-225.2223 2545.4434,-226.0307 2554.2057,-231.9865 2556.0073,-225.2223"/>
</g>
<!-- Node32&#45;&gt;Node4 -->
<g id="edge74" class="edge">
<title>Node32&#45;&gt;Node4</title>
<path fill="none" stroke="#191970" d="M2853.2373,-268.3021C2847.5955,-249.0472 2834.9525,-216.5071 2811,-201 2733.6663,-150.9335 2482.0983,-202.6117 2398,-165 2379.6304,-156.7844 2383.573,-141.7447 2365,-134 2298.4693,-106.2574 1177.58,-86.5068 967.7088,-83.0429"/>
<polygon fill="#191970" stroke="#191970" points="967.6544,-79.5417 957.5983,-82.8771 967.5395,-86.5407 967.6544,-79.5417"/>
</g>
<!-- Node32&#45;&gt;Node5 -->
<g id="edge75" class="edge">
<title>Node32&#45;&gt;Node5</title>
<path fill="none" stroke="#191970" d="M2789.6965,-268.4001C2760.8352,-260.1963 2727.5063,-248.3226 2700,-232 2682.6945,-221.7307 2685.6393,-208.5839 2667,-201 2567.8209,-160.6465 845.9243,-180.6501 740,-165 734.541,-164.1934 728.8575,-163.0056 723.305,-161.6402"/>
<polygon fill="#191970" stroke="#191970" points="724.0926,-158.228 713.5285,-159.0349 722.29,-164.992 724.0926,-158.228"/>
</g>
<!-- Node32&#45;&gt;Node6 -->
<g id="edge76" class="edge">
<title>Node32&#45;&gt;Node6</title>
<path fill="none" stroke="#191970" d="M2802.327,-268.404C2765.4803,-258.1997 2715.7919,-244.3801 2672,-232 2668.41,-230.9851 2664.6872,-229.9274 2660.9515,-228.8625"/>
<polygon fill="#191970" stroke="#191970" points="2661.692,-225.434 2651.1151,-226.0507 2659.768,-232.1644 2661.692,-225.434"/>
</g>
<!-- Node32&#45;&gt;Node7 -->
<g id="edge82" class="edge">
<title>Node32&#45;&gt;Node7</title>
<path fill="none" stroke="#191970" d="M2925.6144,-274.2801C3029.6608,-260.2208 3215.6114,-234.7535 3218,-232 3236.2987,-210.9056 3208.6656,-147.2072 3198,-134 3159.1343,-85.8728 3135.5599,-83.7148 3076,-67 3063.0264,-63.3591 2250.92,-28.9228 2003.0532,-18.4845"/>
<polygon fill="#191970" stroke="#191970" points="2002.8641,-14.9736 1992.7257,-18.0498 2002.5696,-21.9674 2002.8641,-14.9736"/>
</g>
<!-- Node32&#45;&gt;Node8 -->
<g id="edge102" class="edge">
<title>Node32&#45;&gt;Node8</title>
<path fill="none" stroke="#191970" d="M2788.4745,-287.3822C2589.9061,-298.3158 2014.9316,-329.3097 1799.1098,-340.7172"/>
<polygon fill="#191970" stroke="#191970" points="1798.9084,-337.2229 1789.107,-341.2455 1799.2777,-344.2131 1798.9084,-337.2229"/>
</g>
<!-- Node32&#45;&gt;Node10 -->
<g id="edge63" class="edge">
<title>Node32&#45;&gt;Node10</title>
<path fill="none" stroke="#191970" d="M2831.681,-268.4649C2815.449,-258.5685 2794.1047,-245.0709 2776,-232 2758.3283,-219.2418 2758.4338,-208.5844 2738,-201 2596.5955,-148.5148 1528.3083,-197.407 1381,-165 1378.35,-164.417 1375.6521,-163.6396 1372.9856,-162.7424"/>
<polygon fill="#191970" stroke="#191970" points="1374.1958,-159.4578 1363.6069,-159.1023 1371.6629,-165.9835 1374.1958,-159.4578"/>
</g>
<!-- Node32&#45;&gt;Node11 -->
<g id="edge64" class="edge">
<title>Node32&#45;&gt;Node11</title>
<path fill="none" stroke="#191970" d="M2847.4359,-268.2532C2834.1454,-248.6219 2808.0697,-215.3323 2776,-201 2750.9801,-189.8183 1902.0478,-158.3852 1699.8924,-151.046"/>
<polygon fill="#191970" stroke="#191970" points="1699.791,-147.5401 1689.6708,-150.6754 1699.5374,-154.5355 1699.791,-147.5401"/>
</g>
<!-- Node32&#45;&gt;Node12 -->
<g id="edge67" class="edge">
<title>Node32&#45;&gt;Node12</title>
<path fill="none" stroke="#191970" d="M2925.6982,-274.3243C3024.5237,-260.9651 3195.5368,-237.1834 3200,-232 3221.4399,-207.1007 3184.0535,-143.9716 3174,-134 3147.8632,-108.0762 3107.3807,-94.9761 3077.3729,-88.5017"/>
<polygon fill="#191970" stroke="#191970" points="3077.7281,-85.0036 3067.2363,-86.4778 3076.3574,-91.8681 3077.7281,-85.0036"/>
</g>
<!-- Node32&#45;&gt;Node13 -->
<g id="edge68" class="edge">
<title>Node32&#45;&gt;Node13</title>
<path fill="none" stroke="#191970" d="M2788.2607,-281.1962C2562.6446,-273.5486 1845.9992,-248.5521 1615,-232 1576.4221,-229.2357 1532.48,-224.5921 1501.7991,-221.1066"/>
<polygon fill="#191970" stroke="#191970" points="1501.8645,-217.5912 1491.5304,-219.927 1501.0656,-224.5455 1501.8645,-217.5912"/>
</g>
<!-- Node32&#45;&gt;Node14 -->
<g id="edge86" class="edge">
<title>Node32&#45;&gt;Node14</title>
<path fill="none" stroke="#191970" d="M2788.3739,-281.3104C2670.6671,-276.8504 2422.6578,-264.3781 2204.1681,-232.0387"/>
<polygon fill="#191970" stroke="#191970" points="2204.5236,-228.553 2194.1155,-230.5335 2203.4869,-235.4758 2204.5236,-228.553"/>
</g>
<!-- Node32&#45;&gt;Node15 -->
<g id="edge73" class="edge">
<title>Node32&#45;&gt;Node15</title>
<path fill="none" stroke="#191970" d="M2925.6774,-274.1549C2941.2325,-272.0851 2957.6799,-269.9335 2973,-268 3040.2732,-259.5095 3230.9704,-282.6963 3276,-232 3292.4474,-213.4827 3303.7758,-113.9309 3250,-67 3248.9323,-66.0682 2527.7315,-26.3697 2363.1599,-17.3222"/>
<polygon fill="#191970" stroke="#191970" points="2362.89,-13.8021 2352.7129,-16.7479 2362.5057,-20.7916 2362.89,-13.8021"/>
</g>
<!-- Node32&#45;&gt;Node18 -->
<g id="edge81" class="edge">
<title>Node32&#45;&gt;Node18</title>
<path fill="none" stroke="#191970" d="M2925.7223,-273.2843C3007.5338,-260.7937 3134.0749,-240.2939 3141,-232 3149.8305,-221.4241 3146.2246,-213.7487 3141,-201 3125.1495,-162.3229 3112.4958,-152.4724 3075,-134 3015.5506,-104.7121 2830.7044,-91.0793 2727.8577,-85.616"/>
<polygon fill="#191970" stroke="#191970" points="2727.7278,-82.1046 2717.5599,-85.0817 2727.3651,-89.0952 2727.7278,-82.1046"/>
</g>
<!-- Node32&#45;&gt;Node19 -->
<g id="edge71" class="edge">
<title>Node32&#45;&gt;Node19</title>
<path fill="none" stroke="#191970" d="M2925.5757,-273.1831C2941.1362,-271.1637 2957.6114,-269.2783 2973,-268 3033.5466,-262.9704 4023.7526,-275.6618 4066,-232 4075.5807,-222.0986 4071.6699,-213.557 4066,-201 3992.3034,-37.785 3863.4892,-90.8306 3686,-67 3491.4112,-40.8735 2873.8654,-21.6845 2701.8562,-16.7472"/>
<polygon fill="#191970" stroke="#191970" points="2701.7417,-13.2426 2691.646,-16.4558 2701.542,-20.2397 2701.7417,-13.2426"/>
</g>
<!-- Node32&#45;&gt;Node20 -->
<g id="edge100" class="edge">
<title>Node32&#45;&gt;Node20</title>
<path fill="none" stroke="#191970" d="M2788.2748,-281.056C2494.7806,-270.6185 1347.7466,-229.827 1046.0407,-219.0975"/>
<polygon fill="#191970" stroke="#191970" points="1045.7856,-215.5863 1035.6675,-218.7286 1045.5368,-222.5819 1045.7856,-215.5863"/>
</g>
<!-- Node32&#45;&gt;Node23 -->
<g id="edge66" class="edge">
<title>Node32&#45;&gt;Node23</title>
<path fill="none" stroke="#191970" d="M2814.5753,-268.4394C2791.2096,-259.3429 2762.1389,-246.6793 2738,-232 2719.3772,-220.6752 2720.4567,-208.5222 2700,-201 2608.1585,-167.2286 1036.7035,-170.4201 939,-165 889.1805,-162.2363 831.4045,-156.4602 797.3752,-152.7925"/>
<polygon fill="#191970" stroke="#191970" points="797.5221,-149.2878 787.2014,-151.6822 796.7627,-156.2465 797.5221,-149.2878"/>
</g>
<!-- Node32&#45;&gt;Node26 -->
<g id="edge83" class="edge">
<title>Node32&#45;&gt;Node26</title>
<path fill="none" stroke="#191970" d="M2925.5201,-274.4529C2975.56,-266.2763 3037.2887,-252.3729 3053,-232 3061.4139,-221.0897 3062.2339,-211.2255 3053,-201 3024.5256,-169.4678 2751.9301,-156.1966 2619.9353,-151.5837"/>
<polygon fill="#191970" stroke="#191970" points="2620.0261,-148.0848 2609.9122,-151.2406 2619.7865,-155.0807 2620.0261,-148.0848"/>
</g>
<!-- Node32&#45;&gt;Node30 -->
<g id="edge101" class="edge">
<title>Node32&#45;&gt;Node30</title>
<path fill="none" stroke="#191970" d="M2883.2571,-268.4639C2902.7113,-257.3234 2929.0839,-242.2212 2948.3839,-231.1691"/>
<polygon fill="#191970" stroke="#191970" points="2950.2904,-234.1106 2957.229,-226.1039 2946.8118,-228.0361 2950.2904,-234.1106"/>
</g>
<!-- Node32&#45;&gt;Node31 -->
<g id="edge69" class="edge">
<title>Node32&#45;&gt;Node31</title>
<path fill="none" stroke="#191970" d="M2925.6691,-272.4761C3002.6469,-259.7896 3117.6322,-239.7134 3124,-232 3145.6276,-205.8021 3103.9497,-179.062 3071.661,-163.388"/>
<polygon fill="#191970" stroke="#191970" points="3072.9849,-160.1435 3062.4435,-159.081 3070.0216,-166.4853 3072.9849,-160.1435"/>
</g>
<!-- Node33 -->
<g id="node34" class="node">
<title>Node33</title>
<g id="a_node34"><a xlink:title=" ">
<polygon fill="#ffffff" stroke="#bfbfbf" points="1624,-207 1624,-226 1688,-226 1688,-207 1624,-207"/>
<text text-anchor="middle" x="1656" y="-214" font-family="Helvetica,sans-Serif" font-size="10.00" fill="#000000">algorithm</text>
</a>
</g>
</g>
<!-- Node32&#45;&gt;Node33 -->
<g id="edge62" class="edge">
<title>Node32&#45;&gt;Node33</title>
<path fill="none" stroke="#191970" d="M2788.2671,-281.6791C2577.2472,-275.8778 1940.578,-256.7477 1735,-232 1722.9794,-230.5529 1710.0483,-228.3104 1698.1993,-225.9765"/>
<polygon fill="#191970" stroke="#191970" points="1698.6129,-222.4889 1688.1151,-223.9196 1697.2139,-229.3477 1698.6129,-222.4889"/>
</g>
<!-- Node34 -->
<g id="node35" class="node">
<title>Node34</title>
<g id="a_node35"><a xlink:title=" ">
<polygon fill="#ffffff" stroke="#bfbfbf" points="3302,-140 3302,-159 3346,-159 3346,-140 3302,-140"/>
<text text-anchor="middle" x="3324" y="-147" font-family="Helvetica,sans-Serif" font-size="10.00" fill="#000000">limits</text>
</a>
</g>
</g>
<!-- Node32&#45;&gt;Node34 -->
<g id="edge65" class="edge">
<title>Node32&#45;&gt;Node34</title>
<path fill="none" stroke="#191970" d="M2925.6591,-274.0063C2941.2152,-271.9442 2957.6676,-269.8333 2973,-268 3048.6599,-258.9531 3259.7049,-285.4632 3314,-232 3330.4141,-215.8374 3330.2435,-187.7442 3327.7907,-168.8895"/>
<polygon fill="#191970" stroke="#191970" points="3331.2454,-168.3271 3326.191,-159.0156 3324.3355,-169.4467 3331.2454,-168.3271"/>
</g>
<!-- Node35 -->
<g id="node36" class="node">
<title>Node35</title>
<g id="a_node36"><a xlink:href="cond_8h.html" target="_top" xlink:title=" ">
<polygon fill="#ffffff" stroke="#000000" points="3515.5,-207 3515.5,-226 3640.5,-226 3640.5,-207 3515.5,-207"/>
<text text-anchor="middle" x="3578" y="-214" font-family="Helvetica,sans-Serif" font-size="10.00" fill="#000000">drake/common/cond.h</text>
</a>
</g>
</g>
<!-- Node32&#45;&gt;Node35 -->
<g id="edge77" class="edge">
<title>Node32&#45;&gt;Node35</title>
<path fill="none" stroke="#191970" d="M2925.6117,-273.5752C2941.1703,-271.5355 2957.6357,-269.5427 2973,-268 3209.6819,-244.2349 3271.4928,-265.4585 3507,-232 3514.2137,-230.9751 3521.7859,-229.6239 3529.1878,-228.1457"/>
<polygon fill="#191970" stroke="#191970" points="3530.0528,-231.5406 3539.126,-226.0699 3528.6216,-224.6885 3530.0528,-231.5406"/>
</g>
<!-- Node37 -->
<g id="node38" class="node">
<title>Node37</title>
<g id="a_node38"><a xlink:href="dummy__value_8h.html" target="_top" xlink:title=" ">
<polygon fill="#ffffff" stroke="#000000" points="3366.5,-201.5 3366.5,-231.5 3497.5,-231.5 3497.5,-201.5 3366.5,-201.5"/>
<text text-anchor="start" x="3374.5" y="-219.5" font-family="Helvetica,sans-Serif" font-size="10.00" fill="#000000">drake/common/dummy</text>
<text text-anchor="middle" x="3432" y="-208.5" font-family="Helvetica,sans-Serif" font-size="10.00" fill="#000000">_value.h</text>
</a>
</g>
</g>
<!-- Node32&#45;&gt;Node37 -->
<g id="edge84" class="edge">
<title>Node32&#45;&gt;Node37</title>
<path fill="none" stroke="#191970" d="M2925.6452,-273.8871C2941.202,-271.8312 2957.6582,-269.753 2973,-268 3141.1088,-248.7916 3184.5254,-256.1204 3352,-232 3353.2996,-231.8128 3354.6102,-231.6188 3355.9291,-231.4188"/>
<polygon fill="#191970" stroke="#191970" points="3356.8441,-234.8169 3366.1644,-229.7787 3355.7365,-227.9051 3356.8441,-234.8169"/>
</g>
<!-- Node38 -->
<g id="node39" class="node">
<title>Node38</title>
<g id="a_node39"><a xlink:href="extract__double_8h.html" target="_top" xlink:title=" ">
<polygon fill="#ffffff" stroke="#000000" points="3697,-201.5 3697,-231.5 3825,-231.5 3825,-201.5 3697,-201.5"/>
<text text-anchor="start" x="3705" y="-219.5" font-family="Helvetica,sans-Serif" font-size="10.00" fill="#000000">drake/common/extract</text>
<text text-anchor="middle" x="3761" y="-208.5" font-family="Helvetica,sans-Serif" font-size="10.00" fill="#000000">_double.h</text>
</a>
</g>
</g>
<!-- Node32&#45;&gt;Node38 -->
<g id="edge87" class="edge">
<title>Node32&#45;&gt;Node38</title>
<path fill="none" stroke="#191970" d="M2925.5961,-273.4135C2941.1554,-271.3822 2957.6251,-269.4337 2973,-268 3273.0125,-240.0242 3350.0715,-260.862 3650,-232 3661.8782,-230.857 3674.4356,-229.372 3686.6651,-227.7746"/>
<polygon fill="#191970" stroke="#191970" points="3687.3921,-231.2086 3696.8386,-226.4114 3686.4623,-224.2706 3687.3921,-231.2086"/>
</g>
<!-- Node35&#45;&gt;Node11 -->
<g id="edge78" class="edge">
<title>Node35&#45;&gt;Node11</title>
<path fill="none" stroke="#191970" d="M3540.642,-206.9567C3529.8566,-204.5802 3518.0225,-202.3323 3507,-201 3197.1526,-163.5487 2414.9604,-174.4201 2103,-165 1954.9565,-160.5296 1779.3119,-154.0924 1699.8418,-151.1187"/>
<polygon fill="#191970" stroke="#191970" points="1699.8546,-147.6168 1689.7304,-150.7396 1699.5922,-154.6119 1699.8546,-147.6168"/>
</g>
<!-- Node35&#45;&gt;Node19 -->
<g id="edge79" class="edge">
<title>Node35&#45;&gt;Node19</title>
<path fill="none" stroke="#191970" d="M3630.564,-206.951C3654.4941,-199.6953 3680.63,-187.0258 3695,-165 3720.7981,-125.4577 3694.5773,-91.1375 3654,-67 3612.5857,-42.3646 2890.5372,-21.6616 2701.8251,-16.6542"/>
<polygon fill="#191970" stroke="#191970" points="2701.791,-13.1522 2691.7021,-16.3871 2701.6063,-20.1498 2701.791,-13.1522"/>
</g>
<!-- Node36 -->
<g id="node37" class="node">
<title>Node36</title>
<g id="a_node37"><a xlink:href="double__overloads_8h.html" target="_top" xlink:title="Provides necessary operations on double to have it as a ScalarType in drake.">
<polygon fill="#ffffff" stroke="#000000" points="3364,-134.5 3364,-164.5 3490,-164.5 3490,-134.5 3364,-134.5"/>
<text text-anchor="start" x="3372" y="-152.5" font-family="Helvetica,sans-Serif" font-size="10.00" fill="#000000">drake/common/double</text>
<text text-anchor="middle" x="3427" y="-141.5" font-family="Helvetica,sans-Serif" font-size="10.00" fill="#000000">_overloads.h</text>
</a>
</g>
</g>
<!-- Node35&#45;&gt;Node36 -->
<g id="edge80" class="edge">
<title>Node35&#45;&gt;Node36</title>
<path fill="none" stroke="#191970" d="M3556.3654,-206.9005C3533.9459,-196.9528 3498.304,-181.1382 3470.1035,-168.6254"/>
<polygon fill="#191970" stroke="#191970" points="3471.4152,-165.3784 3460.855,-164.5218 3468.5761,-171.7768 3471.4152,-165.3784"/>
</g>
<!-- Node37&#45;&gt;Node34 -->
<g id="edge85" class="edge">
<title>Node37&#45;&gt;Node34</title>
<path fill="none" stroke="#191970" d="M3407.7627,-201.4639C3389.9682,-190.4247 3365.9031,-175.4954 3348.1331,-164.4715"/>
<polygon fill="#191970" stroke="#191970" points="3349.8237,-161.4015 3339.4809,-159.1039 3346.1335,-167.3498 3349.8237,-161.4015"/>
</g>
<!-- Node39 -->
<g id="node40" class="node">
<title>Node39</title>
<g id="a_node40"><a xlink:title=" ">
<polygon fill="#ffffff" stroke="#bfbfbf" points="3742.5,-140 3742.5,-159 3807.5,-159 3807.5,-140 3742.5,-140"/>
<text text-anchor="middle" x="3775" y="-147" font-family="Helvetica,sans-Serif" font-size="10.00" fill="#000000">stdexcept</text>
</a>
</g>
</g>
<!-- Node38&#45;&gt;Node39 -->
<g id="edge88" class="edge">
<title>Node38&#45;&gt;Node39</title>
<path fill="none" stroke="#191970" d="M3764.1768,-201.2967C3766.1675,-191.7699 3768.7532,-179.3954 3770.8981,-169.1306"/>
<polygon fill="#191970" stroke="#191970" points="3774.384,-169.5595 3773.0034,-159.055 3767.532,-168.1277 3774.384,-169.5595"/>
</g>
<!-- Node40 -->
<g id="node41" class="node">
<title>Node40</title>
<g id="a_node41"><a xlink:href="nice__type__name_8h.html" target="_top" xlink:title=" ">
<polygon fill="#ffffff" stroke="#000000" points="3546,-134.5 3546,-164.5 3686,-164.5 3686,-134.5 3546,-134.5"/>
<text text-anchor="start" x="3554" y="-152.5" font-family="Helvetica,sans-Serif" font-size="10.00" fill="#000000">drake/common/nice_type</text>
<text text-anchor="middle" x="3616" y="-141.5" font-family="Helvetica,sans-Serif" font-size="10.00" fill="#000000">_name.h</text>
</a>
</g>
</g>
<!-- Node38&#45;&gt;Node40 -->
<g id="edge89" class="edge">
<title>Node38&#45;&gt;Node40</title>
<path fill="none" stroke="#191970" d="M3728.4592,-201.4639C3707.6369,-191.8426 3680.4196,-179.2663 3657.9764,-168.896"/>
<polygon fill="#191970" stroke="#191970" points="3659.2286,-165.6191 3648.6828,-164.6017 3656.2924,-171.9735 3659.2286,-165.6191"/>
</g>
<!-- Node40&#45;&gt;Node2 -->
<g id="edge91" class="edge">
<title>Node40&#45;&gt;Node2</title>
<path fill="none" stroke="#191970" d="M3545.9041,-139.0211C3530.4843,-137.0495 3514.2158,-135.2249 3499,-134 3140.4615,-105.1379 1962.5838,-86.1764 1752.2783,-82.9801"/>
<polygon fill="#191970" stroke="#191970" points="1752.2473,-79.4793 1742.1955,-82.8277 1752.1414,-86.4785 1752.2473,-79.4793"/>
</g>
<!-- Node40&#45;&gt;Node4 -->
<g id="edge94" class="edge">
<title>Node40&#45;&gt;Node4</title>
<path fill="none" stroke="#191970" d="M3545.9122,-138.9172C3530.4919,-136.9518 3514.2212,-135.156 3499,-134 2696.7068,-73.07 2493.4393,-114.2574 1689,-98 1410.5217,-92.3721 1074.2696,-85.41 967.9324,-83.2044"/>
<polygon fill="#191970" stroke="#191970" points="967.8721,-79.7025 957.8016,-82.9942 967.7269,-86.701 967.8721,-79.7025"/>
</g>
<!-- Node40&#45;&gt;Node12 -->
<g id="edge90" class="edge">
<title>Node40&#45;&gt;Node12</title>
<path fill="none" stroke="#191970" d="M3545.9415,-136.1469C3541.23,-135.3803 3536.5501,-134.6559 3532,-134 3363.3975,-109.6943 3160.8361,-92.2332 3077.1286,-85.5269"/>
<polygon fill="#191970" stroke="#191970" points="3077.2984,-82.0295 3067.0524,-84.7258 3076.7435,-89.0074 3077.2984,-82.0295"/>
</g>
<!-- Node40&#45;&gt;Node15 -->
<g id="edge93" class="edge">
<title>Node40&#45;&gt;Node15</title>
<path fill="none" stroke="#191970" d="M3545.8779,-136.5371C3541.1817,-135.6763 3536.5226,-134.8243 3532,-134 3443.1464,-117.8054 3415.3302,-132.8325 3332,-98 3309.929,-88.7742 3310.6034,-74.8314 3288,-67 3146.0645,-17.8236 2762.9942,-39.1075 2613,-31 2522.445,-26.1053 2415.5972,-20.2246 2362.851,-17.3146"/>
<polygon fill="#191970" stroke="#191970" points="2362.9205,-13.8132 2352.7428,-16.7567 2362.5347,-20.8025 2362.9205,-13.8132"/>
</g>
<!-- Node41 -->
<g id="node42" class="node">
<title>Node41</title>
<g id="a_node42"><a xlink:title=" ">
<polygon fill="#ffffff" stroke="#bfbfbf" points="3587.5,-73 3587.5,-92 3644.5,-92 3644.5,-73 3587.5,-73"/>
<text text-anchor="middle" x="3616" y="-80" font-family="Helvetica,sans-Serif" font-size="10.00" fill="#000000">typeinfo</text>
</a>
</g>
</g>
<!-- Node40&#45;&gt;Node41 -->
<g id="edge92" class="edge">
<title>Node40&#45;&gt;Node41</title>
<path fill="none" stroke="#191970" d="M3616,-134.2967C3616,-124.7699 3616,-112.3954 3616,-102.1306"/>
<polygon fill="#191970" stroke="#191970" points="3619.5001,-102.0549 3616,-92.055 3612.5001,-102.055 3619.5001,-102.0549"/>
</g>
<!-- Node42 -->
<g id="node43" class="node">
<title>Node42</title>
<g id="a_node43"><a xlink:href="never__destroyed_8h.html" target="_top" xlink:title=" ">
<polygon fill="#ffffff" stroke="#000000" points="3340.5,-67.5 3340.5,-97.5 3461.5,-97.5 3461.5,-67.5 3340.5,-67.5"/>
<text text-anchor="start" x="3348.5" y="-85.5" font-family="Helvetica,sans-Serif" font-size="10.00" fill="#000000">drake/common/never</text>
<text text-anchor="middle" x="3401" y="-74.5" font-family="Helvetica,sans-Serif" font-size="10.00" fill="#000000">_destroyed.h</text>
</a>
</g>
</g>
<!-- Node40&#45;&gt;Node42 -->
<g id="edge95" class="edge">
<title>Node40&#45;&gt;Node42</title>
<path fill="none" stroke="#191970" d="M3567.7498,-134.4639C3535.635,-124.456 3493.2605,-111.2509 3459.2651,-100.657"/>
<polygon fill="#191970" stroke="#191970" points="3460.0491,-97.2354 3449.4606,-97.6017 3457.9665,-103.9184 3460.0491,-97.2354"/>
</g>
<!-- Node42&#45;&gt;Node7 -->
<g id="edge99" class="edge">
<title>Node42&#45;&gt;Node7</title>
<path fill="none" stroke="#191970" d="M3340.461,-75.3846C3312.8991,-72.3773 3279.8373,-69.0933 3250,-67 2827.6247,-37.3667 2721.0738,-47.9577 2298,-31 2195.2772,-26.8826 2076.3524,-21.785 2002.643,-18.5866"/>
<polygon fill="#191970" stroke="#191970" points="2002.6913,-15.0855 1992.5488,-18.1482 2002.3875,-22.0789 2002.6913,-15.0855"/>
</g>
<!-- Node42&#45;&gt;Node15 -->
<g id="edge98" class="edge">
<title>Node42&#45;&gt;Node15</title>
<path fill="none" stroke="#191970" d="M3340.1428,-69.109C3335.3718,-68.3084 3330.616,-67.59 3326,-67 3011.2677,-26.7734 2929.854,-47.6761 2613,-31 2522.4381,-26.2337 2415.5934,-20.2965 2362.8494,-17.3448"/>
<polygon fill="#191970" stroke="#191970" points="2362.9218,-13.8434 2352.7416,-16.7786 2362.5302,-20.8325 2362.9218,-13.8434"/>
</g>
<!-- Node42&#45;&gt;Node19 -->
<g id="edge97" class="edge">
<title>Node42&#45;&gt;Node19</title>
<path fill="none" stroke="#191970" d="M3340.1245,-69.245C3335.3577,-68.4134 3330.6079,-67.6508 3326,-67 3092.4195,-34.0088 2809.7583,-20.9864 2701.8283,-16.9847"/>
<polygon fill="#191970" stroke="#191970" points="2701.7562,-13.4799 2691.6357,-16.6146 2701.5021,-20.4753 2701.7562,-13.4799"/>
</g>
<!-- Node43 -->
<g id="node44" class="node">
<title>Node43</title>
<g id="a_node44"><a xlink:title=" ">
<polygon fill="#ffffff" stroke="#bfbfbf" points="3382.5,-6 3382.5,-25 3419.5,-25 3419.5,-6 3382.5,-6"/>
<text text-anchor="middle" x="3401" y="-13" font-family="Helvetica,sans-Serif" font-size="10.00" fill="#000000">new</text>
</a>
</g>
</g>
<!-- Node42&#45;&gt;Node43 -->
<g id="edge96" class="edge">
<title>Node42&#45;&gt;Node43</title>
<path fill="none" stroke="#191970" d="M3401,-67.2967C3401,-57.7699 3401,-45.3954 3401,-35.1306"/>
<polygon fill="#191970" stroke="#191970" points="3404.5001,-35.0549 3401,-25.055 3397.5001,-35.055 3404.5001,-35.0549"/>
</g>
<!-- Node44&#45;&gt;Node8 -->
<g id="edge107" class="edge">
<title>Node44&#45;&gt;Node8</title>
<path fill="none" stroke="#191970" d="M3928.2112,-231.5164C3841.7349,-251.1375 3676.7799,-284.6782 3534,-299 3191.3023,-333.3749 2108.6184,-342.6107 1799.2554,-344.5536"/>
<polygon fill="#191970" stroke="#191970" points="1798.9937,-341.0551 1789.0156,-344.617 1799.0371,-348.0549 1798.9937,-341.0551"/>
</g>
<!-- Node44&#45;&gt;Node15 -->
<g id="edge105" class="edge">
<title>Node44&#45;&gt;Node15</title>
<path fill="none" stroke="#191970" d="M3986.9056,-201.3367C3983.7365,-169.9907 3971.6059,-98.371 3926,-67 3865.8786,-25.6441 2685.9103,-33.9956 2613,-31 2522.3892,-27.2771 2415.566,-20.881 2362.8379,-17.5903"/>
<polygon fill="#191970" stroke="#191970" points="2362.9329,-14.0895 2352.7333,-16.9563 2362.4945,-21.0757 2362.9329,-14.0895"/>
</g>
<!-- Node44&#45;&gt;Node18 -->
<g id="edge106" class="edge">
<title>Node44&#45;&gt;Node18</title>
<path fill="none" stroke="#191970" d="M3964.5485,-201.3493C3932.6447,-181.66 3873.0958,-148.1311 3817,-134 3640.7738,-89.607 3181.551,-106.102 3000,-98 2905.9736,-93.8039 2797.4523,-88.8875 2728.085,-85.7356"/>
<polygon fill="#191970" stroke="#191970" points="2727.8675,-82.2222 2717.7189,-85.2645 2727.5497,-89.215 2727.8675,-82.2222"/>
</g>
<!-- Node44&#45;&gt;Node39 -->
<g id="edge104" class="edge">
<title>Node44&#45;&gt;Node39</title>
<path fill="none" stroke="#191970" d="M3938.5352,-201.4051C3905.4919,-191.2597 3861.0851,-177.5067 3822,-165 3819.2382,-164.1162 3816.3876,-163.1961 3813.5198,-162.2646"/>
<polygon fill="#191970" stroke="#191970" points="3814.3991,-158.8698 3803.8066,-159.0895 3812.2242,-165.5234 3814.3991,-158.8698"/>
</g>
<!-- Node45&#45;&gt;Node5 -->
<g id="edge109" class="edge">
<title>Node45&#45;&gt;Node5</title>
<path fill="none" stroke="#191970" d="M487.4717,-268.1854C490.0573,-249.719 497.0903,-218.9335 516,-201 534.0146,-183.9153 596.8292,-167.8435 640.5782,-158.3358"/>
<polygon fill="#191970" stroke="#191970" points="641.3743,-161.7449 650.4245,-156.2362 639.9144,-154.8988 641.3743,-161.7449"/>
</g>
<!-- Node46&#45;&gt;Node5 -->
<g id="edge115" class="edge">
<title>Node46&#45;&gt;Node5</title>
<path fill="none" stroke="#191970" d="M797.2881,-274.6565C723.2902,-264.4308 614.4146,-247.0704 602,-232 580.6015,-206.0238 621.6468,-179.122 653.2851,-163.3685"/>
<polygon fill="#191970" stroke="#191970" points="654.8066,-166.5206 662.3102,-159.0408 651.7799,-160.2087 654.8066,-166.5206"/>
</g>
<!-- Node46&#45;&gt;Node7 -->
<g id="edge116" class="edge">
<title>Node46&#45;&gt;Node7</title>
<path fill="none" stroke="#191970" d="M797.2066,-274.1235C780.4664,-271.9774 762.6028,-269.8004 746,-268 700.5357,-263.0699 371.2399,-261.1455 336,-232 278.0105,-184.0392 245.633,-121.0435 298,-67 325.5844,-38.5325 1550.0401,-20.523 1860.8558,-16.4048"/>
<polygon fill="#191970" stroke="#191970" points="1861.1369,-19.9015 1871.0899,-16.2698 1861.0446,-12.9021 1861.1369,-19.9015"/>
</g>
<!-- Node46&#45;&gt;Node8 -->
<g id="edge118" class="edge">
<title>Node46&#45;&gt;Node8</title>
<path fill="none" stroke="#191970" d="M934.5161,-296.3403C940.4319,-297.3506 946.3204,-298.263 952,-299 1198.3127,-330.9621 1491.7066,-340.7492 1632.556,-343.7212"/>
<polygon fill="#191970" stroke="#191970" points="1632.7709,-347.2263 1642.8405,-343.9318 1632.9143,-340.2278 1632.7709,-347.2263"/>
</g>
<!-- Node46&#45;&gt;Node10 -->
<g id="edge111" class="edge">
<title>Node46&#45;&gt;Node10</title>
<path fill="none" stroke="#191970" d="M917.9519,-268.4993C997.4689,-245.549 1141.4361,-204.0388 1153,-201 1219.7266,-183.4652 1238.0435,-185.2396 1304,-165 1306.5712,-164.211 1309.214,-163.3444 1311.8595,-162.4367"/>
<polygon fill="#191970" stroke="#191970" points="1313.1016,-165.7095 1321.3293,-159.0345 1310.7348,-159.1218 1313.1016,-165.7095"/>
</g>
<!-- Node46&#45;&gt;Node13 -->
<g id="edge113" class="edge">
<title>Node46&#45;&gt;Node13</title>
<path fill="none" stroke="#191970" d="M934.787,-269.299C937.5572,-268.8395 940.3028,-268.404 943,-268 1121.9275,-241.1992 1337.6572,-224.9009 1424.2599,-219.0067"/>
<polygon fill="#191970" stroke="#191970" points="1424.6679,-222.4872 1434.4103,-218.3235 1424.1978,-215.503 1424.6679,-222.4872"/>
</g>
<!-- Node46&#45;&gt;Node15 -->
<g id="edge114" class="edge">
<title>Node46&#45;&gt;Node15</title>
<path fill="none" stroke="#191970" d="M797.1805,-272.7516C718.4786,-260.1303 599.5604,-239.9137 593,-232 540.8626,-169.1075 601.4785,-104.6086 674,-67 739.4695,-33.0485 1927.3014,-33.7355 2001,-31 2109.3947,-26.9767 2237.7933,-20.4053 2297.0346,-17.2711"/>
<polygon fill="#191970" stroke="#191970" points="2297.4709,-20.753 2307.2711,-16.7273 2297.0994,-13.7628 2297.4709,-20.753"/>
</g>
<!-- Node46&#45;&gt;Node20 -->
<g id="edge117" class="edge">
<title>Node46&#45;&gt;Node20</title>
<path fill="none" stroke="#191970" d="M890.0129,-268.4639C907.6426,-257.4247 931.4849,-242.4954 949.0903,-231.4715"/>
<polygon fill="#191970" stroke="#191970" points="951.0444,-234.3775 957.6624,-226.1039 947.3293,-228.4446 951.0444,-234.3775"/>
</g>
<!-- Node46&#45;&gt;Node23 -->
<g id="edge112" class="edge">
<title>Node46&#45;&gt;Node23</title>
<path fill="none" stroke="#191970" d="M798.2699,-268.3971C763.4468,-259.1159 726.1993,-246.2855 716,-232 700.004,-209.5955 725.305,-182.3698 745.8967,-165.4855"/>
<polygon fill="#191970" stroke="#191970" points="748.2969,-168.0518 754.0194,-159.1353 743.9855,-162.537 748.2969,-168.0518"/>
</g>
<!-- Node47&#45;&gt;Node3 -->
<g id="edge124" class="edge">
<title>Node47&#45;&gt;Node3</title>
<path fill="none" stroke="#191970" d="M1244.7573,-269.0769C1247.5357,-268.6788 1250.2912,-268.3168 1253,-268 1717.2201,-213.6997 1837.2996,-257.2888 2304,-232 2355.5202,-229.2083 2414.0933,-224.7534 2456.0968,-221.3344"/>
<polygon fill="#191970" stroke="#191970" points="2456.4549,-224.8169 2466.1355,-220.5114 2455.8829,-217.8403 2456.4549,-224.8169"/>
</g>
<!-- Node47&#45;&gt;Node5 -->
<g id="edge125" class="edge">
<title>Node47&#45;&gt;Node5</title>
<path fill="none" stroke="#191970" d="M1107.1489,-269.5143C1104.0605,-268.9828 1101.0001,-268.475 1098,-268 963.6186,-246.7247 920.2037,-282.8295 794,-232 756.8507,-217.0378 721.3151,-185.9535 701.4078,-166.5031"/>
<polygon fill="#191970" stroke="#191970" points="703.6512,-163.7967 694.1061,-159.1987 698.7005,-168.7455 703.6512,-163.7967"/>
</g>
<!-- Node47&#45;&gt;Node8 -->
<g id="edge128" class="edge">
<title>Node47&#45;&gt;Node8</title>
<path fill="none" stroke="#191970" d="M1244.549,-296.1049C1250.4581,-297.1629 1256.3361,-298.1507 1262,-299 1390.972,-318.3386 1541.4174,-331.5806 1632.6986,-338.7243"/>
<polygon fill="#191970" stroke="#191970" points="1632.4696,-342.2169 1642.7106,-339.502 1633.0117,-335.238 1632.4696,-342.2169"/>
</g>
<!-- Node47&#45;&gt;Node10 -->
<g id="edge120" class="edge">
<title>Node47&#45;&gt;Node10</title>
<path fill="none" stroke="#191970" d="M1167.7426,-268.4073C1159.1618,-250.4451 1148.9228,-220.4446 1164,-201 1203.3679,-150.2282 1242.749,-184.3887 1304,-165 1306.4123,-164.2364 1308.8896,-163.4097 1311.3743,-162.5491"/>
<polygon fill="#191970" stroke="#191970" points="1312.6528,-165.8088 1320.8728,-159.1242 1310.2784,-159.2238 1312.6528,-165.8088"/>
</g>
<!-- Node47&#45;&gt;Node11 -->
<g id="edge121" class="edge">
<title>Node47&#45;&gt;Node11</title>
<path fill="none" stroke="#191970" d="M1206.9532,-268.4272C1245.8167,-250.061 1314.9308,-219.2312 1377,-201 1459.1981,-176.8565 1558.4465,-161.7979 1613.9755,-154.5899"/>
<polygon fill="#191970" stroke="#191970" points="1614.6733,-158.0294 1624.1509,-153.2938 1613.7887,-151.0855 1614.6733,-158.0294"/>
</g>
<!-- Node47&#45;&gt;Node18 -->
<g id="edge126" class="edge">
<title>Node47&#45;&gt;Node18</title>
<path fill="none" stroke="#191970" d="M1107.1077,-269.75C1104.0305,-269.1547 1100.9836,-268.569 1098,-268 1054.2852,-259.6628 929.4998,-266.1798 901,-232 873.9583,-199.5689 929.2731,-139.8626 939,-134 974.8295,-112.4047 2266.9059,-89.1138 2586.2043,-83.6791"/>
<polygon fill="#191970" stroke="#191970" points="2586.3199,-87.1777 2596.259,-83.5084 2586.201,-80.1787 2586.3199,-87.1777"/>
</g>
<!-- Node47&#45;&gt;Node20 -->
<g id="edge127" class="edge">
<title>Node47&#45;&gt;Node20</title>
<path fill="none" stroke="#191970" d="M1130.4428,-268.4639C1094.5879,-256.63 1045.1887,-240.3258 1011.3407,-229.1543"/>
<polygon fill="#191970" stroke="#191970" points="1012.3927,-225.8159 1001.7996,-226.0053 1010.1988,-232.4632 1012.3927,-225.8159"/>
</g>
<!-- Node47&#45;&gt;Node23 -->
<g id="edge122" class="edge">
<title>Node47&#45;&gt;Node23</title>
<path fill="none" stroke="#191970" d="M1107.1393,-269.5731C1104.0536,-269.0257 1100.9962,-268.4984 1098,-268 979.4483,-248.2783 933.6974,-292.748 830,-232 804.7241,-217.1929 786.4443,-187.6476 776.5343,-168.2298"/>
<polygon fill="#191970" stroke="#191970" points="779.6345,-166.6013 772.1222,-159.1303 773.3358,-169.6554 779.6345,-166.6013"/>
</g>
<!-- Node47&#45;&gt;Node25 -->
<g id="edge123" class="edge">
<title>Node47&#45;&gt;Node25</title>
<path fill="none" stroke="#191970" d="M1183.7335,-268.2122C1194.0094,-249.4782 1213.9429,-218.1221 1240,-201 1293.6921,-165.7188 1320.6918,-189.7011 1380,-165 1380.849,-164.6464 1381.7034,-164.2687 1382.5585,-163.8719"/>
<polygon fill="#191970" stroke="#191970" points="1384.3381,-166.8899 1391.5334,-159.1131 1381.0589,-160.7055 1384.3381,-166.8899"/>
</g>
<!-- Node48&#45;&gt;Node5 -->
<g id="edge135" class="edge">
<title>Node48&#45;&gt;Node5</title>
<path fill="none" stroke="#191970" d="M952.1384,-269.5787C949.0529,-269.0298 945.9959,-268.5007 943,-268 884.3831,-258.2038 717.0926,-276.7624 678,-232 662.912,-214.7237 669.3531,-186.9311 676.3463,-168.4446"/>
<polygon fill="#191970" stroke="#191970" points="679.6567,-169.5989 680.2618,-159.0213 673.1925,-166.9129 679.6567,-169.5989"/>
</g>
<!-- Node48&#45;&gt;Node7 -->
<g id="edge136" class="edge">
<title>Node48&#45;&gt;Node7</title>
<path fill="none" stroke="#191970" d="M952.1622,-269.4271C949.0702,-268.9192 946.0054,-268.4402 943,-268 901.1459,-261.8698 592.4618,-263.2934 564,-232 534.6939,-199.7783 536.6474,-167.8958 564,-134 652.5211,-24.303 734.2441,-85.3775 874,-67 1065.7405,-41.7867 1656.5633,-23.2407 1861.2893,-17.4254"/>
<polygon fill="#191970" stroke="#191970" points="1861.4267,-20.923 1871.3238,-17.1418 1861.2289,-13.9258 1861.4267,-20.923"/>
</g>
<!-- Node48&#45;&gt;Node8 -->
<g id="edge137" class="edge">
<title>Node48&#45;&gt;Node8</title>
<path fill="none" stroke="#191970" d="M1089.5279,-296.2518C1095.4413,-297.2801 1101.326,-298.2208 1107,-299 1294.202,-324.7073 1515.4191,-336.7923 1632.9607,-341.8466"/>
<polygon fill="#191970" stroke="#191970" points="1632.8314,-345.3441 1642.9706,-342.2707 1633.1278,-338.3504 1632.8314,-345.3441"/>
</g>
<!-- Node48&#45;&gt;Node11 -->
<g id="edge131" class="edge">
<title>Node48&#45;&gt;Node11</title>
<path fill="none" stroke="#191970" d="M1062.6827,-268.3926C1114.9206,-249.9911 1207.5008,-219.1252 1289,-201 1405.2023,-175.1569 1545.0857,-159.812 1614.1362,-153.2581"/>
<polygon fill="#191970" stroke="#191970" points="1614.5664,-156.7333 1624.1975,-152.3181 1613.9152,-149.7636 1614.5664,-156.7333"/>
</g>
<!-- Node48&#45;&gt;Node13 -->
<g id="edge133" class="edge">
<title>Node48&#45;&gt;Node13</title>
<path fill="none" stroke="#191970" d="M1089.8098,-269.4413C1092.5737,-268.9424 1095.3118,-268.4598 1098,-268 1216.2558,-247.7727 1357.0525,-229.5525 1423.9588,-221.2471"/>
<polygon fill="#191970" stroke="#191970" points="1424.5524,-224.7005 1434.0476,-220.0005 1423.6939,-217.7533 1424.5524,-224.7005"/>
</g>
<!-- Node48&#45;&gt;Node15 -->
<g id="edge134" class="edge">
<title>Node48&#45;&gt;Node15</title>
<path fill="none" stroke="#191970" d="M952.1423,-269.5553C949.0557,-269.0127 945.9974,-268.4913 943,-268 881.5268,-257.9236 713.5237,-271.0633 665,-232 630.0697,-203.8799 613.5312,-169.4447 641,-134 714.0972,-39.6782 782.8782,-83.9425 901,-67 1143.0977,-32.2754 1756.6193,-40.7551 2001,-31 2109.383,-26.6736 2237.7873,-20.2483 2297.0323,-17.2101"/>
<polygon fill="#191970" stroke="#191970" points="2297.4624,-20.6927 2307.2694,-16.6835 2297.1027,-13.702 2297.4624,-20.6927"/>
</g>
<!-- Node48&#45;&gt;Node23 -->
<g id="edge132" class="edge">
<title>Node48&#45;&gt;Node23</title>
<path fill="none" stroke="#191970" d="M952.1023,-269.778C949.0266,-269.1751 945.9815,-268.5802 943,-268 901.0321,-259.8333 781.2577,-264.9396 754,-232 739.2303,-214.1515 748.2939,-186.5266 757.2293,-168.2311"/>
<polygon fill="#191970" stroke="#191970" points="760.4513,-169.625 762.028,-159.1481 754.262,-166.355 760.4513,-169.625"/>
</g>
<!-- Node48&#45;&gt;Node33 -->
<g id="edge130" class="edge">
<title>Node48&#45;&gt;Node33</title>
<path fill="none" stroke="#191970" d="M1089.7822,-269.2667C1092.5537,-268.8161 1095.301,-268.3913 1098,-268 1275.5256,-242.2619 1321.4132,-248.8681 1500,-232 1538.4637,-228.367 1582.237,-223.9971 1613.6048,-220.8247"/>
<polygon fill="#191970" stroke="#191970" points="1614.1452,-224.2879 1623.7414,-219.7975 1613.4395,-217.3236 1614.1452,-224.2879"/>
</g>
<!-- Node49&#45;&gt;Node4 -->
<g id="edge141" class="edge">
<title>Node49&#45;&gt;Node4</title>
<path fill="none" stroke="#191970" d="M594.3717,-271.5161C545.636,-259.8295 493.7136,-238.2315 516,-201 548.3741,-146.9162 581.4301,-154.6048 641,-134 731.5639,-102.6746 844.763,-89.7041 900.2137,-84.9373"/>
<polygon fill="#191970" stroke="#191970" points="900.5149,-88.4244 910.1938,-84.1152 899.9402,-81.4481 900.5149,-88.4244"/>
</g>
<!-- Node49&#45;&gt;Node5 -->
<g id="edge142" class="edge">
<title>Node49&#45;&gt;Node5</title>
<path fill="none" stroke="#191970" d="M594.3789,-268.5389C548.7364,-255.5459 502.272,-233.6271 526,-201 529.5774,-196.081 596.6954,-175.5076 642.5731,-161.8998"/>
<polygon fill="#191970" stroke="#191970" points="643.6979,-165.2171 652.2955,-159.0258 641.7135,-158.5042 643.6979,-165.2171"/>
</g>
<!-- Node49&#45;&gt;Node7 -->
<g id="edge143" class="edge">
<title>Node49&#45;&gt;Node7</title>
<path fill="none" stroke="#191970" d="M594.2614,-272.5838C583.7789,-271.0237 573.1128,-269.4556 563,-268 504.8302,-259.6271 348.4566,-266.6656 301,-232 240.9953,-188.1684 220.3271,-118.3907 274,-67 303.0838,-39.1529 1547.4484,-20.6476 1860.9048,-16.4223"/>
<polygon fill="#191970" stroke="#191970" points="1861.27,-19.9178 1871.2221,-16.2838 1861.1761,-12.9184 1861.27,-19.9178"/>
</g>
<!-- Node49&#45;&gt;Node8 -->
<g id="edge145" class="edge">
<title>Node49&#45;&gt;Node8</title>
<path fill="none" stroke="#191970" d="M737.5087,-292.4303C756.8665,-294.8685 777.7522,-297.3028 797,-299 1104.5875,-326.1224 1471.0449,-338.4031 1632.5924,-342.873"/>
<polygon fill="#191970" stroke="#191970" points="1632.842,-346.3811 1642.9341,-343.1562 1633.0337,-339.3837 1632.842,-346.3811"/>
</g>
<!-- Node49&#45;&gt;Node13 -->
<g id="edge139" class="edge">
<title>Node49&#45;&gt;Node13</title>
<path fill="none" stroke="#191970" d="M737.5383,-273.8008C754.09,-271.7263 771.6441,-269.6619 788,-268 1029.3869,-243.4732 1320.4181,-225.013 1424.0471,-218.7851"/>
<polygon fill="#191970" stroke="#191970" points="1424.5613,-222.2607 1434.3346,-218.1701 1424.1435,-215.2732 1424.5613,-222.2607"/>
</g>
<!-- Node49&#45;&gt;Node15 -->
<g id="edge140" class="edge">
<title>Node49&#45;&gt;Node15</title>
<path fill="none" stroke="#191970" d="M617.3712,-268.31C600.2522,-260.3591 582.839,-248.6954 573,-232 534.0954,-165.9846 554.9587,-102.2419 623,-67 691.0016,-31.7787 1924.4696,-33.8021 2001,-31 2109.3967,-27.0311 2237.7943,-20.4335 2297.035,-17.2821"/>
<polygon fill="#191970" stroke="#191970" points="2297.4724,-20.7638 2307.2714,-16.7352 2297.0988,-13.7738 2297.4724,-20.7638"/>
</g>
<!-- Node49&#45;&gt;Node20 -->
<g id="edge144" class="edge">
<title>Node49&#45;&gt;Node20</title>
<path fill="none" stroke="#191970" d="M734.8968,-268.4639C790.7497,-256.2745 868.3353,-239.3421 919.5655,-228.1616"/>
<polygon fill="#191970" stroke="#191970" points="920.4222,-231.5571 929.4459,-226.0053 918.9296,-224.7181 920.4222,-231.5571"/>
</g>
<!-- Node50&#45;&gt;Node8 -->
<g id="edge148" class="edge">
<title>Node50&#45;&gt;Node8</title>
<path fill="none" stroke="#191970" d="M1721.8971,-298.5446C1722.8593,-306.6241 1723.0074,-316.681 1722.3414,-325.3693"/>
<polygon fill="#191970" stroke="#191970" points="1718.8567,-325.028 1721.0625,-335.3906 1725.8003,-325.9142 1718.8567,-325.028"/>
</g>
<!-- Node50&#45;&gt;Node13 -->
<g id="edge147" class="edge">
<title>Node50&#45;&gt;Node13</title>
<path fill="none" stroke="#191970" d="M1659.2219,-268.4639C1611.1726,-255.7394 1543.6065,-237.8464 1501.6044,-226.7233"/>
<polygon fill="#191970" stroke="#191970" points="1502.3244,-223.2934 1491.7616,-224.1167 1500.5324,-230.0601 1502.3244,-223.2934"/>
</g>
<!-- Node51&#45;&gt;Node2 -->
<g id="edge154" class="edge">
<title>Node51&#45;&gt;Node2</title>
<path fill="none" stroke="#191970" d="M1936.0804,-268.2925C1939.8741,-250.7572 1943.2814,-221.6944 1931,-201 1891.7467,-134.8576 1800.7333,-102.7147 1752.061,-89.7685"/>
<polygon fill="#191970" stroke="#191970" points="1752.6226,-86.2998 1742.0681,-87.2229 1750.8946,-93.0832 1752.6226,-86.2998"/>
</g>
<!-- Node51&#45;&gt;Node5 -->
<g id="edge156" class="edge">
<title>Node51&#45;&gt;Node5</title>
<path fill="none" stroke="#191970" d="M1863.2975,-273.0283C1824.208,-265.2668 1775.185,-252.4125 1735,-232 1715.5674,-222.129 1717.3914,-208.6975 1697,-201 1497.8963,-125.8414 950.2279,-198.0958 740,-165 734.6101,-164.1515 728.9975,-162.9521 723.5066,-161.5918"/>
<polygon fill="#191970" stroke="#191970" points="724.3933,-158.206 713.829,-159.0105 722.5892,-164.9695 724.3933,-158.206"/>
</g>
<!-- Node51&#45;&gt;Node7 -->
<g id="edge161" class="edge">
<title>Node51&#45;&gt;Node7</title>
<path fill="none" stroke="#191970" d="M1938.9207,-268.0846C1943.0441,-258.0365 1947.8763,-244.5127 1950,-232 1961.6737,-163.2192 1947.0807,-80.805 1938.0842,-40.3669"/>
<polygon fill="#191970" stroke="#191970" points="1941.4834,-39.5313 1935.8291,-30.5714 1934.6618,-41.1017 1941.4834,-39.5313"/>
</g>
<!-- Node51&#45;&gt;Node8 -->
<g id="edge165" class="edge">
<title>Node51&#45;&gt;Node8</title>
<path fill="none" stroke="#191970" d="M1885.0575,-298.5446C1849.4185,-309.048 1800.6667,-322.8931 1764.6209,-332.7289"/>
<polygon fill="#191970" stroke="#191970" points="1763.5468,-329.3937 1754.8125,-335.3906 1765.3801,-336.1493 1763.5468,-329.3937"/>
</g>
<!-- Node51&#45;&gt;Node11 -->
<g id="edge150" class="edge">
<title>Node51&#45;&gt;Node11</title>
<path fill="none" stroke="#191970" d="M1932.0353,-268.3004C1931.2104,-249.6574 1926.8593,-218.3952 1908,-201 1878.1872,-173.5017 1763.4957,-159.0478 1699.9697,-153.0072"/>
<polygon fill="#191970" stroke="#191970" points="1700.1384,-149.508 1689.8594,-152.0758 1699.4961,-156.4785 1700.1384,-149.508"/>
</g>
<!-- Node51&#45;&gt;Node12 -->
<g id="edge151" class="edge">
<title>Node51&#45;&gt;Node12</title>
<path fill="none" stroke="#191970" d="M2000.6897,-279.1727C2085.6095,-272.9189 2234.2066,-259.0163 2359,-232 2403.6485,-222.3341 2412.6058,-211.7734 2457,-201 2549.0239,-178.6681 2574.0869,-183.2832 2667,-165 2788.621,-141.0677 2931.5249,-107.8343 2998.9854,-91.8374"/>
<polygon fill="#191970" stroke="#191970" points="2999.8451,-95.2307 3008.7651,-89.5137 2998.2268,-88.4203 2999.8451,-95.2307"/>
</g>
<!-- Node51&#45;&gt;Node13 -->
<g id="edge152" class="edge">
<title>Node51&#45;&gt;Node13</title>
<path fill="none" stroke="#191970" d="M1863.3011,-273.6859C1763.3445,-259.4064 1581.1013,-233.3716 1501.7002,-222.0286"/>
<polygon fill="#191970" stroke="#191970" points="1502.0386,-218.5415 1491.6441,-220.592 1501.0485,-225.4711 1502.0386,-218.5415"/>
</g>
<!-- Node51&#45;&gt;Node14 -->
<g id="edge162" class="edge">
<title>Node51&#45;&gt;Node14</title>
<path fill="none" stroke="#191970" d="M1977.3327,-268.4639C2007.3763,-258.499 2046.9765,-245.3642 2078.8462,-234.7936"/>
<polygon fill="#191970" stroke="#191970" points="2080.0799,-238.072 2088.4695,-231.6017 2077.8761,-231.4279 2080.0799,-238.072"/>
</g>
<!-- Node51&#45;&gt;Node15 -->
<g id="edge155" class="edge">
<title>Node51&#45;&gt;Node15</title>
<path fill="none" stroke="#191970" d="M1944.0036,-268.3514C1979.5746,-223.8176 2084.8134,-94.7085 2131,-67 2183.7843,-35.3334 2255.779,-22.9595 2297.135,-18.2563"/>
<polygon fill="#191970" stroke="#191970" points="2297.6276,-21.7238 2307.2056,-17.1947 2296.8937,-14.7624 2297.6276,-21.7238"/>
</g>
<!-- Node51&#45;&gt;Node18 -->
<g id="edge157" class="edge">
<title>Node51&#45;&gt;Node18</title>
<path fill="none" stroke="#191970" d="M2000.7658,-278.6153C2076.1038,-272.196 2200.0682,-258.4832 2304,-232 2341.7554,-222.3794 2348.2472,-210.6309 2386,-201 2442.3056,-186.6362 2603.781,-205.9589 2645,-165 2659.7617,-150.3315 2661.727,-126.1157 2660.6136,-107.7042"/>
<polygon fill="#191970" stroke="#191970" points="2664.0895,-107.2821 2659.6757,-97.6505 2657.1197,-107.9324 2664.0895,-107.2821"/>
</g>
<!-- Node51&#45;&gt;Node20 -->
<g id="edge163" class="edge">
<title>Node51&#45;&gt;Node20</title>
<path fill="none" stroke="#191970" d="M1863.4864,-275.1945C1841.0468,-272.6523 1815.9804,-270.0017 1793,-268 1517.6378,-244.0141 1189.3176,-226.8328 1045.9807,-219.8975"/>
<polygon fill="#191970" stroke="#191970" points="1045.7278,-216.3813 1035.5709,-219.3961 1045.391,-223.3732 1045.7278,-216.3813"/>
</g>
<!-- Node51&#45;&gt;Node25 -->
<g id="edge153" class="edge">
<title>Node51&#45;&gt;Node25</title>
<path fill="none" stroke="#191970" d="M1926.0321,-268.3003C1917.5955,-249.0433 1900.2259,-216.5011 1874,-201 1854.7953,-189.6488 1527.9294,-160.1992 1432.1635,-151.7792"/>
<polygon fill="#191970" stroke="#191970" points="1432.4192,-148.2883 1422.1517,-150.9016 1431.8079,-155.2615 1432.4192,-148.2883"/>
</g>
<!-- Node51&#45;&gt;Node30 -->
<g id="edge164" class="edge">
<title>Node51&#45;&gt;Node30</title>
<path fill="none" stroke="#191970" d="M2000.7715,-279.078C2186.1561,-267.1579 2695.5818,-234.4021 2893.6984,-221.6633"/>
<polygon fill="#191970" stroke="#191970" points="2893.9919,-225.1518 2903.7466,-221.0173 2893.5426,-218.1662 2893.9919,-225.1518"/>
</g>
<!-- Node52 -->
<g id="node53" class="node">
<title>Node52</title>
<g id="a_node53"><a xlink:href="drake__bool_8h.html" target="_top" xlink:title=" ">
<polygon fill="#ffffff" stroke="#000000" points="1744.5,-201.5 1744.5,-231.5 1865.5,-231.5 1865.5,-201.5 1744.5,-201.5"/>
<text text-anchor="start" x="1752.5" y="-219.5" font-family="Helvetica,sans-Serif" font-size="10.00" fill="#000000">drake/common/drake</text>
<text text-anchor="middle" x="1805" y="-208.5" font-family="Helvetica,sans-Serif" font-size="10.00" fill="#000000">_bool.h</text>
</a>
</g>
</g>
<!-- Node51&#45;&gt;Node52 -->
<g id="edge158" class="edge">
<title>Node51&#45;&gt;Node52</title>
<path fill="none" stroke="#191970" d="M1903.4987,-268.4639C1885.5687,-259.0047 1862.2247,-246.6894 1842.763,-236.4222"/>
<polygon fill="#191970" stroke="#191970" points="1844.3234,-233.2882 1833.8456,-231.7177 1841.0571,-239.4795 1844.3234,-233.2882"/>
</g>
<!-- Node52&#45;&gt;Node5 -->
<g id="edge160" class="edge">
<title>Node52&#45;&gt;Node5</title>
<path fill="none" stroke="#191970" d="M1744.1518,-203.0362C1739.3788,-202.2522 1734.6201,-201.5574 1730,-201 1292.8793,-148.2601 1174.9769,-233.1987 740,-165 734.6095,-164.1548 728.9966,-162.9574 723.5056,-161.598"/>
<polygon fill="#191970" stroke="#191970" points="724.3921,-158.2122 713.8279,-159.0175 722.5885,-164.9759 724.3921,-158.2122"/>
</g>
<!-- Node52&#45;&gt;Node19 -->
<g id="edge159" class="edge">
<title>Node52&#45;&gt;Node19</title>
<path fill="none" stroke="#191970" d="M1855.6429,-201.4912C1914.7428,-184.2065 2015.5379,-155.4407 2103,-134 2291.2955,-87.8406 2518.0655,-42.5113 2612.432,-24.0991"/>
<polygon fill="#191970" stroke="#191970" points="2613.3306,-27.4899 2622.4774,-22.1433 2611.9928,-20.619 2613.3306,-27.4899"/>
</g>
<!-- Node53&#45;&gt;Node8 -->
<g id="edge169" class="edge">
<title>Node53&#45;&gt;Node8</title>
<path fill="none" stroke="#191970" d="M3378.4627,-287.5203C3315.6567,-290.8699 3220.241,-295.622 3137,-299 2629.1939,-319.6073 2018.3606,-336.992 1799.2042,-342.8699"/>
<polygon fill="#191970" stroke="#191970" points="1798.969,-339.3749 1789.0662,-343.1411 1799.1563,-346.3724 1798.969,-339.3749"/>
</g>
<!-- Node53&#45;&gt;Node15 -->
<g id="edge167" class="edge">
<title>Node53&#45;&gt;Node15</title>
<path fill="none" stroke="#191970" d="M3515.8916,-268.8396C3517.6098,-268.5483 3519.3148,-268.2678 3521,-268 3593.8546,-256.4245 3801.7474,-286.9178 3851,-232 3865.8776,-215.4112 3850.7967,-152.3999 3838,-134 3805.3157,-87.0045 3782.8587,-83.3512 3728,-67 3609.2109,-31.5937 2736.8362,-36.3897 2613,-31 2522.3985,-27.0567 2415.5712,-20.7575 2362.8401,-17.5385"/>
<polygon fill="#191970" stroke="#191970" points="2362.9304,-14.0375 2352.7349,-16.9188 2362.5019,-21.0244 2362.9304,-14.0375"/>
</g>
<!-- Node53&#45;&gt;Node18 -->
<g id="edge168" class="edge">
<title>Node53&#45;&gt;Node18</title>
<path fill="none" stroke="#191970" d="M3514.2869,-268.4997C3571.6935,-255.3812 3645.6603,-237.5781 3650,-232 3658.4601,-221.1256 3658.1303,-212.1232 3650,-201 3618.896,-158.4464 3583.3485,-190.1015 3537,-165 3517.8343,-154.6202 3519.2996,-141.9364 3499,-134 3463.3429,-120.0594 2924.0203,-94.5262 2727.7435,-85.6445"/>
<polygon fill="#191970" stroke="#191970" points="2727.6898,-82.1386 2717.5421,-85.1839 2727.374,-89.1315 2727.6898,-82.1386"/>
</g>
<!-- Node54&#45;&gt;Node8 -->
<g id="edge173" class="edge">
<title>Node54&#45;&gt;Node8</title>
<path fill="none" stroke="#191970" d="M2982.2559,-294.8219C2969.2637,-296.4378 2955.7603,-297.9162 2943,-299 2513.9996,-335.4366 1997.546,-343.0121 1799.1177,-344.5868"/>
<polygon fill="#191970" stroke="#191970" points="1799.031,-341.0873 1789.058,-344.6637 1799.0845,-348.0871 1799.031,-341.0873"/>
</g>
<!-- Node54&#45;&gt;Node11 -->
<g id="edge171" class="edge">
<title>Node54&#45;&gt;Node11</title>
<path fill="none" stroke="#191970" d="M3057.0282,-268.4128C3063.3196,-249.8858 3070.1008,-218.7433 3053,-201 3049.9876,-197.8744 1934.294,-159.0963 1699.8906,-150.9825"/>
<polygon fill="#191970" stroke="#191970" points="1699.8296,-147.4783 1689.7145,-150.6303 1699.5874,-154.4742 1699.8296,-147.4783"/>
</g>
<!-- Node54&#45;&gt;Node15 -->
<g id="edge172" class="edge">
<title>Node54&#45;&gt;Node15</title>
<path fill="none" stroke="#191970" d="M3119.5945,-280.2268C3308.2642,-271.0641 3821.8441,-244.9817 3834,-232 3851.7751,-213.0174 3830.5794,-149.6509 3817,-134 3765.6692,-74.8387 3730.5675,-83.5023 3654,-67 3427.7242,-18.2316 2844.241,-41.3299 2613,-31 2522.4031,-26.9529 2415.5738,-20.6994 2362.8412,-17.514"/>
<polygon fill="#191970" stroke="#191970" points="2362.9293,-14.013 2352.7357,-16.9011 2362.5054,-21.0002 2362.9293,-14.013"/>
</g>
</g>
</svg>
