<?xml version="1.0" encoding="UTF-8" standalone="no"?>
<!DOCTYPE svg PUBLIC "-//W3C//DTD SVG 1.1//EN"
 "http://www.w3.org/Graphics/SVG/1.1/DTD/svg11.dtd">
<!-- Generated by graphviz version 2.40.1 (20161225.0304)
 -->
<!-- Title: drake/common/symbolic_formula_visitor.h Pages: 1 -->
<svg width="3951pt" height="430pt"
 viewBox="0.00 0.00 3951.00 430.00" xmlns="http://www.w3.org/2000/svg" xmlns:xlink="http://www.w3.org/1999/xlink">
<g id="graph0" class="graph" transform="scale(1 1) rotate(0) translate(4 426)">
<title>drake/common/symbolic_formula_visitor.h</title>
<polygon fill="#ffffff" stroke="transparent" points="-4,4 -4,-426 3947,-426 3947,4 -4,4"/>
<!-- Node0 -->
<g id="node1" class="node">
<title>Node0</title>
<g id="a_node1"><a xlink:title=" ">
<polygon fill="#bfbfbf" stroke="#000000" points="1238.5,-391.5 1238.5,-421.5 1375.5,-421.5 1375.5,-391.5 1238.5,-391.5"/>
<text text-anchor="start" x="1246.5" y="-409.5" font-family="Helvetica,sans-Serif" font-size="10.00" fill="#000000">drake/common/symbolic</text>
<text text-anchor="middle" x="1307" y="-398.5" font-family="Helvetica,sans-Serif" font-size="10.00" fill="#000000">_formula_visitor.h</text>
</a>
</g>
</g>
<!-- Node1 -->
<g id="node2" class="node">
<title>Node1</title>
<g id="a_node2"><a xlink:title=" ">
<polygon fill="#ffffff" stroke="#bfbfbf" points="1345.5,-6 1345.5,-25 1390.5,-25 1390.5,-6 1345.5,-6"/>
<text text-anchor="middle" x="1368" y="-13" font-family="Helvetica,sans-Serif" font-size="10.00" fill="#000000">utility</text>
</a>
</g>
</g>
<!-- Node0&#45;&gt;Node1 -->
<g id="edge1" class="edge">
<title>Node0&#45;&gt;Node1</title>
<path fill="none" stroke="#191970" d="M1238.1122,-403.6645C968.5461,-392.1223 0,-346.2827 0,-283.5 0,-283.5 0,-283.5 0,-149.5 0,-107.9444 8.7887,-89.0687 44,-67 100.3716,-31.669 1136.3193,-18.1347 1335.1518,-15.8573"/>
<polygon fill="#191970" stroke="#191970" points="1335.3054,-19.3559 1345.2652,-15.743 1335.2262,-12.3564 1335.3054,-19.3559"/>
</g>
<!-- Node2 -->
<g id="node3" class="node">
<title>Node2</title>
<g id="a_node3"><a xlink:href="drake__assert_8h.html" target="_top" xlink:title="Provides Drake&#39;s assertion implementation.">
<polygon fill="#ffffff" stroke="#000000" points="2340.5,-67.5 2340.5,-97.5 2461.5,-97.5 2461.5,-67.5 2340.5,-67.5"/>
<text text-anchor="start" x="2348.5" y="-85.5" font-family="Helvetica,sans-Serif" font-size="10.00" fill="#000000">drake/common/drake</text>
<text text-anchor="middle" x="2401" y="-74.5" font-family="Helvetica,sans-Serif" font-size="10.00" fill="#000000">_assert.h</text>
</a>
</g>
</g>
<!-- Node0&#45;&gt;Node2 -->
<g id="edge2" class="edge">
<title>Node0&#45;&gt;Node2</title>
<path fill="none" stroke="#191970" d="M1375.8148,-405.1369C1790.8939,-396.6952 3943,-349.733 3943,-283.5 3943,-283.5 3943,-283.5 3943,-216.5 3943,-171.9329 3925.1579,-155.281 3886,-134 3826.2762,-101.5422 2730.9073,-101.0075 2663,-98 2598.2392,-95.1319 2524.5433,-90.6646 2471.8432,-87.2614"/>
<polygon fill="#191970" stroke="#191970" points="2471.7979,-83.7512 2461.592,-86.5957 2471.3442,-90.7365 2471.7979,-83.7512"/>
</g>
<!-- Node4 -->
<g id="node5" class="node">
<title>Node4</title>
<g id="a_node5"><a xlink:href="symbolic_8h.html" target="_top" xlink:title="Provides public header files of Drake&#39;s symbolic library.">
<polygon fill="#ffffff" stroke="#000000" points="1234,-335.5 1234,-354.5 1380,-354.5 1380,-335.5 1234,-335.5"/>
<text text-anchor="middle" x="1307" y="-342.5" font-family="Helvetica,sans-Serif" font-size="10.00" fill="#000000">drake/common/symbolic.h</text>
</a>
</g>
</g>
<!-- Node0&#45;&gt;Node4 -->
<g id="edge4" class="edge">
<title>Node0&#45;&gt;Node4</title>
<path fill="none" stroke="#191970" d="M1301.0843,-391.2977C1300.1446,-383.2945 1299.9987,-373.3843 1300.6466,-364.7889"/>
<polygon fill="#191970" stroke="#191970" points="1304.1218,-365.2044 1301.8917,-354.8469 1297.176,-364.3345 1304.1218,-365.2044"/>
</g>
<!-- Node3 -->
<g id="node4" class="node">
<title>Node3</title>
<g id="a_node4"><a xlink:title=" ">
<polygon fill="#ffffff" stroke="#bfbfbf" points="2531.5,-6 2531.5,-25 2600.5,-25 2600.5,-6 2531.5,-6"/>
<text text-anchor="middle" x="2566" y="-13" font-family="Helvetica,sans-Serif" font-size="10.00" fill="#000000">type_traits</text>
</a>
</g>
</g>
<!-- Node2&#45;&gt;Node3 -->
<g id="edge3" class="edge">
<title>Node2&#45;&gt;Node3</title>
<path fill="none" stroke="#191970" d="M2438.0292,-67.4639C2466.4623,-55.9183 2505.3746,-40.1176 2532.8034,-28.9798"/>
<polygon fill="#191970" stroke="#191970" points="2534.4001,-32.1091 2542.3486,-25.1039 2531.7665,-25.6234 2534.4001,-32.1091"/>
</g>
<!-- Node4&#45;&gt;Node0 -->
<g id="edge153" class="edge">
<title>Node4&#45;&gt;Node0</title>
<path fill="none" stroke="#191970" d="M1312.1083,-354.8469C1313.4704,-361.9883 1313.9849,-371.9858 1313.6519,-381.2849"/>
<polygon fill="#191970" stroke="#191970" points="1310.1584,-381.068 1312.9157,-391.2977 1317.1396,-381.5813 1310.1584,-381.068"/>
</g>
<!-- Node5 -->
<g id="node6" class="node">
<title>Node5</title>
<g id="a_node6"><a xlink:href="symbolic__variable_8h.html" target="_top" xlink:title=" ">
<polygon fill="#ffffff" stroke="#000000" points="969.5,-268.5 969.5,-298.5 1106.5,-298.5 1106.5,-268.5 969.5,-268.5"/>
<text text-anchor="start" x="977.5" y="-286.5" font-family="Helvetica,sans-Serif" font-size="10.00" fill="#000000">drake/common/symbolic</text>
<text text-anchor="middle" x="1038" y="-275.5" font-family="Helvetica,sans-Serif" font-size="10.00" fill="#000000">_variable.h</text>
</a>
</g>
</g>
<!-- Node4&#45;&gt;Node5 -->
<g id="edge5" class="edge">
<title>Node4&#45;&gt;Node5</title>
<path fill="none" stroke="#191970" d="M1265.2639,-335.4581C1224.8811,-326.2256 1162.7456,-312.0199 1113.6453,-300.7944"/>
<polygon fill="#191970" stroke="#191970" points="1114.2228,-297.3362 1103.6942,-298.5193 1112.6626,-304.1601 1114.2228,-297.3362"/>
</g>
<!-- Node24 -->
<g id="node25" class="node">
<title>Node24</title>
<g id="a_node25"><a xlink:href="symbolic__variables_8h.html" target="_top" xlink:title=" ">
<polygon fill="#ffffff" stroke="#000000" points="659.5,-268.5 659.5,-298.5 796.5,-298.5 796.5,-268.5 659.5,-268.5"/>
<text text-anchor="start" x="667.5" y="-286.5" font-family="Helvetica,sans-Serif" font-size="10.00" fill="#000000">drake/common/symbolic</text>
<text text-anchor="middle" x="728" y="-275.5" font-family="Helvetica,sans-Serif" font-size="10.00" fill="#000000">_variables.h</text>
</a>
</g>
</g>
<!-- Node4&#45;&gt;Node24 -->
<g id="edge35" class="edge">
<title>Node4&#45;&gt;Node24</title>
<path fill="none" stroke="#191970" d="M1233.8043,-341.1373C1136.3088,-335.2003 958.6369,-322.181 802.9615,-299.9869"/>
<polygon fill="#191970" stroke="#191970" points="803.1377,-296.4761 792.7403,-298.5117 802.1377,-303.4044 803.1377,-296.4761"/>
</g>
<!-- Node26 -->
<g id="node27" class="node">
<title>Node26</title>
<g id="a_node27"><a xlink:href="symbolic__environment_8h.html" target="_top" xlink:title=" ">
<polygon fill="#ffffff" stroke="#000000" points="1399.5,-268.5 1399.5,-298.5 1536.5,-298.5 1536.5,-268.5 1399.5,-268.5"/>
<text text-anchor="start" x="1407.5" y="-286.5" font-family="Helvetica,sans-Serif" font-size="10.00" fill="#000000">drake/common/symbolic</text>
<text text-anchor="middle" x="1468" y="-275.5" font-family="Helvetica,sans-Serif" font-size="10.00" fill="#000000">_environment.h</text>
</a>
</g>
</g>
<!-- Node4&#45;&gt;Node26 -->
<g id="edge45" class="edge">
<title>Node4&#45;&gt;Node26</title>
<path fill="none" stroke="#191970" d="M1327.0938,-335.3906C1348.6595,-326.4893 1383.5578,-313.0073 1413.275,-302.0165"/>
<polygon fill="#191970" stroke="#191970" points="1414.54,-305.2805 1422.7179,-298.5446 1412.1243,-298.7106 1414.54,-305.2805"/>
</g>
<!-- Node30 -->
<g id="node31" class="node">
<title>Node30</title>
<g id="a_node31"><a xlink:href="symbolic__expression_8h.html" target="_top" xlink:title=" ">
<polygon fill="#ffffff" stroke="#000000" points="3016.5,-268.5 3016.5,-298.5 3153.5,-298.5 3153.5,-268.5 3016.5,-268.5"/>
<text text-anchor="start" x="3024.5" y="-286.5" font-family="Helvetica,sans-Serif" font-size="10.00" fill="#000000">drake/common/symbolic</text>
<text text-anchor="middle" x="3085" y="-275.5" font-family="Helvetica,sans-Serif" font-size="10.00" fill="#000000">_expression.h</text>
</a>
</g>
</g>
<!-- Node4&#45;&gt;Node30 -->
<g id="edge56" class="edge">
<title>Node4&#45;&gt;Node30</title>
<path fill="none" stroke="#191970" d="M1380.2905,-342.8804C1590.8529,-336.9077 2215.2545,-319.0629 2734,-299 2827.261,-295.3931 2934.7874,-290.3792 3006.0668,-287.0415"/>
<polygon fill="#191970" stroke="#191970" points="3006.4891,-290.5257 3016.3144,-286.5616 3006.1616,-283.5334 3006.4891,-290.5257"/>
</g>
<!-- Node43 -->
<g id="node44" class="node">
<title>Node43</title>
<g id="a_node44"><a xlink:href="symbolic__expression__visitor_8h.html" target="_top" xlink:title=" ">
<polygon fill="#ffffff" stroke="#000000" points="2500.5,-201.5 2500.5,-231.5 2637.5,-231.5 2637.5,-201.5 2500.5,-201.5"/>
<text text-anchor="start" x="2508.5" y="-219.5" font-family="Helvetica,sans-Serif" font-size="10.00" fill="#000000">drake/common/symbolic</text>
<text text-anchor="middle" x="2569" y="-208.5" font-family="Helvetica,sans-Serif" font-size="10.00" fill="#000000">_expression_visitor.h</text>
</a>
</g>
</g>
<!-- Node4&#45;&gt;Node43 -->
<g id="edge98" class="edge">
<title>Node4&#45;&gt;Node43</title>
<path fill="none" stroke="#191970" d="M1380.19,-344.0769C1523.6382,-341.5822 1851.2993,-332.4185 2125,-299 2253.7543,-283.2793 2401.7752,-252.4374 2490.2968,-233.2398"/>
<polygon fill="#191970" stroke="#191970" points="2491.2336,-236.618 2500.262,-231.0736 2489.7467,-229.7777 2491.2336,-236.618"/>
</g>
<!-- Node44 -->
<g id="node45" class="node">
<title>Node44</title>
<g id="a_node45"><a xlink:href="symbolic__ldlt_8h.html" target="_top" xlink:title="Eigen::LDLT is specialized for drake::symbolic::Expression, for certain matrix sizes.">
<polygon fill="#ffffff" stroke="#000000" points="1988.5,-268.5 1988.5,-298.5 2125.5,-298.5 2125.5,-268.5 1988.5,-268.5"/>
<text text-anchor="start" x="1996.5" y="-286.5" font-family="Helvetica,sans-Serif" font-size="10.00" fill="#000000">drake/common/symbolic</text>
<text text-anchor="middle" x="2057" y="-275.5" font-family="Helvetica,sans-Serif" font-size="10.00" fill="#000000">_ldlt.h</text>
</a>
</g>
</g>
<!-- Node4&#45;&gt;Node44 -->
<g id="edge103" class="edge">
<title>Node4&#45;&gt;Node44</title>
<path fill="none" stroke="#191970" d="M1380.2787,-338.9911C1521.9205,-327.3765 1832.152,-301.9375 1978.1173,-289.9684"/>
<polygon fill="#191970" stroke="#191970" points="1978.6578,-293.4359 1988.3383,-289.1303 1978.0857,-286.4593 1978.6578,-293.4359"/>
</g>
<!-- Node45 -->
<g id="node46" class="node">
<title>Node45</title>
<g id="a_node46"><a xlink:href="symbolic__monomial_8h.html" target="_top" xlink:title=" ">
<polygon fill="#ffffff" stroke="#000000" points="504.5,-268.5 504.5,-298.5 641.5,-298.5 641.5,-268.5 504.5,-268.5"/>
<text text-anchor="start" x="512.5" y="-286.5" font-family="Helvetica,sans-Serif" font-size="10.00" fill="#000000">drake/common/symbolic</text>
<text text-anchor="middle" x="573" y="-275.5" font-family="Helvetica,sans-Serif" font-size="10.00" fill="#000000">_monomial.h</text>
</a>
</g>
</g>
<!-- Node4&#45;&gt;Node45 -->
<g id="edge105" class="edge">
<title>Node4&#45;&gt;Node45</title>
<path fill="none" stroke="#191970" d="M1233.6898,-343.1259C1112.4508,-339.2474 862.8341,-328.2429 647.9418,-299.9069"/>
<polygon fill="#191970" stroke="#191970" points="648.1109,-296.3985 637.7357,-298.5444 647.1846,-303.3369 648.1109,-296.3985"/>
</g>
<!-- Node46 -->
<g id="node47" class="node">
<title>Node46</title>
<g id="a_node47"><a xlink:href="symbolic__monomial__util_8h.html" target="_top" xlink:title=" ">
<polygon fill="#ffffff" stroke="#000000" points="1238.5,-268.5 1238.5,-298.5 1375.5,-298.5 1375.5,-268.5 1238.5,-268.5"/>
<text text-anchor="start" x="1246.5" y="-286.5" font-family="Helvetica,sans-Serif" font-size="10.00" fill="#000000">drake/common/symbolic</text>
<text text-anchor="middle" x="1307" y="-275.5" font-family="Helvetica,sans-Serif" font-size="10.00" fill="#000000">_monomial_util.h</text>
</a>
</g>
</g>
<!-- Node4&#45;&gt;Node46 -->
<g id="edge114" class="edge">
<title>Node4&#45;&gt;Node46</title>
<path fill="none" stroke="#191970" d="M1301.9375,-335.3906C1300.539,-328.2234 1300.0098,-318.0862 1300.3497,-308.671"/>
<polygon fill="#191970" stroke="#191970" points="1303.8515,-308.7767 1301.1029,-298.5446 1296.8707,-308.2574 1303.8515,-308.7767"/>
</g>
<!-- Node47 -->
<g id="node48" class="node">
<title>Node47</title>
<g id="a_node48"><a xlink:href="symbolic__polynomial_8h.html" target="_top" xlink:title=" ">
<polygon fill="#ffffff" stroke="#000000" points="349.5,-268.5 349.5,-298.5 486.5,-298.5 486.5,-268.5 349.5,-268.5"/>
<text text-anchor="start" x="357.5" y="-286.5" font-family="Helvetica,sans-Serif" font-size="10.00" fill="#000000">drake/common/symbolic</text>
<text text-anchor="middle" x="418" y="-275.5" font-family="Helvetica,sans-Serif" font-size="10.00" fill="#000000">_polynomial.h</text>
</a>
</g>
</g>
<!-- Node4&#45;&gt;Node47 -->
<g id="edge124" class="edge">
<title>Node4&#45;&gt;Node47</title>
<path fill="none" stroke="#191970" d="M1233.9753,-342.3706C1064.609,-335.8516 648.2881,-318.1707 492.6325,-299.7766"/>
<polygon fill="#191970" stroke="#191970" points="492.6747,-296.2555 482.322,-298.5077 491.8196,-303.203 492.6747,-296.2555"/>
</g>
<!-- Node48 -->
<g id="node49" class="node">
<title>Node48</title>
<g id="a_node49"><a xlink:href="symbolic__rational__function_8h.html" target="_top" xlink:title=" ">
<polygon fill="#ffffff" stroke="#000000" points="814.5,-268.5 814.5,-298.5 951.5,-298.5 951.5,-268.5 814.5,-268.5"/>
<text text-anchor="start" x="822.5" y="-286.5" font-family="Helvetica,sans-Serif" font-size="10.00" fill="#000000">drake/common/symbolic</text>
<text text-anchor="middle" x="883" y="-275.5" font-family="Helvetica,sans-Serif" font-size="10.00" fill="#000000">_rational_function.h</text>
</a>
</g>
</g>
<!-- Node4&#45;&gt;Node48 -->
<g id="edge133" class="edge">
<title>Node4&#45;&gt;Node48</title>
<path fill="none" stroke="#191970" d="M1233.896,-337.5356C1164.0187,-329.6267 1055.7394,-316.1489 958.171,-300.1748"/>
<polygon fill="#191970" stroke="#191970" points="958.5952,-296.6975 948.1584,-298.5203 957.4539,-303.6039 958.5952,-296.6975"/>
</g>
<!-- Node49 -->
<g id="node50" class="node">
<title>Node49</title>
<g id="a_node50"><a xlink:href="symbolic__formula_8h.html" target="_top" xlink:title=" ">
<polygon fill="#ffffff" stroke="#000000" points="1651.5,-268.5 1651.5,-298.5 1788.5,-298.5 1788.5,-268.5 1651.5,-268.5"/>
<text text-anchor="start" x="1659.5" y="-286.5" font-family="Helvetica,sans-Serif" font-size="10.00" fill="#000000">drake/common/symbolic</text>
<text text-anchor="middle" x="1720" y="-275.5" font-family="Helvetica,sans-Serif" font-size="10.00" fill="#000000">_formula.h</text>
</a>
</g>
</g>
<!-- Node4&#45;&gt;Node49 -->
<g id="edge136" class="edge">
<title>Node4&#45;&gt;Node49</title>
<path fill="none" stroke="#191970" d="M1366.0288,-335.4581C1438.3754,-324.3604 1561.0714,-306.0771 1641.3555,-294.4213"/>
<polygon fill="#191970" stroke="#191970" points="1642.0222,-297.8613 1651.4168,-292.9632 1641.0181,-290.9337 1642.0222,-297.8613"/>
</g>
<!-- Node51 -->
<g id="node52" class="node">
<title>Node51</title>
<g id="a_node52"><a xlink:href="symbolic__simplification_8h.html" target="_top" xlink:title=" ">
<polygon fill="#ffffff" stroke="#000000" points="176.5,-268.5 176.5,-298.5 313.5,-298.5 313.5,-268.5 176.5,-268.5"/>
<text text-anchor="start" x="184.5" y="-286.5" font-family="Helvetica,sans-Serif" font-size="10.00" fill="#000000">drake/common/symbolic</text>
<text text-anchor="middle" x="245" y="-275.5" font-family="Helvetica,sans-Serif" font-size="10.00" fill="#000000">_simplification.h</text>
</a>
</g>
</g>
<!-- Node4&#45;&gt;Node51 -->
<g id="edge154" class="edge">
<title>Node4&#45;&gt;Node51</title>
<path fill="none" stroke="#191970" d="M1233.8514,-344.4248C1070.9887,-342.5081 666.7678,-334.2613 331,-299 328.6161,-298.7497 326.2011,-298.4787 323.7676,-298.1902"/>
<polygon fill="#191970" stroke="#191970" points="324.0514,-294.6983 313.6908,-296.9136 323.1716,-301.6428 324.0514,-294.6983"/>
</g>
<!-- Node52 -->
<g id="node53" class="node">
<title>Node52</title>
<g id="a_node53"><a xlink:href="symbolic__codegen_8h.html" target="_top" xlink:title=" ">
<polygon fill="#ffffff" stroke="#000000" points="2597.5,-268.5 2597.5,-298.5 2734.5,-298.5 2734.5,-268.5 2597.5,-268.5"/>
<text text-anchor="start" x="2605.5" y="-286.5" font-family="Helvetica,sans-Serif" font-size="10.00" fill="#000000">drake/common/symbolic</text>
<text text-anchor="middle" x="2666" y="-275.5" font-family="Helvetica,sans-Serif" font-size="10.00" fill="#000000">_codegen.h</text>
</a>
</g>
</g>
<!-- Node4&#45;&gt;Node52 -->
<g id="edge158" class="edge">
<title>Node4&#45;&gt;Node52</title>
<path fill="none" stroke="#191970" d="M1380.0836,-343.0595C1563.1175,-338.1287 2055.5471,-323.7263 2466,-299 2505.7646,-296.6045 2550.1176,-293.0588 2586.9878,-289.963"/>
<polygon fill="#191970" stroke="#191970" points="2587.5084,-293.4316 2597.1787,-289.1031 2586.9198,-286.4564 2587.5084,-293.4316"/>
</g>
<!-- Node6 -->
<g id="node7" class="node">
<title>Node6</title>
<g id="a_node7"><a xlink:title=" ">
<polygon fill="#ffffff" stroke="#bfbfbf" points="788.5,-140 788.5,-159 841.5,-159 841.5,-140 788.5,-140"/>
<text text-anchor="middle" x="815" y="-147" font-family="Helvetica,sans-Serif" font-size="10.00" fill="#000000">cstddef</text>
</a>
</g>
</g>
<!-- Node5&#45;&gt;Node6 -->
<g id="edge6" class="edge">
<title>Node5&#45;&gt;Node6</title>
<path fill="none" stroke="#191970" d="M1012.8525,-268.389C969.7678,-242.4995 882.36,-189.9764 839.6318,-164.3012"/>
<polygon fill="#191970" stroke="#191970" points="841.3573,-161.2548 830.983,-159.1042 837.7519,-167.2549 841.3573,-161.2548"/>
</g>
<!-- Node7 -->
<g id="node8" class="node">
<title>Node7</title>
<g id="a_node8"><a xlink:title=" ">
<polygon fill="#ffffff" stroke="#bfbfbf" points="916.5,-140 916.5,-159 981.5,-159 981.5,-140 916.5,-140"/>
<text text-anchor="middle" x="949" y="-147" font-family="Helvetica,sans-Serif" font-size="10.00" fill="#000000">functional</text>
</a>
</g>
</g>
<!-- Node5&#45;&gt;Node7 -->
<g id="edge7" class="edge">
<title>Node5&#45;&gt;Node7</title>
<path fill="none" stroke="#191970" d="M1013.1728,-268.3299C1000.1561,-259.2412 984.9037,-246.62 975,-232 962.0188,-212.8368 955.2441,-186.8437 951.9079,-169.1912"/>
<polygon fill="#191970" stroke="#191970" points="955.3339,-168.4588 950.2158,-159.1822 948.4318,-169.6257 955.3339,-168.4588"/>
</g>
<!-- Node8 -->
<g id="node9" class="node">
<title>Node8</title>
<g id="a_node9"><a xlink:title=" ">
<polygon fill="#ffffff" stroke="#bfbfbf" points="2672,-73 2672,-92 2730,-92 2730,-73 2672,-73"/>
<text text-anchor="middle" x="2701" y="-80" font-family="Helvetica,sans-Serif" font-size="10.00" fill="#000000">memory</text>
</a>
</g>
</g>
<!-- Node5&#45;&gt;Node8 -->
<g id="edge8" class="edge">
<title>Node5&#45;&gt;Node8</title>
<path fill="none" stroke="#191970" d="M969.2637,-268.8769C906.7419,-255.3603 823.2616,-236.6806 817,-232 779.5831,-204.0304 746.3207,-167.3824 779,-134 811.8664,-100.4264 2423.0629,-100.0733 2470,-98 2537.4286,-95.0216 2615.7879,-89.2816 2661.7268,-85.6843"/>
<polygon fill="#191970" stroke="#191970" points="2662.1579,-89.1612 2671.8514,-84.885 2661.6069,-82.1829 2662.1579,-89.1612"/>
</g>
<!-- Node9 -->
<g id="node10" class="node">
<title>Node9</title>
<g id="a_node10"><a xlink:title=" ">
<polygon fill="#ffffff" stroke="#bfbfbf" points="636.5,-207 636.5,-226 693.5,-226 693.5,-207 636.5,-207"/>
<text text-anchor="middle" x="665" y="-214" font-family="Helvetica,sans-Serif" font-size="10.00" fill="#000000">ostream</text>
</a>
</g>
</g>
<!-- Node5&#45;&gt;Node9 -->
<g id="edge9" class="edge">
<title>Node5&#45;&gt;Node9</title>
<path fill="none" stroke="#191970" d="M969.134,-269.6045C966.0497,-269.0486 962.9941,-268.511 960,-268 848.4753,-248.9674 817.7878,-259.3249 708,-232 704.8428,-231.2142 701.5939,-230.2825 698.3637,-229.2719"/>
<polygon fill="#191970" stroke="#191970" points="699.4336,-225.9391 688.8395,-226.0698 697.2028,-232.5741 699.4336,-225.9391"/>
</g>
<!-- Node10 -->
<g id="node11" class="node">
<title>Node10</title>
<g id="a_node11"><a xlink:title=" ">
<polygon fill="#ffffff" stroke="#bfbfbf" points="1510,-73 1510,-92 1554,-92 1554,-73 1510,-73"/>
<text text-anchor="middle" x="1532" y="-80" font-family="Helvetica,sans-Serif" font-size="10.00" fill="#000000">string</text>
</a>
</g>
</g>
<!-- Node5&#45;&gt;Node10 -->
<g id="edge10" class="edge">
<title>Node5&#45;&gt;Node10</title>
<path fill="none" stroke="#191970" d="M969.2664,-269.7402C894.3709,-254.7213 784.9576,-232.6944 784,-232 746.1829,-204.574 713.8603,-167.9022 746,-134 797.5963,-79.5742 1345.3457,-105.1468 1420,-98 1446.9902,-95.4162 1477.4601,-91.1083 1499.7975,-87.689"/>
<polygon fill="#191970" stroke="#191970" points="1500.4086,-91.1361 1509.7523,-86.1416 1499.3333,-84.2192 1500.4086,-91.1361"/>
</g>
<!-- Node11 -->
<g id="node12" class="node">
<title>Node11</title>
<g id="a_node12"><a xlink:title=" ">
<polygon fill="#ffffff" stroke="#bfbfbf" points="2062.5,-140 2062.5,-159 2131.5,-159 2131.5,-140 2062.5,-140"/>
<text text-anchor="middle" x="2097" y="-147" font-family="Helvetica,sans-Serif" font-size="10.00" fill="#000000">Eigen/Core</text>
</a>
</g>
</g>
<!-- Node5&#45;&gt;Node11 -->
<g id="edge11" class="edge">
<title>Node5&#45;&gt;Node11</title>
<path fill="none" stroke="#191970" d="M1106.7715,-277.9064C1268.864,-264.7129 1661.4211,-232.7016 1663,-232 1681.389,-223.8279 1677.8017,-209.5884 1696,-201 1698.0089,-200.0519 1947.8559,-168.3662 2052.1107,-155.1748"/>
<polygon fill="#191970" stroke="#191970" points="2052.8394,-158.6106 2062.321,-153.8831 2051.9608,-151.666 2052.8394,-158.6106"/>
</g>
<!-- Node12 -->
<g id="node13" class="node">
<title>Node12</title>
<g id="a_node13"><a xlink:href="drake__copyable_8h.html" target="_top" xlink:title="Provides careful macros to selectively enable or disable the special member functions for copy&#45;constr...">
<polygon fill="#ffffff" stroke="#000000" points="1935.5,-.5 1935.5,-30.5 2056.5,-30.5 2056.5,-.5 1935.5,-.5"/>
<text text-anchor="start" x="1943.5" y="-18.5" font-family="Helvetica,sans-Serif" font-size="10.00" fill="#000000">drake/common/drake</text>
<text text-anchor="middle" x="1996" y="-7.5" font-family="Helvetica,sans-Serif" font-size="10.00" fill="#000000">_copyable.h</text>
</a>
</g>
</g>
<!-- Node5&#45;&gt;Node12 -->
<g id="edge12" class="edge">
<title>Node5&#45;&gt;Node12</title>
<path fill="none" stroke="#191970" d="M969.1176,-269.6973C966.0377,-269.1163 962.9876,-268.548 960,-268 912.5676,-259.2995 781.4655,-264.6761 746,-232 713.4893,-202.0463 699.2882,-166.732 729,-134 735.4807,-126.8605 1410.3994,-67.8946 1420,-67 1602.0628,-50.0347 1816.6062,-31.143 1925.2683,-21.6524"/>
<polygon fill="#191970" stroke="#191970" points="1925.7911,-25.1202 1935.4488,-20.7637 1925.1823,-18.1467 1925.7911,-25.1202"/>
</g>
<!-- Node13 -->
<g id="node14" class="node">
<title>Node13</title>
<g id="a_node14"><a xlink:href="eigen__types_8h.html" target="_top" xlink:title="This file contains abbreviated definitions for certain specializations of Eigen::Matrix that are comm...">
<polygon fill="#ffffff" stroke="#000000" points="1534,-201.5 1534,-231.5 1654,-231.5 1654,-201.5 1534,-201.5"/>
<text text-anchor="start" x="1542" y="-219.5" font-family="Helvetica,sans-Serif" font-size="10.00" fill="#000000">drake/common/eigen</text>
<text text-anchor="middle" x="1594" y="-208.5" font-family="Helvetica,sans-Serif" font-size="10.00" fill="#000000">_types.h</text>
</a>
</g>
</g>
<!-- Node5&#45;&gt;Node13 -->
<g id="edge13" class="edge">
<title>Node5&#45;&gt;Node13</title>
<path fill="none" stroke="#191970" d="M1106.7342,-275.2173C1213.1275,-262.3965 1416.5825,-237.8794 1523.8373,-224.9549"/>
<polygon fill="#191970" stroke="#191970" points="1524.4006,-228.4124 1533.91,-223.7411 1523.5631,-221.4627 1524.4006,-228.4124"/>
</g>
<!-- Node16 -->
<g id="node17" class="node">
<title>Node16</title>
<g id="a_node17"><a xlink:href="hash_8h.html" target="_top" xlink:title=" ">
<polygon fill="#ffffff" stroke="#000000" points="1238.5,-207 1238.5,-226 1363.5,-226 1363.5,-207 1238.5,-207"/>
<text text-anchor="middle" x="1301" y="-214" font-family="Helvetica,sans-Serif" font-size="10.00" fill="#000000">drake/common/hash.h</text>
</a>
</g>
</g>
<!-- Node5&#45;&gt;Node16 -->
<g id="edge19" class="edge">
<title>Node5&#45;&gt;Node16</title>
<path fill="none" stroke="#191970" d="M1097.0223,-268.4639C1144.3719,-256.4015 1209.9534,-239.6944 1253.8451,-228.5128"/>
<polygon fill="#191970" stroke="#191970" points="1254.8618,-231.8657 1263.6882,-226.0053 1253.1336,-225.0824 1254.8618,-231.8657"/>
</g>
<!-- Node13&#45;&gt;Node1 -->
<g id="edge14" class="edge">
<title>Node13&#45;&gt;Node1</title>
<path fill="none" stroke="#191970" d="M1568.3112,-201.3491C1534.4009,-180.6227 1473.8734,-141.0579 1430,-98 1409.824,-78.1991 1390.9666,-51.4671 1379.4665,-33.8695"/>
<polygon fill="#191970" stroke="#191970" points="1382.2132,-31.6685 1373.8729,-25.1348 1376.3184,-35.4435 1382.2132,-31.6685"/>
</g>
<!-- Node13&#45;&gt;Node2 -->
<g id="edge17" class="edge">
<title>Node13&#45;&gt;Node2</title>
<path fill="none" stroke="#191970" d="M1654.1409,-203.7236C1658.8266,-202.783 1663.488,-201.8649 1668,-201 1838.5773,-168.3029 1881.5248,-161.6042 2053,-134 2148.8343,-118.5725 2259.8057,-102.4509 2330.1809,-92.4434"/>
<polygon fill="#191970" stroke="#191970" points="2330.8542,-95.883 2340.2629,-91.0121 2329.8702,-88.9525 2330.8542,-95.883"/>
</g>
<!-- Node13&#45;&gt;Node12 -->
<g id="edge18" class="edge">
<title>Node13&#45;&gt;Node12</title>
<path fill="none" stroke="#191970" d="M1590.6242,-201.2468C1587.5641,-183.1265 1585.5967,-152.9705 1601,-134 1641.9457,-83.5719 1823.3026,-45.0953 1925.4465,-26.9636"/>
<polygon fill="#191970" stroke="#191970" points="1926.1346,-30.3965 1935.379,-25.2203 1924.9244,-23.5018 1926.1346,-30.3965"/>
</g>
<!-- Node14 -->
<g id="node15" class="node">
<title>Node14</title>
<g id="a_node15"><a xlink:title=" ">
<polygon fill="#ffffff" stroke="#bfbfbf" points="1610.5,-140 1610.5,-159 1687.5,-159 1687.5,-140 1610.5,-140"/>
<text text-anchor="middle" x="1649" y="-147" font-family="Helvetica,sans-Serif" font-size="10.00" fill="#000000">Eigen/Dense</text>
</a>
</g>
</g>
<!-- Node13&#45;&gt;Node14 -->
<g id="edge15" class="edge">
<title>Node13&#45;&gt;Node14</title>
<path fill="none" stroke="#191970" d="M1606.4804,-201.2967C1614.8832,-191.0605 1625.9849,-177.5366 1634.7373,-166.8746"/>
<polygon fill="#191970" stroke="#191970" points="1637.5167,-169.005 1641.1564,-159.055 1632.1061,-164.5635 1637.5167,-169.005"/>
</g>
<!-- Node15 -->
<g id="node16" class="node">
<title>Node15</title>
<g id="a_node16"><a xlink:href="constants_8h.html" target="_top" xlink:title=" ">
<polygon fill="#ffffff" stroke="#000000" points="1705.5,-140 1705.5,-159 1854.5,-159 1854.5,-140 1705.5,-140"/>
<text text-anchor="middle" x="1780" y="-147" font-family="Helvetica,sans-Serif" font-size="10.00" fill="#000000">drake/common/constants.h</text>
</a>
</g>
</g>
<!-- Node13&#45;&gt;Node15 -->
<g id="edge16" class="edge">
<title>Node13&#45;&gt;Node15</title>
<path fill="none" stroke="#191970" d="M1635.742,-201.4639C1668.3123,-189.7316 1713.0806,-173.6054 1744.0684,-162.4431"/>
<polygon fill="#191970" stroke="#191970" points="1745.3901,-165.6872 1753.6122,-159.0053 1743.0178,-159.1015 1745.3901,-165.6872"/>
</g>
<!-- Node16&#45;&gt;Node1 -->
<g id="edge29" class="edge">
<title>Node16&#45;&gt;Node1</title>
<path fill="none" stroke="#191970" d="M1252.5502,-206.9199C1242.4572,-204.945 1231.8839,-202.8914 1222,-201 1132.8187,-183.9342 976.4452,-208.0441 1029,-134 1065.6191,-82.4076 1257.2424,-38.14 1335.0828,-22.0097"/>
<polygon fill="#191970" stroke="#191970" points="1336.1879,-25.3562 1345.2833,-19.9226 1334.7846,-18.4983 1336.1879,-25.3562"/>
</g>
<!-- Node16&#45;&gt;Node2 -->
<g id="edge31" class="edge">
<title>Node16&#45;&gt;Node2</title>
<path fill="none" stroke="#191970" d="M1305.1907,-206.9033C1313.6648,-188.8372 1334.7296,-150.1449 1366,-134 1408.7796,-111.9128 2103.8303,-90.751 2330.2873,-84.4134"/>
<polygon fill="#191970" stroke="#191970" points="2330.4941,-87.9091 2340.3926,-84.1317 2330.299,-80.9118 2330.4941,-87.9091"/>
</g>
<!-- Node16&#45;&gt;Node3 -->
<g id="edge28" class="edge">
<title>Node16&#45;&gt;Node3</title>
<path fill="none" stroke="#191970" d="M1298.4194,-206.8982C1294.5406,-190.1581 1289.314,-155.3792 1306,-134 1338.691,-92.1143 1369.8329,-115.5035 1420,-98 1456.3948,-85.3017 1463.2758,-74.9192 1501,-67 1601.7914,-45.8415 2332.1611,-22.5512 2521.3472,-16.8248"/>
<polygon fill="#191970" stroke="#191970" points="2521.5991,-20.3189 2531.489,-16.519 2521.388,-13.3221 2521.5991,-20.3189"/>
</g>
<!-- Node16&#45;&gt;Node6 -->
<g id="edge21" class="edge">
<title>Node16&#45;&gt;Node6</title>
<path fill="none" stroke="#191970" d="M1238.1578,-211.5901C1132.1906,-202.9294 922.5226,-184.0463 851,-165 848.6698,-164.3795 846.2949,-163.6337 843.9323,-162.8093"/>
<polygon fill="#191970" stroke="#191970" points="845.0235,-159.478 834.4356,-159.0968 842.4748,-165.9976 845.0235,-159.478"/>
</g>
<!-- Node16&#45;&gt;Node7 -->
<g id="edge22" class="edge">
<title>Node16&#45;&gt;Node7</title>
<path fill="none" stroke="#191970" d="M1255.0506,-206.9216C1244.8433,-204.8856 1234.0662,-202.807 1224,-201 1123.0254,-182.8736 1095.7071,-189.1443 996,-165 992.5554,-164.1659 989.0005,-163.1981 985.4604,-162.1615"/>
<polygon fill="#191970" stroke="#191970" points="986.2144,-158.7309 975.6263,-159.1112 984.1406,-165.4166 986.2144,-158.7309"/>
</g>
<!-- Node16&#45;&gt;Node10 -->
<g id="edge27" class="edge">
<title>Node16&#45;&gt;Node10</title>
<path fill="none" stroke="#191970" d="M1301.2,-206.9691C1302.1053,-189.7023 1306.6043,-153.2556 1328,-134 1384.7599,-82.9175 1423.251,-121.2097 1496,-98 1498.1069,-97.3278 1500.2591,-96.5765 1502.411,-95.777"/>
<polygon fill="#191970" stroke="#191970" points="1503.7193,-99.0233 1511.7035,-92.0589 1501.1189,-92.5242 1503.7193,-99.0233"/>
</g>
<!-- Node17 -->
<g id="node18" class="node">
<title>Node17</title>
<g id="a_node18"><a xlink:title=" ">
<polygon fill="#ffffff" stroke="#bfbfbf" points="1038.5,-140 1038.5,-159 1085.5,-159 1085.5,-140 1038.5,-140"/>
<text text-anchor="middle" x="1062" y="-147" font-family="Helvetica,sans-Serif" font-size="10.00" fill="#000000">cmath</text>
</a>
</g>
</g>
<!-- Node16&#45;&gt;Node17 -->
<g id="edge20" class="edge">
<title>Node16&#45;&gt;Node17</title>
<path fill="none" stroke="#191970" d="M1251.5087,-206.9511C1209.2764,-198.1373 1147.2672,-183.6092 1095,-165 1093.4012,-164.4308 1091.7753,-163.8107 1090.1455,-163.1568"/>
<polygon fill="#191970" stroke="#191970" points="1091.4972,-159.9281 1080.9303,-159.1582 1088.7108,-166.3496 1091.4972,-159.9281"/>
</g>
<!-- Node18 -->
<g id="node19" class="node">
<title>Node18</title>
<g id="a_node19"><a xlink:title=" ">
<polygon fill="#ffffff" stroke="#bfbfbf" points="1104,-140 1104,-159 1164,-159 1164,-140 1104,-140"/>
<text text-anchor="middle" x="1134" y="-147" font-family="Helvetica,sans-Serif" font-size="10.00" fill="#000000">iostream</text>
</a>
</g>
</g>
<!-- Node16&#45;&gt;Node18 -->
<g id="edge23" class="edge">
<title>Node16&#45;&gt;Node18</title>
<path fill="none" stroke="#191970" d="M1277.073,-206.9005C1248.3025,-195.3579 1199.8436,-175.9163 1167.3983,-162.8993"/>
<polygon fill="#191970" stroke="#191970" points="1168.4668,-159.5569 1157.8826,-159.0817 1165.8603,-166.0535 1168.4668,-159.5569"/>
</g>
<!-- Node19 -->
<g id="node20" class="node">
<title>Node19</title>
<g id="a_node20"><a xlink:title=" ">
<polygon fill="#ffffff" stroke="#bfbfbf" points="860,-140 860,-159 898,-159 898,-140 860,-140"/>
<text text-anchor="middle" x="879" y="-147" font-family="Helvetica,sans-Serif" font-size="10.00" fill="#000000">map</text>
</a>
</g>
</g>
<!-- Node16&#45;&gt;Node19 -->
<g id="edge24" class="edge">
<title>Node16&#45;&gt;Node19</title>
<path fill="none" stroke="#191970" d="M1238.4782,-209.6277C1135.3226,-198.095 937.7585,-175.1172 907,-165 905.7531,-164.5899 904.4978,-164.1234 903.2464,-163.6145"/>
<polygon fill="#191970" stroke="#191970" points="904.4571,-160.3124 893.9303,-159.1138 901.412,-166.6154 904.4571,-160.3124"/>
</g>
<!-- Node20 -->
<g id="node21" class="node">
<title>Node20</title>
<g id="a_node21"><a xlink:title=" ">
<polygon fill="#ffffff" stroke="#bfbfbf" points="1182,-140 1182,-159 1238,-159 1238,-140 1182,-140"/>
<text text-anchor="middle" x="1210" y="-147" font-family="Helvetica,sans-Serif" font-size="10.00" fill="#000000">optional</text>
</a>
</g>
</g>
<!-- Node16&#45;&gt;Node20 -->
<g id="edge25" class="edge">
<title>Node16&#45;&gt;Node20</title>
<path fill="none" stroke="#191970" d="M1287.9619,-206.9005C1273.2307,-196.0544 1249.0267,-178.2339 1231.4908,-165.3229"/>
<polygon fill="#191970" stroke="#191970" points="1233.1418,-162.1922 1223.0139,-159.0817 1228.9915,-167.8291 1233.1418,-162.1922"/>
</g>
<!-- Node21 -->
<g id="node22" class="node">
<title>Node21</title>
<g id="a_node22"><a xlink:title=" ">
<polygon fill="#ffffff" stroke="#bfbfbf" points="1408,-140 1408,-159 1440,-159 1440,-140 1408,-140"/>
<text text-anchor="middle" x="1424" y="-147" font-family="Helvetica,sans-Serif" font-size="10.00" fill="#000000">set</text>
</a>
</g>
</g>
<!-- Node16&#45;&gt;Node21 -->
<g id="edge26" class="edge">
<title>Node16&#45;&gt;Node21</title>
<path fill="none" stroke="#191970" d="M1318.6229,-206.9005C1339.7342,-195.4009 1375.2389,-176.0609 1399.1339,-163.0449"/>
<polygon fill="#191970" stroke="#191970" points="1400.8677,-166.0862 1407.9751,-158.229 1397.5192,-159.939 1400.8677,-166.0862"/>
</g>
<!-- Node22 -->
<g id="node23" class="node">
<title>Node22</title>
<g id="a_node23"><a xlink:title=" ">
<polygon fill="#ffffff" stroke="#bfbfbf" points="2913.5,-73 2913.5,-92 2960.5,-92 2960.5,-73 2913.5,-73"/>
<text text-anchor="middle" x="2937" y="-80" font-family="Helvetica,sans-Serif" font-size="10.00" fill="#000000">vector</text>
</a>
</g>
</g>
<!-- Node16&#45;&gt;Node22 -->
<g id="edge30" class="edge">
<title>Node16&#45;&gt;Node22</title>
<path fill="none" stroke="#191970" d="M1312.9381,-206.6895C1325.4613,-196.3735 1345.6918,-179.6386 1363,-165 1379.1217,-151.3648 1379.3058,-141.6134 1399,-134 1537.9233,-80.295 2590.2625,-105.8146 2739,-98 2796.7198,-94.9674 2863.746,-89.2604 2903.142,-85.6817"/>
<polygon fill="#191970" stroke="#191970" points="2903.6141,-89.1532 2913.2528,-84.7547 2902.975,-82.1824 2903.6141,-89.1532"/>
</g>
<!-- Node23 -->
<g id="node24" class="node">
<title>Node23</title>
<g id="a_node24"><a xlink:href="drake__throw_8h.html" target="_top" xlink:title="Provides a convenient wrapper to throw an exception when a condition is unmet.">
<polygon fill="#ffffff" stroke="#000000" points="2378.5,-134.5 2378.5,-164.5 2499.5,-164.5 2499.5,-134.5 2378.5,-134.5"/>
<text text-anchor="start" x="2386.5" y="-152.5" font-family="Helvetica,sans-Serif" font-size="10.00" fill="#000000">drake/common/drake</text>
<text text-anchor="middle" x="2439" y="-141.5" font-family="Helvetica,sans-Serif" font-size="10.00" fill="#000000">_throw.h</text>
</a>
</g>
</g>
<!-- Node16&#45;&gt;Node23 -->
<g id="edge32" class="edge">
<title>Node16&#45;&gt;Node23</title>
<path fill="none" stroke="#191970" d="M1363.746,-211.9425C1408.6467,-208.7339 1470.5326,-204.4188 1525,-201 1839.1849,-181.2791 2214.3516,-161.2448 2368.0463,-153.188"/>
<polygon fill="#191970" stroke="#191970" points="2368.4832,-156.67 2378.2864,-152.6517 2368.1171,-149.6796 2368.4832,-156.67"/>
</g>
<!-- Node23&#45;&gt;Node2 -->
<g id="edge34" class="edge">
<title>Node23&#45;&gt;Node2</title>
<path fill="none" stroke="#191970" d="M2430.3772,-134.2967C2425.713,-126.0729 2419.8453,-115.7272 2414.5826,-106.4483"/>
<polygon fill="#191970" stroke="#191970" points="2417.5665,-104.6148 2409.5887,-97.6432 2411.4777,-108.0683 2417.5665,-104.6148"/>
</g>
<!-- Node23&#45;&gt;Node3 -->
<g id="edge33" class="edge">
<title>Node23&#45;&gt;Node3</title>
<path fill="none" stroke="#191970" d="M2453.3216,-134.389C2477.19,-109.2051 2524.9434,-58.8195 2549.9268,-32.4592"/>
<polygon fill="#191970" stroke="#191970" points="2552.5589,-34.7699 2556.8975,-25.1042 2547.4782,-29.9547 2552.5589,-34.7699"/>
</g>
<!-- Node24&#45;&gt;Node4 -->
<g id="edge44" class="edge">
<title>Node24&#45;&gt;Node4</title>
<path fill="none" stroke="#191970" d="M796.5422,-296.1503C802.4528,-297.1991 808.3329,-298.1724 814,-299 957.4416,-319.9477 1125.4202,-333.0455 1223.6956,-339.682"/>
<polygon fill="#191970" stroke="#191970" points="1223.6518,-343.1868 1233.8632,-340.3624 1224.1192,-336.2024 1223.6518,-343.1868"/>
</g>
<!-- Node24&#45;&gt;Node6 -->
<g id="edge36" class="edge">
<title>Node24&#45;&gt;Node6</title>
<path fill="none" stroke="#191970" d="M664.7281,-268.4387C618.5382,-256.8057 562.8405,-241.1887 556,-232 547.7727,-220.9484 547.2591,-211.6501 556,-201 583.6893,-167.2628 713.4608,-155.2217 778.1501,-151.266"/>
<polygon fill="#191970" stroke="#191970" points="778.5386,-154.7495 788.3199,-150.6782 778.1346,-147.7612 778.5386,-154.7495"/>
</g>
<!-- Node24&#45;&gt;Node7 -->
<g id="edge37" class="edge">
<title>Node24&#45;&gt;Node7</title>
<path fill="none" stroke="#191970" d="M663.61,-268.3736C617.0844,-254.5005 566.8199,-231.4854 594,-201 640.5933,-148.7406 838.8945,-181.2361 907,-165 910.1754,-164.243 913.4394,-163.3172 916.6774,-162.2983"/>
<polygon fill="#191970" stroke="#191970" points="917.8718,-165.5889 926.199,-159.0384 915.6044,-158.9663 917.8718,-165.5889"/>
</g>
<!-- Node24&#45;&gt;Node9 -->
<g id="edge39" class="edge">
<title>Node24&#45;&gt;Node9</title>
<path fill="none" stroke="#191970" d="M713.7043,-268.2967C703.9839,-257.9591 691.1106,-244.2684 681.0403,-233.5588"/>
<polygon fill="#191970" stroke="#191970" points="683.3846,-230.9426 673.9845,-226.055 678.285,-235.7378 683.3846,-230.9426"/>
</g>
<!-- Node24&#45;&gt;Node10 -->
<g id="edge41" class="edge">
<title>Node24&#45;&gt;Node10</title>
<path fill="none" stroke="#191970" d="M660.0734,-268.4409C611.4099,-256.9661 553.23,-241.5597 546,-232 537.6891,-221.0111 538.1081,-212.2936 546,-201 595.6119,-130.0036 644.2449,-151.8439 729,-134 880.0775,-102.1928 1368.9027,-86.9185 1499.6097,-83.3396"/>
<polygon fill="#191970" stroke="#191970" points="1499.8668,-86.834 1509.7687,-83.0654 1499.6778,-79.8366 1499.8668,-86.834"/>
</g>
<!-- Node24&#45;&gt;Node13 -->
<g id="edge42" class="edge">
<title>Node24&#45;&gt;Node13</title>
<path fill="none" stroke="#191970" d="M796.7699,-269.1775C799.5448,-268.7516 802.2961,-268.3563 805,-268 1055.343,-235.0097 1120.0516,-248.7937 1372,-232 1422.6781,-228.622 1479.8497,-224.626 1523.4818,-221.5374"/>
<polygon fill="#191970" stroke="#191970" points="1523.9767,-225.0112 1533.7042,-220.8129 1523.4818,-218.0287 1523.9767,-225.0112"/>
</g>
<!-- Node24&#45;&gt;Node16 -->
<g id="edge43" class="edge">
<title>Node24&#45;&gt;Node16</title>
<path fill="none" stroke="#191970" d="M796.7894,-269.3153C799.5589,-268.8513 802.3038,-268.4104 805,-268 954.6198,-245.2262 1131.1865,-229.5405 1228.1295,-221.8821"/>
<polygon fill="#191970" stroke="#191970" points="1228.4219,-225.37 1238.1178,-221.0992 1227.8748,-218.3914 1228.4219,-225.37"/>
</g>
<!-- Node24&#45;&gt;Node21 -->
<g id="edge40" class="edge">
<title>Node24&#45;&gt;Node21</title>
<path fill="none" stroke="#191970" d="M685.2003,-268.3659C647.522,-252.8268 602.2159,-227.2649 627,-201 674.3585,-150.8119 1178.1772,-170.0104 1247,-165 1300.5786,-161.0994 1363.1728,-155.3327 1397.721,-152.0439"/>
<polygon fill="#191970" stroke="#191970" points="1398.2847,-155.506 1407.9055,-151.0687 1397.6174,-148.5379 1398.2847,-155.506"/>
</g>
<!-- Node25 -->
<g id="node26" class="node">
<title>Node25</title>
<g id="a_node26"><a xlink:title=" ">
<polygon fill="#ffffff" stroke="#bfbfbf" points="984.5,-207 984.5,-226 1067.5,-226 1067.5,-207 984.5,-207"/>
<text text-anchor="middle" x="1026" y="-214" font-family="Helvetica,sans-Serif" font-size="10.00" fill="#000000">initializer_list</text>
</a>
</g>
</g>
<!-- Node24&#45;&gt;Node25 -->
<g id="edge38" class="edge">
<title>Node24&#45;&gt;Node25</title>
<path fill="none" stroke="#191970" d="M794.877,-268.4639C849.1402,-256.2638 924.5359,-239.3124 974.2629,-228.1322"/>
<polygon fill="#191970" stroke="#191970" points="975.1711,-231.5154 984.1597,-225.907 973.6355,-224.6859 975.1711,-231.5154"/>
</g>
<!-- Node26&#45;&gt;Node4 -->
<g id="edge55" class="edge">
<title>Node26&#45;&gt;Node4</title>
<path fill="none" stroke="#191970" d="M1434.5121,-298.5446C1408.9392,-308.7786 1373.7548,-322.1853 1346.7605,-331.9645"/>
<polygon fill="#191970" stroke="#191970" points="1345.4476,-328.717 1337.2188,-335.3906 1347.8132,-335.3052 1345.4476,-328.717"/>
</g>
<!-- Node26&#45;&gt;Node9 -->
<g id="edge47" class="edge">
<title>Node26&#45;&gt;Node9</title>
<path fill="none" stroke="#191970" d="M1399.3407,-270.1425C1394.1605,-269.3458 1389.004,-268.6183 1384,-268 1133.3984,-237.0351 1068.6483,-252.8119 817,-232 778.4548,-228.8122 734.5081,-224.2275 703.8172,-220.8712"/>
<polygon fill="#191970" stroke="#191970" points="703.868,-217.3557 693.5449,-219.7396 703.1015,-224.3136 703.868,-217.3557"/>
</g>
<!-- Node26&#45;&gt;Node10 -->
<g id="edge48" class="edge">
<title>Node26&#45;&gt;Node10</title>
<path fill="none" stroke="#191970" d="M1472.8104,-268.3923C1484.2608,-232.431 1513.124,-141.7824 1525.8316,-101.8727"/>
<polygon fill="#191970" stroke="#191970" points="1529.1945,-102.8468 1528.8935,-92.2562 1522.5245,-100.7229 1529.1945,-102.8468"/>
</g>
<!-- Node26&#45;&gt;Node12 -->
<g id="edge50" class="edge">
<title>Node26&#45;&gt;Node12</title>
<path fill="none" stroke="#191970" d="M1536.6599,-275.1806C1619.7389,-262.4875 1761.1266,-232.2542 1863,-165 1914.6749,-130.8856 1958.8668,-71.8021 1980.9452,-39.0572"/>
<polygon fill="#191970" stroke="#191970" points="1983.9679,-40.8319 1986.5739,-30.5625 1978.1326,-36.9654 1983.9679,-40.8319"/>
</g>
<!-- Node26&#45;&gt;Node13 -->
<g id="edge51" class="edge">
<title>Node26&#45;&gt;Node13</title>
<path fill="none" stroke="#191970" d="M1496.2769,-268.4639C1514.0657,-259.0047 1537.2259,-246.6894 1556.5343,-236.4222"/>
<polygon fill="#191970" stroke="#191970" points="1558.1955,-239.503 1565.3816,-231.7177 1554.909,-233.3225 1558.1955,-239.503"/>
</g>
<!-- Node26&#45;&gt;Node25 -->
<g id="edge46" class="edge">
<title>Node26&#45;&gt;Node25</title>
<path fill="none" stroke="#191970" d="M1399.2764,-270.5899C1394.111,-269.6897 1388.9755,-268.8166 1384,-268 1275.4067,-250.1773 1147.7174,-232.6211 1077.9705,-223.3193"/>
<polygon fill="#191970" stroke="#191970" points="1078.0718,-219.802 1067.6976,-221.9531 1077.1489,-226.7409 1078.0718,-219.802"/>
</g>
<!-- Node27 -->
<g id="node28" class="node">
<title>Node27</title>
<g id="a_node28"><a xlink:title=" ">
<polygon fill="#ffffff" stroke="#bfbfbf" points="1900.5,-207 1900.5,-226 1993.5,-226 1993.5,-207 1900.5,-207"/>
<text text-anchor="middle" x="1947" y="-214" font-family="Helvetica,sans-Serif" font-size="10.00" fill="#000000">unordered_map</text>
</a>
</g>
</g>
<!-- Node26&#45;&gt;Node27 -->
<g id="edge49" class="edge">
<title>Node26&#45;&gt;Node27</title>
<path fill="none" stroke="#191970" d="M1536.7077,-274.6211C1612.8638,-264.6788 1739.3036,-247.873 1848,-232 1861.7829,-229.9873 1876.6283,-227.7174 1890.5235,-225.548"/>
<polygon fill="#191970" stroke="#191970" points="1891.108,-228.9992 1900.4446,-223.9913 1890.0229,-222.0838 1891.108,-228.9992"/>
</g>
<!-- Node28 -->
<g id="node29" class="node">
<title>Node28</title>
<g id="a_node29"><a xlink:href="random_8h.html" target="_top" xlink:title=" ">
<polygon fill="#ffffff" stroke="#000000" points="2304,-207 2304,-226 2444,-226 2444,-207 2304,-207"/>
<text text-anchor="middle" x="2374" y="-214" font-family="Helvetica,sans-Serif" font-size="10.00" fill="#000000">drake/common/random.h</text>
</a>
</g>
</g>
<!-- Node26&#45;&gt;Node28 -->
<g id="edge52" class="edge">
<title>Node26&#45;&gt;Node28</title>
<path fill="none" stroke="#191970" d="M1536.5634,-277.0413C1568.5842,-274.115 1607.2284,-270.7118 1642,-268 1880.9204,-249.3671 1940.9972,-249.5434 2180,-232 2217.4171,-229.2535 2258.8735,-225.9734 2293.8256,-223.1394"/>
<polygon fill="#191970" stroke="#191970" points="2294.2925,-226.6131 2303.976,-222.3142 2293.7252,-219.6361 2294.2925,-226.6131"/>
</g>
<!-- Node28&#45;&gt;Node12 -->
<g id="edge54" class="edge">
<title>Node28&#45;&gt;Node12</title>
<path fill="none" stroke="#191970" d="M2356.0226,-206.9406C2297.7942,-175.9779 2113.5233,-77.9926 2033.5941,-35.4905"/>
<polygon fill="#191970" stroke="#191970" points="2034.852,-32.1954 2024.3794,-30.5906 2031.5655,-38.3759 2034.852,-32.1954"/>
</g>
<!-- Node29 -->
<g id="node30" class="node">
<title>Node29</title>
<g id="a_node30"><a xlink:title=" ">
<polygon fill="#ffffff" stroke="#bfbfbf" points="2594,-140 2594,-159 2648,-159 2648,-140 2594,-140"/>
<text text-anchor="middle" x="2621" y="-147" font-family="Helvetica,sans-Serif" font-size="10.00" fill="#000000">random</text>
</a>
</g>
</g>
<!-- Node28&#45;&gt;Node29 -->
<g id="edge53" class="edge">
<title>Node28&#45;&gt;Node29</title>
<path fill="none" stroke="#191970" d="M2409.1268,-206.9717C2455.534,-194.3835 2536.902,-172.312 2584.1543,-159.4946"/>
<polygon fill="#191970" stroke="#191970" points="2585.2425,-162.8259 2593.9775,-156.83 2583.4099,-156.0701 2585.2425,-162.8259"/>
</g>
<!-- Node30&#45;&gt;Node1 -->
<g id="edge68" class="edge">
<title>Node30&#45;&gt;Node1</title>
<path fill="none" stroke="#191970" d="M3153.8503,-278.1286C3250.3071,-269.8951 3415.9651,-252.8915 3434,-232 3443.0032,-221.5707 3441.4826,-212.5689 3434,-201 3345.4742,-64.1291 3236.2278,-150.7661 3082,-98 3053.9734,-88.4113 3051.6453,-74.5419 3023,-67 3002.6367,-61.6386 1632.0126,-22.9179 1400.9107,-16.4232"/>
<polygon fill="#191970" stroke="#191970" points="1400.8715,-12.9208 1390.7771,-16.1385 1400.6749,-19.918 1400.8715,-12.9208"/>
</g>
<!-- Node30&#45;&gt;Node2 -->
<g id="edge76" class="edge">
<title>Node30&#45;&gt;Node2</title>
<path fill="none" stroke="#191970" d="M3153.5844,-279.5223C3222.2986,-273.9349 3321.1967,-260.9806 3345,-232 3353.7448,-221.3531 3354.3476,-211.1217 3345,-201 3310.8185,-163.9879 2942.8905,-172.0151 2893,-165 2824.2941,-155.3393 2808.318,-146.1029 2740,-134 2647.7262,-117.6532 2540.75,-101.9369 2472.0439,-92.2568"/>
<polygon fill="#191970" stroke="#191970" points="2472.1621,-88.7391 2461.7726,-90.8145 2471.1887,-95.6711 2472.1621,-88.7391"/>
</g>
<!-- Node30&#45;&gt;Node3 -->
<g id="edge66" class="edge">
<title>Node30&#45;&gt;Node3</title>
<path fill="none" stroke="#191970" d="M3153.7079,-282.8867C3306.8176,-280.8058 3665.4748,-271.701 3702,-232 3726.0062,-205.9066 3683.2175,-145.4426 3672,-134 3623.1483,-84.1679 3597.6636,-84.0696 3530,-67 3440.3246,-44.3774 2788.6307,-22.4799 2610.7507,-16.8752"/>
<polygon fill="#191970" stroke="#191970" points="2610.7975,-13.375 2600.6927,-16.5598 2610.5781,-20.3716 2610.7975,-13.375"/>
</g>
<!-- Node30&#45;&gt;Node4 -->
<g id="edge97" class="edge">
<title>Node30&#45;&gt;Node4</title>
<path fill="none" stroke="#191970" d="M3016.3133,-287.2202C2948.9882,-290.5561 2843.6115,-295.4569 2752,-299 2234.6127,-319.0104 1612.1218,-336.8142 1390.3564,-342.8332"/>
<polygon fill="#191970" stroke="#191970" points="1390.0027,-339.3414 1380.1011,-343.1109 1390.1922,-346.3389 1390.0027,-339.3414"/>
</g>
<!-- Node30&#45;&gt;Node6 -->
<g id="edge58" class="edge">
<title>Node30&#45;&gt;Node6</title>
<path fill="none" stroke="#191970" d="M3040.4701,-268.4452C3017.2857,-259.5855 2989.0471,-247.1425 2966,-232 2949.1821,-220.9502 2951.6446,-208.5709 2933,-201 2825.8158,-157.4762 964.0958,-189.3336 851,-165 848.3473,-164.4293 845.6476,-163.6603 842.9799,-162.7686"/>
<polygon fill="#191970" stroke="#191970" points="844.1885,-159.4834 833.5993,-159.1372 841.6614,-166.0114 844.1885,-159.4834"/>
</g>
<!-- Node30&#45;&gt;Node7 -->
<g id="edge59" class="edge">
<title>Node30&#45;&gt;Node7</title>
<path fill="none" stroke="#191970" d="M3072.5132,-268.255C3054.2683,-246.4487 3020.6859,-208.1809 3004,-201 2903.1979,-157.6191 1138.1383,-176.48 1029,-165 1016.6891,-163.705 1003.4479,-161.4845 991.3505,-159.1224"/>
<polygon fill="#191970" stroke="#191970" points="991.9999,-155.6829 981.5032,-157.1222 990.6064,-162.5428 991.9999,-155.6829"/>
</g>
<!-- Node30&#45;&gt;Node8 -->
<g id="edge62" class="edge">
<title>Node30&#45;&gt;Node8</title>
<path fill="none" stroke="#191970" d="M3153.7957,-281.2799C3231.2355,-277.1622 3349.9381,-265.4244 3378,-232 3386.859,-221.448 3387.2199,-211.2382 3378,-201 3326.7131,-144.0485 3110.492,-178.2205 3035,-165 2926.882,-146.0659 2801.876,-111.8026 2739.9422,-93.975"/>
<polygon fill="#191970" stroke="#191970" points="2740.7776,-90.5733 2730.1988,-91.156 2738.832,-97.2975 2740.7776,-90.5733"/>
</g>
<!-- Node30&#45;&gt;Node9 -->
<g id="edge63" class="edge">
<title>Node30&#45;&gt;Node9</title>
<path fill="none" stroke="#191970" d="M3016.2397,-279.8456C2947.1941,-276.3029 2837.7518,-271.0321 2743,-268 1887.2885,-240.6164 1671.6009,-283.4714 817,-232 778.3932,-229.6748 734.4551,-224.97 703.783,-221.3506"/>
<polygon fill="#191970" stroke="#191970" points="703.8629,-217.8353 693.5176,-220.1214 703.0305,-224.7856 703.8629,-217.8353"/>
</g>
<!-- Node30&#45;&gt;Node10 -->
<g id="edge65" class="edge">
<title>Node30&#45;&gt;Node10</title>
<path fill="none" stroke="#191970" d="M3087.0536,-268.3271C3088.662,-249.4103 3088.0537,-217.5539 3069,-201 3010.2087,-149.922 2446.4246,-173.4154 2369,-165 2285.6837,-155.9443 2266.1836,-144.203 2183,-134 1946.5159,-104.9937 1659.5965,-88.9053 1564.4085,-84.0728"/>
<polygon fill="#191970" stroke="#191970" points="1564.4341,-80.5698 1554.2712,-83.5642 1564.0832,-87.561 1564.4341,-80.5698"/>
</g>
<!-- Node30&#45;&gt;Node11 -->
<g id="edge70" class="edge">
<title>Node30&#45;&gt;Node11</title>
<path fill="none" stroke="#191970" d="M3081.8872,-268.1759C3077.0507,-248.7845 3065.7046,-216.0971 3042,-201 2965.0771,-152.0091 2312.8802,-172.6174 2222,-165 2195.3301,-162.7646 2165.5907,-159.1239 2141.8126,-155.9325"/>
<polygon fill="#191970" stroke="#191970" points="2142.0583,-152.4337 2131.6772,-154.5512 2141.113,-159.3696 2142.0583,-152.4337"/>
</g>
<!-- Node30&#45;&gt;Node12 -->
<g id="edge77" class="edge">
<title>Node30&#45;&gt;Node12</title>
<path fill="none" stroke="#191970" d="M3153.8494,-279.682C3264.0682,-272.8592 3470.0418,-256.9118 3492,-232 3501.1104,-221.6642 3498.4301,-213.1853 3492,-201 3442.7522,-107.6734 3396.1786,-100.1581 3296,-67 3266.6234,-57.2767 2334.4698,-26.4475 2067.058,-17.7843"/>
<polygon fill="#191970" stroke="#191970" points="2066.808,-14.2744 2056.7,-17.449 2066.5815,-21.2708 2066.808,-14.2744"/>
</g>
<!-- Node30&#45;&gt;Node13 -->
<g id="edge81" class="edge">
<title>Node30&#45;&gt;Node13</title>
<path fill="none" stroke="#191970" d="M3016.2217,-280.3209C2947.1622,-277.1434 2837.7096,-272.1471 2743,-268 2364.3583,-251.4202 2269.5827,-249.8766 1891,-232 1813.3582,-228.3338 1724.3273,-223.6194 1664.1509,-220.3575"/>
<polygon fill="#191970" stroke="#191970" points="1664.1797,-216.854 1654.0046,-219.8064 1663.8,-223.8437 1664.1797,-216.854"/>
</g>
<!-- Node30&#45;&gt;Node16 -->
<g id="edge95" class="edge">
<title>Node30&#45;&gt;Node16</title>
<path fill="none" stroke="#191970" d="M3016.232,-280.0649C2947.1806,-276.6907 2837.734,-271.5465 2743,-268 2201.8094,-247.7395 2065.9113,-258.6979 1525,-232 1474.4308,-229.504 1417.5151,-225.5509 1373.7096,-222.2617"/>
<polygon fill="#191970" stroke="#191970" points="1373.9564,-218.7705 1363.7209,-221.5062 1373.4284,-225.7505 1373.9564,-218.7705"/>
</g>
<!-- Node30&#45;&gt;Node19 -->
<g id="edge61" class="edge">
<title>Node30&#45;&gt;Node19</title>
<path fill="none" stroke="#191970" d="M3059.681,-268.4649C3043.449,-258.5685 3022.1047,-245.0709 3004,-232 2986.3283,-219.2418 2986.4678,-208.492 2966,-201 2751.1294,-122.3496 1128.032,-224.1619 907,-165 905.524,-164.6049 904.042,-164.1159 902.5723,-163.5576"/>
<polygon fill="#191970" stroke="#191970" points="903.7813,-160.2572 893.2465,-159.1312 900.7798,-166.5811 903.7813,-160.2572"/>
</g>
<!-- Node30&#45;&gt;Node22 -->
<g id="edge69" class="edge">
<title>Node30&#45;&gt;Node22</title>
<path fill="none" stroke="#191970" d="M3153.7712,-277.5448C3245.7165,-268.8761 3399.1656,-251.6562 3416,-232 3424.9622,-221.5355 3425.1204,-211.327 3416,-201 3373.1588,-152.491 3189.5758,-181.5155 3127,-165 3051.6649,-145.117 3035.1964,-131.8109 2965,-98 2964.3054,-97.6655 2963.6039,-97.3216 2962.8982,-96.9706"/>
<polygon fill="#191970" stroke="#191970" points="2964.1989,-93.7007 2953.717,-92.1579 2960.949,-99.9006 2964.1989,-93.7007"/>
</g>
<!-- Node30&#45;&gt;Node23 -->
<g id="edge78" class="edge">
<title>Node30&#45;&gt;Node23</title>
<path fill="none" stroke="#191970" d="M3099.7333,-268.3103C3115.4796,-250.2527 3135.9079,-220.1582 3118,-201 3077.467,-157.637 2644.1347,-170.1341 2585,-165 2560.447,-162.8683 2533.6143,-160.1358 2509.7263,-157.5604"/>
<polygon fill="#191970" stroke="#191970" points="2510.0038,-154.07 2499.6841,-156.4685 2509.2471,-161.029 2510.0038,-154.07"/>
</g>
<!-- Node30&#45;&gt;Node27 -->
<g id="edge67" class="edge">
<title>Node30&#45;&gt;Node27</title>
<path fill="none" stroke="#191970" d="M3016.1897,-280.3223C2791.2708,-269.907 2089.4382,-237.1712 2041,-232 2028.9222,-230.7106 2016.0384,-228.8854 2003.8049,-226.938"/>
<polygon fill="#191970" stroke="#191970" points="2004.1484,-223.4477 1993.7137,-225.2825 2003.0151,-230.3553 2004.1484,-223.4477"/>
</g>
<!-- Node30&#45;&gt;Node28 -->
<g id="edge96" class="edge">
<title>Node30&#45;&gt;Node28</title>
<path fill="none" stroke="#191970" d="M3016.3023,-278.5583C2905.577,-270.3652 2680.844,-252.7941 2491,-232 2478.464,-230.6269 2465.1931,-229.0181 2452.2653,-227.3664"/>
<polygon fill="#191970" stroke="#191970" points="2452.3582,-223.8493 2441.9915,-226.0362 2451.4593,-230.7913 2452.3582,-223.8493"/>
</g>
<!-- Node30&#45;&gt;Node29 -->
<g id="edge64" class="edge">
<title>Node30&#45;&gt;Node29</title>
<path fill="none" stroke="#191970" d="M3113.3329,-268.4429C3141.3884,-251.6683 3177.3036,-223.8959 3156,-201 3118.1336,-160.3033 2711.0046,-178.1754 2657,-165 2654.5127,-164.3932 2651.9789,-163.6299 2649.466,-162.7693"/>
<polygon fill="#191970" stroke="#191970" points="2650.6087,-159.4583 2640.0201,-159.0926 2648.0695,-165.9816 2650.6087,-159.4583"/>
</g>
<!-- Node31 -->
<g id="node32" class="node">
<title>Node31</title>
<g id="a_node32"><a xlink:title=" ">
<polygon fill="#ffffff" stroke="#bfbfbf" points="826,-207 826,-226 890,-226 890,-207 826,-207"/>
<text text-anchor="middle" x="858" y="-214" font-family="Helvetica,sans-Serif" font-size="10.00" fill="#000000">algorithm</text>
</a>
</g>
</g>
<!-- Node30&#45;&gt;Node31 -->
<g id="edge57" class="edge">
<title>Node30&#45;&gt;Node31</title>
<path fill="none" stroke="#191970" d="M3016.2386,-279.8794C2947.1922,-276.3625 2837.7493,-271.1113 2743,-268 1957.4827,-242.2062 1758.6698,-291.7018 975,-232 950.1311,-230.1054 922.4601,-226.5083 900.274,-223.2559"/>
<polygon fill="#191970" stroke="#191970" points="900.5867,-219.7638 890.1788,-221.7448 899.5504,-226.6867 900.5867,-219.7638"/>
</g>
<!-- Node32 -->
<g id="node33" class="node">
<title>Node32</title>
<g id="a_node33"><a xlink:title=" ">
<polygon fill="#ffffff" stroke="#bfbfbf" points="3619,-140 3619,-159 3663,-159 3663,-140 3619,-140"/>
<text text-anchor="middle" x="3641" y="-147" font-family="Helvetica,sans-Serif" font-size="10.00" fill="#000000">limits</text>
</a>
</g>
</g>
<!-- Node30&#45;&gt;Node32 -->
<g id="edge60" class="edge">
<title>Node30&#45;&gt;Node32</title>
<path fill="none" stroke="#191970" d="M3153.6643,-282.7003C3303.3935,-280.2431 3648.7353,-270.4268 3684,-232 3701.9648,-212.4244 3679.087,-183.9417 3660.438,-166.0818"/>
<polygon fill="#191970" stroke="#191970" points="3662.579,-163.297 3652.8359,-159.1349 3657.8569,-168.4644 3662.579,-163.297"/>
</g>
<!-- Node33 -->
<g id="node34" class="node">
<title>Node33</title>
<g id="a_node34"><a xlink:title=" ">
<polygon fill="#ffffff" stroke="#bfbfbf" points="2844,-207 2844,-226 2924,-226 2924,-207 2844,-207"/>
<text text-anchor="middle" x="2884" y="-214" font-family="Helvetica,sans-Serif" font-size="10.00" fill="#000000">Eigen/Sparse</text>
</a>
</g>
</g>
<!-- Node30&#45;&gt;Node33 -->
<g id="edge71" class="edge">
<title>Node30&#45;&gt;Node33</title>
<path fill="none" stroke="#191970" d="M3039.8917,-268.4639C3004.5424,-256.6808 2955.897,-240.4657 2922.3953,-229.2984"/>
<polygon fill="#191970" stroke="#191970" points="2923.1095,-225.8472 2912.5159,-226.0053 2920.8959,-232.488 2923.1095,-225.8472"/>
</g>
<!-- Node34 -->
<g id="node35" class="node">
<title>Node34</title>
<g id="a_node35"><a xlink:href="cond_8h.html" target="_top" xlink:title=" ">
<polygon fill="#ffffff" stroke="#000000" points="3770.5,-207 3770.5,-226 3895.5,-226 3895.5,-207 3770.5,-207"/>
<text text-anchor="middle" x="3833" y="-214" font-family="Helvetica,sans-Serif" font-size="10.00" fill="#000000">drake/common/cond.h</text>
</a>
</g>
</g>
<!-- Node30&#45;&gt;Node34 -->
<g id="edge72" class="edge">
<title>Node30&#45;&gt;Node34</title>
<path fill="none" stroke="#191970" d="M3153.8788,-280.9888C3275.773,-275.9275 3537.2684,-262.2939 3756,-232 3763.9704,-230.8961 3772.3574,-229.4776 3780.5455,-227.9482"/>
<polygon fill="#191970" stroke="#191970" points="3781.2411,-231.3786 3790.3933,-226.0413 3779.9103,-224.5063 3781.2411,-231.3786"/>
</g>
<!-- Node36 -->
<g id="node37" class="node">
<title>Node36</title>
<g id="a_node37"><a xlink:href="dummy__value_8h.html" target="_top" xlink:title=" ">
<polygon fill="#ffffff" stroke="#000000" points="3544.5,-201.5 3544.5,-231.5 3675.5,-231.5 3675.5,-201.5 3544.5,-201.5"/>
<text text-anchor="start" x="3552.5" y="-219.5" font-family="Helvetica,sans-Serif" font-size="10.00" fill="#000000">drake/common/dummy</text>
<text text-anchor="middle" x="3610" y="-208.5" font-family="Helvetica,sans-Serif" font-size="10.00" fill="#000000">_value.h</text>
</a>
</g>
</g>
<!-- Node30&#45;&gt;Node36 -->
<g id="edge79" class="edge">
<title>Node30&#45;&gt;Node36</title>
<path fill="none" stroke="#191970" d="M3153.8282,-277.1755C3241.4596,-268.747 3397.4156,-252.4857 3530,-232 3531.2976,-231.7995 3532.6063,-231.5932 3533.9236,-231.3817"/>
<polygon fill="#191970" stroke="#191970" points="3534.863,-234.7732 3544.1483,-229.6709 3533.7078,-227.8692 3534.863,-234.7732"/>
</g>
<!-- Node37 -->
<g id="node38" class="node">
<title>Node37</title>
<g id="a_node38"><a xlink:href="extract__double_8h.html" target="_top" xlink:title=" ">
<polygon fill="#ffffff" stroke="#000000" points="3208,-201.5 3208,-231.5 3336,-231.5 3336,-201.5 3208,-201.5"/>
<text text-anchor="start" x="3216" y="-219.5" font-family="Helvetica,sans-Serif" font-size="10.00" fill="#000000">drake/common/extract</text>
<text text-anchor="middle" x="3272" y="-208.5" font-family="Helvetica,sans-Serif" font-size="10.00" fill="#000000">_double.h</text>
</a>
</g>
</g>
<!-- Node30&#45;&gt;Node37 -->
<g id="edge82" class="edge">
<title>Node30&#45;&gt;Node37</title>
<path fill="none" stroke="#191970" d="M3126.9665,-268.4639C3154.5392,-258.5849 3190.8072,-245.5905 3220.1772,-235.0675"/>
<polygon fill="#191970" stroke="#191970" points="3221.6171,-238.2696 3229.8505,-231.6017 3219.256,-231.6798 3221.6171,-238.2696"/>
</g>
<!-- Node34&#45;&gt;Node3 -->
<g id="edge74" class="edge">
<title>Node34&#45;&gt;Node3</title>
<path fill="none" stroke="#191970" d="M3847.2559,-206.8347C3868.1892,-191.4144 3903.0116,-160.3019 3886,-134 3846.5668,-73.0318 3807.6428,-83.7839 3737,-67 3681.326,-53.7725 2819.2239,-24.0231 2611.0065,-17.0041"/>
<polygon fill="#191970" stroke="#191970" points="2610.8585,-13.4972 2600.7464,-16.6588 2610.623,-20.4932 2610.8585,-13.4972"/>
</g>
<!-- Node34&#45;&gt;Node7 -->
<g id="edge73" class="edge">
<title>Node34&#45;&gt;Node7</title>
<path fill="none" stroke="#191970" d="M3770.392,-208.7203C3743.799,-205.745 3712.4295,-202.6681 3684,-201 3094.9588,-166.4389 1615.9592,-225.3563 1029,-165 1016.9181,-163.7576 1003.9426,-161.6053 992.0315,-159.2931"/>
<polygon fill="#191970" stroke="#191970" points="992.3833,-155.7934 981.8875,-157.2389 990.9938,-162.6541 992.3833,-155.7934"/>
</g>
<!-- Node35 -->
<g id="node36" class="node">
<title>Node35</title>
<g id="a_node36"><a xlink:href="double__overloads_8h.html" target="_top" xlink:title="Provides necessary operations on double to have it as a ScalarType in drake.">
<polygon fill="#ffffff" stroke="#000000" points="3751,-134.5 3751,-164.5 3877,-164.5 3877,-134.5 3751,-134.5"/>
<text text-anchor="start" x="3759" y="-152.5" font-family="Helvetica,sans-Serif" font-size="10.00" fill="#000000">drake/common/double</text>
<text text-anchor="middle" x="3814" y="-141.5" font-family="Helvetica,sans-Serif" font-size="10.00" fill="#000000">_overloads.h</text>
</a>
</g>
</g>
<!-- Node34&#45;&gt;Node35 -->
<g id="edge75" class="edge">
<title>Node34&#45;&gt;Node35</title>
<path fill="none" stroke="#191970" d="M3830.2778,-206.9005C3827.8738,-198.4234 3824.2616,-185.6856 3821.0503,-174.3614"/>
<polygon fill="#191970" stroke="#191970" points="3824.3554,-173.1875 3818.2599,-164.5218 3817.621,-175.0973 3824.3554,-173.1875"/>
</g>
<!-- Node36&#45;&gt;Node32 -->
<g id="edge80" class="edge">
<title>Node36&#45;&gt;Node32</title>
<path fill="none" stroke="#191970" d="M3617.0344,-201.2967C3621.583,-191.4658 3627.5346,-178.6026 3632.3688,-168.1545"/>
<polygon fill="#191970" stroke="#191970" points="3635.5563,-169.6003 3636.579,-159.055 3629.2033,-166.6609 3635.5563,-169.6003"/>
</g>
<!-- Node38 -->
<g id="node39" class="node">
<title>Node38</title>
<g id="a_node39"><a xlink:title=" ">
<polygon fill="#ffffff" stroke="#bfbfbf" points="2666.5,-140 2666.5,-159 2731.5,-159 2731.5,-140 2666.5,-140"/>
<text text-anchor="middle" x="2699" y="-147" font-family="Helvetica,sans-Serif" font-size="10.00" fill="#000000">stdexcept</text>
</a>
</g>
</g>
<!-- Node37&#45;&gt;Node38 -->
<g id="edge83" class="edge">
<title>Node37&#45;&gt;Node38</title>
<path fill="none" stroke="#191970" d="M3207.827,-203.1348C3203.1581,-202.3508 3198.5127,-201.6275 3194,-201 2996.1509,-173.4871 2941.7961,-204.5615 2746,-165 2742.1312,-164.2183 2738.1375,-163.218 2734.1883,-162.1028"/>
<polygon fill="#191970" stroke="#191970" points="2735.1462,-158.7358 2724.5595,-159.1529 2733.0956,-165.4287 2735.1462,-158.7358"/>
</g>
<!-- Node39 -->
<g id="node40" class="node">
<title>Node39</title>
<g id="a_node40"><a xlink:href="nice__type__name_8h.html" target="_top" xlink:title=" ">
<polygon fill="#ffffff" stroke="#000000" points="3136,-134.5 3136,-164.5 3276,-164.5 3276,-134.5 3136,-134.5"/>
<text text-anchor="start" x="3144" y="-152.5" font-family="Helvetica,sans-Serif" font-size="10.00" fill="#000000">drake/common/nice_type</text>
<text text-anchor="middle" x="3206" y="-141.5" font-family="Helvetica,sans-Serif" font-size="10.00" fill="#000000">_name.h</text>
</a>
</g>
</g>
<!-- Node37&#45;&gt;Node39 -->
<g id="edge84" class="edge">
<title>Node37&#45;&gt;Node39</title>
<path fill="none" stroke="#191970" d="M3257.0236,-201.2967C3248.5007,-192.6446 3237.664,-181.6438 3228.1717,-172.0076"/>
<polygon fill="#191970" stroke="#191970" points="3230.4283,-169.311 3220.9172,-164.6432 3225.4415,-174.2234 3230.4283,-169.311"/>
</g>
<!-- Node39&#45;&gt;Node1 -->
<g id="edge88" class="edge">
<title>Node39&#45;&gt;Node1</title>
<path fill="none" stroke="#191970" d="M3158.0254,-134.4863C3126.8235,-124.544 3085.3309,-110.9877 3049,-98 3013.0937,-85.1641 3006.3646,-74.61 2969,-67 2929.1605,-58.886 1625.4006,-22.6013 1400.7889,-16.4022"/>
<polygon fill="#191970" stroke="#191970" points="1400.7247,-12.8992 1390.632,-16.1221 1400.5317,-19.8966 1400.7247,-12.8992"/>
</g>
<!-- Node39&#45;&gt;Node8 -->
<g id="edge85" class="edge">
<title>Node39&#45;&gt;Node8</title>
<path fill="none" stroke="#191970" d="M3135.7819,-140.1839C3027.9436,-125.8767 2825.1239,-98.9679 2740.0847,-87.6855"/>
<polygon fill="#191970" stroke="#191970" points="2740.4476,-84.2031 2730.0741,-86.3574 2739.5269,-91.1422 2740.4476,-84.2031"/>
</g>
<!-- Node39&#45;&gt;Node10 -->
<g id="edge86" class="edge">
<title>Node39&#45;&gt;Node10</title>
<path fill="none" stroke="#191970" d="M3135.9367,-146.6958C2848.5862,-135.1949 1766.0464,-91.8674 1564.4335,-83.7981"/>
<polygon fill="#191970" stroke="#191970" points="1564.3423,-80.2918 1554.2103,-83.3889 1564.0623,-87.2862 1564.3423,-80.2918"/>
</g>
<!-- Node39&#45;&gt;Node22 -->
<g id="edge89" class="edge">
<title>Node39&#45;&gt;Node22</title>
<path fill="none" stroke="#191970" d="M3145.3092,-134.4199C3104.0493,-124.1631 3048.2274,-110.2771 2999,-98 2989.7703,-95.6982 2979.7689,-93.1996 2970.5478,-90.8944"/>
<polygon fill="#191970" stroke="#191970" points="2971.1016,-87.4251 2960.5512,-88.3945 2969.4034,-94.216 2971.1016,-87.4251"/>
</g>
<!-- Node40 -->
<g id="node41" class="node">
<title>Node40</title>
<g id="a_node41"><a xlink:title=" ">
<polygon fill="#ffffff" stroke="#bfbfbf" points="3230.5,-73 3230.5,-92 3287.5,-92 3287.5,-73 3230.5,-73"/>
<text text-anchor="middle" x="3259" y="-80" font-family="Helvetica,sans-Serif" font-size="10.00" fill="#000000">typeinfo</text>
</a>
</g>
</g>
<!-- Node39&#45;&gt;Node40 -->
<g id="edge87" class="edge">
<title>Node39&#45;&gt;Node40</title>
<path fill="none" stroke="#191970" d="M3218.0265,-134.2967C3226.0437,-124.1618 3236.6102,-110.804 3245.0047,-100.1921"/>
<polygon fill="#191970" stroke="#191970" points="3247.9825,-102.0692 3251.4416,-92.055 3242.4925,-97.7264 3247.9825,-102.0692"/>
</g>
<!-- Node41 -->
<g id="node42" class="node">
<title>Node41</title>
<g id="a_node42"><a xlink:href="never__destroyed_8h.html" target="_top" xlink:title=" ">
<polygon fill="#ffffff" stroke="#000000" points="3091.5,-67.5 3091.5,-97.5 3212.5,-97.5 3212.5,-67.5 3091.5,-67.5"/>
<text text-anchor="start" x="3099.5" y="-85.5" font-family="Helvetica,sans-Serif" font-size="10.00" fill="#000000">drake/common/never</text>
<text text-anchor="middle" x="3152" y="-74.5" font-family="Helvetica,sans-Serif" font-size="10.00" fill="#000000">_destroyed.h</text>
</a>
</g>
</g>
<!-- Node39&#45;&gt;Node41 -->
<g id="edge90" class="edge">
<title>Node39&#45;&gt;Node41</title>
<path fill="none" stroke="#191970" d="M3193.7466,-134.2967C3186.9114,-125.816 3178.2573,-115.0785 3170.6031,-105.5817"/>
<polygon fill="#191970" stroke="#191970" points="3173.2053,-103.2328 3164.2049,-97.6432 3167.7551,-107.6255 3173.2053,-103.2328"/>
</g>
<!-- Node41&#45;&gt;Node1 -->
<g id="edge93" class="edge">
<title>Node41&#45;&gt;Node1</title>
<path fill="none" stroke="#191970" d="M3091.1556,-69.0041C3086.3817,-68.2273 3081.6218,-67.5431 3077,-67 3033.7645,-61.9199 1633.9531,-22.8844 1400.7739,-16.4088"/>
<polygon fill="#191970" stroke="#191970" points="1400.6553,-12.9043 1390.562,-16.1253 1400.461,-19.9016 1400.6553,-12.9043"/>
</g>
<!-- Node41&#45;&gt;Node3 -->
<g id="edge92" class="edge">
<title>Node41&#45;&gt;Node3</title>
<path fill="none" stroke="#191970" d="M3091.1066,-69.3666C3086.3438,-68.5073 3081.5999,-67.7052 3077,-67 2905.5359,-40.7137 2699.5654,-24.6375 2610.5594,-18.434"/>
<polygon fill="#191970" stroke="#191970" points="2610.7637,-14.9399 2600.5466,-17.7435 2610.2821,-21.9233 2610.7637,-14.9399"/>
</g>
<!-- Node41&#45;&gt;Node12 -->
<g id="edge94" class="edge">
<title>Node41&#45;&gt;Node12</title>
<path fill="none" stroke="#191970" d="M3091.1446,-69.0944C3086.3732,-68.297 3081.6169,-67.5834 3077,-67 2880.5152,-42.1707 2274.5581,-23.3104 2066.7763,-17.4262"/>
<polygon fill="#191970" stroke="#191970" points="2066.6921,-13.9226 2056.5974,-17.1393 2066.4948,-20.9198 2066.6921,-13.9226"/>
</g>
<!-- Node42 -->
<g id="node43" class="node">
<title>Node42</title>
<g id="a_node43"><a xlink:title=" ">
<polygon fill="#ffffff" stroke="#bfbfbf" points="3133.5,-6 3133.5,-25 3170.5,-25 3170.5,-6 3133.5,-6"/>
<text text-anchor="middle" x="3152" y="-13" font-family="Helvetica,sans-Serif" font-size="10.00" fill="#000000">new</text>
</a>
</g>
</g>
<!-- Node41&#45;&gt;Node42 -->
<g id="edge91" class="edge">
<title>Node41&#45;&gt;Node42</title>
<path fill="none" stroke="#191970" d="M3152,-67.2967C3152,-57.7699 3152,-45.3954 3152,-35.1306"/>
<polygon fill="#191970" stroke="#191970" points="3155.5001,-35.0549 3152,-25.055 3148.5001,-35.055 3155.5001,-35.0549"/>
</g>
<!-- Node43&#45;&gt;Node1 -->
<g id="edge100" class="edge">
<title>Node43&#45;&gt;Node1</title>
<path fill="none" stroke="#191970" d="M2564.1468,-201.1619C2553.2085,-169.4851 2523.3322,-97.2741 2470,-67 2446.1405,-53.4562 1581.7115,-22.8845 1400.9356,-16.6303"/>
<polygon fill="#191970" stroke="#191970" points="1400.8404,-13.1251 1390.7255,-16.2778 1400.5988,-20.1209 1400.8404,-13.1251"/>
</g>
<!-- Node43&#45;&gt;Node2 -->
<g id="edge101" class="edge">
<title>Node43&#45;&gt;Node2</title>
<path fill="none" stroke="#191970" d="M2500.4047,-207.8514C2449.1267,-199.8124 2385.1998,-185.8997 2369,-165 2355.412,-147.4698 2367.3281,-123.4728 2380.3032,-105.8787"/>
<polygon fill="#191970" stroke="#191970" points="2383.2172,-107.8353 2386.6508,-97.8123 2377.7162,-103.5064 2383.2172,-107.8353"/>
</g>
<!-- Node43&#45;&gt;Node4 -->
<g id="edge102" class="edge">
<title>Node43&#45;&gt;Node4</title>
<path fill="none" stroke="#191970" d="M2510.3843,-231.5635C2428.5699,-250.5952 2275.5719,-282.8131 2143,-299 1868.9936,-332.4558 1540.906,-341.6026 1390.1204,-344.0852"/>
<polygon fill="#191970" stroke="#191970" points="1389.9532,-340.5874 1380.0102,-344.246 1390.0646,-347.5865 1389.9532,-340.5874"/>
</g>
<!-- Node43&#45;&gt;Node38 -->
<g id="edge99" class="edge">
<title>Node43&#45;&gt;Node38</title>
<path fill="none" stroke="#191970" d="M2598.1745,-201.4639C2620.0851,-190.1715 2649.8938,-174.8086 2671.4105,-163.7192"/>
<polygon fill="#191970" stroke="#191970" points="2673.0801,-166.7963 2680.3655,-159.1039 2669.8732,-160.5741 2673.0801,-166.7963"/>
</g>
<!-- Node44&#45;&gt;Node11 -->
<g id="edge104" class="edge">
<title>Node44&#45;&gt;Node11</title>
<path fill="none" stroke="#191970" d="M2125.6855,-270.331C2146.6746,-262.7395 2167.4958,-250.7916 2180,-232 2187.6326,-220.5296 2186.6986,-213.0397 2180,-201 2170.3302,-183.6201 2152.1002,-171.3558 2135.1828,-163.1675"/>
<polygon fill="#191970" stroke="#191970" points="2136.5379,-159.9393 2125.9821,-159.0312 2133.6677,-166.3238 2136.5379,-159.9393"/>
</g>
<!-- Node45&#45;&gt;Node1 -->
<g id="edge109" class="edge">
<title>Node45&#45;&gt;Node1</title>
<path fill="none" stroke="#191970" d="M504.1307,-269.6239C501.0473,-269.0628 497.9928,-268.5187 495,-268 441.2126,-258.6773 287.6601,-273.3323 252,-232 223.5477,-199.022 222.8729,-166.3836 252,-134 326.5002,-51.1703 1158.6414,-21.7581 1335.2007,-16.4289"/>
<polygon fill="#191970" stroke="#191970" points="1335.5238,-19.9209 1345.4155,-16.1255 1335.316,-12.924 1335.5238,-19.9209"/>
</g>
<!-- Node45&#45;&gt;Node4 -->
<g id="edge113" class="edge">
<title>Node45&#45;&gt;Node4</title>
<path fill="none" stroke="#191970" d="M641.5243,-296.278C647.4384,-297.301 653.3243,-298.2333 659,-299 860.9674,-326.2828 1100.1837,-337.8734 1223.8367,-342.3975"/>
<polygon fill="#191970" stroke="#191970" points="1223.8685,-345.9008 1233.9879,-342.7625 1224.1201,-338.9054 1223.8685,-345.9008"/>
</g>
<!-- Node45&#45;&gt;Node6 -->
<g id="edge106" class="edge">
<title>Node45&#45;&gt;Node6</title>
<path fill="none" stroke="#191970" d="M560.1418,-268.1928C546.7368,-250.296 529.7719,-220.6297 546,-201 575.0461,-165.8655 711.488,-154.471 778.1537,-150.9644"/>
<polygon fill="#191970" stroke="#191970" points="778.4117,-154.456 788.2269,-150.4669 778.0664,-147.4645 778.4117,-154.456"/>
</g>
<!-- Node45&#45;&gt;Node9 -->
<g id="edge108" class="edge">
<title>Node45&#45;&gt;Node9</title>
<path fill="none" stroke="#191970" d="M593.8762,-268.2967C608.7669,-257.4524 628.7243,-242.9182 643.7081,-232.006"/>
<polygon fill="#191970" stroke="#191970" points="645.8566,-234.7712 651.8797,-226.055 641.7357,-229.1127 645.8566,-234.7712"/>
</g>
<!-- Node45&#45;&gt;Node11 -->
<g id="edge110" class="edge">
<title>Node45&#45;&gt;Node11</title>
<path fill="none" stroke="#191970" d="M577.9457,-268.3423C585.2226,-248.8097 600.8577,-215.6289 627,-201 686.948,-167.4538 1794.3821,-168.2708 1863,-165 1928.7866,-161.8642 2004.8672,-156.5023 2051.9642,-152.9798"/>
<polygon fill="#191970" stroke="#191970" points="2052.4268,-156.455 2062.1357,-152.2139 2051.9011,-149.4748 2052.4268,-156.455"/>
</g>
<!-- Node45&#45;&gt;Node12 -->
<g id="edge111" class="edge">
<title>Node45&#45;&gt;Node12</title>
<path fill="none" stroke="#191970" d="M558.1214,-268.2541C549.8592,-258.6909 540.3864,-245.6233 536,-232 521.4223,-186.7251 538.865,-159.5246 579,-134 693.3362,-61.2858 1653.789,-26.1355 1924.9611,-17.6003"/>
<polygon fill="#191970" stroke="#191970" points="1925.1908,-21.095 1935.0766,-17.2843 1924.9721,-14.0984 1925.1908,-21.095"/>
</g>
<!-- Node45&#45;&gt;Node16 -->
<g id="edge112" class="edge">
<title>Node45&#45;&gt;Node16</title>
<path fill="none" stroke="#191970" d="M641.7771,-269.231C644.55,-268.7903 647.299,-268.3773 650,-268 706.0344,-260.1724 1070.5019,-233.2391 1228.3283,-221.755"/>
<polygon fill="#191970" stroke="#191970" points="1228.6999,-225.2373 1238.4198,-221.0212 1228.1923,-218.2557 1228.6999,-225.2373"/>
</g>
<!-- Node45&#45;&gt;Node19 -->
<g id="edge107" class="edge">
<title>Node45&#45;&gt;Node19</title>
<path fill="none" stroke="#191970" d="M550.7174,-268.2769C528.055,-250.9844 498.7994,-222.3951 518,-201 567.5655,-145.7694 779.0918,-186.8903 850,-165 851.466,-164.5474 852.9437,-164.0191 854.4147,-163.4358"/>
<polygon fill="#191970" stroke="#191970" points="856.2646,-166.4337 863.8254,-159.0117 853.2865,-160.0988 856.2646,-166.4337"/>
</g>
<!-- Node46&#45;&gt;Node2 -->
<g id="edge121" class="edge">
<title>Node46&#45;&gt;Node2</title>
<path fill="none" stroke="#191970" d="M1333.2799,-268.3899C1394.4178,-233.5274 1545.2204,-149.2789 1601,-134 1737.3952,-96.6394 2161.3856,-86.1411 2330.407,-83.4003"/>
<polygon fill="#191970" stroke="#191970" points="2330.4983,-86.8994 2340.4418,-83.2419 2330.3877,-79.9003 2330.4983,-86.8994"/>
</g>
<!-- Node46&#45;&gt;Node4 -->
<g id="edge123" class="edge">
<title>Node46&#45;&gt;Node4</title>
<path fill="none" stroke="#191970" d="M1312.8971,-298.5446C1313.8593,-306.6241 1314.0074,-316.681 1313.3414,-325.3693"/>
<polygon fill="#191970" stroke="#191970" points="1309.8567,-325.028 1312.0625,-335.3906 1316.8003,-325.9142 1309.8567,-325.028"/>
</g>
<!-- Node46&#45;&gt;Node6 -->
<g id="edge115" class="edge">
<title>Node46&#45;&gt;Node6</title>
<path fill="none" stroke="#191970" d="M1238.3231,-273.9453C1199.0141,-266.4687 1149.7641,-253.5937 1110,-232 1092.0295,-222.2412 1094.4227,-209.8757 1076,-201 984.7645,-157.0445 948.2545,-193.2411 851,-165 848.8231,-164.3679 846.6032,-163.6378 844.3883,-162.846"/>
<polygon fill="#191970" stroke="#191970" points="845.4459,-159.5008 834.8589,-159.0914 842.8798,-166.0135 845.4459,-159.5008"/>
</g>
<!-- Node46&#45;&gt;Node7 -->
<g id="edge116" class="edge">
<title>Node46&#45;&gt;Node7</title>
<path fill="none" stroke="#191970" d="M1271.3848,-268.4872C1249.3004,-258.8096 1220.5563,-245.5405 1196,-232 1173.7612,-219.7373 1171.3612,-210.9596 1148,-201 1084.1372,-173.7732 1062.8053,-183.8892 996,-165 992.8582,-164.1117 989.6136,-163.1455 986.3658,-162.1443"/>
<polygon fill="#191970" stroke="#191970" points="987.3034,-158.7698 976.713,-159.0778 985.1839,-165.4413 987.3034,-158.7698"/>
</g>
<!-- Node46&#45;&gt;Node11 -->
<g id="edge120" class="edge">
<title>Node46&#45;&gt;Node11</title>
<path fill="none" stroke="#191970" d="M1375.7817,-270.2853C1380.5874,-269.4759 1385.3625,-268.705 1390,-268 1525.3825,-247.4192 1560.8113,-253.8176 1696,-232 1826.3464,-210.9639 1978.6702,-177.0168 2052.4427,-159.9725"/>
<polygon fill="#191970" stroke="#191970" points="2053.3692,-163.3506 2062.3205,-157.6828 2051.7884,-156.5314 2053.3692,-163.3506"/>
</g>
<!-- Node46&#45;&gt;Node16 -->
<g id="edge122" class="edge">
<title>Node46&#45;&gt;Node16</title>
<path fill="none" stroke="#191970" d="M1305.6385,-268.2967C1304.7854,-258.7699 1303.6772,-246.3954 1302.758,-236.1306"/>
<polygon fill="#191970" stroke="#191970" points="1306.2338,-235.7029 1301.8557,-226.055 1299.2617,-236.3273 1306.2338,-235.7029"/>
</g>
<!-- Node46&#45;&gt;Node19 -->
<g id="edge117" class="edge">
<title>Node46&#45;&gt;Node19</title>
<path fill="none" stroke="#191970" d="M1242.4862,-268.4762C1212.6702,-260.0796 1177.4307,-248.0309 1148,-232 1128.8594,-221.5741 1129.8126,-210.0842 1110,-201 1026.7079,-162.8101 993.3678,-195.6048 907,-165 905.7922,-164.572 904.5747,-164.0953 903.3592,-163.5822"/>
<polygon fill="#191970" stroke="#191970" points="904.7913,-160.3865 894.2702,-159.1388 901.7169,-166.6752 904.7913,-160.3865"/>
</g>
<!-- Node46&#45;&gt;Node21 -->
<g id="edge118" class="edge">
<title>Node46&#45;&gt;Node21</title>
<path fill="none" stroke="#191970" d="M1329.6514,-268.4751C1342.9299,-258.9903 1359.4964,-245.9274 1372,-232 1389.6806,-212.3062 1405.1577,-185.9022 1414.5298,-168.3259"/>
<polygon fill="#191970" stroke="#191970" points="1417.8106,-169.6026 1419.313,-159.1149 1411.5982,-166.3766 1417.8106,-169.6026"/>
</g>
<!-- Node46&#45;&gt;Node27 -->
<g id="edge119" class="edge">
<title>Node46&#45;&gt;Node27</title>
<path fill="none" stroke="#191970" d="M1375.7624,-270.1525C1380.5727,-269.3748 1385.354,-268.6472 1390,-268 1414.4903,-264.5885 1752.6458,-234.0011 1889.8091,-221.6442"/>
<polygon fill="#191970" stroke="#191970" points="1890.4653,-225.0993 1900.1109,-220.7163 1889.8373,-218.1276 1890.4653,-225.0993"/>
</g>
<!-- Node47&#45;&gt;Node1 -->
<g id="edge129" class="edge">
<title>Node47&#45;&gt;Node1</title>
<path fill="none" stroke="#191970" d="M349.4245,-272.4289C255.9831,-257.3385 100.1269,-232.1491 100,-232 52.4708,-176.1542 49.2086,-119.8962 100,-67 144.0402,-21.1348 1140.0499,-16.1099 1335.0539,-15.5654"/>
<polygon fill="#191970" stroke="#191970" points="1335.2522,-19.065 1345.2431,-15.5391 1335.2341,-12.0651 1335.2522,-19.065"/>
</g>
<!-- Node47&#45;&gt;Node4 -->
<g id="edge132" class="edge">
<title>Node47&#45;&gt;Node4</title>
<path fill="none" stroke="#191970" d="M486.5139,-296.3572C492.4301,-297.3642 498.3194,-298.2711 504,-299 641.8124,-316.6833 1047.6283,-334.3641 1223.8462,-341.5953"/>
<polygon fill="#191970" stroke="#191970" points="1223.7107,-345.0926 1233.8455,-342.0045 1223.9971,-338.0985 1223.7107,-345.0926"/>
</g>
<!-- Node47&#45;&gt;Node7 -->
<g id="edge126" class="edge">
<title>Node47&#45;&gt;Node7</title>
<path fill="none" stroke="#191970" d="M424.6116,-268.1733C433.8811,-248.7791 452.7197,-216.0887 480,-201 563.3289,-154.911 814.0453,-185.6719 907,-165 910.2624,-164.2745 913.6138,-163.3554 916.9323,-162.3282"/>
<polygon fill="#191970" stroke="#191970" points="918.3322,-165.5488 926.667,-159.0079 916.0725,-158.9235 918.3322,-165.5488"/>
</g>
<!-- Node47&#45;&gt;Node9 -->
<g id="edge128" class="edge">
<title>Node47&#45;&gt;Node9</title>
<path fill="none" stroke="#191970" d="M473.4316,-268.4639C519.9799,-255.8374 585.2898,-238.1218 626.3589,-226.9816"/>
<polygon fill="#191970" stroke="#191970" points="627.5167,-230.2941 636.2517,-224.2981 625.6841,-223.5382 627.5167,-230.2941"/>
</g>
<!-- Node47&#45;&gt;Node11 -->
<g id="edge130" class="edge">
<title>Node47&#45;&gt;Node11</title>
<path fill="none" stroke="#191970" d="M441.7429,-268.3886C474.3481,-248.5768 535.5008,-214.7323 593,-201 730.3063,-168.2077 1721.9897,-171.6664 1863,-165 1928.7878,-161.8898 2004.8681,-156.5212 2051.9647,-152.9902"/>
<polygon fill="#191970" stroke="#191970" points="2052.428,-156.4653 2062.1361,-152.2224 2051.901,-149.4852 2052.428,-156.4653"/>
</g>
<!-- Node47&#45;&gt;Node12 -->
<g id="edge131" class="edge">
<title>Node47&#45;&gt;Node12</title>
<path fill="none" stroke="#191970" d="M349.3932,-268.9353C298.8271,-257.5066 237.5691,-241.9214 230,-232 221.6431,-221.046 221.6211,-211.9372 230,-201 369.1292,-19.391 500.8596,-101.6308 727,-67 845.3024,-48.8833 1675.7125,-24.4532 1925.2496,-17.4496"/>
<polygon fill="#191970" stroke="#191970" points="1925.39,-20.9472 1935.2881,-17.1685 1925.194,-13.9499 1925.39,-20.9472"/>
</g>
<!-- Node47&#45;&gt;Node19 -->
<g id="edge127" class="edge">
<title>Node47&#45;&gt;Node19</title>
<path fill="none" stroke="#191970" d="M408.8235,-268.2931C399.0606,-249.9353 387.1553,-219.2592 404,-201 437.7112,-164.4581 802.2985,-179.0115 850,-165 851.472,-164.5676 852.9546,-164.0552 854.4293,-163.4843"/>
<polygon fill="#191970" stroke="#191970" points="856.2632,-166.4913 863.8511,-159.0971 853.3083,-160.1455 856.2632,-166.4913"/>
</g>
<!-- Node47&#45;&gt;Node31 -->
<g id="edge125" class="edge">
<title>Node47&#45;&gt;Node31</title>
<path fill="none" stroke="#191970" d="M486.8102,-269.444C489.574,-268.9443 492.312,-268.4608 495,-268 610.5285,-248.1939 747.6799,-230.2341 815.5676,-221.7128"/>
<polygon fill="#191970" stroke="#191970" points="816.3657,-225.1404 825.8546,-220.4274 815.4977,-218.1944 816.3657,-225.1404"/>
</g>
<!-- Node48&#45;&gt;Node4 -->
<g id="edge135" class="edge">
<title>Node48&#45;&gt;Node4</title>
<path fill="none" stroke="#191970" d="M951.5797,-295.9106C957.4826,-297.008 963.3508,-298.058 969,-299 1055.6638,-313.4503 1155.1157,-326.2506 1223.6486,-334.6556"/>
<polygon fill="#191970" stroke="#191970" points="1223.6018,-338.1758 1233.9526,-335.9148 1224.4511,-331.2275 1223.6018,-338.1758"/>
</g>
<!-- Node48&#45;&gt;Node9 -->
<g id="edge134" class="edge">
<title>Node48&#45;&gt;Node9</title>
<path fill="none" stroke="#191970" d="M828.7406,-268.4367C794.049,-258.5831 748.1852,-245.1426 708,-232 705.5582,-231.2014 703.0462,-230.3569 700.521,-229.4908"/>
<polygon fill="#191970" stroke="#191970" points="701.4302,-226.1008 690.8354,-226.0955 699.1144,-232.7067 701.4302,-226.1008"/>
</g>
<!-- Node49&#45;&gt;Node1 -->
<g id="edge142" class="edge">
<title>Node49&#45;&gt;Node1</title>
<path fill="none" stroke="#191970" d="M1733.3524,-268.4406C1749.2042,-251.0444 1776.9163,-222.1122 1804,-201 1828.227,-182.1146 1847.9648,-191.7871 1863,-165 1869.7436,-152.9854 1872.2478,-144.213 1863,-134 1808.7387,-74.0749 1577.5532,-123.9793 1501,-98 1456.8078,-83.0028 1412.0487,-50.9952 1387.3744,-31.5519"/>
<polygon fill="#191970" stroke="#191970" points="1389.508,-28.7765 1379.5183,-25.2471 1385.1266,-34.2358 1389.508,-28.7765"/>
</g>
<!-- Node49&#45;&gt;Node2 -->
<g id="edge144" class="edge">
<title>Node49&#45;&gt;Node2</title>
<path fill="none" stroke="#191970" d="M1788.6421,-279.8514C1898.8204,-273.3209 2109.8766,-257.8457 2180,-232 2259.9383,-202.5368 2339.0837,-138.245 2377.316,-104.3755"/>
<polygon fill="#191970" stroke="#191970" points="2379.7279,-106.9139 2384.839,-97.6334 2375.0561,-101.701 2379.7279,-106.9139"/>
</g>
<!-- Node49&#45;&gt;Node4 -->
<g id="edge152" class="edge">
<title>Node49&#45;&gt;Node4</title>
<path fill="none" stroke="#191970" d="M1651.3128,-294.5205C1578.2817,-305.6796 1463.0484,-322.8389 1386.2342,-333.9931"/>
<polygon fill="#191970" stroke="#191970" points="1385.5219,-330.5597 1376.1274,-335.4581 1386.5261,-337.4873 1385.5219,-330.5597"/>
</g>
<!-- Node49&#45;&gt;Node7 -->
<g id="edge137" class="edge">
<title>Node49&#45;&gt;Node7</title>
<path fill="none" stroke="#191970" d="M1651.4724,-277.2515C1521.0787,-265.2314 1248.4438,-239.4203 1229,-232 1206.9887,-223.5998 1207.645,-210.3034 1186,-201 1107.0381,-167.0607 1079.2129,-186.5054 996,-165 992.6543,-164.1354 989.1999,-163.1598 985.7533,-162.1296"/>
<polygon fill="#191970" stroke="#191970" points="986.7472,-158.7733 976.1583,-159.1279 984.6572,-165.454 986.7472,-158.7733"/>
</g>
<!-- Node49&#45;&gt;Node8 -->
<g id="edge138" class="edge">
<title>Node49&#45;&gt;Node8</title>
<path fill="none" stroke="#191970" d="M1788.5967,-279.2301C1967.8732,-267.9991 2437.6559,-238.0792 2453,-232 2473.2635,-223.9718 2473.672,-214.2213 2491,-201 2531.7873,-169.8793 2540.4401,-159.4266 2585,-134 2611.1233,-119.0936 2642.368,-105.4418 2665.8456,-95.9446"/>
<polygon fill="#191970" stroke="#191970" points="2667.4018,-99.0921 2675.3943,-92.1372 2664.8091,-92.5899 2667.4018,-99.0921"/>
</g>
<!-- Node49&#45;&gt;Node9 -->
<g id="edge139" class="edge">
<title>Node49&#45;&gt;Node9</title>
<path fill="none" stroke="#191970" d="M1651.4817,-276.8092C1619.1994,-273.8164 1580.145,-270.4245 1545,-268 1221.8172,-245.7053 1140.0277,-256.4403 817,-232 778.4334,-229.082 734.4898,-224.4598 703.8054,-221.0212"/>
<polygon fill="#191970" stroke="#191970" points="703.8656,-217.5057 693.5354,-219.859 703.0784,-224.4614 703.8656,-217.5057"/>
</g>
<!-- Node49&#45;&gt;Node10 -->
<g id="edge141" class="edge">
<title>Node49&#45;&gt;Node10</title>
<path fill="none" stroke="#191970" d="M1745.2134,-268.353C1791.856,-240.0745 1887.6494,-180.6894 1896,-165 1902.4733,-152.8376 1905.0342,-144.4024 1896,-134 1874.328,-109.0459 1649.4121,-90.757 1564.3481,-84.6848"/>
<polygon fill="#191970" stroke="#191970" points="1564.4488,-81.1834 1554.2279,-83.9732 1563.9577,-88.1661 1564.4488,-81.1834"/>
</g>
<!-- Node49&#45;&gt;Node11 -->
<g id="edge143" class="edge">
<title>Node49&#45;&gt;Node11</title>
<path fill="none" stroke="#191970" d="M1788.5073,-275.2166C1859.5065,-265.8868 1965.159,-249.6992 2002,-232 2010.8391,-227.7535 2054.0187,-188.8738 2079.0149,-166.0358"/>
<polygon fill="#191970" stroke="#191970" points="2081.4147,-168.584 2086.4251,-159.2488 2076.6867,-163.422 2081.4147,-168.584"/>
</g>
<!-- Node49&#45;&gt;Node12 -->
<g id="edge148" class="edge">
<title>Node49&#45;&gt;Node12</title>
<path fill="none" stroke="#191970" d="M1765.0495,-268.4139C1790.1445,-259.2678 1821.5653,-246.5645 1848,-232 1868.6351,-220.6309 1870.5712,-212.7356 1891,-201 1925.1601,-181.3763 1947.9746,-196.2215 1972,-165 1999.798,-128.8759 2000.9496,-73.0997 1998.7987,-40.8668"/>
<polygon fill="#191970" stroke="#191970" points="2002.2869,-40.5789 1997.9764,-30.9006 1995.3106,-41.1546 2002.2869,-40.5789"/>
</g>
<!-- Node49&#45;&gt;Node13 -->
<g id="edge149" class="edge">
<title>Node49&#45;&gt;Node13</title>
<path fill="none" stroke="#191970" d="M1691.7231,-268.4639C1673.9343,-259.0047 1650.7741,-246.6894 1631.4657,-236.4222"/>
<polygon fill="#191970" stroke="#191970" points="1633.091,-233.3225 1622.6184,-231.7177 1629.8045,-239.503 1633.091,-233.3225"/>
</g>
<!-- Node49&#45;&gt;Node16 -->
<g id="edge150" class="edge">
<title>Node49&#45;&gt;Node16</title>
<path fill="none" stroke="#191970" d="M1651.2799,-272.5113C1573.8465,-260.1294 1448.6568,-240.111 1370.7877,-227.6594"/>
<polygon fill="#191970" stroke="#191970" points="1371.0212,-224.1523 1360.594,-226.0294 1369.9159,-231.0645 1371.0212,-224.1523"/>
</g>
<!-- Node49&#45;&gt;Node21 -->
<g id="edge140" class="edge">
<title>Node49&#45;&gt;Node21</title>
<path fill="none" stroke="#191970" d="M1651.0786,-272.7445C1612.5361,-264.9326 1564.4596,-252.1218 1525,-232 1491.4676,-214.9006 1458.8924,-185.217 1440.1731,-166.5053"/>
<polygon fill="#191970" stroke="#191970" points="1442.5366,-163.9166 1433.0365,-159.2265 1437.5383,-168.8173 1442.5366,-163.9166"/>
</g>
<!-- Node49&#45;&gt;Node28 -->
<g id="edge151" class="edge">
<title>Node49&#45;&gt;Node28</title>
<path fill="none" stroke="#191970" d="M1788.7534,-276.4565C1910.5686,-263.9769 2163.6568,-238.0489 2293.4364,-224.7535"/>
<polygon fill="#191970" stroke="#191970" points="2294.1126,-228.2026 2303.7038,-223.7016 2293.3991,-221.239 2294.1126,-228.2026"/>
</g>
<!-- Node50 -->
<g id="node51" class="node">
<title>Node50</title>
<g id="a_node51"><a xlink:href="drake__bool_8h.html" target="_top" xlink:title=" ">
<polygon fill="#ffffff" stroke="#000000" points="2050.5,-201.5 2050.5,-231.5 2171.5,-231.5 2171.5,-201.5 2050.5,-201.5"/>
<text text-anchor="start" x="2058.5" y="-219.5" font-family="Helvetica,sans-Serif" font-size="10.00" fill="#000000">drake/common/drake</text>
<text text-anchor="middle" x="2111" y="-208.5" font-family="Helvetica,sans-Serif" font-size="10.00" fill="#000000">_bool.h</text>
</a>
</g>
</g>
<!-- Node49&#45;&gt;Node50 -->
<g id="edge145" class="edge">
<title>Node49&#45;&gt;Node50</title>
<path fill="none" stroke="#191970" d="M1788.5671,-273.1805C1852.6728,-263.3299 1951.0036,-247.7018 2036,-232 2037.4709,-231.7283 2038.9574,-231.4505 2040.4552,-231.1677"/>
<polygon fill="#191970" stroke="#191970" points="2041.3035,-234.5687 2050.4609,-229.2401 2039.9793,-227.6951 2041.3035,-234.5687"/>
</g>
<!-- Node50&#45;&gt;Node3 -->
<g id="edge146" class="edge">
<title>Node50&#45;&gt;Node3</title>
<path fill="none" stroke="#191970" d="M2128.1589,-201.3756C2163.5,-171.0519 2248.0705,-102.6798 2331,-67 2393.9091,-39.9339 2472.6386,-26.412 2521.1144,-20.1879"/>
<polygon fill="#191970" stroke="#191970" points="2521.7825,-23.6321 2531.2783,-18.9332 2520.9248,-16.6848 2521.7825,-23.6321"/>
</g>
<!-- Node50&#45;&gt;Node11 -->
<g id="edge147" class="edge">
<title>Node50&#45;&gt;Node11</title>
<path fill="none" stroke="#191970" d="M2107.8232,-201.2967C2105.8325,-191.7699 2103.2468,-179.3954 2101.1019,-169.1306"/>
<polygon fill="#191970" stroke="#191970" points="2104.468,-168.1277 2098.9966,-159.055 2097.616,-169.5595 2104.468,-168.1277"/>
</g>
<!-- Node51&#45;&gt;Node1 -->
<g id="edge156" class="edge">
<title>Node51&#45;&gt;Node1</title>
<path fill="none" stroke="#191970" d="M176.4594,-270.0828C135.6662,-260.7404 89.1653,-247.2528 75,-232 25.0929,-178.2613 17.3563,-114.7739 73,-67 122.3219,-24.6537 1138.1939,-16.7925 1335.1062,-15.6647"/>
<polygon fill="#191970" stroke="#191970" points="1335.4037,-19.1632 1345.3842,-15.6078 1335.3649,-12.1633 1335.4037,-19.1632"/>
</g>
<!-- Node51&#45;&gt;Node4 -->
<g id="edge157" class="edge">
<title>Node51&#45;&gt;Node4</title>
<path fill="none" stroke="#191970" d="M313.7408,-294.3405C325.5216,-296.1389 337.6155,-297.8044 349,-299 671.5376,-332.8719 1057.2401,-341.8163 1223.7862,-344.1675"/>
<polygon fill="#191970" stroke="#191970" points="1223.9094,-347.6694 1233.9564,-344.3066 1224.0053,-340.67 1223.9094,-347.6694"/>
</g>
<!-- Node51&#45;&gt;Node7 -->
<g id="edge155" class="edge">
<title>Node51&#45;&gt;Node7</title>
<path fill="none" stroke="#191970" d="M273.3686,-268.3655C311.1288,-249.0201 380.5356,-216.2151 444,-201 644.7114,-152.8809 705.3783,-209.1496 907,-165 910.2648,-164.2851 913.6177,-163.3731 916.9372,-162.3503"/>
<polygon fill="#191970" stroke="#191970" points="918.3345,-165.5719 926.6732,-159.036 916.0787,-158.9453 918.3345,-165.5719"/>
</g>
<!-- Node52&#45;&gt;Node4 -->
<g id="edge166" class="edge">
<title>Node52&#45;&gt;Node4</title>
<path fill="none" stroke="#191970" d="M2597.1427,-290.49C2563.1375,-293.4545 2521.5256,-296.7394 2484,-299 2074.2944,-323.6813 1582.9103,-338.0762 1390.2096,-343.0325"/>
<polygon fill="#191970" stroke="#191970" points="1390.0621,-339.535 1380.1549,-343.2895 1390.241,-346.5327 1390.0621,-339.535"/>
</g>
<!-- Node52&#45;&gt;Node10 -->
<g id="edge160" class="edge">
<title>Node52&#45;&gt;Node10</title>
<path fill="none" stroke="#191970" d="M2597.2539,-277.4649C2505.7085,-268.8274 2349.043,-251.7804 2295,-232 2218.4624,-203.9864 2217.2586,-159.9592 2140,-134 2031.6437,-97.5919 1673.8842,-85.9691 1564.2332,-83.2173"/>
<polygon fill="#191970" stroke="#191970" points="1564.2051,-79.7156 1554.1229,-82.9713 1564.0348,-86.7136 1564.2051,-79.7156"/>
</g>
<!-- Node52&#45;&gt;Node11 -->
<g id="edge163" class="edge">
<title>Node52&#45;&gt;Node11</title>
<path fill="none" stroke="#191970" d="M2704.3949,-268.4814C2739.5652,-252.6292 2782.8089,-226.4585 2759,-201 2718.1533,-157.3233 2281.5301,-170.6817 2222,-165 2195.3576,-162.4572 2165.6195,-158.803 2141.8351,-155.6813"/>
<polygon fill="#191970" stroke="#191970" points="2142.0701,-152.1819 2131.6966,-154.3357 2141.1491,-159.121 2142.0701,-152.1819"/>
</g>
<!-- Node52&#45;&gt;Node12 -->
<g id="edge165" class="edge">
<title>Node52&#45;&gt;Node12</title>
<path fill="none" stroke="#191970" d="M2666.1698,-268.4517C2667.0646,-250.8038 2670.7949,-221.3767 2685,-201 2701.7076,-177.0336 2726.106,-190.7 2740,-165 2748.3166,-149.6167 2755.4376,-84.3549 2739,-67 2716.0904,-42.8119 2248.3867,-24.1875 2067.0112,-17.8484"/>
<polygon fill="#191970" stroke="#191970" points="2066.8928,-14.3423 2056.7774,-17.4932 2066.6499,-21.3381 2066.8928,-14.3423"/>
</g>
<!-- Node52&#45;&gt;Node22 -->
<g id="edge162" class="edge">
<title>Node52&#45;&gt;Node22</title>
<path fill="none" stroke="#191970" d="M2706.0992,-268.4247C2727.9299,-259.3648 2754.9121,-246.7407 2777,-232 2836.8313,-192.0706 2895.6236,-129.4969 2922.2283,-99.5645"/>
<polygon fill="#191970" stroke="#191970" points="2924.876,-101.8537 2928.8528,-92.0335 2919.6201,-97.2304 2924.876,-101.8537"/>
</g>
<!-- Node52&#45;&gt;Node27 -->
<g id="edge161" class="edge">
<title>Node52&#45;&gt;Node27</title>
<path fill="none" stroke="#191970" d="M2597.376,-279.6741C2482.1294,-272.8397 2242.5218,-256.8758 2041,-232 2028.9451,-230.5119 2016.071,-228.6021 2003.8398,-226.6349"/>
<polygon fill="#191970" stroke="#191970" points="2004.184,-223.1446 1993.7488,-224.977 2003.0491,-230.052 2004.184,-223.1446"/>
</g>
<!-- Node52&#45;&gt;Node33 -->
<g id="edge164" class="edge">
<title>Node52&#45;&gt;Node33</title>
<path fill="none" stroke="#191970" d="M2714.9235,-268.4639C2753.593,-256.5792 2806.9328,-240.1858 2843.2934,-229.0108"/>
<polygon fill="#191970" stroke="#191970" points="2844.5419,-232.2887 2853.0724,-226.0053 2842.4854,-225.5976 2844.5419,-232.2887"/>
</g>
<!-- Node53 -->
<g id="node54" class="node">
<title>Node53</title>
<g id="a_node54"><a xlink:title=" ">
<polygon fill="#ffffff" stroke="#bfbfbf" points="2694,-207 2694,-226 2750,-226 2750,-207 2694,-207"/>
<text text-anchor="middle" x="2722" y="-214" font-family="Helvetica,sans-Serif" font-size="10.00" fill="#000000">sstream</text>
</a>
</g>
</g>
<!-- Node52&#45;&gt;Node53 -->
<g id="edge159" class="edge">
<title>Node52&#45;&gt;Node53</title>
<path fill="none" stroke="#191970" d="M2678.7073,-268.2967C2687.2629,-258.0605 2698.5665,-244.5366 2707.4779,-233.8746"/>
<polygon fill="#191970" stroke="#191970" points="2710.2861,-235.9724 2714.0138,-226.055 2704.9151,-231.4832 2710.2861,-235.9724"/>
</g>
</g>
</svg>
