<?xml version="1.0" encoding="UTF-8" standalone="no"?>
<!DOCTYPE svg PUBLIC "-//W3C//DTD SVG 1.1//EN"
 "http://www.w3.org/Graphics/SVG/1.1/DTD/svg11.dtd">
<!-- Generated by graphviz version 2.40.1 (20161225.0304)
 -->
<!-- Title: drake/common/symbolic_environment.h Pages: 1 -->
<svg width="4106pt" height="430pt"
 viewBox="0.00 0.00 4105.50 430.00" xmlns="http://www.w3.org/2000/svg" xmlns:xlink="http://www.w3.org/1999/xlink">
<g id="graph0" class="graph" transform="scale(1 1) rotate(0) translate(4 426)">
<title>drake/common/symbolic_environment.h</title>
<polygon fill="#ffffff" stroke="transparent" points="-4,4 -4,-426 4101.5,-426 4101.5,4 -4,4"/>
<!-- Node0 -->
<g id="node1" class="node">
<title>Node0</title>
<g id="a_node1"><a xlink:title=" ">
<polygon fill="#bfbfbf" stroke="#000000" points="1932,-391.5 1932,-421.5 2069,-421.5 2069,-391.5 1932,-391.5"/>
<text text-anchor="start" x="1940" y="-409.5" font-family="Helvetica,sans-Serif" font-size="10.00" fill="#000000">drake/common/symbolic</text>
<text text-anchor="middle" x="2000.5" y="-398.5" font-family="Helvetica,sans-Serif" font-size="10.00" fill="#000000">_environment.h</text>
</a>
</g>
</g>
<!-- Node1 -->
<g id="node2" class="node">
<title>Node1</title>
<g id="a_node2"><a xlink:title=" ">
<polygon fill="#ffffff" stroke="#bfbfbf" points="1564,-207 1564,-226 1647,-226 1647,-207 1564,-207"/>
<text text-anchor="middle" x="1605.5" y="-214" font-family="Helvetica,sans-Serif" font-size="10.00" fill="#000000">initializer_list</text>
</a>
</g>
</g>
<!-- Node0&#45;&gt;Node1 -->
<g id="edge1" class="edge">
<title>Node0&#45;&gt;Node1</title>
<path fill="none" stroke="#191970" d="M1931.9801,-399.8257C1884.6814,-393.1839 1821.3917,-380.1694 1770.5,-355 1707.0689,-323.629 1647.2667,-262.9717 1620.38,-233.4566"/>
<polygon fill="#191970" stroke="#191970" points="1622.9783,-231.1116 1613.6938,-226.0078 1617.7691,-235.7875 1622.9783,-231.1116"/>
</g>
<!-- Node2 -->
<g id="node3" class="node">
<title>Node2</title>
<g id="a_node3"><a xlink:title=" ">
<polygon fill="#ffffff" stroke="#bfbfbf" points="1704,-207 1704,-226 1761,-226 1761,-207 1704,-207"/>
<text text-anchor="middle" x="1732.5" y="-214" font-family="Helvetica,sans-Serif" font-size="10.00" fill="#000000">ostream</text>
</a>
</g>
</g>
<!-- Node0&#45;&gt;Node2 -->
<g id="edge2" class="edge">
<title>Node0&#45;&gt;Node2</title>
<path fill="none" stroke="#191970" d="M1931.9718,-394.6183C1881.6226,-384.8959 1818.3418,-370.2962 1796.5,-355 1756.5,-326.9872 1740.9206,-267.4924 1735.3334,-236.3874"/>
<polygon fill="#191970" stroke="#191970" points="1738.7569,-235.6333 1733.7003,-226.323 1731.8473,-236.7545 1738.7569,-235.6333"/>
</g>
<!-- Node3 -->
<g id="node4" class="node">
<title>Node3</title>
<g id="a_node4"><a xlink:title=" ">
<polygon fill="#ffffff" stroke="#bfbfbf" points="2641.5,-73 2641.5,-92 2685.5,-92 2685.5,-73 2641.5,-73"/>
<text text-anchor="middle" x="2663.5" y="-80" font-family="Helvetica,sans-Serif" font-size="10.00" fill="#000000">string</text>
</a>
</g>
</g>
<!-- Node0&#45;&gt;Node3 -->
<g id="edge3" class="edge">
<title>Node0&#45;&gt;Node3</title>
<path fill="none" stroke="#191970" d="M2069.2857,-405.4734C2415.639,-399.9766 3954.8598,-371.5198 4023.5,-299 4136.7614,-179.3368 3847.2343,-155.7252 3725.5,-134 3520.5321,-97.4205 2852.1496,-85.3184 2696.2283,-82.9591"/>
<polygon fill="#191970" stroke="#191970" points="2695.9519,-79.4547 2685.901,-82.8058 2695.848,-86.4539 2695.9519,-79.4547"/>
</g>
<!-- Node4 -->
<g id="node5" class="node">
<title>Node4</title>
<g id="a_node5"><a xlink:title=" ">
<polygon fill="#ffffff" stroke="#bfbfbf" points="3446,-207 3446,-226 3539,-226 3539,-207 3446,-207"/>
<text text-anchor="middle" x="3492.5" y="-214" font-family="Helvetica,sans-Serif" font-size="10.00" fill="#000000">unordered_map</text>
</a>
</g>
</g>
<!-- Node0&#45;&gt;Node4 -->
<g id="edge4" class="edge">
<title>Node0&#45;&gt;Node4</title>
<path fill="none" stroke="#191970" d="M2069.1591,-403.8791C2303.2277,-394.472 3068.5609,-359.7055 3306.5,-299 3366.5721,-283.6738 3431.695,-250.5883 3466.7112,-231.2962"/>
<polygon fill="#191970" stroke="#191970" points="3468.7331,-234.176 3475.76,-226.2468 3465.322,-228.0633 3468.7331,-234.176"/>
</g>
<!-- Node5 -->
<g id="node6" class="node">
<title>Node5</title>
<g id="a_node6"><a xlink:href="drake__copyable_8h.html" target="_top" xlink:title="Provides careful macros to selectively enable or disable the special member functions for copy&#45;constr...">
<polygon fill="#ffffff" stroke="#000000" points="2721,-.5 2721,-30.5 2842,-30.5 2842,-.5 2721,-.5"/>
<text text-anchor="start" x="2729" y="-18.5" font-family="Helvetica,sans-Serif" font-size="10.00" fill="#000000">drake/common/drake</text>
<text text-anchor="middle" x="2781.5" y="-7.5" font-family="Helvetica,sans-Serif" font-size="10.00" fill="#000000">_copyable.h</text>
</a>
</g>
</g>
<!-- Node0&#45;&gt;Node5 -->
<g id="edge5" class="edge">
<title>Node0&#45;&gt;Node5</title>
<path fill="none" stroke="#191970" d="M2069.1648,-405.8589C2349.5654,-403.0262 3408.6465,-390.1755 3741.5,-355 3901.9882,-338.0398 4097.5,-444.8818 4097.5,-283.5 4097.5,-283.5 4097.5,-283.5 4097.5,-149.5 4097.5,47.2796 3857.7951,-91.1252 3662.5,-67 3362.9157,-29.9917 3002.6377,-19.4439 2852.5336,-16.548"/>
<polygon fill="#191970" stroke="#191970" points="2852.1569,-13.0405 2842.0931,-16.3525 2852.0258,-20.0392 2852.1569,-13.0405"/>
</g>
<!-- Node6 -->
<g id="node7" class="node">
<title>Node6</title>
<g id="a_node7"><a xlink:href="eigen__types_8h.html" target="_top" xlink:title="This file contains abbreviated definitions for certain specializations of Eigen::Matrix that are comm...">
<polygon fill="#ffffff" stroke="#000000" points="1817.5,-201.5 1817.5,-231.5 1937.5,-231.5 1937.5,-201.5 1817.5,-201.5"/>
<text text-anchor="start" x="1825.5" y="-219.5" font-family="Helvetica,sans-Serif" font-size="10.00" fill="#000000">drake/common/eigen</text>
<text text-anchor="middle" x="1877.5" y="-208.5" font-family="Helvetica,sans-Serif" font-size="10.00" fill="#000000">_types.h</text>
</a>
</g>
</g>
<!-- Node0&#45;&gt;Node6 -->
<g id="edge6" class="edge">
<title>Node0&#45;&gt;Node6</title>
<path fill="none" stroke="#191970" d="M1931.7265,-395.1384C1877.1014,-382.1048 1804.1661,-354.8353 1768.5,-299 1761.0831,-287.3889 1761.1266,-279.6387 1768.5,-268 1777.7695,-253.3683 1792.4369,-242.8147 1808.0435,-235.2315"/>
<polygon fill="#191970" stroke="#191970" points="1809.599,-238.3701 1817.3073,-231.1015 1806.7487,-231.9767 1809.599,-238.3701"/>
</g>
<!-- Node12 -->
<g id="node13" class="node">
<title>Node12</title>
<g id="a_node13"><a xlink:href="random_8h.html" target="_top" xlink:title=" ">
<polygon fill="#ffffff" stroke="#000000" points="2745.5,-207 2745.5,-226 2885.5,-226 2885.5,-207 2745.5,-207"/>
<text text-anchor="middle" x="2815.5" y="-214" font-family="Helvetica,sans-Serif" font-size="10.00" fill="#000000">drake/common/random.h</text>
</a>
</g>
</g>
<!-- Node0&#45;&gt;Node12 -->
<g id="edge13" class="edge">
<title>Node0&#45;&gt;Node12</title>
<path fill="none" stroke="#191970" d="M2069.1296,-395.1613C2172.6248,-377.5567 2374.5181,-341.2436 2543.5,-299 2628.0525,-277.8628 2725.4034,-246.6231 2777.6481,-229.2813"/>
<polygon fill="#191970" stroke="#191970" points="2778.7911,-232.5897 2787.1719,-226.1079 2776.5783,-225.9487 2778.7911,-232.5897"/>
</g>
<!-- Node14 -->
<g id="node15" class="node">
<title>Node14</title>
<g id="a_node15"><a xlink:href="symbolic_8h.html" target="_top" xlink:title="Provides public header files of Drake&#39;s symbolic library.">
<polygon fill="#ffffff" stroke="#000000" points="1927.5,-335.5 1927.5,-354.5 2073.5,-354.5 2073.5,-335.5 1927.5,-335.5"/>
<text text-anchor="middle" x="2000.5" y="-342.5" font-family="Helvetica,sans-Serif" font-size="10.00" fill="#000000">drake/common/symbolic.h</text>
</a>
</g>
</g>
<!-- Node0&#45;&gt;Node14 -->
<g id="edge16" class="edge">
<title>Node0&#45;&gt;Node14</title>
<path fill="none" stroke="#191970" d="M1994.5843,-391.2977C1993.6446,-383.2945 1993.4987,-373.3843 1994.1466,-364.7889"/>
<polygon fill="#191970" stroke="#191970" points="1997.6218,-365.2044 1995.3917,-354.8469 1990.676,-364.3345 1997.6218,-365.2044"/>
</g>
<!-- Node6&#45;&gt;Node5 -->
<g id="edge12" class="edge">
<title>Node6&#45;&gt;Node5</title>
<path fill="none" stroke="#191970" d="M1893.2043,-201.2205C1912.5773,-183.0745 1947.1769,-152.893 1981.5,-134 2060.6773,-90.4173 2085.1082,-85.8515 2173.5,-67 2274.3215,-45.4976 2573.271,-26.9229 2710.8105,-19.2528"/>
<polygon fill="#191970" stroke="#191970" points="2711.0365,-22.7458 2720.8274,-18.6976 2710.649,-15.7565 2711.0365,-22.7458"/>
</g>
<!-- Node7 -->
<g id="node8" class="node">
<title>Node7</title>
<g id="a_node8"><a xlink:title=" ">
<polygon fill="#ffffff" stroke="#bfbfbf" points="918,-6 918,-25 963,-25 963,-6 918,-6"/>
<text text-anchor="middle" x="940.5" y="-13" font-family="Helvetica,sans-Serif" font-size="10.00" fill="#000000">utility</text>
</a>
</g>
</g>
<!-- Node6&#45;&gt;Node7 -->
<g id="edge7" class="edge">
<title>Node6&#45;&gt;Node7</title>
<path fill="none" stroke="#191970" d="M1817.415,-203.405C1812.7166,-202.537 1808.037,-201.7224 1803.5,-201 1658.6711,-177.9401 1616.6739,-204.7125 1475.5,-165 1444.3029,-156.2242 1440.7933,-142.4263 1409.5,-134 1320.5427,-110.0466 1075.9542,-144.6281 996.5,-98 972.2017,-83.7404 956.1649,-54.2678 947.7058,-34.6885"/>
<polygon fill="#191970" stroke="#191970" points="950.8749,-33.1897 943.8753,-25.2364 944.3874,-35.8189 950.8749,-33.1897"/>
</g>
<!-- Node8 -->
<g id="node9" class="node">
<title>Node8</title>
<g id="a_node9"><a xlink:title=" ">
<polygon fill="#ffffff" stroke="#bfbfbf" points="1662,-140 1662,-159 1739,-159 1739,-140 1662,-140"/>
<text text-anchor="middle" x="1700.5" y="-147" font-family="Helvetica,sans-Serif" font-size="10.00" fill="#000000">Eigen/Dense</text>
</a>
</g>
</g>
<!-- Node6&#45;&gt;Node8 -->
<g id="edge8" class="edge">
<title>Node6&#45;&gt;Node8</title>
<path fill="none" stroke="#191970" d="M1837.7777,-201.4639C1806.9176,-189.7824 1764.55,-173.7449 1735.0767,-162.5884"/>
<polygon fill="#191970" stroke="#191970" points="1736.2025,-159.2722 1725.611,-159.0053 1733.7243,-165.8189 1736.2025,-159.2722"/>
</g>
<!-- Node9 -->
<g id="node10" class="node">
<title>Node9</title>
<g id="a_node10"><a xlink:href="constants_8h.html" target="_top" xlink:title=" ">
<polygon fill="#ffffff" stroke="#000000" points="1495,-140 1495,-159 1644,-159 1644,-140 1495,-140"/>
<text text-anchor="middle" x="1569.5" y="-147" font-family="Helvetica,sans-Serif" font-size="10.00" fill="#000000">drake/common/constants.h</text>
</a>
</g>
</g>
<!-- Node6&#45;&gt;Node9 -->
<g id="edge9" class="edge">
<title>Node6&#45;&gt;Node9</title>
<path fill="none" stroke="#191970" d="M1817.3833,-203.4227C1761.136,-191.187 1677.8684,-173.0736 1623.6419,-161.2776"/>
<polygon fill="#191970" stroke="#191970" points="1624.0497,-157.7845 1613.5342,-159.0789 1622.5617,-164.6246 1624.0497,-157.7845"/>
</g>
<!-- Node10 -->
<g id="node11" class="node">
<title>Node10</title>
<g id="a_node11"><a xlink:href="drake__assert_8h.html" target="_top" xlink:title="Provides Drake&#39;s assertion implementation.">
<polygon fill="#ffffff" stroke="#000000" points="1463,-67.5 1463,-97.5 1584,-97.5 1584,-67.5 1463,-67.5"/>
<text text-anchor="start" x="1471" y="-85.5" font-family="Helvetica,sans-Serif" font-size="10.00" fill="#000000">drake/common/drake</text>
<text text-anchor="middle" x="1523.5" y="-74.5" font-family="Helvetica,sans-Serif" font-size="10.00" fill="#000000">_assert.h</text>
</a>
</g>
</g>
<!-- Node6&#45;&gt;Node10 -->
<g id="edge10" class="edge">
<title>Node6&#45;&gt;Node10</title>
<path fill="none" stroke="#191970" d="M1817.4119,-203.4241C1812.7142,-202.5517 1808.0356,-201.7309 1803.5,-201 1733.5058,-189.7204 1533.7189,-217.8848 1486.5,-165 1471.1781,-147.8395 1485.5252,-123.2892 1500.5931,-105.4341"/>
<polygon fill="#191970" stroke="#191970" points="1503.4057,-107.5394 1507.4629,-97.7521 1498.1878,-102.8731 1503.4057,-107.5394"/>
</g>
<!-- Node11 -->
<g id="node12" class="node">
<title>Node11</title>
<g id="a_node12"><a xlink:title=" ">
<polygon fill="#ffffff" stroke="#bfbfbf" points="1489,-6 1489,-25 1558,-25 1558,-6 1489,-6"/>
<text text-anchor="middle" x="1523.5" y="-13" font-family="Helvetica,sans-Serif" font-size="10.00" fill="#000000">type_traits</text>
</a>
</g>
</g>
<!-- Node10&#45;&gt;Node11 -->
<g id="edge11" class="edge">
<title>Node10&#45;&gt;Node11</title>
<path fill="none" stroke="#191970" d="M1523.5,-67.2967C1523.5,-57.7699 1523.5,-45.3954 1523.5,-35.1306"/>
<polygon fill="#191970" stroke="#191970" points="1527.0001,-35.0549 1523.5,-25.055 1520.0001,-35.055 1527.0001,-35.0549"/>
</g>
<!-- Node12&#45;&gt;Node5 -->
<g id="edge15" class="edge">
<title>Node12&#45;&gt;Node5</title>
<path fill="none" stroke="#191970" d="M2824.7523,-206.8141C2833.3225,-197.1164 2845.4776,-181.3252 2850.5,-165 2854.5513,-151.8313 2854.0905,-147.3017 2850.5,-134 2840.763,-97.9271 2817.0301,-61.5449 2800.1224,-38.7914"/>
<polygon fill="#191970" stroke="#191970" points="2802.8593,-36.6082 2794.02,-30.7672 2797.2875,-40.8456 2802.8593,-36.6082"/>
</g>
<!-- Node13 -->
<g id="node14" class="node">
<title>Node13</title>
<g id="a_node14"><a xlink:title=" ">
<polygon fill="#ffffff" stroke="#bfbfbf" points="2661.5,-140 2661.5,-159 2715.5,-159 2715.5,-140 2661.5,-140"/>
<text text-anchor="middle" x="2688.5" y="-147" font-family="Helvetica,sans-Serif" font-size="10.00" fill="#000000">random</text>
</a>
</g>
</g>
<!-- Node12&#45;&gt;Node13 -->
<g id="edge14" class="edge">
<title>Node12&#45;&gt;Node13</title>
<path fill="none" stroke="#191970" d="M2797.304,-206.9005C2775.8962,-195.6067 2740.1542,-176.7506 2715.5107,-163.7497"/>
<polygon fill="#191970" stroke="#191970" points="2717.1401,-160.6522 2706.6622,-159.0817 2713.8738,-166.8434 2717.1401,-160.6522"/>
</g>
<!-- Node14&#45;&gt;Node0 -->
<g id="edge52" class="edge">
<title>Node14&#45;&gt;Node0</title>
<path fill="none" stroke="#191970" d="M2005.6083,-354.8469C2006.9704,-361.9883 2007.4849,-371.9858 2007.1519,-381.2849"/>
<polygon fill="#191970" stroke="#191970" points="2003.6584,-381.068 2006.4157,-391.2977 2010.6396,-381.5813 2003.6584,-381.068"/>
</g>
<!-- Node15 -->
<g id="node16" class="node">
<title>Node15</title>
<g id="a_node16"><a xlink:href="symbolic__variable_8h.html" target="_top" xlink:title=" ">
<polygon fill="#ffffff" stroke="#000000" points="2242,-268.5 2242,-298.5 2379,-298.5 2379,-268.5 2242,-268.5"/>
<text text-anchor="start" x="2250" y="-286.5" font-family="Helvetica,sans-Serif" font-size="10.00" fill="#000000">drake/common/symbolic</text>
<text text-anchor="middle" x="2310.5" y="-275.5" font-family="Helvetica,sans-Serif" font-size="10.00" fill="#000000">_variable.h</text>
</a>
</g>
</g>
<!-- Node14&#45;&gt;Node15 -->
<g id="edge17" class="edge">
<title>Node14&#45;&gt;Node15</title>
<path fill="none" stroke="#191970" d="M2049.1529,-335.4495C2094.0871,-326.6166 2162.9785,-313.0433 2231.5445,-299.3865"/>
<polygon fill="#191970" stroke="#191970" points="2232.5325,-302.7585 2241.6556,-297.3715 2231.1643,-295.8935 2232.5325,-302.7585"/>
</g>
<!-- Node28 -->
<g id="node29" class="node">
<title>Node28</title>
<g id="a_node29"><a xlink:href="symbolic__variables_8h.html" target="_top" xlink:title=" ">
<polygon fill="#ffffff" stroke="#000000" points="1932,-268.5 1932,-298.5 2069,-298.5 2069,-268.5 1932,-268.5"/>
<text text-anchor="start" x="1940" y="-286.5" font-family="Helvetica,sans-Serif" font-size="10.00" fill="#000000">drake/common/symbolic</text>
<text text-anchor="middle" x="2000.5" y="-275.5" font-family="Helvetica,sans-Serif" font-size="10.00" fill="#000000">_variables.h</text>
</a>
</g>
</g>
<!-- Node14&#45;&gt;Node28 -->
<g id="edge42" class="edge">
<title>Node14&#45;&gt;Node28</title>
<path fill="none" stroke="#191970" d="M1995.4375,-335.3906C1994.039,-328.2234 1993.5098,-318.0862 1993.8497,-308.671"/>
<polygon fill="#191970" stroke="#191970" points="1997.3515,-308.7767 1994.6029,-298.5446 1990.3707,-308.2574 1997.3515,-308.7767"/>
</g>
<!-- Node29 -->
<g id="node30" class="node">
<title>Node29</title>
<g id="a_node30"><a xlink:href="symbolic__expression_8h.html" target="_top" xlink:title=" ">
<polygon fill="#ffffff" stroke="#000000" points="1296,-268.5 1296,-298.5 1433,-298.5 1433,-268.5 1296,-268.5"/>
<text text-anchor="start" x="1304" y="-286.5" font-family="Helvetica,sans-Serif" font-size="10.00" fill="#000000">drake/common/symbolic</text>
<text text-anchor="middle" x="1364.5" y="-275.5" font-family="Helvetica,sans-Serif" font-size="10.00" fill="#000000">_expression.h</text>
</a>
</g>
</g>
<!-- Node14&#45;&gt;Node29 -->
<g id="edge53" class="edge">
<title>Node14&#45;&gt;Node29</title>
<path fill="none" stroke="#191970" d="M1927.4466,-338.36C1806.9489,-327.0009 1567.7135,-303.8788 1443.4582,-291.5938"/>
<polygon fill="#191970" stroke="#191970" points="1443.5528,-288.0861 1433.2566,-290.5839 1442.8632,-295.0521 1443.5528,-288.0861"/>
</g>
<!-- Node42 -->
<g id="node43" class="node">
<title>Node42</title>
<g id="a_node43"><a xlink:href="symbolic__expression__visitor_8h.html" target="_top" xlink:title=" ">
<polygon fill="#ffffff" stroke="#000000" points="126,-201.5 126,-231.5 263,-231.5 263,-201.5 126,-201.5"/>
<text text-anchor="start" x="134" y="-219.5" font-family="Helvetica,sans-Serif" font-size="10.00" fill="#000000">drake/common/symbolic</text>
<text text-anchor="middle" x="194.5" y="-208.5" font-family="Helvetica,sans-Serif" font-size="10.00" fill="#000000">_expression_visitor.h</text>
</a>
</g>
</g>
<!-- Node14&#45;&gt;Node42 -->
<g id="edge95" class="edge">
<title>Node14&#45;&gt;Node42</title>
<path fill="none" stroke="#191970" d="M1927.3209,-344.092C1598.2426,-339.8038 270.4044,-320.8718 233.5,-299 212.4512,-286.5252 199.715,-260.995 194.4317,-241.6197"/>
<polygon fill="#191970" stroke="#191970" points="197.8007,-240.6401 192.2579,-231.6109 190.9601,-242.1259 197.8007,-240.6401"/>
</g>
<!-- Node43 -->
<g id="node44" class="node">
<title>Node43</title>
<g id="a_node44"><a xlink:href="symbolic__ldlt_8h.html" target="_top" xlink:title="Eigen::LDLT is specialized for drake::symbolic::Expression, for certain matrix sizes.">
<polygon fill="#ffffff" stroke="#000000" points="3877,-268.5 3877,-298.5 4014,-298.5 4014,-268.5 3877,-268.5"/>
<text text-anchor="start" x="3885" y="-286.5" font-family="Helvetica,sans-Serif" font-size="10.00" fill="#000000">drake/common/symbolic</text>
<text text-anchor="middle" x="3945.5" y="-275.5" font-family="Helvetica,sans-Serif" font-size="10.00" fill="#000000">_ldlt.h</text>
</a>
</g>
</g>
<!-- Node14&#45;&gt;Node43 -->
<g id="edge100" class="edge">
<title>Node14&#45;&gt;Node43</title>
<path fill="none" stroke="#191970" d="M2073.6517,-343.9523C2391.5824,-339.2985 3646.8496,-319.8504 3866.7826,-298.9827"/>
<polygon fill="#191970" stroke="#191970" points="3867.1578,-302.4627 3876.7465,-297.9564 3866.4404,-295.4995 3867.1578,-302.4627"/>
</g>
<!-- Node44 -->
<g id="node45" class="node">
<title>Node44</title>
<g id="a_node45"><a xlink:href="symbolic__monomial_8h.html" target="_top" xlink:title=" ">
<polygon fill="#ffffff" stroke="#000000" points="2087,-268.5 2087,-298.5 2224,-298.5 2224,-268.5 2087,-268.5"/>
<text text-anchor="start" x="2095" y="-286.5" font-family="Helvetica,sans-Serif" font-size="10.00" fill="#000000">drake/common/symbolic</text>
<text text-anchor="middle" x="2155.5" y="-275.5" font-family="Helvetica,sans-Serif" font-size="10.00" fill="#000000">_monomial.h</text>
</a>
</g>
</g>
<!-- Node14&#45;&gt;Node44 -->
<g id="edge102" class="edge">
<title>Node14&#45;&gt;Node44</title>
<path fill="none" stroke="#191970" d="M2019.6563,-335.3906C2040.2639,-326.5279 2073.646,-313.1239 2102.2092,-302.1594"/>
<polygon fill="#191970" stroke="#191970" points="2103.5897,-305.3788 2111.6857,-298.5446 2101.0949,-298.8385 2103.5897,-305.3788"/>
</g>
<!-- Node45 -->
<g id="node46" class="node">
<title>Node45</title>
<g id="a_node46"><a xlink:href="symbolic__monomial__util_8h.html" target="_top" xlink:title=" ">
<polygon fill="#ffffff" stroke="#000000" points="2397,-268.5 2397,-298.5 2534,-298.5 2534,-268.5 2397,-268.5"/>
<text text-anchor="start" x="2405" y="-286.5" font-family="Helvetica,sans-Serif" font-size="10.00" fill="#000000">drake/common/symbolic</text>
<text text-anchor="middle" x="2465.5" y="-275.5" font-family="Helvetica,sans-Serif" font-size="10.00" fill="#000000">_monomial_util.h</text>
</a>
</g>
</g>
<!-- Node14&#45;&gt;Node45 -->
<g id="edge111" class="edge">
<title>Node14&#45;&gt;Node45</title>
<path fill="none" stroke="#191970" d="M2073.7695,-337.4043C2150.2834,-329.5026 2273.4971,-315.9246 2379.5,-299 2381.9743,-298.6049 2384.4901,-298.1868 2387.0321,-297.7508"/>
<polygon fill="#191970" stroke="#191970" points="2387.6997,-301.1871 2396.9336,-295.9923 2386.4756,-294.2949 2387.6997,-301.1871"/>
</g>
<!-- Node46 -->
<g id="node47" class="node">
<title>Node46</title>
<g id="a_node47"><a xlink:href="symbolic__polynomial_8h.html" target="_top" xlink:title=" ">
<polygon fill="#ffffff" stroke="#000000" points="413,-268.5 413,-298.5 550,-298.5 550,-268.5 413,-268.5"/>
<text text-anchor="start" x="421" y="-286.5" font-family="Helvetica,sans-Serif" font-size="10.00" fill="#000000">drake/common/symbolic</text>
<text text-anchor="middle" x="481.5" y="-275.5" font-family="Helvetica,sans-Serif" font-size="10.00" fill="#000000">_polynomial.h</text>
</a>
</g>
</g>
<!-- Node14&#45;&gt;Node46 -->
<g id="edge121" class="edge">
<title>Node14&#45;&gt;Node46</title>
<path fill="none" stroke="#191970" d="M1927.4867,-342.1672C1672.632,-332.0457 824.1188,-297.6949 560.379,-286.826"/>
<polygon fill="#191970" stroke="#191970" points="560.2602,-283.3183 550.1245,-286.4031 559.9717,-290.3123 560.2602,-283.3183"/>
</g>
<!-- Node47 -->
<g id="node48" class="node">
<title>Node47</title>
<g id="a_node48"><a xlink:href="symbolic__chebyshev__polynomial_8h.html" target="_top" xlink:title=" ">
<polygon fill="#ffffff" stroke="#000000" points="3154,-268.5 3154,-298.5 3297,-298.5 3297,-268.5 3154,-268.5"/>
<text text-anchor="start" x="3162" y="-286.5" font-family="Helvetica,sans-Serif" font-size="10.00" fill="#000000">drake/common/symbolic</text>
<text text-anchor="middle" x="3225.5" y="-275.5" font-family="Helvetica,sans-Serif" font-size="10.00" fill="#000000">_chebyshev_polynomial.h</text>
</a>
</g>
</g>
<!-- Node14&#45;&gt;Node47 -->
<g id="edge130" class="edge">
<title>Node14&#45;&gt;Node47</title>
<path fill="none" stroke="#191970" d="M2073.5415,-342.4315C2241.0801,-336.563 2665.5421,-320.9628 3020.5,-299 3060.8277,-296.5047 3105.7665,-293.0031 3143.3198,-289.9593"/>
<polygon fill="#191970" stroke="#191970" points="3144.0228,-293.4137 3153.706,-289.1141 3143.455,-286.4368 3144.0228,-293.4137"/>
</g>
<!-- Node48 -->
<g id="node49" class="node">
<title>Node48</title>
<g id="a_node49"><a xlink:href="symbolic__rational__function_8h.html" target="_top" xlink:title=" ">
<polygon fill="#ffffff" stroke="#000000" points="1777,-268.5 1777,-298.5 1914,-298.5 1914,-268.5 1777,-268.5"/>
<text text-anchor="start" x="1785" y="-286.5" font-family="Helvetica,sans-Serif" font-size="10.00" fill="#000000">drake/common/symbolic</text>
<text text-anchor="middle" x="1845.5" y="-275.5" font-family="Helvetica,sans-Serif" font-size="10.00" fill="#000000">_rational_function.h</text>
</a>
</g>
</g>
<!-- Node14&#45;&gt;Node48 -->
<g id="edge138" class="edge">
<title>Node14&#45;&gt;Node48</title>
<path fill="none" stroke="#191970" d="M1971.2188,-335.3906C1947.3617,-326.6049 1913.5637,-313.3567 1886.963,-302.446"/>
<polygon fill="#191970" stroke="#191970" points="1888.0989,-299.1284 1877.5202,-298.5446 1885.4259,-305.5979 1888.0989,-299.1284"/>
</g>
<!-- Node49 -->
<g id="node50" class="node">
<title>Node49</title>
<g id="a_node50"><a xlink:href="symbolic__formula_8h.html" target="_top" xlink:title=" ">
<polygon fill="#ffffff" stroke="#000000" points="2883,-268.5 2883,-298.5 3020,-298.5 3020,-268.5 2883,-268.5"/>
<text text-anchor="start" x="2891" y="-286.5" font-family="Helvetica,sans-Serif" font-size="10.00" fill="#000000">drake/common/symbolic</text>
<text text-anchor="middle" x="2951.5" y="-275.5" font-family="Helvetica,sans-Serif" font-size="10.00" fill="#000000">_formula.h</text>
</a>
</g>
</g>
<!-- Node14&#45;&gt;Node49 -->
<g id="edge141" class="edge">
<title>Node14&#45;&gt;Node49</title>
<path fill="none" stroke="#191970" d="M2073.6241,-340.0193C2248.948,-328.4341 2691.8202,-299.7951 2872.7347,-288.3447"/>
<polygon fill="#191970" stroke="#191970" points="2873.2115,-291.8217 2882.9707,-287.6976 2872.7698,-284.8356 2873.2115,-291.8217"/>
</g>
<!-- Node51 -->
<g id="node52" class="node">
<title>Node51</title>
<g id="a_node52"><a xlink:href="symbolic__formula__visitor_8h.html" target="_top" xlink:title=" ">
<polygon fill="#ffffff" stroke="#000000" points="0,-268.5 0,-298.5 137,-298.5 137,-268.5 0,-268.5"/>
<text text-anchor="start" x="8" y="-286.5" font-family="Helvetica,sans-Serif" font-size="10.00" fill="#000000">drake/common/symbolic</text>
<text text-anchor="middle" x="68.5" y="-275.5" font-family="Helvetica,sans-Serif" font-size="10.00" fill="#000000">_formula_visitor.h</text>
</a>
</g>
</g>
<!-- Node14&#45;&gt;Node51 -->
<g id="edge158" class="edge">
<title>Node14&#45;&gt;Node51</title>
<path fill="none" stroke="#191970" d="M1927.2629,-344.3074C1630.7664,-341.2689 519.2329,-327.9589 169.5,-299 162.2985,-298.4037 154.8486,-297.6499 147.4055,-296.7975"/>
<polygon fill="#191970" stroke="#191970" points="147.6307,-293.2994 137.2842,-295.5795 146.7943,-300.2493 147.6307,-293.2994"/>
</g>
<!-- Node52 -->
<g id="node53" class="node">
<title>Node52</title>
<g id="a_node53"><a xlink:href="symbolic__simplification_8h.html" target="_top" xlink:title=" ">
<polygon fill="#ffffff" stroke="#000000" points="252,-268.5 252,-298.5 389,-298.5 389,-268.5 252,-268.5"/>
<text text-anchor="start" x="260" y="-286.5" font-family="Helvetica,sans-Serif" font-size="10.00" fill="#000000">drake/common/symbolic</text>
<text text-anchor="middle" x="320.5" y="-275.5" font-family="Helvetica,sans-Serif" font-size="10.00" fill="#000000">_simplification.h</text>
</a>
</g>
</g>
<!-- Node14&#45;&gt;Node52 -->
<g id="edge162" class="edge">
<title>Node14&#45;&gt;Node52</title>
<path fill="none" stroke="#191970" d="M1927.4961,-344.4386C1657.8109,-342.0888 717.6807,-331.6497 399.3525,-299.4472"/>
<polygon fill="#191970" stroke="#191970" points="399.5129,-295.945 389.2041,-298.3904 398.7878,-302.9074 399.5129,-295.945"/>
</g>
<!-- Node53 -->
<g id="node54" class="node">
<title>Node53</title>
<g id="a_node54"><a xlink:href="symbolic__codegen_8h.html" target="_top" xlink:title=" ">
<polygon fill="#ffffff" stroke="#000000" points="3722,-268.5 3722,-298.5 3859,-298.5 3859,-268.5 3722,-268.5"/>
<text text-anchor="start" x="3730" y="-286.5" font-family="Helvetica,sans-Serif" font-size="10.00" fill="#000000">drake/common/symbolic</text>
<text text-anchor="middle" x="3790.5" y="-275.5" font-family="Helvetica,sans-Serif" font-size="10.00" fill="#000000">_codegen.h</text>
</a>
</g>
</g>
<!-- Node14&#45;&gt;Node53 -->
<g id="edge166" class="edge">
<title>Node14&#45;&gt;Node53</title>
<path fill="none" stroke="#191970" d="M2073.6176,-342.3869C2361.2651,-332.3295 3413.3914,-296.181 3711.3929,-286.1169"/>
<polygon fill="#191970" stroke="#191970" points="3711.7969,-289.6054 3721.6731,-285.77 3711.5607,-282.6093 3711.7969,-289.6054"/>
</g>
<!-- Node15&#45;&gt;Node2 -->
<g id="edge21" class="edge">
<title>Node15&#45;&gt;Node2</title>
<path fill="none" stroke="#191970" d="M2241.7231,-269.2293C2238.9501,-268.789 2236.2011,-268.3766 2233.5,-268 2031.273,-239.8023 1975.1034,-275.0041 1775.5,-232 1772.06,-231.2589 1768.5216,-230.3094 1765.0221,-229.2461"/>
<polygon fill="#191970" stroke="#191970" points="1765.9701,-225.8727 1755.3764,-226.026 1763.7535,-232.5125 1765.9701,-225.8727"/>
</g>
<!-- Node15&#45;&gt;Node3 -->
<g id="edge22" class="edge">
<title>Node15&#45;&gt;Node3</title>
<path fill="none" stroke="#191970" d="M2379.3963,-269.7708C2382.4724,-269.1699 2385.5179,-268.5773 2388.5,-268 2473.3089,-251.5814 2499.2744,-264.0309 2579.5,-232 2603.0853,-222.5833 2604.7941,-212.3746 2627.5,-201 2668.6141,-180.4038 2698.2434,-202.7513 2724.5,-165 2741.0946,-141.1406 2711.7592,-114.1832 2688.2984,-97.7682"/>
<polygon fill="#191970" stroke="#191970" points="2689.9611,-94.6696 2679.7025,-92.0215 2686.0706,-100.489 2689.9611,-94.6696"/>
</g>
<!-- Node15&#45;&gt;Node5 -->
<g id="edge24" class="edge">
<title>Node15&#45;&gt;Node5</title>
<path fill="none" stroke="#191970" d="M2379.3751,-269.6571C2382.457,-269.087 2385.5095,-268.532 2388.5,-268 2489.9353,-249.9559 2519.9434,-265.1273 2617.5,-232 2646.9725,-221.992 2721.1754,-189.3998 2740.5,-165 2769.3479,-128.5758 2777.9332,-73.2866 2780.4656,-41.1432"/>
<polygon fill="#191970" stroke="#191970" points="2783.9812,-41.0124 2781.1322,-30.8078 2776.9958,-40.5618 2783.9812,-41.0124"/>
</g>
<!-- Node15&#45;&gt;Node6 -->
<g id="edge25" class="edge">
<title>Node15&#45;&gt;Node6</title>
<path fill="none" stroke="#191970" d="M2241.6882,-269.4533C2238.9249,-268.951 2236.1874,-268.4645 2233.5,-268 2134.8181,-250.9432 2020.074,-235.0472 1948.1138,-225.5508"/>
<polygon fill="#191970" stroke="#191970" points="1948.1851,-222.0301 1937.8142,-224.1967 1947.2726,-228.9704 1948.1851,-222.0301"/>
</g>
<!-- Node16 -->
<g id="node17" class="node">
<title>Node16</title>
<g id="a_node17"><a xlink:title=" ">
<polygon fill="#ffffff" stroke="#bfbfbf" points="2068,-140 2068,-159 2121,-159 2121,-140 2068,-140"/>
<text text-anchor="middle" x="2094.5" y="-147" font-family="Helvetica,sans-Serif" font-size="10.00" fill="#000000">cstddef</text>
</a>
</g>
</g>
<!-- Node15&#45;&gt;Node16 -->
<g id="edge18" class="edge">
<title>Node15&#45;&gt;Node16</title>
<path fill="none" stroke="#191970" d="M2286.1419,-268.389C2244.4971,-242.5538 2160.1003,-190.1965 2118.6195,-164.463"/>
<polygon fill="#191970" stroke="#191970" points="2120.3241,-161.4017 2109.9813,-159.1042 2116.6339,-167.3501 2120.3241,-161.4017"/>
</g>
<!-- Node17 -->
<g id="node18" class="node">
<title>Node17</title>
<g id="a_node18"><a xlink:title=" ">
<polygon fill="#ffffff" stroke="#bfbfbf" points="1336,-140 1336,-159 1401,-159 1401,-140 1336,-140"/>
<text text-anchor="middle" x="1368.5" y="-147" font-family="Helvetica,sans-Serif" font-size="10.00" fill="#000000">functional</text>
</a>
</g>
</g>
<!-- Node15&#45;&gt;Node17 -->
<g id="edge19" class="edge">
<title>Node15&#45;&gt;Node17</title>
<path fill="none" stroke="#191970" d="M2255.7807,-268.4883C2184.9673,-249.6659 2057.4924,-217.8307 1946.5,-201 1743.7482,-170.255 1690.454,-186.3612 1486.5,-165 1461.4864,-162.3802 1433.5822,-158.7475 1411.1913,-155.6573"/>
<polygon fill="#191970" stroke="#191970" points="1411.389,-152.1511 1401.0013,-154.2362 1410.422,-159.084 1411.389,-152.1511"/>
</g>
<!-- Node18 -->
<g id="node19" class="node">
<title>Node18</title>
<g id="a_node19"><a xlink:title=" ">
<polygon fill="#ffffff" stroke="#bfbfbf" points="1630.5,-73 1630.5,-92 1688.5,-92 1688.5,-73 1630.5,-73"/>
<text text-anchor="middle" x="1659.5" y="-80" font-family="Helvetica,sans-Serif" font-size="10.00" fill="#000000">memory</text>
</a>
</g>
</g>
<!-- Node15&#45;&gt;Node18 -->
<g id="edge20" class="edge">
<title>Node15&#45;&gt;Node18</title>
<path fill="none" stroke="#191970" d="M2379.0523,-269.3117C2447.5399,-255.0218 2543.169,-234.7065 2546.5,-232 2581.8522,-203.2756 2607.7931,-167.0999 2576.5,-134 2545.9205,-101.6549 1870.8453,-86.5508 1699.0107,-83.222"/>
<polygon fill="#191970" stroke="#191970" points="1698.955,-79.7204 1688.8898,-83.0284 1698.821,-86.7191 1698.955,-79.7204"/>
</g>
<!-- Node19 -->
<g id="node20" class="node">
<title>Node19</title>
<g id="a_node20"><a xlink:title=" ">
<polygon fill="#ffffff" stroke="#bfbfbf" points="3012,-140 3012,-159 3081,-159 3081,-140 3012,-140"/>
<text text-anchor="middle" x="3046.5" y="-147" font-family="Helvetica,sans-Serif" font-size="10.00" fill="#000000">Eigen/Core</text>
</a>
</g>
</g>
<!-- Node15&#45;&gt;Node19 -->
<g id="edge23" class="edge">
<title>Node15&#45;&gt;Node19</title>
<path fill="none" stroke="#191970" d="M2379.3231,-269.3215C2382.4191,-268.8422 2385.4888,-268.3981 2388.5,-268 2507.5094,-252.2683 2814.1858,-271.6308 2927.5,-232 2968.11,-217.7969 3007.6048,-185.7145 3029.327,-166.0049"/>
<polygon fill="#191970" stroke="#191970" points="3031.7974,-168.4873 3036.7473,-159.1198 3027.0362,-163.3559 3031.7974,-168.4873"/>
</g>
<!-- Node20 -->
<g id="node21" class="node">
<title>Node20</title>
<g id="a_node21"><a xlink:href="hash_8h.html" target="_top" xlink:title=" ">
<polygon fill="#ffffff" stroke="#000000" points="2412,-207 2412,-226 2537,-226 2537,-207 2412,-207"/>
<text text-anchor="middle" x="2474.5" y="-214" font-family="Helvetica,sans-Serif" font-size="10.00" fill="#000000">drake/common/hash.h</text>
</a>
</g>
</g>
<!-- Node15&#45;&gt;Node20 -->
<g id="edge26" class="edge">
<title>Node15&#45;&gt;Node20</title>
<path fill="none" stroke="#191970" d="M2347.3048,-268.4639C2375.5656,-256.9183 2414.242,-241.1176 2441.5046,-229.9798"/>
<polygon fill="#191970" stroke="#191970" points="2443.0583,-233.126 2450.9919,-226.1039 2440.4109,-226.6459 2443.0583,-233.126"/>
</g>
<!-- Node20&#45;&gt;Node3 -->
<g id="edge34" class="edge">
<title>Node20&#45;&gt;Node3</title>
<path fill="none" stroke="#191970" d="M2498.276,-206.861C2519.6796,-197.6467 2551.5163,-182.5812 2576.5,-165 2604.2528,-145.4702 2631.9416,-117.356 2648.3924,-99.5117"/>
<polygon fill="#191970" stroke="#191970" points="2650.9882,-101.8594 2655.1199,-92.1034 2645.806,-97.1535 2650.9882,-101.8594"/>
</g>
<!-- Node20&#45;&gt;Node7 -->
<g id="edge36" class="edge">
<title>Node20&#45;&gt;Node7</title>
<path fill="none" stroke="#191970" d="M2445.2532,-206.9617C2379.0764,-185.3843 2223.3487,-134.6392 2220.5,-134 1705.9703,-18.5448 1562.88,-86.6443 1038.5,-31 1016.6763,-28.6842 992.3018,-24.8343 973.321,-21.5509"/>
<polygon fill="#191970" stroke="#191970" points="973.8372,-18.088 963.3814,-19.7984 972.6217,-24.9817 973.8372,-18.088"/>
</g>
<!-- Node20&#45;&gt;Node10 -->
<g id="edge38" class="edge">
<title>Node20&#45;&gt;Node10</title>
<path fill="none" stroke="#191970" d="M2429.8514,-206.952C2374.3468,-194.9653 2282.856,-174.7902 2249.5,-165 2210.5149,-153.5576 2203.2694,-142.3164 2163.5,-134 1927.1919,-84.5842 1861.418,-124.885 1621.5,-98 1612.5744,-96.9998 1603.2193,-95.7641 1593.9799,-94.4302"/>
<polygon fill="#191970" stroke="#191970" points="1594.4313,-90.9589 1584.0254,-92.9508 1593.4022,-97.8829 1594.4313,-90.9589"/>
</g>
<!-- Node20&#45;&gt;Node11 -->
<g id="edge35" class="edge">
<title>Node20&#45;&gt;Node11</title>
<path fill="none" stroke="#191970" d="M2433.187,-206.9193C2405.8865,-199.0502 2370.4824,-185.7608 2344.5,-165 2303.2805,-132.0644 2323.2967,-93.2004 2277.5,-67 2216.0521,-31.8455 1722.3208,-19.3623 1568.8503,-16.3097"/>
<polygon fill="#191970" stroke="#191970" points="1568.4654,-12.8017 1558.3991,-16.1061 1568.329,-19.8003 1568.4654,-12.8017"/>
</g>
<!-- Node20&#45;&gt;Node16 -->
<g id="edge28" class="edge">
<title>Node20&#45;&gt;Node16</title>
<path fill="none" stroke="#191970" d="M2420.4588,-206.9717C2342.0755,-193.1515 2198.863,-167.9008 2131.449,-156.0147"/>
<polygon fill="#191970" stroke="#191970" points="2131.7577,-152.5152 2121.3018,-154.2256 2130.5422,-159.4089 2131.7577,-152.5152"/>
</g>
<!-- Node20&#45;&gt;Node17 -->
<g id="edge29" class="edge">
<title>Node20&#45;&gt;Node17</title>
<path fill="none" stroke="#191970" d="M2411.9487,-206.9968C2394.967,-204.7101 2376.5583,-202.498 2359.5,-201 1972.6591,-167.0279 1873.3976,-198.3208 1486.5,-165 1461.5312,-162.8496 1433.7338,-159.2575 1411.3932,-156.0725"/>
<polygon fill="#191970" stroke="#191970" points="1411.6213,-152.569 1401.2224,-154.5972 1410.6164,-159.4965 1411.6213,-152.569"/>
</g>
<!-- Node21 -->
<g id="node22" class="node">
<title>Node21</title>
<g id="a_node22"><a xlink:title=" ">
<polygon fill="#ffffff" stroke="#bfbfbf" points="2368,-140 2368,-159 2415,-159 2415,-140 2368,-140"/>
<text text-anchor="middle" x="2391.5" y="-147" font-family="Helvetica,sans-Serif" font-size="10.00" fill="#000000">cmath</text>
</a>
</g>
</g>
<!-- Node20&#45;&gt;Node21 -->
<g id="edge27" class="edge">
<title>Node20&#45;&gt;Node21</title>
<path fill="none" stroke="#191970" d="M2462.6081,-206.9005C2449.2952,-196.1539 2427.5001,-178.5603 2411.5432,-165.6794"/>
<polygon fill="#191970" stroke="#191970" points="2413.3494,-162.6395 2403.3698,-159.0817 2408.9526,-168.0863 2413.3494,-162.6395"/>
</g>
<!-- Node22 -->
<g id="node23" class="node">
<title>Node22</title>
<g id="a_node23"><a xlink:title=" ">
<polygon fill="#ffffff" stroke="#bfbfbf" points="2433.5,-140 2433.5,-159 2493.5,-159 2493.5,-140 2433.5,-140"/>
<text text-anchor="middle" x="2463.5" y="-147" font-family="Helvetica,sans-Serif" font-size="10.00" fill="#000000">iostream</text>
</a>
</g>
</g>
<!-- Node20&#45;&gt;Node22 -->
<g id="edge30" class="edge">
<title>Node20&#45;&gt;Node22</title>
<path fill="none" stroke="#191970" d="M2472.924,-206.9005C2471.3066,-197.0495 2468.7447,-181.4451 2466.7,-168.9912"/>
<polygon fill="#191970" stroke="#191970" points="2470.1471,-168.3825 2465.0731,-159.0817 2463.2395,-169.5166 2470.1471,-168.3825"/>
</g>
<!-- Node23 -->
<g id="node24" class="node">
<title>Node23</title>
<g id="a_node24"><a xlink:title=" ">
<polygon fill="#ffffff" stroke="#bfbfbf" points="2011.5,-140 2011.5,-159 2049.5,-159 2049.5,-140 2011.5,-140"/>
<text text-anchor="middle" x="2030.5" y="-147" font-family="Helvetica,sans-Serif" font-size="10.00" fill="#000000">map</text>
</a>
</g>
</g>
<!-- Node20&#45;&gt;Node23 -->
<g id="edge31" class="edge">
<title>Node20&#45;&gt;Node23</title>
<path fill="none" stroke="#191970" d="M2411.8528,-207.888C2394.8713,-205.5995 2376.4867,-203.1638 2359.5,-201 2226.2866,-184.0307 2187.5864,-205.3443 2059.5,-165 2058.0707,-164.5498 2056.6296,-164.0289 2055.1941,-163.4567"/>
<polygon fill="#191970" stroke="#191970" points="2056.5278,-160.2164 2045.988,-159.1377 2053.5547,-166.5536 2056.5278,-160.2164"/>
</g>
<!-- Node24 -->
<g id="node25" class="node">
<title>Node24</title>
<g id="a_node25"><a xlink:title=" ">
<polygon fill="#ffffff" stroke="#bfbfbf" points="2511.5,-140 2511.5,-159 2567.5,-159 2567.5,-140 2511.5,-140"/>
<text text-anchor="middle" x="2539.5" y="-147" font-family="Helvetica,sans-Serif" font-size="10.00" fill="#000000">optional</text>
</a>
</g>
</g>
<!-- Node20&#45;&gt;Node24 -->
<g id="edge32" class="edge">
<title>Node20&#45;&gt;Node24</title>
<path fill="none" stroke="#191970" d="M2483.8129,-206.9005C2494.0456,-196.353 2510.6772,-179.2096 2523.1046,-166.3998"/>
<polygon fill="#191970" stroke="#191970" points="2525.7533,-168.6962 2530.2044,-159.0817 2520.7291,-163.822 2525.7533,-168.6962"/>
</g>
<!-- Node25 -->
<g id="node26" class="node">
<title>Node25</title>
<g id="a_node26"><a xlink:title=" ">
<polygon fill="#ffffff" stroke="#bfbfbf" points="2809.5,-140 2809.5,-159 2841.5,-159 2841.5,-140 2809.5,-140"/>
<text text-anchor="middle" x="2825.5" y="-147" font-family="Helvetica,sans-Serif" font-size="10.00" fill="#000000">set</text>
</a>
</g>
</g>
<!-- Node20&#45;&gt;Node25 -->
<g id="edge33" class="edge">
<title>Node20&#45;&gt;Node25</title>
<path fill="none" stroke="#191970" d="M2524.417,-206.9717C2600.1424,-192.517 2741.3742,-165.5582 2799.492,-154.4645"/>
<polygon fill="#191970" stroke="#191970" points="2800.1757,-157.8973 2809.3421,-152.5843 2798.8632,-151.0214 2800.1757,-157.8973"/>
</g>
<!-- Node26 -->
<g id="node27" class="node">
<title>Node26</title>
<g id="a_node27"><a xlink:title=" ">
<polygon fill="#ffffff" stroke="#bfbfbf" points="2330,-73 2330,-92 2377,-92 2377,-73 2330,-73"/>
<text text-anchor="middle" x="2353.5" y="-80" font-family="Helvetica,sans-Serif" font-size="10.00" fill="#000000">vector</text>
</a>
</g>
</g>
<!-- Node20&#45;&gt;Node26 -->
<g id="edge37" class="edge">
<title>Node20&#45;&gt;Node26</title>
<path fill="none" stroke="#191970" d="M2425.8418,-206.9964C2401.8706,-199.6822 2374.8775,-186.9468 2359.5,-165 2346.6704,-146.6895 2347.2264,-120.1374 2349.6321,-102.1403"/>
<polygon fill="#191970" stroke="#191970" points="2353.0993,-102.6252 2351.2658,-92.1902 2346.1917,-101.491 2353.0993,-102.6252"/>
</g>
<!-- Node27 -->
<g id="node28" class="node">
<title>Node27</title>
<g id="a_node28"><a xlink:href="drake__throw_8h.html" target="_top" xlink:title="Provides a convenient wrapper to throw an exception when a condition is unmet.">
<polygon fill="#ffffff" stroke="#000000" points="1796,-134.5 1796,-164.5 1917,-164.5 1917,-134.5 1796,-134.5"/>
<text text-anchor="start" x="1804" y="-152.5" font-family="Helvetica,sans-Serif" font-size="10.00" fill="#000000">drake/common/drake</text>
<text text-anchor="middle" x="1856.5" y="-141.5" font-family="Helvetica,sans-Serif" font-size="10.00" fill="#000000">_throw.h</text>
</a>
</g>
</g>
<!-- Node20&#45;&gt;Node27 -->
<g id="edge39" class="edge">
<title>Node20&#45;&gt;Node27</title>
<path fill="none" stroke="#191970" d="M2411.8792,-207.6727C2394.8976,-205.3846 2376.5064,-203.003 2359.5,-201 2201.1233,-182.3467 2161.124,-181.4178 2002.5,-165 1977.9856,-162.4627 1951.1623,-159.631 1927.2711,-157.0892"/>
<polygon fill="#191970" stroke="#191970" points="1927.5413,-153.5983 1917.2268,-156.0193 1926.7998,-160.5589 1927.5413,-153.5983"/>
</g>
<!-- Node27&#45;&gt;Node10 -->
<g id="edge41" class="edge">
<title>Node27&#45;&gt;Node10</title>
<path fill="none" stroke="#191970" d="M1795.925,-136.9445C1791.0454,-135.9443 1786.1908,-134.9529 1781.5,-134 1718.2399,-121.1495 1646.1954,-106.7918 1594.3455,-96.5074"/>
<polygon fill="#191970" stroke="#191970" points="1594.7432,-93.0182 1584.2534,-94.5065 1593.3818,-99.8846 1594.7432,-93.0182"/>
</g>
<!-- Node27&#45;&gt;Node11 -->
<g id="edge40" class="edge">
<title>Node27&#45;&gt;Node11</title>
<path fill="none" stroke="#191970" d="M1831.0535,-134.3585C1800.2424,-116.4857 1746.3895,-86.7084 1697.5,-67 1654.684,-49.7399 1603.8738,-35.3656 1568.2496,-26.2285"/>
<polygon fill="#191970" stroke="#191970" points="1568.7191,-22.7371 1558.1662,-23.6781 1567.0026,-29.5234 1568.7191,-22.7371"/>
</g>
<!-- Node28&#45;&gt;Node1 -->
<g id="edge45" class="edge">
<title>Node28&#45;&gt;Node1</title>
<path fill="none" stroke="#191970" d="M1931.6923,-269.4289C1928.9279,-268.9334 1926.189,-268.4549 1923.5,-268 1807.6083,-248.393 1776.6182,-255.7299 1661.5,-232 1656.7483,-231.0205 1651.8056,-229.862 1646.9112,-228.6263"/>
<polygon fill="#191970" stroke="#191970" points="1647.5716,-225.1808 1637.0096,-226.0141 1645.7859,-231.9493 1647.5716,-225.1808"/>
</g>
<!-- Node28&#45;&gt;Node2 -->
<g id="edge46" class="edge">
<title>Node28&#45;&gt;Node2</title>
<path fill="none" stroke="#191970" d="M1931.8254,-268.7367C1876.8702,-256.7446 1804.3861,-240.4783 1775.5,-232 1772.716,-231.1829 1769.8502,-230.283 1766.9826,-229.3407"/>
<polygon fill="#191970" stroke="#191970" points="1767.9376,-225.9681 1757.3429,-226.0318 1765.6649,-232.5889 1767.9376,-225.9681"/>
</g>
<!-- Node28&#45;&gt;Node3 -->
<g id="edge48" class="edge">
<title>Node28&#45;&gt;Node3</title>
<path fill="none" stroke="#191970" d="M1994.8894,-268.3698C1984.8406,-238.3391 1967.8792,-170.9246 2002.5,-134 2013.3883,-122.3872 2499.3126,-92.3723 2630.922,-84.4442"/>
<polygon fill="#191970" stroke="#191970" points="2631.3911,-87.9224 2641.1631,-83.8288 2630.9712,-80.935 2631.3911,-87.9224"/>
</g>
<!-- Node28&#45;&gt;Node6 -->
<g id="edge49" class="edge">
<title>Node28&#45;&gt;Node6</title>
<path fill="none" stroke="#191970" d="M1972.8964,-268.4639C1955.6097,-259.0475 1933.1268,-246.8008 1914.3297,-236.5617"/>
<polygon fill="#191970" stroke="#191970" points="1915.893,-233.4277 1905.437,-231.7177 1912.5445,-239.5749 1915.893,-233.4277"/>
</g>
<!-- Node28&#45;&gt;Node14 -->
<g id="edge51" class="edge">
<title>Node28&#45;&gt;Node14</title>
<path fill="none" stroke="#191970" d="M2006.3971,-298.5446C2007.3593,-306.6241 2007.5074,-316.681 2006.8414,-325.3693"/>
<polygon fill="#191970" stroke="#191970" points="2003.3567,-325.028 2005.5625,-335.3906 2010.3003,-325.9142 2003.3567,-325.028"/>
</g>
<!-- Node28&#45;&gt;Node16 -->
<g id="edge43" class="edge">
<title>Node28&#45;&gt;Node16</title>
<path fill="none" stroke="#191970" d="M2011.1003,-268.389C2028.5381,-243.5307 2063.2005,-194.1184 2081.8776,-167.4937"/>
<polygon fill="#191970" stroke="#191970" points="2084.8852,-169.3008 2087.7628,-159.1042 2079.1546,-165.2808 2084.8852,-169.3008"/>
</g>
<!-- Node28&#45;&gt;Node17 -->
<g id="edge44" class="edge">
<title>Node28&#45;&gt;Node17</title>
<path fill="none" stroke="#191970" d="M1931.6803,-269.4976C1928.9192,-268.9831 1926.1843,-268.4819 1923.5,-268 1822.5254,-249.8736 1789.4176,-273.2786 1695.5,-232 1675.2294,-223.0907 1676.8075,-209.8249 1656.5,-201 1557.1738,-157.8364 1520.8626,-190.0502 1415.5,-165 1412.0519,-164.1802 1408.4947,-163.2222 1404.9531,-162.1917"/>
<polygon fill="#191970" stroke="#191970" points="1405.7045,-158.7606 1395.1169,-159.1506 1403.6368,-165.4483 1405.7045,-158.7606"/>
</g>
<!-- Node28&#45;&gt;Node20 -->
<g id="edge50" class="edge">
<title>Node28&#45;&gt;Node20</title>
<path fill="none" stroke="#191970" d="M2069.3581,-269.5573C2072.4445,-269.0142 2075.5027,-268.4921 2078.5,-268 2190.7866,-249.563 2321.8692,-233.5979 2401.4902,-224.5137"/>
<polygon fill="#191970" stroke="#191970" points="2402.3558,-227.938 2411.8971,-223.3321 2401.5661,-220.9827 2402.3558,-227.938"/>
</g>
<!-- Node28&#45;&gt;Node25 -->
<g id="edge47" class="edge">
<title>Node28&#45;&gt;Node25</title>
<path fill="none" stroke="#191970" d="M2069.3283,-269.3595C2072.4228,-268.8699 2075.4908,-268.4132 2078.5,-268 2285.1749,-239.6192 2341.3363,-269.7871 2546.5,-232 2642.0356,-214.4042 2751.4903,-176.6849 2800.0324,-159.0084"/>
<polygon fill="#191970" stroke="#191970" points="2801.258,-162.287 2809.4393,-155.5551 2798.8456,-155.7157 2801.258,-162.287"/>
</g>
<!-- Node29&#45;&gt;Node2 -->
<g id="edge60" class="edge">
<title>Node29&#45;&gt;Node2</title>
<path fill="none" stroke="#191970" d="M1433.0332,-271.9429C1492.2678,-261.8272 1580.1378,-246.5183 1656.5,-232 1668.5736,-229.7045 1681.6979,-227.0757 1693.5893,-224.6431"/>
<polygon fill="#191970" stroke="#191970" points="1694.5756,-228.0135 1703.6645,-222.5691 1693.1641,-221.1573 1694.5756,-228.0135"/>
</g>
<!-- Node29&#45;&gt;Node3 -->
<g id="edge62" class="edge">
<title>Node29&#45;&gt;Node3</title>
<path fill="none" stroke="#191970" d="M1352.8734,-268.4759C1331.2518,-238.636 1290.206,-171.5475 1326.5,-134 1367.4515,-91.6341 2327.6366,-100.6461 2386.5,-98 2474.9956,-94.0218 2579.3066,-87.7595 2631.0322,-84.5484"/>
<polygon fill="#191970" stroke="#191970" points="2631.4844,-88.0271 2641.2472,-83.9114 2631.0487,-81.0406 2631.4844,-88.0271"/>
</g>
<!-- Node29&#45;&gt;Node4 -->
<g id="edge64" class="edge">
<title>Node29&#45;&gt;Node4</title>
<path fill="none" stroke="#191970" d="M1433.1128,-280.55C1513.48,-277.1682 1650.6357,-271.626 1768.5,-268 2459.0253,-246.7564 2632.7717,-271.3872 3322.5,-232 3360.1451,-229.8503 3402.3619,-226.0088 3435.3078,-222.6881"/>
<polygon fill="#191970" stroke="#191970" points="3436.0684,-226.1288 3445.6612,-221.6311 3435.3574,-219.165 3436.0684,-226.1288"/>
</g>
<!-- Node29&#45;&gt;Node5 -->
<g id="edge74" class="edge">
<title>Node29&#45;&gt;Node5</title>
<path fill="none" stroke="#191970" d="M1320.7588,-268.3254C1304.0446,-260.222 1286.5929,-248.4446 1276.5,-232 1253.6976,-194.8476 1247.5623,-169.7541 1272.5,-134 1321.8103,-63.3019 1369.9505,-83.7664 1454.5,-67 1577.7405,-42.5611 2453.2036,-22.4023 2710.5352,-16.9533"/>
<polygon fill="#191970" stroke="#191970" points="2710.9522,-20.4454 2720.8761,-16.7353 2710.8045,-13.447 2710.9522,-20.4454"/>
</g>
<!-- Node29&#45;&gt;Node6 -->
<g id="edge78" class="edge">
<title>Node29&#45;&gt;Node6</title>
<path fill="none" stroke="#191970" d="M1433.1518,-275.1673C1513.923,-265.2766 1652.0448,-248.0913 1770.5,-232 1782.3426,-230.3913 1794.9134,-228.6239 1807.1175,-226.8764"/>
<polygon fill="#191970" stroke="#191970" points="1807.8592,-230.3058 1817.2587,-225.4171 1806.8621,-223.3772 1807.8592,-230.3058"/>
</g>
<!-- Node29&#45;&gt;Node7 -->
<g id="edge65" class="edge">
<title>Node29&#45;&gt;Node7</title>
<path fill="none" stroke="#191970" d="M1295.9738,-281.1235C1123.7864,-274.8172 682.3165,-256.4542 620.5,-232 600.2324,-223.9822 601.753,-211.2168 582.5,-201 533.3147,-174.8992 495.7381,-209.673 462.5,-165 454.2756,-153.9462 454.0103,-144.8514 462.5,-134 518.3504,-62.6132 809.5715,-28.1895 907.9752,-18.4694"/>
<polygon fill="#191970" stroke="#191970" points="908.3269,-21.9518 917.9432,-17.5046 907.6525,-14.9843 908.3269,-21.9518"/>
</g>
<!-- Node29&#45;&gt;Node10 -->
<g id="edge73" class="edge">
<title>Node29&#45;&gt;Node10</title>
<path fill="none" stroke="#191970" d="M1295.8472,-279.9071C1210.9163,-274.2845 1072.3942,-260.9037 1030.5,-232 992.0481,-205.4713 961.1021,-168.5904 992.5,-134 1022.8656,-100.5469 1315.4081,-88.1711 1452.8376,-84.1767"/>
<polygon fill="#191970" stroke="#191970" points="1452.9605,-87.6747 1462.8572,-83.8924 1452.7619,-80.6775 1452.9605,-87.6747"/>
</g>
<!-- Node29&#45;&gt;Node11 -->
<g id="edge63" class="edge">
<title>Node29&#45;&gt;Node11</title>
<path fill="none" stroke="#191970" d="M1298.9104,-268.4468C1264.5497,-259.0921 1227.5513,-246.1717 1217.5,-232 1192.3024,-196.473 1197.748,-172.8194 1217.5,-134 1240.4388,-88.9175 1263.5813,-88.2153 1309.5,-67 1364.8549,-41.4251 1434.3473,-27.7237 1478.8459,-21.0304"/>
<polygon fill="#191970" stroke="#191970" points="1479.3766,-24.4901 1488.771,-19.5915 1478.3723,-17.5625 1479.3766,-24.4901"/>
</g>
<!-- Node29&#45;&gt;Node12 -->
<g id="edge93" class="edge">
<title>Node29&#45;&gt;Node12</title>
<path fill="none" stroke="#191970" d="M1433.1323,-280.8463C1614.8221,-273.7483 2123.3974,-253.406 2546.5,-232 2609.9216,-228.7913 2681.7223,-224.6271 2735.1819,-221.423"/>
<polygon fill="#191970" stroke="#191970" points="2735.5104,-224.9097 2745.2824,-220.816 2735.0904,-217.9223 2735.5104,-224.9097"/>
</g>
<!-- Node29&#45;&gt;Node13 -->
<g id="edge61" class="edge">
<title>Node29&#45;&gt;Node13</title>
<path fill="none" stroke="#191970" d="M1402.0066,-268.4866C1424.4273,-259.0058 1453.1871,-245.9432 1477.5,-232 1498.2514,-220.0993 1498.8225,-208.6144 1521.5,-201 1632.69,-163.666 2459.6412,-175.0529 2576.5,-165 2601.5428,-162.8457 2629.5542,-158.9686 2651.2991,-155.6312"/>
<polygon fill="#191970" stroke="#191970" points="2652.0913,-159.0499 2661.4301,-154.0461 2651.0092,-152.134 2652.0913,-159.0499"/>
</g>
<!-- Node29&#45;&gt;Node14 -->
<g id="edge94" class="edge">
<title>Node29&#45;&gt;Node14</title>
<path fill="none" stroke="#191970" d="M1433.0699,-289.7176C1550.7242,-300.7943 1790.4167,-323.9539 1917.3769,-336.4946"/>
<polygon fill="#191970" stroke="#191970" points="1917.143,-339.9885 1927.4389,-337.4897 1917.8319,-333.0225 1917.143,-339.9885"/>
</g>
<!-- Node29&#45;&gt;Node16 -->
<g id="edge55" class="edge">
<title>Node29&#45;&gt;Node16</title>
<path fill="none" stroke="#191970" d="M1388.3161,-268.3368C1403.9003,-258.2776 1424.6133,-244.6476 1442.5,-232 1461.1527,-218.8108 1462.0795,-208.9397 1483.5,-201 1723.5935,-112.0071 1809.4549,-224.508 2058.5,-165 2060.9902,-164.405 2063.526,-163.6501 2066.0403,-162.7951"/>
<polygon fill="#191970" stroke="#191970" points="2067.4322,-166.0093 2075.4885,-159.1283 2064.8996,-159.4835 2067.4322,-166.0093"/>
</g>
<!-- Node29&#45;&gt;Node17 -->
<g id="edge56" class="edge">
<title>Node29&#45;&gt;Node17</title>
<path fill="none" stroke="#191970" d="M1364.9511,-268.389C1365.6769,-244.0735 1367.104,-196.2644 1367.9099,-169.2698"/>
<polygon fill="#191970" stroke="#191970" points="1371.4133,-169.2042 1368.2133,-159.1042 1364.4164,-168.9952 1371.4133,-169.2042"/>
</g>
<!-- Node29&#45;&gt;Node18 -->
<g id="edge59" class="edge">
<title>Node29&#45;&gt;Node18</title>
<path fill="none" stroke="#191970" d="M1295.7665,-282.2529C1153.4532,-278.9572 837.0297,-267.6585 804.5,-232 795.2144,-221.8213 798.2187,-213.2626 804.5,-201 816.984,-176.6283 832.77,-181.6623 854.5,-165 871.7964,-151.7374 872.1618,-141.8371 892.5,-134 1038.0509,-77.9138 1439.0647,-119.9191 1593.5,-98 1602.3902,-96.7382 1611.843,-94.852 1620.7335,-92.8255"/>
<polygon fill="#191970" stroke="#191970" points="1621.5567,-96.2274 1630.4724,-90.5038 1619.9334,-89.4182 1621.5567,-96.2274"/>
</g>
<!-- Node29&#45;&gt;Node19 -->
<g id="edge67" class="edge">
<title>Node29&#45;&gt;Node19</title>
<path fill="none" stroke="#191970" d="M1421.0092,-268.3953C1449.5896,-259.6658 1484.3125,-247.3556 1513.5,-232 1534.0325,-221.1978 1533.5649,-208.5578 1555.5,-201 1691.5927,-154.1087 2706.7604,-172.6765 2850.5,-165 2902.4404,-162.2261 2961.9923,-157.2626 3001.691,-153.699"/>
<polygon fill="#191970" stroke="#191970" points="3002.195,-157.1678 3011.8384,-152.7798 3001.5634,-150.1963 3002.195,-157.1678"/>
</g>
<!-- Node29&#45;&gt;Node20 -->
<g id="edge92" class="edge">
<title>Node29&#45;&gt;Node20</title>
<path fill="none" stroke="#191970" d="M1433.0978,-279.3594C1630.5478,-267.4413 2199.0427,-233.1267 2401.6787,-220.8955"/>
<polygon fill="#191970" stroke="#191970" points="2402.1417,-224.374 2411.9127,-220.2778 2401.7199,-217.3868 2402.1417,-224.374"/>
</g>
<!-- Node29&#45;&gt;Node23 -->
<g id="edge58" class="edge">
<title>Node29&#45;&gt;Node23</title>
<path fill="none" stroke="#191970" d="M1377.0407,-268.3755C1395.3544,-246.7231 1429.0235,-208.6492 1445.5,-201 1542.7218,-155.8651 1819.9757,-176.9083 1926.5,-165 1951.8364,-162.1677 1980.4801,-157.8127 2001.2824,-154.4393"/>
<polygon fill="#191970" stroke="#191970" points="2002.0872,-157.8541 2011.3868,-152.778 2000.9515,-150.9468 2002.0872,-157.8541"/>
</g>
<!-- Node29&#45;&gt;Node26 -->
<g id="edge66" class="edge">
<title>Node29&#45;&gt;Node26</title>
<path fill="none" stroke="#191970" d="M1331.5944,-268.4761C1317.1206,-259.9924 1301.5946,-247.8713 1293.5,-232 1273.7111,-193.1994 1263.4582,-165.5369 1293.5,-134 1311.6356,-114.9619 2140.7012,-88.9146 2319.6748,-83.5073"/>
<polygon fill="#191970" stroke="#191970" points="2319.9268,-87.0014 2329.8169,-83.202 2319.7161,-80.0045 2319.9268,-87.0014"/>
</g>
<!-- Node29&#45;&gt;Node27 -->
<g id="edge75" class="edge">
<title>Node29&#45;&gt;Node27</title>
<path fill="none" stroke="#191970" d="M1367.7587,-268.3974C1372.7529,-249.2454 1384.2693,-216.8165 1407.5,-201 1470.4862,-158.1163 1672.8849,-174.4142 1748.5,-165 1760.4684,-163.5099 1773.1642,-161.8022 1785.4853,-160.0773"/>
<polygon fill="#191970" stroke="#191970" points="1786.3117,-163.4954 1795.7226,-158.6288 1785.3309,-156.5644 1786.3117,-163.4954"/>
</g>
<!-- Node30 -->
<g id="node31" class="node">
<title>Node30</title>
<g id="a_node31"><a xlink:title=" ">
<polygon fill="#ffffff" stroke="#bfbfbf" points="509.5,-207 509.5,-226 573.5,-226 573.5,-207 509.5,-207"/>
<text text-anchor="middle" x="541.5" y="-214" font-family="Helvetica,sans-Serif" font-size="10.00" fill="#000000">algorithm</text>
</a>
</g>
</g>
<!-- Node29&#45;&gt;Node30 -->
<g id="edge54" class="edge">
<title>Node29&#45;&gt;Node30</title>
<path fill="none" stroke="#191970" d="M1295.9892,-281.2317C1132.316,-275.4463 722.1861,-258.6852 587.5,-232 583.6121,-231.2297 579.6002,-230.2193 575.641,-229.083"/>
<polygon fill="#191970" stroke="#191970" points="576.598,-225.7151 566.0089,-226.0641 574.5045,-232.3947 576.598,-225.7151"/>
</g>
<!-- Node31 -->
<g id="node32" class="node">
<title>Node31</title>
<g id="a_node32"><a xlink:title=" ">
<polygon fill="#ffffff" stroke="#bfbfbf" points="901.5,-140 901.5,-159 945.5,-159 945.5,-140 901.5,-140"/>
<text text-anchor="middle" x="923.5" y="-147" font-family="Helvetica,sans-Serif" font-size="10.00" fill="#000000">limits</text>
</a>
</g>
</g>
<!-- Node29&#45;&gt;Node31 -->
<g id="edge57" class="edge">
<title>Node29&#45;&gt;Node31</title>
<path fill="none" stroke="#191970" d="M1295.9666,-279.4898C1204.3985,-273.1846 1047.8238,-258.8122 997.5,-232 969.4818,-217.0721 946.8397,-187.115 934.2829,-167.7036"/>
<polygon fill="#191970" stroke="#191970" points="937.2048,-165.7744 928.9494,-159.1336 931.2617,-169.4731 937.2048,-165.7744"/>
</g>
<!-- Node32 -->
<g id="node33" class="node">
<title>Node32</title>
<g id="a_node33"><a xlink:title=" ">
<polygon fill="#ffffff" stroke="#bfbfbf" points="3233.5,-207 3233.5,-226 3313.5,-226 3313.5,-207 3233.5,-207"/>
<text text-anchor="middle" x="3273.5" y="-214" font-family="Helvetica,sans-Serif" font-size="10.00" fill="#000000">Eigen/Sparse</text>
</a>
</g>
</g>
<!-- Node29&#45;&gt;Node32 -->
<g id="edge68" class="edge">
<title>Node29&#45;&gt;Node32</title>
<path fill="none" stroke="#191970" d="M1433.1138,-280.5825C1513.482,-277.2313 1650.6386,-271.7179 1768.5,-268 2091.9935,-257.7956 2905.2703,-285.3346 3224.5,-232 3229.0281,-231.2435 3233.7154,-230.1649 3238.3151,-228.9243"/>
<polygon fill="#191970" stroke="#191970" points="3239.5542,-232.2077 3248.1485,-226.0118 3237.5662,-225.4959 3239.5542,-232.2077"/>
</g>
<!-- Node33 -->
<g id="node34" class="node">
<title>Node33</title>
<g id="a_node34"><a xlink:href="cond_8h.html" target="_top" xlink:title=" ">
<polygon fill="#ffffff" stroke="#000000" points="1040,-207 1040,-226 1165,-226 1165,-207 1040,-207"/>
<text text-anchor="middle" x="1102.5" y="-214" font-family="Helvetica,sans-Serif" font-size="10.00" fill="#000000">drake/common/cond.h</text>
</a>
</g>
</g>
<!-- Node29&#45;&gt;Node33 -->
<g id="edge69" class="edge">
<title>Node29&#45;&gt;Node33</title>
<path fill="none" stroke="#191970" d="M1305.7021,-268.4639C1258.5326,-256.4015 1193.2004,-239.6944 1149.4756,-228.5128"/>
<polygon fill="#191970" stroke="#191970" points="1150.2253,-225.092 1139.6699,-226.0053 1148.491,-231.8738 1150.2253,-225.092"/>
</g>
<!-- Node35 -->
<g id="node36" class="node">
<title>Node35</title>
<g id="a_node36"><a xlink:href="dummy__value_8h.html" target="_top" xlink:title=" ">
<polygon fill="#ffffff" stroke="#000000" points="814,-201.5 814,-231.5 945,-231.5 945,-201.5 814,-201.5"/>
<text text-anchor="start" x="822" y="-219.5" font-family="Helvetica,sans-Serif" font-size="10.00" fill="#000000">drake/common/dummy</text>
<text text-anchor="middle" x="879.5" y="-208.5" font-family="Helvetica,sans-Serif" font-size="10.00" fill="#000000">_value.h</text>
</a>
</g>
</g>
<!-- Node29&#45;&gt;Node35 -->
<g id="edge76" class="edge">
<title>Node29&#45;&gt;Node35</title>
<path fill="none" stroke="#191970" d="M1295.8717,-276.1479C1215.1619,-267.1838 1077.2505,-250.8733 959.5,-232 958.2035,-231.7922 956.8959,-231.5791 955.5796,-231.3613"/>
<polygon fill="#191970" stroke="#191970" points="955.8083,-227.8496 945.361,-229.6118 954.6269,-234.7492 955.8083,-227.8496"/>
</g>
<!-- Node36 -->
<g id="node37" class="node">
<title>Node36</title>
<g id="a_node37"><a xlink:href="extract__double_8h.html" target="_top" xlink:title=" ">
<polygon fill="#ffffff" stroke="#000000" points="629.5,-201.5 629.5,-231.5 757.5,-231.5 757.5,-201.5 629.5,-201.5"/>
<text text-anchor="start" x="637.5" y="-219.5" font-family="Helvetica,sans-Serif" font-size="10.00" fill="#000000">drake/common/extract</text>
<text text-anchor="middle" x="693.5" y="-208.5" font-family="Helvetica,sans-Serif" font-size="10.00" fill="#000000">_double.h</text>
</a>
</g>
</g>
<!-- Node29&#45;&gt;Node36 -->
<g id="edge79" class="edge">
<title>Node29&#45;&gt;Node36</title>
<path fill="none" stroke="#191970" d="M1295.7385,-279.9799C1184.9507,-273.7585 960.2575,-258.8688 771.5,-232 770.2314,-231.8194 768.9522,-231.6316 767.665,-231.4372"/>
<polygon fill="#191970" stroke="#191970" points="768.1064,-227.9633 757.6777,-229.8321 766.9956,-234.8746 768.1064,-227.9633"/>
</g>
<!-- Node33&#45;&gt;Node11 -->
<g id="edge71" class="edge">
<title>Node33&#45;&gt;Node11</title>
<path fill="none" stroke="#191970" d="M1109.5295,-206.9344C1116.7907,-196.8181 1128.2019,-180.244 1136.5,-165 1159.2405,-123.2245 1141.7206,-95.897 1179.5,-67 1225.613,-31.7288 1396.5144,-20.3883 1478.7389,-16.9281"/>
<polygon fill="#191970" stroke="#191970" points="1478.9337,-20.4232 1488.7857,-16.5261 1478.6537,-13.4288 1478.9337,-20.4232"/>
</g>
<!-- Node33&#45;&gt;Node17 -->
<g id="edge70" class="edge">
<title>Node33&#45;&gt;Node17</title>
<path fill="none" stroke="#191970" d="M1140.3288,-206.9717C1189.4099,-194.6092 1274.8034,-173.1003 1326.0484,-160.1927"/>
<polygon fill="#191970" stroke="#191970" points="1326.979,-163.5677 1335.8212,-157.7311 1325.2692,-156.7797 1326.979,-163.5677"/>
</g>
<!-- Node34 -->
<g id="node35" class="node">
<title>Node34</title>
<g id="a_node35"><a xlink:href="double__overloads_8h.html" target="_top" xlink:title="Provides necessary operations on double to have it as a ScalarType in drake.">
<polygon fill="#ffffff" stroke="#000000" points="1001.5,-134.5 1001.5,-164.5 1127.5,-164.5 1127.5,-134.5 1001.5,-134.5"/>
<text text-anchor="start" x="1009.5" y="-152.5" font-family="Helvetica,sans-Serif" font-size="10.00" fill="#000000">drake/common/double</text>
<text text-anchor="middle" x="1064.5" y="-141.5" font-family="Helvetica,sans-Serif" font-size="10.00" fill="#000000">_overloads.h</text>
</a>
</g>
</g>
<!-- Node33&#45;&gt;Node34 -->
<g id="edge72" class="edge">
<title>Node33&#45;&gt;Node34</title>
<path fill="none" stroke="#191970" d="M1097.0555,-206.9005C1092.1004,-198.1638 1084.5786,-184.9018 1078.013,-173.3256"/>
<polygon fill="#191970" stroke="#191970" points="1080.9977,-171.4934 1073.0198,-164.5218 1074.9088,-174.9468 1080.9977,-171.4934"/>
</g>
<!-- Node35&#45;&gt;Node31 -->
<g id="edge77" class="edge">
<title>Node35&#45;&gt;Node31</title>
<path fill="none" stroke="#191970" d="M889.4843,-201.2967C896.0735,-191.2631 904.737,-178.0709 911.6717,-167.5113"/>
<polygon fill="#191970" stroke="#191970" points="914.6613,-169.3349 917.2251,-159.055 908.8102,-165.4924 914.6613,-169.3349"/>
</g>
<!-- Node37 -->
<g id="node38" class="node">
<title>Node37</title>
<g id="a_node38"><a xlink:title=" ">
<polygon fill="#ffffff" stroke="#bfbfbf" points="472,-140 472,-159 537,-159 537,-140 472,-140"/>
<text text-anchor="middle" x="504.5" y="-147" font-family="Helvetica,sans-Serif" font-size="10.00" fill="#000000">stdexcept</text>
</a>
</g>
</g>
<!-- Node36&#45;&gt;Node37 -->
<g id="edge80" class="edge">
<title>Node36&#45;&gt;Node37</title>
<path fill="none" stroke="#191970" d="M651.0847,-201.4639C617.9891,-189.7316 572.4988,-173.6054 541.0112,-162.4431"/>
<polygon fill="#191970" stroke="#191970" points="541.9082,-159.0477 531.3134,-159.0053 539.5693,-165.6454 541.9082,-159.0477"/>
</g>
<!-- Node38 -->
<g id="node39" class="node">
<title>Node38</title>
<g id="a_node39"><a xlink:href="nice__type__name_8h.html" target="_top" xlink:title=" ">
<polygon fill="#ffffff" stroke="#000000" points="705.5,-134.5 705.5,-164.5 845.5,-164.5 845.5,-134.5 705.5,-134.5"/>
<text text-anchor="start" x="713.5" y="-152.5" font-family="Helvetica,sans-Serif" font-size="10.00" fill="#000000">drake/common/nice_type</text>
<text text-anchor="middle" x="775.5" y="-141.5" font-family="Helvetica,sans-Serif" font-size="10.00" fill="#000000">_name.h</text>
</a>
</g>
</g>
<!-- Node36&#45;&gt;Node38 -->
<g id="edge81" class="edge">
<title>Node36&#45;&gt;Node38</title>
<path fill="none" stroke="#191970" d="M712.1071,-201.2967C723.0107,-192.3876 736.9622,-180.9882 748.9997,-171.1527"/>
<polygon fill="#191970" stroke="#191970" points="751.4373,-173.6808 756.9666,-164.6432 747.0082,-168.2601 751.4373,-173.6808"/>
</g>
<!-- Node38&#45;&gt;Node3 -->
<g id="edge83" class="edge">
<title>Node38&#45;&gt;Node3</title>
<path fill="none" stroke="#191970" d="M845.5915,-138.9655C861.0116,-136.9972 877.2813,-135.188 892.5,-134 1554.6784,-82.3106 1722.8384,-124.5573 2386.5,-98 2475.0142,-94.458 2579.317,-88.0052 2631.0366,-84.6521"/>
<polygon fill="#191970" stroke="#191970" points="2631.4994,-88.1295 2641.2503,-83.9858 2631.0437,-81.1443 2631.4994,-88.1295"/>
</g>
<!-- Node38&#45;&gt;Node7 -->
<g id="edge85" class="edge">
<title>Node38&#45;&gt;Node7</title>
<path fill="none" stroke="#191970" d="M794.1069,-134.389C825.5179,-108.8794 888.7685,-57.5122 920.8617,-31.4487"/>
<polygon fill="#191970" stroke="#191970" points="923.1178,-34.1253 928.674,-25.1042 918.7049,-28.6914 923.1178,-34.1253"/>
</g>
<!-- Node38&#45;&gt;Node18 -->
<g id="edge82" class="edge">
<title>Node38&#45;&gt;Node18</title>
<path fill="none" stroke="#191970" d="M845.5208,-135.8571C850.2414,-135.1605 854.9336,-134.5309 859.5,-134 1183.9292,-96.2823 1270.0738,-143.5243 1593.5,-98 1602.3916,-96.7484 1611.845,-94.8663 1620.7357,-92.8406"/>
<polygon fill="#191970" stroke="#191970" points="1621.559,-96.2425 1630.4745,-90.5185 1619.9354,-89.4334 1621.559,-96.2425"/>
</g>
<!-- Node38&#45;&gt;Node26 -->
<g id="edge86" class="edge">
<title>Node38&#45;&gt;Node26</title>
<path fill="none" stroke="#191970" d="M845.6018,-139.0933C861.0213,-137.1174 877.2881,-135.2727 892.5,-134 1183.0805,-109.6877 2129.0802,-87.5288 2319.8077,-83.2449"/>
<polygon fill="#191970" stroke="#191970" points="2319.8865,-86.7441 2329.8057,-83.0212 2319.7299,-79.7459 2319.8865,-86.7441"/>
</g>
<!-- Node39 -->
<g id="node40" class="node">
<title>Node39</title>
<g id="a_node40"><a xlink:title=" ">
<polygon fill="#ffffff" stroke="#bfbfbf" points="747,-73 747,-92 804,-92 804,-73 747,-73"/>
<text text-anchor="middle" x="775.5" y="-80" font-family="Helvetica,sans-Serif" font-size="10.00" fill="#000000">typeinfo</text>
</a>
</g>
</g>
<!-- Node38&#45;&gt;Node39 -->
<g id="edge84" class="edge">
<title>Node38&#45;&gt;Node39</title>
<path fill="none" stroke="#191970" d="M775.5,-134.2967C775.5,-124.7699 775.5,-112.3954 775.5,-102.1306"/>
<polygon fill="#191970" stroke="#191970" points="779.0001,-102.0549 775.5,-92.055 772.0001,-102.055 779.0001,-102.0549"/>
</g>
<!-- Node40 -->
<g id="node41" class="node">
<title>Node40</title>
<g id="a_node41"><a xlink:href="never__destroyed_8h.html" target="_top" xlink:title=" ">
<polygon fill="#ffffff" stroke="#000000" points="1006,-67.5 1006,-97.5 1127,-97.5 1127,-67.5 1006,-67.5"/>
<text text-anchor="start" x="1014" y="-85.5" font-family="Helvetica,sans-Serif" font-size="10.00" fill="#000000">drake/common/never</text>
<text text-anchor="middle" x="1066.5" y="-74.5" font-family="Helvetica,sans-Serif" font-size="10.00" fill="#000000">_destroyed.h</text>
</a>
</g>
</g>
<!-- Node38&#45;&gt;Node40 -->
<g id="edge87" class="edge">
<title>Node38&#45;&gt;Node40</title>
<path fill="none" stroke="#191970" d="M840.8061,-134.4639C886.9569,-123.8381 948.7617,-109.6081 996.026,-98.726"/>
<polygon fill="#191970" stroke="#191970" points="996.9204,-102.1117 1005.8801,-96.4572 995.3497,-95.2902 996.9204,-102.1117"/>
</g>
<!-- Node40&#45;&gt;Node5 -->
<g id="edge91" class="edge">
<title>Node40&#45;&gt;Node5</title>
<path fill="none" stroke="#191970" d="M1127.1397,-78.147C1176.282,-74.7363 1247.3284,-70.0698 1309.5,-67 1848.1931,-40.4015 2498.45,-22.6729 2710.7549,-17.254"/>
<polygon fill="#191970" stroke="#191970" points="2710.9232,-20.751 2720.831,-16.9977 2710.7452,-13.7532 2710.9232,-20.751"/>
</g>
<!-- Node40&#45;&gt;Node7 -->
<g id="edge90" class="edge">
<title>Node40&#45;&gt;Node7</title>
<path fill="none" stroke="#191970" d="M1038.2231,-67.4639C1017.082,-56.2222 988.3542,-40.9463 967.5216,-29.8686"/>
<polygon fill="#191970" stroke="#191970" points="969.0337,-26.7087 958.5611,-25.1039 965.7472,-32.8892 969.0337,-26.7087"/>
</g>
<!-- Node40&#45;&gt;Node11 -->
<g id="edge89" class="edge">
<title>Node40&#45;&gt;Node11</title>
<path fill="none" stroke="#191970" d="M1127.0136,-69.6161C1131.907,-68.6895 1136.7816,-67.8046 1141.5,-67 1263.0058,-46.2799 1407.4179,-28.7156 1478.8735,-20.4922"/>
<polygon fill="#191970" stroke="#191970" points="1479.3382,-23.9619 1488.8753,-19.3474 1478.5422,-17.0073 1479.3382,-23.9619"/>
</g>
<!-- Node41 -->
<g id="node42" class="node">
<title>Node41</title>
<g id="a_node42"><a xlink:title=" ">
<polygon fill="#ffffff" stroke="#bfbfbf" points="1048,-6 1048,-25 1085,-25 1085,-6 1048,-6"/>
<text text-anchor="middle" x="1066.5" y="-13" font-family="Helvetica,sans-Serif" font-size="10.00" fill="#000000">new</text>
</a>
</g>
</g>
<!-- Node40&#45;&gt;Node41 -->
<g id="edge88" class="edge">
<title>Node40&#45;&gt;Node41</title>
<path fill="none" stroke="#191970" d="M1066.5,-67.2967C1066.5,-57.7699 1066.5,-45.3954 1066.5,-35.1306"/>
<polygon fill="#191970" stroke="#191970" points="1070.0001,-35.0549 1066.5,-25.055 1063.0001,-35.055 1070.0001,-35.0549"/>
</g>
<!-- Node42&#45;&gt;Node7 -->
<g id="edge97" class="edge">
<title>Node42&#45;&gt;Node7</title>
<path fill="none" stroke="#191970" d="M201.5519,-201.2365C217.041,-169.701 257.3459,-97.7423 315.5,-67 368.1145,-39.1861 786.787,-21.3152 907.8315,-16.6926"/>
<polygon fill="#191970" stroke="#191970" points="908.0988,-20.1851 917.9597,-16.3104 907.8348,-13.1901 908.0988,-20.1851"/>
</g>
<!-- Node42&#45;&gt;Node10 -->
<g id="edge98" class="edge">
<title>Node42&#45;&gt;Node10</title>
<path fill="none" stroke="#191970" d="M263.232,-208.0487C309.0037,-200.6895 369.6629,-187.5449 419.5,-165 440.9656,-155.2896 440.2621,-141.7806 462.5,-134 485.8966,-125.814 1218.7165,-95.0385 1452.546,-85.4029"/>
<polygon fill="#191970" stroke="#191970" points="1452.7921,-88.8958 1462.6397,-84.9873 1452.5041,-81.9018 1452.7921,-88.8958"/>
</g>
<!-- Node42&#45;&gt;Node14 -->
<g id="edge99" class="edge">
<title>Node42&#45;&gt;Node14</title>
<path fill="none" stroke="#191970" d="M204.5079,-231.6109C213.283,-251.0916 226.5533,-284.215 251.5,-299 287.8217,-320.5265 1574.6326,-339.2052 1917.373,-343.878"/>
<polygon fill="#191970" stroke="#191970" points="1917.4308,-347.379 1927.4775,-344.0154 1917.5261,-340.3797 1917.4308,-347.379"/>
</g>
<!-- Node42&#45;&gt;Node37 -->
<g id="edge96" class="edge">
<title>Node42&#45;&gt;Node37</title>
<path fill="none" stroke="#191970" d="M263.2074,-203.5078C334.7294,-189.9093 438.9048,-169.8664 457.5,-165 460.843,-164.1251 464.2957,-163.1426 467.741,-162.1078"/>
<polygon fill="#191970" stroke="#191970" points="468.8399,-165.4313 477.3342,-159.0991 466.7451,-158.7521 468.8399,-165.4313"/>
</g>
<!-- Node43&#45;&gt;Node19 -->
<g id="edge101" class="edge">
<title>Node43&#45;&gt;Node19</title>
<path fill="none" stroke="#191970" d="M3936.3969,-268.343C3923.7169,-248.8111 3898.7375,-215.6312 3867.5,-201 3797.1051,-168.0281 3252.622,-153.8896 3091.3603,-150.3985"/>
<polygon fill="#191970" stroke="#191970" points="3091.374,-146.8981 3081.3016,-150.1838 3091.2246,-153.8965 3091.374,-146.8981"/>
</g>
<!-- Node44&#45;&gt;Node2 -->
<g id="edge105" class="edge">
<title>Node44&#45;&gt;Node2</title>
<path fill="none" stroke="#191970" d="M2086.7026,-269.3662C2083.9353,-268.888 2081.1931,-268.4303 2078.5,-268 1944.585,-246.6017 1907.477,-263.1958 1775.5,-232 1772.2565,-231.2333 1768.9198,-230.301 1765.6079,-229.278"/>
<polygon fill="#191970" stroke="#191970" points="1766.4581,-225.8717 1755.8642,-226.0121 1764.2335,-232.5088 1766.4581,-225.8717"/>
</g>
<!-- Node44&#45;&gt;Node5 -->
<g id="edge108" class="edge">
<title>Node44&#45;&gt;Node5</title>
<path fill="none" stroke="#191970" d="M2161.9022,-268.336C2180.0147,-227.5491 2235.9232,-115.3274 2321.5,-67 2386.3862,-30.3571 2598.6817,-19.7774 2710.7495,-16.7292"/>
<polygon fill="#191970" stroke="#191970" points="2711.0387,-20.223 2720.9447,-16.4652 2710.8574,-13.2254 2711.0387,-20.223"/>
</g>
<!-- Node44&#45;&gt;Node7 -->
<g id="edge106" class="edge">
<title>Node44&#45;&gt;Node7</title>
<path fill="none" stroke="#191970" d="M2122.0415,-268.4443C2081.2396,-250.5186 2009.8674,-220.554 1946.5,-201 1877.266,-179.6357 1852.8323,-196.3284 1787.5,-165 1767.5347,-155.4261 1768.9223,-142.5557 1748.5,-134 1627.0818,-83.1334 1584.8455,-116.4344 1454.5,-98 1272.0813,-72.201 1054.2676,-35.1784 973.0922,-21.1646"/>
<polygon fill="#191970" stroke="#191970" points="973.4505,-17.6746 963.0003,-19.4192 972.2576,-24.5723 973.4505,-17.6746"/>
</g>
<!-- Node44&#45;&gt;Node14 -->
<g id="edge110" class="edge">
<title>Node44&#45;&gt;Node14</title>
<path fill="none" stroke="#191970" d="M2123.4798,-298.5446C2099.0132,-308.7338 2065.3259,-322.0678 2039.3318,-331.8356"/>
<polygon fill="#191970" stroke="#191970" points="2037.9321,-328.6219 2029.7813,-335.3906 2040.374,-335.1822 2037.9321,-328.6219"/>
</g>
<!-- Node44&#45;&gt;Node16 -->
<g id="edge103" class="edge">
<title>Node44&#45;&gt;Node16</title>
<path fill="none" stroke="#191970" d="M2152.7055,-268.3346C2149.212,-251.343 2142.3384,-223.2636 2131.5,-201 2125.5969,-188.8742 2116.8711,-176.5608 2109.3757,-167.016"/>
<polygon fill="#191970" stroke="#191970" points="2111.9769,-164.6671 2102.9543,-159.1134 2106.5443,-169.0815 2111.9769,-164.6671"/>
</g>
<!-- Node44&#45;&gt;Node19 -->
<g id="edge107" class="edge">
<title>Node44&#45;&gt;Node19</title>
<path fill="none" stroke="#191970" d="M2224.3171,-269.2751C2227.4147,-268.8083 2230.4864,-268.3796 2233.5,-268 2379.4536,-249.6178 2759.2525,-289.8659 2894.5,-232 2913.0008,-224.0844 2910.6821,-212.0498 2927.5,-201 2952.3036,-184.7035 2983.1201,-171.5336 3007.1783,-162.592"/>
<polygon fill="#191970" stroke="#191970" points="3008.4949,-165.8377 3016.704,-159.1398 3006.1098,-159.2565 3008.4949,-165.8377"/>
</g>
<!-- Node44&#45;&gt;Node20 -->
<g id="edge109" class="edge">
<title>Node44&#45;&gt;Node20</title>
<path fill="none" stroke="#191970" d="M2224.3255,-269.0445C2282.4848,-256.8292 2364.7297,-239.5552 2418.8153,-228.1955"/>
<polygon fill="#191970" stroke="#191970" points="2419.8406,-231.5566 2428.9077,-226.0758 2418.4018,-224.7061 2419.8406,-231.5566"/>
</g>
<!-- Node44&#45;&gt;Node23 -->
<g id="edge104" class="edge">
<title>Node44&#45;&gt;Node23</title>
<path fill="none" stroke="#191970" d="M2141.4039,-268.389C2117.9115,-243.2051 2070.91,-192.8195 2046.3201,-166.4592"/>
<polygon fill="#191970" stroke="#191970" points="2048.8397,-164.0291 2039.4591,-159.1042 2043.721,-168.804 2048.8397,-164.0291"/>
</g>
<!-- Node45&#45;&gt;Node4 -->
<g id="edge116" class="edge">
<title>Node45&#45;&gt;Node4</title>
<path fill="none" stroke="#191970" d="M2534.1451,-280.0965C2679.5975,-272.7261 3029.5155,-254.1545 3322.5,-232 3360.2324,-229.1468 3402.6151,-225.284 3435.6231,-222.1284"/>
<polygon fill="#191970" stroke="#191970" points="3436.374,-225.5724 3445.9928,-221.1308 3435.7036,-218.6045 3436.374,-225.5724"/>
</g>
<!-- Node45&#45;&gt;Node10 -->
<g id="edge118" class="edge">
<title>Node45&#45;&gt;Node10</title>
<path fill="none" stroke="#191970" d="M2439.8539,-268.4562C2408.2101,-250.4036 2352.3459,-220.1753 2301.5,-201 2242.1914,-178.6332 2218.9839,-195.6483 2163.5,-165 2145.8856,-155.2701 2148.9361,-142.0652 2130.5,-134 2026.6124,-88.5524 1734.161,-110.8692 1621.5,-98 1612.5766,-96.9807 1603.2228,-95.7336 1593.9841,-94.3938"/>
<polygon fill="#191970" stroke="#191970" points="1594.4368,-90.9227 1584.03,-92.91 1593.4047,-97.8462 1594.4368,-90.9227"/>
</g>
<!-- Node45&#45;&gt;Node14 -->
<g id="edge120" class="edge">
<title>Node45&#45;&gt;Node14</title>
<path fill="none" stroke="#191970" d="M2400.3446,-298.5387C2399.3912,-298.6956 2398.4426,-298.8495 2397.5,-299 2289.9029,-316.1791 2164.5735,-329.9103 2083.9028,-337.7569"/>
<polygon fill="#191970" stroke="#191970" points="2083.4196,-334.2872 2073.8019,-338.7312 2084.0918,-341.2548 2083.4196,-334.2872"/>
</g>
<!-- Node45&#45;&gt;Node16 -->
<g id="edge112" class="edge">
<title>Node45&#45;&gt;Node16</title>
<path fill="none" stroke="#191970" d="M2426.7363,-268.394C2382.9288,-251.4557 2309.3935,-223.424 2245.5,-201 2196.962,-183.9652 2184.0152,-182.0996 2135.5,-165 2133.2594,-164.2103 2130.9556,-163.3827 2128.6373,-162.5382"/>
<polygon fill="#191970" stroke="#191970" points="2129.7432,-159.2155 2119.15,-159.025 2127.3123,-165.7799 2129.7432,-159.2155"/>
</g>
<!-- Node45&#45;&gt;Node17 -->
<g id="edge113" class="edge">
<title>Node45&#45;&gt;Node17</title>
<path fill="none" stroke="#191970" d="M2396.7308,-269.1726C2393.9557,-268.748 2391.2041,-268.3544 2388.5,-268 2260.4581,-251.2189 1928.7506,-279.076 1808.5,-232 1788.2039,-224.0545 1790.637,-209.3405 1770.5,-201 1623.9835,-140.3144 1570.6093,-198.0294 1415.5,-165 1411.6396,-164.178 1407.6513,-163.1518 1403.7052,-162.0213"/>
<polygon fill="#191970" stroke="#191970" points="1404.6676,-158.6556 1394.0803,-159.053 1402.6047,-165.3447 1404.6676,-158.6556"/>
</g>
<!-- Node45&#45;&gt;Node19 -->
<g id="edge117" class="edge">
<title>Node45&#45;&gt;Node19</title>
<path fill="none" stroke="#191970" d="M2534.023,-280.5726C2670.2608,-274.2303 2965.37,-257.6894 3003.5,-232 3025.0997,-217.4476 3036.5492,-188.4957 3042.0656,-169.0581"/>
<polygon fill="#191970" stroke="#191970" points="3045.5148,-169.6973 3044.6035,-159.1417 3038.7333,-167.9617 3045.5148,-169.6973"/>
</g>
<!-- Node45&#45;&gt;Node20 -->
<g id="edge119" class="edge">
<title>Node45&#45;&gt;Node20</title>
<path fill="none" stroke="#191970" d="M2467.5422,-268.2967C2468.822,-258.7699 2470.4842,-246.3954 2471.863,-236.1306"/>
<polygon fill="#191970" stroke="#191970" points="2475.3539,-236.4319 2473.2165,-226.055 2468.4162,-235.5 2475.3539,-236.4319"/>
</g>
<!-- Node45&#45;&gt;Node23 -->
<g id="edge114" class="edge">
<title>Node45&#45;&gt;Node23</title>
<path fill="none" stroke="#191970" d="M2396.5871,-269.5154C2352.9521,-260.133 2295.5254,-246.8111 2245.5,-232 2161.2487,-207.0557 2139.7906,-200.6919 2059.5,-165 2058.5089,-164.5594 2057.5051,-164.0988 2056.496,-163.6237"/>
<polygon fill="#191970" stroke="#191970" points="2057.9779,-160.4514 2047.4698,-159.099 2054.841,-166.7092 2057.9779,-160.4514"/>
</g>
<!-- Node45&#45;&gt;Node25 -->
<g id="edge115" class="edge">
<title>Node45&#45;&gt;Node25</title>
<path fill="none" stroke="#191970" d="M2534.1317,-275.3477C2580.6294,-268.0806 2642.6287,-254.925 2693.5,-232 2714.9794,-222.3203 2716.7238,-213.8048 2736.5,-201 2757.6826,-187.2846 2782.6086,-173.0133 2800.6852,-162.982"/>
<polygon fill="#191970" stroke="#191970" points="2802.3884,-166.0397 2809.4576,-158.1481 2799.0101,-159.9088 2802.3884,-166.0397"/>
</g>
<!-- Node46&#45;&gt;Node2 -->
<g id="edge125" class="edge">
<title>Node46&#45;&gt;Node2</title>
<path fill="none" stroke="#191970" d="M550.0129,-281.9153C767.4212,-276.663 1440.1616,-258.6337 1656.5,-232 1668.6978,-230.4983 1681.8578,-228.0973 1693.7436,-225.6292"/>
<polygon fill="#191970" stroke="#191970" points="1694.7648,-228.9896 1703.8044,-223.4638 1693.2918,-222.1463 1694.7648,-228.9896"/>
</g>
<!-- Node46&#45;&gt;Node5 -->
<g id="edge128" class="edge">
<title>Node46&#45;&gt;Node5</title>
<path fill="none" stroke="#191970" d="M456.3775,-268.2824C432.2269,-251.7186 401.8055,-224.4582 419.5,-201 454.5724,-154.5035 491.309,-186.3387 545.5,-165 634.6443,-129.8978 644.6382,-90.57 737.5,-67 834.9492,-42.2657 2361.1463,-20.9711 2710.5987,-16.4039"/>
<polygon fill="#191970" stroke="#191970" points="2710.8815,-19.9006 2720.835,-16.2705 2710.7902,-12.9012 2710.8815,-19.9006"/>
</g>
<!-- Node46&#45;&gt;Node7 -->
<g id="edge126" class="edge">
<title>Node46&#45;&gt;Node7</title>
<path fill="none" stroke="#191970" d="M412.7806,-271.8814C390.0494,-264.4131 367.1101,-252.1463 353.5,-232 345.7873,-220.5833 347.6907,-213.4932 353.5,-201 392.4665,-117.2011 427.7443,-103.8391 512.5,-67 583.6613,-36.0698 820.3339,-21.4581 907.7153,-17.0216"/>
<polygon fill="#191970" stroke="#191970" points="908.0328,-20.5103 917.8471,-16.5192 907.686,-13.5189 908.0328,-20.5103"/>
</g>
<!-- Node46&#45;&gt;Node14 -->
<g id="edge129" class="edge">
<title>Node46&#45;&gt;Node14</title>
<path fill="none" stroke="#191970" d="M550.063,-286.1561C797.9518,-295.9932 1646.8559,-330.3577 1917.1614,-341.4902"/>
<polygon fill="#191970" stroke="#191970" points="1917.1634,-344.9932 1927.2991,-341.9081 1917.4517,-337.9991 1917.1634,-344.9932"/>
</g>
<!-- Node46&#45;&gt;Node17 -->
<g id="edge123" class="edge">
<title>Node46&#45;&gt;Node17</title>
<path fill="none" stroke="#191970" d="M460.3447,-268.2653C438.4233,-250.7044 409.9055,-221.6176 429.5,-201 456.5932,-172.4921 1097.2393,-167.3109 1136.5,-165 1202.6246,-161.1078 1279.2979,-155.8371 1325.8297,-152.5541"/>
<polygon fill="#191970" stroke="#191970" points="1326.1245,-156.0421 1335.8525,-151.8448 1325.6303,-149.0595 1326.1245,-156.0421"/>
</g>
<!-- Node46&#45;&gt;Node19 -->
<g id="edge127" class="edge">
<title>Node46&#45;&gt;Node19</title>
<path fill="none" stroke="#191970" d="M479.9779,-268.478C478.9819,-249.4132 480.6122,-217.0785 500.5,-201 551.2691,-159.9551 2785.287,-168.075 2850.5,-165 2902.4566,-162.5501 2962.0055,-157.5249 3001.699,-153.8583"/>
<polygon fill="#191970" stroke="#191970" points="3002.2139,-157.3255 3011.845,-152.9107 3001.5628,-150.3558 3002.2139,-157.3255"/>
</g>
<!-- Node46&#45;&gt;Node23 -->
<g id="edge124" class="edge">
<title>Node46&#45;&gt;Node23</title>
<path fill="none" stroke="#191970" d="M472.331,-268.4587C462.3685,-249.9792 450.0504,-218.8855 467.5,-201 495.8104,-171.9824 1886.1108,-168.4947 1926.5,-165 1951.8993,-162.8023 1980.5373,-158.3896 2001.3214,-154.8326"/>
<polygon fill="#191970" stroke="#191970" points="2002.1682,-158.2377 2011.4155,-153.0668 2000.9619,-151.3424 2002.1682,-158.2377"/>
</g>
<!-- Node46&#45;&gt;Node30 -->
<g id="edge122" class="edge">
<title>Node46&#45;&gt;Node30</title>
<path fill="none" stroke="#191970" d="M495.1149,-268.2967C504.3724,-257.9591 516.6327,-244.2684 526.2235,-233.5588"/>
<polygon fill="#191970" stroke="#191970" points="528.8794,-235.8394 532.9433,-226.055 523.6647,-231.1696 528.8794,-235.8394"/>
</g>
<!-- Node47&#45;&gt;Node2 -->
<g id="edge131" class="edge">
<title>Node47&#45;&gt;Node2</title>
<path fill="none" stroke="#191970" d="M3153.8757,-276.9814C3116.7841,-273.8224 3070.7415,-270.2373 3029.5,-268 2487.3946,-238.591 2347.7958,-294.4752 1808.5,-232 1796.2918,-230.5857 1783.1288,-228.2098 1771.2435,-225.7377"/>
<polygon fill="#191970" stroke="#191970" points="1771.6977,-222.2551 1761.1838,-223.5623 1770.218,-229.097 1771.6977,-222.2551"/>
</g>
<!-- Node47&#45;&gt;Node5 -->
<g id="edge135" class="edge">
<title>Node47&#45;&gt;Node5</title>
<path fill="none" stroke="#191970" d="M3297.1851,-281.4525C3430.2952,-276.9069 3704.8029,-263.7535 3733.5,-232 3742.738,-221.7781 3740.7608,-212.7093 3733.5,-201 3640.1264,-50.4183 3056.9256,-22.0533 2852.3322,-16.7266"/>
<polygon fill="#191970" stroke="#191970" points="2852.3826,-13.2269 2842.2983,-16.476 2852.2078,-20.2247 2852.3826,-13.2269"/>
</g>
<!-- Node47&#45;&gt;Node7 -->
<g id="edge132" class="edge">
<title>Node47&#45;&gt;Node7</title>
<path fill="none" stroke="#191970" d="M3297.3692,-278.0938C3395.9796,-269.9353 3563.1829,-253.1575 3581.5,-232 3603.8964,-206.1306 3565.5379,-142.7313 3554.5,-134 3399.0154,-11.0071 3311.0491,-83.6454 3113.5,-67 2194.3959,10.4434 1957.3641,-111.2414 1038.5,-31 1016.637,-29.0908 992.2623,-25.2428 973.2912,-21.8587"/>
<polygon fill="#191970" stroke="#191970" points="973.8245,-18.3982 963.3579,-20.0416 972.5648,-25.284 973.8245,-18.3982"/>
</g>
<!-- Node47&#45;&gt;Node14 -->
<g id="edge137" class="edge">
<title>Node47&#45;&gt;Node14</title>
<path fill="none" stroke="#191970" d="M3153.6865,-290.4545C3118.9424,-293.3771 3076.6571,-296.6391 3038.5,-299 2684.1312,-320.9264 2260.4889,-336.5112 2083.9807,-342.4022"/>
<polygon fill="#191970" stroke="#191970" points="2083.6074,-338.9126 2073.7291,-342.7427 2083.8398,-345.9088 2083.6074,-338.9126"/>
</g>
<!-- Node47&#45;&gt;Node19 -->
<g id="edge134" class="edge">
<title>Node47&#45;&gt;Node19</title>
<path fill="none" stroke="#191970" d="M3266.7363,-268.444C3302.3712,-253.1566 3344.8898,-227.9541 3322.5,-201 3293.6526,-166.2719 3162.0416,-154.8371 3091.49,-151.169"/>
<polygon fill="#191970" stroke="#191970" points="3091.2884,-147.6551 3081.1296,-150.6634 3090.9471,-154.6468 3091.2884,-147.6551"/>
</g>
<!-- Node47&#45;&gt;Node20 -->
<g id="edge136" class="edge">
<title>Node47&#45;&gt;Node20</title>
<path fill="none" stroke="#191970" d="M3153.8312,-277.1061C3010.7045,-264.3372 2690.9067,-235.8066 2547.0545,-222.9729"/>
<polygon fill="#191970" stroke="#191970" points="2547.2776,-219.479 2537.0061,-222.0764 2546.6555,-226.4513 2547.2776,-219.479"/>
</g>
<!-- Node47&#45;&gt;Node26 -->
<g id="edge133" class="edge">
<title>Node47&#45;&gt;Node26</title>
<path fill="none" stroke="#191970" d="M3297.2036,-276.9714C3387.3581,-268.0257 3532.3753,-250.8993 3548.5,-232 3557.4425,-221.5187 3555.41,-212.9197 3548.5,-201 3518.4471,-149.1585 3489.0466,-150.7065 3431.5,-134 3260.8118,-84.447 2810.0112,-106.9296 2632.5,-98 2543.8835,-93.5422 2439.4785,-87.5423 2387.0786,-84.4793"/>
<polygon fill="#191970" stroke="#191970" points="2387.1989,-80.9804 2377.0113,-83.8895 2386.7894,-87.9685 2387.1989,-80.9804"/>
</g>
<!-- Node48&#45;&gt;Node2 -->
<g id="edge139" class="edge">
<title>Node48&#45;&gt;Node2</title>
<path fill="none" stroke="#191970" d="M1820.1406,-268.4639C1801.4369,-257.3741 1776.1119,-242.3584 1757.495,-231.32"/>
<polygon fill="#191970" stroke="#191970" points="1759.0844,-228.1935 1748.6977,-226.1039 1755.5143,-234.2147 1759.0844,-228.1935"/>
</g>
<!-- Node48&#45;&gt;Node14 -->
<g id="edge140" class="edge">
<title>Node48&#45;&gt;Node14</title>
<path fill="none" stroke="#191970" d="M1889.3143,-298.5446C1915.8523,-308.5991 1948.8475,-321.7159 1972.0478,-331.4465"/>
<polygon fill="#191970" stroke="#191970" points="1970.771,-334.7067 1981.3438,-335.3906 1973.5051,-328.2627 1970.771,-334.7067"/>
</g>
<!-- Node49&#45;&gt;Node2 -->
<g id="edge144" class="edge">
<title>Node49&#45;&gt;Node2</title>
<path fill="none" stroke="#191970" d="M2882.8998,-280.7054C2644.2565,-270.9451 1861.9114,-238.6088 1808.5,-232 1796.3031,-230.4908 1783.1434,-228.0877 1771.2576,-225.6199"/>
<polygon fill="#191970" stroke="#191970" points="1771.7091,-222.137 1761.1966,-223.4553 1770.2367,-228.9804 1771.7091,-222.137"/>
</g>
<!-- Node49&#45;&gt;Node3 -->
<g id="edge146" class="edge">
<title>Node49&#45;&gt;Node3</title>
<path fill="none" stroke="#191970" d="M3020.268,-277.8675C3176.7759,-265.0098 3546.283,-234.4165 3548.5,-232 3557.8143,-221.8476 3555.41,-212.9197 3548.5,-201 3518.4471,-149.1585 3488.8599,-151.3365 3431.5,-134 3290.5804,-91.4083 2823.346,-83.9827 2695.871,-82.7402"/>
<polygon fill="#191970" stroke="#191970" points="2695.6389,-79.2381 2685.6073,-82.6466 2695.575,-86.2378 2695.6389,-79.2381"/>
</g>
<!-- Node49&#45;&gt;Node5 -->
<g id="edge153" class="edge">
<title>Node49&#45;&gt;Node5</title>
<path fill="none" stroke="#191970" d="M3020.1721,-277.853C3057.2765,-274.8423 3103.8891,-271.1251 3145.5,-268 3259.9256,-259.4063 3729.7472,-290.1482 3657.5,-201 3555.8043,-75.5143 3042.0118,-31.5229 2852.1485,-19.4061"/>
<polygon fill="#191970" stroke="#191970" points="2852.2019,-15.9026 2842.0023,-18.7693 2851.7634,-22.8889 2852.2019,-15.9026"/>
</g>
<!-- Node49&#45;&gt;Node6 -->
<g id="edge154" class="edge">
<title>Node49&#45;&gt;Node6</title>
<path fill="none" stroke="#191970" d="M2882.6827,-279.2069C2689.3771,-267.1478 2142.8824,-233.0555 1947.7926,-220.8851"/>
<polygon fill="#191970" stroke="#191970" points="1947.8607,-217.3826 1937.6622,-220.2531 1947.4248,-224.3691 1947.8607,-217.3826"/>
</g>
<!-- Node49&#45;&gt;Node7 -->
<g id="edge147" class="edge">
<title>Node49&#45;&gt;Node7</title>
<path fill="none" stroke="#191970" d="M3020.144,-278.0424C3179.8863,-265.3031 3563.2075,-234.4929 3565.5,-232 3574.8263,-221.8587 3571.2105,-213.5386 3565.5,-201 3426.5344,104.1262 3392.9278,-104.0231 2694.5,-67 1959.3582,-28.0308 1771.7406,-96.6528 1038.5,-31 1016.6412,-29.0428 992.2666,-25.1946 973.2944,-21.8224"/>
<polygon fill="#191970" stroke="#191970" points="973.8258,-18.3617 963.3604,-20.0129 972.5713,-25.2483 973.8258,-18.3617"/>
</g>
<!-- Node49&#45;&gt;Node10 -->
<g id="edge149" class="edge">
<title>Node49&#45;&gt;Node10</title>
<path fill="none" stroke="#191970" d="M3020.0318,-278.7984C3121.7763,-271.1122 3302.9632,-254.4361 3322.5,-232 3331.5478,-221.6094 3330.7813,-212.0113 3322.5,-201 3257.9914,-115.2256 3196.574,-150.3379 3090.5,-134 2767.7633,-84.2909 1946.7007,-127.5712 1621.5,-98 1612.713,-97.201 1603.5188,-96.1012 1594.4323,-94.8529"/>
<polygon fill="#191970" stroke="#191970" points="1594.6428,-91.3473 1584.2464,-93.3886 1593.6466,-98.276 1594.6428,-91.3473"/>
</g>
<!-- Node49&#45;&gt;Node12 -->
<g id="edge156" class="edge">
<title>Node49&#45;&gt;Node12</title>
<path fill="none" stroke="#191970" d="M2920.9789,-268.4639C2897.9543,-257.1209 2866.5928,-241.6707 2844.0606,-230.5703"/>
<polygon fill="#191970" stroke="#191970" points="2845.5118,-227.3836 2834.9945,-226.1039 2842.4183,-233.6629 2845.5118,-227.3836"/>
</g>
<!-- Node49&#45;&gt;Node14 -->
<g id="edge157" class="edge">
<title>Node49&#45;&gt;Node14</title>
<path fill="none" stroke="#191970" d="M2882.9136,-288.1807C2712.2907,-299.4662 2269.4294,-328.1089 2084.0102,-339.8548"/>
<polygon fill="#191970" stroke="#191970" points="2083.5324,-336.378 2073.7735,-340.5027 2083.9746,-343.364 2083.5324,-336.378"/>
</g>
<!-- Node49&#45;&gt;Node17 -->
<g id="edge142" class="edge">
<title>Node49&#45;&gt;Node17</title>
<path fill="none" stroke="#191970" d="M2882.8231,-277.0521C2700.0601,-259.9297 2204.5684,-213.7577 2040.5,-201 1794.501,-181.8716 1732.0637,-189.0805 1486.5,-165 1461.5584,-162.5542 1433.7625,-158.9465 1411.4158,-155.8271"/>
<polygon fill="#191970" stroke="#191970" points="1411.6333,-152.3231 1401.2417,-154.3882 1410.653,-159.2541 1411.6333,-152.3231"/>
</g>
<!-- Node49&#45;&gt;Node18 -->
<g id="edge143" class="edge">
<title>Node49&#45;&gt;Node18</title>
<path fill="none" stroke="#191970" d="M3020.1429,-277.8901C3141.2301,-267.6636 3381.2356,-245.7764 3393.5,-232 3422.4614,-199.4682 3423.8378,-165.2522 3393.5,-134 3385.8659,-126.1358 1956.8793,-89.9542 1699.106,-83.4898"/>
<polygon fill="#191970" stroke="#191970" points="1698.8156,-79.9815 1688.731,-83.2298 1698.6401,-86.9793 1698.8156,-79.9815"/>
</g>
<!-- Node49&#45;&gt;Node19 -->
<g id="edge148" class="edge">
<title>Node49&#45;&gt;Node19</title>
<path fill="none" stroke="#191970" d="M2996.6753,-268.3243C3013.6209,-260.2625 3031.2418,-248.516 3041.5,-232 3053.2313,-213.1121 3052.5929,-186.8638 3050.2612,-169.0853"/>
<polygon fill="#191970" stroke="#191970" points="3053.6858,-168.3369 3048.6418,-159.0198 3046.7747,-169.4488 3053.6858,-168.3369"/>
</g>
<!-- Node49&#45;&gt;Node20 -->
<g id="edge155" class="edge">
<title>Node49&#45;&gt;Node20</title>
<path fill="none" stroke="#191970" d="M2882.9037,-273.8649C2793.6962,-261.3347 2638.5276,-239.5395 2547.3018,-226.7258"/>
<polygon fill="#191970" stroke="#191970" points="2547.7084,-223.2487 2537.3187,-225.3236 2546.7347,-230.1806 2547.7084,-223.2487"/>
</g>
<!-- Node49&#45;&gt;Node25 -->
<g id="edge145" class="edge">
<title>Node49&#45;&gt;Node25</title>
<path fill="none" stroke="#191970" d="M2943.1204,-268.4206C2933.0035,-251.0055 2914.7992,-222.0556 2894.5,-201 2881.1385,-187.1406 2863.7575,-174.1918 2849.783,-164.7451"/>
<polygon fill="#191970" stroke="#191970" points="2851.4442,-161.6482 2841.1682,-159.0686 2847.5927,-167.4934 2851.4442,-161.6482"/>
</g>
<!-- Node50 -->
<g id="node51" class="node">
<title>Node50</title>
<g id="a_node51"><a xlink:href="drake__bool_8h.html" target="_top" xlink:title=" ">
<polygon fill="#ffffff" stroke="#000000" points="3094,-201.5 3094,-231.5 3215,-231.5 3215,-201.5 3094,-201.5"/>
<text text-anchor="start" x="3102" y="-219.5" font-family="Helvetica,sans-Serif" font-size="10.00" fill="#000000">drake/common/drake</text>
<text text-anchor="middle" x="3154.5" y="-208.5" font-family="Helvetica,sans-Serif" font-size="10.00" fill="#000000">_bool.h</text>
</a>
</g>
</g>
<!-- Node49&#45;&gt;Node50 -->
<g id="edge150" class="edge">
<title>Node49&#45;&gt;Node50</title>
<path fill="none" stroke="#191970" d="M2997.0572,-268.4639C3027.2494,-258.499 3067.0457,-245.3642 3099.0732,-234.7936"/>
<polygon fill="#191970" stroke="#191970" points="3100.345,-238.0596 3108.7441,-231.6017 3098.151,-231.4123 3100.345,-238.0596"/>
</g>
<!-- Node50&#45;&gt;Node11 -->
<g id="edge151" class="edge">
<title>Node50&#45;&gt;Node11</title>
<path fill="none" stroke="#191970" d="M3147.1657,-201.1855C3137.1765,-182.1192 3117.4092,-150.1049 3090.5,-134 2937.3345,-42.3319 2872.0036,-85.8463 2694.5,-67 2469.9544,-43.159 1754.6831,-21.95 1568.2715,-16.7269"/>
<polygon fill="#191970" stroke="#191970" points="1568.3667,-13.2283 1558.2729,-16.4479 1568.1713,-20.2256 1568.3667,-13.2283"/>
</g>
<!-- Node50&#45;&gt;Node19 -->
<g id="edge152" class="edge">
<title>Node50&#45;&gt;Node19</title>
<path fill="none" stroke="#191970" d="M3130.2627,-201.4639C3112.4682,-190.4247 3088.4031,-175.4954 3070.6331,-164.4715"/>
<polygon fill="#191970" stroke="#191970" points="3072.3237,-161.4015 3061.9809,-159.1039 3068.6335,-167.3498 3072.3237,-161.4015"/>
</g>
<!-- Node51&#45;&gt;Node7 -->
<g id="edge159" class="edge">
<title>Node51&#45;&gt;Node7</title>
<path fill="none" stroke="#191970" d="M63.6617,-268.1342C55.5979,-239.4099 42.6959,-176.6322 68.5,-134 101.7491,-79.0677 134.7133,-84.4775 196.5,-67 333.1453,-28.3475 781.8724,-18.1228 907.5325,-15.9876"/>
<polygon fill="#191970" stroke="#191970" points="907.7397,-19.4848 917.6808,-15.821 907.6247,-12.4857 907.7397,-19.4848"/>
</g>
<!-- Node51&#45;&gt;Node10 -->
<g id="edge160" class="edge">
<title>Node51&#45;&gt;Node10</title>
<path fill="none" stroke="#191970" d="M73.0642,-268.4382C79.567,-249.6388 93.3484,-217.9063 116.5,-201 227.883,-119.6633 282.7823,-152.1686 419.5,-134 470.6882,-127.1975 1216.6388,-95.4109 1452.5379,-85.4755"/>
<polygon fill="#191970" stroke="#191970" points="1452.8726,-88.9646 1462.7165,-85.0471 1452.5781,-81.9708 1452.8726,-88.9646"/>
</g>
<!-- Node51&#45;&gt;Node14 -->
<g id="edge161" class="edge">
<title>Node51&#45;&gt;Node14</title>
<path fill="none" stroke="#191970" d="M137.2674,-293.238C153.7549,-295.5094 171.259,-297.6552 187.5,-299 530.8693,-327.432 1608.5686,-340.7793 1917.1969,-344.1313"/>
<polygon fill="#191970" stroke="#191970" points="1917.376,-347.6333 1927.4133,-344.2416 1917.4517,-340.6337 1917.376,-347.6333"/>
</g>
<!-- Node52&#45;&gt;Node7 -->
<g id="edge164" class="edge">
<title>Node52&#45;&gt;Node7</title>
<path fill="none" stroke="#191970" d="M251.8759,-275.242C199.3636,-267.3461 133.1946,-253.4329 116.5,-232 47.6154,-143.5642 32.6171,-166.5645 270.5,-67 329.6468,-42.2444 781.3117,-22.0274 907.7182,-16.8103"/>
<polygon fill="#191970" stroke="#191970" points="908.0757,-20.2987 917.9242,-16.3927 907.7894,-13.3046 908.0757,-20.2987"/>
</g>
<!-- Node52&#45;&gt;Node14 -->
<g id="edge165" class="edge">
<title>Node52&#45;&gt;Node14</title>
<path fill="none" stroke="#191970" d="M389.1034,-295.7946C396.996,-297.0666 404.9208,-298.1881 412.5,-299 708.9353,-330.7527 1633.6184,-341.6146 1917.0896,-344.2808"/>
<polygon fill="#191970" stroke="#191970" points="1917.2706,-347.7825 1927.3028,-344.3759 1917.3358,-340.7828 1917.2706,-347.7825"/>
</g>
<!-- Node52&#45;&gt;Node17 -->
<g id="edge163" class="edge">
<title>Node52&#45;&gt;Node17</title>
<path fill="none" stroke="#191970" d="M333.0087,-268.2278C350.1595,-248.5685 383.0315,-215.2478 419.5,-201 493.798,-171.9727 1056.8691,-169.6589 1136.5,-165 1202.626,-161.1312 1279.2989,-155.8539 1325.8302,-152.5631"/>
<polygon fill="#191970" stroke="#191970" points="1326.1257,-156.0511 1335.8529,-151.8521 1325.6302,-149.0686 1326.1257,-156.0511"/>
</g>
<!-- Node53&#45;&gt;Node3 -->
<g id="edge168" class="edge">
<title>Node53&#45;&gt;Node3</title>
<path fill="none" stroke="#191970" d="M3854.0662,-268.4044C3898.722,-254.7508 3946.3959,-232.0245 3921.5,-201 3899.9882,-174.1926 3653.5537,-138.6624 3619.5,-134 3434.9463,-108.732 2840.7063,-88.2315 2695.6586,-83.5203"/>
<polygon fill="#191970" stroke="#191970" points="2695.7343,-80.021 2685.6265,-83.1964 2695.5083,-87.0174 2695.7343,-80.021"/>
</g>
<!-- Node53&#45;&gt;Node4 -->
<g id="edge169" class="edge">
<title>Node53&#45;&gt;Node4</title>
<path fill="none" stroke="#191970" d="M3723.623,-268.4639C3669.5204,-256.2999 3594.41,-239.4127 3544.6791,-228.2315"/>
<polygon fill="#191970" stroke="#191970" points="3545.3015,-224.7842 3534.7772,-226.0053 3543.7659,-231.6137 3545.3015,-224.7842"/>
</g>
<!-- Node53&#45;&gt;Node5 -->
<g id="edge173" class="edge">
<title>Node53&#45;&gt;Node5</title>
<path fill="none" stroke="#191970" d="M3856.9341,-268.3936C3891.4121,-259.0665 3928.4121,-246.1915 3938.5,-232 3946.4825,-220.7703 3946.7083,-212.0657 3938.5,-201 3816.2051,-36.1327 3698.3411,-104.3824 3496.5,-67 3374.3342,-44.374 3007.8011,-25.7144 2852.3925,-18.5974"/>
<polygon fill="#191970" stroke="#191970" points="2852.1688,-15.0836 2842.0199,-18.1251 2851.8504,-22.0764 2852.1688,-15.0836"/>
</g>
<!-- Node53&#45;&gt;Node14 -->
<g id="edge174" class="edge">
<title>Node53&#45;&gt;Node14</title>
<path fill="none" stroke="#191970" d="M3721.7298,-285.961C3441.7375,-295.7574 2388.442,-331.9477 2083.599,-342.2482"/>
<polygon fill="#191970" stroke="#191970" points="2083.3798,-338.7536 2073.5037,-342.5891 2083.6161,-345.7496 2083.3798,-338.7536"/>
</g>
<!-- Node53&#45;&gt;Node19 -->
<g id="edge171" class="edge">
<title>Node53&#45;&gt;Node19</title>
<path fill="none" stroke="#191970" d="M3814.5501,-268.3409C3839.0358,-251.107 3870.734,-222.5716 3850.5,-201 3824.3558,-173.1275 3256.7438,-155.3075 3091.3467,-150.693"/>
<polygon fill="#191970" stroke="#191970" points="3091.1369,-147.186 3081.044,-150.4082 3090.9434,-154.1833 3091.1369,-147.186"/>
</g>
<!-- Node53&#45;&gt;Node26 -->
<g id="edge170" class="edge">
<title>Node53&#45;&gt;Node26</title>
<path fill="none" stroke="#191970" d="M3821.6039,-268.4582C3851.239,-252.1569 3888.4608,-225.2232 3867.5,-201 3831.0602,-158.8886 3674.2048,-175.4222 3619.5,-165 3560.7269,-153.8027 3547.768,-142.1829 3488.5,-134 3111.2975,-81.921 3012.8281,-116.5614 2632.5,-98 2543.877,-93.6749 2439.4748,-87.6181 2387.077,-84.5118"/>
<polygon fill="#191970" stroke="#191970" points="2387.2002,-81.013 2377.0101,-83.9133 2386.7847,-88.0007 2387.2002,-81.013"/>
</g>
<!-- Node53&#45;&gt;Node32 -->
<g id="edge172" class="edge">
<title>Node53&#45;&gt;Node32</title>
<path fill="none" stroke="#191970" d="M3721.8464,-274.6029C3616.343,-260.9303 3416.8087,-235.0719 3323.7039,-223.0061"/>
<polygon fill="#191970" stroke="#191970" points="3324.0593,-219.523 3313.6924,-221.7087 3323.1597,-226.4649 3324.0593,-219.523"/>
</g>
<!-- Node54 -->
<g id="node55" class="node">
<title>Node54</title>
<g id="a_node55"><a xlink:title=" ">
<polygon fill="#ffffff" stroke="#bfbfbf" points="3785.5,-207 3785.5,-226 3841.5,-226 3841.5,-207 3785.5,-207"/>
<text text-anchor="middle" x="3813.5" y="-214" font-family="Helvetica,sans-Serif" font-size="10.00" fill="#000000">sstream</text>
</a>
</g>
</g>
<!-- Node53&#45;&gt;Node54 -->
<g id="edge167" class="edge">
<title>Node53&#45;&gt;Node54</title>
<path fill="none" stroke="#191970" d="M3795.7191,-268.2967C3799.0242,-258.6685 3803.3279,-246.1318 3806.8733,-235.8038"/>
<polygon fill="#191970" stroke="#191970" points="3810.2834,-236.6496 3810.2199,-226.055 3803.6626,-234.3768 3810.2834,-236.6496"/>
</g>
</g>
</svg>
