<?xml version="1.0" encoding="UTF-8" standalone="no"?>
<!DOCTYPE svg PUBLIC "-//W3C//DTD SVG 1.1//EN"
 "http://www.w3.org/Graphics/SVG/1.1/DTD/svg11.dtd">
<!-- Generated by graphviz version 2.40.1 (20161225.0304)
 -->
<!-- Title: drake/common/symbolic.h Pages: 1 -->
<svg width="3916pt" height="363pt"
 viewBox="0.00 0.00 3915.68 363.00" xmlns="http://www.w3.org/2000/svg" xmlns:xlink="http://www.w3.org/1999/xlink">
<g id="graph0" class="graph" transform="scale(1 1) rotate(0) translate(4 359)">
<title>drake/common/symbolic.h</title>
<polygon fill="#ffffff" stroke="transparent" points="-4,4 -4,-359 3911.6801,-359 3911.6801,4 -4,4"/>
<!-- Node0 -->
<g id="node1" class="node">
<title>Node0</title>
<g id="a_node1"><a xlink:title="Provides public header files of Drake&#39;s symbolic library.">
<polygon fill="#bfbfbf" stroke="#000000" points="1252.5328,-335.5 1252.5328,-354.5 1398.5328,-354.5 1398.5328,-335.5 1252.5328,-335.5"/>
<text text-anchor="middle" x="1325.5328" y="-342.5" font-family="Helvetica,sans-Serif" font-size="10.00" fill="#000000">drake/common/symbolic.h</text>
</a>
</g>
</g>
<!-- Node1 -->
<g id="node2" class="node">
<title>Node1</title>
<g id="a_node2"><a xlink:href="symbolic__variable_8h.html" target="_top" xlink:title=" ">
<polygon fill="#ffffff" stroke="#000000" points="1490.0328,-268.5 1490.0328,-298.5 1627.0328,-298.5 1627.0328,-268.5 1490.0328,-268.5"/>
<text text-anchor="start" x="1498.0328" y="-286.5" font-family="Helvetica,sans-Serif" font-size="10.00" fill="#000000">drake/common/symbolic</text>
<text text-anchor="middle" x="1558.5328" y="-275.5" font-family="Helvetica,sans-Serif" font-size="10.00" fill="#000000">_variable.h</text>
</a>
</g>
</g>
<!-- Node0&#45;&gt;Node1 -->
<g id="edge1" class="edge">
<title>Node0&#45;&gt;Node1</title>
<path fill="none" stroke="#191970" d="M1361.6834,-335.4581C1396.3105,-326.3183 1449.4023,-312.3048 1491.7259,-301.1336"/>
<polygon fill="#191970" stroke="#191970" points="1492.6308,-304.5147 1501.4064,-298.5784 1490.8443,-297.7465 1492.6308,-304.5147"/>
</g>
<!-- Node23 -->
<g id="node24" class="node">
<title>Node23</title>
<g id="a_node24"><a xlink:href="symbolic__variables_8h.html" target="_top" xlink:title=" ">
<polygon fill="#ffffff" stroke="#000000" points="1025.0328,-268.5 1025.0328,-298.5 1162.0328,-298.5 1162.0328,-268.5 1025.0328,-268.5"/>
<text text-anchor="start" x="1033.0328" y="-286.5" font-family="Helvetica,sans-Serif" font-size="10.00" fill="#000000">drake/common/symbolic</text>
<text text-anchor="middle" x="1093.5328" y="-275.5" font-family="Helvetica,sans-Serif" font-size="10.00" fill="#000000">_variables.h</text>
</a>
</g>
</g>
<!-- Node0&#45;&gt;Node23 -->
<g id="edge32" class="edge">
<title>Node0&#45;&gt;Node23</title>
<path fill="none" stroke="#191970" d="M1284.4881,-335.4581C1248.3674,-326.3568 1195.4245,-312.4228 1154.4011,-301.2748"/>
<polygon fill="#191970" stroke="#191970" points="1155.0815,-297.8326 1144.5129,-298.5784 1153.2398,-304.586 1155.0815,-297.8326"/>
</g>
<!-- Node25 -->
<g id="node26" class="node">
<title>Node25</title>
<g id="a_node26"><a xlink:href="symbolic__environment_8h.html" target="_top" xlink:title=" ">
<polygon fill="#ffffff" stroke="#000000" points="2399.0328,-268.5 2399.0328,-298.5 2536.0328,-298.5 2536.0328,-268.5 2399.0328,-268.5"/>
<text text-anchor="start" x="2407.0328" y="-286.5" font-family="Helvetica,sans-Serif" font-size="10.00" fill="#000000">drake/common/symbolic</text>
<text text-anchor="middle" x="2467.5328" y="-275.5" font-family="Helvetica,sans-Serif" font-size="10.00" fill="#000000">_environment.h</text>
</a>
</g>
</g>
<!-- Node0&#45;&gt;Node25 -->
<g id="edge42" class="edge">
<title>Node0&#45;&gt;Node25</title>
<path fill="none" stroke="#191970" d="M1398.6709,-343.1951C1605.1312,-338.0154 2189.3884,-321.9869 2380.5328,-299 2383.2037,-298.6788 2385.9198,-298.3167 2388.6628,-297.9218"/>
<polygon fill="#191970" stroke="#191970" points="2389.3368,-301.3591 2398.6796,-296.3628 2388.2603,-294.4424 2389.3368,-301.3591"/>
</g>
<!-- Node29 -->
<g id="node30" class="node">
<title>Node29</title>
<g id="a_node30"><a xlink:href="symbolic__expression_8h.html" target="_top" xlink:title=" ">
<polygon fill="#ffffff" stroke="#000000" points="2244.0328,-268.5 2244.0328,-298.5 2381.0328,-298.5 2381.0328,-268.5 2244.0328,-268.5"/>
<text text-anchor="start" x="2252.0328" y="-286.5" font-family="Helvetica,sans-Serif" font-size="10.00" fill="#000000">drake/common/symbolic</text>
<text text-anchor="middle" x="2312.5328" y="-275.5" font-family="Helvetica,sans-Serif" font-size="10.00" fill="#000000">_expression.h</text>
</a>
</g>
</g>
<!-- Node0&#45;&gt;Node29 -->
<g id="edge53" class="edge">
<title>Node0&#45;&gt;Node29</title>
<path fill="none" stroke="#191970" d="M1398.7356,-340.1998C1579.823,-328.673 2047.3043,-299.5453 2233.9377,-288.1613"/>
<polygon fill="#191970" stroke="#191970" points="2234.1818,-291.653 2243.9504,-287.5512 2233.756,-284.666 2234.1818,-291.653"/>
</g>
<!-- Node42 -->
<g id="node43" class="node">
<title>Node42</title>
<g id="a_node43"><a xlink:href="symbolic__expression__visitor_8h.html" target="_top" xlink:title=" ">
<polygon fill="#ffffff" stroke="#000000" points="3567.0328,-201.5 3567.0328,-231.5 3704.0328,-231.5 3704.0328,-201.5 3567.0328,-201.5"/>
<text text-anchor="start" x="3575.0328" y="-219.5" font-family="Helvetica,sans-Serif" font-size="10.00" fill="#000000">drake/common/symbolic</text>
<text text-anchor="middle" x="3635.5328" y="-208.5" font-family="Helvetica,sans-Serif" font-size="10.00" fill="#000000">_expression_visitor.h</text>
</a>
</g>
</g>
<!-- Node0&#45;&gt;Node42 -->
<g id="edge95" class="edge">
<title>Node0&#45;&gt;Node42</title>
<path fill="none" stroke="#191970" d="M1398.5576,-343.7875C1675.1009,-338.7368 2683.7525,-315.5577 3510.5328,-232 3525.4571,-230.4917 3541.421,-228.5642 3556.7995,-226.5848"/>
<polygon fill="#191970" stroke="#191970" points="3557.3404,-230.044 3566.804,-225.2804 3556.4354,-223.1027 3557.3404,-230.044"/>
</g>
<!-- Node43 -->
<g id="node44" class="node">
<title>Node43</title>
<g id="a_node44"><a xlink:href="symbolic__ldlt_8h.html" target="_top" xlink:title="Eigen::LDLT is specialized for drake::symbolic::Expression, for certain matrix sizes.">
<polygon fill="#ffffff" stroke="#000000" points="1180.0328,-268.5 1180.0328,-298.5 1317.0328,-298.5 1317.0328,-268.5 1180.0328,-268.5"/>
<text text-anchor="start" x="1188.0328" y="-286.5" font-family="Helvetica,sans-Serif" font-size="10.00" fill="#000000">drake/common/symbolic</text>
<text text-anchor="middle" x="1248.5328" y="-275.5" font-family="Helvetica,sans-Serif" font-size="10.00" fill="#000000">_ldlt.h</text>
</a>
</g>
</g>
<!-- Node0&#45;&gt;Node43 -->
<g id="edge100" class="edge">
<title>Node0&#45;&gt;Node43</title>
<path fill="none" stroke="#191970" d="M1313.5016,-335.3906C1303.37,-327.2986 1288.4986,-315.4207 1275.5397,-305.0705"/>
<polygon fill="#191970" stroke="#191970" points="1277.3671,-302.0506 1267.3691,-298.5446 1272.9985,-307.5202 1277.3671,-302.0506"/>
</g>
<!-- Node44 -->
<g id="node45" class="node">
<title>Node44</title>
<g id="a_node45"><a xlink:href="symbolic__monomial_8h.html" target="_top" xlink:title=" ">
<polygon fill="#ffffff" stroke="#000000" points="560.0328,-268.5 560.0328,-298.5 697.0328,-298.5 697.0328,-268.5 560.0328,-268.5"/>
<text text-anchor="start" x="568.0328" y="-286.5" font-family="Helvetica,sans-Serif" font-size="10.00" fill="#000000">drake/common/symbolic</text>
<text text-anchor="middle" x="628.5328" y="-275.5" font-family="Helvetica,sans-Serif" font-size="10.00" fill="#000000">_monomial.h</text>
</a>
</g>
</g>
<!-- Node0&#45;&gt;Node44 -->
<g id="edge102" class="edge">
<title>Node0&#45;&gt;Node44</title>
<path fill="none" stroke="#191970" d="M1252.3053,-342.7377C1136.4662,-338.3762 904.1086,-326.7921 703.4063,-299.9125"/>
<polygon fill="#191970" stroke="#191970" points="703.649,-296.4135 693.2694,-298.5381 702.7084,-303.35 703.649,-296.4135"/>
</g>
<!-- Node45 -->
<g id="node46" class="node">
<title>Node45</title>
<g id="a_node46"><a xlink:href="symbolic__monomial__util_8h.html" target="_top" xlink:title=" ">
<polygon fill="#ffffff" stroke="#000000" points="715.0328,-268.5 715.0328,-298.5 852.0328,-298.5 852.0328,-268.5 715.0328,-268.5"/>
<text text-anchor="start" x="723.0328" y="-286.5" font-family="Helvetica,sans-Serif" font-size="10.00" fill="#000000">drake/common/symbolic</text>
<text text-anchor="middle" x="783.5328" y="-275.5" font-family="Helvetica,sans-Serif" font-size="10.00" fill="#000000">_monomial_util.h</text>
</a>
</g>
</g>
<!-- Node0&#45;&gt;Node45 -->
<g id="edge111" class="edge">
<title>Node0&#45;&gt;Node45</title>
<path fill="none" stroke="#191970" d="M1252.1784,-340.4688C1160.8148,-334.0319 1000.0893,-320.7247 858.4393,-300.0053"/>
<polygon fill="#191970" stroke="#191970" points="858.6795,-296.5028 848.2747,-298.5007 857.6544,-303.4274 858.6795,-296.5028"/>
</g>
<!-- Node46 -->
<g id="node47" class="node">
<title>Node46</title>
<g id="a_node47"><a xlink:href="symbolic__polynomial_8h.html" target="_top" xlink:title=" ">
<polygon fill="#ffffff" stroke="#000000" points="870.0328,-268.5 870.0328,-298.5 1007.0328,-298.5 1007.0328,-268.5 870.0328,-268.5"/>
<text text-anchor="start" x="878.0328" y="-286.5" font-family="Helvetica,sans-Serif" font-size="10.00" fill="#000000">drake/common/symbolic</text>
<text text-anchor="middle" x="938.5328" y="-275.5" font-family="Helvetica,sans-Serif" font-size="10.00" fill="#000000">_polynomial.h</text>
</a>
</g>
</g>
<!-- Node0&#45;&gt;Node46 -->
<g id="edge121" class="edge">
<title>Node0&#45;&gt;Node46</title>
<path fill="none" stroke="#191970" d="M1252.5149,-336.1966C1190.0622,-327.9118 1097.7672,-314.7089 1014.0086,-300.2901"/>
<polygon fill="#191970" stroke="#191970" points="1014.5532,-296.8324 1004.1021,-298.572 1013.3569,-303.7294 1014.5532,-296.8324"/>
</g>
<!-- Node47 -->
<g id="node48" class="node">
<title>Node47</title>
<g id="a_node48"><a xlink:href="symbolic__rational__function_8h.html" target="_top" xlink:title=" ">
<polygon fill="#ffffff" stroke="#000000" points="1335.0328,-268.5 1335.0328,-298.5 1472.0328,-298.5 1472.0328,-268.5 1335.0328,-268.5"/>
<text text-anchor="start" x="1343.0328" y="-286.5" font-family="Helvetica,sans-Serif" font-size="10.00" fill="#000000">drake/common/symbolic</text>
<text text-anchor="middle" x="1403.5328" y="-275.5" font-family="Helvetica,sans-Serif" font-size="10.00" fill="#000000">_rational_function.h</text>
</a>
</g>
</g>
<!-- Node0&#45;&gt;Node47 -->
<g id="edge130" class="edge">
<title>Node0&#45;&gt;Node47</title>
<path fill="none" stroke="#191970" d="M1332.6578,-335.3906C1341.5074,-327.1444 1356.4937,-314.9669 1370.4855,-304.4807"/>
<polygon fill="#191970" stroke="#191970" points="1372.5736,-307.2897 1378.5548,-298.5446 1368.4256,-301.651 1372.5736,-307.2897"/>
</g>
<!-- Node48 -->
<g id="node49" class="node">
<title>Node48</title>
<g id="a_node49"><a xlink:href="symbolic__formula_8h.html" target="_top" xlink:title=" ">
<polygon fill="#ffffff" stroke="#000000" points="1662.0328,-268.5 1662.0328,-298.5 1799.0328,-298.5 1799.0328,-268.5 1662.0328,-268.5"/>
<text text-anchor="start" x="1670.0328" y="-286.5" font-family="Helvetica,sans-Serif" font-size="10.00" fill="#000000">drake/common/symbolic</text>
<text text-anchor="middle" x="1730.5328" y="-275.5" font-family="Helvetica,sans-Serif" font-size="10.00" fill="#000000">_formula.h</text>
</a>
</g>
</g>
<!-- Node0&#45;&gt;Node48 -->
<g id="edge133" class="edge">
<title>Node0&#45;&gt;Node48</title>
<path fill="none" stroke="#191970" d="M1384.5471,-335.494C1445.2771,-326.3785 1542.3977,-312.1052 1626.5328,-299 1634.7218,-297.7245 1643.3032,-296.3614 1651.8832,-294.9926"/>
<polygon fill="#191970" stroke="#191970" points="1652.6081,-298.4213 1661.931,-293.3881 1651.5042,-291.5089 1652.6081,-298.4213"/>
</g>
<!-- Node50 -->
<g id="node51" class="node">
<title>Node50</title>
<g id="a_node51"><a xlink:href="symbolic__formula__visitor_8h.html" target="_top" xlink:title=" ">
<polygon fill="#ffffff" stroke="#000000" points="165.0328,-268.5 165.0328,-298.5 302.0328,-298.5 302.0328,-268.5 165.0328,-268.5"/>
<text text-anchor="start" x="173.0328" y="-286.5" font-family="Helvetica,sans-Serif" font-size="10.00" fill="#000000">drake/common/symbolic</text>
<text text-anchor="middle" x="233.5328" y="-275.5" font-family="Helvetica,sans-Serif" font-size="10.00" fill="#000000">_formula_visitor.h</text>
</a>
</g>
</g>
<!-- Node0&#45;&gt;Node50 -->
<g id="edge150" class="edge">
<title>Node0&#45;&gt;Node50</title>
<path fill="none" stroke="#191970" d="M1252.4864,-342.6968C1094.2724,-337.2716 708.5941,-322.3598 386.5328,-299 362.369,-297.2473 336.2168,-294.9297 312.4577,-292.6223"/>
<polygon fill="#191970" stroke="#191970" points="312.7293,-289.1322 302.4346,-291.6357 312.0436,-296.0986 312.7293,-289.1322"/>
</g>
<!-- Node51 -->
<g id="node52" class="node">
<title>Node51</title>
<g id="a_node52"><a xlink:href="symbolic__simplification_8h.html" target="_top" xlink:title=" ">
<polygon fill="#ffffff" stroke="#000000" points="405.0328,-268.5 405.0328,-298.5 542.0328,-298.5 542.0328,-268.5 405.0328,-268.5"/>
<text text-anchor="start" x="413.0328" y="-286.5" font-family="Helvetica,sans-Serif" font-size="10.00" fill="#000000">drake/common/symbolic</text>
<text text-anchor="middle" x="473.5328" y="-275.5" font-family="Helvetica,sans-Serif" font-size="10.00" fill="#000000">_simplification.h</text>
</a>
</g>
</g>
<!-- Node0&#45;&gt;Node51 -->
<g id="edge154" class="edge">
<title>Node0&#45;&gt;Node51</title>
<path fill="none" stroke="#191970" d="M1252.5325,-344.144C1115.1741,-341.7713 809.2419,-332.9224 547.9137,-299.7931"/>
<polygon fill="#191970" stroke="#191970" points="548.2194,-296.3038 537.8554,-298.5031 547.3289,-303.2469 548.2194,-296.3038"/>
</g>
<!-- Node52 -->
<g id="node53" class="node">
<title>Node52</title>
<g id="a_node53"><a xlink:href="symbolic__codegen_8h.html" target="_top" xlink:title=" ">
<polygon fill="#ffffff" stroke="#000000" points="3470.0328,-268.5 3470.0328,-298.5 3607.0328,-298.5 3607.0328,-268.5 3470.0328,-268.5"/>
<text text-anchor="start" x="3478.0328" y="-286.5" font-family="Helvetica,sans-Serif" font-size="10.00" fill="#000000">drake/common/symbolic</text>
<text text-anchor="middle" x="3538.5328" y="-275.5" font-family="Helvetica,sans-Serif" font-size="10.00" fill="#000000">_codegen.h</text>
</a>
</g>
</g>
<!-- Node0&#45;&gt;Node52 -->
<g id="edge158" class="edge">
<title>Node0&#45;&gt;Node52</title>
<path fill="none" stroke="#191970" d="M1398.8043,-343.0026C1634.0205,-336.7602 2390.7602,-316.9621 3017.5328,-299 3173.9465,-294.5175 3357.2257,-288.8743 3459.468,-285.7837"/>
<polygon fill="#191970" stroke="#191970" points="3459.8212,-289.2747 3469.7109,-285.4744 3459.6098,-282.2779 3459.8212,-289.2747"/>
</g>
<!-- Node2 -->
<g id="node3" class="node">
<title>Node2</title>
<g id="a_node3"><a xlink:title=" ">
<polygon fill="#ffffff" stroke="#bfbfbf" points="540.0328,-140 540.0328,-159 593.0328,-159 593.0328,-140 540.0328,-140"/>
<text text-anchor="middle" x="566.5328" y="-147" font-family="Helvetica,sans-Serif" font-size="10.00" fill="#000000">cstddef</text>
</a>
</g>
</g>
<!-- Node1&#45;&gt;Node2 -->
<g id="edge2" class="edge">
<title>Node1&#45;&gt;Node2</title>
<path fill="none" stroke="#191970" d="M1490.0053,-269.8431C1422.6958,-256.3362 1327.6598,-236.9824 1310.5328,-232 1273.1218,-221.1168 1266.6432,-209.1007 1228.5328,-201 955.941,-143.0579 873.748,-229.0773 602.5328,-165 600.0411,-164.4113 597.5043,-163.6609 594.9893,-162.8089"/>
<polygon fill="#191970" stroke="#191970" points="596.1289,-159.497 585.5398,-159.1475 593.5997,-166.0241 596.1289,-159.497"/>
</g>
<!-- Node3 -->
<g id="node4" class="node">
<title>Node3</title>
<g id="a_node4"><a xlink:title=" ">
<polygon fill="#ffffff" stroke="#bfbfbf" points="1330.0328,-140 1330.0328,-159 1395.0328,-159 1395.0328,-140 1330.0328,-140"/>
<text text-anchor="middle" x="1362.5328" y="-147" font-family="Helvetica,sans-Serif" font-size="10.00" fill="#000000">functional</text>
</a>
</g>
</g>
<!-- Node1&#45;&gt;Node3 -->
<g id="edge3" class="edge">
<title>Node1&#45;&gt;Node3</title>
<path fill="none" stroke="#191970" d="M1489.9695,-269.975C1448.7223,-260.5408 1401.4072,-246.9912 1386.5328,-232 1369.9238,-215.2605 1364.6757,-187.7349 1363.0908,-169.1279"/>
<polygon fill="#191970" stroke="#191970" points="1366.5832,-168.8943 1362.5155,-159.1115 1359.5947,-169.2957 1366.5832,-168.8943"/>
</g>
<!-- Node4 -->
<g id="node5" class="node">
<title>Node4</title>
<g id="a_node5"><a xlink:title=" ">
<polygon fill="#ffffff" stroke="#bfbfbf" points="2264.5328,-73 2264.5328,-92 2322.5328,-92 2322.5328,-73 2264.5328,-73"/>
<text text-anchor="middle" x="2293.5328" y="-80" font-family="Helvetica,sans-Serif" font-size="10.00" fill="#000000">memory</text>
</a>
</g>
</g>
<!-- Node1&#45;&gt;Node4 -->
<g id="edge4" class="edge">
<title>Node1&#45;&gt;Node4</title>
<path fill="none" stroke="#191970" d="M1627.2682,-271.7828C1635.7676,-270.447 1644.3437,-269.1531 1652.5328,-268 1720.7701,-258.3916 1914.7215,-283.4778 1960.5328,-232 1989.8717,-199.0321 1915.6942,-167.4064 1944.5328,-134 1964.6034,-110.7503 2167.5038,-92.3158 2254.3884,-85.4255"/>
<polygon fill="#191970" stroke="#191970" points="2254.6924,-88.9125 2264.3888,-84.6429 2254.1462,-81.9339 2254.6924,-88.9125"/>
</g>
<!-- Node5 -->
<g id="node6" class="node">
<title>Node5</title>
<g id="a_node6"><a xlink:title=" ">
<polygon fill="#ffffff" stroke="#bfbfbf" points="1163.0328,-207 1163.0328,-226 1220.0328,-226 1220.0328,-207 1163.0328,-207"/>
<text text-anchor="middle" x="1191.5328" y="-214" font-family="Helvetica,sans-Serif" font-size="10.00" fill="#000000">ostream</text>
</a>
</g>
</g>
<!-- Node1&#45;&gt;Node5 -->
<g id="edge5" class="edge">
<title>Node1&#45;&gt;Node5</title>
<path fill="none" stroke="#191970" d="M1489.6646,-269.6173C1486.5809,-269.0579 1483.5261,-268.5161 1480.5328,-268 1371.6416,-249.2255 1341.7138,-258.8704 1234.5328,-232 1231.3769,-231.2088 1228.129,-230.2735 1224.8994,-229.2605"/>
<polygon fill="#191970" stroke="#191970" points="1225.9702,-225.928 1215.3761,-226.0548 1223.737,-232.5622 1225.9702,-225.928"/>
</g>
<!-- Node6 -->
<g id="node7" class="node">
<title>Node6</title>
<g id="a_node7"><a xlink:title=" ">
<polygon fill="#ffffff" stroke="#bfbfbf" points="2605.5328,-73 2605.5328,-92 2649.5328,-92 2649.5328,-73 2605.5328,-73"/>
<text text-anchor="middle" x="2627.5328" y="-80" font-family="Helvetica,sans-Serif" font-size="10.00" fill="#000000">string</text>
</a>
</g>
</g>
<!-- Node1&#45;&gt;Node6 -->
<g id="edge6" class="edge">
<title>Node1&#45;&gt;Node6</title>
<path fill="none" stroke="#191970" d="M1627.2611,-271.7322C1635.7618,-270.4051 1644.3401,-269.127 1652.5328,-268 1724.7377,-258.0674 1929.9061,-286.2922 1978.5328,-232 2008.4506,-198.5965 1924.0579,-166.896 1954.5328,-134 1965.5586,-122.0983 2461.4332,-92.2319 2594.7999,-84.4031"/>
<polygon fill="#191970" stroke="#191970" points="2595.3911,-87.8746 2605.1694,-83.796 2594.9819,-80.8865 2595.3911,-87.8746"/>
</g>
<!-- Node7 -->
<g id="node8" class="node">
<title>Node7</title>
<g id="a_node8"><a xlink:title=" ">
<polygon fill="#ffffff" stroke="#bfbfbf" points="1442.0328,-140 1442.0328,-159 1511.0328,-159 1511.0328,-140 1442.0328,-140"/>
<text text-anchor="middle" x="1476.5328" y="-147" font-family="Helvetica,sans-Serif" font-size="10.00" fill="#000000">Eigen/Core</text>
</a>
</g>
</g>
<!-- Node1&#45;&gt;Node7 -->
<g id="edge7" class="edge">
<title>Node1&#45;&gt;Node7</title>
<path fill="none" stroke="#191970" d="M1549.2858,-268.389C1534.1404,-243.6393 1504.1004,-194.5495 1487.7581,-167.8438"/>
<polygon fill="#191970" stroke="#191970" points="1490.6151,-165.807 1482.41,-159.1042 1484.6443,-169.4607 1490.6151,-165.807"/>
</g>
<!-- Node8 -->
<g id="node9" class="node">
<title>Node8</title>
<g id="a_node9"><a xlink:href="drake__copyable_8h.html" target="_top" xlink:title="Provides careful macros to selectively enable or disable the special member functions for copy&#45;constr...">
<polygon fill="#ffffff" stroke="#000000" points="2618.0328,-.5 2618.0328,-30.5 2739.0328,-30.5 2739.0328,-.5 2618.0328,-.5"/>
<text text-anchor="start" x="2626.0328" y="-18.5" font-family="Helvetica,sans-Serif" font-size="10.00" fill="#000000">drake/common/drake</text>
<text text-anchor="middle" x="2678.5328" y="-7.5" font-family="Helvetica,sans-Serif" font-size="10.00" fill="#000000">_copyable.h</text>
</a>
</g>
</g>
<!-- Node1&#45;&gt;Node8 -->
<g id="edge8" class="edge">
<title>Node1&#45;&gt;Node8</title>
<path fill="none" stroke="#191970" d="M1627.0551,-272.1025C1635.6308,-270.7052 1644.2835,-269.3093 1652.5328,-268 1757.3234,-251.3685 1803.5337,-295.5046 1888.5328,-232 1927.0781,-203.202 1896.7849,-163.8355 1934.5328,-134 2038.3707,-51.9277 2443.0333,-25.5605 2607.9709,-18.1161"/>
<polygon fill="#191970" stroke="#191970" points="2608.1747,-21.6106 2618.0107,-17.6731 2607.8661,-14.6174 2608.1747,-21.6106"/>
</g>
<!-- Node9 -->
<g id="node10" class="node">
<title>Node9</title>
<g id="a_node10"><a xlink:href="eigen__types_8h.html" target="_top" xlink:title="This file contains abbreviated definitions for certain specializations of Eigen::Matrix that are comm...">
<polygon fill="#ffffff" stroke="#000000" points="2126.5328,-201.5 2126.5328,-231.5 2246.5328,-231.5 2246.5328,-201.5 2126.5328,-201.5"/>
<text text-anchor="start" x="2134.5328" y="-219.5" font-family="Helvetica,sans-Serif" font-size="10.00" fill="#000000">drake/common/eigen</text>
<text text-anchor="middle" x="2186.5328" y="-208.5" font-family="Helvetica,sans-Serif" font-size="10.00" fill="#000000">_types.h</text>
</a>
</g>
</g>
<!-- Node1&#45;&gt;Node9 -->
<g id="edge9" class="edge">
<title>Node1&#45;&gt;Node9</title>
<path fill="none" stroke="#191970" d="M1627.2436,-271.6007C1635.7473,-270.2962 1644.331,-269.0594 1652.5328,-268 1822.5357,-246.0423 1865.944,-248.8097 2036.5328,-232 2062.5234,-229.4389 2091.0349,-226.5202 2116.1563,-223.9115"/>
<polygon fill="#191970" stroke="#191970" points="2116.7472,-227.369 2126.3312,-222.8526 2116.0226,-220.4066 2116.7472,-227.369"/>
</g>
<!-- Node15 -->
<g id="node16" class="node">
<title>Node15</title>
<g id="a_node16"><a xlink:href="hash_8h.html" target="_top" xlink:title=" ">
<polygon fill="#ffffff" stroke="#000000" points="633.0328,-207 633.0328,-226 758.0328,-226 758.0328,-207 633.0328,-207"/>
<text text-anchor="middle" x="695.5328" y="-214" font-family="Helvetica,sans-Serif" font-size="10.00" fill="#000000">drake/common/hash.h</text>
</a>
</g>
</g>
<!-- Node1&#45;&gt;Node15 -->
<g id="edge16" class="edge">
<title>Node1&#45;&gt;Node15</title>
<path fill="none" stroke="#191970" d="M1489.7103,-269.317C1486.6142,-268.8389 1483.5443,-268.3963 1480.5328,-268 1344.0862,-250.0452 935.9818,-228.4434 768.4931,-220.0638"/>
<polygon fill="#191970" stroke="#191970" points="768.456,-216.5577 758.294,-219.555 768.1071,-223.549 768.456,-216.5577"/>
</g>
<!-- Node9&#45;&gt;Node8 -->
<g id="edge15" class="edge">
<title>Node9&#45;&gt;Node8</title>
<path fill="none" stroke="#191970" d="M2218.356,-201.4845C2254.672,-184.5058 2315.9725,-156.3215 2369.5328,-134 2459.5172,-96.4985 2565.9597,-56.6528 2627.5152,-34.044"/>
<polygon fill="#191970" stroke="#191970" points="2628.8158,-37.2951 2636.9997,-30.5664 2626.406,-30.7229 2628.8158,-37.2951"/>
</g>
<!-- Node10 -->
<g id="node11" class="node">
<title>Node10</title>
<g id="a_node11"><a xlink:title=" ">
<polygon fill="#ffffff" stroke="#bfbfbf" points="1688.0328,-6 1688.0328,-25 1733.0328,-25 1733.0328,-6 1688.0328,-6"/>
<text text-anchor="middle" x="1710.5328" y="-13" font-family="Helvetica,sans-Serif" font-size="10.00" fill="#000000">utility</text>
</a>
</g>
</g>
<!-- Node9&#45;&gt;Node10 -->
<g id="edge10" class="edge">
<title>Node9&#45;&gt;Node10</title>
<path fill="none" stroke="#191970" d="M2126.2647,-208.7246C2078.4503,-201.2405 2010.5725,-187.6482 1954.5328,-165 1865.2757,-128.9272 1771.3379,-61.8043 1730.9486,-31.3077"/>
<polygon fill="#191970" stroke="#191970" points="1733.022,-28.4873 1722.9458,-25.2129 1728.7808,-34.0562 1733.022,-28.4873"/>
</g>
<!-- Node11 -->
<g id="node12" class="node">
<title>Node11</title>
<g id="a_node12"><a xlink:title=" ">
<polygon fill="#ffffff" stroke="#bfbfbf" points="2131.0328,-140 2131.0328,-159 2208.0328,-159 2208.0328,-140 2131.0328,-140"/>
<text text-anchor="middle" x="2169.5328" y="-147" font-family="Helvetica,sans-Serif" font-size="10.00" fill="#000000">Eigen/Dense</text>
</a>
</g>
</g>
<!-- Node9&#45;&gt;Node11 -->
<g id="edge11" class="edge">
<title>Node9&#45;&gt;Node11</title>
<path fill="none" stroke="#191970" d="M2182.6753,-201.2967C2180.2323,-191.6685 2177.0513,-179.1318 2174.4308,-168.8038"/>
<polygon fill="#191970" stroke="#191970" points="2177.8092,-167.887 2171.9572,-159.055 2171.0242,-169.6086 2177.8092,-167.887"/>
</g>
<!-- Node12 -->
<g id="node13" class="node">
<title>Node12</title>
<g id="a_node13"><a xlink:href="constants_8h.html" target="_top" xlink:title=" ">
<polygon fill="#ffffff" stroke="#000000" points="1964.0328,-140 1964.0328,-159 2113.0328,-159 2113.0328,-140 1964.0328,-140"/>
<text text-anchor="middle" x="2038.5328" y="-147" font-family="Helvetica,sans-Serif" font-size="10.00" fill="#000000">drake/common/constants.h</text>
</a>
</g>
</g>
<!-- Node9&#45;&gt;Node12 -->
<g id="edge12" class="edge">
<title>Node9&#45;&gt;Node12</title>
<path fill="none" stroke="#191970" d="M2153.3187,-201.4639C2128.0388,-190.0196 2093.5236,-174.3945 2068.9589,-163.274"/>
<polygon fill="#191970" stroke="#191970" points="2070.3009,-160.0396 2059.7474,-159.1039 2067.414,-166.4166 2070.3009,-160.0396"/>
</g>
<!-- Node13 -->
<g id="node14" class="node">
<title>Node13</title>
<g id="a_node14"><a xlink:href="drake__assert_8h.html" target="_top" xlink:title="Provides Drake&#39;s assertion implementation.">
<polygon fill="#ffffff" stroke="#000000" points="1572.0328,-67.5 1572.0328,-97.5 1693.0328,-97.5 1693.0328,-67.5 1572.0328,-67.5"/>
<text text-anchor="start" x="1580.0328" y="-85.5" font-family="Helvetica,sans-Serif" font-size="10.00" fill="#000000">drake/common/drake</text>
<text text-anchor="middle" x="1632.5328" y="-74.5" font-family="Helvetica,sans-Serif" font-size="10.00" fill="#000000">_assert.h</text>
</a>
</g>
</g>
<!-- Node9&#45;&gt;Node13 -->
<g id="edge13" class="edge">
<title>Node9&#45;&gt;Node13</title>
<path fill="none" stroke="#191970" d="M2126.439,-213.9157C2050.8715,-209.4012 1917.7952,-197.2336 1808.5328,-165 1756.9829,-149.7922 1701.4534,-121.575 1666.8488,-102.4219"/>
<polygon fill="#191970" stroke="#191970" points="1668.5265,-99.35 1658.0908,-97.5201 1665.1076,-105.4584 1668.5265,-99.35"/>
</g>
<!-- Node14 -->
<g id="node15" class="node">
<title>Node14</title>
<g id="a_node15"><a xlink:title=" ">
<polygon fill="#ffffff" stroke="#bfbfbf" points="1751.0328,-6 1751.0328,-25 1820.0328,-25 1820.0328,-6 1751.0328,-6"/>
<text text-anchor="middle" x="1785.5328" y="-13" font-family="Helvetica,sans-Serif" font-size="10.00" fill="#000000">type_traits</text>
</a>
</g>
</g>
<!-- Node13&#45;&gt;Node14 -->
<g id="edge14" class="edge">
<title>Node13&#45;&gt;Node14</title>
<path fill="none" stroke="#191970" d="M1666.869,-67.4639C1693.1186,-55.969 1729.0002,-40.2561 1754.4153,-29.1266"/>
<polygon fill="#191970" stroke="#191970" points="1755.8453,-32.3214 1763.6015,-25.1039 1753.0373,-25.9092 1755.8453,-32.3214"/>
</g>
<!-- Node15&#45;&gt;Node2 -->
<g id="edge18" class="edge">
<title>Node15&#45;&gt;Node2</title>
<path fill="none" stroke="#191970" d="M677.0503,-206.9005C655.3054,-195.6067 619.0005,-176.7506 593.9689,-163.7497"/>
<polygon fill="#191970" stroke="#191970" points="595.4688,-160.5849 584.9811,-159.0817 592.2423,-166.797 595.4688,-160.5849"/>
</g>
<!-- Node15&#45;&gt;Node3 -->
<g id="edge19" class="edge">
<title>Node15&#45;&gt;Node3</title>
<path fill="none" stroke="#191970" d="M737.7262,-206.9595C748.9854,-204.7011 761.1787,-202.5124 772.5328,-201 1012.2784,-169.0653 1078.1315,-211.2428 1315.5328,-165 1319.4992,-164.2274 1323.5945,-163.2155 1327.6375,-162.0784"/>
<polygon fill="#191970" stroke="#191970" points="1328.9436,-165.3387 1337.4765,-159.0586 1326.8897,-158.6468 1328.9436,-165.3387"/>
</g>
<!-- Node15&#45;&gt;Node6 -->
<g id="edge24" class="edge">
<title>Node15&#45;&gt;Node6</title>
<path fill="none" stroke="#191970" d="M732.1989,-206.9547C741.9963,-204.6963 752.6181,-202.5089 762.5328,-201 974.4684,-168.747 1041.7339,-237.3473 1243.5328,-165 1266.0511,-156.9269 1264.8567,-141.6184 1287.5328,-134 1397.5582,-97.035 2215.5731,-103.035 2331.5328,-98 2427.4462,-93.8354 2540.7668,-87.5089 2595.1846,-84.3833"/>
<polygon fill="#191970" stroke="#191970" points="2595.4782,-87.8722 2605.2602,-83.8024 2595.0753,-80.8838 2595.4782,-87.8722"/>
</g>
<!-- Node15&#45;&gt;Node10 -->
<g id="edge26" class="edge">
<title>Node15&#45;&gt;Node10</title>
<path fill="none" stroke="#191970" d="M736.67,-206.9947C796.3404,-193.1435 900.6878,-168.6562 908.5328,-165 975.0846,-133.9828 972.71,-92.5856 1041.5328,-67 1101.5434,-44.6904 1551.8511,-22.7184 1677.857,-16.9567"/>
<polygon fill="#191970" stroke="#191970" points="1678.1995,-20.4449 1688.0304,-16.4947 1677.8819,-13.4521 1678.1995,-20.4449"/>
</g>
<!-- Node15&#45;&gt;Node13 -->
<g id="edge28" class="edge">
<title>Node15&#45;&gt;Node13</title>
<path fill="none" stroke="#191970" d="M690.9695,-206.8244C683.6218,-189.6525 671.7882,-153.7974 690.5328,-134 720.3953,-102.4603 1347.6961,-87.8269 1561.7166,-83.7392"/>
<polygon fill="#191970" stroke="#191970" points="1561.9627,-87.2353 1571.8948,-83.5469 1561.8304,-80.2366 1561.9627,-87.2353"/>
</g>
<!-- Node15&#45;&gt;Node14 -->
<g id="edge25" class="edge">
<title>Node15&#45;&gt;Node14</title>
<path fill="none" stroke="#191970" d="M735.8745,-206.9397C744.6503,-204.9236 753.8934,-202.8486 762.5328,-201 843.5902,-183.6561 864.2741,-181.3748 945.5328,-165 1156.8425,-122.4181 1207.6459,-100.8254 1420.5328,-67 1562.3153,-44.4723 1601.5964,-63.056 1741.5328,-31 1744.9521,-30.2167 1748.4739,-29.2548 1751.9656,-28.1971"/>
<polygon fill="#191970" stroke="#191970" points="1753.2055,-31.474 1761.6164,-25.0315 1751.0237,-24.8227 1753.2055,-31.474"/>
</g>
<!-- Node16 -->
<g id="node17" class="node">
<title>Node16</title>
<g id="a_node17"><a xlink:title=" ">
<polygon fill="#ffffff" stroke="#bfbfbf" points="774.0328,-140 774.0328,-159 821.0328,-159 821.0328,-140 774.0328,-140"/>
<text text-anchor="middle" x="797.5328" y="-147" font-family="Helvetica,sans-Serif" font-size="10.00" fill="#000000">cmath</text>
</a>
</g>
</g>
<!-- Node15&#45;&gt;Node16 -->
<g id="edge17" class="edge">
<title>Node15&#45;&gt;Node16</title>
<path fill="none" stroke="#191970" d="M710.1469,-206.9005C726.9619,-195.8554 754.7878,-177.5776 774.5186,-164.6172"/>
<polygon fill="#191970" stroke="#191970" points="776.5092,-167.4972 782.9458,-159.0817 772.6661,-161.6465 776.5092,-167.4972"/>
</g>
<!-- Node17 -->
<g id="node18" class="node">
<title>Node17</title>
<g id="a_node18"><a xlink:title=" ">
<polygon fill="#ffffff" stroke="#bfbfbf" points="839.5328,-140 839.5328,-159 899.5328,-159 899.5328,-140 839.5328,-140"/>
<text text-anchor="middle" x="869.5328" y="-147" font-family="Helvetica,sans-Serif" font-size="10.00" fill="#000000">iostream</text>
</a>
</g>
</g>
<!-- Node15&#45;&gt;Node17 -->
<g id="edge20" class="edge">
<title>Node15&#45;&gt;Node17</title>
<path fill="none" stroke="#191970" d="M720.7319,-206.8391C747.6711,-196.5054 791.6328,-179.6261 829.5328,-165 831.4088,-164.276 833.334,-163.5323 835.2773,-162.7812"/>
<polygon fill="#191970" stroke="#191970" points="836.9354,-165.8925 844.9984,-159.0194 834.4092,-159.3642 836.9354,-165.8925"/>
</g>
<!-- Node18 -->
<g id="node19" class="node">
<title>Node18</title>
<g id="a_node19"><a xlink:title=" ">
<polygon fill="#ffffff" stroke="#bfbfbf" points="348.5328,-140 348.5328,-159 386.5328,-159 386.5328,-140 348.5328,-140"/>
<text text-anchor="middle" x="367.5328" y="-147" font-family="Helvetica,sans-Serif" font-size="10.00" fill="#000000">map</text>
</a>
</g>
</g>
<!-- Node15&#45;&gt;Node18 -->
<g id="edge21" class="edge">
<title>Node15&#45;&gt;Node18</title>
<path fill="none" stroke="#191970" d="M648.8868,-206.9717C580.2641,-192.9543 454.0751,-167.1778 396.9748,-155.5141"/>
<polygon fill="#191970" stroke="#191970" points="397.3277,-152.0139 386.8295,-153.4417 395.9267,-158.8723 397.3277,-152.0139"/>
</g>
<!-- Node19 -->
<g id="node20" class="node">
<title>Node19</title>
<g id="a_node20"><a xlink:title=" ">
<polygon fill="#ffffff" stroke="#bfbfbf" points="699.5328,-140 699.5328,-159 755.5328,-159 755.5328,-140 699.5328,-140"/>
<text text-anchor="middle" x="727.5328" y="-147" font-family="Helvetica,sans-Serif" font-size="10.00" fill="#000000">optional</text>
</a>
</g>
</g>
<!-- Node15&#45;&gt;Node19 -->
<g id="edge22" class="edge">
<title>Node15&#45;&gt;Node19</title>
<path fill="none" stroke="#191970" d="M700.1176,-206.9005C704.9177,-196.8505 712.5777,-180.8122 718.5822,-168.2403"/>
<polygon fill="#191970" stroke="#191970" points="721.8049,-169.6137 722.9565,-159.0817 715.4884,-166.5968 721.8049,-169.6137"/>
</g>
<!-- Node20 -->
<g id="node21" class="node">
<title>Node20</title>
<g id="a_node21"><a xlink:title=" ">
<polygon fill="#ffffff" stroke="#bfbfbf" points="611.5328,-140 611.5328,-159 643.5328,-159 643.5328,-140 611.5328,-140"/>
<text text-anchor="middle" x="627.5328" y="-147" font-family="Helvetica,sans-Serif" font-size="10.00" fill="#000000">set</text>
</a>
</g>
</g>
<!-- Node15&#45;&gt;Node20 -->
<g id="edge23" class="edge">
<title>Node15&#45;&gt;Node20</title>
<path fill="none" stroke="#191970" d="M685.7901,-206.9005C675.0851,-196.353 657.6859,-179.2096 644.6849,-166.3998"/>
<polygon fill="#191970" stroke="#191970" points="646.8372,-163.607 637.2575,-159.0817 641.9243,-168.5933 646.8372,-163.607"/>
</g>
<!-- Node21 -->
<g id="node22" class="node">
<title>Node21</title>
<g id="a_node22"><a xlink:title=" ">
<polygon fill="#ffffff" stroke="#bfbfbf" points="3109.0328,-73 3109.0328,-92 3156.0328,-92 3156.0328,-73 3109.0328,-73"/>
<text text-anchor="middle" x="3132.5328" y="-80" font-family="Helvetica,sans-Serif" font-size="10.00" fill="#000000">vector</text>
</a>
</g>
</g>
<!-- Node15&#45;&gt;Node21 -->
<g id="edge27" class="edge">
<title>Node15&#45;&gt;Node21</title>
<path fill="none" stroke="#191970" d="M732.1936,-206.9199C741.9911,-204.6618 752.6142,-202.4831 762.5328,-201 876.4335,-183.9682 1171.6858,-205.404 1279.5328,-165 1300.9254,-156.9854 1298.9522,-141.4935 1320.5328,-134 1500.2698,-71.5892 2842.9948,-114.6081 3032.5328,-98 3054.7855,-96.0501 3079.602,-92.2135 3098.9462,-88.8454"/>
<polygon fill="#191970" stroke="#191970" points="3099.5688,-92.2897 3108.7991,-87.0885 3098.3399,-85.3984 3099.5688,-92.2897"/>
</g>
<!-- Node22 -->
<g id="node23" class="node">
<title>Node22</title>
<g id="a_node23"><a xlink:href="drake__throw_8h.html" target="_top" xlink:title="Provides a convenient wrapper to throw an exception when a condition is unmet.">
<polygon fill="#ffffff" stroke="#000000" points="1114.0328,-134.5 1114.0328,-164.5 1235.0328,-164.5 1235.0328,-134.5 1114.0328,-134.5"/>
<text text-anchor="start" x="1122.0328" y="-152.5" font-family="Helvetica,sans-Serif" font-size="10.00" fill="#000000">drake/common/drake</text>
<text text-anchor="middle" x="1174.5328" y="-141.5" font-family="Helvetica,sans-Serif" font-size="10.00" fill="#000000">_throw.h</text>
</a>
</g>
</g>
<!-- Node15&#45;&gt;Node22 -->
<g id="edge29" class="edge">
<title>Node15&#45;&gt;Node22</title>
<path fill="none" stroke="#191970" d="M739.8075,-206.973C750.493,-204.844 761.8972,-202.7124 772.5328,-201 903.8084,-179.8641 937.7514,-182.7104 1069.5328,-165 1080.6209,-163.5098 1092.3556,-161.8547 1103.8065,-160.1966"/>
<polygon fill="#191970" stroke="#191970" points="1104.3829,-163.6496 1113.773,-158.7428 1103.3725,-156.7229 1104.3829,-163.6496"/>
</g>
<!-- Node22&#45;&gt;Node13 -->
<g id="edge31" class="edge">
<title>Node22&#45;&gt;Node13</title>
<path fill="none" stroke="#191970" d="M1235.0461,-136.6143C1239.9396,-135.6881 1244.8142,-134.8038 1249.5328,-134 1358.0868,-115.5078 1484.8793,-99.5583 1561.9019,-90.4924"/>
<polygon fill="#191970" stroke="#191970" points="1562.4443,-93.9528 1571.9692,-89.3132 1561.6299,-87.0004 1562.4443,-93.9528"/>
</g>
<!-- Node22&#45;&gt;Node14 -->
<g id="edge30" class="edge">
<title>Node22&#45;&gt;Node14</title>
<path fill="none" stroke="#191970" d="M1235.3084,-136.3605C1311.6547,-119.9046 1446.7061,-90.9607 1562.5328,-67 1641.9989,-50.5611 1663.2936,-52.5341 1741.5328,-31 1744.483,-30.188 1747.5208,-29.2781 1750.556,-28.3168"/>
<polygon fill="#191970" stroke="#191970" points="1751.7494,-31.6084 1760.1317,-25.1287 1749.5381,-24.9669 1751.7494,-31.6084"/>
</g>
<!-- Node23&#45;&gt;Node0 -->
<g id="edge41" class="edge">
<title>Node23&#45;&gt;Node0</title>
<path fill="none" stroke="#191970" d="M1156.1835,-298.5446C1196.8821,-309.0031 1248.7155,-322.7748 1284.3066,-332.6025"/>
<polygon fill="#191970" stroke="#191970" points="1283.7734,-336.0869 1294.3453,-335.3906 1285.6467,-329.3422 1283.7734,-336.0869"/>
</g>
<!-- Node23&#45;&gt;Node2 -->
<g id="edge33" class="edge">
<title>Node23&#45;&gt;Node2</title>
<path fill="none" stroke="#191970" d="M1024.6984,-269.4035C1021.6055,-268.902 1018.5395,-268.4308 1015.5328,-268 925.8721,-255.1544 684.8275,-282.3465 609.5328,-232 587.8824,-217.5232 576.4461,-188.5517 570.9463,-169.0891"/>
<polygon fill="#191970" stroke="#191970" points="574.2772,-167.9858 568.418,-159.1586 567.4936,-169.713 574.2772,-167.9858"/>
</g>
<!-- Node23&#45;&gt;Node3 -->
<g id="edge34" class="edge">
<title>Node23&#45;&gt;Node3</title>
<path fill="none" stroke="#191970" d="M1069.2962,-268.261C1045.1011,-251.2035 1014.1053,-223.0652 1033.5328,-201 1075.2803,-153.5842 1253.9186,-178.9571 1315.5328,-165 1319.1832,-164.1731 1322.9522,-163.1788 1326.6938,-162.098"/>
<polygon fill="#191970" stroke="#191970" points="1327.9111,-165.3852 1336.4334,-159.0907 1325.8459,-158.6968 1327.9111,-165.3852"/>
</g>
<!-- Node23&#45;&gt;Node5 -->
<g id="edge36" class="edge">
<title>Node23&#45;&gt;Node5</title>
<path fill="none" stroke="#191970" d="M1115.7705,-268.2967C1131.7806,-257.351 1153.2892,-242.6462 1169.2985,-231.701"/>
<polygon fill="#191970" stroke="#191970" points="1171.2771,-234.5881 1177.5569,-226.055 1167.3264,-228.8095 1171.2771,-234.5881"/>
</g>
<!-- Node23&#45;&gt;Node6 -->
<g id="edge38" class="edge">
<title>Node23&#45;&gt;Node6</title>
<path fill="none" stroke="#191970" d="M1024.7015,-269.3814C1021.6078,-268.8858 1018.5408,-268.4219 1015.5328,-268 919.4761,-254.5256 665.3692,-279.0237 580.5328,-232 537.7662,-208.295 496.3047,-168.9192 530.5328,-134 565.5595,-98.2661 2281.5277,-99.8086 2331.5328,-98 2427.4738,-94.5301 2540.7818,-87.8857 2595.1907,-84.5366"/>
<polygon fill="#191970" stroke="#191970" points="2595.5001,-88.0242 2605.2645,-83.9126 2595.0673,-81.0376 2595.5001,-88.0242"/>
</g>
<!-- Node23&#45;&gt;Node9 -->
<g id="edge39" class="edge">
<title>Node23&#45;&gt;Node9</title>
<path fill="none" stroke="#191970" d="M1162.2968,-269.1316C1165.0733,-268.7184 1167.8266,-268.3383 1170.5328,-268 1487.5769,-228.3645 1569.4368,-248.2982 1888.5328,-232 1966.4206,-228.0218 2055.754,-223.3624 2116.1379,-220.1986"/>
<polygon fill="#191970" stroke="#191970" points="2116.5162,-223.6837 2126.3192,-219.665 2116.1497,-216.6933 2116.5162,-223.6837"/>
</g>
<!-- Node23&#45;&gt;Node15 -->
<g id="edge40" class="edge">
<title>Node23&#45;&gt;Node15</title>
<path fill="none" stroke="#191970" d="M1024.6552,-269.6708C1021.574,-269.0969 1018.5223,-268.5374 1015.5328,-268 930.8947,-252.785 833.2701,-237.3826 768.3268,-227.4387"/>
<polygon fill="#191970" stroke="#191970" points="768.6052,-223.9407 758.1914,-225.8905 767.5482,-230.8605 768.6052,-223.9407"/>
</g>
<!-- Node23&#45;&gt;Node20 -->
<g id="edge37" class="edge">
<title>Node23&#45;&gt;Node20</title>
<path fill="none" stroke="#191970" d="M1024.6967,-269.4153C1021.6043,-268.9106 1018.5389,-268.4355 1015.5328,-268 972.2459,-261.7289 653.0127,-264.3113 623.5328,-232 608.1104,-215.0963 613.4684,-187.2118 619.693,-168.6032"/>
<polygon fill="#191970" stroke="#191970" points="623.0181,-169.7029 623.2106,-159.1098 616.4541,-167.2707 623.0181,-169.7029"/>
</g>
<!-- Node24 -->
<g id="node25" class="node">
<title>Node24</title>
<g id="a_node25"><a xlink:title=" ">
<polygon fill="#ffffff" stroke="#bfbfbf" points="1581.0328,-207 1581.0328,-226 1664.0328,-226 1664.0328,-207 1581.0328,-207"/>
<text text-anchor="middle" x="1622.5328" y="-214" font-family="Helvetica,sans-Serif" font-size="10.00" fill="#000000">initializer_list</text>
</a>
</g>
</g>
<!-- Node23&#45;&gt;Node24 -->
<g id="edge35" class="edge">
<title>Node23&#45;&gt;Node24</title>
<path fill="none" stroke="#191970" d="M1162.3276,-269.3497C1165.0956,-268.8761 1167.8387,-268.4239 1170.5328,-268 1314.8957,-245.288 1486.7042,-228.5033 1570.8665,-220.9427"/>
<polygon fill="#191970" stroke="#191970" points="1571.2822,-224.4196 1580.9317,-220.0451 1570.6603,-217.4473 1571.2822,-224.4196"/>
</g>
<!-- Node25&#45;&gt;Node0 -->
<g id="edge52" class="edge">
<title>Node25&#45;&gt;Node0</title>
<path fill="none" stroke="#191970" d="M2402.2603,-298.5295C2401.0099,-298.6945 2399.7665,-298.8516 2398.5328,-299 2207.8903,-321.9265 1626.1971,-337.9312 1408.6917,-343.154"/>
<polygon fill="#191970" stroke="#191970" points="1408.5262,-339.6569 1398.6126,-343.3946 1408.6933,-346.6549 1408.5262,-339.6569"/>
</g>
<!-- Node25&#45;&gt;Node5 -->
<g id="edge44" class="edge">
<title>Node25&#45;&gt;Node5</title>
<path fill="none" stroke="#191970" d="M2398.721,-269.2318C2395.622,-268.7768 2392.5486,-268.3623 2389.5328,-268 2360.0734,-264.4609 1432.4574,-226.3606 1230.2164,-218.0816"/>
<polygon fill="#191970" stroke="#191970" points="1230.2013,-214.5782 1220.0665,-217.6663 1229.915,-221.5723 1230.2013,-214.5782"/>
</g>
<!-- Node25&#45;&gt;Node6 -->
<g id="edge45" class="edge">
<title>Node25&#45;&gt;Node6</title>
<path fill="none" stroke="#191970" d="M2536.3042,-277.8712C2576.0882,-274.7223 2627.1161,-270.8663 2672.5328,-268 2712.0049,-265.5089 3356.2826,-260.6649 3383.5328,-232 3393.0257,-222.0144 3392.8941,-211.1091 3383.5328,-201 3312.6613,-124.4675 3012.3786,-203.7413 2915.5328,-165 2895.296,-156.9047 2897.2595,-143.2693 2877.5328,-134 2802.5102,-98.7479 2775.5902,-115.3439 2694.5328,-98 2683.2082,-95.5769 2670.8463,-92.7647 2659.8591,-90.2061"/>
<polygon fill="#191970" stroke="#191970" points="2660.3601,-86.7287 2649.8249,-87.8518 2658.761,-93.5436 2660.3601,-86.7287"/>
</g>
<!-- Node25&#45;&gt;Node8 -->
<g id="edge47" class="edge">
<title>Node25&#45;&gt;Node8</title>
<path fill="none" stroke="#191970" d="M2536.395,-283.2594C2791.8293,-282.0343 3672.5453,-274.7166 3713.5328,-232 3940.5549,4.5992 3063.3298,-47.6622 2856.5328,-31 2821.2393,-28.1563 2782.0307,-24.7669 2749.4152,-21.8838"/>
<polygon fill="#191970" stroke="#191970" points="2749.3407,-18.3636 2739.0707,-20.9669 2748.7226,-25.3363 2749.3407,-18.3636"/>
</g>
<!-- Node25&#45;&gt;Node9 -->
<g id="edge48" class="edge">
<title>Node25&#45;&gt;Node9</title>
<path fill="none" stroke="#191970" d="M2404.4709,-268.4639C2360.6023,-258.0041 2302.0862,-244.0519 2256.7343,-233.2384"/>
<polygon fill="#191970" stroke="#191970" points="2257.5139,-229.8263 2246.9748,-230.9114 2255.8903,-236.6354 2257.5139,-229.8263"/>
</g>
<!-- Node25&#45;&gt;Node24 -->
<g id="edge43" class="edge">
<title>Node25&#45;&gt;Node24</title>
<path fill="none" stroke="#191970" d="M2398.7148,-269.2818C2395.6175,-268.8132 2392.5461,-268.3822 2389.5328,-268 2106.9036,-232.1483 2033.3039,-257.2707 1749.5328,-232 1724.7826,-229.7959 1697.4121,-226.5584 1674.4376,-223.6114"/>
<polygon fill="#191970" stroke="#191970" points="1674.584,-220.1011 1664.2162,-222.2826 1673.6816,-227.0427 1674.584,-220.1011"/>
</g>
<!-- Node26 -->
<g id="node27" class="node">
<title>Node26</title>
<g id="a_node27"><a xlink:title=" ">
<polygon fill="#ffffff" stroke="#bfbfbf" points="3281.0328,-207 3281.0328,-226 3374.0328,-226 3374.0328,-207 3281.0328,-207"/>
<text text-anchor="middle" x="3327.5328" y="-214" font-family="Helvetica,sans-Serif" font-size="10.00" fill="#000000">unordered_map</text>
</a>
</g>
</g>
<!-- Node25&#45;&gt;Node26 -->
<g id="edge46" class="edge">
<title>Node25&#45;&gt;Node26</title>
<path fill="none" stroke="#191970" d="M2536.3183,-280.6997C2703.3047,-273.6382 3126.6562,-254.0854 3266.5328,-232 3272.41,-231.072 3278.5469,-229.8376 3284.567,-228.4689"/>
<polygon fill="#191970" stroke="#191970" points="3285.6204,-231.8153 3294.5219,-226.0694 3283.9801,-225.0102 3285.6204,-231.8153"/>
</g>
<!-- Node27 -->
<g id="node28" class="node">
<title>Node27</title>
<g id="a_node28"><a xlink:href="random_8h.html" target="_top" xlink:title=" ">
<polygon fill="#ffffff" stroke="#000000" points="2712.5328,-207 2712.5328,-226 2852.5328,-226 2852.5328,-207 2712.5328,-207"/>
<text text-anchor="middle" x="2782.5328" y="-214" font-family="Helvetica,sans-Serif" font-size="10.00" fill="#000000">drake/common/random.h</text>
</a>
</g>
</g>
<!-- Node25&#45;&gt;Node27 -->
<g id="edge49" class="edge">
<title>Node25&#45;&gt;Node27</title>
<path fill="none" stroke="#191970" d="M2536.2717,-268.8794C2593.7538,-256.653 2674.6563,-239.4452 2727.8198,-228.1374"/>
<polygon fill="#191970" stroke="#191970" points="2728.6864,-231.5314 2737.7394,-226.0275 2727.2301,-224.6846 2728.6864,-231.5314"/>
</g>
<!-- Node27&#45;&gt;Node8 -->
<g id="edge51" class="edge">
<title>Node27&#45;&gt;Node8</title>
<path fill="none" stroke="#191970" d="M2783.5028,-206.9256C2784.7234,-191.1006 2785.5814,-158.7762 2775.5328,-134 2759.8224,-95.2637 2726.8212,-59.4102 2703.694,-37.5098"/>
<polygon fill="#191970" stroke="#191970" points="2705.9839,-34.8602 2696.2686,-30.6337 2701.2277,-39.9963 2705.9839,-34.8602"/>
</g>
<!-- Node28 -->
<g id="node29" class="node">
<title>Node28</title>
<g id="a_node29"><a xlink:title=" ">
<polygon fill="#ffffff" stroke="#bfbfbf" points="2712.5328,-140 2712.5328,-159 2766.5328,-159 2766.5328,-140 2712.5328,-140"/>
<text text-anchor="middle" x="2739.5328" y="-147" font-family="Helvetica,sans-Serif" font-size="10.00" fill="#000000">random</text>
</a>
</g>
</g>
<!-- Node27&#45;&gt;Node28 -->
<g id="edge50" class="edge">
<title>Node27&#45;&gt;Node28</title>
<path fill="none" stroke="#191970" d="M2776.372,-206.9005C2769.7942,-196.6515 2759.2196,-180.1747 2751.0835,-167.4976"/>
<polygon fill="#191970" stroke="#191970" points="2754.0291,-165.6071 2745.6822,-159.0817 2748.138,-169.388 2754.0291,-165.6071"/>
</g>
<!-- Node29&#45;&gt;Node0 -->
<g id="edge94" class="edge">
<title>Node29&#45;&gt;Node0</title>
<path fill="none" stroke="#191970" d="M2243.9506,-288.0059C2067.7153,-299.2348 1599.7659,-328.3958 1408.5966,-340.066"/>
<polygon fill="#191970" stroke="#191970" points="1408.3725,-336.5731 1398.6041,-340.6754 1408.7987,-343.5601 1408.3725,-336.5731"/>
</g>
<!-- Node29&#45;&gt;Node2 -->
<g id="edge55" class="edge">
<title>Node29&#45;&gt;Node2</title>
<path fill="none" stroke="#191970" d="M2243.9384,-282.6787C2097.8101,-280.2087 1745.2423,-270.417 1452.5328,-232 1384.1729,-223.028 1368.9293,-209.6888 1300.5328,-201 992.3749,-161.8528 905.0545,-235.5299 602.5328,-165 599.8903,-164.3839 597.1976,-163.5837 594.5344,-162.6717"/>
<polygon fill="#191970" stroke="#191970" points="595.7491,-159.3887 585.1611,-159.008 593.2007,-165.9083 595.7491,-159.3887"/>
</g>
<!-- Node29&#45;&gt;Node3 -->
<g id="edge56" class="edge">
<title>Node29&#45;&gt;Node3</title>
<path fill="none" stroke="#191970" d="M2243.7379,-280.8713C2071.9967,-274.0037 1633.7213,-254.4902 1571.5328,-232 1549.3774,-223.9876 1549.615,-211.5169 1528.5328,-201 1488.5978,-181.0783 1439.3993,-166.9859 1404.9705,-158.6367"/>
<polygon fill="#191970" stroke="#191970" points="1405.7669,-155.2286 1395.2297,-156.332 1404.1551,-162.0405 1405.7669,-155.2286"/>
</g>
<!-- Node29&#45;&gt;Node4 -->
<g id="edge59" class="edge">
<title>Node29&#45;&gt;Node4</title>
<path fill="none" stroke="#191970" d="M2375.6274,-268.4349C2414.1325,-258.302 2458.8746,-244.5519 2474.5328,-232 2511.1094,-202.6797 2542.6588,-170.7315 2513.5328,-134 2491.3915,-106.0771 2389.8607,-91.8482 2332.7839,-85.9405"/>
<polygon fill="#191970" stroke="#191970" points="2332.9708,-82.4418 2322.6729,-84.9328 2332.2765,-89.4073 2332.9708,-82.4418"/>
</g>
<!-- Node29&#45;&gt;Node5 -->
<g id="edge60" class="edge">
<title>Node29&#45;&gt;Node5</title>
<path fill="none" stroke="#191970" d="M2243.9122,-281.3548C2043.5427,-274.8922 1461.5607,-254.6539 1272.5328,-232 1258.599,-230.3301 1243.461,-227.6668 1230.0835,-225.0155"/>
<polygon fill="#191970" stroke="#191970" points="1230.7439,-221.5782 1220.2459,-223.007 1229.3436,-228.4367 1230.7439,-221.5782"/>
</g>
<!-- Node29&#45;&gt;Node6 -->
<g id="edge62" class="edge">
<title>Node29&#45;&gt;Node6</title>
<path fill="none" stroke="#191970" d="M2381.369,-269.5863C2384.1256,-269.0472 2386.855,-268.5167 2389.5328,-268 2476.068,-251.3035 2512.739,-283.1151 2584.5328,-232 2625.8614,-202.5752 2629.6901,-135.8349 2628.7998,-102.3869"/>
<polygon fill="#191970" stroke="#191970" points="2632.2816,-101.8952 2628.3419,-92.0601 2625.2884,-102.2054 2632.2816,-101.8952"/>
</g>
<!-- Node29&#45;&gt;Node7 -->
<g id="edge67" class="edge">
<title>Node29&#45;&gt;Node7</title>
<path fill="none" stroke="#191970" d="M2243.7542,-268.6266C2160.0919,-250.8803 2014.4253,-221.0924 1888.5328,-201 1755.4505,-179.7602 1597.0133,-162.0763 1521.2321,-154.0826"/>
<polygon fill="#191970" stroke="#191970" points="1521.4095,-150.5821 1511.0989,-153.0196 1520.6791,-157.5439 1521.4095,-150.5821"/>
</g>
<!-- Node29&#45;&gt;Node8 -->
<g id="edge74" class="edge">
<title>Node29&#45;&gt;Node8</title>
<path fill="none" stroke="#191970" d="M2381.294,-269.109C2384.0713,-268.7021 2386.8255,-268.3295 2389.5328,-268 2435.1289,-262.4512 3183.7686,-265.1787 3215.5328,-232 3268.5231,-176.6499 3229.3834,-109.3639 3165.5328,-67 3156.956,-61.3094 2882.5382,-34.7453 2749.4896,-22.1538"/>
<polygon fill="#191970" stroke="#191970" points="2749.671,-18.6555 2739.386,-21.1988 2749.0122,-25.6244 2749.671,-18.6555"/>
</g>
<!-- Node29&#45;&gt;Node9 -->
<g id="edge78" class="edge">
<title>Node29&#45;&gt;Node9</title>
<path fill="none" stroke="#191970" d="M2284.256,-268.4639C2266.4671,-259.0047 2243.3069,-246.6894 2223.9985,-236.4222"/>
<polygon fill="#191970" stroke="#191970" points="2225.6239,-233.3225 2215.1512,-231.7177 2222.3373,-239.503 2225.6239,-233.3225"/>
</g>
<!-- Node29&#45;&gt;Node10 -->
<g id="edge65" class="edge">
<title>Node29&#45;&gt;Node10</title>
<path fill="none" stroke="#191970" d="M2381.355,-269.5118C2384.1155,-268.9934 2386.8495,-268.4875 2389.5328,-268 2487.8788,-250.1342 2533.0525,-293.9027 2611.5328,-232 2671.401,-184.7779 2711.3819,-121.9645 2658.5328,-67 2623.1961,-30.2488 1790.9133,-43.6848 1741.5328,-31 1739.6096,-30.506 1737.6671,-29.8817 1735.7422,-29.1691"/>
<polygon fill="#191970" stroke="#191970" points="1736.9977,-25.8975 1726.4358,-25.0624 1734.1716,-32.3017 1736.9977,-25.8975"/>
</g>
<!-- Node29&#45;&gt;Node13 -->
<g id="edge73" class="edge">
<title>Node29&#45;&gt;Node13</title>
<path fill="none" stroke="#191970" d="M2307.8711,-268.3489C2297.3482,-237.0261 2268.5275,-165.4478 2216.5328,-134 2173.5292,-107.9902 1849.2579,-91.4595 1703.3253,-85.2634"/>
<polygon fill="#191970" stroke="#191970" points="1703.2709,-81.7582 1693.1327,-84.8352 1702.9769,-88.752 1703.2709,-81.7582"/>
</g>
<!-- Node29&#45;&gt;Node14 -->
<g id="edge63" class="edge">
<title>Node29&#45;&gt;Node14</title>
<path fill="none" stroke="#191970" d="M2312.1175,-268.2826C2311.1685,-251.2444 2308.1315,-223.1234 2298.5328,-201 2283.6375,-166.6689 2278.72,-154.6846 2247.5328,-134 2113.7501,-45.2702 1917.6356,-22.9704 1830.3223,-17.3726"/>
<polygon fill="#191970" stroke="#191970" points="1830.4161,-13.872 1820.2252,-16.7694 1829.9986,-20.8596 1830.4161,-13.872"/>
</g>
<!-- Node29&#45;&gt;Node15 -->
<g id="edge92" class="edge">
<title>Node29&#45;&gt;Node15</title>
<path fill="none" stroke="#191970" d="M2243.8976,-280.8713C2052.3864,-273.5072 1495.8953,-251.9101 1033.5328,-232 942.1239,-228.0638 836.8269,-223.1797 768.3781,-219.9581"/>
<polygon fill="#191970" stroke="#191970" points="768.2885,-216.4501 758.1349,-219.4755 767.959,-223.4424 768.2885,-216.4501"/>
</g>
<!-- Node29&#45;&gt;Node18 -->
<g id="edge58" class="edge">
<title>Node29&#45;&gt;Node18</title>
<path fill="none" stroke="#191970" d="M2243.8164,-281.4151C2031.0158,-274.7617 1391.7183,-253.2261 1300.5328,-232 1266.6,-224.1012 1262.4629,-208.9105 1228.5328,-201 1077.272,-165.7351 685.4345,-176.3542 530.5328,-165 483.6664,-161.5647 429.3578,-156.1027 396.7618,-152.664"/>
<polygon fill="#191970" stroke="#191970" points="396.8961,-149.1586 386.582,-151.5812 396.1557,-156.1193 396.8961,-149.1586"/>
</g>
<!-- Node29&#45;&gt;Node21 -->
<g id="edge66" class="edge">
<title>Node29&#45;&gt;Node21</title>
<path fill="none" stroke="#191970" d="M2381.2944,-269.1127C2384.0716,-268.7047 2386.8257,-268.3309 2389.5328,-268 2434.024,-262.5613 3164.5538,-264.3936 3195.5328,-232 3232.5229,-193.3209 3179.89,-129.6941 3150.302,-99.4657"/>
<polygon fill="#191970" stroke="#191970" points="3152.5602,-96.7752 3143.0024,-92.2036 3147.6232,-101.7377 3152.5602,-96.7752"/>
</g>
<!-- Node29&#45;&gt;Node22 -->
<g id="edge75" class="edge">
<title>Node29&#45;&gt;Node22</title>
<path fill="none" stroke="#191970" d="M2243.8991,-281.8138C2078.9055,-277.3062 1663.6981,-263.1415 1528.5328,-232 1492.9845,-223.8098 1487.5385,-211.2647 1452.5328,-201 1383.3269,-180.7068 1301.9862,-166.7433 1245.2367,-158.5285"/>
<polygon fill="#191970" stroke="#191970" points="1245.6825,-155.0567 1235.2887,-157.1108 1244.6949,-161.9867 1245.6825,-155.0567"/>
</g>
<!-- Node29&#45;&gt;Node26 -->
<g id="edge64" class="edge">
<title>Node29&#45;&gt;Node26</title>
<path fill="none" stroke="#191970" d="M2381.2929,-269.1003C2384.0706,-268.6957 2386.8251,-268.326 2389.5328,-268 2776.8412,-221.3635 2880.5166,-288.34 3266.5328,-232 3272.559,-231.1205 3278.8525,-229.8892 3285.0114,-228.5011"/>
<polygon fill="#191970" stroke="#191970" points="3286.2763,-231.7966 3295.1782,-226.0513 3284.6365,-224.9913 3286.2763,-231.7966"/>
</g>
<!-- Node29&#45;&gt;Node27 -->
<g id="edge93" class="edge">
<title>Node29&#45;&gt;Node27</title>
<path fill="none" stroke="#191970" d="M2381.3289,-269.3584C2384.0966,-268.8824 2386.8393,-268.4273 2389.5328,-268 2526.0878,-246.3392 2561.8072,-252.5559 2698.5328,-232 2706.7542,-230.764 2715.4033,-229.3259 2723.8983,-227.8337"/>
<polygon fill="#191970" stroke="#191970" points="2724.5393,-231.2747 2733.7653,-226.0658 2723.3047,-224.3844 2724.5393,-231.2747"/>
</g>
<!-- Node29&#45;&gt;Node28 -->
<g id="edge61" class="edge">
<title>Node29&#45;&gt;Node28</title>
<path fill="none" stroke="#191970" d="M2381.3379,-269.4136C2384.1031,-268.9223 2386.8428,-268.4489 2389.5328,-268 2509.378,-248.0003 2552.1812,-286.98 2660.5328,-232 2689.8445,-217.1266 2714.3171,-186.9286 2727.9292,-167.4852"/>
<polygon fill="#191970" stroke="#191970" points="2730.8559,-169.4054 2733.5554,-159.1602 2725.0561,-165.4858 2730.8559,-169.4054"/>
</g>
<!-- Node30 -->
<g id="node31" class="node">
<title>Node30</title>
<g id="a_node31"><a xlink:title=" ">
<polygon fill="#ffffff" stroke="#bfbfbf" points="1042.5328,-207 1042.5328,-226 1106.5328,-226 1106.5328,-207 1042.5328,-207"/>
<text text-anchor="middle" x="1074.5328" y="-214" font-family="Helvetica,sans-Serif" font-size="10.00" fill="#000000">algorithm</text>
</a>
</g>
</g>
<!-- Node29&#45;&gt;Node30 -->
<g id="edge54" class="edge">
<title>Node29&#45;&gt;Node30</title>
<path fill="none" stroke="#191970" d="M2243.9939,-281.0527C2011.5203,-272.669 1261.4636,-244.9128 1153.5328,-232 1141.5112,-230.5617 1128.5797,-228.3221 1116.7307,-225.988"/>
<polygon fill="#191970" stroke="#191970" points="1117.1445,-222.5004 1106.6467,-223.9304 1115.745,-229.3591 1117.1445,-222.5004"/>
</g>
<!-- Node31 -->
<g id="node32" class="node">
<title>Node31</title>
<g id="a_node32"><a xlink:title=" ">
<polygon fill="#ffffff" stroke="#bfbfbf" points="2824.5328,-140 2824.5328,-159 2868.5328,-159 2868.5328,-140 2824.5328,-140"/>
<text text-anchor="middle" x="2846.5328" y="-147" font-family="Helvetica,sans-Serif" font-size="10.00" fill="#000000">limits</text>
</a>
</g>
</g>
<!-- Node29&#45;&gt;Node31 -->
<g id="edge57" class="edge">
<title>Node29&#45;&gt;Node31</title>
<path fill="none" stroke="#191970" d="M2381.3002,-269.1582C2384.0758,-268.7376 2386.828,-268.3488 2389.5328,-268 2458.1912,-259.1475 2964.0174,-282.3451 3011.5328,-232 3020.9895,-221.9801 3019.8635,-211.9739 3011.5328,-201 2975.5417,-153.5896 2938.6621,-184.8144 2882.5328,-165 2880.7041,-164.3544 2878.8363,-163.6605 2876.961,-162.937"/>
<polygon fill="#191970" stroke="#191970" points="2878.2473,-159.6818 2867.6654,-159.1596 2875.612,-166.1668 2878.2473,-159.6818"/>
</g>
<!-- Node32 -->
<g id="node33" class="node">
<title>Node32</title>
<g id="a_node33"><a xlink:title=" ">
<polygon fill="#ffffff" stroke="#bfbfbf" points="3430.5328,-207 3430.5328,-226 3510.5328,-226 3510.5328,-207 3430.5328,-207"/>
<text text-anchor="middle" x="3470.5328" y="-214" font-family="Helvetica,sans-Serif" font-size="10.00" fill="#000000">Eigen/Sparse</text>
</a>
</g>
</g>
<!-- Node29&#45;&gt;Node32 -->
<g id="edge68" class="edge">
<title>Node29&#45;&gt;Node32</title>
<path fill="none" stroke="#191970" d="M2381.291,-269.0836C2384.0691,-268.6837 2386.8244,-268.3195 2389.5328,-268 2828.5561,-216.2104 2943.9586,-278.8841 3383.5328,-232 3395.5703,-230.7161 3408.4526,-228.7511 3420.5153,-226.6468"/>
<polygon fill="#191970" stroke="#191970" points="3421.1999,-230.0799 3430.4187,-224.8584 3419.9558,-223.1914 3421.1999,-230.0799"/>
</g>
<!-- Node33 -->
<g id="node34" class="node">
<title>Node33</title>
<g id="a_node34"><a xlink:href="cond_8h.html" target="_top" xlink:title=" ">
<polygon fill="#ffffff" stroke="#000000" points="2341.0328,-207 2341.0328,-226 2466.0328,-226 2466.0328,-207 2341.0328,-207"/>
<text text-anchor="middle" x="2403.5328" y="-214" font-family="Helvetica,sans-Serif" font-size="10.00" fill="#000000">drake/common/cond.h</text>
</a>
</g>
</g>
<!-- Node29&#45;&gt;Node33 -->
<g id="edge69" class="edge">
<title>Node29&#45;&gt;Node33</title>
<path fill="none" stroke="#191970" d="M2333.1821,-268.2967C2347.911,-257.4524 2367.6514,-242.9182 2382.4724,-232.006"/>
<polygon fill="#191970" stroke="#191970" points="2384.5775,-234.8025 2390.5552,-226.055 2380.4272,-229.1655 2384.5775,-234.8025"/>
</g>
<!-- Node35 -->
<g id="node36" class="node">
<title>Node35</title>
<g id="a_node36"><a xlink:href="dummy__value_8h.html" target="_top" xlink:title=" ">
<polygon fill="#ffffff" stroke="#000000" points="2871.0328,-201.5 2871.0328,-231.5 3002.0328,-231.5 3002.0328,-201.5 2871.0328,-201.5"/>
<text text-anchor="start" x="2879.0328" y="-219.5" font-family="Helvetica,sans-Serif" font-size="10.00" fill="#000000">drake/common/dummy</text>
<text text-anchor="middle" x="2936.5328" y="-208.5" font-family="Helvetica,sans-Serif" font-size="10.00" fill="#000000">_value.h</text>
</a>
</g>
</g>
<!-- Node29&#45;&gt;Node35 -->
<g id="edge76" class="edge">
<title>Node29&#45;&gt;Node35</title>
<path fill="none" stroke="#191970" d="M2381.3086,-269.2213C2384.0819,-268.7832 2386.8313,-268.3735 2389.5328,-268 2594.6812,-239.6372 2651.4386,-260.6697 2860.6851,-231.9906"/>
<polygon fill="#191970" stroke="#191970" points="2861.344,-235.4327 2870.7657,-230.5869 2860.3785,-228.4996 2861.344,-235.4327"/>
</g>
<!-- Node36 -->
<g id="node37" class="node">
<title>Node36</title>
<g id="a_node37"><a xlink:href="extract__double_8h.html" target="_top" xlink:title=" ">
<polygon fill="#ffffff" stroke="#000000" points="3058.5328,-201.5 3058.5328,-231.5 3186.5328,-231.5 3186.5328,-201.5 3058.5328,-201.5"/>
<text text-anchor="start" x="3066.5328" y="-219.5" font-family="Helvetica,sans-Serif" font-size="10.00" fill="#000000">drake/common/extract</text>
<text text-anchor="middle" x="3122.5328" y="-208.5" font-family="Helvetica,sans-Serif" font-size="10.00" fill="#000000">_double.h</text>
</a>
</g>
</g>
<!-- Node29&#45;&gt;Node36 -->
<g id="edge79" class="edge">
<title>Node29&#45;&gt;Node36</title>
<path fill="none" stroke="#191970" d="M2381.2989,-269.1482C2384.0748,-268.7304 2386.8275,-268.3448 2389.5328,-268 2678.7435,-231.1375 2755.2766,-268.5036 3044.5328,-232 3045.8041,-231.8396 3047.0858,-231.6704 3048.3754,-231.4933"/>
<polygon fill="#191970" stroke="#191970" points="3049.0059,-234.938 3058.377,-229.9951 3047.9688,-228.0152 3049.0059,-234.938"/>
</g>
<!-- Node33&#45;&gt;Node3 -->
<g id="edge70" class="edge">
<title>Node33&#45;&gt;Node3</title>
<path fill="none" stroke="#191970" d="M2340.9564,-209.0974C2314.6152,-206.202 2283.6158,-203.0828 2255.5328,-201 1890.4081,-173.9196 1795.5322,-212.758 1432.5328,-165 1423.5665,-163.8203 1414.0511,-162.0618 1405.0207,-160.1479"/>
<polygon fill="#191970" stroke="#191970" points="1405.6069,-156.6929 1395.0862,-157.9437 1404.0906,-163.5267 1405.6069,-156.6929"/>
</g>
<!-- Node33&#45;&gt;Node14 -->
<g id="edge71" class="edge">
<title>Node33&#45;&gt;Node14</title>
<path fill="none" stroke="#191970" d="M2396.0933,-206.6306C2388.7133,-196.5403 2377.3985,-180.2308 2369.5328,-165 2348.0972,-123.4929 2368.7936,-95.1772 2331.5328,-67 2291.9157,-37.0409 1954.1183,-21.7049 1830.562,-17.0581"/>
<polygon fill="#191970" stroke="#191970" points="1830.4399,-13.5513 1820.3172,-16.6789 1830.1809,-20.5465 1830.4399,-13.5513"/>
</g>
<!-- Node34 -->
<g id="node35" class="node">
<title>Node34</title>
<g id="a_node35"><a xlink:href="double__overloads_8h.html" target="_top" xlink:title="Provides necessary operations on double to have it as a ScalarType in drake.">
<polygon fill="#ffffff" stroke="#000000" points="2378.5328,-134.5 2378.5328,-164.5 2504.5328,-164.5 2504.5328,-134.5 2378.5328,-134.5"/>
<text text-anchor="start" x="2386.5328" y="-152.5" font-family="Helvetica,sans-Serif" font-size="10.00" fill="#000000">drake/common/double</text>
<text text-anchor="middle" x="2441.5328" y="-141.5" font-family="Helvetica,sans-Serif" font-size="10.00" fill="#000000">_overloads.h</text>
</a>
</g>
</g>
<!-- Node33&#45;&gt;Node34 -->
<g id="edge72" class="edge">
<title>Node33&#45;&gt;Node34</title>
<path fill="none" stroke="#191970" d="M2408.9773,-206.9005C2413.9324,-198.1638 2421.4542,-184.9018 2428.0198,-173.3256"/>
<polygon fill="#191970" stroke="#191970" points="2431.124,-174.9468 2433.013,-164.5218 2425.0351,-171.4934 2431.124,-174.9468"/>
</g>
<!-- Node35&#45;&gt;Node31 -->
<g id="edge77" class="edge">
<title>Node35&#45;&gt;Node31</title>
<path fill="none" stroke="#191970" d="M2916.1104,-201.2967C2901.6796,-190.5537 2882.3844,-176.1895 2867.7741,-165.3129"/>
<polygon fill="#191970" stroke="#191970" points="2869.4792,-162.219 2859.3679,-159.055 2865.2992,-167.8339 2869.4792,-162.219"/>
</g>
<!-- Node37 -->
<g id="node38" class="node">
<title>Node37</title>
<g id="a_node38"><a xlink:title=" ">
<polygon fill="#ffffff" stroke="#bfbfbf" points="3083.0328,-140 3083.0328,-159 3148.0328,-159 3148.0328,-140 3083.0328,-140"/>
<text text-anchor="middle" x="3115.5328" y="-147" font-family="Helvetica,sans-Serif" font-size="10.00" fill="#000000">stdexcept</text>
</a>
</g>
</g>
<!-- Node36&#45;&gt;Node37 -->
<g id="edge80" class="edge">
<title>Node36&#45;&gt;Node37</title>
<path fill="none" stroke="#191970" d="M3120.9444,-201.2967C3119.9491,-191.7699 3118.6562,-179.3954 3117.5838,-169.1306"/>
<polygon fill="#191970" stroke="#191970" points="3121.0514,-168.6371 3116.5311,-159.055 3114.0893,-169.3646 3121.0514,-168.6371"/>
</g>
<!-- Node38 -->
<g id="node39" class="node">
<title>Node38</title>
<g id="a_node39"><a xlink:href="nice__type__name_8h.html" target="_top" xlink:title=" ">
<polygon fill="#ffffff" stroke="#000000" points="2924.5328,-134.5 2924.5328,-164.5 3064.5328,-164.5 3064.5328,-134.5 2924.5328,-134.5"/>
<text text-anchor="start" x="2932.5328" y="-152.5" font-family="Helvetica,sans-Serif" font-size="10.00" fill="#000000">drake/common/nice_type</text>
<text text-anchor="middle" x="2994.5328" y="-141.5" font-family="Helvetica,sans-Serif" font-size="10.00" fill="#000000">_name.h</text>
</a>
</g>
</g>
<!-- Node36&#45;&gt;Node38 -->
<g id="edge81" class="edge">
<title>Node36&#45;&gt;Node38</title>
<path fill="none" stroke="#191970" d="M3093.8071,-201.4639C3075.7359,-192.0047 3052.2081,-179.6894 3032.5932,-169.4222"/>
<polygon fill="#191970" stroke="#191970" points="3034.0883,-166.2544 3023.6055,-164.7177 3030.8421,-172.4562 3034.0883,-166.2544"/>
</g>
<!-- Node38&#45;&gt;Node4 -->
<g id="edge82" class="edge">
<title>Node38&#45;&gt;Node4</title>
<path fill="none" stroke="#191970" d="M2924.3724,-139.6973C2908.9565,-137.6853 2892.7059,-135.6733 2877.5328,-134 2672.9619,-111.4403 2427.2048,-92.3884 2332.9561,-85.3779"/>
<polygon fill="#191970" stroke="#191970" points="2332.9766,-81.8699 2322.7453,-84.6214 2332.4594,-88.8507 2332.9766,-81.8699"/>
</g>
<!-- Node38&#45;&gt;Node6 -->
<g id="edge83" class="edge">
<title>Node38&#45;&gt;Node6</title>
<path fill="none" stroke="#191970" d="M2924.4088,-136.5471C2919.7131,-135.6839 2915.0547,-134.8286 2910.5328,-134 2819.5421,-117.3259 2712.0582,-97.8178 2659.5903,-88.3073"/>
<polygon fill="#191970" stroke="#191970" points="2660.0169,-84.8276 2649.553,-86.4881 2658.7685,-91.7154 2660.0169,-84.8276"/>
</g>
<!-- Node38&#45;&gt;Node10 -->
<g id="edge85" class="edge">
<title>Node38&#45;&gt;Node10</title>
<path fill="none" stroke="#191970" d="M2941.6703,-134.421C2859.8748,-111.1386 2710.7221,-68.901 2698.5328,-67 2488.2575,-34.2065 1947.7011,-83.7804 1741.5328,-31 1739.6092,-30.5075 1737.6664,-29.8845 1735.7413,-29.1727"/>
<polygon fill="#191970" stroke="#191970" points="1736.9964,-25.901 1726.4344,-25.0679 1734.1716,-32.3057 1736.9964,-25.901"/>
</g>
<!-- Node38&#45;&gt;Node21 -->
<g id="edge86" class="edge">
<title>Node38&#45;&gt;Node21</title>
<path fill="none" stroke="#191970" d="M3025.5027,-134.4639C3048.8659,-123.1209 3080.6887,-107.6707 3103.5523,-96.5703"/>
<polygon fill="#191970" stroke="#191970" points="3105.2844,-99.62 3112.7516,-92.1039 3102.2271,-93.323 3105.2844,-99.62"/>
</g>
<!-- Node39 -->
<g id="node40" class="node">
<title>Node39</title>
<g id="a_node40"><a xlink:title=" ">
<polygon fill="#ffffff" stroke="#bfbfbf" points="2966.0328,-73 2966.0328,-92 3023.0328,-92 3023.0328,-73 2966.0328,-73"/>
<text text-anchor="middle" x="2994.5328" y="-80" font-family="Helvetica,sans-Serif" font-size="10.00" fill="#000000">typeinfo</text>
</a>
</g>
</g>
<!-- Node38&#45;&gt;Node39 -->
<g id="edge84" class="edge">
<title>Node38&#45;&gt;Node39</title>
<path fill="none" stroke="#191970" d="M2994.5328,-134.2967C2994.5328,-124.7699 2994.5328,-112.3954 2994.5328,-102.1306"/>
<polygon fill="#191970" stroke="#191970" points="2998.0329,-102.0549 2994.5328,-92.055 2991.0329,-102.055 2998.0329,-102.0549"/>
</g>
<!-- Node40 -->
<g id="node41" class="node">
<title>Node40</title>
<g id="a_node41"><a xlink:href="never__destroyed_8h.html" target="_top" xlink:title=" ">
<polygon fill="#ffffff" stroke="#000000" points="2823.0328,-67.5 2823.0328,-97.5 2944.0328,-97.5 2944.0328,-67.5 2823.0328,-67.5"/>
<text text-anchor="start" x="2831.0328" y="-85.5" font-family="Helvetica,sans-Serif" font-size="10.00" fill="#000000">drake/common/never</text>
<text text-anchor="middle" x="2883.5328" y="-74.5" font-family="Helvetica,sans-Serif" font-size="10.00" fill="#000000">_destroyed.h</text>
</a>
</g>
</g>
<!-- Node38&#45;&gt;Node40 -->
<g id="edge87" class="edge">
<title>Node38&#45;&gt;Node40</title>
<path fill="none" stroke="#191970" d="M2969.6223,-134.4639C2954.3057,-125.2188 2934.4689,-113.2452 2917.6979,-103.1222"/>
<polygon fill="#191970" stroke="#191970" points="2919.1143,-99.889 2908.7443,-97.7177 2915.4969,-105.8819 2919.1143,-99.889"/>
</g>
<!-- Node40&#45;&gt;Node8 -->
<g id="edge91" class="edge">
<title>Node40&#45;&gt;Node8</title>
<path fill="none" stroke="#191970" d="M2837.5268,-67.4639C2807.0371,-57.499 2766.8487,-44.3642 2734.5057,-33.7936"/>
<polygon fill="#191970" stroke="#191970" points="2735.332,-30.3815 2724.7395,-30.6017 2733.1574,-37.0352 2735.332,-30.3815"/>
</g>
<!-- Node40&#45;&gt;Node10 -->
<g id="edge90" class="edge">
<title>Node40&#45;&gt;Node10</title>
<path fill="none" stroke="#191970" d="M2822.7904,-74.1983C2800.9883,-71.4992 2776.1946,-68.751 2753.5328,-67 2529.1704,-49.6641 1959.5904,-86.587 1741.5328,-31 1739.6087,-30.5095 1737.6655,-29.8879 1735.7401,-29.1771"/>
<polygon fill="#191970" stroke="#191970" points="1736.9949,-25.9053 1726.4327,-25.0746 1734.1715,-32.3107 1736.9949,-25.9053"/>
</g>
<!-- Node40&#45;&gt;Node14 -->
<g id="edge89" class="edge">
<title>Node40&#45;&gt;Node14</title>
<path fill="none" stroke="#191970" d="M2822.7723,-74.4203C2800.9684,-71.742 2776.1783,-68.9503 2753.5328,-67 2398.5132,-36.4245 1968.5766,-21.1965 1830.5069,-16.8444"/>
<polygon fill="#191970" stroke="#191970" points="1830.421,-13.3401 1820.3166,-16.5263 1830.2026,-20.3367 1830.421,-13.3401"/>
</g>
<!-- Node41 -->
<g id="node42" class="node">
<title>Node41</title>
<g id="a_node42"><a xlink:title=" ">
<polygon fill="#ffffff" stroke="#bfbfbf" points="2865.0328,-6 2865.0328,-25 2902.0328,-25 2902.0328,-6 2865.0328,-6"/>
<text text-anchor="middle" x="2883.5328" y="-13" font-family="Helvetica,sans-Serif" font-size="10.00" fill="#000000">new</text>
</a>
</g>
</g>
<!-- Node40&#45;&gt;Node41 -->
<g id="edge88" class="edge">
<title>Node40&#45;&gt;Node41</title>
<path fill="none" stroke="#191970" d="M2883.5328,-67.2967C2883.5328,-57.7699 2883.5328,-45.3954 2883.5328,-35.1306"/>
<polygon fill="#191970" stroke="#191970" points="2887.0329,-35.0549 2883.5328,-25.055 2880.0329,-35.055 2887.0329,-35.0549"/>
</g>
<!-- Node42&#45;&gt;Node0 -->
<g id="edge99" class="edge">
<title>Node42&#45;&gt;Node0</title>
<path fill="none" stroke="#191970" d="M3566.8046,-227.5703C3554.1185,-229.1962 3540.965,-230.7436 3528.5328,-232 2704.8784,-315.2418 1700.7252,-338.5606 1408.7547,-343.7294"/>
<polygon fill="#191970" stroke="#191970" points="1408.6076,-340.2314 1398.6703,-343.9057 1408.73,-347.2303 1408.6076,-340.2314"/>
</g>
<!-- Node42&#45;&gt;Node10 -->
<g id="edge97" class="edge">
<title>Node42&#45;&gt;Node10</title>
<path fill="none" stroke="#191970" d="M3600.1271,-201.4069C3522.927,-169.3598 3332.9349,-95.1536 3165.5328,-67 2853.3711,-14.5008 2048.6668,-107.6148 1741.5328,-31 1739.6062,-30.5194 1737.6611,-29.9051 1735.7344,-29.1997"/>
<polygon fill="#191970" stroke="#191970" points="1736.9872,-25.9272 1726.4241,-25.1087 1734.1713,-32.3359 1736.9872,-25.9272"/>
</g>
<!-- Node42&#45;&gt;Node13 -->
<g id="edge98" class="edge">
<title>Node42&#45;&gt;Node13</title>
<path fill="none" stroke="#191970" d="M3566.7535,-203.2696C3561.9472,-202.4639 3557.1714,-201.6981 3552.5328,-201 3413.6275,-180.0938 3374.9819,-198.3675 3238.5328,-165 3201.0897,-155.8436 3195.3137,-141.6443 3157.5328,-134 3085.5635,-119.4382 1994.0782,-91.4631 1703.2716,-84.2373"/>
<polygon fill="#191970" stroke="#191970" points="1703.3513,-80.7383 1693.2675,-83.989 1703.1776,-87.7361 1703.3513,-80.7383"/>
</g>
<!-- Node42&#45;&gt;Node37 -->
<g id="edge96" class="edge">
<title>Node42&#45;&gt;Node37</title>
<path fill="none" stroke="#191970" d="M3566.7705,-203.1517C3561.9602,-202.3741 3557.1788,-201.6468 3552.5328,-201 3380.1255,-176.997 3332.9475,-200.4863 3162.5328,-165 3158.6688,-164.1954 3154.6781,-163.1804 3150.7306,-162.0565"/>
<polygon fill="#191970" stroke="#191970" points="3151.6911,-158.6902 3141.104,-159.0962 3149.6335,-165.381 3151.6911,-158.6902"/>
</g>
<!-- Node43&#45;&gt;Node7 -->
<g id="edge101" class="edge">
<title>Node43&#45;&gt;Node7</title>
<path fill="none" stroke="#191970" d="M1208.4881,-268.3953C1173.2114,-252.8787 1130.7194,-227.3339 1153.5328,-201 1190.2846,-158.5768 1348.2725,-174.8343 1403.5328,-165 1412.713,-163.3663 1422.5009,-161.4261 1431.8294,-159.4809"/>
<polygon fill="#191970" stroke="#191970" points="1432.665,-162.8816 1441.721,-157.3825 1431.2123,-156.034 1432.665,-162.8816"/>
</g>
<!-- Node44&#45;&gt;Node0 -->
<g id="edge110" class="edge">
<title>Node44&#45;&gt;Node0</title>
<path fill="none" stroke="#191970" d="M697.0605,-296.2533C702.9739,-297.2813 708.8588,-298.2215 714.5328,-299 902.3403,-324.7676 1124.2735,-336.8302 1242.205,-341.8644"/>
<polygon fill="#191970" stroke="#191970" points="1242.1099,-345.3634 1252.2481,-342.2868 1242.4041,-338.3696 1242.1099,-345.3634"/>
</g>
<!-- Node44&#45;&gt;Node2 -->
<g id="edge103" class="edge">
<title>Node44&#45;&gt;Node2</title>
<path fill="none" stroke="#191970" d="M559.6563,-269.6648C556.5748,-269.0925 553.5227,-268.535 550.5328,-268 500.4725,-259.0423 357.5436,-270.6854 324.5328,-232 315.5895,-221.5193 315.8635,-211.7084 324.5328,-201 349.9552,-169.5982 468.6901,-156.5376 529.8718,-151.8191"/>
<polygon fill="#191970" stroke="#191970" points="530.1671,-155.3069 539.8831,-151.082 529.6531,-148.3258 530.1671,-155.3069"/>
</g>
<!-- Node44&#45;&gt;Node5 -->
<g id="edge105" class="edge">
<title>Node44&#45;&gt;Node5</title>
<path fill="none" stroke="#191970" d="M697.3142,-269.2607C700.0859,-268.8118 702.8335,-268.389 705.5328,-268 886.5861,-241.9107 934.5129,-258.3196 1115.5328,-232 1127.6948,-230.2317 1140.8445,-227.7542 1152.7319,-225.298"/>
<polygon fill="#191970" stroke="#191970" points="1153.7407,-228.6619 1162.7969,-223.1632 1152.2883,-221.8143 1153.7407,-228.6619"/>
</g>
<!-- Node44&#45;&gt;Node7 -->
<g id="edge107" class="edge">
<title>Node44&#45;&gt;Node7</title>
<path fill="none" stroke="#191970" d="M679.7857,-268.4224C714.0235,-258.2843 760.0353,-244.5329 800.5328,-232 843.7689,-218.6195 853.0896,-209.5555 897.5328,-201 1118.9253,-158.381 1180.2853,-196.4887 1403.5328,-165 1412.7658,-163.6977 1422.5769,-161.9026 1431.9113,-159.9947"/>
<polygon fill="#191970" stroke="#191970" points="1432.7462,-163.3956 1441.8032,-157.8982 1431.2948,-156.5477 1432.7462,-163.3956"/>
</g>
<!-- Node44&#45;&gt;Node8 -->
<g id="edge108" class="edge">
<title>Node44&#45;&gt;Node8</title>
<path fill="none" stroke="#191970" d="M559.6837,-269.5016C556.5948,-268.9736 553.5337,-268.4699 550.5328,-268 481.3617,-257.1679 284.1261,-284.2594 237.5328,-232 228.3639,-221.7161 231.8223,-213.5386 237.5328,-201 315.1516,-30.5727 667.371,-68.2651 679.5328,-67 873.973,-46.774 2273.7552,-22.2717 2607.3155,-16.6758"/>
<polygon fill="#191970" stroke="#191970" points="2607.8617,-20.1672 2617.8016,-16.5002 2607.7444,-13.1682 2607.8617,-20.1672"/>
</g>
<!-- Node44&#45;&gt;Node10 -->
<g id="edge106" class="edge">
<title>Node44&#45;&gt;Node10</title>
<path fill="none" stroke="#191970" d="M559.7033,-269.3684C556.6091,-268.8764 553.5415,-268.4168 550.5328,-268 500.4086,-261.0567 130.8711,-269.1689 96.5328,-232 46.77,-178.135 45.5119,-119.6749 96.5328,-67 125.0642,-37.5437 1450.4256,-18.9026 1677.5767,-15.9215"/>
<polygon fill="#191970" stroke="#191970" points="1677.8893,-19.4179 1687.8428,-15.7877 1677.798,-12.4184 1677.8893,-19.4179"/>
</g>
<!-- Node44&#45;&gt;Node15 -->
<g id="edge109" class="edge">
<title>Node44&#45;&gt;Node15</title>
<path fill="none" stroke="#191970" d="M643.7362,-268.2967C654.1751,-257.8578 668.0331,-243.9997 678.7882,-233.2446"/>
<polygon fill="#191970" stroke="#191970" points="681.3816,-235.601 685.9778,-226.055 676.4319,-230.6512 681.3816,-235.601"/>
</g>
<!-- Node44&#45;&gt;Node18 -->
<g id="edge104" class="edge">
<title>Node44&#45;&gt;Node18</title>
<path fill="none" stroke="#191970" d="M559.6812,-269.5172C556.593,-268.9849 553.5327,-268.4761 550.5328,-268 483.7821,-257.4055 293.406,-282.54 248.5328,-232 217.4861,-197.0326 294.3833,-169.3239 338.7506,-156.7867"/>
<polygon fill="#191970" stroke="#191970" points="339.7343,-160.1463 348.46,-154.1369 337.8913,-153.3933 339.7343,-160.1463"/>
</g>
<!-- Node45&#45;&gt;Node0 -->
<g id="edge120" class="edge">
<title>Node45&#45;&gt;Node0</title>
<path fill="none" stroke="#191970" d="M852.0814,-296.1074C857.9906,-297.1649 863.8687,-298.1519 869.5328,-299 999.2539,-318.4229 1150.6073,-331.661 1242.2521,-338.7788"/>
<polygon fill="#191970" stroke="#191970" points="1242.0632,-342.2745 1252.3026,-339.5535 1242.6012,-335.2952 1242.0632,-342.2745"/>
</g>
<!-- Node45&#45;&gt;Node2 -->
<g id="edge112" class="edge">
<title>Node45&#45;&gt;Node2</title>
<path fill="none" stroke="#191970" d="M714.9792,-269.8301C660.1382,-258.2743 590.8969,-242.0414 581.5328,-232 565.8372,-215.1691 563.8064,-187.665 564.549,-169.0878"/>
<polygon fill="#191970" stroke="#191970" points="568.0419,-169.3094 565.2482,-159.0896 561.059,-168.821 568.0419,-169.3094"/>
</g>
<!-- Node45&#45;&gt;Node3 -->
<g id="edge113" class="edge">
<title>Node45&#45;&gt;Node3</title>
<path fill="none" stroke="#191970" d="M796.7575,-268.4099C814.8343,-248.9521 849.2918,-215.8541 886.5328,-201 1064.2542,-130.1134 1128.0534,-203.2261 1315.5328,-165 1319.4002,-164.2115 1323.393,-163.2068 1327.3417,-162.089"/>
<polygon fill="#191970" stroke="#191970" points="1328.4357,-165.4145 1336.9698,-159.136 1326.3831,-158.7222 1328.4357,-165.4145"/>
</g>
<!-- Node45&#45;&gt;Node7 -->
<g id="edge117" class="edge">
<title>Node45&#45;&gt;Node7</title>
<path fill="none" stroke="#191970" d="M814.4093,-268.3478C855.0807,-249.1421 929.3307,-216.6553 996.5328,-201 1173.3923,-159.799 1223.9423,-191.9077 1403.5328,-165 1412.7543,-163.6184 1422.5603,-161.7886 1431.8934,-159.8717"/>
<polygon fill="#191970" stroke="#191970" points="1432.7285,-163.2726 1441.7852,-157.7748 1431.2768,-156.4248 1432.7285,-163.2726"/>
</g>
<!-- Node45&#45;&gt;Node13 -->
<g id="edge118" class="edge">
<title>Node45&#45;&gt;Node13</title>
<path fill="none" stroke="#191970" d="M714.6572,-269.6597C711.5755,-269.0888 708.5231,-268.533 705.5328,-268 534.9943,-237.6042 219.5056,-258.9031 339.5328,-134 360.8584,-111.8081 1293.6162,-89.8625 1561.3681,-84.0112"/>
<polygon fill="#191970" stroke="#191970" points="1561.8181,-87.5023 1571.7395,-83.7853 1561.6657,-80.504 1561.8181,-87.5023"/>
</g>
<!-- Node45&#45;&gt;Node15 -->
<g id="edge119" class="edge">
<title>Node45&#45;&gt;Node15</title>
<path fill="none" stroke="#191970" d="M763.5643,-268.2967C749.4541,-257.5537 730.5877,-243.1895 716.302,-232.3129"/>
<polygon fill="#191970" stroke="#191970" points="718.1593,-229.328 708.0826,-226.055 713.9188,-234.8975 718.1593,-229.328"/>
</g>
<!-- Node45&#45;&gt;Node18 -->
<g id="edge114" class="edge">
<title>Node45&#45;&gt;Node18</title>
<path fill="none" stroke="#191970" d="M714.9465,-268.702C661.3254,-256.8979 591.3642,-240.9142 563.5328,-232 488.9399,-208.1083 472.2241,-196.548 400.5328,-165 398.9794,-164.3164 397.3894,-163.606 395.7875,-162.8819"/>
<polygon fill="#191970" stroke="#191970" points="397.202,-159.68 386.6549,-158.6759 394.2738,-166.0381 397.202,-159.68"/>
</g>
<!-- Node45&#45;&gt;Node20 -->
<g id="edge115" class="edge">
<title>Node45&#45;&gt;Node20</title>
<path fill="none" stroke="#191970" d="M714.9547,-269.4564C662.7071,-258.0628 598.4153,-242.2617 590.5328,-232 575.026,-211.8128 594.0116,-184.0967 610.0133,-166.4905"/>
<polygon fill="#191970" stroke="#191970" points="612.6302,-168.8182 617.0208,-159.1759 607.5755,-163.9757 612.6302,-168.8182"/>
</g>
<!-- Node45&#45;&gt;Node26 -->
<g id="edge116" class="edge">
<title>Node45&#45;&gt;Node26</title>
<path fill="none" stroke="#191970" d="M852.2829,-269.0118C855.0633,-268.6318 857.8212,-268.2913 860.5328,-268 1376.5138,-212.5626 2677.7174,-266.3049 3195.5328,-232 3220.3017,-230.3591 3247.5639,-227.36 3270.8498,-224.4341"/>
<polygon fill="#191970" stroke="#191970" points="3271.4317,-227.8883 3280.9053,-223.1446 3270.5413,-220.9451 3271.4317,-227.8883"/>
</g>
<!-- Node46&#45;&gt;Node0 -->
<g id="edge129" class="edge">
<title>Node46&#45;&gt;Node0</title>
<path fill="none" stroke="#191970" d="M1007.1282,-295.8188C1013.028,-296.9347 1018.8911,-298.0143 1024.5328,-299 1101.8307,-312.5058 1190.4224,-325.3937 1251.4409,-334.0734"/>
<polygon fill="#191970" stroke="#191970" points="1250.9758,-337.5424 1261.3686,-335.4833 1251.9601,-330.6119 1250.9758,-337.5424"/>
</g>
<!-- Node46&#45;&gt;Node3 -->
<g id="edge123" class="edge">
<title>Node46&#45;&gt;Node3</title>
<path fill="none" stroke="#191970" d="M949.1751,-268.2857C963.5896,-249.013 991.2591,-216.4537 1023.5328,-201 1141.4699,-144.5278 1187.9416,-193.6139 1315.5328,-165 1319.185,-164.181 1322.9552,-163.1918 1326.6974,-162.1142"/>
<polygon fill="#191970" stroke="#191970" points="1327.9131,-165.4021 1336.438,-159.1112 1325.8507,-158.7128 1327.9131,-165.4021"/>
</g>
<!-- Node46&#45;&gt;Node5 -->
<g id="edge125" class="edge">
<title>Node46&#45;&gt;Node5</title>
<path fill="none" stroke="#191970" d="M995.311,-268.4639C1043.3602,-255.7394 1110.9263,-237.8464 1152.9284,-226.7233"/>
<polygon fill="#191970" stroke="#191970" points="1154.0005,-230.0601 1162.7712,-224.1167 1152.2084,-223.2934 1154.0005,-230.0601"/>
</g>
<!-- Node46&#45;&gt;Node7 -->
<g id="edge127" class="edge">
<title>Node46&#45;&gt;Node7</title>
<path fill="none" stroke="#191970" d="M957.2297,-268.4669C969.6649,-258.3477 986.2716,-244.6005 1000.5328,-232 1015.6129,-218.676 1015.2047,-209.3077 1033.5328,-201 1184.0163,-132.7894 1240.2446,-190.1977 1403.5328,-165 1412.7481,-163.5779 1422.5515,-161.7304 1431.8839,-159.8091"/>
<polygon fill="#191970" stroke="#191970" points="1432.7191,-163.2099 1441.7757,-157.7119 1431.2672,-156.3621 1432.7191,-163.2099"/>
</g>
<!-- Node46&#45;&gt;Node8 -->
<g id="edge128" class="edge">
<title>Node46&#45;&gt;Node8</title>
<path fill="none" stroke="#191970" d="M869.6861,-269.4859C866.5966,-268.9621 863.5346,-268.4636 860.5328,-268 788.7204,-256.9084 591.6351,-278.1799 535.5328,-232 501.1411,-203.6909 484.0566,-166.4869 514.5328,-134 587.7985,-55.9007 2242.531,-22.9871 2607.6636,-16.662"/>
<polygon fill="#191970" stroke="#191970" points="2607.8954,-20.1586 2617.8336,-16.4869 2607.7748,-13.1596 2607.8954,-20.1586"/>
</g>
<!-- Node46&#45;&gt;Node10 -->
<g id="edge126" class="edge">
<title>Node46&#45;&gt;Node10</title>
<path fill="none" stroke="#191970" d="M869.7002,-269.3909C866.6068,-268.8928 863.5403,-268.4258 860.5328,-268 813.9382,-261.4038 470.3631,-266.6613 438.5328,-232 388.9311,-177.9866 387.738,-119.893 438.5328,-67 482.7381,-20.9687 1482.9262,-16.0769 1677.794,-15.5605"/>
<polygon fill="#191970" stroke="#191970" points="1677.9794,-19.0602 1687.9708,-15.5357 1677.9623,-12.0602 1677.9794,-19.0602"/>
</g>
<!-- Node46&#45;&gt;Node18 -->
<g id="edge124" class="edge">
<title>Node46&#45;&gt;Node18</title>
<path fill="none" stroke="#191970" d="M869.7039,-269.3645C866.6095,-268.8736 863.5417,-268.4152 860.5328,-268 758.9606,-253.9832 483.1296,-292.7549 400.5328,-232 380.5881,-217.3295 372.6809,-188.6261 369.5569,-169.2523"/>
<polygon fill="#191970" stroke="#191970" points="372.9954,-168.5554 368.2155,-159.1 366.0557,-169.4724 372.9954,-168.5554"/>
</g>
<!-- Node46&#45;&gt;Node30 -->
<g id="edge122" class="edge">
<title>Node46&#45;&gt;Node30</title>
<path fill="none" stroke="#191970" d="M969.0539,-268.4639C992.0785,-257.1209 1023.4401,-241.6707 1045.9723,-230.5703"/>
<polygon fill="#191970" stroke="#191970" points="1047.6146,-233.6629 1055.0383,-226.1039 1044.521,-227.3836 1047.6146,-233.6629"/>
</g>
<!-- Node47&#45;&gt;Node0 -->
<g id="edge132" class="edge">
<title>Node47&#45;&gt;Node0</title>
<path fill="none" stroke="#191970" d="M1390.349,-298.5446C1379.5164,-307.9707 1364.1624,-320.0882 1351.0256,-329.5839"/>
<polygon fill="#191970" stroke="#191970" points="1348.9423,-326.7702 1342.7828,-335.3906 1352.9737,-332.4928 1348.9423,-326.7702"/>
</g>
<!-- Node47&#45;&gt;Node5 -->
<g id="edge131" class="edge">
<title>Node47&#45;&gt;Node5</title>
<path fill="none" stroke="#191970" d="M1351.544,-268.3916C1318.0114,-258.466 1273.5359,-244.9633 1234.5328,-232 1232.0948,-231.1897 1229.5858,-230.3364 1227.0626,-229.4641"/>
<polygon fill="#191970" stroke="#191970" points="1227.9764,-226.0752 1217.3815,-226.055 1225.6513,-232.6778 1227.9764,-226.0752"/>
</g>
<!-- Node48&#45;&gt;Node0 -->
<g id="edge149" class="edge">
<title>Node48&#45;&gt;Node0</title>
<path fill="none" stroke="#191970" d="M1662.0159,-296.2385C1656.1161,-297.183 1650.2295,-298.1127 1644.5328,-299 1564.6702,-311.4397 1473.1074,-324.9319 1408.5568,-334.0662"/>
<polygon fill="#191970" stroke="#191970" points="1407.8478,-330.6315 1398.4347,-335.494 1408.8255,-337.5629 1407.8478,-330.6315"/>
</g>
<!-- Node48&#45;&gt;Node3 -->
<g id="edge134" class="edge">
<title>Node48&#45;&gt;Node3</title>
<path fill="none" stroke="#191970" d="M1662.9906,-268.4717C1625.7801,-259.4259 1579.054,-246.8005 1538.5328,-232 1484.0623,-212.1044 1423.4151,-181.7451 1389.4278,-163.9347"/>
<polygon fill="#191970" stroke="#191970" points="1391.0535,-160.8352 1380.5759,-159.2632 1387.7863,-167.026 1391.0535,-160.8352"/>
</g>
<!-- Node48&#45;&gt;Node4 -->
<g id="edge135" class="edge">
<title>Node48&#45;&gt;Node4</title>
<path fill="none" stroke="#191970" d="M1799.1937,-277.9871C1894.3859,-269.6379 2056.8216,-252.5601 2074.5328,-232 2083.5251,-221.5613 2082.7572,-212.0538 2074.5328,-201 2041.2948,-156.327 1987.7709,-209.673 1954.5328,-165 1946.3084,-153.9462 1945.5518,-144.4484 1954.5328,-134 1973.903,-111.4649 2169.2877,-92.7531 2254.3316,-85.6097"/>
<polygon fill="#191970" stroke="#191970" points="2254.6998,-89.0913 2264.3763,-84.7768 2254.1213,-82.1152 2254.6998,-89.0913"/>
</g>
<!-- Node48&#45;&gt;Node5 -->
<g id="edge136" class="edge">
<title>Node48&#45;&gt;Node5</title>
<path fill="none" stroke="#191970" d="M1661.8559,-271.77C1653.0107,-270.4137 1644.0661,-269.1182 1635.5328,-268 1474.7822,-246.9362 1432.9805,-255.2592 1272.5328,-232 1258.6445,-229.9867 1243.5171,-227.2429 1230.1354,-224.6231"/>
<polygon fill="#191970" stroke="#191970" points="1230.7838,-221.1835 1220.2921,-222.6581 1229.4134,-228.0481 1230.7838,-221.1835"/>
</g>
<!-- Node48&#45;&gt;Node6 -->
<g id="edge138" class="edge">
<title>Node48&#45;&gt;Node6</title>
<path fill="none" stroke="#191970" d="M1799.0829,-280.9447C1989.8544,-273.599 2515.0549,-251.6891 2546.5328,-232 2593.7519,-202.465 2615.3668,-135.2609 2623.4701,-101.9544"/>
<polygon fill="#191970" stroke="#191970" points="2626.915,-102.589 2625.7176,-92.062 2620.089,-101.0381 2626.915,-102.589"/>
</g>
<!-- Node48&#45;&gt;Node7 -->
<g id="edge140" class="edge">
<title>Node48&#45;&gt;Node7</title>
<path fill="none" stroke="#191970" d="M1723.8835,-268.234C1714.9415,-249.5225 1697.2591,-218.1895 1672.5328,-201 1627.0306,-169.3671 1563.3214,-157.1641 1521.0361,-152.4565"/>
<polygon fill="#191970" stroke="#191970" points="1521.3388,-148.9693 1511.0357,-151.4383 1520.6297,-155.9333 1521.3388,-148.9693"/>
</g>
<!-- Node48&#45;&gt;Node8 -->
<g id="edge145" class="edge">
<title>Node48&#45;&gt;Node8</title>
<path fill="none" stroke="#191970" d="M1799.1571,-282.0124C1972.1018,-277.8047 2416.2092,-263.9847 2474.5328,-232 2554.4995,-188.1463 2529.6431,-128.9967 2596.5328,-67 2609.3979,-55.076 2625.3984,-44.3165 2639.841,-35.7531"/>
<polygon fill="#191970" stroke="#191970" points="2641.6714,-38.738 2648.5903,-30.7142 2638.1779,-32.672 2641.6714,-38.738"/>
</g>
<!-- Node48&#45;&gt;Node9 -->
<g id="edge146" class="edge">
<title>Node48&#45;&gt;Node9</title>
<path fill="none" stroke="#191970" d="M1799.076,-275.777C1875.7061,-266.7905 2003.3822,-250.7636 2112.5328,-232 2113.8062,-231.7811 2115.0911,-231.5561 2116.3847,-231.3258"/>
<polygon fill="#191970" stroke="#191970" points="2117.2297,-234.729 2126.4271,-229.4699 2115.9575,-227.8456 2117.2297,-234.729"/>
</g>
<!-- Node48&#45;&gt;Node10 -->
<g id="edge139" class="edge">
<title>Node48&#45;&gt;Node10</title>
<path fill="none" stroke="#191970" d="M1799.2459,-269.4886C1836.6327,-260.3204 1877.4747,-247.2351 1888.5328,-232 1896.626,-220.8498 1894.0704,-213.6159 1888.5328,-201 1861.3518,-139.0756 1822.679,-147.4365 1776.5328,-98 1756.8904,-76.9571 1736.5273,-50.7096 1723.709,-33.547"/>
<polygon fill="#191970" stroke="#191970" points="1726.1764,-30.9971 1717.4165,-25.0377 1720.5481,-35.1591 1726.1764,-30.9971"/>
</g>
<!-- Node48&#45;&gt;Node13 -->
<g id="edge141" class="edge">
<title>Node48&#45;&gt;Node13</title>
<path fill="none" stroke="#191970" d="M1726.1263,-268.2585C1721.0471,-251.4404 1712.036,-223.7421 1701.5328,-201 1685.7595,-166.8467 1663.168,-129.7052 1648.1858,-106.2781"/>
<polygon fill="#191970" stroke="#191970" points="1651.0202,-104.2153 1642.6555,-97.7128 1645.1394,-108.0124 1651.0202,-104.2153"/>
</g>
<!-- Node48&#45;&gt;Node15 -->
<g id="edge147" class="edge">
<title>Node48&#45;&gt;Node15</title>
<path fill="none" stroke="#191970" d="M1661.8991,-271.4092C1653.0468,-270.1126 1644.0887,-268.9297 1635.5328,-268 1550.3472,-258.744 973.9357,-230.0934 768.2659,-220.0347"/>
<polygon fill="#191970" stroke="#191970" points="768.3297,-216.5338 758.1708,-219.5414 767.988,-223.5254 768.3297,-216.5338"/>
</g>
<!-- Node48&#45;&gt;Node20 -->
<g id="edge137" class="edge">
<title>Node48&#45;&gt;Node20</title>
<path fill="none" stroke="#191970" d="M1661.851,-270.3464C1545.9502,-248.2211 1320.4959,-205.5159 1283.5328,-201 1021.4409,-168.9791 951.5716,-204.7024 690.5328,-165 678.1706,-163.1198 664.6826,-159.9554 653.3702,-156.9742"/>
<polygon fill="#191970" stroke="#191970" points="654.2563,-153.5881 643.6875,-154.33 652.4122,-160.3409 654.2563,-153.5881"/>
</g>
<!-- Node48&#45;&gt;Node27 -->
<g id="edge148" class="edge">
<title>Node48&#45;&gt;Node27</title>
<path fill="none" stroke="#191970" d="M1799.1918,-279.7774C1944.26,-271.8201 2292.6222,-252.2259 2584.5328,-232 2623.3633,-229.3095 2666.449,-225.9779 2702.4866,-223.0937"/>
<polygon fill="#191970" stroke="#191970" points="2702.7671,-226.5825 2712.4547,-222.293 2702.2066,-219.605 2702.7671,-226.5825"/>
</g>
<!-- Node49 -->
<g id="node50" class="node">
<title>Node49</title>
<g id="a_node50"><a xlink:href="drake__bool_8h.html" target="_top" xlink:title=" ">
<polygon fill="#ffffff" stroke="#000000" points="1759.0328,-201.5 1759.0328,-231.5 1880.0328,-231.5 1880.0328,-201.5 1759.0328,-201.5"/>
<text text-anchor="start" x="1767.0328" y="-219.5" font-family="Helvetica,sans-Serif" font-size="10.00" fill="#000000">drake/common/drake</text>
<text text-anchor="middle" x="1819.5328" y="-208.5" font-family="Helvetica,sans-Serif" font-size="10.00" fill="#000000">_bool.h</text>
</a>
</g>
</g>
<!-- Node48&#45;&gt;Node49 -->
<g id="edge142" class="edge">
<title>Node48&#45;&gt;Node49</title>
<path fill="none" stroke="#191970" d="M1750.7283,-268.2967C1762.6765,-259.302 1777.9967,-247.7687 1791.1466,-237.8694"/>
<polygon fill="#191970" stroke="#191970" points="1793.5331,-240.4538 1799.4173,-231.6432 1789.323,-234.8613 1793.5331,-240.4538"/>
</g>
<!-- Node49&#45;&gt;Node7 -->
<g id="edge144" class="edge">
<title>Node49&#45;&gt;Node7</title>
<path fill="none" stroke="#191970" d="M1759.0009,-204.676C1691.0063,-191.3942 1582.2288,-170.1462 1521.4125,-158.2666"/>
<polygon fill="#191970" stroke="#191970" points="1521.8419,-154.7844 1511.3563,-156.3023 1520.4998,-161.6545 1521.8419,-154.7844"/>
</g>
<!-- Node49&#45;&gt;Node14 -->
<g id="edge143" class="edge">
<title>Node49&#45;&gt;Node14</title>
<path fill="none" stroke="#191970" d="M1798.9237,-201.3171C1788.2648,-192.1407 1776.3045,-179.4393 1770.5328,-165 1752.8558,-120.7762 1768.0228,-63.59 1778.1768,-34.4251"/>
<polygon fill="#191970" stroke="#191970" points="1781.4674,-35.6177 1781.6209,-25.0239 1774.8946,-33.2097 1781.4674,-35.6177"/>
</g>
<!-- Node50&#45;&gt;Node0 -->
<g id="edge153" class="edge">
<title>Node50&#45;&gt;Node0</title>
<path fill="none" stroke="#191970" d="M302.3465,-289.9763C333.6366,-293.0475 370.9993,-296.5677 404.5328,-299 713.1668,-321.3859 1080.224,-336.0135 1242.0074,-341.9688"/>
<polygon fill="#191970" stroke="#191970" points="1242.2426,-345.4797 1252.3642,-342.3485 1242.4991,-338.4844 1242.2426,-345.4797"/>
</g>
<!-- Node50&#45;&gt;Node10 -->
<g id="edge151" class="edge">
<title>Node50&#45;&gt;Node10</title>
<path fill="none" stroke="#191970" d="M164.8881,-272.6878C117.0367,-263.7824 58.7986,-249.7498 41.5328,-232 -9.6037,-179.4299 -16.6632,-114.123 39.5328,-67 72.1319,-39.6641 1447.4389,-19.1913 1677.9243,-15.9492"/>
<polygon fill="#191970" stroke="#191970" points="1678.0746,-19.4476 1688.0246,-15.8079 1677.9765,-12.4483 1678.0746,-19.4476"/>
</g>
<!-- Node50&#45;&gt;Node13 -->
<g id="edge152" class="edge">
<title>Node50&#45;&gt;Node13</title>
<path fill="none" stroke="#191970" d="M230.8577,-268.3319C228.5642,-251.0898 227.0823,-222.5468 237.5328,-201 257.3294,-160.1837 272.3641,-150.7235 314.5328,-134 372.7914,-110.8955 1295.5023,-89.6405 1561.3644,-83.9721"/>
<polygon fill="#191970" stroke="#191970" points="1561.7412,-87.4649 1571.6646,-83.7533 1561.5925,-80.4665 1561.7412,-87.4649"/>
</g>
<!-- Node51&#45;&gt;Node0 -->
<g id="edge157" class="edge">
<title>Node51&#45;&gt;Node0</title>
<path fill="none" stroke="#191970" d="M542.0488,-296.3412C547.9646,-297.3514 553.8532,-298.2634 559.5328,-299 806.6461,-331.0467 1101.0243,-340.7974 1242.1379,-343.7418"/>
<polygon fill="#191970" stroke="#191970" points="1242.3721,-347.2472 1252.4409,-343.9503 1242.5138,-340.2486 1242.3721,-347.2472"/>
</g>
<!-- Node51&#45;&gt;Node3 -->
<g id="edge155" class="edge">
<title>Node51&#45;&gt;Node3</title>
<path fill="none" stroke="#191970" d="M542.3578,-269.5268C545.1175,-269.0042 547.8506,-268.4933 550.5328,-268 646.2514,-250.3945 673.5339,-260.6916 766.5328,-232 797.8853,-222.3272 801.7744,-209.2431 833.5328,-201 1041.4619,-147.0308 1104.8501,-206.952 1315.5328,-165 1319.4959,-164.2108 1323.5892,-163.1885 1327.631,-162.0453"/>
<polygon fill="#191970" stroke="#191970" points="1328.94,-165.3045 1337.4686,-159.0185 1326.8815,-158.614 1328.94,-165.3045"/>
</g>
<!-- Node51&#45;&gt;Node10 -->
<g id="edge156" class="edge">
<title>Node51&#45;&gt;Node10</title>
<path fill="none" stroke="#191970" d="M404.5896,-276.7577C292.698,-265.5246 82.7376,-243.1178 70.5328,-232 16.3194,-182.615 13.3532,-114.1362 69.5328,-67 101.5061,-40.1736 1449.3281,-19.3159 1677.7934,-15.9699"/>
<polygon fill="#191970" stroke="#191970" points="1677.869,-19.4692 1687.8169,-15.8238 1677.7669,-12.47 1677.869,-19.4692"/>
</g>
<!-- Node52&#45;&gt;Node0 -->
<g id="edge166" class="edge">
<title>Node52&#45;&gt;Node0</title>
<path fill="none" stroke="#191970" d="M3469.6271,-285.8476C3372.7125,-288.9517 3190.8735,-294.5482 3035.5328,-299 2410.776,-316.9043 1656.8867,-336.6329 1408.9298,-342.9419"/>
<polygon fill="#191970" stroke="#191970" points="1408.8199,-339.4435 1398.912,-343.1965 1408.9978,-346.4412 1408.8199,-339.4435"/>
</g>
<!-- Node52&#45;&gt;Node6 -->
<g id="edge160" class="edge">
<title>Node52&#45;&gt;Node6</title>
<path fill="none" stroke="#191970" d="M3607.0729,-274.7595C3670.2648,-263.9674 3749.2633,-241.8161 3713.5328,-201 3676.4676,-158.6591 3267.4631,-140.1954 3211.5328,-134 3102.9696,-121.9745 2765.9475,-93.9136 2659.8534,-85.1581"/>
<polygon fill="#191970" stroke="#191970" points="2660.012,-81.6594 2649.7582,-84.3257 2659.4367,-88.6357 2660.012,-81.6594"/>
</g>
<!-- Node52&#45;&gt;Node7 -->
<g id="edge163" class="edge">
<title>Node52&#45;&gt;Node7</title>
<path fill="none" stroke="#191970" d="M3540.0524,-268.1719C3540.9917,-249.0913 3539.2448,-217.0619 3519.5328,-201 3485.823,-173.5322 1997.9999,-166.2047 1954.5328,-165 1795.1834,-160.5837 1605.9953,-154.0736 1521.3514,-151.0942"/>
<polygon fill="#191970" stroke="#191970" points="1521.4327,-147.5949 1511.3155,-150.7402 1521.1859,-154.5906 1521.4327,-147.5949"/>
</g>
<!-- Node52&#45;&gt;Node8 -->
<g id="edge165" class="edge">
<title>Node52&#45;&gt;Node8</title>
<path fill="none" stroke="#191970" d="M3607.232,-278.5604C3707.0845,-270.6734 3882.5466,-253.87 3901.5328,-232 3910.5651,-221.5959 3908.5591,-212.8515 3901.5328,-201 3838.2393,-94.2405 3776.057,-100.4308 3656.5328,-67 3485.1526,-19.0651 3034.1041,-42.7215 2856.5328,-31 2821.2018,-28.6678 2781.9891,-25.3338 2749.3807,-22.355"/>
<polygon fill="#191970" stroke="#191970" points="2749.3178,-18.8345 2739.0389,-21.4021 2748.6755,-25.8049 2749.3178,-18.8345"/>
</g>
<!-- Node52&#45;&gt;Node21 -->
<g id="edge162" class="edge">
<title>Node52&#45;&gt;Node21</title>
<path fill="none" stroke="#191970" d="M3607.0835,-278.6355C3671.9319,-272.438 3762.5233,-259.0944 3784.5328,-232 3793.2199,-221.306 3793.3613,-211.5776 3784.5328,-201 3704.2957,-104.8654 3289.0947,-86.5405 3166.5923,-83.2085"/>
<polygon fill="#191970" stroke="#191970" points="3166.4038,-79.7026 3156.3177,-82.946 3166.225,-86.7003 3166.4038,-79.7026"/>
</g>
<!-- Node52&#45;&gt;Node26 -->
<g id="edge161" class="edge">
<title>Node52&#45;&gt;Node26</title>
<path fill="none" stroke="#191970" d="M3491.1803,-268.4639C3453.9124,-256.63 3402.5663,-240.3258 3367.3844,-229.1543"/>
<polygon fill="#191970" stroke="#191970" points="3368.0577,-225.6959 3357.4674,-226.0053 3365.9391,-232.3677 3368.0577,-225.6959"/>
</g>
<!-- Node52&#45;&gt;Node32 -->
<g id="edge164" class="edge">
<title>Node52&#45;&gt;Node32</title>
<path fill="none" stroke="#191970" d="M3523.1026,-268.2967C3512.5079,-257.8578 3498.4429,-243.9997 3487.5274,-233.2446"/>
<polygon fill="#191970" stroke="#191970" points="3489.8102,-230.5804 3480.2304,-226.055 3484.8972,-235.5666 3489.8102,-230.5804"/>
</g>
<!-- Node53 -->
<g id="node54" class="node">
<title>Node53</title>
<g id="a_node54"><a xlink:title=" ">
<polygon fill="#ffffff" stroke="#bfbfbf" points="3836.5328,-207 3836.5328,-226 3892.5328,-226 3892.5328,-207 3836.5328,-207"/>
<text text-anchor="middle" x="3864.5328" y="-214" font-family="Helvetica,sans-Serif" font-size="10.00" fill="#000000">sstream</text>
</a>
</g>
</g>
<!-- Node52&#45;&gt;Node53 -->
<g id="edge159" class="edge">
<title>Node52&#45;&gt;Node53</title>
<path fill="none" stroke="#191970" d="M3607.2782,-274.4613C3665.2638,-266.0242 3750.1419,-251.7596 3822.5328,-232 3825.3446,-231.2325 3828.2338,-230.3573 3831.1175,-229.4223"/>
<polygon fill="#191970" stroke="#191970" points="3832.4713,-232.6577 3840.7796,-226.0834 3830.1849,-226.0416 3832.4713,-232.6577"/>
</g>
</g>
</svg>
