<?xml version="1.0" encoding="UTF-8" standalone="no"?>
<!DOCTYPE svg PUBLIC "-//W3C//DTD SVG 1.1//EN"
 "http://www.w3.org/Graphics/SVG/1.1/DTD/svg11.dtd">
<!-- Generated by graphviz version 2.40.1 (20161225.0304)
 -->
<!-- Title: drake/common/symbolic_formula.h Pages: 1 -->
<svg width="3807pt" height="430pt"
 viewBox="0.00 0.00 3807.00 430.00" xmlns="http://www.w3.org/2000/svg" xmlns:xlink="http://www.w3.org/1999/xlink">
<g id="graph0" class="graph" transform="scale(1 1) rotate(0) translate(4 426)">
<title>drake/common/symbolic_formula.h</title>
<polygon fill="#ffffff" stroke="transparent" points="-4,4 -4,-426 3803,-426 3803,4 -4,4"/>
<!-- Node0 -->
<g id="node1" class="node">
<title>Node0</title>
<g id="a_node1"><a xlink:title=" ">
<polygon fill="#bfbfbf" stroke="#000000" points="2252.5,-391.5 2252.5,-421.5 2389.5,-421.5 2389.5,-391.5 2252.5,-391.5"/>
<text text-anchor="start" x="2260.5" y="-409.5" font-family="Helvetica,sans-Serif" font-size="10.00" fill="#000000">drake/common/symbolic</text>
<text text-anchor="middle" x="2321" y="-398.5" font-family="Helvetica,sans-Serif" font-size="10.00" fill="#000000">_formula.h</text>
</a>
</g>
</g>
<!-- Node1 -->
<g id="node2" class="node">
<title>Node1</title>
<g id="a_node2"><a xlink:title=" ">
<polygon fill="#ffffff" stroke="#bfbfbf" points="2582.5,-140 2582.5,-159 2647.5,-159 2647.5,-140 2582.5,-140"/>
<text text-anchor="middle" x="2615" y="-147" font-family="Helvetica,sans-Serif" font-size="10.00" fill="#000000">functional</text>
</a>
</g>
</g>
<!-- Node0&#45;&gt;Node1 -->
<g id="edge1" class="edge">
<title>Node0&#45;&gt;Node1</title>
<path fill="none" stroke="#191970" d="M2389.5773,-404.6858C2612.2097,-398.0976 3304.2152,-371.8708 3370,-299 3463.333,-195.6136 3518.751,-275.1048 3183,-201 3157.4316,-195.3567 2786.2341,-163.871 2658.1087,-153.1079"/>
<polygon fill="#191970" stroke="#191970" points="2658.15,-149.5992 2647.8923,-152.2504 2657.5644,-156.5746 2658.15,-149.5992"/>
</g>
<!-- Node2 -->
<g id="node3" class="node">
<title>Node2</title>
<g id="a_node3"><a xlink:title=" ">
<polygon fill="#ffffff" stroke="#bfbfbf" points="653,-73 653,-92 711,-92 711,-73 653,-73"/>
<text text-anchor="middle" x="682" y="-80" font-family="Helvetica,sans-Serif" font-size="10.00" fill="#000000">memory</text>
</a>
</g>
</g>
<!-- Node0&#45;&gt;Node2 -->
<g id="edge2" class="edge">
<title>Node0&#45;&gt;Node2</title>
<path fill="none" stroke="#191970" d="M2252.3614,-406.2613C1893.9781,-404.8394 250.2279,-396.0924 151,-355 108.4506,-337.3794 76,-329.5536 76,-283.5 76,-283.5 76,-283.5 76,-216.5 76,-162.2373 116.4691,-156.1615 166,-134 251.3086,-95.8306 537.6401,-85.6992 642.8185,-83.2331"/>
<polygon fill="#191970" stroke="#191970" points="643.0794,-86.7282 652.9986,-83.0053 642.9227,-79.73 643.0794,-86.7282"/>
</g>
<!-- Node3 -->
<g id="node4" class="node">
<title>Node3</title>
<g id="a_node4"><a xlink:title=" ">
<polygon fill="#ffffff" stroke="#bfbfbf" points="2552.5,-207 2552.5,-226 2609.5,-226 2609.5,-207 2552.5,-207"/>
<text text-anchor="middle" x="2581" y="-214" font-family="Helvetica,sans-Serif" font-size="10.00" fill="#000000">ostream</text>
</a>
</g>
</g>
<!-- Node0&#45;&gt;Node3 -->
<g id="edge3" class="edge">
<title>Node0&#45;&gt;Node3</title>
<path fill="none" stroke="#191970" d="M2280.569,-391.3679C2264.6433,-383.182 2248.028,-371.3309 2239,-355 2220.2926,-321.16 2213.3563,-296.9398 2239,-268 2283.0916,-218.2413 2471.2101,-246.9086 2536,-232 2539.4047,-231.2166 2542.9123,-230.2691 2546.3959,-229.2331"/>
<polygon fill="#191970" stroke="#191970" points="2547.5892,-232.5262 2556.0446,-226.1421 2545.4535,-225.8599 2547.5892,-232.5262"/>
</g>
<!-- Node4 -->
<g id="node5" class="node">
<title>Node4</title>
<g id="a_node5"><a xlink:title=" ">
<polygon fill="#ffffff" stroke="#bfbfbf" points="2874,-140 2874,-159 2906,-159 2906,-140 2874,-140"/>
<text text-anchor="middle" x="2890" y="-147" font-family="Helvetica,sans-Serif" font-size="10.00" fill="#000000">set</text>
</a>
</g>
</g>
<!-- Node0&#45;&gt;Node4 -->
<g id="edge4" class="edge">
<title>Node0&#45;&gt;Node4</title>
<path fill="none" stroke="#191970" d="M2389.6217,-404.9209C2616.1437,-399.4864 3331.3909,-380.4798 3432,-355 3487.4968,-340.9451 3517.5651,-347.4886 3548,-299 3555.3246,-287.3305 3556.7163,-278.6702 3548,-268 3527.3716,-242.7473 3035.8724,-170.5094 2916.1242,-153.241"/>
<polygon fill="#191970" stroke="#191970" points="2916.4182,-149.7473 2906.0217,-151.7875 2915.4213,-156.676 2916.4182,-149.7473"/>
</g>
<!-- Node5 -->
<g id="node6" class="node">
<title>Node5</title>
<g id="a_node6"><a xlink:title=" ">
<polygon fill="#ffffff" stroke="#bfbfbf" points="742,-73 742,-92 786,-92 786,-73 742,-73"/>
<text text-anchor="middle" x="764" y="-80" font-family="Helvetica,sans-Serif" font-size="10.00" fill="#000000">string</text>
</a>
</g>
</g>
<!-- Node0&#45;&gt;Node5 -->
<g id="edge5" class="edge">
<title>Node0&#45;&gt;Node5</title>
<path fill="none" stroke="#191970" d="M2252.0719,-405.0706C1985.7763,-399.4259 1023.8908,-377.8749 719,-355 583.9993,-344.8714 114,-418.8801 114,-283.5 114,-283.5 114,-283.5 114,-216.5 114,-177.3042 -50.2687,-219.8089 281,-134 470.5114,-84.9106 528.5454,-138.8591 720,-98 723.9851,-97.1495 728.1033,-96.0347 732.1483,-94.7922"/>
<polygon fill="#191970" stroke="#191970" points="733.5619,-98.01 741.9352,-91.5186 731.3414,-91.3715 733.5619,-98.01"/>
</g>
<!-- Node6 -->
<g id="node7" class="node">
<title>Node6</title>
<g id="a_node7"><a xlink:title=" ">
<polygon fill="#ffffff" stroke="#bfbfbf" points="2698.5,-6 2698.5,-25 2743.5,-25 2743.5,-6 2698.5,-6"/>
<text text-anchor="middle" x="2721" y="-13" font-family="Helvetica,sans-Serif" font-size="10.00" fill="#000000">utility</text>
</a>
</g>
</g>
<!-- Node0&#45;&gt;Node6 -->
<g id="edge6" class="edge">
<title>Node0&#45;&gt;Node6</title>
<path fill="none" stroke="#191970" d="M2389.8712,-405.106C2640.8006,-399.8429 3497.7233,-380.1924 3618,-355 3702.6565,-337.2684 3799,-369.9936 3799,-283.5 3799,-283.5 3799,-283.5 3799,-149.5 3799,-41.3817 2934.0214,-19.4397 2753.6965,-16.0401"/>
<polygon fill="#191970" stroke="#191970" points="2753.5778,-12.5375 2743.5156,-15.8544 2753.45,-19.5363 2753.5778,-12.5375"/>
</g>
<!-- Node7 -->
<g id="node8" class="node">
<title>Node7</title>
<g id="a_node8"><a xlink:title=" ">
<polygon fill="#ffffff" stroke="#bfbfbf" points="2894.5,-207 2894.5,-226 2963.5,-226 2963.5,-207 2894.5,-207"/>
<text text-anchor="middle" x="2929" y="-214" font-family="Helvetica,sans-Serif" font-size="10.00" fill="#000000">Eigen/Core</text>
</a>
</g>
</g>
<!-- Node0&#45;&gt;Node7 -->
<g id="edge7" class="edge">
<title>Node0&#45;&gt;Node7</title>
<path fill="none" stroke="#191970" d="M2389.9159,-399.0496C2518.0445,-384.2093 2787.0886,-348.11 2866,-299 2890.8859,-283.5124 2909.5804,-254.4025 2919.9052,-235.2318"/>
<polygon fill="#191970" stroke="#191970" points="2923.0698,-236.7313 2924.53,-226.2375 2916.8445,-233.5303 2923.0698,-236.7313"/>
</g>
<!-- Node8 -->
<g id="node9" class="node">
<title>Node8</title>
<g id="a_node9"><a xlink:href="drake__assert_8h.html" target="_top" xlink:title="Provides Drake&#39;s assertion implementation.">
<polygon fill="#ffffff" stroke="#000000" points="2064.5,-67.5 2064.5,-97.5 2185.5,-97.5 2185.5,-67.5 2064.5,-67.5"/>
<text text-anchor="start" x="2072.5" y="-85.5" font-family="Helvetica,sans-Serif" font-size="10.00" fill="#000000">drake/common/drake</text>
<text text-anchor="middle" x="2125" y="-74.5" font-family="Helvetica,sans-Serif" font-size="10.00" fill="#000000">_assert.h</text>
</a>
</g>
</g>
<!-- Node0&#45;&gt;Node8 -->
<g id="edge8" class="edge">
<title>Node0&#45;&gt;Node8</title>
<path fill="none" stroke="#191970" d="M2389.6452,-404.9992C2605.8656,-400.0298 3271.1205,-382.8272 3485,-355 3604.5816,-339.4416 3804.1067,-371.3663 3742,-268 3709.3345,-213.6338 3676.1207,-221.2042 3616,-201 3347.598,-110.8005 2454.4303,-88.2835 2195.7612,-83.5923"/>
<polygon fill="#191970" stroke="#191970" points="2195.7975,-80.0925 2185.7367,-83.4137 2195.6728,-87.0914 2195.7975,-80.0925"/>
</g>
<!-- Node10 -->
<g id="node11" class="node">
<title>Node10</title>
<g id="a_node11"><a xlink:href="drake__bool_8h.html" target="_top" xlink:title=" ">
<polygon fill="#ffffff" stroke="#000000" points="3417.5,-268.5 3417.5,-298.5 3538.5,-298.5 3538.5,-268.5 3417.5,-268.5"/>
<text text-anchor="start" x="3425.5" y="-286.5" font-family="Helvetica,sans-Serif" font-size="10.00" fill="#000000">drake/common/drake</text>
<text text-anchor="middle" x="3478" y="-275.5" font-family="Helvetica,sans-Serif" font-size="10.00" fill="#000000">_bool.h</text>
</a>
</g>
</g>
<!-- Node0&#45;&gt;Node10 -->
<g id="edge10" class="edge">
<title>Node0&#45;&gt;Node10</title>
<path fill="none" stroke="#191970" d="M2389.7753,-406.0079C2613.3129,-404.0252 3310.2928,-394.6927 3403,-355 3426.8,-344.81 3447.5432,-323.4809 3461.1449,-306.757"/>
<polygon fill="#191970" stroke="#191970" points="3464.186,-308.5494 3467.5851,-298.5146 3458.6701,-304.2395 3464.186,-308.5494"/>
</g>
<!-- Node11 -->
<g id="node12" class="node">
<title>Node11</title>
<g id="a_node12"><a xlink:href="drake__copyable_8h.html" target="_top" xlink:title="Provides careful macros to selectively enable or disable the special member functions for copy&#45;constr...">
<polygon fill="#ffffff" stroke="#000000" points="935.5,-.5 935.5,-30.5 1056.5,-30.5 1056.5,-.5 935.5,-.5"/>
<text text-anchor="start" x="943.5" y="-18.5" font-family="Helvetica,sans-Serif" font-size="10.00" fill="#000000">drake/common/drake</text>
<text text-anchor="middle" x="996" y="-7.5" font-family="Helvetica,sans-Serif" font-size="10.00" fill="#000000">_copyable.h</text>
</a>
</g>
</g>
<!-- Node0&#45;&gt;Node11 -->
<g id="edge13" class="edge">
<title>Node0&#45;&gt;Node11</title>
<path fill="none" stroke="#191970" d="M2252.4456,-406.0182C1889.7799,-403.3295 207.5158,-389.0576 103,-355 50.0157,-337.7345 0,-339.2264 0,-283.5 0,-283.5 0,-283.5 0,-149.5 0,-56.0655 697.3484,-25.1735 925.034,-17.5773"/>
<polygon fill="#191970" stroke="#191970" points="925.3154,-21.07 935.195,-17.2434 925.0855,-14.0738 925.3154,-21.07"/>
</g>
<!-- Node12 -->
<g id="node13" class="node">
<title>Node12</title>
<g id="a_node13"><a xlink:href="eigen__types_8h.html" target="_top" xlink:title="This file contains abbreviated definitions for certain specializations of Eigen::Matrix that are comm...">
<polygon fill="#ffffff" stroke="#000000" points="850,-201.5 850,-231.5 970,-231.5 970,-201.5 850,-201.5"/>
<text text-anchor="start" x="858" y="-219.5" font-family="Helvetica,sans-Serif" font-size="10.00" fill="#000000">drake/common/eigen</text>
<text text-anchor="middle" x="910" y="-208.5" font-family="Helvetica,sans-Serif" font-size="10.00" fill="#000000">_types.h</text>
</a>
</g>
</g>
<!-- Node0&#45;&gt;Node12 -->
<g id="edge14" class="edge">
<title>Node0&#45;&gt;Node12</title>
<path fill="none" stroke="#191970" d="M2252.154,-405.8802C1985.4429,-402.8529 1030.0333,-385.9741 929,-299 912.891,-285.1327 908.919,-260.6052 908.512,-241.887"/>
<polygon fill="#191970" stroke="#191970" points="912.0141,-241.6982 908.6196,-231.6619 905.0145,-241.6245 912.0141,-241.6982"/>
</g>
<!-- Node15 -->
<g id="node16" class="node">
<title>Node15</title>
<g id="a_node16"><a xlink:href="hash_8h.html" target="_top" xlink:title=" ">
<polygon fill="#ffffff" stroke="#000000" points="2218.5,-207 2218.5,-226 2343.5,-226 2343.5,-207 2218.5,-207"/>
<text text-anchor="middle" x="2281" y="-214" font-family="Helvetica,sans-Serif" font-size="10.00" fill="#000000">drake/common/hash.h</text>
</a>
</g>
</g>
<!-- Node0&#45;&gt;Node15 -->
<g id="edge20" class="edge">
<title>Node0&#45;&gt;Node15</title>
<path fill="none" stroke="#191970" d="M2260.3737,-391.4215C2186.9838,-371.7988 2070.0681,-335.6664 2045,-299 2037.224,-287.6263 2036.3584,-278.7308 2045,-268 2055.3984,-255.0877 2142.9984,-238.4771 2208.4569,-227.6639"/>
<polygon fill="#191970" stroke="#191970" points="2209.0454,-231.1142 2218.3492,-226.0457 2207.9154,-224.206 2209.0454,-231.1142"/>
</g>
<!-- Node23 -->
<g id="node24" class="node">
<title>Node23</title>
<g id="a_node24"><a xlink:href="random_8h.html" target="_top" xlink:title=" ">
<polygon fill="#ffffff" stroke="#000000" points="330,-207 330,-226 470,-226 470,-207 330,-207"/>
<text text-anchor="middle" x="400" y="-214" font-family="Helvetica,sans-Serif" font-size="10.00" fill="#000000">drake/common/random.h</text>
</a>
</g>
</g>
<!-- Node0&#45;&gt;Node23 -->
<g id="edge36" class="edge">
<title>Node0&#45;&gt;Node23</title>
<path fill="none" stroke="#191970" d="M2252.4981,-405.5993C2060.7419,-402.678 1502.3581,-391.4373 1040,-355 827.6438,-338.2647 768.0224,-360.2377 564,-299 510.8841,-283.0571 454.2087,-250.6737 423.3507,-231.5637"/>
<polygon fill="#191970" stroke="#191970" points="424.9658,-228.4451 414.6355,-226.0921 421.2437,-234.3736 424.9658,-228.4451"/>
</g>
<!-- Node25 -->
<g id="node26" class="node">
<title>Node25</title>
<g id="a_node26"><a xlink:href="symbolic_8h.html" target="_top" xlink:title="Provides public header files of Drake&#39;s symbolic library.">
<polygon fill="#ffffff" stroke="#000000" points="2248,-335.5 2248,-354.5 2394,-354.5 2394,-335.5 2248,-335.5"/>
<text text-anchor="middle" x="2321" y="-342.5" font-family="Helvetica,sans-Serif" font-size="10.00" fill="#000000">drake/common/symbolic.h</text>
</a>
</g>
</g>
<!-- Node0&#45;&gt;Node25 -->
<g id="edge39" class="edge">
<title>Node0&#45;&gt;Node25</title>
<path fill="none" stroke="#191970" d="M2315.0843,-391.2977C2314.1446,-383.2945 2313.9987,-373.3843 2314.6466,-364.7889"/>
<polygon fill="#191970" stroke="#191970" points="2318.1218,-365.2044 2315.8917,-354.8469 2311.176,-364.3345 2318.1218,-365.2044"/>
</g>
<!-- Node9 -->
<g id="node10" class="node">
<title>Node9</title>
<g id="a_node10"><a xlink:title=" ">
<polygon fill="#ffffff" stroke="#bfbfbf" points="1874.5,-6 1874.5,-25 1943.5,-25 1943.5,-6 1874.5,-6"/>
<text text-anchor="middle" x="1909" y="-13" font-family="Helvetica,sans-Serif" font-size="10.00" fill="#000000">type_traits</text>
</a>
</g>
</g>
<!-- Node8&#45;&gt;Node9 -->
<g id="edge9" class="edge">
<title>Node8&#45;&gt;Node9</title>
<path fill="none" stroke="#191970" d="M2076.5254,-67.4639C2038.2106,-55.5792 1985.3601,-39.1858 1949.3332,-28.0108"/>
<polygon fill="#191970" stroke="#191970" points="1950.2319,-24.6251 1939.6439,-25.0053 1948.1581,-31.3108 1950.2319,-24.6251"/>
</g>
<!-- Node10&#45;&gt;Node7 -->
<g id="edge12" class="edge">
<title>Node10&#45;&gt;Node7</title>
<path fill="none" stroke="#191970" d="M3417.2295,-274.3153C3401.8377,-272.1164 3385.3245,-269.8672 3370,-268 3210.8214,-248.6053 3169.7103,-254.9135 3011,-232 2998.789,-230.2371 2985.6284,-227.9319 2973.5012,-225.6403"/>
<polygon fill="#191970" stroke="#191970" points="2974.0828,-222.188 2963.6009,-223.7308 2972.757,-229.0614 2974.0828,-222.188"/>
</g>
<!-- Node10&#45;&gt;Node9 -->
<g id="edge11" class="edge">
<title>Node10&#45;&gt;Node9</title>
<path fill="none" stroke="#191970" d="M3480.1349,-268.3384C3484.8497,-228.0482 3491.2994,-117.9265 3430,-67 3400.8551,-42.7869 2202.0395,-20.6052 1953.7319,-16.2654"/>
<polygon fill="#191970" stroke="#191970" points="1953.6862,-12.7641 1943.6268,-16.0894 1953.5643,-19.7631 1953.6862,-12.7641"/>
</g>
<!-- Node12&#45;&gt;Node6 -->
<g id="edge15" class="edge">
<title>Node12&#45;&gt;Node6</title>
<path fill="none" stroke="#191970" d="M970.1664,-206.3417C1005.7879,-198.582 1050.8669,-185.6237 1087,-165 1104.4767,-155.0248 1104.9884,-147.4011 1120,-134 1154.344,-103.3407 1156.0543,-83.5883 1199,-67 1234.9632,-53.1088 2469.5468,-21.7618 2688.1012,-16.3145"/>
<polygon fill="#191970" stroke="#191970" points="2688.3808,-19.8088 2698.2906,-16.061 2688.2066,-12.8109 2688.3808,-19.8088"/>
</g>
<!-- Node12&#45;&gt;Node8 -->
<g id="edge18" class="edge">
<title>Node12&#45;&gt;Node8</title>
<path fill="none" stroke="#191970" d="M970.2908,-203.8176C1012.567,-194.4146 1070.1983,-180.5696 1120,-165 1156.7904,-153.4981 1163.3052,-142.0579 1201,-134 1363.5853,-99.2445 1867.2007,-87.0252 2054.1737,-83.6193"/>
<polygon fill="#191970" stroke="#191970" points="2054.4985,-87.1141 2064.4341,-83.4354 2054.373,-80.1152 2054.4985,-87.1141"/>
</g>
<!-- Node12&#45;&gt;Node11 -->
<g id="edge19" class="edge">
<title>Node12&#45;&gt;Node11</title>
<path fill="none" stroke="#191970" d="M916.464,-201.3923C931.255,-166.8226 967.6687,-81.7161 985.6339,-39.7277"/>
<polygon fill="#191970" stroke="#191970" points="988.8624,-41.0794 989.5783,-30.5088 982.4268,-38.3258 988.8624,-41.0794"/>
</g>
<!-- Node13 -->
<g id="node14" class="node">
<title>Node13</title>
<g id="a_node14"><a xlink:title=" ">
<polygon fill="#ffffff" stroke="#bfbfbf" points="814.5,-140 814.5,-159 891.5,-159 891.5,-140 814.5,-140"/>
<text text-anchor="middle" x="853" y="-147" font-family="Helvetica,sans-Serif" font-size="10.00" fill="#000000">Eigen/Dense</text>
</a>
</g>
</g>
<!-- Node12&#45;&gt;Node13 -->
<g id="edge16" class="edge">
<title>Node12&#45;&gt;Node13</title>
<path fill="none" stroke="#191970" d="M897.0658,-201.2967C888.3574,-191.0605 876.852,-177.5366 867.7814,-166.8746"/>
<polygon fill="#191970" stroke="#191970" points="870.2745,-164.4036 861.1289,-159.055 864.9429,-168.9395 870.2745,-164.4036"/>
</g>
<!-- Node14 -->
<g id="node15" class="node">
<title>Node14</title>
<g id="a_node15"><a xlink:href="constants_8h.html" target="_top" xlink:title=" ">
<polygon fill="#ffffff" stroke="#000000" points="647.5,-140 647.5,-159 796.5,-159 796.5,-140 647.5,-140"/>
<text text-anchor="middle" x="722" y="-147" font-family="Helvetica,sans-Serif" font-size="10.00" fill="#000000">drake/common/constants.h</text>
</a>
</g>
</g>
<!-- Node12&#45;&gt;Node14 -->
<g id="edge17" class="edge">
<title>Node12&#45;&gt;Node14</title>
<path fill="none" stroke="#191970" d="M867.8091,-201.4639C834.8886,-189.7316 789.639,-173.6054 758.318,-162.4431"/>
<polygon fill="#191970" stroke="#191970" points="759.2662,-159.0655 748.6716,-159.0053 756.9163,-165.6593 759.2662,-159.0655"/>
</g>
<!-- Node15&#45;&gt;Node1 -->
<g id="edge23" class="edge">
<title>Node15&#45;&gt;Node1</title>
<path fill="none" stroke="#191970" d="M2327.3761,-206.9393C2337.461,-204.9232 2348.0799,-202.8483 2358,-201 2451.0927,-183.6546 2476.1139,-187.8923 2568,-165 2571.4391,-164.1432 2574.9902,-163.1601 2578.5278,-162.1136"/>
<polygon fill="#191970" stroke="#191970" points="2579.8533,-165.3666 2588.3583,-159.0488 2577.7698,-158.6838 2579.8533,-165.3666"/>
</g>
<!-- Node15&#45;&gt;Node4 -->
<g id="edge27" class="edge">
<title>Node15&#45;&gt;Node4</title>
<path fill="none" stroke="#191970" d="M2343.6543,-211.759C2489.3711,-200.6263 2840.5562,-173.1405 2865,-165 2866.0417,-164.6531 2867.0848,-164.2551 2868.1216,-163.8171"/>
<polygon fill="#191970" stroke="#191970" points="2869.8686,-166.8527 2877.0809,-159.0917 2866.603,-160.6611 2869.8686,-166.8527"/>
</g>
<!-- Node15&#45;&gt;Node5 -->
<g id="edge28" class="edge">
<title>Node15&#45;&gt;Node5</title>
<path fill="none" stroke="#191970" d="M2263.5456,-206.925C2246.3177,-197.1887 2219.5091,-181.2602 2198,-165 2181.6874,-152.6682 2182.9291,-141.7372 2164,-134 2159.9048,-132.3261 1005.2436,-91.0985 796.2369,-83.6484"/>
<polygon fill="#191970" stroke="#191970" points="796.3219,-80.1493 786.2036,-83.2908 796.0725,-87.1449 796.3219,-80.1493"/>
</g>
<!-- Node15&#45;&gt;Node6 -->
<g id="edge30" class="edge">
<title>Node15&#45;&gt;Node6</title>
<path fill="none" stroke="#191970" d="M2322.3077,-206.9475C2382.2287,-193.0345 2487.028,-168.4677 2495,-165 2578.0704,-128.8662 2664.0411,-62.5047 2701.5476,-31.8344"/>
<polygon fill="#191970" stroke="#191970" points="2704.1243,-34.2458 2709.6073,-25.1801 2699.6675,-28.8479 2704.1243,-34.2458"/>
</g>
<!-- Node15&#45;&gt;Node8 -->
<g id="edge32" class="edge">
<title>Node15&#45;&gt;Node8</title>
<path fill="none" stroke="#191970" d="M2323.6686,-206.9748C2373.6433,-195.3915 2450.7123,-176.0254 2459,-165 2467.2786,-153.9867 2467.9694,-144.4584 2459,-134 2442.0881,-114.2805 2288.7109,-97.1964 2195.7871,-88.5398"/>
<polygon fill="#191970" stroke="#191970" points="2195.8807,-85.0337 2185.6019,-87.6021 2195.2389,-92.0042 2195.8807,-85.0337"/>
</g>
<!-- Node15&#45;&gt;Node9 -->
<g id="edge29" class="edge">
<title>Node15&#45;&gt;Node9</title>
<path fill="none" stroke="#191970" d="M2322.695,-206.9073C2378.8062,-193.802 2472.206,-171.2163 2477,-165 2485.4139,-154.0897 2485.5468,-144.8065 2477,-134 2411.8791,-51.6616 2076.2923,-24.8479 1953.8113,-17.7255"/>
<polygon fill="#191970" stroke="#191970" points="1953.8385,-14.2216 1943.657,-17.1521 1953.4437,-21.2104 1953.8385,-14.2216"/>
</g>
<!-- Node16 -->
<g id="node17" class="node">
<title>Node16</title>
<g id="a_node17"><a xlink:title=" ">
<polygon fill="#ffffff" stroke="#bfbfbf" points="2324.5,-140 2324.5,-159 2371.5,-159 2371.5,-140 2324.5,-140"/>
<text text-anchor="middle" x="2348" y="-147" font-family="Helvetica,sans-Serif" font-size="10.00" fill="#000000">cmath</text>
</a>
</g>
</g>
<!-- Node15&#45;&gt;Node16 -->
<g id="edge21" class="edge">
<title>Node15&#45;&gt;Node16</title>
<path fill="none" stroke="#191970" d="M2290.5995,-206.9005C2301.147,-196.353 2318.2904,-179.2096 2331.1002,-166.3998"/>
<polygon fill="#191970" stroke="#191970" points="2333.8221,-168.6276 2338.4183,-159.0817 2328.8724,-163.6779 2333.8221,-168.6276"/>
</g>
<!-- Node17 -->
<g id="node18" class="node">
<title>Node17</title>
<g id="a_node18"><a xlink:title=" ">
<polygon fill="#ffffff" stroke="#bfbfbf" points="2102.5,-140 2102.5,-159 2155.5,-159 2155.5,-140 2102.5,-140"/>
<text text-anchor="middle" x="2129" y="-147" font-family="Helvetica,sans-Serif" font-size="10.00" fill="#000000">cstddef</text>
</a>
</g>
</g>
<!-- Node15&#45;&gt;Node17 -->
<g id="edge22" class="edge">
<title>Node15&#45;&gt;Node17</title>
<path fill="none" stroke="#191970" d="M2259.2221,-206.9005C2233.2616,-195.4574 2189.6887,-176.2509 2160.1654,-163.2374"/>
<polygon fill="#191970" stroke="#191970" points="2161.2997,-159.9125 2150.7375,-159.0817 2158.4763,-166.3178 2161.2997,-159.9125"/>
</g>
<!-- Node18 -->
<g id="node19" class="node">
<title>Node18</title>
<g id="a_node19"><a xlink:title=" ">
<polygon fill="#ffffff" stroke="#bfbfbf" points="2390,-140 2390,-159 2450,-159 2450,-140 2390,-140"/>
<text text-anchor="middle" x="2420" y="-147" font-family="Helvetica,sans-Serif" font-size="10.00" fill="#000000">iostream</text>
</a>
</g>
</g>
<!-- Node15&#45;&gt;Node18 -->
<g id="edge24" class="edge">
<title>Node15&#45;&gt;Node18</title>
<path fill="none" stroke="#191970" d="M2300.9153,-206.9005C2324.4491,-195.5569 2363.8101,-176.5844 2390.7929,-163.5783"/>
<polygon fill="#191970" stroke="#191970" points="2392.6332,-166.5766 2400.1216,-159.0817 2389.5937,-160.2709 2392.6332,-166.5766"/>
</g>
<!-- Node19 -->
<g id="node20" class="node">
<title>Node19</title>
<g id="a_node20"><a xlink:title=" ">
<polygon fill="#ffffff" stroke="#bfbfbf" points="2818,-140 2818,-159 2856,-159 2856,-140 2818,-140"/>
<text text-anchor="middle" x="2837" y="-147" font-family="Helvetica,sans-Serif" font-size="10.00" fill="#000000">map</text>
</a>
</g>
</g>
<!-- Node15&#45;&gt;Node19 -->
<g id="edge25" class="edge">
<title>Node15&#45;&gt;Node19</title>
<path fill="none" stroke="#191970" d="M2343.6995,-208.9445C2463.5343,-194.504 2720.8935,-163.4913 2807.7118,-153.0293"/>
<polygon fill="#191970" stroke="#191970" points="2808.382,-156.474 2817.8914,-151.8027 2807.5445,-149.5243 2808.382,-156.474"/>
</g>
<!-- Node20 -->
<g id="node21" class="node">
<title>Node20</title>
<g id="a_node21"><a xlink:title=" ">
<polygon fill="#ffffff" stroke="#bfbfbf" points="2250,-140 2250,-159 2306,-159 2306,-140 2250,-140"/>
<text text-anchor="middle" x="2278" y="-147" font-family="Helvetica,sans-Serif" font-size="10.00" fill="#000000">optional</text>
</a>
</g>
</g>
<!-- Node15&#45;&gt;Node20 -->
<g id="edge26" class="edge">
<title>Node15&#45;&gt;Node20</title>
<path fill="none" stroke="#191970" d="M2280.5702,-206.9005C2280.1335,-197.149 2279.4445,-181.7597 2278.8897,-169.3695"/>
<polygon fill="#191970" stroke="#191970" points="2282.3729,-168.9151 2278.429,-159.0817 2275.3799,-169.2282 2282.3729,-168.9151"/>
</g>
<!-- Node21 -->
<g id="node22" class="node">
<title>Node21</title>
<g id="a_node22"><a xlink:title=" ">
<polygon fill="#ffffff" stroke="#bfbfbf" points="1461.5,-73 1461.5,-92 1508.5,-92 1508.5,-73 1461.5,-73"/>
<text text-anchor="middle" x="1485" y="-80" font-family="Helvetica,sans-Serif" font-size="10.00" fill="#000000">vector</text>
</a>
</g>
</g>
<!-- Node15&#45;&gt;Node21 -->
<g id="edge31" class="edge">
<title>Node15&#45;&gt;Node21</title>
<path fill="none" stroke="#191970" d="M2274.878,-206.9221C2262.74,-188.888 2233.6874,-150.248 2198,-134 2135.7276,-105.6483 1651.6443,-87.9262 1518.6877,-83.5593"/>
<polygon fill="#191970" stroke="#191970" points="1518.7821,-80.0606 1508.6737,-83.234 1518.5548,-87.0569 1518.7821,-80.0606"/>
</g>
<!-- Node22 -->
<g id="node23" class="node">
<title>Node22</title>
<g id="a_node23"><a xlink:href="drake__throw_8h.html" target="_top" xlink:title="Provides a convenient wrapper to throw an exception when a condition is unmet.">
<polygon fill="#ffffff" stroke="#000000" points="1848.5,-134.5 1848.5,-164.5 1969.5,-164.5 1969.5,-134.5 1848.5,-134.5"/>
<text text-anchor="start" x="1856.5" y="-152.5" font-family="Helvetica,sans-Serif" font-size="10.00" fill="#000000">drake/common/drake</text>
<text text-anchor="middle" x="1909" y="-141.5" font-family="Helvetica,sans-Serif" font-size="10.00" fill="#000000">_throw.h</text>
</a>
</g>
</g>
<!-- Node15&#45;&gt;Node22 -->
<g id="edge33" class="edge">
<title>Node15&#45;&gt;Node22</title>
<path fill="none" stroke="#191970" d="M2228.0965,-206.9717C2162.9593,-195.24 2052.0898,-175.2715 1979.6991,-162.2334"/>
<polygon fill="#191970" stroke="#191970" points="1980.2107,-158.7693 1969.7486,-160.4413 1978.9698,-165.6585 1980.2107,-158.7693"/>
</g>
<!-- Node22&#45;&gt;Node8 -->
<g id="edge35" class="edge">
<title>Node22&#45;&gt;Node8</title>
<path fill="none" stroke="#191970" d="M1957.4746,-134.4639C1989.7388,-124.456 2032.3104,-111.2509 2066.4639,-100.657"/>
<polygon fill="#191970" stroke="#191970" points="2067.7998,-103.9072 2076.314,-97.6017 2065.7259,-97.2215 2067.7998,-103.9072"/>
</g>
<!-- Node22&#45;&gt;Node9 -->
<g id="edge34" class="edge">
<title>Node22&#45;&gt;Node9</title>
<path fill="none" stroke="#191970" d="M1909,-134.389C1909,-110.0735 1909,-62.2644 1909,-35.2698"/>
<polygon fill="#191970" stroke="#191970" points="1912.5001,-35.1041 1909,-25.1042 1905.5001,-35.1042 1912.5001,-35.1041"/>
</g>
<!-- Node23&#45;&gt;Node11 -->
<g id="edge38" class="edge">
<title>Node23&#45;&gt;Node11</title>
<path fill="none" stroke="#191970" d="M397.391,-206.7158C390.9111,-179.9598 377.263,-105.0438 416,-67 451.6572,-31.981 778.323,-20.3336 925.1256,-16.8464"/>
<polygon fill="#191970" stroke="#191970" points="925.4618,-20.3396 935.3781,-16.6092 925.2998,-13.3415 925.4618,-20.3396"/>
</g>
<!-- Node24 -->
<g id="node25" class="node">
<title>Node24</title>
<g id="a_node25"><a xlink:title=" ">
<polygon fill="#ffffff" stroke="#bfbfbf" points="1024,-140 1024,-159 1078,-159 1078,-140 1024,-140"/>
<text text-anchor="middle" x="1051" y="-147" font-family="Helvetica,sans-Serif" font-size="10.00" fill="#000000">random</text>
</a>
</g>
</g>
<!-- Node23&#45;&gt;Node24 -->
<g id="edge37" class="edge">
<title>Node23&#45;&gt;Node24</title>
<path fill="none" stroke="#191970" d="M470.2869,-209.2662C607.921,-195.1011 908.7006,-164.1453 1013.8331,-153.3252"/>
<polygon fill="#191970" stroke="#191970" points="1014.3691,-156.7886 1023.9582,-152.2831 1013.6524,-149.8254 1014.3691,-156.7886"/>
</g>
<!-- Node25&#45;&gt;Node0 -->
<g id="edge157" class="edge">
<title>Node25&#45;&gt;Node0</title>
<path fill="none" stroke="#191970" d="M2326.1083,-354.8469C2327.4704,-361.9883 2327.9849,-371.9858 2327.6519,-381.2849"/>
<polygon fill="#191970" stroke="#191970" points="2324.1584,-381.068 2326.9157,-391.2977 2331.1396,-381.5813 2324.1584,-381.068"/>
</g>
<!-- Node26 -->
<g id="node27" class="node">
<title>Node26</title>
<g id="a_node27"><a xlink:href="symbolic__variable_8h.html" target="_top" xlink:title=" ">
<polygon fill="#ffffff" stroke="#000000" points="1536.5,-268.5 1536.5,-298.5 1673.5,-298.5 1673.5,-268.5 1536.5,-268.5"/>
<text text-anchor="start" x="1544.5" y="-286.5" font-family="Helvetica,sans-Serif" font-size="10.00" fill="#000000">drake/common/symbolic</text>
<text text-anchor="middle" x="1605" y="-275.5" font-family="Helvetica,sans-Serif" font-size="10.00" fill="#000000">_variable.h</text>
</a>
</g>
</g>
<!-- Node25&#45;&gt;Node26 -->
<g id="edge40" class="edge">
<title>Node25&#45;&gt;Node26</title>
<path fill="none" stroke="#191970" d="M2247.8575,-342.7503C2130.6597,-338.4807 1893.447,-327.1086 1683.7385,-299.1379"/>
<polygon fill="#191970" stroke="#191970" points="1684.152,-295.6621 1673.7738,-297.7934 1683.2159,-302.5992 1684.152,-295.6621"/>
</g>
<!-- Node27 -->
<g id="node28" class="node">
<title>Node27</title>
<g id="a_node28"><a xlink:href="symbolic__variables_8h.html" target="_top" xlink:title=" ">
<polygon fill="#ffffff" stroke="#000000" points="2054.5,-268.5 2054.5,-298.5 2191.5,-298.5 2191.5,-268.5 2054.5,-268.5"/>
<text text-anchor="start" x="2062.5" y="-286.5" font-family="Helvetica,sans-Serif" font-size="10.00" fill="#000000">drake/common/symbolic</text>
<text text-anchor="middle" x="2123" y="-275.5" font-family="Helvetica,sans-Serif" font-size="10.00" fill="#000000">_variables.h</text>
</a>
</g>
</g>
<!-- Node25&#45;&gt;Node27 -->
<g id="edge50" class="edge">
<title>Node25&#45;&gt;Node27</title>
<path fill="none" stroke="#191970" d="M2285,-335.3906C2254.3422,-326.4123 2210.0442,-312.7735 2175.4709,-301.7316"/>
<polygon fill="#191970" stroke="#191970" points="2176.1304,-298.2675 2165.5392,-298.5446 2173.9915,-304.9328 2176.1304,-298.2675"/>
</g>
<!-- Node29 -->
<g id="node30" class="node">
<title>Node29</title>
<g id="a_node30"><a xlink:href="symbolic__environment_8h.html" target="_top" xlink:title=" ">
<polygon fill="#ffffff" stroke="#000000" points="938.5,-268.5 938.5,-298.5 1075.5,-298.5 1075.5,-268.5 938.5,-268.5"/>
<text text-anchor="start" x="946.5" y="-286.5" font-family="Helvetica,sans-Serif" font-size="10.00" fill="#000000">drake/common/symbolic</text>
<text text-anchor="middle" x="1007" y="-275.5" font-family="Helvetica,sans-Serif" font-size="10.00" fill="#000000">_environment.h</text>
</a>
</g>
</g>
<!-- Node25&#45;&gt;Node29 -->
<g id="edge60" class="edge">
<title>Node25&#45;&gt;Node29</title>
<path fill="none" stroke="#191970" d="M2247.5647,-341.7152C2018.9589,-331.2301 1321.5572,-298.5928 1085.7941,-287.3511"/>
<polygon fill="#191970" stroke="#191970" points="1085.744,-283.8448 1075.5885,-286.8641 1085.4102,-290.8369 1085.744,-283.8448"/>
</g>
<!-- Node31 -->
<g id="node32" class="node">
<title>Node31</title>
<g id="a_node32"><a xlink:href="symbolic__expression_8h.html" target="_top" xlink:title=" ">
<polygon fill="#ffffff" stroke="#000000" points="1691.5,-268.5 1691.5,-298.5 1828.5,-298.5 1828.5,-268.5 1691.5,-268.5"/>
<text text-anchor="start" x="1699.5" y="-286.5" font-family="Helvetica,sans-Serif" font-size="10.00" fill="#000000">drake/common/symbolic</text>
<text text-anchor="middle" x="1760" y="-275.5" font-family="Helvetica,sans-Serif" font-size="10.00" fill="#000000">_expression.h</text>
</a>
</g>
</g>
<!-- Node25&#45;&gt;Node31 -->
<g id="edge69" class="edge">
<title>Node25&#45;&gt;Node31</title>
<path fill="none" stroke="#191970" d="M2247.8842,-337.4897C2142.2282,-326.206 1947.7933,-304.9046 1838.9672,-292.7029"/>
<polygon fill="#191970" stroke="#191970" points="1839.0368,-289.1889 1828.7087,-291.5512 1838.2557,-296.1451 1839.0368,-289.1889"/>
</g>
<!-- Node44 -->
<g id="node45" class="node">
<title>Node44</title>
<g id="a_node45"><a xlink:href="symbolic__expression__visitor_8h.html" target="_top" xlink:title=" ">
<polygon fill="#ffffff" stroke="#000000" points="1910.5,-201.5 1910.5,-231.5 2047.5,-231.5 2047.5,-201.5 1910.5,-201.5"/>
<text text-anchor="start" x="1918.5" y="-219.5" font-family="Helvetica,sans-Serif" font-size="10.00" fill="#000000">drake/common/symbolic</text>
<text text-anchor="middle" x="1979" y="-208.5" font-family="Helvetica,sans-Serif" font-size="10.00" fill="#000000">_expression_visitor.h</text>
</a>
</g>
</g>
<!-- Node25&#45;&gt;Node44 -->
<g id="edge111" class="edge">
<title>Node25&#45;&gt;Node44</title>
<path fill="none" stroke="#191970" d="M2247.6822,-339.3828C2175.2304,-332.5278 2070.5661,-319.2808 2036,-299 2012.6935,-285.3255 1994.3545,-260.0684 1984.6991,-241.088"/>
<polygon fill="#191970" stroke="#191970" points="1987.8057,-239.4654 1980.4612,-231.8293 1981.4407,-242.3787 1987.8057,-239.4654"/>
</g>
<!-- Node45 -->
<g id="node46" class="node">
<title>Node45</title>
<g id="a_node46"><a xlink:href="symbolic__ldlt_8h.html" target="_top" xlink:title="Eigen::LDLT is specialized for drake::symbolic::Expression, for certain matrix sizes.">
<polygon fill="#ffffff" stroke="#000000" points="2719.5,-268.5 2719.5,-298.5 2856.5,-298.5 2856.5,-268.5 2719.5,-268.5"/>
<text text-anchor="start" x="2727.5" y="-286.5" font-family="Helvetica,sans-Serif" font-size="10.00" fill="#000000">drake/common/symbolic</text>
<text text-anchor="middle" x="2788" y="-275.5" font-family="Helvetica,sans-Serif" font-size="10.00" fill="#000000">_ldlt.h</text>
</a>
</g>
</g>
<!-- Node25&#45;&gt;Node45 -->
<g id="edge116" class="edge">
<title>Node25&#45;&gt;Node45</title>
<path fill="none" stroke="#191970" d="M2394.2014,-338.1581C2470.5354,-330.6175 2593.8582,-317.2965 2709.1446,-299.2286"/>
<polygon fill="#191970" stroke="#191970" points="2709.8732,-302.657 2719.2031,-297.6367 2708.7789,-295.743 2709.8732,-302.657"/>
</g>
<!-- Node46 -->
<g id="node47" class="node">
<title>Node46</title>
<g id="a_node47"><a xlink:href="symbolic__monomial_8h.html" target="_top" xlink:title=" ">
<polygon fill="#ffffff" stroke="#000000" points="2564.5,-268.5 2564.5,-298.5 2701.5,-298.5 2701.5,-268.5 2564.5,-268.5"/>
<text text-anchor="start" x="2572.5" y="-286.5" font-family="Helvetica,sans-Serif" font-size="10.00" fill="#000000">drake/common/symbolic</text>
<text text-anchor="middle" x="2633" y="-275.5" font-family="Helvetica,sans-Serif" font-size="10.00" fill="#000000">_monomial.h</text>
</a>
</g>
</g>
<!-- Node25&#45;&gt;Node46 -->
<g id="edge118" class="edge">
<title>Node25&#45;&gt;Node46</title>
<path fill="none" stroke="#191970" d="M2362.9529,-335.426C2408.1999,-326.1415 2482.0286,-311.6439 2546,-299 2548.7935,-298.4479 2551.6432,-297.8841 2554.5266,-297.3141"/>
<polygon fill="#191970" stroke="#191970" points="2555.2941,-300.7302 2564.4272,-295.3604 2553.9388,-293.8627 2555.2941,-300.7302"/>
</g>
<!-- Node47 -->
<g id="node48" class="node">
<title>Node47</title>
<g id="a_node48"><a xlink:href="symbolic__monomial__util_8h.html" target="_top" xlink:title=" ">
<polygon fill="#ffffff" stroke="#000000" points="2913.5,-268.5 2913.5,-298.5 3050.5,-298.5 3050.5,-268.5 2913.5,-268.5"/>
<text text-anchor="start" x="2921.5" y="-286.5" font-family="Helvetica,sans-Serif" font-size="10.00" fill="#000000">drake/common/symbolic</text>
<text text-anchor="middle" x="2982" y="-275.5" font-family="Helvetica,sans-Serif" font-size="10.00" fill="#000000">_monomial_util.h</text>
</a>
</g>
</g>
<!-- Node25&#45;&gt;Node47 -->
<g id="edge127" class="edge">
<title>Node25&#45;&gt;Node47</title>
<path fill="none" stroke="#191970" d="M2394.4186,-339.5039C2497.7852,-331.8847 2691.8071,-316.9973 2857,-299 2871.9121,-297.3754 2887.8708,-295.3987 2903.2481,-293.4081"/>
<polygon fill="#191970" stroke="#191970" points="2903.7898,-296.8672 2913.2524,-292.1016 2902.8833,-289.9261 2903.7898,-296.8672"/>
</g>
<!-- Node48 -->
<g id="node49" class="node">
<title>Node48</title>
<g id="a_node49"><a xlink:href="symbolic__polynomial_8h.html" target="_top" xlink:title=" ">
<polygon fill="#ffffff" stroke="#000000" points="3068.5,-268.5 3068.5,-298.5 3205.5,-298.5 3205.5,-268.5 3068.5,-268.5"/>
<text text-anchor="start" x="3076.5" y="-286.5" font-family="Helvetica,sans-Serif" font-size="10.00" fill="#000000">drake/common/symbolic</text>
<text text-anchor="middle" x="3137" y="-275.5" font-family="Helvetica,sans-Serif" font-size="10.00" fill="#000000">_polynomial.h</text>
</a>
</g>
</g>
<!-- Node25&#45;&gt;Node48 -->
<g id="edge137" class="edge">
<title>Node25&#45;&gt;Node48</title>
<path fill="none" stroke="#191970" d="M2394.0947,-343.6267C2525.9174,-340.4761 2811.7024,-330.3837 3051,-299 3053.4844,-298.6742 3056.0088,-298.3153 3058.5581,-297.9297"/>
<polygon fill="#191970" stroke="#191970" points="3059.1693,-301.3764 3068.4818,-296.324 3058.0511,-294.4663 3059.1693,-301.3764"/>
</g>
<!-- Node49 -->
<g id="node50" class="node">
<title>Node49</title>
<g id="a_node50"><a xlink:href="symbolic__chebyshev__polynomial_8h.html" target="_top" xlink:title=" ">
<polygon fill="#ffffff" stroke="#000000" points="2403.5,-268.5 2403.5,-298.5 2546.5,-298.5 2546.5,-268.5 2403.5,-268.5"/>
<text text-anchor="start" x="2411.5" y="-286.5" font-family="Helvetica,sans-Serif" font-size="10.00" fill="#000000">drake/common/symbolic</text>
<text text-anchor="middle" x="2475" y="-275.5" font-family="Helvetica,sans-Serif" font-size="10.00" fill="#000000">_chebyshev_polynomial.h</text>
</a>
</g>
</g>
<!-- Node25&#45;&gt;Node49 -->
<g id="edge146" class="edge">
<title>Node25&#45;&gt;Node49</title>
<path fill="none" stroke="#191970" d="M2340,-335.3906C2360.4636,-326.5279 2393.6277,-313.1239 2422.0126,-302.1594"/>
<polygon fill="#191970" stroke="#191970" points="2423.3486,-305.3956 2431.4303,-298.5446 2420.8401,-298.8605 2423.3486,-305.3956"/>
</g>
<!-- Node50 -->
<g id="node51" class="node">
<title>Node50</title>
<g id="a_node51"><a xlink:href="symbolic__rational__function_8h.html" target="_top" xlink:title=" ">
<polygon fill="#ffffff" stroke="#000000" points="2248.5,-268.5 2248.5,-298.5 2385.5,-298.5 2385.5,-268.5 2248.5,-268.5"/>
<text text-anchor="start" x="2256.5" y="-286.5" font-family="Helvetica,sans-Serif" font-size="10.00" fill="#000000">drake/common/symbolic</text>
<text text-anchor="middle" x="2317" y="-275.5" font-family="Helvetica,sans-Serif" font-size="10.00" fill="#000000">_rational_function.h</text>
</a>
</g>
</g>
<!-- Node25&#45;&gt;Node50 -->
<g id="edge154" class="edge">
<title>Node25&#45;&gt;Node50</title>
<path fill="none" stroke="#191970" d="M2315.3125,-335.3906C2313.4478,-328.2234 2312.2593,-318.0862 2311.9869,-308.671"/>
<polygon fill="#191970" stroke="#191970" points="2315.4878,-308.5769 2312.0814,-298.5446 2308.4881,-308.5114 2315.4878,-308.5769"/>
</g>
<!-- Node51 -->
<g id="node52" class="node">
<title>Node51</title>
<g id="a_node52"><a xlink:href="symbolic__formula__visitor_8h.html" target="_top" xlink:title=" ">
<polygon fill="#ffffff" stroke="#000000" points="3595.5,-268.5 3595.5,-298.5 3732.5,-298.5 3732.5,-268.5 3595.5,-268.5"/>
<text text-anchor="start" x="3603.5" y="-286.5" font-family="Helvetica,sans-Serif" font-size="10.00" fill="#000000">drake/common/symbolic</text>
<text text-anchor="middle" x="3664" y="-275.5" font-family="Helvetica,sans-Serif" font-size="10.00" fill="#000000">_formula_visitor.h</text>
</a>
</g>
</g>
<!-- Node25&#45;&gt;Node51 -->
<g id="edge158" class="edge">
<title>Node25&#45;&gt;Node51</title>
<path fill="none" stroke="#191970" d="M2394.2431,-343.0725C2621.7773,-337.1079 3314.1235,-318.1953 3539,-299 3553.946,-297.7242 3569.919,-295.8952 3585.2996,-293.9381"/>
<polygon fill="#191970" stroke="#191970" points="3585.8389,-297.3975 3595.3045,-292.638 3584.9368,-290.4558 3585.8389,-297.3975"/>
</g>
<!-- Node52 -->
<g id="node53" class="node">
<title>Node52</title>
<g id="a_node53"><a xlink:href="symbolic__simplification_8h.html" target="_top" xlink:title=" ">
<polygon fill="#ffffff" stroke="#000000" points="3223.5,-268.5 3223.5,-298.5 3360.5,-298.5 3360.5,-268.5 3223.5,-268.5"/>
<text text-anchor="start" x="3231.5" y="-286.5" font-family="Helvetica,sans-Serif" font-size="10.00" fill="#000000">drake/common/symbolic</text>
<text text-anchor="middle" x="3292" y="-275.5" font-family="Helvetica,sans-Serif" font-size="10.00" fill="#000000">_simplification.h</text>
</a>
</g>
</g>
<!-- Node25&#45;&gt;Node52 -->
<g id="edge162" class="edge">
<title>Node25&#45;&gt;Node52</title>
<path fill="none" stroke="#191970" d="M2394.1002,-342.4776C2576.7276,-336.1555 3049.1009,-318.7194 3206,-299 3208.4861,-298.6875 3211.012,-298.3401 3213.5625,-297.9643"/>
<polygon fill="#191970" stroke="#191970" points="3214.1626,-301.4129 3223.4901,-296.3881 3213.0649,-294.4995 3214.1626,-301.4129"/>
</g>
<!-- Node53 -->
<g id="node54" class="node">
<title>Node53</title>
<g id="a_node54"><a xlink:href="symbolic__codegen_8h.html" target="_top" xlink:title=" ">
<polygon fill="#ffffff" stroke="#000000" points="573.5,-268.5 573.5,-298.5 710.5,-298.5 710.5,-268.5 573.5,-268.5"/>
<text text-anchor="start" x="581.5" y="-286.5" font-family="Helvetica,sans-Serif" font-size="10.00" fill="#000000">drake/common/symbolic</text>
<text text-anchor="middle" x="642" y="-275.5" font-family="Helvetica,sans-Serif" font-size="10.00" fill="#000000">_codegen.h</text>
</a>
</g>
</g>
<!-- Node25&#45;&gt;Node53 -->
<g id="edge166" class="edge">
<title>Node25&#45;&gt;Node53</title>
<path fill="none" stroke="#191970" d="M2247.7968,-343.2261C2039.7324,-337.9084 1427.5988,-321.0916 920,-299 852.6543,-296.069 776.4647,-291.9151 720.8415,-288.6452"/>
<polygon fill="#191970" stroke="#191970" points="720.8907,-285.1421 710.7015,-288.0454 720.4773,-292.1298 720.8907,-285.1421"/>
</g>
<!-- Node26&#45;&gt;Node1 -->
<g id="edge42" class="edge">
<title>Node26&#45;&gt;Node1</title>
<path fill="none" stroke="#191970" d="M1673.7655,-269.1439C1676.5416,-268.7273 1679.2944,-268.3432 1682,-268 1829.9186,-249.2387 2214.4628,-289.5797 2352,-232 2370.863,-224.1031 2367.7429,-210.2116 2386,-201 2459.6166,-163.8569 2488.2503,-185.9522 2568,-165 2571.3422,-164.1219 2574.7942,-163.1372 2578.2392,-162.101"/>
<polygon fill="#191970" stroke="#191970" points="2579.3389,-165.4242 2587.8319,-159.0902 2577.2426,-158.7455 2579.3389,-165.4242"/>
</g>
<!-- Node26&#45;&gt;Node2 -->
<g id="edge43" class="edge">
<title>Node26&#45;&gt;Node2</title>
<path fill="none" stroke="#191970" d="M1536.3019,-281.2657C1311.2011,-273.7848 609.2759,-249.1252 593,-232 553.315,-190.2441 622.1504,-127.7332 659.8425,-98.5641"/>
<polygon fill="#191970" stroke="#191970" points="662.3688,-101.0419 668.2353,-92.2195 658.1475,-95.4579 662.3688,-101.0419"/>
</g>
<!-- Node26&#45;&gt;Node3 -->
<g id="edge44" class="edge">
<title>Node26&#45;&gt;Node3</title>
<path fill="none" stroke="#191970" d="M1673.7644,-269.135C1676.5408,-268.7209 1679.294,-268.3397 1682,-268 1992.8584,-228.9807 2073.3681,-252.4145 2386,-232 2440.1694,-228.4628 2502.7169,-223.2999 2542.0611,-219.9204"/>
<polygon fill="#191970" stroke="#191970" points="2542.6116,-223.386 2552.2734,-219.0385 2542.0093,-216.412 2542.6116,-223.386"/>
</g>
<!-- Node26&#45;&gt;Node5 -->
<g id="edge45" class="edge">
<title>Node26&#45;&gt;Node5</title>
<path fill="none" stroke="#191970" d="M1536.258,-281.203C1360.646,-275.0048 904.8444,-256.723 841,-232 820.352,-224.0043 821.9967,-210.5082 802,-201 734.6062,-168.9552 684.7697,-223.1497 638,-165 629.365,-154.2639 630.3186,-145.4378 638,-134 640.8075,-129.8195 695.7487,-108.3698 732.146,-94.5041"/>
<polygon fill="#191970" stroke="#191970" points="733.7552,-97.637 741.8615,-90.815 731.2703,-91.0928 733.7552,-97.637"/>
</g>
<!-- Node26&#45;&gt;Node7 -->
<g id="edge46" class="edge">
<title>Node26&#45;&gt;Node7</title>
<path fill="none" stroke="#191970" d="M1673.7591,-269.0914C1676.537,-268.6893 1679.2919,-268.3225 1682,-268 2095.3859,-218.765 2202.0975,-250.3617 2618,-232 2712.7641,-227.8163 2823.7273,-222.086 2884.1647,-218.8947"/>
<polygon fill="#191970" stroke="#191970" points="2884.689,-222.3719 2894.49,-218.3482 2884.319,-215.3817 2884.689,-222.3719"/>
</g>
<!-- Node26&#45;&gt;Node11 -->
<g id="edge47" class="edge">
<title>Node26&#45;&gt;Node11</title>
<path fill="none" stroke="#191970" d="M1536.4757,-281.3235C1309.3366,-273.9497 594.5518,-249.4026 578,-232 523.5675,-174.7695 575.775,-106.794 644,-67 690.4899,-39.8836 836.8247,-25.8193 925.5097,-19.6035"/>
<polygon fill="#191970" stroke="#191970" points="925.76,-23.0946 935.4975,-18.9195 925.2817,-16.111 925.76,-23.0946"/>
</g>
<!-- Node26&#45;&gt;Node12 -->
<g id="edge48" class="edge">
<title>Node26&#45;&gt;Node12</title>
<path fill="none" stroke="#191970" d="M1536.2256,-280.5804C1421.3538,-275.0818 1183.387,-261.0356 984,-232 982.7214,-231.8138 981.4317,-231.619 980.1337,-231.4166"/>
<polygon fill="#191970" stroke="#191970" points="980.5053,-227.9301 970.0645,-229.7299 979.3488,-234.8339 980.5053,-227.9301"/>
</g>
<!-- Node26&#45;&gt;Node15 -->
<g id="edge49" class="edge">
<title>Node26&#45;&gt;Node15</title>
<path fill="none" stroke="#191970" d="M1673.7779,-269.2365C1676.5506,-268.7943 1679.2993,-268.3795 1682,-268 1878.9325,-240.3296 1929.9515,-250.023 2128,-232 2154.1731,-229.6182 2182.8401,-226.7763 2208.2131,-224.1803"/>
<polygon fill="#191970" stroke="#191970" points="2208.9083,-227.6274 2218.498,-223.1232 2208.1925,-220.6641 2208.9083,-227.6274"/>
</g>
<!-- Node26&#45;&gt;Node17 -->
<g id="edge41" class="edge">
<title>Node26&#45;&gt;Node17</title>
<path fill="none" stroke="#191970" d="M1673.7856,-269.2896C1676.5561,-268.8326 1679.3023,-268.4003 1682,-268 1764.591,-255.7454 1981.6033,-269.9023 2056,-232 2084.1176,-217.6752 2106.3155,-187.5437 2118.544,-167.9322"/>
<polygon fill="#191970" stroke="#191970" points="2121.5986,-169.6438 2123.7285,-159.2652 2115.5913,-166.0503 2121.5986,-169.6438"/>
</g>
<!-- Node27&#45;&gt;Node1 -->
<g id="edge52" class="edge">
<title>Node27&#45;&gt;Node1</title>
<path fill="none" stroke="#191970" d="M2191.8223,-270.5328C2196.6183,-269.6645 2201.3801,-268.8127 2206,-268 2302.7159,-250.9855 2329.7794,-259.6756 2424,-232 2484.6052,-214.1983 2551.5368,-182.2209 2587.8719,-163.7412"/>
<polygon fill="#191970" stroke="#191970" points="2589.5558,-166.811 2596.8535,-159.1301 2586.3588,-160.5837 2589.5558,-166.811"/>
</g>
<!-- Node27&#45;&gt;Node3 -->
<g id="edge54" class="edge">
<title>Node27&#45;&gt;Node3</title>
<path fill="none" stroke="#191970" d="M2191.7745,-270.2368C2196.5819,-269.439 2201.3593,-268.6839 2206,-268 2352.8346,-246.3611 2393.3867,-265.4013 2538,-232 2541.2474,-231.2499 2544.5867,-230.3288 2547.9002,-229.3129"/>
<polygon fill="#191970" stroke="#191970" points="2549.2705,-232.5453 2557.6463,-226.0572 2547.0525,-225.906 2549.2705,-232.5453"/>
</g>
<!-- Node27&#45;&gt;Node4 -->
<g id="edge55" class="edge">
<title>Node27&#45;&gt;Node4</title>
<path fill="none" stroke="#191970" d="M2191.7856,-270.3105C2196.5904,-269.4951 2201.3641,-268.716 2206,-268 2336.1002,-247.9071 2377.4208,-280.0013 2500,-232 2521.9377,-223.4093 2521.0175,-209.4753 2543,-201 2677.3622,-149.1967 2728.9158,-212.0943 2865,-165 2866.0376,-164.6409 2867.0772,-164.2328 2868.1112,-163.7865"/>
<polygon fill="#191970" stroke="#191970" points="2869.8737,-166.8134 2877.0591,-159.0274 2866.5866,-160.6332 2869.8737,-166.8134"/>
</g>
<!-- Node27&#45;&gt;Node5 -->
<g id="edge56" class="edge">
<title>Node27&#45;&gt;Node5</title>
<path fill="none" stroke="#191970" d="M2115.3246,-268.4953C2104.7337,-249.4492 2083.7563,-217.1347 2056,-201 1971.4799,-151.8686 1928.3454,-204.6855 1839,-165 1818.7643,-156.0117 1820.7177,-141.8133 1800,-134 1751.9551,-115.8808 966.9841,-89.1626 796.5038,-83.5556"/>
<polygon fill="#191970" stroke="#191970" points="796.5058,-80.0538 786.3964,-83.2242 796.2764,-87.0501 796.5058,-80.0538"/>
</g>
<!-- Node27&#45;&gt;Node12 -->
<g id="edge57" class="edge">
<title>Node27&#45;&gt;Node12</title>
<path fill="none" stroke="#191970" d="M2054.235,-279.7115C1996.3045,-276.5347 1911.2372,-271.9044 1837,-268 1523.2482,-251.4987 1444.6109,-250.9917 1131,-232 1080.5296,-228.9436 1023.616,-224.9389 980.1859,-221.7657"/>
<polygon fill="#191970" stroke="#191970" points="980.2402,-218.2604 970.0109,-221.0195 979.7281,-225.2417 980.2402,-218.2604"/>
</g>
<!-- Node27&#45;&gt;Node15 -->
<g id="edge58" class="edge">
<title>Node27&#45;&gt;Node15</title>
<path fill="none" stroke="#191970" d="M2158.4583,-268.4639C2185.5657,-256.969 2222.6199,-241.2561 2248.8655,-230.1266"/>
<polygon fill="#191970" stroke="#191970" points="2250.5119,-233.2302 2258.3519,-226.1039 2247.7791,-226.7857 2250.5119,-233.2302"/>
</g>
<!-- Node27&#45;&gt;Node17 -->
<g id="edge51" class="edge">
<title>Node27&#45;&gt;Node17</title>
<path fill="none" stroke="#191970" d="M2140.6884,-268.2622C2150.1678,-258.8913 2160.9178,-246.0163 2166,-232 2170.6965,-219.0474 2170.2227,-214.1147 2166,-201 2161.9183,-188.3232 2153.4324,-176.1274 2145.616,-166.7887"/>
<polygon fill="#191970" stroke="#191970" points="2148.0294,-164.2355 2138.7714,-159.0837 2142.7961,-168.8844 2148.0294,-164.2355"/>
</g>
<!-- Node27&#45;&gt;Node25 -->
<g id="edge59" class="edge">
<title>Node27&#45;&gt;Node25</title>
<path fill="none" stroke="#191970" d="M2177.3333,-298.5446C2211.8004,-308.8684 2255.3326,-322.4207 2285.4558,-332.221"/>
<polygon fill="#191970" stroke="#191970" points="2284.5323,-335.6014 2295.125,-335.3906 2286.7128,-328.9497 2284.5323,-335.6014"/>
</g>
<!-- Node28 -->
<g id="node29" class="node">
<title>Node28</title>
<g id="a_node29"><a xlink:title=" ">
<polygon fill="#ffffff" stroke="#bfbfbf" points="1328.5,-207 1328.5,-226 1411.5,-226 1411.5,-207 1328.5,-207"/>
<text text-anchor="middle" x="1370" y="-214" font-family="Helvetica,sans-Serif" font-size="10.00" fill="#000000">initializer_list</text>
</a>
</g>
</g>
<!-- Node27&#45;&gt;Node28 -->
<g id="edge53" class="edge">
<title>Node27&#45;&gt;Node28</title>
<path fill="none" stroke="#191970" d="M2054.3718,-278.742C1939.0945,-270.5509 1699.3218,-252.6607 1497,-232 1472.2804,-229.4757 1444.9138,-226.1978 1421.9339,-223.3069"/>
<polygon fill="#191970" stroke="#191970" points="1422.0704,-219.7962 1411.7095,-222.01 1421.1895,-226.7406 1422.0704,-219.7962"/>
</g>
<!-- Node29&#45;&gt;Node3 -->
<g id="edge62" class="edge">
<title>Node29&#45;&gt;Node3</title>
<path fill="none" stroke="#191970" d="M1075.6187,-281.5832C1273.64,-275.8986 1863.13,-257.8986 2352,-232 2419.0035,-228.4504 2496.9372,-222.8645 2542.4344,-219.4567"/>
<polygon fill="#191970" stroke="#191970" points="2542.7466,-222.9432 2552.4555,-218.702 2542.2208,-215.9629 2542.7466,-222.9432"/>
</g>
<!-- Node29&#45;&gt;Node5 -->
<g id="edge63" class="edge">
<title>Node29&#45;&gt;Node5</title>
<path fill="none" stroke="#191970" d="M938.3314,-278.8356C827.6681,-270.7484 619.5322,-252.9646 593,-232 557.7309,-204.1318 540.1174,-169.2577 568,-134 611.0637,-79.5457 653.3883,-117.561 720,-98 723.9097,-96.8519 727.9822,-95.5564 732.0024,-94.2157"/>
<polygon fill="#191970" stroke="#191970" points="733.4532,-97.4177 741.7656,-90.8485 731.1709,-90.8002 733.4532,-97.4177"/>
</g>
<!-- Node29&#45;&gt;Node11 -->
<g id="edge65" class="edge">
<title>Node29&#45;&gt;Node11</title>
<path fill="none" stroke="#191970" d="M938.3522,-279.5731C766.6325,-269.5903 331.4265,-243.2386 321,-232 272.7105,-179.9493 258.5624,-155.3625 393,-67 436.6119,-38.335 775.7458,-23.1435 925.4153,-17.7779"/>
<polygon fill="#191970" stroke="#191970" points="925.5564,-21.2752 935.4263,-17.4236 925.3087,-14.2796 925.5564,-21.2752"/>
</g>
<!-- Node29&#45;&gt;Node12 -->
<g id="edge66" class="edge">
<title>Node29&#45;&gt;Node12</title>
<path fill="none" stroke="#191970" d="M984.9892,-268.2967C971.843,-259.2163 954.9513,-247.5488 940.529,-237.587"/>
<polygon fill="#191970" stroke="#191970" points="942.1409,-234.4467 931.9237,-231.6432 938.1626,-240.2063 942.1409,-234.4467"/>
</g>
<!-- Node29&#45;&gt;Node23 -->
<g id="edge67" class="edge">
<title>Node29&#45;&gt;Node23</title>
<path fill="none" stroke="#191970" d="M938.2458,-278.5878C838.0461,-271.0082 646.1623,-254.9039 484,-232 475.5568,-230.8075 466.6687,-229.3687 457.9615,-227.8544"/>
<polygon fill="#191970" stroke="#191970" points="458.32,-224.3632 447.8607,-226.0524 457.0905,-231.2544 458.32,-224.3632"/>
</g>
<!-- Node29&#45;&gt;Node25 -->
<g id="edge68" class="edge">
<title>Node29&#45;&gt;Node25</title>
<path fill="none" stroke="#191970" d="M1075.8766,-286.5758C1298.1395,-296.7611 1995.5529,-329.3962 2237.439,-340.9217"/>
<polygon fill="#191970" stroke="#191970" points="2237.4219,-344.4247 2247.5773,-341.4051 2237.7554,-337.4327 2237.4219,-344.4247"/>
</g>
<!-- Node29&#45;&gt;Node28 -->
<g id="edge61" class="edge">
<title>Node29&#45;&gt;Node28</title>
<path fill="none" stroke="#191970" d="M1075.7043,-270.819C1146.2841,-257.7919 1254.5664,-237.8059 1318.2325,-226.0549"/>
<polygon fill="#191970" stroke="#191970" points="1319.2378,-229.4285 1328.4364,-224.1715 1317.9672,-222.5448 1319.2378,-229.4285"/>
</g>
<!-- Node30 -->
<g id="node31" class="node">
<title>Node30</title>
<g id="a_node31"><a xlink:title=" ">
<polygon fill="#ffffff" stroke="#bfbfbf" points="700.5,-207 700.5,-226 793.5,-226 793.5,-207 700.5,-207"/>
<text text-anchor="middle" x="747" y="-214" font-family="Helvetica,sans-Serif" font-size="10.00" fill="#000000">unordered_map</text>
</a>
</g>
</g>
<!-- Node29&#45;&gt;Node30 -->
<g id="edge64" class="edge">
<title>Node29&#45;&gt;Node30</title>
<path fill="none" stroke="#191970" d="M948.6509,-268.4639C901.8415,-256.4015 837.008,-239.6944 793.617,-228.5128"/>
<polygon fill="#191970" stroke="#191970" points="794.4433,-225.1115 783.8862,-226.0053 792.6964,-231.89 794.4433,-225.1115"/>
</g>
<!-- Node31&#45;&gt;Node1 -->
<g id="edge72" class="edge">
<title>Node31&#45;&gt;Node1</title>
<path fill="none" stroke="#191970" d="M1828.6458,-280.155C1980.4685,-272.4266 2335.3356,-252.4236 2386,-232 2406.2152,-223.8509 2404.5148,-210.7667 2424,-201 2482.9759,-171.4391 2504.6318,-183.3431 2568,-165 2571.1362,-164.0922 2574.3769,-163.1123 2577.6221,-162.1019"/>
<polygon fill="#191970" stroke="#191970" points="2578.8096,-165.3968 2587.2704,-159.0199 2576.6796,-158.7287 2578.8096,-165.3968"/>
</g>
<!-- Node31&#45;&gt;Node2 -->
<g id="edge75" class="edge">
<title>Node31&#45;&gt;Node2</title>
<path fill="none" stroke="#191970" d="M1691.1832,-269.2723C1688.0856,-268.8063 1685.0137,-268.3785 1682,-268 1534.0582,-249.4222 1149.105,-290.6015 1012,-232 993.4963,-224.0911 994.2021,-214.1847 979,-201 959.6509,-184.2186 953.4734,-181.6369 934,-165 918.4523,-151.7169 918.1779,-143.3668 900,-134 832.5062,-99.2217 806.4971,-117.0557 733,-98 728.969,-96.9549 724.7792,-95.7982 720.6112,-94.6016"/>
<polygon fill="#191970" stroke="#191970" points="721.5914,-91.2417 711.0098,-91.7704 719.6116,-97.9559 721.5914,-91.2417"/>
</g>
<!-- Node31&#45;&gt;Node3 -->
<g id="edge76" class="edge">
<title>Node31&#45;&gt;Node3</title>
<path fill="none" stroke="#191970" d="M1828.5477,-279.7821C1986.2787,-271.056 2371.2541,-248.7373 2500,-232 2513.9164,-230.1908 2529.0504,-227.4948 2542.4295,-224.8563"/>
<polygon fill="#191970" stroke="#191970" points="2543.1619,-228.2791 2552.2692,-222.8655 2541.7737,-221.4182 2543.1619,-228.2791"/>
</g>
<!-- Node31&#45;&gt;Node5 -->
<g id="edge78" class="edge">
<title>Node31&#45;&gt;Node5</title>
<path fill="none" stroke="#191970" d="M1691.1809,-269.2904C1688.0839,-268.8195 1685.0128,-268.3857 1682,-268 1546.2074,-250.6174 1195.7527,-278.5245 1067,-232 997.9452,-207.0472 999.6422,-166.8985 934,-134 888.6521,-111.2726 831.397,-96.49 796.2567,-88.8254"/>
<polygon fill="#191970" stroke="#191970" points="796.607,-85.322 786.0988,-86.6744 795.1568,-92.1702 796.607,-85.322"/>
</g>
<!-- Node31&#45;&gt;Node6 -->
<g id="edge81" class="edge">
<title>Node31&#45;&gt;Node6</title>
<path fill="none" stroke="#191970" d="M1771.9563,-268.2955C1783.975,-251.02 1799.0004,-222.4463 1786,-201 1768.0694,-171.4206 1734.9306,-194.5794 1717,-165 1709.8579,-153.2179 1708.3658,-144.7368 1717,-134 1779.4916,-56.2908 2522.2576,-23.1652 2688.2427,-16.707"/>
<polygon fill="#191970" stroke="#191970" points="2688.47,-20.2009 2698.3284,-16.3199 2688.2015,-13.2061 2688.47,-20.2009"/>
</g>
<!-- Node31&#45;&gt;Node7 -->
<g id="edge83" class="edge">
<title>Node31&#45;&gt;Node7</title>
<path fill="none" stroke="#191970" d="M1828.762,-279.559C2044.8186,-267.1759 2706.2395,-229.2673 2884.4006,-219.0562"/>
<polygon fill="#191970" stroke="#191970" points="2884.6817,-222.5459 2894.465,-218.4793 2884.2811,-215.5574 2884.6817,-222.5459"/>
</g>
<!-- Node31&#45;&gt;Node8 -->
<g id="edge89" class="edge">
<title>Node31&#45;&gt;Node8</title>
<path fill="none" stroke="#191970" d="M1787.2399,-268.458C1805.4062,-258.335 1829.7614,-244.587 1851,-232 1873.4933,-218.6694 1878.0062,-213.4474 1901,-201 1934.2223,-183.0156 1944.3938,-182.2564 1978,-165 2017.2825,-144.829 2061.327,-119.7747 2090.8727,-102.6014"/>
<polygon fill="#191970" stroke="#191970" points="2092.6794,-105.5996 2099.5553,-97.5389 2089.1535,-99.5524 2092.6794,-105.5996"/>
</g>
<!-- Node31&#45;&gt;Node9 -->
<g id="edge79" class="edge">
<title>Node31&#45;&gt;Node9</title>
<path fill="none" stroke="#191970" d="M1691.0994,-269.7928C1688.0245,-269.1859 1684.9803,-268.5861 1682,-268 1640.9048,-259.9184 1523.6371,-264.3201 1497,-232 1469.2987,-198.3886 1472.5263,-170.0295 1497,-134 1538.7626,-72.5183 1766.1296,-34.8423 1864.077,-21.2487"/>
<polygon fill="#191970" stroke="#191970" points="1864.8188,-24.6799 1874.2531,-19.8587 1863.8713,-17.7443 1864.8188,-24.6799"/>
</g>
<!-- Node31&#45;&gt;Node11 -->
<g id="edge90" class="edge">
<title>Node31&#45;&gt;Node11</title>
<path fill="none" stroke="#191970" d="M1691.1776,-269.316C1688.0815,-268.8382 1685.0115,-268.3959 1682,-268 1621.1706,-260.0038 1181.3923,-266.9968 1131,-232 1091.7852,-204.7658 1111.4832,-174.9888 1087,-134 1065.9128,-98.6967 1036.0454,-61.6743 1016.3589,-38.6003"/>
<polygon fill="#191970" stroke="#191970" points="1018.7813,-36.0497 1009.6018,-30.7594 1013.4787,-40.6195 1018.7813,-36.0497"/>
</g>
<!-- Node31&#45;&gt;Node12 -->
<g id="edge94" class="edge">
<title>Node31&#45;&gt;Node12</title>
<path fill="none" stroke="#191970" d="M1691.1842,-269.2642C1688.0863,-268.8004 1685.0142,-268.3752 1682,-268 1373.7446,-229.6273 1292.0534,-271.9615 984,-232 982.7186,-231.8338 981.4264,-231.6574 980.126,-231.472"/>
<polygon fill="#191970" stroke="#191970" points="980.4645,-227.9823 970.0426,-229.8887 979.3786,-234.8976 980.4645,-227.9823"/>
</g>
<!-- Node31&#45;&gt;Node15 -->
<g id="edge108" class="edge">
<title>Node31&#45;&gt;Node15</title>
<path fill="none" stroke="#191970" d="M1828.6243,-274.9609C1909.3695,-264.8751 2047.4667,-247.5057 2166,-232 2179.663,-230.2127 2194.2344,-228.274 2208.2534,-226.3924"/>
<polygon fill="#191970" stroke="#191970" points="2208.8987,-229.8372 2218.3429,-225.0353 2207.9656,-222.8996 2208.8987,-229.8372"/>
</g>
<!-- Node31&#45;&gt;Node17 -->
<g id="edge71" class="edge">
<title>Node31&#45;&gt;Node17</title>
<path fill="none" stroke="#191970" d="M1828.7758,-278.6649C1929.8086,-270.8578 2108.5493,-254.0905 2128,-232 2143.0344,-214.9251 2139.7984,-187.2813 2135.1756,-168.7555"/>
<polygon fill="#191970" stroke="#191970" points="2138.5185,-167.7147 2132.4211,-159.0502 2131.7845,-169.6259 2138.5185,-167.7147"/>
</g>
<!-- Node31&#45;&gt;Node19 -->
<g id="edge74" class="edge">
<title>Node31&#45;&gt;Node19</title>
<path fill="none" stroke="#191970" d="M1828.6325,-279.2571C1985.7776,-269.3811 2362.536,-244.7305 2419,-232 2456.6025,-223.5221 2462.7351,-210.8567 2500,-201 2611.5022,-171.5072 2748.5242,-157.0736 2807.6041,-151.8621"/>
<polygon fill="#191970" stroke="#191970" points="2808.041,-155.3375 2817.7049,-150.9948 2807.4421,-148.3632 2808.041,-155.3375"/>
</g>
<!-- Node31&#45;&gt;Node21 -->
<g id="edge82" class="edge">
<title>Node31&#45;&gt;Node21</title>
<path fill="none" stroke="#191970" d="M1691.1196,-269.6861C1688.0392,-269.1081 1684.9884,-268.5435 1682,-268 1633.692,-259.2138 1495.7652,-269.4411 1464,-232 1432.3284,-194.6693 1458.0534,-132.2261 1474.2792,-101.1893"/>
<polygon fill="#191970" stroke="#191970" points="1477.4181,-102.7435 1479.1287,-92.2877 1471.2711,-99.3947 1477.4181,-102.7435"/>
</g>
<!-- Node31&#45;&gt;Node22 -->
<g id="edge91" class="edge">
<title>Node31&#45;&gt;Node22</title>
<path fill="none" stroke="#191970" d="M1778.0076,-268.3533C1790.0053,-258.186 1806.0682,-244.4281 1820,-232 1842.4962,-211.9319 1867.6486,-188.524 1885.4601,-171.7789"/>
<polygon fill="#191970" stroke="#191970" points="1888.2123,-173.9947 1893.0913,-164.5901 1883.4124,-168.8995 1888.2123,-173.9947"/>
</g>
<!-- Node31&#45;&gt;Node23 -->
<g id="edge109" class="edge">
<title>Node31&#45;&gt;Node23</title>
<path fill="none" stroke="#191970" d="M1691.1926,-269.1944C1688.0924,-268.7495 1685.0175,-268.3473 1682,-268 1200.9123,-212.6227 1076.4891,-259.391 593,-232 555.8869,-229.8974 514.824,-226.7191 480.1488,-223.7867"/>
<polygon fill="#191970" stroke="#191970" points="480.3384,-220.2903 470.0769,-222.9268 479.7429,-227.2649 480.3384,-220.2903"/>
</g>
<!-- Node31&#45;&gt;Node24 -->
<g id="edge77" class="edge">
<title>Node31&#45;&gt;Node24</title>
<path fill="none" stroke="#191970" d="M1691.1794,-269.3021C1688.0828,-268.828 1685.0122,-268.3903 1682,-268 1617.527,-259.6454 1153.1762,-266.3825 1098,-232 1075.3359,-217.8771 1062.5348,-188.5912 1056.1897,-168.9886"/>
<polygon fill="#191970" stroke="#191970" points="1059.5021,-167.8472 1053.3073,-159.2522 1052.7901,-169.8344 1059.5021,-167.8472"/>
</g>
<!-- Node31&#45;&gt;Node25 -->
<g id="edge110" class="edge">
<title>Node31&#45;&gt;Node25</title>
<path fill="none" stroke="#191970" d="M1828.7951,-290.5492C1932.0311,-301.5596 2126.5613,-322.8637 2237.6824,-335.3095"/>
<polygon fill="#191970" stroke="#191970" points="2237.5125,-338.8124 2247.8403,-336.4487 2238.2927,-331.856 2237.5125,-338.8124"/>
</g>
<!-- Node31&#45;&gt;Node30 -->
<g id="edge80" class="edge">
<title>Node31&#45;&gt;Node30</title>
<path fill="none" stroke="#191970" d="M1691.1883,-269.2312C1688.0893,-268.7763 1685.0158,-268.362 1682,-268 1310.5467,-223.4096 1213.1334,-270.5041 841,-232 828.9181,-230.7499 816.0325,-228.9415 803.7986,-226.998"/>
<polygon fill="#191970" stroke="#191970" points="804.142,-223.5076 793.7073,-225.3429 803.009,-230.4153 804.142,-223.5076"/>
</g>
<!-- Node32 -->
<g id="node33" class="node">
<title>Node32</title>
<g id="a_node33"><a xlink:title=" ">
<polygon fill="#ffffff" stroke="#bfbfbf" points="3020,-207 3020,-226 3084,-226 3084,-207 3020,-207"/>
<text text-anchor="middle" x="3052" y="-214" font-family="Helvetica,sans-Serif" font-size="10.00" fill="#000000">algorithm</text>
</a>
</g>
</g>
<!-- Node31&#45;&gt;Node32 -->
<g id="edge70" class="edge">
<title>Node31&#45;&gt;Node32</title>
<path fill="none" stroke="#191970" d="M1828.5128,-279.4742C1886.2336,-276.1545 1970.9996,-271.4474 2045,-268 2457.3075,-248.792 2563.0315,-279.8778 2973,-232 2985.0257,-230.5956 2997.9584,-228.3669 3009.8074,-226.0325"/>
<polygon fill="#191970" stroke="#191970" points="3010.7943,-229.4032 3019.8911,-223.972 3009.3928,-222.545 3010.7943,-229.4032"/>
</g>
<!-- Node33 -->
<g id="node34" class="node">
<title>Node33</title>
<g id="a_node34"><a xlink:title=" ">
<polygon fill="#ffffff" stroke="#bfbfbf" points="1210,-140 1210,-159 1254,-159 1254,-140 1210,-140"/>
<text text-anchor="middle" x="1232" y="-147" font-family="Helvetica,sans-Serif" font-size="10.00" fill="#000000">limits</text>
</a>
</g>
</g>
<!-- Node31&#45;&gt;Node33 -->
<g id="edge73" class="edge">
<title>Node31&#45;&gt;Node33</title>
<path fill="none" stroke="#191970" d="M1691.1598,-269.4427C1688.0685,-268.9306 1685.0044,-268.4464 1682,-268 1521.6358,-244.1722 1466.4433,-299.416 1319,-232 1302.4658,-224.44 1267.9878,-188.7843 1247.7527,-166.8955"/>
<polygon fill="#191970" stroke="#191970" points="1250.0988,-164.2751 1240.7619,-159.2678 1244.9383,-169.0047 1250.0988,-164.2751"/>
</g>
<!-- Node34 -->
<g id="node35" class="node">
<title>Node34</title>
<g id="a_node35"><a xlink:title=" ">
<polygon fill="#ffffff" stroke="#bfbfbf" points="602,-207 602,-226 682,-226 682,-207 602,-207"/>
<text text-anchor="middle" x="642" y="-214" font-family="Helvetica,sans-Serif" font-size="10.00" fill="#000000">Eigen/Sparse</text>
</a>
</g>
</g>
<!-- Node31&#45;&gt;Node34 -->
<g id="edge84" class="edge">
<title>Node31&#45;&gt;Node34</title>
<path fill="none" stroke="#191970" d="M1691.1912,-269.2067C1688.0914,-268.7585 1685.0169,-268.3523 1682,-268 1244.2391,-216.8857 1125.2814,-307.1462 691,-232 686.5272,-231.226 681.897,-230.1476 677.3485,-228.9161"/>
<polygon fill="#191970" stroke="#191970" points="678.1969,-225.5172 667.6147,-226.0349 676.21,-232.2293 678.1969,-225.5172"/>
</g>
<!-- Node35 -->
<g id="node36" class="node">
<title>Node35</title>
<g id="a_node36"><a xlink:href="cond_8h.html" target="_top" xlink:title=" ">
<polygon fill="#ffffff" stroke="#000000" points="1652.5,-207 1652.5,-226 1777.5,-226 1777.5,-207 1652.5,-207"/>
<text text-anchor="middle" x="1715" y="-214" font-family="Helvetica,sans-Serif" font-size="10.00" fill="#000000">drake/common/cond.h</text>
</a>
</g>
</g>
<!-- Node31&#45;&gt;Node35 -->
<g id="edge85" class="edge">
<title>Node31&#45;&gt;Node35</title>
<path fill="none" stroke="#191970" d="M1749.7888,-268.2967C1743.0499,-258.2631 1734.1894,-245.0709 1727.0971,-234.5113"/>
<polygon fill="#191970" stroke="#191970" points="1729.8986,-232.4049 1721.4175,-226.055 1724.0876,-236.3078 1729.8986,-232.4049"/>
</g>
<!-- Node37 -->
<g id="node38" class="node">
<title>Node37</title>
<g id="a_node38"><a xlink:href="dummy__value_8h.html" target="_top" xlink:title=" ">
<polygon fill="#ffffff" stroke="#000000" points="1140.5,-201.5 1140.5,-231.5 1271.5,-231.5 1271.5,-201.5 1140.5,-201.5"/>
<text text-anchor="start" x="1148.5" y="-219.5" font-family="Helvetica,sans-Serif" font-size="10.00" fill="#000000">drake/common/dummy</text>
<text text-anchor="middle" x="1206" y="-208.5" font-family="Helvetica,sans-Serif" font-size="10.00" fill="#000000">_value.h</text>
</a>
</g>
</g>
<!-- Node31&#45;&gt;Node37 -->
<g id="edge92" class="edge">
<title>Node31&#45;&gt;Node37</title>
<path fill="none" stroke="#191970" d="M1691.1644,-269.4118C1688.0718,-268.9081 1685.0062,-268.4341 1682,-268 1507.0885,-242.7423 1460.9715,-256.8392 1286,-232 1284.7,-231.8154 1283.3891,-231.6239 1282.0698,-231.4261"/>
<polygon fill="#191970" stroke="#191970" points="1282.2579,-227.9122 1271.8326,-229.8 1281.1597,-234.8255 1282.2579,-227.9122"/>
</g>
<!-- Node38 -->
<g id="node39" class="node">
<title>Node38</title>
<g id="a_node39"><a xlink:href="extract__double_8h.html" target="_top" xlink:title=" ">
<polygon fill="#ffffff" stroke="#000000" points="1506,-201.5 1506,-231.5 1634,-231.5 1634,-201.5 1506,-201.5"/>
<text text-anchor="start" x="1514" y="-219.5" font-family="Helvetica,sans-Serif" font-size="10.00" fill="#000000">drake/common/extract</text>
<text text-anchor="middle" x="1570" y="-208.5" font-family="Helvetica,sans-Serif" font-size="10.00" fill="#000000">_double.h</text>
</a>
</g>
</g>
<!-- Node31&#45;&gt;Node38 -->
<g id="edge95" class="edge">
<title>Node31&#45;&gt;Node38</title>
<path fill="none" stroke="#191970" d="M1717.3603,-268.4639C1689.2233,-258.5419 1652.1747,-245.4774 1622.2653,-234.9304"/>
<polygon fill="#191970" stroke="#191970" points="1623.4205,-231.6266 1612.8257,-231.6017 1621.0925,-238.2281 1623.4205,-231.6266"/>
</g>
<!-- Node35&#45;&gt;Node1 -->
<g id="edge86" class="edge">
<title>Node35&#45;&gt;Node1</title>
<path fill="none" stroke="#191970" d="M1777.8265,-210.9701C1813.8625,-207.872 1859.9594,-204.0336 1901,-201 2148.8394,-182.6801 2211.314,-185.2887 2459,-165 2497.3841,-161.8558 2540.9976,-157.4518 2572.3319,-154.1413"/>
<polygon fill="#191970" stroke="#191970" points="2572.8885,-157.602 2582.4622,-153.064 2572.1481,-150.6412 2572.8885,-157.602"/>
</g>
<!-- Node35&#45;&gt;Node9 -->
<g id="edge87" class="edge">
<title>Node35&#45;&gt;Node9</title>
<path fill="none" stroke="#191970" d="M1707.0766,-206.9923C1699.4608,-197.1834 1688.4685,-181.0883 1684,-165 1672.3436,-123.0332 1656.854,-101.0614 1684,-67 1706.0881,-39.2849 1805.0669,-25.2828 1864.1384,-19.2751"/>
<polygon fill="#191970" stroke="#191970" points="1864.7103,-22.7359 1874.3217,-18.2782 1864.0282,-15.7692 1864.7103,-22.7359"/>
</g>
<!-- Node36 -->
<g id="node37" class="node">
<title>Node36</title>
<g id="a_node37"><a xlink:href="double__overloads_8h.html" target="_top" xlink:title="Provides necessary operations on double to have it as a ScalarType in drake.">
<polygon fill="#ffffff" stroke="#000000" points="1506,-134.5 1506,-164.5 1632,-164.5 1632,-134.5 1506,-134.5"/>
<text text-anchor="start" x="1514" y="-152.5" font-family="Helvetica,sans-Serif" font-size="10.00" fill="#000000">drake/common/double</text>
<text text-anchor="middle" x="1569" y="-141.5" font-family="Helvetica,sans-Serif" font-size="10.00" fill="#000000">_overloads.h</text>
</a>
</g>
</g>
<!-- Node35&#45;&gt;Node36 -->
<g id="edge88" class="edge">
<title>Node35&#45;&gt;Node36</title>
<path fill="none" stroke="#191970" d="M1694.0818,-206.9005C1672.4989,-196.9961 1638.2424,-181.2756 1611.0323,-168.7888"/>
<polygon fill="#191970" stroke="#191970" points="1612.2825,-165.5116 1601.734,-164.5218 1609.3629,-171.8737 1612.2825,-165.5116"/>
</g>
<!-- Node37&#45;&gt;Node33 -->
<g id="edge93" class="edge">
<title>Node37&#45;&gt;Node33</title>
<path fill="none" stroke="#191970" d="M1211.8998,-201.2967C1215.6754,-191.5672 1220.6037,-178.8675 1224.6353,-168.4784"/>
<polygon fill="#191970" stroke="#191970" points="1227.9372,-169.6439 1228.2921,-159.055 1221.4114,-167.1114 1227.9372,-169.6439"/>
</g>
<!-- Node39 -->
<g id="node40" class="node">
<title>Node39</title>
<g id="a_node40"><a xlink:title=" ">
<polygon fill="#ffffff" stroke="#bfbfbf" points="1726.5,-140 1726.5,-159 1791.5,-159 1791.5,-140 1726.5,-140"/>
<text text-anchor="middle" x="1759" y="-147" font-family="Helvetica,sans-Serif" font-size="10.00" fill="#000000">stdexcept</text>
</a>
</g>
</g>
<!-- Node38&#45;&gt;Node39 -->
<g id="edge96" class="edge">
<title>Node38&#45;&gt;Node39</title>
<path fill="none" stroke="#191970" d="M1612.4153,-201.4639C1645.5109,-189.7316 1691.0012,-173.6054 1722.4888,-162.4431"/>
<polygon fill="#191970" stroke="#191970" points="1723.9307,-165.6454 1732.1866,-159.0053 1721.5918,-159.0477 1723.9307,-165.6454"/>
</g>
<!-- Node40 -->
<g id="node41" class="node">
<title>Node40</title>
<g id="a_node41"><a xlink:href="nice__type__name_8h.html" target="_top" xlink:title=" ">
<polygon fill="#ffffff" stroke="#000000" points="1272,-134.5 1272,-164.5 1412,-164.5 1412,-134.5 1272,-134.5"/>
<text text-anchor="start" x="1280" y="-152.5" font-family="Helvetica,sans-Serif" font-size="10.00" fill="#000000">drake/common/nice_type</text>
<text text-anchor="middle" x="1342" y="-141.5" font-family="Helvetica,sans-Serif" font-size="10.00" fill="#000000">_name.h</text>
</a>
</g>
</g>
<!-- Node38&#45;&gt;Node40 -->
<g id="edge97" class="edge">
<title>Node38&#45;&gt;Node40</title>
<path fill="none" stroke="#191970" d="M1518.8323,-201.4639C1484.6295,-191.4131 1439.4531,-178.1375 1403.3244,-167.5208"/>
<polygon fill="#191970" stroke="#191970" points="1403.972,-164.0631 1393.3908,-164.6017 1401.9983,-170.7792 1403.972,-164.0631"/>
</g>
<!-- Node40&#45;&gt;Node2 -->
<g id="edge98" class="edge">
<title>Node40&#45;&gt;Node2</title>
<path fill="none" stroke="#191970" d="M1271.8642,-135.2634C1268.8743,-134.807 1265.9101,-134.3828 1263,-134 1028.9179,-103.2108 965.2229,-140.602 733,-98 728.4745,-97.1698 723.7832,-96.0774 719.1611,-94.856"/>
<polygon fill="#191970" stroke="#191970" points="719.8211,-91.4047 709.2446,-92.0278 717.9012,-98.1363 719.8211,-91.4047"/>
</g>
<!-- Node40&#45;&gt;Node5 -->
<g id="edge99" class="edge">
<title>Node40&#45;&gt;Node5</title>
<path fill="none" stroke="#191970" d="M1271.8461,-135.3921C1268.8612,-134.9005 1265.9029,-134.4337 1263,-134 1088.1829,-107.8843 876.9231,-90.8086 796.8785,-84.8533"/>
<polygon fill="#191970" stroke="#191970" points="796.7022,-81.331 786.4722,-84.0871 796.1881,-88.3121 796.7022,-81.331"/>
</g>
<!-- Node40&#45;&gt;Node6 -->
<g id="edge101" class="edge">
<title>Node40&#45;&gt;Node6</title>
<path fill="none" stroke="#191970" d="M1363.3051,-134.4179C1377.5007,-124.2779 1396.5081,-110.5261 1413,-98 1430.6327,-84.6075 1431.2469,-74.7189 1452,-67 1511.6123,-44.8279 2494.8792,-20.782 2688.1699,-16.2564"/>
<polygon fill="#191970" stroke="#191970" points="2688.3583,-19.7531 2698.274,-16.0208 2688.1951,-12.755 2688.3583,-19.7531"/>
</g>
<!-- Node40&#45;&gt;Node21 -->
<g id="edge102" class="edge">
<title>Node40&#45;&gt;Node21</title>
<path fill="none" stroke="#191970" d="M1374.092,-134.4639C1398.4098,-123.0702 1431.5721,-107.5327 1455.2862,-96.4219"/>
<polygon fill="#191970" stroke="#191970" points="1456.9317,-99.5161 1464.5021,-92.1039 1453.9618,-93.1773 1456.9317,-99.5161"/>
</g>
<!-- Node41 -->
<g id="node42" class="node">
<title>Node41</title>
<g id="a_node42"><a xlink:title=" ">
<polygon fill="#ffffff" stroke="#bfbfbf" points="1208.5,-73 1208.5,-92 1265.5,-92 1265.5,-73 1208.5,-73"/>
<text text-anchor="middle" x="1237" y="-80" font-family="Helvetica,sans-Serif" font-size="10.00" fill="#000000">typeinfo</text>
</a>
</g>
</g>
<!-- Node40&#45;&gt;Node41 -->
<g id="edge100" class="edge">
<title>Node40&#45;&gt;Node41</title>
<path fill="none" stroke="#191970" d="M1318.436,-134.4639C1301.2944,-123.526 1278.1679,-108.769 1260.9398,-97.7759"/>
<polygon fill="#191970" stroke="#191970" points="1262.3636,-94.5326 1252.0509,-92.1039 1258.5982,-100.4336 1262.3636,-94.5326"/>
</g>
<!-- Node42 -->
<g id="node43" class="node">
<title>Node42</title>
<g id="a_node43"><a xlink:href="never__destroyed_8h.html" target="_top" xlink:title=" ">
<polygon fill="#ffffff" stroke="#000000" points="1283.5,-67.5 1283.5,-97.5 1404.5,-97.5 1404.5,-67.5 1283.5,-67.5"/>
<text text-anchor="start" x="1291.5" y="-85.5" font-family="Helvetica,sans-Serif" font-size="10.00" fill="#000000">drake/common/never</text>
<text text-anchor="middle" x="1344" y="-74.5" font-family="Helvetica,sans-Serif" font-size="10.00" fill="#000000">_destroyed.h</text>
</a>
</g>
</g>
<!-- Node40&#45;&gt;Node42 -->
<g id="edge103" class="edge">
<title>Node40&#45;&gt;Node42</title>
<path fill="none" stroke="#191970" d="M1342.4538,-134.2967C1342.6865,-126.5013 1342.9761,-116.7991 1343.2416,-107.9064"/>
<polygon fill="#191970" stroke="#191970" points="1346.7479,-107.7432 1343.548,-97.6432 1339.7511,-107.5343 1346.7479,-107.7432"/>
</g>
<!-- Node42&#45;&gt;Node6 -->
<g id="edge106" class="edge">
<title>Node42&#45;&gt;Node6</title>
<path fill="none" stroke="#191970" d="M1404.8502,-69.0527C1409.6228,-68.2649 1414.3808,-67.5648 1419,-67 1675.5065,-35.6371 2511.17,-19.2359 2687.9583,-16.0707"/>
<polygon fill="#191970" stroke="#191970" points="2688.2485,-19.5662 2698.1848,-15.8892 2688.1243,-12.5673 2688.2485,-19.5662"/>
</g>
<!-- Node42&#45;&gt;Node9 -->
<g id="edge105" class="edge">
<title>Node42&#45;&gt;Node9</title>
<path fill="none" stroke="#191970" d="M1404.8968,-69.3885C1409.6588,-68.5242 1414.4017,-67.715 1419,-67 1582.2535,-41.6152 1778.0942,-25.219 1864.4169,-18.6982"/>
<polygon fill="#191970" stroke="#191970" points="1864.6806,-22.1883 1874.3916,-17.952 1864.1583,-15.2078 1864.6806,-22.1883"/>
</g>
<!-- Node42&#45;&gt;Node11 -->
<g id="edge107" class="edge">
<title>Node42&#45;&gt;Node11</title>
<path fill="none" stroke="#191970" d="M1283.3211,-68.9287C1280.1708,-68.2665 1277.0494,-67.6199 1274,-67 1203.5525,-52.6797 1122.7228,-37.8889 1066.4471,-27.853"/>
<polygon fill="#191970" stroke="#191970" points="1067.0422,-24.4039 1056.5836,-26.0978 1065.8158,-31.2957 1067.0422,-24.4039"/>
</g>
<!-- Node43 -->
<g id="node44" class="node">
<title>Node43</title>
<g id="a_node44"><a xlink:title=" ">
<polygon fill="#ffffff" stroke="#bfbfbf" points="1325.5,-6 1325.5,-25 1362.5,-25 1362.5,-6 1325.5,-6"/>
<text text-anchor="middle" x="1344" y="-13" font-family="Helvetica,sans-Serif" font-size="10.00" fill="#000000">new</text>
</a>
</g>
</g>
<!-- Node42&#45;&gt;Node43 -->
<g id="edge104" class="edge">
<title>Node42&#45;&gt;Node43</title>
<path fill="none" stroke="#191970" d="M1344,-67.2967C1344,-57.7699 1344,-45.3954 1344,-35.1306"/>
<polygon fill="#191970" stroke="#191970" points="1347.5001,-35.0549 1344,-25.055 1340.5001,-35.055 1347.5001,-35.0549"/>
</g>
<!-- Node44&#45;&gt;Node6 -->
<g id="edge113" class="edge">
<title>Node44&#45;&gt;Node6</title>
<path fill="none" stroke="#191970" d="M1981.649,-201.414C1988.0081,-170.2144 2007.3009,-98.8563 2055,-67 2108.004,-31.6008 2561.1266,-19.0208 2688.0674,-16.1734"/>
<polygon fill="#191970" stroke="#191970" points="2688.3966,-19.6671 2698.3176,-15.9489 2688.2433,-12.6688 2688.3966,-19.6671"/>
</g>
<!-- Node44&#45;&gt;Node8 -->
<g id="edge114" class="edge">
<title>Node44&#45;&gt;Node8</title>
<path fill="none" stroke="#191970" d="M2002.2963,-201.3942C2016.6164,-191.6815 2035.0251,-178.4083 2050,-165 2070.6962,-146.4689 2091.7586,-122.787 2106.2722,-105.5534"/>
<polygon fill="#191970" stroke="#191970" points="2109.1332,-107.5871 2112.8406,-97.6621 2103.7531,-103.1088 2109.1332,-107.5871"/>
</g>
<!-- Node44&#45;&gt;Node25 -->
<g id="edge115" class="edge">
<title>Node44&#45;&gt;Node25</title>
<path fill="none" stroke="#191970" d="M1992.9061,-231.8293C2006.112,-250.9112 2026.6309,-282.9419 2054,-299 2084.8359,-317.0922 2171.4568,-329.5867 2237.8077,-336.9394"/>
<polygon fill="#191970" stroke="#191970" points="2237.5359,-340.4304 2247.8555,-338.0311 2238.2921,-333.4713 2237.5359,-340.4304"/>
</g>
<!-- Node44&#45;&gt;Node39 -->
<g id="edge112" class="edge">
<title>Node44&#45;&gt;Node39</title>
<path fill="none" stroke="#191970" d="M1927.024,-201.4576C1892.6086,-191.3917 1846.5157,-177.7083 1806,-165 1803.2331,-164.1321 1800.3789,-163.2237 1797.5084,-162.3005"/>
<polygon fill="#191970" stroke="#191970" points="1798.3821,-158.9043 1787.7899,-159.142 1796.2185,-165.5615 1798.3821,-158.9043"/>
</g>
<!-- Node45&#45;&gt;Node7 -->
<g id="edge117" class="edge">
<title>Node45&#45;&gt;Node7</title>
<path fill="none" stroke="#191970" d="M2819.6432,-268.4639C2843.6208,-257.0702 2876.3193,-241.5327 2899.7017,-230.4219"/>
<polygon fill="#191970" stroke="#191970" points="2901.2588,-233.5571 2908.7888,-226.1039 2898.2544,-227.2346 2901.2588,-233.5571"/>
</g>
<!-- Node46&#45;&gt;Node3 -->
<g id="edge121" class="edge">
<title>Node46&#45;&gt;Node3</title>
<path fill="none" stroke="#191970" d="M2621.2004,-268.2967C2613.3345,-258.1618 2602.9673,-244.804 2594.7312,-234.1921"/>
<polygon fill="#191970" stroke="#191970" points="2597.312,-231.8089 2588.4158,-226.055 2591.7821,-236.1008 2597.312,-231.8089"/>
</g>
<!-- Node46&#45;&gt;Node6 -->
<g id="edge122" class="edge">
<title>Node46&#45;&gt;Node6</title>
<path fill="none" stroke="#191970" d="M2700.9287,-268.4276C2747.518,-257.5312 2804.7769,-242.8753 2827,-232 2849.0767,-221.1964 2904.0878,-187.0232 2915,-165 2952.0936,-90.1371 2817.9596,-42.1222 2753.5914,-23.8441"/>
<polygon fill="#191970" stroke="#191970" points="2754.4675,-20.4552 2743.8966,-21.1664 2752.6038,-27.2025 2754.4675,-20.4552"/>
</g>
<!-- Node46&#45;&gt;Node7 -->
<g id="edge123" class="edge">
<title>Node46&#45;&gt;Node7</title>
<path fill="none" stroke="#191970" d="M2701.5083,-269.5852C2768.4846,-255.9217 2862.8373,-236.4915 2880,-232 2883.5768,-231.064 2887.2794,-230.0248 2890.9736,-228.9405"/>
<polygon fill="#191970" stroke="#191970" points="2892.0886,-232.2598 2900.6397,-226.0045 2890.0541,-225.562 2892.0886,-232.2598"/>
</g>
<!-- Node46&#45;&gt;Node11 -->
<g id="edge124" class="edge">
<title>Node46&#45;&gt;Node11</title>
<path fill="none" stroke="#191970" d="M2649.0885,-268.4242C2677.2569,-240.1833 2729.6389,-178.179 2698,-134 2644.1538,-58.8117 2592.0015,-83.4749 2501,-67 2241.7593,-20.0671 1579.2505,-41.3735 1316,-31 1230.2727,-27.6219 1131.6781,-22.6874 1066.8448,-19.2985"/>
<polygon fill="#191970" stroke="#191970" points="1066.9061,-15.797 1056.7365,-18.7684 1066.5395,-22.7874 1066.9061,-15.797"/>
</g>
<!-- Node46&#45;&gt;Node15 -->
<g id="edge125" class="edge">
<title>Node46&#45;&gt;Node15</title>
<path fill="none" stroke="#191970" d="M2564.1041,-269.7689C2561.0279,-269.1685 2557.9822,-268.5766 2555,-268 2482.0772,-253.9017 2398.1294,-238.2011 2342.5743,-227.8846"/>
<polygon fill="#191970" stroke="#191970" points="2343.0112,-224.406 2332.5405,-226.0225 2341.7339,-231.2885 2343.0112,-224.406"/>
</g>
<!-- Node46&#45;&gt;Node17 -->
<g id="edge119" class="edge">
<title>Node46&#45;&gt;Node17</title>
<path fill="none" stroke="#191970" d="M2635.1407,-268.48C2636.8761,-249.7248 2636.546,-218.0389 2618,-201 2556.026,-144.062 2324.5898,-174.7707 2241,-165 2215.8671,-162.0622 2187.6472,-158.153 2165.8216,-154.9955"/>
<polygon fill="#191970" stroke="#191970" points="2166.063,-151.4937 2155.6624,-153.5134 2165.0524,-158.4204 2166.063,-151.4937"/>
</g>
<!-- Node46&#45;&gt;Node19 -->
<g id="edge120" class="edge">
<title>Node46&#45;&gt;Node19</title>
<path fill="none" stroke="#191970" d="M2701.6012,-269.2252C2742.2012,-259.5818 2788.6223,-246.081 2804,-232 2821.9856,-215.5309 2830.3422,-187.9418 2834.1035,-169.2466"/>
<polygon fill="#191970" stroke="#191970" points="2837.5896,-169.6292 2835.8611,-159.1763 2830.6938,-168.4256 2837.5896,-169.6292"/>
</g>
<!-- Node46&#45;&gt;Node25 -->
<g id="edge126" class="edge">
<title>Node46&#45;&gt;Node25</title>
<path fill="none" stroke="#191970" d="M2566.4515,-298.5153C2565.6301,-298.6778 2564.8127,-298.8394 2564,-299 2504.1517,-310.829 2435.6759,-324.2804 2386.6154,-333.5677"/>
<polygon fill="#191970" stroke="#191970" points="2385.9393,-330.1334 2376.7611,-335.426 2387.2366,-337.0121 2385.9393,-330.1334"/>
</g>
<!-- Node47&#45;&gt;Node1 -->
<g id="edge129" class="edge">
<title>Node47&#45;&gt;Node1</title>
<path fill="none" stroke="#191970" d="M3030.6487,-268.4695C3071.0338,-253.5648 3118.1073,-228.9576 3093,-201 3085.7414,-192.9173 2773.9821,-163.9053 2657.9309,-153.3634"/>
<polygon fill="#191970" stroke="#191970" points="2657.9247,-149.8485 2647.6495,-152.4313 2657.2926,-156.8199 2657.9247,-149.8485"/>
</g>
<!-- Node47&#45;&gt;Node4 -->
<g id="edge131" class="edge">
<title>Node47&#45;&gt;Node4</title>
<path fill="none" stroke="#191970" d="M3049.9266,-268.4409C3098.5901,-256.9661 3156.77,-241.5597 3164,-232 3172.3109,-221.0111 3173.0033,-211.4292 3164,-201 3128.184,-159.5119 2972.1684,-181.8081 2920,-165 2918.5353,-164.5281 2917.0555,-163.99 2915.5791,-163.4042"/>
<polygon fill="#191970" stroke="#191970" points="2916.6304,-160.0356 2906.0821,-159.0436 2913.7095,-166.3971 2916.6304,-160.0356"/>
</g>
<!-- Node47&#45;&gt;Node7 -->
<g id="edge133" class="edge">
<title>Node47&#45;&gt;Node7</title>
<path fill="none" stroke="#191970" d="M2969.9735,-268.2967C2961.9563,-258.1618 2951.3898,-244.804 2942.9953,-234.1921"/>
<polygon fill="#191970" stroke="#191970" points="2945.5075,-231.7264 2936.5584,-226.055 2940.0175,-236.0692 2945.5075,-231.7264"/>
</g>
<!-- Node47&#45;&gt;Node8 -->
<g id="edge134" class="edge">
<title>Node47&#45;&gt;Node8</title>
<path fill="none" stroke="#191970" d="M3047.9647,-268.4567C3104.2427,-255.3081 3176.7537,-237.4851 3181,-232 3189.4341,-221.1054 3189.4694,-211.8672 3181,-201 3120.3043,-123.1205 2422.6166,-92.625 2195.7764,-84.7266"/>
<polygon fill="#191970" stroke="#191970" points="2195.7694,-81.2244 2185.6549,-84.3783 2195.5286,-88.2202 2195.7694,-81.2244"/>
</g>
<!-- Node47&#45;&gt;Node15 -->
<g id="edge135" class="edge">
<title>Node47&#45;&gt;Node15</title>
<path fill="none" stroke="#191970" d="M2913.3636,-273.8086C2897.8064,-271.7568 2881.3477,-269.7001 2866,-268 2681.9937,-247.6175 2464.7005,-230.2396 2353.9167,-221.8585"/>
<polygon fill="#191970" stroke="#191970" points="2354.0917,-218.3619 2343.8568,-221.1001 2353.5653,-225.3421 2354.0917,-218.3619"/>
</g>
<!-- Node47&#45;&gt;Node17 -->
<g id="edge128" class="edge">
<title>Node47&#45;&gt;Node17</title>
<path fill="none" stroke="#191970" d="M2985.4963,-268.497C2988.8739,-249.7598 2991.1417,-218.0928 2973,-201 2943.3656,-173.079 2281.5386,-168.7945 2241,-165 2215.8061,-162.6418 2187.5866,-158.7284 2165.7765,-155.424"/>
<polygon fill="#191970" stroke="#191970" points="2166.0423,-151.9237 2155.6259,-153.8602 2164.9764,-158.8421 2166.0423,-151.9237"/>
</g>
<!-- Node47&#45;&gt;Node19 -->
<g id="edge130" class="edge">
<title>Node47&#45;&gt;Node19</title>
<path fill="none" stroke="#191970" d="M3050.724,-269.4052C3100.4378,-256.1537 3154.3009,-233.4724 3126,-201 3087.5318,-156.8616 2920.5525,-183.4911 2865,-165 2863.7545,-164.5854 2862.5005,-164.1154 2861.25,-163.6036"/>
<polygon fill="#191970" stroke="#191970" points="2862.4629,-160.3021 2851.9373,-159.0925 2859.4112,-166.602 2862.4629,-160.3021"/>
</g>
<!-- Node47&#45;&gt;Node25 -->
<g id="edge136" class="edge">
<title>Node47&#45;&gt;Node25</title>
<path fill="none" stroke="#191970" d="M2913.2542,-294.4025C2900.5703,-296.049 2887.422,-297.6467 2875,-299 2708.7968,-317.1073 2513.4108,-332.0667 2404.676,-339.6429"/>
<polygon fill="#191970" stroke="#191970" points="2404.1619,-336.17 2394.4277,-340.3529 2404.6457,-343.1533 2404.1619,-336.17"/>
</g>
<!-- Node47&#45;&gt;Node30 -->
<g id="edge132" class="edge">
<title>Node47&#45;&gt;Node30</title>
<path fill="none" stroke="#191970" d="M2913.438,-273.0102C2897.8768,-270.9998 2881.3978,-269.1617 2866,-268 1968.4089,-200.2789 1737.4504,-313.4409 841,-232 828.9034,-230.901 816.0116,-229.1571 803.7762,-227.2286"/>
<polygon fill="#191970" stroke="#191970" points="804.1191,-223.7382 793.6848,-225.5754 802.9873,-230.6461 804.1191,-223.7382"/>
</g>
<!-- Node48&#45;&gt;Node1 -->
<g id="edge139" class="edge">
<title>Node48&#45;&gt;Node1</title>
<path fill="none" stroke="#191970" d="M3136.7236,-268.2708C3135.4857,-249.2945 3130.2877,-217.3753 3110,-201 3101.2099,-193.905 2776.269,-164.0181 2657.7223,-153.3248"/>
<polygon fill="#191970" stroke="#191970" points="2657.8407,-149.8214 2647.567,-152.4102 2657.2128,-156.7932 2657.8407,-149.8214"/>
</g>
<!-- Node48&#45;&gt;Node3 -->
<g id="edge141" class="edge">
<title>Node48&#45;&gt;Node3</title>
<path fill="none" stroke="#191970" d="M3068.2087,-269.3279C3065.4397,-268.8603 3062.6954,-268.4153 3060,-268 2897.4257,-242.9512 2701.9405,-225.9944 2620.0621,-219.4801"/>
<polygon fill="#191970" stroke="#191970" points="2619.978,-215.9627 2609.7338,-218.666 2619.4279,-222.941 2619.978,-215.9627"/>
</g>
<!-- Node48&#45;&gt;Node6 -->
<g id="edge142" class="edge">
<title>Node48&#45;&gt;Node6</title>
<path fill="none" stroke="#191970" d="M3205.8819,-269.6945C3208.9619,-269.1142 3212.0122,-268.5469 3215,-268 3262.6513,-259.2781 3398.7017,-268.9747 3430,-232 3477.3797,-176.0273 3479.9408,-120.7 3430,-67 3406.6783,-41.9228 2890.6813,-21.6119 2753.984,-16.6576"/>
<polygon fill="#191970" stroke="#191970" points="2753.8493,-13.1506 2743.73,-16.2891 2753.5979,-20.1461 2753.8493,-13.1506"/>
</g>
<!-- Node48&#45;&gt;Node7 -->
<g id="edge143" class="edge">
<title>Node48&#45;&gt;Node7</title>
<path fill="none" stroke="#191970" d="M3090.3207,-268.4639C3053.5827,-256.63 3002.9667,-240.3258 2968.285,-229.1543"/>
<polygon fill="#191970" stroke="#191970" points="2969.1005,-225.7399 2958.5089,-226.0053 2966.9542,-232.4028 2969.1005,-225.7399"/>
</g>
<!-- Node48&#45;&gt;Node11 -->
<g id="edge144" class="edge">
<title>Node48&#45;&gt;Node11</title>
<path fill="none" stroke="#191970" d="M3177.431,-268.3679C3193.3567,-260.182 3209.972,-248.3309 3219,-232 3225.6658,-219.9421 3227.0643,-212.1711 3219,-201 3152.7793,-109.2674 2708.3223,-77.4727 2596,-67 2029.3439,-14.166 1884.6974,-52.7682 1316,-31 1230.269,-27.7184 1131.6751,-22.7642 1066.8431,-19.3443"/>
<polygon fill="#191970" stroke="#191970" points="1066.906,-15.8428 1056.7349,-18.8091 1066.5359,-22.833 1066.906,-15.8428"/>
</g>
<!-- Node48&#45;&gt;Node19 -->
<g id="edge140" class="edge">
<title>Node48&#45;&gt;Node19</title>
<path fill="none" stroke="#191970" d="M3162.9553,-268.4265C3188.8969,-251.5172 3222.2348,-223.5115 3202,-201 3151.6521,-144.9872 2936.8163,-187.6885 2865,-165 2863.5761,-164.5502 2862.1426,-164.024 2860.7172,-163.4424"/>
<polygon fill="#191970" stroke="#191970" points="2862.14,-160.2425 2851.6155,-159.0232 2859.0826,-166.5395 2862.14,-160.2425"/>
</g>
<!-- Node48&#45;&gt;Node25 -->
<g id="edge145" class="edge">
<title>Node48&#45;&gt;Node25</title>
<path fill="none" stroke="#191970" d="M3072.2659,-298.5562C3071.1709,-298.71 3070.0816,-298.8581 3069,-299 2829.3274,-330.4329 2543.0217,-340.5076 2404.3421,-343.6415"/>
<polygon fill="#191970" stroke="#191970" points="2404.1319,-340.1451 2394.2112,-343.8639 2404.2856,-347.1434 2404.1319,-340.1451"/>
</g>
<!-- Node48&#45;&gt;Node32 -->
<g id="edge138" class="edge">
<title>Node48&#45;&gt;Node32</title>
<path fill="none" stroke="#191970" d="M3117.7122,-268.2967C3104.0831,-257.5537 3085.8598,-243.1895 3072.0612,-232.3129"/>
<polygon fill="#191970" stroke="#191970" points="3074.1422,-229.4967 3064.122,-226.055 3069.8089,-234.9942 3074.1422,-229.4967"/>
</g>
<!-- Node49&#45;&gt;Node3 -->
<g id="edge147" class="edge">
<title>Node49&#45;&gt;Node3</title>
<path fill="none" stroke="#191970" d="M2498.7885,-268.4639C2516.2535,-257.4247 2539.8729,-242.4954 2557.3138,-231.4715"/>
<polygon fill="#191970" stroke="#191970" points="2559.2228,-234.4054 2565.8057,-226.1039 2555.4827,-228.4883 2559.2228,-234.4054"/>
</g>
<!-- Node49&#45;&gt;Node6 -->
<g id="edge148" class="edge">
<title>Node49&#45;&gt;Node6</title>
<path fill="none" stroke="#191970" d="M2546.6134,-269.4815C2620.9053,-254.8568 2726.5311,-233.798 2728,-232 2775.2761,-174.131 2744.9451,-75.663 2728.9997,-34.4845"/>
<polygon fill="#191970" stroke="#191970" points="2732.2028,-33.0688 2725.2233,-25.0978 2725.7087,-35.6815 2732.2028,-33.0688"/>
</g>
<!-- Node49&#45;&gt;Node7 -->
<g id="edge150" class="edge">
<title>Node49&#45;&gt;Node7</title>
<path fill="none" stroke="#191970" d="M2546.9249,-269.3726C2549.6493,-268.8985 2552.3482,-268.4391 2555,-268 2673.3977,-248.3935 2813.7554,-230.4881 2884.0919,-221.8803"/>
<polygon fill="#191970" stroke="#191970" points="2884.8549,-225.3133 2894.358,-220.6292 2884.0081,-218.3647 2884.8549,-225.3133"/>
</g>
<!-- Node49&#45;&gt;Node11 -->
<g id="edge151" class="edge">
<title>Node49&#45;&gt;Node11</title>
<path fill="none" stroke="#191970" d="M2546.5684,-268.8398C2587.3999,-259.2456 2633.4662,-245.9394 2649,-232 2682.7143,-201.7462 2706.749,-168.1606 2677,-134 2586.6047,-30.1998 1623.5579,-44.7538 1316,-31 1230.2918,-27.1672 1131.6933,-22.326 1066.8539,-19.083"/>
<polygon fill="#191970" stroke="#191970" points="1066.9072,-15.5814 1056.7446,-18.5767 1066.5569,-22.5726 1066.9072,-15.5814"/>
</g>
<!-- Node49&#45;&gt;Node15 -->
<g id="edge152" class="edge">
<title>Node49&#45;&gt;Node15</title>
<path fill="none" stroke="#191970" d="M2431.4626,-268.4639C2397.3444,-256.6808 2350.3932,-240.4657 2318.0581,-229.2984"/>
<polygon fill="#191970" stroke="#191970" points="2319.1175,-225.9615 2308.5228,-226.0053 2316.8324,-232.578 2319.1175,-225.9615"/>
</g>
<!-- Node49&#45;&gt;Node21 -->
<g id="edge149" class="edge">
<title>Node49&#45;&gt;Node21</title>
<path fill="none" stroke="#191970" d="M2546.7417,-268.4957C2571.3262,-260.6984 2597.7217,-249.0898 2618,-232 2653.7216,-201.8953 2688.2989,-167.7506 2656,-134 2635.8042,-112.8965 1709.3643,-88.2085 1518.9816,-83.3528"/>
<polygon fill="#191970" stroke="#191970" points="1518.8239,-79.8477 1508.7382,-83.0926 1518.6461,-86.8455 1518.8239,-79.8477"/>
</g>
<!-- Node49&#45;&gt;Node25 -->
<g id="edge153" class="edge">
<title>Node49&#45;&gt;Node25</title>
<path fill="none" stroke="#191970" d="M2443.2244,-298.5446C2418.9235,-308.7338 2385.453,-322.0678 2359.6178,-331.8356"/>
<polygon fill="#191970" stroke="#191970" points="2358.2623,-328.6057 2350.125,-335.3906 2360.7174,-335.1611 2358.2623,-328.6057"/>
</g>
<!-- Node50&#45;&gt;Node3 -->
<g id="edge155" class="edge">
<title>Node50&#45;&gt;Node3</title>
<path fill="none" stroke="#191970" d="M2385.7364,-269.6515C2429.6314,-260.2756 2487.5643,-246.9111 2538,-232 2540.7824,-231.1774 2543.6471,-230.2736 2546.5139,-229.3286"/>
<polygon fill="#191970" stroke="#191970" points="2547.8334,-232.5761 2556.1521,-226.0148 2545.5574,-225.9564 2547.8334,-232.5761"/>
</g>
<!-- Node50&#45;&gt;Node25 -->
<g id="edge156" class="edge">
<title>Node50&#45;&gt;Node25</title>
<path fill="none" stroke="#191970" d="M2323.8756,-298.5446C2325.3633,-306.6241 2326.1655,-316.681 2326.0646,-325.3693"/>
<polygon fill="#191970" stroke="#191970" points="2322.569,-325.1915 2325.4375,-335.3906 2329.5553,-325.6288 2322.569,-325.1915"/>
</g>
<!-- Node51&#45;&gt;Node6 -->
<g id="edge159" class="edge">
<title>Node51&#45;&gt;Node6</title>
<path fill="none" stroke="#191970" d="M3657.1547,-268.2795C3637.3164,-226.3284 3575.2101,-109.3521 3482,-67 3415.0934,-36.5994 2891.9995,-20.1974 2754.1857,-16.3758"/>
<polygon fill="#191970" stroke="#191970" points="2753.9457,-12.868 2743.8536,-16.0929 2753.7541,-19.8653 2753.9457,-12.868"/>
</g>
<!-- Node51&#45;&gt;Node8 -->
<g id="edge160" class="edge">
<title>Node51&#45;&gt;Node8</title>
<path fill="none" stroke="#191970" d="M3653.8736,-268.2649C3640.1196,-248.9697 3613.5905,-216.3862 3582,-201 3525.1651,-173.3185 3079.9738,-139.5467 3017,-134 2711.8788,-107.1253 2346.7533,-91.0689 2195.7271,-85.1312"/>
<polygon fill="#191970" stroke="#191970" points="2195.7882,-81.631 2185.6592,-84.7379 2195.5149,-88.6257 2195.7882,-81.631"/>
</g>
<!-- Node51&#45;&gt;Node25 -->
<g id="edge161" class="edge">
<title>Node51&#45;&gt;Node25</title>
<path fill="none" stroke="#191970" d="M3595.3031,-294.9058C3582.6132,-296.4906 3569.4502,-297.9373 3557,-299 3332.8213,-318.1358 2644.0694,-336.9905 2404.2827,-343.0166"/>
<polygon fill="#191970" stroke="#191970" points="2404.1399,-339.519 2394.2307,-343.2683 2404.3152,-346.5168 2404.1399,-339.519"/>
</g>
<!-- Node52&#45;&gt;Node1 -->
<g id="edge163" class="edge">
<title>Node52&#45;&gt;Node1</title>
<path fill="none" stroke="#191970" d="M3269.7324,-268.4395C3239.9983,-249.1751 3185.0191,-216.4587 3133,-201 3087.9512,-187.6127 2774.1271,-161.9803 2658.042,-152.84"/>
<polygon fill="#191970" stroke="#191970" points="2658.0056,-149.3264 2647.7623,-152.033 2657.4577,-156.3049 2658.0056,-149.3264"/>
</g>
<!-- Node52&#45;&gt;Node6 -->
<g id="edge164" class="edge">
<title>Node52&#45;&gt;Node6</title>
<path fill="none" stroke="#191970" d="M3359.274,-268.4088C3397.2616,-258.7017 3439.8915,-245.429 3454,-232 3507.1187,-181.4394 3513.4498,-111.2899 3455,-67 3398.5574,-24.231 2889.1845,-16.9145 2753.8776,-15.7222"/>
<polygon fill="#191970" stroke="#191970" points="2753.7529,-12.2212 2743.7243,-15.6382 2753.6949,-19.2209 2753.7529,-12.2212"/>
</g>
<!-- Node52&#45;&gt;Node25 -->
<g id="edge165" class="edge">
<title>Node52&#45;&gt;Node25</title>
<path fill="none" stroke="#191970" d="M3227.6791,-298.5165C3226.4449,-298.6855 3225.2177,-298.847 3224,-299 3067.3972,-318.6821 2596.5104,-336.0896 2404.1474,-342.4417"/>
<polygon fill="#191970" stroke="#191970" points="2403.9723,-338.9455 2394.0926,-342.772 2404.2022,-345.9417 2403.9723,-338.9455"/>
</g>
<!-- Node53&#45;&gt;Node5 -->
<g id="edge168" class="edge">
<title>Node53&#45;&gt;Node5</title>
<path fill="none" stroke="#191970" d="M573.0987,-279.3203C466.3273,-272.1327 270.9349,-255.8652 250,-232 240.9143,-221.6425 241.4662,-211.8167 250,-201 382.4538,-33.1127 513.5058,-153.5905 720,-98 723.9347,-96.9407 728.0224,-95.6991 732.0508,-94.3878"/>
<polygon fill="#191970" stroke="#191970" points="733.4911,-97.5944 741.8219,-91.0485 731.2273,-90.9705 733.4911,-97.5944"/>
</g>
<!-- Node53&#45;&gt;Node7 -->
<g id="edge171" class="edge">
<title>Node53&#45;&gt;Node7</title>
<path fill="none" stroke="#191970" d="M710.6885,-279.1592C768.8119,-275.6375 854.3292,-270.8114 929,-268 1679.3055,-239.7505 1867.6374,-258.6901 2618,-232 2712.7965,-228.6281 2823.7477,-222.5968 2884.1743,-219.1357"/>
<polygon fill="#191970" stroke="#191970" points="2884.7155,-222.6104 2894.4977,-218.5412 2884.313,-215.622 2884.7155,-222.6104"/>
</g>
<!-- Node53&#45;&gt;Node11 -->
<g id="edge173" class="edge">
<title>Node53&#45;&gt;Node11</title>
<path fill="none" stroke="#191970" d="M573.2561,-281.5672C441.0903,-277.1386 161.9795,-264.0596 133,-232 123.761,-221.779 126.326,-213.0534 133,-201 187.3588,-102.8261 240.454,-102.227 347,-67 452.6507,-32.069 779.7128,-20.4055 925.0941,-16.8819"/>
<polygon fill="#191970" stroke="#191970" points="925.3276,-20.3775 935.242,-16.6421 925.1621,-13.3794 925.3276,-20.3775"/>
</g>
<!-- Node53&#45;&gt;Node21 -->
<g id="edge170" class="edge">
<title>Node53&#45;&gt;Node21</title>
<path fill="none" stroke="#191970" d="M573.4098,-277.2064C484.0352,-268.3015 337.1784,-250.9809 321,-232 312.0625,-221.5143 312.3232,-211.7024 321,-201 411.6872,-89.142 495.1648,-152.2897 638,-134 980.0233,-90.2047 1071.0594,-142.4366 1413,-98 1425.651,-96.3559 1439.3774,-93.639 1451.4193,-90.9352"/>
<polygon fill="#191970" stroke="#191970" points="1452.5521,-94.2652 1461.4986,-88.5898 1450.9655,-87.4473 1452.5521,-94.2652"/>
</g>
<!-- Node53&#45;&gt;Node25 -->
<g id="edge174" class="edge">
<title>Node53&#45;&gt;Node25</title>
<path fill="none" stroke="#191970" d="M710.5288,-287.1982C770.6691,-290.6 860.2312,-295.6154 938,-299 1430.8836,-320.4511 2022.3289,-336.929 2237.5823,-342.7348"/>
<polygon fill="#191970" stroke="#191970" points="2237.7625,-346.2409 2247.8532,-343.0115 2237.9511,-339.2434 2237.7625,-346.2409"/>
</g>
<!-- Node53&#45;&gt;Node30 -->
<g id="edge169" class="edge">
<title>Node53&#45;&gt;Node30</title>
<path fill="none" stroke="#191970" d="M665.564,-268.4639C682.7056,-257.526 705.8321,-242.769 723.0602,-231.7759"/>
<polygon fill="#191970" stroke="#191970" points="725.4018,-234.4336 731.9491,-226.1039 721.6364,-228.5326 725.4018,-234.4336"/>
</g>
<!-- Node53&#45;&gt;Node34 -->
<g id="edge172" class="edge">
<title>Node53&#45;&gt;Node34</title>
<path fill="none" stroke="#191970" d="M642,-268.2967C642,-258.7699 642,-246.3954 642,-236.1306"/>
<polygon fill="#191970" stroke="#191970" points="645.5001,-236.0549 642,-226.055 638.5001,-236.055 645.5001,-236.0549"/>
</g>
<!-- Node54 -->
<g id="node55" class="node">
<title>Node54</title>
<g id="a_node55"><a xlink:title=" ">
<polygon fill="#ffffff" stroke="#bfbfbf" points="142,-207 142,-226 198,-226 198,-207 142,-207"/>
<text text-anchor="middle" x="170" y="-214" font-family="Helvetica,sans-Serif" font-size="10.00" fill="#000000">sstream</text>
</a>
</g>
</g>
<!-- Node53&#45;&gt;Node54 -->
<g id="edge167" class="edge">
<title>Node53&#45;&gt;Node54</title>
<path fill="none" stroke="#191970" d="M573.3545,-280.2407C487.7386,-275.0468 337.3591,-262.1957 212,-232 208.8264,-231.2356 205.5636,-230.3047 202.3264,-229.2827"/>
<polygon fill="#191970" stroke="#191970" points="203.4005,-225.9511 192.8059,-226.0182 201.13,-232.5726 203.4005,-225.9511"/>
</g>
</g>
</svg>
