<?xml version="1.0" encoding="UTF-8" standalone="no"?>
<!DOCTYPE svg PUBLIC "-//W3C//DTD SVG 1.1//EN"
 "http://www.w3.org/Graphics/SVG/1.1/DTD/svg11.dtd">
<!-- Generated by graphviz version 2.40.1 (20161225.0304)
 -->
<!-- Title: drake/common/symbolic_expression_visitor.h Pages: 1 -->
<svg width="3834pt" height="430pt"
 viewBox="0.00 0.00 3833.84 430.00" xmlns="http://www.w3.org/2000/svg" xmlns:xlink="http://www.w3.org/1999/xlink">
<g id="graph0" class="graph" transform="scale(1 1) rotate(0) translate(4 426)">
<title>drake/common/symbolic_expression_visitor.h</title>
<polygon fill="#ffffff" stroke="transparent" points="-4,4 -4,-426 3829.8366,-426 3829.8366,4 -4,4"/>
<!-- Node0 -->
<g id="node1" class="node">
<title>Node0</title>
<g id="a_node1"><a xlink:title=" ">
<polygon fill="#bfbfbf" stroke="#000000" points="1538.3366,-391.5 1538.3366,-421.5 1675.3366,-421.5 1675.3366,-391.5 1538.3366,-391.5"/>
<text text-anchor="start" x="1546.3366" y="-409.5" font-family="Helvetica,sans-Serif" font-size="10.00" fill="#000000">drake/common/symbolic</text>
<text text-anchor="middle" x="1606.8366" y="-398.5" font-family="Helvetica,sans-Serif" font-size="10.00" fill="#000000">_expression_visitor.h</text>
</a>
</g>
</g>
<!-- Node1 -->
<g id="node2" class="node">
<title>Node1</title>
<g id="a_node2"><a xlink:title=" ">
<polygon fill="#ffffff" stroke="#bfbfbf" points="3563.3366,-140 3563.3366,-159 3628.3366,-159 3628.3366,-140 3563.3366,-140"/>
<text text-anchor="middle" x="3595.8366" y="-147" font-family="Helvetica,sans-Serif" font-size="10.00" fill="#000000">stdexcept</text>
</a>
</g>
</g>
<!-- Node0&#45;&gt;Node1 -->
<g id="edge1" class="edge">
<title>Node0&#45;&gt;Node1</title>
<path fill="none" stroke="#191970" d="M1675.5211,-402.055C1879.2395,-388.6952 2497.8374,-346.8585 3009.8366,-299 3280.0748,-273.7398 3435.7502,-434.1744 3616.8366,-232 3632.78,-214.2 3620.2078,-185.9758 3608.7799,-167.595"/>
<polygon fill="#191970" stroke="#191970" points="3611.6707,-165.6212 3603.2287,-159.2193 3605.8359,-169.4884 3611.6707,-165.6212"/>
</g>
<!-- Node2 -->
<g id="node3" class="node">
<title>Node2</title>
<g id="a_node3"><a xlink:title=" ">
<polygon fill="#ffffff" stroke="#bfbfbf" points="3063.3366,-6 3063.3366,-25 3108.3366,-25 3108.3366,-6 3063.3366,-6"/>
<text text-anchor="middle" x="3085.8366" y="-13" font-family="Helvetica,sans-Serif" font-size="10.00" fill="#000000">utility</text>
</a>
</g>
</g>
<!-- Node0&#45;&gt;Node2 -->
<g id="edge2" class="edge">
<title>Node0&#45;&gt;Node2</title>
<path fill="none" stroke="#191970" d="M1675.4392,-404.2868C1868.1399,-397.9571 2430.7508,-378.7013 2897.8366,-355 3104.4043,-344.5182 3825.8366,-490.3334 3825.8366,-283.5 3825.8366,-283.5 3825.8366,-283.5 3825.8366,-149.5 3825.8366,-96.2125 3787.5193,-88.6691 3738.8366,-67 3681.8625,-41.6403 3243.0855,-21.9282 3118.6415,-16.8047"/>
<polygon fill="#191970" stroke="#191970" points="3118.7132,-13.3048 3108.5788,-16.3941 3118.4277,-20.2989 3118.7132,-13.3048"/>
</g>
<!-- Node3 -->
<g id="node4" class="node">
<title>Node3</title>
<g id="a_node4"><a xlink:href="drake__assert_8h.html" target="_top" xlink:title="Provides Drake&#39;s assertion implementation.">
<polygon fill="#ffffff" stroke="#000000" points="1355.3366,-67.5 1355.3366,-97.5 1476.3366,-97.5 1476.3366,-67.5 1355.3366,-67.5"/>
<text text-anchor="start" x="1363.3366" y="-85.5" font-family="Helvetica,sans-Serif" font-size="10.00" fill="#000000">drake/common/drake</text>
<text text-anchor="middle" x="1415.8366" y="-74.5" font-family="Helvetica,sans-Serif" font-size="10.00" fill="#000000">_assert.h</text>
</a>
</g>
</g>
<!-- Node0&#45;&gt;Node3 -->
<g id="edge3" class="edge">
<title>Node0&#45;&gt;Node3</title>
<path fill="none" stroke="#191970" d="M1537.9523,-404.7532C1310.2689,-398.3261 583.8598,-372.4243 362.8366,-299 309.2307,-281.192 290.0513,-276.1661 254.8366,-232 235.2093,-207.3834 237.0184,-196.0541 231.8366,-165 229.569,-151.4101 222.3083,-143.9518 231.8366,-134 270.4755,-93.6439 1096.1395,-84.694 1345.283,-82.9089"/>
<polygon fill="#191970" stroke="#191970" points="1345.3323,-86.4087 1355.3075,-82.8387 1345.2832,-79.4089 1345.3323,-86.4087"/>
</g>
<!-- Node5 -->
<g id="node6" class="node">
<title>Node5</title>
<g id="a_node6"><a xlink:href="symbolic_8h.html" target="_top" xlink:title="Provides public header files of Drake&#39;s symbolic library.">
<polygon fill="#ffffff" stroke="#000000" points="1533.8366,-335.5 1533.8366,-354.5 1679.8366,-354.5 1679.8366,-335.5 1533.8366,-335.5"/>
<text text-anchor="middle" x="1606.8366" y="-342.5" font-family="Helvetica,sans-Serif" font-size="10.00" fill="#000000">drake/common/symbolic.h</text>
</a>
</g>
</g>
<!-- Node0&#45;&gt;Node5 -->
<g id="edge5" class="edge">
<title>Node0&#45;&gt;Node5</title>
<path fill="none" stroke="#191970" d="M1600.9209,-391.2977C1599.9813,-383.2945 1599.8354,-373.3843 1600.4832,-364.7889"/>
<polygon fill="#191970" stroke="#191970" points="1603.9584,-365.2044 1601.7283,-354.8469 1597.0127,-364.3345 1603.9584,-365.2044"/>
</g>
<!-- Node4 -->
<g id="node5" class="node">
<title>Node4</title>
<g id="a_node5"><a xlink:title=" ">
<polygon fill="#ffffff" stroke="#bfbfbf" points="1699.3366,-6 1699.3366,-25 1768.3366,-25 1768.3366,-6 1699.3366,-6"/>
<text text-anchor="middle" x="1733.8366" y="-13" font-family="Helvetica,sans-Serif" font-size="10.00" fill="#000000">type_traits</text>
</a>
</g>
</g>
<!-- Node3&#45;&gt;Node4 -->
<g id="edge4" class="edge">
<title>Node3&#45;&gt;Node4</title>
<path fill="none" stroke="#191970" d="M1476.3985,-69.7401C1538.4889,-56.6582 1633.5975,-36.6196 1689.1656,-24.9118"/>
<polygon fill="#191970" stroke="#191970" points="1690.0008,-28.3128 1699.0643,-22.8262 1688.5576,-21.4632 1690.0008,-28.3128"/>
</g>
<!-- Node5&#45;&gt;Node0 -->
<g id="edge99" class="edge">
<title>Node5&#45;&gt;Node0</title>
<path fill="none" stroke="#191970" d="M1611.945,-354.8469C1613.307,-361.9883 1613.8215,-371.9858 1613.4885,-381.2849"/>
<polygon fill="#191970" stroke="#191970" points="1609.9951,-381.068 1612.7524,-391.2977 1616.9762,-381.5813 1609.9951,-381.068"/>
</g>
<!-- Node6 -->
<g id="node7" class="node">
<title>Node6</title>
<g id="a_node7"><a xlink:href="symbolic__variable_8h.html" target="_top" xlink:title=" ">
<polygon fill="#ffffff" stroke="#000000" points="1146.3366,-268.5 1146.3366,-298.5 1283.3366,-298.5 1283.3366,-268.5 1146.3366,-268.5"/>
<text text-anchor="start" x="1154.3366" y="-286.5" font-family="Helvetica,sans-Serif" font-size="10.00" fill="#000000">drake/common/symbolic</text>
<text text-anchor="middle" x="1214.8366" y="-275.5" font-family="Helvetica,sans-Serif" font-size="10.00" fill="#000000">_variable.h</text>
</a>
</g>
</g>
<!-- Node5&#45;&gt;Node6 -->
<g id="edge6" class="edge">
<title>Node5&#45;&gt;Node6</title>
<path fill="none" stroke="#191970" d="M1546.0167,-335.4581C1478.1355,-324.8084 1368.0767,-307.5415 1293.6467,-295.8643"/>
<polygon fill="#191970" stroke="#191970" points="1293.8105,-292.3473 1283.3889,-294.255 1292.7255,-299.2627 1293.8105,-292.3473"/>
</g>
<!-- Node25 -->
<g id="node26" class="node">
<title>Node25</title>
<g id="a_node26"><a xlink:href="symbolic__variables_8h.html" target="_top" xlink:title=" ">
<polygon fill="#ffffff" stroke="#000000" points="836.3366,-268.5 836.3366,-298.5 973.3366,-298.5 973.3366,-268.5 836.3366,-268.5"/>
<text text-anchor="start" x="844.3366" y="-286.5" font-family="Helvetica,sans-Serif" font-size="10.00" fill="#000000">drake/common/symbolic</text>
<text text-anchor="middle" x="904.8366" y="-275.5" font-family="Helvetica,sans-Serif" font-size="10.00" fill="#000000">_variables.h</text>
</a>
</g>
</g>
<!-- Node5&#45;&gt;Node25 -->
<g id="edge36" class="edge">
<title>Node5&#45;&gt;Node25</title>
<path fill="none" stroke="#191970" d="M1533.6549,-342.729C1417.2074,-338.3409 1182.8333,-326.6976 980.4488,-299.8678"/>
<polygon fill="#191970" stroke="#191970" points="980.9083,-296.3982 970.5317,-298.5374 979.9775,-303.3361 980.9083,-296.3982"/>
</g>
<!-- Node27 -->
<g id="node28" class="node">
<title>Node27</title>
<g id="a_node28"><a xlink:href="symbolic__environment_8h.html" target="_top" xlink:title=" ">
<polygon fill="#ffffff" stroke="#000000" points="1723.3366,-268.5 1723.3366,-298.5 1860.3366,-298.5 1860.3366,-268.5 1723.3366,-268.5"/>
<text text-anchor="start" x="1731.3366" y="-286.5" font-family="Helvetica,sans-Serif" font-size="10.00" fill="#000000">drake/common/symbolic</text>
<text text-anchor="middle" x="1791.8366" y="-275.5" font-family="Helvetica,sans-Serif" font-size="10.00" fill="#000000">_environment.h</text>
</a>
</g>
</g>
<!-- Node5&#45;&gt;Node27 -->
<g id="edge46" class="edge">
<title>Node5&#45;&gt;Node27</title>
<path fill="none" stroke="#191970" d="M1630.6804,-335.3906C1655.9366,-326.4123 1696.5759,-312.7735 1730.7675,-301.7316"/>
<polygon fill="#191970" stroke="#191970" points="1732.2341,-304.9367 1740.6835,-298.5446 1730.0921,-298.2724 1732.2341,-304.9367"/>
</g>
<!-- Node31 -->
<g id="node32" class="node">
<title>Node31</title>
<g id="a_node32"><a xlink:href="symbolic__expression_8h.html" target="_top" xlink:title=" ">
<polygon fill="#ffffff" stroke="#000000" points="2708.3366,-268.5 2708.3366,-298.5 2845.3366,-298.5 2845.3366,-268.5 2708.3366,-268.5"/>
<text text-anchor="start" x="2716.3366" y="-286.5" font-family="Helvetica,sans-Serif" font-size="10.00" fill="#000000">drake/common/symbolic</text>
<text text-anchor="middle" x="2776.8366" y="-275.5" font-family="Helvetica,sans-Serif" font-size="10.00" fill="#000000">_expression.h</text>
</a>
</g>
</g>
<!-- Node5&#45;&gt;Node31 -->
<g id="edge57" class="edge">
<title>Node5&#45;&gt;Node31</title>
<path fill="none" stroke="#191970" d="M1680.044,-340.9648C1888.3628,-329.7906 2482.912,-298.5392 2698.0079,-287.458"/>
<polygon fill="#191970" stroke="#191970" points="2698.4604,-290.9395 2708.2672,-286.93 2698.1005,-283.9487 2698.4604,-290.9395"/>
</g>
<!-- Node43 -->
<g id="node44" class="node">
<title>Node43</title>
<g id="a_node44"><a xlink:href="symbolic__ldlt_8h.html" target="_top" xlink:title="Eigen::LDLT is specialized for drake::symbolic::Expression, for certain matrix sizes.">
<polygon fill="#ffffff" stroke="#000000" points="1342.3366,-268.5 1342.3366,-298.5 1479.3366,-298.5 1479.3366,-268.5 1342.3366,-268.5"/>
<text text-anchor="start" x="1350.3366" y="-286.5" font-family="Helvetica,sans-Serif" font-size="10.00" fill="#000000">drake/common/symbolic</text>
<text text-anchor="middle" x="1410.8366" y="-275.5" font-family="Helvetica,sans-Serif" font-size="10.00" fill="#000000">_ldlt.h</text>
</a>
</g>
</g>
<!-- Node5&#45;&gt;Node43 -->
<g id="edge100" class="edge">
<title>Node5&#45;&gt;Node43</title>
<path fill="none" stroke="#191970" d="M1576.2116,-335.3906C1547.4749,-326.3737 1503.7577,-312.6563 1468.488,-301.5896"/>
<polygon fill="#191970" stroke="#191970" points="1469.3728,-298.199 1458.7836,-298.5446 1467.2771,-304.878 1469.3728,-298.199"/>
</g>
<!-- Node44 -->
<g id="node45" class="node">
<title>Node44</title>
<g id="a_node45"><a xlink:href="symbolic__monomial_8h.html" target="_top" xlink:title=" ">
<polygon fill="#ffffff" stroke="#000000" points="371.3366,-268.5 371.3366,-298.5 508.3366,-298.5 508.3366,-268.5 371.3366,-268.5"/>
<text text-anchor="start" x="379.3366" y="-286.5" font-family="Helvetica,sans-Serif" font-size="10.00" fill="#000000">drake/common/symbolic</text>
<text text-anchor="middle" x="439.8366" y="-275.5" font-family="Helvetica,sans-Serif" font-size="10.00" fill="#000000">_monomial.h</text>
</a>
</g>
</g>
<!-- Node5&#45;&gt;Node44 -->
<g id="edge102" class="edge">
<title>Node5&#45;&gt;Node44</title>
<path fill="none" stroke="#191970" d="M1533.6464,-343.4703C1324.6439,-338.7475 727.2018,-323.3034 515.2109,-299.6976"/>
<polygon fill="#191970" stroke="#191970" points="515.4444,-296.2014 505.109,-298.5312 514.6415,-303.1552 515.4444,-296.2014"/>
</g>
<!-- Node45 -->
<g id="node46" class="node">
<title>Node45</title>
<g id="a_node46"><a xlink:href="symbolic__monomial__util_8h.html" target="_top" xlink:title=" ">
<polygon fill="#ffffff" stroke="#000000" points="526.3366,-268.5 526.3366,-298.5 663.3366,-298.5 663.3366,-268.5 526.3366,-268.5"/>
<text text-anchor="start" x="534.3366" y="-286.5" font-family="Helvetica,sans-Serif" font-size="10.00" fill="#000000">drake/common/symbolic</text>
<text text-anchor="middle" x="594.8366" y="-275.5" font-family="Helvetica,sans-Serif" font-size="10.00" fill="#000000">_monomial_util.h</text>
</a>
</g>
</g>
<!-- Node5&#45;&gt;Node45 -->
<g id="edge111" class="edge">
<title>Node5&#45;&gt;Node45</title>
<path fill="none" stroke="#191970" d="M1533.799,-342.9237C1346.2879,-337.2058 850.6688,-320.3106 670.2564,-299.7223"/>
<polygon fill="#191970" stroke="#191970" points="670.453,-296.2212 660.1104,-298.5192 669.6287,-303.1725 670.453,-296.2212"/>
</g>
<!-- Node46 -->
<g id="node47" class="node">
<title>Node46</title>
<g id="a_node47"><a xlink:href="symbolic__polynomial_8h.html" target="_top" xlink:title=" ">
<polygon fill="#ffffff" stroke="#000000" points="681.3366,-268.5 681.3366,-298.5 818.3366,-298.5 818.3366,-268.5 681.3366,-268.5"/>
<text text-anchor="start" x="689.3366" y="-286.5" font-family="Helvetica,sans-Serif" font-size="10.00" fill="#000000">drake/common/symbolic</text>
<text text-anchor="middle" x="749.8366" y="-275.5" font-family="Helvetica,sans-Serif" font-size="10.00" fill="#000000">_polynomial.h</text>
</a>
</g>
</g>
<!-- Node5&#45;&gt;Node46 -->
<g id="edge121" class="edge">
<title>Node5&#45;&gt;Node46</title>
<path fill="none" stroke="#191970" d="M1533.7625,-344.1156C1395.8603,-341.692 1088.1429,-332.7558 825.2318,-299.7862"/>
<polygon fill="#191970" stroke="#191970" points="825.4736,-296.2888 815.1125,-298.5024 824.5925,-303.2332 825.4736,-296.2888"/>
</g>
<!-- Node47 -->
<g id="node48" class="node">
<title>Node47</title>
<g id="a_node48"><a xlink:href="symbolic__rational__function_8h.html" target="_top" xlink:title=" ">
<polygon fill="#ffffff" stroke="#000000" points="991.3366,-268.5 991.3366,-298.5 1128.3366,-298.5 1128.3366,-268.5 991.3366,-268.5"/>
<text text-anchor="start" x="999.3366" y="-286.5" font-family="Helvetica,sans-Serif" font-size="10.00" fill="#000000">drake/common/symbolic</text>
<text text-anchor="middle" x="1059.8366" y="-275.5" font-family="Helvetica,sans-Serif" font-size="10.00" fill="#000000">_rational_function.h</text>
</a>
</g>
</g>
<!-- Node5&#45;&gt;Node47 -->
<g id="edge130" class="edge">
<title>Node5&#45;&gt;Node47</title>
<path fill="none" stroke="#191970" d="M1533.7151,-340.5086C1441.7453,-334.0753 1279.1241,-320.7305 1135.8202,-300.0051"/>
<polygon fill="#191970" stroke="#191970" points="1135.9384,-296.4852 1125.537,-298.5002 1134.9247,-303.4115 1135.9384,-296.4852"/>
</g>
<!-- Node48 -->
<g id="node49" class="node">
<title>Node48</title>
<g id="a_node49"><a xlink:href="symbolic__formula_8h.html" target="_top" xlink:title=" ">
<polygon fill="#ffffff" stroke="#000000" points="1538.3366,-268.5 1538.3366,-298.5 1675.3366,-298.5 1675.3366,-268.5 1538.3366,-268.5"/>
<text text-anchor="start" x="1546.3366" y="-286.5" font-family="Helvetica,sans-Serif" font-size="10.00" fill="#000000">drake/common/symbolic</text>
<text text-anchor="middle" x="1606.8366" y="-275.5" font-family="Helvetica,sans-Serif" font-size="10.00" fill="#000000">_formula.h</text>
</a>
</g>
</g>
<!-- Node5&#45;&gt;Node48 -->
<g id="edge133" class="edge">
<title>Node5&#45;&gt;Node48</title>
<path fill="none" stroke="#191970" d="M1601.7741,-335.3906C1600.3756,-328.2234 1599.8464,-318.0862 1600.1864,-308.671"/>
<polygon fill="#191970" stroke="#191970" points="1603.6881,-308.7767 1600.9395,-298.5446 1596.7074,-308.2574 1603.6881,-308.7767"/>
</g>
<!-- Node50 -->
<g id="node51" class="node">
<title>Node50</title>
<g id="a_node51"><a xlink:href="symbolic__formula__visitor_8h.html" target="_top" xlink:title=" ">
<polygon fill="#ffffff" stroke="#000000" points="3660.3366,-268.5 3660.3366,-298.5 3797.3366,-298.5 3797.3366,-268.5 3660.3366,-268.5"/>
<text text-anchor="start" x="3668.3366" y="-286.5" font-family="Helvetica,sans-Serif" font-size="10.00" fill="#000000">drake/common/symbolic</text>
<text text-anchor="middle" x="3728.8366" y="-275.5" font-family="Helvetica,sans-Serif" font-size="10.00" fill="#000000">_formula_visitor.h</text>
</a>
</g>
</g>
<!-- Node5&#45;&gt;Node50 -->
<g id="edge150" class="edge">
<title>Node5&#45;&gt;Node50</title>
<path fill="none" stroke="#191970" d="M1679.9551,-342.8021C2004.6679,-333.2354 3314.4488,-295.2752 3650.1579,-285.7015"/>
<polygon fill="#191970" stroke="#191970" points="3650.3799,-289.1967 3660.2761,-285.4131 3650.1804,-282.1995 3650.3799,-289.1967"/>
</g>
<!-- Node51 -->
<g id="node52" class="node">
<title>Node51</title>
<g id="a_node52"><a xlink:href="symbolic__simplification_8h.html" target="_top" xlink:title=" ">
<polygon fill="#ffffff" stroke="#000000" points="2863.3366,-268.5 2863.3366,-298.5 3000.3366,-298.5 3000.3366,-268.5 2863.3366,-268.5"/>
<text text-anchor="start" x="2871.3366" y="-286.5" font-family="Helvetica,sans-Serif" font-size="10.00" fill="#000000">drake/common/symbolic</text>
<text text-anchor="middle" x="2931.8366" y="-275.5" font-family="Helvetica,sans-Serif" font-size="10.00" fill="#000000">_simplification.h</text>
</a>
</g>
</g>
<!-- Node5&#45;&gt;Node51 -->
<g id="edge154" class="edge">
<title>Node5&#45;&gt;Node51</title>
<path fill="none" stroke="#191970" d="M1680.2419,-343.7901C1910.6821,-339.8431 2617.4707,-326.0135 2845.8366,-299 2848.1789,-298.7229 2850.5562,-298.4125 2852.9559,-298.0746"/>
<polygon fill="#191970" stroke="#191970" points="2853.5619,-301.5227 2862.9145,-296.5449 2852.499,-294.6038 2853.5619,-301.5227"/>
</g>
<!-- Node52 -->
<g id="node53" class="node">
<title>Node52</title>
<g id="a_node53"><a xlink:href="symbolic__codegen_8h.html" target="_top" xlink:title=" ">
<polygon fill="#ffffff" stroke="#000000" points="2309.3366,-268.5 2309.3366,-298.5 2446.3366,-298.5 2446.3366,-268.5 2309.3366,-268.5"/>
<text text-anchor="start" x="2317.3366" y="-286.5" font-family="Helvetica,sans-Serif" font-size="10.00" fill="#000000">drake/common/symbolic</text>
<text text-anchor="middle" x="2377.8366" y="-275.5" font-family="Helvetica,sans-Serif" font-size="10.00" fill="#000000">_codegen.h</text>
</a>
</g>
</g>
<!-- Node5&#45;&gt;Node52 -->
<g id="edge158" class="edge">
<title>Node5&#45;&gt;Node52</title>
<path fill="none" stroke="#191970" d="M1680.0336,-338.8216C1825.4461,-326.9559 2149.3414,-301.1216 2299.1364,-289.4432"/>
<polygon fill="#191970" stroke="#191970" points="2299.4839,-292.9269 2309.1819,-288.661 2298.9404,-285.948 2299.4839,-292.9269"/>
</g>
<!-- Node7 -->
<g id="node8" class="node">
<title>Node7</title>
<g id="a_node8"><a xlink:title=" ">
<polygon fill="#ffffff" stroke="#bfbfbf" points="449.3366,-140 449.3366,-159 502.3366,-159 502.3366,-140 449.3366,-140"/>
<text text-anchor="middle" x="475.8366" y="-147" font-family="Helvetica,sans-Serif" font-size="10.00" fill="#000000">cstddef</text>
</a>
</g>
</g>
<!-- Node6&#45;&gt;Node7 -->
<g id="edge7" class="edge">
<title>Node6&#45;&gt;Node7</title>
<path fill="none" stroke="#191970" d="M1146.3065,-269.5414C1084.3053,-256.6754 1000.5147,-238.6063 985.8366,-232 964.3527,-222.3304 964.9018,-209.2578 942.8366,-201 778.9801,-139.6777 723.8874,-190.7451 550.8366,-165 538.1991,-163.1199 524.4815,-160.4673 512.2753,-157.887"/>
<polygon fill="#191970" stroke="#191970" points="512.9488,-154.4518 502.4344,-155.7552 511.4667,-161.2931 512.9488,-154.4518"/>
</g>
<!-- Node8 -->
<g id="node9" class="node">
<title>Node8</title>
<g id="a_node9"><a xlink:title=" ">
<polygon fill="#ffffff" stroke="#bfbfbf" points="1028.3366,-140 1028.3366,-159 1093.3366,-159 1093.3366,-140 1028.3366,-140"/>
<text text-anchor="middle" x="1060.8366" y="-147" font-family="Helvetica,sans-Serif" font-size="10.00" fill="#000000">functional</text>
</a>
</g>
</g>
<!-- Node6&#45;&gt;Node8 -->
<g id="edge8" class="edge">
<title>Node6&#45;&gt;Node8</title>
<path fill="none" stroke="#191970" d="M1161.1844,-268.4536C1140.032,-260.3915 1116.7916,-248.6101 1099.8366,-232 1082.0403,-214.5656 1071.3916,-187.4203 1065.8245,-169.073"/>
<polygon fill="#191970" stroke="#191970" points="1069.1238,-167.8752 1063.0572,-159.1892 1062.3831,-169.7625 1069.1238,-167.8752"/>
</g>
<!-- Node9 -->
<g id="node10" class="node">
<title>Node9</title>
<g id="a_node10"><a xlink:title=" ">
<polygon fill="#ffffff" stroke="#bfbfbf" points="2591.8366,-73 2591.8366,-92 2649.8366,-92 2649.8366,-73 2591.8366,-73"/>
<text text-anchor="middle" x="2620.8366" y="-80" font-family="Helvetica,sans-Serif" font-size="10.00" fill="#000000">memory</text>
</a>
</g>
</g>
<!-- Node6&#45;&gt;Node9 -->
<g id="edge9" class="edge">
<title>Node6&#45;&gt;Node9</title>
<path fill="none" stroke="#191970" d="M1209.5853,-268.1709C1200.2578,-237.7826 1184.9599,-169.757 1220.8366,-134 1227.0368,-127.8205 2355.5258,-91.0668 2581.6572,-83.7619"/>
<polygon fill="#191970" stroke="#191970" points="2581.8534,-87.2575 2591.7352,-83.4366 2581.6274,-80.2611 2581.8534,-87.2575"/>
</g>
<!-- Node10 -->
<g id="node11" class="node">
<title>Node10</title>
<g id="a_node11"><a xlink:title=" ">
<polygon fill="#ffffff" stroke="#bfbfbf" points="876.3366,-207 876.3366,-226 933.3366,-226 933.3366,-207 876.3366,-207"/>
<text text-anchor="middle" x="904.8366" y="-214" font-family="Helvetica,sans-Serif" font-size="10.00" fill="#000000">ostream</text>
</a>
</g>
</g>
<!-- Node6&#45;&gt;Node10 -->
<g id="edge10" class="edge">
<title>Node6&#45;&gt;Node10</title>
<path fill="none" stroke="#191970" d="M1145.9973,-269.6023C1143.2416,-269.0588 1140.5133,-268.523 1137.8366,-268 1053.4847,-251.5193 1030.7469,-254.6438 947.8366,-232 944.8703,-231.1899 941.8167,-230.2698 938.7703,-229.2918"/>
<polygon fill="#191970" stroke="#191970" points="939.7741,-225.9364 929.1797,-226.0334 937.5223,-232.5643 939.7741,-225.9364"/>
</g>
<!-- Node11 -->
<g id="node12" class="node">
<title>Node11</title>
<g id="a_node12"><a xlink:title=" ">
<polygon fill="#ffffff" stroke="#bfbfbf" points="2072.8366,-73 2072.8366,-92 2116.8366,-92 2116.8366,-73 2072.8366,-73"/>
<text text-anchor="middle" x="2094.8366" y="-80" font-family="Helvetica,sans-Serif" font-size="10.00" fill="#000000">string</text>
</a>
</g>
</g>
<!-- Node6&#45;&gt;Node11 -->
<g id="edge11" class="edge">
<title>Node6&#45;&gt;Node11</title>
<path fill="none" stroke="#191970" d="M1178.0195,-268.4687C1162.6898,-260.1524 1146.4756,-248.1711 1137.8366,-232 1127.4094,-212.4815 1135.4405,-143.7451 1145.8366,-134 1179.9997,-101.9764 1899.958,-86.2482 2062.4481,-83.0989"/>
<polygon fill="#191970" stroke="#191970" points="2062.8195,-86.5925 2072.7507,-82.9017 2062.6855,-79.5938 2062.8195,-86.5925"/>
</g>
<!-- Node12 -->
<g id="node13" class="node">
<title>Node12</title>
<g id="a_node13"><a xlink:title=" ">
<polygon fill="#ffffff" stroke="#bfbfbf" points="1229.3366,-140 1229.3366,-159 1298.3366,-159 1298.3366,-140 1229.3366,-140"/>
<text text-anchor="middle" x="1263.8366" y="-147" font-family="Helvetica,sans-Serif" font-size="10.00" fill="#000000">Eigen/Core</text>
</a>
</g>
</g>
<!-- Node6&#45;&gt;Node12 -->
<g id="edge12" class="edge">
<title>Node6&#45;&gt;Node12</title>
<path fill="none" stroke="#191970" d="M1220.3623,-268.389C1229.3332,-243.8564 1247.0491,-195.4088 1256.87,-168.5517"/>
<polygon fill="#191970" stroke="#191970" points="1260.1774,-169.698 1260.3247,-159.1042 1253.6032,-167.2939 1260.1774,-169.698"/>
</g>
<!-- Node13 -->
<g id="node14" class="node">
<title>Node13</title>
<g id="a_node14"><a xlink:href="drake__copyable_8h.html" target="_top" xlink:title="Provides careful macros to selectively enable or disable the special member functions for copy&#45;constr...">
<polygon fill="#ffffff" stroke="#000000" points="1502.3366,-.5 1502.3366,-30.5 1623.3366,-30.5 1623.3366,-.5 1502.3366,-.5"/>
<text text-anchor="start" x="1510.3366" y="-18.5" font-family="Helvetica,sans-Serif" font-size="10.00" fill="#000000">drake/common/drake</text>
<text text-anchor="middle" x="1562.8366" y="-7.5" font-family="Helvetica,sans-Serif" font-size="10.00" fill="#000000">_copyable.h</text>
</a>
</g>
</g>
<!-- Node6&#45;&gt;Node13 -->
<g id="edge13" class="edge">
<title>Node6&#45;&gt;Node13</title>
<path fill="none" stroke="#191970" d="M1151.6025,-268.4152C1125.9247,-260.3263 1096.9343,-248.5354 1073.8366,-232 1033.4002,-203.0521 988.6454,-172.7323 1019.8366,-134 1078.3769,-61.3066 1358.5393,-30.8086 1491.9312,-20.2459"/>
<polygon fill="#191970" stroke="#191970" points="1492.3521,-23.7239 1502.0513,-19.4606 1491.8104,-16.7449 1492.3521,-23.7239"/>
</g>
<!-- Node14 -->
<g id="node15" class="node">
<title>Node14</title>
<g id="a_node15"><a xlink:href="eigen__types_8h.html" target="_top" xlink:title="This file contains abbreviated definitions for certain specializations of Eigen::Matrix that are comm...">
<polygon fill="#ffffff" stroke="#000000" points="1731.8366,-201.5 1731.8366,-231.5 1851.8366,-231.5 1851.8366,-201.5 1731.8366,-201.5"/>
<text text-anchor="start" x="1739.8366" y="-219.5" font-family="Helvetica,sans-Serif" font-size="10.00" fill="#000000">drake/common/eigen</text>
<text text-anchor="middle" x="1791.8366" y="-208.5" font-family="Helvetica,sans-Serif" font-size="10.00" fill="#000000">_types.h</text>
</a>
</g>
</g>
<!-- Node6&#45;&gt;Node14 -->
<g id="edge14" class="edge">
<title>Node6&#45;&gt;Node14</title>
<path fill="none" stroke="#191970" d="M1283.4012,-274.3605C1299.9102,-272.2176 1317.4974,-269.9826 1333.8366,-268 1471.1267,-251.3413 1631.8036,-233.7017 1721.7071,-223.9992"/>
<polygon fill="#191970" stroke="#191970" points="1722.2136,-227.465 1731.7809,-222.9133 1721.4633,-220.5053 1722.2136,-227.465"/>
</g>
<!-- Node17 -->
<g id="node18" class="node">
<title>Node17</title>
<g id="a_node18"><a xlink:href="hash_8h.html" target="_top" xlink:title=" ">
<polygon fill="#ffffff" stroke="#000000" points="504.3366,-207 504.3366,-226 629.3366,-226 629.3366,-207 504.3366,-207"/>
<text text-anchor="middle" x="566.8366" y="-214" font-family="Helvetica,sans-Serif" font-size="10.00" fill="#000000">drake/common/hash.h</text>
</a>
</g>
</g>
<!-- Node6&#45;&gt;Node17 -->
<g id="edge20" class="edge">
<title>Node6&#45;&gt;Node17</title>
<path fill="none" stroke="#191970" d="M1146.0541,-269.2689C1143.2827,-268.8177 1140.5355,-268.3922 1137.8366,-268 959.875,-242.141 748.701,-227.1307 639.8334,-220.5361"/>
<polygon fill="#191970" stroke="#191970" points="639.8133,-217.0287 629.6218,-219.9241 639.3944,-224.0162 639.8133,-217.0287"/>
</g>
<!-- Node14&#45;&gt;Node2 -->
<g id="edge15" class="edge">
<title>Node14&#45;&gt;Node2</title>
<path fill="none" stroke="#191970" d="M1828.6609,-201.4093C1849.8523,-192.0874 1876.6023,-179.2124 1898.8366,-165 1956.5656,-128.099 1953.7574,-91.2523 2017.8366,-67 2233.4912,14.6197 2831.3746,-87.8628 3054.8366,-31 3056.761,-30.5103 3058.7043,-29.8893 3060.6298,-29.179"/>
<polygon fill="#191970" stroke="#191970" points="3062.198,-32.3128 3069.9375,-25.0775 3059.3752,-25.9072 3062.198,-32.3128"/>
</g>
<!-- Node14&#45;&gt;Node3 -->
<g id="edge18" class="edge">
<title>Node14&#45;&gt;Node3</title>
<path fill="none" stroke="#191970" d="M1731.7244,-203.5672C1727.0322,-202.6622 1722.3614,-201.7949 1717.8366,-201 1605.9728,-181.3473 1559.3327,-228.0099 1464.8366,-165 1444.3941,-151.3689 1431.2421,-126.0598 1423.7656,-107.0536"/>
<polygon fill="#191970" stroke="#191970" points="1427.0002,-105.708 1420.2751,-97.5212 1420.4271,-108.115 1427.0002,-105.708"/>
</g>
<!-- Node14&#45;&gt;Node13 -->
<g id="edge19" class="edge">
<title>Node14&#45;&gt;Node13</title>
<path fill="none" stroke="#191970" d="M1731.759,-206.4664C1646.314,-192.1281 1499.7245,-167.2473 1497.8366,-165 1465.4472,-126.4437 1509.4768,-69.2675 1539.3472,-37.9773"/>
<polygon fill="#191970" stroke="#191970" points="1542.0742,-40.1955 1546.5811,-30.607 1537.0785,-35.2922 1542.0742,-40.1955"/>
</g>
<!-- Node15 -->
<g id="node16" class="node">
<title>Node15</title>
<g id="a_node16"><a xlink:title=" ">
<polygon fill="#ffffff" stroke="#bfbfbf" points="1812.3366,-140 1812.3366,-159 1889.3366,-159 1889.3366,-140 1812.3366,-140"/>
<text text-anchor="middle" x="1850.8366" y="-147" font-family="Helvetica,sans-Serif" font-size="10.00" fill="#000000">Eigen/Dense</text>
</a>
</g>
</g>
<!-- Node14&#45;&gt;Node15 -->
<g id="edge16" class="edge">
<title>Node14&#45;&gt;Node15</title>
<path fill="none" stroke="#191970" d="M1805.2246,-201.2967C1814.2386,-191.0605 1826.1477,-177.5366 1835.5366,-166.8746"/>
<polygon fill="#191970" stroke="#191970" points="1838.4404,-168.873 1842.4226,-159.055 1833.187,-164.2468 1838.4404,-168.873"/>
</g>
<!-- Node16 -->
<g id="node17" class="node">
<title>Node16</title>
<g id="a_node17"><a xlink:href="constants_8h.html" target="_top" xlink:title=" ">
<polygon fill="#ffffff" stroke="#000000" points="1506.3366,-140 1506.3366,-159 1655.3366,-159 1655.3366,-140 1506.3366,-140"/>
<text text-anchor="middle" x="1580.8366" y="-147" font-family="Helvetica,sans-Serif" font-size="10.00" fill="#000000">drake/common/constants.h</text>
</a>
</g>
</g>
<!-- Node14&#45;&gt;Node16 -->
<g id="edge17" class="edge">
<title>Node14&#45;&gt;Node16</title>
<path fill="none" stroke="#191970" d="M1744.4841,-201.4639C1707.2162,-189.63 1655.8702,-173.3258 1620.6883,-162.1543"/>
<polygon fill="#191970" stroke="#191970" points="1621.3615,-158.6959 1610.7712,-159.0053 1619.243,-165.3677 1621.3615,-158.6959"/>
</g>
<!-- Node17&#45;&gt;Node2 -->
<g id="edge30" class="edge">
<title>Node17&#45;&gt;Node2</title>
<path fill="none" stroke="#191970" d="M622.654,-206.998C687.7276,-195.6623 791.1719,-176.7701 828.8366,-165 861.7016,-154.7299 866.7475,-143.523 899.8366,-134 996.3616,-106.2202 1246.7557,-75.5201 1346.8366,-67 1535.9724,-50.8985 2870.5644,-76.5559 3054.8366,-31 3056.7643,-30.5234 3058.7101,-29.9122 3060.6373,-29.2089"/>
<polygon fill="#191970" stroke="#191970" points="3062.1982,-32.3462 3069.9488,-25.1227 3059.3853,-25.9362 3062.1982,-32.3462"/>
</g>
<!-- Node17&#45;&gt;Node3 -->
<g id="edge32" class="edge">
<title>Node17&#45;&gt;Node3</title>
<path fill="none" stroke="#191970" d="M560.4039,-206.8998C549.8481,-189.8475 531.8266,-154.1755 550.8366,-134 577.9306,-105.245 1143.1605,-89.0009 1344.9903,-84.1001"/>
<polygon fill="#191970" stroke="#191970" points="1345.2708,-87.5944 1355.1836,-83.8547 1345.1023,-80.5964 1345.2708,-87.5944"/>
</g>
<!-- Node17&#45;&gt;Node4 -->
<g id="edge29" class="edge">
<title>Node17&#45;&gt;Node4</title>
<path fill="none" stroke="#191970" d="M605.8641,-206.9775C646.4498,-196.9632 711.7711,-180.5321 767.8366,-165 916.1019,-123.9253 948.3805,-94.0329 1099.8366,-67 1333.5713,-25.2814 1396.8393,-57.0311 1632.8366,-31 1651.2618,-28.9677 1671.4728,-26.012 1688.942,-23.2254"/>
<polygon fill="#191970" stroke="#191970" points="1689.5667,-26.6699 1698.8765,-21.6125 1688.4449,-19.7604 1689.5667,-26.6699"/>
</g>
<!-- Node17&#45;&gt;Node7 -->
<g id="edge22" class="edge">
<title>Node17&#45;&gt;Node7</title>
<path fill="none" stroke="#191970" d="M553.7986,-206.9005C539.0673,-196.0544 514.8633,-178.2339 497.3274,-165.3229"/>
<polygon fill="#191970" stroke="#191970" points="498.9785,-162.1922 488.8505,-159.0817 494.8282,-167.8291 498.9785,-162.1922"/>
</g>
<!-- Node17&#45;&gt;Node8 -->
<g id="edge23" class="edge">
<title>Node17&#45;&gt;Node8</title>
<path fill="none" stroke="#191970" d="M610.6906,-206.9575C621.4932,-204.8046 633.0556,-202.6661 643.8366,-201 790.5159,-178.3321 828.9564,-186.3269 975.8366,-165 989.6769,-162.9904 1004.7104,-160.3887 1018.2321,-157.8927"/>
<polygon fill="#191970" stroke="#191970" points="1019.0499,-161.3004 1028.2328,-156.0161 1017.7589,-154.4205 1019.0499,-161.3004"/>
</g>
<!-- Node17&#45;&gt;Node11 -->
<g id="edge28" class="edge">
<title>Node17&#45;&gt;Node11</title>
<path fill="none" stroke="#191970" d="M621.6637,-206.9695C633.581,-204.9516 646.1254,-202.8683 657.8366,-201 765.218,-183.8698 798.0895,-203.3629 899.8366,-165 923.5993,-156.0405 923.645,-141.7267 947.8366,-134 1002.3235,-116.5971 1881.4027,-88.9937 2062.4034,-83.4776"/>
<polygon fill="#191970" stroke="#191970" points="2062.7201,-86.9697 2072.6091,-83.1675 2062.5074,-79.973 2062.7201,-86.9697"/>
</g>
<!-- Node18 -->
<g id="node19" class="node">
<title>Node18</title>
<g id="a_node19"><a xlink:title=" ">
<polygon fill="#ffffff" stroke="#bfbfbf" points="559.3366,-140 559.3366,-159 606.3366,-159 606.3366,-140 559.3366,-140"/>
<text text-anchor="middle" x="582.8366" y="-147" font-family="Helvetica,sans-Serif" font-size="10.00" fill="#000000">cmath</text>
</a>
</g>
</g>
<!-- Node17&#45;&gt;Node18 -->
<g id="edge21" class="edge">
<title>Node17&#45;&gt;Node18</title>
<path fill="none" stroke="#191970" d="M569.129,-206.9005C571.4815,-197.0495 575.208,-181.4451 578.182,-168.9912"/>
<polygon fill="#191970" stroke="#191970" points="581.6299,-169.6212 580.5485,-159.0817 574.8214,-167.9952 581.6299,-169.6212"/>
</g>
<!-- Node19 -->
<g id="node20" class="node">
<title>Node19</title>
<g id="a_node20"><a xlink:title=" ">
<polygon fill="#ffffff" stroke="#bfbfbf" points="624.8366,-140 624.8366,-159 684.8366,-159 684.8366,-140 624.8366,-140"/>
<text text-anchor="middle" x="654.8366" y="-147" font-family="Helvetica,sans-Serif" font-size="10.00" fill="#000000">iostream</text>
</a>
</g>
</g>
<!-- Node17&#45;&gt;Node19 -->
<g id="edge24" class="edge">
<title>Node17&#45;&gt;Node19</title>
<path fill="none" stroke="#191970" d="M579.4449,-206.9005C593.6905,-196.0544 617.0965,-178.2339 634.0544,-165.3229"/>
<polygon fill="#191970" stroke="#191970" points="636.4156,-167.9241 642.2518,-159.0817 632.1751,-162.3547 636.4156,-167.9241"/>
</g>
<!-- Node20 -->
<g id="node21" class="node">
<title>Node20</title>
<g id="a_node21"><a xlink:title=" ">
<polygon fill="#ffffff" stroke="#bfbfbf" points="257.8366,-140 257.8366,-159 295.8366,-159 295.8366,-140 257.8366,-140"/>
<text text-anchor="middle" x="276.8366" y="-147" font-family="Helvetica,sans-Serif" font-size="10.00" fill="#000000">map</text>
</a>
</g>
</g>
<!-- Node17&#45;&gt;Node20 -->
<g id="edge25" class="edge">
<title>Node17&#45;&gt;Node20</title>
<path fill="none" stroke="#191970" d="M525.5947,-206.9717C466.0523,-193.2153 357.4911,-168.134 305.7514,-156.1803"/>
<polygon fill="#191970" stroke="#191970" points="306.4328,-152.7456 295.9015,-153.9047 304.857,-159.566 306.4328,-152.7456"/>
</g>
<!-- Node21 -->
<g id="node22" class="node">
<title>Node21</title>
<g id="a_node22"><a xlink:title=" ">
<polygon fill="#ffffff" stroke="#bfbfbf" points="702.8366,-140 702.8366,-159 758.8366,-159 758.8366,-140 702.8366,-140"/>
<text text-anchor="middle" x="730.8366" y="-147" font-family="Helvetica,sans-Serif" font-size="10.00" fill="#000000">optional</text>
</a>
</g>
</g>
<!-- Node17&#45;&gt;Node21 -->
<g id="edge26" class="edge">
<title>Node17&#45;&gt;Node21</title>
<path fill="none" stroke="#191970" d="M590.7451,-206.8998C616.2985,-196.6169 657.9815,-179.7795 693.8366,-165 695.4303,-164.3431 697.0616,-163.6683 698.7084,-162.9853"/>
<polygon fill="#191970" stroke="#191970" points="700.2704,-166.1262 708.1555,-159.0498 697.5785,-159.6645 700.2704,-166.1262"/>
</g>
<!-- Node22 -->
<g id="node23" class="node">
<title>Node22</title>
<g id="a_node23"><a xlink:title=" ">
<polygon fill="#ffffff" stroke="#bfbfbf" points="374.8366,-140 374.8366,-159 406.8366,-159 406.8366,-140 374.8366,-140"/>
<text text-anchor="middle" x="390.8366" y="-147" font-family="Helvetica,sans-Serif" font-size="10.00" fill="#000000">set</text>
</a>
</g>
</g>
<!-- Node17&#45;&gt;Node22 -->
<g id="edge27" class="edge">
<title>Node17&#45;&gt;Node22</title>
<path fill="none" stroke="#191970" d="M541.6201,-206.9005C508.3705,-194.243 450.1693,-172.0869 416.6326,-159.3201"/>
<polygon fill="#191970" stroke="#191970" points="417.6624,-155.9671 407.0715,-155.6803 415.1719,-162.5091 417.6624,-155.9671"/>
</g>
<!-- Node23 -->
<g id="node24" class="node">
<title>Node23</title>
<g id="a_node24"><a xlink:title=" ">
<polygon fill="#ffffff" stroke="#bfbfbf" points="2892.3366,-73 2892.3366,-92 2939.3366,-92 2939.3366,-73 2892.3366,-73"/>
<text text-anchor="middle" x="2915.8366" y="-80" font-family="Helvetica,sans-Serif" font-size="10.00" fill="#000000">vector</text>
</a>
</g>
</g>
<!-- Node17&#45;&gt;Node23 -->
<g id="edge31" class="edge">
<title>Node17&#45;&gt;Node23</title>
<path fill="none" stroke="#191970" d="M620.6715,-206.9562C632.8764,-204.8967 645.7904,-202.7995 657.8366,-201 781.9284,-182.4623 816.1042,-195.3913 937.8366,-165 975.6382,-155.5626 981.5885,-141.4234 1019.8366,-134 1198.6549,-99.2942 2476.8354,-105.4844 2658.8366,-98 2738.9327,-94.7062 2832.9342,-88.4204 2882.0494,-84.9512"/>
<polygon fill="#191970" stroke="#191970" points="2882.3863,-88.4362 2892.1127,-84.2353 2881.8895,-81.4538 2882.3863,-88.4362"/>
</g>
<!-- Node24 -->
<g id="node25" class="node">
<title>Node24</title>
<g id="a_node25"><a xlink:href="drake__throw_8h.html" target="_top" xlink:title="Provides a convenient wrapper to throw an exception when a condition is unmet.">
<polygon fill="#ffffff" stroke="#000000" points="1673.3366,-134.5 1673.3366,-164.5 1794.3366,-164.5 1794.3366,-134.5 1673.3366,-134.5"/>
<text text-anchor="start" x="1681.3366" y="-152.5" font-family="Helvetica,sans-Serif" font-size="10.00" fill="#000000">drake/common/drake</text>
<text text-anchor="middle" x="1733.8366" y="-141.5" font-family="Helvetica,sans-Serif" font-size="10.00" fill="#000000">_throw.h</text>
</a>
</g>
</g>
<!-- Node17&#45;&gt;Node24 -->
<g id="edge33" class="edge">
<title>Node17&#45;&gt;Node24</title>
<path fill="none" stroke="#191970" d="M629.3798,-213.1641C690.2566,-209.9443 785.3883,-204.9849 867.8366,-201 1218.7208,-184.0412 1311.6691,-211.5211 1663.0487,-165.1017"/>
<polygon fill="#191970" stroke="#191970" points="1663.5378,-168.5675 1672.9883,-163.7781 1662.6138,-161.6288 1663.5378,-168.5675"/>
</g>
<!-- Node24&#45;&gt;Node3 -->
<g id="edge35" class="edge">
<title>Node24&#45;&gt;Node3</title>
<path fill="none" stroke="#191970" d="M1673.2674,-135.8327C1670.4183,-135.209 1667.597,-134.5955 1664.8366,-134 1604.7859,-121.0461 1536.442,-106.9572 1486.5666,-96.7953"/>
<polygon fill="#191970" stroke="#191970" points="1487.0272,-93.3174 1476.5301,-94.7526 1485.6311,-100.1768 1487.0272,-93.3174"/>
</g>
<!-- Node24&#45;&gt;Node4 -->
<g id="edge34" class="edge">
<title>Node24&#45;&gt;Node4</title>
<path fill="none" stroke="#191970" d="M1733.8366,-134.389C1733.8366,-110.0735 1733.8366,-62.2644 1733.8366,-35.2698"/>
<polygon fill="#191970" stroke="#191970" points="1737.3367,-35.1041 1733.8366,-25.1042 1730.3367,-35.1042 1737.3367,-35.1041"/>
</g>
<!-- Node25&#45;&gt;Node5 -->
<g id="edge45" class="edge">
<title>Node25&#45;&gt;Node5</title>
<path fill="none" stroke="#191970" d="M973.7136,-296.1771C979.8465,-297.2343 985.9538,-298.2017 991.8366,-299 1181.1488,-324.6892 1404.8585,-336.7921 1523.4331,-341.8517"/>
<polygon fill="#191970" stroke="#191970" points="1523.3913,-345.353 1533.5296,-342.2763 1523.6855,-338.3591 1523.3913,-345.353"/>
</g>
<!-- Node25&#45;&gt;Node7 -->
<g id="edge37" class="edge">
<title>Node25&#45;&gt;Node7</title>
<path fill="none" stroke="#191970" d="M836.0448,-269.331C833.276,-268.8626 830.5319,-268.4165 827.8366,-268 754.497,-256.666 551.6045,-280.9602 495.8366,-232 478.1535,-216.4755 474.7481,-188.2245 474.6893,-169.1605"/>
<polygon fill="#191970" stroke="#191970" points="478.188,-169.2539 474.9587,-159.1632 471.1905,-169.0653 478.188,-169.2539"/>
</g>
<!-- Node25&#45;&gt;Node8 -->
<g id="edge38" class="edge">
<title>Node25&#45;&gt;Node8</title>
<path fill="none" stroke="#191970" d="M889.0313,-268.3703C872.7266,-250.908 851.7718,-221.9137 867.8366,-201 877.0901,-188.9536 964.0808,-169.2732 1018.0666,-158.0511"/>
<polygon fill="#191970" stroke="#191970" points="1018.9759,-161.4373 1028.0637,-155.991 1017.5631,-154.5814 1018.9759,-161.4373"/>
</g>
<!-- Node25&#45;&gt;Node10 -->
<g id="edge40" class="edge">
<title>Node25&#45;&gt;Node10</title>
<path fill="none" stroke="#191970" d="M904.8366,-268.2967C904.8366,-258.7699 904.8366,-246.3954 904.8366,-236.1306"/>
<polygon fill="#191970" stroke="#191970" points="908.3367,-236.0549 904.8366,-226.055 901.3367,-236.055 908.3367,-236.0549"/>
</g>
<!-- Node25&#45;&gt;Node11 -->
<g id="edge42" class="edge">
<title>Node25&#45;&gt;Node11</title>
<path fill="none" stroke="#191970" d="M836.0541,-269.269C833.2827,-268.8177 830.5355,-268.3922 827.8366,-268 739.7352,-255.1968 508.8813,-270.9695 428.8366,-232 382.2816,-209.3348 329.7724,-171.1545 365.8366,-134 373.5215,-126.0828 1825.8279,-89.2599 2062.4282,-83.3122"/>
<polygon fill="#191970" stroke="#191970" points="2062.8564,-86.8027 2072.7654,-83.0526 2062.6806,-79.8049 2062.8564,-86.8027"/>
</g>
<!-- Node25&#45;&gt;Node14 -->
<g id="edge43" class="edge">
<title>Node25&#45;&gt;Node14</title>
<path fill="none" stroke="#191970" d="M973.6537,-269.2742C976.7512,-268.8077 979.823,-268.3792 982.8366,-268 1276.0692,-231.1052 1352.2451,-255.715 1646.8366,-232 1671.2361,-230.0358 1697.8886,-227.3443 1721.6119,-224.755"/>
<polygon fill="#191970" stroke="#191970" points="1722.029,-228.2303 1731.5845,-223.654 1721.2608,-221.2726 1722.029,-228.2303"/>
</g>
<!-- Node25&#45;&gt;Node17 -->
<g id="edge44" class="edge">
<title>Node25&#45;&gt;Node17</title>
<path fill="none" stroke="#191970" d="M835.9923,-269.6281C833.238,-269.0775 830.5113,-268.5331 827.8366,-268 758.2628,-254.1334 678.2172,-238.3666 625.3127,-227.9719"/>
<polygon fill="#191970" stroke="#191970" points="625.9192,-224.5243 615.4321,-226.031 624.5699,-231.393 625.9192,-224.5243"/>
</g>
<!-- Node25&#45;&gt;Node22 -->
<g id="edge41" class="edge">
<title>Node25&#45;&gt;Node22</title>
<path fill="none" stroke="#191970" d="M836.0483,-269.3081C833.2785,-268.846 830.5333,-268.4075 827.8366,-268 671.4675,-244.3679 616.7927,-299.6264 473.8366,-232 443.3953,-217.5995 417.579,-187.2621 403.1599,-167.6615"/>
<polygon fill="#191970" stroke="#191970" points="405.8384,-165.3883 397.1937,-159.2629 400.1317,-169.4423 405.8384,-165.3883"/>
</g>
<!-- Node26 -->
<g id="node27" class="node">
<title>Node26</title>
<g id="a_node27"><a xlink:title=" ">
<polygon fill="#ffffff" stroke="#bfbfbf" points="1294.3366,-207 1294.3366,-226 1377.3366,-226 1377.3366,-207 1294.3366,-207"/>
<text text-anchor="middle" x="1335.8366" y="-214" font-family="Helvetica,sans-Serif" font-size="10.00" fill="#000000">initializer_list</text>
</a>
</g>
</g>
<!-- Node25&#45;&gt;Node26 -->
<g id="edge39" class="edge">
<title>Node25&#45;&gt;Node26</title>
<path fill="none" stroke="#191970" d="M973.7045,-269.6157C976.7883,-269.0567 979.8433,-268.5154 982.8366,-268 1089.5128,-249.6316 1215.0663,-232.3395 1283.9977,-223.2158"/>
<polygon fill="#191970" stroke="#191970" points="1284.699,-226.6537 1294.1555,-221.8762 1283.7838,-219.7138 1284.699,-226.6537"/>
</g>
<!-- Node27&#45;&gt;Node5 -->
<g id="edge56" class="edge">
<title>Node27&#45;&gt;Node5</title>
<path fill="none" stroke="#191970" d="M1752.4776,-298.5446C1722.522,-308.9133 1681.4292,-322.5386 1650.473,-332.3486"/>
<polygon fill="#191970" stroke="#191970" points="1649.2937,-329.0504 1640.8054,-335.3906 1651.3949,-335.7276 1649.2937,-329.0504"/>
</g>
<!-- Node27&#45;&gt;Node10 -->
<g id="edge48" class="edge">
<title>Node27&#45;&gt;Node10</title>
<path fill="none" stroke="#191970" d="M1723.1521,-272.7427C1710.4348,-270.9808 1697.2503,-269.3069 1684.8366,-268 1401.4405,-238.1638 1058.1846,-222.6249 943.9236,-218.0021"/>
<polygon fill="#191970" stroke="#191970" points="943.7226,-214.4913 933.5907,-217.5887 943.4427,-221.4857 943.7226,-214.4913"/>
</g>
<!-- Node27&#45;&gt;Node11 -->
<g id="edge49" class="edge">
<title>Node27&#45;&gt;Node11</title>
<path fill="none" stroke="#191970" d="M1858.3014,-268.4799C1892.3614,-259.7378 1934.0826,-247.3908 1969.8366,-232 2023.8171,-208.7635 2051.3351,-213.9641 2083.8366,-165 2096.2192,-146.3454 2097.6419,-120.048 2096.8358,-102.1944"/>
<polygon fill="#191970" stroke="#191970" points="2100.3164,-101.7996 2096.1006,-92.0797 2093.3348,-102.3071 2100.3164,-101.7996"/>
</g>
<!-- Node27&#45;&gt;Node13 -->
<g id="edge51" class="edge">
<title>Node27&#45;&gt;Node13</title>
<path fill="none" stroke="#191970" d="M1816.819,-268.4715C1858.3585,-241.568 1933.7763,-183.3714 1898.8366,-134 1867.5819,-89.8356 1722.1354,-50.6938 1633.1625,-30.3344"/>
<polygon fill="#191970" stroke="#191970" points="1633.9295,-26.9196 1623.4035,-28.1247 1632.3836,-33.7468 1633.9295,-26.9196"/>
</g>
<!-- Node27&#45;&gt;Node14 -->
<g id="edge52" class="edge">
<title>Node27&#45;&gt;Node14</title>
<path fill="none" stroke="#191970" d="M1791.8366,-268.2967C1791.8366,-260.5013 1791.8366,-250.7991 1791.8366,-241.9064"/>
<polygon fill="#191970" stroke="#191970" points="1795.3367,-241.6431 1791.8366,-231.6432 1788.3367,-241.6432 1795.3367,-241.6431"/>
</g>
<!-- Node27&#45;&gt;Node26 -->
<g id="edge47" class="edge">
<title>Node27&#45;&gt;Node26</title>
<path fill="none" stroke="#191970" d="M1723.0862,-273.2958C1710.3755,-271.4789 1697.2102,-269.6434 1684.8366,-268 1552.5905,-250.4359 1517.3785,-259.5017 1386.8366,-232 1382.6599,-231.1201 1378.3326,-230.054 1374.0446,-228.8975"/>
<polygon fill="#191970" stroke="#191970" points="1374.7771,-225.4667 1364.2,-226.0799 1372.8508,-232.1965 1374.7771,-225.4667"/>
</g>
<!-- Node28 -->
<g id="node29" class="node">
<title>Node28</title>
<g id="a_node29"><a xlink:title=" ">
<polygon fill="#ffffff" stroke="#bfbfbf" points="2060.3366,-207 2060.3366,-226 2153.3366,-226 2153.3366,-207 2060.3366,-207"/>
<text text-anchor="middle" x="2106.8366" y="-214" font-family="Helvetica,sans-Serif" font-size="10.00" fill="#000000">unordered_map</text>
</a>
</g>
</g>
<!-- Node27&#45;&gt;Node28 -->
<g id="edge50" class="edge">
<title>Node27&#45;&gt;Node28</title>
<path fill="none" stroke="#191970" d="M1860.4871,-270.5217C1911.7071,-260.6105 1983.3276,-246.2698 2045.8366,-232 2050.5804,-230.9171 2055.5197,-229.7419 2060.4428,-228.5393"/>
<polygon fill="#191970" stroke="#191970" points="2061.5955,-231.8594 2070.4577,-226.0531 2059.909,-225.0656 2061.5955,-231.8594"/>
</g>
<!-- Node29 -->
<g id="node30" class="node">
<title>Node29</title>
<g id="a_node30"><a xlink:href="random_8h.html" target="_top" xlink:title=" ">
<polygon fill="#ffffff" stroke="#000000" points="2209.8366,-207 2209.8366,-226 2349.8366,-226 2349.8366,-207 2209.8366,-207"/>
<text text-anchor="middle" x="2279.8366" y="-214" font-family="Helvetica,sans-Serif" font-size="10.00" fill="#000000">drake/common/random.h</text>
</a>
</g>
</g>
<!-- Node27&#45;&gt;Node29 -->
<g id="edge53" class="edge">
<title>Node27&#45;&gt;Node29</title>
<path fill="none" stroke="#191970" d="M1860.4623,-274.078C1949.8746,-261.8022 2105.9077,-240.3796 2200.3614,-227.4116"/>
<polygon fill="#191970" stroke="#191970" points="2201.0039,-230.8563 2210.4349,-226.0285 2200.0517,-223.9213 2201.0039,-230.8563"/>
</g>
<!-- Node29&#45;&gt;Node13 -->
<g id="edge55" class="edge">
<title>Node29&#45;&gt;Node13</title>
<path fill="none" stroke="#191970" d="M2273.6071,-206.8898C2255.0666,-179.2357 2197.0753,-99.3764 2125.8366,-67 2037.5314,-26.8673 1787.3342,-40.8321 1690.8366,-31 1672.2348,-29.1047 1652.1445,-26.796 1633.5175,-24.5454"/>
<polygon fill="#191970" stroke="#191970" points="1633.6886,-21.0405 1623.3384,-23.3041 1632.8412,-27.989 1633.6886,-21.0405"/>
</g>
<!-- Node30 -->
<g id="node31" class="node">
<title>Node30</title>
<g id="a_node31"><a xlink:title=" ">
<polygon fill="#ffffff" stroke="#bfbfbf" points="2425.8366,-140 2425.8366,-159 2479.8366,-159 2479.8366,-140 2425.8366,-140"/>
<text text-anchor="middle" x="2452.8366" y="-147" font-family="Helvetica,sans-Serif" font-size="10.00" fill="#000000">random</text>
</a>
</g>
</g>
<!-- Node29&#45;&gt;Node30 -->
<g id="edge54" class="edge">
<title>Node29&#45;&gt;Node30</title>
<path fill="none" stroke="#191970" d="M2304.6233,-206.9005C2334.5559,-195.3082 2385.0605,-175.7486 2418.6721,-162.7313"/>
<polygon fill="#191970" stroke="#191970" points="2420.0349,-165.957 2428.0959,-159.0817 2417.5068,-159.4294 2420.0349,-165.957"/>
</g>
<!-- Node31&#45;&gt;Node2 -->
<g id="edge69" class="edge">
<title>Node31&#45;&gt;Node2</title>
<path fill="none" stroke="#191970" d="M2845.6504,-269.2479C2848.7489,-268.7885 2851.8217,-268.3687 2854.8366,-268 2938.971,-257.7112 3549.7274,-283.7764 3616.8366,-232 3652.1044,-204.79 3663.909,-170.1169 3637.8366,-134 3576.0689,-48.4359 3227.6697,-22.9741 3118.5292,-17.0435"/>
<polygon fill="#191970" stroke="#191970" points="3118.6111,-13.5431 3108.4415,-16.5145 3118.2445,-20.5335 3118.6111,-13.5431"/>
</g>
<!-- Node31&#45;&gt;Node3 -->
<g id="edge77" class="edge">
<title>Node31&#45;&gt;Node3</title>
<path fill="none" stroke="#191970" d="M2791.5134,-268.3627C2807.204,-250.3567 2827.5775,-220.313 2809.8366,-201 2806.9994,-197.9114 1770.0009,-111.8283 1486.6508,-88.3602"/>
<polygon fill="#191970" stroke="#191970" points="1486.7495,-84.8565 1476.4947,-87.5191 1486.1717,-91.8326 1486.7495,-84.8565"/>
</g>
<!-- Node31&#45;&gt;Node4 -->
<g id="edge67" class="edge">
<title>Node31&#45;&gt;Node4</title>
<path fill="none" stroke="#191970" d="M2845.66,-269.3229C2848.7558,-268.8432 2851.8255,-268.3986 2854.8366,-268 2914.0101,-260.1667 3346.37,-271.8194 3390.8366,-232 3423.5263,-202.7268 3423.3158,-172.8089 3402.8366,-134 3378.2127,-87.3367 3354.9822,-83.408 3304.8366,-67 3230.448,-42.6595 2027.325,-20.5788 1778.6105,-16.2613"/>
<polygon fill="#191970" stroke="#191970" points="1778.5492,-12.7598 1768.4901,-16.0863 1778.4281,-19.7587 1778.5492,-12.7598"/>
</g>
<!-- Node31&#45;&gt;Node5 -->
<g id="edge98" class="edge">
<title>Node31&#45;&gt;Node5</title>
<path fill="none" stroke="#191970" d="M2708.0126,-287.3C2505.1712,-298.1895 1910.4559,-329.4528 1690.1397,-340.8114"/>
<polygon fill="#191970" stroke="#191970" points="1689.7412,-337.3272 1679.9345,-341.3371 1690.1014,-344.3179 1689.7412,-337.3272"/>
</g>
<!-- Node31&#45;&gt;Node7 -->
<g id="edge59" class="edge">
<title>Node31&#45;&gt;Node7</title>
<path fill="none" stroke="#191970" d="M2758.775,-268.1903C2730.8826,-244.584 2680.2615,-201.9012 2677.8366,-201 2567.0564,-159.8285 668.3012,-178.0163 550.8366,-165 538.1377,-163.5928 524.4048,-161.0581 512.2035,-158.4406"/>
<polygon fill="#191970" stroke="#191970" points="512.8932,-155.0085 502.3708,-156.2454 511.3679,-161.8403 512.8932,-155.0085"/>
</g>
<!-- Node31&#45;&gt;Node8 -->
<g id="edge60" class="edge">
<title>Node31&#45;&gt;Node8</title>
<path fill="none" stroke="#191970" d="M2770.6887,-268.2645C2761.8474,-248.6457 2743.4996,-215.3699 2715.8366,-201 2642.1108,-162.7021 1303.7651,-170.0087 1220.8366,-165 1180.9951,-162.5937 1135.7314,-158.0382 1103.5394,-154.486"/>
<polygon fill="#191970" stroke="#191970" points="1103.897,-151.0043 1093.5702,-153.3719 1103.1196,-157.961 1103.897,-151.0043"/>
</g>
<!-- Node31&#45;&gt;Node9 -->
<g id="edge63" class="edge">
<title>Node31&#45;&gt;Node9</title>
<path fill="none" stroke="#191970" d="M2845.6866,-269.5072C2848.7753,-268.9776 2851.8361,-268.4721 2854.8366,-268 2923.1275,-257.2543 3117.8689,-283.6341 3163.8366,-232 3192.7983,-199.4683 3193.145,-166.2196 3163.8366,-134 3146.8681,-115.346 2782.0919,-92.0735 2660.1439,-84.7881"/>
<polygon fill="#191970" stroke="#191970" points="2660.3045,-81.2916 2650.1146,-84.1923 2659.8894,-88.2793 2660.3045,-81.2916"/>
</g>
<!-- Node31&#45;&gt;Node10 -->
<g id="edge64" class="edge">
<title>Node31&#45;&gt;Node10</title>
<path fill="none" stroke="#191970" d="M2708.285,-279.8422C2643.3032,-276.4573 2542.9469,-271.443 2455.8366,-268 1935.9964,-247.4534 1805.7511,-250.5739 1285.8366,-232 1160.8671,-227.5355 1012.8841,-221.2204 943.8893,-218.2165"/>
<polygon fill="#191970" stroke="#191970" points="943.6529,-214.7029 933.5098,-217.7636 943.3477,-221.6963 943.6529,-214.7029"/>
</g>
<!-- Node31&#45;&gt;Node11 -->
<g id="edge66" class="edge">
<title>Node31&#45;&gt;Node11</title>
<path fill="none" stroke="#191970" d="M2845.6949,-269.5587C2848.7813,-269.0152 2851.8394,-268.4927 2854.8366,-268 2915.8703,-257.9667 3090.0264,-278.479 3130.8366,-232 3159.5744,-199.2704 3160.8608,-165.5537 3130.8366,-134 3113.092,-115.3513 2300.1487,-88.9185 2127.0374,-83.4951"/>
<polygon fill="#191970" stroke="#191970" points="2127.123,-79.9961 2117.0186,-83.1823 2126.9045,-86.9927 2127.123,-79.9961"/>
</g>
<!-- Node31&#45;&gt;Node12 -->
<g id="edge71" class="edge">
<title>Node31&#45;&gt;Node12</title>
<path fill="none" stroke="#191970" d="M2777.5415,-268.4354C2777.5172,-249.3245 2774.2154,-216.9399 2753.8366,-201 2698.8524,-157.9922 1567.5647,-168.3075 1497.8366,-165 1432.0493,-161.8794 1355.9689,-156.5136 1308.8721,-152.986"/>
<polygon fill="#191970" stroke="#191970" points="1308.9356,-149.481 1298.7007,-152.219 1308.4091,-156.4611 1308.9356,-149.481"/>
</g>
<!-- Node31&#45;&gt;Node13 -->
<g id="edge78" class="edge">
<title>Node31&#45;&gt;Node13</title>
<path fill="none" stroke="#191970" d="M2837.3425,-268.4182C2855.787,-260.6799 2874.0283,-249.1283 2884.8366,-232 2892.1892,-220.3481 2891.6562,-212.9717 2884.8366,-201 2827.0376,-99.5346 2770.8603,-99.9644 2658.8366,-67 2452.3319,-6.2333 1905.4278,-47.9535 1690.8366,-31 1672.2908,-29.5348 1652.296,-27.3873 1633.7478,-25.155"/>
<polygon fill="#191970" stroke="#191970" points="1633.9625,-21.6551 1623.6104,-23.9099 1633.1091,-28.6029 1633.9625,-21.6551"/>
</g>
<!-- Node31&#45;&gt;Node14 -->
<g id="edge82" class="edge">
<title>Node31&#45;&gt;Node14</title>
<path fill="none" stroke="#191970" d="M2707.9648,-278.8153C2527.774,-266.5587 2043.8266,-233.6404 1862.0917,-221.2788"/>
<polygon fill="#191970" stroke="#191970" points="1862.0685,-217.7692 1851.854,-220.5824 1861.5934,-224.7531 1862.0685,-217.7692"/>
</g>
<!-- Node31&#45;&gt;Node17 -->
<g id="edge96" class="edge">
<title>Node31&#45;&gt;Node17</title>
<path fill="none" stroke="#191970" d="M2708.291,-279.6817C2643.3135,-276.1826 2542.9601,-271.0905 2455.8366,-268 1750.3213,-242.9736 1573.3111,-258.1553 867.8366,-232 789.8598,-229.109 700.5925,-224.3266 639.6475,-220.8374"/>
<polygon fill="#191970" stroke="#191970" points="639.5469,-217.3259 629.3623,-220.2454 639.1446,-224.3143 639.5469,-217.3259"/>
</g>
<!-- Node31&#45;&gt;Node20 -->
<g id="edge62" class="edge">
<title>Node31&#45;&gt;Node20</title>
<path fill="none" stroke="#191970" d="M2742.0447,-268.2916C2722.4276,-259.0204 2697.906,-246.2346 2677.8366,-232 2661.4229,-220.3583 2663.4868,-208.557 2644.8366,-201 2527.4779,-153.4468 491.9032,-176.8995 365.8366,-165 345.7939,-163.1082 323.475,-159.2167 306.2015,-155.8064"/>
<polygon fill="#191970" stroke="#191970" points="306.6603,-152.3282 296.1636,-153.7674 305.2667,-159.1881 306.6603,-152.3282"/>
</g>
<!-- Node31&#45;&gt;Node23 -->
<g id="edge70" class="edge">
<title>Node31&#45;&gt;Node23</title>
<path fill="none" stroke="#191970" d="M2845.6793,-269.4597C2848.77,-268.943 2851.8332,-268.4532 2854.8366,-268 2931.4938,-256.4325 3149.9236,-289.5774 3201.8366,-232 3231.0027,-199.6515 3229.9647,-167.2551 3201.8366,-134 3170.6939,-97.1807 3035.1985,-107.0768 2987.8366,-98 2975.3073,-95.5988 2961.6077,-92.7148 2949.5532,-90.0892"/>
<polygon fill="#191970" stroke="#191970" points="2949.9727,-86.5978 2939.4542,-87.8669 2948.4683,-93.4343 2949.9727,-86.5978"/>
</g>
<!-- Node31&#45;&gt;Node24 -->
<g id="edge79" class="edge">
<title>Node31&#45;&gt;Node24</title>
<path fill="none" stroke="#191970" d="M2786.4143,-268.181C2796.6183,-249.7101 2809.1157,-218.9201 2791.8366,-201 2755.0898,-162.8898 1921.9054,-171.2721 1804.5277,-164.4554"/>
<polygon fill="#191970" stroke="#191970" points="1804.6787,-160.956 1794.4246,-163.6214 1804.1028,-167.9323 1804.6787,-160.956"/>
</g>
<!-- Node31&#45;&gt;Node28 -->
<g id="edge68" class="edge">
<title>Node31&#45;&gt;Node28</title>
<path fill="none" stroke="#191970" d="M2707.9437,-279.0013C2599.7127,-271.5601 2383.3522,-255.1747 2200.8366,-232 2188.7869,-230.47 2175.9151,-228.5423 2163.6844,-226.571"/>
<polygon fill="#191970" stroke="#191970" points="2164.0288,-223.0807 2153.5936,-224.9125 2162.8935,-229.988 2164.0288,-223.0807"/>
</g>
<!-- Node31&#45;&gt;Node29 -->
<g id="edge97" class="edge">
<title>Node31&#45;&gt;Node29</title>
<path fill="none" stroke="#191970" d="M2708.2527,-274.2543C2617.2083,-261.9807 2456.7178,-240.3451 2360.1285,-227.3241"/>
<polygon fill="#191970" stroke="#191970" points="2360.4979,-223.8423 2350.1199,-225.9748 2359.5626,-230.7795 2360.4979,-223.8423"/>
</g>
<!-- Node31&#45;&gt;Node30 -->
<g id="edge65" class="edge">
<title>Node31&#45;&gt;Node30</title>
<path fill="none" stroke="#191970" d="M2814.5225,-268.4779C2848.7161,-252.7259 2890.5696,-226.7284 2867.8366,-201 2842.9895,-172.8789 2587.5956,-156.5894 2490.2475,-151.3625"/>
<polygon fill="#191970" stroke="#191970" points="2490.1568,-147.8529 2479.9863,-150.8212 2489.788,-154.8432 2490.1568,-147.8529"/>
</g>
<!-- Node32 -->
<g id="node33" class="node">
<title>Node32</title>
<g id="a_node33"><a xlink:title=" ">
<polygon fill="#ffffff" stroke="#bfbfbf" points="1395.8366,-207 1395.8366,-226 1459.8366,-226 1459.8366,-207 1395.8366,-207"/>
<text text-anchor="middle" x="1427.8366" y="-214" font-family="Helvetica,sans-Serif" font-size="10.00" fill="#000000">algorithm</text>
</a>
</g>
</g>
<!-- Node31&#45;&gt;Node32 -->
<g id="edge58" class="edge">
<title>Node31&#45;&gt;Node32</title>
<path fill="none" stroke="#191970" d="M2708.2791,-279.985C2643.2931,-276.7016 2542.9339,-271.7565 2455.8366,-268 2034.5912,-249.8319 1926.7047,-280.2422 1507.8366,-232 1495.4293,-230.571 1482.0657,-228.2843 1469.8807,-225.9014"/>
<polygon fill="#191970" stroke="#191970" points="1470.4653,-222.4488 1459.9695,-223.8939 1469.0756,-229.3095 1470.4653,-222.4488"/>
</g>
<!-- Node33 -->
<g id="node34" class="node">
<title>Node33</title>
<g id="a_node34"><a xlink:title=" ">
<polygon fill="#ffffff" stroke="#bfbfbf" points="3466.8366,-140 3466.8366,-159 3510.8366,-159 3510.8366,-140 3466.8366,-140"/>
<text text-anchor="middle" x="3488.8366" y="-147" font-family="Helvetica,sans-Serif" font-size="10.00" fill="#000000">limits</text>
</a>
</g>
</g>
<!-- Node31&#45;&gt;Node33 -->
<g id="edge61" class="edge">
<title>Node31&#45;&gt;Node33</title>
<path fill="none" stroke="#191970" d="M2845.658,-269.3082C2848.7544,-268.8325 2851.8247,-268.3928 2854.8366,-268 2980.4702,-251.6167 3311.6527,-290.8809 3423.8366,-232 3450.4938,-218.0087 3469.8031,-187.7486 3480.1544,-168.0242"/>
<polygon fill="#191970" stroke="#191970" points="3483.2949,-169.5694 3484.6261,-159.0585 3477.0308,-166.4451 3483.2949,-169.5694"/>
</g>
<!-- Node34 -->
<g id="node35" class="node">
<title>Node34</title>
<g id="a_node35"><a xlink:title=" ">
<polygon fill="#ffffff" stroke="#bfbfbf" points="2555.8366,-207 2555.8366,-226 2635.8366,-226 2635.8366,-207 2555.8366,-207"/>
<text text-anchor="middle" x="2595.8366" y="-214" font-family="Helvetica,sans-Serif" font-size="10.00" fill="#000000">Eigen/Sparse</text>
</a>
</g>
</g>
<!-- Node31&#45;&gt;Node34 -->
<g id="edge72" class="edge">
<title>Node31&#45;&gt;Node34</title>
<path fill="none" stroke="#191970" d="M2736.2167,-268.4639C2704.6592,-256.7824 2661.3341,-240.7449 2631.1947,-229.5884"/>
<polygon fill="#191970" stroke="#191970" points="2632.1082,-226.1945 2621.5151,-226.0053 2629.6782,-232.7591 2632.1082,-226.1945"/>
</g>
<!-- Node35 -->
<g id="node36" class="node">
<title>Node35</title>
<g id="a_node36"><a xlink:href="cond_8h.html" target="_top" xlink:title=" ">
<polygon fill="#ffffff" stroke="#000000" points="2996.3366,-207 2996.3366,-226 3121.3366,-226 3121.3366,-207 2996.3366,-207"/>
<text text-anchor="middle" x="3058.8366" y="-214" font-family="Helvetica,sans-Serif" font-size="10.00" fill="#000000">drake/common/cond.h</text>
</a>
</g>
</g>
<!-- Node31&#45;&gt;Node35 -->
<g id="edge73" class="edge">
<title>Node31&#45;&gt;Node35</title>
<path fill="none" stroke="#191970" d="M2840.1229,-268.4639C2891.1069,-256.3507 2961.8051,-239.5536 3008.8683,-228.3719"/>
<polygon fill="#191970" stroke="#191970" points="3009.9092,-231.7221 3018.8293,-226.0053 3008.2911,-224.9117 3009.9092,-231.7221"/>
</g>
<!-- Node37 -->
<g id="node38" class="node">
<title>Node37</title>
<g id="a_node38"><a xlink:href="dummy__value_8h.html" target="_top" xlink:title=" ">
<polygon fill="#ffffff" stroke="#000000" points="3476.3366,-201.5 3476.3366,-231.5 3607.3366,-231.5 3607.3366,-201.5 3476.3366,-201.5"/>
<text text-anchor="start" x="3484.3366" y="-219.5" font-family="Helvetica,sans-Serif" font-size="10.00" fill="#000000">drake/common/dummy</text>
<text text-anchor="middle" x="3541.8366" y="-208.5" font-family="Helvetica,sans-Serif" font-size="10.00" fill="#000000">_value.h</text>
</a>
</g>
</g>
<!-- Node31&#45;&gt;Node37 -->
<g id="edge80" class="edge">
<title>Node31&#45;&gt;Node37</title>
<path fill="none" stroke="#191970" d="M2845.6561,-269.2933C2848.753,-268.8216 2851.8239,-268.3868 2854.8366,-268 3122.8879,-233.5824 3193.7038,-265.7764 3461.8366,-232 3463.1394,-231.8359 3464.4528,-231.6633 3465.7744,-231.4831"/>
<polygon fill="#191970" stroke="#191970" points="3466.6466,-234.8922 3476.0262,-229.9655 3465.6214,-227.9677 3466.6466,-234.8922"/>
</g>
<!-- Node38 -->
<g id="node39" class="node">
<title>Node38</title>
<g id="a_node39"><a xlink:href="extract__double_8h.html" target="_top" xlink:title=" ">
<polygon fill="#ffffff" stroke="#000000" points="3253.8366,-201.5 3253.8366,-231.5 3381.8366,-231.5 3381.8366,-201.5 3253.8366,-201.5"/>
<text text-anchor="start" x="3261.8366" y="-219.5" font-family="Helvetica,sans-Serif" font-size="10.00" fill="#000000">drake/common/extract</text>
<text text-anchor="middle" x="3317.8366" y="-208.5" font-family="Helvetica,sans-Serif" font-size="10.00" fill="#000000">_double.h</text>
</a>
</g>
</g>
<!-- Node31&#45;&gt;Node38 -->
<g id="edge83" class="edge">
<title>Node31&#45;&gt;Node38</title>
<path fill="none" stroke="#191970" d="M2845.6737,-269.4215C2848.7658,-268.9152 2851.831,-268.438 2854.8366,-268 3024.8981,-243.2191 3069.7751,-256.7809 3239.8366,-232 3241.1047,-231.8152 3242.3833,-231.6235 3243.67,-231.4255"/>
<polygon fill="#191970" stroke="#191970" points="3244.3474,-234.8614 3253.6541,-229.7982 3243.2212,-227.9525 3244.3474,-234.8614"/>
</g>
<!-- Node35&#45;&gt;Node4 -->
<g id="edge75" class="edge">
<title>Node35&#45;&gt;Node4</title>
<path fill="none" stroke="#191970" d="M3039.6152,-206.8688C3023.5566,-197.9576 3001.063,-183.3344 2986.8366,-165 2958.1984,-128.0923 2986.813,-94.205 2948.8366,-67 2900.4171,-32.3139 1993.0476,-18.7595 1778.8637,-16.0362"/>
<polygon fill="#191970" stroke="#191970" points="1778.6596,-12.5334 1768.6164,-15.9074 1778.5716,-19.5329 1778.6596,-12.5334"/>
</g>
<!-- Node35&#45;&gt;Node8 -->
<g id="edge74" class="edge">
<title>Node35&#45;&gt;Node8</title>
<path fill="none" stroke="#191970" d="M2997.7991,-206.9668C2980.407,-204.6058 2961.4114,-202.3636 2943.8366,-201 2180.1868,-141.7498 1985.4609,-209.9598 1220.8366,-165 1180.9913,-162.6571 1135.728,-158.0942 1103.5372,-154.5231"/>
<polygon fill="#191970" stroke="#191970" points="1103.8967,-151.0415 1093.5683,-153.4025 1103.1148,-157.9977 1103.8967,-151.0415"/>
</g>
<!-- Node36 -->
<g id="node37" class="node">
<title>Node36</title>
<g id="a_node37"><a xlink:href="double__overloads_8h.html" target="_top" xlink:title="Provides necessary operations on double to have it as a ScalarType in drake.">
<polygon fill="#ffffff" stroke="#000000" points="2995.8366,-134.5 2995.8366,-164.5 3121.8366,-164.5 3121.8366,-134.5 2995.8366,-134.5"/>
<text text-anchor="start" x="3003.8366" y="-152.5" font-family="Helvetica,sans-Serif" font-size="10.00" fill="#000000">drake/common/double</text>
<text text-anchor="middle" x="3058.8366" y="-141.5" font-family="Helvetica,sans-Serif" font-size="10.00" fill="#000000">_overloads.h</text>
</a>
</g>
</g>
<!-- Node35&#45;&gt;Node36 -->
<g id="edge76" class="edge">
<title>Node35&#45;&gt;Node36</title>
<path fill="none" stroke="#191970" d="M3058.8366,-206.9005C3058.8366,-198.5099 3058.8366,-185.9451 3058.8366,-174.7085"/>
<polygon fill="#191970" stroke="#191970" points="3062.3367,-174.5217 3058.8366,-164.5218 3055.3367,-174.5218 3062.3367,-174.5217"/>
</g>
<!-- Node37&#45;&gt;Node33 -->
<g id="edge81" class="edge">
<title>Node37&#45;&gt;Node33</title>
<path fill="none" stroke="#191970" d="M3529.8101,-201.2967C3521.793,-191.1618 3511.2264,-177.804 3502.8319,-167.1921"/>
<polygon fill="#191970" stroke="#191970" points="3505.3441,-164.7264 3496.395,-159.055 3499.8541,-169.0692 3505.3441,-164.7264"/>
</g>
<!-- Node38&#45;&gt;Node1 -->
<g id="edge84" class="edge">
<title>Node38&#45;&gt;Node1</title>
<path fill="none" stroke="#191970" d="M3380.2253,-201.4639C3432.9108,-188.7663 3506.9513,-170.922 3553.1244,-159.7939"/>
<polygon fill="#191970" stroke="#191970" points="3554.1996,-163.1351 3563.1012,-157.3895 3552.5595,-156.33 3554.1996,-163.1351"/>
</g>
<!-- Node39 -->
<g id="node40" class="node">
<title>Node39</title>
<g id="a_node40"><a xlink:href="nice__type__name_8h.html" target="_top" xlink:title=" ">
<polygon fill="#ffffff" stroke="#000000" points="3253.8366,-134.5 3253.8366,-164.5 3393.8366,-164.5 3393.8366,-134.5 3253.8366,-134.5"/>
<text text-anchor="start" x="3261.8366" y="-152.5" font-family="Helvetica,sans-Serif" font-size="10.00" fill="#000000">drake/common/nice_type</text>
<text text-anchor="middle" x="3323.8366" y="-141.5" font-family="Helvetica,sans-Serif" font-size="10.00" fill="#000000">_name.h</text>
</a>
</g>
</g>
<!-- Node38&#45;&gt;Node39 -->
<g id="edge85" class="edge">
<title>Node38&#45;&gt;Node39</title>
<path fill="none" stroke="#191970" d="M3319.1981,-201.2967C3319.9039,-193.4156 3320.7842,-183.5857 3321.5877,-174.6135"/>
<polygon fill="#191970" stroke="#191970" points="3325.0745,-174.9155 3322.4805,-164.6432 3318.1024,-174.2911 3325.0745,-174.9155"/>
</g>
<!-- Node39&#45;&gt;Node2 -->
<g id="edge89" class="edge">
<title>Node39&#45;&gt;Node2</title>
<path fill="none" stroke="#191970" d="M3324.8027,-134.4689C3325.1175,-115.9999 3322.6713,-84.917 3304.8366,-67 3278.9397,-40.9835 3173.0037,-25.4073 3118.5282,-18.966"/>
<polygon fill="#191970" stroke="#191970" points="3118.692,-15.4619 3108.3582,-17.7992 3117.894,-22.4163 3118.692,-15.4619"/>
</g>
<!-- Node39&#45;&gt;Node9 -->
<g id="edge86" class="edge">
<title>Node39&#45;&gt;Node9</title>
<path fill="none" stroke="#191970" d="M3253.5706,-140.1099C3236.6444,-137.976 3218.6066,-135.8079 3201.8366,-134 2998.2542,-112.0527 2753.7957,-92.6458 2660.0491,-85.459"/>
<polygon fill="#191970" stroke="#191970" points="2660.1304,-81.9551 2649.8928,-84.6831 2659.5971,-88.9347 2660.1304,-81.9551"/>
</g>
<!-- Node39&#45;&gt;Node11 -->
<g id="edge87" class="edge">
<title>Node39&#45;&gt;Node11</title>
<path fill="none" stroke="#191970" d="M3253.8038,-141.9743C3225.8443,-139.1636 3193.3415,-136.1386 3163.8366,-134 2755.1152,-104.3748 2257.2047,-87.5708 2127.1438,-83.4849"/>
<polygon fill="#191970" stroke="#191970" points="2127.1613,-79.9838 2117.0571,-83.1705 2126.9431,-86.9804 2127.1613,-79.9838"/>
</g>
<!-- Node39&#45;&gt;Node23 -->
<g id="edge90" class="edge">
<title>Node39&#45;&gt;Node23</title>
<path fill="none" stroke="#191970" d="M3253.7473,-136.3471C3249.0433,-135.5321 3244.3735,-134.7423 3239.8366,-134 3128.1843,-115.7313 3099.2067,-117.9175 2987.8366,-98 2975.2785,-95.7541 2961.5725,-92.9044 2949.5211,-90.2628"/>
<polygon fill="#191970" stroke="#191970" points="2949.9484,-86.7723 2939.4267,-88.0152 2948.427,-93.6049 2949.9484,-86.7723"/>
</g>
<!-- Node40 -->
<g id="node41" class="node">
<title>Node40</title>
<g id="a_node41"><a xlink:title=" ">
<polygon fill="#ffffff" stroke="#bfbfbf" points="3238.3366,-73 3238.3366,-92 3295.3366,-92 3295.3366,-73 3238.3366,-73"/>
<text text-anchor="middle" x="3266.8366" y="-80" font-family="Helvetica,sans-Serif" font-size="10.00" fill="#000000">typeinfo</text>
</a>
</g>
</g>
<!-- Node39&#45;&gt;Node40 -->
<g id="edge88" class="edge">
<title>Node39&#45;&gt;Node40</title>
<path fill="none" stroke="#191970" d="M3310.9024,-134.2967C3302.194,-124.0605 3290.6886,-110.5366 3281.618,-99.8746"/>
<polygon fill="#191970" stroke="#191970" points="3284.1111,-97.4036 3274.9655,-92.055 3278.7795,-101.9395 3284.1111,-97.4036"/>
</g>
<!-- Node41 -->
<g id="node42" class="node">
<title>Node41</title>
<g id="a_node42"><a xlink:href="never__destroyed_8h.html" target="_top" xlink:title=" ">
<polygon fill="#ffffff" stroke="#000000" points="2996.3366,-67.5 2996.3366,-97.5 3117.3366,-97.5 3117.3366,-67.5 2996.3366,-67.5"/>
<text text-anchor="start" x="3004.3366" y="-85.5" font-family="Helvetica,sans-Serif" font-size="10.00" fill="#000000">drake/common/never</text>
<text text-anchor="middle" x="3056.8366" y="-74.5" font-family="Helvetica,sans-Serif" font-size="10.00" fill="#000000">_destroyed.h</text>
</a>
</g>
</g>
<!-- Node39&#45;&gt;Node41 -->
<g id="edge91" class="edge">
<title>Node39&#45;&gt;Node41</title>
<path fill="none" stroke="#191970" d="M3263.9166,-134.4639C3223.2642,-124.2627 3169.3739,-110.7397 3126.7595,-100.0462"/>
<polygon fill="#191970" stroke="#191970" points="3127.5692,-96.6409 3117.018,-97.6017 3125.8654,-103.4304 3127.5692,-96.6409"/>
</g>
<!-- Node41&#45;&gt;Node2 -->
<g id="edge94" class="edge">
<title>Node41&#45;&gt;Node2</title>
<path fill="none" stroke="#191970" d="M3063.4172,-67.2967C3067.6284,-57.5672 3073.1253,-44.8675 3077.6221,-34.4784"/>
<polygon fill="#191970" stroke="#191970" points="3080.9406,-35.6225 3081.7009,-25.055 3074.5166,-32.8419 3080.9406,-35.6225"/>
</g>
<!-- Node41&#45;&gt;Node4 -->
<g id="edge93" class="edge">
<title>Node41&#45;&gt;Node4</title>
<path fill="none" stroke="#191970" d="M2995.9854,-69.0615C2991.213,-68.2717 2986.4553,-67.5687 2981.8366,-67 2741.8369,-37.4472 1972.8305,-20.2999 1778.684,-16.3724"/>
<polygon fill="#191970" stroke="#191970" points="1778.6268,-12.8707 1768.5585,-16.1691 1778.4862,-19.8693 1778.6268,-12.8707"/>
</g>
<!-- Node41&#45;&gt;Node13 -->
<g id="edge95" class="edge">
<title>Node41&#45;&gt;Node13</title>
<path fill="none" stroke="#191970" d="M2996.1454,-72.5519C2980.7518,-70.3698 2964.218,-68.3195 2948.8366,-67 2391.5435,-19.1917 2248.6227,-72.6647 1690.8366,-31 1672.2846,-29.6142 1652.2878,-27.4946 1633.7394,-25.2637"/>
<polygon fill="#191970" stroke="#191970" points="1633.9547,-21.7639 1623.6022,-24.0168 1633.1001,-28.7115 1633.9547,-21.7639"/>
</g>
<!-- Node42 -->
<g id="node43" class="node">
<title>Node42</title>
<g id="a_node43"><a xlink:title=" ">
<polygon fill="#ffffff" stroke="#bfbfbf" points="3008.3366,-6 3008.3366,-25 3045.3366,-25 3045.3366,-6 3008.3366,-6"/>
<text text-anchor="middle" x="3026.8366" y="-13" font-family="Helvetica,sans-Serif" font-size="10.00" fill="#000000">new</text>
</a>
</g>
</g>
<!-- Node41&#45;&gt;Node42 -->
<g id="edge92" class="edge">
<title>Node41&#45;&gt;Node42</title>
<path fill="none" stroke="#191970" d="M3050.0292,-67.2967C3045.6727,-57.5672 3039.9863,-44.8675 3035.3344,-34.4784"/>
<polygon fill="#191970" stroke="#191970" points="3038.3961,-32.7515 3031.115,-25.055 3032.0073,-35.6122 3038.3961,-32.7515"/>
</g>
<!-- Node43&#45;&gt;Node12 -->
<g id="edge101" class="edge">
<title>Node43&#45;&gt;Node12</title>
<path fill="none" stroke="#191970" d="M1343.4545,-268.3815C1322.4371,-260.65 1300.8539,-249.1119 1285.8366,-232 1270.5331,-214.5619 1265.7189,-187.6085 1264.2883,-169.2932"/>
<polygon fill="#191970" stroke="#191970" points="1267.7767,-168.9764 1263.7712,-159.1679 1260.7858,-169.3334 1267.7767,-168.9764"/>
</g>
<!-- Node44&#45;&gt;Node2 -->
<g id="edge106" class="edge">
<title>Node44&#45;&gt;Node2</title>
<path fill="none" stroke="#191970" d="M371.2514,-271.3197C325.9402,-262.0076 271.8804,-248.0639 254.8366,-232 222.2793,-201.3144 214.4123,-175.2065 231.8366,-134 248.4845,-94.6298 261.3318,-83.3257 300.8366,-67 442.2501,-8.5599 2906.1498,-67.1277 3054.8366,-31 3056.7662,-30.5312 3058.7134,-29.9256 3060.6416,-29.2265"/>
<polygon fill="#191970" stroke="#191970" points="3062.1982,-32.3658 3069.9554,-25.1493 3059.3911,-25.9533 3062.1982,-32.3658"/>
</g>
<!-- Node44&#45;&gt;Node5 -->
<g id="edge110" class="edge">
<title>Node44&#45;&gt;Node5</title>
<path fill="none" stroke="#191970" d="M508.6891,-296.3689C514.8269,-297.388 520.942,-298.2941 526.8366,-299 719.9967,-322.1322 1305.3694,-337.78 1523.6616,-343.0437"/>
<polygon fill="#191970" stroke="#191970" points="1523.6948,-346.5454 1533.7759,-343.2865 1523.8629,-339.5474 1523.6948,-346.5454"/>
</g>
<!-- Node44&#45;&gt;Node7 -->
<g id="edge103" class="edge">
<title>Node44&#45;&gt;Node7</title>
<path fill="none" stroke="#191970" d="M431.8379,-268.3677C424.0095,-251.4059 414.5144,-223.353 423.8366,-201 429.7605,-186.7957 441.7197,-174.5036 452.6769,-165.4942"/>
<polygon fill="#191970" stroke="#191970" points="454.9667,-168.1482 460.7441,-159.2672 450.6894,-162.607 454.9667,-168.1482"/>
</g>
<!-- Node44&#45;&gt;Node10 -->
<g id="edge105" class="edge">
<title>Node44&#45;&gt;Node10</title>
<path fill="none" stroke="#191970" d="M508.6965,-269.5685C511.7825,-269.0223 514.8401,-268.4966 517.8366,-268 644.7241,-246.9719 796.1372,-228.8213 865.9992,-220.8362"/>
<polygon fill="#191970" stroke="#191970" points="866.5586,-224.2952 876.0992,-219.6878 865.7677,-217.34 866.5586,-224.2952"/>
</g>
<!-- Node44&#45;&gt;Node12 -->
<g id="edge107" class="edge">
<title>Node44&#45;&gt;Node12</title>
<path fill="none" stroke="#191970" d="M503.8551,-268.4078C543.0583,-258.8013 594.1196,-245.6353 638.8366,-232 678.5006,-219.9055 686.3429,-209.9309 726.8366,-201 890.7722,-164.8438 935.7297,-181.0438 1102.8366,-165 1142.1836,-161.2223 1186.9382,-156.9126 1219.2568,-153.7982"/>
<polygon fill="#191970" stroke="#191970" points="1219.6722,-157.2744 1229.2903,-152.8312 1219.0006,-150.3067 1219.6722,-157.2744"/>
</g>
<!-- Node44&#45;&gt;Node13 -->
<g id="edge108" class="edge">
<title>Node44&#45;&gt;Node13</title>
<path fill="none" stroke="#191970" d="M371.1072,-280.2714C254.8555,-274.1001 29.6469,-258.8028 5.8366,-232 -3.3137,-221.6996 -.0301,-213.4663 5.8366,-201 45.6239,-116.4551 80.5194,-100.2651 167.8366,-67 230.1299,-43.2682 1216.0039,-22.2841 1491.7015,-16.8579"/>
<polygon fill="#191970" stroke="#191970" points="1492.0515,-20.3518 1501.9809,-16.6563 1491.9142,-13.3531 1492.0515,-20.3518"/>
</g>
<!-- Node44&#45;&gt;Node17 -->
<g id="edge109" class="edge">
<title>Node44&#45;&gt;Node17</title>
<path fill="none" stroke="#191970" d="M468.3379,-268.4639C489.6469,-257.2222 518.6027,-241.9463 539.6005,-230.8686"/>
<polygon fill="#191970" stroke="#191970" points="541.4207,-233.8657 548.6322,-226.1039 538.1544,-227.6744 541.4207,-233.8657"/>
</g>
<!-- Node44&#45;&gt;Node20 -->
<g id="edge104" class="edge">
<title>Node44&#45;&gt;Node20</title>
<path fill="none" stroke="#191970" d="M371.269,-280.7474C296.6831,-276.1435 184.4911,-263.9631 157.8366,-232 128.026,-196.2522 203.5881,-169.0579 247.6921,-156.7443"/>
<polygon fill="#191970" stroke="#191970" points="248.8749,-160.0506 257.6224,-154.073 247.0564,-153.2909 248.8749,-160.0506"/>
</g>
<!-- Node45&#45;&gt;Node3 -->
<g id="edge118" class="edge">
<title>Node45&#45;&gt;Node3</title>
<path fill="none" stroke="#191970" d="M526.0117,-269.5268C523.252,-269.0042 520.5189,-268.4933 517.8366,-268 422.118,-250.3945 385.6436,-281.4812 301.8366,-232 259.1968,-206.8247 214.6032,-169.7774 248.8366,-134 286.8256,-94.2976 1097.1544,-84.9067 1344.6686,-82.9606"/>
<polygon fill="#191970" stroke="#191970" points="1345.0091,-86.4582 1354.9819,-82.8813 1344.9552,-79.4584 1345.0091,-86.4582"/>
</g>
<!-- Node45&#45;&gt;Node5 -->
<g id="edge120" class="edge">
<title>Node45&#45;&gt;Node5</title>
<path fill="none" stroke="#191970" d="M663.6943,-296.3261C669.8311,-297.3537 675.9445,-298.2735 681.8366,-299 843.8928,-318.9825 1327.9272,-335.9629 1523.5349,-342.3219"/>
<polygon fill="#191970" stroke="#191970" points="1523.6461,-345.8272 1533.7542,-342.6529 1523.8728,-338.8309 1523.6461,-345.8272"/>
</g>
<!-- Node45&#45;&gt;Node7 -->
<g id="edge112" class="edge">
<title>Node45&#45;&gt;Node7</title>
<path fill="none" stroke="#191970" d="M537.9541,-268.4457C506.1452,-258.7525 471.0733,-245.4815 461.8366,-232 448.8721,-213.0774 457.2251,-186.1138 465.5316,-168.2259"/>
<polygon fill="#191970" stroke="#191970" points="468.7552,-169.6064 470.1305,-159.1012 462.5042,-166.4559 468.7552,-169.6064"/>
</g>
<!-- Node45&#45;&gt;Node8 -->
<g id="edge113" class="edge">
<title>Node45&#45;&gt;Node8</title>
<path fill="none" stroke="#191970" d="M612.07,-268.4549C634.9795,-249.365 677.5183,-217.0032 719.8366,-201 827.3061,-160.359 862.4076,-183.3098 975.8366,-165 989.6433,-162.7713 1004.6677,-160.1101 1018.1914,-157.627"/>
<polygon fill="#191970" stroke="#191970" points="1019.0008,-161.0367 1028.1956,-155.773 1017.7252,-154.1539 1019.0008,-161.0367"/>
</g>
<!-- Node45&#45;&gt;Node12 -->
<g id="edge117" class="edge">
<title>Node45&#45;&gt;Node12</title>
<path fill="none" stroke="#191970" d="M629.9464,-268.4357C675.2644,-249.6337 756.9656,-217.8984 829.8366,-201 867.1746,-192.3415 1115.9499,-165.2672 1219.1266,-154.2424"/>
<polygon fill="#191970" stroke="#191970" points="1219.6551,-157.7059 1229.2273,-153.1647 1218.9124,-150.7454 1219.6551,-157.7059"/>
</g>
<!-- Node45&#45;&gt;Node17 -->
<g id="edge119" class="edge">
<title>Node45&#45;&gt;Node17</title>
<path fill="none" stroke="#191970" d="M588.483,-268.2967C584.417,-258.5672 579.1096,-245.8675 574.7679,-235.4784"/>
<polygon fill="#191970" stroke="#191970" points="577.9151,-233.9321 570.8298,-226.055 571.4564,-236.6313 577.9151,-233.9321"/>
</g>
<!-- Node45&#45;&gt;Node20 -->
<g id="edge114" class="edge">
<title>Node45&#45;&gt;Node20</title>
<path fill="none" stroke="#191970" d="M525.9905,-269.6369C523.2367,-269.0838 520.5106,-268.5365 517.8366,-268 437.8466,-251.9501 406.7087,-275.7337 337.8366,-232 313.3786,-216.4692 295.3757,-187.371 285.4982,-168.2146"/>
<polygon fill="#191970" stroke="#191970" points="288.6338,-166.6593 281.0825,-159.2277 282.3512,-169.7463 288.6338,-166.6593"/>
</g>
<!-- Node45&#45;&gt;Node22 -->
<g id="edge115" class="edge">
<title>Node45&#45;&gt;Node22</title>
<path fill="none" stroke="#191970" d="M526.2948,-269.476C453.4494,-254.5326 348.5577,-232.8869 347.8366,-232 331.165,-211.4938 353.3717,-183.4977 371.5685,-165.9635"/>
<polygon fill="#191970" stroke="#191970" points="373.9987,-168.4837 378.9966,-159.1417 369.2639,-163.328 373.9987,-168.4837"/>
</g>
<!-- Node45&#45;&gt;Node28 -->
<g id="edge116" class="edge">
<title>Node45&#45;&gt;Node28</title>
<path fill="none" stroke="#191970" d="M663.6429,-269.1839C666.7434,-268.7419 669.8187,-268.3432 672.8366,-268 1197.6964,-208.3158 1333.1679,-256.6121 1860.8366,-232 1925.687,-228.9752 2000.0678,-224.092 2049.9086,-220.6153"/>
<polygon fill="#191970" stroke="#191970" points="2050.4289,-224.0875 2060.1593,-219.896 2049.9388,-217.1047 2050.4289,-224.0875"/>
</g>
<!-- Node46&#45;&gt;Node2 -->
<g id="edge126" class="edge">
<title>Node46&#45;&gt;Node2</title>
<path fill="none" stroke="#191970" d="M681.0529,-269.2769C678.2819,-268.8235 675.5351,-268.3953 672.8366,-268 586.9396,-255.4163 355.9332,-280.3605 283.8366,-232 245.4273,-206.236 217.4616,-167.9804 248.8366,-134 375.7193,3.4191 901.0231,-76.1601 1087.8366,-67 1306.1665,-56.2946 2842.5605,-83.1667 3054.8366,-31 3056.7649,-30.5261 3058.7112,-29.9169 3060.6388,-29.215"/>
<polygon fill="#191970" stroke="#191970" points="3062.1982,-32.3529 3069.9511,-25.1319 3059.3873,-25.9421 3062.1982,-32.3529"/>
</g>
<!-- Node46&#45;&gt;Node5 -->
<g id="edge129" class="edge">
<title>Node46&#45;&gt;Node5</title>
<path fill="none" stroke="#191970" d="M818.7018,-296.2663C824.8371,-297.3058 830.9481,-298.2447 836.8366,-299 1085.4293,-330.8866 1381.5356,-340.7098 1523.2721,-343.7058"/>
<polygon fill="#191970" stroke="#191970" points="1523.55,-347.2122 1533.6198,-343.9182 1523.6937,-340.2137 1523.55,-347.2122"/>
</g>
<!-- Node46&#45;&gt;Node8 -->
<g id="edge123" class="edge">
<title>Node46&#45;&gt;Node8</title>
<path fill="none" stroke="#191970" d="M765.2886,-268.388C785.1071,-249.8354 821.3009,-218.6665 857.8366,-201 885.8574,-187.4509 967.1917,-168.9907 1017.9981,-158.2481"/>
<polygon fill="#191970" stroke="#191970" points="1018.9686,-161.6208 1028.0367,-156.1418 1017.5311,-154.7699 1018.9686,-161.6208"/>
</g>
<!-- Node46&#45;&gt;Node10 -->
<g id="edge125" class="edge">
<title>Node46&#45;&gt;Node10</title>
<path fill="none" stroke="#191970" d="M784.6217,-268.4639C811.2144,-256.969 847.565,-241.2561 873.3123,-230.1266"/>
<polygon fill="#191970" stroke="#191970" points="874.8282,-233.2844 882.6186,-226.1039 872.0507,-226.859 874.8282,-233.2844"/>
</g>
<!-- Node46&#45;&gt;Node12 -->
<g id="edge127" class="edge">
<title>Node46&#45;&gt;Node12</title>
<path fill="none" stroke="#191970" d="M777.5488,-268.2865C794.3487,-258.6356 815.9248,-245.4656 833.8366,-232 850.1821,-219.7119 849.2858,-209.6046 867.8366,-201 899.2015,-186.4518 1122.1333,-163.3059 1219.0404,-153.7949"/>
<polygon fill="#191970" stroke="#191970" points="1219.5038,-157.2664 1229.1161,-152.8106 1218.8232,-150.2996 1219.5038,-157.2664"/>
</g>
<!-- Node46&#45;&gt;Node13 -->
<g id="edge128" class="edge">
<title>Node46&#45;&gt;Node13</title>
<path fill="none" stroke="#191970" d="M681.0612,-269.2186C678.2878,-268.7813 675.5383,-268.3724 672.8366,-268 620.1838,-260.7418 231.978,-270.9718 195.8366,-232 145.9715,-178.2297 144.9676,-119.8216 195.8366,-67 218.5189,-43.4472 1214.4134,-22.2943 1491.7928,-16.8517"/>
<polygon fill="#191970" stroke="#191970" points="1492.2032,-20.3444 1502.1329,-16.6495 1492.0664,-13.3457 1492.2032,-20.3444"/>
</g>
<!-- Node46&#45;&gt;Node20 -->
<g id="edge124" class="edge">
<title>Node46&#45;&gt;Node20</title>
<path fill="none" stroke="#191970" d="M681.0496,-269.2995C678.2794,-268.8398 675.5338,-268.4042 672.8366,-268 592.6694,-255.9866 374.6345,-280.7067 309.8366,-232 290.0452,-217.1234 282.0991,-188.4723 278.9247,-169.1663"/>
<polygon fill="#191970" stroke="#191970" points="282.3656,-168.4929 277.5537,-159.0538 275.429,-169.4334 282.3656,-168.4929"/>
</g>
<!-- Node46&#45;&gt;Node32 -->
<g id="edge122" class="edge">
<title>Node46&#45;&gt;Node32</title>
<path fill="none" stroke="#191970" d="M818.6586,-269.3125C821.7548,-268.8356 824.8249,-268.3945 827.8366,-268 1074.6873,-235.6678 1143.4972,-284.5982 1386.8366,-232 1390.035,-231.3087 1393.3156,-230.4123 1396.5607,-229.3992"/>
<polygon fill="#191970" stroke="#191970" points="1397.7717,-232.6838 1406.0713,-226.0984 1395.4765,-226.0708 1397.7717,-232.6838"/>
</g>
<!-- Node47&#45;&gt;Node5 -->
<g id="edge132" class="edge">
<title>Node47&#45;&gt;Node5</title>
<path fill="none" stroke="#191970" d="M1128.7346,-296.0295C1134.8633,-297.116 1140.9639,-298.1306 1146.8366,-299 1278.0852,-318.4291 1431.255,-331.7019 1523.6154,-338.8214"/>
<polygon fill="#191970" stroke="#191970" points="1523.5038,-342.323 1533.7417,-339.5962 1524.0379,-335.3434 1523.5038,-342.323"/>
</g>
<!-- Node47&#45;&gt;Node10 -->
<g id="edge131" class="edge">
<title>Node47&#45;&gt;Node10</title>
<path fill="none" stroke="#191970" d="M1025.0516,-268.4639C998.4588,-256.969 962.1082,-241.2561 936.3609,-230.1266"/>
<polygon fill="#191970" stroke="#191970" points="937.6226,-226.859 927.0547,-226.1039 934.8451,-233.2844 937.6226,-226.859"/>
</g>
<!-- Node48&#45;&gt;Node2 -->
<g id="edge139" class="edge">
<title>Node48&#45;&gt;Node2</title>
<path fill="none" stroke="#191970" d="M1675.5189,-273.905C1739.3412,-264.2145 1829.1604,-248.3744 1860.8366,-232 1878.7126,-222.7594 1878.5871,-214.1297 1893.8366,-201 1930.2895,-169.6143 2018.6819,-83.581 2063.8366,-67 2270.6985,8.9605 2841.3187,-85.5154 3054.8366,-31 3056.7606,-30.5088 3058.7036,-29.8866 3060.6289,-29.1755"/>
<polygon fill="#191970" stroke="#191970" points="3062.1979,-32.3089 3069.9361,-25.0721 3059.374,-25.9037 3062.1979,-32.3089"/>
</g>
<!-- Node48&#45;&gt;Node3 -->
<g id="edge141" class="edge">
<title>Node48&#45;&gt;Node3</title>
<path fill="none" stroke="#191970" d="M1636.2935,-268.3854C1664.6239,-251.9096 1700.3535,-224.7239 1679.8366,-201 1607.2689,-117.0888 1513.5415,-241.1176 1432.8366,-165 1417.5404,-150.5732 1414.0637,-126.3276 1413.9549,-107.8435"/>
<polygon fill="#191970" stroke="#191970" points="1417.4563,-107.8311 1414.2161,-97.7439 1410.4586,-107.65 1417.4563,-107.8311"/>
</g>
<!-- Node48&#45;&gt;Node5 -->
<g id="edge149" class="edge">
<title>Node48&#45;&gt;Node5</title>
<path fill="none" stroke="#191970" d="M1612.7337,-298.5446C1613.6959,-306.6241 1613.844,-316.681 1613.178,-325.3693"/>
<polygon fill="#191970" stroke="#191970" points="1609.6933,-325.028 1611.8991,-335.3906 1616.637,-325.9142 1609.6933,-325.028"/>
</g>
<!-- Node48&#45;&gt;Node8 -->
<g id="edge134" class="edge">
<title>Node48&#45;&gt;Node8</title>
<path fill="none" stroke="#191970" d="M1538.2141,-274.0703C1458.58,-262.8494 1332.2576,-244.1138 1285.8366,-232 1214.6883,-213.4335 1134.5408,-181.1825 1091.729,-162.9905"/>
<polygon fill="#191970" stroke="#191970" points="1092.9967,-159.726 1082.4261,-159.0083 1090.242,-166.1612 1092.9967,-159.726"/>
</g>
<!-- Node48&#45;&gt;Node9 -->
<g id="edge135" class="edge">
<title>Node48&#45;&gt;Node9</title>
<path fill="none" stroke="#191970" d="M1675.5836,-273.3908C1765.9873,-260.026 1916.3904,-237.5199 1941.8366,-232 1991.4754,-221.2321 2002.4994,-213.0742 2051.8366,-201 2249.5517,-152.6138 2488.9802,-106.9032 2581.6155,-89.696"/>
<polygon fill="#191970" stroke="#191970" points="2582.4659,-93.0981 2591.661,-87.835 2581.1908,-86.2152 2582.4659,-93.0981"/>
</g>
<!-- Node48&#45;&gt;Node10 -->
<g id="edge136" class="edge">
<title>Node48&#45;&gt;Node10</title>
<path fill="none" stroke="#191970" d="M1538.265,-273.9446C1522.074,-271.8404 1504.8603,-269.7269 1488.8366,-268 1299.4821,-247.5926 1251.4952,-249.3562 1061.8366,-232 1021.5254,-228.311 975.4316,-223.7154 943.6676,-220.4895"/>
<polygon fill="#191970" stroke="#191970" points="943.777,-216.9826 933.4738,-219.4513 943.0677,-223.9466 943.777,-216.9826"/>
</g>
<!-- Node48&#45;&gt;Node11 -->
<g id="edge138" class="edge">
<title>Node48&#45;&gt;Node11</title>
<path fill="none" stroke="#191970" d="M1675.3587,-273.1258C1746.8662,-261.9569 1854.015,-244.1597 1893.8366,-232 1896.0432,-231.3262 2044.1098,-166.5299 2045.8366,-165 2065.6287,-147.4649 2079.7151,-119.9576 2087.5622,-101.5858"/>
<polygon fill="#191970" stroke="#191970" points="2090.8519,-102.7869 2091.3671,-92.2046 2084.3652,-100.1559 2090.8519,-102.7869"/>
</g>
<!-- Node48&#45;&gt;Node12 -->
<g id="edge140" class="edge">
<title>Node48&#45;&gt;Node12</title>
<path fill="none" stroke="#191970" d="M1573.8508,-268.3177C1554.1632,-258.7769 1528.9639,-245.7107 1507.8366,-232 1489.2629,-219.9464 1488.7821,-210.6151 1468.8366,-201 1404.7402,-170.1009 1381.4787,-183.745 1312.8366,-165 1309.4637,-164.0789 1305.9752,-163.0766 1302.4855,-162.0395"/>
<polygon fill="#191970" stroke="#191970" points="1303.3292,-158.6377 1292.7429,-159.0634 1301.2841,-165.3323 1303.3292,-158.6377"/>
</g>
<!-- Node48&#45;&gt;Node13 -->
<g id="edge145" class="edge">
<title>Node48&#45;&gt;Node13</title>
<path fill="none" stroke="#191970" d="M1623.6271,-268.4636C1641.3142,-250.8272 1664.3591,-221.4112 1646.8366,-201 1578.0106,-120.8275 1505.74,-213.4438 1411.8366,-165 1374.9656,-145.9786 1362.4227,-136.4494 1346.8366,-98 1341.6607,-85.2314 1338.2984,-77.8133 1346.8366,-67 1364.801,-44.2489 1436.2022,-30.4554 1492.0566,-22.9467"/>
<polygon fill="#191970" stroke="#191970" points="1492.823,-26.3766 1502.2885,-21.617 1491.9208,-19.4349 1492.823,-26.3766"/>
</g>
<!-- Node48&#45;&gt;Node14 -->
<g id="edge146" class="edge">
<title>Node48&#45;&gt;Node14</title>
<path fill="none" stroke="#191970" d="M1648.3542,-268.4639C1675.6321,-258.5849 1711.5122,-245.5905 1740.5681,-235.0675"/>
<polygon fill="#191970" stroke="#191970" points="1741.9274,-238.2978 1750.1379,-231.6017 1739.5437,-231.7161 1741.9274,-238.2978"/>
</g>
<!-- Node48&#45;&gt;Node17 -->
<g id="edge147" class="edge">
<title>Node48&#45;&gt;Node17</title>
<path fill="none" stroke="#191970" d="M1538.2981,-273.6154C1522.1057,-271.5248 1504.8831,-269.4999 1488.8366,-268 1405.388,-260.1997 843.0677,-230.7795 639.8913,-220.2647"/>
<polygon fill="#191970" stroke="#191970" points="639.791,-216.7549 629.6235,-219.7336 639.4293,-223.7456 639.791,-216.7549"/>
</g>
<!-- Node48&#45;&gt;Node22 -->
<g id="edge137" class="edge">
<title>Node48&#45;&gt;Node22</title>
<path fill="none" stroke="#191970" d="M1538.2183,-274.3456C1522.0292,-272.2248 1504.8281,-270.0033 1488.8366,-268 1354.7125,-251.1975 1320.996,-248.5184 1186.8366,-232 1078.3398,-218.6413 1051.6177,-211.8026 942.8366,-201 720.2474,-178.8956 660.6585,-206.3873 440.8366,-165 432.8879,-163.5034 424.4228,-161.174 416.761,-158.7718"/>
<polygon fill="#191970" stroke="#191970" points="417.8559,-155.4475 407.2627,-155.6357 415.6612,-162.0946 417.8559,-155.4475"/>
</g>
<!-- Node48&#45;&gt;Node29 -->
<g id="edge148" class="edge">
<title>Node48&#45;&gt;Node29</title>
<path fill="none" stroke="#191970" d="M1675.6028,-272.9758C1688.6155,-271.1702 1702.1299,-269.421 1714.8366,-268 1913.3522,-245.8005 1964.2038,-253.1239 2162.8366,-232 2175.6634,-230.6359 2189.2569,-229.0054 2202.4644,-227.322"/>
<polygon fill="#191970" stroke="#191970" points="2203.0015,-230.7818 2212.4699,-226.0279 2202.1035,-223.8396 2203.0015,-230.7818"/>
</g>
<!-- Node49 -->
<g id="node50" class="node">
<title>Node49</title>
<g id="a_node50"><a xlink:href="drake__bool_8h.html" target="_top" xlink:title=" ">
<polygon fill="#ffffff" stroke="#000000" points="1516.3366,-201.5 1516.3366,-231.5 1637.3366,-231.5 1637.3366,-201.5 1516.3366,-201.5"/>
<text text-anchor="start" x="1524.3366" y="-219.5" font-family="Helvetica,sans-Serif" font-size="10.00" fill="#000000">drake/common/drake</text>
<text text-anchor="middle" x="1576.8366" y="-208.5" font-family="Helvetica,sans-Serif" font-size="10.00" fill="#000000">_bool.h</text>
</a>
</g>
</g>
<!-- Node48&#45;&gt;Node49 -->
<g id="edge142" class="edge">
<title>Node48&#45;&gt;Node49</title>
<path fill="none" stroke="#191970" d="M1600.0292,-268.2967C1596.4236,-260.2443 1591.9071,-250.1574 1587.82,-241.0296"/>
<polygon fill="#191970" stroke="#191970" points="1590.8983,-239.3397 1583.6172,-231.6432 1584.5095,-242.2004 1590.8983,-239.3397"/>
</g>
<!-- Node49&#45;&gt;Node4 -->
<g id="edge143" class="edge">
<title>Node49&#45;&gt;Node4</title>
<path fill="none" stroke="#191970" d="M1516.0637,-202.1891C1465.2028,-189.8297 1399.2939,-172.7716 1388.8366,-165 1350.8027,-136.7343 1315.4911,-102.5385 1346.8366,-67 1389.2091,-18.9596 1569.3951,-39.8592 1632.8366,-31 1651.3423,-28.4158 1671.7175,-25.3342 1689.2912,-22.602"/>
<polygon fill="#191970" stroke="#191970" points="1689.9401,-26.0431 1699.2792,-21.0401 1688.8585,-19.1272 1689.9401,-26.0431"/>
</g>
<!-- Node49&#45;&gt;Node12 -->
<g id="edge144" class="edge">
<title>Node49&#45;&gt;Node12</title>
<path fill="none" stroke="#191970" d="M1516.2709,-203.8987C1511.3891,-202.9088 1506.5315,-201.9322 1501.8366,-201 1417.9638,-184.3463 1395.7455,-185.9313 1312.8366,-165 1309.2059,-164.0834 1305.4487,-163.0507 1301.704,-161.9647"/>
<polygon fill="#191970" stroke="#191970" points="1302.5014,-158.5494 1291.9166,-159.0084 1300.4774,-165.2504 1302.5014,-158.5494"/>
</g>
<!-- Node50&#45;&gt;Node2 -->
<g id="edge151" class="edge">
<title>Node50&#45;&gt;Node2</title>
<path fill="none" stroke="#191970" d="M3734.0463,-268.2137C3746.9776,-227.1189 3775.1982,-114.1922 3712.8366,-67 3665.2289,-30.9728 3241.5516,-18.9186 3118.9401,-16.1682"/>
<polygon fill="#191970" stroke="#191970" points="3118.7539,-12.6634 3108.6798,-15.9442 3118.601,-19.6617 3118.7539,-12.6634"/>
</g>
<!-- Node50&#45;&gt;Node3 -->
<g id="edge152" class="edge">
<title>Node50&#45;&gt;Node3</title>
<path fill="none" stroke="#191970" d="M3724.8252,-268.1056C3715.6216,-236.3223 3689.6805,-163.9209 3637.8366,-134 3562.0807,-90.2786 2151.28,-100.0458 2063.8366,-98 1853.9512,-93.0896 1605.8311,-87.1043 1486.6723,-84.2186"/>
<polygon fill="#191970" stroke="#191970" points="1486.668,-80.7176 1476.5861,-83.9743 1486.4984,-87.7156 1486.668,-80.7176"/>
</g>
<!-- Node50&#45;&gt;Node5 -->
<g id="edge153" class="edge">
<title>Node50&#45;&gt;Node5</title>
<path fill="none" stroke="#191970" d="M3660.0713,-285.5696C3344.3521,-294.877 2034.8542,-332.8304 1690.2252,-342.6642"/>
<polygon fill="#191970" stroke="#191970" points="1689.9656,-339.1701 1680.0695,-342.9538 1690.1652,-346.1672 1689.9656,-339.1701"/>
</g>
<!-- Node51&#45;&gt;Node2 -->
<g id="edge156" class="edge">
<title>Node51&#45;&gt;Node2</title>
<path fill="none" stroke="#191970" d="M3000.4511,-281.3399C3182.329,-275.2825 3664.5432,-256.9342 3687.8366,-232 3737.898,-178.4123 3737.432,-121.0193 3687.8366,-67 3649.1014,-24.8096 3238.2787,-17.1236 3118.4611,-15.7761"/>
<polygon fill="#191970" stroke="#191970" points="3118.4622,-12.276 3108.4259,-15.6706 3118.3885,-19.2756 3118.4622,-12.276"/>
</g>
<!-- Node51&#45;&gt;Node5 -->
<g id="edge157" class="edge">
<title>Node51&#45;&gt;Node5</title>
<path fill="none" stroke="#191970" d="M2867.5188,-298.5412C2866.2836,-298.7026 2865.0554,-298.8558 2863.8366,-299 2636.1837,-325.9291 1933.0913,-339.7566 1690.2694,-343.7528"/>
<polygon fill="#191970" stroke="#191970" points="1690.0352,-340.256 1680.0937,-343.9189 1690.1496,-347.2551 1690.0352,-340.256"/>
</g>
<!-- Node51&#45;&gt;Node8 -->
<g id="edge155" class="edge">
<title>Node51&#45;&gt;Node8</title>
<path fill="none" stroke="#191970" d="M2906.4706,-268.3501C2871.6677,-248.4946 2806.5038,-214.6007 2745.8366,-201 2580.4501,-163.9228 1390.0224,-175.1783 1220.8366,-165 1180.9945,-162.6031 1135.7309,-158.0465 1103.539,-154.4915"/>
<polygon fill="#191970" stroke="#191970" points="1103.897,-151.0098 1093.5699,-153.3765 1103.1189,-157.9664 1103.897,-151.0098"/>
</g>
<!-- Node52&#45;&gt;Node5 -->
<g id="edge166" class="edge">
<title>Node52&#45;&gt;Node5</title>
<path fill="none" stroke="#191970" d="M2309.1235,-289.3124C2167.4745,-300.8834 1843.6928,-326.7142 1690.2993,-338.6853"/>
<polygon fill="#191970" stroke="#191970" points="1689.6976,-335.2215 1679.9999,-339.4882 1690.2417,-342.2003 1689.6976,-335.2215"/>
</g>
<!-- Node52&#45;&gt;Node11 -->
<g id="edge160" class="edge">
<title>Node52&#45;&gt;Node11</title>
<path fill="none" stroke="#191970" d="M2426.4655,-268.31C2443.5844,-260.3591 2460.9976,-248.6954 2470.8366,-232 2477.8319,-220.1301 2478.9843,-212.1105 2470.8366,-201 2449.7613,-172.2606 2214.0849,-111.8446 2126.9599,-90.3208"/>
<polygon fill="#191970" stroke="#191970" points="2127.6424,-86.8844 2117.0957,-87.8935 2125.9697,-93.6816 2127.6424,-86.8844"/>
</g>
<!-- Node52&#45;&gt;Node12 -->
<g id="edge163" class="edge">
<title>Node52&#45;&gt;Node12</title>
<path fill="none" stroke="#191970" d="M2308.985,-270.2564C2275.1681,-262.0854 2234.5514,-249.712 2200.8366,-232 2181.5413,-221.8633 2183.1639,-208.8652 2162.8366,-201 2024.8143,-147.595 1645.5635,-173.891 1497.8366,-165 1432.0943,-161.0433 1356.002,-155.898 1308.8904,-152.6461"/>
<polygon fill="#191970" stroke="#191970" points="1308.9333,-149.1408 1298.7156,-151.9421 1308.4501,-156.1241 1308.9333,-149.1408"/>
</g>
<!-- Node52&#45;&gt;Node13 -->
<g id="edge165" class="edge">
<title>Node52&#45;&gt;Node13</title>
<path fill="none" stroke="#191970" d="M2377.5695,-268.193C2376.5702,-250.5642 2372.7289,-221.4137 2358.8366,-201 2299.6741,-114.0645 2263.0082,-101.971 2163.8366,-67 2064.4215,-31.9432 1795.7435,-41.3388 1690.8366,-31 1672.3227,-29.1754 1652.3391,-26.9019 1633.7914,-24.6632"/>
<polygon fill="#191970" stroke="#191970" points="1634.0037,-21.1632 1623.6533,-23.4262 1633.1558,-28.1117 1634.0037,-21.1632"/>
</g>
<!-- Node52&#45;&gt;Node23 -->
<g id="edge162" class="edge">
<title>Node52&#45;&gt;Node23</title>
<path fill="none" stroke="#191970" d="M2410.4141,-268.4762C2432.1525,-258.3609 2461.3204,-244.6147 2486.8366,-232 2513.7437,-218.6978 2519.1186,-212.5174 2546.8366,-201 2667.154,-151.0058 2816.578,-108.8434 2882.2356,-91.2691"/>
<polygon fill="#191970" stroke="#191970" points="2883.2724,-94.6152 2892.0367,-88.6623 2881.473,-87.8503 2883.2724,-94.6152"/>
</g>
<!-- Node52&#45;&gt;Node28 -->
<g id="edge161" class="edge">
<title>Node52&#45;&gt;Node28</title>
<path fill="none" stroke="#191970" d="M2315.7784,-268.4248C2273.9538,-258.2294 2217.5509,-244.4119 2167.8366,-232 2163.4238,-230.8983 2158.8333,-229.745 2154.2395,-228.5862"/>
<polygon fill="#191970" stroke="#191970" points="2154.7985,-225.1174 2144.2455,-226.058 2153.0818,-231.9036 2154.7985,-225.1174"/>
</g>
<!-- Node52&#45;&gt;Node34 -->
<g id="edge164" class="edge">
<title>Node52&#45;&gt;Node34</title>
<path fill="none" stroke="#191970" d="M2426.7601,-268.4639C2465.4296,-256.5792 2518.7695,-240.1858 2555.13,-229.0108"/>
<polygon fill="#191970" stroke="#191970" points="2556.3785,-232.2887 2564.909,-226.0053 2554.322,-225.5976 2556.3785,-232.2887"/>
</g>
<!-- Node53 -->
<g id="node54" class="node">
<title>Node53</title>
<g id="a_node54"><a xlink:title=" ">
<polygon fill="#ffffff" stroke="#bfbfbf" points="2405.8366,-207 2405.8366,-226 2461.8366,-226 2461.8366,-207 2405.8366,-207"/>
<text text-anchor="middle" x="2433.8366" y="-214" font-family="Helvetica,sans-Serif" font-size="10.00" fill="#000000">sstream</text>
</a>
</g>
</g>
<!-- Node52&#45;&gt;Node53 -->
<g id="edge159" class="edge">
<title>Node52&#45;&gt;Node53</title>
<path fill="none" stroke="#191970" d="M2390.5439,-268.2967C2399.0995,-258.0605 2410.4031,-244.5366 2419.3146,-233.8746"/>
<polygon fill="#191970" stroke="#191970" points="2422.1227,-235.9724 2425.8504,-226.055 2416.7518,-231.4832 2422.1227,-235.9724"/>
</g>
</g>
</svg>
