<?xml version="1.0" encoding="UTF-8" standalone="no"?>
<!DOCTYPE svg PUBLIC "-//W3C//DTD SVG 1.1//EN"
 "http://www.w3.org/Graphics/SVG/1.1/DTD/svg11.dtd">
<!-- Generated by graphviz version 2.40.1 (20161225.0304)
 -->
<!-- Title: drake/geometry/proximity/tessellation_strategy.h Pages: 1 -->
<svg width="336pt" height="173pt"
 viewBox="0.00 0.00 336.00 173.00" xmlns="http://www.w3.org/2000/svg" xmlns:xlink="http://www.w3.org/1999/xlink">
<g id="graph0" class="graph" transform="scale(1 1) rotate(0) translate(4 169)">
<title>drake/geometry/proximity/tessellation_strategy.h</title>
<polygon fill="#ffffff" stroke="transparent" points="-4,4 -4,-169 332,-169 332,4 -4,4"/>
<!-- Node1 -->
<g id="node1" class="node">
<title>Node1</title>
<g id="a_node1"><a xlink:title=" ">
<polygon fill="#bfbfbf" stroke="#000000" points="50,-134.5 50,-164.5 195,-164.5 195,-134.5 50,-134.5"/>
<text text-anchor="start" x="58" y="-152.5" font-family="Helvetica,sans-Serif" font-size="10.00" fill="#000000">drake/geometry/proximity</text>
<text text-anchor="middle" x="122.5" y="-141.5" font-family="Helvetica,sans-Serif" font-size="10.00" fill="#000000">/tessellation_strategy.h</text>
</a>
</g>
</g>
<!-- Node2 -->
<g id="node2" class="node">
<title>Node2</title>
<g id="a_node2"><a xlink:href="make__ellipsoid__mesh_8h.html" target="_top" xlink:title=" ">
<polygon fill="#ffffff" stroke="#000000" points="0,-.5 0,-30.5 145,-30.5 145,-.5 0,-.5"/>
<text text-anchor="start" x="8" y="-18.5" font-family="Helvetica,sans-Serif" font-size="10.00" fill="#000000">drake/geometry/proximity</text>
<text text-anchor="middle" x="72.5" y="-7.5" font-family="Helvetica,sans-Serif" font-size="10.00" fill="#000000">/make_ellipsoid_mesh.h</text>
</a>
</g>
</g>
<!-- Node1&#45;&gt;Node2 -->
<g id="edge1" class="edge">
<title>Node1&#45;&gt;Node2</title>
<path fill="none" stroke="#191970" d="M106.7131,-125.7181C101.6139,-117.2397 96.302,-107.446 92.5,-98 83.3653,-75.3046 77.6677,-47.3534 74.7907,-30.5053"/>
<polygon fill="#191970" stroke="#191970" points="103.8187,-127.6912 112.0813,-134.323 109.7578,-123.9861 103.8187,-127.6912"/>
</g>
<!-- Node3 -->
<g id="node3" class="node">
<title>Node3</title>
<g id="a_node3"><a xlink:href="make__sphere__mesh_8h.html" target="_top" xlink:title=" ">
<polygon fill="#ffffff" stroke="#000000" points="101,-67.5 101,-97.5 246,-97.5 246,-67.5 101,-67.5"/>
<text text-anchor="start" x="109" y="-85.5" font-family="Helvetica,sans-Serif" font-size="10.00" fill="#000000">drake/geometry/proximity</text>
<text text-anchor="middle" x="173.5" y="-74.5" font-family="Helvetica,sans-Serif" font-size="10.00" fill="#000000">/make_sphere_mesh.h</text>
</a>
</g>
</g>
<!-- Node1&#45;&gt;Node3 -->
<g id="edge2" class="edge">
<title>Node1&#45;&gt;Node3</title>
<path fill="none" stroke="#191970" d="M140.3404,-126.0626C147.5193,-116.6315 155.5909,-106.0276 161.9731,-97.6432"/>
<polygon fill="#191970" stroke="#191970" points="137.3446,-124.2197 134.0727,-134.2967 142.9146,-128.4595 137.3446,-124.2197"/>
</g>
<!-- Node3&#45;&gt;Node2 -->
<g id="edge3" class="edge">
<title>Node3&#45;&gt;Node2</title>
<path fill="none" stroke="#191970" d="M142.2881,-61.7951C127.1543,-51.7558 109.3008,-39.9124 95.4402,-30.7177"/>
<polygon fill="#191970" stroke="#191970" points="140.5656,-64.8525 150.8336,-67.4639 144.4352,-59.0193 140.5656,-64.8525"/>
</g>
<!-- Node4 -->
<g id="node4" class="node">
<title>Node4</title>
<g id="a_node4"><a xlink:href="hydroelastic__field__sphere_8h.html" target="_top" xlink:title=" ">
<polygon fill="#ffffff" stroke="#000000" points="163,-.5 163,-30.5 328,-30.5 328,-.5 163,-.5"/>
<text text-anchor="start" x="171" y="-18.5" font-family="Helvetica,sans-Serif" font-size="10.00" fill="#000000">drake/multibody/hydroelastics</text>
<text text-anchor="middle" x="245.5" y="-7.5" font-family="Helvetica,sans-Serif" font-size="10.00" fill="#000000">/hydroelastic_field_sphere.h</text>
</a>
</g>
</g>
<!-- Node3&#45;&gt;Node4 -->
<g id="edge4" class="edge">
<title>Node3&#45;&gt;Node4</title>
<path fill="none" stroke="#191970" d="M197.452,-60.2113C207.8871,-50.5009 219.8488,-39.3698 229.2267,-30.6432"/>
<polygon fill="#191970" stroke="#191970" points="194.7743,-57.9221 189.8379,-67.2967 199.5429,-63.0466 194.7743,-57.9221"/>
</g>
</g>
</svg>
