<?xml version="1.0" encoding="UTF-8" standalone="no"?>
<!DOCTYPE svg PUBLIC "-//W3C//DTD SVG 1.1//EN"
 "http://www.w3.org/Graphics/SVG/1.1/DTD/svg11.dtd">
<!-- Generated by graphviz version 2.40.1 (20161225.0304)
 -->
<!-- Title: drake/common/text_logging.h Pages: 1 -->
<svg width="201pt" height="95pt"
 viewBox="0.00 0.00 201.00 95.00" xmlns="http://www.w3.org/2000/svg" xmlns:xlink="http://www.w3.org/1999/xlink">
<g id="graph0" class="graph" transform="scale(1 1) rotate(0) translate(4 91)">
<title>drake/common/text_logging.h</title>
<polygon fill="#ffffff" stroke="transparent" points="-4,4 -4,-91 197,-91 197,4 -4,4"/>
<!-- Node0 -->
<g id="node1" class="node">
<title>Node0</title>
<g id="a_node1"><a xlink:title="This is the entry point for all text logging within Drake.">
<polygon fill="#bfbfbf" stroke="#000000" points="0,-67.5 0,-86.5 163,-86.5 163,-67.5 0,-67.5"/>
<text text-anchor="middle" x="81.5" y="-74.5" font-family="Helvetica,sans-Serif" font-size="10.00" fill="#000000">drake/common/text_logging.h</text>
</a>
</g>
</g>
<!-- Node1 -->
<g id="node2" class="node">
<title>Node1</title>
<g id="a_node2"><a xlink:title=" ">
<polygon fill="#ffffff" stroke="#bfbfbf" points="9.5,-6 9.5,-25 53.5,-25 53.5,-6 9.5,-6"/>
<text text-anchor="middle" x="31.5" y="-13" font-family="Helvetica,sans-Serif" font-size="10.00" fill="#000000">string</text>
</a>
</g>
</g>
<!-- Node0&#45;&gt;Node1 -->
<g id="edge1" class="edge">
<title>Node0&#45;&gt;Node1</title>
<path fill="none" stroke="#191970" d="M73.6875,-67.3906C66.246,-58.2376 54.8666,-44.2409 45.8008,-33.09"/>
<polygon fill="#191970" stroke="#191970" points="48.4467,-30.7962 39.4226,-25.2449 43.0153,-35.212 48.4467,-30.7962"/>
</g>
<!-- Node2 -->
<g id="node3" class="node">
<title>Node2</title>
<g id="a_node3"><a xlink:href="drake__copyable_8h.html" target="_top" xlink:title="Provides careful macros to selectively enable or disable the special member functions for copy&#45;constr...">
<polygon fill="#ffffff" stroke="#000000" points="72,-.5 72,-30.5 193,-30.5 193,-.5 72,-.5"/>
<text text-anchor="start" x="80" y="-18.5" font-family="Helvetica,sans-Serif" font-size="10.00" fill="#000000">drake/common/drake</text>
<text text-anchor="middle" x="132.5" y="-7.5" font-family="Helvetica,sans-Serif" font-size="10.00" fill="#000000">_copyable.h</text>
</a>
</g>
</g>
<!-- Node0&#45;&gt;Node2 -->
<g id="edge2" class="edge">
<title>Node0&#45;&gt;Node2</title>
<path fill="none" stroke="#191970" d="M89.4688,-67.3906C95.9236,-59.6068 105.2832,-48.3202 113.6261,-38.2597"/>
<polygon fill="#191970" stroke="#191970" points="116.3348,-40.4764 120.024,-30.5446 110.9464,-36.008 116.3348,-40.4764"/>
</g>
</g>
</svg>
