<?xml version="1.0" encoding="UTF-8" standalone="no"?>
<!DOCTYPE svg PUBLIC "-//W3C//DTD SVG 1.1//EN"
 "http://www.w3.org/Graphics/SVG/1.1/DTD/svg11.dtd">
<!-- Generated by graphviz version 2.40.1 (20161225.0304)
 -->
<!-- Title: drake/multibody/triangle_quadrature/triangle_quadrature.h Pages: 1 -->
<svg width="644pt" height="296pt"
 viewBox="0.00 0.00 644.00 296.00" xmlns="http://www.w3.org/2000/svg" xmlns:xlink="http://www.w3.org/1999/xlink">
<g id="graph0" class="graph" transform="scale(1 1) rotate(0) translate(4 292)">
<title>drake/multibody/triangle_quadrature/triangle_quadrature.h</title>
<polygon fill="#ffffff" stroke="transparent" points="-4,4 -4,-292 640,-292 640,4 -4,4"/>
<!-- Node0 -->
<g id="node1" class="node">
<title>Node0</title>
<g id="a_node1"><a xlink:title=" ">
<polygon fill="#bfbfbf" stroke="#000000" points="68,-257.5 68,-287.5 251,-287.5 251,-257.5 68,-257.5"/>
<text text-anchor="start" x="76" y="-275.5" font-family="Helvetica,sans-Serif" font-size="10.00" fill="#000000">drake/multibody/triangle</text>
<text text-anchor="middle" x="159.5" y="-264.5" font-family="Helvetica,sans-Serif" font-size="10.00" fill="#000000">_quadrature/triangle_quadrature.h</text>
</a>
</g>
</g>
<!-- Node1 -->
<g id="node2" class="node">
<title>Node1</title>
<g id="a_node2"><a xlink:title=" ">
<polygon fill="#ffffff" stroke="#bfbfbf" points="0,-196 0,-215 65,-215 65,-196 0,-196"/>
<text text-anchor="middle" x="32.5" y="-203" font-family="Helvetica,sans-Serif" font-size="10.00" fill="#000000">functional</text>
</a>
</g>
</g>
<!-- Node0&#45;&gt;Node1 -->
<g id="edge1" class="edge">
<title>Node0&#45;&gt;Node1</title>
<path fill="none" stroke="#191970" d="M130.9987,-257.4639C109.6897,-246.2222 80.734,-230.9463 59.7361,-219.8686"/>
<polygon fill="#191970" stroke="#191970" points="61.1822,-216.6744 50.7044,-215.1039 57.916,-222.8657 61.1822,-216.6744"/>
</g>
<!-- Node2 -->
<g id="node3" class="node">
<title>Node2</title>
<g id="a_node3"><a xlink:title=" ">
<polygon fill="#ffffff" stroke="#bfbfbf" points="143,-129 143,-148 190,-148 190,-129 143,-129"/>
<text text-anchor="middle" x="166.5" y="-136" font-family="Helvetica,sans-Serif" font-size="10.00" fill="#000000">vector</text>
</a>
</g>
</g>
<!-- Node0&#45;&gt;Node2 -->
<g id="edge2" class="edge">
<title>Node0&#45;&gt;Node2</title>
<path fill="none" stroke="#191970" d="M139.7146,-257.1477C129.4853,-247.9184 118.0135,-235.2204 112.5,-221 107.5194,-208.154 107.0771,-202.6657 112.5,-190 118.6763,-175.5749 131.0968,-163.271 142.47,-154.3104"/>
<polygon fill="#191970" stroke="#191970" points="144.8755,-156.885 150.8422,-148.13 140.7182,-151.2532 144.8755,-156.885"/>
</g>
<!-- Node3 -->
<g id="node4" class="node">
<title>Node3</title>
<g id="a_node4"><a xlink:href="eigen__types_8h.html" target="_top" xlink:title="This file contains abbreviated definitions for certain specializations of Eigen::Matrix that are comm...">
<polygon fill="#ffffff" stroke="#000000" points="223.5,-123.5 223.5,-153.5 343.5,-153.5 343.5,-123.5 223.5,-123.5"/>
<text text-anchor="start" x="231.5" y="-141.5" font-family="Helvetica,sans-Serif" font-size="10.00" fill="#000000">drake/common/eigen</text>
<text text-anchor="middle" x="283.5" y="-130.5" font-family="Helvetica,sans-Serif" font-size="10.00" fill="#000000">_types.h</text>
</a>
</g>
</g>
<!-- Node0&#45;&gt;Node3 -->
<g id="edge3" class="edge">
<title>Node0&#45;&gt;Node3</title>
<path fill="none" stroke="#191970" d="M247.4993,-257.463C286.77,-248.7852 326.8304,-236.5005 338.5,-221 353.5814,-200.9678 333.6933,-177.022 313.7482,-160.1018"/>
<polygon fill="#191970" stroke="#191970" points="315.8657,-157.3132 305.8841,-153.7607 311.4717,-162.7624 315.8657,-157.3132"/>
</g>
<!-- Node10 -->
<g id="node11" class="node">
<title>Node10</title>
<g id="a_node11"><a xlink:href="triangle__quadrature__rule_8h.html" target="_top" xlink:title=" ">
<polygon fill="#ffffff" stroke="#000000" points="122,-190.5 122,-220.5 329,-220.5 329,-190.5 122,-190.5"/>
<text text-anchor="start" x="130" y="-208.5" font-family="Helvetica,sans-Serif" font-size="10.00" fill="#000000">drake/multibody/triangle</text>
<text text-anchor="middle" x="225.5" y="-197.5" font-family="Helvetica,sans-Serif" font-size="10.00" fill="#000000">_quadrature/triangle_quadrature_rule.h</text>
</a>
</g>
</g>
<!-- Node0&#45;&gt;Node10 -->
<g id="edge10" class="edge">
<title>Node0&#45;&gt;Node10</title>
<path fill="none" stroke="#191970" d="M174.4764,-257.2967C182.9993,-248.6446 193.836,-237.6438 203.3283,-228.0076"/>
<polygon fill="#191970" stroke="#191970" points="206.0585,-230.2234 210.5828,-220.6432 201.0717,-225.311 206.0585,-230.2234"/>
</g>
<!-- Node4 -->
<g id="node5" class="node">
<title>Node4</title>
<g id="a_node5"><a xlink:title=" ">
<polygon fill="#ffffff" stroke="#bfbfbf" points="51,-62 51,-81 96,-81 96,-62 51,-62"/>
<text text-anchor="middle" x="73.5" y="-69" font-family="Helvetica,sans-Serif" font-size="10.00" fill="#000000">utility</text>
</a>
</g>
</g>
<!-- Node3&#45;&gt;Node4 -->
<g id="edge4" class="edge">
<title>Node3&#45;&gt;Node4</title>
<path fill="none" stroke="#191970" d="M223.3324,-124.1373C188.1616,-115.0164 143.2125,-102.0996 104.5,-87 103.1336,-86.467 101.7463,-85.895 100.3546,-85.2963"/>
<polygon fill="#191970" stroke="#191970" points="101.8226,-82.1191 91.2782,-81.0864 98.8772,-88.4693 101.8226,-82.1191"/>
</g>
<!-- Node5 -->
<g id="node6" class="node">
<title>Node5</title>
<g id="a_node6"><a xlink:title=" ">
<polygon fill="#ffffff" stroke="#bfbfbf" points="114,-62 114,-81 191,-81 191,-62 114,-62"/>
<text text-anchor="middle" x="152.5" y="-69" font-family="Helvetica,sans-Serif" font-size="10.00" fill="#000000">Eigen/Dense</text>
</a>
</g>
</g>
<!-- Node3&#45;&gt;Node5 -->
<g id="edge5" class="edge">
<title>Node3&#45;&gt;Node5</title>
<path fill="none" stroke="#191970" d="M254.101,-123.4639C232.0219,-112.1715 201.9839,-96.8086 180.3017,-85.7192"/>
<polygon fill="#191970" stroke="#191970" points="181.7747,-82.5414 171.2778,-81.1039 178.5872,-88.7736 181.7747,-82.5414"/>
</g>
<!-- Node6 -->
<g id="node7" class="node">
<title>Node6</title>
<g id="a_node7"><a xlink:href="constants_8h.html" target="_top" xlink:title=" ">
<polygon fill="#ffffff" stroke="#000000" points="209,-62 209,-81 358,-81 358,-62 209,-62"/>
<text text-anchor="middle" x="283.5" y="-69" font-family="Helvetica,sans-Serif" font-size="10.00" fill="#000000">drake/common/constants.h</text>
</a>
</g>
</g>
<!-- Node3&#45;&gt;Node6 -->
<g id="edge6" class="edge">
<title>Node3&#45;&gt;Node6</title>
<path fill="none" stroke="#191970" d="M283.5,-123.2967C283.5,-113.7699 283.5,-101.3954 283.5,-91.1306"/>
<polygon fill="#191970" stroke="#191970" points="287.0001,-91.0549 283.5,-81.055 280.0001,-91.055 287.0001,-91.0549"/>
</g>
<!-- Node7 -->
<g id="node8" class="node">
<title>Node7</title>
<g id="a_node8"><a xlink:href="drake__assert_8h.html" target="_top" xlink:title="Provides Drake&#39;s assertion implementation.">
<polygon fill="#ffffff" stroke="#000000" points="376,-56.5 376,-86.5 497,-86.5 497,-56.5 376,-56.5"/>
<text text-anchor="start" x="384" y="-74.5" font-family="Helvetica,sans-Serif" font-size="10.00" fill="#000000">drake/common/drake</text>
<text text-anchor="middle" x="436.5" y="-63.5" font-family="Helvetica,sans-Serif" font-size="10.00" fill="#000000">_assert.h</text>
</a>
</g>
</g>
<!-- Node3&#45;&gt;Node7 -->
<g id="edge7" class="edge">
<title>Node3&#45;&gt;Node7</title>
<path fill="none" stroke="#191970" d="M317.8362,-123.4639C340.0034,-113.7567 369.0396,-101.0415 392.8408,-90.6188"/>
<polygon fill="#191970" stroke="#191970" points="394.2578,-93.8191 402.0141,-86.6017 391.4499,-87.407 394.2578,-93.8191"/>
</g>
<!-- Node9 -->
<g id="node10" class="node">
<title>Node9</title>
<g id="a_node10"><a xlink:href="drake__copyable_8h.html" target="_top" xlink:title="Provides careful macros to selectively enable or disable the special member functions for copy&#45;constr...">
<polygon fill="#ffffff" stroke="#000000" points="515,-56.5 515,-86.5 636,-86.5 636,-56.5 515,-56.5"/>
<text text-anchor="start" x="523" y="-74.5" font-family="Helvetica,sans-Serif" font-size="10.00" fill="#000000">drake/common/drake</text>
<text text-anchor="middle" x="575.5" y="-63.5" font-family="Helvetica,sans-Serif" font-size="10.00" fill="#000000">_copyable.h</text>
</a>
</g>
</g>
<!-- Node3&#45;&gt;Node9 -->
<g id="edge9" class="edge">
<title>Node3&#45;&gt;Node9</title>
<path fill="none" stroke="#191970" d="M343.6485,-124.6988C390.5058,-113.9473 455.661,-98.9973 504.9731,-87.6825"/>
<polygon fill="#191970" stroke="#191970" points="505.9642,-91.0462 514.9282,-85.3983 504.3987,-84.2235 505.9642,-91.0462"/>
</g>
<!-- Node8 -->
<g id="node9" class="node">
<title>Node8</title>
<g id="a_node9"><a xlink:title=" ">
<polygon fill="#ffffff" stroke="#bfbfbf" points="402,-.5 402,-19.5 471,-19.5 471,-.5 402,-.5"/>
<text text-anchor="middle" x="436.5" y="-7.5" font-family="Helvetica,sans-Serif" font-size="10.00" fill="#000000">type_traits</text>
</a>
</g>
</g>
<!-- Node7&#45;&gt;Node8 -->
<g id="edge8" class="edge">
<title>Node7&#45;&gt;Node8</title>
<path fill="none" stroke="#191970" d="M436.5,-56.2977C436.5,-48.3834 436.5,-38.6043 436.5,-30.0759"/>
<polygon fill="#191970" stroke="#191970" points="440.0001,-29.8469 436.5,-19.8469 433.0001,-29.847 440.0001,-29.8469"/>
</g>
<!-- Node10&#45;&gt;Node2 -->
<g id="edge11" class="edge">
<title>Node10&#45;&gt;Node2</title>
<path fill="none" stroke="#191970" d="M212.112,-190.2967C203.098,-180.0605 191.1889,-166.5366 181.8,-155.8746"/>
<polygon fill="#191970" stroke="#191970" points="184.1496,-153.2468 174.9141,-148.055 178.8962,-157.873 184.1496,-153.2468"/>
</g>
<!-- Node10&#45;&gt;Node3 -->
<g id="edge12" class="edge">
<title>Node10&#45;&gt;Node3</title>
<path fill="none" stroke="#191970" d="M238.6611,-190.2967C246.0768,-181.7303 255.4857,-170.8614 263.7677,-161.2943"/>
<polygon fill="#191970" stroke="#191970" points="266.4922,-163.4946 270.391,-153.6432 261.1997,-158.913 266.4922,-163.4946"/>
</g>
</g>
</svg>
