<?xml version="1.0" encoding="UTF-8" standalone="no"?>
<!DOCTYPE svg PUBLIC "-//W3C//DTD SVG 1.1//EN"
 "http://www.w3.org/Graphics/SVG/1.1/DTD/svg11.dtd">
<!-- Generated by graphviz version 2.40.1 (20161225.0304)
 -->
<!-- Title: drake/bindings/pydrake/common/type_safe_index_pybind.h Pages: 1 -->
<svg width="1393pt" height="374pt"
 viewBox="0.00 0.00 1393.00 374.00" xmlns="http://www.w3.org/2000/svg" xmlns:xlink="http://www.w3.org/1999/xlink">
<g id="graph0" class="graph" transform="scale(1 1) rotate(0) translate(4 370)">
<title>drake/bindings/pydrake/common/type_safe_index_pybind.h</title>
<polygon fill="#ffffff" stroke="transparent" points="-4,4 -4,-370 1389,-370 1389,4 -4,4"/>
<!-- Node0 -->
<g id="node1" class="node">
<title>Node0</title>
<g id="a_node1"><a xlink:title=" ">
<polygon fill="#bfbfbf" stroke="#000000" points="721.5,-324.5 721.5,-365.5 867.5,-365.5 867.5,-324.5 721.5,-324.5"/>
<text text-anchor="start" x="729.5" y="-353.5" font-family="Helvetica,sans-Serif" font-size="10.00" fill="#000000">drake/bindings/pydrake</text>
<text text-anchor="start" x="729.5" y="-342.5" font-family="Helvetica,sans-Serif" font-size="10.00" fill="#000000">/common/type_safe_index</text>
<text text-anchor="middle" x="794.5" y="-331.5" font-family="Helvetica,sans-Serif" font-size="10.00" fill="#000000">_pybind.h</text>
</a>
</g>
</g>
<!-- Node1 -->
<g id="node2" class="node">
<title>Node1</title>
<g id="a_node2"><a xlink:title=" ">
<polygon fill="#ffffff" stroke="#bfbfbf" points="328.5,-129 328.5,-148 372.5,-148 372.5,-129 328.5,-129"/>
<text text-anchor="middle" x="350.5" y="-136" font-family="Helvetica,sans-Serif" font-size="10.00" fill="#000000">string</text>
</a>
</g>
</g>
<!-- Node0&#45;&gt;Node1 -->
<g id="edge1" class="edge">
<title>Node0&#45;&gt;Node1</title>
<path fill="none" stroke="#191970" d="M721.2797,-335.3209C663.7827,-326.4928 582.2292,-311.2392 513.5,-288 448.9124,-266.1612 419.7619,-272.8593 375.5,-221 360.2931,-203.1829 354.336,-176.314 352.0025,-158.1215"/>
<polygon fill="#191970" stroke="#191970" points="355.4738,-157.6626 350.9675,-148.0739 348.5106,-158.3799 355.4738,-157.6626"/>
</g>
<!-- Node2 -->
<g id="node3" class="node">
<title>Node2</title>
<g id="a_node3"><a xlink:title=" ">
<polygon fill="#ffffff" stroke="#bfbfbf" points="869.5,-263 869.5,-282 989.5,-282 989.5,-263 869.5,-263"/>
<text text-anchor="middle" x="929.5" y="-270" font-family="Helvetica,sans-Serif" font-size="10.00" fill="#000000">pybind11/operators.h</text>
</a>
</g>
</g>
<!-- Node0&#45;&gt;Node2 -->
<g id="edge2" class="edge">
<title>Node0&#45;&gt;Node2</title>
<path fill="none" stroke="#191970" d="M832.8245,-324.4183C855.1665,-312.4198 882.7892,-297.5854 902.7794,-286.85"/>
<polygon fill="#191970" stroke="#191970" points="904.4974,-289.9002 911.6514,-282.0853 901.1855,-283.7332 904.4974,-289.9002"/>
</g>
<!-- Node3 -->
<g id="node4" class="node">
<title>Node3</title>
<g id="a_node4"><a xlink:title=" ">
<polygon fill="#ffffff" stroke="#bfbfbf" points="1266,-196 1266,-215 1385,-215 1385,-196 1266,-196"/>
<text text-anchor="middle" x="1325.5" y="-203" font-family="Helvetica,sans-Serif" font-size="10.00" fill="#000000">pybind11/pybind11.h</text>
</a>
</g>
</g>
<!-- Node0&#45;&gt;Node3 -->
<g id="edge3" class="edge">
<title>Node0&#45;&gt;Node3</title>
<path fill="none" stroke="#191970" d="M803.7369,-324.2229C814.2367,-303.3222 833.4927,-272.0909 860.5,-257 936.6715,-214.4374 1165.2123,-233.9655 1251.5,-221 1258.9008,-219.888 1266.6757,-218.5024 1274.2908,-217.0204"/>
<polygon fill="#191970" stroke="#191970" points="1275.053,-220.4372 1284.1649,-215.0313 1273.6706,-213.5751 1275.053,-220.4372"/>
</g>
<!-- Node4 -->
<g id="node5" class="node">
<title>Node4</title>
<g id="a_node5"><a xlink:title=" ">
<polygon fill="#ffffff" stroke="#bfbfbf" points="1007.5,-257.5 1007.5,-287.5 1147.5,-287.5 1147.5,-257.5 1007.5,-257.5"/>
<text text-anchor="start" x="1015.5" y="-275.5" font-family="Helvetica,sans-Serif" font-size="10.00" fill="#000000">drake/bindings/pydrake</text>
<text text-anchor="middle" x="1077.5" y="-264.5" font-family="Helvetica,sans-Serif" font-size="10.00" fill="#000000">/documentation_pybind.h</text>
</a>
</g>
</g>
<!-- Node0&#45;&gt;Node4 -->
<g id="edge4" class="edge">
<title>Node0&#45;&gt;Node4</title>
<path fill="none" stroke="#191970" d="M867.7476,-326.2352C911.3537,-315.064 966.3316,-300.9795 1009.0609,-290.033"/>
<polygon fill="#191970" stroke="#191970" points="1009.9933,-293.4072 1018.8119,-287.5349 1008.2561,-286.6262 1009.9933,-293.4072"/>
</g>
<!-- Node5 -->
<g id="node6" class="node">
<title>Node5</title>
<g id="a_node6"><a xlink:href="pydrake__pybind_8h.html" target="_top" xlink:title=" ">
<polygon fill="#ffffff" stroke="#000000" points="682,-257.5 682,-287.5 813,-287.5 813,-257.5 682,-257.5"/>
<text text-anchor="start" x="690" y="-275.5" font-family="Helvetica,sans-Serif" font-size="10.00" fill="#000000">drake/bindings/pydrake</text>
<text text-anchor="middle" x="747.5" y="-264.5" font-family="Helvetica,sans-Serif" font-size="10.00" fill="#000000">/pydrake_pybind.h</text>
</a>
</g>
</g>
<!-- Node0&#45;&gt;Node5 -->
<g id="edge5" class="edge">
<title>Node0&#45;&gt;Node5</title>
<path fill="none" stroke="#191970" d="M781.1574,-324.4183C775.4582,-315.627 768.772,-305.3132 762.8672,-296.2047"/>
<polygon fill="#191970" stroke="#191970" points="765.665,-294.0862 757.2884,-287.5991 759.7913,-297.8941 765.665,-294.0862"/>
</g>
<!-- Node7 -->
<g id="node8" class="node">
<title>Node7</title>
<g id="a_node8"><a xlink:href="type__safe__index_8h.html" target="_top" xlink:title=" ">
<polygon fill="#ffffff" stroke="#000000" points="523,-257.5 523,-287.5 664,-287.5 664,-257.5 523,-257.5"/>
<text text-anchor="start" x="531" y="-275.5" font-family="Helvetica,sans-Serif" font-size="10.00" fill="#000000">drake/common/type_safe</text>
<text text-anchor="middle" x="593.5" y="-264.5" font-family="Helvetica,sans-Serif" font-size="10.00" fill="#000000">_index.h</text>
</a>
</g>
</g>
<!-- Node0&#45;&gt;Node7 -->
<g id="edge8" class="edge">
<title>Node0&#45;&gt;Node7</title>
<path fill="none" stroke="#191970" d="M737.4391,-324.4183C708.3689,-313.9328 673.2942,-301.2815 645.0467,-291.0927"/>
<polygon fill="#191970" stroke="#191970" points="645.9553,-287.6998 635.361,-287.5991 643.5802,-294.2845 645.9553,-287.6998"/>
</g>
<!-- Node5&#45;&gt;Node3 -->
<g id="edge7" class="edge">
<title>Node5&#45;&gt;Node3</title>
<path fill="none" stroke="#191970" d="M813.3282,-259.1687C818.1145,-258.3768 822.8758,-257.6424 827.5,-257 1014.8234,-230.9762 1064.3783,-248.4369 1251.5,-221 1258.995,-219.901 1266.8715,-218.5098 1274.5765,-217.014"/>
<polygon fill="#191970" stroke="#191970" points="1275.4482,-220.4088 1284.5603,-215.0031 1274.066,-213.5466 1275.4482,-220.4088"/>
</g>
<!-- Node6 -->
<g id="node7" class="node">
<title>Node6</title>
<g id="a_node7"><a xlink:title=" ">
<polygon fill="#ffffff" stroke="#bfbfbf" points="364,-62 364,-81 409,-81 409,-62 364,-62"/>
<text text-anchor="middle" x="386.5" y="-69" font-family="Helvetica,sans-Serif" font-size="10.00" fill="#000000">utility</text>
</a>
</g>
</g>
<!-- Node5&#45;&gt;Node6 -->
<g id="edge6" class="edge">
<title>Node5&#45;&gt;Node6</title>
<path fill="none" stroke="#191970" d="M688.6454,-257.4763C605.3264,-235.1927 458.7321,-191.9273 419.5,-154 401.9669,-137.05 393.5039,-109.5739 389.595,-91.0356"/>
<polygon fill="#191970" stroke="#191970" points="393.0103,-90.2562 387.7473,-81.061 386.1274,-91.5313 393.0103,-90.2562"/>
</g>
<!-- Node7&#45;&gt;Node1 -->
<g id="edge11" class="edge">
<title>Node7&#45;&gt;Node1</title>
<path fill="none" stroke="#191970" d="M522.6997,-264.6656C485.6966,-257.8102 441.2231,-244.9815 407.5,-221 384.5302,-204.6655 367.8158,-175.9945 358.6318,-157.1242"/>
<polygon fill="#191970" stroke="#191970" points="361.797,-155.63 354.4171,-148.0281 355.4456,-158.5729 361.797,-155.63"/>
</g>
<!-- Node8 -->
<g id="node9" class="node">
<title>Node8</title>
<g id="a_node9"><a xlink:title=" ">
<polygon fill="#ffffff" stroke="#bfbfbf" points="1144,-129 1144,-148 1209,-148 1209,-129 1144,-129"/>
<text text-anchor="middle" x="1176.5" y="-136" font-family="Helvetica,sans-Serif" font-size="10.00" fill="#000000">functional</text>
</a>
</g>
</g>
<!-- Node7&#45;&gt;Node8 -->
<g id="edge9" class="edge">
<title>Node7&#45;&gt;Node8</title>
<path fill="none" stroke="#191970" d="M664.0942,-257.5171C711.259,-247.4191 774.6565,-233.6767 830.5,-221 956.5478,-192.3867 987.854,-184.3291 1113.5,-154 1120.1208,-152.4018 1127.1289,-150.6939 1133.9718,-149.0171"/>
<polygon fill="#191970" stroke="#191970" points="1134.9387,-152.3838 1143.8151,-146.5993 1133.2688,-145.5858 1134.9387,-152.3838"/>
</g>
<!-- Node9 -->
<g id="node10" class="node">
<title>Node9</title>
<g id="a_node10"><a xlink:title=" ">
<polygon fill="#ffffff" stroke="#bfbfbf" points="416.5,-196 416.5,-215 460.5,-215 460.5,-196 416.5,-196"/>
<text text-anchor="middle" x="438.5" y="-203" font-family="Helvetica,sans-Serif" font-size="10.00" fill="#000000">limits</text>
</a>
</g>
</g>
<!-- Node7&#45;&gt;Node9 -->
<g id="edge10" class="edge">
<title>Node7&#45;&gt;Node9</title>
<path fill="none" stroke="#191970" d="M558.715,-257.4639C532.1222,-245.969 495.7716,-230.2561 470.0243,-219.1266"/>
<polygon fill="#191970" stroke="#191970" points="471.2859,-215.859 460.718,-215.1039 468.5084,-222.2844 471.2859,-215.859"/>
</g>
<!-- Node10 -->
<g id="node11" class="node">
<title>Node10</title>
<g id="a_node11"><a xlink:href="drake__assert_8h.html" target="_top" xlink:title="Provides Drake&#39;s assertion implementation.">
<polygon fill="#ffffff" stroke="#000000" points="908,-56.5 908,-86.5 1029,-86.5 1029,-56.5 908,-56.5"/>
<text text-anchor="start" x="916" y="-74.5" font-family="Helvetica,sans-Serif" font-size="10.00" fill="#000000">drake/common/drake</text>
<text text-anchor="middle" x="968.5" y="-63.5" font-family="Helvetica,sans-Serif" font-size="10.00" fill="#000000">_assert.h</text>
</a>
</g>
</g>
<!-- Node7&#45;&gt;Node10 -->
<g id="edge12" class="edge">
<title>Node7&#45;&gt;Node10</title>
<path fill="none" stroke="#191970" d="M664.1417,-258.6517C667.3024,-258.083 670.433,-257.5298 673.5,-257 794.9561,-236.0184 1141.1611,-249.9713 1218.5,-154 1227.1452,-143.2721 1227.2042,-133.6801 1218.5,-123 1196.2442,-95.6921 1105.201,-82.4395 1039.3988,-76.3169"/>
<polygon fill="#191970" stroke="#191970" points="1039.3408,-72.7979 1029.0691,-75.3944 1038.7181,-79.7701 1039.3408,-72.7979"/>
</g>
<!-- Node12 -->
<g id="node13" class="node">
<title>Node12</title>
<g id="a_node13"><a xlink:href="drake__throw_8h.html" target="_top" xlink:title="Provides a convenient wrapper to throw an exception when a condition is unmet.">
<polygon fill="#ffffff" stroke="#000000" points="533,-123.5 533,-153.5 654,-153.5 654,-123.5 533,-123.5"/>
<text text-anchor="start" x="541" y="-141.5" font-family="Helvetica,sans-Serif" font-size="10.00" fill="#000000">drake/common/drake</text>
<text text-anchor="middle" x="593.5" y="-130.5" font-family="Helvetica,sans-Serif" font-size="10.00" fill="#000000">_throw.h</text>
</a>
</g>
</g>
<!-- Node7&#45;&gt;Node12 -->
<g id="edge14" class="edge">
<title>Node7&#45;&gt;Node12</title>
<path fill="none" stroke="#191970" d="M593.5,-257.389C593.5,-234.6691 593.5,-191.438 593.5,-163.8405"/>
<polygon fill="#191970" stroke="#191970" points="597.0001,-163.7614 593.5,-153.7614 590.0001,-163.7614 597.0001,-163.7614"/>
</g>
<!-- Node13 -->
<g id="node14" class="node">
<title>Node13</title>
<g id="a_node14"><a xlink:href="hash_8h.html" target="_top" xlink:title=" ">
<polygon fill="#ffffff" stroke="#000000" points="696,-196 696,-215 821,-215 821,-196 696,-196"/>
<text text-anchor="middle" x="758.5" y="-203" font-family="Helvetica,sans-Serif" font-size="10.00" fill="#000000">drake/common/hash.h</text>
</a>
</g>
</g>
<!-- Node7&#45;&gt;Node13 -->
<g id="edge17" class="edge">
<title>Node7&#45;&gt;Node13</title>
<path fill="none" stroke="#191970" d="M630.5292,-257.4639C658.9623,-245.9183 697.8746,-230.1176 725.3034,-218.9798"/>
<polygon fill="#191970" stroke="#191970" points="726.9001,-222.1091 734.8486,-215.1039 724.2665,-215.6234 726.9001,-222.1091"/>
</g>
<!-- Node21 -->
<g id="node22" class="node">
<title>Node21</title>
<g id="a_node22"><a xlink:href="nice__type__name_8h.html" target="_top" xlink:title=" ">
<polygon fill="#ffffff" stroke="#000000" points="182.5,-190.5 182.5,-220.5 322.5,-220.5 322.5,-190.5 182.5,-190.5"/>
<text text-anchor="start" x="190.5" y="-208.5" font-family="Helvetica,sans-Serif" font-size="10.00" fill="#000000">drake/common/nice_type</text>
<text text-anchor="middle" x="252.5" y="-197.5" font-family="Helvetica,sans-Serif" font-size="10.00" fill="#000000">_name.h</text>
</a>
</g>
</g>
<!-- Node7&#45;&gt;Node21 -->
<g id="edge31" class="edge">
<title>Node7&#45;&gt;Node21</title>
<path fill="none" stroke="#191970" d="M522.8446,-258.6176C467.5434,-247.7519 390.605,-232.635 332.9418,-221.3053"/>
<polygon fill="#191970" stroke="#191970" points="333.2598,-217.8009 322.7726,-219.3072 331.9102,-224.6696 333.2598,-217.8009"/>
</g>
<!-- Node11 -->
<g id="node12" class="node">
<title>Node11</title>
<g id="a_node12"><a xlink:title=" ">
<polygon fill="#ffffff" stroke="#bfbfbf" points="663,-.5 663,-19.5 732,-19.5 732,-.5 663,-.5"/>
<text text-anchor="middle" x="697.5" y="-7.5" font-family="Helvetica,sans-Serif" font-size="10.00" fill="#000000">type_traits</text>
</a>
</g>
</g>
<!-- Node10&#45;&gt;Node11 -->
<g id="edge13" class="edge">
<title>Node10&#45;&gt;Node11</title>
<path fill="none" stroke="#191970" d="M907.6823,-57.6982C857.3389,-46.2734 786.9935,-30.3094 741.8383,-20.062"/>
<polygon fill="#191970" stroke="#191970" points="742.5715,-16.6395 732.0448,-17.8395 741.0223,-23.4659 742.5715,-16.6395"/>
</g>
<!-- Node12&#45;&gt;Node10 -->
<g id="edge16" class="edge">
<title>Node12&#45;&gt;Node10</title>
<path fill="none" stroke="#191970" d="M654.1671,-124.8695C657.3205,-124.2227 660.4457,-123.5956 663.5,-123 743.5105,-107.3971 835.8746,-92.1903 897.8095,-82.396"/>
<polygon fill="#191970" stroke="#191970" points="898.5298,-85.8258 907.8629,-80.8115 897.4399,-78.9111 898.5298,-85.8258"/>
</g>
<!-- Node12&#45;&gt;Node11 -->
<g id="edge15" class="edge">
<title>Node12&#45;&gt;Node11</title>
<path fill="none" stroke="#191970" d="M605.8386,-123.2548C625.1872,-99.3481 662.5727,-53.1554 683.1143,-27.7747"/>
<polygon fill="#191970" stroke="#191970" points="686.0499,-29.7109 689.6204,-19.7358 680.6087,-25.3071 686.0499,-29.7109"/>
</g>
<!-- Node13&#45;&gt;Node1 -->
<g id="edge25" class="edge">
<title>Node13&#45;&gt;Node1</title>
<path fill="none" stroke="#191970" d="M695.797,-197.3171C627.5875,-188.103 515.4468,-172.0416 419.5,-154 407.4903,-151.7417 394.3891,-148.8965 382.8606,-146.262"/>
<polygon fill="#191970" stroke="#191970" points="383.3241,-142.7766 372.7917,-143.9248 381.7413,-149.5953 383.3241,-142.7766"/>
</g>
<!-- Node13&#45;&gt;Node6 -->
<g id="edge27" class="edge">
<title>Node13&#45;&gt;Node6</title>
<path fill="none" stroke="#191970" d="M695.8767,-199.6117C647.0306,-193.2009 578.4813,-180.1312 523.5,-154 503.5017,-144.4953 503.0486,-135.0923 484.5,-123 462.6381,-108.7477 436.3978,-95.1262 416.5739,-85.4757"/>
<polygon fill="#191970" stroke="#191970" points="417.9344,-82.2464 407.4048,-81.0719 414.9037,-88.5564 417.9344,-82.2464"/>
</g>
<!-- Node13&#45;&gt;Node8 -->
<g id="edge20" class="edge">
<title>Node13&#45;&gt;Node8</title>
<path fill="none" stroke="#191970" d="M821.1615,-200.2835C895.4349,-193.3022 1022.6123,-178.8292 1129.5,-154 1133.1458,-153.1531 1136.9118,-152.1456 1140.6515,-151.0567"/>
<polygon fill="#191970" stroke="#191970" points="1141.8732,-154.3424 1150.3886,-148.0385 1139.8007,-147.6562 1141.8732,-154.3424"/>
</g>
<!-- Node13&#45;&gt;Node10 -->
<g id="edge29" class="edge">
<title>Node13&#45;&gt;Node10</title>
<path fill="none" stroke="#191970" d="M821.3413,-200.3159C914.1394,-192.0161 1078.827,-174.5697 1096.5,-154 1120.556,-126.001 1080.2955,-104.0025 1038.7199,-89.788"/>
<polygon fill="#191970" stroke="#191970" points="1039.6028,-86.3943 1029.0101,-86.6088 1037.4246,-93.0468 1039.6028,-86.3943"/>
</g>
<!-- Node13&#45;&gt;Node11 -->
<g id="edge26" class="edge">
<title>Node13&#45;&gt;Node11</title>
<path fill="none" stroke="#191970" d="M755.475,-195.8051C745.9416,-165.2513 716.3966,-70.5619 703.5585,-29.417"/>
<polygon fill="#191970" stroke="#191970" points="706.863,-28.257 700.5433,-19.7534 700.1808,-30.342 706.863,-28.257"/>
</g>
<!-- Node13&#45;&gt;Node12 -->
<g id="edge30" class="edge">
<title>Node13&#45;&gt;Node12</title>
<path fill="none" stroke="#191970" d="M734.8595,-195.9005C710.1484,-185.8663 670.7366,-169.8627 639.7979,-157.2997"/>
<polygon fill="#191970" stroke="#191970" points="641.076,-154.0412 630.4939,-153.5218 638.4424,-160.5269 641.076,-154.0412"/>
</g>
<!-- Node14 -->
<g id="node15" class="node">
<title>Node14</title>
<g id="a_node15"><a xlink:title=" ">
<polygon fill="#ffffff" stroke="#bfbfbf" points="761,-129 761,-148 808,-148 808,-129 761,-129"/>
<text text-anchor="middle" x="784.5" y="-136" font-family="Helvetica,sans-Serif" font-size="10.00" fill="#000000">cmath</text>
</a>
</g>
</g>
<!-- Node13&#45;&gt;Node14 -->
<g id="edge18" class="edge">
<title>Node13&#45;&gt;Node14</title>
<path fill="none" stroke="#191970" d="M762.2252,-195.9005C766.0866,-185.95 772.226,-170.1292 777.0823,-157.6147"/>
<polygon fill="#191970" stroke="#191970" points="780.4269,-158.6706 780.7817,-148.0817 773.901,-156.1381 780.4269,-158.6706"/>
</g>
<!-- Node15 -->
<g id="node16" class="node">
<title>Node15</title>
<g id="a_node16"><a xlink:title=" ">
<polygon fill="#ffffff" stroke="#bfbfbf" points="826,-129 826,-148 879,-148 879,-129 826,-129"/>
<text text-anchor="middle" x="852.5" y="-136" font-family="Helvetica,sans-Serif" font-size="10.00" fill="#000000">cstddef</text>
</a>
</g>
</g>
<!-- Node13&#45;&gt;Node15 -->
<g id="edge19" class="edge">
<title>Node13&#45;&gt;Node15</title>
<path fill="none" stroke="#191970" d="M771.9679,-195.9005C787.3244,-184.9549 812.6463,-166.9064 830.7976,-153.9688"/>
<polygon fill="#191970" stroke="#191970" points="832.9454,-156.736 839.0571,-148.0817 828.8824,-151.0358 832.9454,-156.736"/>
</g>
<!-- Node16 -->
<g id="node17" class="node">
<title>Node16</title>
<g id="a_node17"><a xlink:title=" ">
<polygon fill="#ffffff" stroke="#bfbfbf" points="897.5,-129 897.5,-148 957.5,-148 957.5,-129 897.5,-129"/>
<text text-anchor="middle" x="927.5" y="-136" font-family="Helvetica,sans-Serif" font-size="10.00" fill="#000000">iostream</text>
</a>
</g>
</g>
<!-- Node13&#45;&gt;Node16 -->
<g id="edge21" class="edge">
<title>Node13&#45;&gt;Node16</title>
<path fill="none" stroke="#191970" d="M782.9423,-195.8264C809.0735,-185.4822 851.7199,-168.5942 888.5,-154 890.3285,-153.2745 892.2052,-152.5295 894.0994,-151.7774"/>
<polygon fill="#191970" stroke="#191970" points="895.575,-154.9574 903.5766,-148.0129 892.9908,-148.4518 895.575,-154.9574"/>
</g>
<!-- Node17 -->
<g id="node18" class="node">
<title>Node17</title>
<g id="a_node18"><a xlink:title=" ">
<polygon fill="#ffffff" stroke="#bfbfbf" points="975.5,-129 975.5,-148 1013.5,-148 1013.5,-129 975.5,-129"/>
<text text-anchor="middle" x="994.5" y="-136" font-family="Helvetica,sans-Serif" font-size="10.00" fill="#000000">map</text>
</a>
</g>
</g>
<!-- Node13&#45;&gt;Node17 -->
<g id="edge22" class="edge">
<title>Node13&#45;&gt;Node17</title>
<path fill="none" stroke="#191970" d="M813.5838,-195.9691C856.2284,-187.6184 916.2895,-173.7148 966.5,-154 967.5344,-153.5939 968.578,-153.1566 969.6232,-152.6955"/>
<polygon fill="#191970" stroke="#191970" points="971.4656,-155.6882 978.861,-148.1015 968.3485,-149.4205 971.4656,-155.6882"/>
</g>
<!-- Node18 -->
<g id="node19" class="node">
<title>Node18</title>
<g id="a_node19"><a xlink:title=" ">
<polygon fill="#ffffff" stroke="#bfbfbf" points="1031.5,-129 1031.5,-148 1087.5,-148 1087.5,-129 1031.5,-129"/>
<text text-anchor="middle" x="1059.5" y="-136" font-family="Helvetica,sans-Serif" font-size="10.00" fill="#000000">optional</text>
</a>
</g>
</g>
<!-- Node13&#45;&gt;Node18 -->
<g id="edge23" class="edge">
<title>Node13&#45;&gt;Node18</title>
<path fill="none" stroke="#191970" d="M821.252,-196.9514C875.301,-188.7172 955.0266,-174.4795 1022.5,-154 1024.6659,-153.3426 1026.8782,-152.6023 1029.0902,-151.8108"/>
<polygon fill="#191970" stroke="#191970" points="1030.5811,-154.9867 1038.6413,-148.1105 1028.0522,-148.4595 1030.5811,-154.9867"/>
</g>
<!-- Node19 -->
<g id="node20" class="node">
<title>Node19</title>
<g id="a_node20"><a xlink:title=" ">
<polygon fill="#ffffff" stroke="#bfbfbf" points="672.5,-129 672.5,-148 704.5,-148 704.5,-129 672.5,-129"/>
<text text-anchor="middle" x="688.5" y="-136" font-family="Helvetica,sans-Serif" font-size="10.00" fill="#000000">set</text>
</a>
</g>
</g>
<!-- Node13&#45;&gt;Node19 -->
<g id="edge24" class="edge">
<title>Node13&#45;&gt;Node19</title>
<path fill="none" stroke="#191970" d="M748.4707,-195.9005C737.3469,-185.2535 719.2013,-167.8856 705.779,-155.0385"/>
<polygon fill="#191970" stroke="#191970" points="708.155,-152.4678 698.5107,-148.0817 703.3148,-157.5247 708.155,-152.4678"/>
</g>
<!-- Node20 -->
<g id="node21" class="node">
<title>Node20</title>
<g id="a_node21"><a xlink:title=" ">
<polygon fill="#ffffff" stroke="#bfbfbf" points="429,-129 429,-148 476,-148 476,-129 429,-129"/>
<text text-anchor="middle" x="452.5" y="-136" font-family="Helvetica,sans-Serif" font-size="10.00" fill="#000000">vector</text>
</a>
</g>
</g>
<!-- Node13&#45;&gt;Node20 -->
<g id="edge28" class="edge">
<title>Node13&#45;&gt;Node20</title>
<path fill="none" stroke="#191970" d="M695.9279,-197.0545C641.0742,-188.8076 559.5384,-174.4946 490.5,-154 488.1948,-153.3157 485.8369,-152.5424 483.4803,-151.7155"/>
<polygon fill="#191970" stroke="#191970" points="484.5299,-148.3705 473.9384,-148.1049 482.0525,-154.9175 484.5299,-148.3705"/>
</g>
<!-- Node21&#45;&gt;Node1 -->
<g id="edge33" class="edge">
<title>Node21&#45;&gt;Node1</title>
<path fill="none" stroke="#191970" d="M274.7377,-190.2967C290.7478,-179.351 312.2563,-164.6462 328.2656,-153.701"/>
<polygon fill="#191970" stroke="#191970" points="330.2443,-156.5881 336.5241,-148.055 326.2936,-150.8095 330.2443,-156.5881"/>
</g>
<!-- Node21&#45;&gt;Node6 -->
<g id="edge35" class="edge">
<title>Node21&#45;&gt;Node6</title>
<path fill="none" stroke="#191970" d="M263.1579,-190.3132C275.6369,-173.0539 297.422,-144.4951 319.5,-123 333.2107,-109.6513 350.3423,-96.5363 363.85,-86.8819"/>
<polygon fill="#191970" stroke="#191970" points="365.9566,-89.6794 372.1308,-81.0696 361.935,-83.9499 365.9566,-89.6794"/>
</g>
<!-- Node21&#45;&gt;Node20 -->
<g id="edge36" class="edge">
<title>Node21&#45;&gt;Node20</title>
<path fill="none" stroke="#191970" d="M297.3839,-190.4639C334.3316,-178.0864 385.8777,-160.8185 419.2218,-149.6482"/>
<polygon fill="#191970" stroke="#191970" points="420.579,-152.8848 428.9493,-146.3895 418.3554,-146.2473 420.579,-152.8848"/>
</g>
<!-- Node22 -->
<g id="node23" class="node">
<title>Node22</title>
<g id="a_node23"><a xlink:title=" ">
<polygon fill="#ffffff" stroke="#bfbfbf" points="214.5,-129 214.5,-148 272.5,-148 272.5,-129 214.5,-129"/>
<text text-anchor="middle" x="243.5" y="-136" font-family="Helvetica,sans-Serif" font-size="10.00" fill="#000000">memory</text>
</a>
</g>
</g>
<!-- Node21&#45;&gt;Node22 -->
<g id="edge32" class="edge">
<title>Node21&#45;&gt;Node22</title>
<path fill="none" stroke="#191970" d="M250.4578,-190.2967C249.178,-180.7699 247.5158,-168.3954 246.137,-158.1306"/>
<polygon fill="#191970" stroke="#191970" points="249.5838,-157.5 244.7835,-148.055 242.6461,-158.4319 249.5838,-157.5"/>
</g>
<!-- Node23 -->
<g id="node24" class="node">
<title>Node23</title>
<g id="a_node24"><a xlink:title=" ">
<polygon fill="#ffffff" stroke="#bfbfbf" points="0,-129 0,-148 57,-148 57,-129 0,-129"/>
<text text-anchor="middle" x="28.5" y="-136" font-family="Helvetica,sans-Serif" font-size="10.00" fill="#000000">typeinfo</text>
</a>
</g>
</g>
<!-- Node21&#45;&gt;Node23 -->
<g id="edge34" class="edge">
<title>Node21&#45;&gt;Node23</title>
<path fill="none" stroke="#191970" d="M189.9821,-190.4181C153.3541,-181.0537 106.3979,-168.1331 65.5,-154 63.624,-153.3517 61.7071,-152.6556 59.7817,-151.9305"/>
<polygon fill="#191970" stroke="#191970" points="60.8196,-148.5771 50.2334,-148.1488 58.2419,-155.0852 60.8196,-148.5771"/>
</g>
<!-- Node24 -->
<g id="node25" class="node">
<title>Node24</title>
<g id="a_node25"><a xlink:href="never__destroyed_8h.html" target="_top" xlink:title=" ">
<polygon fill="#ffffff" stroke="#000000" points="75,-123.5 75,-153.5 196,-153.5 196,-123.5 75,-123.5"/>
<text text-anchor="start" x="83" y="-141.5" font-family="Helvetica,sans-Serif" font-size="10.00" fill="#000000">drake/common/never</text>
<text text-anchor="middle" x="135.5" y="-130.5" font-family="Helvetica,sans-Serif" font-size="10.00" fill="#000000">_destroyed.h</text>
</a>
</g>
</g>
<!-- Node21&#45;&gt;Node24 -->
<g id="edge37" class="edge">
<title>Node21&#45;&gt;Node24</title>
<path fill="none" stroke="#191970" d="M226.2429,-190.4639C209.9489,-181.1332 188.8018,-169.0232 171.0216,-158.8415"/>
<polygon fill="#191970" stroke="#191970" points="172.4914,-155.6499 162.0743,-153.7177 169.0128,-161.7244 172.4914,-155.6499"/>
</g>
<!-- Node24&#45;&gt;Node6 -->
<g id="edge40" class="edge">
<title>Node24&#45;&gt;Node6</title>
<path fill="none" stroke="#191970" d="M196.1456,-125.011C237.6277,-115.3945 293.7244,-101.6228 342.5,-87 346.3183,-85.8553 350.2949,-84.5778 354.2276,-83.2609"/>
<polygon fill="#191970" stroke="#191970" points="355.4863,-86.5292 363.7982,-79.9594 353.2035,-79.9118 355.4863,-86.5292"/>
</g>
<!-- Node24&#45;&gt;Node11 -->
<g id="edge39" class="edge">
<title>Node24&#45;&gt;Node11</title>
<path fill="none" stroke="#191970" d="M168.507,-123.3592C210.7298,-104.6278 286.5382,-73.1215 354.5,-56 459.5752,-29.5285 586.8368,-17.5247 652.8736,-12.7418"/>
<polygon fill="#191970" stroke="#191970" points="653.2035,-16.2274 662.9336,-12.0351 652.7129,-9.2446 653.2035,-16.2274"/>
</g>
<!-- Node25 -->
<g id="node26" class="node">
<title>Node25</title>
<g id="a_node26"><a xlink:title=" ">
<polygon fill="#ffffff" stroke="#bfbfbf" points="69,-62 69,-81 106,-81 106,-62 69,-62"/>
<text text-anchor="middle" x="87.5" y="-69" font-family="Helvetica,sans-Serif" font-size="10.00" fill="#000000">new</text>
</a>
</g>
</g>
<!-- Node24&#45;&gt;Node25 -->
<g id="edge38" class="edge">
<title>Node24&#45;&gt;Node25</title>
<path fill="none" stroke="#191970" d="M124.6081,-123.2967C117.3473,-113.1618 107.7775,-99.804 100.175,-89.1921"/>
<polygon fill="#191970" stroke="#191970" points="103.0144,-87.1458 94.3454,-81.055 97.324,-91.2225 103.0144,-87.1458"/>
</g>
<!-- Node26 -->
<g id="node27" class="node">
<title>Node26</title>
<g id="a_node27"><a xlink:href="drake__copyable_8h.html" target="_top" xlink:title="Provides careful macros to selectively enable or disable the special member functions for copy&#45;constr...">
<polygon fill="#ffffff" stroke="#000000" points="124,-56.5 124,-86.5 245,-86.5 245,-56.5 124,-56.5"/>
<text text-anchor="start" x="132" y="-74.5" font-family="Helvetica,sans-Serif" font-size="10.00" fill="#000000">drake/common/drake</text>
<text text-anchor="middle" x="184.5" y="-63.5" font-family="Helvetica,sans-Serif" font-size="10.00" fill="#000000">_copyable.h</text>
</a>
</g>
</g>
<!-- Node24&#45;&gt;Node26 -->
<g id="edge41" class="edge">
<title>Node24&#45;&gt;Node26</title>
<path fill="none" stroke="#191970" d="M146.6189,-123.2967C152.7585,-114.9016 160.5154,-104.2952 167.4086,-94.8698"/>
<polygon fill="#191970" stroke="#191970" points="170.347,-96.781 173.4251,-86.6432 164.6968,-92.6488 170.347,-96.781"/>
</g>
</g>
</svg>
