<?xml version="1.0" encoding="UTF-8" standalone="no"?>
<!DOCTYPE svg PUBLIC "-//W3C//DTD SVG 1.1//EN"
 "http://www.w3.org/Graphics/SVG/1.1/DTD/svg11.dtd">
<!-- Generated by graphviz version 2.40.1 (20161225.0304)
 -->
<!-- Title: drake/bindings/pydrake/common/type_pack.h Pages: 1 -->
<svg width="456pt" height="251pt"
 viewBox="0.00 0.00 456.00 251.00" xmlns="http://www.w3.org/2000/svg" xmlns:xlink="http://www.w3.org/1999/xlink">
<g id="graph0" class="graph" transform="scale(1 1) rotate(0) translate(4 247)">
<title>drake/bindings/pydrake/common/type_pack.h</title>
<polygon fill="#ffffff" stroke="transparent" points="-4,4 -4,-247 452,-247 452,4 -4,4"/>
<!-- Node6 -->
<g id="node1" class="node">
<title>Node6</title>
<g id="a_node1"><a xlink:title="Basic meta&#45;programming utilities for types, focused on template parameter packs.">
<polygon fill="#bfbfbf" stroke="#000000" points="217.5,-212.5 217.5,-242.5 348.5,-242.5 348.5,-212.5 217.5,-212.5"/>
<text text-anchor="start" x="225.5" y="-230.5" font-family="Helvetica,sans-Serif" font-size="10.00" fill="#000000">drake/bindings/pydrake</text>
<text text-anchor="middle" x="283" y="-219.5" font-family="Helvetica,sans-Serif" font-size="10.00" fill="#000000">/common/type_pack.h</text>
</a>
</g>
</g>
<!-- Node7 -->
<g id="node2" class="node">
<title>Node7</title>
<g id="a_node2"><a xlink:href="cpp__param__pybind_8h.html" target="_top" xlink:title="Provides a mechanism to map C++ types to canonical Python types.">
<polygon fill="#ffffff" stroke="#000000" points="140.5,-145.5 140.5,-175.5 307.5,-175.5 307.5,-145.5 140.5,-145.5"/>
<text text-anchor="start" x="148.5" y="-163.5" font-family="Helvetica,sans-Serif" font-size="10.00" fill="#000000">drake/bindings/pydrake</text>
<text text-anchor="middle" x="224" y="-152.5" font-family="Helvetica,sans-Serif" font-size="10.00" fill="#000000">/common/cpp_param_pybind.h</text>
</a>
</g>
</g>
<!-- Node6&#45;&gt;Node7 -->
<g id="edge1" class="edge">
<title>Node6&#45;&gt;Node7</title>
<path fill="none" stroke="#191970" d="M262.8682,-204.6385C254.4381,-195.0653 244.869,-184.1987 237.335,-175.6432"/>
<polygon fill="#191970" stroke="#191970" points="260.3764,-207.1048 269.612,-212.2967 265.6299,-202.4786 260.3764,-207.1048"/>
</g>
<!-- Node9 -->
<g id="node4" class="node">
<title>Node9</title>
<g id="a_node4"><a xlink:href="default__scalars__pybind_8h.html" target="_top" xlink:title="Helpers for defining scalars and values.">
<polygon fill="#ffffff" stroke="#000000" points="308,-.5 308,-41.5 448,-41.5 448,-.5 308,-.5"/>
<text text-anchor="start" x="316" y="-29.5" font-family="Helvetica,sans-Serif" font-size="10.00" fill="#000000">drake/bindings/pydrake</text>
<text text-anchor="start" x="316" y="-18.5" font-family="Helvetica,sans-Serif" font-size="10.00" fill="#000000">/common/default_scalars</text>
<text text-anchor="middle" x="378" y="-7.5" font-family="Helvetica,sans-Serif" font-size="10.00" fill="#000000">_pybind.h</text>
</a>
</g>
</g>
<!-- Node6&#45;&gt;Node9 -->
<g id="edge7" class="edge">
<title>Node6&#45;&gt;Node9</title>
<path fill="none" stroke="#191970" d="M300.0813,-203.8854C305.86,-195.3361 312.0871,-185.4549 317,-176 341.0012,-129.8101 361.4082,-71.9451 371.4095,-41.6587"/>
<polygon fill="#191970" stroke="#191970" points="297.1121,-202.0253 294.2954,-212.2389 302.8666,-206.011 297.1121,-202.0253"/>
</g>
<!-- Node8 -->
<g id="node3" class="node">
<title>Node8</title>
<g id="a_node3"><a xlink:href="cpp__template__pybind_8h.html" target="_top" xlink:title=" ">
<polygon fill="#ffffff" stroke="#000000" points="134.5,-78.5 134.5,-108.5 313.5,-108.5 313.5,-78.5 134.5,-78.5"/>
<text text-anchor="start" x="142.5" y="-96.5" font-family="Helvetica,sans-Serif" font-size="10.00" fill="#000000">drake/bindings/pydrake</text>
<text text-anchor="middle" x="224" y="-85.5" font-family="Helvetica,sans-Serif" font-size="10.00" fill="#000000">/common/cpp_template_pybind.h</text>
</a>
</g>
</g>
<!-- Node7&#45;&gt;Node8 -->
<g id="edge2" class="edge">
<title>Node7&#45;&gt;Node8</title>
<path fill="none" stroke="#191970" d="M224,-135.0249C224,-126.128 224,-116.4287 224,-108.6432"/>
<polygon fill="#191970" stroke="#191970" points="220.5001,-135.2966 224,-145.2967 227.5001,-135.2967 220.5001,-135.2966"/>
</g>
<!-- Node10 -->
<g id="node5" class="node">
<title>Node10</title>
<g id="a_node5"><a xlink:href="value__pybind_8h.html" target="_top" xlink:title="Helpers for defining instantiations of drake::Value&lt;&gt;.">
<polygon fill="#ffffff" stroke="#000000" points="0,-6 0,-36 140,-36 140,-6 0,-6"/>
<text text-anchor="start" x="8" y="-24" font-family="Helvetica,sans-Serif" font-size="10.00" fill="#000000">drake/bindings/pydrake</text>
<text text-anchor="middle" x="70" y="-13" font-family="Helvetica,sans-Serif" font-size="10.00" fill="#000000">/common/value_pybind.h</text>
</a>
</g>
</g>
<!-- Node7&#45;&gt;Node10 -->
<g id="edge6" class="edge">
<title>Node7&#45;&gt;Node10</title>
<path fill="none" stroke="#191970" d="M174.5746,-141.1828C157.5962,-132.97 139.2871,-122.2018 125,-109 102.1085,-87.8474 85.0389,-55.096 76.3766,-36.0823"/>
<polygon fill="#191970" stroke="#191970" points="173.2921,-144.4461 183.8362,-145.4818 176.2393,-138.0968 173.2921,-144.4461"/>
</g>
<!-- Node8&#45;&gt;Node9 -->
<g id="edge3" class="edge">
<title>Node8&#45;&gt;Node9</title>
<path fill="none" stroke="#191970" d="M265.0727,-74.1638C286.4887,-64.0816 312.6841,-51.7494 334.452,-41.5015"/>
<polygon fill="#191970" stroke="#191970" points="263.4656,-71.0519 255.9089,-78.478 266.4472,-77.3851 263.4656,-71.0519"/>
</g>
<!-- Node8&#45;&gt;Node10 -->
<g id="edge4" class="edge">
<title>Node8&#45;&gt;Node10</title>
<path fill="none" stroke="#191970" d="M182.7195,-74.066C157.3339,-62.115 125.2942,-47.0313 101.868,-36.0028"/>
<polygon fill="#191970" stroke="#191970" points="181.5528,-77.3851 192.0911,-78.478 184.5344,-71.0519 181.5528,-77.3851"/>
</g>
<!-- Node11 -->
<g id="node6" class="node">
<title>Node11</title>
<g id="a_node6"><a xlink:href="lcm__pybind_8h.html" target="_top" xlink:title="Helpers for defining C++ LCM type serializers.">
<polygon fill="#ffffff" stroke="#000000" points="158.5,-6 158.5,-36 289.5,-36 289.5,-6 158.5,-6"/>
<text text-anchor="start" x="166.5" y="-24" font-family="Helvetica,sans-Serif" font-size="10.00" fill="#000000">drake/bindings/pydrake</text>
<text text-anchor="middle" x="224" y="-13" font-family="Helvetica,sans-Serif" font-size="10.00" fill="#000000">/systems/lcm_pybind.h</text>
</a>
</g>
</g>
<!-- Node8&#45;&gt;Node11 -->
<g id="edge5" class="edge">
<title>Node8&#45;&gt;Node11</title>
<path fill="none" stroke="#191970" d="M224,-68.3409C224,-57.5601 224,-45.3309 224,-36.0028"/>
<polygon fill="#191970" stroke="#191970" points="220.5001,-68.4779 224,-78.478 227.5001,-68.478 220.5001,-68.4779"/>
</g>
</g>
</svg>
