<?xml version="1.0" encoding="UTF-8" standalone="no"?>
<!DOCTYPE svg PUBLIC "-//W3C//DTD SVG 1.1//EN"
 "http://www.w3.org/Graphics/SVG/1.1/DTD/svg11.dtd">
<!-- Generated by graphviz version 2.40.1 (20161225.0304)
 -->
<!-- Title: drake/common/value.h Pages: 1 -->
<!--zoomable 285 -->
<svg id="main" version="1.1" xmlns="http://www.w3.org/2000/svg" xmlns:xlink="http://www.w3.org/1999/xlink" xml:space="preserve" onload="init(evt)">
<style type="text/css"><![CDATA[
.edge:hover path { stroke: red; }
.edge:hover polygon { stroke: red; fill: red; }
]]></style>
<script type="text/javascript"><![CDATA[
var edges = document.getElementsByTagName('g');
if (edges && edges.length) {
  for (var i=0;i<edges.length;i++) {
    if (edges[i].id.substr(0,4)=='edge') {
      edges[i].setAttribute('class','edge');
    }
  }
}
]]></script>
        <defs>
                <circle id="rim" cx="0" cy="0" r="7"/>
                <circle id="rim2" cx="0" cy="0" r="3.5"/>
                <g id="zoomPlus">
                        <use xlink:href="#rim" fill="#404040">
                                <set attributeName="fill" to="#808080" begin="zoomplus.mouseover" end="zoomplus.mouseout"/>
                        </use>
                        <path d="M-4,0h8M0,-4v8" fill="none" stroke="white" stroke-width="1.5" pointer-events="none"/>
                </g>
                <g id="zoomMin">
                        <use xlink:href="#rim" fill="#404040">
                                <set attributeName="fill" to="#808080" begin="zoomminus.mouseover" end="zoomminus.mouseout"/>
                        </use>
                        <path d="M-4,0h8" fill="none" stroke="white" stroke-width="1.5" pointer-events="none"/>
                </g>
                <g id="dirArrow">
                        <path fill="none" stroke="white" stroke-width="1.5" d="M0,-3.0v7 M-2.5,-0.5L0,-3.0L2.5,-0.5"/>
                </g>
               <g id="resetDef">
                       <use xlink:href="#rim2" fill="#404040">
                               <set attributeName="fill" to="#808080" begin="reset.mouseover" end="reset.mouseout"/>
                       </use>
               </g>
        </defs>

<script type="text/javascript">
var viewWidth = 1508;
var viewHeight = 285;
var sectionId = 'dynsection-0';
</script>
<script xlink:href="svgpan.js"/>
<svg id="graph" class="graph">
<g id="viewport">
<title>drake/common/value.h</title>
<polygon fill="#ffffff" stroke="transparent" points="-4,4 -4,-281 1504,-281 1504,4 -4,4"/>
<!-- Node0 -->
<g id="node1" class="node">
<title>Node0</title>
<g id="a_node1"><a xlink:title=" ">
<polygon fill="#bfbfbf" stroke="#000000" points="426,-257.5 426,-276.5 555,-276.5 555,-257.5 426,-257.5"/>
<text text-anchor="middle" x="490.5" y="-264.5" font-family="Helvetica,sans-Serif" font-size="10.00" fill="#000000">drake/common/value.h</text>
</a>
</g>
</g>
<!-- Node1 -->
<g id="node2" class="node">
<title>Node1</title>
<g id="a_node2"><a xlink:title=" ">
<polygon fill="#ffffff" stroke="#bfbfbf" points="345.5,-129 345.5,-148 403.5,-148 403.5,-129 345.5,-129"/>
<text text-anchor="middle" x="374.5" y="-136" font-family="Helvetica,sans-Serif" font-size="10.00" fill="#000000">memory</text>
</a>
</g>
</g>
<!-- Node0&#45;&gt;Node1 -->
<g id="edge1" class="edge">
<title>Node0&#45;&gt;Node1</title>
<path fill="none" stroke="#191970" d="M484.4346,-257.4911C474.6197,-242.4301 454.2528,-212.492 433.5,-190 421.6293,-177.1345 406.7755,-164.1835 394.9417,-154.4873"/>
<polygon fill="#191970" stroke="#191970" points="396.929,-151.5939 386.9445,-148.0499 392.5397,-157.0468 396.929,-151.5939"/>
</g>
<!-- Node2 -->
<g id="node3" class="node">
<title>Node2</title>
<g id="a_node3"><a xlink:title=" ">
<polygon fill="#ffffff" stroke="#bfbfbf" points="1435,-196 1435,-215 1500,-215 1500,-196 1435,-196"/>
<text text-anchor="middle" x="1467.5" y="-203" font-family="Helvetica,sans-Serif" font-size="10.00" fill="#000000">stdexcept</text>
</a>
</g>
</g>
<!-- Node0&#45;&gt;Node2 -->
<g id="edge2" class="edge">
<title>Node0&#45;&gt;Node2</title>
<path fill="none" stroke="#191970" d="M555.2533,-266.0593C737.8067,-263.048 1254.123,-251.9617 1420.5,-221 1424.4727,-220.2607 1428.5721,-219.2699 1432.6174,-218.145"/>
<polygon fill="#191970" stroke="#191970" points="1433.9175,-221.4075 1442.459,-215.1391 1431.8728,-214.7128 1433.9175,-221.4075"/>
</g>
<!-- Node3 -->
<g id="node4" class="node">
<title>Node3</title>
<g id="a_node4"><a xlink:title=" ">
<polygon fill="#ffffff" stroke="#bfbfbf" points="421.5,-129 421.5,-148 465.5,-148 465.5,-129 421.5,-129"/>
<text text-anchor="middle" x="443.5" y="-136" font-family="Helvetica,sans-Serif" font-size="10.00" fill="#000000">string</text>
</a>
</g>
</g>
<!-- Node0&#45;&gt;Node3 -->
<g id="edge3" class="edge">
<title>Node0&#45;&gt;Node3</title>
<path fill="none" stroke="#191970" d="M487.9001,-257.3941C483.8354,-242.7013 475.5033,-213.8409 466.5,-190 462.3406,-178.9857 457.0147,-166.9574 452.5357,-157.297"/>
<polygon fill="#191970" stroke="#191970" points="455.6902,-155.7805 448.2589,-148.2289 449.359,-158.7665 455.6902,-155.7805"/>
</g>
<!-- Node4 -->
<g id="node5" class="node">
<title>Node4</title>
<g id="a_node5"><a xlink:title=" ">
<polygon fill="#ffffff" stroke="#bfbfbf" points="992,-.5 992,-19.5 1061,-19.5 1061,-.5 992,-.5"/>
<text text-anchor="middle" x="1026.5" y="-7.5" font-family="Helvetica,sans-Serif" font-size="10.00" fill="#000000">type_traits</text>
</a>
</g>
</g>
<!-- Node0&#45;&gt;Node4 -->
<g id="edge4" class="edge">
<title>Node0&#45;&gt;Node4</title>
<path fill="none" stroke="#191970" d="M555.2137,-263.6297C749.5141,-252.8455 1317.701,-216.2014 1370.5,-154 1397.2173,-122.5249 1343.47,-62.931 1333.5,-56 1291.9233,-27.0967 1145.9722,-15.8404 1071.276,-11.8973"/>
<polygon fill="#191970" stroke="#191970" points="1071.3915,-8.3988 1061.2272,-11.3884 1071.0374,-15.3898 1071.3915,-8.3988"/>
</g>
<!-- Node5 -->
<g id="node6" class="node">
<title>Node5</title>
<g id="a_node6"><a xlink:title=" ">
<polygon fill="#ffffff" stroke="#bfbfbf" points="55,-129 55,-148 112,-148 112,-129 55,-129"/>
<text text-anchor="middle" x="83.5" y="-136" font-family="Helvetica,sans-Serif" font-size="10.00" fill="#000000">typeinfo</text>
</a>
</g>
</g>
<!-- Node0&#45;&gt;Node5 -->
<g id="edge5" class="edge">
<title>Node0&#45;&gt;Node5</title>
<path fill="none" stroke="#191970" d="M425.8169,-263.8322C319.347,-257.9887 116.5893,-243.9679 93.5,-221 77.2538,-204.8392 77.3174,-176.9752 79.7064,-158.1506"/>
<polygon fill="#191970" stroke="#191970" points="83.1639,-158.6935 81.276,-148.2682 76.2506,-157.5954 83.1639,-158.6935"/>
</g>
<!-- Node6 -->
<g id="node7" class="node">
<title>Node6</title>
<g id="a_node7"><a xlink:title=" ">
<polygon fill="#ffffff" stroke="#bfbfbf" points="471,-62 471,-81 516,-81 516,-62 471,-62"/>
<text text-anchor="middle" x="493.5" y="-69" font-family="Helvetica,sans-Serif" font-size="10.00" fill="#000000">utility</text>
</a>
</g>
</g>
<!-- Node0&#45;&gt;Node6 -->
<g id="edge6" class="edge">
<title>Node0&#45;&gt;Node6</title>
<path fill="none" stroke="#191970" d="M490.6488,-257.3051C491.1156,-226.8813 492.5583,-132.8666 493.1939,-91.4452"/>
<polygon fill="#191970" stroke="#191970" points="496.6964,-91.3059 493.3503,-81.2534 489.6972,-91.1985 496.6964,-91.3059"/>
</g>
<!-- Node7 -->
<g id="node8" class="node">
<title>Node7</title>
<g id="a_node8"><a xlink:href="copyable__unique__ptr_8h.html" target="_top" xlink:title=" ">
<polygon fill="#ffffff" stroke="#000000" points="567,-190.5 567,-220.5 704,-220.5 704,-190.5 567,-190.5"/>
<text text-anchor="start" x="575" y="-208.5" font-family="Helvetica,sans-Serif" font-size="10.00" fill="#000000">drake/common/copyable</text>
<text text-anchor="middle" x="635.5" y="-197.5" font-family="Helvetica,sans-Serif" font-size="10.00" fill="#000000">_unique_ptr.h</text>
</a>
</g>
</g>
<!-- Node0&#45;&gt;Node7 -->
<g id="edge7" class="edge">
<title>Node0&#45;&gt;Node7</title>
<path fill="none" stroke="#191970" d="M513.1563,-257.3906C533.7796,-248.6435 564.8323,-235.4728 590.4918,-224.5897"/>
<polygon fill="#191970" stroke="#191970" points="592.1895,-227.6715 600.029,-220.5446 589.4562,-221.2272 592.1895,-227.6715"/>
</g>
<!-- Node11 -->
<g id="node12" class="node">
<title>Node11</title>
<g id="a_node12"><a xlink:href="drake__copyable_8h.html" target="_top" xlink:title="Provides careful macros to selectively enable or disable the special member functions for copy&#45;constr...">
<polygon fill="#ffffff" stroke="#000000" points="0,-56.5 0,-86.5 121,-86.5 121,-56.5 0,-56.5"/>
<text text-anchor="start" x="8" y="-74.5" font-family="Helvetica,sans-Serif" font-size="10.00" fill="#000000">drake/common/drake</text>
<text text-anchor="middle" x="60.5" y="-63.5" font-family="Helvetica,sans-Serif" font-size="10.00" fill="#000000">_copyable.h</text>
</a>
</g>
</g>
<!-- Node0&#45;&gt;Node11 -->
<g id="edge14" class="edge">
<title>Node0&#45;&gt;Node11</title>
<path fill="none" stroke="#191970" d="M425.9687,-263.2996C316.6692,-256.5239 104.2295,-240.9664 76.5,-221 39.4276,-194.3064 39.0479,-168.2248 45.5,-123 46.7717,-114.0862 49.2225,-104.5594 51.7803,-96.1541"/>
<polygon fill="#191970" stroke="#191970" points="55.1315,-97.1661 54.8813,-86.5743 48.4717,-95.0103 55.1315,-97.1661"/>
</g>
<!-- Node12 -->
<g id="node13" class="node">
<title>Node12</title>
<g id="a_node13"><a xlink:href="hash_8h.html" target="_top" xlink:title=" ">
<polygon fill="#ffffff" stroke="#000000" points="829,-196 829,-215 954,-215 954,-196 829,-196"/>
<text text-anchor="middle" x="891.5" y="-203" font-family="Helvetica,sans-Serif" font-size="10.00" fill="#000000">drake/common/hash.h</text>
</a>
</g>
</g>
<!-- Node0&#45;&gt;Node12 -->
<g id="edge15" class="edge">
<title>Node0&#45;&gt;Node12</title>
<path fill="none" stroke="#191970" d="M552.7163,-257.4581C624.8244,-246.3991 743.4583,-228.2047 819.4921,-216.5436"/>
<polygon fill="#191970" stroke="#191970" points="820.1139,-219.9893 829.4677,-215.0137 819.0527,-213.0702 820.1139,-219.9893"/>
</g>
<!-- Node20 -->
<g id="node21" class="node">
<title>Node20</title>
<g id="a_node21"><a xlink:href="is__cloneable_8h.html" target="_top" xlink:title=" ">
<polygon fill="#ffffff" stroke="#000000" points="103,-196 103,-215 266,-215 266,-196 103,-196"/>
<text text-anchor="middle" x="184.5" y="-203" font-family="Helvetica,sans-Serif" font-size="10.00" fill="#000000">drake/common/is_cloneable.h</text>
</a>
</g>
</g>
<!-- Node0&#45;&gt;Node20 -->
<g id="edge31" class="edge">
<title>Node0&#45;&gt;Node20</title>
<path fill="none" stroke="#191970" d="M443.0232,-257.4581C388.7842,-246.5571 300.0488,-228.723 241.955,-217.0473"/>
<polygon fill="#191970" stroke="#191970" points="242.33,-213.5528 231.8364,-215.0137 240.9506,-220.4155 242.33,-213.5528"/>
</g>
<!-- Node21 -->
<g id="node22" class="node">
<title>Node21</title>
<g id="a_node22"><a xlink:href="nice__type__name_8h.html" target="_top" xlink:title=" ">
<polygon fill="#ffffff" stroke="#000000" points="284.5,-190.5 284.5,-220.5 424.5,-220.5 424.5,-190.5 284.5,-190.5"/>
<text text-anchor="start" x="292.5" y="-208.5" font-family="Helvetica,sans-Serif" font-size="10.00" fill="#000000">drake/common/nice_type</text>
<text text-anchor="middle" x="354.5" y="-197.5" font-family="Helvetica,sans-Serif" font-size="10.00" fill="#000000">_name.h</text>
</a>
</g>
</g>
<!-- Node0&#45;&gt;Node21 -->
<g id="edge34" class="edge">
<title>Node0&#45;&gt;Node21</title>
<path fill="none" stroke="#191970" d="M469.25,-257.3906C449.9919,-248.682 421.0378,-235.5888 397.0329,-224.7336"/>
<polygon fill="#191970" stroke="#191970" points="398.3232,-221.4759 387.7693,-220.5446 395.4389,-227.8541 398.3232,-221.4759"/>
</g>
<!-- Node7&#45;&gt;Node1 -->
<g id="edge10" class="edge">
<title>Node7&#45;&gt;Node1</title>
<path fill="none" stroke="#191970" d="M566.9104,-192.628C522.4108,-183.5523 463.4418,-170.1569 412.5,-154 410.3479,-153.3174 408.1464,-152.5664 405.9407,-151.7742"/>
<polygon fill="#191970" stroke="#191970" points="406.974,-148.4223 396.3833,-148.1232 404.4759,-154.9614 406.974,-148.4223"/>
</g>
<!-- Node7&#45;&gt;Node6 -->
<g id="edge11" class="edge">
<title>Node7&#45;&gt;Node6</title>
<path fill="none" stroke="#191970" d="M627.6457,-190.3807C617.898,-172.6647 599.9172,-143.172 578.5,-123 562.2855,-107.7282 540.8093,-94.7628 523.5013,-85.661"/>
<polygon fill="#191970" stroke="#191970" points="524.8737,-82.4322 514.3745,-81.0119 521.6964,-88.6696 524.8737,-82.4322"/>
</g>
<!-- Node8 -->
<g id="node9" class="node">
<title>Node8</title>
<g id="a_node9"><a xlink:title=" ">
<polygon fill="#ffffff" stroke="#bfbfbf" points="664,-129 664,-148 717,-148 717,-129 664,-129"/>
<text text-anchor="middle" x="690.5" y="-136" font-family="Helvetica,sans-Serif" font-size="10.00" fill="#000000">cstddef</text>
</a>
</g>
</g>
<!-- Node7&#45;&gt;Node8 -->
<g id="edge8" class="edge">
<title>Node7&#45;&gt;Node8</title>
<path fill="none" stroke="#191970" d="M647.9804,-190.2967C656.3832,-180.0605 667.4849,-166.5366 676.2373,-155.8746"/>
<polygon fill="#191970" stroke="#191970" points="679.0167,-158.005 682.6564,-148.055 673.6061,-153.5635 679.0167,-158.005"/>
</g>
<!-- Node9 -->
<g id="node10" class="node">
<title>Node9</title>
<g id="a_node10"><a xlink:title=" ">
<polygon fill="#ffffff" stroke="#bfbfbf" points="735.5,-129 735.5,-148 795.5,-148 795.5,-129 735.5,-129"/>
<text text-anchor="middle" x="765.5" y="-136" font-family="Helvetica,sans-Serif" font-size="10.00" fill="#000000">iostream</text>
</a>
</g>
</g>
<!-- Node7&#45;&gt;Node9 -->
<g id="edge9" class="edge">
<title>Node7&#45;&gt;Node9</title>
<path fill="none" stroke="#191970" d="M664.6745,-190.4639C686.5851,-179.1715 716.3938,-163.8086 737.9105,-152.7192"/>
<polygon fill="#191970" stroke="#191970" points="739.5801,-155.7963 746.8655,-148.1039 736.3732,-149.5741 739.5801,-155.7963"/>
</g>
<!-- Node10 -->
<g id="node11" class="node">
<title>Node10</title>
<g id="a_node11"><a xlink:href="drake__assert_8h.html" target="_top" xlink:title="Provides Drake&#39;s assertion implementation.">
<polygon fill="#ffffff" stroke="#000000" points="856,-56.5 856,-86.5 977,-86.5 977,-56.5 856,-56.5"/>
<text text-anchor="start" x="864" y="-74.5" font-family="Helvetica,sans-Serif" font-size="10.00" fill="#000000">drake/common/drake</text>
<text text-anchor="middle" x="916.5" y="-63.5" font-family="Helvetica,sans-Serif" font-size="10.00" fill="#000000">_assert.h</text>
</a>
</g>
</g>
<!-- Node7&#45;&gt;Node10 -->
<g id="edge12" class="edge">
<title>Node7&#45;&gt;Node10</title>
<path fill="none" stroke="#191970" d="M634.6341,-190.3455C634.4585,-171.749 637.1942,-140.5348 655.5,-123 682.2282,-97.3976 777.7899,-83.667 845.5204,-76.9781"/>
<polygon fill="#191970" stroke="#191970" points="846.0967,-80.4391 855.7181,-76.003 845.4303,-73.4708 846.0967,-80.4391"/>
</g>
<!-- Node10&#45;&gt;Node4 -->
<g id="edge13" class="edge">
<title>Node10&#45;&gt;Node4</title>
<path fill="none" stroke="#191970" d="M943.409,-56.4554C960.7968,-46.734 983.3049,-34.15 1000.5084,-24.5317"/>
<polygon fill="#191970" stroke="#191970" points="1002.4335,-27.4653 1009.4539,-19.5303 999.0174,-21.3554 1002.4335,-27.4653"/>
</g>
<!-- Node12&#45;&gt;Node3 -->
<g id="edge23" class="edge">
<title>Node12&#45;&gt;Node3</title>
<path fill="none" stroke="#191970" d="M828.7149,-198.5532C753.5117,-189.862 623.8518,-173.7002 513.5,-154 501.0848,-151.7836 487.532,-148.8937 475.6868,-146.2105"/>
<polygon fill="#191970" stroke="#191970" points="476.3193,-142.7646 465.7885,-143.9279 474.7463,-149.5855 476.3193,-142.7646"/>
</g>
<!-- Node12&#45;&gt;Node4 -->
<g id="edge24" class="edge">
<title>Node12&#45;&gt;Node4</title>
<path fill="none" stroke="#191970" d="M954.0676,-203.0131C1073.3089,-197.6278 1323.6043,-182.9707 1349.5,-154 1432.9529,-60.6373 1178.4057,-24.637 1071.4642,-13.8584"/>
<polygon fill="#191970" stroke="#191970" points="1071.5827,-10.3534 1061.2898,-12.8643 1070.902,-17.3202 1071.5827,-10.3534"/>
</g>
<!-- Node12&#45;&gt;Node6 -->
<g id="edge25" class="edge">
<title>Node12&#45;&gt;Node6</title>
<path fill="none" stroke="#191970" d="M884.6159,-195.9461C871.33,-178.3041 840.285,-140.7957 804.5,-123 755.9084,-98.8357 595.9606,-81.2038 526.3502,-74.4851"/>
<polygon fill="#191970" stroke="#191970" points="526.6576,-70.9986 516.3714,-73.5372 525.9956,-77.9672 526.6576,-70.9986"/>
</g>
<!-- Node12&#45;&gt;Node8 -->
<g id="edge17" class="edge">
<title>Node12&#45;&gt;Node8</title>
<path fill="none" stroke="#191970" d="M857.3398,-195.9652C823.7271,-186.3199 771.1055,-170.5128 726.5,-154 724.6813,-153.3267 722.8213,-152.6112 720.9519,-151.8713"/>
<polygon fill="#191970" stroke="#191970" points="722.2516,-148.6214 711.6722,-148.05 719.5861,-155.0941 722.2516,-148.6214"/>
</g>
<!-- Node12&#45;&gt;Node9 -->
<g id="edge19" class="edge">
<title>Node12&#45;&gt;Node9</title>
<path fill="none" stroke="#191970" d="M873.4473,-195.9005C852.3016,-184.6564 817.0596,-165.9166 792.6218,-152.9219"/>
<polygon fill="#191970" stroke="#191970" points="793.9918,-149.6864 783.5192,-148.0817 790.7053,-155.867 793.9918,-149.6864"/>
</g>
<!-- Node12&#45;&gt;Node10 -->
<g id="edge27" class="edge">
<title>Node12&#45;&gt;Node10</title>
<path fill="none" stroke="#191970" d="M887.7195,-195.6144C882.2751,-179.8922 873.694,-148.3735 881.5,-123 884.567,-113.0308 890.2938,-103.2608 896.2398,-94.9559"/>
<polygon fill="#191970" stroke="#191970" points="899.1179,-96.9541 902.4133,-86.8848 893.5578,-92.7013 899.1179,-96.9541"/>
</g>
<!-- Node13 -->
<g id="node14" class="node">
<title>Node13</title>
<g id="a_node14"><a xlink:title=" ">
<polygon fill="#ffffff" stroke="#bfbfbf" points="1293,-129 1293,-148 1340,-148 1340,-129 1293,-129"/>
<text text-anchor="middle" x="1316.5" y="-136" font-family="Helvetica,sans-Serif" font-size="10.00" fill="#000000">cmath</text>
</a>
</g>
</g>
<!-- Node12&#45;&gt;Node13 -->
<g id="edge16" class="edge">
<title>Node12&#45;&gt;Node13</title>
<path fill="none" stroke="#191970" d="M954.0451,-203.4612C1032.6799,-199.5094 1171.1079,-187.9223 1284.5,-154 1286.3629,-153.4427 1288.2519,-152.7879 1290.1323,-152.0679"/>
<polygon fill="#191970" stroke="#191970" points="1291.5305,-155.2766 1299.3025,-148.0761 1288.7366,-148.8583 1291.5305,-155.2766"/>
</g>
<!-- Node14 -->
<g id="node15" class="node">
<title>Node14</title>
<g id="a_node15"><a xlink:title=" ">
<polygon fill="#ffffff" stroke="#bfbfbf" points="890,-129 890,-148 955,-148 955,-129 890,-129"/>
<text text-anchor="middle" x="922.5" y="-136" font-family="Helvetica,sans-Serif" font-size="10.00" fill="#000000">functional</text>
</a>
</g>
</g>
<!-- Node12&#45;&gt;Node14 -->
<g id="edge18" class="edge">
<title>Node12&#45;&gt;Node14</title>
<path fill="none" stroke="#191970" d="M895.9415,-195.9005C900.5916,-185.8505 908.0123,-169.8122 913.8291,-157.2403"/>
<polygon fill="#191970" stroke="#191970" points="917.0439,-158.627 918.0667,-148.0817 910.691,-155.6876 917.0439,-158.627"/>
</g>
<!-- Node15 -->
<g id="node16" class="node">
<title>Node15</title>
<g id="a_node16"><a xlink:title=" ">
<polygon fill="#ffffff" stroke="#bfbfbf" points="973.5,-129 973.5,-148 1011.5,-148 1011.5,-129 973.5,-129"/>
<text text-anchor="middle" x="992.5" y="-136" font-family="Helvetica,sans-Serif" font-size="10.00" fill="#000000">map</text>
</a>
</g>
</g>
<!-- Node12&#45;&gt;Node15 -->
<g id="edge20" class="edge">
<title>Node12&#45;&gt;Node15</title>
<path fill="none" stroke="#191970" d="M905.9708,-195.9005C922.6209,-184.8554 950.174,-166.5776 969.7114,-153.6172"/>
<polygon fill="#191970" stroke="#191970" points="971.6576,-156.5263 978.056,-148.0817 967.788,-150.693 971.6576,-156.5263"/>
</g>
<!-- Node16 -->
<g id="node17" class="node">
<title>Node16</title>
<g id="a_node17"><a xlink:title=" ">
<polygon fill="#ffffff" stroke="#bfbfbf" points="1029.5,-129 1029.5,-148 1085.5,-148 1085.5,-129 1029.5,-129"/>
<text text-anchor="middle" x="1057.5" y="-136" font-family="Helvetica,sans-Serif" font-size="10.00" fill="#000000">optional</text>
</a>
</g>
</g>
<!-- Node12&#45;&gt;Node16 -->
<g id="edge21" class="edge">
<title>Node12&#45;&gt;Node16</title>
<path fill="none" stroke="#191970" d="M915.8003,-195.9401C941.769,-185.6908 984.119,-168.8812 1020.5,-154 1022.0954,-153.3474 1023.7282,-152.6761 1025.3761,-151.9959"/>
<polygon fill="#191970" stroke="#191970" points="1026.9351,-155.1383 1034.8269,-148.0693 1024.2493,-148.674 1026.9351,-155.1383"/>
</g>
<!-- Node17 -->
<g id="node18" class="node">
<title>Node17</title>
<g id="a_node18"><a xlink:title=" ">
<polygon fill="#ffffff" stroke="#bfbfbf" points="1103.5,-129 1103.5,-148 1135.5,-148 1135.5,-129 1103.5,-129"/>
<text text-anchor="middle" x="1119.5" y="-136" font-family="Helvetica,sans-Serif" font-size="10.00" fill="#000000">set</text>
</a>
</g>
</g>
<!-- Node12&#45;&gt;Node17 -->
<g id="edge22" class="edge">
<title>Node12&#45;&gt;Node17</title>
<path fill="none" stroke="#191970" d="M948.1439,-195.9677C989.7187,-187.8252 1046.9799,-174.1878 1094.5,-154 1095.205,-153.7005 1095.9133,-153.3828 1096.6219,-153.0503"/>
<polygon fill="#191970" stroke="#191970" points="1098.525,-155.9992 1105.6302,-148.1399 1095.1747,-149.8529 1098.525,-155.9992"/>
</g>
<!-- Node18 -->
<g id="node19" class="node">
<title>Node18</title>
<g id="a_node19"><a xlink:title=" ">
<polygon fill="#ffffff" stroke="#bfbfbf" points="522,-129 522,-148 569,-148 569,-129 522,-129"/>
<text text-anchor="middle" x="545.5" y="-136" font-family="Helvetica,sans-Serif" font-size="10.00" fill="#000000">vector</text>
</a>
</g>
</g>
<!-- Node12&#45;&gt;Node18 -->
<g id="edge26" class="edge">
<title>Node12&#45;&gt;Node18</title>
<path fill="none" stroke="#191970" d="M842.2941,-195.9717C770.865,-182.14 640.3095,-156.8591 578.9909,-144.9852"/>
<polygon fill="#191970" stroke="#191970" points="579.5519,-141.5289 569.0688,-143.0639 578.221,-148.4013 579.5519,-141.5289"/>
</g>
<!-- Node19 -->
<g id="node20" class="node">
<title>Node19</title>
<g id="a_node20"><a xlink:href="drake__throw_8h.html" target="_top" xlink:title="Provides a convenient wrapper to throw an exception when a condition is unmet.">
<polygon fill="#ffffff" stroke="#000000" points="1154,-123.5 1154,-153.5 1275,-153.5 1275,-123.5 1154,-123.5"/>
<text text-anchor="start" x="1162" y="-141.5" font-family="Helvetica,sans-Serif" font-size="10.00" fill="#000000">drake/common/drake</text>
<text text-anchor="middle" x="1214.5" y="-130.5" font-family="Helvetica,sans-Serif" font-size="10.00" fill="#000000">_throw.h</text>
</a>
</g>
</g>
<!-- Node12&#45;&gt;Node19 -->
<g id="edge28" class="edge">
<title>Node12&#45;&gt;Node19</title>
<path fill="none" stroke="#191970" d="M939.5819,-195.9669C988.4251,-186.2258 1066.5175,-170.4953 1143.8865,-154.1111"/>
<polygon fill="#191970" stroke="#191970" points="1144.7519,-157.5054 1153.8074,-152.0056 1143.2987,-150.6579 1144.7519,-157.5054"/>
</g>
<!-- Node19&#45;&gt;Node4 -->
<g id="edge29" class="edge">
<title>Node19&#45;&gt;Node4</title>
<path fill="none" stroke="#191970" d="M1192.1957,-123.2548C1156.1502,-98.6173 1085.4758,-50.3106 1049.1869,-25.5068"/>
<polygon fill="#191970" stroke="#191970" points="1050.9746,-22.4892 1040.7438,-19.7358 1047.0246,-28.2683 1050.9746,-22.4892"/>
</g>
<!-- Node19&#45;&gt;Node10 -->
<g id="edge30" class="edge">
<title>Node19&#45;&gt;Node10</title>
<path fill="none" stroke="#191970" d="M1153.8361,-124.8608C1105.4951,-113.9922 1037.7389,-98.7584 986.991,-87.3486"/>
<polygon fill="#191970" stroke="#191970" points="987.6032,-83.899 977.079,-85.1201 986.0677,-90.7285 987.6032,-83.899"/>
</g>
<!-- Node20&#45;&gt;Node1 -->
<g id="edge32" class="edge">
<title>Node20&#45;&gt;Node1</title>
<path fill="none" stroke="#191970" d="M211.7224,-195.9005C244.7374,-184.2584 300.5403,-164.5805 337.4526,-151.5641"/>
<polygon fill="#191970" stroke="#191970" points="339.0613,-154.7081 347.3281,-148.0817 336.7333,-148.1065 339.0613,-154.7081"/>
</g>
<!-- Node20&#45;&gt;Node4 -->
<g id="edge33" class="edge">
<title>Node20&#45;&gt;Node4</title>
<path fill="none" stroke="#191970" d="M200.2779,-195.7883C250.4131,-165.1273 406.0909,-71.4973 462.5,-56 560.1055,-29.1849 866.0157,-15.734 981.6387,-11.507"/>
<polygon fill="#191970" stroke="#191970" points="982.0312,-14.9952 991.8989,-11.1379 981.7795,-7.9997 982.0312,-14.9952"/>
</g>
<!-- Node21&#45;&gt;Node1 -->
<g id="edge35" class="edge">
<title>Node21&#45;&gt;Node1</title>
<path fill="none" stroke="#191970" d="M359.0383,-190.2967C361.9124,-180.6685 365.6547,-168.1318 368.7377,-157.8038"/>
<polygon fill="#191970" stroke="#191970" points="372.1411,-158.6383 371.6478,-148.055 365.4336,-156.636 372.1411,-158.6383"/>
</g>
<!-- Node21&#45;&gt;Node3 -->
<g id="edge36" class="edge">
<title>Node21&#45;&gt;Node3</title>
<path fill="none" stroke="#191970" d="M374.6955,-190.2967C388.966,-179.5537 408.0468,-165.1895 422.4948,-154.3129"/>
<polygon fill="#191970" stroke="#191970" points="424.9234,-156.8656 430.8076,-148.055 420.7133,-151.2731 424.9234,-156.8656"/>
</g>
<!-- Node21&#45;&gt;Node5 -->
<g id="edge37" class="edge">
<title>Node21&#45;&gt;Node5</title>
<path fill="none" stroke="#191970" d="M284.4149,-191.3754C227.3085,-179.613 151.408,-163.3308 121.5,-154 119.3447,-153.3276 117.1408,-152.5842 114.9333,-151.7976"/>
<polygon fill="#191970" stroke="#191970" points="115.9629,-148.4446 105.3719,-148.1595 113.4735,-154.987 115.9629,-148.4446"/>
</g>
<!-- Node21&#45;&gt;Node6 -->
<g id="edge38" class="edge">
<title>Node21&#45;&gt;Node6</title>
<path fill="none" stroke="#191970" d="M344.6405,-190.3433C334.4657,-172.5912 321.9657,-143.0639 336.5,-123 351.2382,-102.6547 419.3057,-86.0411 460.8269,-77.5771"/>
<polygon fill="#191970" stroke="#191970" points="461.6361,-80.9848 470.7625,-75.6035 460.2722,-74.1189 461.6361,-80.9848"/>
</g>
<!-- Node21&#45;&gt;Node18 -->
<g id="edge39" class="edge">
<title>Node21&#45;&gt;Node18</title>
<path fill="none" stroke="#191970" d="M397.3641,-190.4639C432.1001,-178.279 480.3471,-161.3547 512.2203,-150.174"/>
<polygon fill="#191970" stroke="#191970" points="513.6778,-153.3719 521.9555,-146.7591 511.3607,-146.7665 513.6778,-153.3719"/>
</g>
<!-- Node22 -->
<g id="node23" class="node">
<title>Node22</title>
<g id="a_node23"><a xlink:href="never__destroyed_8h.html" target="_top" xlink:title=" ">
<polygon fill="#ffffff" stroke="#000000" points="130,-123.5 130,-153.5 251,-153.5 251,-123.5 130,-123.5"/>
<text text-anchor="start" x="138" y="-141.5" font-family="Helvetica,sans-Serif" font-size="10.00" fill="#000000">drake/common/never</text>
<text text-anchor="middle" x="190.5" y="-130.5" font-family="Helvetica,sans-Serif" font-size="10.00" fill="#000000">_destroyed.h</text>
</a>
</g>
</g>
<!-- Node21&#45;&gt;Node22 -->
<g id="edge40" class="edge">
<title>Node21&#45;&gt;Node22</title>
<path fill="none" stroke="#191970" d="M317.6952,-190.4639C293.8291,-180.7137 262.5349,-167.9289 236.9598,-157.4805"/>
<polygon fill="#191970" stroke="#191970" points="238.0463,-154.1436 227.4653,-153.6017 235.3989,-160.6237 238.0463,-154.1436"/>
</g>
<!-- Node22&#45;&gt;Node4 -->
<g id="edge42" class="edge">
<title>Node22&#45;&gt;Node4</title>
<path fill="none" stroke="#191970" d="M199.0983,-123.3435C211.1194,-103.8121 234.949,-70.6328 265.5,-56 330.0452,-25.0852 828.7036,-13.5737 981.8877,-10.7458"/>
<polygon fill="#191970" stroke="#191970" points="981.9554,-14.2453 991.8903,-10.5645 981.8284,-7.2464 981.9554,-14.2453"/>
</g>
<!-- Node22&#45;&gt;Node6 -->
<g id="edge43" class="edge">
<title>Node22&#45;&gt;Node6</title>
<path fill="none" stroke="#191970" d="M251.0883,-125.1026C314.2916,-111.1269 410.9933,-89.7441 461.0137,-78.6834"/>
<polygon fill="#191970" stroke="#191970" points="461.9417,-82.0629 470.9501,-76.4863 460.4303,-75.228 461.9417,-82.0629"/>
</g>
<!-- Node22&#45;&gt;Node11 -->
<g id="edge44" class="edge">
<title>Node22&#45;&gt;Node11</title>
<path fill="none" stroke="#191970" d="M161.3255,-123.4639C142.9719,-114.0047 119.0765,-101.6894 99.155,-91.4222"/>
<polygon fill="#191970" stroke="#191970" points="100.5193,-88.1879 90.027,-86.7177 97.3124,-94.4101 100.5193,-88.1879"/>
</g>
<!-- Node23 -->
<g id="node24" class="node">
<title>Node23</title>
<g id="a_node24"><a xlink:title=" ">
<polygon fill="#ffffff" stroke="#bfbfbf" points="172,-62 172,-81 209,-81 209,-62 172,-62"/>
<text text-anchor="middle" x="190.5" y="-69" font-family="Helvetica,sans-Serif" font-size="10.00" fill="#000000">new</text>
</a>
</g>
</g>
<!-- Node22&#45;&gt;Node23 -->
<g id="edge41" class="edge">
<title>Node22&#45;&gt;Node23</title>
<path fill="none" stroke="#191970" d="M190.5,-123.2967C190.5,-113.7699 190.5,-101.3954 190.5,-91.1306"/>
<polygon fill="#191970" stroke="#191970" points="194.0001,-91.0549 190.5,-81.055 187.0001,-91.055 194.0001,-91.0549"/>
</g>
</g>
</svg>
        <g id="navigator" transform="translate(0 0)" fill="#404254">
                <rect fill="#f2f5e9" fill-opacity="0.5" stroke="#606060" stroke-width=".5" x="0" y="0" width="60" height="60"/>
                <use id="zoomplus" xlink:href="#zoomPlus" x="17" y="9" onmousedown="handleZoom(evt,'in')"/>
                <use id="zoomminus" xlink:href="#zoomMin" x="42" y="9" onmousedown="handleZoom(evt,'out')"/>
                <use id="reset" xlink:href="#resetDef" x="30" y="36" onmousedown="handleReset()"/>
                <g id="arrowUp" xlink:href="#dirArrow" transform="translate(30 24)" onmousedown="handlePan(0,-1)">
                  <use xlink:href="#rim" fill="#404040">
                        <set attributeName="fill" to="#808080" begin="arrowUp.mouseover" end="arrowUp.mouseout"/>
                  </use>
                  <path fill="none" stroke="white" stroke-width="1.5" d="M0,-3.0v7 M-2.5,-0.5L0,-3.0L2.5,-0.5"/>
                </g>
                <g id="arrowRight" xlink:href="#dirArrow" transform="rotate(90) translate(36 -43)" onmousedown="handlePan(1,0)">
                  <use xlink:href="#rim" fill="#404040">
                        <set attributeName="fill" to="#808080" begin="arrowRight.mouseover" end="arrowRight.mouseout"/>
                  </use>
                  <path fill="none" stroke="white" stroke-width="1.5" d="M0,-3.0v7 M-2.5,-0.5L0,-3.0L2.5,-0.5"/>
                </g>
                <g id="arrowDown" xlink:href="#dirArrow" transform="rotate(180) translate(-30 -48)" onmousedown="handlePan(0,1)">
                  <use xlink:href="#rim" fill="#404040">
                        <set attributeName="fill" to="#808080" begin="arrowDown.mouseover" end="arrowDown.mouseout"/>
                  </use>
                  <path fill="none" stroke="white" stroke-width="1.5" d="M0,-3.0v7 M-2.5,-0.5L0,-3.0L2.5,-0.5"/>
                </g>
                <g id="arrowLeft" xlink:href="#dirArrow" transform="rotate(270) translate(-36 17)" onmousedown="handlePan(-1,0)">
                  <use xlink:href="#rim" fill="#404040">
                        <set attributeName="fill" to="#808080" begin="arrowLeft.mouseover" end="arrowLeft.mouseout"/>
                  </use>
                  <path fill="none" stroke="white" stroke-width="1.5" d="M0,-3.0v7 M-2.5,-0.5L0,-3.0L2.5,-0.5"/>
                </g>
        </g>
        <svg viewBox="0 0 15 15" width="100%" height="30px" preserveAspectRatio="xMaxYMin meet">
         <g id="arrow_out" transform="scale(0.3 0.3)">
          <a xlink:href="value_8h__incl_org.svg" target="_base">
           <rect id="button" ry="5" rx="5" y="6" x="6" height="38" width="38"
                fill="#f2f5e9" fill-opacity="0.5" stroke="#606060" stroke-width="1.0"/>
           <path id="arrow"
             d="M 11.500037,31.436501 C 11.940474,20.09759 22.043105,11.32322 32.158766,21.979434 L 37.068811,17.246167 C 37.068811,17.246167 37.088388,32 37.088388,32 L 22.160133,31.978069 C 22.160133,31.978069 26.997745,27.140456 26.997745,27.140456 C 18.528582,18.264221 13.291696,25.230495 11.500037,31.436501 z"
             style="fill:#404040;"/>
          </a>
         </g>
        </svg>
</svg>
