<?xml version="1.0" encoding="UTF-8" standalone="no"?>
<!DOCTYPE svg PUBLIC "-//W3C//DTD SVG 1.1//EN"
 "http://www.w3.org/Graphics/SVG/1.1/DTD/svg11.dtd">
<!-- Generated by graphviz version 2.40.1 (20161225.0304)
 -->
<!-- Title: drake/systems/framework/vector_system.h Pages: 1 -->
<svg width="989pt" height="184pt"
 viewBox="0.00 0.00 989.00 184.00" xmlns="http://www.w3.org/2000/svg" xmlns:xlink="http://www.w3.org/1999/xlink">
<g id="graph0" class="graph" transform="scale(1 1) rotate(0) translate(4 180)">
<title>drake/systems/framework/vector_system.h</title>
<polygon fill="#ffffff" stroke="transparent" points="-4,4 -4,-180 985,-180 985,4 -4,4"/>
<!-- Node118 -->
<g id="node1" class="node">
<title>Node118</title>
<g id="a_node1"><a xlink:title=" ">
<polygon fill="#bfbfbf" stroke="#000000" points="364,-145.5 364,-175.5 509,-175.5 509,-145.5 364,-145.5"/>
<text text-anchor="start" x="372" y="-163.5" font-family="Helvetica,sans-Serif" font-size="10.00" fill="#000000">drake/systems/framework</text>
<text text-anchor="middle" x="436.5" y="-152.5" font-family="Helvetica,sans-Serif" font-size="10.00" fill="#000000">/vector_system.h</text>
</a>
</g>
</g>
<!-- Node119 -->
<g id="node2" class="node">
<title>Node119</title>
<g id="a_node2"><a xlink:href="schunk__wsg__constants_8h.html" target="_top" xlink:title="Constants defined in this file are for the Schunk WSG gripper modeled in models/schunk_wsg_50....">
<polygon fill="#ffffff" stroke="#000000" points="0,-67.5 0,-108.5 141,-108.5 141,-67.5 0,-67.5"/>
<text text-anchor="start" x="8" y="-96.5" font-family="Helvetica,sans-Serif" font-size="10.00" fill="#000000">drake/manipulation</text>
<text text-anchor="start" x="8" y="-85.5" font-family="Helvetica,sans-Serif" font-size="10.00" fill="#000000">/schunk_wsg/schunk_wsg</text>
<text text-anchor="middle" x="70.5" y="-74.5" font-family="Helvetica,sans-Serif" font-size="10.00" fill="#000000">_constants.h</text>
</a>
</g>
</g>
<!-- Node118&#45;&gt;Node119 -->
<g id="edge1" class="edge">
<title>Node118&#45;&gt;Node119</title>
<path fill="none" stroke="#191970" d="M353.8852,-146.7229C297.7615,-137.0296 221.942,-123.2822 155.5,-109 150.893,-108.0097 146.1554,-106.9513 141.3863,-105.8558"/>
<polygon fill="#191970" stroke="#191970" points="353.3265,-150.1782 363.7751,-148.4244 354.5133,-143.2795 353.3265,-150.1782"/>
</g>
<!-- Node120 -->
<g id="node3" class="node">
<title>Node120</title>
<g id="a_node3"><a xlink:href="dynamic__programming_8h.html" target="_top" xlink:title=" ">
<polygon fill="#ffffff" stroke="#000000" points="147,-.5 147,-30.5 290,-30.5 290,-.5 147,-.5"/>
<text text-anchor="start" x="155" y="-18.5" font-family="Helvetica,sans-Serif" font-size="10.00" fill="#000000">drake/systems/controllers</text>
<text text-anchor="middle" x="218.5" y="-7.5" font-family="Helvetica,sans-Serif" font-size="10.00" fill="#000000">/dynamic_programming.h</text>
</a>
</g>
</g>
<!-- Node118&#45;&gt;Node120 -->
<g id="edge2" class="edge">
<title>Node118&#45;&gt;Node120</title>
<path fill="none" stroke="#191970" d="M353.9441,-154.3046C290.4123,-147.6183 210.0903,-134.3262 189.5,-109 170.7378,-85.9224 191.1788,-50.7036 205.9924,-30.7271"/>
<polygon fill="#191970" stroke="#191970" points="353.6828,-157.7959 363.9847,-155.3218 354.3884,-150.8316 353.6828,-157.7959"/>
</g>
<!-- Node121 -->
<g id="node4" class="node">
<title>Node121</title>
<g id="a_node4"><a xlink:href="barycentric__system_8h.html" target="_top" xlink:title=" ">
<polygon fill="#ffffff" stroke="#000000" points="198,-73 198,-103 339,-103 339,-73 198,-73"/>
<text text-anchor="start" x="206" y="-91" font-family="Helvetica,sans-Serif" font-size="10.00" fill="#000000">drake/systems/primitives</text>
<text text-anchor="middle" x="268.5" y="-80" font-family="Helvetica,sans-Serif" font-size="10.00" fill="#000000">/barycentric_system.h</text>
</a>
</g>
</g>
<!-- Node118&#45;&gt;Node121 -->
<g id="edge3" class="edge">
<title>Node118&#45;&gt;Node121</title>
<path fill="none" stroke="#191970" d="M392.197,-141.3811C364.39,-129.3811 329.0461,-114.1285 303.2651,-103.0028"/>
<polygon fill="#191970" stroke="#191970" points="391.1219,-144.7292 401.6903,-145.478 393.8956,-138.3021 391.1219,-144.7292"/>
</g>
<!-- Node122 -->
<g id="node5" class="node">
<title>Node122</title>
<g id="a_node5"><a xlink:href="first__order__low__pass__filter_8h.html" target="_top" xlink:title=" ">
<polygon fill="#ffffff" stroke="#000000" points="357.5,-73 357.5,-103 515.5,-103 515.5,-73 357.5,-73"/>
<text text-anchor="start" x="365.5" y="-91" font-family="Helvetica,sans-Serif" font-size="10.00" fill="#000000">drake/systems/primitives</text>
<text text-anchor="middle" x="436.5" y="-80" font-family="Helvetica,sans-Serif" font-size="10.00" fill="#000000">/first_order_low_pass_filter.h</text>
</a>
</g>
</g>
<!-- Node118&#45;&gt;Node122 -->
<g id="edge5" class="edge">
<title>Node118&#45;&gt;Node122</title>
<path fill="none" stroke="#191970" d="M436.5,-135.3409C436.5,-124.5601 436.5,-112.3309 436.5,-103.0028"/>
<polygon fill="#191970" stroke="#191970" points="433.0001,-135.4779 436.5,-145.478 440.0001,-135.478 433.0001,-135.4779"/>
</g>
<!-- Node123 -->
<g id="node6" class="node">
<title>Node123</title>
<g id="a_node6"><a xlink:href="gain_8h.html" target="_top" xlink:title=" ">
<polygon fill="#ffffff" stroke="#000000" points="534,-73 534,-103 675,-103 675,-73 534,-73"/>
<text text-anchor="start" x="542" y="-91" font-family="Helvetica,sans-Serif" font-size="10.00" fill="#000000">drake/systems/primitives</text>
<text text-anchor="middle" x="604.5" y="-80" font-family="Helvetica,sans-Serif" font-size="10.00" fill="#000000">/gain.h</text>
</a>
</g>
</g>
<!-- Node118&#45;&gt;Node123 -->
<g id="edge6" class="edge">
<title>Node118&#45;&gt;Node123</title>
<path fill="none" stroke="#191970" d="M480.803,-141.3811C508.61,-129.3811 543.9539,-114.1285 569.7349,-103.0028"/>
<polygon fill="#191970" stroke="#191970" points="479.1044,-138.3021 471.3097,-145.478 481.8781,-144.7292 479.1044,-138.3021"/>
</g>
<!-- Node124 -->
<g id="node7" class="node">
<title>Node124</title>
<g id="a_node7"><a xlink:href="integrator_8h.html" target="_top" xlink:title=" ">
<polygon fill="#ffffff" stroke="#000000" points="693,-73 693,-103 834,-103 834,-73 693,-73"/>
<text text-anchor="start" x="701" y="-91" font-family="Helvetica,sans-Serif" font-size="10.00" fill="#000000">drake/systems/primitives</text>
<text text-anchor="middle" x="763.5" y="-80" font-family="Helvetica,sans-Serif" font-size="10.00" fill="#000000">/integrator.h</text>
</a>
</g>
</g>
<!-- Node118&#45;&gt;Node124 -->
<g id="edge7" class="edge">
<title>Node118&#45;&gt;Node124</title>
<path fill="none" stroke="#191970" d="M519.265,-144.4986C567.5933,-134.8595 629.6667,-121.971 684.5,-109 692.2338,-107.1705 700.3644,-105.1366 708.348,-103.0751"/>
<polygon fill="#191970" stroke="#191970" points="518.2944,-141.1229 509.1684,-146.505 519.6588,-147.9887 518.2944,-141.1229"/>
</g>
<!-- Node125 -->
<g id="node8" class="node">
<title>Node125</title>
<g id="a_node8"><a xlink:href="rotary__encoders_8h.html" target="_top" xlink:title=" ">
<polygon fill="#ffffff" stroke="#000000" points="852,-73 852,-103 981,-103 981,-73 852,-73"/>
<text text-anchor="start" x="860" y="-91" font-family="Helvetica,sans-Serif" font-size="10.00" fill="#000000">drake/systems/sensors</text>
<text text-anchor="middle" x="916.5" y="-80" font-family="Helvetica,sans-Serif" font-size="10.00" fill="#000000">/rotary_encoders.h</text>
</a>
</g>
</g>
<!-- Node118&#45;&gt;Node125 -->
<g id="edge8" class="edge">
<title>Node118&#45;&gt;Node125</title>
<path fill="none" stroke="#191970" d="M519.1926,-153.8051C601.8616,-146.2309 732.3336,-131.8805 843.5,-109 851.5084,-107.3517 859.9196,-105.27 868.0686,-103.0616"/>
<polygon fill="#191970" stroke="#191970" points="518.7468,-150.331 509.1028,-154.7176 519.3774,-157.3026 518.7468,-150.331"/>
</g>
<!-- Node121&#45;&gt;Node120 -->
<g id="edge4" class="edge">
<title>Node121&#45;&gt;Node120</title>
<path fill="none" stroke="#191970" d="M252.3021,-64.513C244.5978,-53.3418 235.615,-40.3167 228.8468,-30.5028"/>
<polygon fill="#191970" stroke="#191970" points="249.5813,-66.7329 258.14,-72.978 255.3438,-62.7587 249.5813,-66.7329"/>
</g>
</g>
</svg>
