<?xml version="1.0" encoding="UTF-8" standalone="no"?>
<!DOCTYPE svg PUBLIC "-//W3C//DTD SVG 1.1//EN"
 "http://www.w3.org/Graphics/SVG/1.1/DTD/svg11.dtd">
<!-- Generated by graphviz version 2.40.1 (20161225.0304)
 -->
<!-- Title: drake/geometry/proximity/volume_to_surface_mesh.h Pages: 1 -->
<svg width="600pt" height="173pt"
 viewBox="0.00 0.00 600.00 173.00" xmlns="http://www.w3.org/2000/svg" xmlns:xlink="http://www.w3.org/1999/xlink">
<g id="graph0" class="graph" transform="scale(1 1) rotate(0) translate(4 169)">
<title>drake/geometry/proximity/volume_to_surface_mesh.h</title>
<polygon fill="#ffffff" stroke="transparent" points="-4,4 -4,-169 596,-169 596,4 -4,4"/>
<!-- Node71 -->
<g id="node1" class="node">
<title>Node71</title>
<g id="a_node1"><a xlink:title=" ">
<polygon fill="#bfbfbf" stroke="#000000" points="208.5,-134.5 208.5,-164.5 362.5,-164.5 362.5,-134.5 208.5,-134.5"/>
<text text-anchor="start" x="216.5" y="-152.5" font-family="Helvetica,sans-Serif" font-size="10.00" fill="#000000">drake/geometry/proximity</text>
<text text-anchor="middle" x="285.5" y="-141.5" font-family="Helvetica,sans-Serif" font-size="10.00" fill="#000000">/volume_to_surface_mesh.h</text>
</a>
</g>
</g>
<!-- Node72 -->
<g id="node2" class="node">
<title>Node72</title>
<g id="a_node2"><a xlink:href="make__box__mesh_8h.html" target="_top" xlink:title=" ">
<polygon fill="#ffffff" stroke="#000000" points="0,-67.5 0,-97.5 145,-97.5 145,-67.5 0,-67.5"/>
<text text-anchor="start" x="8" y="-85.5" font-family="Helvetica,sans-Serif" font-size="10.00" fill="#000000">drake/geometry/proximity</text>
<text text-anchor="middle" x="72.5" y="-74.5" font-family="Helvetica,sans-Serif" font-size="10.00" fill="#000000">/make_box_mesh.h</text>
</a>
</g>
</g>
<!-- Node71&#45;&gt;Node72 -->
<g id="edge1" class="edge">
<title>Node71&#45;&gt;Node72</title>
<path fill="none" stroke="#191970" d="M227.9973,-131.4123C194.3545,-120.8298 152.3702,-107.6235 120.5098,-97.6017"/>
<polygon fill="#191970" stroke="#191970" points="227.1092,-134.802 237.6986,-134.4639 229.2097,-128.1245 227.1092,-134.802"/>
</g>
<!-- Node73 -->
<g id="node3" class="node">
<title>Node73</title>
<g id="a_node3"><a xlink:href="make__cylinder__mesh_8h.html" target="_top" xlink:title=" ">
<polygon fill="#ffffff" stroke="#000000" points="163,-67.5 163,-97.5 308,-97.5 308,-67.5 163,-67.5"/>
<text text-anchor="start" x="171" y="-85.5" font-family="Helvetica,sans-Serif" font-size="10.00" fill="#000000">drake/geometry/proximity</text>
<text text-anchor="middle" x="235.5" y="-74.5" font-family="Helvetica,sans-Serif" font-size="10.00" fill="#000000">/make_cylinder_mesh.h</text>
</a>
</g>
</g>
<!-- Node71&#45;&gt;Node73 -->
<g id="edge2" class="edge">
<title>Node71&#45;&gt;Node73</title>
<path fill="none" stroke="#191970" d="M268.0094,-126.0626C260.9713,-116.6315 253.0579,-106.0276 246.8009,-97.6432"/>
<polygon fill="#191970" stroke="#191970" points="265.3683,-128.3756 274.1542,-134.2967 270.9784,-124.189 265.3683,-128.3756"/>
</g>
<!-- Node74 -->
<g id="node4" class="node">
<title>Node74</title>
<g id="a_node4"><a xlink:href="make__ellipsoid__mesh_8h.html" target="_top" xlink:title=" ">
<polygon fill="#ffffff" stroke="#000000" points="264,-.5 264,-30.5 409,-30.5 409,-.5 264,-.5"/>
<text text-anchor="start" x="272" y="-18.5" font-family="Helvetica,sans-Serif" font-size="10.00" fill="#000000">drake/geometry/proximity</text>
<text text-anchor="middle" x="336.5" y="-7.5" font-family="Helvetica,sans-Serif" font-size="10.00" fill="#000000">/make_ellipsoid_mesh.h</text>
</a>
</g>
</g>
<!-- Node71&#45;&gt;Node74 -->
<g id="edge3" class="edge">
<title>Node71&#45;&gt;Node74</title>
<path fill="none" stroke="#191970" d="M302.2861,-126.1358C307.7888,-117.6091 313.5086,-107.6781 317.5,-98 326.8023,-75.4445 332.0296,-47.4518 334.5554,-30.5572"/>
<polygon fill="#191970" stroke="#191970" points="299.377,-124.1897 296.7117,-134.4438 305.1898,-128.0899 299.377,-124.1897"/>
</g>
<!-- Node75 -->
<g id="node5" class="node">
<title>Node75</title>
<g id="a_node5"><a xlink:href="make__sphere__mesh_8h.html" target="_top" xlink:title=" ">
<polygon fill="#ffffff" stroke="#000000" points="365,-67.5 365,-97.5 510,-97.5 510,-67.5 365,-67.5"/>
<text text-anchor="start" x="373" y="-85.5" font-family="Helvetica,sans-Serif" font-size="10.00" fill="#000000">drake/geometry/proximity</text>
<text text-anchor="middle" x="437.5" y="-74.5" font-family="Helvetica,sans-Serif" font-size="10.00" fill="#000000">/make_sphere_mesh.h</text>
</a>
</g>
</g>
<!-- Node71&#45;&gt;Node75 -->
<g id="edge4" class="edge">
<title>Node71&#45;&gt;Node75</title>
<path fill="none" stroke="#191970" d="M329.0282,-130.3132C352.5917,-119.9267 381.284,-107.2794 403.2395,-97.6017"/>
<polygon fill="#191970" stroke="#191970" points="327.3505,-127.2277 319.6118,-134.4639 330.174,-133.6331 327.3505,-127.2277"/>
</g>
<!-- Node75&#45;&gt;Node74 -->
<g id="edge5" class="edge">
<title>Node75&#45;&gt;Node74</title>
<path fill="none" stroke="#191970" d="M406.2881,-61.7951C391.1543,-51.7558 373.3008,-39.9124 359.4402,-30.7177"/>
<polygon fill="#191970" stroke="#191970" points="404.5656,-64.8525 414.8336,-67.4639 408.4352,-59.0193 404.5656,-64.8525"/>
</g>
<!-- Node76 -->
<g id="node6" class="node">
<title>Node76</title>
<g id="a_node6"><a xlink:href="hydroelastic__field__sphere_8h.html" target="_top" xlink:title=" ">
<polygon fill="#ffffff" stroke="#000000" points="427,-.5 427,-30.5 592,-30.5 592,-.5 427,-.5"/>
<text text-anchor="start" x="435" y="-18.5" font-family="Helvetica,sans-Serif" font-size="10.00" fill="#000000">drake/multibody/hydroelastics</text>
<text text-anchor="middle" x="509.5" y="-7.5" font-family="Helvetica,sans-Serif" font-size="10.00" fill="#000000">/hydroelastic_field_sphere.h</text>
</a>
</g>
</g>
<!-- Node75&#45;&gt;Node76 -->
<g id="edge6" class="edge">
<title>Node75&#45;&gt;Node76</title>
<path fill="none" stroke="#191970" d="M461.452,-60.2113C471.8871,-50.5009 483.8488,-39.3698 493.2267,-30.6432"/>
<polygon fill="#191970" stroke="#191970" points="458.7743,-57.9221 453.8379,-67.2967 463.5429,-63.0466 458.7743,-57.9221"/>
</g>
</g>
</svg>
