<?xml version="1.0" encoding="UTF-8" standalone="no"?>
<!DOCTYPE svg PUBLIC "-//W3C//DTD SVG 1.1//EN"
 "http://www.w3.org/Graphics/SVG/1.1/DTD/svg11.dtd">
<!-- Generated by graphviz version 2.40.1 (20161225.0304)
 -->
<!-- Title: drake/bindings/pydrake/common/wrap_pybind.h Pages: 1 -->
<svg width="799pt" height="229pt"
 viewBox="0.00 0.00 798.81 229.00" xmlns="http://www.w3.org/2000/svg" xmlns:xlink="http://www.w3.org/1999/xlink">
<g id="graph0" class="graph" transform="scale(1 1) rotate(0) translate(4 225)">
<title>drake/bindings/pydrake/common/wrap_pybind.h</title>
<polygon fill="#ffffff" stroke="transparent" points="-4,4 -4,-225 794.8094,-225 794.8094,4 -4,4"/>
<!-- Node0 -->
<g id="node1" class="node">
<title>Node0</title>
<g id="a_node1"><a xlink:title="Defines convenience utilities to wrap pybind11 methods and classes.">
<polygon fill="#bfbfbf" stroke="#000000" points="205.8094,-190.5 205.8094,-220.5 342.8094,-220.5 342.8094,-190.5 205.8094,-190.5"/>
<text text-anchor="start" x="213.8094" y="-208.5" font-family="Helvetica,sans-Serif" font-size="10.00" fill="#000000">drake/bindings/pydrake</text>
<text text-anchor="middle" x="274.3094" y="-197.5" font-family="Helvetica,sans-Serif" font-size="10.00" fill="#000000">/common/wrap_pybind.h</text>
</a>
</g>
</g>
<!-- Node1 -->
<g id="node2" class="node">
<title>Node1</title>
<g id="a_node2"><a xlink:title=" ">
<polygon fill="#ffffff" stroke="#bfbfbf" points="443.3094,-62 443.3094,-81 501.3094,-81 501.3094,-62 443.3094,-62"/>
<text text-anchor="middle" x="472.3094" y="-69" font-family="Helvetica,sans-Serif" font-size="10.00" fill="#000000">memory</text>
</a>
</g>
</g>
<!-- Node0&#45;&gt;Node1 -->
<g id="edge1" class="edge">
<title>Node0&#45;&gt;Node1</title>
<path fill="none" stroke="#191970" d="M343.0119,-193.5854C387.4499,-184.4906 439.8029,-170.6984 455.3094,-154 470.9668,-137.139 473.7993,-109.839 473.6572,-91.3015"/>
<polygon fill="#191970" stroke="#191970" points="477.1456,-90.9247 473.2723,-81.0633 470.1505,-91.1878 477.1456,-90.9247"/>
</g>
<!-- Node2 -->
<g id="node3" class="node">
<title>Node2</title>
<g id="a_node3"><a xlink:title=" ">
<polygon fill="#ffffff" stroke="#bfbfbf" points="14.3094,-129 14.3094,-148 58.3094,-148 58.3094,-129 14.3094,-129"/>
<text text-anchor="middle" x="36.3094" y="-136" font-family="Helvetica,sans-Serif" font-size="10.00" fill="#000000">string</text>
</a>
</g>
</g>
<!-- Node0&#45;&gt;Node2 -->
<g id="edge2" class="edge">
<title>Node0&#45;&gt;Node2</title>
<path fill="none" stroke="#191970" d="M205.7358,-190.8386C166.2686,-181.7023 115.9918,-168.8696 72.3094,-154 70.4252,-153.3586 68.5016,-152.6614 66.5722,-151.9296"/>
<polygon fill="#191970" stroke="#191970" points="67.6155,-148.5764 57.0324,-148.0794 64.9956,-155.0677 67.6155,-148.5764"/>
</g>
<!-- Node3 -->
<g id="node4" class="node">
<title>Node3</title>
<g id="a_node4"><a xlink:title=" ">
<polygon fill="#ffffff" stroke="#bfbfbf" points="378.8094,-.5 378.8094,-19.5 447.8094,-19.5 447.8094,-.5 378.8094,-.5"/>
<text text-anchor="middle" x="413.3094" y="-7.5" font-family="Helvetica,sans-Serif" font-size="10.00" fill="#000000">type_traits</text>
</a>
</g>
</g>
<!-- Node0&#45;&gt;Node3 -->
<g id="edge3" class="edge">
<title>Node0&#45;&gt;Node3</title>
<path fill="none" stroke="#191970" d="M205.6548,-202.0415C134.5109,-196.8505 30.2666,-184.1885 5.3094,-154 -3.4694,-143.3811 .6096,-135.9514 5.3094,-123 18.5479,-86.5183 27.2932,-74.6835 61.3094,-56 113.3069,-27.4403 286.1644,-15.821 368.6985,-11.8145"/>
<polygon fill="#191970" stroke="#191970" points="368.9514,-15.3066 378.7762,-11.3415 368.6231,-8.3143 368.9514,-15.3066"/>
</g>
<!-- Node4 -->
<g id="node5" class="node">
<title>Node4</title>
<g id="a_node5"><a xlink:title=" ">
<polygon fill="#ffffff" stroke="#bfbfbf" points="252.8094,-62 252.8094,-81 297.8094,-81 297.8094,-62 252.8094,-62"/>
<text text-anchor="middle" x="275.3094" y="-69" font-family="Helvetica,sans-Serif" font-size="10.00" fill="#000000">utility</text>
</a>
</g>
</g>
<!-- Node0&#45;&gt;Node4 -->
<g id="edge4" class="edge">
<title>Node0&#45;&gt;Node4</title>
<path fill="none" stroke="#191970" d="M274.4222,-190.389C274.6036,-166.0735 274.9604,-118.2644 275.1619,-91.2698"/>
<polygon fill="#191970" stroke="#191970" points="278.6629,-91.13 275.2377,-81.1042 271.6631,-91.0777 278.6629,-91.13"/>
</g>
<!-- Node5 -->
<g id="node6" class="node">
<title>Node5</title>
<g id="a_node6"><a xlink:title=" ">
<polygon fill="#ffffff" stroke="#bfbfbf" points="70.8094,-62 70.8094,-81 189.8094,-81 189.8094,-62 70.8094,-62"/>
<text text-anchor="middle" x="130.3094" y="-69" font-family="Helvetica,sans-Serif" font-size="10.00" fill="#000000">pybind11/pybind11.h</text>
</a>
</g>
</g>
<!-- Node0&#45;&gt;Node5 -->
<g id="edge5" class="edge">
<title>Node0&#45;&gt;Node5</title>
<path fill="none" stroke="#191970" d="M205.3981,-192.9572C164.6015,-183.9736 118.5517,-170.5574 106.3094,-154 92.1118,-134.7981 105.0576,-107.3483 116.7501,-89.476"/>
<polygon fill="#191970" stroke="#191970" points="119.745,-91.3004 122.5999,-81.0974 114.0054,-87.2931 119.745,-91.3004"/>
</g>
<!-- Node6 -->
<g id="node7" class="node">
<title>Node6</title>
<g id="a_node7"><a xlink:href="wrap__function_8h.html" target="_top" xlink:title=" ">
<polygon fill="#ffffff" stroke="#000000" points="302.8094,-123.5 302.8094,-153.5 445.8094,-153.5 445.8094,-123.5 302.8094,-123.5"/>
<text text-anchor="start" x="310.8094" y="-141.5" font-family="Helvetica,sans-Serif" font-size="10.00" fill="#000000">drake/bindings/pydrake</text>
<text text-anchor="middle" x="374.3094" y="-130.5" font-family="Helvetica,sans-Serif" font-size="10.00" fill="#000000">/common/wrap_function.h</text>
</a>
</g>
</g>
<!-- Node0&#45;&gt;Node6 -->
<g id="edge6" class="edge">
<title>Node0&#45;&gt;Node6</title>
<path fill="none" stroke="#191970" d="M297.0009,-190.2967C310.6816,-181.1306 328.2968,-169.3285 343.2563,-159.3055"/>
<polygon fill="#191970" stroke="#191970" points="345.3481,-162.1171 351.7076,-153.6432 341.4518,-156.3017 345.3481,-162.1171"/>
</g>
<!-- Node8 -->
<g id="node9" class="node">
<title>Node8</title>
<g id="a_node9"><a xlink:href="pydrake__pybind_8h.html" target="_top" xlink:title=" ">
<polygon fill="#ffffff" stroke="#000000" points="114.8094,-123.5 114.8094,-153.5 245.8094,-153.5 245.8094,-123.5 114.8094,-123.5"/>
<text text-anchor="start" x="122.8094" y="-141.5" font-family="Helvetica,sans-Serif" font-size="10.00" fill="#000000">drake/bindings/pydrake</text>
<text text-anchor="middle" x="180.3094" y="-130.5" font-family="Helvetica,sans-Serif" font-size="10.00" fill="#000000">/pydrake_pybind.h</text>
</a>
</g>
</g>
<!-- Node0&#45;&gt;Node8 -->
<g id="edge10" class="edge">
<title>Node0&#45;&gt;Node8</title>
<path fill="none" stroke="#191970" d="M252.9793,-190.2967C240.2397,-181.2163 223.8704,-169.5488 209.8942,-159.587"/>
<polygon fill="#191970" stroke="#191970" points="211.7297,-156.5973 201.555,-153.6432 207.6668,-162.2975 211.7297,-156.5973"/>
</g>
<!-- Node9 -->
<g id="node10" class="node">
<title>Node9</title>
<g id="a_node10"><a xlink:href="copyable__unique__ptr_8h.html" target="_top" xlink:title=" ">
<polygon fill="#ffffff" stroke="#000000" points="502.8094,-123.5 502.8094,-153.5 639.8094,-153.5 639.8094,-123.5 502.8094,-123.5"/>
<text text-anchor="start" x="510.8094" y="-141.5" font-family="Helvetica,sans-Serif" font-size="10.00" fill="#000000">drake/common/copyable</text>
<text text-anchor="middle" x="571.3094" y="-130.5" font-family="Helvetica,sans-Serif" font-size="10.00" fill="#000000">_unique_ptr.h</text>
</a>
</g>
</g>
<!-- Node0&#45;&gt;Node9 -->
<g id="edge13" class="edge">
<title>Node0&#45;&gt;Node9</title>
<path fill="none" stroke="#191970" d="M340.962,-190.4639C386.5475,-180.1803 447.0974,-166.5209 494.6768,-155.7875"/>
<polygon fill="#191970" stroke="#191970" points="495.6382,-159.1586 504.6228,-153.5438 494.0977,-152.3302 495.6382,-159.1586"/>
</g>
<!-- Node13 -->
<g id="node14" class="node">
<title>Node13</title>
<g id="a_node14"><a xlink:href="drake__copyable_8h.html" target="_top" xlink:title="Provides careful macros to selectively enable or disable the special member functions for copy&#45;constr...">
<polygon fill="#ffffff" stroke="#000000" points="657.8094,-123.5 657.8094,-153.5 778.8094,-153.5 778.8094,-123.5 657.8094,-123.5"/>
<text text-anchor="start" x="665.8094" y="-141.5" font-family="Helvetica,sans-Serif" font-size="10.00" fill="#000000">drake/common/drake</text>
<text text-anchor="middle" x="718.3094" y="-130.5" font-family="Helvetica,sans-Serif" font-size="10.00" fill="#000000">_copyable.h</text>
</a>
</g>
</g>
<!-- Node0&#45;&gt;Node13 -->
<g id="edge20" class="edge">
<title>Node0&#45;&gt;Node13</title>
<path fill="none" stroke="#191970" d="M343.0129,-197.8308C416.2152,-189.261 535.6767,-174.1366 647.668,-154.2163"/>
<polygon fill="#191970" stroke="#191970" points="648.5621,-157.6118 657.7862,-152.3996 647.325,-150.722 648.5621,-157.6118"/>
</g>
<!-- Node6&#45;&gt;Node3 -->
<g id="edge8" class="edge">
<title>Node6&#45;&gt;Node3</title>
<path fill="none" stroke="#191970" d="M380.7814,-123.3597C384.9789,-113.1951 390.3777,-99.4378 394.3094,-87 400.3874,-67.7726 405.7294,-45.3441 409.1884,-29.6698"/>
<polygon fill="#191970" stroke="#191970" points="412.6748,-30.1052 411.3578,-19.5925 405.8316,-28.6319 412.6748,-30.1052"/>
</g>
<!-- Node6&#45;&gt;Node4 -->
<g id="edge9" class="edge">
<title>Node6&#45;&gt;Node4</title>
<path fill="none" stroke="#191970" d="M351.8448,-123.2967C335.6713,-112.351 313.9433,-97.6462 297.7706,-86.701"/>
<polygon fill="#191970" stroke="#191970" points="299.6713,-83.7612 289.4279,-81.055 295.748,-89.5584 299.6713,-83.7612"/>
</g>
<!-- Node7 -->
<g id="node8" class="node">
<title>Node7</title>
<g id="a_node8"><a xlink:title=" ">
<polygon fill="#ffffff" stroke="#bfbfbf" points="319.8094,-62 319.8094,-81 384.8094,-81 384.8094,-62 319.8094,-62"/>
<text text-anchor="middle" x="352.3094" y="-69" font-family="Helvetica,sans-Serif" font-size="10.00" fill="#000000">functional</text>
</a>
</g>
</g>
<!-- Node6&#45;&gt;Node7 -->
<g id="edge7" class="edge">
<title>Node6&#45;&gt;Node7</title>
<path fill="none" stroke="#191970" d="M369.3173,-123.2967C366.1558,-113.6685 362.0392,-101.1318 358.6479,-90.8038"/>
<polygon fill="#191970" stroke="#191970" points="361.8919,-89.464 355.4468,-81.055 355.2413,-91.6478 361.8919,-89.464"/>
</g>
<!-- Node8&#45;&gt;Node4 -->
<g id="edge11" class="edge">
<title>Node8&#45;&gt;Node4</title>
<path fill="none" stroke="#191970" d="M201.8664,-123.2967C217.2426,-112.4524 237.8508,-97.9182 253.3232,-87.006"/>
<polygon fill="#191970" stroke="#191970" points="255.6064,-89.6787 261.7613,-81.055 251.572,-83.9582 255.6064,-89.6787"/>
</g>
<!-- Node8&#45;&gt;Node5 -->
<g id="edge12" class="edge">
<title>Node8&#45;&gt;Node5</title>
<path fill="none" stroke="#191970" d="M168.9636,-123.2967C161.4003,-113.1618 151.4318,-99.804 143.5125,-89.1921"/>
<polygon fill="#191970" stroke="#191970" points="146.2259,-86.976 137.44,-81.055 140.6158,-91.1626 146.2259,-86.976"/>
</g>
<!-- Node9&#45;&gt;Node1 -->
<g id="edge16" class="edge">
<title>Node9&#45;&gt;Node1</title>
<path fill="none" stroke="#191970" d="M548.8448,-123.2967C532.6713,-112.351 510.9433,-97.6462 494.7706,-86.701"/>
<polygon fill="#191970" stroke="#191970" points="496.6713,-83.7612 486.4279,-81.055 492.748,-89.5584 496.6713,-83.7612"/>
</g>
<!-- Node9&#45;&gt;Node4 -->
<g id="edge17" class="edge">
<title>Node9&#45;&gt;Node4</title>
<path fill="none" stroke="#191970" d="M502.7211,-128.9657C449.7221,-120.6317 374.9216,-106.7512 311.3094,-87 309.1973,-86.3442 307.0413,-85.6051 304.8866,-84.8145"/>
<polygon fill="#191970" stroke="#191970" points="306.1734,-81.5597 295.5879,-81.1161 303.5864,-88.0641 306.1734,-81.5597"/>
</g>
<!-- Node10 -->
<g id="node11" class="node">
<title>Node10</title>
<g id="a_node11"><a xlink:title=" ">
<polygon fill="#ffffff" stroke="#bfbfbf" points="519.8094,-62 519.8094,-81 572.8094,-81 572.8094,-62 519.8094,-62"/>
<text text-anchor="middle" x="546.3094" y="-69" font-family="Helvetica,sans-Serif" font-size="10.00" fill="#000000">cstddef</text>
</a>
</g>
</g>
<!-- Node9&#45;&gt;Node10 -->
<g id="edge14" class="edge">
<title>Node9&#45;&gt;Node10</title>
<path fill="none" stroke="#191970" d="M565.6365,-123.2967C562.0061,-113.5672 557.2674,-100.8675 553.3909,-90.4784"/>
<polygon fill="#191970" stroke="#191970" points="556.6498,-89.2004 549.8747,-81.055 550.0915,-91.6476 556.6498,-89.2004"/>
</g>
<!-- Node11 -->
<g id="node12" class="node">
<title>Node11</title>
<g id="a_node12"><a xlink:title=" ">
<polygon fill="#ffffff" stroke="#bfbfbf" points="591.3094,-62 591.3094,-81 651.3094,-81 651.3094,-62 591.3094,-62"/>
<text text-anchor="middle" x="621.3094" y="-69" font-family="Helvetica,sans-Serif" font-size="10.00" fill="#000000">iostream</text>
</a>
</g>
</g>
<!-- Node9&#45;&gt;Node11 -->
<g id="edge15" class="edge">
<title>Node9&#45;&gt;Node11</title>
<path fill="none" stroke="#191970" d="M582.6552,-123.2967C590.2185,-113.1618 600.187,-99.804 608.1063,-89.1921"/>
<polygon fill="#191970" stroke="#191970" points="611.003,-91.1626 614.1788,-81.055 605.3929,-86.976 611.003,-91.1626"/>
</g>
<!-- Node12 -->
<g id="node13" class="node">
<title>Node12</title>
<g id="a_node13"><a xlink:href="drake__assert_8h.html" target="_top" xlink:title="Provides Drake&#39;s assertion implementation.">
<polygon fill="#ffffff" stroke="#000000" points="669.8094,-56.5 669.8094,-86.5 790.8094,-86.5 790.8094,-56.5 669.8094,-56.5"/>
<text text-anchor="start" x="677.8094" y="-74.5" font-family="Helvetica,sans-Serif" font-size="10.00" fill="#000000">drake/common/drake</text>
<text text-anchor="middle" x="730.3094" y="-63.5" font-family="Helvetica,sans-Serif" font-size="10.00" fill="#000000">_assert.h</text>
</a>
</g>
</g>
<!-- Node9&#45;&gt;Node12 -->
<g id="edge18" class="edge">
<title>Node9&#45;&gt;Node12</title>
<path fill="none" stroke="#191970" d="M606.9921,-123.4639C630.0286,-113.7567 660.2035,-101.0415 684.938,-90.6188"/>
<polygon fill="#191970" stroke="#191970" points="686.6149,-93.7103 694.4711,-86.6017 683.8967,-87.2596 686.6149,-93.7103"/>
</g>
<!-- Node12&#45;&gt;Node3 -->
<g id="edge19" class="edge">
<title>Node12&#45;&gt;Node3</title>
<path fill="none" stroke="#191970" d="M669.6297,-57.9323C666.4797,-57.2691 663.3585,-56.6213 660.3094,-56 589.8812,-41.6488 507.7834,-26.7142 458.2178,-17.8931"/>
<polygon fill="#191970" stroke="#191970" points="458.6085,-14.4078 448.1507,-16.1059 457.385,-21.3 458.6085,-14.4078"/>
</g>
</g>
</svg>
