<?xml version="1.0" encoding="UTF-8" standalone="no"?>
<!DOCTYPE svg PUBLIC "-//W3C//DTD SVG 1.1//EN"
 "http://www.w3.org/Graphics/SVG/1.1/DTD/svg11.dtd">
<!-- Generated by graphviz version 2.40.1 (20161225.0304)
 -->
<!-- Title: drake/bindings/pydrake/common/wrap_pybind.h Pages: 1 -->
<!--zoomable 229 -->
<svg id="main" version="1.1" xmlns="http://www.w3.org/2000/svg" xmlns:xlink="http://www.w3.org/1999/xlink" xml:space="preserve" onload="init(evt)">
<style type="text/css"><![CDATA[
.edge:hover path { stroke: red; }
.edge:hover polygon { stroke: red; fill: red; }
]]></style>
<script type="text/javascript"><![CDATA[
var edges = document.getElementsByTagName('g');
if (edges && edges.length) {
  for (var i=0;i<edges.length;i++) {
    if (edges[i].id.substr(0,4)=='edge') {
      edges[i].setAttribute('class','edge');
    }
  }
}
]]></script>
        <defs>
                <circle id="rim" cx="0" cy="0" r="7"/>
                <circle id="rim2" cx="0" cy="0" r="3.5"/>
                <g id="zoomPlus">
                        <use xlink:href="#rim" fill="#404040">
                                <set attributeName="fill" to="#808080" begin="zoomplus.mouseover" end="zoomplus.mouseout"/>
                        </use>
                        <path d="M-4,0h8M0,-4v8" fill="none" stroke="white" stroke-width="1.5" pointer-events="none"/>
                </g>
                <g id="zoomMin">
                        <use xlink:href="#rim" fill="#404040">
                                <set attributeName="fill" to="#808080" begin="zoomminus.mouseover" end="zoomminus.mouseout"/>
                        </use>
                        <path d="M-4,0h8" fill="none" stroke="white" stroke-width="1.5" pointer-events="none"/>
                </g>
                <g id="dirArrow">
                        <path fill="none" stroke="white" stroke-width="1.5" d="M0,-3.0v7 M-2.5,-0.5L0,-3.0L2.5,-0.5"/>
                </g>
               <g id="resetDef">
                       <use xlink:href="#rim2" fill="#404040">
                               <set attributeName="fill" to="#808080" begin="reset.mouseover" end="reset.mouseout"/>
                       </use>
               </g>
        </defs>

<script type="text/javascript">
var viewWidth = 888;
var viewHeight = 229;
var sectionId = 'dynsection-0';
</script>
<script xlink:href="svgpan.js"/>
<svg id="graph" class="graph">
<g id="viewport">
<title>drake/bindings/pydrake/common/wrap_pybind.h</title>
<polygon fill="#ffffff" stroke="transparent" points="-4,4 -4,-225 883.5,-225 883.5,4 -4,4"/>
<!-- Node0 -->
<g id="node1" class="node">
<title>Node0</title>
<g id="a_node1"><a xlink:title="Defines convenience utilities to wrap pybind11 methods and classes.">
<polygon fill="#bfbfbf" stroke="#000000" points="373.5,-190.5 373.5,-220.5 510.5,-220.5 510.5,-190.5 373.5,-190.5"/>
<text text-anchor="start" x="381.5" y="-208.5" font-family="Helvetica,sans-Serif" font-size="10.00" fill="#000000">drake/bindings/pydrake</text>
<text text-anchor="middle" x="442" y="-197.5" font-family="Helvetica,sans-Serif" font-size="10.00" fill="#000000">/common/wrap_pybind.h</text>
</a>
</g>
</g>
<!-- Node1 -->
<g id="node2" class="node">
<title>Node1</title>
<g id="a_node2"><a xlink:title=" ">
<polygon fill="#ffffff" stroke="#bfbfbf" points="0,-62 0,-81 58,-81 58,-62 0,-62"/>
<text text-anchor="middle" x="29" y="-69" font-family="Helvetica,sans-Serif" font-size="10.00" fill="#000000">memory</text>
</a>
</g>
</g>
<!-- Node0&#45;&gt;Node1 -->
<g id="edge1" class="edge">
<title>Node0&#45;&gt;Node1</title>
<path fill="none" stroke="#191970" d="M373.1535,-201.8628C261.117,-195.2327 49.5037,-179.4689 27,-154 11.9328,-136.9474 16.3315,-109.2982 21.8417,-90.7651"/>
<polygon fill="#191970" stroke="#191970" points="25.2362,-91.6491 25.0756,-81.0555 18.5949,-89.4371 25.2362,-91.6491"/>
</g>
<!-- Node2 -->
<g id="node3" class="node">
<title>Node2</title>
<g id="a_node3"><a xlink:title=" ">
<polygon fill="#ffffff" stroke="#bfbfbf" points="36,-129 36,-148 80,-148 80,-129 36,-129"/>
<text text-anchor="middle" x="58" y="-136" font-family="Helvetica,sans-Serif" font-size="10.00" fill="#000000">string</text>
</a>
</g>
</g>
<!-- Node0&#45;&gt;Node2 -->
<g id="edge2" class="edge">
<title>Node0&#45;&gt;Node2</title>
<path fill="none" stroke="#191970" d="M373.2064,-200.6159C302.1964,-194.351 188.7356,-180.908 94,-154 91.8194,-153.3806 89.5968,-152.66 87.3799,-151.875"/>
<polygon fill="#191970" stroke="#191970" points="88.4339,-148.5288 77.8464,-148.135 85.8775,-155.0453 88.4339,-148.5288"/>
</g>
<!-- Node3 -->
<g id="node4" class="node">
<title>Node3</title>
<g id="a_node4"><a xlink:title=" ">
<polygon fill="#ffffff" stroke="#bfbfbf" points="301.5,-.5 301.5,-19.5 370.5,-19.5 370.5,-.5 301.5,-.5"/>
<text text-anchor="middle" x="336" y="-7.5" font-family="Helvetica,sans-Serif" font-size="10.00" fill="#000000">type_traits</text>
</a>
</g>
</g>
<!-- Node0&#45;&gt;Node3 -->
<g id="edge3" class="edge">
<title>Node0&#45;&gt;Node3</title>
<path fill="none" stroke="#191970" d="M373.3527,-196.1039C308.9672,-186.5034 217.9515,-170.6755 186,-154 147.8215,-134.0747 132.9149,-126.6043 116,-87 110.5884,-74.3295 107.3116,-66.6929 116,-56 137.646,-29.3599 233.4489,-17.6102 291.256,-12.8665"/>
<polygon fill="#191970" stroke="#191970" points="291.5366,-16.3554 301.2332,-12.0862 290.9907,-9.3767 291.5366,-16.3554"/>
</g>
<!-- Node4 -->
<g id="node5" class="node">
<title>Node4</title>
<g id="a_node5"><a xlink:title=" ">
<polygon fill="#ffffff" stroke="#bfbfbf" points="536.5,-62 536.5,-81 581.5,-81 581.5,-62 536.5,-62"/>
<text text-anchor="middle" x="559" y="-69" font-family="Helvetica,sans-Serif" font-size="10.00" fill="#000000">utility</text>
</a>
</g>
</g>
<!-- Node0&#45;&gt;Node4 -->
<g id="edge4" class="edge">
<title>Node0&#45;&gt;Node4</title>
<path fill="none" stroke="#191970" d="M474.4064,-190.2827C490.3838,-181.4885 508.9688,-169.1544 522,-154 538.0092,-135.3824 548.2683,-108.7151 553.8272,-90.786"/>
<polygon fill="#191970" stroke="#191970" points="557.2025,-91.7133 556.6278,-81.1341 550.4797,-89.7626 557.2025,-91.7133"/>
</g>
<!-- Node5 -->
<g id="node6" class="node">
<title>Node5</title>
<g id="a_node6"><a xlink:title=" ">
<polygon fill="#ffffff" stroke="#bfbfbf" points="738.5,-62 738.5,-81 857.5,-81 857.5,-62 738.5,-62"/>
<text text-anchor="middle" x="798" y="-69" font-family="Helvetica,sans-Serif" font-size="10.00" fill="#000000">pybind11/pybind11.h</text>
</a>
</g>
</g>
<!-- Node0&#45;&gt;Node5 -->
<g id="edge5" class="edge">
<title>Node0&#45;&gt;Node5</title>
<path fill="none" stroke="#191970" d="M510.6237,-196.8361C578.4167,-187.4847 676.7842,-171.5534 711,-154 727.1761,-145.7014 761.7847,-110.315 782.1389,-88.6719"/>
<polygon fill="#191970" stroke="#191970" points="784.9089,-90.8336 789.1737,-81.135 779.7916,-86.0572 784.9089,-90.8336"/>
</g>
<!-- Node6 -->
<g id="node7" class="node">
<title>Node6</title>
<g id="a_node7"><a xlink:href="wrap__function_8h.html" target="_top" xlink:title=" ">
<polygon fill="#ffffff" stroke="#000000" points="370.5,-123.5 370.5,-153.5 513.5,-153.5 513.5,-123.5 370.5,-123.5"/>
<text text-anchor="start" x="378.5" y="-141.5" font-family="Helvetica,sans-Serif" font-size="10.00" fill="#000000">drake/bindings/pydrake</text>
<text text-anchor="middle" x="442" y="-130.5" font-family="Helvetica,sans-Serif" font-size="10.00" fill="#000000">/common/wrap_function.h</text>
</a>
</g>
</g>
<!-- Node0&#45;&gt;Node6 -->
<g id="edge6" class="edge">
<title>Node0&#45;&gt;Node6</title>
<path fill="none" stroke="#191970" d="M442,-190.2967C442,-182.5013 442,-172.7991 442,-163.9064"/>
<polygon fill="#191970" stroke="#191970" points="445.5001,-163.6431 442,-153.6432 438.5001,-163.6432 445.5001,-163.6431"/>
</g>
<!-- Node8 -->
<g id="node9" class="node">
<title>Node8</title>
<g id="a_node9"><a xlink:href="pydrake__pybind_8h.html" target="_top" xlink:title=" ">
<polygon fill="#ffffff" stroke="#000000" points="570.5,-123.5 570.5,-153.5 701.5,-153.5 701.5,-123.5 570.5,-123.5"/>
<text text-anchor="start" x="578.5" y="-141.5" font-family="Helvetica,sans-Serif" font-size="10.00" fill="#000000">drake/bindings/pydrake</text>
<text text-anchor="middle" x="636" y="-130.5" font-family="Helvetica,sans-Serif" font-size="10.00" fill="#000000">/pydrake_pybind.h</text>
</a>
</g>
</g>
<!-- Node0&#45;&gt;Node8 -->
<g id="edge10" class="edge">
<title>Node0&#45;&gt;Node8</title>
<path fill="none" stroke="#191970" d="M485.5374,-190.4639C514.2667,-180.5419 552.0953,-167.4774 582.6344,-156.9304"/>
<polygon fill="#191970" stroke="#191970" points="583.9631,-160.1744 592.2727,-153.6017 581.678,-153.5579 583.9631,-160.1744"/>
</g>
<!-- Node10 -->
<g id="node11" class="node">
<title>Node10</title>
<g id="a_node11"><a xlink:href="copyable__unique__ptr_8h.html" target="_top" xlink:title=" ">
<polygon fill="#ffffff" stroke="#000000" points="195.5,-123.5 195.5,-153.5 332.5,-153.5 332.5,-123.5 195.5,-123.5"/>
<text text-anchor="start" x="203.5" y="-141.5" font-family="Helvetica,sans-Serif" font-size="10.00" fill="#000000">drake/common/copyable</text>
<text text-anchor="middle" x="264" y="-130.5" font-family="Helvetica,sans-Serif" font-size="10.00" fill="#000000">_unique_ptr.h</text>
</a>
</g>
</g>
<!-- Node0&#45;&gt;Node10 -->
<g id="edge14" class="edge">
<title>Node0&#45;&gt;Node10</title>
<path fill="none" stroke="#191970" d="M402.0533,-190.4639C375.9217,-180.6278 341.5851,-167.7034 313.6936,-157.2049"/>
<polygon fill="#191970" stroke="#191970" points="314.7129,-153.8489 304.1209,-153.6017 312.2469,-160.4001 314.7129,-153.8489"/>
</g>
<!-- Node14 -->
<g id="node15" class="node">
<title>Node14</title>
<g id="a_node15"><a xlink:href="drake__copyable_8h.html" target="_top" xlink:title="Provides careful macros to selectively enable or disable the special member functions for copy&#45;constr...">
<polygon fill="#ffffff" stroke="#000000" points="758.5,-123.5 758.5,-153.5 879.5,-153.5 879.5,-123.5 758.5,-123.5"/>
<text text-anchor="start" x="766.5" y="-141.5" font-family="Helvetica,sans-Serif" font-size="10.00" fill="#000000">drake/common/drake</text>
<text text-anchor="middle" x="819" y="-130.5" font-family="Helvetica,sans-Serif" font-size="10.00" fill="#000000">_copyable.h</text>
</a>
</g>
</g>
<!-- Node0&#45;&gt;Node14 -->
<g id="edge21" class="edge">
<title>Node0&#45;&gt;Node14</title>
<path fill="none" stroke="#191970" d="M510.7892,-194.471C572.08,-184.4773 664.1628,-169.0524 744,-154 745.4699,-153.7229 746.9555,-153.4402 748.4524,-153.1529"/>
<polygon fill="#191970" stroke="#191970" points="749.3089,-156.5519 758.4537,-151.2018 747.9685,-149.6814 749.3089,-156.5519"/>
</g>
<!-- Node6&#45;&gt;Node3 -->
<g id="edge8" class="edge">
<title>Node6&#45;&gt;Node3</title>
<path fill="none" stroke="#191970" d="M438.0215,-123.4087C432.7711,-105.7195 422.1347,-76.2527 405,-56 394.1201,-43.1403 378.7726,-32.4268 365.3137,-24.5839"/>
<polygon fill="#191970" stroke="#191970" points="366.8176,-21.4156 356.3758,-19.6216 363.4198,-27.5357 366.8176,-21.4156"/>
</g>
<!-- Node6&#45;&gt;Node4 -->
<g id="edge9" class="edge">
<title>Node6&#45;&gt;Node4</title>
<path fill="none" stroke="#191970" d="M468.2571,-123.4639C487.7113,-112.3234 514.0839,-97.2212 533.3839,-86.1691"/>
<polygon fill="#191970" stroke="#191970" points="535.2904,-89.1106 542.229,-81.1039 531.8118,-83.0361 535.2904,-89.1106"/>
</g>
<!-- Node7 -->
<g id="node8" class="node">
<title>Node7</title>
<g id="a_node8"><a xlink:title=" ">
<polygon fill="#ffffff" stroke="#bfbfbf" points="453.5,-62 453.5,-81 518.5,-81 518.5,-62 453.5,-62"/>
<text text-anchor="middle" x="486" y="-69" font-family="Helvetica,sans-Serif" font-size="10.00" fill="#000000">functional</text>
</a>
</g>
</g>
<!-- Node6&#45;&gt;Node7 -->
<g id="edge7" class="edge">
<title>Node6&#45;&gt;Node7</title>
<path fill="none" stroke="#191970" d="M451.9843,-123.2967C458.5735,-113.2631 467.237,-100.0709 474.1717,-89.5113"/>
<polygon fill="#191970" stroke="#191970" points="477.1613,-91.3349 479.7251,-81.055 471.3102,-87.4924 477.1613,-91.3349"/>
</g>
<!-- Node8&#45;&gt;Node4 -->
<g id="edge11" class="edge">
<title>Node8&#45;&gt;Node4</title>
<path fill="none" stroke="#191970" d="M618.5275,-123.2967C606.2976,-112.6551 589.9841,-98.4602 577.5279,-87.6217"/>
<polygon fill="#191970" stroke="#191970" points="579.8225,-84.9788 569.9811,-81.055 575.2276,-90.2596 579.8225,-84.9788"/>
</g>
<!-- Node8&#45;&gt;Node5 -->
<g id="edge12" class="edge">
<title>Node8&#45;&gt;Node5</title>
<path fill="none" stroke="#191970" d="M672.356,-123.4639C700.2721,-111.9183 738.4769,-96.1176 765.407,-84.9798"/>
<polygon fill="#191970" stroke="#191970" points="766.8754,-88.1601 774.7786,-81.1039 764.2,-81.6915 766.8754,-88.1601"/>
</g>
<!-- Node9 -->
<g id="node10" class="node">
<title>Node9</title>
<g id="a_node10"><a xlink:href="drake__deprecated_8h.html" target="_top" xlink:title="Provides a portable macro for use in generating compile&#45;time warnings for use of code that is permitt...">
<polygon fill="#ffffff" stroke="#000000" points="599.5,-56.5 599.5,-86.5 720.5,-86.5 720.5,-56.5 599.5,-56.5"/>
<text text-anchor="start" x="607.5" y="-74.5" font-family="Helvetica,sans-Serif" font-size="10.00" fill="#000000">drake/common/drake</text>
<text text-anchor="middle" x="660" y="-63.5" font-family="Helvetica,sans-Serif" font-size="10.00" fill="#000000">_deprecated.h</text>
</a>
</g>
</g>
<!-- Node8&#45;&gt;Node9 -->
<g id="edge13" class="edge">
<title>Node8&#45;&gt;Node9</title>
<path fill="none" stroke="#191970" d="M641.446,-123.2967C644.2997,-115.3299 647.8668,-105.3718 651.1088,-96.3213"/>
<polygon fill="#191970" stroke="#191970" points="654.4982,-97.2377 654.5756,-86.6432 647.9083,-94.8771 654.4982,-97.2377"/>
</g>
<!-- Node10&#45;&gt;Node1 -->
<g id="edge17" class="edge">
<title>Node10&#45;&gt;Node1</title>
<path fill="none" stroke="#191970" d="M211.2614,-123.4639C167.8153,-111.0771 107.1904,-93.7926 68.0139,-82.6231"/>
<polygon fill="#191970" stroke="#191970" points="68.8725,-79.2285 58.2961,-79.8525 66.9532,-85.9603 68.8725,-79.2285"/>
</g>
<!-- Node10&#45;&gt;Node4 -->
<g id="edge18" class="edge">
<title>Node10&#45;&gt;Node4</title>
<path fill="none" stroke="#191970" d="M332.6273,-127.1251C398.0795,-115.9038 491.7493,-98.7686 527,-87 528.6505,-86.449 530.3254,-85.8314 531.9995,-85.1686"/>
<polygon fill="#191970" stroke="#191970" points="533.6607,-88.2613 541.4006,-81.0263 530.8382,-81.8556 533.6607,-88.2613"/>
</g>
<!-- Node11 -->
<g id="node12" class="node">
<title>Node11</title>
<g id="a_node12"><a xlink:title=" ">
<polygon fill="#ffffff" stroke="#bfbfbf" points="125.5,-62 125.5,-81 178.5,-81 178.5,-62 125.5,-62"/>
<text text-anchor="middle" x="152" y="-69" font-family="Helvetica,sans-Serif" font-size="10.00" fill="#000000">cstddef</text>
</a>
</g>
</g>
<!-- Node10&#45;&gt;Node11 -->
<g id="edge15" class="edge">
<title>Node10&#45;&gt;Node11</title>
<path fill="none" stroke="#191970" d="M238.865,-123.4639C220.3268,-112.3741 195.226,-97.3584 176.7738,-86.32"/>
<polygon fill="#191970" stroke="#191970" points="178.4328,-83.2341 168.0543,-81.1039 174.8392,-89.2412 178.4328,-83.2341"/>
</g>
<!-- Node12 -->
<g id="node13" class="node">
<title>Node12</title>
<g id="a_node13"><a xlink:title=" ">
<polygon fill="#ffffff" stroke="#bfbfbf" points="197,-62 197,-81 257,-81 257,-62 197,-62"/>
<text text-anchor="middle" x="227" y="-69" font-family="Helvetica,sans-Serif" font-size="10.00" fill="#000000">iostream</text>
</a>
</g>
</g>
<!-- Node10&#45;&gt;Node12 -->
<g id="edge16" class="edge">
<title>Node10&#45;&gt;Node12</title>
<path fill="none" stroke="#191970" d="M255.6041,-123.2967C250.1192,-113.3645 242.9249,-100.3371 237.1237,-89.8321"/>
<polygon fill="#191970" stroke="#191970" points="240.1748,-88.1169 232.2766,-81.055 234.047,-91.5009 240.1748,-88.1169"/>
</g>
<!-- Node13 -->
<g id="node14" class="node">
<title>Node13</title>
<g id="a_node14"><a xlink:href="drake__assert_8h.html" target="_top" xlink:title="Provides Drake&#39;s assertion implementation.">
<polygon fill="#ffffff" stroke="#000000" points="275.5,-56.5 275.5,-86.5 396.5,-86.5 396.5,-56.5 275.5,-56.5"/>
<text text-anchor="start" x="283.5" y="-74.5" font-family="Helvetica,sans-Serif" font-size="10.00" fill="#000000">drake/common/drake</text>
<text text-anchor="middle" x="336" y="-63.5" font-family="Helvetica,sans-Serif" font-size="10.00" fill="#000000">_assert.h</text>
</a>
</g>
</g>
<!-- Node10&#45;&gt;Node13 -->
<g id="edge19" class="edge">
<title>Node10&#45;&gt;Node13</title>
<path fill="none" stroke="#191970" d="M280.3379,-123.2967C289.7277,-114.559 301.6918,-103.4257 312.1198,-93.7218"/>
<polygon fill="#191970" stroke="#191970" points="314.7903,-96.0178 319.7267,-86.6432 310.0217,-90.8933 314.7903,-96.0178"/>
</g>
<!-- Node13&#45;&gt;Node3 -->
<g id="edge20" class="edge">
<title>Node13&#45;&gt;Node3</title>
<path fill="none" stroke="#191970" d="M336,-56.2977C336,-48.3834 336,-38.6043 336,-30.0759"/>
<polygon fill="#191970" stroke="#191970" points="339.5001,-29.8469 336,-19.8469 332.5001,-29.847 339.5001,-29.8469"/>
</g>
</g>
</svg>
        <g id="navigator" transform="translate(0 0)" fill="#404254">
                <rect fill="#f2f5e9" fill-opacity="0.5" stroke="#606060" stroke-width=".5" x="0" y="0" width="60" height="60"/>
                <use id="zoomplus" xlink:href="#zoomPlus" x="17" y="9" onmousedown="handleZoom(evt,'in')"/>
                <use id="zoomminus" xlink:href="#zoomMin" x="42" y="9" onmousedown="handleZoom(evt,'out')"/>
                <use id="reset" xlink:href="#resetDef" x="30" y="36" onmousedown="handleReset()"/>
                <g id="arrowUp" xlink:href="#dirArrow" transform="translate(30 24)" onmousedown="handlePan(0,-1)">
                  <use xlink:href="#rim" fill="#404040">
                        <set attributeName="fill" to="#808080" begin="arrowUp.mouseover" end="arrowUp.mouseout"/>
                  </use>
                  <path fill="none" stroke="white" stroke-width="1.5" d="M0,-3.0v7 M-2.5,-0.5L0,-3.0L2.5,-0.5"/>
                </g>
                <g id="arrowRight" xlink:href="#dirArrow" transform="rotate(90) translate(36 -43)" onmousedown="handlePan(1,0)">
                  <use xlink:href="#rim" fill="#404040">
                        <set attributeName="fill" to="#808080" begin="arrowRight.mouseover" end="arrowRight.mouseout"/>
                  </use>
                  <path fill="none" stroke="white" stroke-width="1.5" d="M0,-3.0v7 M-2.5,-0.5L0,-3.0L2.5,-0.5"/>
                </g>
                <g id="arrowDown" xlink:href="#dirArrow" transform="rotate(180) translate(-30 -48)" onmousedown="handlePan(0,1)">
                  <use xlink:href="#rim" fill="#404040">
                        <set attributeName="fill" to="#808080" begin="arrowDown.mouseover" end="arrowDown.mouseout"/>
                  </use>
                  <path fill="none" stroke="white" stroke-width="1.5" d="M0,-3.0v7 M-2.5,-0.5L0,-3.0L2.5,-0.5"/>
                </g>
                <g id="arrowLeft" xlink:href="#dirArrow" transform="rotate(270) translate(-36 17)" onmousedown="handlePan(-1,0)">
                  <use xlink:href="#rim" fill="#404040">
                        <set attributeName="fill" to="#808080" begin="arrowLeft.mouseover" end="arrowLeft.mouseout"/>
                  </use>
                  <path fill="none" stroke="white" stroke-width="1.5" d="M0,-3.0v7 M-2.5,-0.5L0,-3.0L2.5,-0.5"/>
                </g>
        </g>
        <svg viewBox="0 0 15 15" width="100%" height="30px" preserveAspectRatio="xMaxYMin meet">
         <g id="arrow_out" transform="scale(0.3 0.3)">
          <a xlink:href="wrap__pybind_8h__incl_org.svg" target="_base">
           <rect id="button" ry="5" rx="5" y="6" x="6" height="38" width="38"
                fill="#f2f5e9" fill-opacity="0.5" stroke="#606060" stroke-width="1.0"/>
           <path id="arrow"
             d="M 11.500037,31.436501 C 11.940474,20.09759 22.043105,11.32322 32.158766,21.979434 L 37.068811,17.246167 C 37.068811,17.246167 37.088388,32 37.088388,32 L 22.160133,31.978069 C 22.160133,31.978069 26.997745,27.140456 26.997745,27.140456 C 18.528582,18.264221 13.291696,25.230495 11.500037,31.436501 z"
             style="fill:#404040;"/>
          </a>
         </g>
        </svg>
</svg>
