<?xml version="1.0" encoding="UTF-8" standalone="no"?>
<!DOCTYPE svg PUBLIC "-//W3C//DTD SVG 1.1//EN"
 "http://www.w3.org/Graphics/SVG/1.1/DTD/svg11.dtd">
<!-- Generated by graphviz version 2.40.1 (20161225.0304)
 -->
<!-- Title: drake/bindings/pydrake/common/wrap_pybind.h Pages: 1 -->
<svg width="562pt" height="262pt"
 viewBox="0.00 0.00 561.50 262.00" xmlns="http://www.w3.org/2000/svg" xmlns:xlink="http://www.w3.org/1999/xlink">
<g id="graph0" class="graph" transform="scale(1 1) rotate(0) translate(4 258)">
<title>drake/bindings/pydrake/common/wrap_pybind.h</title>
<polygon fill="#ffffff" stroke="transparent" points="-4,4 -4,-258 557.5,-258 557.5,4 -4,4"/>
<!-- Node14 -->
<g id="node1" class="node">
<title>Node14</title>
<g id="a_node1"><a xlink:title="Defines convenience utilities to wrap pybind11 methods and classes.">
<polygon fill="#bfbfbf" stroke="#000000" points="311.5,-223.5 311.5,-253.5 448.5,-253.5 448.5,-223.5 311.5,-223.5"/>
<text text-anchor="start" x="319.5" y="-241.5" font-family="Helvetica,sans-Serif" font-size="10.00" fill="#000000">drake/bindings/pydrake</text>
<text text-anchor="middle" x="380" y="-230.5" font-family="Helvetica,sans-Serif" font-size="10.00" fill="#000000">/common/wrap_pybind.h</text>
</a>
</g>
</g>
<!-- Node15 -->
<g id="node2" class="node">
<title>Node15</title>
<g id="a_node2"><a xlink:href="cpp__param__pybind_8h.html" target="_top" xlink:title="Provides a mechanism to map C++ types to canonical Python types.">
<polygon fill="#ffffff" stroke="#000000" points="185.5,-151 185.5,-181 352.5,-181 352.5,-151 185.5,-151"/>
<text text-anchor="start" x="193.5" y="-169" font-family="Helvetica,sans-Serif" font-size="10.00" fill="#000000">drake/bindings/pydrake</text>
<text text-anchor="middle" x="269" y="-158" font-family="Helvetica,sans-Serif" font-size="10.00" fill="#000000">/common/cpp_param_pybind.h</text>
</a>
</g>
</g>
<!-- Node14&#45;&gt;Node15 -->
<g id="edge1" class="edge">
<title>Node14&#45;&gt;Node15</title>
<path fill="none" stroke="#191970" d="M348.5398,-217.9517C330.5301,-206.1886 308.3342,-191.6913 291.9698,-181.0028"/>
<polygon fill="#191970" stroke="#191970" points="346.7144,-220.9398 357.0007,-223.478 350.5423,-215.0792 346.7144,-220.9398"/>
</g>
<!-- Node18 -->
<g id="node5" class="node">
<title>Node18</title>
<g id="a_node5"><a xlink:href="value__pybind_8h.html" target="_top" xlink:title="Helpers for defining instantiations of drake::Value&lt;&gt;.">
<polygon fill="#ffffff" stroke="#000000" points="308,-6 308,-36 448,-36 448,-6 308,-6"/>
<text text-anchor="start" x="316" y="-24" font-family="Helvetica,sans-Serif" font-size="10.00" fill="#000000">drake/bindings/pydrake</text>
<text text-anchor="middle" x="378" y="-13" font-family="Helvetica,sans-Serif" font-size="10.00" fill="#000000">/common/value_pybind.h</text>
</a>
</g>
</g>
<!-- Node14&#45;&gt;Node18 -->
<g id="edge8" class="edge">
<title>Node14&#45;&gt;Node18</title>
<path fill="none" stroke="#191970" d="M379.7652,-212.9707C379.3457,-167.348 378.4796,-73.1527 378.1405,-36.2773"/>
<polygon fill="#191970" stroke="#191970" points="376.2675,-213.2385 379.8594,-223.2058 383.2672,-213.174 376.2675,-213.2385"/>
</g>
<!-- Node20 -->
<g id="node7" class="node">
<title>Node20</title>
<g id="a_node7"><a xlink:href="eigen__geometry__pybind_8h.html" target="_top" xlink:title="Provides pybind11 type_casters for Eigen geometric types.">
<polygon fill="#ffffff" stroke="#000000" points="408.5,-145.5 408.5,-186.5 553.5,-186.5 553.5,-145.5 408.5,-145.5"/>
<text text-anchor="start" x="416.5" y="-174.5" font-family="Helvetica,sans-Serif" font-size="10.00" fill="#000000">drake/bindings/pydrake</text>
<text text-anchor="start" x="416.5" y="-163.5" font-family="Helvetica,sans-Serif" font-size="10.00" fill="#000000">/common/eigen_geometry</text>
<text text-anchor="middle" x="481" y="-152.5" font-family="Helvetica,sans-Serif" font-size="10.00" fill="#000000">_pybind.h</text>
</a>
</g>
</g>
<!-- Node14&#45;&gt;Node20 -->
<g id="edge7" class="edge">
<title>Node14&#45;&gt;Node20</title>
<path fill="none" stroke="#191970" d="M409.4244,-217.3785C422.9761,-207.6509 438.9952,-196.152 452.4393,-186.5015"/>
<polygon fill="#191970" stroke="#191970" points="407.01,-214.8032 400.9273,-223.478 411.092,-220.4898 407.01,-214.8032"/>
</g>
<!-- Node16 -->
<g id="node3" class="node">
<title>Node16</title>
<g id="a_node3"><a xlink:href="cpp__template__pybind_8h.html" target="_top" xlink:title=" ">
<polygon fill="#ffffff" stroke="#000000" points="134.5,-78.5 134.5,-108.5 313.5,-108.5 313.5,-78.5 134.5,-78.5"/>
<text text-anchor="start" x="142.5" y="-96.5" font-family="Helvetica,sans-Serif" font-size="10.00" fill="#000000">drake/bindings/pydrake</text>
<text text-anchor="middle" x="224" y="-85.5" font-family="Helvetica,sans-Serif" font-size="10.00" fill="#000000">/common/cpp_template_pybind.h</text>
</a>
</g>
</g>
<!-- Node15&#45;&gt;Node16 -->
<g id="edge2" class="edge">
<title>Node15&#45;&gt;Node16</title>
<path fill="none" stroke="#191970" d="M254.2156,-142.1807C247.3281,-131.0842 239.3432,-118.2196 233.3121,-108.5028"/>
<polygon fill="#191970" stroke="#191970" points="251.4286,-144.3273 259.676,-150.978 257.376,-140.6358 251.4286,-144.3273"/>
</g>
<!-- Node15&#45;&gt;Node18 -->
<g id="edge6" class="edge">
<title>Node15&#45;&gt;Node18</title>
<path fill="none" stroke="#191970" d="M291.7737,-143.4322C301.5332,-133.2856 312.7823,-120.9287 322,-109 340.7128,-84.7835 359.124,-54.1894 369.4767,-36.1918"/>
<polygon fill="#191970" stroke="#191970" points="289.1424,-141.1171 284.6593,-150.7167 294.1503,-146.008 289.1424,-141.1171"/>
</g>
<!-- Node17 -->
<g id="node4" class="node">
<title>Node17</title>
<g id="a_node4"><a xlink:href="default__scalars__pybind_8h.html" target="_top" xlink:title="Helpers for defining scalars and values.">
<polygon fill="#ffffff" stroke="#000000" points="0,-.5 0,-41.5 140,-41.5 140,-.5 0,-.5"/>
<text text-anchor="start" x="8" y="-29.5" font-family="Helvetica,sans-Serif" font-size="10.00" fill="#000000">drake/bindings/pydrake</text>
<text text-anchor="start" x="8" y="-18.5" font-family="Helvetica,sans-Serif" font-size="10.00" fill="#000000">/common/default_scalars</text>
<text text-anchor="middle" x="70" y="-7.5" font-family="Helvetica,sans-Serif" font-size="10.00" fill="#000000">_pybind.h</text>
</a>
</g>
</g>
<!-- Node16&#45;&gt;Node17 -->
<g id="edge3" class="edge">
<title>Node16&#45;&gt;Node17</title>
<path fill="none" stroke="#191970" d="M182.9273,-74.1638C161.5113,-64.0816 135.3159,-51.7494 113.548,-41.5015"/>
<polygon fill="#191970" stroke="#191970" points="181.5528,-77.3851 192.0911,-78.478 184.5344,-71.0519 181.5528,-77.3851"/>
</g>
<!-- Node16&#45;&gt;Node18 -->
<g id="edge4" class="edge">
<title>Node16&#45;&gt;Node18</title>
<path fill="none" stroke="#191970" d="M265.2805,-74.066C290.6661,-62.115 322.7058,-47.0313 346.132,-36.0028"/>
<polygon fill="#191970" stroke="#191970" points="263.4656,-71.0519 255.9089,-78.478 266.4472,-77.3851 263.4656,-71.0519"/>
</g>
<!-- Node19 -->
<g id="node6" class="node">
<title>Node19</title>
<g id="a_node6"><a xlink:href="lcm__pybind_8h.html" target="_top" xlink:title="Helpers for defining C++ LCM type serializers.">
<polygon fill="#ffffff" stroke="#000000" points="158.5,-6 158.5,-36 289.5,-36 289.5,-6 158.5,-6"/>
<text text-anchor="start" x="166.5" y="-24" font-family="Helvetica,sans-Serif" font-size="10.00" fill="#000000">drake/bindings/pydrake</text>
<text text-anchor="middle" x="224" y="-13" font-family="Helvetica,sans-Serif" font-size="10.00" fill="#000000">/systems/lcm_pybind.h</text>
</a>
</g>
</g>
<!-- Node16&#45;&gt;Node19 -->
<g id="edge5" class="edge">
<title>Node16&#45;&gt;Node19</title>
<path fill="none" stroke="#191970" d="M224,-68.3409C224,-57.5601 224,-45.3309 224,-36.0028"/>
<polygon fill="#191970" stroke="#191970" points="220.5001,-68.4779 224,-78.478 227.5001,-68.478 220.5001,-68.4779"/>
</g>
</g>
</svg>
