<?xml version="1.0" encoding="UTF-8" standalone="no"?>
<!DOCTYPE svg PUBLIC "-//W3C//DTD SVG 1.1//EN"
 "http://www.w3.org/Graphics/SVG/1.1/DTD/svg11.dtd">
<!-- Generated by graphviz version 2.40.1 (20161225.0304)
 -->
<!-- Title: drake/common/yaml/yaml_read_archive.h Pages: 1 -->
<svg width="1554pt" height="240pt"
 viewBox="0.00 0.00 1553.50 240.00" xmlns="http://www.w3.org/2000/svg" xmlns:xlink="http://www.w3.org/1999/xlink">
<g id="graph0" class="graph" transform="scale(1 1) rotate(0) translate(4 236)">
<title>drake/common/yaml/yaml_read_archive.h</title>
<polygon fill="#ffffff" stroke="transparent" points="-4,4 -4,-236 1549.5,-236 1549.5,4 -4,4"/>
<!-- Node0 -->
<g id="node1" class="node">
<title>Node0</title>
<g id="a_node1"><a xlink:title=" ">
<polygon fill="#bfbfbf" stroke="#000000" points="538,-201.5 538,-231.5 684,-231.5 684,-201.5 538,-201.5"/>
<text text-anchor="start" x="546" y="-219.5" font-family="Helvetica,sans-Serif" font-size="10.00" fill="#000000">drake/common/yaml/yaml</text>
<text text-anchor="middle" x="611" y="-208.5" font-family="Helvetica,sans-Serif" font-size="10.00" fill="#000000">_read_archive.h</text>
</a>
</g>
</g>
<!-- Node1 -->
<g id="node2" class="node">
<title>Node1</title>
<g id="a_node2"><a xlink:title=" ">
<polygon fill="#ffffff" stroke="#bfbfbf" points="0,-140 0,-159 64,-159 64,-140 0,-140"/>
<text text-anchor="middle" x="32" y="-147" font-family="Helvetica,sans-Serif" font-size="10.00" fill="#000000">algorithm</text>
</a>
</g>
</g>
<!-- Node0&#45;&gt;Node1 -->
<g id="edge1" class="edge">
<title>Node0&#45;&gt;Node1</title>
<path fill="none" stroke="#191970" d="M537.9824,-211.9228C412.116,-203.6299 159.4798,-185.1062 73,-165 69.9842,-164.2988 66.8914,-163.429 63.8222,-162.4619"/>
<polygon fill="#191970" stroke="#191970" points="64.8171,-159.1024 54.2223,-159.1284 62.5208,-165.7151 64.8171,-159.1024"/>
</g>
<!-- Node2 -->
<g id="node3" class="node">
<title>Node2</title>
<g id="a_node3"><a xlink:title=" ">
<polygon fill="#ffffff" stroke="#bfbfbf" points="82,-140 82,-159 124,-159 124,-140 82,-140"/>
<text text-anchor="middle" x="103" y="-147" font-family="Helvetica,sans-Serif" font-size="10.00" fill="#000000">array</text>
</a>
</g>
</g>
<!-- Node0&#45;&gt;Node2 -->
<g id="edge2" class="edge">
<title>Node0&#45;&gt;Node2</title>
<path fill="none" stroke="#191970" d="M537.6884,-211.9124C423.0528,-204.1816 206.8359,-187.2033 133,-165 131.3403,-164.5009 129.6639,-163.9104 127.9968,-163.2562"/>
<polygon fill="#191970" stroke="#191970" points="129.2793,-159.994 118.7306,-159.0068 126.3613,-166.3568 129.2793,-159.994"/>
</g>
<!-- Node3 -->
<g id="node4" class="node">
<title>Node3</title>
<g id="a_node4"><a xlink:title=" ">
<polygon fill="#ffffff" stroke="#bfbfbf" points="142,-140 142,-159 180,-159 180,-140 142,-140"/>
<text text-anchor="middle" x="161" y="-147" font-family="Helvetica,sans-Serif" font-size="10.00" fill="#000000">map</text>
</a>
</g>
</g>
<!-- Node0&#45;&gt;Node3 -->
<g id="edge3" class="edge">
<title>Node0&#45;&gt;Node3</title>
<path fill="none" stroke="#191970" d="M537.7822,-210.9598C434.6408,-202.5767 252.1011,-185.4575 189,-165 187.7513,-164.5952 186.4947,-164.1331 185.2421,-163.6277"/>
<polygon fill="#191970" stroke="#191970" points="186.4502,-160.3248 175.9219,-159.1394 183.4131,-166.6316 186.4502,-160.3248"/>
</g>
<!-- Node4 -->
<g id="node5" class="node">
<title>Node4</title>
<g id="a_node5"><a xlink:title=" ">
<polygon fill="#ffffff" stroke="#bfbfbf" points="198,-140 198,-159 254,-159 254,-140 198,-140"/>
<text text-anchor="middle" x="226" y="-147" font-family="Helvetica,sans-Serif" font-size="10.00" fill="#000000">optional</text>
</a>
</g>
</g>
<!-- Node0&#45;&gt;Node4 -->
<g id="edge4" class="edge">
<title>Node0&#45;&gt;Node4</title>
<path fill="none" stroke="#191970" d="M537.9182,-211.027C466.729,-204.4531 355.9551,-190.9078 263,-165 260.6792,-164.3532 258.3099,-163.5981 255.9478,-162.7759"/>
<polygon fill="#191970" stroke="#191970" points="257.0093,-159.4345 246.4191,-159.1229 254.5036,-165.9707 257.0093,-159.4345"/>
</g>
<!-- Node5 -->
<g id="node6" class="node">
<title>Node5</title>
<g id="a_node6"><a xlink:title=" ">
<polygon fill="#ffffff" stroke="#bfbfbf" points="272.5,-140 272.5,-159 329.5,-159 329.5,-140 272.5,-140"/>
<text text-anchor="middle" x="301" y="-147" font-family="Helvetica,sans-Serif" font-size="10.00" fill="#000000">ostream</text>
</a>
</g>
</g>
<!-- Node0&#45;&gt;Node5 -->
<g id="edge5" class="edge">
<title>Node0&#45;&gt;Node5</title>
<path fill="none" stroke="#191970" d="M537.7691,-205.5281C483.7188,-196.67 408.6386,-182.7679 344,-165 341.035,-164.185 337.9824,-163.2615 334.9366,-162.2812"/>
<polygon fill="#191970" stroke="#191970" points="335.9414,-158.9261 325.347,-159.0191 333.6871,-165.5532 335.9414,-158.9261"/>
</g>
<!-- Node6 -->
<g id="node7" class="node">
<title>Node6</title>
<g id="a_node7"><a xlink:title=" ">
<polygon fill="#ffffff" stroke="#bfbfbf" points="261,-73 261,-92 305,-92 305,-73 261,-73"/>
<text text-anchor="middle" x="283" y="-80" font-family="Helvetica,sans-Serif" font-size="10.00" fill="#000000">string</text>
</a>
</g>
</g>
<!-- Node0&#45;&gt;Node6 -->
<g id="edge6" class="edge">
<title>Node0&#45;&gt;Node6</title>
<path fill="none" stroke="#191970" d="M537.5571,-203.8935C499.7742,-195.765 453.6611,-183.2383 415,-165 393.6922,-154.9481 391.7762,-146.8048 372,-134 351.4554,-120.6977 327.3896,-106.8725 309.4666,-96.8998"/>
<polygon fill="#191970" stroke="#191970" points="311.1507,-93.8316 300.7052,-92.0591 307.7655,-99.9587 311.1507,-93.8316"/>
</g>
<!-- Node7 -->
<g id="node8" class="node">
<title>Node7</title>
<g id="a_node8"><a xlink:title=" ">
<polygon fill="#ffffff" stroke="#bfbfbf" points="977.5,-140 977.5,-159 1070.5,-159 1070.5,-140 977.5,-140"/>
<text text-anchor="middle" x="1024" y="-147" font-family="Helvetica,sans-Serif" font-size="10.00" fill="#000000">unordered_map</text>
</a>
</g>
</g>
<!-- Node0&#45;&gt;Node7 -->
<g id="edge7" class="edge">
<title>Node0&#45;&gt;Node7</title>
<path fill="none" stroke="#191970" d="M684.1757,-208.8347C756.8817,-200.5486 871.328,-185.6939 969,-165 973.4886,-164.049 978.1505,-162.9357 982.7766,-161.7498"/>
<polygon fill="#191970" stroke="#191970" points="984.0126,-165.0421 992.7656,-159.0725 982.2004,-158.2808 984.0126,-165.0421"/>
</g>
<!-- Node8 -->
<g id="node9" class="node">
<title>Node8</title>
<g id="a_node9"><a xlink:title=" ">
<polygon fill="#ffffff" stroke="#bfbfbf" points="1089,-140 1089,-159 1175,-159 1175,-140 1089,-140"/>
<text text-anchor="middle" x="1132" y="-147" font-family="Helvetica,sans-Serif" font-size="10.00" fill="#000000">unordered_set</text>
</a>
</g>
</g>
<!-- Node0&#45;&gt;Node8 -->
<g id="edge8" class="edge">
<title>Node0&#45;&gt;Node8</title>
<path fill="none" stroke="#191970" d="M684.3393,-212.5503C777.1835,-206.6139 941.7042,-192.9664 1080,-165 1084.4306,-164.104 1089.0272,-162.9994 1093.5719,-161.7958"/>
<polygon fill="#191970" stroke="#191970" points="1094.6743,-165.1216 1103.3535,-159.0453 1092.7794,-158.3829 1094.6743,-165.1216"/>
</g>
<!-- Node9 -->
<g id="node10" class="node">
<title>Node9</title>
<g id="a_node10"><a xlink:title=" ">
<polygon fill="#ffffff" stroke="#bfbfbf" points="310.5,-6 310.5,-25 355.5,-25 355.5,-6 310.5,-6"/>
<text text-anchor="middle" x="333" y="-13" font-family="Helvetica,sans-Serif" font-size="10.00" fill="#000000">utility</text>
</a>
</g>
</g>
<!-- Node0&#45;&gt;Node9 -->
<g id="edge9" class="edge">
<title>Node0&#45;&gt;Node9</title>
<path fill="none" stroke="#191970" d="M537.8604,-210.7602C488.7422,-204.5569 423.7868,-191.6821 372,-165 353.8217,-155.634 355.2398,-144.9982 338,-134 303.0672,-111.7146 274.9561,-132.4957 252,-98 244.3669,-86.5299 245.3676,-79.0764 252,-67 262.3557,-48.1442 282.8648,-35.2093 300.6537,-27.0187"/>
<polygon fill="#191970" stroke="#191970" points="302.3553,-30.0978 310.1749,-22.949 299.604,-23.6612 302.3553,-30.0978"/>
</g>
<!-- Node10 -->
<g id="node11" class="node">
<title>Node10</title>
<g id="a_node11"><a xlink:title=" ">
<polygon fill="#ffffff" stroke="#bfbfbf" points="1193.5,-140 1193.5,-159 1244.5,-159 1244.5,-140 1193.5,-140"/>
<text text-anchor="middle" x="1219" y="-147" font-family="Helvetica,sans-Serif" font-size="10.00" fill="#000000">variant</text>
</a>
</g>
</g>
<!-- Node0&#45;&gt;Node10 -->
<g id="edge10" class="edge">
<title>Node0&#45;&gt;Node10</title>
<path fill="none" stroke="#191970" d="M684.1617,-212.9032C816.7102,-205.8933 1091.4156,-188.9632 1184,-165 1186.3342,-164.3959 1188.7097,-163.6516 1191.0681,-162.8192"/>
<polygon fill="#191970" stroke="#191970" points="1192.5351,-166.0019 1200.5155,-159.033 1189.9311,-159.5042 1192.5351,-166.0019"/>
</g>
<!-- Node11 -->
<g id="node12" class="node">
<title>Node11</title>
<g id="a_node12"><a xlink:title=" ">
<polygon fill="#ffffff" stroke="#bfbfbf" points="652.5,-73 652.5,-92 699.5,-92 699.5,-73 652.5,-73"/>
<text text-anchor="middle" x="676" y="-80" font-family="Helvetica,sans-Serif" font-size="10.00" fill="#000000">vector</text>
</a>
</g>
</g>
<!-- Node0&#45;&gt;Node11 -->
<g id="edge11" class="edge">
<title>Node0&#45;&gt;Node11</title>
<path fill="none" stroke="#191970" d="M608.5275,-201.301C606.4602,-184.0305 605.34,-155.4615 616,-134 623.4922,-118.9161 637.5839,-106.4617 650.2287,-97.5807"/>
<polygon fill="#191970" stroke="#191970" points="652.2387,-100.4477 658.6527,-92.0149 648.3799,-94.6073 652.2387,-100.4477"/>
</g>
<!-- Node12 -->
<g id="node13" class="node">
<title>Node12</title>
<g id="a_node13"><a xlink:title=" ">
<polygon fill="#ffffff" stroke="#bfbfbf" points="1262.5,-140 1262.5,-159 1361.5,-159 1361.5,-140 1262.5,-140"/>
<text text-anchor="middle" x="1312" y="-147" font-family="Helvetica,sans-Serif" font-size="10.00" fill="#000000">yaml&#45;cpp/yaml.h</text>
</a>
</g>
</g>
<!-- Node0&#45;&gt;Node12 -->
<g id="edge12" class="edge">
<title>Node0&#45;&gt;Node12</title>
<path fill="none" stroke="#191970" d="M684.3419,-214.9409C804.2894,-211.4279 1049.5488,-200.2072 1254,-165 1259.3926,-164.0714 1265.0127,-162.8717 1270.5402,-161.5513"/>
<polygon fill="#191970" stroke="#191970" points="1271.4847,-164.9227 1280.3205,-159.0766 1269.7675,-158.1366 1271.4847,-164.9227"/>
</g>
<!-- Node13 -->
<g id="node14" class="node">
<title>Node13</title>
<g id="a_node14"><a xlink:title=" ">
<polygon fill="#ffffff" stroke="#bfbfbf" points="1379.5,-140 1379.5,-159 1448.5,-159 1448.5,-140 1379.5,-140"/>
<text text-anchor="middle" x="1414" y="-147" font-family="Helvetica,sans-Serif" font-size="10.00" fill="#000000">Eigen/Core</text>
</a>
</g>
</g>
<!-- Node0&#45;&gt;Node13 -->
<g id="edge13" class="edge">
<title>Node0&#45;&gt;Node13</title>
<path fill="none" stroke="#191970" d="M684.0715,-214.1372C848.061,-208.4147 1241.1667,-192.2408 1371,-165 1374.4439,-164.2774 1377.9849,-163.3401 1381.486,-162.2841"/>
<polygon fill="#191970" stroke="#191970" points="1382.7504,-165.5521 1391.1337,-159.0736 1380.5402,-158.9102 1382.7504,-165.5521"/>
</g>
<!-- Node14 -->
<g id="node15" class="node">
<title>Node14</title>
<g id="a_node15"><a xlink:title=" ">
<polygon fill="#ffffff" stroke="#bfbfbf" points="1466.5,-140 1466.5,-159 1545.5,-159 1545.5,-140 1466.5,-140"/>
<text text-anchor="middle" x="1506" y="-147" font-family="Helvetica,sans-Serif" font-size="10.00" fill="#000000">fmt/format.h</text>
</a>
</g>
</g>
<!-- Node0&#45;&gt;Node14 -->
<g id="edge14" class="edge">
<title>Node0&#45;&gt;Node14</title>
<path fill="none" stroke="#191970" d="M684.0178,-214.4181C861.2629,-208.9848 1310.5212,-192.8339 1458,-165 1462.1627,-164.2144 1466.4662,-163.1722 1470.7086,-161.9984"/>
<polygon fill="#191970" stroke="#191970" points="1471.8355,-165.3144 1480.4017,-159.0798 1469.8172,-158.6117 1471.8355,-165.3144"/>
</g>
<!-- Node15 -->
<g id="node16" class="node">
<title>Node15</title>
<g id="a_node16"><a xlink:href="drake__copyable_8h.html" target="_top" xlink:title="Provides careful macros to selectively enable or disable the special member functions for copy&#45;constr...">
<polygon fill="#ffffff" stroke="#000000" points="667.5,-.5 667.5,-30.5 788.5,-30.5 788.5,-.5 667.5,-.5"/>
<text text-anchor="start" x="675.5" y="-18.5" font-family="Helvetica,sans-Serif" font-size="10.00" fill="#000000">drake/common/drake</text>
<text text-anchor="middle" x="728" y="-7.5" font-family="Helvetica,sans-Serif" font-size="10.00" fill="#000000">_copyable.h</text>
</a>
</g>
</g>
<!-- Node0&#45;&gt;Node15 -->
<g id="edge15" class="edge">
<title>Node0&#45;&gt;Node15</title>
<path fill="none" stroke="#191970" d="M615.0443,-201.2889C620.3966,-183.4846 631.2819,-153.9071 649,-134 669.4228,-111.0541 689.893,-122.8142 708,-98 720.1581,-81.3383 725.0002,-58.2373 726.8917,-40.7173"/>
<polygon fill="#191970" stroke="#191970" points="730.3891,-40.8923 727.7272,-30.6374 723.4131,-40.314 730.3891,-40.8923"/>
</g>
<!-- Node16 -->
<g id="node17" class="node">
<title>Node16</title>
<g id="a_node17"><a xlink:href="drake__throw_8h.html" target="_top" xlink:title="Provides a convenient wrapper to throw an exception when a condition is unmet.">
<polygon fill="#ffffff" stroke="#000000" points="838.5,-134.5 838.5,-164.5 959.5,-164.5 959.5,-134.5 838.5,-134.5"/>
<text text-anchor="start" x="846.5" y="-152.5" font-family="Helvetica,sans-Serif" font-size="10.00" fill="#000000">drake/common/drake</text>
<text text-anchor="middle" x="899" y="-141.5" font-family="Helvetica,sans-Serif" font-size="10.00" fill="#000000">_throw.h</text>
</a>
</g>
</g>
<!-- Node0&#45;&gt;Node16 -->
<g id="edge16" class="edge">
<title>Node0&#45;&gt;Node16</title>
<path fill="none" stroke="#191970" d="M675.6328,-201.4639C720.9033,-190.9322 781.3931,-176.8599 828.0062,-166.0159"/>
<polygon fill="#191970" stroke="#191970" points="829.0845,-169.3586 838.0313,-163.6837 827.4983,-162.5407 829.0845,-169.3586"/>
</g>
<!-- Node19 -->
<g id="node20" class="node">
<title>Node19</title>
<g id="a_node20"><a xlink:href="name__value_8h.html" target="_top" xlink:title=" ">
<polygon fill="#ffffff" stroke="#000000" points="658,-140 658,-159 820,-159 820,-140 658,-140"/>
<text text-anchor="middle" x="739" y="-147" font-family="Helvetica,sans-Serif" font-size="10.00" fill="#000000">drake/common/name_value.h</text>
</a>
</g>
</g>
<!-- Node0&#45;&gt;Node19 -->
<g id="edge20" class="edge">
<title>Node0&#45;&gt;Node19</title>
<path fill="none" stroke="#191970" d="M639.7257,-201.4639C661.2025,-190.2222 690.3862,-174.9463 711.5495,-163.8686"/>
<polygon fill="#191970" stroke="#191970" points="713.4157,-166.8423 720.6522,-159.1039 710.1694,-160.6406 713.4157,-166.8423"/>
</g>
<!-- Node20 -->
<g id="node21" class="node">
<title>Node20</title>
<g id="a_node21"><a xlink:href="nice__type__name_8h.html" target="_top" xlink:title=" ">
<polygon fill="#ffffff" stroke="#000000" points="424,-134.5 424,-164.5 564,-164.5 564,-134.5 424,-134.5"/>
<text text-anchor="start" x="432" y="-152.5" font-family="Helvetica,sans-Serif" font-size="10.00" fill="#000000">drake/common/nice_type</text>
<text text-anchor="middle" x="494" y="-141.5" font-family="Helvetica,sans-Serif" font-size="10.00" fill="#000000">_name.h</text>
</a>
</g>
</g>
<!-- Node0&#45;&gt;Node20 -->
<g id="edge23" class="edge">
<title>Node0&#45;&gt;Node20</title>
<path fill="none" stroke="#191970" d="M584.7429,-201.4639C568.4489,-192.1332 547.3018,-180.0232 529.5216,-169.8415"/>
<polygon fill="#191970" stroke="#191970" points="530.9914,-166.6499 520.5743,-164.7177 527.5128,-172.7244 530.9914,-166.6499"/>
</g>
<!-- Node17 -->
<g id="node18" class="node">
<title>Node17</title>
<g id="a_node18"><a xlink:title=" ">
<polygon fill="#ffffff" stroke="#bfbfbf" points="820.5,-6 820.5,-25 889.5,-25 889.5,-6 820.5,-6"/>
<text text-anchor="middle" x="855" y="-13" font-family="Helvetica,sans-Serif" font-size="10.00" fill="#000000">type_traits</text>
</a>
</g>
</g>
<!-- Node16&#45;&gt;Node17 -->
<g id="edge17" class="edge">
<title>Node16&#45;&gt;Node17</title>
<path fill="none" stroke="#191970" d="M910.5528,-134.3279C921.9786,-117.3302 936.251,-89.2455 925,-67 916.8235,-50.8334 900.9165,-38.5022 886.3301,-29.9652"/>
<polygon fill="#191970" stroke="#191970" points="887.9532,-26.8637 877.4995,-25.1397 884.5964,-33.0064 887.9532,-26.8637"/>
</g>
<!-- Node18 -->
<g id="node19" class="node">
<title>Node18</title>
<g id="a_node19"><a xlink:href="drake__assert_8h.html" target="_top" xlink:title="Provides Drake&#39;s assertion implementation.">
<polygon fill="#ffffff" stroke="#000000" points="794.5,-67.5 794.5,-97.5 915.5,-97.5 915.5,-67.5 794.5,-67.5"/>
<text text-anchor="start" x="802.5" y="-85.5" font-family="Helvetica,sans-Serif" font-size="10.00" fill="#000000">drake/common/drake</text>
<text text-anchor="middle" x="855" y="-74.5" font-family="Helvetica,sans-Serif" font-size="10.00" fill="#000000">_assert.h</text>
</a>
</g>
</g>
<!-- Node16&#45;&gt;Node18 -->
<g id="edge18" class="edge">
<title>Node16&#45;&gt;Node18</title>
<path fill="none" stroke="#191970" d="M889.0157,-134.2967C883.5588,-125.9873 876.6792,-115.5115 870.5371,-106.1587"/>
<polygon fill="#191970" stroke="#191970" points="873.3596,-104.0806 864.9448,-97.6432 867.5086,-107.9231 873.3596,-104.0806"/>
</g>
<!-- Node18&#45;&gt;Node17 -->
<g id="edge19" class="edge">
<title>Node18&#45;&gt;Node17</title>
<path fill="none" stroke="#191970" d="M855,-67.2967C855,-57.7699 855,-45.3954 855,-35.1306"/>
<polygon fill="#191970" stroke="#191970" points="858.5001,-35.0549 855,-25.055 851.5001,-35.055 858.5001,-35.0549"/>
</g>
<!-- Node19&#45;&gt;Node15 -->
<g id="edge22" class="edge">
<title>Node19&#45;&gt;Node15</title>
<path fill="none" stroke="#191970" d="M740.4065,-139.7962C742.4131,-124.3232 745.4896,-93.1397 742,-67 740.8146,-58.1202 738.5275,-48.6017 736.1401,-40.1936"/>
<polygon fill="#191970" stroke="#191970" points="739.4864,-39.1674 733.2455,-30.6058 732.7851,-41.1906 739.4864,-39.1674"/>
</g>
<!-- Node19&#45;&gt;Node18 -->
<g id="edge21" class="edge">
<title>Node19&#45;&gt;Node18</title>
<path fill="none" stroke="#191970" d="M755.62,-139.9005C772.3936,-130.2123 798.8017,-114.9593 820.1805,-102.6113"/>
<polygon fill="#191970" stroke="#191970" points="822.0833,-105.5541 828.9922,-97.5218 818.5822,-99.4926 822.0833,-105.5541"/>
</g>
<!-- Node20&#45;&gt;Node6 -->
<g id="edge25" class="edge">
<title>Node20&#45;&gt;Node6</title>
<path fill="none" stroke="#191970" d="M436.2966,-134.4023C401.9063,-124.9393 357.577,-111.9239 319,-98 317.1758,-97.3416 315.3117,-96.6377 313.439,-95.9065"/>
<polygon fill="#191970" stroke="#191970" points="314.7315,-92.6538 304.1507,-92.1088 312.0822,-99.1331 314.7315,-92.6538"/>
</g>
<!-- Node20&#45;&gt;Node9 -->
<g id="edge27" class="edge">
<title>Node20&#45;&gt;Node9</title>
<path fill="none" stroke="#191970" d="M435.5437,-134.412C401.7206,-124.5487 363.6028,-111.1066 352,-98 336.7516,-80.7753 333.0465,-53.7744 332.4696,-35.3899"/>
<polygon fill="#191970" stroke="#191970" points="335.9691,-35.2104 332.4394,-25.2209 328.9692,-35.2313 335.9691,-35.2104"/>
</g>
<!-- Node20&#45;&gt;Node11 -->
<g id="edge28" class="edge">
<title>Node20&#45;&gt;Node11</title>
<path fill="none" stroke="#191970" d="M541.7863,-134.4191C571.2531,-124.7667 609.6564,-111.5484 643,-98 644.3927,-97.4341 645.811,-96.8398 647.2383,-96.2272"/>
<polygon fill="#191970" stroke="#191970" points="648.9149,-99.3113 656.6084,-92.027 646.0516,-92.9237 648.9149,-99.3113"/>
</g>
<!-- Node21 -->
<g id="node22" class="node">
<title>Node21</title>
<g id="a_node22"><a xlink:title=" ">
<polygon fill="#ffffff" stroke="#bfbfbf" points="437,-73 437,-92 495,-92 495,-73 437,-73"/>
<text text-anchor="middle" x="466" y="-80" font-family="Helvetica,sans-Serif" font-size="10.00" fill="#000000">memory</text>
</a>
</g>
</g>
<!-- Node20&#45;&gt;Node21 -->
<g id="edge24" class="edge">
<title>Node20&#45;&gt;Node21</title>
<path fill="none" stroke="#191970" d="M487.6464,-134.2967C483.5803,-124.5672 478.273,-111.8675 473.9313,-101.4784"/>
<polygon fill="#191970" stroke="#191970" points="477.0785,-99.9321 469.9931,-92.055 470.6198,-102.6313 477.0785,-99.9321"/>
</g>
<!-- Node22 -->
<g id="node23" class="node">
<title>Node22</title>
<g id="a_node23"><a xlink:title=" ">
<polygon fill="#ffffff" stroke="#bfbfbf" points="361.5,-73 361.5,-92 418.5,-92 418.5,-73 361.5,-73"/>
<text text-anchor="middle" x="390" y="-80" font-family="Helvetica,sans-Serif" font-size="10.00" fill="#000000">typeinfo</text>
</a>
</g>
</g>
<!-- Node20&#45;&gt;Node22 -->
<g id="edge26" class="edge">
<title>Node20&#45;&gt;Node22</title>
<path fill="none" stroke="#191970" d="M470.6604,-134.4639C453.6821,-123.526 430.7758,-108.769 413.7118,-97.7759"/>
<polygon fill="#191970" stroke="#191970" points="415.2096,-94.5774 404.9076,-92.1039 411.4186,-100.462 415.2096,-94.5774"/>
</g>
<!-- Node23 -->
<g id="node24" class="node">
<title>Node23</title>
<g id="a_node24"><a xlink:href="never__destroyed_8h.html" target="_top" xlink:title=" ">
<polygon fill="#ffffff" stroke="#000000" points="513.5,-67.5 513.5,-97.5 634.5,-97.5 634.5,-67.5 513.5,-67.5"/>
<text text-anchor="start" x="521.5" y="-85.5" font-family="Helvetica,sans-Serif" font-size="10.00" fill="#000000">drake/common/never</text>
<text text-anchor="middle" x="574" y="-74.5" font-family="Helvetica,sans-Serif" font-size="10.00" fill="#000000">_destroyed.h</text>
</a>
</g>
</g>
<!-- Node20&#45;&gt;Node23 -->
<g id="edge29" class="edge">
<title>Node20&#45;&gt;Node23</title>
<path fill="none" stroke="#191970" d="M512.1532,-134.2967C522.7909,-125.3876 536.4022,-113.9882 548.146,-104.1527"/>
<polygon fill="#191970" stroke="#191970" points="550.4993,-106.7472 555.9186,-97.6432 546.0048,-101.3806 550.4993,-106.7472"/>
</g>
<!-- Node23&#45;&gt;Node9 -->
<g id="edge32" class="edge">
<title>Node23&#45;&gt;Node9</title>
<path fill="none" stroke="#191970" d="M519.9149,-67.4639C472.4232,-54.2608 404.9156,-35.4931 365.3646,-24.4976"/>
<polygon fill="#191970" stroke="#191970" points="366.2753,-21.1181 355.7032,-21.8117 364.4003,-27.8624 366.2753,-21.1181"/>
</g>
<!-- Node23&#45;&gt;Node15 -->
<g id="edge33" class="edge">
<title>Node23&#45;&gt;Node15</title>
<path fill="none" stroke="#191970" d="M608.5606,-67.4639C630.8727,-57.7567 660.0987,-45.0415 684.0554,-34.6188"/>
<polygon fill="#191970" stroke="#191970" points="685.5152,-37.8006 693.2887,-30.6017 682.7226,-31.3818 685.5152,-37.8006"/>
</g>
<!-- Node23&#45;&gt;Node17 -->
<g id="edge31" class="edge">
<title>Node23&#45;&gt;Node17</title>
<path fill="none" stroke="#191970" d="M634.6763,-68.7327C689.7169,-56.1992 766.7329,-38.5369 797,-31 801.3853,-29.908 805.949,-28.7412 810.5048,-27.5564"/>
<polygon fill="#191970" stroke="#191970" points="811.6126,-30.8842 820.3934,-24.9557 809.832,-24.1144 811.6126,-30.8842"/>
</g>
<!-- Node24 -->
<g id="node25" class="node">
<title>Node24</title>
<g id="a_node25"><a xlink:title=" ">
<polygon fill="#ffffff" stroke="#bfbfbf" points="555.5,-6 555.5,-25 592.5,-25 592.5,-6 555.5,-6"/>
<text text-anchor="middle" x="574" y="-13" font-family="Helvetica,sans-Serif" font-size="10.00" fill="#000000">new</text>
</a>
</g>
</g>
<!-- Node23&#45;&gt;Node24 -->
<g id="edge30" class="edge">
<title>Node23&#45;&gt;Node24</title>
<path fill="none" stroke="#191970" d="M574,-67.2967C574,-57.7699 574,-45.3954 574,-35.1306"/>
<polygon fill="#191970" stroke="#191970" points="577.5001,-35.0549 574,-25.055 570.5001,-35.055 577.5001,-35.0549"/>
</g>
</g>
</svg>
